<?xml version="1.0" standalone="no"?>
<svg width="567.429" height="553.904" viewBox="0 0 567.429 553.904" xmlns="http://www.w3.org/2000/svg" shape-rendering="crispEdges">
<title>
MC/MB1/OmegaTGPSPS/SameEventToBackgroundRatio_11.svg
</title>
<desc>
Creator: ROOT Version 6.20/08
CreationDate: Mon Mar 29 21:28:59 2021</desc>
<defs>
</defs>
<rect x="0.5" y="0" width="566.929" height="553.404" fill="white"/>
<rect x="68.5315" y="16.6021" width="484.724" height="481.461" fill="white"/>
<rect x="68.5315" y="16.6021" width="484.724" height="481.461" fill="none" stroke="black"/>
<rect x="68.5315" y="16.6021" width="484.724" height="481.461" fill="white"/>
<rect x="68.5315" y="16.6021" width="484.724" height="481.461" fill="none" stroke="black"/>
<g fill="black">
<circle cx="114.124" cy="496.484" r="6.76257"/>
</g>
<g fill="black">
<circle cx="118.924" cy="496.362" r="6.76257"/>
</g>
<g fill="black">
<circle cx="123.723" cy="497.102" r="6.76257"/>
</g>
<g fill="black">
<circle cx="128.522" cy="496.527" r="6.76257"/>
</g>
<g fill="black">
<circle cx="133.321" cy="493.99" r="6.76257"/>
</g>
<g fill="black">
<circle cx="138.121" cy="490.975" r="6.76257"/>
</g>
<g fill="black">
<circle cx="142.92" cy="487.603" r="6.76257"/>
</g>
<g fill="black">
<circle cx="147.719" cy="465.875" r="6.76257"/>
</g>
<g fill="black">
<circle cx="152.518" cy="447.043" r="6.76257"/>
</g>
<g fill="black">
<circle cx="157.318" cy="437.885" r="6.76257"/>
</g>
<g fill="black">
<circle cx="162.117" cy="429.351" r="6.76257"/>
</g>
<g fill="black">
<circle cx="166.916" cy="421.616" r="6.76257"/>
</g>
<g fill="black">
<circle cx="171.715" cy="410.867" r="6.76257"/>
</g>
<g fill="black">
<circle cx="176.515" cy="402.618" r="6.76257"/>
</g>
<g fill="black">
<circle cx="181.314" cy="395.813" r="6.76257"/>
</g>
<g fill="black">
<circle cx="186.113" cy="384.875" r="6.76257"/>
</g>
<g fill="black">
<circle cx="190.912" cy="380.331" r="6.76257"/>
</g>
<g fill="black">
<circle cx="195.712" cy="372.147" r="6.76257"/>
</g>
<g fill="black">
<circle cx="200.511" cy="366.761" r="6.76257"/>
</g>
<g fill="black">
<circle cx="205.31" cy="360.625" r="6.76257"/>
</g>
<g fill="black">
<circle cx="210.109" cy="360.613" r="6.76257"/>
</g>
<g fill="black">
<circle cx="214.909" cy="357.009" r="6.76257"/>
</g>
<g fill="black">
<circle cx="219.708" cy="350.399" r="6.76257"/>
</g>
<g fill="black">
<circle cx="224.507" cy="344.372" r="6.76257"/>
</g>
<g fill="black">
<circle cx="229.306" cy="342.549" r="6.76257"/>
</g>
<g fill="black">
<circle cx="234.106" cy="336.438" r="6.76257"/>
</g>
<g fill="black">
<circle cx="238.905" cy="334.467" r="6.76257"/>
</g>
<g fill="black">
<circle cx="243.704" cy="331.753" r="6.76257"/>
</g>
<g fill="black">
<circle cx="248.503" cy="325.482" r="6.76257"/>
</g>
<g fill="black">
<circle cx="253.303" cy="316.564" r="6.76257"/>
</g>
<g fill="black">
<circle cx="258.102" cy="317.778" r="6.76257"/>
</g>
<g fill="black">
<circle cx="262.901" cy="315.57" r="6.76257"/>
</g>
<g fill="black">
<circle cx="267.7" cy="315.197" r="6.76257"/>
</g>
<g fill="black">
<circle cx="272.5" cy="309.124" r="6.76257"/>
</g>
<g fill="black">
<circle cx="277.299" cy="308.759" r="6.76257"/>
</g>
<g fill="black">
<circle cx="339.689" cy="281.448" r="6.76257"/>
</g>
<g fill="black">
<circle cx="344.488" cy="283.528" r="6.76257"/>
</g>
<g fill="black">
<circle cx="349.288" cy="278.525" r="6.76257"/>
</g>
<g fill="black">
<circle cx="354.087" cy="278.177" r="6.76257"/>
</g>
<g fill="black">
<circle cx="358.886" cy="280.968" r="6.76257"/>
</g>
<g fill="black">
<circle cx="363.685" cy="274.131" r="6.76257"/>
</g>
<g fill="black">
<circle cx="368.485" cy="273.524" r="6.76257"/>
</g>
<g fill="black">
<circle cx="373.284" cy="271.105" r="6.76257"/>
</g>
<g fill="black">
<circle cx="378.083" cy="265.488" r="6.76257"/>
</g>
<g fill="black">
<circle cx="382.882" cy="267.265" r="6.76257"/>
</g>
<g fill="black">
<circle cx="387.682" cy="267.093" r="6.76257"/>
</g>
<g fill="black">
<circle cx="392.481" cy="255.896" r="6.76257"/>
</g>
<g fill="black">
<circle cx="397.28" cy="257.833" r="6.76257"/>
</g>
<g fill="black">
<circle cx="402.079" cy="260.723" r="6.76257"/>
</g>
<g fill="black">
<circle cx="406.879" cy="256.685" r="6.76257"/>
</g>
<g fill="black">
<circle cx="411.678" cy="249.001" r="6.76257"/>
</g>
<g fill="black">
<circle cx="416.477" cy="253.467" r="6.76257"/>
</g>
<g fill="black">
<circle cx="421.276" cy="251.909" r="6.76257"/>
</g>
<g fill="black">
<circle cx="426.076" cy="249.503" r="6.76257"/>
</g>
<g fill="black">
<circle cx="430.875" cy="247.692" r="6.76257"/>
</g>
<g fill="black">
<circle cx="435.674" cy="243.461" r="6.76257"/>
</g>
<g fill="black">
<circle cx="440.473" cy="241.257" r="6.76257"/>
</g>
<g fill="black">
<circle cx="445.273" cy="243.767" r="6.76257"/>
</g>
<g fill="black">
<circle cx="450.072" cy="240.142" r="6.76257"/>
</g>
<g fill="black">
<circle cx="454.871" cy="243.451" r="6.76257"/>
</g>
<g fill="black">
<circle cx="459.671" cy="237.529" r="6.76257"/>
</g>
<g fill="black">
<circle cx="464.47" cy="234.993" r="6.76257"/>
</g>
<g fill="black">
<circle cx="469.269" cy="233.929" r="6.76257"/>
</g>
<g fill="black">
<circle cx="474.068" cy="229.776" r="6.76257"/>
</g>
<g fill="black">
<circle cx="478.867" cy="233.744" r="6.76257"/>
</g>
<g fill="black">
<circle cx="483.667" cy="230.235" r="6.76257"/>
</g>
<g fill="black">
<circle cx="488.466" cy="221.76" r="6.76257"/>
</g>
<g fill="black">
<circle cx="493.265" cy="228.115" r="6.76257"/>
</g>
<g fill="black">
<circle cx="498.065" cy="231.634" r="6.76257"/>
</g>
<g fill="black">
<circle cx="502.864" cy="220.838" r="6.76257"/>
</g>
<g fill="black">
<circle cx="507.663" cy="218.529" r="6.76257"/>
</g>
<g fill="black">
<circle cx="512.462" cy="209.733" r="6.76257"/>
</g>
<g fill="black">
<circle cx="517.262" cy="211.253" r="6.76257"/>
</g>
<g fill="black">
<circle cx="522.061" cy="204.198" r="6.76257"/>
</g>
<g fill="black">
<circle cx="526.86" cy="213.608" r="6.76257"/>
</g>
<g fill="black">
<circle cx="531.659" cy="214.737" r="6.76257"/>
</g>
<g fill="black">
<circle cx="536.458" cy="201.34" r="6.76257"/>
</g>
<g fill="black">
<circle cx="541.258" cy="197.15" r="6.76257"/>
</g>
<g fill="black">
<circle cx="546.057" cy="200.264" r="6.76257"/>
</g>
<path d="M68.5315,498.064h 484.724" fill="none" stroke="black"/>
<path d="M68.5315,483.869v 14.1948" fill="none" stroke="black"/>
<path d="M83.5292,490.966v 7.09741" fill="none" stroke="black"/>
<path d="M98.5268,490.966v 7.09741" fill="none" stroke="black"/>
<path d="M113.524,490.966v 7.09741" fill="none" stroke="black"/>
<path d="M128.522,483.869v 14.1948" fill="none" stroke="black"/>
<path d="M143.52,490.966v 7.09741" fill="none" stroke="black"/>
<path d="M158.517,490.966v 7.09741" fill="none" stroke="black"/>
<path d="M173.515,490.966v 7.09741" fill="none" stroke="black"/>
<path d="M188.513,483.869v 14.1948" fill="none" stroke="black"/>
<path d="M203.51,490.966v 7.09741" fill="none" stroke="black"/>
<path d="M218.508,490.966v 7.09741" fill="none" stroke="black"/>
<path d="M233.506,490.966v 7.09741" fill="none" stroke="black"/>
<path d="M248.503,483.869v 14.1948" fill="none" stroke="black"/>
<path d="M263.501,490.966v 7.09741" fill="none" stroke="black"/>
<path d="M278.499,490.966v 7.09741" fill="none" stroke="black"/>
<path d="M293.496,490.966v 7.09741" fill="none" stroke="black"/>
<path d="M308.494,483.869v 14.1948" fill="none" stroke="black"/>
<path d="M323.492,490.966v 7.09741" fill="none" stroke="black"/>
<path d="M338.489,490.966v 7.09741" fill="none" stroke="black"/>
<path d="M353.487,490.966v 7.09741" fill="none" stroke="black"/>
<path d="M368.485,483.869v 14.1948" fill="none" stroke="black"/>
<path d="M383.482,490.966v 7.09741" fill="none" stroke="black"/>
<path d="M398.48,490.966v 7.09741" fill="none" stroke="black"/>
<path d="M413.478,490.966v 7.09741" fill="none" stroke="black"/>
<path d="M428.475,483.869v 14.1948" fill="none" stroke="black"/>
<path d="M443.473,490.966v 7.09741" fill="none" stroke="black"/>
<path d="M458.471,490.966v 7.09741" fill="none" stroke="black"/>
<path d="M473.468,490.966v 7.09741" fill="none" stroke="black"/>
<path d="M488.466,483.869v 14.1948" fill="none" stroke="black"/>
<path d="M503.464,490.966v 7.09741" fill="none" stroke="black"/>
<path d="M518.461,490.966v 7.09741" fill="none" stroke="black"/>
<path d="M533.459,490.966v 7.09741" fill="none" stroke="black"/>
<path d="M548.457,483.869v 14.1948" fill="none" stroke="black"/>
<path d="M548.457,483.869v 14.1948" fill="none" stroke="black"/>
<text xml:space="preserve" x="63.6174" y="513.956" fill="black" font-size="16.0105" font-family="Helvetica">0</text>
<text xml:space="preserve" x="117.718" y="513.956" fill="black" font-size="16.0105" font-family="Helvetica">0.2</text>
<text xml:space="preserve" x="177.454" y="513.956" fill="black" font-size="16.0105" font-family="Helvetica">0.4</text>
<text xml:space="preserve" x="237.754" y="513.956" fill="black" font-size="16.0105" font-family="Helvetica">0.6</text>
<text xml:space="preserve" x="297.49" y="513.956" fill="black" font-size="16.0105" font-family="Helvetica">0.8</text>
<text xml:space="preserve" x="365.115" y="513.956" fill="black" font-size="16.0105" font-family="Helvetica">1</text>
<text xml:space="preserve" x="417.525" y="513.956" fill="black" font-size="16.0105" font-family="Helvetica">1.2</text>
<text xml:space="preserve" x="477.261" y="513.956" fill="black" font-size="16.0105" font-family="Helvetica">1.4</text>
<text xml:space="preserve" x="537.561" y="513.956" fill="black" font-size="16.0105" font-family="Helvetica">1.6</text>
<text xml:space="preserve" x="548.268" y="537.625" fill="black" font-size="16.0105" font-family="Helvetica">)</text>
<text xml:space="preserve" x="542.633" y="532.553" fill="black" font-size="10.8403" font-family="Helvetica">2</text>
<text xml:space="preserve" x="533.616" y="537.625" fill="black" font-size="16.0105" font-family="Helvetica" font-style="oblique">c</text>
<text xml:space="preserve" x="487.405" y="537.625" fill="black" font-size="16.0105" font-family="Helvetica"> (GeV/</text>
<text xml:space="preserve" x="473.317" y="542.697" fill="black" font-size="10.8403" font-family="Helvetica">inv</text>
<text xml:space="preserve" x="459.792" y="537.625" fill="black" font-size="16.0105" font-family="Helvetica" font-style="oblique">m</text>
<path d="M68.5315,16.6021h 484.724" fill="none" stroke="black"/>
<path d="M68.5315,30.7969v -14.1948" fill="none" stroke="black"/>
<path d="M83.5292,23.6995v -7.09741" fill="none" stroke="black"/>
<path d="M98.5268,23.6995v -7.09741" fill="none" stroke="black"/>
<path d="M113.524,23.6995v -7.09741" fill="none" stroke="black"/>
<path d="M128.522,30.7969v -14.1948" fill="none" stroke="black"/>
<path d="M143.52,23.6995v -7.09741" fill="none" stroke="black"/>
<path d="M158.517,23.6995v -7.09741" fill="none" stroke="black"/>
<path d="M173.515,23.6995v -7.09741" fill="none" stroke="black"/>
<path d="M188.513,30.7969v -14.1948" fill="none" stroke="black"/>
<path d="M203.51,23.6995v -7.09741" fill="none" stroke="black"/>
<path d="M218.508,23.6995v -7.09741" fill="none" stroke="black"/>
<path d="M233.506,23.6995v -7.09741" fill="none" stroke="black"/>
<path d="M248.503,30.7969v -14.1948" fill="none" stroke="black"/>
<path d="M263.501,23.6995v -7.09741" fill="none" stroke="black"/>
<path d="M278.499,23.6995v -7.09741" fill="none" stroke="black"/>
<path d="M293.496,23.6995v -7.09741" fill="none" stroke="black"/>
<path d="M308.494,30.7969v -14.1948" fill="none" stroke="black"/>
<path d="M323.492,23.6995v -7.09741" fill="none" stroke="black"/>
<path d="M338.489,23.6995v -7.09741" fill="none" stroke="black"/>
<path d="M353.487,23.6995v -7.09741" fill="none" stroke="black"/>
<path d="M368.485,30.7969v -14.1948" fill="none" stroke="black"/>
<path d="M383.482,23.6995v -7.09741" fill="none" stroke="black"/>
<path d="M398.48,23.6995v -7.09741" fill="none" stroke="black"/>
<path d="M413.478,23.6995v -7.09741" fill="none" stroke="black"/>
<path d="M428.475,30.7969v -14.1948" fill="none" stroke="black"/>
<path d="M443.473,23.6995v -7.09741" fill="none" stroke="black"/>
<path d="M458.471,23.6995v -7.09741" fill="none" stroke="black"/>
<path d="M473.468,23.6995v -7.09741" fill="none" stroke="black"/>
<path d="M488.466,30.7969v -14.1948" fill="none" stroke="black"/>
<path d="M503.464,23.6995v -7.09741" fill="none" stroke="black"/>
<path d="M518.461,23.6995v -7.09741" fill="none" stroke="black"/>
<path d="M533.459,23.6995v -7.09741" fill="none" stroke="black"/>
<path d="M548.457,30.7969v -14.1948" fill="none" stroke="black"/>
<path d="M548.457,30.7969v -14.1948" fill="none" stroke="black"/>
<path d="M68.5315,498.064v -481.461" fill="none" stroke="black"/>
<path d="M83.3283,498.064h -14.7969" fill="none" stroke="black"/>
<path d="M75.9299,478.14h -7.39843" fill="none" stroke="black"/>
<path d="M75.9299,458.216h -7.39843" fill="none" stroke="black"/>
<path d="M75.9299,438.292h -7.39843" fill="none" stroke="black"/>
<path d="M83.3283,418.368h -14.7969" fill="none" stroke="black"/>
<path d="M75.9299,398.444h -7.39843" fill="none" stroke="black"/>
<path d="M75.9299,378.52h -7.39843" fill="none" stroke="black"/>
<path d="M75.9299,358.596h -7.39843" fill="none" stroke="black"/>
<path d="M83.3283,338.672h -14.7969" fill="none" stroke="black"/>
<path d="M75.9299,318.748h -7.39843" fill="none" stroke="black"/>
<path d="M75.9299,298.824h -7.39843" fill="none" stroke="black"/>
<path d="M75.9299,278.9h -7.39843" fill="none" stroke="black"/>
<path d="M83.3283,258.976h -14.7969" fill="none" stroke="black"/>
<path d="M75.9299,239.052h -7.39843" fill="none" stroke="black"/>
<path d="M75.9299,219.128h -7.39843" fill="none" stroke="black"/>
<path d="M75.9299,199.204h -7.39843" fill="none" stroke="black"/>
<path d="M83.3283,179.28h -14.7969" fill="none" stroke="black"/>
<path d="M75.9299,159.356h -7.39843" fill="none" stroke="black"/>
<path d="M75.9299,139.432h -7.39843" fill="none" stroke="black"/>
<path d="M75.9299,119.508h -7.39843" fill="none" stroke="black"/>
<path d="M83.3283,99.5838h -14.7969" fill="none" stroke="black"/>
<path d="M75.9299,79.6598h -7.39843" fill="none" stroke="black"/>
<path d="M75.9299,59.7358h -7.39843" fill="none" stroke="black"/>
<path d="M75.9299,39.8118h -7.39843" fill="none" stroke="black"/>
<path d="M83.3283,19.8878h -14.7969" fill="none" stroke="black"/>
<path d="M83.3283,19.8878h -14.7969" fill="none" stroke="black"/>
<text xml:space="preserve" x="56.8548" y="503.248" fill="black" font-size="16.0105" font-family="Helvetica">0</text>
<text xml:space="preserve" x="34.8764" y="423.788" fill="black" font-size="16.0105" font-family="Helvetica">0.02</text>
<text xml:space="preserve" x="34.8764" y="343.764" fill="black" font-size="16.0105" font-family="Helvetica">0.04</text>
<text xml:space="preserve" x="34.8764" y="264.304" fill="black" font-size="16.0105" font-family="Helvetica">0.06</text>
<text xml:space="preserve" x="34.8764" y="184.844" fill="black" font-size="16.0105" font-family="Helvetica">0.08</text>
<text xml:space="preserve" x="46.1474" y="104.82" fill="black" font-size="16.0105" font-family="Helvetica">0.1</text>
<text xml:space="preserve" x="34.8764" y="25.3597" fill="black" font-size="16.0105" font-family="Helvetica">0.12</text>
<g transform="rotate(-90,38.2577,98.0573)">
<text xml:space="preserve" x="38.2577" y="98.0573" fill="black" font-size="16.0105" font-family="Helvetica">background</text>
</g>
<g transform="rotate(-90,21.9148,98.0573)">
<text xml:space="preserve" x="21.9148" y="98.0573" fill="black" font-size="16.0105" font-family="Helvetica">same event</text>
</g>
<path d="M24.169,98.0573l 0.563548, -81.7144" fill="none" stroke="black" stroke-width="2"/>
<path d="M553.256,498.064v -481.461" fill="none" stroke="black"/>
<path d="M538.459,498.064h 14.7969" fill="none" stroke="black"/>
<path d="M545.857,478.14h 7.39843" fill="none" stroke="black"/>
<path d="M545.857,458.216h 7.39843" fill="none" stroke="black"/>
<path d="M545.857,438.292h 7.39843" fill="none" stroke="black"/>
<path d="M538.459,418.368h 14.7969" fill="none" stroke="black"/>
<path d="M545.857,398.444h 7.39843" fill="none" stroke="black"/>
<path d="M545.857,378.52h 7.39843" fill="none" stroke="black"/>
<path d="M545.857,358.596h 7.39843" fill="none" stroke="black"/>
<path d="M538.459,338.672h 14.7969" fill="none" stroke="black"/>
<path d="M545.857,318.748h 7.39843" fill="none" stroke="black"/>
<path d="M545.857,298.824h 7.39843" fill="none" stroke="black"/>
<path d="M545.857,278.9h 7.39843" fill="none" stroke="black"/>
<path d="M538.459,258.976h 14.7969" fill="none" stroke="black"/>
<path d="M545.857,239.052h 7.39843" fill="none" stroke="black"/>
<path d="M545.857,219.128h 7.39843" fill="none" stroke="black"/>
<path d="M545.857,199.204h 7.39843" fill="none" stroke="black"/>
<path d="M538.459,179.28h 14.7969" fill="none" stroke="black"/>
<path d="M545.857,159.356h 7.39843" fill="none" stroke="black"/>
<path d="M545.857,139.432h 7.39843" fill="none" stroke="black"/>
<path d="M545.857,119.508h 7.39843" fill="none" stroke="black"/>
<path d="M538.459,99.5838h 14.7969" fill="none" stroke="black"/>
<path d="M545.857,79.6598h 7.39843" fill="none" stroke="black"/>
<path d="M545.857,59.7358h 7.39843" fill="none" stroke="black"/>
<path d="M545.857,39.8118h 7.39843" fill="none" stroke="black"/>
<path d="M538.459,19.8878h 14.7969" fill="none" stroke="black"/>
<path d="M538.459,19.8878h 14.7969" fill="none" stroke="black"/>
<g stroke="#333333" stroke-width="2" fill="none">
<circle cx="282.098" cy="307.454" r="5.63548"/>
</g>
<g stroke="#333333" stroke-width="2" fill="none">
<circle cx="286.897" cy="300.934" r="5.63548"/>
</g>
<g stroke="#333333" stroke-width="2" fill="none">
<circle cx="291.697" cy="302.07" r="5.63548"/>
</g>
<g stroke="#333333" stroke-width="2" fill="none">
<circle cx="296.496" cy="297.033" r="5.63548"/>
</g>
<g stroke="#333333" stroke-width="2" fill="none">
<circle cx="301.295" cy="291.064" r="5.63548"/>
</g>
<g stroke="#333333" stroke-width="2" fill="none">
<circle cx="306.094" cy="287.03" r="5.63548"/>
</g>
<g stroke="#333333" stroke-width="2" fill="none">
<circle cx="310.894" cy="284.667" r="5.63548"/>
</g>
<g stroke="#333333" stroke-width="2" fill="none">
<circle cx="315.693" cy="287.825" r="5.63548"/>
</g>
<g stroke="#333333" stroke-width="2" fill="none">
<circle cx="320.492" cy="287.939" r="5.63548"/>
</g>
<g stroke="#333333" stroke-width="2" fill="none">
<circle cx="325.291" cy="285.929" r="5.63548"/>
</g>
<g stroke="#333333" stroke-width="2" fill="none">
<circle cx="330.091" cy="283.181" r="5.63548"/>
</g>
<g stroke="#333333" stroke-width="2" fill="none">
<circle cx="334.89" cy="283.112" r="5.63548"/>
</g>
<path d="M98.7518,381.584l 0.44993, -0.18164l 0.44993, -0.18164l 0.44993, -0.18164l 0.44993, -0.18164l 0.44993, -0.18164l 0.44993, -0.18164l 0.44993, -0.18164l 0.44993, -0.18164l 0.44993, -0.18164l 0.44993, -0.18164l 0.44993, -0.18164l 0.44993,
 -0.18164l 0.44993, -0.18164l 0.44993, -0.18164l 0.44993, -0.18164l 0.44993, -0.18164l 0.44993, -0.18164l 0.44993, -0.18164l 0.44993, -0.18164l 0.44993, -0.18164l 0.44993, -0.18164l 0.44993, -0.18164l 0.44993, -0.18164l 0.44993, -0.18164l 0.44993,
 -0.18164l 0.44993, -0.18164l 0.44993, -0.18164l 0.44993, -0.18164l 0.44993, -0.18164l 0.44993, -0.18164l 0.44993, -0.18164l 0.44993, -0.18164l 0.44993, -0.18164l 0.44993, -0.18164l 0.44993, -0.18164l 0.44993, -0.18164l 0.44993, -0.18164l 0.44993,
 -0.18164l 0.44993, -0.18164l 0.44993, -0.18164l 0.44993, -0.18164l 0.44993, -0.18164l 0.44993, -0.18164l 0.44993, -0.18164l 0.44993, -0.18164l 0.44993, -0.18164l 0.44993, -0.18164l 0.44993, -0.18164l 0.44993, -0.18164" fill="none" stroke="#33cccc"
 stroke-width="3"/>
<path d="M120.798,372.684l 0.44993, -0.18164l 0.44993, -0.18164l 0.44993, -0.18164l 0.44993, -0.18164l 0.44993, -0.18164l 0.44993, -0.18164l 0.44993, -0.18164l 0.44993, -0.18164l 0.44993, -0.18164l 0.44993, -0.18164l 0.44993, -0.18164l 0.44993,
 -0.18164l 0.44993, -0.18164l 0.44993, -0.18164l 0.44993, -0.18164l 0.44993, -0.18164l 0.44993, -0.18164l 0.44993, -0.18164l 0.44993, -0.18164l 0.44993, -0.18164l 0.44993, -0.18164l 0.44993, -0.18164l 0.44993, -0.18164l 0.44993, -0.18164l 0.44993,
 -0.18164l 0.44993, -0.18164l 0.44993, -0.18164l 0.44993, -0.18164l 0.44993, -0.18164l 0.44993, -0.18164l 0.44993, -0.18164l 0.44993, -0.18164l 0.44993, -0.18164l 0.44993, -0.18164l 0.44993, -0.18164l 0.44993, -0.18164l 0.44993, -0.18164l 0.44993,
 -0.18164l 0.44993, -0.18164l 0.44993, -0.18164l 0.44993, -0.18164l 0.44993, -0.18164l 0.44993, -0.18164l 0.44993, -0.18164l 0.44993, -0.18164l 0.44993, -0.18164l 0.44993, -0.18164l 0.44993, -0.18164l 0.44993, -0.18164" fill="none" stroke="#33cccc"
 stroke-width="3"/>
<path d="M142.845,363.783l 0.44993, -0.18164l 0.44993, -0.18164l 0.44993, -0.18164l 0.44993, -0.18164l 0.44993, -0.18164l 0.44993, -0.18164l 0.44993, -0.18164l 0.44993, -0.18164l 0.44993, -0.18164l 0.44993, -0.18164l 0.44993, -0.18164l 0.44993,
 -0.18164l 0.44993, -0.18164l 0.44993, -0.18164l 0.44993, -0.18164l 0.44993, -0.18164l 0.44993, -0.18164l 0.44993, -0.18164l 0.44993, -0.18164l 0.44993, -0.18164l 0.44993, -0.18164l 0.44993, -0.18164l 0.44993, -0.18164l 0.44993, -0.18164l 0.44993,
 -0.18164l 0.44993, -0.18164l 0.44993, -0.18164l 0.44993, -0.18164l 0.44993, -0.18164l 0.44993, -0.18164l 0.44993, -0.18164l 0.44993, -0.18164l 0.44993, -0.18164l 0.44993, -0.18164l 0.44993, -0.18164l 0.44993, -0.18164l 0.44993, -0.18164l 0.44993,
 -0.18164l 0.44993, -0.18164l 0.44993, -0.18164l 0.44993, -0.18164l 0.44993, -0.18164l 0.44993, -0.18164l 0.44993, -0.18164l 0.44993, -0.18164l 0.44993, -0.18164l 0.44993, -0.18164l 0.44993, -0.18164l 0.44993, -0.18164" fill="none" stroke="#33cccc"
 stroke-width="3"/>
<path d="M164.891,354.883l 0.44993, -0.18164l 0.44993, -0.18164l 0.44993, -0.18164l 0.44993, -0.18164l 0.44993, -0.18164l 0.44993, -0.18164l 0.44993, -0.18164l 0.44993, -0.18164l 0.44993, -0.18164l 0.44993, -0.18164l 0.44993, -0.18164l 0.44993,
 -0.18164l 0.44993, -0.18164l 0.44993, -0.18164l 0.44993, -0.18164l 0.44993, -0.18164l 0.44993, -0.18164l 0.44993, -0.18164l 0.44993, -0.18164l 0.44993, -0.18164l 0.44993, -0.18164l 0.44993, -0.18164l 0.44993, -0.18164l 0.44993, -0.18164l 0.44993,
 -0.18164l 0.44993, -0.18164l 0.44993, -0.18164l 0.44993, -0.18164l 0.44993, -0.18164l 0.44993, -0.18164l 0.44993, -0.18164l 0.44993, -0.18164l 0.44993, -0.18164l 0.44993, -0.18164l 0.44993, -0.18164l 0.44993, -0.18164l 0.44993, -0.18164l 0.44993,
 -0.18164l 0.44993, -0.18164l 0.44993, -0.18164l 0.44993, -0.18164l 0.44993, -0.18164l 0.44993, -0.18164l 0.44993, -0.18164l 0.44993, -0.18164l 0.44993, -0.18164l 0.44993, -0.18164l 0.44993, -0.18164l 0.44993, -0.18164" fill="none" stroke="#33cccc"
 stroke-width="3"/>
<path d="M186.938,345.982l 0.44993, -0.18164l 0.44993, -0.18164l 0.44993, -0.18164l 0.44993, -0.18164l 0.44993, -0.18164l 0.44993, -0.18164l 0.44993, -0.18164l 0.44993, -0.18164l 0.44993, -0.18164l 0.44993, -0.18164l 0.44993, -0.18164l 0.44993,
 -0.18164l 0.44993, -0.18164l 0.44993, -0.18164l 0.44993, -0.18164l 0.44993, -0.18164l 0.44993, -0.18164l 0.44993, -0.18164l 0.44993, -0.18164l 0.44993, -0.18164l 0.44993, -0.18164l 0.44993, -0.18164l 0.44993, -0.18164l 0.44993, -0.18164l 0.44993,
 -0.18164l 0.44993, -0.18164l 0.44993, -0.18164l 0.44993, -0.18164l 0.44993, -0.18164l 0.44993, -0.18164l 0.44993, -0.18164l 0.44993, -0.18164l 0.44993, -0.18164l 0.44993, -0.18164l 0.44993, -0.18164l 0.44993, -0.18164l 0.44993, -0.18164l 0.44993,
 -0.18164l 0.44993, -0.18164l 0.44993, -0.18164l 0.44993, -0.18164l 0.44993, -0.18164l 0.44993, -0.18164l 0.44993, -0.18164l 0.44993, -0.18164l 0.44993, -0.18164l 0.44993, -0.18164l 0.44993, -0.18164l 0.44993, -0.18164" fill="none" stroke="#33cccc"
 stroke-width="3"/>
<path d="M208.985,337.082l 0.44993, -0.18164l 0.44993, -0.18164l 0.44993, -0.18164l 0.44993, -0.18164l 0.44993, -0.18164l 0.44993, -0.18164l 0.44993, -0.18164l 0.44993, -0.18164l 0.44993, -0.18164l 0.44993, -0.18164l 0.44993, -0.18164l 0.44993,
 -0.18164l 0.44993, -0.18164l 0.44993, -0.18164l 0.44993, -0.18164l 0.44993, -0.18164l 0.44993, -0.18164l 0.44993, -0.18164l 0.44993, -0.18164l 0.44993, -0.18164l 0.44993, -0.18164l 0.44993, -0.18164l 0.44993, -0.18164l 0.44993, -0.18164l 0.44993,
 -0.18164l 0.44993, -0.18164l 0.44993, -0.18164l 0.44993, -0.18164l 0.44993, -0.18164l 0.44993, -0.18164l 0.44993, -0.18164l 0.44993, -0.18164l 0.44993, -0.18164l 0.44993, -0.18164l 0.44993, -0.18164l 0.44993, -0.18164l 0.44993, -0.18164l 0.44993,
 -0.18164l 0.44993, -0.18164l 0.44993, -0.18164l 0.44993, -0.18164l 0.44993, -0.18164l 0.44993, -0.18164l 0.44993, -0.18164l 0.44993, -0.18164l 0.44993, -0.18164l 0.44993, -0.18164l 0.44993, -0.18164l 0.44993, -0.18164" fill="none" stroke="#33cccc"
 stroke-width="3"/>
<path d="M231.031,328.182l 0.44993, -0.18164l 0.44993, -0.18164l 0.44993, -0.18164l 0.44993, -0.18164l 0.44993, -0.18164l 0.44993, -0.18164l 0.44993, -0.18164l 0.44993, -0.18164l 0.44993, -0.18164l 0.44993, -0.18164l 0.44993, -0.18164l 0.44993,
 -0.18164l 0.44993, -0.18164l 0.44993, -0.18164l 0.44993, -0.18164l 0.44993, -0.18164l 0.44993, -0.18164l 0.44993, -0.18164l 0.44993, -0.18164l 0.44993, -0.18164l 0.44993, -0.18164l 0.44993, -0.18164l 0.44993, -0.18164l 0.44993, -0.18164l 0.44993,
 -0.18164l 0.44993, -0.18164l 0.44993, -0.18164l 0.44993, -0.18164l 0.44993, -0.18164l 0.44993, -0.18164l 0.44993, -0.18164l 0.44993, -0.18164l 0.44993, -0.18164l 0.44993, -0.18164l 0.44993, -0.18164l 0.44993, -0.18164l 0.44993, -0.18164l 0.44993,
 -0.18164l 0.44993, -0.18164l 0.44993, -0.18164l 0.44993, -0.18164l 0.44993, -0.18164l 0.44993, -0.18164l 0.44993, -0.18164l 0.44993, -0.18164l 0.44993, -0.18164l 0.44993, -0.18164l 0.44993, -0.18164l 0.44993, -0.18164" fill="none" stroke="#33cccc"
 stroke-width="3"/>
<path d="M253.078,319.281l 0.44993, -0.18164l 0.44993, -0.18164l 0.44993, -0.18164l 0.44993, -0.18164l 0.44993, -0.18164l 0.44993, -0.18164l 0.44993, -0.18164l 0.44993, -0.18164l 0.44993, -0.18164l 0.44993, -0.18164l 0.44993, -0.18164l 0.44993,
 -0.18164l 0.44993, -0.18164l 0.44993, -0.18164l 0.44993, -0.18164l 0.44993, -0.18164l 0.44993, -0.18164l 0.44993, -0.18164l 0.44993, -0.18164l 0.44993, -0.18164l 0.44993, -0.18164l 0.44993, -0.18164l 0.44993, -0.18164l 0.44993, -0.18164l 0.44993,
 -0.18164l 0.44993, -0.18164l 0.44993, -0.18164l 0.44993, -0.18164l 0.44993, -0.18164l 0.44993, -0.18164l 0.44993, -0.18164l 0.44993, -0.18164l 0.44993, -0.18164l 0.44993, -0.18164l 0.44993, -0.18164l 0.44993, -0.18164l 0.44993, -0.18164l 0.44993,
 -0.18164l 0.44993, -0.18164l 0.44993, -0.18164l 0.44993, -0.18164l 0.44993, -0.18164l 0.44993, -0.18164l 0.44993, -0.18164l 0.44993, -0.18164l 0.44993, -0.18164l 0.44993, -0.18164l 0.44993, -0.18164l 0.44993, -0.18164" fill="none" stroke="#33cccc"
 stroke-width="3"/>
<path d="M275.124,310.381l 0.44993, -0.18164l 0.44993, -0.18164l 0.44993, -0.18164l 0.44993, -0.18164l 0.44993, -0.18164l 0.44993, -0.18164l 0.44993, -0.18164l 0.44993, -0.18164l 0.44993, -0.18164l 0.44993, -0.18164l 0.44993, -0.18164l 0.44993,
 -0.18164l 0.44993, -0.18164l 0.44993, -0.18164l 0.44993, -0.18164l 0.44993, -0.18164l 0.44993, -0.18164l 0.44993, -0.18164l 0.44993, -0.18164l 0.44993, -0.18164l 0.44993, -0.18164l 0.44993, -0.18164l 0.44993, -0.18164l 0.44993, -0.18164l 0.44993,
 -0.18164l 0.44993, -0.18164l 0.44993, -0.18164l 0.44993, -0.18164l 0.44993, -0.18164l 0.44993, -0.18164l 0.44993, -0.18164l 0.44993, -0.18164l 0.44993, -0.18164l 0.44993, -0.18164l 0.44993, -0.18164l 0.44993, -0.18164l 0.44993, -0.18164l 0.44993,
 -0.18164l 0.44993, -0.18164l 0.44993, -0.18164l 0.44993, -0.18164l 0.44993, -0.18164l 0.44993, -0.18164l 0.44993, -0.18164l 0.44993, -0.18164l 0.44993, -0.18164l 0.44993, -0.18164l 0.44993, -0.18164l 0.44993, -0.18164" fill="none" stroke="#33cccc"
 stroke-width="3"/>
<path d="M297.171,301.481l 0.44993, -0.18164l 0.44993, -0.18164l 0.44993, -0.18164l 0.44993, -0.18164l 0.44993, -0.18164l 0.44993, -0.18164l 0.44993, -0.18164l 0.44993, -0.18164l 0.44993, -0.18164l 0.44993, -0.18164l 0.44993, -0.18164l 0.44993,
 -0.18164l 0.44993, -0.18164l 0.44993, -0.18164l 0.44993, -0.18164l 0.44993, -0.18164l 0.44993, -0.18164l 0.44993, -0.18164l 0.44993, -0.18164l 0.44993, -0.18164l 0.44993, -0.18164l 0.44993, -0.18164l 0.44993, -0.18164l 0.44993, -0.18164l 0.44993,
 -0.18164l 0.44993, -0.18164l 0.44993, -0.18164l 0.44993, -0.18164l 0.44993, -0.18164l 0.44993, -0.18164l 0.44993, -0.18164l 0.44993, -0.18164l 0.44993, -0.18164l 0.44993, -0.18164l 0.44993, -0.18164l 0.44993, -0.18164l 0.44993, -0.18164l 0.44993,
 -0.18164l 0.44993, -0.18164l 0.44993, -0.18164l 0.44993, -0.18164l 0.44993, -0.18164l 0.44993, -0.18164l 0.44993, -0.18164l 0.44993, -0.18164l 0.44993, -0.18164l 0.44993, -0.18164l 0.44993, -0.18164l 0.44993, -0.18164" fill="none" stroke="#33cccc"
 stroke-width="3"/>
<path d="M319.217,292.58l 0.44993, -0.18164l 0.44993, -0.18164l 0.44993, -0.18164l 0.44993, -0.18164l 0.44993, -0.18164l 0.44993, -0.18164l 0.44993, -0.18164l 0.44993, -0.18164l 0.44993, -0.18164l 0.44993, -0.18164l 0.44993, -0.18164l 0.44993,
 -0.18164l 0.44993, -0.18164l 0.44993, -0.18164l 0.44993, -0.18164l 0.44993, -0.18164l 0.44993, -0.18164l 0.44993, -0.18164l 0.44993, -0.18164l 0.44993, -0.18164l 0.44993, -0.18164l 0.44993, -0.18164l 0.44993, -0.18164l 0.44993, -0.18164l 0.44993,
 -0.18164l 0.44993, -0.18164l 0.44993, -0.18164l 0.44993, -0.18164l 0.44993, -0.18164l 0.44993, -0.18164l 0.44993, -0.18164l 0.44993, -0.18164l 0.44993, -0.18164l 0.44993, -0.18164l 0.44993, -0.18164l 0.44993, -0.18164l 0.44993, -0.18164l 0.44993,
 -0.18164l 0.44993, -0.18164l 0.44993, -0.18164l 0.44993, -0.18164l 0.44993, -0.18164l 0.44993, -0.18164l 0.44993, -0.18164l 0.44993, -0.18164l 0.44993, -0.18164l 0.44993, -0.18164l 0.44993, -0.18164l 0.44993, -0.18164" fill="none" stroke="#33cccc"
 stroke-width="3"/>
<path d="M341.264,283.68l 0.44993, -0.18164l 0.44993, -0.18164l 0.44993, -0.18164l 0.44993, -0.18164l 0.44993, -0.18164l 0.44993, -0.18164l 0.44993, -0.18164l 0.44993, -0.18164l 0.44993, -0.18164l 0.44993, -0.18164l 0.44993, -0.18164l 0.44993,
 -0.18164l 0.44993, -0.18164l 0.44993, -0.18164l 0.44993, -0.18164l 0.44993, -0.18164l 0.44993, -0.18164l 0.44993, -0.18164l 0.44993, -0.18164l 0.44993, -0.18164l 0.44993, -0.18164l 0.44993, -0.18164l 0.44993, -0.18164l 0.44993, -0.18164l 0.44993,
 -0.18164l 0.44993, -0.18164l 0.44993, -0.18164l 0.44993, -0.18164l 0.44993, -0.18164l 0.44993, -0.18164l 0.44993, -0.18164l 0.44993, -0.18164l 0.44993, -0.18164l 0.44993, -0.18164l 0.44993, -0.18164l 0.44993, -0.18164l 0.44993, -0.18164l 0.44993,
 -0.18164l 0.44993, -0.18164l 0.44993, -0.18164l 0.44993, -0.18164l 0.44993, -0.18164l 0.44993, -0.18164l 0.44993, -0.18164l 0.44993, -0.18164l 0.44993, -0.18164l 0.44993, -0.18164l 0.44993, -0.18164l 0.44993, -0.18164" fill="none" stroke="#33cccc"
 stroke-width="3"/>
<path d="M363.311,274.779l 0.44993, -0.18164l 0.44993, -0.18164l 0.44993, -0.18164l 0.44993, -0.18164l 0.44993, -0.18164l 0.44993, -0.18164l 0.44993, -0.18164l 0.44993, -0.18164l 0.44993, -0.18164l 0.44993, -0.18164l 0.44993, -0.18164l 0.44993,
 -0.18164l 0.44993, -0.18164l 0.44993, -0.18164l 0.44993, -0.18164l 0.44993, -0.18164l 0.44993, -0.18164l 0.44993, -0.18164l 0.44993, -0.18164l 0.44993, -0.18164l 0.44993, -0.18164l 0.44993, -0.18164l 0.44993, -0.18164l 0.44993, -0.18164l 0.44993,
 -0.18164l 0.44993, -0.18164l 0.44993, -0.18164l 0.44993, -0.18164l 0.44993, -0.18164l 0.44993, -0.18164l 0.44993, -0.18164l 0.44993, -0.18164l 0.44993, -0.18164l 0.44993, -0.18164l 0.44993, -0.18164l 0.44993, -0.18164l 0.44993, -0.18164l 0.44993,
 -0.18164l 0.44993, -0.18164l 0.44993, -0.18164l 0.44993, -0.18164l 0.44993, -0.18164l 0.44993, -0.18164l 0.44993, -0.18164l 0.44993, -0.18164l 0.44993, -0.18164l 0.44993, -0.18164l 0.44993, -0.18164l 0.44993, -0.18164" fill="none" stroke="#33cccc"
 stroke-width="3"/>
<path d="M385.357,265.879l 0.44993, -0.18164l 0.44993, -0.18164l 0.44993, -0.18164l 0.44993, -0.18164l 0.44993, -0.18164l 0.44993, -0.18164l 0.44993, -0.18164l 0.44993, -0.18164l 0.44993, -0.18164l 0.44993, -0.18164l 0.44993, -0.18164l 0.44993,
 -0.18164l 0.44993, -0.18164l 0.44993, -0.18164l 0.44993, -0.18164l 0.44993, -0.18164l 0.44993, -0.18164l 0.44993, -0.18164l 0.44993, -0.18164l 0.44993, -0.18164l 0.44993, -0.18164l 0.44993, -0.18164l 0.44993, -0.18164l 0.44993, -0.18164l 0.44993,
 -0.18164l 0.44993, -0.18164l 0.44993, -0.18164l 0.44993, -0.18164l 0.44993, -0.18164l 0.44993, -0.18164l 0.44993, -0.18164l 0.44993, -0.18164l 0.44993, -0.18164l 0.44993, -0.18164l 0.44993, -0.18164l 0.44993, -0.18164l 0.44993, -0.18164l 0.44993,
 -0.18164l 0.44993, -0.18164l 0.44993, -0.18164l 0.44993, -0.18164l 0.44993, -0.18164l 0.44993, -0.18164l 0.44993, -0.18164l 0.44993, -0.18164l 0.44993, -0.18164l 0.44993, -0.18164l 0.44993, -0.18164l 0.44993, -0.18164" fill="none" stroke="#33cccc"
 stroke-width="3"/>
<path d="M407.404,256.979l 0.44993, -0.18164l 0.44993, -0.18164l 0.44993, -0.18164l 0.44993, -0.18164l 0.44993, -0.18164l 0.44993, -0.18164l 0.44993, -0.18164l 0.44993, -0.18164l 0.44993, -0.18164l 0.44993, -0.18164l 0.44993, -0.18164l 0.44993,
 -0.18164l 0.44993, -0.18164l 0.44993, -0.18164l 0.44993, -0.18164l 0.44993, -0.18164l 0.44993, -0.18164l 0.44993, -0.18164l 0.44993, -0.18164l 0.44993, -0.18164l 0.44993, -0.18164l 0.44993, -0.18164l 0.44993, -0.18164l 0.44993, -0.18164l 0.44993,
 -0.18164l 0.44993, -0.18164l 0.44993, -0.18164l 0.44993, -0.18164l 0.44993, -0.18164l 0.44993, -0.18164l 0.44993, -0.18164l 0.44993, -0.18164l 0.44993, -0.18164l 0.44993, -0.18164l 0.44993, -0.18164l 0.44993, -0.18164l 0.44993, -0.18164l 0.44993,
 -0.18164l 0.44993, -0.18164l 0.44993, -0.18164l 0.44993, -0.18164l 0.44993, -0.18164l 0.44993, -0.18164l 0.44993, -0.18164l 0.44993, -0.18164l 0.44993, -0.18164l 0.44993, -0.18164l 0.44993, -0.18164l 0.44993, -0.18164" fill="none" stroke="#33cccc"
 stroke-width="3"/>
<path d="M429.45,248.078l 0.44993, -0.18164l 0.44993, -0.18164l 0.44993, -0.18164l 0.44993, -0.18164l 0.44993, -0.18164l 0.44993, -0.18164l 0.44993, -0.18164l 0.44993, -0.18164l 0.44993, -0.18164l 0.44993, -0.18164l 0.44993, -0.18164l 0.44993,
 -0.18164l 0.44993, -0.18164l 0.44993, -0.18164l 0.44993, -0.18164l 0.44993, -0.18164l 0.44993, -0.18164l 0.44993, -0.18164l 0.44993, -0.18164l 0.44993, -0.18164l 0.44993, -0.18164l 0.44993, -0.18164l 0.44993, -0.18164l 0.44993, -0.18164l 0.44993,
 -0.18164l 0.44993, -0.18164l 0.44993, -0.18164l 0.44993, -0.18164l 0.44993, -0.18164l 0.44993, -0.18164l 0.44993, -0.18164l 0.44993, -0.18164l 0.44993, -0.18164l 0.44993, -0.18164l 0.44993, -0.18164l 0.44993, -0.18164l 0.44993, -0.18164l 0.44993,
 -0.18164l 0.44993, -0.18164l 0.44993, -0.18164l 0.44993, -0.18164l 0.44993, -0.18164l 0.44993, -0.18164l 0.44993, -0.18164l 0.44993, -0.18164l 0.44993, -0.18164l 0.44993, -0.18164l 0.44993, -0.18164l 0.44993, -0.18164" fill="none" stroke="#33cccc"
 stroke-width="3"/>
<path d="M451.497,239.178l 0.44993, -0.18164l 0.44993, -0.18164l 0.44993, -0.18164l 0.44993, -0.18164l 0.44993, -0.18164l 0.44993, -0.18164l 0.44993, -0.18164l 0.44993, -0.18164l 0.44993, -0.18164l 0.44993, -0.18164l 0.44993, -0.18164l 0.44993,
 -0.18164l 0.44993, -0.18164l 0.44993, -0.18164l 0.44993, -0.18164l 0.44993, -0.18164l 0.44993, -0.18164l 0.44993, -0.18164l 0.44993, -0.18164l 0.44993, -0.18164l 0.44993, -0.18164l 0.44993, -0.18164l 0.44993, -0.18164l 0.44993, -0.18164l 0.44993,
 -0.18164l 0.44993, -0.18164l 0.44993, -0.18164l 0.44993, -0.18164l 0.44993, -0.18164l 0.44993, -0.18164l 0.44993, -0.18164l 0.44993, -0.18164l 0.44993, -0.18164l 0.44993, -0.18164l 0.44993, -0.18164l 0.44993, -0.18164l 0.44993, -0.18164l 0.44993,
 -0.18164l 0.44993, -0.18164l 0.44993, -0.18164l 0.44993, -0.18164l 0.44993, -0.18164l 0.44993, -0.18164l 0.44993, -0.18164l 0.44993, -0.18164l 0.44993, -0.18164l 0.44993, -0.18164l 0.44993, -0.18164l 0.44993, -0.18164" fill="none" stroke="#33cccc"
 stroke-width="3"/>
<path d="M473.543,230.278l 0.44993, -0.18164l 0.44993, -0.18164l 0.44993, -0.18164l 0.44993, -0.18164l 0.44993, -0.18164l 0.44993, -0.18164l 0.44993, -0.18164l 0.44993, -0.18164l 0.44993, -0.18164l 0.44993, -0.18164l 0.44993, -0.18164l 0.44993,
 -0.18164l 0.44993, -0.18164l 0.44993, -0.18164l 0.44993, -0.18164l 0.44993, -0.18164l 0.44993, -0.18164l 0.44993, -0.18164l 0.44993, -0.18164l 0.44993, -0.18164l 0.44993, -0.18164l 0.44993, -0.18164l 0.44993, -0.18164l 0.44993, -0.18164l 0.44993,
 -0.18164l 0.44993, -0.18164l 0.44993, -0.18164l 0.44993, -0.18164l 0.44993, -0.18164l 0.44993, -0.18164l 0.44993, -0.18164l 0.44993, -0.18164l 0.44993, -0.18164l 0.44993, -0.18164l 0.44993, -0.18164l 0.44993, -0.18164l 0.44993, -0.18164l 0.44993,
 -0.18164l 0.44993, -0.18164l 0.44993, -0.18164l 0.44993, -0.18164l 0.44993, -0.18164l 0.44993, -0.18164l 0.44993, -0.18164l 0.44993, -0.18164l 0.44993, -0.18164l 0.44993, -0.18164l 0.44993, -0.18164l 0.44993, -0.18164" fill="none" stroke="#33cccc"
 stroke-width="3"/>
<path d="M495.59,221.377l 0.44993, -0.18164l 0.44993, -0.18164l 0.44993, -0.18164l 0.44993, -0.18164l 0.44993, -0.18164l 0.44993, -0.18164l 0.44993, -0.18164l 0.44993, -0.18164l 0.44993, -0.18164l 0.44993, -0.18164l 0.44993, -0.18164l 0.44993,
 -0.18164l 0.44993, -0.18164l 0.44993, -0.18164l 0.44993, -0.18164l 0.44993, -0.18164l 0.44993, -0.18164l 0.44993, -0.18164l 0.44993, -0.18164l 0.44993, -0.18164l 0.44993, -0.18164l 0.44993, -0.18164l 0.44993, -0.18164l 0.44993, -0.18164l 0.44993,
 -0.18164l 0.44993, -0.18164l 0.44993, -0.18164l 0.44993, -0.18164l 0.44993, -0.18164l 0.44993, -0.18164l 0.44993, -0.18164l 0.44993, -0.18164l 0.44993, -0.18164l 0.44993, -0.18164l 0.44993, -0.18164l 0.44993, -0.18164l 0.44993, -0.18164l 0.44993,
 -0.18164l 0.44993, -0.18164l 0.44993, -0.18164l 0.44993, -0.18164l 0.44993, -0.18164l 0.44993, -0.18164l 0.44993, -0.18164l 0.44993, -0.18164l 0.44993, -0.18164l 0.44993, -0.18164l 0.44993, -0.18164l 0.44993, -0.18164" fill="none" stroke="#33cccc"
 stroke-width="3"/>
<path d="M517.636,212.477l 0.44993, -0.18164l 0.44993, -0.18164l 0.44993, -0.18164l 0.44993, -0.18164l 0.44993, -0.18164l 0.44993, -0.18164l 0.44993, -0.18164l 0.44993, -0.18164l 0.44993, -0.18164l 0.44993, -0.18164l 0.44993, -0.18164l 0.44993,
 -0.18164l 0.44993, -0.18164l 0.44993, -0.18164l 0.44993, -0.18164l 0.44993, -0.18164l 0.44993, -0.18164l 0.44993, -0.18164l 0.44993, -0.18164l 0.44993, -0.18164l 0.44993, -0.18164l 0.44993, -0.18164l 0.44993, -0.18164l 0.44993, -0.18164l 0.44993,
 -0.18164l 0.44993, -0.18164l 0.44993, -0.18164l 0.44993, -0.18164l 0.44993, -0.18164l 0.44993, -0.18164l 0.44993, -0.18164l 0.44993, -0.18164l 0.44993, -0.18164l 0.44993, -0.18164l 0.44993, -0.18164l 0.44993, -0.18164l 0.44993, -0.18164l 0.44993,
 -0.18164l 0.44993, -0.18164l 0.44993, -0.18164l 0.44993, -0.18164l 0.44993, -0.18164l 0.44993, -0.18164l 0.44993, -0.18164l 0.44993, -0.18164l 0.44993, -0.18164l 0.44993, -0.18164l 0.44993, -0.18164l 0.44993, -0.18164" fill="none" stroke="#33cccc"
 stroke-width="3"/>
<path d="M539.683,203.576l 0.44993, -0.18164l 0.44993, -0.18164l 0.44993, -0.18164l 0.44993, -0.18164l 0.44993, -0.18164l 0.44993, -0.18164l 0.44993, -0.18164l 0.44993, -0.18164l 0.44993, -0.18164l 0.44993, -0.18164l 0.44993, -0.18164l 0.44993,
 -0.18164l 0.44993, -0.18164l 0.44993, -0.18164l 0.44993, -0.18164l 0.44993, -0.18164l 0.44993, -0.18164l 0.44993, -0.18164l 0.44993, -0.18164" fill="none" stroke="#33cccc" stroke-width="3"/>
<path d="M98.7518,392.884l 0.44993, -0.226087l 0.44993, -0.226007l 0.44993, -0.225926l 0.44993, -0.225846l 0.44993, -0.225766l 0.44993, -0.225686l 0.44993, -0.225606l 0.44993, -0.225526l 0.44993, -0.225446l 0.44993, -0.225366l 0.44993, -0.225286l
 0.44993, -0.225206l 0.44993, -0.225126l 0.44993, -0.225046l 0.44993, -0.224966l 0.44993, -0.224886l 0.44993, -0.224806l 0.44993, -0.224726l 0.44993, -0.224646l 0.44993, -0.224566l 0.44993, -0.224486l 0.44993, -0.224406l 0.44993, -0.224326l 0.44993,
 -0.224246l 0.44993, -0.224166l 0.44993, -0.224086l 0.44993, -0.224006l 0.44993, -0.223926l 0.44993, -0.223846l 0.44993, -0.223766l 0.44993, -0.223686l 0.44993, -0.223606l 0.44993, -0.223525l 0.44993, -0.223445l 0.44993, -0.223365l 0.44993,
 -0.223285l 0.44993, -0.223205l 0.44993, -0.223125l 0.44993, -0.223045l 0.44993, -0.222965l 0.44993, -0.222885l 0.44993, -0.222805l 0.44993, -0.222725l 0.44993, -0.222645l 0.44993, -0.222565l 0.44993, -0.222485l 0.44993, -0.222405l 0.44993,
 -0.222325l 0.44993, -0.222245" fill="none" stroke="#ff0066" stroke-width="3"/>
<path d="M120.798,381.9l 0.44993, -0.222165l 0.44993, -0.222085l 0.44993, -0.222005l 0.44993, -0.221925l 0.44993, -0.221845l 0.44993, -0.221765l 0.44993, -0.221685l 0.44993, -0.221605l 0.44993, -0.221525l 0.44993, -0.221445l 0.44993, -0.221365l
 0.44993, -0.221285l 0.44993, -0.221205l 0.44993, -0.221124l 0.44993, -0.221044l 0.44993, -0.220964l 0.44993, -0.220884l 0.44993, -0.220804l 0.44993, -0.220724l 0.44993, -0.220644l 0.44993, -0.220564l 0.44993, -0.220484l 0.44993, -0.220404l 0.44993,
 -0.220324l 0.44993, -0.220244l 0.44993, -0.220164l 0.44993, -0.220084l 0.44993, -0.220004l 0.44993, -0.219924l 0.44993, -0.219844l 0.44993, -0.219764l 0.44993, -0.219684l 0.44993, -0.219604l 0.44993, -0.219524l 0.44993, -0.219444l 0.44993,
 -0.219364l 0.44993, -0.219284l 0.44993, -0.219204l 0.44993, -0.219124l 0.44993, -0.219044l 0.44993, -0.218964l 0.44993, -0.218884l 0.44993, -0.218803l 0.44993, -0.218723l 0.44993, -0.218643l 0.44993, -0.218563l 0.44993, -0.218483l 0.44993,
 -0.218403l 0.44993, -0.218323" fill="none" stroke="#ff0066" stroke-width="3"/>
<path d="M142.845,371.108l 0.44993, -0.218243l 0.44993, -0.218163l 0.44993, -0.218083l 0.44993, -0.218003l 0.44993, -0.217923l 0.44993, -0.217843l 0.44993, -0.217763l 0.44993, -0.217683l 0.44993, -0.217603l 0.44993, -0.217523l 0.44993, -0.217443l
 0.44993, -0.217363l 0.44993, -0.217283l 0.44993, -0.217203l 0.44993, -0.217123l 0.44993, -0.217043l 0.44993, -0.216963l 0.44993, -0.216883l 0.44993, -0.216803l 0.44993, -0.216723l 0.44993, -0.216643l 0.44993, -0.216563l 0.44993, -0.216483l 0.44993,
 -0.216402l 0.44993, -0.216322l 0.44993, -0.216242l 0.44993, -0.216162l 0.44993, -0.216082l 0.44993, -0.216002l 0.44993, -0.215922l 0.44993, -0.215842l 0.44993, -0.215762l 0.44993, -0.215682l 0.44993, -0.215602l 0.44993, -0.215522l 0.44993,
 -0.215442l 0.44993, -0.215362l 0.44993, -0.215282l 0.44993, -0.215202l 0.44993, -0.215122l 0.44993, -0.215042l 0.44993, -0.214962l 0.44993, -0.214882l 0.44993, -0.214802l 0.44993, -0.214722l 0.44993, -0.214642l 0.44993, -0.214562l 0.44993,
 -0.214482l 0.44993, -0.214402" fill="none" stroke="#ff0066" stroke-width="3"/>
<path d="M164.891,360.509l 0.44993, -0.214322l 0.44993, -0.214242l 0.44993, -0.214162l 0.44993, -0.214082l 0.44993, -0.214001l 0.44993, -0.213921l 0.44993, -0.213841l 0.44993, -0.213761l 0.44993, -0.213681l 0.44993, -0.213601l 0.44993, -0.213521l
 0.44993, -0.213441l 0.44993, -0.213361l 0.44993, -0.213281l 0.44993, -0.213201l 0.44993, -0.213121l 0.44993, -0.213041l 0.44993, -0.212961l 0.44993, -0.212881l 0.44993, -0.212801l 0.44993, -0.212721l 0.44993, -0.212641l 0.44993, -0.212561l 0.44993,
 -0.212481l 0.44993, -0.212401l 0.44993, -0.212321l 0.44993, -0.212241l 0.44993, -0.212161l 0.44993, -0.212081l 0.44993, -0.212001l 0.44993, -0.211921l 0.44993, -0.211841l 0.44993, -0.211761l 0.44993, -0.211681l 0.44993, -0.2116l 0.44993, -0.21152l
 0.44993, -0.21144l 0.44993, -0.21136l 0.44993, -0.21128l 0.44993, -0.2112l 0.44993, -0.21112l 0.44993, -0.21104l 0.44993, -0.21096l 0.44993, -0.21088l 0.44993, -0.2108l 0.44993, -0.21072l 0.44993, -0.21064l 0.44993, -0.21056l 0.44993, -0.21048"
 fill="none" stroke="#ff0066" stroke-width="3"/>
<path d="M186.938,350.101l 0.44993, -0.2104l 0.44993, -0.21032l 0.44993, -0.21024l 0.44993, -0.21016l 0.44993, -0.21008l 0.44993, -0.21l 0.44993, -0.20992l 0.44993, -0.20984l 0.44993, -0.20976l 0.44993, -0.20968l 0.44993, -0.2096l 0.44993, -0.20952l
 0.44993, -0.20944l 0.44993, -0.20936l 0.44993, -0.20928l 0.44993, -0.209199l 0.44993, -0.209119l 0.44993, -0.209039l 0.44993, -0.208959l 0.44993, -0.208879l 0.44993, -0.208799l 0.44993, -0.208719l 0.44993, -0.208639l 0.44993, -0.208559l 0.44993,
 -0.208479l 0.44993, -0.208399l 0.44993, -0.208319l 0.44993, -0.208239l 0.44993, -0.208159l 0.44993, -0.208079l 0.44993, -0.207999l 0.44993, -0.207919l 0.44993, -0.207839l 0.44993, -0.207759l 0.44993, -0.207679l 0.44993, -0.207599l 0.44993,
 -0.207519l 0.44993, -0.207439l 0.44993, -0.207359l 0.44993, -0.207279l 0.44993, -0.207199l 0.44993, -0.207119l 0.44993, -0.207039l 0.44993, -0.206959l 0.44993, -0.206878l 0.44993, -0.206798l 0.44993, -0.206718l 0.44993, -0.206638l 0.44993,
 -0.206558" fill="none" stroke="#ff0066" stroke-width="3"/>
<path d="M208.985,339.885l 0.44993, -0.206478l 0.44993, -0.206398l 0.44993, -0.206318l 0.44993, -0.206238l 0.44993, -0.206158l 0.44993, -0.206078l 0.44993, -0.205998l 0.44993, -0.205918l 0.44993, -0.205838l 0.44993, -0.205758l 0.44993, -0.205678l
 0.44993, -0.205598l 0.44993, -0.205518l 0.44993, -0.205438l 0.44993, -0.205358l 0.44993, -0.205278l 0.44993, -0.205198l 0.44993, -0.205118l 0.44993, -0.205038l 0.44993, -0.204958l 0.44993, -0.204878l 0.44993, -0.204798l 0.44993, -0.204718l 0.44993,
 -0.204638l 0.44993, -0.204558l 0.44993, -0.204477l 0.44993, -0.204397l 0.44993, -0.204317l 0.44993, -0.204237l 0.44993, -0.204157l 0.44993, -0.204077l 0.44993, -0.203997l 0.44993, -0.203917l 0.44993, -0.203837l 0.44993, -0.203757l 0.44993,
 -0.203677l 0.44993, -0.203597l 0.44993, -0.203517l 0.44993, -0.203437l 0.44993, -0.203357l 0.44993, -0.203277l 0.44993, -0.203197l 0.44993, -0.203117l 0.44993, -0.203037l 0.44993, -0.202957l 0.44993, -0.202877l 0.44993, -0.202797l 0.44993,
 -0.202717l 0.44993, -0.202637" fill="none" stroke="#ff0066" stroke-width="3"/>
<path d="M231.031,329.862l 0.44993, -0.202557l 0.44993, -0.202477l 0.44993, -0.202397l 0.44993, -0.202317l 0.44993, -0.202237l 0.44993, -0.202157l 0.44993, -0.202076l 0.44993, -0.201996l 0.44993, -0.201916l 0.44993, -0.201836l 0.44993, -0.201756l
 0.44993, -0.201676l 0.44993, -0.201596l 0.44993, -0.201516l 0.44993, -0.201436l 0.44993, -0.201356l 0.44993, -0.201276l 0.44993, -0.201196l 0.44993, -0.201116l 0.44993, -0.201036l 0.44993, -0.200956l 0.44993, -0.200876l 0.44993, -0.200796l 0.44993,
 -0.200716l 0.44993, -0.200636l 0.44993, -0.200556l 0.44993, -0.200476l 0.44993, -0.200396l 0.44993, -0.200316l 0.44993, -0.200236l 0.44993, -0.200156l 0.44993, -0.200076l 0.44993, -0.199996l 0.44993, -0.199916l 0.44993, -0.199836l 0.44993,
 -0.199756l 0.44993, -0.199675l 0.44993, -0.199595l 0.44993, -0.199515l 0.44993, -0.199435l 0.44993, -0.199355l 0.44993, -0.199275l 0.44993, -0.199195l 0.44993, -0.199115l 0.44993, -0.199035l 0.44993, -0.198955l 0.44993, -0.198875l 0.44993,
 -0.198795l 0.44993, -0.198715" fill="none" stroke="#ff0066" stroke-width="3"/>
<path d="M253.078,320.031l 0.44993, -0.198635l 0.44993, -0.198555l 0.44993, -0.198475l 0.44993, -0.198395l 0.44993, -0.198315l 0.44993, -0.198235l 0.44993, -0.198155l 0.44993, -0.198075l 0.44993, -0.197995l 0.44993, -0.197915l 0.44993, -0.197835l
 0.44993, -0.197755l 0.44993, -0.197675l 0.44993, -0.197595l 0.44993, -0.197515l 0.44993, -0.197435l 0.44993, -0.197355l 0.44993, -0.197274l 0.44993, -0.197194l 0.44993, -0.197114l 0.44993, -0.197034l 0.44993, -0.196954l 0.44993, -0.196874l 0.44993,
 -0.196794l 0.44993, -0.196714l 0.44993, -0.196634l 0.44993, -0.196554l 0.44993, -0.196474l 0.44993, -0.196394l 0.44993, -0.196314l 0.44993, -0.196234l 0.44993, -0.196154l 0.44993, -0.196074l 0.44993, -0.195994l 0.44993, -0.195914l 0.44993,
 -0.195834l 0.44993, -0.195754l 0.44993, -0.195674l 0.44993, -0.195594l 0.44993, -0.195514l 0.44993, -0.195434l 0.44993, -0.195354l 0.44993, -0.195274l 0.44993, -0.195194l 0.44993, -0.195114l 0.44993, -0.195034l 0.44993, -0.194954l 0.44993,
 -0.194873l 0.44993, -0.194793" fill="none" stroke="#ff0066" stroke-width="3"/>
<path d="M275.124,310.392l 0.44993, -0.194713l 0.44993, -0.194633l 0.44993, -0.194553l 0.44993, -0.194473l 0.44993, -0.194393l 0.44993, -0.194313l 0.44993, -0.194233l 0.44993, -0.194153l 0.44993, -0.194073l 0.44993, -0.193993l 0.44993, -0.193913l
 0.44993, -0.193833l 0.44993, -0.193753l 0.44993, -0.193673l 0.44993, -0.193593l 0.44993, -0.193513l 0.44993, -0.193433l 0.44993, -0.193353l 0.44993, -0.193273l 0.44993, -0.193193l 0.44993, -0.193113l 0.44993, -0.193033l 0.44993, -0.192953l 0.44993,
 -0.192873l 0.44993, -0.192793l 0.44993, -0.192713l 0.44993, -0.192633l 0.44993, -0.192552l 0.44993, -0.192472l 0.44993, -0.192392l 0.44993, -0.192312l 0.44993, -0.192232l 0.44993, -0.192152l 0.44993, -0.192072l 0.44993, -0.191992l 0.44993,
 -0.191912l 0.44993, -0.191832l 0.44993, -0.191752l 0.44993, -0.191672l 0.44993, -0.191592l 0.44993, -0.191512l 0.44993, -0.191432l 0.44993, -0.191352l 0.44993, -0.191272l 0.44993, -0.191192l 0.44993, -0.191112l 0.44993, -0.191032l 0.44993,
 -0.190952l 0.44993, -0.190872" fill="none" stroke="#ff0066" stroke-width="3"/>
<path d="M297.171,300.945l 0.44993, -0.190792l 0.44993, -0.190712l 0.44993, -0.190632l 0.44993, -0.190552l 0.44993, -0.190472l 0.44993, -0.190392l 0.44993, -0.190312l 0.44993, -0.190232l 0.44993, -0.190151l 0.44993, -0.190071l 0.44993, -0.189991l
 0.44993, -0.189911l 0.44993, -0.189831l 0.44993, -0.189751l 0.44993, -0.189671l 0.44993, -0.189591l 0.44993, -0.189511l 0.44993, -0.189431l 0.44993, -0.189351l 0.44993, -0.189271l 0.44993, -0.189191l 0.44993, -0.189111l 0.44993, -0.189031l 0.44993,
 -0.188951l 0.44993, -0.188871l 0.44993, -0.188791l 0.44993, -0.188711l 0.44993, -0.188631l 0.44993, -0.188551l 0.44993, -0.188471l 0.44993, -0.188391l 0.44993, -0.188311l 0.44993, -0.188231l 0.44993, -0.188151l 0.44993, -0.188071l 0.44993,
 -0.187991l 0.44993, -0.187911l 0.44993, -0.187831l 0.44993, -0.18775l 0.44993, -0.18767l 0.44993, -0.18759l 0.44993, -0.18751l 0.44993, -0.18743l 0.44993, -0.18735l 0.44993, -0.18727l 0.44993, -0.18719l 0.44993, -0.18711l 0.44993, -0.18703l 0.44993,
 -0.18695" fill="none" stroke="#ff0066" stroke-width="3"/>
<path d="M319.217,291.69l 0.44993, -0.18687l 0.44993, -0.18679l 0.44993, -0.18671l 0.44993, -0.18663l 0.44993, -0.18655l 0.44993, -0.18647l 0.44993, -0.18639l 0.44993, -0.18631l 0.44993, -0.18623l 0.44993, -0.18615l 0.44993, -0.18607l 0.44993,
 -0.18599l 0.44993, -0.18591l 0.44993, -0.18583l 0.44993, -0.18575l 0.44993, -0.18567l 0.44993, -0.18559l 0.44993, -0.18551l 0.44993, -0.18543l 0.44993, -0.185349l 0.44993, -0.185269l 0.44993, -0.185189l 0.44993, -0.185109l 0.44993, -0.185029l
 0.44993, -0.184949l 0.44993, -0.184869l 0.44993, -0.184789l 0.44993, -0.184709l 0.44993, -0.184629l 0.44993, -0.184549l 0.44993, -0.184469l 0.44993, -0.184389l 0.44993, -0.184309l 0.44993, -0.184229l 0.44993, -0.184149l 0.44993, -0.184069l 0.44993,
 -0.183989l 0.44993, -0.183909l 0.44993, -0.183829l 0.44993, -0.183749l 0.44993, -0.183669l 0.44993, -0.183589l 0.44993, -0.183509l 0.44993, -0.183429l 0.44993, -0.183349l 0.44993, -0.183269l 0.44993, -0.183189l 0.44993, -0.183109l 0.44993,
 -0.183029" fill="none" stroke="#ff0066" stroke-width="3"/>
<path d="M341.264,282.628l 0.44993, -0.182948l 0.44993, -0.182868l 0.44993, -0.182788l 0.44993, -0.182708l 0.44993, -0.182628l 0.44993, -0.182548l 0.44993, -0.182468l 0.44993, -0.182388l 0.44993, -0.182308l 0.44993, -0.182228l 0.44993, -0.182148l
 0.44993, -0.182068l 0.44993, -0.181988l 0.44993, -0.181908l 0.44993, -0.181828l 0.44993, -0.181748l 0.44993, -0.181668l 0.44993, -0.181588l 0.44993, -0.181508l 0.44993, -0.181428l 0.44993, -0.181348l 0.44993, -0.181268l 0.44993, -0.181188l 0.44993,
 -0.181108l 0.44993, -0.181028l 0.44993, -0.180948l 0.44993, -0.180868l 0.44993, -0.180788l 0.44993, -0.180708l 0.44993, -0.180628l 0.44993, -0.180547l 0.44993, -0.180467l 0.44993, -0.180387l 0.44993, -0.180307l 0.44993, -0.180227l 0.44993,
 -0.180147l 0.44993, -0.180067l 0.44993, -0.179987l 0.44993, -0.179907l 0.44993, -0.179827l 0.44993, -0.179747l 0.44993, -0.179667l 0.44993, -0.179587l 0.44993, -0.179507l 0.44993, -0.179427l 0.44993, -0.179347l 0.44993, -0.179267l 0.44993,
 -0.179187l 0.44993, -0.179107" fill="none" stroke="#ff0066" stroke-width="3"/>
<path d="M363.311,273.758l 0.44993, -0.179027l 0.44993, -0.178947l 0.44993, -0.178867l 0.44993, -0.178787l 0.44993, -0.178707l 0.44993, -0.178627l 0.44993, -0.178547l 0.44993, -0.178467l 0.44993, -0.178387l 0.44993, -0.178307l 0.44993, -0.178227l
 0.44993, -0.178146l 0.44993, -0.178066l 0.44993, -0.177986l 0.44993, -0.177906l 0.44993, -0.177826l 0.44993, -0.177746l 0.44993, -0.177666l 0.44993, -0.177586l 0.44993, -0.177506l 0.44993, -0.177426l 0.44993, -0.177346l 0.44993, -0.177266l 0.44993,
 -0.177186l 0.44993, -0.177106l 0.44993, -0.177026l 0.44993, -0.176946l 0.44993, -0.176866l 0.44993, -0.176786l 0.44993, -0.176706l 0.44993, -0.176626l 0.44993, -0.176546l 0.44993, -0.176466l 0.44993, -0.176386l 0.44993, -0.176306l 0.44993,
 -0.176226l 0.44993, -0.176146l 0.44993, -0.176066l 0.44993, -0.175986l 0.44993, -0.175906l 0.44993, -0.175825l 0.44993, -0.175745l 0.44993, -0.175665l 0.44993, -0.175585l 0.44993, -0.175505l 0.44993, -0.175425l 0.44993, -0.175345l 0.44993,
 -0.175265l 0.44993, -0.175185" fill="none" stroke="#ff0066" stroke-width="3"/>
<path d="M385.357,265.079l 0.44993, -0.175105l 0.44993, -0.175025l 0.44993, -0.174945l 0.44993, -0.174865l 0.44993, -0.174785l 0.44993, -0.174705l 0.44993, -0.174625l 0.44993, -0.174545l 0.44993, -0.174465l 0.44993, -0.174385l 0.44993, -0.174305l
 0.44993, -0.174225l 0.44993, -0.174145l 0.44993, -0.174065l 0.44993, -0.173985l 0.44993, -0.173905l 0.44993, -0.173825l 0.44993, -0.173745l 0.44993, -0.173665l 0.44993, -0.173585l 0.44993, -0.173505l 0.44993, -0.173424l 0.44993, -0.173344l 0.44993,
 -0.173264l 0.44993, -0.173184l 0.44993, -0.173104l 0.44993, -0.173024l 0.44993, -0.172944l 0.44993, -0.172864l 0.44993, -0.172784l 0.44993, -0.172704l 0.44993, -0.172624l 0.44993, -0.172544l 0.44993, -0.172464l 0.44993, -0.172384l 0.44993,
 -0.172304l 0.44993, -0.172224l 0.44993, -0.172144l 0.44993, -0.172064l 0.44993, -0.171984l 0.44993, -0.171904l 0.44993, -0.171824l 0.44993, -0.171744l 0.44993, -0.171664l 0.44993, -0.171584l 0.44993, -0.171504l 0.44993, -0.171424l 0.44993,
 -0.171344l 0.44993, -0.171264" fill="none" stroke="#ff0066" stroke-width="3"/>
<path d="M407.404,256.593l 0.44993, -0.171184l 0.44993, -0.171104l 0.44993, -0.171023l 0.44993, -0.170943l 0.44993, -0.170863l 0.44993, -0.170783l 0.44993, -0.170703l 0.44993, -0.170623l 0.44993, -0.170543l 0.44993, -0.170463l 0.44993, -0.170383l
 0.44993, -0.170303l 0.44993, -0.170223l 0.44993, -0.170143l 0.44993, -0.170063l 0.44993, -0.169983l 0.44993, -0.169903l 0.44993, -0.169823l 0.44993, -0.169743l 0.44993, -0.169663l 0.44993, -0.169583l 0.44993, -0.169503l 0.44993, -0.169423l 0.44993,
 -0.169343l 0.44993, -0.169263l 0.44993, -0.169183l 0.44993, -0.169103l 0.44993, -0.169023l 0.44993, -0.168943l 0.44993, -0.168863l 0.44993, -0.168783l 0.44993, -0.168703l 0.44993, -0.168622l 0.44993, -0.168542l 0.44993, -0.168462l 0.44993,
 -0.168382l 0.44993, -0.168302l 0.44993, -0.168222l 0.44993, -0.168142l 0.44993, -0.168062l 0.44993, -0.167982l 0.44993, -0.167902l 0.44993, -0.167822l 0.44993, -0.167742l 0.44993, -0.167662l 0.44993, -0.167582l 0.44993, -0.167502l 0.44993,
 -0.167422l 0.44993, -0.167342" fill="none" stroke="#ff0066" stroke-width="3"/>
<path d="M429.45,248.299l 0.44993, -0.167262l 0.44993, -0.167182l 0.44993, -0.167102l 0.44993, -0.167022l 0.44993, -0.166942l 0.44993, -0.166862l 0.44993, -0.166782l 0.44993, -0.166702l 0.44993, -0.166622l 0.44993, -0.166542l 0.44993, -0.166462l
 0.44993, -0.166382l 0.44993, -0.166302l 0.44993, -0.166221l 0.44993, -0.166141l 0.44993, -0.166061l 0.44993, -0.165981l 0.44993, -0.165901l 0.44993, -0.165821l 0.44993, -0.165741l 0.44993, -0.165661l 0.44993, -0.165581l 0.44993, -0.165501l 0.44993,
 -0.165421l 0.44993, -0.165341l 0.44993, -0.165261l 0.44993, -0.165181l 0.44993, -0.165101l 0.44993, -0.165021l 0.44993, -0.164941l 0.44993, -0.164861l 0.44993, -0.164781l 0.44993, -0.164701l 0.44993, -0.164621l 0.44993, -0.164541l 0.44993,
 -0.164461l 0.44993, -0.164381l 0.44993, -0.164301l 0.44993, -0.164221l 0.44993, -0.164141l 0.44993, -0.164061l 0.44993, -0.163981l 0.44993, -0.1639l 0.44993, -0.16382l 0.44993, -0.16374l 0.44993, -0.16366l 0.44993, -0.16358l 0.44993, -0.1635l
 0.44993, -0.16342" fill="none" stroke="#ff0066" stroke-width="3"/>
<path d="M451.497,240.198l 0.44993, -0.16334l 0.44993, -0.16326l 0.44993, -0.16318l 0.44993, -0.1631l 0.44993, -0.16302l 0.44993, -0.16294l 0.44993, -0.16286l 0.44993, -0.16278l 0.44993, -0.1627l 0.44993, -0.16262l 0.44993, -0.16254l 0.44993,
 -0.16246l 0.44993, -0.16238l 0.44993, -0.1623l 0.44993, -0.16222l 0.44993, -0.16214l 0.44993, -0.16206l 0.44993, -0.16198l 0.44993, -0.1619l 0.44993, -0.16182l 0.44993, -0.16174l 0.44993, -0.16166l 0.44993, -0.16158l 0.44993, -0.161499l 0.44993,
 -0.161419l 0.44993, -0.161339l 0.44993, -0.161259l 0.44993, -0.161179l 0.44993, -0.161099l 0.44993, -0.161019l 0.44993, -0.160939l 0.44993, -0.160859l 0.44993, -0.160779l 0.44993, -0.160699l 0.44993, -0.160619l 0.44993, -0.160539l 0.44993,
 -0.160459l 0.44993, -0.160379l 0.44993, -0.160299l 0.44993, -0.160219l 0.44993, -0.160139l 0.44993, -0.160059l 0.44993, -0.159979l 0.44993, -0.159899l 0.44993, -0.159819l 0.44993, -0.159739l 0.44993, -0.159659l 0.44993, -0.159579l 0.44993,
 -0.159499" fill="none" stroke="#ff0066" stroke-width="3"/>
<path d="M473.543,232.288l 0.44993, -0.159419l 0.44993, -0.159339l 0.44993, -0.159259l 0.44993, -0.159179l 0.44993, -0.159098l 0.44993, -0.159018l 0.44993, -0.158938l 0.44993, -0.158858l 0.44993, -0.158778l 0.44993, -0.158698l 0.44993, -0.158618l
 0.44993, -0.158538l 0.44993, -0.158458l 0.44993, -0.158378l 0.44993, -0.158298l 0.44993, -0.158218l 0.44993, -0.158138l 0.44993, -0.158058l 0.44993, -0.157978l 0.44993, -0.157898l 0.44993, -0.157818l 0.44993, -0.157738l 0.44993, -0.157658l 0.44993,
 -0.157578l 0.44993, -0.157498l 0.44993, -0.157418l 0.44993, -0.157338l 0.44993, -0.157258l 0.44993, -0.157178l 0.44993, -0.157098l 0.44993, -0.157018l 0.44993, -0.156938l 0.44993, -0.156858l 0.44993, -0.156778l 0.44993, -0.156697l 0.44993,
 -0.156617l 0.44993, -0.156537l 0.44993, -0.156457l 0.44993, -0.156377l 0.44993, -0.156297l 0.44993, -0.156217l 0.44993, -0.156137l 0.44993, -0.156057l 0.44993, -0.155977l 0.44993, -0.155897l 0.44993, -0.155817l 0.44993, -0.155737l 0.44993,
 -0.155657l 0.44993, -0.155577" fill="none" stroke="#ff0066" stroke-width="3"/>
<path d="M495.59,224.571l 0.44993, -0.155497l 0.44993, -0.155417l 0.44993, -0.155337l 0.44993, -0.155257l 0.44993, -0.155177l 0.44993, -0.155097l 0.44993, -0.155017l 0.44993, -0.154937l 0.44993, -0.154857l 0.44993, -0.154777l 0.44993, -0.154697l
 0.44993, -0.154617l 0.44993, -0.154537l 0.44993, -0.154457l 0.44993, -0.154377l 0.44993, -0.154296l 0.44993, -0.154216l 0.44993, -0.154136l 0.44993, -0.154056l 0.44993, -0.153976l 0.44993, -0.153896l 0.44993, -0.153816l 0.44993, -0.153736l 0.44993,
 -0.153656l 0.44993, -0.153576l 0.44993, -0.153496l 0.44993, -0.153416l 0.44993, -0.153336l 0.44993, -0.153256l 0.44993, -0.153176l 0.44993, -0.153096l 0.44993, -0.153016l 0.44993, -0.152936l 0.44993, -0.152856l 0.44993, -0.152776l 0.44993,
 -0.152696l 0.44993, -0.152616l 0.44993, -0.152536l 0.44993, -0.152456l 0.44993, -0.152376l 0.44993, -0.152296l 0.44993, -0.152216l 0.44993, -0.152136l 0.44993, -0.152056l 0.44993, -0.151975l 0.44993, -0.151895l 0.44993, -0.151815l 0.44993,
 -0.151735l 0.44993, -0.151655" fill="none" stroke="#ff0066" stroke-width="3"/>
<path d="M517.636,217.046l 0.44993, -0.151575l 0.44993, -0.151495l 0.44993, -0.151415l 0.44993, -0.151335l 0.44993, -0.151255l 0.44993, -0.151175l 0.44993, -0.151095l 0.44993, -0.151015l 0.44993, -0.150935l 0.44993, -0.150855l 0.44993, -0.150775l
 0.44993, -0.150695l 0.44993, -0.150615l 0.44993, -0.150535l 0.44993, -0.150455l 0.44993, -0.150375l 0.44993, -0.150295l 0.44993, -0.150215l 0.44993, -0.150135l 0.44993, -0.150055l 0.44993, -0.149975l 0.44993, -0.149895l 0.44993, -0.149815l 0.44993,
 -0.149735l 0.44993, -0.149655l 0.44993, -0.149574l 0.44993, -0.149494l 0.44993, -0.149414l 0.44993, -0.149334l 0.44993, -0.149254l 0.44993, -0.149174l 0.44993, -0.149094l 0.44993, -0.149014l 0.44993, -0.148934l 0.44993, -0.148854l 0.44993,
 -0.148774l 0.44993, -0.148694l 0.44993, -0.148614l 0.44993, -0.148534l 0.44993, -0.148454l 0.44993, -0.148374l 0.44993, -0.148294l 0.44993, -0.148214l 0.44993, -0.148134l 0.44993, -0.148054l 0.44993, -0.147974l 0.44993, -0.147894l 0.44993,
 -0.147814l 0.44993, -0.147734" fill="none" stroke="#ff0066" stroke-width="3"/>
<path d="M539.683,209.713l 0.44993, -0.147654l 0.44993, -0.147574l 0.44993, -0.147494l 0.44993, -0.147414l 0.44993, -0.147334l 0.44993, -0.147254l 0.44993, -0.147173l 0.44993, -0.147093l 0.44993, -0.147013l 0.44993, -0.146933l 0.44993, -0.146853l
 0.44993, -0.146773l 0.44993, -0.146693l 0.44993, -0.146613l 0.44993, -0.146533l 0.44993, -0.146453l 0.44993, -0.146373l 0.44993, -0.146293l 0.44993, -0.146213" fill="none" stroke="#ff0066" stroke-width="3"/>
<path d="M248.503,21.4167h 239.963" fill="none" stroke="#999999" stroke-width="7"/>
<text xml:space="preserve" x="361.171" y="50.7193" fill="black" font-size="16.0105" font-family="Helvetica"> with EMC</text>
<text xml:space="preserve" x="353.281" y="50.7193" fill="black" font-size="16.0105" font-family="Times">&#0947;</text>
<text xml:space="preserve" x="345.391" y="50.7193" fill="black" font-size="16.0105" font-family="Times">&#0947;</text>
<text xml:space="preserve" x="337.502" y="50.7193" fill="black" font-size="16.0105" font-family="Times">&#0947;</text>
<text xml:space="preserve" x="332.43" y="50.7193" fill="black" font-size="16.0105" font-family="Helvetica"> </text>
<text xml:space="preserve" x="317.214" y="50.7193" fill="black" font-size="16.0105" font-family="Times">&#8594;</text>
<text xml:space="preserve" x="312.142" y="50.7193" fill="black" font-size="16.0105" font-family="Helvetica"> </text>
<text xml:space="preserve" x="304.252" y="50.7193" fill="black" font-size="16.0105" font-family="Times">&#0947;</text>
<text xml:space="preserve" x="298.617" y="45.0838" fill="black" font-size="10.8403" font-family="Helvetica">0</text>
<text xml:space="preserve" x="290.164" y="50.7193" fill="black" font-size="16.0105" font-family="Times">&#0960;</text>
<text xml:space="preserve" x="285.092" y="50.7193" fill="black" font-size="16.0105" font-family="Helvetica"> </text>
<text xml:space="preserve" x="269.876" y="50.7193" fill="black" font-size="16.0105" font-family="Times">&#8594;</text>
<text xml:space="preserve" x="264.804" y="50.7193" fill="black" font-size="16.0105" font-family="Helvetica"> </text>
<text xml:space="preserve" x="253.533" y="50.7193" fill="black" font-size="16.0105" font-family="Times">&#0969;</text>
<text xml:space="preserve" x="128.989" y="50.7193" fill="black" font-size="16.0105" font-family="Helvetica"> = 13 TeV (MB1), </text>
<text xml:space="preserve" x="120.536" y="50.7193" fill="black" font-size="16.0105" font-family="Helvetica" font-style="oblique">s</text>
<path d="M114.9,41.7025l 1.69064, 9.58031" fill="none" stroke="black" stroke-width="2"/>
<path d="M116.591,51.2829l 2.25419, -14.0887" fill="none" stroke="black"/>
<path d="M118.845,37.1942h 10.1439" fill="none" stroke="black"/>
<text xml:space="preserve" x="89.5406" y="50.7193" fill="black" font-size="16.0105" font-family="Helvetica">pp </text>
<text xml:space="preserve" x="89.5406" y="85.6593" fill="black" font-size="16.0105" font-family="Helvetica">ALICE work in progress</text>
<text xml:space="preserve" x="214.085" y="120.599" fill="black" font-size="16.0105" font-family="Helvetica">) &lt; 28.0</text>
<text xml:space="preserve" x="205.068" y="120.599" fill="black" font-size="16.0105" font-family="Helvetica" font-style="oblique">c</text>
<text xml:space="preserve" x="154.912" y="120.599" fill="black" font-size="16.0105" font-family="Helvetica"> /(GeV/</text>
<text xml:space="preserve" x="148.15" y="128.489" fill="black" font-size="10.8403" font-family="Helvetica">T</text>
<text xml:space="preserve" x="138.569" y="120.599" fill="black" font-size="16.0105" font-family="Helvetica" font-style="oblique">p</text>
<text xml:space="preserve" x="133.497" y="120.599" fill="black" font-size="16.0105" font-family="Helvetica"> </text>
<text xml:space="preserve" x="125.044" y="120.599" fill="black" font-size="16.0105" font-family="Times">&#8804;</text>
<text xml:space="preserve" x="89.5406" y="120.599" fill="black" font-size="16.0105" font-family="Helvetica">24.0 </text>
<rect x="312.311" y="69.1755" width="198.425" height="113.448" fill="white"/>
<text xml:space="preserve" x="361.734" y="85.0957" fill="black" font-size="16.0105" font-family="Helvetica">ratio</text>
<path d="M319.752,80.5203h 34.7244" fill="none" stroke="black" stroke-width="2"/>
<g fill="black">
<circle cx="337.114" cy="80.5203" r="6.76257"/>
</g>
<text xml:space="preserve" x="361.734" y="108.201" fill="black" font-size="16.0105" font-family="Helvetica">peak range</text>
<path d="M319.752,103.21h 34.7244" fill="none" stroke="#333333" stroke-width="2"/>
<g stroke="#333333" stroke-width="2" fill="none">
<circle cx="337.114" cy="103.21" r="5.63548"/>
</g>
<text xml:space="preserve" x="361.734" y="130.743" fill="black" font-size="16.0105" font-family="Helvetica">background pol1</text>
<path d="M319.752,125.899h 34.7244" fill="none" stroke="#33cccc" stroke-width="3"/>
<text xml:space="preserve" x="361.734" y="153.285" fill="black" font-size="16.0105" font-family="Helvetica">background pol2</text>
<path d="M319.752,148.589h 34.7244" fill="none" stroke="#ff0066" stroke-width="3"/>
<text xml:space="preserve" x="361.734" y="175.827" fill="black" font-size="16.0105" font-family="Helvetica">param. range</text>
<path d="M319.752,171.279h 34.7244" fill="none" stroke="#999999" stroke-width="7"/></svg>
