<?xml version="1.0" standalone="no"?>
<svg width="567.429" height="553.904" viewBox="0 0 567.429 553.904" xmlns="http://www.w3.org/2000/svg" shape-rendering="crispEdges">
<title>
MC/EG1/OmegaTGPSPSNCell/SameEventToBackgroundRatio_06.svg
</title>
<desc>
Creator: ROOT Version 6.20/08
CreationDate: Mon Mar 29 21:28:55 2021</desc>
<defs>
</defs>
<rect x="0.5" y="0" width="566.929" height="553.404" fill="white"/>
<rect x="68.5315" y="16.6021" width="484.724" height="481.461" fill="white"/>
<rect x="68.5315" y="16.6021" width="484.724" height="481.461" fill="none" stroke="black"/>
<rect x="68.5315" y="16.6021" width="484.724" height="481.461" fill="white"/>
<rect x="68.5315" y="16.6021" width="484.724" height="481.461" fill="none" stroke="black"/>
<g fill="black">
<circle cx="109.325" cy="472.119" r="6.76257"/>
</g>
<g fill="black">
<circle cx="114.124" cy="362.498" r="6.76257"/>
</g>
<g fill="black">
<circle cx="118.924" cy="300.86" r="6.76257"/>
</g>
<g fill="black">
<circle cx="123.723" cy="269.089" r="6.76257"/>
</g>
<g fill="black">
<circle cx="128.522" cy="312.429" r="6.76257"/>
</g>
<g fill="black">
<circle cx="133.321" cy="370.204" r="6.76257"/>
</g>
<g fill="black">
<circle cx="138.121" cy="345.934" r="6.76257"/>
</g>
<g fill="black">
<circle cx="142.92" cy="355.201" r="6.76257"/>
</g>
<g fill="black">
<circle cx="147.719" cy="355.851" r="6.76257"/>
</g>
<g fill="black">
<circle cx="152.518" cy="355.701" r="6.76257"/>
</g>
<g fill="black">
<circle cx="157.318" cy="359.799" r="6.76257"/>
</g>
<g fill="black">
<circle cx="162.117" cy="362.909" r="6.76257"/>
</g>
<g fill="black">
<circle cx="166.916" cy="364.099" r="6.76257"/>
</g>
<g fill="black">
<circle cx="171.715" cy="365.46" r="6.76257"/>
</g>
<g fill="black">
<circle cx="176.515" cy="363.919" r="6.76257"/>
</g>
<g fill="black">
<circle cx="181.314" cy="364.428" r="6.76257"/>
</g>
<g fill="black">
<circle cx="186.113" cy="362.568" r="6.76257"/>
</g>
<g fill="black">
<circle cx="190.912" cy="362.083" r="6.76257"/>
</g>
<g fill="black">
<circle cx="195.712" cy="360.554" r="6.76257"/>
</g>
<g fill="black">
<circle cx="200.511" cy="358.151" r="6.76257"/>
</g>
<g fill="black">
<circle cx="205.31" cy="357.265" r="6.76257"/>
</g>
<g fill="black">
<circle cx="210.109" cy="354.614" r="6.76257"/>
</g>
<g fill="black">
<circle cx="214.909" cy="352.656" r="6.76257"/>
</g>
<g fill="black">
<circle cx="219.708" cy="351.961" r="6.76257"/>
</g>
<g fill="black">
<circle cx="224.507" cy="348.95" r="6.76257"/>
</g>
<g fill="black">
<circle cx="229.306" cy="345.927" r="6.76257"/>
</g>
<g fill="black">
<circle cx="234.106" cy="343.264" r="6.76257"/>
</g>
<g fill="black">
<circle cx="238.905" cy="340.175" r="6.76257"/>
</g>
<g fill="black">
<circle cx="243.704" cy="337.376" r="6.76257"/>
</g>
<g fill="black">
<circle cx="248.503" cy="335.025" r="6.76257"/>
</g>
<g fill="black">
<circle cx="253.303" cy="333.704" r="6.76257"/>
</g>
<g fill="black">
<circle cx="258.102" cy="331.426" r="6.76257"/>
</g>
<g fill="black">
<circle cx="262.901" cy="329.735" r="6.76257"/>
</g>
<g fill="black">
<circle cx="267.7" cy="328.467" r="6.76257"/>
</g>
<g fill="black">
<circle cx="272.5" cy="326.516" r="6.76257"/>
</g>
<g fill="black">
<circle cx="277.299" cy="323.642" r="6.76257"/>
</g>
<g fill="black">
<circle cx="339.689" cy="299.255" r="6.76257"/>
</g>
<g fill="black">
<circle cx="344.488" cy="298.083" r="6.76257"/>
</g>
<g fill="black">
<circle cx="349.288" cy="294.111" r="6.76257"/>
</g>
<g fill="black">
<circle cx="354.087" cy="295.698" r="6.76257"/>
</g>
<g fill="black">
<circle cx="358.886" cy="291.62" r="6.76257"/>
</g>
<g fill="black">
<circle cx="363.685" cy="289.364" r="6.76257"/>
</g>
<g fill="black">
<circle cx="368.485" cy="287.474" r="6.76257"/>
</g>
<g fill="black">
<circle cx="373.284" cy="284.892" r="6.76257"/>
</g>
<g fill="black">
<circle cx="378.083" cy="281.7" r="6.76257"/>
</g>
<g fill="black">
<circle cx="382.882" cy="278.772" r="6.76257"/>
</g>
<g fill="black">
<circle cx="387.682" cy="276.397" r="6.76257"/>
</g>
<g fill="black">
<circle cx="392.481" cy="273.551" r="6.76257"/>
</g>
<g fill="black">
<circle cx="397.28" cy="273.002" r="6.76257"/>
</g>
<g fill="black">
<circle cx="402.079" cy="271.697" r="6.76257"/>
</g>
<g fill="black">
<circle cx="406.879" cy="270.094" r="6.76257"/>
</g>
<g fill="black">
<circle cx="411.678" cy="266.195" r="6.76257"/>
</g>
<g fill="black">
<circle cx="416.477" cy="263.641" r="6.76257"/>
</g>
<g fill="black">
<circle cx="421.276" cy="261.304" r="6.76257"/>
</g>
<g fill="black">
<circle cx="426.076" cy="261.834" r="6.76257"/>
</g>
<g fill="black">
<circle cx="430.875" cy="257.208" r="6.76257"/>
</g>
<g fill="black">
<circle cx="435.674" cy="254.757" r="6.76257"/>
</g>
<g fill="black">
<circle cx="440.473" cy="254.034" r="6.76257"/>
</g>
<g fill="black">
<circle cx="445.273" cy="250.814" r="6.76257"/>
</g>
<g fill="black">
<circle cx="450.072" cy="248.462" r="6.76257"/>
</g>
<g fill="black">
<circle cx="454.871" cy="248.035" r="6.76257"/>
</g>
<g fill="black">
<circle cx="459.671" cy="244.605" r="6.76257"/>
</g>
<g fill="black">
<circle cx="464.47" cy="240.992" r="6.76257"/>
</g>
<g fill="black">
<circle cx="469.269" cy="239.022" r="6.76257"/>
</g>
<g fill="black">
<circle cx="474.068" cy="237.928" r="6.76257"/>
</g>
<g fill="black">
<circle cx="478.867" cy="236.743" r="6.76257"/>
</g>
<g fill="black">
<circle cx="483.667" cy="234.698" r="6.76257"/>
</g>
<g fill="black">
<circle cx="488.466" cy="227.327" r="6.76257"/>
</g>
<g fill="black">
<circle cx="493.265" cy="227.289" r="6.76257"/>
</g>
<g fill="black">
<circle cx="498.065" cy="226.071" r="6.76257"/>
</g>
<g fill="black">
<circle cx="502.864" cy="222.453" r="6.76257"/>
</g>
<g fill="black">
<circle cx="507.663" cy="221.05" r="6.76257"/>
</g>
<g fill="black">
<circle cx="512.462" cy="217.91" r="6.76257"/>
</g>
<g fill="black">
<circle cx="517.262" cy="215.312" r="6.76257"/>
</g>
<g fill="black">
<circle cx="522.061" cy="214.532" r="6.76257"/>
</g>
<g fill="black">
<circle cx="526.86" cy="209.947" r="6.76257"/>
</g>
<g fill="black">
<circle cx="531.659" cy="210.967" r="6.76257"/>
</g>
<g fill="black">
<circle cx="536.458" cy="206.605" r="6.76257"/>
</g>
<g fill="black">
<circle cx="541.258" cy="197.15" r="6.76257"/>
</g>
<g fill="black">
<circle cx="546.057" cy="199.171" r="6.76257"/>
</g>
<path d="M68.5315,498.064h 484.724" fill="none" stroke="black"/>
<path d="M68.5315,483.869v 14.1948" fill="none" stroke="black"/>
<path d="M83.5292,490.966v 7.09741" fill="none" stroke="black"/>
<path d="M98.5268,490.966v 7.09741" fill="none" stroke="black"/>
<path d="M113.524,490.966v 7.09741" fill="none" stroke="black"/>
<path d="M128.522,483.869v 14.1948" fill="none" stroke="black"/>
<path d="M143.52,490.966v 7.09741" fill="none" stroke="black"/>
<path d="M158.517,490.966v 7.09741" fill="none" stroke="black"/>
<path d="M173.515,490.966v 7.09741" fill="none" stroke="black"/>
<path d="M188.513,483.869v 14.1948" fill="none" stroke="black"/>
<path d="M203.51,490.966v 7.09741" fill="none" stroke="black"/>
<path d="M218.508,490.966v 7.09741" fill="none" stroke="black"/>
<path d="M233.506,490.966v 7.09741" fill="none" stroke="black"/>
<path d="M248.503,483.869v 14.1948" fill="none" stroke="black"/>
<path d="M263.501,490.966v 7.09741" fill="none" stroke="black"/>
<path d="M278.499,490.966v 7.09741" fill="none" stroke="black"/>
<path d="M293.496,490.966v 7.09741" fill="none" stroke="black"/>
<path d="M308.494,483.869v 14.1948" fill="none" stroke="black"/>
<path d="M323.492,490.966v 7.09741" fill="none" stroke="black"/>
<path d="M338.489,490.966v 7.09741" fill="none" stroke="black"/>
<path d="M353.487,490.966v 7.09741" fill="none" stroke="black"/>
<path d="M368.485,483.869v 14.1948" fill="none" stroke="black"/>
<path d="M383.482,490.966v 7.09741" fill="none" stroke="black"/>
<path d="M398.48,490.966v 7.09741" fill="none" stroke="black"/>
<path d="M413.478,490.966v 7.09741" fill="none" stroke="black"/>
<path d="M428.475,483.869v 14.1948" fill="none" stroke="black"/>
<path d="M443.473,490.966v 7.09741" fill="none" stroke="black"/>
<path d="M458.471,490.966v 7.09741" fill="none" stroke="black"/>
<path d="M473.468,490.966v 7.09741" fill="none" stroke="black"/>
<path d="M488.466,483.869v 14.1948" fill="none" stroke="black"/>
<path d="M503.464,490.966v 7.09741" fill="none" stroke="black"/>
<path d="M518.461,490.966v 7.09741" fill="none" stroke="black"/>
<path d="M533.459,490.966v 7.09741" fill="none" stroke="black"/>
<path d="M548.457,483.869v 14.1948" fill="none" stroke="black"/>
<path d="M548.457,483.869v 14.1948" fill="none" stroke="black"/>
<text xml:space="preserve" x="63.6174" y="513.956" fill="black" font-size="16.0105" font-family="Helvetica">0</text>
<text xml:space="preserve" x="117.718" y="513.956" fill="black" font-size="16.0105" font-family="Helvetica">0.2</text>
<text xml:space="preserve" x="177.454" y="513.956" fill="black" font-size="16.0105" font-family="Helvetica">0.4</text>
<text xml:space="preserve" x="237.754" y="513.956" fill="black" font-size="16.0105" font-family="Helvetica">0.6</text>
<text xml:space="preserve" x="297.49" y="513.956" fill="black" font-size="16.0105" font-family="Helvetica">0.8</text>
<text xml:space="preserve" x="365.115" y="513.956" fill="black" font-size="16.0105" font-family="Helvetica">1</text>
<text xml:space="preserve" x="417.525" y="513.956" fill="black" font-size="16.0105" font-family="Helvetica">1.2</text>
<text xml:space="preserve" x="477.261" y="513.956" fill="black" font-size="16.0105" font-family="Helvetica">1.4</text>
<text xml:space="preserve" x="537.561" y="513.956" fill="black" font-size="16.0105" font-family="Helvetica">1.6</text>
<text xml:space="preserve" x="548.268" y="537.625" fill="black" font-size="16.0105" font-family="Helvetica">)</text>
<text xml:space="preserve" x="542.633" y="532.553" fill="black" font-size="10.8403" font-family="Helvetica">2</text>
<text xml:space="preserve" x="533.616" y="537.625" fill="black" font-size="16.0105" font-family="Helvetica" font-style="oblique">c</text>
<text xml:space="preserve" x="487.405" y="537.625" fill="black" font-size="16.0105" font-family="Helvetica"> (GeV/</text>
<text xml:space="preserve" x="473.317" y="542.697" fill="black" font-size="10.8403" font-family="Helvetica">inv</text>
<text xml:space="preserve" x="459.792" y="537.625" fill="black" font-size="16.0105" font-family="Helvetica" font-style="oblique">m</text>
<path d="M68.5315,16.6021h 484.724" fill="none" stroke="black"/>
<path d="M68.5315,30.7969v -14.1948" fill="none" stroke="black"/>
<path d="M83.5292,23.6995v -7.09741" fill="none" stroke="black"/>
<path d="M98.5268,23.6995v -7.09741" fill="none" stroke="black"/>
<path d="M113.524,23.6995v -7.09741" fill="none" stroke="black"/>
<path d="M128.522,30.7969v -14.1948" fill="none" stroke="black"/>
<path d="M143.52,23.6995v -7.09741" fill="none" stroke="black"/>
<path d="M158.517,23.6995v -7.09741" fill="none" stroke="black"/>
<path d="M173.515,23.6995v -7.09741" fill="none" stroke="black"/>
<path d="M188.513,30.7969v -14.1948" fill="none" stroke="black"/>
<path d="M203.51,23.6995v -7.09741" fill="none" stroke="black"/>
<path d="M218.508,23.6995v -7.09741" fill="none" stroke="black"/>
<path d="M233.506,23.6995v -7.09741" fill="none" stroke="black"/>
<path d="M248.503,30.7969v -14.1948" fill="none" stroke="black"/>
<path d="M263.501,23.6995v -7.09741" fill="none" stroke="black"/>
<path d="M278.499,23.6995v -7.09741" fill="none" stroke="black"/>
<path d="M293.496,23.6995v -7.09741" fill="none" stroke="black"/>
<path d="M308.494,30.7969v -14.1948" fill="none" stroke="black"/>
<path d="M323.492,23.6995v -7.09741" fill="none" stroke="black"/>
<path d="M338.489,23.6995v -7.09741" fill="none" stroke="black"/>
<path d="M353.487,23.6995v -7.09741" fill="none" stroke="black"/>
<path d="M368.485,30.7969v -14.1948" fill="none" stroke="black"/>
<path d="M383.482,23.6995v -7.09741" fill="none" stroke="black"/>
<path d="M398.48,23.6995v -7.09741" fill="none" stroke="black"/>
<path d="M413.478,23.6995v -7.09741" fill="none" stroke="black"/>
<path d="M428.475,30.7969v -14.1948" fill="none" stroke="black"/>
<path d="M443.473,23.6995v -7.09741" fill="none" stroke="black"/>
<path d="M458.471,23.6995v -7.09741" fill="none" stroke="black"/>
<path d="M473.468,23.6995v -7.09741" fill="none" stroke="black"/>
<path d="M488.466,30.7969v -14.1948" fill="none" stroke="black"/>
<path d="M503.464,23.6995v -7.09741" fill="none" stroke="black"/>
<path d="M518.461,23.6995v -7.09741" fill="none" stroke="black"/>
<path d="M533.459,23.6995v -7.09741" fill="none" stroke="black"/>
<path d="M548.457,30.7969v -14.1948" fill="none" stroke="black"/>
<path d="M548.457,30.7969v -14.1948" fill="none" stroke="black"/>
<path d="M68.5315,498.064v -481.461" fill="none" stroke="black"/>
<path d="M83.3283,498.064h -14.7969" fill="none" stroke="black"/>
<path d="M75.9299,486.338h -7.39843" fill="none" stroke="black"/>
<path d="M75.9299,474.612h -7.39843" fill="none" stroke="black"/>
<path d="M75.9299,462.886h -7.39843" fill="none" stroke="black"/>
<path d="M83.3283,451.16h -14.7969" fill="none" stroke="black"/>
<path d="M75.9299,439.434h -7.39843" fill="none" stroke="black"/>
<path d="M75.9299,427.709h -7.39843" fill="none" stroke="black"/>
<path d="M75.9299,415.983h -7.39843" fill="none" stroke="black"/>
<path d="M83.3283,404.257h -14.7969" fill="none" stroke="black"/>
<path d="M75.9299,392.531h -7.39843" fill="none" stroke="black"/>
<path d="M75.9299,380.805h -7.39843" fill="none" stroke="black"/>
<path d="M75.9299,369.08h -7.39843" fill="none" stroke="black"/>
<path d="M83.3283,357.354h -14.7969" fill="none" stroke="black"/>
<path d="M75.9299,345.628h -7.39843" fill="none" stroke="black"/>
<path d="M75.9299,333.902h -7.39843" fill="none" stroke="black"/>
<path d="M75.9299,322.176h -7.39843" fill="none" stroke="black"/>
<path d="M83.3283,310.45h -14.7969" fill="none" stroke="black"/>
<path d="M75.9299,298.725h -7.39843" fill="none" stroke="black"/>
<path d="M75.9299,286.999h -7.39843" fill="none" stroke="black"/>
<path d="M75.9299,275.273h -7.39843" fill="none" stroke="black"/>
<path d="M83.3283,263.547h -14.7969" fill="none" stroke="black"/>
<path d="M75.9299,251.821h -7.39843" fill="none" stroke="black"/>
<path d="M75.9299,240.095h -7.39843" fill="none" stroke="black"/>
<path d="M75.9299,228.37h -7.39843" fill="none" stroke="black"/>
<path d="M83.3283,216.644h -14.7969" fill="none" stroke="black"/>
<path d="M75.9299,204.918h -7.39843" fill="none" stroke="black"/>
<path d="M75.9299,193.192h -7.39843" fill="none" stroke="black"/>
<path d="M75.9299,181.466h -7.39843" fill="none" stroke="black"/>
<path d="M83.3283,169.741h -14.7969" fill="none" stroke="black"/>
<path d="M75.9299,158.015h -7.39843" fill="none" stroke="black"/>
<path d="M75.9299,146.289h -7.39843" fill="none" stroke="black"/>
<path d="M75.9299,134.563h -7.39843" fill="none" stroke="black"/>
<path d="M83.3283,122.837h -14.7969" fill="none" stroke="black"/>
<path d="M75.9299,111.111h -7.39843" fill="none" stroke="black"/>
<path d="M75.9299,99.3856h -7.39843" fill="none" stroke="black"/>
<path d="M75.9299,87.6598h -7.39843" fill="none" stroke="black"/>
<path d="M83.3283,75.934h -14.7969" fill="none" stroke="black"/>
<path d="M75.9299,64.2081h -7.39843" fill="none" stroke="black"/>
<path d="M75.9299,52.4823h -7.39843" fill="none" stroke="black"/>
<path d="M75.9299,40.7565h -7.39843" fill="none" stroke="black"/>
<path d="M83.3283,29.0307h -14.7969" fill="none" stroke="black"/>
<path d="M83.3283,29.0307h -14.7969" fill="none" stroke="black"/>
<path d="M75.9299,17.3048h -7.39843" fill="none" stroke="black"/>
<text xml:space="preserve" x="56.8548" y="503.248" fill="black" font-size="16.0105" font-family="Helvetica">0</text>
<text xml:space="preserve" x="34.8764" y="456.474" fill="black" font-size="16.0105" font-family="Helvetica">0.02</text>
<text xml:space="preserve" x="34.8764" y="409.699" fill="black" font-size="16.0105" font-family="Helvetica">0.04</text>
<text xml:space="preserve" x="34.8764" y="362.925" fill="black" font-size="16.0105" font-family="Helvetica">0.06</text>
<text xml:space="preserve" x="34.8764" y="315.587" fill="black" font-size="16.0105" font-family="Helvetica">0.08</text>
<text xml:space="preserve" x="46.1474" y="268.812" fill="black" font-size="16.0105" font-family="Helvetica">0.1</text>
<text xml:space="preserve" x="34.8764" y="222.038" fill="black" font-size="16.0105" font-family="Helvetica">0.12</text>
<text xml:space="preserve" x="34.8764" y="175.263" fill="black" font-size="16.0105" font-family="Helvetica">0.14</text>
<text xml:space="preserve" x="34.8764" y="127.925" fill="black" font-size="16.0105" font-family="Helvetica">0.16</text>
<text xml:space="preserve" x="34.8764" y="81.1509" fill="black" font-size="16.0105" font-family="Helvetica">0.18</text>
<text xml:space="preserve" x="43.8932" y="34.3764" fill="black" font-size="16.0105" font-family="Helvetica">0.2</text>
<g transform="rotate(-90,38.2577,98.0573)">
<text xml:space="preserve" x="38.2577" y="98.0573" fill="black" font-size="16.0105" font-family="Helvetica">background</text>
</g>
<g transform="rotate(-90,21.9148,98.0573)">
<text xml:space="preserve" x="21.9148" y="98.0573" fill="black" font-size="16.0105" font-family="Helvetica">same event</text>
</g>
<path d="M24.169,98.0573l 0.563548, -81.7144" fill="none" stroke="black" stroke-width="2"/>
<path d="M553.256,498.064v -481.461" fill="none" stroke="black"/>
<path d="M538.459,498.064h 14.7969" fill="none" stroke="black"/>
<path d="M545.857,486.338h 7.39843" fill="none" stroke="black"/>
<path d="M545.857,474.612h 7.39843" fill="none" stroke="black"/>
<path d="M545.857,462.886h 7.39843" fill="none" stroke="black"/>
<path d="M538.459,451.16h 14.7969" fill="none" stroke="black"/>
<path d="M545.857,439.434h 7.39843" fill="none" stroke="black"/>
<path d="M545.857,427.709h 7.39843" fill="none" stroke="black"/>
<path d="M545.857,415.983h 7.39843" fill="none" stroke="black"/>
<path d="M538.459,404.257h 14.7969" fill="none" stroke="black"/>
<path d="M545.857,392.531h 7.39843" fill="none" stroke="black"/>
<path d="M545.857,380.805h 7.39843" fill="none" stroke="black"/>
<path d="M545.857,369.08h 7.39843" fill="none" stroke="black"/>
<path d="M538.459,357.354h 14.7969" fill="none" stroke="black"/>
<path d="M545.857,345.628h 7.39843" fill="none" stroke="black"/>
<path d="M545.857,333.902h 7.39843" fill="none" stroke="black"/>
<path d="M545.857,322.176h 7.39843" fill="none" stroke="black"/>
<path d="M538.459,310.45h 14.7969" fill="none" stroke="black"/>
<path d="M545.857,298.725h 7.39843" fill="none" stroke="black"/>
<path d="M545.857,286.999h 7.39843" fill="none" stroke="black"/>
<path d="M545.857,275.273h 7.39843" fill="none" stroke="black"/>
<path d="M538.459,263.547h 14.7969" fill="none" stroke="black"/>
<path d="M545.857,251.821h 7.39843" fill="none" stroke="black"/>
<path d="M545.857,240.095h 7.39843" fill="none" stroke="black"/>
<path d="M545.857,228.37h 7.39843" fill="none" stroke="black"/>
<path d="M538.459,216.644h 14.7969" fill="none" stroke="black"/>
<path d="M545.857,204.918h 7.39843" fill="none" stroke="black"/>
<path d="M545.857,193.192h 7.39843" fill="none" stroke="black"/>
<path d="M545.857,181.466h 7.39843" fill="none" stroke="black"/>
<path d="M538.459,169.741h 14.7969" fill="none" stroke="black"/>
<path d="M545.857,158.015h 7.39843" fill="none" stroke="black"/>
<path d="M545.857,146.289h 7.39843" fill="none" stroke="black"/>
<path d="M545.857,134.563h 7.39843" fill="none" stroke="black"/>
<path d="M538.459,122.837h 14.7969" fill="none" stroke="black"/>
<path d="M545.857,111.111h 7.39843" fill="none" stroke="black"/>
<path d="M545.857,99.3856h 7.39843" fill="none" stroke="black"/>
<path d="M545.857,87.6598h 7.39843" fill="none" stroke="black"/>
<path d="M538.459,75.934h 14.7969" fill="none" stroke="black"/>
<path d="M545.857,64.2081h 7.39843" fill="none" stroke="black"/>
<path d="M545.857,52.4823h 7.39843" fill="none" stroke="black"/>
<path d="M545.857,40.7565h 7.39843" fill="none" stroke="black"/>
<path d="M538.459,29.0307h 14.7969" fill="none" stroke="black"/>
<path d="M538.459,29.0307h 14.7969" fill="none" stroke="black"/>
<path d="M545.857,17.3048h 7.39843" fill="none" stroke="black"/>
<g stroke="#333333" stroke-width="2" fill="none">
<circle cx="282.098" cy="321.806" r="5.63548"/>
</g>
<g stroke="#333333" stroke-width="2" fill="none">
<circle cx="286.897" cy="319.448" r="5.63548"/>
</g>
<g stroke="#333333" stroke-width="2" fill="none">
<circle cx="291.697" cy="316.197" r="5.63548"/>
</g>
<g stroke="#333333" stroke-width="2" fill="none">
<circle cx="296.496" cy="312.683" r="5.63548"/>
</g>
<g stroke="#333333" stroke-width="2" fill="none">
<circle cx="301.295" cy="310.225" r="5.63548"/>
</g>
<g stroke="#333333" stroke-width="2" fill="none">
<circle cx="306.094" cy="310.223" r="5.63548"/>
</g>
<g stroke="#333333" stroke-width="2" fill="none">
<circle cx="310.894" cy="308.48" r="5.63548"/>
</g>
<g stroke="#333333" stroke-width="2" fill="none">
<circle cx="315.693" cy="308.052" r="5.63548"/>
</g>
<g stroke="#333333" stroke-width="2" fill="none">
<circle cx="320.492" cy="307.204" r="5.63548"/>
</g>
<g stroke="#333333" stroke-width="2" fill="none">
<circle cx="325.291" cy="305.31" r="5.63548"/>
</g>
<g stroke="#333333" stroke-width="2" fill="none">
<circle cx="330.091" cy="302.367" r="5.63548"/>
</g>
<g stroke="#333333" stroke-width="2" fill="none">
<circle cx="334.89" cy="300.941" r="5.63548"/>
</g>
<path d="M98.7518,400.28l 0.44993, -0.191882l 0.44993, -0.191882l 0.44993, -0.191882l 0.44993, -0.191882l 0.44993, -0.191882l 0.44993, -0.191882l 0.44993, -0.191882l 0.44993, -0.191882l 0.44993, -0.191882l 0.44993, -0.191882l 0.44993, -0.191882l
 0.44993, -0.191882l 0.44993, -0.191882l 0.44993, -0.191882l 0.44993, -0.191882l 0.44993, -0.191882l 0.44993, -0.191882l 0.44993, -0.191882l 0.44993, -0.191882l 0.44993, -0.191882l 0.44993, -0.191882l 0.44993, -0.191882l 0.44993, -0.191882l 0.44993,
 -0.191882l 0.44993, -0.191882l 0.44993, -0.191882l 0.44993, -0.191882l 0.44993, -0.191882l 0.44993, -0.191882l 0.44993, -0.191882l 0.44993, -0.191882l 0.44993, -0.191882l 0.44993, -0.191882l 0.44993, -0.191882l 0.44993, -0.191882l 0.44993,
 -0.191882l 0.44993, -0.191882l 0.44993, -0.191882l 0.44993, -0.191882l 0.44993, -0.191882l 0.44993, -0.191882l 0.44993, -0.191882l 0.44993, -0.191882l 0.44993, -0.191882l 0.44993, -0.191882l 0.44993, -0.191882l 0.44993, -0.191882l 0.44993,
 -0.191882l 0.44993, -0.191882" fill="none" stroke="#33cccc" stroke-width="3"/>
<path d="M120.798,390.878l 0.44993, -0.191882l 0.44993, -0.191882l 0.44993, -0.191882l 0.44993, -0.191882l 0.44993, -0.191882l 0.44993, -0.191882l 0.44993, -0.191882l 0.44993, -0.191882l 0.44993, -0.191882l 0.44993, -0.191882l 0.44993, -0.191882l
 0.44993, -0.191882l 0.44993, -0.191882l 0.44993, -0.191882l 0.44993, -0.191882l 0.44993, -0.191882l 0.44993, -0.191882l 0.44993, -0.191882l 0.44993, -0.191882l 0.44993, -0.191882l 0.44993, -0.191882l 0.44993, -0.191882l 0.44993, -0.191882l 0.44993,
 -0.191882l 0.44993, -0.191882l 0.44993, -0.191882l 0.44993, -0.191882l 0.44993, -0.191882l 0.44993, -0.191882l 0.44993, -0.191882l 0.44993, -0.191882l 0.44993, -0.191882l 0.44993, -0.191882l 0.44993, -0.191882l 0.44993, -0.191882l 0.44993,
 -0.191882l 0.44993, -0.191882l 0.44993, -0.191882l 0.44993, -0.191882l 0.44993, -0.191882l 0.44993, -0.191882l 0.44993, -0.191882l 0.44993, -0.191882l 0.44993, -0.191882l 0.44993, -0.191882l 0.44993, -0.191882l 0.44993, -0.191882l 0.44993,
 -0.191882l 0.44993, -0.191882" fill="none" stroke="#33cccc" stroke-width="3"/>
<path d="M142.845,381.475l 0.44993, -0.191882l 0.44993, -0.191882l 0.44993, -0.191882l 0.44993, -0.191882l 0.44993, -0.191882l 0.44993, -0.191882l 0.44993, -0.191882l 0.44993, -0.191882l 0.44993, -0.191882l 0.44993, -0.191882l 0.44993, -0.191882l
 0.44993, -0.191882l 0.44993, -0.191882l 0.44993, -0.191882l 0.44993, -0.191882l 0.44993, -0.191882l 0.44993, -0.191882l 0.44993, -0.191882l 0.44993, -0.191882l 0.44993, -0.191882l 0.44993, -0.191882l 0.44993, -0.191882l 0.44993, -0.191882l 0.44993,
 -0.191882l 0.44993, -0.191882l 0.44993, -0.191882l 0.44993, -0.191882l 0.44993, -0.191882l 0.44993, -0.191882l 0.44993, -0.191882l 0.44993, -0.191882l 0.44993, -0.191882l 0.44993, -0.191882l 0.44993, -0.191882l 0.44993, -0.191882l 0.44993,
 -0.191882l 0.44993, -0.191882l 0.44993, -0.191882l 0.44993, -0.191882l 0.44993, -0.191882l 0.44993, -0.191882l 0.44993, -0.191882l 0.44993, -0.191882l 0.44993, -0.191882l 0.44993, -0.191882l 0.44993, -0.191882l 0.44993, -0.191882l 0.44993,
 -0.191882l 0.44993, -0.191882" fill="none" stroke="#33cccc" stroke-width="3"/>
<path d="M164.891,372.073l 0.44993, -0.191882l 0.44993, -0.191882l 0.44993, -0.191882l 0.44993, -0.191882l 0.44993, -0.191882l 0.44993, -0.191882l 0.44993, -0.191882l 0.44993, -0.191882l 0.44993, -0.191882l 0.44993, -0.191882l 0.44993, -0.191882l
 0.44993, -0.191882l 0.44993, -0.191882l 0.44993, -0.191882l 0.44993, -0.191882l 0.44993, -0.191882l 0.44993, -0.191882l 0.44993, -0.191882l 0.44993, -0.191882l 0.44993, -0.191882l 0.44993, -0.191882l 0.44993, -0.191882l 0.44993, -0.191882l 0.44993,
 -0.191882l 0.44993, -0.191882l 0.44993, -0.191882l 0.44993, -0.191882l 0.44993, -0.191882l 0.44993, -0.191882l 0.44993, -0.191882l 0.44993, -0.191882l 0.44993, -0.191882l 0.44993, -0.191882l 0.44993, -0.191882l 0.44993, -0.191882l 0.44993,
 -0.191882l 0.44993, -0.191882l 0.44993, -0.191882l 0.44993, -0.191882l 0.44993, -0.191882l 0.44993, -0.191882l 0.44993, -0.191882l 0.44993, -0.191882l 0.44993, -0.191882l 0.44993, -0.191882l 0.44993, -0.191882l 0.44993, -0.191882l 0.44993,
 -0.191882l 0.44993, -0.191882" fill="none" stroke="#33cccc" stroke-width="3"/>
<path d="M186.938,362.671l 0.44993, -0.191882l 0.44993, -0.191882l 0.44993, -0.191882l 0.44993, -0.191882l 0.44993, -0.191882l 0.44993, -0.191882l 0.44993, -0.191882l 0.44993, -0.191882l 0.44993, -0.191882l 0.44993, -0.191882l 0.44993, -0.191882l
 0.44993, -0.191882l 0.44993, -0.191882l 0.44993, -0.191882l 0.44993, -0.191882l 0.44993, -0.191882l 0.44993, -0.191882l 0.44993, -0.191882l 0.44993, -0.191882l 0.44993, -0.191882l 0.44993, -0.191882l 0.44993, -0.191882l 0.44993, -0.191882l 0.44993,
 -0.191882l 0.44993, -0.191882l 0.44993, -0.191882l 0.44993, -0.191882l 0.44993, -0.191882l 0.44993, -0.191882l 0.44993, -0.191882l 0.44993, -0.191882l 0.44993, -0.191882l 0.44993, -0.191882l 0.44993, -0.191882l 0.44993, -0.191882l 0.44993,
 -0.191882l 0.44993, -0.191882l 0.44993, -0.191882l 0.44993, -0.191882l 0.44993, -0.191882l 0.44993, -0.191882l 0.44993, -0.191882l 0.44993, -0.191882l 0.44993, -0.191882l 0.44993, -0.191882l 0.44993, -0.191882l 0.44993, -0.191882l 0.44993,
 -0.191882l 0.44993, -0.191882" fill="none" stroke="#33cccc" stroke-width="3"/>
<path d="M208.985,353.269l 0.44993, -0.191882l 0.44993, -0.191882l 0.44993, -0.191882l 0.44993, -0.191882l 0.44993, -0.191882l 0.44993, -0.191882l 0.44993, -0.191882l 0.44993, -0.191882l 0.44993, -0.191882l 0.44993, -0.191882l 0.44993, -0.191882l
 0.44993, -0.191882l 0.44993, -0.191882l 0.44993, -0.191882l 0.44993, -0.191882l 0.44993, -0.191882l 0.44993, -0.191882l 0.44993, -0.191882l 0.44993, -0.191882l 0.44993, -0.191882l 0.44993, -0.191882l 0.44993, -0.191882l 0.44993, -0.191882l 0.44993,
 -0.191882l 0.44993, -0.191882l 0.44993, -0.191882l 0.44993, -0.191882l 0.44993, -0.191882l 0.44993, -0.191882l 0.44993, -0.191882l 0.44993, -0.191882l 0.44993, -0.191882l 0.44993, -0.191882l 0.44993, -0.191882l 0.44993, -0.191882l 0.44993,
 -0.191882l 0.44993, -0.191882l 0.44993, -0.191882l 0.44993, -0.191882l 0.44993, -0.191882l 0.44993, -0.191882l 0.44993, -0.191882l 0.44993, -0.191882l 0.44993, -0.191882l 0.44993, -0.191882l 0.44993, -0.191882l 0.44993, -0.191882l 0.44993,
 -0.191882l 0.44993, -0.191882" fill="none" stroke="#33cccc" stroke-width="3"/>
<path d="M231.031,343.867l 0.44993, -0.191882l 0.44993, -0.191882l 0.44993, -0.191882l 0.44993, -0.191882l 0.44993, -0.191882l 0.44993, -0.191882l 0.44993, -0.191882l 0.44993, -0.191882l 0.44993, -0.191882l 0.44993, -0.191882l 0.44993, -0.191882l
 0.44993, -0.191882l 0.44993, -0.191882l 0.44993, -0.191882l 0.44993, -0.191882l 0.44993, -0.191882l 0.44993, -0.191882l 0.44993, -0.191882l 0.44993, -0.191882l 0.44993, -0.191882l 0.44993, -0.191882l 0.44993, -0.191882l 0.44993, -0.191882l 0.44993,
 -0.191882l 0.44993, -0.191882l 0.44993, -0.191882l 0.44993, -0.191882l 0.44993, -0.191882l 0.44993, -0.191882l 0.44993, -0.191882l 0.44993, -0.191882l 0.44993, -0.191882l 0.44993, -0.191882l 0.44993, -0.191882l 0.44993, -0.191882l 0.44993,
 -0.191882l 0.44993, -0.191882l 0.44993, -0.191882l 0.44993, -0.191882l 0.44993, -0.191882l 0.44993, -0.191882l 0.44993, -0.191882l 0.44993, -0.191882l 0.44993, -0.191882l 0.44993, -0.191882l 0.44993, -0.191882l 0.44993, -0.191882l 0.44993,
 -0.191882l 0.44993, -0.191882" fill="none" stroke="#33cccc" stroke-width="3"/>
<path d="M253.078,334.464l 0.44993, -0.191882l 0.44993, -0.191882l 0.44993, -0.191882l 0.44993, -0.191882l 0.44993, -0.191882l 0.44993, -0.191882l 0.44993, -0.191882l 0.44993, -0.191882l 0.44993, -0.191882l 0.44993, -0.191882l 0.44993, -0.191882l
 0.44993, -0.191882l 0.44993, -0.191882l 0.44993, -0.191882l 0.44993, -0.191882l 0.44993, -0.191882l 0.44993, -0.191882l 0.44993, -0.191882l 0.44993, -0.191882l 0.44993, -0.191882l 0.44993, -0.191882l 0.44993, -0.191882l 0.44993, -0.191882l 0.44993,
 -0.191882l 0.44993, -0.191882l 0.44993, -0.191882l 0.44993, -0.191882l 0.44993, -0.191882l 0.44993, -0.191882l 0.44993, -0.191882l 0.44993, -0.191882l 0.44993, -0.191882l 0.44993, -0.191882l 0.44993, -0.191882l 0.44993, -0.191882l 0.44993,
 -0.191882l 0.44993, -0.191882l 0.44993, -0.191882l 0.44993, -0.191882l 0.44993, -0.191882l 0.44993, -0.191882l 0.44993, -0.191882l 0.44993, -0.191882l 0.44993, -0.191882l 0.44993, -0.191882l 0.44993, -0.191882l 0.44993, -0.191882l 0.44993,
 -0.191882l 0.44993, -0.191882" fill="none" stroke="#33cccc" stroke-width="3"/>
<path d="M275.124,325.062l 0.44993, -0.191882l 0.44993, -0.191882l 0.44993, -0.191882l 0.44993, -0.191882l 0.44993, -0.191882l 0.44993, -0.191882l 0.44993, -0.191882l 0.44993, -0.191882l 0.44993, -0.191882l 0.44993, -0.191882l 0.44993, -0.191882l
 0.44993, -0.191882l 0.44993, -0.191882l 0.44993, -0.191882l 0.44993, -0.191882l 0.44993, -0.191882l 0.44993, -0.191882l 0.44993, -0.191882l 0.44993, -0.191882l 0.44993, -0.191882l 0.44993, -0.191882l 0.44993, -0.191882l 0.44993, -0.191882l 0.44993,
 -0.191882l 0.44993, -0.191882l 0.44993, -0.191882l 0.44993, -0.191882l 0.44993, -0.191882l 0.44993, -0.191882l 0.44993, -0.191882l 0.44993, -0.191882l 0.44993, -0.191882l 0.44993, -0.191882l 0.44993, -0.191882l 0.44993, -0.191882l 0.44993,
 -0.191882l 0.44993, -0.191882l 0.44993, -0.191882l 0.44993, -0.191882l 0.44993, -0.191882l 0.44993, -0.191882l 0.44993, -0.191882l 0.44993, -0.191882l 0.44993, -0.191882l 0.44993, -0.191882l 0.44993, -0.191882l 0.44993, -0.191882l 0.44993,
 -0.191882l 0.44993, -0.191882" fill="none" stroke="#33cccc" stroke-width="3"/>
<path d="M297.171,315.66l 0.44993, -0.191882l 0.44993, -0.191882l 0.44993, -0.191882l 0.44993, -0.191882l 0.44993, -0.191882l 0.44993, -0.191882l 0.44993, -0.191882l 0.44993, -0.191882l 0.44993, -0.191882l 0.44993, -0.191882l 0.44993, -0.191882l
 0.44993, -0.191882l 0.44993, -0.191882l 0.44993, -0.191882l 0.44993, -0.191882l 0.44993, -0.191882l 0.44993, -0.191882l 0.44993, -0.191882l 0.44993, -0.191882l 0.44993, -0.191882l 0.44993, -0.191882l 0.44993, -0.191882l 0.44993, -0.191882l 0.44993,
 -0.191882l 0.44993, -0.191882l 0.44993, -0.191882l 0.44993, -0.191882l 0.44993, -0.191882l 0.44993, -0.191882l 0.44993, -0.191882l 0.44993, -0.191882l 0.44993, -0.191882l 0.44993, -0.191882l 0.44993, -0.191882l 0.44993, -0.191882l 0.44993,
 -0.191882l 0.44993, -0.191882l 0.44993, -0.191882l 0.44993, -0.191882l 0.44993, -0.191882l 0.44993, -0.191882l 0.44993, -0.191882l 0.44993, -0.191882l 0.44993, -0.191882l 0.44993, -0.191882l 0.44993, -0.191882l 0.44993, -0.191882l 0.44993,
 -0.191882l 0.44993, -0.191882" fill="none" stroke="#33cccc" stroke-width="3"/>
<path d="M319.217,306.258l 0.44993, -0.191882l 0.44993, -0.191882l 0.44993, -0.191882l 0.44993, -0.191882l 0.44993, -0.191882l 0.44993, -0.191882l 0.44993, -0.191882l 0.44993, -0.191882l 0.44993, -0.191882l 0.44993, -0.191882l 0.44993, -0.191882l
 0.44993, -0.191882l 0.44993, -0.191882l 0.44993, -0.191882l 0.44993, -0.191882l 0.44993, -0.191882l 0.44993, -0.191882l 0.44993, -0.191882l 0.44993, -0.191882l 0.44993, -0.191882l 0.44993, -0.191882l 0.44993, -0.191882l 0.44993, -0.191882l 0.44993,
 -0.191882l 0.44993, -0.191882l 0.44993, -0.191882l 0.44993, -0.191882l 0.44993, -0.191882l 0.44993, -0.191882l 0.44993, -0.191882l 0.44993, -0.191882l 0.44993, -0.191882l 0.44993, -0.191882l 0.44993, -0.191882l 0.44993, -0.191882l 0.44993,
 -0.191882l 0.44993, -0.191882l 0.44993, -0.191882l 0.44993, -0.191882l 0.44993, -0.191882l 0.44993, -0.191882l 0.44993, -0.191882l 0.44993, -0.191882l 0.44993, -0.191882l 0.44993, -0.191882l 0.44993, -0.191882l 0.44993, -0.191882l 0.44993,
 -0.191882l 0.44993, -0.191882" fill="none" stroke="#33cccc" stroke-width="3"/>
<path d="M341.264,296.855l 0.44993, -0.191882l 0.44993, -0.191882l 0.44993, -0.191882l 0.44993, -0.191882l 0.44993, -0.191882l 0.44993, -0.191882l 0.44993, -0.191882l 0.44993, -0.191882l 0.44993, -0.191882l 0.44993, -0.191882l 0.44993, -0.191882l
 0.44993, -0.191882l 0.44993, -0.191882l 0.44993, -0.191882l 0.44993, -0.191882l 0.44993, -0.191882l 0.44993, -0.191882l 0.44993, -0.191882l 0.44993, -0.191882l 0.44993, -0.191882l 0.44993, -0.191882l 0.44993, -0.191882l 0.44993, -0.191882l 0.44993,
 -0.191882l 0.44993, -0.191882l 0.44993, -0.191882l 0.44993, -0.191882l 0.44993, -0.191882l 0.44993, -0.191882l 0.44993, -0.191882l 0.44993, -0.191882l 0.44993, -0.191882l 0.44993, -0.191882l 0.44993, -0.191882l 0.44993, -0.191882l 0.44993,
 -0.191882l 0.44993, -0.191882l 0.44993, -0.191882l 0.44993, -0.191882l 0.44993, -0.191882l 0.44993, -0.191882l 0.44993, -0.191882l 0.44993, -0.191882l 0.44993, -0.191882l 0.44993, -0.191882l 0.44993, -0.191882l 0.44993, -0.191882l 0.44993,
 -0.191882l 0.44993, -0.191882" fill="none" stroke="#33cccc" stroke-width="3"/>
<path d="M363.311,287.453l 0.44993, -0.191882l 0.44993, -0.191882l 0.44993, -0.191882l 0.44993, -0.191882l 0.44993, -0.191882l 0.44993, -0.191882l 0.44993, -0.191882l 0.44993, -0.191882l 0.44993, -0.191882l 0.44993, -0.191882l 0.44993, -0.191882l
 0.44993, -0.191882l 0.44993, -0.191882l 0.44993, -0.191882l 0.44993, -0.191882l 0.44993, -0.191882l 0.44993, -0.191882l 0.44993, -0.191882l 0.44993, -0.191882l 0.44993, -0.191882l 0.44993, -0.191882l 0.44993, -0.191882l 0.44993, -0.191882l 0.44993,
 -0.191882l 0.44993, -0.191882l 0.44993, -0.191882l 0.44993, -0.191882l 0.44993, -0.191882l 0.44993, -0.191882l 0.44993, -0.191882l 0.44993, -0.191882l 0.44993, -0.191882l 0.44993, -0.191882l 0.44993, -0.191882l 0.44993, -0.191882l 0.44993,
 -0.191882l 0.44993, -0.191882l 0.44993, -0.191882l 0.44993, -0.191882l 0.44993, -0.191882l 0.44993, -0.191882l 0.44993, -0.191882l 0.44993, -0.191882l 0.44993, -0.191882l 0.44993, -0.191882l 0.44993, -0.191882l 0.44993, -0.191882l 0.44993,
 -0.191882l 0.44993, -0.191882" fill="none" stroke="#33cccc" stroke-width="3"/>
<path d="M385.357,278.051l 0.44993, -0.191882l 0.44993, -0.191882l 0.44993, -0.191882l 0.44993, -0.191882l 0.44993, -0.191882l 0.44993, -0.191882l 0.44993, -0.191882l 0.44993, -0.191882l 0.44993, -0.191882l 0.44993, -0.191882l 0.44993, -0.191882l
 0.44993, -0.191882l 0.44993, -0.191882l 0.44993, -0.191882l 0.44993, -0.191882l 0.44993, -0.191882l 0.44993, -0.191882l 0.44993, -0.191882l 0.44993, -0.191882l 0.44993, -0.191882l 0.44993, -0.191882l 0.44993, -0.191882l 0.44993, -0.191882l 0.44993,
 -0.191882l 0.44993, -0.191882l 0.44993, -0.191882l 0.44993, -0.191882l 0.44993, -0.191882l 0.44993, -0.191882l 0.44993, -0.191882l 0.44993, -0.191882l 0.44993, -0.191882l 0.44993, -0.191882l 0.44993, -0.191882l 0.44993, -0.191882l 0.44993,
 -0.191882l 0.44993, -0.191882l 0.44993, -0.191882l 0.44993, -0.191882l 0.44993, -0.191882l 0.44993, -0.191882l 0.44993, -0.191882l 0.44993, -0.191882l 0.44993, -0.191882l 0.44993, -0.191882l 0.44993, -0.191882l 0.44993, -0.191882l 0.44993,
 -0.191882l 0.44993, -0.191882" fill="none" stroke="#33cccc" stroke-width="3"/>
<path d="M407.404,268.649l 0.44993, -0.191882l 0.44993, -0.191882l 0.44993, -0.191882l 0.44993, -0.191882l 0.44993, -0.191882l 0.44993, -0.191882l 0.44993, -0.191882l 0.44993, -0.191882l 0.44993, -0.191882l 0.44993, -0.191882l 0.44993, -0.191882l
 0.44993, -0.191882l 0.44993, -0.191882l 0.44993, -0.191882l 0.44993, -0.191882l 0.44993, -0.191882l 0.44993, -0.191882l 0.44993, -0.191882l 0.44993, -0.191882l 0.44993, -0.191882l 0.44993, -0.191882l 0.44993, -0.191882l 0.44993, -0.191882l 0.44993,
 -0.191882l 0.44993, -0.191882l 0.44993, -0.191882l 0.44993, -0.191882l 0.44993, -0.191882l 0.44993, -0.191882l 0.44993, -0.191882l 0.44993, -0.191882l 0.44993, -0.191882l 0.44993, -0.191882l 0.44993, -0.191882l 0.44993, -0.191882l 0.44993,
 -0.191882l 0.44993, -0.191882l 0.44993, -0.191882l 0.44993, -0.191882l 0.44993, -0.191882l 0.44993, -0.191882l 0.44993, -0.191882l 0.44993, -0.191882l 0.44993, -0.191882l 0.44993, -0.191882l 0.44993, -0.191882l 0.44993, -0.191882l 0.44993,
 -0.191882l 0.44993, -0.191882" fill="none" stroke="#33cccc" stroke-width="3"/>
<path d="M429.45,259.246l 0.44993, -0.191882l 0.44993, -0.191882l 0.44993, -0.191882l 0.44993, -0.191882l 0.44993, -0.191882l 0.44993, -0.191882l 0.44993, -0.191882l 0.44993, -0.191882l 0.44993, -0.191882l 0.44993, -0.191882l 0.44993, -0.191882l
 0.44993, -0.191882l 0.44993, -0.191882l 0.44993, -0.191882l 0.44993, -0.191882l 0.44993, -0.191882l 0.44993, -0.191882l 0.44993, -0.191882l 0.44993, -0.191882l 0.44993, -0.191882l 0.44993, -0.191882l 0.44993, -0.191882l 0.44993, -0.191882l 0.44993,
 -0.191882l 0.44993, -0.191882l 0.44993, -0.191882l 0.44993, -0.191882l 0.44993, -0.191882l 0.44993, -0.191882l 0.44993, -0.191882l 0.44993, -0.191882l 0.44993, -0.191882l 0.44993, -0.191882l 0.44993, -0.191882l 0.44993, -0.191882l 0.44993,
 -0.191882l 0.44993, -0.191882l 0.44993, -0.191882l 0.44993, -0.191882l 0.44993, -0.191882l 0.44993, -0.191882l 0.44993, -0.191882l 0.44993, -0.191882l 0.44993, -0.191882l 0.44993, -0.191882l 0.44993, -0.191882l 0.44993, -0.191882l 0.44993,
 -0.191882l 0.44993, -0.191882" fill="none" stroke="#33cccc" stroke-width="3"/>
<path d="M451.497,249.844l 0.44993, -0.191882l 0.44993, -0.191882l 0.44993, -0.191882l 0.44993, -0.191882l 0.44993, -0.191882l 0.44993, -0.191882l 0.44993, -0.191882l 0.44993, -0.191882l 0.44993, -0.191882l 0.44993, -0.191882l 0.44993, -0.191882l
 0.44993, -0.191882l 0.44993, -0.191882l 0.44993, -0.191882l 0.44993, -0.191882l 0.44993, -0.191882l 0.44993, -0.191882l 0.44993, -0.191882l 0.44993, -0.191882l 0.44993, -0.191882l 0.44993, -0.191882l 0.44993, -0.191882l 0.44993, -0.191882l 0.44993,
 -0.191882l 0.44993, -0.191882l 0.44993, -0.191882l 0.44993, -0.191882l 0.44993, -0.191882l 0.44993, -0.191882l 0.44993, -0.191882l 0.44993, -0.191882l 0.44993, -0.191882l 0.44993, -0.191882l 0.44993, -0.191882l 0.44993, -0.191882l 0.44993,
 -0.191882l 0.44993, -0.191882l 0.44993, -0.191882l 0.44993, -0.191882l 0.44993, -0.191882l 0.44993, -0.191882l 0.44993, -0.191882l 0.44993, -0.191882l 0.44993, -0.191882l 0.44993, -0.191882l 0.44993, -0.191882l 0.44993, -0.191882l 0.44993,
 -0.191882l 0.44993, -0.191882" fill="none" stroke="#33cccc" stroke-width="3"/>
<path d="M473.543,240.442l 0.44993, -0.191882l 0.44993, -0.191882l 0.44993, -0.191882l 0.44993, -0.191882l 0.44993, -0.191882l 0.44993, -0.191882l 0.44993, -0.191882l 0.44993, -0.191882l 0.44993, -0.191882l 0.44993, -0.191882l 0.44993, -0.191882l
 0.44993, -0.191882l 0.44993, -0.191882l 0.44993, -0.191882l 0.44993, -0.191882l 0.44993, -0.191882l 0.44993, -0.191882l 0.44993, -0.191882l 0.44993, -0.191882l 0.44993, -0.191882l 0.44993, -0.191882l 0.44993, -0.191882l 0.44993, -0.191882l 0.44993,
 -0.191882l 0.44993, -0.191882l 0.44993, -0.191882l 0.44993, -0.191882l 0.44993, -0.191882l 0.44993, -0.191882l 0.44993, -0.191882l 0.44993, -0.191882l 0.44993, -0.191882l 0.44993, -0.191882l 0.44993, -0.191882l 0.44993, -0.191882l 0.44993,
 -0.191882l 0.44993, -0.191882l 0.44993, -0.191882l 0.44993, -0.191882l 0.44993, -0.191882l 0.44993, -0.191882l 0.44993, -0.191882l 0.44993, -0.191882l 0.44993, -0.191882l 0.44993, -0.191882l 0.44993, -0.191882l 0.44993, -0.191882l 0.44993,
 -0.191882l 0.44993, -0.191882" fill="none" stroke="#33cccc" stroke-width="3"/>
<path d="M495.59,231.04l 0.44993, -0.191882l 0.44993, -0.191882l 0.44993, -0.191882l 0.44993, -0.191882l 0.44993, -0.191882l 0.44993, -0.191882l 0.44993, -0.191882l 0.44993, -0.191882l 0.44993, -0.191882l 0.44993, -0.191882l 0.44993, -0.191882l
 0.44993, -0.191882l 0.44993, -0.191882l 0.44993, -0.191882l 0.44993, -0.191882l 0.44993, -0.191882l 0.44993, -0.191882l 0.44993, -0.191882l 0.44993, -0.191882l 0.44993, -0.191882l 0.44993, -0.191882l 0.44993, -0.191882l 0.44993, -0.191882l 0.44993,
 -0.191882l 0.44993, -0.191882l 0.44993, -0.191882l 0.44993, -0.191882l 0.44993, -0.191882l 0.44993, -0.191882l 0.44993, -0.191882l 0.44993, -0.191882l 0.44993, -0.191882l 0.44993, -0.191882l 0.44993, -0.191882l 0.44993, -0.191882l 0.44993,
 -0.191882l 0.44993, -0.191882l 0.44993, -0.191882l 0.44993, -0.191882l 0.44993, -0.191882l 0.44993, -0.191882l 0.44993, -0.191882l 0.44993, -0.191882l 0.44993, -0.191882l 0.44993, -0.191882l 0.44993, -0.191882l 0.44993, -0.191882l 0.44993,
 -0.191882l 0.44993, -0.191882" fill="none" stroke="#33cccc" stroke-width="3"/>
<path d="M517.636,221.638l 0.44993, -0.191882l 0.44993, -0.191882l 0.44993, -0.191882l 0.44993, -0.191882l 0.44993, -0.191882l 0.44993, -0.191882l 0.44993, -0.191882l 0.44993, -0.191882l 0.44993, -0.191882l 0.44993, -0.191882l 0.44993, -0.191882l
 0.44993, -0.191882l 0.44993, -0.191882l 0.44993, -0.191882l 0.44993, -0.191882l 0.44993, -0.191882l 0.44993, -0.191882l 0.44993, -0.191882l 0.44993, -0.191882l 0.44993, -0.191882l 0.44993, -0.191882l 0.44993, -0.191882l 0.44993, -0.191882l 0.44993,
 -0.191882l 0.44993, -0.191882l 0.44993, -0.191882l 0.44993, -0.191882l 0.44993, -0.191882l 0.44993, -0.191882l 0.44993, -0.191882l 0.44993, -0.191882l 0.44993, -0.191882l 0.44993, -0.191882l 0.44993, -0.191882l 0.44993, -0.191882l 0.44993,
 -0.191882l 0.44993, -0.191882l 0.44993, -0.191882l 0.44993, -0.191882l 0.44993, -0.191882l 0.44993, -0.191882l 0.44993, -0.191882l 0.44993, -0.191882l 0.44993, -0.191882l 0.44993, -0.191882l 0.44993, -0.191882l 0.44993, -0.191882l 0.44993,
 -0.191882l 0.44993, -0.191882" fill="none" stroke="#33cccc" stroke-width="3"/>
<path d="M539.683,212.235l 0.44993, -0.191882l 0.44993, -0.191882l 0.44993, -0.191882l 0.44993, -0.191882l 0.44993, -0.191882l 0.44993, -0.191882l 0.44993, -0.191882l 0.44993, -0.191882l 0.44993, -0.191882l 0.44993, -0.191882l 0.44993, -0.191882l
 0.44993, -0.191882l 0.44993, -0.191882l 0.44993, -0.191882l 0.44993, -0.191882l 0.44993, -0.191882l 0.44993, -0.191882l 0.44993, -0.191882l 0.44993, -0.191882" fill="none" stroke="#33cccc" stroke-width="3"/>
<path d="M98.7518,384.999l 0.44993, -0.130865l 0.44993, -0.130977l 0.44993, -0.131088l 0.44993, -0.131199l 0.44993, -0.13131l 0.44993, -0.131421l 0.44993, -0.131533l 0.44993, -0.131644l 0.44993, -0.131755l 0.44993, -0.131866l 0.44993, -0.131977l
 0.44993, -0.132088l 0.44993, -0.1322l 0.44993, -0.132311l 0.44993, -0.132422l 0.44993, -0.132533l 0.44993, -0.132644l 0.44993, -0.132755l 0.44993, -0.132867l 0.44993, -0.132978l 0.44993, -0.133089l 0.44993, -0.1332l 0.44993, -0.133311l 0.44993,
 -0.133422l 0.44993, -0.133534l 0.44993, -0.133645l 0.44993, -0.133756l 0.44993, -0.133867l 0.44993, -0.133978l 0.44993, -0.134089l 0.44993, -0.134201l 0.44993, -0.134312l 0.44993, -0.134423l 0.44993, -0.134534l 0.44993, -0.134645l 0.44993,
 -0.134756l 0.44993, -0.134868l 0.44993, -0.134979l 0.44993, -0.13509l 0.44993, -0.135201l 0.44993, -0.135312l 0.44993, -0.135423l 0.44993, -0.135535l 0.44993, -0.135646l 0.44993, -0.135757l 0.44993, -0.135868l 0.44993, -0.135979l 0.44993, -0.13609l
 0.44993, -0.136202" fill="none" stroke="#ff0066" stroke-width="3"/>
<path d="M120.798,378.456l 0.44993, -0.136313l 0.44993, -0.136424l 0.44993, -0.136535l 0.44993, -0.136646l 0.44993, -0.136757l 0.44993, -0.136869l 0.44993, -0.13698l 0.44993, -0.137091l 0.44993, -0.137202l 0.44993, -0.137313l 0.44993, -0.137424l
 0.44993, -0.137536l 0.44993, -0.137647l 0.44993, -0.137758l 0.44993, -0.137869l 0.44993, -0.13798l 0.44993, -0.138091l 0.44993, -0.138203l 0.44993, -0.138314l 0.44993, -0.138425l 0.44993, -0.138536l 0.44993, -0.138647l 0.44993, -0.138758l 0.44993,
 -0.13887l 0.44993, -0.138981l 0.44993, -0.139092l 0.44993, -0.139203l 0.44993, -0.139314l 0.44993, -0.139425l 0.44993, -0.139537l 0.44993, -0.139648l 0.44993, -0.139759l 0.44993, -0.13987l 0.44993, -0.139981l 0.44993, -0.140092l 0.44993, -0.140204l
 0.44993, -0.140315l 0.44993, -0.140426l 0.44993, -0.140537l 0.44993, -0.140648l 0.44993, -0.140759l 0.44993, -0.140871l 0.44993, -0.140982l 0.44993, -0.141093l 0.44993, -0.141204l 0.44993, -0.141315l 0.44993, -0.141426l 0.44993, -0.141538l 0.44993,
 -0.141649" fill="none" stroke="#ff0066" stroke-width="3"/>
<path d="M142.845,371.645l 0.44993, -0.14176l 0.44993, -0.141871l 0.44993, -0.141982l 0.44993, -0.142093l 0.44993, -0.142205l 0.44993, -0.142316l 0.44993, -0.142427l 0.44993, -0.142538l 0.44993, -0.142649l 0.44993, -0.14276l 0.44993, -0.142872l
 0.44993, -0.142983l 0.44993, -0.143094l 0.44993, -0.143205l 0.44993, -0.143316l 0.44993, -0.143427l 0.44993, -0.143539l 0.44993, -0.14365l 0.44993, -0.143761l 0.44993, -0.143872l 0.44993, -0.143983l 0.44993, -0.144094l 0.44993, -0.144206l 0.44993,
 -0.144317l 0.44993, -0.144428l 0.44993, -0.144539l 0.44993, -0.14465l 0.44993, -0.144761l 0.44993, -0.144873l 0.44993, -0.144984l 0.44993, -0.145095l 0.44993, -0.145206l 0.44993, -0.145317l 0.44993, -0.145428l 0.44993, -0.14554l 0.44993, -0.145651l
 0.44993, -0.145762l 0.44993, -0.145873l 0.44993, -0.145984l 0.44993, -0.146095l 0.44993, -0.146207l 0.44993, -0.146318l 0.44993, -0.146429l 0.44993, -0.14654l 0.44993, -0.146651l 0.44993, -0.146762l 0.44993, -0.146874l 0.44993, -0.146985l 0.44993,
 -0.147096" fill="none" stroke="#ff0066" stroke-width="3"/>
<path d="M164.891,364.568l 0.44993, -0.147207l 0.44993, -0.147318l 0.44993, -0.147429l 0.44993, -0.147541l 0.44993, -0.147652l 0.44993, -0.147763l 0.44993, -0.147874l 0.44993, -0.147985l 0.44993, -0.148096l 0.44993, -0.148208l 0.44993, -0.148319l
 0.44993, -0.14843l 0.44993, -0.148541l 0.44993, -0.148652l 0.44993, -0.148763l 0.44993, -0.148875l 0.44993, -0.148986l 0.44993, -0.149097l 0.44993, -0.149208l 0.44993, -0.149319l 0.44993, -0.14943l 0.44993, -0.149542l 0.44993, -0.149653l 0.44993,
 -0.149764l 0.44993, -0.149875l 0.44993, -0.149986l 0.44993, -0.150097l 0.44993, -0.150209l 0.44993, -0.15032l 0.44993, -0.150431l 0.44993, -0.150542l 0.44993, -0.150653l 0.44993, -0.150764l 0.44993, -0.150876l 0.44993, -0.150987l 0.44993, -0.151098l
 0.44993, -0.151209l 0.44993, -0.15132l 0.44993, -0.151431l 0.44993, -0.151543l 0.44993, -0.151654l 0.44993, -0.151765l 0.44993, -0.151876l 0.44993, -0.151987l 0.44993, -0.152098l 0.44993, -0.15221l 0.44993, -0.152321l 0.44993, -0.152432l 0.44993,
 -0.152543" fill="none" stroke="#ff0066" stroke-width="3"/>
<path d="M186.938,357.225l 0.44993, -0.152654l 0.44993, -0.152765l 0.44993, -0.152877l 0.44993, -0.152988l 0.44993, -0.153099l 0.44993, -0.15321l 0.44993, -0.153321l 0.44993, -0.153432l 0.44993, -0.153544l 0.44993, -0.153655l 0.44993, -0.153766l
 0.44993, -0.153877l 0.44993, -0.153988l 0.44993, -0.154099l 0.44993, -0.154211l 0.44993, -0.154322l 0.44993, -0.154433l 0.44993, -0.154544l 0.44993, -0.154655l 0.44993, -0.154766l 0.44993, -0.154878l 0.44993, -0.154989l 0.44993, -0.1551l 0.44993,
 -0.155211l 0.44993, -0.155322l 0.44993, -0.155433l 0.44993, -0.155545l 0.44993, -0.155656l 0.44993, -0.155767l 0.44993, -0.155878l 0.44993, -0.155989l 0.44993, -0.1561l 0.44993, -0.156212l 0.44993, -0.156323l 0.44993, -0.156434l 0.44993, -0.156545l
 0.44993, -0.156656l 0.44993, -0.156767l 0.44993, -0.156879l 0.44993, -0.15699l 0.44993, -0.157101l 0.44993, -0.157212l 0.44993, -0.157323l 0.44993, -0.157434l 0.44993, -0.157546l 0.44993, -0.157657l 0.44993, -0.157768l 0.44993, -0.157879l 0.44993,
 -0.15799" fill="none" stroke="#ff0066" stroke-width="3"/>
<path d="M208.985,349.614l 0.44993, -0.158101l 0.44993, -0.158213l 0.44993, -0.158324l 0.44993, -0.158435l 0.44993, -0.158546l 0.44993, -0.158657l 0.44993, -0.158768l 0.44993, -0.15888l 0.44993, -0.158991l 0.44993, -0.159102l 0.44993, -0.159213l
 0.44993, -0.159324l 0.44993, -0.159435l 0.44993, -0.159547l 0.44993, -0.159658l 0.44993, -0.159769l 0.44993, -0.15988l 0.44993, -0.159991l 0.44993, -0.160102l 0.44993, -0.160214l 0.44993, -0.160325l 0.44993, -0.160436l 0.44993, -0.160547l 0.44993,
 -0.160658l 0.44993, -0.160769l 0.44993, -0.160881l 0.44993, -0.160992l 0.44993, -0.161103l 0.44993, -0.161214l 0.44993, -0.161325l 0.44993, -0.161436l 0.44993, -0.161548l 0.44993, -0.161659l 0.44993, -0.16177l 0.44993, -0.161881l 0.44993, -0.161992l
 0.44993, -0.162103l 0.44993, -0.162215l 0.44993, -0.162326l 0.44993, -0.162437l 0.44993, -0.162548l 0.44993, -0.162659l 0.44993, -0.16277l 0.44993, -0.162882l 0.44993, -0.162993l 0.44993, -0.163104l 0.44993, -0.163215l 0.44993, -0.163326l 0.44993,
 -0.163437" fill="none" stroke="#ff0066" stroke-width="3"/>
<path d="M231.031,341.736l 0.44993, -0.163549l 0.44993, -0.16366l 0.44993, -0.163771l 0.44993, -0.163882l 0.44993, -0.163993l 0.44993, -0.164104l 0.44993, -0.164216l 0.44993, -0.164327l 0.44993, -0.164438l 0.44993, -0.164549l 0.44993, -0.16466l
 0.44993, -0.164771l 0.44993, -0.164883l 0.44993, -0.164994l 0.44993, -0.165105l 0.44993, -0.165216l 0.44993, -0.165327l 0.44993, -0.165438l 0.44993, -0.16555l 0.44993, -0.165661l 0.44993, -0.165772l 0.44993, -0.165883l 0.44993, -0.165994l 0.44993,
 -0.166105l 0.44993, -0.166217l 0.44993, -0.166328l 0.44993, -0.166439l 0.44993, -0.16655l 0.44993, -0.166661l 0.44993, -0.166772l 0.44993, -0.166884l 0.44993, -0.166995l 0.44993, -0.167106l 0.44993, -0.167217l 0.44993, -0.167328l 0.44993, -0.167439l
 0.44993, -0.167551l 0.44993, -0.167662l 0.44993, -0.167773l 0.44993, -0.167884l 0.44993, -0.167995l 0.44993, -0.168106l 0.44993, -0.168218l 0.44993, -0.168329l 0.44993, -0.16844l 0.44993, -0.168551l 0.44993, -0.168662l 0.44993, -0.168773l 0.44993,
 -0.168885" fill="none" stroke="#ff0066" stroke-width="3"/>
<path d="M253.078,333.591l 0.44993, -0.168996l 0.44993, -0.169107l 0.44993, -0.169218l 0.44993, -0.169329l 0.44993, -0.16944l 0.44993, -0.169552l 0.44993, -0.169663l 0.44993, -0.169774l 0.44993, -0.169885l 0.44993, -0.169996l 0.44993, -0.170107l
 0.44993, -0.170219l 0.44993, -0.17033l 0.44993, -0.170441l 0.44993, -0.170552l 0.44993, -0.170663l 0.44993, -0.170774l 0.44993, -0.170886l 0.44993, -0.170997l 0.44993, -0.171108l 0.44993, -0.171219l 0.44993, -0.17133l 0.44993, -0.171441l 0.44993,
 -0.171553l 0.44993, -0.171664l 0.44993, -0.171775l 0.44993, -0.171886l 0.44993, -0.171997l 0.44993, -0.172108l 0.44993, -0.17222l 0.44993, -0.172331l 0.44993, -0.172442l 0.44993, -0.172553l 0.44993, -0.172664l 0.44993, -0.172775l 0.44993, -0.172887l
 0.44993, -0.172998l 0.44993, -0.173109l 0.44993, -0.17322l 0.44993, -0.173331l 0.44993, -0.173442l 0.44993, -0.173554l 0.44993, -0.173665l 0.44993, -0.173776l 0.44993, -0.173887l 0.44993, -0.173998l 0.44993, -0.174109l 0.44993, -0.174221l 0.44993,
 -0.174332" fill="none" stroke="#ff0066" stroke-width="3"/>
<path d="M275.124,325.18l 0.44993, -0.174443l 0.44993, -0.174554l 0.44993, -0.174665l 0.44993, -0.174776l 0.44993, -0.174888l 0.44993, -0.174999l 0.44993, -0.17511l 0.44993, -0.175221l 0.44993, -0.175332l 0.44993, -0.175443l 0.44993, -0.175555l
 0.44993, -0.175666l 0.44993, -0.175777l 0.44993, -0.175888l 0.44993, -0.175999l 0.44993, -0.17611l 0.44993, -0.176222l 0.44993, -0.176333l 0.44993, -0.176444l 0.44993, -0.176555l 0.44993, -0.176666l 0.44993, -0.176777l 0.44993, -0.176889l 0.44993,
 -0.177l 0.44993, -0.177111l 0.44993, -0.177222l 0.44993, -0.177333l 0.44993, -0.177444l 0.44993, -0.177556l 0.44993, -0.177667l 0.44993, -0.177778l 0.44993, -0.177889l 0.44993, -0.178l 0.44993, -0.178111l 0.44993, -0.178223l 0.44993, -0.178334l
 0.44993, -0.178445l 0.44993, -0.178556l 0.44993, -0.178667l 0.44993, -0.178778l 0.44993, -0.17889l 0.44993, -0.179001l 0.44993, -0.179112l 0.44993, -0.179223l 0.44993, -0.179334l 0.44993, -0.179445l 0.44993, -0.179557l 0.44993, -0.179668l 0.44993,
 -0.179779" fill="none" stroke="#ff0066" stroke-width="3"/>
<path d="M297.171,316.502l 0.44993, -0.17989l 0.44993, -0.180001l 0.44993, -0.180112l 0.44993, -0.180224l 0.44993, -0.180335l 0.44993, -0.180446l 0.44993, -0.180557l 0.44993, -0.180668l 0.44993, -0.180779l 0.44993, -0.180891l 0.44993, -0.181002l
 0.44993, -0.181113l 0.44993, -0.181224l 0.44993, -0.181335l 0.44993, -0.181446l 0.44993, -0.181558l 0.44993, -0.181669l 0.44993, -0.18178l 0.44993, -0.181891l 0.44993, -0.182002l 0.44993, -0.182113l 0.44993, -0.182225l 0.44993, -0.182336l 0.44993,
 -0.182447l 0.44993, -0.182558l 0.44993, -0.182669l 0.44993, -0.182781l 0.44993, -0.182892l 0.44993, -0.183003l 0.44993, -0.183114l 0.44993, -0.183225l 0.44993, -0.183336l 0.44993, -0.183447l 0.44993, -0.183559l 0.44993, -0.18367l 0.44993, -0.183781l
 0.44993, -0.183892l 0.44993, -0.184003l 0.44993, -0.184115l 0.44993, -0.184226l 0.44993, -0.184337l 0.44993, -0.184448l 0.44993, -0.184559l 0.44993, -0.18467l 0.44993, -0.184782l 0.44993, -0.184893l 0.44993, -0.185004l 0.44993, -0.185115l 0.44993,
 -0.185226" fill="none" stroke="#ff0066" stroke-width="3"/>
<path d="M319.217,307.556l 0.44993, -0.185337l 0.44993, -0.185449l 0.44993, -0.18556l 0.44993, -0.185671l 0.44993, -0.185782l 0.44993, -0.185893l 0.44993, -0.186004l 0.44993, -0.186116l 0.44993, -0.186227l 0.44993, -0.186338l 0.44993, -0.186449l
 0.44993, -0.18656l 0.44993, -0.186671l 0.44993, -0.186783l 0.44993, -0.186894l 0.44993, -0.187005l 0.44993, -0.187116l 0.44993, -0.187227l 0.44993, -0.187338l 0.44993, -0.18745l 0.44993, -0.187561l 0.44993, -0.187672l 0.44993, -0.187783l 0.44993,
 -0.187894l 0.44993, -0.188005l 0.44993, -0.188117l 0.44993, -0.188228l 0.44993, -0.188339l 0.44993, -0.18845l 0.44993, -0.188561l 0.44993, -0.188672l 0.44993, -0.188784l 0.44993, -0.188895l 0.44993, -0.189006l 0.44993, -0.189117l 0.44993, -0.189228l
 0.44993, -0.189339l 0.44993, -0.189451l 0.44993, -0.189562l 0.44993, -0.189673l 0.44993, -0.189784l 0.44993, -0.189895l 0.44993, -0.190006l 0.44993, -0.190118l 0.44993, -0.190229l 0.44993, -0.19034l 0.44993, -0.190451l 0.44993, -0.190562l 0.44993,
 -0.190673" fill="none" stroke="#ff0066" stroke-width="3"/>
<path d="M341.264,298.344l 0.44993, -0.190785l 0.44993, -0.190896l 0.44993, -0.191007l 0.44993, -0.191118l 0.44993, -0.191229l 0.44993, -0.19134l 0.44993, -0.191452l 0.44993, -0.191563l 0.44993, -0.191674l 0.44993, -0.191785l 0.44993, -0.191896l
 0.44993, -0.192007l 0.44993, -0.192119l 0.44993, -0.19223l 0.44993, -0.192341l 0.44993, -0.192452l 0.44993, -0.192563l 0.44993, -0.192674l 0.44993, -0.192786l 0.44993, -0.192897l 0.44993, -0.193008l 0.44993, -0.193119l 0.44993, -0.19323l 0.44993,
 -0.193341l 0.44993, -0.193453l 0.44993, -0.193564l 0.44993, -0.193675l 0.44993, -0.193786l 0.44993, -0.193897l 0.44993, -0.194008l 0.44993, -0.19412l 0.44993, -0.194231l 0.44993, -0.194342l 0.44993, -0.194453l 0.44993, -0.194564l 0.44993, -0.194675l
 0.44993, -0.194787l 0.44993, -0.194898l 0.44993, -0.195009l 0.44993, -0.19512l 0.44993, -0.195231l 0.44993, -0.195342l 0.44993, -0.195454l 0.44993, -0.195565l 0.44993, -0.195676l 0.44993, -0.195787l 0.44993, -0.195898l 0.44993, -0.196009l 0.44993,
 -0.196121" fill="none" stroke="#ff0066" stroke-width="3"/>
<path d="M363.311,288.865l 0.44993, -0.196232l 0.44993, -0.196343l 0.44993, -0.196454l 0.44993, -0.196565l 0.44993, -0.196676l 0.44993, -0.196788l 0.44993, -0.196899l 0.44993, -0.19701l 0.44993, -0.197121l 0.44993, -0.197232l 0.44993, -0.197343l
 0.44993, -0.197455l 0.44993, -0.197566l 0.44993, -0.197677l 0.44993, -0.197788l 0.44993, -0.197899l 0.44993, -0.19801l 0.44993, -0.198122l 0.44993, -0.198233l 0.44993, -0.198344l 0.44993, -0.198455l 0.44993, -0.198566l 0.44993, -0.198677l 0.44993,
 -0.198789l 0.44993, -0.1989l 0.44993, -0.199011l 0.44993, -0.199122l 0.44993, -0.199233l 0.44993, -0.199344l 0.44993, -0.199456l 0.44993, -0.199567l 0.44993, -0.199678l 0.44993, -0.199789l 0.44993, -0.1999l 0.44993, -0.200011l 0.44993, -0.200123l
 0.44993, -0.200234l 0.44993, -0.200345l 0.44993, -0.200456l 0.44993, -0.200567l 0.44993, -0.200678l 0.44993, -0.20079l 0.44993, -0.200901l 0.44993, -0.201012l 0.44993, -0.201123l 0.44993, -0.201234l 0.44993, -0.201345l 0.44993, -0.201457l 0.44993,
 -0.201568" fill="none" stroke="#ff0066" stroke-width="3"/>
<path d="M385.357,279.119l 0.44993, -0.201679l 0.44993, -0.20179l 0.44993, -0.201901l 0.44993, -0.202012l 0.44993, -0.202124l 0.44993, -0.202235l 0.44993, -0.202346l 0.44993, -0.202457l 0.44993, -0.202568l 0.44993, -0.202679l 0.44993, -0.202791l
 0.44993, -0.202902l 0.44993, -0.203013l 0.44993, -0.203124l 0.44993, -0.203235l 0.44993, -0.203346l 0.44993, -0.203458l 0.44993, -0.203569l 0.44993, -0.20368l 0.44993, -0.203791l 0.44993, -0.203902l 0.44993, -0.204013l 0.44993, -0.204125l 0.44993,
 -0.204236l 0.44993, -0.204347l 0.44993, -0.204458l 0.44993, -0.204569l 0.44993, -0.20468l 0.44993, -0.204792l 0.44993, -0.204903l 0.44993, -0.205014l 0.44993, -0.205125l 0.44993, -0.205236l 0.44993, -0.205347l 0.44993, -0.205459l 0.44993, -0.20557l
 0.44993, -0.205681l 0.44993, -0.205792l 0.44993, -0.205903l 0.44993, -0.206014l 0.44993, -0.206126l 0.44993, -0.206237l 0.44993, -0.206348l 0.44993, -0.206459l 0.44993, -0.20657l 0.44993, -0.206681l 0.44993, -0.206793l 0.44993, -0.206904l 0.44993,
 -0.207015" fill="none" stroke="#ff0066" stroke-width="3"/>
<path d="M407.404,269.106l 0.44993, -0.207126l 0.44993, -0.207237l 0.44993, -0.207348l 0.44993, -0.20746l 0.44993, -0.207571l 0.44993, -0.207682l 0.44993, -0.207793l 0.44993, -0.207904l 0.44993, -0.208015l 0.44993, -0.208127l 0.44993, -0.208238l
 0.44993, -0.208349l 0.44993, -0.20846l 0.44993, -0.208571l 0.44993, -0.208682l 0.44993, -0.208794l 0.44993, -0.208905l 0.44993, -0.209016l 0.44993, -0.209127l 0.44993, -0.209238l 0.44993, -0.209349l 0.44993, -0.209461l 0.44993, -0.209572l 0.44993,
 -0.209683l 0.44993, -0.209794l 0.44993, -0.209905l 0.44993, -0.210016l 0.44993, -0.210128l 0.44993, -0.210239l 0.44993, -0.21035l 0.44993, -0.210461l 0.44993, -0.210572l 0.44993, -0.210683l 0.44993, -0.210795l 0.44993, -0.210906l 0.44993, -0.211017l
 0.44993, -0.211128l 0.44993, -0.211239l 0.44993, -0.21135l 0.44993, -0.211462l 0.44993, -0.211573l 0.44993, -0.211684l 0.44993, -0.211795l 0.44993, -0.211906l 0.44993, -0.212017l 0.44993, -0.212129l 0.44993, -0.21224l 0.44993, -0.212351l 0.44993,
 -0.212462" fill="none" stroke="#ff0066" stroke-width="3"/>
<path d="M429.45,258.826l 0.44993, -0.212573l 0.44993, -0.212684l 0.44993, -0.212796l 0.44993, -0.212907l 0.44993, -0.213018l 0.44993, -0.213129l 0.44993, -0.21324l 0.44993, -0.213351l 0.44993, -0.213463l 0.44993, -0.213574l 0.44993, -0.213685l
 0.44993, -0.213796l 0.44993, -0.213907l 0.44993, -0.214018l 0.44993, -0.21413l 0.44993, -0.214241l 0.44993, -0.214352l 0.44993, -0.214463l 0.44993, -0.214574l 0.44993, -0.214685l 0.44993, -0.214797l 0.44993, -0.214908l 0.44993, -0.215019l 0.44993,
 -0.21513l 0.44993, -0.215241l 0.44993, -0.215352l 0.44993, -0.215464l 0.44993, -0.215575l 0.44993, -0.215686l 0.44993, -0.215797l 0.44993, -0.215908l 0.44993, -0.216019l 0.44993, -0.216131l 0.44993, -0.216242l 0.44993, -0.216353l 0.44993, -0.216464l
 0.44993, -0.216575l 0.44993, -0.216686l 0.44993, -0.216798l 0.44993, -0.216909l 0.44993, -0.21702l 0.44993, -0.217131l 0.44993, -0.217242l 0.44993, -0.217353l 0.44993, -0.217465l 0.44993, -0.217576l 0.44993, -0.217687l 0.44993, -0.217798l 0.44993,
 -0.217909" fill="none" stroke="#ff0066" stroke-width="3"/>
<path d="M451.497,248.279l 0.44993, -0.21802l 0.44993, -0.218132l 0.44993, -0.218243l 0.44993, -0.218354l 0.44993, -0.218465l 0.44993, -0.218576l 0.44993, -0.218687l 0.44993, -0.218799l 0.44993, -0.21891l 0.44993, -0.219021l 0.44993, -0.219132l
 0.44993, -0.219243l 0.44993, -0.219354l 0.44993, -0.219466l 0.44993, -0.219577l 0.44993, -0.219688l 0.44993, -0.219799l 0.44993, -0.21991l 0.44993, -0.220021l 0.44993, -0.220133l 0.44993, -0.220244l 0.44993, -0.220355l 0.44993, -0.220466l 0.44993,
 -0.220577l 0.44993, -0.220688l 0.44993, -0.2208l 0.44993, -0.220911l 0.44993, -0.221022l 0.44993, -0.221133l 0.44993, -0.221244l 0.44993, -0.221355l 0.44993, -0.221467l 0.44993, -0.221578l 0.44993, -0.221689l 0.44993, -0.2218l 0.44993, -0.221911l
 0.44993, -0.222022l 0.44993, -0.222134l 0.44993, -0.222245l 0.44993, -0.222356l 0.44993, -0.222467l 0.44993, -0.222578l 0.44993, -0.222689l 0.44993, -0.222801l 0.44993, -0.222912l 0.44993, -0.223023l 0.44993, -0.223134l 0.44993, -0.223245l 0.44993,
 -0.223356" fill="none" stroke="#ff0066" stroke-width="3"/>
<path d="M473.543,237.465l 0.44993, -0.223468l 0.44993, -0.223579l 0.44993, -0.22369l 0.44993, -0.223801l 0.44993, -0.223912l 0.44993, -0.224023l 0.44993, -0.224135l 0.44993, -0.224246l 0.44993, -0.224357l 0.44993, -0.224468l 0.44993, -0.224579l
 0.44993, -0.22469l 0.44993, -0.224802l 0.44993, -0.224913l 0.44993, -0.225024l 0.44993, -0.225135l 0.44993, -0.225246l 0.44993, -0.225357l 0.44993, -0.225469l 0.44993, -0.22558l 0.44993, -0.225691l 0.44993, -0.225802l 0.44993, -0.225913l 0.44993,
 -0.226024l 0.44993, -0.226136l 0.44993, -0.226247l 0.44993, -0.226358l 0.44993, -0.226469l 0.44993, -0.22658l 0.44993, -0.226691l 0.44993, -0.226803l 0.44993, -0.226914l 0.44993, -0.227025l 0.44993, -0.227136l 0.44993, -0.227247l 0.44993, -0.227358l
 0.44993, -0.22747l 0.44993, -0.227581l 0.44993, -0.227692l 0.44993, -0.227803l 0.44993, -0.227914l 0.44993, -0.228025l 0.44993, -0.228137l 0.44993, -0.228248l 0.44993, -0.228359l 0.44993, -0.22847l 0.44993, -0.228581l 0.44993, -0.228692l 0.44993,
 -0.228804" fill="none" stroke="#ff0066" stroke-width="3"/>
<path d="M495.59,226.385l 0.44993, -0.228915l 0.44993, -0.229026l 0.44993, -0.229137l 0.44993, -0.229248l 0.44993, -0.229359l 0.44993, -0.229471l 0.44993, -0.229582l 0.44993, -0.229693l 0.44993, -0.229804l 0.44993, -0.229915l 0.44993, -0.230026l
 0.44993, -0.230138l 0.44993, -0.230249l 0.44993, -0.23036l 0.44993, -0.230471l 0.44993, -0.230582l 0.44993, -0.230693l 0.44993, -0.230805l 0.44993, -0.230916l 0.44993, -0.231027l 0.44993, -0.231138l 0.44993, -0.231249l 0.44993, -0.23136l 0.44993,
 -0.231472l 0.44993, -0.231583l 0.44993, -0.231694l 0.44993, -0.231805l 0.44993, -0.231916l 0.44993, -0.232027l 0.44993, -0.232139l 0.44993, -0.23225l 0.44993, -0.232361l 0.44993, -0.232472l 0.44993, -0.232583l 0.44993, -0.232694l 0.44993, -0.232806l
 0.44993, -0.232917l 0.44993, -0.233028l 0.44993, -0.233139l 0.44993, -0.23325l 0.44993, -0.233361l 0.44993, -0.233473l 0.44993, -0.233584l 0.44993, -0.233695l 0.44993, -0.233806l 0.44993, -0.233917l 0.44993, -0.234028l 0.44993, -0.23414l 0.44993,
 -0.234251" fill="none" stroke="#ff0066" stroke-width="3"/>
<path d="M517.636,215.037l 0.44993, -0.234362l 0.44993, -0.234473l 0.44993, -0.234584l 0.44993, -0.234695l 0.44993, -0.234807l 0.44993, -0.234918l 0.44993, -0.235029l 0.44993, -0.23514l 0.44993, -0.235251l 0.44993, -0.235362l 0.44993, -0.235474l
 0.44993, -0.235585l 0.44993, -0.235696l 0.44993, -0.235807l 0.44993, -0.235918l 0.44993, -0.236029l 0.44993, -0.236141l 0.44993, -0.236252l 0.44993, -0.236363l 0.44993, -0.236474l 0.44993, -0.236585l 0.44993, -0.236696l 0.44993, -0.236808l 0.44993,
 -0.236919l 0.44993, -0.23703l 0.44993, -0.237141l 0.44993, -0.237252l 0.44993, -0.237364l 0.44993, -0.237475l 0.44993, -0.237586l 0.44993, -0.237697l 0.44993, -0.237808l 0.44993, -0.237919l 0.44993, -0.238031l 0.44993, -0.238142l 0.44993, -0.238253l
 0.44993, -0.238364l 0.44993, -0.238475l 0.44993, -0.238586l 0.44993, -0.238697l 0.44993, -0.238809l 0.44993, -0.23892l 0.44993, -0.239031l 0.44993, -0.239142l 0.44993, -0.239253l 0.44993, -0.239365l 0.44993, -0.239476l 0.44993, -0.239587l 0.44993,
 -0.239698" fill="none" stroke="#ff0066" stroke-width="3"/>
<path d="M539.683,203.423l 0.44993, -0.239809l 0.44993, -0.23992l 0.44993, -0.240032l 0.44993, -0.240143l 0.44993, -0.240254l 0.44993, -0.240365l 0.44993, -0.240476l 0.44993, -0.240587l 0.44993, -0.240699l 0.44993, -0.24081l 0.44993, -0.240921l
 0.44993, -0.241032l 0.44993, -0.241143l 0.44993, -0.241254l 0.44993, -0.241366l 0.44993, -0.241477l 0.44993, -0.241588l 0.44993, -0.241699l 0.44993, -0.24181" fill="none" stroke="#ff0066" stroke-width="3"/>
<path d="M248.503,21.4167h 239.963" fill="none" stroke="#999999" stroke-width="7"/>
<text xml:space="preserve" x="360.607" y="50.7193" fill="black" font-size="16.0105" font-family="Helvetica"> with EMC</text>
<text xml:space="preserve" x="352.717" y="50.7193" fill="black" font-size="16.0105" font-family="Times">&#0947;</text>
<text xml:space="preserve" x="344.828" y="50.7193" fill="black" font-size="16.0105" font-family="Times">&#0947;</text>
<text xml:space="preserve" x="336.938" y="50.7193" fill="black" font-size="16.0105" font-family="Times">&#0947;</text>
<text xml:space="preserve" x="331.866" y="50.7193" fill="black" font-size="16.0105" font-family="Helvetica"> </text>
<text xml:space="preserve" x="316.65" y="50.7193" fill="black" font-size="16.0105" font-family="Times">&#8594;</text>
<text xml:space="preserve" x="311.578" y="50.7193" fill="black" font-size="16.0105" font-family="Helvetica"> </text>
<text xml:space="preserve" x="303.689" y="50.7193" fill="black" font-size="16.0105" font-family="Times">&#0947;</text>
<text xml:space="preserve" x="298.053" y="45.0838" fill="black" font-size="10.8403" font-family="Helvetica">0</text>
<text xml:space="preserve" x="289.6" y="50.7193" fill="black" font-size="16.0105" font-family="Times">&#0960;</text>
<text xml:space="preserve" x="284.528" y="50.7193" fill="black" font-size="16.0105" font-family="Helvetica"> </text>
<text xml:space="preserve" x="269.312" y="50.7193" fill="black" font-size="16.0105" font-family="Times">&#8594;</text>
<text xml:space="preserve" x="264.24" y="50.7193" fill="black" font-size="16.0105" font-family="Helvetica"> </text>
<text xml:space="preserve" x="252.969" y="50.7193" fill="black" font-size="16.0105" font-family="Times">&#0969;</text>
<text xml:space="preserve" x="128.989" y="50.7193" fill="black" font-size="16.0105" font-family="Helvetica"> = 13 TeV (EG1), </text>
<text xml:space="preserve" x="120.536" y="50.7193" fill="black" font-size="16.0105" font-family="Helvetica" font-style="oblique">s</text>
<path d="M114.9,41.7025l 1.69064, 9.58031" fill="none" stroke="black" stroke-width="2"/>
<path d="M116.591,51.2829l 2.25419, -14.0887" fill="none" stroke="black"/>
<path d="M118.845,37.1942h 10.1439" fill="none" stroke="black"/>
<text xml:space="preserve" x="89.5406" y="50.7193" fill="black" font-size="16.0105" font-family="Helvetica">pp </text>
<text xml:space="preserve" x="89.5406" y="85.6593" fill="black" font-size="16.0105" font-family="Helvetica">ALICE work in progress</text>
<text xml:space="preserve" x="214.085" y="120.599" fill="black" font-size="16.0105" font-family="Helvetica">) &lt; 14.0</text>
<text xml:space="preserve" x="205.068" y="120.599" fill="black" font-size="16.0105" font-family="Helvetica" font-style="oblique">c</text>
<text xml:space="preserve" x="154.912" y="120.599" fill="black" font-size="16.0105" font-family="Helvetica"> /(GeV/</text>
<text xml:space="preserve" x="148.15" y="128.489" fill="black" font-size="10.8403" font-family="Helvetica">T</text>
<text xml:space="preserve" x="138.569" y="120.599" fill="black" font-size="16.0105" font-family="Helvetica" font-style="oblique">p</text>
<text xml:space="preserve" x="133.497" y="120.599" fill="black" font-size="16.0105" font-family="Helvetica"> </text>
<text xml:space="preserve" x="125.044" y="120.599" fill="black" font-size="16.0105" font-family="Times">&#8804;</text>
<text xml:space="preserve" x="89.5406" y="120.599" fill="black" font-size="16.0105" font-family="Helvetica">12.0 </text>
<rect x="312.311" y="69.1755" width="198.425" height="113.448" fill="white"/>
<text xml:space="preserve" x="361.734" y="85.0957" fill="black" font-size="16.0105" font-family="Helvetica">ratio</text>
<path d="M319.752,80.5203h 34.7244" fill="none" stroke="black" stroke-width="2"/>
<g fill="black">
<circle cx="337.114" cy="80.5203" r="6.76257"/>
</g>
<text xml:space="preserve" x="361.734" y="108.201" fill="black" font-size="16.0105" font-family="Helvetica">peak range</text>
<path d="M319.752,103.21h 34.7244" fill="none" stroke="#333333" stroke-width="2"/>
<g stroke="#333333" stroke-width="2" fill="none">
<circle cx="337.114" cy="103.21" r="5.63548"/>
</g>
<text xml:space="preserve" x="361.734" y="130.743" fill="black" font-size="16.0105" font-family="Helvetica">background pol1</text>
<path d="M319.752,125.899h 34.7244" fill="none" stroke="#33cccc" stroke-width="3"/>
<text xml:space="preserve" x="361.734" y="153.285" fill="black" font-size="16.0105" font-family="Helvetica">background pol2</text>
<path d="M319.752,148.589h 34.7244" fill="none" stroke="#ff0066" stroke-width="3"/>
<text xml:space="preserve" x="361.734" y="175.827" fill="black" font-size="16.0105" font-family="Helvetica">param. range</text>
<path d="M319.752,171.279h 34.7244" fill="none" stroke="#999999" stroke-width="7"/></svg>
