<?xml version="1.0" standalone="no"?>
<svg width="567.429" height="553.904" viewBox="0 0 567.429 553.904" xmlns="http://www.w3.org/2000/svg" shape-rendering="crispEdges">
<title>
MC/EG1/OmegaRotWOPS/SameEventToBackgroundRatio_04.svg
</title>
<desc>
Creator: ROOT Version 6.20/08
CreationDate: Mon Mar 29 21:31:15 2021</desc>
<defs>
</defs>
<rect x="0.5" y="0" width="566.929" height="553.404" fill="white"/>
<rect x="68.5315" y="16.6021" width="484.724" height="481.461" fill="white"/>
<rect x="68.5315" y="16.6021" width="484.724" height="481.461" fill="none" stroke="black"/>
<rect x="68.5315" y="16.6021" width="484.724" height="481.461" fill="white"/>
<rect x="68.5315" y="16.6021" width="484.724" height="481.461" fill="none" stroke="black"/>
<g fill="black">
<circle cx="109.325" cy="495.9" r="6.76257"/>
</g>
<g fill="black">
<circle cx="114.124" cy="376.602" r="6.76257"/>
</g>
<g fill="black">
<circle cx="118.924" cy="274.126" r="6.76257"/>
</g>
<g fill="black">
<circle cx="123.723" cy="457.336" r="6.76257"/>
</g>
<g fill="black">
<circle cx="128.522" cy="418.382" r="6.76257"/>
</g>
<g fill="black">
<circle cx="133.321" cy="268" r="6.76257"/>
</g>
<g fill="black">
<circle cx="138.121" cy="280.704" r="6.76257"/>
</g>
<g fill="black">
<circle cx="142.92" cy="288.481" r="6.76257"/>
</g>
<g fill="black">
<circle cx="147.719" cy="296.865" r="6.76257"/>
</g>
<g fill="black">
<circle cx="152.518" cy="302.073" r="6.76257"/>
</g>
<g fill="black">
<circle cx="157.318" cy="307.893" r="6.76257"/>
</g>
<g fill="black">
<circle cx="162.117" cy="310.628" r="6.76257"/>
</g>
<g fill="black">
<circle cx="166.916" cy="312.907" r="6.76257"/>
</g>
<g fill="black">
<circle cx="171.715" cy="316.169" r="6.76257"/>
</g>
<g fill="black">
<circle cx="176.515" cy="316.33" r="6.76257"/>
</g>
<g fill="black">
<circle cx="181.314" cy="318.01" r="6.76257"/>
</g>
<g fill="black">
<circle cx="186.113" cy="318.631" r="6.76257"/>
</g>
<g fill="black">
<circle cx="190.912" cy="319.704" r="6.76257"/>
</g>
<g fill="black">
<circle cx="195.712" cy="318.173" r="6.76257"/>
</g>
<g fill="black">
<circle cx="200.511" cy="318.134" r="6.76257"/>
</g>
<g fill="black">
<circle cx="205.31" cy="318.796" r="6.76257"/>
</g>
<g fill="black">
<circle cx="210.109" cy="317.577" r="6.76257"/>
</g>
<g fill="black">
<circle cx="214.909" cy="316.806" r="6.76257"/>
</g>
<g fill="black">
<circle cx="219.708" cy="315.38" r="6.76257"/>
</g>
<g fill="black">
<circle cx="224.507" cy="315.256" r="6.76257"/>
</g>
<g fill="black">
<circle cx="229.306" cy="315.058" r="6.76257"/>
</g>
<g fill="black">
<circle cx="234.106" cy="313.24" r="6.76257"/>
</g>
<g fill="black">
<circle cx="238.905" cy="310.919" r="6.76257"/>
</g>
<g fill="black">
<circle cx="243.704" cy="308.611" r="6.76257"/>
</g>
<g fill="black">
<circle cx="248.503" cy="307.095" r="6.76257"/>
</g>
<g fill="black">
<circle cx="253.303" cy="305.593" r="6.76257"/>
</g>
<g fill="black">
<circle cx="258.102" cy="303.746" r="6.76257"/>
</g>
<g fill="black">
<circle cx="262.901" cy="302.043" r="6.76257"/>
</g>
<g fill="black">
<circle cx="267.7" cy="299.529" r="6.76257"/>
</g>
<g fill="black">
<circle cx="272.5" cy="297.83" r="6.76257"/>
</g>
<g fill="black">
<circle cx="277.299" cy="296.183" r="6.76257"/>
</g>
<g fill="black">
<circle cx="339.689" cy="269.583" r="6.76257"/>
</g>
<g fill="black">
<circle cx="344.488" cy="267.59" r="6.76257"/>
</g>
<g fill="black">
<circle cx="349.288" cy="264.613" r="6.76257"/>
</g>
<g fill="black">
<circle cx="354.087" cy="264.802" r="6.76257"/>
</g>
<g fill="black">
<circle cx="358.886" cy="260.556" r="6.76257"/>
</g>
<g fill="black">
<circle cx="363.685" cy="263.221" r="6.76257"/>
</g>
<g fill="black">
<circle cx="368.485" cy="259.352" r="6.76257"/>
</g>
<g fill="black">
<circle cx="373.284" cy="258.464" r="6.76257"/>
</g>
<g fill="black">
<circle cx="378.083" cy="255.759" r="6.76257"/>
</g>
<g fill="black">
<circle cx="382.882" cy="254.759" r="6.76257"/>
</g>
<g fill="black">
<circle cx="387.682" cy="250.065" r="6.76257"/>
</g>
<g fill="black">
<circle cx="392.481" cy="249.495" r="6.76257"/>
</g>
<g fill="black">
<circle cx="397.28" cy="250.367" r="6.76257"/>
</g>
<g fill="black">
<circle cx="402.079" cy="248.953" r="6.76257"/>
</g>
<g fill="black">
<circle cx="406.879" cy="244.529" r="6.76257"/>
</g>
<g fill="black">
<circle cx="411.678" cy="242.547" r="6.76257"/>
</g>
<g fill="black">
<circle cx="416.477" cy="243.623" r="6.76257"/>
</g>
<g fill="black">
<circle cx="421.276" cy="240.261" r="6.76257"/>
</g>
<g fill="black">
<circle cx="426.076" cy="237.656" r="6.76257"/>
</g>
<g fill="black">
<circle cx="430.875" cy="238.525" r="6.76257"/>
</g>
<g fill="black">
<circle cx="435.674" cy="235.997" r="6.76257"/>
</g>
<g fill="black">
<circle cx="440.473" cy="232.033" r="6.76257"/>
</g>
<g fill="black">
<circle cx="445.273" cy="227.71" r="6.76257"/>
</g>
<g fill="black">
<circle cx="450.072" cy="230.003" r="6.76257"/>
</g>
<g fill="black">
<circle cx="454.871" cy="234.397" r="6.76257"/>
</g>
<g fill="black">
<circle cx="459.671" cy="226.957" r="6.76257"/>
</g>
<g fill="black">
<circle cx="464.47" cy="224.584" r="6.76257"/>
</g>
<g fill="black">
<circle cx="469.269" cy="225.729" r="6.76257"/>
</g>
<g fill="black">
<circle cx="474.068" cy="224.843" r="6.76257"/>
</g>
<g fill="black">
<circle cx="478.867" cy="221.34" r="6.76257"/>
</g>
<g fill="black">
<circle cx="483.667" cy="221.432" r="6.76257"/>
</g>
<g fill="black">
<circle cx="488.466" cy="219.128" r="6.76257"/>
</g>
<g fill="black">
<circle cx="493.265" cy="213.824" r="6.76257"/>
</g>
<g fill="black">
<circle cx="498.065" cy="215.296" r="6.76257"/>
</g>
<g fill="black">
<circle cx="502.864" cy="212.806" r="6.76257"/>
</g>
<g fill="black">
<circle cx="507.663" cy="210.813" r="6.76257"/>
</g>
<g fill="black">
<circle cx="512.462" cy="209.331" r="6.76257"/>
</g>
<g fill="black">
<circle cx="517.262" cy="206.972" r="6.76257"/>
</g>
<g fill="black">
<circle cx="522.061" cy="206.385" r="6.76257"/>
</g>
<g fill="black">
<circle cx="526.86" cy="203.119" r="6.76257"/>
</g>
<g fill="black">
<circle cx="531.659" cy="202.353" r="6.76257"/>
</g>
<g fill="black">
<circle cx="536.458" cy="205.791" r="6.76257"/>
</g>
<g fill="black">
<circle cx="541.258" cy="198.256" r="6.76257"/>
</g>
<g fill="black">
<circle cx="546.057" cy="197.15" r="6.76257"/>
</g>
<path d="M68.5315,498.064h 484.724" fill="none" stroke="black"/>
<path d="M68.5315,483.869v 14.1948" fill="none" stroke="black"/>
<path d="M83.5292,490.966v 7.09741" fill="none" stroke="black"/>
<path d="M98.5268,490.966v 7.09741" fill="none" stroke="black"/>
<path d="M113.524,490.966v 7.09741" fill="none" stroke="black"/>
<path d="M128.522,483.869v 14.1948" fill="none" stroke="black"/>
<path d="M143.52,490.966v 7.09741" fill="none" stroke="black"/>
<path d="M158.517,490.966v 7.09741" fill="none" stroke="black"/>
<path d="M173.515,490.966v 7.09741" fill="none" stroke="black"/>
<path d="M188.513,483.869v 14.1948" fill="none" stroke="black"/>
<path d="M203.51,490.966v 7.09741" fill="none" stroke="black"/>
<path d="M218.508,490.966v 7.09741" fill="none" stroke="black"/>
<path d="M233.506,490.966v 7.09741" fill="none" stroke="black"/>
<path d="M248.503,483.869v 14.1948" fill="none" stroke="black"/>
<path d="M263.501,490.966v 7.09741" fill="none" stroke="black"/>
<path d="M278.499,490.966v 7.09741" fill="none" stroke="black"/>
<path d="M293.496,490.966v 7.09741" fill="none" stroke="black"/>
<path d="M308.494,483.869v 14.1948" fill="none" stroke="black"/>
<path d="M323.492,490.966v 7.09741" fill="none" stroke="black"/>
<path d="M338.489,490.966v 7.09741" fill="none" stroke="black"/>
<path d="M353.487,490.966v 7.09741" fill="none" stroke="black"/>
<path d="M368.485,483.869v 14.1948" fill="none" stroke="black"/>
<path d="M383.482,490.966v 7.09741" fill="none" stroke="black"/>
<path d="M398.48,490.966v 7.09741" fill="none" stroke="black"/>
<path d="M413.478,490.966v 7.09741" fill="none" stroke="black"/>
<path d="M428.475,483.869v 14.1948" fill="none" stroke="black"/>
<path d="M443.473,490.966v 7.09741" fill="none" stroke="black"/>
<path d="M458.471,490.966v 7.09741" fill="none" stroke="black"/>
<path d="M473.468,490.966v 7.09741" fill="none" stroke="black"/>
<path d="M488.466,483.869v 14.1948" fill="none" stroke="black"/>
<path d="M503.464,490.966v 7.09741" fill="none" stroke="black"/>
<path d="M518.461,490.966v 7.09741" fill="none" stroke="black"/>
<path d="M533.459,490.966v 7.09741" fill="none" stroke="black"/>
<path d="M548.457,483.869v 14.1948" fill="none" stroke="black"/>
<path d="M548.457,483.869v 14.1948" fill="none" stroke="black"/>
<text xml:space="preserve" x="63.6174" y="513.956" fill="black" font-size="16.0105" font-family="Helvetica">0</text>
<text xml:space="preserve" x="117.718" y="513.956" fill="black" font-size="16.0105" font-family="Helvetica">0.2</text>
<text xml:space="preserve" x="177.454" y="513.956" fill="black" font-size="16.0105" font-family="Helvetica">0.4</text>
<text xml:space="preserve" x="237.754" y="513.956" fill="black" font-size="16.0105" font-family="Helvetica">0.6</text>
<text xml:space="preserve" x="297.49" y="513.956" fill="black" font-size="16.0105" font-family="Helvetica">0.8</text>
<text xml:space="preserve" x="365.115" y="513.956" fill="black" font-size="16.0105" font-family="Helvetica">1</text>
<text xml:space="preserve" x="417.525" y="513.956" fill="black" font-size="16.0105" font-family="Helvetica">1.2</text>
<text xml:space="preserve" x="477.261" y="513.956" fill="black" font-size="16.0105" font-family="Helvetica">1.4</text>
<text xml:space="preserve" x="537.561" y="513.956" fill="black" font-size="16.0105" font-family="Helvetica">1.6</text>
<text xml:space="preserve" x="548.268" y="537.625" fill="black" font-size="16.0105" font-family="Helvetica">)</text>
<text xml:space="preserve" x="542.633" y="532.553" fill="black" font-size="10.8403" font-family="Helvetica">2</text>
<text xml:space="preserve" x="533.616" y="537.625" fill="black" font-size="16.0105" font-family="Helvetica" font-style="oblique">c</text>
<text xml:space="preserve" x="487.405" y="537.625" fill="black" font-size="16.0105" font-family="Helvetica"> (GeV/</text>
<text xml:space="preserve" x="473.317" y="542.697" fill="black" font-size="10.8403" font-family="Helvetica">inv</text>
<text xml:space="preserve" x="459.792" y="537.625" fill="black" font-size="16.0105" font-family="Helvetica" font-style="oblique">m</text>
<path d="M68.5315,16.6021h 484.724" fill="none" stroke="black"/>
<path d="M68.5315,30.7969v -14.1948" fill="none" stroke="black"/>
<path d="M83.5292,23.6995v -7.09741" fill="none" stroke="black"/>
<path d="M98.5268,23.6995v -7.09741" fill="none" stroke="black"/>
<path d="M113.524,23.6995v -7.09741" fill="none" stroke="black"/>
<path d="M128.522,30.7969v -14.1948" fill="none" stroke="black"/>
<path d="M143.52,23.6995v -7.09741" fill="none" stroke="black"/>
<path d="M158.517,23.6995v -7.09741" fill="none" stroke="black"/>
<path d="M173.515,23.6995v -7.09741" fill="none" stroke="black"/>
<path d="M188.513,30.7969v -14.1948" fill="none" stroke="black"/>
<path d="M203.51,23.6995v -7.09741" fill="none" stroke="black"/>
<path d="M218.508,23.6995v -7.09741" fill="none" stroke="black"/>
<path d="M233.506,23.6995v -7.09741" fill="none" stroke="black"/>
<path d="M248.503,30.7969v -14.1948" fill="none" stroke="black"/>
<path d="M263.501,23.6995v -7.09741" fill="none" stroke="black"/>
<path d="M278.499,23.6995v -7.09741" fill="none" stroke="black"/>
<path d="M293.496,23.6995v -7.09741" fill="none" stroke="black"/>
<path d="M308.494,30.7969v -14.1948" fill="none" stroke="black"/>
<path d="M323.492,23.6995v -7.09741" fill="none" stroke="black"/>
<path d="M338.489,23.6995v -7.09741" fill="none" stroke="black"/>
<path d="M353.487,23.6995v -7.09741" fill="none" stroke="black"/>
<path d="M368.485,30.7969v -14.1948" fill="none" stroke="black"/>
<path d="M383.482,23.6995v -7.09741" fill="none" stroke="black"/>
<path d="M398.48,23.6995v -7.09741" fill="none" stroke="black"/>
<path d="M413.478,23.6995v -7.09741" fill="none" stroke="black"/>
<path d="M428.475,30.7969v -14.1948" fill="none" stroke="black"/>
<path d="M443.473,23.6995v -7.09741" fill="none" stroke="black"/>
<path d="M458.471,23.6995v -7.09741" fill="none" stroke="black"/>
<path d="M473.468,23.6995v -7.09741" fill="none" stroke="black"/>
<path d="M488.466,30.7969v -14.1948" fill="none" stroke="black"/>
<path d="M503.464,23.6995v -7.09741" fill="none" stroke="black"/>
<path d="M518.461,23.6995v -7.09741" fill="none" stroke="black"/>
<path d="M533.459,23.6995v -7.09741" fill="none" stroke="black"/>
<path d="M548.457,30.7969v -14.1948" fill="none" stroke="black"/>
<path d="M548.457,30.7969v -14.1948" fill="none" stroke="black"/>
<path d="M68.5315,498.064v -481.461" fill="none" stroke="black"/>
<path d="M83.3283,498.064h -14.7969" fill="none" stroke="black"/>
<path d="M75.9299,485.222h -7.39843" fill="none" stroke="black"/>
<path d="M75.9299,472.381h -7.39843" fill="none" stroke="black"/>
<path d="M75.9299,459.54h -7.39843" fill="none" stroke="black"/>
<path d="M75.9299,446.699h -7.39843" fill="none" stroke="black"/>
<path d="M83.3283,433.858h -14.7969" fill="none" stroke="black"/>
<path d="M75.9299,421.017h -7.39843" fill="none" stroke="black"/>
<path d="M75.9299,408.176h -7.39843" fill="none" stroke="black"/>
<path d="M75.9299,395.334h -7.39843" fill="none" stroke="black"/>
<path d="M75.9299,382.493h -7.39843" fill="none" stroke="black"/>
<path d="M83.3283,369.652h -14.7969" fill="none" stroke="black"/>
<path d="M75.9299,356.811h -7.39843" fill="none" stroke="black"/>
<path d="M75.9299,343.97h -7.39843" fill="none" stroke="black"/>
<path d="M75.9299,331.129h -7.39843" fill="none" stroke="black"/>
<path d="M75.9299,318.288h -7.39843" fill="none" stroke="black"/>
<path d="M83.3283,305.446h -14.7969" fill="none" stroke="black"/>
<path d="M75.9299,292.605h -7.39843" fill="none" stroke="black"/>
<path d="M75.9299,279.764h -7.39843" fill="none" stroke="black"/>
<path d="M75.9299,266.923h -7.39843" fill="none" stroke="black"/>
<path d="M75.9299,254.082h -7.39843" fill="none" stroke="black"/>
<path d="M83.3283,241.241h -14.7969" fill="none" stroke="black"/>
<path d="M75.9299,228.4h -7.39843" fill="none" stroke="black"/>
<path d="M75.9299,215.558h -7.39843" fill="none" stroke="black"/>
<path d="M75.9299,202.717h -7.39843" fill="none" stroke="black"/>
<path d="M75.9299,189.876h -7.39843" fill="none" stroke="black"/>
<path d="M83.3283,177.035h -14.7969" fill="none" stroke="black"/>
<path d="M75.9299,164.194h -7.39843" fill="none" stroke="black"/>
<path d="M75.9299,151.353h -7.39843" fill="none" stroke="black"/>
<path d="M75.9299,138.512h -7.39843" fill="none" stroke="black"/>
<path d="M75.9299,125.67h -7.39843" fill="none" stroke="black"/>
<path d="M83.3283,112.829h -14.7969" fill="none" stroke="black"/>
<path d="M75.9299,99.9881h -7.39843" fill="none" stroke="black"/>
<path d="M75.9299,87.1469h -7.39843" fill="none" stroke="black"/>
<path d="M75.9299,74.3058h -7.39843" fill="none" stroke="black"/>
<path d="M75.9299,61.4646h -7.39843" fill="none" stroke="black"/>
<path d="M83.3283,48.6235h -14.7969" fill="none" stroke="black"/>
<path d="M83.3283,48.6235h -14.7969" fill="none" stroke="black"/>
<path d="M75.9299,35.7823h -7.39843" fill="none" stroke="black"/>
<path d="M75.9299,22.9412h -7.39843" fill="none" stroke="black"/>
<text xml:space="preserve" x="56.8548" y="503.248" fill="black" font-size="16.0105" font-family="Helvetica">0</text>
<text xml:space="preserve" x="34.8764" y="439.004" fill="black" font-size="16.0105" font-family="Helvetica">0.05</text>
<text xml:space="preserve" x="46.1474" y="374.759" fill="black" font-size="16.0105" font-family="Helvetica">0.1</text>
<text xml:space="preserve" x="34.8764" y="311.078" fill="black" font-size="16.0105" font-family="Helvetica">0.15</text>
<text xml:space="preserve" x="43.8932" y="246.834" fill="black" font-size="16.0105" font-family="Helvetica">0.2</text>
<text xml:space="preserve" x="34.8764" y="182.59" fill="black" font-size="16.0105" font-family="Helvetica">0.25</text>
<text xml:space="preserve" x="43.8932" y="118.345" fill="black" font-size="16.0105" font-family="Helvetica">0.3</text>
<text xml:space="preserve" x="34.8764" y="54.1006" fill="black" font-size="16.0105" font-family="Helvetica">0.35</text>
<g transform="rotate(-90,38.2577,98.0573)">
<text xml:space="preserve" x="38.2577" y="98.0573" fill="black" font-size="16.0105" font-family="Helvetica">background</text>
</g>
<g transform="rotate(-90,21.9148,98.0573)">
<text xml:space="preserve" x="21.9148" y="98.0573" fill="black" font-size="16.0105" font-family="Helvetica">same event</text>
</g>
<path d="M24.169,98.0573l 0.563548, -81.7144" fill="none" stroke="black" stroke-width="2"/>
<path d="M553.256,498.064v -481.461" fill="none" stroke="black"/>
<path d="M538.459,498.064h 14.7969" fill="none" stroke="black"/>
<path d="M545.857,485.222h 7.39843" fill="none" stroke="black"/>
<path d="M545.857,472.381h 7.39843" fill="none" stroke="black"/>
<path d="M545.857,459.54h 7.39843" fill="none" stroke="black"/>
<path d="M545.857,446.699h 7.39843" fill="none" stroke="black"/>
<path d="M538.459,433.858h 14.7969" fill="none" stroke="black"/>
<path d="M545.857,421.017h 7.39843" fill="none" stroke="black"/>
<path d="M545.857,408.176h 7.39843" fill="none" stroke="black"/>
<path d="M545.857,395.334h 7.39843" fill="none" stroke="black"/>
<path d="M545.857,382.493h 7.39843" fill="none" stroke="black"/>
<path d="M538.459,369.652h 14.7969" fill="none" stroke="black"/>
<path d="M545.857,356.811h 7.39843" fill="none" stroke="black"/>
<path d="M545.857,343.97h 7.39843" fill="none" stroke="black"/>
<path d="M545.857,331.129h 7.39843" fill="none" stroke="black"/>
<path d="M545.857,318.288h 7.39843" fill="none" stroke="black"/>
<path d="M538.459,305.446h 14.7969" fill="none" stroke="black"/>
<path d="M545.857,292.605h 7.39843" fill="none" stroke="black"/>
<path d="M545.857,279.764h 7.39843" fill="none" stroke="black"/>
<path d="M545.857,266.923h 7.39843" fill="none" stroke="black"/>
<path d="M545.857,254.082h 7.39843" fill="none" stroke="black"/>
<path d="M538.459,241.241h 14.7969" fill="none" stroke="black"/>
<path d="M545.857,228.4h 7.39843" fill="none" stroke="black"/>
<path d="M545.857,215.558h 7.39843" fill="none" stroke="black"/>
<path d="M545.857,202.717h 7.39843" fill="none" stroke="black"/>
<path d="M545.857,189.876h 7.39843" fill="none" stroke="black"/>
<path d="M538.459,177.035h 14.7969" fill="none" stroke="black"/>
<path d="M545.857,164.194h 7.39843" fill="none" stroke="black"/>
<path d="M545.857,151.353h 7.39843" fill="none" stroke="black"/>
<path d="M545.857,138.512h 7.39843" fill="none" stroke="black"/>
<path d="M545.857,125.67h 7.39843" fill="none" stroke="black"/>
<path d="M538.459,112.829h 14.7969" fill="none" stroke="black"/>
<path d="M545.857,99.9881h 7.39843" fill="none" stroke="black"/>
<path d="M545.857,87.1469h 7.39843" fill="none" stroke="black"/>
<path d="M545.857,74.3058h 7.39843" fill="none" stroke="black"/>
<path d="M545.857,61.4646h 7.39843" fill="none" stroke="black"/>
<path d="M538.459,48.6235h 14.7969" fill="none" stroke="black"/>
<path d="M538.459,48.6235h 14.7969" fill="none" stroke="black"/>
<path d="M545.857,35.7823h 7.39843" fill="none" stroke="black"/>
<path d="M545.857,22.9412h 7.39843" fill="none" stroke="black"/>
<g stroke="#333333" stroke-width="2" fill="none">
<circle cx="282.098" cy="292.585" r="5.63548"/>
</g>
<g stroke="#333333" stroke-width="2" fill="none">
<circle cx="286.897" cy="289.558" r="5.63548"/>
</g>
<g stroke="#333333" stroke-width="2" fill="none">
<circle cx="291.697" cy="288.031" r="5.63548"/>
</g>
<g stroke="#333333" stroke-width="2" fill="none">
<circle cx="296.496" cy="286.531" r="5.63548"/>
</g>
<g stroke="#333333" stroke-width="2" fill="none">
<circle cx="301.295" cy="284.93" r="5.63548"/>
</g>
<g stroke="#333333" stroke-width="2" fill="none">
<circle cx="306.094" cy="282.693" r="5.63548"/>
</g>
<g stroke="#333333" stroke-width="2" fill="none">
<circle cx="310.894" cy="281.213" r="5.63548"/>
</g>
<g stroke="#333333" stroke-width="2" fill="none">
<circle cx="315.693" cy="279.16" r="5.63548"/>
</g>
<g stroke="#333333" stroke-width="2" fill="none">
<circle cx="320.492" cy="277.9" r="5.63548"/>
</g>
<g stroke="#333333" stroke-width="2" fill="none">
<circle cx="325.291" cy="275.886" r="5.63548"/>
</g>
<g stroke="#333333" stroke-width="2" fill="none">
<circle cx="330.091" cy="273.234" r="5.63548"/>
</g>
<g stroke="#333333" stroke-width="2" fill="none">
<circle cx="334.89" cy="269.157" r="5.63548"/>
</g>
<path d="M98.7518,358.179l 0.44993, -0.161731l 0.44993, -0.161731l 0.44993, -0.161731l 0.44993, -0.161731l 0.44993, -0.161731l 0.44993, -0.161731l 0.44993, -0.161731l 0.44993, -0.161731l 0.44993, -0.161731l 0.44993, -0.161731l 0.44993, -0.161731l
 0.44993, -0.161731l 0.44993, -0.161731l 0.44993, -0.161731l 0.44993, -0.161731l 0.44993, -0.161731l 0.44993, -0.161731l 0.44993, -0.161731l 0.44993, -0.161731l 0.44993, -0.161731l 0.44993, -0.161731l 0.44993, -0.161731l 0.44993, -0.161731l 0.44993,
 -0.161731l 0.44993, -0.161731l 0.44993, -0.161731l 0.44993, -0.161731l 0.44993, -0.161731l 0.44993, -0.161731l 0.44993, -0.161731l 0.44993, -0.161731l 0.44993, -0.161731l 0.44993, -0.161731l 0.44993, -0.161731l 0.44993, -0.161731l 0.44993,
 -0.161731l 0.44993, -0.161731l 0.44993, -0.161731l 0.44993, -0.161731l 0.44993, -0.161731l 0.44993, -0.161731l 0.44993, -0.161731l 0.44993, -0.161731l 0.44993, -0.161731l 0.44993, -0.161731l 0.44993, -0.161731l 0.44993, -0.161731l 0.44993,
 -0.161731l 0.44993, -0.161731" fill="none" stroke="#33cccc" stroke-width="3"/>
<path d="M120.798,350.254l 0.44993, -0.161731l 0.44993, -0.161731l 0.44993, -0.161731l 0.44993, -0.161731l 0.44993, -0.161731l 0.44993, -0.161731l 0.44993, -0.161731l 0.44993, -0.161731l 0.44993, -0.161731l 0.44993, -0.161731l 0.44993, -0.161731l
 0.44993, -0.161731l 0.44993, -0.161731l 0.44993, -0.161731l 0.44993, -0.161731l 0.44993, -0.161731l 0.44993, -0.161731l 0.44993, -0.161731l 0.44993, -0.161731l 0.44993, -0.161731l 0.44993, -0.161731l 0.44993, -0.161731l 0.44993, -0.161731l 0.44993,
 -0.161731l 0.44993, -0.161731l 0.44993, -0.161731l 0.44993, -0.161731l 0.44993, -0.161731l 0.44993, -0.161731l 0.44993, -0.161731l 0.44993, -0.161731l 0.44993, -0.161731l 0.44993, -0.161731l 0.44993, -0.161731l 0.44993, -0.161731l 0.44993,
 -0.161731l 0.44993, -0.161731l 0.44993, -0.161731l 0.44993, -0.161731l 0.44993, -0.161731l 0.44993, -0.161731l 0.44993, -0.161731l 0.44993, -0.161731l 0.44993, -0.161731l 0.44993, -0.161731l 0.44993, -0.161731l 0.44993, -0.161731l 0.44993,
 -0.161731l 0.44993, -0.161731" fill="none" stroke="#33cccc" stroke-width="3"/>
<path d="M142.845,342.329l 0.44993, -0.161731l 0.44993, -0.161731l 0.44993, -0.161731l 0.44993, -0.161731l 0.44993, -0.161731l 0.44993, -0.161731l 0.44993, -0.161731l 0.44993, -0.161731l 0.44993, -0.161731l 0.44993, -0.161731l 0.44993, -0.161731l
 0.44993, -0.161731l 0.44993, -0.161731l 0.44993, -0.161731l 0.44993, -0.161731l 0.44993, -0.161731l 0.44993, -0.161731l 0.44993, -0.161731l 0.44993, -0.161731l 0.44993, -0.161731l 0.44993, -0.161731l 0.44993, -0.161731l 0.44993, -0.161731l 0.44993,
 -0.161731l 0.44993, -0.161731l 0.44993, -0.161731l 0.44993, -0.161731l 0.44993, -0.161731l 0.44993, -0.161731l 0.44993, -0.161731l 0.44993, -0.161731l 0.44993, -0.161731l 0.44993, -0.161731l 0.44993, -0.161731l 0.44993, -0.161731l 0.44993,
 -0.161731l 0.44993, -0.161731l 0.44993, -0.161731l 0.44993, -0.161731l 0.44993, -0.161731l 0.44993, -0.161731l 0.44993, -0.161731l 0.44993, -0.161731l 0.44993, -0.161731l 0.44993, -0.161731l 0.44993, -0.161731l 0.44993, -0.161731l 0.44993,
 -0.161731l 0.44993, -0.161731" fill="none" stroke="#33cccc" stroke-width="3"/>
<path d="M164.891,334.405l 0.44993, -0.161731l 0.44993, -0.161731l 0.44993, -0.161731l 0.44993, -0.161731l 0.44993, -0.161731l 0.44993, -0.161731l 0.44993, -0.161731l 0.44993, -0.161731l 0.44993, -0.161731l 0.44993, -0.161731l 0.44993, -0.161731l
 0.44993, -0.161731l 0.44993, -0.161731l 0.44993, -0.161731l 0.44993, -0.161731l 0.44993, -0.161731l 0.44993, -0.161731l 0.44993, -0.161731l 0.44993, -0.161731l 0.44993, -0.161731l 0.44993, -0.161731l 0.44993, -0.161731l 0.44993, -0.161731l 0.44993,
 -0.161731l 0.44993, -0.161731l 0.44993, -0.161731l 0.44993, -0.161731l 0.44993, -0.161731l 0.44993, -0.161731l 0.44993, -0.161731l 0.44993, -0.161731l 0.44993, -0.161731l 0.44993, -0.161731l 0.44993, -0.161731l 0.44993, -0.161731l 0.44993,
 -0.161731l 0.44993, -0.161731l 0.44993, -0.161731l 0.44993, -0.161731l 0.44993, -0.161731l 0.44993, -0.161731l 0.44993, -0.161731l 0.44993, -0.161731l 0.44993, -0.161731l 0.44993, -0.161731l 0.44993, -0.161731l 0.44993, -0.161731l 0.44993,
 -0.161731l 0.44993, -0.161731" fill="none" stroke="#33cccc" stroke-width="3"/>
<path d="M186.938,326.48l 0.44993, -0.161731l 0.44993, -0.161731l 0.44993, -0.161731l 0.44993, -0.161731l 0.44993, -0.161731l 0.44993, -0.161731l 0.44993, -0.161731l 0.44993, -0.161731l 0.44993, -0.161731l 0.44993, -0.161731l 0.44993, -0.161731l
 0.44993, -0.161731l 0.44993, -0.161731l 0.44993, -0.161731l 0.44993, -0.161731l 0.44993, -0.161731l 0.44993, -0.161731l 0.44993, -0.161731l 0.44993, -0.161731l 0.44993, -0.161731l 0.44993, -0.161731l 0.44993, -0.161731l 0.44993, -0.161731l 0.44993,
 -0.161731l 0.44993, -0.161731l 0.44993, -0.161731l 0.44993, -0.161731l 0.44993, -0.161731l 0.44993, -0.161731l 0.44993, -0.161731l 0.44993, -0.161731l 0.44993, -0.161731l 0.44993, -0.161731l 0.44993, -0.161731l 0.44993, -0.161731l 0.44993,
 -0.161731l 0.44993, -0.161731l 0.44993, -0.161731l 0.44993, -0.161731l 0.44993, -0.161731l 0.44993, -0.161731l 0.44993, -0.161731l 0.44993, -0.161731l 0.44993, -0.161731l 0.44993, -0.161731l 0.44993, -0.161731l 0.44993, -0.161731l 0.44993,
 -0.161731l 0.44993, -0.161731" fill="none" stroke="#33cccc" stroke-width="3"/>
<path d="M208.985,318.555l 0.44993, -0.161731l 0.44993, -0.161731l 0.44993, -0.161731l 0.44993, -0.161731l 0.44993, -0.161731l 0.44993, -0.161731l 0.44993, -0.161731l 0.44993, -0.161731l 0.44993, -0.161731l 0.44993, -0.161731l 0.44993, -0.161731l
 0.44993, -0.161731l 0.44993, -0.161731l 0.44993, -0.161731l 0.44993, -0.161731l 0.44993, -0.161731l 0.44993, -0.161731l 0.44993, -0.161731l 0.44993, -0.161731l 0.44993, -0.161731l 0.44993, -0.161731l 0.44993, -0.161731l 0.44993, -0.161731l 0.44993,
 -0.161731l 0.44993, -0.161731l 0.44993, -0.161731l 0.44993, -0.161731l 0.44993, -0.161731l 0.44993, -0.161731l 0.44993, -0.161731l 0.44993, -0.161731l 0.44993, -0.161731l 0.44993, -0.161731l 0.44993, -0.161731l 0.44993, -0.161731l 0.44993,
 -0.161731l 0.44993, -0.161731l 0.44993, -0.161731l 0.44993, -0.161731l 0.44993, -0.161731l 0.44993, -0.161731l 0.44993, -0.161731l 0.44993, -0.161731l 0.44993, -0.161731l 0.44993, -0.161731l 0.44993, -0.161731l 0.44993, -0.161731l 0.44993,
 -0.161731l 0.44993, -0.161731" fill="none" stroke="#33cccc" stroke-width="3"/>
<path d="M231.031,310.63l 0.44993, -0.161731l 0.44993, -0.161731l 0.44993, -0.161731l 0.44993, -0.161731l 0.44993, -0.161731l 0.44993, -0.161731l 0.44993, -0.161731l 0.44993, -0.161731l 0.44993, -0.161731l 0.44993, -0.161731l 0.44993, -0.161731l
 0.44993, -0.161731l 0.44993, -0.161731l 0.44993, -0.161731l 0.44993, -0.161731l 0.44993, -0.161731l 0.44993, -0.161731l 0.44993, -0.161731l 0.44993, -0.161731l 0.44993, -0.161731l 0.44993, -0.161731l 0.44993, -0.161731l 0.44993, -0.161731l 0.44993,
 -0.161731l 0.44993, -0.161731l 0.44993, -0.161731l 0.44993, -0.161731l 0.44993, -0.161731l 0.44993, -0.161731l 0.44993, -0.161731l 0.44993, -0.161731l 0.44993, -0.161731l 0.44993, -0.161731l 0.44993, -0.161731l 0.44993, -0.161731l 0.44993,
 -0.161731l 0.44993, -0.161731l 0.44993, -0.161731l 0.44993, -0.161731l 0.44993, -0.161731l 0.44993, -0.161731l 0.44993, -0.161731l 0.44993, -0.161731l 0.44993, -0.161731l 0.44993, -0.161731l 0.44993, -0.161731l 0.44993, -0.161731l 0.44993,
 -0.161731l 0.44993, -0.161731" fill="none" stroke="#33cccc" stroke-width="3"/>
<path d="M253.078,302.705l 0.44993, -0.161731l 0.44993, -0.161731l 0.44993, -0.161731l 0.44993, -0.161731l 0.44993, -0.161731l 0.44993, -0.161731l 0.44993, -0.161731l 0.44993, -0.161731l 0.44993, -0.161731l 0.44993, -0.161731l 0.44993, -0.161731l
 0.44993, -0.161731l 0.44993, -0.161731l 0.44993, -0.161731l 0.44993, -0.161731l 0.44993, -0.161731l 0.44993, -0.161731l 0.44993, -0.161731l 0.44993, -0.161731l 0.44993, -0.161731l 0.44993, -0.161731l 0.44993, -0.161731l 0.44993, -0.161731l 0.44993,
 -0.161731l 0.44993, -0.161731l 0.44993, -0.161731l 0.44993, -0.161731l 0.44993, -0.161731l 0.44993, -0.161731l 0.44993, -0.161731l 0.44993, -0.161731l 0.44993, -0.161731l 0.44993, -0.161731l 0.44993, -0.161731l 0.44993, -0.161731l 0.44993,
 -0.161731l 0.44993, -0.161731l 0.44993, -0.161731l 0.44993, -0.161731l 0.44993, -0.161731l 0.44993, -0.161731l 0.44993, -0.161731l 0.44993, -0.161731l 0.44993, -0.161731l 0.44993, -0.161731l 0.44993, -0.161731l 0.44993, -0.161731l 0.44993,
 -0.161731l 0.44993, -0.161731" fill="none" stroke="#33cccc" stroke-width="3"/>
<path d="M275.124,294.78l 0.44993, -0.161731l 0.44993, -0.161731l 0.44993, -0.161731l 0.44993, -0.161731l 0.44993, -0.161731l 0.44993, -0.161731l 0.44993, -0.161731l 0.44993, -0.161731l 0.44993, -0.161731l 0.44993, -0.161731l 0.44993, -0.161731l
 0.44993, -0.161731l 0.44993, -0.161731l 0.44993, -0.161731l 0.44993, -0.161731l 0.44993, -0.161731l 0.44993, -0.161731l 0.44993, -0.161731l 0.44993, -0.161731l 0.44993, -0.161731l 0.44993, -0.161731l 0.44993, -0.161731l 0.44993, -0.161731l 0.44993,
 -0.161731l 0.44993, -0.161731l 0.44993, -0.161731l 0.44993, -0.161731l 0.44993, -0.161731l 0.44993, -0.161731l 0.44993, -0.161731l 0.44993, -0.161731l 0.44993, -0.161731l 0.44993, -0.161731l 0.44993, -0.161731l 0.44993, -0.161731l 0.44993,
 -0.161731l 0.44993, -0.161731l 0.44993, -0.161731l 0.44993, -0.161731l 0.44993, -0.161731l 0.44993, -0.161731l 0.44993, -0.161731l 0.44993, -0.161731l 0.44993, -0.161731l 0.44993, -0.161731l 0.44993, -0.161731l 0.44993, -0.161731l 0.44993,
 -0.161731l 0.44993, -0.161731" fill="none" stroke="#33cccc" stroke-width="3"/>
<path d="M297.171,286.856l 0.44993, -0.161731l 0.44993, -0.161731l 0.44993, -0.161731l 0.44993, -0.161731l 0.44993, -0.161731l 0.44993, -0.161731l 0.44993, -0.161731l 0.44993, -0.161731l 0.44993, -0.161731l 0.44993, -0.161731l 0.44993, -0.161731l
 0.44993, -0.161731l 0.44993, -0.161731l 0.44993, -0.161731l 0.44993, -0.161731l 0.44993, -0.161731l 0.44993, -0.161731l 0.44993, -0.161731l 0.44993, -0.161731l 0.44993, -0.161731l 0.44993, -0.161731l 0.44993, -0.161731l 0.44993, -0.161731l 0.44993,
 -0.161731l 0.44993, -0.161731l 0.44993, -0.161731l 0.44993, -0.161731l 0.44993, -0.161731l 0.44993, -0.161731l 0.44993, -0.161731l 0.44993, -0.161731l 0.44993, -0.161731l 0.44993, -0.161731l 0.44993, -0.161731l 0.44993, -0.161731l 0.44993,
 -0.161731l 0.44993, -0.161731l 0.44993, -0.161731l 0.44993, -0.161731l 0.44993, -0.161731l 0.44993, -0.161731l 0.44993, -0.161731l 0.44993, -0.161731l 0.44993, -0.161731l 0.44993, -0.161731l 0.44993, -0.161731l 0.44993, -0.161731l 0.44993,
 -0.161731l 0.44993, -0.161731" fill="none" stroke="#33cccc" stroke-width="3"/>
<path d="M319.217,278.931l 0.44993, -0.161731l 0.44993, -0.161731l 0.44993, -0.161731l 0.44993, -0.161731l 0.44993, -0.161731l 0.44993, -0.161731l 0.44993, -0.161731l 0.44993, -0.161731l 0.44993, -0.161731l 0.44993, -0.161731l 0.44993, -0.161731l
 0.44993, -0.161731l 0.44993, -0.161731l 0.44993, -0.161731l 0.44993, -0.161731l 0.44993, -0.161731l 0.44993, -0.161731l 0.44993, -0.161731l 0.44993, -0.161731l 0.44993, -0.161731l 0.44993, -0.161731l 0.44993, -0.161731l 0.44993, -0.161731l 0.44993,
 -0.161731l 0.44993, -0.161731l 0.44993, -0.161731l 0.44993, -0.161731l 0.44993, -0.161731l 0.44993, -0.161731l 0.44993, -0.161731l 0.44993, -0.161731l 0.44993, -0.161731l 0.44993, -0.161731l 0.44993, -0.161731l 0.44993, -0.161731l 0.44993,
 -0.161731l 0.44993, -0.161731l 0.44993, -0.161731l 0.44993, -0.161731l 0.44993, -0.161731l 0.44993, -0.161731l 0.44993, -0.161731l 0.44993, -0.161731l 0.44993, -0.161731l 0.44993, -0.161731l 0.44993, -0.161731l 0.44993, -0.161731l 0.44993,
 -0.161731l 0.44993, -0.161731" fill="none" stroke="#33cccc" stroke-width="3"/>
<path d="M341.264,271.006l 0.44993, -0.161731l 0.44993, -0.161731l 0.44993, -0.161731l 0.44993, -0.161731l 0.44993, -0.161731l 0.44993, -0.161731l 0.44993, -0.161731l 0.44993, -0.161731l 0.44993, -0.161731l 0.44993, -0.161731l 0.44993, -0.161731l
 0.44993, -0.161731l 0.44993, -0.161731l 0.44993, -0.161731l 0.44993, -0.161731l 0.44993, -0.161731l 0.44993, -0.161731l 0.44993, -0.161731l 0.44993, -0.161731l 0.44993, -0.161731l 0.44993, -0.161731l 0.44993, -0.161731l 0.44993, -0.161731l 0.44993,
 -0.161731l 0.44993, -0.161731l 0.44993, -0.161731l 0.44993, -0.161731l 0.44993, -0.161731l 0.44993, -0.161731l 0.44993, -0.161731l 0.44993, -0.161731l 0.44993, -0.161731l 0.44993, -0.161731l 0.44993, -0.161731l 0.44993, -0.161731l 0.44993,
 -0.161731l 0.44993, -0.161731l 0.44993, -0.161731l 0.44993, -0.161731l 0.44993, -0.161731l 0.44993, -0.161731l 0.44993, -0.161731l 0.44993, -0.161731l 0.44993, -0.161731l 0.44993, -0.161731l 0.44993, -0.161731l 0.44993, -0.161731l 0.44993,
 -0.161731l 0.44993, -0.161731" fill="none" stroke="#33cccc" stroke-width="3"/>
<path d="M363.311,263.081l 0.44993, -0.161731l 0.44993, -0.161731l 0.44993, -0.161731l 0.44993, -0.161731l 0.44993, -0.161731l 0.44993, -0.161731l 0.44993, -0.161731l 0.44993, -0.161731l 0.44993, -0.161731l 0.44993, -0.161731l 0.44993, -0.161731l
 0.44993, -0.161731l 0.44993, -0.161731l 0.44993, -0.161731l 0.44993, -0.161731l 0.44993, -0.161731l 0.44993, -0.161731l 0.44993, -0.161731l 0.44993, -0.161731l 0.44993, -0.161731l 0.44993, -0.161731l 0.44993, -0.161731l 0.44993, -0.161731l 0.44993,
 -0.161731l 0.44993, -0.161731l 0.44993, -0.161731l 0.44993, -0.161731l 0.44993, -0.161731l 0.44993, -0.161731l 0.44993, -0.161731l 0.44993, -0.161731l 0.44993, -0.161731l 0.44993, -0.161731l 0.44993, -0.161731l 0.44993, -0.161731l 0.44993,
 -0.161731l 0.44993, -0.161731l 0.44993, -0.161731l 0.44993, -0.161731l 0.44993, -0.161731l 0.44993, -0.161731l 0.44993, -0.161731l 0.44993, -0.161731l 0.44993, -0.161731l 0.44993, -0.161731l 0.44993, -0.161731l 0.44993, -0.161731l 0.44993,
 -0.161731l 0.44993, -0.161731" fill="none" stroke="#33cccc" stroke-width="3"/>
<path d="M385.357,255.156l 0.44993, -0.161731l 0.44993, -0.161731l 0.44993, -0.161731l 0.44993, -0.161731l 0.44993, -0.161731l 0.44993, -0.161731l 0.44993, -0.161731l 0.44993, -0.161731l 0.44993, -0.161731l 0.44993, -0.161731l 0.44993, -0.161731l
 0.44993, -0.161731l 0.44993, -0.161731l 0.44993, -0.161731l 0.44993, -0.161731l 0.44993, -0.161731l 0.44993, -0.161731l 0.44993, -0.161731l 0.44993, -0.161731l 0.44993, -0.161731l 0.44993, -0.161731l 0.44993, -0.161731l 0.44993, -0.161731l 0.44993,
 -0.161731l 0.44993, -0.161731l 0.44993, -0.161731l 0.44993, -0.161731l 0.44993, -0.161731l 0.44993, -0.161731l 0.44993, -0.161731l 0.44993, -0.161731l 0.44993, -0.161731l 0.44993, -0.161731l 0.44993, -0.161731l 0.44993, -0.161731l 0.44993,
 -0.161731l 0.44993, -0.161731l 0.44993, -0.161731l 0.44993, -0.161731l 0.44993, -0.161731l 0.44993, -0.161731l 0.44993, -0.161731l 0.44993, -0.161731l 0.44993, -0.161731l 0.44993, -0.161731l 0.44993, -0.161731l 0.44993, -0.161731l 0.44993,
 -0.161731l 0.44993, -0.161731" fill="none" stroke="#33cccc" stroke-width="3"/>
<path d="M407.404,247.231l 0.44993, -0.161731l 0.44993, -0.161731l 0.44993, -0.161731l 0.44993, -0.161731l 0.44993, -0.161731l 0.44993, -0.161731l 0.44993, -0.161731l 0.44993, -0.161731l 0.44993, -0.161731l 0.44993, -0.161731l 0.44993, -0.161731l
 0.44993, -0.161731l 0.44993, -0.161731l 0.44993, -0.161731l 0.44993, -0.161731l 0.44993, -0.161731l 0.44993, -0.161731l 0.44993, -0.161731l 0.44993, -0.161731l 0.44993, -0.161731l 0.44993, -0.161731l 0.44993, -0.161731l 0.44993, -0.161731l 0.44993,
 -0.161731l 0.44993, -0.161731l 0.44993, -0.161731l 0.44993, -0.161731l 0.44993, -0.161731l 0.44993, -0.161731l 0.44993, -0.161731l 0.44993, -0.161731l 0.44993, -0.161731l 0.44993, -0.161731l 0.44993, -0.161731l 0.44993, -0.161731l 0.44993,
 -0.161731l 0.44993, -0.161731l 0.44993, -0.161731l 0.44993, -0.161731l 0.44993, -0.161731l 0.44993, -0.161731l 0.44993, -0.161731l 0.44993, -0.161731l 0.44993, -0.161731l 0.44993, -0.161731l 0.44993, -0.161731l 0.44993, -0.161731l 0.44993,
 -0.161731l 0.44993, -0.161731" fill="none" stroke="#33cccc" stroke-width="3"/>
<path d="M429.45,239.307l 0.44993, -0.161731l 0.44993, -0.161731l 0.44993, -0.161731l 0.44993, -0.161731l 0.44993, -0.161731l 0.44993, -0.161731l 0.44993, -0.161731l 0.44993, -0.161731l 0.44993, -0.161731l 0.44993, -0.161731l 0.44993, -0.161731l
 0.44993, -0.161731l 0.44993, -0.161731l 0.44993, -0.161731l 0.44993, -0.161731l 0.44993, -0.161731l 0.44993, -0.161731l 0.44993, -0.161731l 0.44993, -0.161731l 0.44993, -0.161731l 0.44993, -0.161731l 0.44993, -0.161731l 0.44993, -0.161731l 0.44993,
 -0.161731l 0.44993, -0.161731l 0.44993, -0.161731l 0.44993, -0.161731l 0.44993, -0.161731l 0.44993, -0.161731l 0.44993, -0.161731l 0.44993, -0.161731l 0.44993, -0.161731l 0.44993, -0.161731l 0.44993, -0.161731l 0.44993, -0.161731l 0.44993,
 -0.161731l 0.44993, -0.161731l 0.44993, -0.161731l 0.44993, -0.161731l 0.44993, -0.161731l 0.44993, -0.161731l 0.44993, -0.161731l 0.44993, -0.161731l 0.44993, -0.161731l 0.44993, -0.161731l 0.44993, -0.161731l 0.44993, -0.161731l 0.44993,
 -0.161731l 0.44993, -0.161731" fill="none" stroke="#33cccc" stroke-width="3"/>
<path d="M451.497,231.382l 0.44993, -0.161731l 0.44993, -0.161731l 0.44993, -0.161731l 0.44993, -0.161731l 0.44993, -0.161731l 0.44993, -0.161731l 0.44993, -0.161731l 0.44993, -0.161731l 0.44993, -0.161731l 0.44993, -0.161731l 0.44993, -0.161731l
 0.44993, -0.161731l 0.44993, -0.161731l 0.44993, -0.161731l 0.44993, -0.161731l 0.44993, -0.161731l 0.44993, -0.161731l 0.44993, -0.161731l 0.44993, -0.161731l 0.44993, -0.161731l 0.44993, -0.161731l 0.44993, -0.161731l 0.44993, -0.161731l 0.44993,
 -0.161731l 0.44993, -0.161731l 0.44993, -0.161731l 0.44993, -0.161731l 0.44993, -0.161731l 0.44993, -0.161731l 0.44993, -0.161731l 0.44993, -0.161731l 0.44993, -0.161731l 0.44993, -0.161731l 0.44993, -0.161731l 0.44993, -0.161731l 0.44993,
 -0.161731l 0.44993, -0.161731l 0.44993, -0.161731l 0.44993, -0.161731l 0.44993, -0.161731l 0.44993, -0.161731l 0.44993, -0.161731l 0.44993, -0.161731l 0.44993, -0.161731l 0.44993, -0.161731l 0.44993, -0.161731l 0.44993, -0.161731l 0.44993,
 -0.161731l 0.44993, -0.161731" fill="none" stroke="#33cccc" stroke-width="3"/>
<path d="M473.543,223.457l 0.44993, -0.161731l 0.44993, -0.161731l 0.44993, -0.161731l 0.44993, -0.161731l 0.44993, -0.161731l 0.44993, -0.161731l 0.44993, -0.161731l 0.44993, -0.161731l 0.44993, -0.161731l 0.44993, -0.161731l 0.44993, -0.161731l
 0.44993, -0.161731l 0.44993, -0.161731l 0.44993, -0.161731l 0.44993, -0.161731l 0.44993, -0.161731l 0.44993, -0.161731l 0.44993, -0.161731l 0.44993, -0.161731l 0.44993, -0.161731l 0.44993, -0.161731l 0.44993, -0.161731l 0.44993, -0.161731l 0.44993,
 -0.161731l 0.44993, -0.161731l 0.44993, -0.161731l 0.44993, -0.161731l 0.44993, -0.161731l 0.44993, -0.161731l 0.44993, -0.161731l 0.44993, -0.161731l 0.44993, -0.161731l 0.44993, -0.161731l 0.44993, -0.161731l 0.44993, -0.161731l 0.44993,
 -0.161731l 0.44993, -0.161731l 0.44993, -0.161731l 0.44993, -0.161731l 0.44993, -0.161731l 0.44993, -0.161731l 0.44993, -0.161731l 0.44993, -0.161731l 0.44993, -0.161731l 0.44993, -0.161731l 0.44993, -0.161731l 0.44993, -0.161731l 0.44993,
 -0.161731l 0.44993, -0.161731" fill="none" stroke="#33cccc" stroke-width="3"/>
<path d="M495.59,215.532l 0.44993, -0.161731l 0.44993, -0.161731l 0.44993, -0.161731l 0.44993, -0.161731l 0.44993, -0.161731l 0.44993, -0.161731l 0.44993, -0.161731l 0.44993, -0.161731l 0.44993, -0.161731l 0.44993, -0.161731l 0.44993, -0.161731l
 0.44993, -0.161731l 0.44993, -0.161731l 0.44993, -0.161731l 0.44993, -0.161731l 0.44993, -0.161731l 0.44993, -0.161731l 0.44993, -0.161731l 0.44993, -0.161731l 0.44993, -0.161731l 0.44993, -0.161731l 0.44993, -0.161731l 0.44993, -0.161731l 0.44993,
 -0.161731l 0.44993, -0.161731l 0.44993, -0.161731l 0.44993, -0.161731l 0.44993, -0.161731l 0.44993, -0.161731l 0.44993, -0.161731l 0.44993, -0.161731l 0.44993, -0.161731l 0.44993, -0.161731l 0.44993, -0.161731l 0.44993, -0.161731l 0.44993,
 -0.161731l 0.44993, -0.161731l 0.44993, -0.161731l 0.44993, -0.161731l 0.44993, -0.161731l 0.44993, -0.161731l 0.44993, -0.161731l 0.44993, -0.161731l 0.44993, -0.161731l 0.44993, -0.161731l 0.44993, -0.161731l 0.44993, -0.161731l 0.44993,
 -0.161731l 0.44993, -0.161731" fill="none" stroke="#33cccc" stroke-width="3"/>
<path d="M517.636,207.607l 0.44993, -0.161731l 0.44993, -0.161731l 0.44993, -0.161731l 0.44993, -0.161731l 0.44993, -0.161731l 0.44993, -0.161731l 0.44993, -0.161731l 0.44993, -0.161731l 0.44993, -0.161731l 0.44993, -0.161731l 0.44993, -0.161731l
 0.44993, -0.161731l 0.44993, -0.161731l 0.44993, -0.161731l 0.44993, -0.161731l 0.44993, -0.161731l 0.44993, -0.161731l 0.44993, -0.161731l 0.44993, -0.161731l 0.44993, -0.161731l 0.44993, -0.161731l 0.44993, -0.161731l 0.44993, -0.161731l 0.44993,
 -0.161731l 0.44993, -0.161731l 0.44993, -0.161731l 0.44993, -0.161731l 0.44993, -0.161731l 0.44993, -0.161731l 0.44993, -0.161731l 0.44993, -0.161731l 0.44993, -0.161731l 0.44993, -0.161731l 0.44993, -0.161731l 0.44993, -0.161731l 0.44993,
 -0.161731l 0.44993, -0.161731l 0.44993, -0.161731l 0.44993, -0.161731l 0.44993, -0.161731l 0.44993, -0.161731l 0.44993, -0.161731l 0.44993, -0.161731l 0.44993, -0.161731l 0.44993, -0.161731l 0.44993, -0.161731l 0.44993, -0.161731l 0.44993,
 -0.161731l 0.44993, -0.161731" fill="none" stroke="#33cccc" stroke-width="3"/>
<path d="M539.683,199.682l 0.44993, -0.161731l 0.44993, -0.161731l 0.44993, -0.161731l 0.44993, -0.161731l 0.44993, -0.161731l 0.44993, -0.161731l 0.44993, -0.161731l 0.44993, -0.161731l 0.44993, -0.161731l 0.44993, -0.161731l 0.44993, -0.161731l
 0.44993, -0.161731l 0.44993, -0.161731l 0.44993, -0.161731l 0.44993, -0.161731l 0.44993, -0.161731l 0.44993, -0.161731l 0.44993, -0.161731l 0.44993, -0.161731" fill="none" stroke="#33cccc" stroke-width="3"/>
<path d="M98.7518,346.067l 0.44993, -0.099604l 0.44993, -0.0997358l 0.44993, -0.0998676l 0.44993, -0.0999994l 0.44993, -0.100131l 0.44993, -0.100263l 0.44993, -0.100395l 0.44993, -0.100527l 0.44993, -0.100658l 0.44993, -0.10079l 0.44993, -0.100922l
 0.44993, -0.101054l 0.44993, -0.101186l 0.44993, -0.101317l 0.44993, -0.101449l 0.44993, -0.101581l 0.44993, -0.101713l 0.44993, -0.101845l 0.44993, -0.101976l 0.44993, -0.102108l 0.44993, -0.10224l 0.44993, -0.102372l 0.44993, -0.102504l 0.44993,
 -0.102635l 0.44993, -0.102767l 0.44993, -0.102899l 0.44993, -0.103031l 0.44993, -0.103163l 0.44993, -0.103295l 0.44993, -0.103426l 0.44993, -0.103558l 0.44993, -0.10369l 0.44993, -0.103822l 0.44993, -0.103954l 0.44993, -0.104085l 0.44993, -0.104217l
 0.44993, -0.104349l 0.44993, -0.104481l 0.44993, -0.104613l 0.44993, -0.104744l 0.44993, -0.104876l 0.44993, -0.105008l 0.44993, -0.10514l 0.44993, -0.105272l 0.44993, -0.105403l 0.44993, -0.105535l 0.44993, -0.105667l 0.44993, -0.105799l 0.44993,
 -0.105931" fill="none" stroke="#ff0066" stroke-width="3"/>
<path d="M120.798,341.032l 0.44993, -0.106062l 0.44993, -0.106194l 0.44993, -0.106326l 0.44993, -0.106458l 0.44993, -0.10659l 0.44993, -0.106721l 0.44993, -0.106853l 0.44993, -0.106985l 0.44993, -0.107117l 0.44993, -0.107249l 0.44993, -0.10738l
 0.44993, -0.107512l 0.44993, -0.107644l 0.44993, -0.107776l 0.44993, -0.107908l 0.44993, -0.108039l 0.44993, -0.108171l 0.44993, -0.108303l 0.44993, -0.108435l 0.44993, -0.108567l 0.44993, -0.108698l 0.44993, -0.10883l 0.44993, -0.108962l 0.44993,
 -0.109094l 0.44993, -0.109226l 0.44993, -0.109357l 0.44993, -0.109489l 0.44993, -0.109621l 0.44993, -0.109753l 0.44993, -0.109885l 0.44993, -0.110017l 0.44993, -0.110148l 0.44993, -0.11028l 0.44993, -0.110412l 0.44993, -0.110544l 0.44993, -0.110676l
 0.44993, -0.110807l 0.44993, -0.110939l 0.44993, -0.111071l 0.44993, -0.111203l 0.44993, -0.111335l 0.44993, -0.111466l 0.44993, -0.111598l 0.44993, -0.11173l 0.44993, -0.111862l 0.44993, -0.111994l 0.44993, -0.112125l 0.44993, -0.112257l 0.44993,
 -0.112389" fill="none" stroke="#ff0066" stroke-width="3"/>
<path d="M142.845,335.679l 0.44993, -0.112521l 0.44993, -0.112653l 0.44993, -0.112784l 0.44993, -0.112916l 0.44993, -0.113048l 0.44993, -0.11318l 0.44993, -0.113312l 0.44993, -0.113443l 0.44993, -0.113575l 0.44993, -0.113707l 0.44993, -0.113839l
 0.44993, -0.113971l 0.44993, -0.114102l 0.44993, -0.114234l 0.44993, -0.114366l 0.44993, -0.114498l 0.44993, -0.11463l 0.44993, -0.114761l 0.44993, -0.114893l 0.44993, -0.115025l 0.44993, -0.115157l 0.44993, -0.115289l 0.44993, -0.11542l 0.44993,
 -0.115552l 0.44993, -0.115684l 0.44993, -0.115816l 0.44993, -0.115948l 0.44993, -0.116079l 0.44993, -0.116211l 0.44993, -0.116343l 0.44993, -0.116475l 0.44993, -0.116607l 0.44993, -0.116739l 0.44993, -0.11687l 0.44993, -0.117002l 0.44993, -0.117134l
 0.44993, -0.117266l 0.44993, -0.117398l 0.44993, -0.117529l 0.44993, -0.117661l 0.44993, -0.117793l 0.44993, -0.117925l 0.44993, -0.118057l 0.44993, -0.118188l 0.44993, -0.11832l 0.44993, -0.118452l 0.44993, -0.118584l 0.44993, -0.118716l 0.44993,
 -0.118847" fill="none" stroke="#ff0066" stroke-width="3"/>
<path d="M164.891,330.011l 0.44993, -0.118979l 0.44993, -0.119111l 0.44993, -0.119243l 0.44993, -0.119375l 0.44993, -0.119506l 0.44993, -0.119638l 0.44993, -0.11977l 0.44993, -0.119902l 0.44993, -0.120034l 0.44993, -0.120165l 0.44993, -0.120297l
 0.44993, -0.120429l 0.44993, -0.120561l 0.44993, -0.120693l 0.44993, -0.120824l 0.44993, -0.120956l 0.44993, -0.121088l 0.44993, -0.12122l 0.44993, -0.121352l 0.44993, -0.121483l 0.44993, -0.121615l 0.44993, -0.121747l 0.44993, -0.121879l 0.44993,
 -0.122011l 0.44993, -0.122142l 0.44993, -0.122274l 0.44993, -0.122406l 0.44993, -0.122538l 0.44993, -0.12267l 0.44993, -0.122801l 0.44993, -0.122933l 0.44993, -0.123065l 0.44993, -0.123197l 0.44993, -0.123329l 0.44993, -0.123461l 0.44993, -0.123592l
 0.44993, -0.123724l 0.44993, -0.123856l 0.44993, -0.123988l 0.44993, -0.12412l 0.44993, -0.124251l 0.44993, -0.124383l 0.44993, -0.124515l 0.44993, -0.124647l 0.44993, -0.124779l 0.44993, -0.12491l 0.44993, -0.125042l 0.44993, -0.125174l 0.44993,
 -0.125306" fill="none" stroke="#ff0066" stroke-width="3"/>
<path d="M186.938,324.026l 0.44993, -0.125438l 0.44993, -0.125569l 0.44993, -0.125701l 0.44993, -0.125833l 0.44993, -0.125965l 0.44993, -0.126097l 0.44993, -0.126228l 0.44993, -0.12636l 0.44993, -0.126492l 0.44993, -0.126624l 0.44993, -0.126756l
 0.44993, -0.126887l 0.44993, -0.127019l 0.44993, -0.127151l 0.44993, -0.127283l 0.44993, -0.127415l 0.44993, -0.127546l 0.44993, -0.127678l 0.44993, -0.12781l 0.44993, -0.127942l 0.44993, -0.128074l 0.44993, -0.128205l 0.44993, -0.128337l 0.44993,
 -0.128469l 0.44993, -0.128601l 0.44993, -0.128733l 0.44993, -0.128864l 0.44993, -0.128996l 0.44993, -0.129128l 0.44993, -0.12926l 0.44993, -0.129392l 0.44993, -0.129523l 0.44993, -0.129655l 0.44993, -0.129787l 0.44993, -0.129919l 0.44993, -0.130051l
 0.44993, -0.130183l 0.44993, -0.130314l 0.44993, -0.130446l 0.44993, -0.130578l 0.44993, -0.13071l 0.44993, -0.130842l 0.44993, -0.130973l 0.44993, -0.131105l 0.44993, -0.131237l 0.44993, -0.131369l 0.44993, -0.131501l 0.44993, -0.131632l 0.44993,
 -0.131764" fill="none" stroke="#ff0066" stroke-width="3"/>
<path d="M208.985,317.725l 0.44993, -0.131896l 0.44993, -0.132028l 0.44993, -0.13216l 0.44993, -0.132291l 0.44993, -0.132423l 0.44993, -0.132555l 0.44993, -0.132687l 0.44993, -0.132819l 0.44993, -0.13295l 0.44993, -0.133082l 0.44993, -0.133214l
 0.44993, -0.133346l 0.44993, -0.133478l 0.44993, -0.133609l 0.44993, -0.133741l 0.44993, -0.133873l 0.44993, -0.134005l 0.44993, -0.134137l 0.44993, -0.134268l 0.44993, -0.1344l 0.44993, -0.134532l 0.44993, -0.134664l 0.44993, -0.134796l 0.44993,
 -0.134927l 0.44993, -0.135059l 0.44993, -0.135191l 0.44993, -0.135323l 0.44993, -0.135455l 0.44993, -0.135586l 0.44993, -0.135718l 0.44993, -0.13585l 0.44993, -0.135982l 0.44993, -0.136114l 0.44993, -0.136245l 0.44993, -0.136377l 0.44993, -0.136509l
 0.44993, -0.136641l 0.44993, -0.136773l 0.44993, -0.136905l 0.44993, -0.137036l 0.44993, -0.137168l 0.44993, -0.1373l 0.44993, -0.137432l 0.44993, -0.137564l 0.44993, -0.137695l 0.44993, -0.137827l 0.44993, -0.137959l 0.44993, -0.138091l 0.44993,
 -0.138223" fill="none" stroke="#ff0066" stroke-width="3"/>
<path d="M231.031,311.107l 0.44993, -0.138354l 0.44993, -0.138486l 0.44993, -0.138618l 0.44993, -0.13875l 0.44993, -0.138882l 0.44993, -0.139013l 0.44993, -0.139145l 0.44993, -0.139277l 0.44993, -0.139409l 0.44993, -0.139541l 0.44993, -0.139672l
 0.44993, -0.139804l 0.44993, -0.139936l 0.44993, -0.140068l 0.44993, -0.1402l 0.44993, -0.140331l 0.44993, -0.140463l 0.44993, -0.140595l 0.44993, -0.140727l 0.44993, -0.140859l 0.44993, -0.14099l 0.44993, -0.141122l 0.44993, -0.141254l 0.44993,
 -0.141386l 0.44993, -0.141518l 0.44993, -0.141649l 0.44993, -0.141781l 0.44993, -0.141913l 0.44993, -0.142045l 0.44993, -0.142177l 0.44993, -0.142308l 0.44993, -0.14244l 0.44993, -0.142572l 0.44993, -0.142704l 0.44993, -0.142836l 0.44993, -0.142967l
 0.44993, -0.143099l 0.44993, -0.143231l 0.44993, -0.143363l 0.44993, -0.143495l 0.44993, -0.143627l 0.44993, -0.143758l 0.44993, -0.14389l 0.44993, -0.144022l 0.44993, -0.144154l 0.44993, -0.144286l 0.44993, -0.144417l 0.44993, -0.144549l 0.44993,
 -0.144681" fill="none" stroke="#ff0066" stroke-width="3"/>
<path d="M253.078,304.172l 0.44993, -0.144813l 0.44993, -0.144945l 0.44993, -0.145076l 0.44993, -0.145208l 0.44993, -0.14534l 0.44993, -0.145472l 0.44993, -0.145604l 0.44993, -0.145735l 0.44993, -0.145867l 0.44993, -0.145999l 0.44993, -0.146131l
 0.44993, -0.146263l 0.44993, -0.146394l 0.44993, -0.146526l 0.44993, -0.146658l 0.44993, -0.14679l 0.44993, -0.146922l 0.44993, -0.147053l 0.44993, -0.147185l 0.44993, -0.147317l 0.44993, -0.147449l 0.44993, -0.147581l 0.44993, -0.147712l 0.44993,
 -0.147844l 0.44993, -0.147976l 0.44993, -0.148108l 0.44993, -0.14824l 0.44993, -0.148371l 0.44993, -0.148503l 0.44993, -0.148635l 0.44993, -0.148767l 0.44993, -0.148899l 0.44993, -0.14903l 0.44993, -0.149162l 0.44993, -0.149294l 0.44993, -0.149426l
 0.44993, -0.149558l 0.44993, -0.149689l 0.44993, -0.149821l 0.44993, -0.149953l 0.44993, -0.150085l 0.44993, -0.150217l 0.44993, -0.150349l 0.44993, -0.15048l 0.44993, -0.150612l 0.44993, -0.150744l 0.44993, -0.150876l 0.44993, -0.151008l 0.44993,
 -0.151139" fill="none" stroke="#ff0066" stroke-width="3"/>
<path d="M275.124,296.921l 0.44993, -0.151271l 0.44993, -0.151403l 0.44993, -0.151535l 0.44993, -0.151667l 0.44993, -0.151798l 0.44993, -0.15193l 0.44993, -0.152062l 0.44993, -0.152194l 0.44993, -0.152326l 0.44993, -0.152457l 0.44993, -0.152589l
 0.44993, -0.152721l 0.44993, -0.152853l 0.44993, -0.152985l 0.44993, -0.153116l 0.44993, -0.153248l 0.44993, -0.15338l 0.44993, -0.153512l 0.44993, -0.153644l 0.44993, -0.153775l 0.44993, -0.153907l 0.44993, -0.154039l 0.44993, -0.154171l 0.44993,
 -0.154303l 0.44993, -0.154434l 0.44993, -0.154566l 0.44993, -0.154698l 0.44993, -0.15483l 0.44993, -0.154962l 0.44993, -0.155093l 0.44993, -0.155225l 0.44993, -0.155357l 0.44993, -0.155489l 0.44993, -0.155621l 0.44993, -0.155752l 0.44993, -0.155884l
 0.44993, -0.156016l 0.44993, -0.156148l 0.44993, -0.15628l 0.44993, -0.156411l 0.44993, -0.156543l 0.44993, -0.156675l 0.44993, -0.156807l 0.44993, -0.156939l 0.44993, -0.157071l 0.44993, -0.157202l 0.44993, -0.157334l 0.44993, -0.157466l 0.44993,
 -0.157598" fill="none" stroke="#ff0066" stroke-width="3"/>
<path d="M297.171,289.354l 0.44993, -0.15773l 0.44993, -0.157861l 0.44993, -0.157993l 0.44993, -0.158125l 0.44993, -0.158257l 0.44993, -0.158389l 0.44993, -0.15852l 0.44993, -0.158652l 0.44993, -0.158784l 0.44993, -0.158916l 0.44993, -0.159048l
 0.44993, -0.159179l 0.44993, -0.159311l 0.44993, -0.159443l 0.44993, -0.159575l 0.44993, -0.159707l 0.44993, -0.159838l 0.44993, -0.15997l 0.44993, -0.160102l 0.44993, -0.160234l 0.44993, -0.160366l 0.44993, -0.160497l 0.44993, -0.160629l 0.44993,
 -0.160761l 0.44993, -0.160893l 0.44993, -0.161025l 0.44993, -0.161156l 0.44993, -0.161288l 0.44993, -0.16142l 0.44993, -0.161552l 0.44993, -0.161684l 0.44993, -0.161815l 0.44993, -0.161947l 0.44993, -0.162079l 0.44993, -0.162211l 0.44993, -0.162343l
 0.44993, -0.162474l 0.44993, -0.162606l 0.44993, -0.162738l 0.44993, -0.16287l 0.44993, -0.163002l 0.44993, -0.163133l 0.44993, -0.163265l 0.44993, -0.163397l 0.44993, -0.163529l 0.44993, -0.163661l 0.44993, -0.163793l 0.44993, -0.163924l 0.44993,
 -0.164056" fill="none" stroke="#ff0066" stroke-width="3"/>
<path d="M319.217,281.47l 0.44993, -0.164188l 0.44993, -0.16432l 0.44993, -0.164452l 0.44993, -0.164583l 0.44993, -0.164715l 0.44993, -0.164847l 0.44993, -0.164979l 0.44993, -0.165111l 0.44993, -0.165242l 0.44993, -0.165374l 0.44993, -0.165506l
 0.44993, -0.165638l 0.44993, -0.16577l 0.44993, -0.165901l 0.44993, -0.166033l 0.44993, -0.166165l 0.44993, -0.166297l 0.44993, -0.166429l 0.44993, -0.16656l 0.44993, -0.166692l 0.44993, -0.166824l 0.44993, -0.166956l 0.44993, -0.167088l 0.44993,
 -0.167219l 0.44993, -0.167351l 0.44993, -0.167483l 0.44993, -0.167615l 0.44993, -0.167747l 0.44993, -0.167878l 0.44993, -0.16801l 0.44993, -0.168142l 0.44993, -0.168274l 0.44993, -0.168406l 0.44993, -0.168537l 0.44993, -0.168669l 0.44993, -0.168801l
 0.44993, -0.168933l 0.44993, -0.169065l 0.44993, -0.169196l 0.44993, -0.169328l 0.44993, -0.16946l 0.44993, -0.169592l 0.44993, -0.169724l 0.44993, -0.169855l 0.44993, -0.169987l 0.44993, -0.170119l 0.44993, -0.170251l 0.44993, -0.170383l 0.44993,
 -0.170515" fill="none" stroke="#ff0066" stroke-width="3"/>
<path d="M341.264,273.27l 0.44993, -0.170646l 0.44993, -0.170778l 0.44993, -0.17091l 0.44993, -0.171042l 0.44993, -0.171174l 0.44993, -0.171305l 0.44993, -0.171437l 0.44993, -0.171569l 0.44993, -0.171701l 0.44993, -0.171833l 0.44993, -0.171964l
 0.44993, -0.172096l 0.44993, -0.172228l 0.44993, -0.17236l 0.44993, -0.172492l 0.44993, -0.172623l 0.44993, -0.172755l 0.44993, -0.172887l 0.44993, -0.173019l 0.44993, -0.173151l 0.44993, -0.173282l 0.44993, -0.173414l 0.44993, -0.173546l 0.44993,
 -0.173678l 0.44993, -0.17381l 0.44993, -0.173941l 0.44993, -0.174073l 0.44993, -0.174205l 0.44993, -0.174337l 0.44993, -0.174469l 0.44993, -0.1746l 0.44993, -0.174732l 0.44993, -0.174864l 0.44993, -0.174996l 0.44993, -0.175128l 0.44993, -0.175259l
 0.44993, -0.175391l 0.44993, -0.175523l 0.44993, -0.175655l 0.44993, -0.175787l 0.44993, -0.175918l 0.44993, -0.17605l 0.44993, -0.176182l 0.44993, -0.176314l 0.44993, -0.176446l 0.44993, -0.176577l 0.44993, -0.176709l 0.44993, -0.176841l 0.44993,
 -0.176973" fill="none" stroke="#ff0066" stroke-width="3"/>
<path d="M363.311,264.754l 0.44993, -0.177105l 0.44993, -0.177237l 0.44993, -0.177368l 0.44993, -0.1775l 0.44993, -0.177632l 0.44993, -0.177764l 0.44993, -0.177896l 0.44993, -0.178027l 0.44993, -0.178159l 0.44993, -0.178291l 0.44993, -0.178423l
 0.44993, -0.178555l 0.44993, -0.178686l 0.44993, -0.178818l 0.44993, -0.17895l 0.44993, -0.179082l 0.44993, -0.179214l 0.44993, -0.179345l 0.44993, -0.179477l 0.44993, -0.179609l 0.44993, -0.179741l 0.44993, -0.179873l 0.44993, -0.180004l 0.44993,
 -0.180136l 0.44993, -0.180268l 0.44993, -0.1804l 0.44993, -0.180532l 0.44993, -0.180663l 0.44993, -0.180795l 0.44993, -0.180927l 0.44993, -0.181059l 0.44993, -0.181191l 0.44993, -0.181322l 0.44993, -0.181454l 0.44993, -0.181586l 0.44993, -0.181718l
 0.44993, -0.18185l 0.44993, -0.181981l 0.44993, -0.182113l 0.44993, -0.182245l 0.44993, -0.182377l 0.44993, -0.182509l 0.44993, -0.18264l 0.44993, -0.182772l 0.44993, -0.182904l 0.44993, -0.183036l 0.44993, -0.183168l 0.44993, -0.183299l 0.44993,
 -0.183431" fill="none" stroke="#ff0066" stroke-width="3"/>
<path d="M385.357,255.92l 0.44993, -0.183563l 0.44993, -0.183695l 0.44993, -0.183827l 0.44993, -0.183959l 0.44993, -0.18409l 0.44993, -0.184222l 0.44993, -0.184354l 0.44993, -0.184486l 0.44993, -0.184618l 0.44993, -0.184749l 0.44993, -0.184881l
 0.44993, -0.185013l 0.44993, -0.185145l 0.44993, -0.185277l 0.44993, -0.185408l 0.44993, -0.18554l 0.44993, -0.185672l 0.44993, -0.185804l 0.44993, -0.185936l 0.44993, -0.186067l 0.44993, -0.186199l 0.44993, -0.186331l 0.44993, -0.186463l 0.44993,
 -0.186595l 0.44993, -0.186726l 0.44993, -0.186858l 0.44993, -0.18699l 0.44993, -0.187122l 0.44993, -0.187254l 0.44993, -0.187385l 0.44993, -0.187517l 0.44993, -0.187649l 0.44993, -0.187781l 0.44993, -0.187913l 0.44993, -0.188044l 0.44993, -0.188176l
 0.44993, -0.188308l 0.44993, -0.18844l 0.44993, -0.188572l 0.44993, -0.188703l 0.44993, -0.188835l 0.44993, -0.188967l 0.44993, -0.189099l 0.44993, -0.189231l 0.44993, -0.189362l 0.44993, -0.189494l 0.44993, -0.189626l 0.44993, -0.189758l 0.44993,
 -0.18989" fill="none" stroke="#ff0066" stroke-width="3"/>
<path d="M407.404,246.771l 0.44993, -0.190021l 0.44993, -0.190153l 0.44993, -0.190285l 0.44993, -0.190417l 0.44993, -0.190549l 0.44993, -0.190681l 0.44993, -0.190812l 0.44993, -0.190944l 0.44993, -0.191076l 0.44993, -0.191208l 0.44993, -0.19134l
 0.44993, -0.191471l 0.44993, -0.191603l 0.44993, -0.191735l 0.44993, -0.191867l 0.44993, -0.191999l 0.44993, -0.19213l 0.44993, -0.192262l 0.44993, -0.192394l 0.44993, -0.192526l 0.44993, -0.192658l 0.44993, -0.192789l 0.44993, -0.192921l 0.44993,
 -0.193053l 0.44993, -0.193185l 0.44993, -0.193317l 0.44993, -0.193448l 0.44993, -0.19358l 0.44993, -0.193712l 0.44993, -0.193844l 0.44993, -0.193976l 0.44993, -0.194107l 0.44993, -0.194239l 0.44993, -0.194371l 0.44993, -0.194503l 0.44993, -0.194635l
 0.44993, -0.194766l 0.44993, -0.194898l 0.44993, -0.19503l 0.44993, -0.195162l 0.44993, -0.195294l 0.44993, -0.195425l 0.44993, -0.195557l 0.44993, -0.195689l 0.44993, -0.195821l 0.44993, -0.195953l 0.44993, -0.196084l 0.44993, -0.196216l 0.44993,
 -0.196348" fill="none" stroke="#ff0066" stroke-width="3"/>
<path d="M429.45,237.305l 0.44993, -0.19648l 0.44993, -0.196612l 0.44993, -0.196743l 0.44993, -0.196875l 0.44993, -0.197007l 0.44993, -0.197139l 0.44993, -0.197271l 0.44993, -0.197403l 0.44993, -0.197534l 0.44993, -0.197666l 0.44993, -0.197798l
 0.44993, -0.19793l 0.44993, -0.198062l 0.44993, -0.198193l 0.44993, -0.198325l 0.44993, -0.198457l 0.44993, -0.198589l 0.44993, -0.198721l 0.44993, -0.198852l 0.44993, -0.198984l 0.44993, -0.199116l 0.44993, -0.199248l 0.44993, -0.19938l 0.44993,
 -0.199511l 0.44993, -0.199643l 0.44993, -0.199775l 0.44993, -0.199907l 0.44993, -0.200039l 0.44993, -0.20017l 0.44993, -0.200302l 0.44993, -0.200434l 0.44993, -0.200566l 0.44993, -0.200698l 0.44993, -0.200829l 0.44993, -0.200961l 0.44993, -0.201093l
 0.44993, -0.201225l 0.44993, -0.201357l 0.44993, -0.201488l 0.44993, -0.20162l 0.44993, -0.201752l 0.44993, -0.201884l 0.44993, -0.202016l 0.44993, -0.202147l 0.44993, -0.202279l 0.44993, -0.202411l 0.44993, -0.202543l 0.44993, -0.202675l 0.44993,
 -0.202806" fill="none" stroke="#ff0066" stroke-width="3"/>
<path d="M451.497,227.522l 0.44993, -0.202938l 0.44993, -0.20307l 0.44993, -0.203202l 0.44993, -0.203334l 0.44993, -0.203465l 0.44993, -0.203597l 0.44993, -0.203729l 0.44993, -0.203861l 0.44993, -0.203993l 0.44993, -0.204125l 0.44993, -0.204256l
 0.44993, -0.204388l 0.44993, -0.20452l 0.44993, -0.204652l 0.44993, -0.204784l 0.44993, -0.204915l 0.44993, -0.205047l 0.44993, -0.205179l 0.44993, -0.205311l 0.44993, -0.205443l 0.44993, -0.205574l 0.44993, -0.205706l 0.44993, -0.205838l 0.44993,
 -0.20597l 0.44993, -0.206102l 0.44993, -0.206233l 0.44993, -0.206365l 0.44993, -0.206497l 0.44993, -0.206629l 0.44993, -0.206761l 0.44993, -0.206892l 0.44993, -0.207024l 0.44993, -0.207156l 0.44993, -0.207288l 0.44993, -0.20742l 0.44993, -0.207551l
 0.44993, -0.207683l 0.44993, -0.207815l 0.44993, -0.207947l 0.44993, -0.208079l 0.44993, -0.20821l 0.44993, -0.208342l 0.44993, -0.208474l 0.44993, -0.208606l 0.44993, -0.208738l 0.44993, -0.208869l 0.44993, -0.209001l 0.44993, -0.209133l 0.44993,
 -0.209265" fill="none" stroke="#ff0066" stroke-width="3"/>
<path d="M473.543,217.423l 0.44993, -0.209397l 0.44993, -0.209528l 0.44993, -0.20966l 0.44993, -0.209792l 0.44993, -0.209924l 0.44993, -0.210056l 0.44993, -0.210187l 0.44993, -0.210319l 0.44993, -0.210451l 0.44993, -0.210583l 0.44993, -0.210715l
 0.44993, -0.210847l 0.44993, -0.210978l 0.44993, -0.21111l 0.44993, -0.211242l 0.44993, -0.211374l 0.44993, -0.211506l 0.44993, -0.211637l 0.44993, -0.211769l 0.44993, -0.211901l 0.44993, -0.212033l 0.44993, -0.212165l 0.44993, -0.212296l 0.44993,
 -0.212428l 0.44993, -0.21256l 0.44993, -0.212692l 0.44993, -0.212824l 0.44993, -0.212955l 0.44993, -0.213087l 0.44993, -0.213219l 0.44993, -0.213351l 0.44993, -0.213483l 0.44993, -0.213614l 0.44993, -0.213746l 0.44993, -0.213878l 0.44993, -0.21401l
 0.44993, -0.214142l 0.44993, -0.214273l 0.44993, -0.214405l 0.44993, -0.214537l 0.44993, -0.214669l 0.44993, -0.214801l 0.44993, -0.214932l 0.44993, -0.215064l 0.44993, -0.215196l 0.44993, -0.215328l 0.44993, -0.21546l 0.44993, -0.215591l 0.44993,
 -0.215723" fill="none" stroke="#ff0066" stroke-width="3"/>
<path d="M495.59,207.008l 0.44993, -0.215855l 0.44993, -0.215987l 0.44993, -0.216119l 0.44993, -0.21625l 0.44993, -0.216382l 0.44993, -0.216514l 0.44993, -0.216646l 0.44993, -0.216778l 0.44993, -0.216909l 0.44993, -0.217041l 0.44993, -0.217173l
 0.44993, -0.217305l 0.44993, -0.217437l 0.44993, -0.217569l 0.44993, -0.2177l 0.44993, -0.217832l 0.44993, -0.217964l 0.44993, -0.218096l 0.44993, -0.218228l 0.44993, -0.218359l 0.44993, -0.218491l 0.44993, -0.218623l 0.44993, -0.218755l 0.44993,
 -0.218887l 0.44993, -0.219018l 0.44993, -0.21915l 0.44993, -0.219282l 0.44993, -0.219414l 0.44993, -0.219546l 0.44993, -0.219677l 0.44993, -0.219809l 0.44993, -0.219941l 0.44993, -0.220073l 0.44993, -0.220205l 0.44993, -0.220336l 0.44993, -0.220468l
 0.44993, -0.2206l 0.44993, -0.220732l 0.44993, -0.220864l 0.44993, -0.220995l 0.44993, -0.221127l 0.44993, -0.221259l 0.44993, -0.221391l 0.44993, -0.221523l 0.44993, -0.221654l 0.44993, -0.221786l 0.44993, -0.221918l 0.44993, -0.22205l 0.44993,
 -0.222182" fill="none" stroke="#ff0066" stroke-width="3"/>
<path d="M517.636,196.276l 0.44993, -0.222313l 0.44993, -0.222445l 0.44993, -0.222577l 0.44993, -0.222709l 0.44993, -0.222841l 0.44993, -0.222972l 0.44993, -0.223104l 0.44993, -0.223236l 0.44993, -0.223368l 0.44993, -0.2235l 0.44993, -0.223631l
 0.44993, -0.223763l 0.44993, -0.223895l 0.44993, -0.224027l 0.44993, -0.224159l 0.44993, -0.224291l 0.44993, -0.224422l 0.44993, -0.224554l 0.44993, -0.224686l 0.44993, -0.224818l 0.44993, -0.22495l 0.44993, -0.225081l 0.44993, -0.225213l 0.44993,
 -0.225345l 0.44993, -0.225477l 0.44993, -0.225609l 0.44993, -0.22574l 0.44993, -0.225872l 0.44993, -0.226004l 0.44993, -0.226136l 0.44993, -0.226268l 0.44993, -0.226399l 0.44993, -0.226531l 0.44993, -0.226663l 0.44993, -0.226795l 0.44993, -0.226927l
 0.44993, -0.227058l 0.44993, -0.22719l 0.44993, -0.227322l 0.44993, -0.227454l 0.44993, -0.227586l 0.44993, -0.227717l 0.44993, -0.227849l 0.44993, -0.227981l 0.44993, -0.228113l 0.44993, -0.228245l 0.44993, -0.228376l 0.44993, -0.228508l 0.44993,
 -0.22864" fill="none" stroke="#ff0066" stroke-width="3"/>
<path d="M539.683,185.228l 0.44993, -0.228772l 0.44993, -0.228904l 0.44993, -0.229035l 0.44993, -0.229167l 0.44993, -0.229299l 0.44993, -0.229431l 0.44993, -0.229563l 0.44993, -0.229694l 0.44993, -0.229826l 0.44993, -0.229958l 0.44993, -0.23009l
 0.44993, -0.230222l 0.44993, -0.230353l 0.44993, -0.230485l 0.44993, -0.230617l 0.44993, -0.230749l 0.44993, -0.230881l 0.44993, -0.231013l 0.44993, -0.231144" fill="none" stroke="#ff0066" stroke-width="3"/>
<path d="M188.513,21.4167h 299.953" fill="none" stroke="#999999" stroke-width="7"/>
<text xml:space="preserve" x="360.607" y="50.7193" fill="black" font-size="16.0105" font-family="Helvetica"> with EMC</text>
<text xml:space="preserve" x="352.717" y="50.7193" fill="black" font-size="16.0105" font-family="Times">&#0947;</text>
<text xml:space="preserve" x="344.828" y="50.7193" fill="black" font-size="16.0105" font-family="Times">&#0947;</text>
<text xml:space="preserve" x="336.938" y="50.7193" fill="black" font-size="16.0105" font-family="Times">&#0947;</text>
<text xml:space="preserve" x="331.866" y="50.7193" fill="black" font-size="16.0105" font-family="Helvetica"> </text>
<text xml:space="preserve" x="316.65" y="50.7193" fill="black" font-size="16.0105" font-family="Times">&#8594;</text>
<text xml:space="preserve" x="311.578" y="50.7193" fill="black" font-size="16.0105" font-family="Helvetica"> </text>
<text xml:space="preserve" x="303.689" y="50.7193" fill="black" font-size="16.0105" font-family="Times">&#0947;</text>
<text xml:space="preserve" x="298.053" y="45.0838" fill="black" font-size="10.8403" font-family="Helvetica">0</text>
<text xml:space="preserve" x="289.6" y="50.7193" fill="black" font-size="16.0105" font-family="Times">&#0960;</text>
<text xml:space="preserve" x="284.528" y="50.7193" fill="black" font-size="16.0105" font-family="Helvetica"> </text>
<text xml:space="preserve" x="269.312" y="50.7193" fill="black" font-size="16.0105" font-family="Times">&#8594;</text>
<text xml:space="preserve" x="264.24" y="50.7193" fill="black" font-size="16.0105" font-family="Helvetica"> </text>
<text xml:space="preserve" x="252.969" y="50.7193" fill="black" font-size="16.0105" font-family="Times">&#0969;</text>
<text xml:space="preserve" x="128.989" y="50.7193" fill="black" font-size="16.0105" font-family="Helvetica"> = 13 TeV (EG1), </text>
<text xml:space="preserve" x="120.536" y="50.7193" fill="black" font-size="16.0105" font-family="Helvetica" font-style="oblique">s</text>
<path d="M114.9,41.7025l 1.69064, 9.58031" fill="none" stroke="black" stroke-width="2"/>
<path d="M116.591,51.2829l 2.25419, -14.0887" fill="none" stroke="black"/>
<path d="M118.845,37.1942h 10.1439" fill="none" stroke="black"/>
<text xml:space="preserve" x="89.5406" y="50.7193" fill="black" font-size="16.0105" font-family="Helvetica">pp </text>
<text xml:space="preserve" x="89.5406" y="85.6593" fill="black" font-size="16.0105" font-family="Helvetica">ALICE work in progress</text>
<text xml:space="preserve" x="205.068" y="120.599" fill="black" font-size="16.0105" font-family="Helvetica">) &lt; 10.0</text>
<text xml:space="preserve" x="196.051" y="120.599" fill="black" font-size="16.0105" font-family="Helvetica" font-style="oblique">c</text>
<text xml:space="preserve" x="145.895" y="120.599" fill="black" font-size="16.0105" font-family="Helvetica"> /(GeV/</text>
<text xml:space="preserve" x="139.133" y="128.489" fill="black" font-size="10.8403" font-family="Helvetica">T</text>
<text xml:space="preserve" x="129.552" y="120.599" fill="black" font-size="16.0105" font-family="Helvetica" font-style="oblique">p</text>
<text xml:space="preserve" x="124.481" y="120.599" fill="black" font-size="16.0105" font-family="Helvetica"> </text>
<text xml:space="preserve" x="116.027" y="120.599" fill="black" font-size="16.0105" font-family="Times">&#8804;</text>
<text xml:space="preserve" x="89.5406" y="120.599" fill="black" font-size="16.0105" font-family="Helvetica">8.0 </text>
<rect x="312.311" y="69.1755" width="198.425" height="113.448" fill="white"/>
<text xml:space="preserve" x="361.734" y="85.0957" fill="black" font-size="16.0105" font-family="Helvetica">ratio</text>
<path d="M319.752,80.5203h 34.7244" fill="none" stroke="black" stroke-width="2"/>
<g fill="black">
<circle cx="337.114" cy="80.5203" r="6.76257"/>
</g>
<text xml:space="preserve" x="361.734" y="108.201" fill="black" font-size="16.0105" font-family="Helvetica">peak range</text>
<path d="M319.752,103.21h 34.7244" fill="none" stroke="#333333" stroke-width="2"/>
<g stroke="#333333" stroke-width="2" fill="none">
<circle cx="337.114" cy="103.21" r="5.63548"/>
</g>
<text xml:space="preserve" x="361.734" y="130.743" fill="black" font-size="16.0105" font-family="Helvetica">background pol1</text>
<path d="M319.752,125.899h 34.7244" fill="none" stroke="#33cccc" stroke-width="3"/>
<text xml:space="preserve" x="361.734" y="153.285" fill="black" font-size="16.0105" font-family="Helvetica">background pol2</text>
<path d="M319.752,148.589h 34.7244" fill="none" stroke="#ff0066" stroke-width="3"/>
<text xml:space="preserve" x="361.734" y="175.827" fill="black" font-size="16.0105" font-family="Helvetica">param. range</text>
<path d="M319.752,171.279h 34.7244" fill="none" stroke="#999999" stroke-width="7"/></svg>
