<?xml version="1.0" standalone="no"?>
<svg width="567.429" height="553.904" viewBox="0 0 567.429 553.904" xmlns="http://www.w3.org/2000/svg" shape-rendering="crispEdges">
<title>
MC/EG1/OmegaRotWOPS/SameEventToBackgroundRatio_05.svg
</title>
<desc>
Creator: ROOT Version 6.20/08
CreationDate: Mon Mar 29 21:31:15 2021</desc>
<defs>
</defs>
<rect x="0.5" y="0" width="566.929" height="553.404" fill="white"/>
<rect x="68.5315" y="16.6021" width="484.724" height="481.461" fill="white"/>
<rect x="68.5315" y="16.6021" width="484.724" height="481.461" fill="none" stroke="black"/>
<rect x="68.5315" y="16.6021" width="484.724" height="481.461" fill="white"/>
<rect x="68.5315" y="16.6021" width="484.724" height="481.461" fill="none" stroke="black"/>
<g fill="black">
<circle cx="109.325" cy="497.603" r="6.76257"/>
</g>
<g fill="black">
<circle cx="114.124" cy="433.2" r="6.76257"/>
</g>
<g fill="black">
<circle cx="118.924" cy="283.497" r="6.76257"/>
</g>
<g fill="black">
<circle cx="123.723" cy="449.301" r="6.76257"/>
</g>
<g fill="black">
<circle cx="128.522" cy="414.715" r="6.76257"/>
</g>
<g fill="black">
<circle cx="133.321" cy="247.541" r="6.76257"/>
</g>
<g fill="black">
<circle cx="138.121" cy="273.065" r="6.76257"/>
</g>
<g fill="black">
<circle cx="142.92" cy="289.477" r="6.76257"/>
</g>
<g fill="black">
<circle cx="147.719" cy="301.048" r="6.76257"/>
</g>
<g fill="black">
<circle cx="152.518" cy="312.063" r="6.76257"/>
</g>
<g fill="black">
<circle cx="157.318" cy="320.631" r="6.76257"/>
</g>
<g fill="black">
<circle cx="162.117" cy="326.371" r="6.76257"/>
</g>
<g fill="black">
<circle cx="166.916" cy="332.024" r="6.76257"/>
</g>
<g fill="black">
<circle cx="171.715" cy="335.138" r="6.76257"/>
</g>
<g fill="black">
<circle cx="176.515" cy="336.87" r="6.76257"/>
</g>
<g fill="black">
<circle cx="181.314" cy="339.423" r="6.76257"/>
</g>
<g fill="black">
<circle cx="186.113" cy="340.152" r="6.76257"/>
</g>
<g fill="black">
<circle cx="190.912" cy="341.703" r="6.76257"/>
</g>
<g fill="black">
<circle cx="195.712" cy="341.869" r="6.76257"/>
</g>
<g fill="black">
<circle cx="200.511" cy="343.272" r="6.76257"/>
</g>
<g fill="black">
<circle cx="205.31" cy="344.555" r="6.76257"/>
</g>
<g fill="black">
<circle cx="210.109" cy="343.194" r="6.76257"/>
</g>
<g fill="black">
<circle cx="214.909" cy="342.158" r="6.76257"/>
</g>
<g fill="black">
<circle cx="219.708" cy="341.868" r="6.76257"/>
</g>
<g fill="black">
<circle cx="224.507" cy="341.537" r="6.76257"/>
</g>
<g fill="black">
<circle cx="229.306" cy="340.515" r="6.76257"/>
</g>
<g fill="black">
<circle cx="234.106" cy="339.339" r="6.76257"/>
</g>
<g fill="black">
<circle cx="238.905" cy="336.697" r="6.76257"/>
</g>
<g fill="black">
<circle cx="243.704" cy="336.264" r="6.76257"/>
</g>
<g fill="black">
<circle cx="248.503" cy="334.928" r="6.76257"/>
</g>
<g fill="black">
<circle cx="253.303" cy="332.559" r="6.76257"/>
</g>
<g fill="black">
<circle cx="258.102" cy="331.958" r="6.76257"/>
</g>
<g fill="black">
<circle cx="262.901" cy="330.832" r="6.76257"/>
</g>
<g fill="black">
<circle cx="267.7" cy="328.682" r="6.76257"/>
</g>
<g fill="black">
<circle cx="272.5" cy="324.529" r="6.76257"/>
</g>
<g fill="black">
<circle cx="277.299" cy="323.734" r="6.76257"/>
</g>
<g fill="black">
<circle cx="339.689" cy="295.889" r="6.76257"/>
</g>
<g fill="black">
<circle cx="344.488" cy="290.553" r="6.76257"/>
</g>
<g fill="black">
<circle cx="349.288" cy="290.032" r="6.76257"/>
</g>
<g fill="black">
<circle cx="354.087" cy="286.966" r="6.76257"/>
</g>
<g fill="black">
<circle cx="358.886" cy="281.566" r="6.76257"/>
</g>
<g fill="black">
<circle cx="363.685" cy="278.825" r="6.76257"/>
</g>
<g fill="black">
<circle cx="368.485" cy="276.489" r="6.76257"/>
</g>
<g fill="black">
<circle cx="373.284" cy="275.991" r="6.76257"/>
</g>
<g fill="black">
<circle cx="378.083" cy="275.778" r="6.76257"/>
</g>
<g fill="black">
<circle cx="382.882" cy="269.069" r="6.76257"/>
</g>
<g fill="black">
<circle cx="387.682" cy="270.431" r="6.76257"/>
</g>
<g fill="black">
<circle cx="392.481" cy="265.759" r="6.76257"/>
</g>
<g fill="black">
<circle cx="397.28" cy="265.193" r="6.76257"/>
</g>
<g fill="black">
<circle cx="402.079" cy="259.954" r="6.76257"/>
</g>
<g fill="black">
<circle cx="406.879" cy="257.254" r="6.76257"/>
</g>
<g fill="black">
<circle cx="411.678" cy="254.474" r="6.76257"/>
</g>
<g fill="black">
<circle cx="416.477" cy="252.324" r="6.76257"/>
</g>
<g fill="black">
<circle cx="421.276" cy="249.044" r="6.76257"/>
</g>
<g fill="black">
<circle cx="426.076" cy="248.811" r="6.76257"/>
</g>
<g fill="black">
<circle cx="430.875" cy="245.784" r="6.76257"/>
</g>
<g fill="black">
<circle cx="435.674" cy="241.405" r="6.76257"/>
</g>
<g fill="black">
<circle cx="440.473" cy="241.159" r="6.76257"/>
</g>
<g fill="black">
<circle cx="445.273" cy="238.33" r="6.76257"/>
</g>
<g fill="black">
<circle cx="450.072" cy="239.131" r="6.76257"/>
</g>
<g fill="black">
<circle cx="454.871" cy="231.777" r="6.76257"/>
</g>
<g fill="black">
<circle cx="459.671" cy="234.391" r="6.76257"/>
</g>
<g fill="black">
<circle cx="464.47" cy="230.002" r="6.76257"/>
</g>
<g fill="black">
<circle cx="469.269" cy="228.948" r="6.76257"/>
</g>
<g fill="black">
<circle cx="474.068" cy="224.633" r="6.76257"/>
</g>
<g fill="black">
<circle cx="478.867" cy="227.046" r="6.76257"/>
</g>
<g fill="black">
<circle cx="483.667" cy="216.59" r="6.76257"/>
</g>
<g fill="black">
<circle cx="488.466" cy="216.449" r="6.76257"/>
</g>
<g fill="black">
<circle cx="493.265" cy="215.194" r="6.76257"/>
</g>
<g fill="black">
<circle cx="498.065" cy="211.416" r="6.76257"/>
</g>
<g fill="black">
<circle cx="502.864" cy="215.391" r="6.76257"/>
</g>
<g fill="black">
<circle cx="507.663" cy="213.02" r="6.76257"/>
</g>
<g fill="black">
<circle cx="512.462" cy="211.209" r="6.76257"/>
</g>
<g fill="black">
<circle cx="517.262" cy="208.108" r="6.76257"/>
</g>
<g fill="black">
<circle cx="522.061" cy="203.504" r="6.76257"/>
</g>
<g fill="black">
<circle cx="526.86" cy="202.949" r="6.76257"/>
</g>
<g fill="black">
<circle cx="531.659" cy="200.609" r="6.76257"/>
</g>
<g fill="black">
<circle cx="536.458" cy="198.665" r="6.76257"/>
</g>
<g fill="black">
<circle cx="541.258" cy="197.15" r="6.76257"/>
</g>
<g fill="black">
<circle cx="546.057" cy="198.833" r="6.76257"/>
</g>
<path d="M68.5315,498.064h 484.724" fill="none" stroke="black"/>
<path d="M68.5315,483.869v 14.1948" fill="none" stroke="black"/>
<path d="M83.5292,490.966v 7.09741" fill="none" stroke="black"/>
<path d="M98.5268,490.966v 7.09741" fill="none" stroke="black"/>
<path d="M113.524,490.966v 7.09741" fill="none" stroke="black"/>
<path d="M128.522,483.869v 14.1948" fill="none" stroke="black"/>
<path d="M143.52,490.966v 7.09741" fill="none" stroke="black"/>
<path d="M158.517,490.966v 7.09741" fill="none" stroke="black"/>
<path d="M173.515,490.966v 7.09741" fill="none" stroke="black"/>
<path d="M188.513,483.869v 14.1948" fill="none" stroke="black"/>
<path d="M203.51,490.966v 7.09741" fill="none" stroke="black"/>
<path d="M218.508,490.966v 7.09741" fill="none" stroke="black"/>
<path d="M233.506,490.966v 7.09741" fill="none" stroke="black"/>
<path d="M248.503,483.869v 14.1948" fill="none" stroke="black"/>
<path d="M263.501,490.966v 7.09741" fill="none" stroke="black"/>
<path d="M278.499,490.966v 7.09741" fill="none" stroke="black"/>
<path d="M293.496,490.966v 7.09741" fill="none" stroke="black"/>
<path d="M308.494,483.869v 14.1948" fill="none" stroke="black"/>
<path d="M323.492,490.966v 7.09741" fill="none" stroke="black"/>
<path d="M338.489,490.966v 7.09741" fill="none" stroke="black"/>
<path d="M353.487,490.966v 7.09741" fill="none" stroke="black"/>
<path d="M368.485,483.869v 14.1948" fill="none" stroke="black"/>
<path d="M383.482,490.966v 7.09741" fill="none" stroke="black"/>
<path d="M398.48,490.966v 7.09741" fill="none" stroke="black"/>
<path d="M413.478,490.966v 7.09741" fill="none" stroke="black"/>
<path d="M428.475,483.869v 14.1948" fill="none" stroke="black"/>
<path d="M443.473,490.966v 7.09741" fill="none" stroke="black"/>
<path d="M458.471,490.966v 7.09741" fill="none" stroke="black"/>
<path d="M473.468,490.966v 7.09741" fill="none" stroke="black"/>
<path d="M488.466,483.869v 14.1948" fill="none" stroke="black"/>
<path d="M503.464,490.966v 7.09741" fill="none" stroke="black"/>
<path d="M518.461,490.966v 7.09741" fill="none" stroke="black"/>
<path d="M533.459,490.966v 7.09741" fill="none" stroke="black"/>
<path d="M548.457,483.869v 14.1948" fill="none" stroke="black"/>
<path d="M548.457,483.869v 14.1948" fill="none" stroke="black"/>
<text xml:space="preserve" x="63.6174" y="513.956" fill="black" font-size="16.0105" font-family="Helvetica">0</text>
<text xml:space="preserve" x="117.718" y="513.956" fill="black" font-size="16.0105" font-family="Helvetica">0.2</text>
<text xml:space="preserve" x="177.454" y="513.956" fill="black" font-size="16.0105" font-family="Helvetica">0.4</text>
<text xml:space="preserve" x="237.754" y="513.956" fill="black" font-size="16.0105" font-family="Helvetica">0.6</text>
<text xml:space="preserve" x="297.49" y="513.956" fill="black" font-size="16.0105" font-family="Helvetica">0.8</text>
<text xml:space="preserve" x="365.115" y="513.956" fill="black" font-size="16.0105" font-family="Helvetica">1</text>
<text xml:space="preserve" x="417.525" y="513.956" fill="black" font-size="16.0105" font-family="Helvetica">1.2</text>
<text xml:space="preserve" x="477.261" y="513.956" fill="black" font-size="16.0105" font-family="Helvetica">1.4</text>
<text xml:space="preserve" x="537.561" y="513.956" fill="black" font-size="16.0105" font-family="Helvetica">1.6</text>
<text xml:space="preserve" x="548.268" y="537.625" fill="black" font-size="16.0105" font-family="Helvetica">)</text>
<text xml:space="preserve" x="542.633" y="532.553" fill="black" font-size="10.8403" font-family="Helvetica">2</text>
<text xml:space="preserve" x="533.616" y="537.625" fill="black" font-size="16.0105" font-family="Helvetica" font-style="oblique">c</text>
<text xml:space="preserve" x="487.405" y="537.625" fill="black" font-size="16.0105" font-family="Helvetica"> (GeV/</text>
<text xml:space="preserve" x="473.317" y="542.697" fill="black" font-size="10.8403" font-family="Helvetica">inv</text>
<text xml:space="preserve" x="459.792" y="537.625" fill="black" font-size="16.0105" font-family="Helvetica" font-style="oblique">m</text>
<path d="M68.5315,16.6021h 484.724" fill="none" stroke="black"/>
<path d="M68.5315,30.7969v -14.1948" fill="none" stroke="black"/>
<path d="M83.5292,23.6995v -7.09741" fill="none" stroke="black"/>
<path d="M98.5268,23.6995v -7.09741" fill="none" stroke="black"/>
<path d="M113.524,23.6995v -7.09741" fill="none" stroke="black"/>
<path d="M128.522,30.7969v -14.1948" fill="none" stroke="black"/>
<path d="M143.52,23.6995v -7.09741" fill="none" stroke="black"/>
<path d="M158.517,23.6995v -7.09741" fill="none" stroke="black"/>
<path d="M173.515,23.6995v -7.09741" fill="none" stroke="black"/>
<path d="M188.513,30.7969v -14.1948" fill="none" stroke="black"/>
<path d="M203.51,23.6995v -7.09741" fill="none" stroke="black"/>
<path d="M218.508,23.6995v -7.09741" fill="none" stroke="black"/>
<path d="M233.506,23.6995v -7.09741" fill="none" stroke="black"/>
<path d="M248.503,30.7969v -14.1948" fill="none" stroke="black"/>
<path d="M263.501,23.6995v -7.09741" fill="none" stroke="black"/>
<path d="M278.499,23.6995v -7.09741" fill="none" stroke="black"/>
<path d="M293.496,23.6995v -7.09741" fill="none" stroke="black"/>
<path d="M308.494,30.7969v -14.1948" fill="none" stroke="black"/>
<path d="M323.492,23.6995v -7.09741" fill="none" stroke="black"/>
<path d="M338.489,23.6995v -7.09741" fill="none" stroke="black"/>
<path d="M353.487,23.6995v -7.09741" fill="none" stroke="black"/>
<path d="M368.485,30.7969v -14.1948" fill="none" stroke="black"/>
<path d="M383.482,23.6995v -7.09741" fill="none" stroke="black"/>
<path d="M398.48,23.6995v -7.09741" fill="none" stroke="black"/>
<path d="M413.478,23.6995v -7.09741" fill="none" stroke="black"/>
<path d="M428.475,30.7969v -14.1948" fill="none" stroke="black"/>
<path d="M443.473,23.6995v -7.09741" fill="none" stroke="black"/>
<path d="M458.471,23.6995v -7.09741" fill="none" stroke="black"/>
<path d="M473.468,23.6995v -7.09741" fill="none" stroke="black"/>
<path d="M488.466,30.7969v -14.1948" fill="none" stroke="black"/>
<path d="M503.464,23.6995v -7.09741" fill="none" stroke="black"/>
<path d="M518.461,23.6995v -7.09741" fill="none" stroke="black"/>
<path d="M533.459,23.6995v -7.09741" fill="none" stroke="black"/>
<path d="M548.457,30.7969v -14.1948" fill="none" stroke="black"/>
<path d="M548.457,30.7969v -14.1948" fill="none" stroke="black"/>
<path d="M68.5315,498.064v -481.461" fill="none" stroke="black"/>
<path d="M83.3283,498.064h -14.7969" fill="none" stroke="black"/>
<path d="M75.9299,483.37h -7.39843" fill="none" stroke="black"/>
<path d="M75.9299,468.676h -7.39843" fill="none" stroke="black"/>
<path d="M75.9299,453.982h -7.39843" fill="none" stroke="black"/>
<path d="M75.9299,439.288h -7.39843" fill="none" stroke="black"/>
<path d="M83.3283,424.594h -14.7969" fill="none" stroke="black"/>
<path d="M75.9299,409.9h -7.39843" fill="none" stroke="black"/>
<path d="M75.9299,395.206h -7.39843" fill="none" stroke="black"/>
<path d="M75.9299,380.512h -7.39843" fill="none" stroke="black"/>
<path d="M75.9299,365.818h -7.39843" fill="none" stroke="black"/>
<path d="M83.3283,351.124h -14.7969" fill="none" stroke="black"/>
<path d="M75.9299,336.43h -7.39843" fill="none" stroke="black"/>
<path d="M75.9299,321.736h -7.39843" fill="none" stroke="black"/>
<path d="M75.9299,307.042h -7.39843" fill="none" stroke="black"/>
<path d="M75.9299,292.348h -7.39843" fill="none" stroke="black"/>
<path d="M83.3283,277.655h -14.7969" fill="none" stroke="black"/>
<path d="M75.9299,262.961h -7.39843" fill="none" stroke="black"/>
<path d="M75.9299,248.267h -7.39843" fill="none" stroke="black"/>
<path d="M75.9299,233.573h -7.39843" fill="none" stroke="black"/>
<path d="M75.9299,218.879h -7.39843" fill="none" stroke="black"/>
<path d="M83.3283,204.185h -14.7969" fill="none" stroke="black"/>
<path d="M75.9299,189.491h -7.39843" fill="none" stroke="black"/>
<path d="M75.9299,174.797h -7.39843" fill="none" stroke="black"/>
<path d="M75.9299,160.103h -7.39843" fill="none" stroke="black"/>
<path d="M75.9299,145.409h -7.39843" fill="none" stroke="black"/>
<path d="M83.3283,130.715h -14.7969" fill="none" stroke="black"/>
<path d="M75.9299,116.021h -7.39843" fill="none" stroke="black"/>
<path d="M75.9299,101.327h -7.39843" fill="none" stroke="black"/>
<path d="M75.9299,86.6333h -7.39843" fill="none" stroke="black"/>
<path d="M75.9299,71.9394h -7.39843" fill="none" stroke="black"/>
<path d="M83.3283,57.2455h -14.7969" fill="none" stroke="black"/>
<path d="M83.3283,57.2455h -14.7969" fill="none" stroke="black"/>
<path d="M75.9299,42.5515h -7.39843" fill="none" stroke="black"/>
<path d="M75.9299,27.8576h -7.39843" fill="none" stroke="black"/>
<text xml:space="preserve" x="56.8548" y="503.248" fill="black" font-size="16.0105" font-family="Helvetica">0</text>
<text xml:space="preserve" x="46.1474" y="429.987" fill="black" font-size="16.0105" font-family="Helvetica">0.1</text>
<text xml:space="preserve" x="43.8932" y="356.726" fill="black" font-size="16.0105" font-family="Helvetica">0.2</text>
<text xml:space="preserve" x="43.8932" y="282.901" fill="black" font-size="16.0105" font-family="Helvetica">0.3</text>
<text xml:space="preserve" x="43.8932" y="209.64" fill="black" font-size="16.0105" font-family="Helvetica">0.4</text>
<text xml:space="preserve" x="43.8932" y="135.815" fill="black" font-size="16.0105" font-family="Helvetica">0.5</text>
<text xml:space="preserve" x="43.8932" y="62.5538" fill="black" font-size="16.0105" font-family="Helvetica">0.6</text>
<g transform="rotate(-90,38.2577,98.0573)">
<text xml:space="preserve" x="38.2577" y="98.0573" fill="black" font-size="16.0105" font-family="Helvetica">background</text>
</g>
<g transform="rotate(-90,21.9148,98.0573)">
<text xml:space="preserve" x="21.9148" y="98.0573" fill="black" font-size="16.0105" font-family="Helvetica">same event</text>
</g>
<path d="M24.169,98.0573l 0.563548, -81.7144" fill="none" stroke="black" stroke-width="2"/>
<path d="M553.256,498.064v -481.461" fill="none" stroke="black"/>
<path d="M538.459,498.064h 14.7969" fill="none" stroke="black"/>
<path d="M545.857,483.37h 7.39843" fill="none" stroke="black"/>
<path d="M545.857,468.676h 7.39843" fill="none" stroke="black"/>
<path d="M545.857,453.982h 7.39843" fill="none" stroke="black"/>
<path d="M545.857,439.288h 7.39843" fill="none" stroke="black"/>
<path d="M538.459,424.594h 14.7969" fill="none" stroke="black"/>
<path d="M545.857,409.9h 7.39843" fill="none" stroke="black"/>
<path d="M545.857,395.206h 7.39843" fill="none" stroke="black"/>
<path d="M545.857,380.512h 7.39843" fill="none" stroke="black"/>
<path d="M545.857,365.818h 7.39843" fill="none" stroke="black"/>
<path d="M538.459,351.124h 14.7969" fill="none" stroke="black"/>
<path d="M545.857,336.43h 7.39843" fill="none" stroke="black"/>
<path d="M545.857,321.736h 7.39843" fill="none" stroke="black"/>
<path d="M545.857,307.042h 7.39843" fill="none" stroke="black"/>
<path d="M545.857,292.348h 7.39843" fill="none" stroke="black"/>
<path d="M538.459,277.655h 14.7969" fill="none" stroke="black"/>
<path d="M545.857,262.961h 7.39843" fill="none" stroke="black"/>
<path d="M545.857,248.267h 7.39843" fill="none" stroke="black"/>
<path d="M545.857,233.573h 7.39843" fill="none" stroke="black"/>
<path d="M545.857,218.879h 7.39843" fill="none" stroke="black"/>
<path d="M538.459,204.185h 14.7969" fill="none" stroke="black"/>
<path d="M545.857,189.491h 7.39843" fill="none" stroke="black"/>
<path d="M545.857,174.797h 7.39843" fill="none" stroke="black"/>
<path d="M545.857,160.103h 7.39843" fill="none" stroke="black"/>
<path d="M545.857,145.409h 7.39843" fill="none" stroke="black"/>
<path d="M538.459,130.715h 14.7969" fill="none" stroke="black"/>
<path d="M545.857,116.021h 7.39843" fill="none" stroke="black"/>
<path d="M545.857,101.327h 7.39843" fill="none" stroke="black"/>
<path d="M545.857,86.6333h 7.39843" fill="none" stroke="black"/>
<path d="M545.857,71.9394h 7.39843" fill="none" stroke="black"/>
<path d="M538.459,57.2455h 14.7969" fill="none" stroke="black"/>
<path d="M538.459,57.2455h 14.7969" fill="none" stroke="black"/>
<path d="M545.857,42.5515h 7.39843" fill="none" stroke="black"/>
<path d="M545.857,27.8576h 7.39843" fill="none" stroke="black"/>
<g stroke="#333333" stroke-width="2" fill="none">
<circle cx="282.098" cy="321.307" r="5.63548"/>
</g>
<g stroke="#333333" stroke-width="2" fill="none">
<circle cx="286.897" cy="320.31" r="5.63548"/>
</g>
<g stroke="#333333" stroke-width="2" fill="none">
<circle cx="291.697" cy="315.921" r="5.63548"/>
</g>
<g stroke="#333333" stroke-width="2" fill="none">
<circle cx="296.496" cy="312.147" r="5.63548"/>
</g>
<g stroke="#333333" stroke-width="2" fill="none">
<circle cx="301.295" cy="312.263" r="5.63548"/>
</g>
<g stroke="#333333" stroke-width="2" fill="none">
<circle cx="306.094" cy="308.486" r="5.63548"/>
</g>
<g stroke="#333333" stroke-width="2" fill="none">
<circle cx="310.894" cy="306.25" r="5.63548"/>
</g>
<g stroke="#333333" stroke-width="2" fill="none">
<circle cx="315.693" cy="304.955" r="5.63548"/>
</g>
<g stroke="#333333" stroke-width="2" fill="none">
<circle cx="320.492" cy="302.239" r="5.63548"/>
</g>
<g stroke="#333333" stroke-width="2" fill="none">
<circle cx="325.291" cy="302.567" r="5.63548"/>
</g>
<g stroke="#333333" stroke-width="2" fill="none">
<circle cx="330.091" cy="298.953" r="5.63548"/>
</g>
<g stroke="#333333" stroke-width="2" fill="none">
<circle cx="334.89" cy="296.332" r="5.63548"/>
</g>
<path d="M98.7518,394.799l 0.44993, -0.194884l 0.44993, -0.194884l 0.44993, -0.194884l 0.44993, -0.194884l 0.44993, -0.194884l 0.44993, -0.194884l 0.44993, -0.194884l 0.44993, -0.194884l 0.44993, -0.194884l 0.44993, -0.194884l 0.44993, -0.194884l
 0.44993, -0.194884l 0.44993, -0.194884l 0.44993, -0.194884l 0.44993, -0.194884l 0.44993, -0.194884l 0.44993, -0.194884l 0.44993, -0.194884l 0.44993, -0.194884l 0.44993, -0.194884l 0.44993, -0.194884l 0.44993, -0.194884l 0.44993, -0.194884l 0.44993,
 -0.194884l 0.44993, -0.194884l 0.44993, -0.194884l 0.44993, -0.194884l 0.44993, -0.194884l 0.44993, -0.194884l 0.44993, -0.194884l 0.44993, -0.194884l 0.44993, -0.194884l 0.44993, -0.194884l 0.44993, -0.194884l 0.44993, -0.194884l 0.44993,
 -0.194884l 0.44993, -0.194884l 0.44993, -0.194884l 0.44993, -0.194884l 0.44993, -0.194884l 0.44993, -0.194884l 0.44993, -0.194884l 0.44993, -0.194884l 0.44993, -0.194884l 0.44993, -0.194884l 0.44993, -0.194884l 0.44993, -0.194884l 0.44993,
 -0.194884l 0.44993, -0.194884" fill="none" stroke="#33cccc" stroke-width="3"/>
<path d="M120.798,385.25l 0.44993, -0.194884l 0.44993, -0.194884l 0.44993, -0.194884l 0.44993, -0.194884l 0.44993, -0.194884l 0.44993, -0.194884l 0.44993, -0.194884l 0.44993, -0.194884l 0.44993, -0.194884l 0.44993, -0.194884l 0.44993, -0.194884l
 0.44993, -0.194884l 0.44993, -0.194884l 0.44993, -0.194884l 0.44993, -0.194884l 0.44993, -0.194884l 0.44993, -0.194884l 0.44993, -0.194884l 0.44993, -0.194884l 0.44993, -0.194884l 0.44993, -0.194884l 0.44993, -0.194884l 0.44993, -0.194884l 0.44993,
 -0.194884l 0.44993, -0.194884l 0.44993, -0.194884l 0.44993, -0.194884l 0.44993, -0.194884l 0.44993, -0.194884l 0.44993, -0.194884l 0.44993, -0.194884l 0.44993, -0.194884l 0.44993, -0.194884l 0.44993, -0.194884l 0.44993, -0.194884l 0.44993,
 -0.194884l 0.44993, -0.194884l 0.44993, -0.194884l 0.44993, -0.194884l 0.44993, -0.194884l 0.44993, -0.194884l 0.44993, -0.194884l 0.44993, -0.194884l 0.44993, -0.194884l 0.44993, -0.194884l 0.44993, -0.194884l 0.44993, -0.194884l 0.44993,
 -0.194884l 0.44993, -0.194884" fill="none" stroke="#33cccc" stroke-width="3"/>
<path d="M142.845,375.701l 0.44993, -0.194884l 0.44993, -0.194884l 0.44993, -0.194884l 0.44993, -0.194884l 0.44993, -0.194884l 0.44993, -0.194884l 0.44993, -0.194884l 0.44993, -0.194884l 0.44993, -0.194884l 0.44993, -0.194884l 0.44993, -0.194884l
 0.44993, -0.194884l 0.44993, -0.194884l 0.44993, -0.194884l 0.44993, -0.194884l 0.44993, -0.194884l 0.44993, -0.194884l 0.44993, -0.194884l 0.44993, -0.194884l 0.44993, -0.194884l 0.44993, -0.194884l 0.44993, -0.194884l 0.44993, -0.194884l 0.44993,
 -0.194884l 0.44993, -0.194884l 0.44993, -0.194884l 0.44993, -0.194884l 0.44993, -0.194884l 0.44993, -0.194884l 0.44993, -0.194884l 0.44993, -0.194884l 0.44993, -0.194884l 0.44993, -0.194884l 0.44993, -0.194884l 0.44993, -0.194884l 0.44993,
 -0.194884l 0.44993, -0.194884l 0.44993, -0.194884l 0.44993, -0.194884l 0.44993, -0.194884l 0.44993, -0.194884l 0.44993, -0.194884l 0.44993, -0.194884l 0.44993, -0.194884l 0.44993, -0.194884l 0.44993, -0.194884l 0.44993, -0.194884l 0.44993,
 -0.194884l 0.44993, -0.194884" fill="none" stroke="#33cccc" stroke-width="3"/>
<path d="M164.891,366.151l 0.44993, -0.194884l 0.44993, -0.194884l 0.44993, -0.194884l 0.44993, -0.194884l 0.44993, -0.194884l 0.44993, -0.194884l 0.44993, -0.194884l 0.44993, -0.194884l 0.44993, -0.194884l 0.44993, -0.194884l 0.44993, -0.194884l
 0.44993, -0.194884l 0.44993, -0.194884l 0.44993, -0.194884l 0.44993, -0.194884l 0.44993, -0.194884l 0.44993, -0.194884l 0.44993, -0.194884l 0.44993, -0.194884l 0.44993, -0.194884l 0.44993, -0.194884l 0.44993, -0.194884l 0.44993, -0.194884l 0.44993,
 -0.194884l 0.44993, -0.194884l 0.44993, -0.194884l 0.44993, -0.194884l 0.44993, -0.194884l 0.44993, -0.194884l 0.44993, -0.194884l 0.44993, -0.194884l 0.44993, -0.194884l 0.44993, -0.194884l 0.44993, -0.194884l 0.44993, -0.194884l 0.44993,
 -0.194884l 0.44993, -0.194884l 0.44993, -0.194884l 0.44993, -0.194884l 0.44993, -0.194884l 0.44993, -0.194884l 0.44993, -0.194884l 0.44993, -0.194884l 0.44993, -0.194884l 0.44993, -0.194884l 0.44993, -0.194884l 0.44993, -0.194884l 0.44993,
 -0.194884l 0.44993, -0.194884" fill="none" stroke="#33cccc" stroke-width="3"/>
<path d="M186.938,356.602l 0.44993, -0.194884l 0.44993, -0.194884l 0.44993, -0.194884l 0.44993, -0.194884l 0.44993, -0.194884l 0.44993, -0.194884l 0.44993, -0.194884l 0.44993, -0.194884l 0.44993, -0.194884l 0.44993, -0.194884l 0.44993, -0.194884l
 0.44993, -0.194884l 0.44993, -0.194884l 0.44993, -0.194884l 0.44993, -0.194884l 0.44993, -0.194884l 0.44993, -0.194884l 0.44993, -0.194884l 0.44993, -0.194884l 0.44993, -0.194884l 0.44993, -0.194884l 0.44993, -0.194884l 0.44993, -0.194884l 0.44993,
 -0.194884l 0.44993, -0.194884l 0.44993, -0.194884l 0.44993, -0.194884l 0.44993, -0.194884l 0.44993, -0.194884l 0.44993, -0.194884l 0.44993, -0.194884l 0.44993, -0.194884l 0.44993, -0.194884l 0.44993, -0.194884l 0.44993, -0.194884l 0.44993,
 -0.194884l 0.44993, -0.194884l 0.44993, -0.194884l 0.44993, -0.194884l 0.44993, -0.194884l 0.44993, -0.194884l 0.44993, -0.194884l 0.44993, -0.194884l 0.44993, -0.194884l 0.44993, -0.194884l 0.44993, -0.194884l 0.44993, -0.194884l 0.44993,
 -0.194884l 0.44993, -0.194884" fill="none" stroke="#33cccc" stroke-width="3"/>
<path d="M208.985,347.053l 0.44993, -0.194884l 0.44993, -0.194884l 0.44993, -0.194884l 0.44993, -0.194884l 0.44993, -0.194884l 0.44993, -0.194884l 0.44993, -0.194884l 0.44993, -0.194884l 0.44993, -0.194884l 0.44993, -0.194884l 0.44993, -0.194884l
 0.44993, -0.194884l 0.44993, -0.194884l 0.44993, -0.194884l 0.44993, -0.194884l 0.44993, -0.194884l 0.44993, -0.194884l 0.44993, -0.194884l 0.44993, -0.194884l 0.44993, -0.194884l 0.44993, -0.194884l 0.44993, -0.194884l 0.44993, -0.194884l 0.44993,
 -0.194884l 0.44993, -0.194884l 0.44993, -0.194884l 0.44993, -0.194884l 0.44993, -0.194884l 0.44993, -0.194884l 0.44993, -0.194884l 0.44993, -0.194884l 0.44993, -0.194884l 0.44993, -0.194884l 0.44993, -0.194884l 0.44993, -0.194884l 0.44993,
 -0.194884l 0.44993, -0.194884l 0.44993, -0.194884l 0.44993, -0.194884l 0.44993, -0.194884l 0.44993, -0.194884l 0.44993, -0.194884l 0.44993, -0.194884l 0.44993, -0.194884l 0.44993, -0.194884l 0.44993, -0.194884l 0.44993, -0.194884l 0.44993,
 -0.194884l 0.44993, -0.194884" fill="none" stroke="#33cccc" stroke-width="3"/>
<path d="M231.031,337.503l 0.44993, -0.194884l 0.44993, -0.194884l 0.44993, -0.194884l 0.44993, -0.194884l 0.44993, -0.194884l 0.44993, -0.194884l 0.44993, -0.194884l 0.44993, -0.194884l 0.44993, -0.194884l 0.44993, -0.194884l 0.44993, -0.194884l
 0.44993, -0.194884l 0.44993, -0.194884l 0.44993, -0.194884l 0.44993, -0.194884l 0.44993, -0.194884l 0.44993, -0.194884l 0.44993, -0.194884l 0.44993, -0.194884l 0.44993, -0.194884l 0.44993, -0.194884l 0.44993, -0.194884l 0.44993, -0.194884l 0.44993,
 -0.194884l 0.44993, -0.194884l 0.44993, -0.194884l 0.44993, -0.194884l 0.44993, -0.194884l 0.44993, -0.194884l 0.44993, -0.194884l 0.44993, -0.194884l 0.44993, -0.194884l 0.44993, -0.194884l 0.44993, -0.194884l 0.44993, -0.194884l 0.44993,
 -0.194884l 0.44993, -0.194884l 0.44993, -0.194884l 0.44993, -0.194884l 0.44993, -0.194884l 0.44993, -0.194884l 0.44993, -0.194884l 0.44993, -0.194884l 0.44993, -0.194884l 0.44993, -0.194884l 0.44993, -0.194884l 0.44993, -0.194884l 0.44993,
 -0.194884l 0.44993, -0.194884" fill="none" stroke="#33cccc" stroke-width="3"/>
<path d="M253.078,327.954l 0.44993, -0.194884l 0.44993, -0.194884l 0.44993, -0.194884l 0.44993, -0.194884l 0.44993, -0.194884l 0.44993, -0.194884l 0.44993, -0.194884l 0.44993, -0.194884l 0.44993, -0.194884l 0.44993, -0.194884l 0.44993, -0.194884l
 0.44993, -0.194884l 0.44993, -0.194884l 0.44993, -0.194884l 0.44993, -0.194884l 0.44993, -0.194884l 0.44993, -0.194884l 0.44993, -0.194884l 0.44993, -0.194884l 0.44993, -0.194884l 0.44993, -0.194884l 0.44993, -0.194884l 0.44993, -0.194884l 0.44993,
 -0.194884l 0.44993, -0.194884l 0.44993, -0.194884l 0.44993, -0.194884l 0.44993, -0.194884l 0.44993, -0.194884l 0.44993, -0.194884l 0.44993, -0.194884l 0.44993, -0.194884l 0.44993, -0.194884l 0.44993, -0.194884l 0.44993, -0.194884l 0.44993,
 -0.194884l 0.44993, -0.194884l 0.44993, -0.194884l 0.44993, -0.194884l 0.44993, -0.194884l 0.44993, -0.194884l 0.44993, -0.194884l 0.44993, -0.194884l 0.44993, -0.194884l 0.44993, -0.194884l 0.44993, -0.194884l 0.44993, -0.194884l 0.44993,
 -0.194884l 0.44993, -0.194884" fill="none" stroke="#33cccc" stroke-width="3"/>
<path d="M275.124,318.405l 0.44993, -0.194884l 0.44993, -0.194884l 0.44993, -0.194884l 0.44993, -0.194884l 0.44993, -0.194884l 0.44993, -0.194884l 0.44993, -0.194884l 0.44993, -0.194884l 0.44993, -0.194884l 0.44993, -0.194884l 0.44993, -0.194884l
 0.44993, -0.194884l 0.44993, -0.194884l 0.44993, -0.194884l 0.44993, -0.194884l 0.44993, -0.194884l 0.44993, -0.194884l 0.44993, -0.194884l 0.44993, -0.194884l 0.44993, -0.194884l 0.44993, -0.194884l 0.44993, -0.194884l 0.44993, -0.194884l 0.44993,
 -0.194884l 0.44993, -0.194884l 0.44993, -0.194884l 0.44993, -0.194884l 0.44993, -0.194884l 0.44993, -0.194884l 0.44993, -0.194884l 0.44993, -0.194884l 0.44993, -0.194884l 0.44993, -0.194884l 0.44993, -0.194884l 0.44993, -0.194884l 0.44993,
 -0.194884l 0.44993, -0.194884l 0.44993, -0.194884l 0.44993, -0.194884l 0.44993, -0.194884l 0.44993, -0.194884l 0.44993, -0.194884l 0.44993, -0.194884l 0.44993, -0.194884l 0.44993, -0.194884l 0.44993, -0.194884l 0.44993, -0.194884l 0.44993,
 -0.194884l 0.44993, -0.194884" fill="none" stroke="#33cccc" stroke-width="3"/>
<path d="M297.171,308.856l 0.44993, -0.194884l 0.44993, -0.194884l 0.44993, -0.194884l 0.44993, -0.194884l 0.44993, -0.194884l 0.44993, -0.194884l 0.44993, -0.194884l 0.44993, -0.194884l 0.44993, -0.194884l 0.44993, -0.194884l 0.44993, -0.194884l
 0.44993, -0.194884l 0.44993, -0.194884l 0.44993, -0.194884l 0.44993, -0.194884l 0.44993, -0.194884l 0.44993, -0.194884l 0.44993, -0.194884l 0.44993, -0.194884l 0.44993, -0.194884l 0.44993, -0.194884l 0.44993, -0.194884l 0.44993, -0.194884l 0.44993,
 -0.194884l 0.44993, -0.194884l 0.44993, -0.194884l 0.44993, -0.194884l 0.44993, -0.194884l 0.44993, -0.194884l 0.44993, -0.194884l 0.44993, -0.194884l 0.44993, -0.194884l 0.44993, -0.194884l 0.44993, -0.194884l 0.44993, -0.194884l 0.44993,
 -0.194884l 0.44993, -0.194884l 0.44993, -0.194884l 0.44993, -0.194884l 0.44993, -0.194884l 0.44993, -0.194884l 0.44993, -0.194884l 0.44993, -0.194884l 0.44993, -0.194884l 0.44993, -0.194884l 0.44993, -0.194884l 0.44993, -0.194884l 0.44993,
 -0.194884l 0.44993, -0.194884" fill="none" stroke="#33cccc" stroke-width="3"/>
<path d="M319.217,299.306l 0.44993, -0.194884l 0.44993, -0.194884l 0.44993, -0.194884l 0.44993, -0.194884l 0.44993, -0.194884l 0.44993, -0.194884l 0.44993, -0.194884l 0.44993, -0.194884l 0.44993, -0.194884l 0.44993, -0.194884l 0.44993, -0.194884l
 0.44993, -0.194884l 0.44993, -0.194884l 0.44993, -0.194884l 0.44993, -0.194884l 0.44993, -0.194884l 0.44993, -0.194884l 0.44993, -0.194884l 0.44993, -0.194884l 0.44993, -0.194884l 0.44993, -0.194884l 0.44993, -0.194884l 0.44993, -0.194884l 0.44993,
 -0.194884l 0.44993, -0.194884l 0.44993, -0.194884l 0.44993, -0.194884l 0.44993, -0.194884l 0.44993, -0.194884l 0.44993, -0.194884l 0.44993, -0.194884l 0.44993, -0.194884l 0.44993, -0.194884l 0.44993, -0.194884l 0.44993, -0.194884l 0.44993,
 -0.194884l 0.44993, -0.194884l 0.44993, -0.194884l 0.44993, -0.194884l 0.44993, -0.194884l 0.44993, -0.194884l 0.44993, -0.194884l 0.44993, -0.194884l 0.44993, -0.194884l 0.44993, -0.194884l 0.44993, -0.194884l 0.44993, -0.194884l 0.44993,
 -0.194884l 0.44993, -0.194884" fill="none" stroke="#33cccc" stroke-width="3"/>
<path d="M341.264,289.757l 0.44993, -0.194884l 0.44993, -0.194884l 0.44993, -0.194884l 0.44993, -0.194884l 0.44993, -0.194884l 0.44993, -0.194884l 0.44993, -0.194884l 0.44993, -0.194884l 0.44993, -0.194884l 0.44993, -0.194884l 0.44993, -0.194884l
 0.44993, -0.194884l 0.44993, -0.194884l 0.44993, -0.194884l 0.44993, -0.194884l 0.44993, -0.194884l 0.44993, -0.194884l 0.44993, -0.194884l 0.44993, -0.194884l 0.44993, -0.194884l 0.44993, -0.194884l 0.44993, -0.194884l 0.44993, -0.194884l 0.44993,
 -0.194884l 0.44993, -0.194884l 0.44993, -0.194884l 0.44993, -0.194884l 0.44993, -0.194884l 0.44993, -0.194884l 0.44993, -0.194884l 0.44993, -0.194884l 0.44993, -0.194884l 0.44993, -0.194884l 0.44993, -0.194884l 0.44993, -0.194884l 0.44993,
 -0.194884l 0.44993, -0.194884l 0.44993, -0.194884l 0.44993, -0.194884l 0.44993, -0.194884l 0.44993, -0.194884l 0.44993, -0.194884l 0.44993, -0.194884l 0.44993, -0.194884l 0.44993, -0.194884l 0.44993, -0.194884l 0.44993, -0.194884l 0.44993,
 -0.194884l 0.44993, -0.194884" fill="none" stroke="#33cccc" stroke-width="3"/>
<path d="M363.311,280.208l 0.44993, -0.194884l 0.44993, -0.194884l 0.44993, -0.194884l 0.44993, -0.194884l 0.44993, -0.194884l 0.44993, -0.194884l 0.44993, -0.194884l 0.44993, -0.194884l 0.44993, -0.194884l 0.44993, -0.194884l 0.44993, -0.194884l
 0.44993, -0.194884l 0.44993, -0.194884l 0.44993, -0.194884l 0.44993, -0.194884l 0.44993, -0.194884l 0.44993, -0.194884l 0.44993, -0.194884l 0.44993, -0.194884l 0.44993, -0.194884l 0.44993, -0.194884l 0.44993, -0.194884l 0.44993, -0.194884l 0.44993,
 -0.194884l 0.44993, -0.194884l 0.44993, -0.194884l 0.44993, -0.194884l 0.44993, -0.194884l 0.44993, -0.194884l 0.44993, -0.194884l 0.44993, -0.194884l 0.44993, -0.194884l 0.44993, -0.194884l 0.44993, -0.194884l 0.44993, -0.194884l 0.44993,
 -0.194884l 0.44993, -0.194884l 0.44993, -0.194884l 0.44993, -0.194884l 0.44993, -0.194884l 0.44993, -0.194884l 0.44993, -0.194884l 0.44993, -0.194884l 0.44993, -0.194884l 0.44993, -0.194884l 0.44993, -0.194884l 0.44993, -0.194884l 0.44993,
 -0.194884l 0.44993, -0.194884" fill="none" stroke="#33cccc" stroke-width="3"/>
<path d="M385.357,270.658l 0.44993, -0.194884l 0.44993, -0.194884l 0.44993, -0.194884l 0.44993, -0.194884l 0.44993, -0.194884l 0.44993, -0.194884l 0.44993, -0.194884l 0.44993, -0.194884l 0.44993, -0.194884l 0.44993, -0.194884l 0.44993, -0.194884l
 0.44993, -0.194884l 0.44993, -0.194884l 0.44993, -0.194884l 0.44993, -0.194884l 0.44993, -0.194884l 0.44993, -0.194884l 0.44993, -0.194884l 0.44993, -0.194884l 0.44993, -0.194884l 0.44993, -0.194884l 0.44993, -0.194884l 0.44993, -0.194884l 0.44993,
 -0.194884l 0.44993, -0.194884l 0.44993, -0.194884l 0.44993, -0.194884l 0.44993, -0.194884l 0.44993, -0.194884l 0.44993, -0.194884l 0.44993, -0.194884l 0.44993, -0.194884l 0.44993, -0.194884l 0.44993, -0.194884l 0.44993, -0.194884l 0.44993,
 -0.194884l 0.44993, -0.194884l 0.44993, -0.194884l 0.44993, -0.194884l 0.44993, -0.194884l 0.44993, -0.194884l 0.44993, -0.194884l 0.44993, -0.194884l 0.44993, -0.194884l 0.44993, -0.194884l 0.44993, -0.194884l 0.44993, -0.194884l 0.44993,
 -0.194884l 0.44993, -0.194884" fill="none" stroke="#33cccc" stroke-width="3"/>
<path d="M407.404,261.109l 0.44993, -0.194884l 0.44993, -0.194884l 0.44993, -0.194884l 0.44993, -0.194884l 0.44993, -0.194884l 0.44993, -0.194884l 0.44993, -0.194884l 0.44993, -0.194884l 0.44993, -0.194884l 0.44993, -0.194884l 0.44993, -0.194884l
 0.44993, -0.194884l 0.44993, -0.194884l 0.44993, -0.194884l 0.44993, -0.194884l 0.44993, -0.194884l 0.44993, -0.194884l 0.44993, -0.194884l 0.44993, -0.194884l 0.44993, -0.194884l 0.44993, -0.194884l 0.44993, -0.194884l 0.44993, -0.194884l 0.44993,
 -0.194884l 0.44993, -0.194884l 0.44993, -0.194884l 0.44993, -0.194884l 0.44993, -0.194884l 0.44993, -0.194884l 0.44993, -0.194884l 0.44993, -0.194884l 0.44993, -0.194884l 0.44993, -0.194884l 0.44993, -0.194884l 0.44993, -0.194884l 0.44993,
 -0.194884l 0.44993, -0.194884l 0.44993, -0.194884l 0.44993, -0.194884l 0.44993, -0.194884l 0.44993, -0.194884l 0.44993, -0.194884l 0.44993, -0.194884l 0.44993, -0.194884l 0.44993, -0.194884l 0.44993, -0.194884l 0.44993, -0.194884l 0.44993,
 -0.194884l 0.44993, -0.194884" fill="none" stroke="#33cccc" stroke-width="3"/>
<path d="M429.45,251.56l 0.44993, -0.194884l 0.44993, -0.194884l 0.44993, -0.194884l 0.44993, -0.194884l 0.44993, -0.194884l 0.44993, -0.194884l 0.44993, -0.194884l 0.44993, -0.194884l 0.44993, -0.194884l 0.44993, -0.194884l 0.44993, -0.194884l
 0.44993, -0.194884l 0.44993, -0.194884l 0.44993, -0.194884l 0.44993, -0.194884l 0.44993, -0.194884l 0.44993, -0.194884l 0.44993, -0.194884l 0.44993, -0.194884l 0.44993, -0.194884l 0.44993, -0.194884l 0.44993, -0.194884l 0.44993, -0.194884l 0.44993,
 -0.194884l 0.44993, -0.194884l 0.44993, -0.194884l 0.44993, -0.194884l 0.44993, -0.194884l 0.44993, -0.194884l 0.44993, -0.194884l 0.44993, -0.194884l 0.44993, -0.194884l 0.44993, -0.194884l 0.44993, -0.194884l 0.44993, -0.194884l 0.44993,
 -0.194884l 0.44993, -0.194884l 0.44993, -0.194884l 0.44993, -0.194884l 0.44993, -0.194884l 0.44993, -0.194884l 0.44993, -0.194884l 0.44993, -0.194884l 0.44993, -0.194884l 0.44993, -0.194884l 0.44993, -0.194884l 0.44993, -0.194884l 0.44993,
 -0.194884l 0.44993, -0.194884" fill="none" stroke="#33cccc" stroke-width="3"/>
<path d="M451.497,242.011l 0.44993, -0.194884l 0.44993, -0.194884l 0.44993, -0.194884l 0.44993, -0.194884l 0.44993, -0.194884l 0.44993, -0.194884l 0.44993, -0.194884l 0.44993, -0.194884l 0.44993, -0.194884l 0.44993, -0.194884l 0.44993, -0.194884l
 0.44993, -0.194884l 0.44993, -0.194884l 0.44993, -0.194884l 0.44993, -0.194884l 0.44993, -0.194884l 0.44993, -0.194884l 0.44993, -0.194884l 0.44993, -0.194884l 0.44993, -0.194884l 0.44993, -0.194884l 0.44993, -0.194884l 0.44993, -0.194884l 0.44993,
 -0.194884l 0.44993, -0.194884l 0.44993, -0.194884l 0.44993, -0.194884l 0.44993, -0.194884l 0.44993, -0.194884l 0.44993, -0.194884l 0.44993, -0.194884l 0.44993, -0.194884l 0.44993, -0.194884l 0.44993, -0.194884l 0.44993, -0.194884l 0.44993,
 -0.194884l 0.44993, -0.194884l 0.44993, -0.194884l 0.44993, -0.194884l 0.44993, -0.194884l 0.44993, -0.194884l 0.44993, -0.194884l 0.44993, -0.194884l 0.44993, -0.194884l 0.44993, -0.194884l 0.44993, -0.194884l 0.44993, -0.194884l 0.44993,
 -0.194884l 0.44993, -0.194884" fill="none" stroke="#33cccc" stroke-width="3"/>
<path d="M473.543,232.461l 0.44993, -0.194884l 0.44993, -0.194884l 0.44993, -0.194884l 0.44993, -0.194884l 0.44993, -0.194884l 0.44993, -0.194884l 0.44993, -0.194884l 0.44993, -0.194884l 0.44993, -0.194884l 0.44993, -0.194884l 0.44993, -0.194884l
 0.44993, -0.194884l 0.44993, -0.194884l 0.44993, -0.194884l 0.44993, -0.194884l 0.44993, -0.194884l 0.44993, -0.194884l 0.44993, -0.194884l 0.44993, -0.194884l 0.44993, -0.194884l 0.44993, -0.194884l 0.44993, -0.194884l 0.44993, -0.194884l 0.44993,
 -0.194884l 0.44993, -0.194884l 0.44993, -0.194884l 0.44993, -0.194884l 0.44993, -0.194884l 0.44993, -0.194884l 0.44993, -0.194884l 0.44993, -0.194884l 0.44993, -0.194884l 0.44993, -0.194884l 0.44993, -0.194884l 0.44993, -0.194884l 0.44993,
 -0.194884l 0.44993, -0.194884l 0.44993, -0.194884l 0.44993, -0.194884l 0.44993, -0.194884l 0.44993, -0.194884l 0.44993, -0.194884l 0.44993, -0.194884l 0.44993, -0.194884l 0.44993, -0.194884l 0.44993, -0.194884l 0.44993, -0.194884l 0.44993,
 -0.194884l 0.44993, -0.194884" fill="none" stroke="#33cccc" stroke-width="3"/>
<path d="M495.59,222.912l 0.44993, -0.194884l 0.44993, -0.194884l 0.44993, -0.194884l 0.44993, -0.194884l 0.44993, -0.194884l 0.44993, -0.194884l 0.44993, -0.194884l 0.44993, -0.194884l 0.44993, -0.194884l 0.44993, -0.194884l 0.44993, -0.194884l
 0.44993, -0.194884l 0.44993, -0.194884l 0.44993, -0.194884l 0.44993, -0.194884l 0.44993, -0.194884l 0.44993, -0.194884l 0.44993, -0.194884l 0.44993, -0.194884l 0.44993, -0.194884l 0.44993, -0.194884l 0.44993, -0.194884l 0.44993, -0.194884l 0.44993,
 -0.194884l 0.44993, -0.194884l 0.44993, -0.194884l 0.44993, -0.194884l 0.44993, -0.194884l 0.44993, -0.194884l 0.44993, -0.194884l 0.44993, -0.194884l 0.44993, -0.194884l 0.44993, -0.194884l 0.44993, -0.194884l 0.44993, -0.194884l 0.44993,
 -0.194884l 0.44993, -0.194884l 0.44993, -0.194884l 0.44993, -0.194884l 0.44993, -0.194884l 0.44993, -0.194884l 0.44993, -0.194884l 0.44993, -0.194884l 0.44993, -0.194884l 0.44993, -0.194884l 0.44993, -0.194884l 0.44993, -0.194884l 0.44993,
 -0.194884l 0.44993, -0.194884" fill="none" stroke="#33cccc" stroke-width="3"/>
<path d="M517.636,213.363l 0.44993, -0.194884l 0.44993, -0.194884l 0.44993, -0.194884l 0.44993, -0.194884l 0.44993, -0.194884l 0.44993, -0.194884l 0.44993, -0.194884l 0.44993, -0.194884l 0.44993, -0.194884l 0.44993, -0.194884l 0.44993, -0.194884l
 0.44993, -0.194884l 0.44993, -0.194884l 0.44993, -0.194884l 0.44993, -0.194884l 0.44993, -0.194884l 0.44993, -0.194884l 0.44993, -0.194884l 0.44993, -0.194884l 0.44993, -0.194884l 0.44993, -0.194884l 0.44993, -0.194884l 0.44993, -0.194884l 0.44993,
 -0.194884l 0.44993, -0.194884l 0.44993, -0.194884l 0.44993, -0.194884l 0.44993, -0.194884l 0.44993, -0.194884l 0.44993, -0.194884l 0.44993, -0.194884l 0.44993, -0.194884l 0.44993, -0.194884l 0.44993, -0.194884l 0.44993, -0.194884l 0.44993,
 -0.194884l 0.44993, -0.194884l 0.44993, -0.194884l 0.44993, -0.194884l 0.44993, -0.194884l 0.44993, -0.194884l 0.44993, -0.194884l 0.44993, -0.194884l 0.44993, -0.194884l 0.44993, -0.194884l 0.44993, -0.194884l 0.44993, -0.194884l 0.44993,
 -0.194884l 0.44993, -0.194884" fill="none" stroke="#33cccc" stroke-width="3"/>
<path d="M539.683,203.813l 0.44993, -0.194884l 0.44993, -0.194884l 0.44993, -0.194884l 0.44993, -0.194884l 0.44993, -0.194884l 0.44993, -0.194884l 0.44993, -0.194884l 0.44993, -0.194884l 0.44993, -0.194884l 0.44993, -0.194884l 0.44993, -0.194884l
 0.44993, -0.194884l 0.44993, -0.194884l 0.44993, -0.194884l 0.44993, -0.194884l 0.44993, -0.194884l 0.44993, -0.194884l 0.44993, -0.194884l 0.44993, -0.194884" fill="none" stroke="#33cccc" stroke-width="3"/>
<path d="M98.7518,361.563l 0.44993, -0.0300024l 0.44993, -0.0303446l 0.44993, -0.0306867l 0.44993, -0.0310289l 0.44993, -0.031371l 0.44993, -0.0317132l 0.44993, -0.0320553l 0.44993, -0.0323974l 0.44993, -0.0327396l 0.44993, -0.0330817l 0.44993,
 -0.0334239l 0.44993, -0.033766l 0.44993, -0.0341082l 0.44993, -0.0344503l 0.44993, -0.0347924l 0.44993, -0.0351346l 0.44993, -0.0354767l 0.44993, -0.0358189l 0.44993, -0.036161l 0.44993, -0.0365032l 0.44993, -0.0368453l 0.44993, -0.0371875l 0.44993,
 -0.0375296l 0.44993, -0.0378717l 0.44993, -0.0382139l 0.44993, -0.038556l 0.44993, -0.0388982l 0.44993, -0.0392403l 0.44993, -0.0395825l 0.44993, -0.0399246l 0.44993, -0.0402668l 0.44993, -0.0406089l 0.44993, -0.040951l 0.44993, -0.0412932l 0.44993,
 -0.0416353l 0.44993, -0.0419775l 0.44993, -0.0423196l 0.44993, -0.0426618l 0.44993, -0.0430039l 0.44993, -0.0433461l 0.44993, -0.0436882l 0.44993, -0.0440303l 0.44993, -0.0443725l 0.44993, -0.0447146l 0.44993, -0.0450568l 0.44993, -0.0453989l
 0.44993, -0.0457411l 0.44993, -0.0460832l 0.44993, -0.0464254" fill="none" stroke="#ff0066" stroke-width="3"/>
<path d="M120.798,359.691l 0.44993, -0.0467675l 0.44993, -0.0471096l 0.44993, -0.0474518l 0.44993, -0.0477939l 0.44993, -0.0481361l 0.44993, -0.0484782l 0.44993, -0.0488204l 0.44993, -0.0491625l 0.44993, -0.0495046l 0.44993, -0.0498468l 0.44993,
 -0.0501889l 0.44993, -0.0505311l 0.44993, -0.0508732l 0.44993, -0.0512154l 0.44993, -0.0515575l 0.44993, -0.0518997l 0.44993, -0.0522418l 0.44993, -0.0525839l 0.44993, -0.0529261l 0.44993, -0.0532682l 0.44993, -0.0536104l 0.44993, -0.0539525l
 0.44993, -0.0542947l 0.44993, -0.0546368l 0.44993, -0.054979l 0.44993, -0.0553211l 0.44993, -0.0556632l 0.44993, -0.0560054l 0.44993, -0.0563475l 0.44993, -0.0566897l 0.44993, -0.0570318l 0.44993, -0.057374l 0.44993, -0.0577161l 0.44993, -0.0580583l
 0.44993, -0.0584004l 0.44993, -0.0587425l 0.44993, -0.0590847l 0.44993, -0.0594268l 0.44993, -0.059769l 0.44993, -0.0601111l 0.44993, -0.0604533l 0.44993, -0.0607954l 0.44993, -0.0611375l 0.44993, -0.0614797l 0.44993, -0.0618218l 0.44993, -0.062164l
 0.44993, -0.0625061l 0.44993, -0.0628483l 0.44993, -0.0631904" fill="none" stroke="#ff0066" stroke-width="3"/>
<path d="M142.845,356.997l 0.44993, -0.0635326l 0.44993, -0.0638747l 0.44993, -0.0642168l 0.44993, -0.064559l 0.44993, -0.0649011l 0.44993, -0.0652433l 0.44993, -0.0655854l 0.44993, -0.0659276l 0.44993, -0.0662697l 0.44993, -0.0666119l 0.44993,
 -0.066954l 0.44993, -0.0672961l 0.44993, -0.0676383l 0.44993, -0.0679804l 0.44993, -0.0683226l 0.44993, -0.0686647l 0.44993, -0.0690069l 0.44993, -0.069349l 0.44993, -0.0696912l 0.44993, -0.0700333l 0.44993, -0.0703754l 0.44993, -0.0707176l 0.44993,
 -0.0710597l 0.44993, -0.0714019l 0.44993, -0.071744l 0.44993, -0.0720862l 0.44993, -0.0724283l 0.44993, -0.0727705l 0.44993, -0.0731126l 0.44993, -0.0734547l 0.44993, -0.0737969l 0.44993, -0.074139l 0.44993, -0.0744812l 0.44993, -0.0748233l 0.44993,
 -0.0751655l 0.44993, -0.0755076l 0.44993, -0.0758497l 0.44993, -0.0761919l 0.44993, -0.076534l 0.44993, -0.0768762l 0.44993, -0.0772183l 0.44993, -0.0775605l 0.44993, -0.0779026l 0.44993, -0.0782448l 0.44993, -0.0785869l 0.44993, -0.078929l 0.44993,
 -0.0792712l 0.44993, -0.0796133l 0.44993, -0.0799555" fill="none" stroke="#ff0066" stroke-width="3"/>
<path d="M164.891,353.481l 0.44993, -0.0802976l 0.44993, -0.0806398l 0.44993, -0.0809819l 0.44993, -0.0813241l 0.44993, -0.0816662l 0.44993, -0.0820083l 0.44993, -0.0823505l 0.44993, -0.0826926l 0.44993, -0.0830348l 0.44993, -0.0833769l 0.44993,
 -0.0837191l 0.44993, -0.0840612l 0.44993, -0.0844034l 0.44993, -0.0847455l 0.44993, -0.0850876l 0.44993, -0.0854298l 0.44993, -0.0857719l 0.44993, -0.0861141l 0.44993, -0.0864562l 0.44993, -0.0867984l 0.44993, -0.0871405l 0.44993, -0.0874827l
 0.44993, -0.0878248l 0.44993, -0.0881669l 0.44993, -0.0885091l 0.44993, -0.0888512l 0.44993, -0.0891934l 0.44993, -0.0895355l 0.44993, -0.0898777l 0.44993, -0.0902198l 0.44993, -0.0905619l 0.44993, -0.0909041l 0.44993, -0.0912462l 0.44993,
 -0.0915884l 0.44993, -0.0919305l 0.44993, -0.0922727l 0.44993, -0.0926148l 0.44993, -0.092957l 0.44993, -0.0932991l 0.44993, -0.0936412l 0.44993, -0.0939834l 0.44993, -0.0943255l 0.44993, -0.0946677l 0.44993, -0.0950098l 0.44993, -0.095352l 0.44993,
 -0.0956941l 0.44993, -0.0960363l 0.44993, -0.0963784l 0.44993, -0.0967205" fill="none" stroke="#ff0066" stroke-width="3"/>
<path d="M186.938,349.144l 0.44993, -0.0970627l 0.44993, -0.0974048l 0.44993, -0.097747l 0.44993, -0.0980891l 0.44993, -0.0984313l 0.44993, -0.0987734l 0.44993, -0.0991156l 0.44993, -0.0994577l 0.44993, -0.0997998l 0.44993, -0.100142l 0.44993,
 -0.100484l 0.44993, -0.100826l 0.44993, -0.101168l 0.44993, -0.101511l 0.44993, -0.101853l 0.44993, -0.102195l 0.44993, -0.102537l 0.44993, -0.102879l 0.44993, -0.103221l 0.44993, -0.103563l 0.44993, -0.103906l 0.44993, -0.104248l 0.44993, -0.10459l
 0.44993, -0.104932l 0.44993, -0.105274l 0.44993, -0.105616l 0.44993, -0.105958l 0.44993, -0.106301l 0.44993, -0.106643l 0.44993, -0.106985l 0.44993, -0.107327l 0.44993, -0.107669l 0.44993, -0.108011l 0.44993, -0.108353l 0.44993, -0.108696l 0.44993,
 -0.109038l 0.44993, -0.10938l 0.44993, -0.109722l 0.44993, -0.110064l 0.44993, -0.110406l 0.44993, -0.110748l 0.44993, -0.111091l 0.44993, -0.111433l 0.44993, -0.111775l 0.44993, -0.112117l 0.44993, -0.112459l 0.44993, -0.112801l 0.44993, -0.113143l
 0.44993, -0.113486" fill="none" stroke="#ff0066" stroke-width="3"/>
<path d="M208.985,343.986l 0.44993, -0.113828l 0.44993, -0.11417l 0.44993, -0.114512l 0.44993, -0.114854l 0.44993, -0.115196l 0.44993, -0.115538l 0.44993, -0.115881l 0.44993, -0.116223l 0.44993, -0.116565l 0.44993, -0.116907l 0.44993, -0.117249l
 0.44993, -0.117591l 0.44993, -0.117933l 0.44993, -0.118276l 0.44993, -0.118618l 0.44993, -0.11896l 0.44993, -0.119302l 0.44993, -0.119644l 0.44993, -0.119986l 0.44993, -0.120328l 0.44993, -0.120671l 0.44993, -0.121013l 0.44993, -0.121355l 0.44993,
 -0.121697l 0.44993, -0.122039l 0.44993, -0.122381l 0.44993, -0.122724l 0.44993, -0.123066l 0.44993, -0.123408l 0.44993, -0.12375l 0.44993, -0.124092l 0.44993, -0.124434l 0.44993, -0.124776l 0.44993, -0.125119l 0.44993, -0.125461l 0.44993, -0.125803l
 0.44993, -0.126145l 0.44993, -0.126487l 0.44993, -0.126829l 0.44993, -0.127171l 0.44993, -0.127514l 0.44993, -0.127856l 0.44993, -0.128198l 0.44993, -0.12854l 0.44993, -0.128882l 0.44993, -0.129224l 0.44993, -0.129566l 0.44993, -0.129909l 0.44993,
 -0.130251" fill="none" stroke="#ff0066" stroke-width="3"/>
<path d="M231.031,338.006l 0.44993, -0.130593l 0.44993, -0.130935l 0.44993, -0.131277l 0.44993, -0.131619l 0.44993, -0.131961l 0.44993, -0.132304l 0.44993, -0.132646l 0.44993, -0.132988l 0.44993, -0.13333l 0.44993, -0.133672l 0.44993, -0.134014l
 0.44993, -0.134356l 0.44993, -0.134699l 0.44993, -0.135041l 0.44993, -0.135383l 0.44993, -0.135725l 0.44993, -0.136067l 0.44993, -0.136409l 0.44993, -0.136751l 0.44993, -0.137094l 0.44993, -0.137436l 0.44993, -0.137778l 0.44993, -0.13812l 0.44993,
 -0.138462l 0.44993, -0.138804l 0.44993, -0.139146l 0.44993, -0.139489l 0.44993, -0.139831l 0.44993, -0.140173l 0.44993, -0.140515l 0.44993, -0.140857l 0.44993, -0.141199l 0.44993, -0.141541l 0.44993, -0.141884l 0.44993, -0.142226l 0.44993,
 -0.142568l 0.44993, -0.14291l 0.44993, -0.143252l 0.44993, -0.143594l 0.44993, -0.143936l 0.44993, -0.144279l 0.44993, -0.144621l 0.44993, -0.144963l 0.44993, -0.145305l 0.44993, -0.145647l 0.44993, -0.145989l 0.44993, -0.146331l 0.44993, -0.146674l
 0.44993, -0.147016" fill="none" stroke="#ff0066" stroke-width="3"/>
<path d="M253.078,331.205l 0.44993, -0.147358l 0.44993, -0.1477l 0.44993, -0.148042l 0.44993, -0.148384l 0.44993, -0.148726l 0.44993, -0.149069l 0.44993, -0.149411l 0.44993, -0.149753l 0.44993, -0.150095l 0.44993, -0.150437l 0.44993, -0.150779l
 0.44993, -0.151121l 0.44993, -0.151464l 0.44993, -0.151806l 0.44993, -0.152148l 0.44993, -0.15249l 0.44993, -0.152832l 0.44993, -0.153174l 0.44993, -0.153516l 0.44993, -0.153859l 0.44993, -0.154201l 0.44993, -0.154543l 0.44993, -0.154885l 0.44993,
 -0.155227l 0.44993, -0.155569l 0.44993, -0.155911l 0.44993, -0.156254l 0.44993, -0.156596l 0.44993, -0.156938l 0.44993, -0.15728l 0.44993, -0.157622l 0.44993, -0.157964l 0.44993, -0.158306l 0.44993, -0.158649l 0.44993, -0.158991l 0.44993, -0.159333l
 0.44993, -0.159675l 0.44993, -0.160017l 0.44993, -0.160359l 0.44993, -0.160701l 0.44993, -0.161044l 0.44993, -0.161386l 0.44993, -0.161728l 0.44993, -0.16207l 0.44993, -0.162412l 0.44993, -0.162754l 0.44993, -0.163097l 0.44993, -0.163439l 0.44993,
 -0.163781" fill="none" stroke="#ff0066" stroke-width="3"/>
<path d="M275.124,323.582l 0.44993, -0.164123l 0.44993, -0.164465l 0.44993, -0.164807l 0.44993, -0.165149l 0.44993, -0.165492l 0.44993, -0.165834l 0.44993, -0.166176l 0.44993, -0.166518l 0.44993, -0.16686l 0.44993, -0.167202l 0.44993, -0.167544l
 0.44993, -0.167887l 0.44993, -0.168229l 0.44993, -0.168571l 0.44993, -0.168913l 0.44993, -0.169255l 0.44993, -0.169597l 0.44993, -0.169939l 0.44993, -0.170282l 0.44993, -0.170624l 0.44993, -0.170966l 0.44993, -0.171308l 0.44993, -0.17165l 0.44993,
 -0.171992l 0.44993, -0.172334l 0.44993, -0.172677l 0.44993, -0.173019l 0.44993, -0.173361l 0.44993, -0.173703l 0.44993, -0.174045l 0.44993, -0.174387l 0.44993, -0.174729l 0.44993, -0.175072l 0.44993, -0.175414l 0.44993, -0.175756l 0.44993,
 -0.176098l 0.44993, -0.17644l 0.44993, -0.176782l 0.44993, -0.177124l 0.44993, -0.177467l 0.44993, -0.177809l 0.44993, -0.178151l 0.44993, -0.178493l 0.44993, -0.178835l 0.44993, -0.179177l 0.44993, -0.179519l 0.44993, -0.179862l 0.44993, -0.180204l
 0.44993, -0.180546" fill="none" stroke="#ff0066" stroke-width="3"/>
<path d="M297.171,315.137l 0.44993, -0.180888l 0.44993, -0.18123l 0.44993, -0.181572l 0.44993, -0.181914l 0.44993, -0.182257l 0.44993, -0.182599l 0.44993, -0.182941l 0.44993, -0.183283l 0.44993, -0.183625l 0.44993, -0.183967l 0.44993, -0.184309l
 0.44993, -0.184652l 0.44993, -0.184994l 0.44993, -0.185336l 0.44993, -0.185678l 0.44993, -0.18602l 0.44993, -0.186362l 0.44993, -0.186704l 0.44993, -0.187047l 0.44993, -0.187389l 0.44993, -0.187731l 0.44993, -0.188073l 0.44993, -0.188415l 0.44993,
 -0.188757l 0.44993, -0.189099l 0.44993, -0.189442l 0.44993, -0.189784l 0.44993, -0.190126l 0.44993, -0.190468l 0.44993, -0.19081l 0.44993, -0.191152l 0.44993, -0.191494l 0.44993, -0.191837l 0.44993, -0.192179l 0.44993, -0.192521l 0.44993, -0.192863l
 0.44993, -0.193205l 0.44993, -0.193547l 0.44993, -0.193889l 0.44993, -0.194232l 0.44993, -0.194574l 0.44993, -0.194916l 0.44993, -0.195258l 0.44993, -0.1956l 0.44993, -0.195942l 0.44993, -0.196285l 0.44993, -0.196627l 0.44993, -0.196969l 0.44993,
 -0.197311" fill="none" stroke="#ff0066" stroke-width="3"/>
<path d="M319.217,305.871l 0.44993, -0.197653l 0.44993, -0.197995l 0.44993, -0.198337l 0.44993, -0.19868l 0.44993, -0.199022l 0.44993, -0.199364l 0.44993, -0.199706l 0.44993, -0.200048l 0.44993, -0.20039l 0.44993, -0.200732l 0.44993, -0.201075l
 0.44993, -0.201417l 0.44993, -0.201759l 0.44993, -0.202101l 0.44993, -0.202443l 0.44993, -0.202785l 0.44993, -0.203127l 0.44993, -0.20347l 0.44993, -0.203812l 0.44993, -0.204154l 0.44993, -0.204496l 0.44993, -0.204838l 0.44993, -0.20518l 0.44993,
 -0.205522l 0.44993, -0.205865l 0.44993, -0.206207l 0.44993, -0.206549l 0.44993, -0.206891l 0.44993, -0.207233l 0.44993, -0.207575l 0.44993, -0.207917l 0.44993, -0.20826l 0.44993, -0.208602l 0.44993, -0.208944l 0.44993, -0.209286l 0.44993, -0.209628l
 0.44993, -0.20997l 0.44993, -0.210312l 0.44993, -0.210655l 0.44993, -0.210997l 0.44993, -0.211339l 0.44993, -0.211681l 0.44993, -0.212023l 0.44993, -0.212365l 0.44993, -0.212707l 0.44993, -0.21305l 0.44993, -0.213392l 0.44993, -0.213734l 0.44993,
 -0.214076" fill="none" stroke="#ff0066" stroke-width="3"/>
<path d="M341.264,295.784l 0.44993, -0.214418l 0.44993, -0.21476l 0.44993, -0.215102l 0.44993, -0.215445l 0.44993, -0.215787l 0.44993, -0.216129l 0.44993, -0.216471l 0.44993, -0.216813l 0.44993, -0.217155l 0.44993, -0.217497l 0.44993, -0.21784l
 0.44993, -0.218182l 0.44993, -0.218524l 0.44993, -0.218866l 0.44993, -0.219208l 0.44993, -0.21955l 0.44993, -0.219892l 0.44993, -0.220235l 0.44993, -0.220577l 0.44993, -0.220919l 0.44993, -0.221261l 0.44993, -0.221603l 0.44993, -0.221945l 0.44993,
 -0.222287l 0.44993, -0.22263l 0.44993, -0.222972l 0.44993, -0.223314l 0.44993, -0.223656l 0.44993, -0.223998l 0.44993, -0.22434l 0.44993, -0.224682l 0.44993, -0.225025l 0.44993, -0.225367l 0.44993, -0.225709l 0.44993, -0.226051l 0.44993, -0.226393l
 0.44993, -0.226735l 0.44993, -0.227077l 0.44993, -0.22742l 0.44993, -0.227762l 0.44993, -0.228104l 0.44993, -0.228446l 0.44993, -0.228788l 0.44993, -0.22913l 0.44993, -0.229472l 0.44993, -0.229815l 0.44993, -0.230157l 0.44993, -0.230499l 0.44993,
 -0.230841" fill="none" stroke="#ff0066" stroke-width="3"/>
<path d="M363.311,284.875l 0.44993, -0.231183l 0.44993, -0.231525l 0.44993, -0.231867l 0.44993, -0.23221l 0.44993, -0.232552l 0.44993, -0.232894l 0.44993, -0.233236l 0.44993, -0.233578l 0.44993, -0.23392l 0.44993, -0.234262l 0.44993, -0.234605l
 0.44993, -0.234947l 0.44993, -0.235289l 0.44993, -0.235631l 0.44993, -0.235973l 0.44993, -0.236315l 0.44993, -0.236658l 0.44993, -0.237l 0.44993, -0.237342l 0.44993, -0.237684l 0.44993, -0.238026l 0.44993, -0.238368l 0.44993, -0.23871l 0.44993,
 -0.239053l 0.44993, -0.239395l 0.44993, -0.239737l 0.44993, -0.240079l 0.44993, -0.240421l 0.44993, -0.240763l 0.44993, -0.241105l 0.44993, -0.241448l 0.44993, -0.24179l 0.44993, -0.242132l 0.44993, -0.242474l 0.44993, -0.242816l 0.44993, -0.243158l
 0.44993, -0.2435l 0.44993, -0.243843l 0.44993, -0.244185l 0.44993, -0.244527l 0.44993, -0.244869l 0.44993, -0.245211l 0.44993, -0.245553l 0.44993, -0.245895l 0.44993, -0.246238l 0.44993, -0.24658l 0.44993, -0.246922l 0.44993, -0.247264l 0.44993,
 -0.247606" fill="none" stroke="#ff0066" stroke-width="3"/>
<path d="M385.357,273.145l 0.44993, -0.247948l 0.44993, -0.24829l 0.44993, -0.248633l 0.44993, -0.248975l 0.44993, -0.249317l 0.44993, -0.249659l 0.44993, -0.250001l 0.44993, -0.250343l 0.44993, -0.250685l 0.44993, -0.251028l 0.44993, -0.25137l
 0.44993, -0.251712l 0.44993, -0.252054l 0.44993, -0.252396l 0.44993, -0.252738l 0.44993, -0.25308l 0.44993, -0.253423l 0.44993, -0.253765l 0.44993, -0.254107l 0.44993, -0.254449l 0.44993, -0.254791l 0.44993, -0.255133l 0.44993, -0.255475l 0.44993,
 -0.255818l 0.44993, -0.25616l 0.44993, -0.256502l 0.44993, -0.256844l 0.44993, -0.257186l 0.44993, -0.257528l 0.44993, -0.25787l 0.44993, -0.258213l 0.44993, -0.258555l 0.44993, -0.258897l 0.44993, -0.259239l 0.44993, -0.259581l 0.44993, -0.259923l
 0.44993, -0.260265l 0.44993, -0.260608l 0.44993, -0.26095l 0.44993, -0.261292l 0.44993, -0.261634l 0.44993, -0.261976l 0.44993, -0.262318l 0.44993, -0.26266l 0.44993, -0.263003l 0.44993, -0.263345l 0.44993, -0.263687l 0.44993, -0.264029l 0.44993,
 -0.264371" fill="none" stroke="#ff0066" stroke-width="3"/>
<path d="M407.404,260.593l 0.44993, -0.264713l 0.44993, -0.265055l 0.44993, -0.265398l 0.44993, -0.26574l 0.44993, -0.266082l 0.44993, -0.266424l 0.44993, -0.266766l 0.44993, -0.267108l 0.44993, -0.26745l 0.44993, -0.267793l 0.44993, -0.268135l
 0.44993, -0.268477l 0.44993, -0.268819l 0.44993, -0.269161l 0.44993, -0.269503l 0.44993, -0.269845l 0.44993, -0.270188l 0.44993, -0.27053l 0.44993, -0.270872l 0.44993, -0.271214l 0.44993, -0.271556l 0.44993, -0.271898l 0.44993, -0.272241l 0.44993,
 -0.272583l 0.44993, -0.272925l 0.44993, -0.273267l 0.44993, -0.273609l 0.44993, -0.273951l 0.44993, -0.274293l 0.44993, -0.274636l 0.44993, -0.274978l 0.44993, -0.27532l 0.44993, -0.275662l 0.44993, -0.276004l 0.44993, -0.276346l 0.44993, -0.276688l
 0.44993, -0.277031l 0.44993, -0.277373l 0.44993, -0.277715l 0.44993, -0.278057l 0.44993, -0.278399l 0.44993, -0.278741l 0.44993, -0.279083l 0.44993, -0.279426l 0.44993, -0.279768l 0.44993, -0.28011l 0.44993, -0.280452l 0.44993, -0.280794l 0.44993,
 -0.281136" fill="none" stroke="#ff0066" stroke-width="3"/>
<path d="M429.45,247.22l 0.44993, -0.281478l 0.44993, -0.281821l 0.44993, -0.282163l 0.44993, -0.282505l 0.44993, -0.282847l 0.44993, -0.283189l 0.44993, -0.283531l 0.44993, -0.283873l 0.44993, -0.284216l 0.44993, -0.284558l 0.44993, -0.2849l
 0.44993, -0.285242l 0.44993, -0.285584l 0.44993, -0.285926l 0.44993, -0.286268l 0.44993, -0.286611l 0.44993, -0.286953l 0.44993, -0.287295l 0.44993, -0.287637l 0.44993, -0.287979l 0.44993, -0.288321l 0.44993, -0.288663l 0.44993, -0.289006l 0.44993,
 -0.289348l 0.44993, -0.28969l 0.44993, -0.290032l 0.44993, -0.290374l 0.44993, -0.290716l 0.44993, -0.291058l 0.44993, -0.291401l 0.44993, -0.291743l 0.44993, -0.292085l 0.44993, -0.292427l 0.44993, -0.292769l 0.44993, -0.293111l 0.44993, -0.293453l
 0.44993, -0.293796l 0.44993, -0.294138l 0.44993, -0.29448l 0.44993, -0.294822l 0.44993, -0.295164l 0.44993, -0.295506l 0.44993, -0.295848l 0.44993, -0.296191l 0.44993, -0.296533l 0.44993, -0.296875l 0.44993, -0.297217l 0.44993, -0.297559l 0.44993,
 -0.297901" fill="none" stroke="#ff0066" stroke-width="3"/>
<path d="M451.497,233.025l 0.44993, -0.298243l 0.44993, -0.298586l 0.44993, -0.298928l 0.44993, -0.29927l 0.44993, -0.299612l 0.44993, -0.299954l 0.44993, -0.300296l 0.44993, -0.300638l 0.44993, -0.300981l 0.44993, -0.301323l 0.44993, -0.301665l
 0.44993, -0.302007l 0.44993, -0.302349l 0.44993, -0.302691l 0.44993, -0.303033l 0.44993, -0.303376l 0.44993, -0.303718l 0.44993, -0.30406l 0.44993, -0.304402l 0.44993, -0.304744l 0.44993, -0.305086l 0.44993, -0.305429l 0.44993, -0.305771l 0.44993,
 -0.306113l 0.44993, -0.306455l 0.44993, -0.306797l 0.44993, -0.307139l 0.44993, -0.307481l 0.44993, -0.307824l 0.44993, -0.308166l 0.44993, -0.308508l 0.44993, -0.30885l 0.44993, -0.309192l 0.44993, -0.309534l 0.44993, -0.309876l 0.44993, -0.310219l
 0.44993, -0.310561l 0.44993, -0.310903l 0.44993, -0.311245l 0.44993, -0.311587l 0.44993, -0.311929l 0.44993, -0.312271l 0.44993, -0.312614l 0.44993, -0.312956l 0.44993, -0.313298l 0.44993, -0.31364l 0.44993, -0.313982l 0.44993, -0.314324l 0.44993,
 -0.314666" fill="none" stroke="#ff0066" stroke-width="3"/>
<path d="M473.543,218.009l 0.44993, -0.315009l 0.44993, -0.315351l 0.44993, -0.315693l 0.44993, -0.316035l 0.44993, -0.316377l 0.44993, -0.316719l 0.44993, -0.317061l 0.44993, -0.317404l 0.44993, -0.317746l 0.44993, -0.318088l 0.44993, -0.31843l
 0.44993, -0.318772l 0.44993, -0.319114l 0.44993, -0.319456l 0.44993, -0.319799l 0.44993, -0.320141l 0.44993, -0.320483l 0.44993, -0.320825l 0.44993, -0.321167l 0.44993, -0.321509l 0.44993, -0.321851l 0.44993, -0.322194l 0.44993, -0.322536l 0.44993,
 -0.322878l 0.44993, -0.32322l 0.44993, -0.323562l 0.44993, -0.323904l 0.44993, -0.324246l 0.44993, -0.324589l 0.44993, -0.324931l 0.44993, -0.325273l 0.44993, -0.325615l 0.44993, -0.325957l 0.44993, -0.326299l 0.44993, -0.326641l 0.44993, -0.326984l
 0.44993, -0.327326l 0.44993, -0.327668l 0.44993, -0.32801l 0.44993, -0.328352l 0.44993, -0.328694l 0.44993, -0.329036l 0.44993, -0.329379l 0.44993, -0.329721l 0.44993, -0.330063l 0.44993, -0.330405l 0.44993, -0.330747l 0.44993, -0.331089l 0.44993,
 -0.331431" fill="none" stroke="#ff0066" stroke-width="3"/>
<path d="M495.59,202.171l 0.44993, -0.331774l 0.44993, -0.332116l 0.44993, -0.332458l 0.44993, -0.3328l 0.44993, -0.333142l 0.44993, -0.333484l 0.44993, -0.333826l 0.44993, -0.334169l 0.44993, -0.334511l 0.44993, -0.334853l 0.44993, -0.335195l
 0.44993, -0.335537l 0.44993, -0.335879l 0.44993, -0.336221l 0.44993, -0.336564l 0.44993, -0.336906l 0.44993, -0.337248l 0.44993, -0.33759l 0.44993, -0.337932l 0.44993, -0.338274l 0.44993, -0.338616l 0.44993, -0.338959l 0.44993, -0.339301l 0.44993,
 -0.339643l 0.44993, -0.339985l 0.44993, -0.340327l 0.44993, -0.340669l 0.44993, -0.341011l 0.44993, -0.341354l 0.44993, -0.341696l 0.44993, -0.342038l 0.44993, -0.34238l 0.44993, -0.342722l 0.44993, -0.343064l 0.44993, -0.343406l 0.44993, -0.343749l
 0.44993, -0.344091l 0.44993, -0.344433l 0.44993, -0.344775l 0.44993, -0.345117l 0.44993, -0.345459l 0.44993, -0.345802l 0.44993, -0.346144l 0.44993, -0.346486l 0.44993, -0.346828l 0.44993, -0.34717l 0.44993, -0.347512l 0.44993, -0.347854l 0.44993,
 -0.348197" fill="none" stroke="#ff0066" stroke-width="3"/>
<path d="M517.636,185.512l 0.44993, -0.348539l 0.44993, -0.348881l 0.44993, -0.349223l 0.44993, -0.349565l 0.44993, -0.349907l 0.44993, -0.350249l 0.44993, -0.350592l 0.44993, -0.350934l 0.44993, -0.351276l 0.44993, -0.351618l 0.44993, -0.35196l
 0.44993, -0.352302l 0.44993, -0.352644l 0.44993, -0.352987l 0.44993, -0.353329l 0.44993, -0.353671l 0.44993, -0.354013l 0.44993, -0.354355l 0.44993, -0.354697l 0.44993, -0.355039l 0.44993, -0.355382l 0.44993, -0.355724l 0.44993, -0.356066l 0.44993,
 -0.356408l 0.44993, -0.35675l 0.44993, -0.357092l 0.44993, -0.357434l 0.44993, -0.357777l 0.44993, -0.358119l 0.44993, -0.358461l 0.44993, -0.358803l 0.44993, -0.359145l 0.44993, -0.359487l 0.44993, -0.359829l 0.44993, -0.360172l 0.44993, -0.360514l
 0.44993, -0.360856l 0.44993, -0.361198l 0.44993, -0.36154l 0.44993, -0.361882l 0.44993, -0.362224l 0.44993, -0.362567l 0.44993, -0.362909l 0.44993, -0.363251l 0.44993, -0.363593l 0.44993, -0.363935l 0.44993, -0.364277l 0.44993, -0.364619l 0.44993,
 -0.364962" fill="none" stroke="#ff0066" stroke-width="3"/>
<path d="M539.683,168.031l 0.44993, -0.365304l 0.44993, -0.365646l 0.44993, -0.365988l 0.44993, -0.36633l 0.44993, -0.366672l 0.44993, -0.367014l 0.44993, -0.367357l 0.44993, -0.367699l 0.44993, -0.368041l 0.44993, -0.368383l 0.44993, -0.368725l
 0.44993, -0.369067l 0.44993, -0.369409l 0.44993, -0.369752l 0.44993, -0.370094l 0.44993, -0.370436l 0.44993, -0.370778l 0.44993, -0.37112l 0.44993, -0.371462" fill="none" stroke="#ff0066" stroke-width="3"/>
<path d="M194.512,21.4167h 293.954" fill="none" stroke="#999999" stroke-width="7"/>
<text xml:space="preserve" x="360.607" y="50.7193" fill="black" font-size="16.0105" font-family="Helvetica"> with EMC</text>
<text xml:space="preserve" x="352.717" y="50.7193" fill="black" font-size="16.0105" font-family="Times">&#0947;</text>
<text xml:space="preserve" x="344.828" y="50.7193" fill="black" font-size="16.0105" font-family="Times">&#0947;</text>
<text xml:space="preserve" x="336.938" y="50.7193" fill="black" font-size="16.0105" font-family="Times">&#0947;</text>
<text xml:space="preserve" x="331.866" y="50.7193" fill="black" font-size="16.0105" font-family="Helvetica"> </text>
<text xml:space="preserve" x="316.65" y="50.7193" fill="black" font-size="16.0105" font-family="Times">&#8594;</text>
<text xml:space="preserve" x="311.578" y="50.7193" fill="black" font-size="16.0105" font-family="Helvetica"> </text>
<text xml:space="preserve" x="303.689" y="50.7193" fill="black" font-size="16.0105" font-family="Times">&#0947;</text>
<text xml:space="preserve" x="298.053" y="45.0838" fill="black" font-size="10.8403" font-family="Helvetica">0</text>
<text xml:space="preserve" x="289.6" y="50.7193" fill="black" font-size="16.0105" font-family="Times">&#0960;</text>
<text xml:space="preserve" x="284.528" y="50.7193" fill="black" font-size="16.0105" font-family="Helvetica"> </text>
<text xml:space="preserve" x="269.312" y="50.7193" fill="black" font-size="16.0105" font-family="Times">&#8594;</text>
<text xml:space="preserve" x="264.24" y="50.7193" fill="black" font-size="16.0105" font-family="Helvetica"> </text>
<text xml:space="preserve" x="252.969" y="50.7193" fill="black" font-size="16.0105" font-family="Times">&#0969;</text>
<text xml:space="preserve" x="128.989" y="50.7193" fill="black" font-size="16.0105" font-family="Helvetica"> = 13 TeV (EG1), </text>
<text xml:space="preserve" x="120.536" y="50.7193" fill="black" font-size="16.0105" font-family="Helvetica" font-style="oblique">s</text>
<path d="M114.9,41.7025l 1.69064, 9.58031" fill="none" stroke="black" stroke-width="2"/>
<path d="M116.591,51.2829l 2.25419, -14.0887" fill="none" stroke="black"/>
<path d="M118.845,37.1942h 10.1439" fill="none" stroke="black"/>
<text xml:space="preserve" x="89.5406" y="50.7193" fill="black" font-size="16.0105" font-family="Helvetica">pp </text>
<text xml:space="preserve" x="89.5406" y="85.6593" fill="black" font-size="16.0105" font-family="Helvetica">ALICE work in progress</text>
<text xml:space="preserve" x="214.085" y="120.599" fill="black" font-size="16.0105" font-family="Helvetica">) &lt; 12.0</text>
<text xml:space="preserve" x="205.068" y="120.599" fill="black" font-size="16.0105" font-family="Helvetica" font-style="oblique">c</text>
<text xml:space="preserve" x="154.912" y="120.599" fill="black" font-size="16.0105" font-family="Helvetica"> /(GeV/</text>
<text xml:space="preserve" x="148.15" y="128.489" fill="black" font-size="10.8403" font-family="Helvetica">T</text>
<text xml:space="preserve" x="138.569" y="120.599" fill="black" font-size="16.0105" font-family="Helvetica" font-style="oblique">p</text>
<text xml:space="preserve" x="133.497" y="120.599" fill="black" font-size="16.0105" font-family="Helvetica"> </text>
<text xml:space="preserve" x="125.044" y="120.599" fill="black" font-size="16.0105" font-family="Times">&#8804;</text>
<text xml:space="preserve" x="89.5406" y="120.599" fill="black" font-size="16.0105" font-family="Helvetica">10.0 </text>
<rect x="312.311" y="69.1755" width="198.425" height="113.448" fill="white"/>
<text xml:space="preserve" x="361.734" y="85.0957" fill="black" font-size="16.0105" font-family="Helvetica">ratio</text>
<path d="M319.752,80.5203h 34.7244" fill="none" stroke="black" stroke-width="2"/>
<g fill="black">
<circle cx="337.114" cy="80.5203" r="6.76257"/>
</g>
<text xml:space="preserve" x="361.734" y="108.201" fill="black" font-size="16.0105" font-family="Helvetica">peak range</text>
<path d="M319.752,103.21h 34.7244" fill="none" stroke="#333333" stroke-width="2"/>
<g stroke="#333333" stroke-width="2" fill="none">
<circle cx="337.114" cy="103.21" r="5.63548"/>
</g>
<text xml:space="preserve" x="361.734" y="130.743" fill="black" font-size="16.0105" font-family="Helvetica">background pol1</text>
<path d="M319.752,125.899h 34.7244" fill="none" stroke="#33cccc" stroke-width="3"/>
<text xml:space="preserve" x="361.734" y="153.285" fill="black" font-size="16.0105" font-family="Helvetica">background pol2</text>
<path d="M319.752,148.589h 34.7244" fill="none" stroke="#ff0066" stroke-width="3"/>
<text xml:space="preserve" x="361.734" y="175.827" fill="black" font-size="16.0105" font-family="Helvetica">param. range</text>
<path d="M319.752,171.279h 34.7244" fill="none" stroke="#999999" stroke-width="7"/></svg>
