<?xml version="1.0" standalone="no"?>
<svg width="567.429" height="553.904" viewBox="0 0 567.429 553.904" xmlns="http://www.w3.org/2000/svg" shape-rendering="crispEdges">
<title>
MC/EG1/OmegaTGPSPlusWOPS/Peaks_03.svg
</title>
<desc>
Creator: ROOT Version 6.20/08
CreationDate: Mon Mar 29 21:28:53 2021</desc>
<defs>
</defs>
<rect x="0.5" y="0" width="566.929" height="553.404" fill="white"/>
<rect x="57.1929" y="16.6021" width="496.063" height="481.461" fill="white"/>
<rect x="57.1929" y="16.6021" width="496.063" height="481.461" fill="none" stroke="black"/>
<rect x="57.1929" y="16.6021" width="496.063" height="481.461" fill="white"/>
<rect x="57.1929" y="16.6021" width="496.063" height="481.461" fill="none" stroke="black"/>
<g fill="black">
<circle cx="62.0563" cy="390.425" r="6.76257"/>
</g>
<g fill="black">
<circle cx="71.783" cy="391.318" r="6.76257"/>
</g>
<g fill="black">
<circle cx="81.5097" cy="401.511" r="6.76257"/>
</g>
<g fill="black">
<circle cx="91.2365" cy="390.974" r="6.76257"/>
</g>
<g fill="black">
<circle cx="100.963" cy="393.985" r="6.76257"/>
</g>
<g fill="black">
<circle cx="110.69" cy="392.954" r="6.76257"/>
</g>
<g fill="black">
<circle cx="120.417" cy="397.557" r="6.76257"/>
</g>
<g fill="black">
<circle cx="130.143" cy="398.802" r="6.76257"/>
</g>
<g fill="black">
<circle cx="139.87" cy="390.067" r="6.76257"/>
</g>
<g fill="black">
<circle cx="149.597" cy="391.978" r="6.76257"/>
</g>
<g fill="black">
<circle cx="159.324" cy="385.534" r="6.76257"/>
</g>
<g fill="black">
<circle cx="169.05" cy="386.312" r="6.76257"/>
</g>
<g fill="black">
<circle cx="178.777" cy="386.114" r="6.76257"/>
</g>
<g fill="black">
<circle cx="188.504" cy="376.788" r="6.76257"/>
</g>
<g fill="black">
<circle cx="198.23" cy="379.686" r="6.76257"/>
</g>
<g fill="black">
<circle cx="207.957" cy="376.626" r="6.76257"/>
</g>
<g fill="black">
<circle cx="217.684" cy="371.533" r="6.76257"/>
</g>
<g fill="black">
<circle cx="227.411" cy="344.358" r="6.76257"/>
</g>
<g fill="black">
<circle cx="237.137" cy="335.248" r="6.76257"/>
</g>
<g fill="black">
<circle cx="246.864" cy="316.594" r="6.76257"/>
</g>
<path d="M256.591,291.753v -1.29218" fill="none" stroke="black" stroke-width="2"/>
<path d="M256.591,276.936v -1.29218" fill="none" stroke="black" stroke-width="2"/>
<g fill="black">
<circle cx="256.591" cy="283.699" r="6.76257"/>
</g>
<path d="M266.318,268.438v -1.87855" fill="none" stroke="black" stroke-width="2"/>
<path d="M266.318,253.034v -1.87855" fill="none" stroke="black" stroke-width="2"/>
<g fill="black">
<circle cx="266.318" cy="259.797" r="6.76257"/>
</g>
<path d="M276.044,265.922v -1.82691" fill="none" stroke="black" stroke-width="2"/>
<path d="M276.044,250.57v -1.82691" fill="none" stroke="black" stroke-width="2"/>
<g fill="black">
<circle cx="276.044" cy="257.333" r="6.76257"/>
</g>
<path d="M285.771,284.112v -1.3322" fill="none" stroke="black" stroke-width="2"/>
<path d="M285.771,269.255v -1.3322" fill="none" stroke="black" stroke-width="2"/>
<g fill="black">
<circle cx="285.771" cy="276.017" r="6.76257"/>
</g>
<path d="M295.498,319.38v -0.00336829" fill="none" stroke="black" stroke-width="2"/>
<path d="M295.498,305.851v -0.00336829" fill="none" stroke="black" stroke-width="2"/>
<g fill="black">
<circle cx="295.498" cy="312.614" r="6.76257"/>
</g>
<g fill="black">
<circle cx="305.224" cy="349.376" r="6.76257"/>
</g>
<g fill="black">
<circle cx="314.951" cy="381.296" r="6.76257"/>
</g>
<g fill="black">
<circle cx="324.678" cy="387.968" r="6.76257"/>
</g>
<g fill="black">
<circle cx="334.405" cy="402.879" r="6.76257"/>
</g>
<g fill="black">
<circle cx="344.131" cy="408.531" r="6.76257"/>
</g>
<g fill="black">
<circle cx="353.858" cy="410.189" r="6.76257"/>
</g>
<g fill="black">
<circle cx="363.585" cy="410.09" r="6.76257"/>
</g>
<g fill="black">
<circle cx="373.311" cy="411.984" r="6.76257"/>
</g>
<g fill="black">
<circle cx="383.038" cy="415.153" r="6.76257"/>
</g>
<g fill="black">
<circle cx="392.765" cy="414.98" r="6.76257"/>
</g>
<g fill="black">
<circle cx="402.492" cy="415.359" r="6.76257"/>
</g>
<g fill="black">
<circle cx="412.218" cy="415.756" r="6.76257"/>
</g>
<g fill="black">
<circle cx="421.945" cy="416.698" r="6.76257"/>
</g>
<g fill="black">
<circle cx="431.672" cy="416.128" r="6.76257"/>
</g>
<g fill="black">
<circle cx="441.399" cy="417.306" r="6.76257"/>
</g>
<g fill="black">
<circle cx="451.125" cy="415.747" r="6.76257"/>
</g>
<g fill="black">
<circle cx="460.852" cy="414.834" r="6.76257"/>
</g>
<g fill="black">
<circle cx="470.579" cy="416.453" r="6.76257"/>
</g>
<g fill="black">
<circle cx="480.305" cy="416.888" r="6.76257"/>
</g>
<g fill="black">
<circle cx="490.032" cy="417.306" r="6.76257"/>
</g>
<g fill="black">
<circle cx="509.486" cy="417.384" r="6.76257"/>
</g>
<g fill="black">
<circle cx="519.212" cy="417.354" r="6.76257"/>
</g>
<path d="M57.1929,498.064h 496.063" fill="none" stroke="black"/>
<path d="M57.1929,483.537v 14.5269" fill="none" stroke="black"/>
<path d="M69.3513,490.8v 7.26343" fill="none" stroke="black"/>
<path d="M81.5097,490.8v 7.26343" fill="none" stroke="black"/>
<path d="M93.6681,490.8v 7.26343" fill="none" stroke="black"/>
<path d="M105.827,490.8v 7.26343" fill="none" stroke="black"/>
<path d="M117.985,483.537v 14.5269" fill="none" stroke="black"/>
<path d="M130.143,490.8v 7.26343" fill="none" stroke="black"/>
<path d="M142.302,490.8v 7.26343" fill="none" stroke="black"/>
<path d="M154.46,490.8v 7.26343" fill="none" stroke="black"/>
<path d="M166.619,490.8v 7.26343" fill="none" stroke="black"/>
<path d="M178.777,483.537v 14.5269" fill="none" stroke="black"/>
<path d="M190.935,490.8v 7.26343" fill="none" stroke="black"/>
<path d="M203.094,490.8v 7.26343" fill="none" stroke="black"/>
<path d="M215.252,490.8v 7.26343" fill="none" stroke="black"/>
<path d="M227.411,490.8v 7.26343" fill="none" stroke="black"/>
<path d="M239.569,483.537v 14.5269" fill="none" stroke="black"/>
<path d="M251.727,490.8v 7.26343" fill="none" stroke="black"/>
<path d="M263.886,490.8v 7.26343" fill="none" stroke="black"/>
<path d="M276.044,490.8v 7.26343" fill="none" stroke="black"/>
<path d="M288.203,490.8v 7.26343" fill="none" stroke="black"/>
<path d="M300.361,483.537v 14.5269" fill="none" stroke="black"/>
<path d="M312.519,490.8v 7.26343" fill="none" stroke="black"/>
<path d="M324.678,490.8v 7.26343" fill="none" stroke="black"/>
<path d="M336.836,490.8v 7.26343" fill="none" stroke="black"/>
<path d="M348.995,490.8v 7.26343" fill="none" stroke="black"/>
<path d="M361.153,483.537v 14.5269" fill="none" stroke="black"/>
<path d="M373.311,490.8v 7.26343" fill="none" stroke="black"/>
<path d="M385.47,490.8v 7.26343" fill="none" stroke="black"/>
<path d="M397.628,490.8v 7.26343" fill="none" stroke="black"/>
<path d="M409.787,490.8v 7.26343" fill="none" stroke="black"/>
<path d="M421.945,483.537v 14.5269" fill="none" stroke="black"/>
<path d="M434.104,490.8v 7.26343" fill="none" stroke="black"/>
<path d="M446.262,490.8v 7.26343" fill="none" stroke="black"/>
<path d="M458.42,490.8v 7.26343" fill="none" stroke="black"/>
<path d="M470.579,490.8v 7.26343" fill="none" stroke="black"/>
<path d="M482.737,483.537v 14.5269" fill="none" stroke="black"/>
<path d="M494.896,490.8v 7.26343" fill="none" stroke="black"/>
<path d="M507.054,490.8v 7.26343" fill="none" stroke="black"/>
<path d="M519.212,490.8v 7.26343" fill="none" stroke="black"/>
<path d="M531.371,490.8v 7.26343" fill="none" stroke="black"/>
<path d="M543.529,483.537v 14.5269" fill="none" stroke="black"/>
<path d="M543.529,483.537v 14.5269" fill="none" stroke="black"/>
<text xml:space="preserve" x="46.1474" y="513.956" fill="black" font-size="16.0105" font-family="Helvetica">0.4</text>
<text xml:space="preserve" x="107.011" y="513.956" fill="black" font-size="16.0105" font-family="Helvetica">0.5</text>
<text xml:space="preserve" x="167.874" y="513.956" fill="black" font-size="16.0105" font-family="Helvetica">0.6</text>
<text xml:space="preserve" x="228.737" y="513.956" fill="black" font-size="16.0105" font-family="Helvetica">0.7</text>
<text xml:space="preserve" x="289.6" y="513.956" fill="black" font-size="16.0105" font-family="Helvetica">0.8</text>
<text xml:space="preserve" x="349.9" y="513.956" fill="black" font-size="16.0105" font-family="Helvetica">0.9</text>
<text xml:space="preserve" x="418.652" y="513.956" fill="black" font-size="16.0105" font-family="Helvetica">1</text>
<text xml:space="preserve" x="472.753" y="513.956" fill="black" font-size="16.0105" font-family="Helvetica">1.1</text>
<text xml:space="preserve" x="532.489" y="513.956" fill="black" font-size="16.0105" font-family="Helvetica">1.2</text>
<text xml:space="preserve" x="548.268" y="537.625" fill="black" font-size="16.0105" font-family="Helvetica">)</text>
<text xml:space="preserve" x="542.633" y="532.553" fill="black" font-size="10.8403" font-family="Helvetica">2</text>
<text xml:space="preserve" x="533.616" y="537.625" fill="black" font-size="16.0105" font-family="Helvetica" font-style="oblique">c</text>
<text xml:space="preserve" x="487.405" y="537.625" fill="black" font-size="16.0105" font-family="Helvetica"> (GeV/</text>
<text xml:space="preserve" x="473.317" y="542.697" fill="black" font-size="10.8403" font-family="Helvetica">inv</text>
<text xml:space="preserve" x="459.792" y="537.625" fill="black" font-size="16.0105" font-family="Helvetica" font-style="oblique">m</text>
<path d="M57.1929,16.6021h 496.063" fill="none" stroke="black"/>
<path d="M57.1929,31.129v -14.5269" fill="none" stroke="black"/>
<path d="M69.3513,23.8655v -7.26343" fill="none" stroke="black"/>
<path d="M81.5097,23.8655v -7.26343" fill="none" stroke="black"/>
<path d="M93.6681,23.8655v -7.26343" fill="none" stroke="black"/>
<path d="M105.827,23.8655v -7.26343" fill="none" stroke="black"/>
<path d="M117.985,31.129v -14.5269" fill="none" stroke="black"/>
<path d="M130.143,23.8655v -7.26343" fill="none" stroke="black"/>
<path d="M142.302,23.8655v -7.26343" fill="none" stroke="black"/>
<path d="M154.46,23.8655v -7.26343" fill="none" stroke="black"/>
<path d="M166.619,23.8655v -7.26343" fill="none" stroke="black"/>
<path d="M178.777,31.129v -14.5269" fill="none" stroke="black"/>
<path d="M190.935,23.8655v -7.26343" fill="none" stroke="black"/>
<path d="M203.094,23.8655v -7.26343" fill="none" stroke="black"/>
<path d="M215.252,23.8655v -7.26343" fill="none" stroke="black"/>
<path d="M227.411,23.8655v -7.26343" fill="none" stroke="black"/>
<path d="M239.569,31.129v -14.5269" fill="none" stroke="black"/>
<path d="M251.727,23.8655v -7.26343" fill="none" stroke="black"/>
<path d="M263.886,23.8655v -7.26343" fill="none" stroke="black"/>
<path d="M276.044,23.8655v -7.26343" fill="none" stroke="black"/>
<path d="M288.203,23.8655v -7.26343" fill="none" stroke="black"/>
<path d="M300.361,31.129v -14.5269" fill="none" stroke="black"/>
<path d="M312.519,23.8655v -7.26343" fill="none" stroke="black"/>
<path d="M324.678,23.8655v -7.26343" fill="none" stroke="black"/>
<path d="M336.836,23.8655v -7.26343" fill="none" stroke="black"/>
<path d="M348.995,23.8655v -7.26343" fill="none" stroke="black"/>
<path d="M361.153,31.129v -14.5269" fill="none" stroke="black"/>
<path d="M373.311,23.8655v -7.26343" fill="none" stroke="black"/>
<path d="M385.47,23.8655v -7.26343" fill="none" stroke="black"/>
<path d="M397.628,23.8655v -7.26343" fill="none" stroke="black"/>
<path d="M409.787,23.8655v -7.26343" fill="none" stroke="black"/>
<path d="M421.945,31.129v -14.5269" fill="none" stroke="black"/>
<path d="M434.104,23.8655v -7.26343" fill="none" stroke="black"/>
<path d="M446.262,23.8655v -7.26343" fill="none" stroke="black"/>
<path d="M458.42,23.8655v -7.26343" fill="none" stroke="black"/>
<path d="M470.579,23.8655v -7.26343" fill="none" stroke="black"/>
<path d="M482.737,31.129v -14.5269" fill="none" stroke="black"/>
<path d="M494.896,23.8655v -7.26343" fill="none" stroke="black"/>
<path d="M507.054,23.8655v -7.26343" fill="none" stroke="black"/>
<path d="M519.212,23.8655v -7.26343" fill="none" stroke="black"/>
<path d="M531.371,23.8655v -7.26343" fill="none" stroke="black"/>
<path d="M543.529,31.129v -14.5269" fill="none" stroke="black"/>
<path d="M543.529,31.129v -14.5269" fill="none" stroke="black"/>
<path d="M57.1929,498.064v -481.461" fill="none" stroke="black"/>
<path d="M71.9898,417.82h -14.7969" fill="none" stroke="black"/>
<path d="M64.5913,394.273h -7.39843" fill="none" stroke="black"/>
<path d="M64.5913,370.726h -7.39843" fill="none" stroke="black"/>
<path d="M64.5913,347.179h -7.39843" fill="none" stroke="black"/>
<path d="M71.9898,323.632h -14.7969" fill="none" stroke="black"/>
<path d="M64.5913,300.085h -7.39843" fill="none" stroke="black"/>
<path d="M64.5913,276.538h -7.39843" fill="none" stroke="black"/>
<path d="M64.5913,252.991h -7.39843" fill="none" stroke="black"/>
<path d="M71.9898,229.444h -14.7969" fill="none" stroke="black"/>
<path d="M64.5913,205.897h -7.39843" fill="none" stroke="black"/>
<path d="M64.5913,182.35h -7.39843" fill="none" stroke="black"/>
<path d="M64.5913,158.803h -7.39843" fill="none" stroke="black"/>
<path d="M71.9898,135.256h -14.7969" fill="none" stroke="black"/>
<path d="M64.5913,111.709h -7.39843" fill="none" stroke="black"/>
<path d="M64.5913,88.1621h -7.39843" fill="none" stroke="black"/>
<path d="M64.5913,64.6151h -7.39843" fill="none" stroke="black"/>
<path d="M71.9898,41.0681h -14.7969" fill="none" stroke="black"/>
<path d="M71.9898,417.82h -14.7969" fill="none" stroke="black"/>
<path d="M64.5913,441.367h -7.39843" fill="none" stroke="black"/>
<path d="M64.5913,464.914h -7.39843" fill="none" stroke="black"/>
<path d="M64.5913,488.461h -7.39843" fill="none" stroke="black"/>
<path d="M71.9898,41.0681h -14.7969" fill="none" stroke="black"/>
<path d="M64.5913,17.5211h -7.39843" fill="none" stroke="black"/>
<text xml:space="preserve" x="45.5838" y="423.224" fill="black" font-size="16.0105" font-family="Helvetica">0</text>
<text xml:space="preserve" x="32.6222" y="329.112" fill="black" font-size="16.0105" font-family="Helvetica">0.2</text>
<text xml:space="preserve" x="32.6222" y="234.999" fill="black" font-size="16.0105" font-family="Helvetica">0.4</text>
<text xml:space="preserve" x="32.6222" y="140.887" fill="black" font-size="16.0105" font-family="Helvetica">0.6</text>
<text xml:space="preserve" x="32.6222" y="46.2109" fill="black" font-size="16.0105" font-family="Helvetica">0.8</text>
<g transform="rotate(-90,22.4784,21.9784)">
<text xml:space="preserve" x="22.4784" y="21.9784" fill="black" font-size="10.8403" font-family="Times">&#0947;</text>
</g>
<g transform="rotate(-90,18.5335,25.9232)">
<text xml:space="preserve" x="18.5335" y="25.9232" fill="black" font-size="7.39355" font-family="Helvetica">0</text>
</g>
<g transform="rotate(-90,22.4784,32.1222)">
<text xml:space="preserve" x="22.4784" y="32.1222" fill="black" font-size="10.8403" font-family="Times">&#0960;</text>
</g>
<g transform="rotate(-90,17.4064,45.0838)">
<text xml:space="preserve" x="17.4064" y="45.0838" fill="black" font-size="16.0105" font-family="Helvetica" font-style="oblique">N</text>
</g>
<path d="M553.256,498.064v -481.461" fill="none" stroke="black"/>
<path d="M538.459,417.82h 14.7969" fill="none" stroke="black"/>
<path d="M545.857,394.273h 7.39843" fill="none" stroke="black"/>
<path d="M545.857,370.726h 7.39843" fill="none" stroke="black"/>
<path d="M545.857,347.179h 7.39843" fill="none" stroke="black"/>
<path d="M538.459,323.632h 14.7969" fill="none" stroke="black"/>
<path d="M545.857,300.085h 7.39843" fill="none" stroke="black"/>
<path d="M545.857,276.538h 7.39843" fill="none" stroke="black"/>
<path d="M545.857,252.991h 7.39843" fill="none" stroke="black"/>
<path d="M538.459,229.444h 14.7969" fill="none" stroke="black"/>
<path d="M545.857,205.897h 7.39843" fill="none" stroke="black"/>
<path d="M545.857,182.35h 7.39843" fill="none" stroke="black"/>
<path d="M545.857,158.803h 7.39843" fill="none" stroke="black"/>
<path d="M538.459,135.256h 14.7969" fill="none" stroke="black"/>
<path d="M545.857,111.709h 7.39843" fill="none" stroke="black"/>
<path d="M545.857,88.1621h 7.39843" fill="none" stroke="black"/>
<path d="M545.857,64.6151h 7.39843" fill="none" stroke="black"/>
<path d="M538.459,41.0681h 14.7969" fill="none" stroke="black"/>
<path d="M538.459,417.82h 14.7969" fill="none" stroke="black"/>
<path d="M545.857,441.367h 7.39843" fill="none" stroke="black"/>
<path d="M545.857,464.914h 7.39843" fill="none" stroke="black"/>
<path d="M545.857,488.461h 7.39843" fill="none" stroke="black"/>
<path d="M538.459,41.0681h 14.7969" fill="none" stroke="black"/>
<path d="M545.857,17.5211h 7.39843" fill="none" stroke="black"/>
<path d="M110.69,480.624v -141.318" fill="none" stroke="#33cccc" stroke-width="2"/>
<path d="M110.69,330.289v -141.318" fill="none" stroke="#33cccc" stroke-width="2"/>
<path d="M105.827,334.797h 0.35498" fill="none" stroke="#33cccc" stroke-width="2"/>
<path d="M115.198,334.797h 0.35498" fill="none" stroke="#33cccc" stroke-width="2"/>
<g stroke="#33cccc" stroke-width="2" fill="none">
<rect x="106.182" y="330.289" width="9.01677" height="9.01677"/>
</g>
<path d="M120.417,436.183v -138.416" fill="none" stroke="#33cccc" stroke-width="2"/>
<path d="M120.417,288.75v -138.416" fill="none" stroke="#33cccc" stroke-width="2"/>
<path d="M115.553,293.258h 0.35498" fill="none" stroke="#33cccc" stroke-width="2"/>
<path d="M124.925,293.258h 0.35498" fill="none" stroke="#33cccc" stroke-width="2"/>
<g stroke="#33cccc" stroke-width="2" fill="none">
<rect x="115.908" y="288.75" width="9.01677" height="9.01677"/>
</g>
<path d="M130.143,337.342v -135.529" fill="none" stroke="#33cccc" stroke-width="2"/>
<path d="M130.143,192.796v -135.529" fill="none" stroke="#33cccc" stroke-width="2"/>
<path d="M125.28,197.305h 0.35498" fill="none" stroke="#33cccc" stroke-width="2"/>
<path d="M134.652,197.305h 0.35498" fill="none" stroke="#33cccc" stroke-width="2"/>
<g stroke="#33cccc" stroke-width="2" fill="none">
<rect x="125.635" y="192.796" width="9.01677" height="9.01677"/>
</g>
<path d="M139.87,296.256v -132.842" fill="none" stroke="#33cccc" stroke-width="2"/>
<path d="M139.87,154.397v -132.842" fill="none" stroke="#33cccc" stroke-width="2"/>
<path d="M135.007,158.906h 0.35498" fill="none" stroke="#33cccc" stroke-width="2"/>
<path d="M144.378,158.906h 0.35498" fill="none" stroke="#33cccc" stroke-width="2"/>
<g stroke="#33cccc" stroke-width="2" fill="none">
<rect x="135.362" y="154.397" width="9.01677" height="9.01677"/>
</g>
<path d="M149.597,498.064v -14.0739" fill="none" stroke="#33cccc" stroke-width="2"/>
<path d="M149.597,474.973v -129.591" fill="none" stroke="#33cccc" stroke-width="2"/>
<path d="M144.733,479.481h 0.35498" fill="none" stroke="#33cccc" stroke-width="2"/>
<path d="M154.105,479.481h 0.35498" fill="none" stroke="#33cccc" stroke-width="2"/>
<g stroke="#33cccc" stroke-width="2" fill="none">
<rect x="145.088" y="474.973" width="9.01677" height="9.01677"/>
</g>
<path d="M159.324,372.485v -126.898" fill="none" stroke="#33cccc" stroke-width="2"/>
<path d="M159.324,236.571v -126.898" fill="none" stroke="#33cccc" stroke-width="2"/>
<path d="M154.46,241.079h 0.35498" fill="none" stroke="#33cccc" stroke-width="2"/>
<path d="M163.832,241.079h 0.35498" fill="none" stroke="#33cccc" stroke-width="2"/>
<g stroke="#33cccc" stroke-width="2" fill="none">
<rect x="154.815" y="236.571" width="9.01677" height="9.01677"/>
</g>
<path d="M169.05,353.865v -123.936" fill="none" stroke="#33cccc" stroke-width="2"/>
<path d="M169.05,220.912v -123.936" fill="none" stroke="#33cccc" stroke-width="2"/>
<path d="M164.187,225.421h 0.35498" fill="none" stroke="#33cccc" stroke-width="2"/>
<path d="M173.559,225.421h 0.35498" fill="none" stroke="#33cccc" stroke-width="2"/>
<g stroke="#33cccc" stroke-width="2" fill="none">
<rect x="164.542" y="220.912" width="9.01677" height="9.01677"/>
</g>
<path d="M178.777,327.527v -121.326" fill="none" stroke="#33cccc" stroke-width="2"/>
<path d="M178.777,197.184v -121.326" fill="none" stroke="#33cccc" stroke-width="2"/>
<path d="M173.914,201.693h 0.35498" fill="none" stroke="#33cccc" stroke-width="2"/>
<path d="M183.285,201.693h 0.35498" fill="none" stroke="#33cccc" stroke-width="2"/>
<g stroke="#33cccc" stroke-width="2" fill="none">
<rect x="174.269" y="197.184" width="9.01677" height="9.01677"/>
</g>
<path d="M188.504,150.606v -118.776" fill="none" stroke="#33cccc" stroke-width="2"/>
<path d="M188.504,22.8134v -6.21123" fill="none" stroke="#33cccc" stroke-width="2"/>
<path d="M183.64,27.3217h 0.35498" fill="none" stroke="#33cccc" stroke-width="2"/>
<path d="M193.012,27.3217h 0.35498" fill="none" stroke="#33cccc" stroke-width="2"/>
<g stroke="#33cccc" stroke-width="2" fill="none">
<rect x="183.995" y="22.8134" width="9.01677" height="9.01677"/>
</g>
<path d="M198.23,339.884v -116.005" fill="none" stroke="#33cccc" stroke-width="2"/>
<path d="M198.23,214.862v -116.005" fill="none" stroke="#33cccc" stroke-width="2"/>
<path d="M193.367,219.37h 0.35498" fill="none" stroke="#33cccc" stroke-width="2"/>
<path d="M202.739,219.37h 0.35498" fill="none" stroke="#33cccc" stroke-width="2"/>
<g stroke="#33cccc" stroke-width="2" fill="none">
<rect x="193.722" y="214.862" width="9.01677" height="9.01677"/>
</g>
<path d="M207.957,449.357v -112.939" fill="none" stroke="#33cccc" stroke-width="2"/>
<path d="M207.957,327.402v -112.939" fill="none" stroke="#33cccc" stroke-width="2"/>
<path d="M203.094,331.91h 0.35498" fill="none" stroke="#33cccc" stroke-width="2"/>
<path d="M212.466,331.91h 0.35498" fill="none" stroke="#33cccc" stroke-width="2"/>
<g stroke="#33cccc" stroke-width="2" fill="none">
<rect x="203.449" y="327.402" width="9.01677" height="9.01677"/>
</g>
<path d="M217.684,344.826v -110.475" fill="none" stroke="#33cccc" stroke-width="2"/>
<path d="M217.684,225.335v -110.475" fill="none" stroke="#33cccc" stroke-width="2"/>
<path d="M212.821,229.843h 0.35498" fill="none" stroke="#33cccc" stroke-width="2"/>
<path d="M222.192,229.843h 0.35498" fill="none" stroke="#33cccc" stroke-width="2"/>
<g stroke="#33cccc" stroke-width="2" fill="none">
<rect x="213.176" y="225.335" width="9.01677" height="9.01677"/>
</g>
<path d="M227.411,386.916v -107.845" fill="none" stroke="#33cccc" stroke-width="2"/>
<path d="M227.411,270.054v -107.845" fill="none" stroke="#33cccc" stroke-width="2"/>
<path d="M222.547,274.563h 0.35498" fill="none" stroke="#33cccc" stroke-width="2"/>
<path d="M231.919,274.563h 0.35498" fill="none" stroke="#33cccc" stroke-width="2"/>
<g stroke="#33cccc" stroke-width="2" fill="none">
<rect x="222.902" y="270.054" width="9.01677" height="9.01677"/>
</g>
<path d="M237.137,421.96v -105.372" fill="none" stroke="#33cccc" stroke-width="2"/>
<path d="M237.137,307.571v -105.372" fill="none" stroke="#33cccc" stroke-width="2"/>
<path d="M232.274,312.079h 0.35498" fill="none" stroke="#33cccc" stroke-width="2"/>
<path d="M241.646,312.079h 0.35498" fill="none" stroke="#33cccc" stroke-width="2"/>
<g stroke="#33cccc" stroke-width="2" fill="none">
<rect x="232.629" y="307.571" width="9.01677" height="9.01677"/>
</g>
<path d="M246.864,477.079v -103.063" fill="none" stroke="#33cccc" stroke-width="2"/>
<path d="M246.864,365v -103.063" fill="none" stroke="#33cccc" stroke-width="2"/>
<path d="M242.001,369.508h 0.35498" fill="none" stroke="#33cccc" stroke-width="2"/>
<path d="M251.372,369.508h 0.35498" fill="none" stroke="#33cccc" stroke-width="2"/>
<g stroke="#33cccc" stroke-width="2" fill="none">
<rect x="242.356" y="365" width="9.01677" height="9.01677"/>
</g>
<path d="M256.591,387.522v -100.471" fill="none" stroke="#33cccc" stroke-width="2"/>
<path d="M256.591,278.034v -100.471" fill="none" stroke="#33cccc" stroke-width="2"/>
<path d="M251.727,282.542h 0.35498" fill="none" stroke="#33cccc" stroke-width="2"/>
<path d="M261.099,282.542h 0.35498" fill="none" stroke="#33cccc" stroke-width="2"/>
<g stroke="#33cccc" stroke-width="2" fill="none">
<rect x="252.082" y="278.034" width="9.01677" height="9.01677"/>
</g>
<path d="M266.318,487.811v -98.0178" fill="none" stroke="#33cccc" stroke-width="2"/>
<path d="M266.318,380.777v -98.0178" fill="none" stroke="#33cccc" stroke-width="2"/>
<path d="M261.454,385.285h 0.35498" fill="none" stroke="#33cccc" stroke-width="2"/>
<path d="M270.826,385.285h 0.35498" fill="none" stroke="#33cccc" stroke-width="2"/>
<g stroke="#33cccc" stroke-width="2" fill="none">
<rect x="261.809" y="380.777" width="9.01677" height="9.01677"/>
</g>
<path d="M276.044,498.064v -90.7508" fill="none" stroke="#33cccc" stroke-width="2"/>
<path d="M276.044,398.296v -95.8055" fill="none" stroke="#33cccc" stroke-width="2"/>
<path d="M271.181,402.804h 0.35498" fill="none" stroke="#33cccc" stroke-width="2"/>
<path d="M280.553,402.804h 0.35498" fill="none" stroke="#33cccc" stroke-width="2"/>
<g stroke="#33cccc" stroke-width="2" fill="none">
<rect x="271.536" y="398.296" width="9.01677" height="9.01677"/>
</g>
<path d="M305.224,498.064v -23.21" fill="none" stroke="#33cccc" stroke-width="2"/>
<path d="M305.224,465.837v -89.608" fill="none" stroke="#33cccc" stroke-width="2"/>
<path d="M300.361,470.345h 0.35498" fill="none" stroke="#33cccc" stroke-width="2"/>
<path d="M309.733,470.345h 0.35498" fill="none" stroke="#33cccc" stroke-width="2"/>
<g stroke="#33cccc" stroke-width="2" fill="none">
<rect x="300.716" y="465.837" width="9.01677" height="9.01677"/>
</g>
<path d="M441.399,498.064v -25.4043" fill="none" stroke="#33cccc" stroke-width="2"/>
<path d="M441.399,463.643v -65.9229" fill="none" stroke="#33cccc" stroke-width="2"/>
<path d="M436.535,468.151h 0.35498" fill="none" stroke="#33cccc" stroke-width="2"/>
<path d="M445.907,468.151h 0.35498" fill="none" stroke="#33cccc" stroke-width="2"/>
<g stroke="#33cccc" stroke-width="2" fill="none">
<rect x="436.89" y="463.643" width="9.01677" height="9.01677"/>
</g>
<path d="M460.852,498.064v -10.4464" fill="none" stroke="#33cccc" stroke-width="2"/>
<path d="M460.852,478.6v -63.5333" fill="none" stroke="#33cccc" stroke-width="2"/>
<path d="M455.989,483.109h 0.35498" fill="none" stroke="#33cccc" stroke-width="2"/>
<path d="M465.36,483.109h 0.35498" fill="none" stroke="#33cccc" stroke-width="2"/>
<g stroke="#33cccc" stroke-width="2" fill="none">
<rect x="456.344" y="478.6" width="9.01677" height="9.01677"/>
</g>
<path d="M470.579,498.064v -27.7081" fill="none" stroke="#33cccc" stroke-width="2"/>
<path d="M470.579,461.339v -62.336" fill="none" stroke="#33cccc" stroke-width="2"/>
<path d="M465.715,465.847h 0.35498" fill="none" stroke="#33cccc" stroke-width="2"/>
<path d="M475.087,465.847h 0.35498" fill="none" stroke="#33cccc" stroke-width="2"/>
<g stroke="#33cccc" stroke-width="2" fill="none">
<rect x="466.07" y="461.339" width="9.01677" height="9.01677"/>
</g>
<path d="M499.759,498.064v -0.519765" fill="none" stroke="#33cccc" stroke-width="2"/>
<path d="M499.759,488.527v -58.786" fill="none" stroke="#33cccc" stroke-width="2"/>
<path d="M494.896,493.035h 0.35498" fill="none" stroke="#33cccc" stroke-width="2"/>
<path d="M504.267,493.035h 0.35498" fill="none" stroke="#33cccc" stroke-width="2"/>
<g stroke="#33cccc" stroke-width="2" fill="none">
<rect x="495.251" y="488.527" width="9.01677" height="9.01677"/>
</g>
<path d="M509.486,498.064v -23.0316" fill="none" stroke="#33cccc" stroke-width="2"/>
<path d="M509.486,466.015v -57.5162" fill="none" stroke="#33cccc" stroke-width="2"/>
<path d="M504.622,470.524h 0.35498" fill="none" stroke="#33cccc" stroke-width="2"/>
<path d="M513.994,470.524h 0.35498" fill="none" stroke="#33cccc" stroke-width="2"/>
<g stroke="#33cccc" stroke-width="2" fill="none">
<rect x="504.977" y="466.015" width="9.01677" height="9.01677"/>
</g>
<path d="M519.212,498.064v -38.0465" fill="none" stroke="#33cccc" stroke-width="2"/>
<path d="M519.212,451v -56.1525" fill="none" stroke="#33cccc" stroke-width="2"/>
<path d="M514.349,455.509h 0.35498" fill="none" stroke="#33cccc" stroke-width="2"/>
<path d="M523.721,455.509h 0.35498" fill="none" stroke="#33cccc" stroke-width="2"/>
<g stroke="#33cccc" stroke-width="2" fill="none">
<rect x="514.704" y="451" width="9.01677" height="9.01677"/>
</g>
<path d="M528.939,445.704v -55.3359" fill="none" stroke="#33cccc" stroke-width="2"/>
<path d="M528.939,381.352v -55.3359" fill="none" stroke="#33cccc" stroke-width="2"/>
<path d="M524.076,385.86h 0.35498" fill="none" stroke="#33cccc" stroke-width="2"/>
<path d="M533.447,385.86h 0.35498" fill="none" stroke="#33cccc" stroke-width="2"/>
<g stroke="#33cccc" stroke-width="2" fill="none">
<rect x="524.431" y="381.352" width="9.01677" height="9.01677"/>
</g>
<path d="M538.666,381.592v -54.7998" fill="none" stroke="#33cccc" stroke-width="2"/>
<path d="M538.666,317.775v -54.7998" fill="none" stroke="#33cccc" stroke-width="2"/>
<path d="M533.802,322.284h 0.35498" fill="none" stroke="#33cccc" stroke-width="2"/>
<path d="M543.174,322.284h 0.35498" fill="none" stroke="#33cccc" stroke-width="2"/>
<g stroke="#33cccc" stroke-width="2" fill="none">
<rect x="534.157" y="317.775" width="9.01677" height="9.01677"/>
</g>
<path d="M548.393,498.064v -20.5247" fill="none" stroke="#33cccc" stroke-width="2"/>
<path d="M548.393,468.522v -53.3691" fill="none" stroke="#33cccc" stroke-width="2"/>
<path d="M543.529,473.031h 0.35498" fill="none" stroke="#33cccc" stroke-width="2"/>
<path d="M552.901,473.031h 0.35498" fill="none" stroke="#33cccc" stroke-width="2"/>
<g stroke="#33cccc" stroke-width="2" fill="none">
<rect x="543.884" y="468.522" width="9.01677" height="9.01677"/>
</g>
<path d="M188.504,471.357v -123.379" fill="none" stroke="#ff0066" stroke-width="2"/>
<path d="M188.504,347.978v -123.379" fill="none" stroke="#ff0066" stroke-width="2"/>
<path d="M183.64,347.978h 4.86336" fill="none" stroke="#ff0066" stroke-width="2"/>
<path d="M188.504,347.978h 4.86336" fill="none" stroke="#ff0066" stroke-width="2"/>
<g stroke="#ff0066" stroke-width="2" fill="none">
<line x1="187.504" y1="347.978" x2="188.504" y2="347.978"/>
</g>
<path d="M198.23,498.064v -51.4768" fill="none" stroke="#ff0066" stroke-width="2"/>
<path d="M198.23,446.587v -120.584" fill="none" stroke="#ff0066" stroke-width="2"/>
<path d="M193.367,446.587h 4.86336" fill="none" stroke="#ff0066" stroke-width="2"/>
<path d="M198.23,446.587h 4.86336" fill="none" stroke="#ff0066" stroke-width="2"/>
<g stroke="#ff0066" stroke-width="2" fill="none">
<line x1="197.23" y1="446.587" x2="198.23" y2="446.587"/>
</g>
<path d="M207.957,498.064v -21.461" fill="none" stroke="#ff0066" stroke-width="2"/>
<path d="M207.957,476.603v -117.493" fill="none" stroke="#ff0066" stroke-width="2"/>
<path d="M203.094,476.603h 4.86336" fill="none" stroke="#ff0066" stroke-width="2"/>
<path d="M207.957,476.603h 4.86336" fill="none" stroke="#ff0066" stroke-width="2"/>
<g stroke="#ff0066" stroke-width="2" fill="none">
<line x1="206.957" y1="476.603" x2="207.957" y2="476.603"/>
</g>
<path d="M217.684,417.807v -115.007" fill="none" stroke="#ff0066" stroke-width="2"/>
<path d="M217.684,302.8v -115.007" fill="none" stroke="#ff0066" stroke-width="2"/>
<path d="M212.821,302.8h 4.86336" fill="none" stroke="#ff0066" stroke-width="2"/>
<path d="M217.684,302.8h 4.86336" fill="none" stroke="#ff0066" stroke-width="2"/>
<g stroke="#ff0066" stroke-width="2" fill="none">
<line x1="216.684" y1="302.8" x2="217.684" y2="302.8"/>
</g>
<path d="M227.411,397.906v -112.357" fill="none" stroke="#ff0066" stroke-width="2"/>
<path d="M227.411,285.549v -112.357" fill="none" stroke="#ff0066" stroke-width="2"/>
<path d="M222.547,285.549h 4.86336" fill="none" stroke="#ff0066" stroke-width="2"/>
<path d="M227.411,285.549h 4.86336" fill="none" stroke="#ff0066" stroke-width="2"/>
<g stroke="#ff0066" stroke-width="2" fill="none">
<line x1="226.411" y1="285.549" x2="227.411" y2="285.549"/>
</g>
<path d="M237.137,379.645v -109.866" fill="none" stroke="#ff0066" stroke-width="2"/>
<path d="M237.137,269.779v -109.866" fill="none" stroke="#ff0066" stroke-width="2"/>
<path d="M232.274,269.779h 4.86336" fill="none" stroke="#ff0066" stroke-width="2"/>
<path d="M237.137,269.779h 4.86336" fill="none" stroke="#ff0066" stroke-width="2"/>
<g stroke="#ff0066" stroke-width="2" fill="none">
<line x1="236.137" y1="269.779" x2="237.137" y2="269.779"/>
</g>
<path d="M246.864,389.563v -107.538" fill="none" stroke="#ff0066" stroke-width="2"/>
<path d="M246.864,282.025v -107.538" fill="none" stroke="#ff0066" stroke-width="2"/>
<path d="M242.001,282.025h 4.86336" fill="none" stroke="#ff0066" stroke-width="2"/>
<path d="M246.864,282.025h 4.86336" fill="none" stroke="#ff0066" stroke-width="2"/>
<g stroke="#ff0066" stroke-width="2" fill="none">
<line x1="245.864" y1="282.025" x2="246.864" y2="282.025"/>
</g>
<path d="M256.591,261.946v -104.933" fill="none" stroke="#ff0066" stroke-width="2"/>
<path d="M256.591,157.014v -104.933" fill="none" stroke="#ff0066" stroke-width="2"/>
<path d="M251.727,157.014h 4.86336" fill="none" stroke="#ff0066" stroke-width="2"/>
<path d="M256.591,157.014h 4.86336" fill="none" stroke="#ff0066" stroke-width="2"/>
<g stroke="#ff0066" stroke-width="2" fill="none">
<line x1="255.591" y1="157.014" x2="256.591" y2="157.014"/>
</g>
<path d="M266.318,330.616v -102.465" fill="none" stroke="#ff0066" stroke-width="2"/>
<path d="M266.318,228.15v -102.465" fill="none" stroke="#ff0066" stroke-width="2"/>
<path d="M261.454,228.15h 4.86336" fill="none" stroke="#ff0066" stroke-width="2"/>
<path d="M266.318,228.15h 4.86336" fill="none" stroke="#ff0066" stroke-width="2"/>
<g stroke="#ff0066" stroke-width="2" fill="none">
<line x1="265.318" y1="228.15" x2="266.318" y2="228.15"/>
</g>
<path d="M276.044,320.023v -100.24" fill="none" stroke="#ff0066" stroke-width="2"/>
<path d="M276.044,219.782v -100.24" fill="none" stroke="#ff0066" stroke-width="2"/>
<path d="M271.181,219.782h 4.86336" fill="none" stroke="#ff0066" stroke-width="2"/>
<path d="M276.044,219.782h 4.86336" fill="none" stroke="#ff0066" stroke-width="2"/>
<g stroke="#ff0066" stroke-width="2" fill="none">
<line x1="275.044" y1="219.782" x2="276.044" y2="219.782"/>
</g>
<path d="M285.771,439.704v -98.0309" fill="none" stroke="#ff0066" stroke-width="2"/>
<path d="M285.771,341.673v -98.0309" fill="none" stroke="#ff0066" stroke-width="2"/>
<path d="M280.908,341.673h 4.86336" fill="none" stroke="#ff0066" stroke-width="2"/>
<path d="M285.771,341.673h 4.86336" fill="none" stroke="#ff0066" stroke-width="2"/>
<g stroke="#ff0066" stroke-width="2" fill="none">
<line x1="284.771" y1="341.673" x2="285.771" y2="341.673"/>
</g>
<path d="M295.498,389.116v -95.891" fill="none" stroke="#ff0066" stroke-width="2"/>
<path d="M295.498,293.225v -95.891" fill="none" stroke="#ff0066" stroke-width="2"/>
<path d="M290.634,293.225h 4.86336" fill="none" stroke="#ff0066" stroke-width="2"/>
<path d="M295.498,293.225h 4.86336" fill="none" stroke="#ff0066" stroke-width="2"/>
<g stroke="#ff0066" stroke-width="2" fill="none">
<line x1="294.498" y1="293.225" x2="295.498" y2="293.225"/>
</g>
<path d="M305.224,333.001v -94.0128" fill="none" stroke="#ff0066" stroke-width="2"/>
<path d="M305.224,238.988v -94.0128" fill="none" stroke="#ff0066" stroke-width="2"/>
<path d="M300.361,238.988h 4.86336" fill="none" stroke="#ff0066" stroke-width="2"/>
<path d="M305.224,238.988h 4.86336" fill="none" stroke="#ff0066" stroke-width="2"/>
<g stroke="#ff0066" stroke-width="2" fill="none">
<line x1="304.224" y1="238.988" x2="305.224" y2="238.988"/>
</g>
<path d="M314.951,398.447v -91.5462" fill="none" stroke="#ff0066" stroke-width="2"/>
<path d="M314.951,306.9v -91.5462" fill="none" stroke="#ff0066" stroke-width="2"/>
<path d="M310.088,306.9h 4.86336" fill="none" stroke="#ff0066" stroke-width="2"/>
<path d="M314.951,306.9h 4.86336" fill="none" stroke="#ff0066" stroke-width="2"/>
<g stroke="#ff0066" stroke-width="2" fill="none">
<line x1="313.951" y1="306.9" x2="314.951" y2="306.9"/>
</g>
<path d="M334.405,471.237v -87.5029" fill="none" stroke="#ff0066" stroke-width="2"/>
<path d="M334.405,383.734v -87.5029" fill="none" stroke="#ff0066" stroke-width="2"/>
<path d="M329.541,383.734h 4.86336" fill="none" stroke="#ff0066" stroke-width="2"/>
<path d="M334.405,383.734h 4.86336" fill="none" stroke="#ff0066" stroke-width="2"/>
<g stroke="#ff0066" stroke-width="2" fill="none">
<line x1="333.405" y1="383.734" x2="334.405" y2="383.734"/>
</g>
<path d="M344.131,465.13v -85.7611" fill="none" stroke="#ff0066" stroke-width="2"/>
<path d="M344.131,379.369v -85.7611" fill="none" stroke="#ff0066" stroke-width="2"/>
<path d="M339.268,379.369h 4.86336" fill="none" stroke="#ff0066" stroke-width="2"/>
<path d="M344.131,379.369h 4.86336" fill="none" stroke="#ff0066" stroke-width="2"/>
<g stroke="#ff0066" stroke-width="2" fill="none">
<line x1="343.131" y1="379.369" x2="344.131" y2="379.369"/>
</g>
<path d="M363.585,498.064v -55.4133" fill="none" stroke="#ff0066" stroke-width="2"/>
<path d="M363.585,442.65v -81.9567" fill="none" stroke="#ff0066" stroke-width="2"/>
<path d="M358.721,442.65h 4.86336" fill="none" stroke="#ff0066" stroke-width="2"/>
<path d="M363.585,442.65h 4.86336" fill="none" stroke="#ff0066" stroke-width="2"/>
<g stroke="#ff0066" stroke-width="2" fill="none">
<line x1="362.585" y1="442.65" x2="363.585" y2="442.65"/>
</g>
<path d="M402.492,498.064v -20.8407" fill="none" stroke="#ff0066" stroke-width="2"/>
<path d="M402.492,477.223v -75.6575" fill="none" stroke="#ff0066" stroke-width="2"/>
<path d="M397.628,477.223h 4.86336" fill="none" stroke="#ff0066" stroke-width="2"/>
<path d="M402.492,477.223h 4.86336" fill="none" stroke="#ff0066" stroke-width="2"/>
<g stroke="#ff0066" stroke-width="2" fill="none">
<line x1="401.492" y1="477.223" x2="402.492" y2="477.223"/>
</g>
<path d="M412.218,487.53v -74.2648" fill="none" stroke="#ff0066" stroke-width="2"/>
<path d="M412.218,413.265v -74.2648" fill="none" stroke="#ff0066" stroke-width="2"/>
<path d="M407.355,413.265h 4.86336" fill="none" stroke="#ff0066" stroke-width="2"/>
<path d="M412.218,413.265h 4.86336" fill="none" stroke="#ff0066" stroke-width="2"/>
<g stroke="#ff0066" stroke-width="2" fill="none">
<line x1="411.218" y1="413.265" x2="412.218" y2="413.265"/>
</g>
<path d="M421.945,498.064v -48.0729" fill="none" stroke="#ff0066" stroke-width="2"/>
<path d="M421.945,449.991v -72.6781" fill="none" stroke="#ff0066" stroke-width="2"/>
<path d="M417.082,449.991h 4.86336" fill="none" stroke="#ff0066" stroke-width="2"/>
<path d="M421.945,449.991h 4.86336" fill="none" stroke="#ff0066" stroke-width="2"/>
<g stroke="#ff0066" stroke-width="2" fill="none">
<line x1="420.945" y1="449.991" x2="421.945" y2="449.991"/>
</g>
<path d="M431.672,418.661v -71.7934" fill="none" stroke="#ff0066" stroke-width="2"/>
<path d="M431.672,346.868v -71.7934" fill="none" stroke="#ff0066" stroke-width="2"/>
<path d="M426.808,346.868h 4.86336" fill="none" stroke="#ff0066" stroke-width="2"/>
<path d="M431.672,346.868h 4.86336" fill="none" stroke="#ff0066" stroke-width="2"/>
<g stroke="#ff0066" stroke-width="2" fill="none">
<line x1="430.672" y1="346.868" x2="431.672" y2="346.868"/>
</g>
<path d="M441.399,388.876v -70.3359" fill="none" stroke="#ff0066" stroke-width="2"/>
<path d="M441.399,318.54v -70.3359" fill="none" stroke="#ff0066" stroke-width="2"/>
<path d="M436.535,318.54h 4.86336" fill="none" stroke="#ff0066" stroke-width="2"/>
<path d="M441.399,318.54h 4.86336" fill="none" stroke="#ff0066" stroke-width="2"/>
<g stroke="#ff0066" stroke-width="2" fill="none">
<line x1="440.399" y1="318.54" x2="441.399" y2="318.54"/>
</g>
<path d="M451.125,494.269v -69.2031" fill="none" stroke="#ff0066" stroke-width="2"/>
<path d="M451.125,425.066v -69.2031" fill="none" stroke="#ff0066" stroke-width="2"/>
<path d="M446.262,425.066h 4.86336" fill="none" stroke="#ff0066" stroke-width="2"/>
<path d="M451.125,425.066h 4.86336" fill="none" stroke="#ff0066" stroke-width="2"/>
<g stroke="#ff0066" stroke-width="2" fill="none">
<line x1="450.125" y1="425.066" x2="451.125" y2="425.066"/>
</g>
<path d="M460.852,430.298v -67.9596" fill="none" stroke="#ff0066" stroke-width="2"/>
<path d="M460.852,362.338v -67.9596" fill="none" stroke="#ff0066" stroke-width="2"/>
<path d="M455.989,362.338h 4.86336" fill="none" stroke="#ff0066" stroke-width="2"/>
<path d="M460.852,362.338h 4.86336" fill="none" stroke="#ff0066" stroke-width="2"/>
<g stroke="#ff0066" stroke-width="2" fill="none">
<line x1="459.852" y1="362.338" x2="460.852" y2="362.338"/>
</g>
<path d="M470.579,427.559v -66.7698" fill="none" stroke="#ff0066" stroke-width="2"/>
<path d="M470.579,360.79v -66.7698" fill="none" stroke="#ff0066" stroke-width="2"/>
<path d="M465.715,360.79h 4.86336" fill="none" stroke="#ff0066" stroke-width="2"/>
<path d="M470.579,360.79h 4.86336" fill="none" stroke="#ff0066" stroke-width="2"/>
<g stroke="#ff0066" stroke-width="2" fill="none">
<line x1="469.579" y1="360.79" x2="470.579" y2="360.79"/>
</g>
<path d="M480.305,498.064v -52.9794" fill="none" stroke="#ff0066" stroke-width="2"/>
<path d="M480.305,445.084v -65.3029" fill="none" stroke="#ff0066" stroke-width="2"/>
<path d="M475.442,445.084h 4.86336" fill="none" stroke="#ff0066" stroke-width="2"/>
<path d="M480.305,445.084h 4.86336" fill="none" stroke="#ff0066" stroke-width="2"/>
<g stroke="#ff0066" stroke-width="2" fill="none">
<line x1="479.305" y1="445.084" x2="480.305" y2="445.084"/>
</g>
<path d="M490.032,498.064v -13.9626" fill="none" stroke="#ff0066" stroke-width="2"/>
<path d="M490.032,484.101v -63.8977" fill="none" stroke="#ff0066" stroke-width="2"/>
<path d="M485.169,484.101h 4.86336" fill="none" stroke="#ff0066" stroke-width="2"/>
<path d="M490.032,484.101h 4.86336" fill="none" stroke="#ff0066" stroke-width="2"/>
<g stroke="#ff0066" stroke-width="2" fill="none">
<line x1="489.032" y1="484.101" x2="490.032" y2="484.101"/>
</g>
<path d="M499.759,498.064v -62.8919" fill="none" stroke="#ff0066" stroke-width="2"/>
<path d="M499.759,435.172v -63.2506" fill="none" stroke="#ff0066" stroke-width="2"/>
<path d="M494.896,435.172h 4.86336" fill="none" stroke="#ff0066" stroke-width="2"/>
<path d="M499.759,435.172h 4.86336" fill="none" stroke="#ff0066" stroke-width="2"/>
<g stroke="#ff0066" stroke-width="2" fill="none">
<line x1="498.759" y1="435.172" x2="499.759" y2="435.172"/>
</g>
<path d="M509.486,490.927v -61.9918" fill="none" stroke="#ff0066" stroke-width="2"/>
<path d="M509.486,428.935v -61.9918" fill="none" stroke="#ff0066" stroke-width="2"/>
<path d="M504.622,428.935h 4.86336" fill="none" stroke="#ff0066" stroke-width="2"/>
<path d="M509.486,428.935h 4.86336" fill="none" stroke="#ff0066" stroke-width="2"/>
<g stroke="#ff0066" stroke-width="2" fill="none">
<line x1="508.486" y1="428.935" x2="509.486" y2="428.935"/>
</g>
<path d="M519.212,490.743v -60.6411" fill="none" stroke="#ff0066" stroke-width="2"/>
<path d="M519.212,430.102v -60.6411" fill="none" stroke="#ff0066" stroke-width="2"/>
<path d="M514.349,430.102h 4.86336" fill="none" stroke="#ff0066" stroke-width="2"/>
<path d="M519.212,430.102h 4.86336" fill="none" stroke="#ff0066" stroke-width="2"/>
<g stroke="#ff0066" stroke-width="2" fill="none">
<line x1="518.212" y1="430.102" x2="519.212" y2="430.102"/>
</g>
<path d="M528.939,436.483v -59.8369" fill="none" stroke="#ff0066" stroke-width="2"/>
<path d="M528.939,376.646v -59.8369" fill="none" stroke="#ff0066" stroke-width="2"/>
<path d="M524.076,376.646h 4.86336" fill="none" stroke="#ff0066" stroke-width="2"/>
<path d="M528.939,376.646h 4.86336" fill="none" stroke="#ff0066" stroke-width="2"/>
<g stroke="#ff0066" stroke-width="2" fill="none">
<line x1="527.939" y1="376.646" x2="528.939" y2="376.646"/>
</g>
<path d="M538.666,388.548v -59.3138" fill="none" stroke="#ff0066" stroke-width="2"/>
<path d="M538.666,329.234v -59.3138" fill="none" stroke="#ff0066" stroke-width="2"/>
<path d="M533.802,329.234h 4.86336" fill="none" stroke="#ff0066" stroke-width="2"/>
<path d="M538.666,329.234h 4.86336" fill="none" stroke="#ff0066" stroke-width="2"/>
<g stroke="#ff0066" stroke-width="2" fill="none">
<line x1="537.666" y1="329.234" x2="538.666" y2="329.234"/>
</g>
<path d="M548.393,498.064v -1.83666" fill="none" stroke="#ff0066" stroke-width="2"/>
<path d="M548.393,496.227v -57.8968" fill="none" stroke="#ff0066" stroke-width="2"/>
<path d="M543.529,496.227h 4.86336" fill="none" stroke="#ff0066" stroke-width="2"/>
<path d="M548.393,496.227h 4.86336" fill="none" stroke="#ff0066" stroke-width="2"/>
<g stroke="#ff0066" stroke-width="2" fill="none">
<line x1="547.393" y1="496.227" x2="548.393" y2="496.227"/>
</g>
<text xml:space="preserve" x="360.607" y="50.7193" fill="black" font-size="16.0105" font-family="Helvetica"> with EMC</text>
<text xml:space="preserve" x="352.717" y="50.7193" fill="black" font-size="16.0105" font-family="Times">&#0947;</text>
<text xml:space="preserve" x="344.828" y="50.7193" fill="black" font-size="16.0105" font-family="Times">&#0947;</text>
<text xml:space="preserve" x="336.938" y="50.7193" fill="black" font-size="16.0105" font-family="Times">&#0947;</text>
<text xml:space="preserve" x="331.866" y="50.7193" fill="black" font-size="16.0105" font-family="Helvetica"> </text>
<text xml:space="preserve" x="316.65" y="50.7193" fill="black" font-size="16.0105" font-family="Times">&#8594;</text>
<text xml:space="preserve" x="311.578" y="50.7193" fill="black" font-size="16.0105" font-family="Helvetica"> </text>
<text xml:space="preserve" x="303.689" y="50.7193" fill="black" font-size="16.0105" font-family="Times">&#0947;</text>
<text xml:space="preserve" x="298.053" y="45.0838" fill="black" font-size="10.8403" font-family="Helvetica">0</text>
<text xml:space="preserve" x="289.6" y="50.7193" fill="black" font-size="16.0105" font-family="Times">&#0960;</text>
<text xml:space="preserve" x="284.528" y="50.7193" fill="black" font-size="16.0105" font-family="Helvetica"> </text>
<text xml:space="preserve" x="269.312" y="50.7193" fill="black" font-size="16.0105" font-family="Times">&#8594;</text>
<text xml:space="preserve" x="264.24" y="50.7193" fill="black" font-size="16.0105" font-family="Helvetica"> </text>
<text xml:space="preserve" x="252.969" y="50.7193" fill="black" font-size="16.0105" font-family="Times">&#0969;</text>
<text xml:space="preserve" x="128.989" y="50.7193" fill="black" font-size="16.0105" font-family="Helvetica"> = 13 TeV (EG1), </text>
<text xml:space="preserve" x="120.536" y="50.7193" fill="black" font-size="16.0105" font-family="Helvetica" font-style="oblique">s</text>
<path d="M114.9,41.7025l 1.69064, 9.58031" fill="none" stroke="black" stroke-width="2"/>
<path d="M116.591,51.2829l 2.25419, -14.0887" fill="none" stroke="black"/>
<path d="M118.845,37.1942h 10.1439" fill="none" stroke="black"/>
<text xml:space="preserve" x="89.5406" y="50.7193" fill="black" font-size="16.0105" font-family="Helvetica">pp </text>
<text xml:space="preserve" x="89.5406" y="85.6593" fill="black" font-size="16.0105" font-family="Helvetica">ALICE work in progress</text>
<text xml:space="preserve" x="205.068" y="120.599" fill="black" font-size="16.0105" font-family="Helvetica">) &lt; 8.0</text>
<text xml:space="preserve" x="196.051" y="120.599" fill="black" font-size="16.0105" font-family="Helvetica" font-style="oblique">c</text>
<text xml:space="preserve" x="145.895" y="120.599" fill="black" font-size="16.0105" font-family="Helvetica"> /(GeV/</text>
<text xml:space="preserve" x="139.133" y="128.489" fill="black" font-size="10.8403" font-family="Helvetica">T</text>
<text xml:space="preserve" x="129.552" y="120.599" fill="black" font-size="16.0105" font-family="Helvetica" font-style="oblique">p</text>
<text xml:space="preserve" x="124.481" y="120.599" fill="black" font-size="16.0105" font-family="Helvetica"> </text>
<text xml:space="preserve" x="116.027" y="120.599" fill="black" font-size="16.0105" font-family="Times">&#8804;</text>
<text xml:space="preserve" x="89.5406" y="120.599" fill="black" font-size="16.0105" font-family="Helvetica">6.0 </text>
<rect x="312.311" y="69.1755" width="198.425" height="113.448" fill="white"/>
<text xml:space="preserve" x="361.734" y="92.4219" fill="black" font-size="16.0105" font-family="Helvetica">true signal</text>
<path d="M319.752,88.0835h 34.7244" fill="none" stroke="black" stroke-width="2"/>
<g fill="black">
<circle cx="337.114" cy="88.0835" r="6.76257"/>
</g>
<text xml:space="preserve" x="361.734" y="130.18" fill="black" font-size="16.0105" font-family="Helvetica">extracted signal pol1</text>
<path d="M319.752,125.899h 34.7244" fill="none" stroke="#33cccc" stroke-width="2"/>
<g stroke="#33cccc" stroke-width="2" fill="none">
<rect x="332.606" y="121.391" width="9.01677" height="9.01677"/>
</g>
<text xml:space="preserve" x="361.734" y="167.937" fill="black" font-size="16.0105" font-family="Helvetica">extracted signal pol2</text>
<path d="M319.752,163.715h 34.7244" fill="none" stroke="#ff0066" stroke-width="2"/>
<g stroke="#ff0066" stroke-width="2" fill="none">
<line x1="336.114" y1="163.715" x2="337.114" y2="163.715"/>
</g></svg>
