<?xml version="1.0" standalone="no"?>
<svg width="567.429" height="553.904" viewBox="0 0 567.429 553.904" xmlns="http://www.w3.org/2000/svg" shape-rendering="crispEdges">
<title>
MC/EG1/OmegaTGPSPlusWOPS/SameEventToBackgroundRatio_03.svg
</title>
<desc>
Creator: ROOT Version 6.20/08
CreationDate: Mon Mar 29 21:28:53 2021</desc>
<defs>
</defs>
<rect x="0.5" y="0" width="566.929" height="553.404" fill="white"/>
<rect x="68.5315" y="16.6021" width="484.724" height="481.461" fill="white"/>
<rect x="68.5315" y="16.6021" width="484.724" height="481.461" fill="none" stroke="black"/>
<rect x="68.5315" y="16.6021" width="484.724" height="481.461" fill="white"/>
<rect x="68.5315" y="16.6021" width="484.724" height="481.461" fill="none" stroke="black"/>
<g fill="black">
<circle cx="109.325" cy="466.654" r="6.76257"/>
</g>
<g fill="black">
<circle cx="114.124" cy="275.604" r="6.76257"/>
</g>
<g fill="black">
<circle cx="118.924" cy="248.751" r="6.76257"/>
</g>
<g fill="black">
<circle cx="123.723" cy="432.758" r="6.76257"/>
</g>
<g fill="black">
<circle cx="128.522" cy="370.489" r="6.76257"/>
</g>
<g fill="black">
<circle cx="133.321" cy="197.15" r="6.76257"/>
</g>
<g fill="black">
<circle cx="138.121" cy="199.697" r="6.76257"/>
</g>
<g fill="black">
<circle cx="142.92" cy="198.584" r="6.76257"/>
</g>
<g fill="black">
<circle cx="147.719" cy="199.421" r="6.76257"/>
</g>
<g fill="black">
<circle cx="152.518" cy="201.87" r="6.76257"/>
</g>
<g fill="black">
<circle cx="157.318" cy="204.044" r="6.76257"/>
</g>
<g fill="black">
<circle cx="162.117" cy="206.058" r="6.76257"/>
</g>
<g fill="black">
<circle cx="166.916" cy="207.283" r="6.76257"/>
</g>
<g fill="black">
<circle cx="171.715" cy="209.195" r="6.76257"/>
</g>
<g fill="black">
<circle cx="176.515" cy="209.655" r="6.76257"/>
</g>
<g fill="black">
<circle cx="181.314" cy="210.119" r="6.76257"/>
</g>
<g fill="black">
<circle cx="186.113" cy="210.245" r="6.76257"/>
</g>
<g fill="black">
<circle cx="190.912" cy="210.511" r="6.76257"/>
</g>
<g fill="black">
<circle cx="195.712" cy="210.525" r="6.76257"/>
</g>
<g fill="black">
<circle cx="200.511" cy="212.172" r="6.76257"/>
</g>
<g fill="black">
<circle cx="205.31" cy="213.882" r="6.76257"/>
</g>
<g fill="black">
<circle cx="210.109" cy="214.422" r="6.76257"/>
</g>
<g fill="black">
<circle cx="214.909" cy="216.489" r="6.76257"/>
</g>
<g fill="black">
<circle cx="219.708" cy="216.661" r="6.76257"/>
</g>
<g fill="black">
<circle cx="224.507" cy="216.532" r="6.76257"/>
</g>
<g fill="black">
<circle cx="229.306" cy="216.669" r="6.76257"/>
</g>
<g fill="black">
<circle cx="234.106" cy="218.799" r="6.76257"/>
</g>
<g fill="black">
<circle cx="238.905" cy="217.811" r="6.76257"/>
</g>
<g fill="black">
<circle cx="243.704" cy="218.059" r="6.76257"/>
</g>
<g fill="black">
<circle cx="248.503" cy="218.248" r="6.76257"/>
</g>
<g fill="black">
<circle cx="253.303" cy="217.405" r="6.76257"/>
</g>
<g fill="black">
<circle cx="258.102" cy="219.027" r="6.76257"/>
</g>
<g fill="black">
<circle cx="262.901" cy="220.18" r="6.76257"/>
</g>
<g fill="black">
<circle cx="267.7" cy="219.758" r="6.76257"/>
</g>
<g fill="black">
<circle cx="272.5" cy="220.444" r="6.76257"/>
</g>
<g fill="black">
<circle cx="277.299" cy="221.101" r="6.76257"/>
</g>
<g fill="black">
<circle cx="339.689" cy="230.96" r="6.76257"/>
</g>
<g fill="black">
<circle cx="344.488" cy="232.577" r="6.76257"/>
</g>
<g fill="black">
<circle cx="349.288" cy="233.471" r="6.76257"/>
</g>
<g fill="black">
<circle cx="354.087" cy="233.252" r="6.76257"/>
</g>
<g fill="black">
<circle cx="358.886" cy="233.177" r="6.76257"/>
</g>
<g fill="black">
<circle cx="363.685" cy="232.387" r="6.76257"/>
</g>
<g fill="black">
<circle cx="368.485" cy="233.358" r="6.76257"/>
</g>
<g fill="black">
<circle cx="373.284" cy="231.647" r="6.76257"/>
</g>
<g fill="black">
<circle cx="378.083" cy="231.251" r="6.76257"/>
</g>
<g fill="black">
<circle cx="382.882" cy="233.601" r="6.76257"/>
</g>
<g fill="black">
<circle cx="387.682" cy="232.429" r="6.76257"/>
</g>
<g fill="black">
<circle cx="392.481" cy="232.492" r="6.76257"/>
</g>
<g fill="black">
<circle cx="397.28" cy="234.512" r="6.76257"/>
</g>
<g fill="black">
<circle cx="402.079" cy="235.56" r="6.76257"/>
</g>
<g fill="black">
<circle cx="406.879" cy="234.457" r="6.76257"/>
</g>
<g fill="black">
<circle cx="411.678" cy="234.342" r="6.76257"/>
</g>
<g fill="black">
<circle cx="416.477" cy="234.383" r="6.76257"/>
</g>
<g fill="black">
<circle cx="421.276" cy="232.896" r="6.76257"/>
</g>
<g fill="black">
<circle cx="426.076" cy="231.456" r="6.76257"/>
</g>
<g fill="black">
<circle cx="430.875" cy="236.171" r="6.76257"/>
</g>
<g fill="black">
<circle cx="435.674" cy="231.76" r="6.76257"/>
</g>
<g fill="black">
<circle cx="440.473" cy="233.175" r="6.76257"/>
</g>
<g fill="black">
<circle cx="445.273" cy="232.522" r="6.76257"/>
</g>
<g fill="black">
<circle cx="450.072" cy="236.05" r="6.76257"/>
</g>
<g fill="black">
<circle cx="454.871" cy="230.338" r="6.76257"/>
</g>
<g fill="black">
<circle cx="459.671" cy="229.553" r="6.76257"/>
</g>
<g fill="black">
<circle cx="464.47" cy="230.269" r="6.76257"/>
</g>
<g fill="black">
<circle cx="469.269" cy="231.315" r="6.76257"/>
</g>
<g fill="black">
<circle cx="474.068" cy="233.594" r="6.76257"/>
</g>
<g fill="black">
<circle cx="478.867" cy="233.707" r="6.76257"/>
</g>
<g fill="black">
<circle cx="483.667" cy="234.536" r="6.76257"/>
</g>
<g fill="black">
<circle cx="488.466" cy="229.36" r="6.76257"/>
</g>
<g fill="black">
<circle cx="493.265" cy="230.768" r="6.76257"/>
</g>
<g fill="black">
<circle cx="498.065" cy="228.975" r="6.76257"/>
</g>
<g fill="black">
<circle cx="502.864" cy="226.001" r="6.76257"/>
</g>
<g fill="black">
<circle cx="507.663" cy="224.818" r="6.76257"/>
</g>
<g fill="black">
<circle cx="512.462" cy="228.353" r="6.76257"/>
</g>
<g fill="black">
<circle cx="517.262" cy="218.718" r="6.76257"/>
</g>
<g fill="black">
<circle cx="522.061" cy="222.517" r="6.76257"/>
</g>
<g fill="black">
<circle cx="526.86" cy="221.018" r="6.76257"/>
</g>
<g fill="black">
<circle cx="531.659" cy="219.889" r="6.76257"/>
</g>
<g fill="black">
<circle cx="536.458" cy="222.97" r="6.76257"/>
</g>
<g fill="black">
<circle cx="541.258" cy="220.012" r="6.76257"/>
</g>
<g fill="black">
<circle cx="546.057" cy="225.399" r="6.76257"/>
</g>
<path d="M68.5315,498.064h 484.724" fill="none" stroke="black"/>
<path d="M68.5315,483.869v 14.1948" fill="none" stroke="black"/>
<path d="M83.5292,490.966v 7.09741" fill="none" stroke="black"/>
<path d="M98.5268,490.966v 7.09741" fill="none" stroke="black"/>
<path d="M113.524,490.966v 7.09741" fill="none" stroke="black"/>
<path d="M128.522,483.869v 14.1948" fill="none" stroke="black"/>
<path d="M143.52,490.966v 7.09741" fill="none" stroke="black"/>
<path d="M158.517,490.966v 7.09741" fill="none" stroke="black"/>
<path d="M173.515,490.966v 7.09741" fill="none" stroke="black"/>
<path d="M188.513,483.869v 14.1948" fill="none" stroke="black"/>
<path d="M203.51,490.966v 7.09741" fill="none" stroke="black"/>
<path d="M218.508,490.966v 7.09741" fill="none" stroke="black"/>
<path d="M233.506,490.966v 7.09741" fill="none" stroke="black"/>
<path d="M248.503,483.869v 14.1948" fill="none" stroke="black"/>
<path d="M263.501,490.966v 7.09741" fill="none" stroke="black"/>
<path d="M278.499,490.966v 7.09741" fill="none" stroke="black"/>
<path d="M293.496,490.966v 7.09741" fill="none" stroke="black"/>
<path d="M308.494,483.869v 14.1948" fill="none" stroke="black"/>
<path d="M323.492,490.966v 7.09741" fill="none" stroke="black"/>
<path d="M338.489,490.966v 7.09741" fill="none" stroke="black"/>
<path d="M353.487,490.966v 7.09741" fill="none" stroke="black"/>
<path d="M368.485,483.869v 14.1948" fill="none" stroke="black"/>
<path d="M383.482,490.966v 7.09741" fill="none" stroke="black"/>
<path d="M398.48,490.966v 7.09741" fill="none" stroke="black"/>
<path d="M413.478,490.966v 7.09741" fill="none" stroke="black"/>
<path d="M428.475,483.869v 14.1948" fill="none" stroke="black"/>
<path d="M443.473,490.966v 7.09741" fill="none" stroke="black"/>
<path d="M458.471,490.966v 7.09741" fill="none" stroke="black"/>
<path d="M473.468,490.966v 7.09741" fill="none" stroke="black"/>
<path d="M488.466,483.869v 14.1948" fill="none" stroke="black"/>
<path d="M503.464,490.966v 7.09741" fill="none" stroke="black"/>
<path d="M518.461,490.966v 7.09741" fill="none" stroke="black"/>
<path d="M533.459,490.966v 7.09741" fill="none" stroke="black"/>
<path d="M548.457,483.869v 14.1948" fill="none" stroke="black"/>
<path d="M548.457,483.869v 14.1948" fill="none" stroke="black"/>
<text xml:space="preserve" x="63.6174" y="513.956" fill="black" font-size="16.0105" font-family="Helvetica">0</text>
<text xml:space="preserve" x="117.718" y="513.956" fill="black" font-size="16.0105" font-family="Helvetica">0.2</text>
<text xml:space="preserve" x="177.454" y="513.956" fill="black" font-size="16.0105" font-family="Helvetica">0.4</text>
<text xml:space="preserve" x="237.754" y="513.956" fill="black" font-size="16.0105" font-family="Helvetica">0.6</text>
<text xml:space="preserve" x="297.49" y="513.956" fill="black" font-size="16.0105" font-family="Helvetica">0.8</text>
<text xml:space="preserve" x="365.115" y="513.956" fill="black" font-size="16.0105" font-family="Helvetica">1</text>
<text xml:space="preserve" x="417.525" y="513.956" fill="black" font-size="16.0105" font-family="Helvetica">1.2</text>
<text xml:space="preserve" x="477.261" y="513.956" fill="black" font-size="16.0105" font-family="Helvetica">1.4</text>
<text xml:space="preserve" x="537.561" y="513.956" fill="black" font-size="16.0105" font-family="Helvetica">1.6</text>
<text xml:space="preserve" x="548.268" y="537.625" fill="black" font-size="16.0105" font-family="Helvetica">)</text>
<text xml:space="preserve" x="542.633" y="532.553" fill="black" font-size="10.8403" font-family="Helvetica">2</text>
<text xml:space="preserve" x="533.616" y="537.625" fill="black" font-size="16.0105" font-family="Helvetica" font-style="oblique">c</text>
<text xml:space="preserve" x="487.405" y="537.625" fill="black" font-size="16.0105" font-family="Helvetica"> (GeV/</text>
<text xml:space="preserve" x="473.317" y="542.697" fill="black" font-size="10.8403" font-family="Helvetica">inv</text>
<text xml:space="preserve" x="459.792" y="537.625" fill="black" font-size="16.0105" font-family="Helvetica" font-style="oblique">m</text>
<path d="M68.5315,16.6021h 484.724" fill="none" stroke="black"/>
<path d="M68.5315,30.7969v -14.1948" fill="none" stroke="black"/>
<path d="M83.5292,23.6995v -7.09741" fill="none" stroke="black"/>
<path d="M98.5268,23.6995v -7.09741" fill="none" stroke="black"/>
<path d="M113.524,23.6995v -7.09741" fill="none" stroke="black"/>
<path d="M128.522,30.7969v -14.1948" fill="none" stroke="black"/>
<path d="M143.52,23.6995v -7.09741" fill="none" stroke="black"/>
<path d="M158.517,23.6995v -7.09741" fill="none" stroke="black"/>
<path d="M173.515,23.6995v -7.09741" fill="none" stroke="black"/>
<path d="M188.513,30.7969v -14.1948" fill="none" stroke="black"/>
<path d="M203.51,23.6995v -7.09741" fill="none" stroke="black"/>
<path d="M218.508,23.6995v -7.09741" fill="none" stroke="black"/>
<path d="M233.506,23.6995v -7.09741" fill="none" stroke="black"/>
<path d="M248.503,30.7969v -14.1948" fill="none" stroke="black"/>
<path d="M263.501,23.6995v -7.09741" fill="none" stroke="black"/>
<path d="M278.499,23.6995v -7.09741" fill="none" stroke="black"/>
<path d="M293.496,23.6995v -7.09741" fill="none" stroke="black"/>
<path d="M308.494,30.7969v -14.1948" fill="none" stroke="black"/>
<path d="M323.492,23.6995v -7.09741" fill="none" stroke="black"/>
<path d="M338.489,23.6995v -7.09741" fill="none" stroke="black"/>
<path d="M353.487,23.6995v -7.09741" fill="none" stroke="black"/>
<path d="M368.485,30.7969v -14.1948" fill="none" stroke="black"/>
<path d="M383.482,23.6995v -7.09741" fill="none" stroke="black"/>
<path d="M398.48,23.6995v -7.09741" fill="none" stroke="black"/>
<path d="M413.478,23.6995v -7.09741" fill="none" stroke="black"/>
<path d="M428.475,30.7969v -14.1948" fill="none" stroke="black"/>
<path d="M443.473,23.6995v -7.09741" fill="none" stroke="black"/>
<path d="M458.471,23.6995v -7.09741" fill="none" stroke="black"/>
<path d="M473.468,23.6995v -7.09741" fill="none" stroke="black"/>
<path d="M488.466,30.7969v -14.1948" fill="none" stroke="black"/>
<path d="M503.464,23.6995v -7.09741" fill="none" stroke="black"/>
<path d="M518.461,23.6995v -7.09741" fill="none" stroke="black"/>
<path d="M533.459,23.6995v -7.09741" fill="none" stroke="black"/>
<path d="M548.457,30.7969v -14.1948" fill="none" stroke="black"/>
<path d="M548.457,30.7969v -14.1948" fill="none" stroke="black"/>
<path d="M68.5315,498.064v -481.461" fill="none" stroke="black"/>
<path d="M83.3283,498.064h -14.7969" fill="none" stroke="black"/>
<path d="M75.9299,486.198h -7.39843" fill="none" stroke="black"/>
<path d="M75.9299,474.333h -7.39843" fill="none" stroke="black"/>
<path d="M75.9299,462.468h -7.39843" fill="none" stroke="black"/>
<path d="M75.9299,450.603h -7.39843" fill="none" stroke="black"/>
<path d="M83.3283,438.738h -14.7969" fill="none" stroke="black"/>
<path d="M75.9299,426.873h -7.39843" fill="none" stroke="black"/>
<path d="M75.9299,415.008h -7.39843" fill="none" stroke="black"/>
<path d="M75.9299,403.143h -7.39843" fill="none" stroke="black"/>
<path d="M75.9299,391.278h -7.39843" fill="none" stroke="black"/>
<path d="M83.3283,379.412h -14.7969" fill="none" stroke="black"/>
<path d="M75.9299,367.547h -7.39843" fill="none" stroke="black"/>
<path d="M75.9299,355.682h -7.39843" fill="none" stroke="black"/>
<path d="M75.9299,343.817h -7.39843" fill="none" stroke="black"/>
<path d="M75.9299,331.952h -7.39843" fill="none" stroke="black"/>
<path d="M83.3283,320.087h -14.7969" fill="none" stroke="black"/>
<path d="M75.9299,308.222h -7.39843" fill="none" stroke="black"/>
<path d="M75.9299,296.357h -7.39843" fill="none" stroke="black"/>
<path d="M75.9299,284.491h -7.39843" fill="none" stroke="black"/>
<path d="M75.9299,272.626h -7.39843" fill="none" stroke="black"/>
<path d="M83.3283,260.761h -14.7969" fill="none" stroke="black"/>
<path d="M75.9299,248.896h -7.39843" fill="none" stroke="black"/>
<path d="M75.9299,237.031h -7.39843" fill="none" stroke="black"/>
<path d="M75.9299,225.166h -7.39843" fill="none" stroke="black"/>
<path d="M75.9299,213.301h -7.39843" fill="none" stroke="black"/>
<path d="M83.3283,201.436h -14.7969" fill="none" stroke="black"/>
<path d="M75.9299,189.571h -7.39843" fill="none" stroke="black"/>
<path d="M75.9299,177.705h -7.39843" fill="none" stroke="black"/>
<path d="M75.9299,165.84h -7.39843" fill="none" stroke="black"/>
<path d="M75.9299,153.975h -7.39843" fill="none" stroke="black"/>
<path d="M83.3283,142.11h -14.7969" fill="none" stroke="black"/>
<path d="M75.9299,130.245h -7.39843" fill="none" stroke="black"/>
<path d="M75.9299,118.38h -7.39843" fill="none" stroke="black"/>
<path d="M75.9299,106.515h -7.39843" fill="none" stroke="black"/>
<path d="M75.9299,94.6496h -7.39843" fill="none" stroke="black"/>
<path d="M83.3283,82.7845h -14.7969" fill="none" stroke="black"/>
<path d="M75.9299,70.9194h -7.39843" fill="none" stroke="black"/>
<path d="M75.9299,59.0543h -7.39843" fill="none" stroke="black"/>
<path d="M75.9299,47.1892h -7.39843" fill="none" stroke="black"/>
<path d="M75.9299,35.324h -7.39843" fill="none" stroke="black"/>
<path d="M83.3283,23.4589h -14.7969" fill="none" stroke="black"/>
<path d="M83.3283,23.4589h -14.7969" fill="none" stroke="black"/>
<text xml:space="preserve" x="56.8548" y="503.248" fill="black" font-size="16.0105" font-family="Helvetica">0</text>
<text xml:space="preserve" x="56.8548" y="444.076" fill="black" font-size="16.0105" font-family="Helvetica">5</text>
<text xml:space="preserve" x="48.4016" y="384.903" fill="black" font-size="16.0105" font-family="Helvetica">10</text>
<text xml:space="preserve" x="48.4016" y="325.167" fill="black" font-size="16.0105" font-family="Helvetica">15</text>
<text xml:space="preserve" x="48.4016" y="265.995" fill="black" font-size="16.0105" font-family="Helvetica">20</text>
<text xml:space="preserve" x="48.4016" y="206.822" fill="black" font-size="16.0105" font-family="Helvetica">25</text>
<text xml:space="preserve" x="48.4016" y="147.65" fill="black" font-size="16.0105" font-family="Helvetica">30</text>
<text xml:space="preserve" x="48.4016" y="87.9135" fill="black" font-size="16.0105" font-family="Helvetica">35</text>
<text xml:space="preserve" x="48.4016" y="28.7409" fill="black" font-size="16.0105" font-family="Helvetica">40</text>
<text xml:space="preserve" x="99.1209" y="7.32612" fill="black" font-size="10.8403" font-family="Helvetica">3</text>
<text xml:space="preserve" x="93.4854" y="7.32612" fill="black" font-size="10.8403" font-family="Times">&#8722;</text>
<text xml:space="preserve" x="76.579" y="14.6522" fill="black" font-size="16.0105" font-family="Helvetica">10</text>
<text xml:space="preserve" x="68.1257" y="14.6522" fill="black" font-size="16.0105" font-family="Times">&#0215;</text>
<g transform="rotate(-90,38.2577,98.0573)">
<text xml:space="preserve" x="38.2577" y="98.0573" fill="black" font-size="16.0105" font-family="Helvetica">background</text>
</g>
<g transform="rotate(-90,21.9148,98.0573)">
<text xml:space="preserve" x="21.9148" y="98.0573" fill="black" font-size="16.0105" font-family="Helvetica">same event</text>
</g>
<path d="M24.169,98.0573l 0.563548, -81.7144" fill="none" stroke="black" stroke-width="2"/>
<path d="M553.256,498.064v -481.461" fill="none" stroke="black"/>
<path d="M538.459,498.064h 14.7969" fill="none" stroke="black"/>
<path d="M545.857,486.198h 7.39843" fill="none" stroke="black"/>
<path d="M545.857,474.333h 7.39843" fill="none" stroke="black"/>
<path d="M545.857,462.468h 7.39843" fill="none" stroke="black"/>
<path d="M545.857,450.603h 7.39843" fill="none" stroke="black"/>
<path d="M538.459,438.738h 14.7969" fill="none" stroke="black"/>
<path d="M545.857,426.873h 7.39843" fill="none" stroke="black"/>
<path d="M545.857,415.008h 7.39843" fill="none" stroke="black"/>
<path d="M545.857,403.143h 7.39843" fill="none" stroke="black"/>
<path d="M545.857,391.278h 7.39843" fill="none" stroke="black"/>
<path d="M538.459,379.412h 14.7969" fill="none" stroke="black"/>
<path d="M545.857,367.547h 7.39843" fill="none" stroke="black"/>
<path d="M545.857,355.682h 7.39843" fill="none" stroke="black"/>
<path d="M545.857,343.817h 7.39843" fill="none" stroke="black"/>
<path d="M545.857,331.952h 7.39843" fill="none" stroke="black"/>
<path d="M538.459,320.087h 14.7969" fill="none" stroke="black"/>
<path d="M545.857,308.222h 7.39843" fill="none" stroke="black"/>
<path d="M545.857,296.357h 7.39843" fill="none" stroke="black"/>
<path d="M545.857,284.491h 7.39843" fill="none" stroke="black"/>
<path d="M545.857,272.626h 7.39843" fill="none" stroke="black"/>
<path d="M538.459,260.761h 14.7969" fill="none" stroke="black"/>
<path d="M545.857,248.896h 7.39843" fill="none" stroke="black"/>
<path d="M545.857,237.031h 7.39843" fill="none" stroke="black"/>
<path d="M545.857,225.166h 7.39843" fill="none" stroke="black"/>
<path d="M545.857,213.301h 7.39843" fill="none" stroke="black"/>
<path d="M538.459,201.436h 14.7969" fill="none" stroke="black"/>
<path d="M545.857,189.571h 7.39843" fill="none" stroke="black"/>
<path d="M545.857,177.705h 7.39843" fill="none" stroke="black"/>
<path d="M545.857,165.84h 7.39843" fill="none" stroke="black"/>
<path d="M545.857,153.975h 7.39843" fill="none" stroke="black"/>
<path d="M538.459,142.11h 14.7969" fill="none" stroke="black"/>
<path d="M545.857,130.245h 7.39843" fill="none" stroke="black"/>
<path d="M545.857,118.38h 7.39843" fill="none" stroke="black"/>
<path d="M545.857,106.515h 7.39843" fill="none" stroke="black"/>
<path d="M545.857,94.6496h 7.39843" fill="none" stroke="black"/>
<path d="M538.459,82.7845h 14.7969" fill="none" stroke="black"/>
<path d="M545.857,70.9194h 7.39843" fill="none" stroke="black"/>
<path d="M545.857,59.0543h 7.39843" fill="none" stroke="black"/>
<path d="M545.857,47.1892h 7.39843" fill="none" stroke="black"/>
<path d="M545.857,35.324h 7.39843" fill="none" stroke="black"/>
<path d="M538.459,23.4589h 14.7969" fill="none" stroke="black"/>
<path d="M538.459,23.4589h 14.7969" fill="none" stroke="black"/>
<g stroke="#333333" stroke-width="2" fill="none">
<circle cx="282.098" cy="221.956" r="5.63548"/>
</g>
<g stroke="#333333" stroke-width="2" fill="none">
<circle cx="286.897" cy="221.529" r="5.63548"/>
</g>
<g stroke="#333333" stroke-width="2" fill="none">
<circle cx="291.697" cy="222.854" r="5.63548"/>
</g>
<g stroke="#333333" stroke-width="2" fill="none">
<circle cx="296.496" cy="223.409" r="5.63548"/>
</g>
<g stroke="#333333" stroke-width="2" fill="none">
<circle cx="301.295" cy="225.295" r="5.63548"/>
</g>
<g stroke="#333333" stroke-width="2" fill="none">
<circle cx="306.094" cy="225.389" r="5.63548"/>
</g>
<g stroke="#333333" stroke-width="2" fill="none">
<circle cx="310.894" cy="225.341" r="5.63548"/>
</g>
<g stroke="#333333" stroke-width="2" fill="none">
<circle cx="315.693" cy="226.669" r="5.63548"/>
</g>
<g stroke="#333333" stroke-width="2" fill="none">
<circle cx="320.492" cy="229.646" r="5.63548"/>
</g>
<g stroke="#333333" stroke-width="2" fill="none">
<circle cx="325.291" cy="228.679" r="5.63548"/>
</g>
<g stroke="#333333" stroke-width="2" fill="none">
<circle cx="330.091" cy="229.119" r="5.63548"/>
</g>
<g stroke="#333333" stroke-width="2" fill="none">
<circle cx="334.89" cy="232.617" r="5.63548"/>
</g>
<path d="M98.7518,207.373l 0.44993, 0.0368301l 0.44993, 0.0368301l 0.44993, 0.0368301l 0.44993, 0.0368301l 0.44993, 0.0368301l 0.44993, 0.0368301l 0.44993, 0.0368301l 0.44993, 0.0368301l 0.44993, 0.0368301l 0.44993, 0.0368301l 0.44993, 0.0368301l
 0.44993, 0.0368301l 0.44993, 0.0368301l 0.44993, 0.0368301l 0.44993, 0.0368301l 0.44993, 0.0368301l 0.44993, 0.0368301l 0.44993, 0.0368301l 0.44993, 0.0368301l 0.44993, 0.0368301l 0.44993, 0.0368301l 0.44993, 0.0368301l 0.44993, 0.0368301l 0.44993,
 0.0368301l 0.44993, 0.0368301l 0.44993, 0.0368301l 0.44993, 0.0368301l 0.44993, 0.0368301l 0.44993, 0.0368301l 0.44993, 0.0368301l 0.44993, 0.0368301l 0.44993, 0.0368301l 0.44993, 0.0368301l 0.44993, 0.0368301l 0.44993, 0.0368301l 0.44993,
 0.0368301l 0.44993, 0.0368301l 0.44993, 0.0368301l 0.44993, 0.0368301l 0.44993, 0.0368301l 0.44993, 0.0368301l 0.44993, 0.0368301l 0.44993, 0.0368301l 0.44993, 0.0368301l 0.44993, 0.0368301l 0.44993, 0.0368301l 0.44993, 0.0368301l 0.44993,
 0.0368301l 0.44993, 0.0368301" fill="none" stroke="#33cccc" stroke-width="3"/>
<path d="M120.798,209.178l 0.44993, 0.0368301l 0.44993, 0.0368301l 0.44993, 0.0368301l 0.44993, 0.0368301l 0.44993, 0.0368301l 0.44993, 0.0368301l 0.44993, 0.0368301l 0.44993, 0.0368301l 0.44993, 0.0368301l 0.44993, 0.0368301l 0.44993, 0.0368301l
 0.44993, 0.0368301l 0.44993, 0.0368301l 0.44993, 0.0368301l 0.44993, 0.0368301l 0.44993, 0.0368301l 0.44993, 0.0368301l 0.44993, 0.0368301l 0.44993, 0.0368301l 0.44993, 0.0368301l 0.44993, 0.0368301l 0.44993, 0.0368301l 0.44993, 0.0368301l 0.44993,
 0.0368301l 0.44993, 0.0368301l 0.44993, 0.0368301l 0.44993, 0.0368301l 0.44993, 0.0368301l 0.44993, 0.0368301l 0.44993, 0.0368301l 0.44993, 0.0368301l 0.44993, 0.0368301l 0.44993, 0.0368301l 0.44993, 0.0368301l 0.44993, 0.0368301l 0.44993,
 0.0368301l 0.44993, 0.0368301l 0.44993, 0.0368301l 0.44993, 0.0368301l 0.44993, 0.0368301l 0.44993, 0.0368301l 0.44993, 0.0368301l 0.44993, 0.0368301l 0.44993, 0.0368301l 0.44993, 0.0368301l 0.44993, 0.0368301l 0.44993, 0.0368301l 0.44993,
 0.0368301l 0.44993, 0.0368301" fill="none" stroke="#33cccc" stroke-width="3"/>
<path d="M142.845,210.983l 0.44993, 0.0368301l 0.44993, 0.0368301l 0.44993, 0.0368301l 0.44993, 0.0368301l 0.44993, 0.0368301l 0.44993, 0.0368301l 0.44993, 0.0368301l 0.44993, 0.0368301l 0.44993, 0.0368301l 0.44993, 0.0368301l 0.44993, 0.0368301l
 0.44993, 0.0368301l 0.44993, 0.0368301l 0.44993, 0.0368301l 0.44993, 0.0368301l 0.44993, 0.0368301l 0.44993, 0.0368301l 0.44993, 0.0368301l 0.44993, 0.0368301l 0.44993, 0.0368301l 0.44993, 0.0368301l 0.44993, 0.0368301l 0.44993, 0.0368301l 0.44993,
 0.0368301l 0.44993, 0.0368301l 0.44993, 0.0368301l 0.44993, 0.0368301l 0.44993, 0.0368301l 0.44993, 0.0368301l 0.44993, 0.0368301l 0.44993, 0.0368301l 0.44993, 0.0368301l 0.44993, 0.0368301l 0.44993, 0.0368301l 0.44993, 0.0368301l 0.44993,
 0.0368301l 0.44993, 0.0368301l 0.44993, 0.0368301l 0.44993, 0.0368301l 0.44993, 0.0368301l 0.44993, 0.0368301l 0.44993, 0.0368301l 0.44993, 0.0368301l 0.44993, 0.0368301l 0.44993, 0.0368301l 0.44993, 0.0368301l 0.44993, 0.0368301l 0.44993,
 0.0368301l 0.44993, 0.0368301" fill="none" stroke="#33cccc" stroke-width="3"/>
<path d="M164.891,212.787l 0.44993, 0.0368301l 0.44993, 0.0368301l 0.44993, 0.0368301l 0.44993, 0.0368301l 0.44993, 0.0368301l 0.44993, 0.0368301l 0.44993, 0.0368301l 0.44993, 0.0368301l 0.44993, 0.0368301l 0.44993, 0.0368301l 0.44993, 0.0368301l
 0.44993, 0.0368301l 0.44993, 0.0368301l 0.44993, 0.0368301l 0.44993, 0.0368301l 0.44993, 0.0368301l 0.44993, 0.0368301l 0.44993, 0.0368301l 0.44993, 0.0368301l 0.44993, 0.0368301l 0.44993, 0.0368301l 0.44993, 0.0368301l 0.44993, 0.0368301l 0.44993,
 0.0368301l 0.44993, 0.0368301l 0.44993, 0.0368301l 0.44993, 0.0368301l 0.44993, 0.0368301l 0.44993, 0.0368301l 0.44993, 0.0368301l 0.44993, 0.0368301l 0.44993, 0.0368301l 0.44993, 0.0368301l 0.44993, 0.0368301l 0.44993, 0.0368301l 0.44993,
 0.0368301l 0.44993, 0.0368301l 0.44993, 0.0368301l 0.44993, 0.0368301l 0.44993, 0.0368301l 0.44993, 0.0368301l 0.44993, 0.0368301l 0.44993, 0.0368301l 0.44993, 0.0368301l 0.44993, 0.0368301l 0.44993, 0.0368301l 0.44993, 0.0368301l 0.44993,
 0.0368301l 0.44993, 0.0368301" fill="none" stroke="#33cccc" stroke-width="3"/>
<path d="M186.938,214.592l 0.44993, 0.0368301l 0.44993, 0.0368301l 0.44993, 0.0368301l 0.44993, 0.0368301l 0.44993, 0.0368301l 0.44993, 0.0368301l 0.44993, 0.0368301l 0.44993, 0.0368301l 0.44993, 0.0368301l 0.44993, 0.0368301l 0.44993, 0.0368301l
 0.44993, 0.0368301l 0.44993, 0.0368301l 0.44993, 0.0368301l 0.44993, 0.0368301l 0.44993, 0.0368301l 0.44993, 0.0368301l 0.44993, 0.0368301l 0.44993, 0.0368301l 0.44993, 0.0368301l 0.44993, 0.0368301l 0.44993, 0.0368301l 0.44993, 0.0368301l 0.44993,
 0.0368301l 0.44993, 0.0368301l 0.44993, 0.0368301l 0.44993, 0.0368301l 0.44993, 0.0368301l 0.44993, 0.0368301l 0.44993, 0.0368301l 0.44993, 0.0368301l 0.44993, 0.0368301l 0.44993, 0.0368301l 0.44993, 0.0368301l 0.44993, 0.0368301l 0.44993,
 0.0368301l 0.44993, 0.0368301l 0.44993, 0.0368301l 0.44993, 0.0368301l 0.44993, 0.0368301l 0.44993, 0.0368301l 0.44993, 0.0368301l 0.44993, 0.0368301l 0.44993, 0.0368301l 0.44993, 0.0368301l 0.44993, 0.0368301l 0.44993, 0.0368301l 0.44993,
 0.0368301l 0.44993, 0.0368301" fill="none" stroke="#33cccc" stroke-width="3"/>
<path d="M208.985,216.397l 0.44993, 0.0368301l 0.44993, 0.0368301l 0.44993, 0.0368301l 0.44993, 0.0368301l 0.44993, 0.0368301l 0.44993, 0.0368301l 0.44993, 0.0368301l 0.44993, 0.0368301l 0.44993, 0.0368301l 0.44993, 0.0368301l 0.44993, 0.0368301l
 0.44993, 0.0368301l 0.44993, 0.0368301l 0.44993, 0.0368301l 0.44993, 0.0368301l 0.44993, 0.0368301l 0.44993, 0.0368301l 0.44993, 0.0368301l 0.44993, 0.0368301l 0.44993, 0.0368301l 0.44993, 0.0368301l 0.44993, 0.0368301l 0.44993, 0.0368301l 0.44993,
 0.0368301l 0.44993, 0.0368301l 0.44993, 0.0368301l 0.44993, 0.0368301l 0.44993, 0.0368301l 0.44993, 0.0368301l 0.44993, 0.0368301l 0.44993, 0.0368301l 0.44993, 0.0368301l 0.44993, 0.0368301l 0.44993, 0.0368301l 0.44993, 0.0368301l 0.44993,
 0.0368301l 0.44993, 0.0368301l 0.44993, 0.0368301l 0.44993, 0.0368301l 0.44993, 0.0368301l 0.44993, 0.0368301l 0.44993, 0.0368301l 0.44993, 0.0368301l 0.44993, 0.0368301l 0.44993, 0.0368301l 0.44993, 0.0368301l 0.44993, 0.0368301l 0.44993,
 0.0368301l 0.44993, 0.0368301" fill="none" stroke="#33cccc" stroke-width="3"/>
<path d="M231.031,218.201l 0.44993, 0.0368301l 0.44993, 0.0368301l 0.44993, 0.0368301l 0.44993, 0.0368301l 0.44993, 0.0368301l 0.44993, 0.0368301l 0.44993, 0.0368301l 0.44993, 0.0368301l 0.44993, 0.0368301l 0.44993, 0.0368301l 0.44993, 0.0368301l
 0.44993, 0.0368301l 0.44993, 0.0368301l 0.44993, 0.0368301l 0.44993, 0.0368301l 0.44993, 0.0368301l 0.44993, 0.0368301l 0.44993, 0.0368301l 0.44993, 0.0368301l 0.44993, 0.0368301l 0.44993, 0.0368301l 0.44993, 0.0368301l 0.44993, 0.0368301l 0.44993,
 0.0368301l 0.44993, 0.0368301l 0.44993, 0.0368301l 0.44993, 0.0368301l 0.44993, 0.0368301l 0.44993, 0.0368301l 0.44993, 0.0368301l 0.44993, 0.0368301l 0.44993, 0.0368301l 0.44993, 0.0368301l 0.44993, 0.0368301l 0.44993, 0.0368301l 0.44993,
 0.0368301l 0.44993, 0.0368301l 0.44993, 0.0368301l 0.44993, 0.0368301l 0.44993, 0.0368301l 0.44993, 0.0368301l 0.44993, 0.0368301l 0.44993, 0.0368301l 0.44993, 0.0368301l 0.44993, 0.0368301l 0.44993, 0.0368301l 0.44993, 0.0368301l 0.44993,
 0.0368301l 0.44993, 0.0368301" fill="none" stroke="#33cccc" stroke-width="3"/>
<path d="M253.078,220.006l 0.44993, 0.0368301l 0.44993, 0.0368301l 0.44993, 0.0368301l 0.44993, 0.0368301l 0.44993, 0.0368301l 0.44993, 0.0368301l 0.44993, 0.0368301l 0.44993, 0.0368301l 0.44993, 0.0368301l 0.44993, 0.0368301l 0.44993, 0.0368301l
 0.44993, 0.0368301l 0.44993, 0.0368301l 0.44993, 0.0368301l 0.44993, 0.0368301l 0.44993, 0.0368301l 0.44993, 0.0368301l 0.44993, 0.0368301l 0.44993, 0.0368301l 0.44993, 0.0368301l 0.44993, 0.0368301l 0.44993, 0.0368301l 0.44993, 0.0368301l 0.44993,
 0.0368301l 0.44993, 0.0368301l 0.44993, 0.0368301l 0.44993, 0.0368301l 0.44993, 0.0368301l 0.44993, 0.0368301l 0.44993, 0.0368301l 0.44993, 0.0368301l 0.44993, 0.0368301l 0.44993, 0.0368301l 0.44993, 0.0368301l 0.44993, 0.0368301l 0.44993,
 0.0368301l 0.44993, 0.0368301l 0.44993, 0.0368301l 0.44993, 0.0368301l 0.44993, 0.0368301l 0.44993, 0.0368301l 0.44993, 0.0368301l 0.44993, 0.0368301l 0.44993, 0.0368301l 0.44993, 0.0368301l 0.44993, 0.0368301l 0.44993, 0.0368301l 0.44993,
 0.0368301l 0.44993, 0.0368301" fill="none" stroke="#33cccc" stroke-width="3"/>
<path d="M275.124,221.811l 0.44993, 0.0368301l 0.44993, 0.0368301l 0.44993, 0.0368301l 0.44993, 0.0368301l 0.44993, 0.0368301l 0.44993, 0.0368301l 0.44993, 0.0368301l 0.44993, 0.0368301l 0.44993, 0.0368301l 0.44993, 0.0368301l 0.44993, 0.0368301l
 0.44993, 0.0368301l 0.44993, 0.0368301l 0.44993, 0.0368301l 0.44993, 0.0368301l 0.44993, 0.0368301l 0.44993, 0.0368301l 0.44993, 0.0368301l 0.44993, 0.0368301l 0.44993, 0.0368301l 0.44993, 0.0368301l 0.44993, 0.0368301l 0.44993, 0.0368301l 0.44993,
 0.0368301l 0.44993, 0.0368301l 0.44993, 0.0368301l 0.44993, 0.0368301l 0.44993, 0.0368301l 0.44993, 0.0368301l 0.44993, 0.0368301l 0.44993, 0.0368301l 0.44993, 0.0368301l 0.44993, 0.0368301l 0.44993, 0.0368301l 0.44993, 0.0368301l 0.44993,
 0.0368301l 0.44993, 0.0368301l 0.44993, 0.0368301l 0.44993, 0.0368301l 0.44993, 0.0368301l 0.44993, 0.0368301l 0.44993, 0.0368301l 0.44993, 0.0368301l 0.44993, 0.0368301l 0.44993, 0.0368301l 0.44993, 0.0368301l 0.44993, 0.0368301l 0.44993,
 0.0368301l 0.44993, 0.0368301" fill="none" stroke="#33cccc" stroke-width="3"/>
<path d="M297.171,223.615l 0.44993, 0.0368301l 0.44993, 0.0368301l 0.44993, 0.0368301l 0.44993, 0.0368301l 0.44993, 0.0368301l 0.44993, 0.0368301l 0.44993, 0.0368301l 0.44993, 0.0368301l 0.44993, 0.0368301l 0.44993, 0.0368301l 0.44993, 0.0368301l
 0.44993, 0.0368301l 0.44993, 0.0368301l 0.44993, 0.0368301l 0.44993, 0.0368301l 0.44993, 0.0368301l 0.44993, 0.0368301l 0.44993, 0.0368301l 0.44993, 0.0368301l 0.44993, 0.0368301l 0.44993, 0.0368301l 0.44993, 0.0368301l 0.44993, 0.0368301l 0.44993,
 0.0368301l 0.44993, 0.0368301l 0.44993, 0.0368301l 0.44993, 0.0368301l 0.44993, 0.0368301l 0.44993, 0.0368301l 0.44993, 0.0368301l 0.44993, 0.0368301l 0.44993, 0.0368301l 0.44993, 0.0368301l 0.44993, 0.0368301l 0.44993, 0.0368301l 0.44993,
 0.0368301l 0.44993, 0.0368301l 0.44993, 0.0368301l 0.44993, 0.0368301l 0.44993, 0.0368301l 0.44993, 0.0368301l 0.44993, 0.0368301l 0.44993, 0.0368301l 0.44993, 0.0368301l 0.44993, 0.0368301l 0.44993, 0.0368301l 0.44993, 0.0368301l 0.44993,
 0.0368301l 0.44993, 0.0368301" fill="none" stroke="#33cccc" stroke-width="3"/>
<path d="M319.217,225.42l 0.44993, 0.0368301l 0.44993, 0.0368301l 0.44993, 0.0368301l 0.44993, 0.0368301l 0.44993, 0.0368301l 0.44993, 0.0368301l 0.44993, 0.0368301l 0.44993, 0.0368301l 0.44993, 0.0368301l 0.44993, 0.0368301l 0.44993, 0.0368301l
 0.44993, 0.0368301l 0.44993, 0.0368301l 0.44993, 0.0368301l 0.44993, 0.0368301l 0.44993, 0.0368301l 0.44993, 0.0368301l 0.44993, 0.0368301l 0.44993, 0.0368301l 0.44993, 0.0368301l 0.44993, 0.0368301l 0.44993, 0.0368301l 0.44993, 0.0368301l 0.44993,
 0.0368301l 0.44993, 0.0368301l 0.44993, 0.0368301l 0.44993, 0.0368301l 0.44993, 0.0368301l 0.44993, 0.0368301l 0.44993, 0.0368301l 0.44993, 0.0368301l 0.44993, 0.0368301l 0.44993, 0.0368301l 0.44993, 0.0368301l 0.44993, 0.0368301l 0.44993,
 0.0368301l 0.44993, 0.0368301l 0.44993, 0.0368301l 0.44993, 0.0368301l 0.44993, 0.0368301l 0.44993, 0.0368301l 0.44993, 0.0368301l 0.44993, 0.0368301l 0.44993, 0.0368301l 0.44993, 0.0368301l 0.44993, 0.0368301l 0.44993, 0.0368301l 0.44993,
 0.0368301l 0.44993, 0.0368301" fill="none" stroke="#33cccc" stroke-width="3"/>
<path d="M341.264,227.225l 0.44993, 0.0368301l 0.44993, 0.0368301l 0.44993, 0.0368301l 0.44993, 0.0368301l 0.44993, 0.0368301l 0.44993, 0.0368301l 0.44993, 0.0368301l 0.44993, 0.0368301l 0.44993, 0.0368301l 0.44993, 0.0368301l 0.44993, 0.0368301l
 0.44993, 0.0368301l 0.44993, 0.0368301l 0.44993, 0.0368301l 0.44993, 0.0368301l 0.44993, 0.0368301l 0.44993, 0.0368301l 0.44993, 0.0368301l 0.44993, 0.0368301l 0.44993, 0.0368301l 0.44993, 0.0368301l 0.44993, 0.0368301l 0.44993, 0.0368301l 0.44993,
 0.0368301l 0.44993, 0.0368301l 0.44993, 0.0368301l 0.44993, 0.0368301l 0.44993, 0.0368301l 0.44993, 0.0368301l 0.44993, 0.0368301l 0.44993, 0.0368301l 0.44993, 0.0368301l 0.44993, 0.0368301l 0.44993, 0.0368301l 0.44993, 0.0368301l 0.44993,
 0.0368301l 0.44993, 0.0368301l 0.44993, 0.0368301l 0.44993, 0.0368301l 0.44993, 0.0368301l 0.44993, 0.0368301l 0.44993, 0.0368301l 0.44993, 0.0368301l 0.44993, 0.0368301l 0.44993, 0.0368301l 0.44993, 0.0368301l 0.44993, 0.0368301l 0.44993,
 0.0368301l 0.44993, 0.0368301" fill="none" stroke="#33cccc" stroke-width="3"/>
<path d="M363.311,229.03l 0.44993, 0.0368301l 0.44993, 0.0368301l 0.44993, 0.0368301l 0.44993, 0.0368301l 0.44993, 0.0368301l 0.44993, 0.0368301l 0.44993, 0.0368301l 0.44993, 0.0368301l 0.44993, 0.0368301l 0.44993, 0.0368301l 0.44993, 0.0368301l
 0.44993, 0.0368301l 0.44993, 0.0368301l 0.44993, 0.0368301l 0.44993, 0.0368301l 0.44993, 0.0368301l 0.44993, 0.0368301l 0.44993, 0.0368301l 0.44993, 0.0368301l 0.44993, 0.0368301l 0.44993, 0.0368301l 0.44993, 0.0368301l 0.44993, 0.0368301l 0.44993,
 0.0368301l 0.44993, 0.0368301l 0.44993, 0.0368301l 0.44993, 0.0368301l 0.44993, 0.0368301l 0.44993, 0.0368301l 0.44993, 0.0368301l 0.44993, 0.0368301l 0.44993, 0.0368301l 0.44993, 0.0368301l 0.44993, 0.0368301l 0.44993, 0.0368301l 0.44993,
 0.0368301l 0.44993, 0.0368301l 0.44993, 0.0368301l 0.44993, 0.0368301l 0.44993, 0.0368301l 0.44993, 0.0368301l 0.44993, 0.0368301l 0.44993, 0.0368301l 0.44993, 0.0368301l 0.44993, 0.0368301l 0.44993, 0.0368301l 0.44993, 0.0368301l 0.44993,
 0.0368301l 0.44993, 0.0368301" fill="none" stroke="#33cccc" stroke-width="3"/>
<path d="M385.357,230.834l 0.44993, 0.0368301l 0.44993, 0.0368301l 0.44993, 0.0368301l 0.44993, 0.0368301l 0.44993, 0.0368301l 0.44993, 0.0368301l 0.44993, 0.0368301l 0.44993, 0.0368301l 0.44993, 0.0368301l 0.44993, 0.0368301l 0.44993, 0.0368301l
 0.44993, 0.0368301l 0.44993, 0.0368301l 0.44993, 0.0368301l 0.44993, 0.0368301l 0.44993, 0.0368301l 0.44993, 0.0368301l 0.44993, 0.0368301l 0.44993, 0.0368301l 0.44993, 0.0368301l 0.44993, 0.0368301l 0.44993, 0.0368301l 0.44993, 0.0368301l 0.44993,
 0.0368301l 0.44993, 0.0368301l 0.44993, 0.0368301l 0.44993, 0.0368301l 0.44993, 0.0368301l 0.44993, 0.0368301l 0.44993, 0.0368301l 0.44993, 0.0368301l 0.44993, 0.0368301l 0.44993, 0.0368301l 0.44993, 0.0368301l 0.44993, 0.0368301l 0.44993,
 0.0368301l 0.44993, 0.0368301l 0.44993, 0.0368301l 0.44993, 0.0368301l 0.44993, 0.0368301l 0.44993, 0.0368301l 0.44993, 0.0368301l 0.44993, 0.0368301l 0.44993, 0.0368301l 0.44993, 0.0368301l 0.44993, 0.0368301l 0.44993, 0.0368301l 0.44993,
 0.0368301l 0.44993, 0.0368301" fill="none" stroke="#33cccc" stroke-width="3"/>
<path d="M407.404,232.639l 0.44993, 0.0368301l 0.44993, 0.0368301l 0.44993, 0.0368301l 0.44993, 0.0368301l 0.44993, 0.0368301l 0.44993, 0.0368301l 0.44993, 0.0368301l 0.44993, 0.0368301l 0.44993, 0.0368301l 0.44993, 0.0368301l 0.44993, 0.0368301l
 0.44993, 0.0368301l 0.44993, 0.0368301l 0.44993, 0.0368301l 0.44993, 0.0368301l 0.44993, 0.0368301l 0.44993, 0.0368301l 0.44993, 0.0368301l 0.44993, 0.0368301l 0.44993, 0.0368301l 0.44993, 0.0368301l 0.44993, 0.0368301l 0.44993, 0.0368301l 0.44993,
 0.0368301l 0.44993, 0.0368301l 0.44993, 0.0368301l 0.44993, 0.0368301l 0.44993, 0.0368301l 0.44993, 0.0368301l 0.44993, 0.0368301l 0.44993, 0.0368301l 0.44993, 0.0368301l 0.44993, 0.0368301l 0.44993, 0.0368301l 0.44993, 0.0368301l 0.44993,
 0.0368301l 0.44993, 0.0368301l 0.44993, 0.0368301l 0.44993, 0.0368301l 0.44993, 0.0368301l 0.44993, 0.0368301l 0.44993, 0.0368301l 0.44993, 0.0368301l 0.44993, 0.0368301l 0.44993, 0.0368301l 0.44993, 0.0368301l 0.44993, 0.0368301l 0.44993,
 0.0368301l 0.44993, 0.0368301" fill="none" stroke="#33cccc" stroke-width="3"/>
<path d="M429.45,234.444l 0.44993, 0.0368301l 0.44993, 0.0368301l 0.44993, 0.0368301l 0.44993, 0.0368301l 0.44993, 0.0368301l 0.44993, 0.0368301l 0.44993, 0.0368301l 0.44993, 0.0368301l 0.44993, 0.0368301l 0.44993, 0.0368301l 0.44993, 0.0368301l
 0.44993, 0.0368301l 0.44993, 0.0368301l 0.44993, 0.0368301l 0.44993, 0.0368301l 0.44993, 0.0368301l 0.44993, 0.0368301l 0.44993, 0.0368301l 0.44993, 0.0368301l 0.44993, 0.0368301l 0.44993, 0.0368301l 0.44993, 0.0368301l 0.44993, 0.0368301l 0.44993,
 0.0368301l 0.44993, 0.0368301l 0.44993, 0.0368301l 0.44993, 0.0368301l 0.44993, 0.0368301l 0.44993, 0.0368301l 0.44993, 0.0368301l 0.44993, 0.0368301l 0.44993, 0.0368301l 0.44993, 0.0368301l 0.44993, 0.0368301l 0.44993, 0.0368301l 0.44993,
 0.0368301l 0.44993, 0.0368301l 0.44993, 0.0368301l 0.44993, 0.0368301l 0.44993, 0.0368301l 0.44993, 0.0368301l 0.44993, 0.0368301l 0.44993, 0.0368301l 0.44993, 0.0368301l 0.44993, 0.0368301l 0.44993, 0.0368301l 0.44993, 0.0368301l 0.44993,
 0.0368301l 0.44993, 0.0368301" fill="none" stroke="#33cccc" stroke-width="3"/>
<path d="M451.497,236.248l 0.44993, 0.0368301l 0.44993, 0.0368301l 0.44993, 0.0368301l 0.44993, 0.0368301l 0.44993, 0.0368301l 0.44993, 0.0368301l 0.44993, 0.0368301l 0.44993, 0.0368301l 0.44993, 0.0368301l 0.44993, 0.0368301l 0.44993, 0.0368301l
 0.44993, 0.0368301l 0.44993, 0.0368301l 0.44993, 0.0368301l 0.44993, 0.0368301l 0.44993, 0.0368301l 0.44993, 0.0368301l 0.44993, 0.0368301l 0.44993, 0.0368301l 0.44993, 0.0368301l 0.44993, 0.0368301l 0.44993, 0.0368301l 0.44993, 0.0368301l 0.44993,
 0.0368301l 0.44993, 0.0368301l 0.44993, 0.0368301l 0.44993, 0.0368301l 0.44993, 0.0368301l 0.44993, 0.0368301l 0.44993, 0.0368301l 0.44993, 0.0368301l 0.44993, 0.0368301l 0.44993, 0.0368301l 0.44993, 0.0368301l 0.44993, 0.0368301l 0.44993,
 0.0368301l 0.44993, 0.0368301l 0.44993, 0.0368301l 0.44993, 0.0368301l 0.44993, 0.0368301l 0.44993, 0.0368301l 0.44993, 0.0368301l 0.44993, 0.0368301l 0.44993, 0.0368301l 0.44993, 0.0368301l 0.44993, 0.0368301l 0.44993, 0.0368301l 0.44993,
 0.0368301l 0.44993, 0.0368301" fill="none" stroke="#33cccc" stroke-width="3"/>
<path d="M473.543,238.053l 0.44993, 0.0368301l 0.44993, 0.0368301l 0.44993, 0.0368301l 0.44993, 0.0368301l 0.44993, 0.0368301l 0.44993, 0.0368301l 0.44993, 0.0368301l 0.44993, 0.0368301l 0.44993, 0.0368301l 0.44993, 0.0368301l 0.44993, 0.0368301l
 0.44993, 0.0368301l 0.44993, 0.0368301l 0.44993, 0.0368301l 0.44993, 0.0368301l 0.44993, 0.0368301l 0.44993, 0.0368301l 0.44993, 0.0368301l 0.44993, 0.0368301l 0.44993, 0.0368301l 0.44993, 0.0368301l 0.44993, 0.0368301l 0.44993, 0.0368301l 0.44993,
 0.0368301l 0.44993, 0.0368301l 0.44993, 0.0368301l 0.44993, 0.0368301l 0.44993, 0.0368301l 0.44993, 0.0368301l 0.44993, 0.0368301l 0.44993, 0.0368301l 0.44993, 0.0368301l 0.44993, 0.0368301l 0.44993, 0.0368301l 0.44993, 0.0368301l 0.44993,
 0.0368301l 0.44993, 0.0368301l 0.44993, 0.0368301l 0.44993, 0.0368301l 0.44993, 0.0368301l 0.44993, 0.0368301l 0.44993, 0.0368301l 0.44993, 0.0368301l 0.44993, 0.0368301l 0.44993, 0.0368301l 0.44993, 0.0368301l 0.44993, 0.0368301l 0.44993,
 0.0368301l 0.44993, 0.0368301" fill="none" stroke="#33cccc" stroke-width="3"/>
<path d="M495.59,239.858l 0.44993, 0.0368301l 0.44993, 0.0368301l 0.44993, 0.0368301l 0.44993, 0.0368301l 0.44993, 0.0368301l 0.44993, 0.0368301l 0.44993, 0.0368301l 0.44993, 0.0368301l 0.44993, 0.0368301l 0.44993, 0.0368301l 0.44993, 0.0368301l
 0.44993, 0.0368301l 0.44993, 0.0368301l 0.44993, 0.0368301l 0.44993, 0.0368301l 0.44993, 0.0368301l 0.44993, 0.0368301l 0.44993, 0.0368301l 0.44993, 0.0368301l 0.44993, 0.0368301l 0.44993, 0.0368301l 0.44993, 0.0368301l 0.44993, 0.0368301l 0.44993,
 0.0368301l 0.44993, 0.0368301l 0.44993, 0.0368301l 0.44993, 0.0368301l 0.44993, 0.0368301l 0.44993, 0.0368301l 0.44993, 0.0368301l 0.44993, 0.0368301l 0.44993, 0.0368301l 0.44993, 0.0368301l 0.44993, 0.0368301l 0.44993, 0.0368301l 0.44993,
 0.0368301l 0.44993, 0.0368301l 0.44993, 0.0368301l 0.44993, 0.0368301l 0.44993, 0.0368301l 0.44993, 0.0368301l 0.44993, 0.0368301l 0.44993, 0.0368301l 0.44993, 0.0368301l 0.44993, 0.0368301l 0.44993, 0.0368301l 0.44993, 0.0368301l 0.44993,
 0.0368301l 0.44993, 0.0368301" fill="none" stroke="#33cccc" stroke-width="3"/>
<path d="M517.636,241.662l 0.44993, 0.0368301l 0.44993, 0.0368301l 0.44993, 0.0368301l 0.44993, 0.0368301l 0.44993, 0.0368301l 0.44993, 0.0368301l 0.44993, 0.0368301l 0.44993, 0.0368301l 0.44993, 0.0368301l 0.44993, 0.0368301l 0.44993, 0.0368301l
 0.44993, 0.0368301l 0.44993, 0.0368301l 0.44993, 0.0368301l 0.44993, 0.0368301l 0.44993, 0.0368301l 0.44993, 0.0368301l 0.44993, 0.0368301l 0.44993, 0.0368301l 0.44993, 0.0368301l 0.44993, 0.0368301l 0.44993, 0.0368301l 0.44993, 0.0368301l 0.44993,
 0.0368301l 0.44993, 0.0368301l 0.44993, 0.0368301l 0.44993, 0.0368301l 0.44993, 0.0368301l 0.44993, 0.0368301l 0.44993, 0.0368301l 0.44993, 0.0368301l 0.44993, 0.0368301l 0.44993, 0.0368301l 0.44993, 0.0368301l 0.44993, 0.0368301l 0.44993,
 0.0368301l 0.44993, 0.0368301l 0.44993, 0.0368301l 0.44993, 0.0368301l 0.44993, 0.0368301l 0.44993, 0.0368301l 0.44993, 0.0368301l 0.44993, 0.0368301l 0.44993, 0.0368301l 0.44993, 0.0368301l 0.44993, 0.0368301l 0.44993, 0.0368301l 0.44993,
 0.0368301l 0.44993, 0.0368301" fill="none" stroke="#33cccc" stroke-width="3"/>
<path d="M539.683,243.467l 0.44993, 0.0368301l 0.44993, 0.0368301l 0.44993, 0.0368301l 0.44993, 0.0368301l 0.44993, 0.0368301l 0.44993, 0.0368301l 0.44993, 0.0368301l 0.44993, 0.0368301l 0.44993, 0.0368301l 0.44993, 0.0368301l 0.44993, 0.0368301l
 0.44993, 0.0368301l 0.44993, 0.0368301l 0.44993, 0.0368301l 0.44993, 0.0368301l 0.44993, 0.0368301l 0.44993, 0.0368301l 0.44993, 0.0368301l 0.44993, 0.0368301" fill="none" stroke="#33cccc" stroke-width="3"/>
<path d="M98.7518,171.8l 0.44993, 0.177542l 0.44993, 0.177288l 0.44993, 0.177035l 0.44993, 0.176781l 0.44993, 0.176528l 0.44993, 0.176274l 0.44993, 0.176021l 0.44993, 0.175767l 0.44993, 0.175514l 0.44993, 0.17526l 0.44993, 0.175007l 0.44993,
 0.174753l 0.44993, 0.1745l 0.44993, 0.174246l 0.44993, 0.173993l 0.44993, 0.173739l 0.44993, 0.173486l 0.44993, 0.173232l 0.44993, 0.172979l 0.44993, 0.172725l 0.44993, 0.172472l 0.44993, 0.172218l 0.44993, 0.171965l 0.44993, 0.171711l 0.44993,
 0.171458l 0.44993, 0.171204l 0.44993, 0.170951l 0.44993, 0.170697l 0.44993, 0.170444l 0.44993, 0.17019l 0.44993, 0.169937l 0.44993, 0.169683l 0.44993, 0.16943l 0.44993, 0.169176l 0.44993, 0.168923l 0.44993, 0.168669l 0.44993, 0.168416l 0.44993,
 0.168162l 0.44993, 0.167909l 0.44993, 0.167655l 0.44993, 0.167402l 0.44993, 0.167148l 0.44993, 0.166895l 0.44993, 0.166641l 0.44993, 0.166388l 0.44993, 0.166134l 0.44993, 0.165881l 0.44993, 0.165627l 0.44993, 0.165374" fill="none" stroke="#ff0066"
 stroke-width="3"/>
<path d="M120.798,180.201l 0.44993, 0.16512l 0.44993, 0.164867l 0.44993, 0.164613l 0.44993, 0.16436l 0.44993, 0.164106l 0.44993, 0.163853l 0.44993, 0.163599l 0.44993, 0.163346l 0.44993, 0.163092l 0.44993, 0.162839l 0.44993, 0.162585l 0.44993,
 0.162332l 0.44993, 0.162078l 0.44993, 0.161825l 0.44993, 0.161571l 0.44993, 0.161318l 0.44993, 0.161064l 0.44993, 0.160811l 0.44993, 0.160557l 0.44993, 0.160304l 0.44993, 0.16005l 0.44993, 0.159797l 0.44993, 0.159543l 0.44993, 0.15929l 0.44993,
 0.159036l 0.44993, 0.158783l 0.44993, 0.158529l 0.44993, 0.158276l 0.44993, 0.158022l 0.44993, 0.157769l 0.44993, 0.157515l 0.44993, 0.157262l 0.44993, 0.157008l 0.44993, 0.156755l 0.44993, 0.156501l 0.44993, 0.156248l 0.44993, 0.155994l 0.44993,
 0.155741l 0.44993, 0.155487l 0.44993, 0.155234l 0.44993, 0.15498l 0.44993, 0.154727l 0.44993, 0.154473l 0.44993, 0.15422l 0.44993, 0.153966l 0.44993, 0.153713l 0.44993, 0.153459l 0.44993, 0.153206l 0.44993, 0.152952" fill="none" stroke="#ff0066"
 stroke-width="3"/>
<path d="M142.845,187.994l 0.44993, 0.152699l 0.44993, 0.152445l 0.44993, 0.152192l 0.44993, 0.151938l 0.44993, 0.151685l 0.44993, 0.151431l 0.44993, 0.151178l 0.44993, 0.150924l 0.44993, 0.150671l 0.44993, 0.150417l 0.44993, 0.150164l 0.44993,
 0.14991l 0.44993, 0.149657l 0.44993, 0.149403l 0.44993, 0.14915l 0.44993, 0.148896l 0.44993, 0.148643l 0.44993, 0.148389l 0.44993, 0.148136l 0.44993, 0.147882l 0.44993, 0.147629l 0.44993, 0.147375l 0.44993, 0.147122l 0.44993, 0.146868l 0.44993,
 0.146615l 0.44993, 0.146361l 0.44993, 0.146108l 0.44993, 0.145854l 0.44993, 0.145601l 0.44993, 0.145347l 0.44993, 0.145094l 0.44993, 0.14484l 0.44993, 0.144587l 0.44993, 0.144333l 0.44993, 0.14408l 0.44993, 0.143826l 0.44993, 0.143573l 0.44993,
 0.143319l 0.44993, 0.143066l 0.44993, 0.142812l 0.44993, 0.142559l 0.44993, 0.142305l 0.44993, 0.142052l 0.44993, 0.141798l 0.44993, 0.141545l 0.44993, 0.141291l 0.44993, 0.141038l 0.44993, 0.140784l 0.44993, 0.140531" fill="none" stroke="#ff0066"
 stroke-width="3"/>
<path d="M164.891,195.178l 0.44993, 0.140277l 0.44993, 0.140024l 0.44993, 0.13977l 0.44993, 0.139517l 0.44993, 0.139263l 0.44993, 0.13901l 0.44993, 0.138756l 0.44993, 0.138503l 0.44993, 0.138249l 0.44993, 0.137996l 0.44993, 0.137742l 0.44993,
 0.137489l 0.44993, 0.137235l 0.44993, 0.136982l 0.44993, 0.136728l 0.44993, 0.136475l 0.44993, 0.136221l 0.44993, 0.135968l 0.44993, 0.135714l 0.44993, 0.135461l 0.44993, 0.135207l 0.44993, 0.134954l 0.44993, 0.1347l 0.44993, 0.134447l 0.44993,
 0.134193l 0.44993, 0.13394l 0.44993, 0.133686l 0.44993, 0.133433l 0.44993, 0.133179l 0.44993, 0.132926l 0.44993, 0.132672l 0.44993, 0.132419l 0.44993, 0.132165l 0.44993, 0.131912l 0.44993, 0.131658l 0.44993, 0.131405l 0.44993, 0.131151l 0.44993,
 0.130898l 0.44993, 0.130644l 0.44993, 0.130391l 0.44993, 0.130137l 0.44993, 0.129884l 0.44993, 0.12963l 0.44993, 0.129377l 0.44993, 0.129123l 0.44993, 0.12887l 0.44993, 0.128616l 0.44993, 0.128363l 0.44993, 0.128109" fill="none" stroke="#ff0066"
 stroke-width="3"/>
<path d="M186.938,201.753l 0.44993, 0.127856l 0.44993, 0.127602l 0.44993, 0.127349l 0.44993, 0.127095l 0.44993, 0.126842l 0.44993, 0.126588l 0.44993, 0.126335l 0.44993, 0.126081l 0.44993, 0.125828l 0.44993, 0.125574l 0.44993, 0.125321l 0.44993,
 0.125067l 0.44993, 0.124814l 0.44993, 0.12456l 0.44993, 0.124307l 0.44993, 0.124053l 0.44993, 0.1238l 0.44993, 0.123546l 0.44993, 0.123293l 0.44993, 0.123039l 0.44993, 0.122786l 0.44993, 0.122532l 0.44993, 0.122279l 0.44993, 0.122025l 0.44993,
 0.121772l 0.44993, 0.121518l 0.44993, 0.121265l 0.44993, 0.121011l 0.44993, 0.120758l 0.44993, 0.120504l 0.44993, 0.120251l 0.44993, 0.119997l 0.44993, 0.119744l 0.44993, 0.11949l 0.44993, 0.119237l 0.44993, 0.118983l 0.44993, 0.11873l 0.44993,
 0.118476l 0.44993, 0.118223l 0.44993, 0.117969l 0.44993, 0.117716l 0.44993, 0.117462l 0.44993, 0.117209l 0.44993, 0.116955l 0.44993, 0.116702l 0.44993, 0.116448l 0.44993, 0.116195l 0.44993, 0.115941l 0.44993, 0.115688" fill="none" stroke="#ff0066"
 stroke-width="3"/>
<path d="M208.985,207.72l 0.44993, 0.115434l 0.44993, 0.115181l 0.44993, 0.114927l 0.44993, 0.114674l 0.44993, 0.11442l 0.44993, 0.114167l 0.44993, 0.113913l 0.44993, 0.11366l 0.44993, 0.113406l 0.44993, 0.113153l 0.44993, 0.112899l 0.44993,
 0.112646l 0.44993, 0.112392l 0.44993, 0.112139l 0.44993, 0.111885l 0.44993, 0.111632l 0.44993, 0.111378l 0.44993, 0.111125l 0.44993, 0.110871l 0.44993, 0.110618l 0.44993, 0.110364l 0.44993, 0.110111l 0.44993, 0.109857l 0.44993, 0.109604l 0.44993,
 0.10935l 0.44993, 0.109097l 0.44993, 0.108843l 0.44993, 0.10859l 0.44993, 0.108336l 0.44993, 0.108083l 0.44993, 0.107829l 0.44993, 0.107576l 0.44993, 0.107322l 0.44993, 0.107069l 0.44993, 0.106815l 0.44993, 0.106562l 0.44993, 0.106308l 0.44993,
 0.106055l 0.44993, 0.105801l 0.44993, 0.105548l 0.44993, 0.105294l 0.44993, 0.105041l 0.44993, 0.104787l 0.44993, 0.104534l 0.44993, 0.10428l 0.44993, 0.104027l 0.44993, 0.103773l 0.44993, 0.10352l 0.44993, 0.103266" fill="none" stroke="#ff0066"
 stroke-width="3"/>
<path d="M231.031,213.078l 0.44993, 0.103013l 0.44993, 0.102759l 0.44993, 0.102506l 0.44993, 0.102252l 0.44993, 0.101999l 0.44993, 0.101745l 0.44993, 0.101492l 0.44993, 0.101238l 0.44993, 0.100985l 0.44993, 0.100731l 0.44993, 0.100478l 0.44993,
 0.100224l 0.44993, 0.0999706l 0.44993, 0.0997171l 0.44993, 0.0994636l 0.44993, 0.0992101l 0.44993, 0.0989566l 0.44993, 0.0987031l 0.44993, 0.0984496l 0.44993, 0.0981961l 0.44993, 0.0979426l 0.44993, 0.0976891l 0.44993, 0.0974356l 0.44993, 0.0971821l
 0.44993, 0.0969286l 0.44993, 0.0966751l 0.44993, 0.0964216l 0.44993, 0.0961681l 0.44993, 0.0959146l 0.44993, 0.0956611l 0.44993, 0.0954076l 0.44993, 0.0951541l 0.44993, 0.0949006l 0.44993, 0.0946471l 0.44993, 0.0943936l 0.44993, 0.0941401l 0.44993,
 0.0938866l 0.44993, 0.0936331l 0.44993, 0.0933796l 0.44993, 0.0931261l 0.44993, 0.0928726l 0.44993, 0.0926191l 0.44993, 0.0923656l 0.44993, 0.0921121l 0.44993, 0.0918586l 0.44993, 0.0916051l 0.44993, 0.0913516l 0.44993, 0.0910981l 0.44993,
 0.0908446" fill="none" stroke="#ff0066" stroke-width="3"/>
<path d="M253.078,217.828l 0.44993, 0.0905911l 0.44993, 0.0903376l 0.44993, 0.0900841l 0.44993, 0.0898306l 0.44993, 0.0895771l 0.44993, 0.0893236l 0.44993, 0.0890701l 0.44993, 0.0888166l 0.44993, 0.0885631l 0.44993, 0.0883096l 0.44993, 0.0880561l
 0.44993, 0.0878026l 0.44993, 0.0875491l 0.44993, 0.0872956l 0.44993, 0.0870421l 0.44993, 0.0867886l 0.44993, 0.0865351l 0.44993, 0.0862816l 0.44993, 0.0860281l 0.44993, 0.0857746l 0.44993, 0.0855211l 0.44993, 0.0852676l 0.44993, 0.0850141l 0.44993,
 0.0847606l 0.44993, 0.0845071l 0.44993, 0.0842535l 0.44993, 0.0840001l 0.44993, 0.0837466l 0.44993, 0.083493l 0.44993, 0.0832395l 0.44993, 0.082986l 0.44993, 0.0827325l 0.44993, 0.082479l 0.44993, 0.0822255l 0.44993, 0.081972l 0.44993, 0.0817185l
 0.44993, 0.081465l 0.44993, 0.0812115l 0.44993, 0.080958l 0.44993, 0.0807045l 0.44993, 0.080451l 0.44993, 0.0801975l 0.44993, 0.079944l 0.44993, 0.0796905l 0.44993, 0.079437l 0.44993, 0.0791835l 0.44993, 0.07893l 0.44993, 0.0786765l 0.44993,
 0.078423" fill="none" stroke="#ff0066" stroke-width="3"/>
<path d="M275.124,221.969l 0.44993, 0.0781695l 0.44993, 0.077916l 0.44993, 0.0776625l 0.44993, 0.077409l 0.44993, 0.0771555l 0.44993, 0.076902l 0.44993, 0.0766485l 0.44993, 0.076395l 0.44993, 0.0761415l 0.44993, 0.075888l 0.44993, 0.0756345l 0.44993,
 0.075381l 0.44993, 0.0751275l 0.44993, 0.074874l 0.44993, 0.0746205l 0.44993, 0.074367l 0.44993, 0.0741135l 0.44993, 0.07386l 0.44993, 0.0736065l 0.44993, 0.073353l 0.44993, 0.0730995l 0.44993, 0.072846l 0.44993, 0.0725925l 0.44993, 0.072339l
 0.44993, 0.0720855l 0.44993, 0.071832l 0.44993, 0.0715785l 0.44993, 0.071325l 0.44993, 0.0710715l 0.44993, 0.070818l 0.44993, 0.0705645l 0.44993, 0.070311l 0.44993, 0.0700575l 0.44993, 0.069804l 0.44993, 0.0695505l 0.44993, 0.069297l 0.44993,
 0.0690435l 0.44993, 0.06879l 0.44993, 0.0685365l 0.44993, 0.068283l 0.44993, 0.0680295l 0.44993, 0.067776l 0.44993, 0.0675225l 0.44993, 0.067269l 0.44993, 0.0670155l 0.44993, 0.066762l 0.44993, 0.0665085l 0.44993, 0.066255l 0.44993, 0.0660015"
 fill="none" stroke="#ff0066" stroke-width="3"/>
<path d="M297.171,225.501l 0.44993, 0.065748l 0.44993, 0.0654945l 0.44993, 0.065241l 0.44993, 0.0649875l 0.44993, 0.064734l 0.44993, 0.0644805l 0.44993, 0.064227l 0.44993, 0.0639735l 0.44993, 0.06372l 0.44993, 0.0634665l 0.44993, 0.063213l 0.44993,
 0.0629595l 0.44993, 0.062706l 0.44993, 0.0624525l 0.44993, 0.062199l 0.44993, 0.0619455l 0.44993, 0.061692l 0.44993, 0.0614385l 0.44993, 0.061185l 0.44993, 0.0609315l 0.44993, 0.060678l 0.44993, 0.0604245l 0.44993, 0.060171l 0.44993, 0.0599175l
 0.44993, 0.059664l 0.44993, 0.0594105l 0.44993, 0.059157l 0.44993, 0.0589035l 0.44993, 0.05865l 0.44993, 0.0583965l 0.44993, 0.058143l 0.44993, 0.0578895l 0.44993, 0.057636l 0.44993, 0.0573825l 0.44993, 0.057129l 0.44993, 0.0568755l 0.44993,
 0.056622l 0.44993, 0.0563685l 0.44993, 0.056115l 0.44993, 0.0558615l 0.44993, 0.0556079l 0.44993, 0.0553544l 0.44993, 0.0551009l 0.44993, 0.0548474l 0.44993, 0.0545939l 0.44993, 0.0543404l 0.44993, 0.0540869l 0.44993, 0.0538334l 0.44993, 0.0535799"
 fill="none" stroke="#ff0066" stroke-width="3"/>
<path d="M319.217,228.424l 0.44993, 0.0533264l 0.44993, 0.0530729l 0.44993, 0.0528194l 0.44993, 0.0525659l 0.44993, 0.0523124l 0.44993, 0.0520589l 0.44993, 0.0518054l 0.44993, 0.0515519l 0.44993, 0.0512984l 0.44993, 0.0510449l 0.44993, 0.0507914l
 0.44993, 0.0505379l 0.44993, 0.0502844l 0.44993, 0.0500309l 0.44993, 0.0497774l 0.44993, 0.0495239l 0.44993, 0.0492704l 0.44993, 0.0490169l 0.44993, 0.0487634l 0.44993, 0.0485099l 0.44993, 0.0482564l 0.44993, 0.0480029l 0.44993, 0.0477494l 0.44993,
 0.0474959l 0.44993, 0.0472424l 0.44993, 0.0469889l 0.44993, 0.0467354l 0.44993, 0.0464819l 0.44993, 0.0462284l 0.44993, 0.0459749l 0.44993, 0.0457214l 0.44993, 0.0454679l 0.44993, 0.0452144l 0.44993, 0.0449609l 0.44993, 0.0447074l 0.44993,
 0.0444539l 0.44993, 0.0442004l 0.44993, 0.0439469l 0.44993, 0.0436934l 0.44993, 0.0434399l 0.44993, 0.0431864l 0.44993, 0.0429329l 0.44993, 0.0426794l 0.44993, 0.0424259l 0.44993, 0.0421724l 0.44993, 0.0419189l 0.44993, 0.0416654l 0.44993,
 0.0414119l 0.44993, 0.0411584" fill="none" stroke="#ff0066" stroke-width="3"/>
<path d="M341.264,230.739l 0.44993, 0.0409049l 0.44993, 0.0406514l 0.44993, 0.0403979l 0.44993, 0.0401444l 0.44993, 0.0398909l 0.44993, 0.0396374l 0.44993, 0.0393839l 0.44993, 0.0391304l 0.44993, 0.0388769l 0.44993, 0.0386234l 0.44993, 0.0383699l
 0.44993, 0.0381164l 0.44993, 0.0378629l 0.44993, 0.0376094l 0.44993, 0.0373559l 0.44993, 0.0371024l 0.44993, 0.0368489l 0.44993, 0.0365954l 0.44993, 0.0363419l 0.44993, 0.0360884l 0.44993, 0.0358349l 0.44993, 0.0355814l 0.44993, 0.0353279l 0.44993,
 0.0350744l 0.44993, 0.0348209l 0.44993, 0.0345674l 0.44993, 0.0343139l 0.44993, 0.0340604l 0.44993, 0.0338069l 0.44993, 0.0335534l 0.44993, 0.0332999l 0.44993, 0.0330464l 0.44993, 0.0327929l 0.44993, 0.0325394l 0.44993, 0.0322859l 0.44993,
 0.0320324l 0.44993, 0.0317789l 0.44993, 0.0315254l 0.44993, 0.0312719l 0.44993, 0.0310184l 0.44993, 0.0307649l 0.44993, 0.0305114l 0.44993, 0.0302579l 0.44993, 0.0300044l 0.44993, 0.0297509l 0.44993, 0.0294974l 0.44993, 0.0292439l 0.44993,
 0.0289904l 0.44993, 0.0287369" fill="none" stroke="#ff0066" stroke-width="3"/>
<path d="M363.311,232.446l 0.44993, 0.0284834l 0.44993, 0.0282299l 0.44993, 0.0279764l 0.44993, 0.0277229l 0.44993, 0.0274694l 0.44993, 0.0272158l 0.44993, 0.0269623l 0.44993, 0.0267088l 0.44993, 0.0264553l 0.44993, 0.0262018l 0.44993, 0.0259483l
 0.44993, 0.0256948l 0.44993, 0.0254413l 0.44993, 0.0251878l 0.44993, 0.0249343l 0.44993, 0.0246808l 0.44993, 0.0244273l 0.44993, 0.0241738l 0.44993, 0.0239203l 0.44993, 0.0236668l 0.44993, 0.0234133l 0.44993, 0.0231598l 0.44993, 0.0229063l 0.44993,
 0.0226528l 0.44993, 0.0223993l 0.44993, 0.0221458l 0.44993, 0.0218923l 0.44993, 0.0216388l 0.44993, 0.0213853l 0.44993, 0.0211318l 0.44993, 0.0208783l 0.44993, 0.0206248l 0.44993, 0.0203713l 0.44993, 0.0201178l 0.44993, 0.0198643l 0.44993,
 0.0196108l 0.44993, 0.0193573l 0.44993, 0.0191038l 0.44993, 0.0188503l 0.44993, 0.0185968l 0.44993, 0.0183433l 0.44993, 0.0180898l 0.44993, 0.0178363l 0.44993, 0.0175828l 0.44993, 0.0173293l 0.44993, 0.0170758l 0.44993, 0.0168223l 0.44993,
 0.0165688l 0.44993, 0.0163153" fill="none" stroke="#ff0066" stroke-width="3"/>
<path d="M385.357,233.543l 0.44993, 0.0160618l 0.44993, 0.0158083l 0.44993, 0.0155548l 0.44993, 0.0153013l 0.44993, 0.0150478l 0.44993, 0.0147943l 0.44993, 0.0145408l 0.44993, 0.0142873l 0.44993, 0.0140338l 0.44993, 0.0137803l 0.44993, 0.0135268l
 0.44993, 0.0132733l 0.44993, 0.0130198l 0.44993, 0.0127663l 0.44993, 0.0125128l 0.44993, 0.0122593l 0.44993, 0.0120058l 0.44993, 0.0117523l 0.44993, 0.0114988l 0.44993, 0.0112453l 0.44993, 0.0109918l 0.44993, 0.0107383l 0.44993, 0.0104848l 0.44993,
 0.0102313l 0.44993, 0.00997779l 0.44993, 0.00972429l 0.44993, 0.00947079l 0.44993, 0.00921728l 0.44993, 0.00896378l 0.44993, 0.00871028l 0.44993, 0.00845678l 0.44993, 0.00820328l 0.44993, 0.00794978l 0.44993, 0.00769628l 0.44993, 0.00744278l
 0.44993, 0.00718928l 0.44993, 0.00693578l 0.44993, 0.00668228l 0.44993, 0.00642877l 0.44993, 0.00617527l 0.44993, 0.00592177l 0.44993, 0.00566827l 0.44993, 0.00541477l 0.44993, 0.00516127l 0.44993, 0.00490777l 0.44993, 0.00465427l 0.44993,
 0.00440077l 0.44993, 0.00414727l 0.44993, 0.00389377" fill="none" stroke="#ff0066" stroke-width="3"/>
<path d="M407.404,234.032l 0.44993, 0.00364026l 0.44993, 0.00338676l 0.44993, 0.00313326l 0.44993, 0.00287976l 0.44993, 0.00262626l 0.44993, 0.00237276l 0.44993, 0.00211926l 0.44993, 0.00186576l 0.44993, 0.00161226l 0.44993, 0.00135876l 0.44993,
 0.00110526l 0.44993, 0.000851755l 0.44993, 0.000598254l 0.44993, 0.000344753l 0.44993, 9.1252e-05l 0.44993, -0.000162249l 0.44993, -0.00041575l 0.44993, -0.000669251l 0.44993, -0.000922752l 0.44993, -0.00117625l 0.44993, -0.00142975l 0.44993,
 -0.00168325l 0.44993, -0.00193676l 0.44993, -0.00219026l 0.44993, -0.00244376l 0.44993, -0.00269726l 0.44993, -0.00295076l 0.44993, -0.00320426l 0.44993, -0.00345776l 0.44993, -0.00371126l 0.44993, -0.00396476l 0.44993, -0.00421826l 0.44993,
 -0.00447176l 0.44993, -0.00472527l 0.44993, -0.00497877l 0.44993, -0.00523227l 0.44993, -0.00548577l 0.44993, -0.00573927l 0.44993, -0.00599277l 0.44993, -0.00624627l 0.44993, -0.00649977l 0.44993, -0.00675327l 0.44993, -0.00700677l 0.44993,
 -0.00726027l 0.44993, -0.00751378l 0.44993, -0.00776728l 0.44993, -0.00802078l 0.44993, -0.00827428l 0.44993, -0.00852778" fill="none" stroke="#ff0066" stroke-width="3"/>
<path d="M429.45,233.912l 0.44993, -0.00878128l 0.44993, -0.00903478l 0.44993, -0.00928828l 0.44993, -0.00954178l 0.44993, -0.00979528l 0.44993, -0.0100488l 0.44993, -0.0103023l 0.44993, -0.0105558l 0.44993, -0.0108093l 0.44993, -0.0110628l 0.44993,
 -0.0113163l 0.44993, -0.0115698l 0.44993, -0.0118233l 0.44993, -0.0120768l 0.44993, -0.0123303l 0.44993, -0.0125838l 0.44993, -0.0128373l 0.44993, -0.0130908l 0.44993, -0.0133443l 0.44993, -0.0135978l 0.44993, -0.0138513l 0.44993, -0.0141048l
 0.44993, -0.0143583l 0.44993, -0.0146118l 0.44993, -0.0148653l 0.44993, -0.0151188l 0.44993, -0.0153723l 0.44993, -0.0156258l 0.44993, -0.0158793l 0.44993, -0.0161328l 0.44993, -0.0163863l 0.44993, -0.0166398l 0.44993, -0.0168933l 0.44993,
 -0.0171468l 0.44993, -0.0174003l 0.44993, -0.0176538l 0.44993, -0.0179073l 0.44993, -0.0181608l 0.44993, -0.0184143l 0.44993, -0.0186678l 0.44993, -0.0189213l 0.44993, -0.0191748l 0.44993, -0.0194283l 0.44993, -0.0196818l 0.44993, -0.0199353l
 0.44993, -0.0201888l 0.44993, -0.0204423l 0.44993, -0.0206958l 0.44993, -0.0209493" fill="none" stroke="#ff0066" stroke-width="3"/>
<path d="M451.497,233.184l 0.44993, -0.0212028l 0.44993, -0.0214563l 0.44993, -0.0217098l 0.44993, -0.0219633l 0.44993, -0.0222168l 0.44993, -0.0224703l 0.44993, -0.0227238l 0.44993, -0.0229773l 0.44993, -0.0232308l 0.44993, -0.0234843l 0.44993,
 -0.0237378l 0.44993, -0.0239913l 0.44993, -0.0242448l 0.44993, -0.0244983l 0.44993, -0.0247518l 0.44993, -0.0250053l 0.44993, -0.0252588l 0.44993, -0.0255123l 0.44993, -0.0257658l 0.44993, -0.0260193l 0.44993, -0.0262728l 0.44993, -0.0265263l
 0.44993, -0.0267798l 0.44993, -0.0270333l 0.44993, -0.0272868l 0.44993, -0.0275403l 0.44993, -0.0277938l 0.44993, -0.0280473l 0.44993, -0.0283008l 0.44993, -0.0285544l 0.44993, -0.0288079l 0.44993, -0.0290614l 0.44993, -0.0293149l 0.44993,
 -0.0295684l 0.44993, -0.0298219l 0.44993, -0.0300754l 0.44993, -0.0303289l 0.44993, -0.0305824l 0.44993, -0.0308359l 0.44993, -0.0310894l 0.44993, -0.0313429l 0.44993, -0.0315964l 0.44993, -0.0318499l 0.44993, -0.0321034l 0.44993, -0.0323569l
 0.44993, -0.0326104l 0.44993, -0.0328639l 0.44993, -0.0331174l 0.44993, -0.0333709" fill="none" stroke="#ff0066" stroke-width="3"/>
<path d="M473.543,231.847l 0.44993, -0.0336244l 0.44993, -0.0338779l 0.44993, -0.0341314l 0.44993, -0.0343849l 0.44993, -0.0346384l 0.44993, -0.0348919l 0.44993, -0.0351454l 0.44993, -0.0353989l 0.44993, -0.0356524l 0.44993, -0.0359059l 0.44993,
 -0.0361594l 0.44993, -0.0364129l 0.44993, -0.0366664l 0.44993, -0.0369199l 0.44993, -0.0371734l 0.44993, -0.0374269l 0.44993, -0.0376804l 0.44993, -0.0379339l 0.44993, -0.0381874l 0.44993, -0.0384409l 0.44993, -0.0386944l 0.44993, -0.0389479l
 0.44993, -0.0392014l 0.44993, -0.0394549l 0.44993, -0.0397084l 0.44993, -0.0399619l 0.44993, -0.0402154l 0.44993, -0.0404689l 0.44993, -0.0407224l 0.44993, -0.0409759l 0.44993, -0.0412294l 0.44993, -0.0414829l 0.44993, -0.0417364l 0.44993,
 -0.0419899l 0.44993, -0.0422434l 0.44993, -0.0424969l 0.44993, -0.0427504l 0.44993, -0.0430039l 0.44993, -0.0432574l 0.44993, -0.0435109l 0.44993, -0.0437644l 0.44993, -0.0440179l 0.44993, -0.0442714l 0.44993, -0.0445249l 0.44993, -0.0447784l
 0.44993, -0.0450319l 0.44993, -0.0452854l 0.44993, -0.0455389l 0.44993, -0.0457924" fill="none" stroke="#ff0066" stroke-width="3"/>
<path d="M495.59,229.901l 0.44993, -0.0460459l 0.44993, -0.0462994l 0.44993, -0.0465529l 0.44993, -0.0468064l 0.44993, -0.0470599l 0.44993, -0.0473134l 0.44993, -0.0475669l 0.44993, -0.0478204l 0.44993, -0.0480739l 0.44993, -0.0483274l 0.44993,
 -0.0485809l 0.44993, -0.0488344l 0.44993, -0.0490879l 0.44993, -0.0493414l 0.44993, -0.0495949l 0.44993, -0.0498484l 0.44993, -0.0501019l 0.44993, -0.0503554l 0.44993, -0.0506089l 0.44993, -0.0508624l 0.44993, -0.0511159l 0.44993, -0.0513694l
 0.44993, -0.0516229l 0.44993, -0.0518764l 0.44993, -0.0521299l 0.44993, -0.0523834l 0.44993, -0.0526369l 0.44993, -0.0528904l 0.44993, -0.0531439l 0.44993, -0.0533974l 0.44993, -0.0536509l 0.44993, -0.0539044l 0.44993, -0.0541579l 0.44993,
 -0.0544114l 0.44993, -0.0546649l 0.44993, -0.0549184l 0.44993, -0.0551719l 0.44993, -0.0554254l 0.44993, -0.0556789l 0.44993, -0.0559324l 0.44993, -0.0561859l 0.44993, -0.0564394l 0.44993, -0.056693l 0.44993, -0.0569465l 0.44993, -0.0572l 0.44993,
 -0.0574535l 0.44993, -0.057707l 0.44993, -0.0579605l 0.44993, -0.058214" fill="none" stroke="#ff0066" stroke-width="3"/>
<path d="M517.636,227.347l 0.44993, -0.0584675l 0.44993, -0.058721l 0.44993, -0.0589745l 0.44993, -0.059228l 0.44993, -0.0594815l 0.44993, -0.059735l 0.44993, -0.0599885l 0.44993, -0.060242l 0.44993, -0.0604955l 0.44993, -0.060749l 0.44993,
 -0.0610025l 0.44993, -0.061256l 0.44993, -0.0615095l 0.44993, -0.061763l 0.44993, -0.0620165l 0.44993, -0.06227l 0.44993, -0.0625235l 0.44993, -0.062777l 0.44993, -0.0630305l 0.44993, -0.063284l 0.44993, -0.0635375l 0.44993, -0.063791l 0.44993,
 -0.0640445l 0.44993, -0.064298l 0.44993, -0.0645515l 0.44993, -0.064805l 0.44993, -0.0650585l 0.44993, -0.065312l 0.44993, -0.0655655l 0.44993, -0.065819l 0.44993, -0.0660725l 0.44993, -0.066326l 0.44993, -0.0665795l 0.44993, -0.066833l 0.44993,
 -0.0670865l 0.44993, -0.06734l 0.44993, -0.0675935l 0.44993, -0.067847l 0.44993, -0.0681005l 0.44993, -0.068354l 0.44993, -0.0686075l 0.44993, -0.068861l 0.44993, -0.0691145l 0.44993, -0.069368l 0.44993, -0.0696215l 0.44993, -0.069875l 0.44993,
 -0.0701285l 0.44993, -0.070382l 0.44993, -0.0706355" fill="none" stroke="#ff0066" stroke-width="3"/>
<path d="M539.683,224.184l 0.44993, -0.070889l 0.44993, -0.0711425l 0.44993, -0.071396l 0.44993, -0.0716495l 0.44993, -0.071903l 0.44993, -0.0721565l 0.44993, -0.07241l 0.44993, -0.0726635l 0.44993, -0.072917l 0.44993, -0.0731705l 0.44993, -0.073424l
 0.44993, -0.0736775l 0.44993, -0.073931l 0.44993, -0.0741845l 0.44993, -0.074438l 0.44993, -0.0746915l 0.44993, -0.074945l 0.44993, -0.0751985l 0.44993, -0.075452" fill="none" stroke="#ff0066" stroke-width="3"/>
<path d="M248.503,21.4167h 239.963" fill="none" stroke="#999999" stroke-width="7"/>
<text xml:space="preserve" x="360.607" y="50.7193" fill="black" font-size="16.0105" font-family="Helvetica"> with EMC</text>
<text xml:space="preserve" x="352.717" y="50.7193" fill="black" font-size="16.0105" font-family="Times">&#0947;</text>
<text xml:space="preserve" x="344.828" y="50.7193" fill="black" font-size="16.0105" font-family="Times">&#0947;</text>
<text xml:space="preserve" x="336.938" y="50.7193" fill="black" font-size="16.0105" font-family="Times">&#0947;</text>
<text xml:space="preserve" x="331.866" y="50.7193" fill="black" font-size="16.0105" font-family="Helvetica"> </text>
<text xml:space="preserve" x="316.65" y="50.7193" fill="black" font-size="16.0105" font-family="Times">&#8594;</text>
<text xml:space="preserve" x="311.578" y="50.7193" fill="black" font-size="16.0105" font-family="Helvetica"> </text>
<text xml:space="preserve" x="303.689" y="50.7193" fill="black" font-size="16.0105" font-family="Times">&#0947;</text>
<text xml:space="preserve" x="298.053" y="45.0838" fill="black" font-size="10.8403" font-family="Helvetica">0</text>
<text xml:space="preserve" x="289.6" y="50.7193" fill="black" font-size="16.0105" font-family="Times">&#0960;</text>
<text xml:space="preserve" x="284.528" y="50.7193" fill="black" font-size="16.0105" font-family="Helvetica"> </text>
<text xml:space="preserve" x="269.312" y="50.7193" fill="black" font-size="16.0105" font-family="Times">&#8594;</text>
<text xml:space="preserve" x="264.24" y="50.7193" fill="black" font-size="16.0105" font-family="Helvetica"> </text>
<text xml:space="preserve" x="252.969" y="50.7193" fill="black" font-size="16.0105" font-family="Times">&#0969;</text>
<text xml:space="preserve" x="128.989" y="50.7193" fill="black" font-size="16.0105" font-family="Helvetica"> = 13 TeV (EG1), </text>
<text xml:space="preserve" x="120.536" y="50.7193" fill="black" font-size="16.0105" font-family="Helvetica" font-style="oblique">s</text>
<path d="M114.9,41.7025l 1.69064, 9.58031" fill="none" stroke="black" stroke-width="2"/>
<path d="M116.591,51.2829l 2.25419, -14.0887" fill="none" stroke="black"/>
<path d="M118.845,37.1942h 10.1439" fill="none" stroke="black"/>
<text xml:space="preserve" x="89.5406" y="50.7193" fill="black" font-size="16.0105" font-family="Helvetica">pp </text>
<text xml:space="preserve" x="89.5406" y="85.6593" fill="black" font-size="16.0105" font-family="Helvetica">ALICE work in progress</text>
<text xml:space="preserve" x="205.068" y="120.599" fill="black" font-size="16.0105" font-family="Helvetica">) &lt; 8.0</text>
<text xml:space="preserve" x="196.051" y="120.599" fill="black" font-size="16.0105" font-family="Helvetica" font-style="oblique">c</text>
<text xml:space="preserve" x="145.895" y="120.599" fill="black" font-size="16.0105" font-family="Helvetica"> /(GeV/</text>
<text xml:space="preserve" x="139.133" y="128.489" fill="black" font-size="10.8403" font-family="Helvetica">T</text>
<text xml:space="preserve" x="129.552" y="120.599" fill="black" font-size="16.0105" font-family="Helvetica" font-style="oblique">p</text>
<text xml:space="preserve" x="124.481" y="120.599" fill="black" font-size="16.0105" font-family="Helvetica"> </text>
<text xml:space="preserve" x="116.027" y="120.599" fill="black" font-size="16.0105" font-family="Times">&#8804;</text>
<text xml:space="preserve" x="89.5406" y="120.599" fill="black" font-size="16.0105" font-family="Helvetica">6.0 </text>
<rect x="312.311" y="69.1755" width="198.425" height="113.448" fill="white"/>
<text xml:space="preserve" x="361.734" y="85.0957" fill="black" font-size="16.0105" font-family="Helvetica">ratio</text>
<path d="M319.752,80.5203h 34.7244" fill="none" stroke="black" stroke-width="2"/>
<g fill="black">
<circle cx="337.114" cy="80.5203" r="6.76257"/>
</g>
<text xml:space="preserve" x="361.734" y="108.201" fill="black" font-size="16.0105" font-family="Helvetica">peak range</text>
<path d="M319.752,103.21h 34.7244" fill="none" stroke="#333333" stroke-width="2"/>
<g stroke="#333333" stroke-width="2" fill="none">
<circle cx="337.114" cy="103.21" r="5.63548"/>
</g>
<text xml:space="preserve" x="361.734" y="130.743" fill="black" font-size="16.0105" font-family="Helvetica">background pol1</text>
<path d="M319.752,125.899h 34.7244" fill="none" stroke="#33cccc" stroke-width="3"/>
<text xml:space="preserve" x="361.734" y="153.285" fill="black" font-size="16.0105" font-family="Helvetica">background pol2</text>
<path d="M319.752,148.589h 34.7244" fill="none" stroke="#ff0066" stroke-width="3"/>
<text xml:space="preserve" x="361.734" y="175.827" fill="black" font-size="16.0105" font-family="Helvetica">param. range</text>
<path d="M319.752,171.279h 34.7244" fill="none" stroke="#999999" stroke-width="7"/></svg>
