<?xml version="1.0" standalone="no"?>
<svg width="567.429" height="553.904" viewBox="0 0 567.429 553.904" xmlns="http://www.w3.org/2000/svg" shape-rendering="crispEdges">
<title>
Data/EG1/OmegaRotWOPS/SameEventToBackgroundRatio_03.svg
</title>
<desc>
Creator: ROOT Version 6.20/08
CreationDate: Mon Mar 29 18:49:57 2021</desc>
<defs>
</defs>
<rect x="0.5" y="0" width="566.929" height="553.404" fill="white"/>
<rect x="68.5315" y="16.6021" width="484.724" height="481.461" fill="white"/>
<rect x="68.5315" y="16.6021" width="484.724" height="481.461" fill="none" stroke="black"/>
<rect x="68.5315" y="16.6021" width="484.724" height="481.461" fill="white"/>
<rect x="68.5315" y="16.6021" width="484.724" height="481.461" fill="none" stroke="black"/>
<g fill="black">
<circle cx="109.325" cy="475.457" r="6.76257"/>
</g>
<g fill="black">
<circle cx="114.124" cy="355.847" r="6.76257"/>
</g>
<g fill="black">
<circle cx="118.924" cy="323.312" r="6.76257"/>
</g>
<g fill="black">
<circle cx="123.723" cy="456.145" r="6.76257"/>
</g>
<g fill="black">
<circle cx="128.522" cy="416.248" r="6.76257"/>
</g>
<g fill="black">
<circle cx="133.321" cy="316.602" r="6.76257"/>
</g>
<g fill="black">
<circle cx="138.121" cy="325.551" r="6.76257"/>
</g>
<g fill="black">
<circle cx="142.92" cy="332.882" r="6.76257"/>
</g>
<g fill="black">
<circle cx="147.719" cy="338.492" r="6.76257"/>
</g>
<g fill="black">
<circle cx="152.518" cy="343.401" r="6.76257"/>
</g>
<g fill="black">
<circle cx="157.318" cy="346.091" r="6.76257"/>
</g>
<g fill="black">
<circle cx="162.117" cy="348.523" r="6.76257"/>
</g>
<g fill="black">
<circle cx="166.916" cy="350.28" r="6.76257"/>
</g>
<g fill="black">
<circle cx="171.715" cy="351.488" r="6.76257"/>
</g>
<g fill="black">
<circle cx="176.515" cy="352.322" r="6.76257"/>
</g>
<g fill="black">
<circle cx="181.314" cy="352.091" r="6.76257"/>
</g>
<g fill="black">
<circle cx="186.113" cy="351.28" r="6.76257"/>
</g>
<g fill="black">
<circle cx="190.912" cy="350.849" r="6.76257"/>
</g>
<g fill="black">
<circle cx="195.712" cy="349.445" r="6.76257"/>
</g>
<g fill="black">
<circle cx="200.511" cy="348.373" r="6.76257"/>
</g>
<g fill="black">
<circle cx="205.31" cy="346.893" r="6.76257"/>
</g>
<g fill="black">
<circle cx="210.109" cy="346.367" r="6.76257"/>
</g>
<g fill="black">
<circle cx="214.909" cy="344.517" r="6.76257"/>
</g>
<g fill="black">
<circle cx="219.708" cy="342.774" r="6.76257"/>
</g>
<g fill="black">
<circle cx="224.507" cy="340.859" r="6.76257"/>
</g>
<g fill="black">
<circle cx="229.306" cy="337.977" r="6.76257"/>
</g>
<g fill="black">
<circle cx="234.106" cy="335.428" r="6.76257"/>
</g>
<g fill="black">
<circle cx="238.905" cy="332.592" r="6.76257"/>
</g>
<g fill="black">
<circle cx="243.704" cy="330.121" r="6.76257"/>
</g>
<g fill="black">
<circle cx="248.503" cy="327.938" r="6.76257"/>
</g>
<g fill="black">
<circle cx="253.303" cy="325.398" r="6.76257"/>
</g>
<g fill="black">
<circle cx="258.102" cy="323.717" r="6.76257"/>
</g>
<g fill="black">
<circle cx="262.901" cy="320.553" r="6.76257"/>
</g>
<g fill="black">
<circle cx="267.7" cy="318.256" r="6.76257"/>
</g>
<g fill="black">
<circle cx="272.5" cy="315.652" r="6.76257"/>
</g>
<g fill="black">
<circle cx="277.299" cy="312.225" r="6.76257"/>
</g>
<g fill="black">
<circle cx="339.689" cy="284.652" r="6.76257"/>
</g>
<g fill="black">
<circle cx="344.488" cy="281.852" r="6.76257"/>
</g>
<g fill="black">
<circle cx="349.288" cy="279.623" r="6.76257"/>
</g>
<g fill="black">
<circle cx="354.087" cy="277.63" r="6.76257"/>
</g>
<g fill="black">
<circle cx="358.886" cy="274.15" r="6.76257"/>
</g>
<g fill="black">
<circle cx="363.685" cy="274.34" r="6.76257"/>
</g>
<g fill="black">
<circle cx="368.485" cy="273.386" r="6.76257"/>
</g>
<g fill="black">
<circle cx="373.284" cy="269.739" r="6.76257"/>
</g>
<g fill="black">
<circle cx="378.083" cy="269.875" r="6.76257"/>
</g>
<g fill="black">
<circle cx="382.882" cy="264.93" r="6.76257"/>
</g>
<g fill="black">
<circle cx="387.682" cy="265.548" r="6.76257"/>
</g>
<g fill="black">
<circle cx="392.481" cy="262.043" r="6.76257"/>
</g>
<g fill="black">
<circle cx="397.28" cy="261.319" r="6.76257"/>
</g>
<g fill="black">
<circle cx="402.079" cy="256.471" r="6.76257"/>
</g>
<g fill="black">
<circle cx="406.879" cy="255.812" r="6.76257"/>
</g>
<g fill="black">
<circle cx="411.678" cy="253.661" r="6.76257"/>
</g>
<g fill="black">
<circle cx="416.477" cy="254.092" r="6.76257"/>
</g>
<g fill="black">
<circle cx="421.276" cy="249.343" r="6.76257"/>
</g>
<g fill="black">
<circle cx="426.076" cy="247.446" r="6.76257"/>
</g>
<g fill="black">
<circle cx="430.875" cy="246.212" r="6.76257"/>
</g>
<g fill="black">
<circle cx="435.674" cy="243.992" r="6.76257"/>
</g>
<g fill="black">
<circle cx="440.473" cy="243.915" r="6.76257"/>
</g>
<g fill="black">
<circle cx="445.273" cy="241.109" r="6.76257"/>
</g>
<g fill="black">
<circle cx="450.072" cy="238.002" r="6.76257"/>
</g>
<g fill="black">
<circle cx="454.871" cy="237.838" r="6.76257"/>
</g>
<g fill="black">
<circle cx="459.671" cy="235.34" r="6.76257"/>
</g>
<g fill="black">
<circle cx="464.47" cy="231.955" r="6.76257"/>
</g>
<g fill="black">
<circle cx="469.269" cy="232.27" r="6.76257"/>
</g>
<g fill="black">
<circle cx="474.068" cy="228.21" r="6.76257"/>
</g>
<g fill="black">
<circle cx="478.867" cy="223.317" r="6.76257"/>
</g>
<g fill="black">
<circle cx="483.667" cy="225.271" r="6.76257"/>
</g>
<g fill="black">
<circle cx="488.466" cy="225.277" r="6.76257"/>
</g>
<g fill="black">
<circle cx="493.265" cy="217.603" r="6.76257"/>
</g>
<g fill="black">
<circle cx="498.065" cy="217.092" r="6.76257"/>
</g>
<g fill="black">
<circle cx="502.864" cy="219.293" r="6.76257"/>
</g>
<g fill="black">
<circle cx="507.663" cy="213.134" r="6.76257"/>
</g>
<g fill="black">
<circle cx="512.462" cy="217.45" r="6.76257"/>
</g>
<g fill="black">
<circle cx="517.262" cy="210.207" r="6.76257"/>
</g>
<g fill="black">
<circle cx="522.061" cy="206.094" r="6.76257"/>
</g>
<g fill="black">
<circle cx="526.86" cy="204.102" r="6.76257"/>
</g>
<g fill="black">
<circle cx="531.659" cy="203.7" r="6.76257"/>
</g>
<g fill="black">
<circle cx="536.458" cy="200.717" r="6.76257"/>
</g>
<g fill="black">
<circle cx="541.258" cy="197.878" r="6.76257"/>
</g>
<g fill="black">
<circle cx="546.057" cy="197.15" r="6.76257"/>
</g>
<path d="M68.5315,498.064h 484.724" fill="none" stroke="black"/>
<path d="M68.5315,483.869v 14.1948" fill="none" stroke="black"/>
<path d="M83.5292,490.966v 7.09741" fill="none" stroke="black"/>
<path d="M98.5268,490.966v 7.09741" fill="none" stroke="black"/>
<path d="M113.524,490.966v 7.09741" fill="none" stroke="black"/>
<path d="M128.522,483.869v 14.1948" fill="none" stroke="black"/>
<path d="M143.52,490.966v 7.09741" fill="none" stroke="black"/>
<path d="M158.517,490.966v 7.09741" fill="none" stroke="black"/>
<path d="M173.515,490.966v 7.09741" fill="none" stroke="black"/>
<path d="M188.513,483.869v 14.1948" fill="none" stroke="black"/>
<path d="M203.51,490.966v 7.09741" fill="none" stroke="black"/>
<path d="M218.508,490.966v 7.09741" fill="none" stroke="black"/>
<path d="M233.506,490.966v 7.09741" fill="none" stroke="black"/>
<path d="M248.503,483.869v 14.1948" fill="none" stroke="black"/>
<path d="M263.501,490.966v 7.09741" fill="none" stroke="black"/>
<path d="M278.499,490.966v 7.09741" fill="none" stroke="black"/>
<path d="M293.496,490.966v 7.09741" fill="none" stroke="black"/>
<path d="M308.494,483.869v 14.1948" fill="none" stroke="black"/>
<path d="M323.492,490.966v 7.09741" fill="none" stroke="black"/>
<path d="M338.489,490.966v 7.09741" fill="none" stroke="black"/>
<path d="M353.487,490.966v 7.09741" fill="none" stroke="black"/>
<path d="M368.485,483.869v 14.1948" fill="none" stroke="black"/>
<path d="M383.482,490.966v 7.09741" fill="none" stroke="black"/>
<path d="M398.48,490.966v 7.09741" fill="none" stroke="black"/>
<path d="M413.478,490.966v 7.09741" fill="none" stroke="black"/>
<path d="M428.475,483.869v 14.1948" fill="none" stroke="black"/>
<path d="M443.473,490.966v 7.09741" fill="none" stroke="black"/>
<path d="M458.471,490.966v 7.09741" fill="none" stroke="black"/>
<path d="M473.468,490.966v 7.09741" fill="none" stroke="black"/>
<path d="M488.466,483.869v 14.1948" fill="none" stroke="black"/>
<path d="M503.464,490.966v 7.09741" fill="none" stroke="black"/>
<path d="M518.461,490.966v 7.09741" fill="none" stroke="black"/>
<path d="M533.459,490.966v 7.09741" fill="none" stroke="black"/>
<path d="M548.457,483.869v 14.1948" fill="none" stroke="black"/>
<path d="M548.457,483.869v 14.1948" fill="none" stroke="black"/>
<text xml:space="preserve" x="63.6174" y="513.956" fill="black" font-size="16.0105" font-family="Helvetica">0</text>
<text xml:space="preserve" x="117.718" y="513.956" fill="black" font-size="16.0105" font-family="Helvetica">0.2</text>
<text xml:space="preserve" x="177.454" y="513.956" fill="black" font-size="16.0105" font-family="Helvetica">0.4</text>
<text xml:space="preserve" x="237.754" y="513.956" fill="black" font-size="16.0105" font-family="Helvetica">0.6</text>
<text xml:space="preserve" x="297.49" y="513.956" fill="black" font-size="16.0105" font-family="Helvetica">0.8</text>
<text xml:space="preserve" x="365.115" y="513.956" fill="black" font-size="16.0105" font-family="Helvetica">1</text>
<text xml:space="preserve" x="417.525" y="513.956" fill="black" font-size="16.0105" font-family="Helvetica">1.2</text>
<text xml:space="preserve" x="477.261" y="513.956" fill="black" font-size="16.0105" font-family="Helvetica">1.4</text>
<text xml:space="preserve" x="537.561" y="513.956" fill="black" font-size="16.0105" font-family="Helvetica">1.6</text>
<text xml:space="preserve" x="548.268" y="537.625" fill="black" font-size="16.0105" font-family="Helvetica">)</text>
<text xml:space="preserve" x="542.633" y="532.553" fill="black" font-size="10.8403" font-family="Helvetica">2</text>
<text xml:space="preserve" x="533.616" y="537.625" fill="black" font-size="16.0105" font-family="Helvetica" font-style="oblique">c</text>
<text xml:space="preserve" x="487.405" y="537.625" fill="black" font-size="16.0105" font-family="Helvetica"> (GeV/</text>
<text xml:space="preserve" x="473.317" y="542.697" fill="black" font-size="10.8403" font-family="Helvetica">inv</text>
<text xml:space="preserve" x="459.792" y="537.625" fill="black" font-size="16.0105" font-family="Helvetica" font-style="oblique">m</text>
<path d="M68.5315,16.6021h 484.724" fill="none" stroke="black"/>
<path d="M68.5315,30.7969v -14.1948" fill="none" stroke="black"/>
<path d="M83.5292,23.6995v -7.09741" fill="none" stroke="black"/>
<path d="M98.5268,23.6995v -7.09741" fill="none" stroke="black"/>
<path d="M113.524,23.6995v -7.09741" fill="none" stroke="black"/>
<path d="M128.522,30.7969v -14.1948" fill="none" stroke="black"/>
<path d="M143.52,23.6995v -7.09741" fill="none" stroke="black"/>
<path d="M158.517,23.6995v -7.09741" fill="none" stroke="black"/>
<path d="M173.515,23.6995v -7.09741" fill="none" stroke="black"/>
<path d="M188.513,30.7969v -14.1948" fill="none" stroke="black"/>
<path d="M203.51,23.6995v -7.09741" fill="none" stroke="black"/>
<path d="M218.508,23.6995v -7.09741" fill="none" stroke="black"/>
<path d="M233.506,23.6995v -7.09741" fill="none" stroke="black"/>
<path d="M248.503,30.7969v -14.1948" fill="none" stroke="black"/>
<path d="M263.501,23.6995v -7.09741" fill="none" stroke="black"/>
<path d="M278.499,23.6995v -7.09741" fill="none" stroke="black"/>
<path d="M293.496,23.6995v -7.09741" fill="none" stroke="black"/>
<path d="M308.494,30.7969v -14.1948" fill="none" stroke="black"/>
<path d="M323.492,23.6995v -7.09741" fill="none" stroke="black"/>
<path d="M338.489,23.6995v -7.09741" fill="none" stroke="black"/>
<path d="M353.487,23.6995v -7.09741" fill="none" stroke="black"/>
<path d="M368.485,30.7969v -14.1948" fill="none" stroke="black"/>
<path d="M383.482,23.6995v -7.09741" fill="none" stroke="black"/>
<path d="M398.48,23.6995v -7.09741" fill="none" stroke="black"/>
<path d="M413.478,23.6995v -7.09741" fill="none" stroke="black"/>
<path d="M428.475,30.7969v -14.1948" fill="none" stroke="black"/>
<path d="M443.473,23.6995v -7.09741" fill="none" stroke="black"/>
<path d="M458.471,23.6995v -7.09741" fill="none" stroke="black"/>
<path d="M473.468,23.6995v -7.09741" fill="none" stroke="black"/>
<path d="M488.466,30.7969v -14.1948" fill="none" stroke="black"/>
<path d="M503.464,23.6995v -7.09741" fill="none" stroke="black"/>
<path d="M518.461,23.6995v -7.09741" fill="none" stroke="black"/>
<path d="M533.459,23.6995v -7.09741" fill="none" stroke="black"/>
<path d="M548.457,30.7969v -14.1948" fill="none" stroke="black"/>
<path d="M548.457,30.7969v -14.1948" fill="none" stroke="black"/>
<path d="M68.5315,498.064v -481.461" fill="none" stroke="black"/>
<path d="M83.3283,498.064h -14.7969" fill="none" stroke="black"/>
<path d="M75.9299,487.242h -7.39843" fill="none" stroke="black"/>
<path d="M75.9299,476.419h -7.39843" fill="none" stroke="black"/>
<path d="M75.9299,465.597h -7.39843" fill="none" stroke="black"/>
<path d="M75.9299,454.775h -7.39843" fill="none" stroke="black"/>
<path d="M83.3283,443.953h -14.7969" fill="none" stroke="black"/>
<path d="M75.9299,433.131h -7.39843" fill="none" stroke="black"/>
<path d="M75.9299,422.309h -7.39843" fill="none" stroke="black"/>
<path d="M75.9299,411.487h -7.39843" fill="none" stroke="black"/>
<path d="M75.9299,400.665h -7.39843" fill="none" stroke="black"/>
<path d="M83.3283,389.843h -14.7969" fill="none" stroke="black"/>
<path d="M75.9299,379.021h -7.39843" fill="none" stroke="black"/>
<path d="M75.9299,368.199h -7.39843" fill="none" stroke="black"/>
<path d="M75.9299,357.377h -7.39843" fill="none" stroke="black"/>
<path d="M75.9299,346.555h -7.39843" fill="none" stroke="black"/>
<path d="M83.3283,335.733h -14.7969" fill="none" stroke="black"/>
<path d="M75.9299,324.911h -7.39843" fill="none" stroke="black"/>
<path d="M75.9299,314.089h -7.39843" fill="none" stroke="black"/>
<path d="M75.9299,303.267h -7.39843" fill="none" stroke="black"/>
<path d="M75.9299,292.445h -7.39843" fill="none" stroke="black"/>
<path d="M83.3283,281.623h -14.7969" fill="none" stroke="black"/>
<path d="M75.9299,270.801h -7.39843" fill="none" stroke="black"/>
<path d="M75.9299,259.978h -7.39843" fill="none" stroke="black"/>
<path d="M75.9299,249.156h -7.39843" fill="none" stroke="black"/>
<path d="M75.9299,238.334h -7.39843" fill="none" stroke="black"/>
<path d="M83.3283,227.512h -14.7969" fill="none" stroke="black"/>
<path d="M75.9299,216.69h -7.39843" fill="none" stroke="black"/>
<path d="M75.9299,205.868h -7.39843" fill="none" stroke="black"/>
<path d="M75.9299,195.046h -7.39843" fill="none" stroke="black"/>
<path d="M75.9299,184.224h -7.39843" fill="none" stroke="black"/>
<path d="M83.3283,173.402h -14.7969" fill="none" stroke="black"/>
<path d="M75.9299,162.58h -7.39843" fill="none" stroke="black"/>
<path d="M75.9299,151.758h -7.39843" fill="none" stroke="black"/>
<path d="M75.9299,140.936h -7.39843" fill="none" stroke="black"/>
<path d="M75.9299,130.114h -7.39843" fill="none" stroke="black"/>
<path d="M83.3283,119.292h -14.7969" fill="none" stroke="black"/>
<path d="M75.9299,108.47h -7.39843" fill="none" stroke="black"/>
<path d="M75.9299,97.6477h -7.39843" fill="none" stroke="black"/>
<path d="M75.9299,86.8257h -7.39843" fill="none" stroke="black"/>
<path d="M75.9299,76.0036h -7.39843" fill="none" stroke="black"/>
<path d="M83.3283,65.1816h -14.7969" fill="none" stroke="black"/>
<path d="M83.3283,65.1816h -14.7969" fill="none" stroke="black"/>
<path d="M75.9299,54.3595h -7.39843" fill="none" stroke="black"/>
<path d="M75.9299,43.5375h -7.39843" fill="none" stroke="black"/>
<path d="M75.9299,32.7154h -7.39843" fill="none" stroke="black"/>
<path d="M75.9299,21.8934h -7.39843" fill="none" stroke="black"/>
<text xml:space="preserve" x="56.8548" y="503.248" fill="black" font-size="16.0105" font-family="Helvetica">0</text>
<text xml:space="preserve" x="34.8764" y="449.148" fill="black" font-size="16.0105" font-family="Helvetica">0.05</text>
<text xml:space="preserve" x="46.1474" y="395.047" fill="black" font-size="16.0105" font-family="Helvetica">0.1</text>
<text xml:space="preserve" x="34.8764" y="340.946" fill="black" font-size="16.0105" font-family="Helvetica">0.15</text>
<text xml:space="preserve" x="43.8932" y="286.846" fill="black" font-size="16.0105" font-family="Helvetica">0.2</text>
<text xml:space="preserve" x="34.8764" y="232.745" fill="black" font-size="16.0105" font-family="Helvetica">0.25</text>
<text xml:space="preserve" x="43.8932" y="178.645" fill="black" font-size="16.0105" font-family="Helvetica">0.3</text>
<text xml:space="preserve" x="34.8764" y="124.544" fill="black" font-size="16.0105" font-family="Helvetica">0.35</text>
<text xml:space="preserve" x="43.8932" y="70.4435" fill="black" font-size="16.0105" font-family="Helvetica">0.4</text>
<g transform="rotate(-90,38.2577,98.0573)">
<text xml:space="preserve" x="38.2577" y="98.0573" fill="black" font-size="16.0105" font-family="Helvetica">background</text>
</g>
<g transform="rotate(-90,21.9148,98.0573)">
<text xml:space="preserve" x="21.9148" y="98.0573" fill="black" font-size="16.0105" font-family="Helvetica">same event</text>
</g>
<path d="M24.169,98.0573l 0.563548, -81.7144" fill="none" stroke="black" stroke-width="2"/>
<path d="M553.256,498.064v -481.461" fill="none" stroke="black"/>
<path d="M538.459,498.064h 14.7969" fill="none" stroke="black"/>
<path d="M545.857,487.242h 7.39843" fill="none" stroke="black"/>
<path d="M545.857,476.419h 7.39843" fill="none" stroke="black"/>
<path d="M545.857,465.597h 7.39843" fill="none" stroke="black"/>
<path d="M545.857,454.775h 7.39843" fill="none" stroke="black"/>
<path d="M538.459,443.953h 14.7969" fill="none" stroke="black"/>
<path d="M545.857,433.131h 7.39843" fill="none" stroke="black"/>
<path d="M545.857,422.309h 7.39843" fill="none" stroke="black"/>
<path d="M545.857,411.487h 7.39843" fill="none" stroke="black"/>
<path d="M545.857,400.665h 7.39843" fill="none" stroke="black"/>
<path d="M538.459,389.843h 14.7969" fill="none" stroke="black"/>
<path d="M545.857,379.021h 7.39843" fill="none" stroke="black"/>
<path d="M545.857,368.199h 7.39843" fill="none" stroke="black"/>
<path d="M545.857,357.377h 7.39843" fill="none" stroke="black"/>
<path d="M545.857,346.555h 7.39843" fill="none" stroke="black"/>
<path d="M538.459,335.733h 14.7969" fill="none" stroke="black"/>
<path d="M545.857,324.911h 7.39843" fill="none" stroke="black"/>
<path d="M545.857,314.089h 7.39843" fill="none" stroke="black"/>
<path d="M545.857,303.267h 7.39843" fill="none" stroke="black"/>
<path d="M545.857,292.445h 7.39843" fill="none" stroke="black"/>
<path d="M538.459,281.623h 14.7969" fill="none" stroke="black"/>
<path d="M545.857,270.801h 7.39843" fill="none" stroke="black"/>
<path d="M545.857,259.978h 7.39843" fill="none" stroke="black"/>
<path d="M545.857,249.156h 7.39843" fill="none" stroke="black"/>
<path d="M545.857,238.334h 7.39843" fill="none" stroke="black"/>
<path d="M538.459,227.512h 14.7969" fill="none" stroke="black"/>
<path d="M545.857,216.69h 7.39843" fill="none" stroke="black"/>
<path d="M545.857,205.868h 7.39843" fill="none" stroke="black"/>
<path d="M545.857,195.046h 7.39843" fill="none" stroke="black"/>
<path d="M545.857,184.224h 7.39843" fill="none" stroke="black"/>
<path d="M538.459,173.402h 14.7969" fill="none" stroke="black"/>
<path d="M545.857,162.58h 7.39843" fill="none" stroke="black"/>
<path d="M545.857,151.758h 7.39843" fill="none" stroke="black"/>
<path d="M545.857,140.936h 7.39843" fill="none" stroke="black"/>
<path d="M545.857,130.114h 7.39843" fill="none" stroke="black"/>
<path d="M538.459,119.292h 14.7969" fill="none" stroke="black"/>
<path d="M545.857,108.47h 7.39843" fill="none" stroke="black"/>
<path d="M545.857,97.6477h 7.39843" fill="none" stroke="black"/>
<path d="M545.857,86.8257h 7.39843" fill="none" stroke="black"/>
<path d="M545.857,76.0036h 7.39843" fill="none" stroke="black"/>
<path d="M538.459,65.1816h 14.7969" fill="none" stroke="black"/>
<path d="M538.459,65.1816h 14.7969" fill="none" stroke="black"/>
<path d="M545.857,54.3595h 7.39843" fill="none" stroke="black"/>
<path d="M545.857,43.5375h 7.39843" fill="none" stroke="black"/>
<path d="M545.857,32.7154h 7.39843" fill="none" stroke="black"/>
<path d="M545.857,21.8934h 7.39843" fill="none" stroke="black"/>
<g stroke="#333333" stroke-width="2" fill="none">
<circle cx="282.098" cy="309.796" r="5.63548"/>
</g>
<g stroke="#333333" stroke-width="2" fill="none">
<circle cx="286.897" cy="307.722" r="5.63548"/>
</g>
<g stroke="#333333" stroke-width="2" fill="none">
<circle cx="291.697" cy="305.656" r="5.63548"/>
</g>
<g stroke="#333333" stroke-width="2" fill="none">
<circle cx="296.496" cy="302.567" r="5.63548"/>
</g>
<g stroke="#333333" stroke-width="2" fill="none">
<circle cx="301.295" cy="300.195" r="5.63548"/>
</g>
<g stroke="#333333" stroke-width="2" fill="none">
<circle cx="306.094" cy="298.744" r="5.63548"/>
</g>
<g stroke="#333333" stroke-width="2" fill="none">
<circle cx="310.894" cy="295.873" r="5.63548"/>
</g>
<g stroke="#333333" stroke-width="2" fill="none">
<circle cx="315.693" cy="293.649" r="5.63548"/>
</g>
<g stroke="#333333" stroke-width="2" fill="none">
<circle cx="320.492" cy="292.581" r="5.63548"/>
</g>
<g stroke="#333333" stroke-width="2" fill="none">
<circle cx="325.291" cy="289.794" r="5.63548"/>
</g>
<g stroke="#333333" stroke-width="2" fill="none">
<circle cx="330.091" cy="288.498" r="5.63548"/>
</g>
<g stroke="#333333" stroke-width="2" fill="none">
<circle cx="334.89" cy="285.507" r="5.63548"/>
</g>
<path d="M128.732,381.614l 0.419935, -0.191075l 0.419935, -0.191075l 0.419935, -0.191075l 0.419935, -0.191075l 0.419935, -0.191075l 0.419935, -0.191075l 0.419935, -0.191075l 0.419935, -0.191075l 0.419935, -0.191075l 0.419935, -0.191075l 0.419935,
 -0.191075l 0.419935, -0.191075l 0.419935, -0.191075l 0.419935, -0.191075l 0.419935, -0.191075l 0.419935, -0.191075l 0.419935, -0.191075l 0.419935, -0.191075l 0.419935, -0.191075l 0.419935, -0.191075l 0.419935, -0.191075l 0.419935, -0.191075l
 0.419935, -0.191075l 0.419935, -0.191075l 0.419935, -0.191075l 0.419935, -0.191075l 0.419935, -0.191075l 0.419935, -0.191075l 0.419935, -0.191075l 0.419935, -0.191075l 0.419935, -0.191075l 0.419935, -0.191075l 0.419935, -0.191075l 0.419935,
 -0.191075l 0.419935, -0.191075l 0.419935, -0.191075l 0.419935, -0.191075l 0.419935, -0.191075l 0.419935, -0.191075l 0.419935, -0.191075l 0.419935, -0.191075l 0.419935, -0.191075l 0.419935, -0.191075l 0.419935, -0.191075l 0.419935, -0.191075l
 0.419935, -0.191075l 0.419935, -0.191075l 0.419935, -0.191075l 0.419935, -0.191075" fill="none" stroke="#33cccc" stroke-width="3"/>
<path d="M149.309,372.251l 0.419935, -0.191075l 0.419935, -0.191075l 0.419935, -0.191075l 0.419935, -0.191075l 0.419935, -0.191075l 0.419935, -0.191075l 0.419935, -0.191075l 0.419935, -0.191075l 0.419935, -0.191075l 0.419935, -0.191075l 0.419935,
 -0.191075l 0.419935, -0.191075l 0.419935, -0.191075l 0.419935, -0.191075l 0.419935, -0.191075l 0.419935, -0.191075l 0.419935, -0.191075l 0.419935, -0.191075l 0.419935, -0.191075l 0.419935, -0.191075l 0.419935, -0.191075l 0.419935, -0.191075l
 0.419935, -0.191075l 0.419935, -0.191075l 0.419935, -0.191075l 0.419935, -0.191075l 0.419935, -0.191075l 0.419935, -0.191075l 0.419935, -0.191075l 0.419935, -0.191075l 0.419935, -0.191075l 0.419935, -0.191075l 0.419935, -0.191075l 0.419935,
 -0.191075l 0.419935, -0.191075l 0.419935, -0.191075l 0.419935, -0.191075l 0.419935, -0.191075l 0.419935, -0.191075l 0.419935, -0.191075l 0.419935, -0.191075l 0.419935, -0.191075l 0.419935, -0.191075l 0.419935, -0.191075l 0.419935, -0.191075l
 0.419935, -0.191075l 0.419935, -0.191075l 0.419935, -0.191075l 0.419935, -0.191075" fill="none" stroke="#33cccc" stroke-width="3"/>
<path d="M169.886,362.889l 0.419935, -0.191075l 0.419935, -0.191075l 0.419935, -0.191075l 0.419935, -0.191075l 0.419935, -0.191075l 0.419935, -0.191075l 0.419935, -0.191075l 0.419935, -0.191075l 0.419935, -0.191075l 0.419935, -0.191075l 0.419935,
 -0.191075l 0.419935, -0.191075l 0.419935, -0.191075l 0.419935, -0.191075l 0.419935, -0.191075l 0.419935, -0.191075l 0.419935, -0.191075l 0.419935, -0.191075l 0.419935, -0.191075l 0.419935, -0.191075l 0.419935, -0.191075l 0.419935, -0.191075l
 0.419935, -0.191075l 0.419935, -0.191075l 0.419935, -0.191075l 0.419935, -0.191075l 0.419935, -0.191075l 0.419935, -0.191075l 0.419935, -0.191075l 0.419935, -0.191075l 0.419935, -0.191075l 0.419935, -0.191075l 0.419935, -0.191075l 0.419935,
 -0.191075l 0.419935, -0.191075l 0.419935, -0.191075l 0.419935, -0.191075l 0.419935, -0.191075l 0.419935, -0.191075l 0.419935, -0.191075l 0.419935, -0.191075l 0.419935, -0.191075l 0.419935, -0.191075l 0.419935, -0.191075l 0.419935, -0.191075l
 0.419935, -0.191075l 0.419935, -0.191075l 0.419935, -0.191075l 0.419935, -0.191075" fill="none" stroke="#33cccc" stroke-width="3"/>
<path d="M190.462,353.526l 0.419935, -0.191075l 0.419935, -0.191075l 0.419935, -0.191075l 0.419935, -0.191075l 0.419935, -0.191075l 0.419935, -0.191075l 0.419935, -0.191075l 0.419935, -0.191075l 0.419935, -0.191075l 0.419935, -0.191075l 0.419935,
 -0.191075l 0.419935, -0.191075l 0.419935, -0.191075l 0.419935, -0.191075l 0.419935, -0.191075l 0.419935, -0.191075l 0.419935, -0.191075l 0.419935, -0.191075l 0.419935, -0.191075l 0.419935, -0.191075l 0.419935, -0.191075l 0.419935, -0.191075l
 0.419935, -0.191075l 0.419935, -0.191075l 0.419935, -0.191075l 0.419935, -0.191075l 0.419935, -0.191075l 0.419935, -0.191075l 0.419935, -0.191075l 0.419935, -0.191075l 0.419935, -0.191075l 0.419935, -0.191075l 0.419935, -0.191075l 0.419935,
 -0.191075l 0.419935, -0.191075l 0.419935, -0.191075l 0.419935, -0.191075l 0.419935, -0.191075l 0.419935, -0.191075l 0.419935, -0.191075l 0.419935, -0.191075l 0.419935, -0.191075l 0.419935, -0.191075l 0.419935, -0.191075l 0.419935, -0.191075l
 0.419935, -0.191075l 0.419935, -0.191075l 0.419935, -0.191075l 0.419935, -0.191075" fill="none" stroke="#33cccc" stroke-width="3"/>
<path d="M211.039,344.163l 0.419935, -0.191075l 0.419935, -0.191075l 0.419935, -0.191075l 0.419935, -0.191075l 0.419935, -0.191075l 0.419935, -0.191075l 0.419935, -0.191075l 0.419935, -0.191075l 0.419935, -0.191075l 0.419935, -0.191075l 0.419935,
 -0.191075l 0.419935, -0.191075l 0.419935, -0.191075l 0.419935, -0.191075l 0.419935, -0.191075l 0.419935, -0.191075l 0.419935, -0.191075l 0.419935, -0.191075l 0.419935, -0.191075l 0.419935, -0.191075l 0.419935, -0.191075l 0.419935, -0.191075l
 0.419935, -0.191075l 0.419935, -0.191075l 0.419935, -0.191075l 0.419935, -0.191075l 0.419935, -0.191075l 0.419935, -0.191075l 0.419935, -0.191075l 0.419935, -0.191075l 0.419935, -0.191075l 0.419935, -0.191075l 0.419935, -0.191075l 0.419935,
 -0.191075l 0.419935, -0.191075l 0.419935, -0.191075l 0.419935, -0.191075l 0.419935, -0.191075l 0.419935, -0.191075l 0.419935, -0.191075l 0.419935, -0.191075l 0.419935, -0.191075l 0.419935, -0.191075l 0.419935, -0.191075l 0.419935, -0.191075l
 0.419935, -0.191075l 0.419935, -0.191075l 0.419935, -0.191075l 0.419935, -0.191075" fill="none" stroke="#33cccc" stroke-width="3"/>
<path d="M231.616,334.801l 0.419935, -0.191075l 0.419935, -0.191075l 0.419935, -0.191075l 0.419935, -0.191075l 0.419935, -0.191075l 0.419935, -0.191075l 0.419935, -0.191075l 0.419935, -0.191075l 0.419935, -0.191075l 0.419935, -0.191075l 0.419935,
 -0.191075l 0.419935, -0.191075l 0.419935, -0.191075l 0.419935, -0.191075l 0.419935, -0.191075l 0.419935, -0.191075l 0.419935, -0.191075l 0.419935, -0.191075l 0.419935, -0.191075l 0.419935, -0.191075l 0.419935, -0.191075l 0.419935, -0.191075l
 0.419935, -0.191075l 0.419935, -0.191075l 0.419935, -0.191075l 0.419935, -0.191075l 0.419935, -0.191075l 0.419935, -0.191075l 0.419935, -0.191075l 0.419935, -0.191075l 0.419935, -0.191075l 0.419935, -0.191075l 0.419935, -0.191075l 0.419935,
 -0.191075l 0.419935, -0.191075l 0.419935, -0.191075l 0.419935, -0.191075l 0.419935, -0.191075l 0.419935, -0.191075l 0.419935, -0.191075l 0.419935, -0.191075l 0.419935, -0.191075l 0.419935, -0.191075l 0.419935, -0.191075l 0.419935, -0.191075l
 0.419935, -0.191075l 0.419935, -0.191075l 0.419935, -0.191075l 0.419935, -0.191075" fill="none" stroke="#33cccc" stroke-width="3"/>
<path d="M252.193,325.438l 0.419935, -0.191075l 0.419935, -0.191075l 0.419935, -0.191075l 0.419935, -0.191075l 0.419935, -0.191075l 0.419935, -0.191075l 0.419935, -0.191075l 0.419935, -0.191075l 0.419935, -0.191075l 0.419935, -0.191075l 0.419935,
 -0.191075l 0.419935, -0.191075l 0.419935, -0.191075l 0.419935, -0.191075l 0.419935, -0.191075l 0.419935, -0.191075l 0.419935, -0.191075l 0.419935, -0.191075l 0.419935, -0.191075l 0.419935, -0.191075l 0.419935, -0.191075l 0.419935, -0.191075l
 0.419935, -0.191075l 0.419935, -0.191075l 0.419935, -0.191075l 0.419935, -0.191075l 0.419935, -0.191075l 0.419935, -0.191075l 0.419935, -0.191075l 0.419935, -0.191075l 0.419935, -0.191075l 0.419935, -0.191075l 0.419935, -0.191075l 0.419935,
 -0.191075l 0.419935, -0.191075l 0.419935, -0.191075l 0.419935, -0.191075l 0.419935, -0.191075l 0.419935, -0.191075l 0.419935, -0.191075l 0.419935, -0.191075l 0.419935, -0.191075l 0.419935, -0.191075l 0.419935, -0.191075l 0.419935, -0.191075l
 0.419935, -0.191075l 0.419935, -0.191075l 0.419935, -0.191075l 0.419935, -0.191075" fill="none" stroke="#33cccc" stroke-width="3"/>
<path d="M272.77,316.075l 0.419935, -0.191075l 0.419935, -0.191075l 0.419935, -0.191075l 0.419935, -0.191075l 0.419935, -0.191075l 0.419935, -0.191075l 0.419935, -0.191075l 0.419935, -0.191075l 0.419935, -0.191075l 0.419935, -0.191075l 0.419935,
 -0.191075l 0.419935, -0.191075l 0.419935, -0.191075l 0.419935, -0.191075l 0.419935, -0.191075l 0.419935, -0.191075l 0.419935, -0.191075l 0.419935, -0.191075l 0.419935, -0.191075l 0.419935, -0.191075l 0.419935, -0.191075l 0.419935, -0.191075l
 0.419935, -0.191075l 0.419935, -0.191075l 0.419935, -0.191075l 0.419935, -0.191075l 0.419935, -0.191075l 0.419935, -0.191075l 0.419935, -0.191075l 0.419935, -0.191075l 0.419935, -0.191075l 0.419935, -0.191075l 0.419935, -0.191075l 0.419935,
 -0.191075l 0.419935, -0.191075l 0.419935, -0.191075l 0.419935, -0.191075l 0.419935, -0.191075l 0.419935, -0.191075l 0.419935, -0.191075l 0.419935, -0.191075l 0.419935, -0.191075l 0.419935, -0.191075l 0.419935, -0.191075l 0.419935, -0.191075l
 0.419935, -0.191075l 0.419935, -0.191075l 0.419935, -0.191075l 0.419935, -0.191075" fill="none" stroke="#33cccc" stroke-width="3"/>
<path d="M293.346,306.713l 0.419935, -0.191075l 0.419935, -0.191075l 0.419935, -0.191075l 0.419935, -0.191075l 0.419935, -0.191075l 0.419935, -0.191075l 0.419935, -0.191075l 0.419935, -0.191075l 0.419935, -0.191075l 0.419935, -0.191075l 0.419935,
 -0.191075l 0.419935, -0.191075l 0.419935, -0.191075l 0.419935, -0.191075l 0.419935, -0.191075l 0.419935, -0.191075l 0.419935, -0.191075l 0.419935, -0.191075l 0.419935, -0.191075l 0.419935, -0.191075l 0.419935, -0.191075l 0.419935, -0.191075l
 0.419935, -0.191075l 0.419935, -0.191075l 0.419935, -0.191075l 0.419935, -0.191075l 0.419935, -0.191075l 0.419935, -0.191075l 0.419935, -0.191075l 0.419935, -0.191075l 0.419935, -0.191075l 0.419935, -0.191075l 0.419935, -0.191075l 0.419935,
 -0.191075l 0.419935, -0.191075l 0.419935, -0.191075l 0.419935, -0.191075l 0.419935, -0.191075l 0.419935, -0.191075l 0.419935, -0.191075l 0.419935, -0.191075l 0.419935, -0.191075l 0.419935, -0.191075l 0.419935, -0.191075l 0.419935, -0.191075l
 0.419935, -0.191075l 0.419935, -0.191075l 0.419935, -0.191075l 0.419935, -0.191075" fill="none" stroke="#33cccc" stroke-width="3"/>
<path d="M313.923,297.35l 0.419935, -0.191075l 0.419935, -0.191075l 0.419935, -0.191075l 0.419935, -0.191075l 0.419935, -0.191075l 0.419935, -0.191075l 0.419935, -0.191075l 0.419935, -0.191075l 0.419935, -0.191075l 0.419935, -0.191075l 0.419935,
 -0.191075l 0.419935, -0.191075l 0.419935, -0.191075l 0.419935, -0.191075l 0.419935, -0.191075l 0.419935, -0.191075l 0.419935, -0.191075l 0.419935, -0.191075l 0.419935, -0.191075l 0.419935, -0.191075l 0.419935, -0.191075l 0.419935, -0.191075l
 0.419935, -0.191075l 0.419935, -0.191075l 0.419935, -0.191075l 0.419935, -0.191075l 0.419935, -0.191075l 0.419935, -0.191075l 0.419935, -0.191075l 0.419935, -0.191075l 0.419935, -0.191075l 0.419935, -0.191075l 0.419935, -0.191075l 0.419935,
 -0.191075l 0.419935, -0.191075l 0.419935, -0.191075l 0.419935, -0.191075l 0.419935, -0.191075l 0.419935, -0.191075l 0.419935, -0.191075l 0.419935, -0.191075l 0.419935, -0.191075l 0.419935, -0.191075l 0.419935, -0.191075l 0.419935, -0.191075l
 0.419935, -0.191075l 0.419935, -0.191075l 0.419935, -0.191075l 0.419935, -0.191075" fill="none" stroke="#33cccc" stroke-width="3"/>
<path d="M334.5,287.987l 0.419935, -0.191075l 0.419935, -0.191075l 0.419935, -0.191075l 0.419935, -0.191075l 0.419935, -0.191075l 0.419935, -0.191075l 0.419935, -0.191075l 0.419935, -0.191075l 0.419935, -0.191075l 0.419935, -0.191075l 0.419935,
 -0.191075l 0.419935, -0.191075l 0.419935, -0.191075l 0.419935, -0.191075l 0.419935, -0.191075l 0.419935, -0.191075l 0.419935, -0.191075l 0.419935, -0.191075l 0.419935, -0.191075l 0.419935, -0.191075l 0.419935, -0.191075l 0.419935, -0.191075l
 0.419935, -0.191075l 0.419935, -0.191075l 0.419935, -0.191075l 0.419935, -0.191075l 0.419935, -0.191075l 0.419935, -0.191075l 0.419935, -0.191075l 0.419935, -0.191075l 0.419935, -0.191075l 0.419935, -0.191075l 0.419935, -0.191075l 0.419935,
 -0.191075l 0.419935, -0.191075l 0.419935, -0.191075l 0.419935, -0.191075l 0.419935, -0.191075l 0.419935, -0.191075l 0.419935, -0.191075l 0.419935, -0.191075l 0.419935, -0.191075l 0.419935, -0.191075l 0.419935, -0.191075l 0.419935, -0.191075l
 0.419935, -0.191075l 0.419935, -0.191075l 0.419935, -0.191075l 0.419935, -0.191075" fill="none" stroke="#33cccc" stroke-width="3"/>
<path d="M355.077,278.625l 0.419935, -0.191075l 0.419935, -0.191075l 0.419935, -0.191075l 0.419935, -0.191075l 0.419935, -0.191075l 0.419935, -0.191075l 0.419935, -0.191075l 0.419935, -0.191075l 0.419935, -0.191075l 0.419935, -0.191075l 0.419935,
 -0.191075l 0.419935, -0.191075l 0.419935, -0.191075l 0.419935, -0.191075l 0.419935, -0.191075l 0.419935, -0.191075l 0.419935, -0.191075l 0.419935, -0.191075l 0.419935, -0.191075l 0.419935, -0.191075l 0.419935, -0.191075l 0.419935, -0.191075l
 0.419935, -0.191075l 0.419935, -0.191075l 0.419935, -0.191075l 0.419935, -0.191075l 0.419935, -0.191075l 0.419935, -0.191075l 0.419935, -0.191075l 0.419935, -0.191075l 0.419935, -0.191075l 0.419935, -0.191075l 0.419935, -0.191075l 0.419935,
 -0.191075l 0.419935, -0.191075l 0.419935, -0.191075l 0.419935, -0.191075l 0.419935, -0.191075l 0.419935, -0.191075l 0.419935, -0.191075l 0.419935, -0.191075l 0.419935, -0.191075l 0.419935, -0.191075l 0.419935, -0.191075l 0.419935, -0.191075l
 0.419935, -0.191075l 0.419935, -0.191075l 0.419935, -0.191075l 0.419935, -0.191075" fill="none" stroke="#33cccc" stroke-width="3"/>
<path d="M375.654,269.262l 0.419935, -0.191075l 0.419935, -0.191075l 0.419935, -0.191075l 0.419935, -0.191075l 0.419935, -0.191075l 0.419935, -0.191075l 0.419935, -0.191075l 0.419935, -0.191075l 0.419935, -0.191075l 0.419935, -0.191075l 0.419935,
 -0.191075l 0.419935, -0.191075l 0.419935, -0.191075l 0.419935, -0.191075l 0.419935, -0.191075l 0.419935, -0.191075l 0.419935, -0.191075l 0.419935, -0.191075l 0.419935, -0.191075l 0.419935, -0.191075l 0.419935, -0.191075l 0.419935, -0.191075l
 0.419935, -0.191075l 0.419935, -0.191075l 0.419935, -0.191075l 0.419935, -0.191075l 0.419935, -0.191075l 0.419935, -0.191075l 0.419935, -0.191075l 0.419935, -0.191075l 0.419935, -0.191075l 0.419935, -0.191075l 0.419935, -0.191075l 0.419935,
 -0.191075l 0.419935, -0.191075l 0.419935, -0.191075l 0.419935, -0.191075l 0.419935, -0.191075l 0.419935, -0.191075l 0.419935, -0.191075l 0.419935, -0.191075l 0.419935, -0.191075l 0.419935, -0.191075l 0.419935, -0.191075l 0.419935, -0.191075l
 0.419935, -0.191075l 0.419935, -0.191075l 0.419935, -0.191075l 0.419935, -0.191075" fill="none" stroke="#33cccc" stroke-width="3"/>
<path d="M396.23,259.899l 0.419935, -0.191075l 0.419935, -0.191075l 0.419935, -0.191075l 0.419935, -0.191075l 0.419935, -0.191075l 0.419935, -0.191075l 0.419935, -0.191075l 0.419935, -0.191075l 0.419935, -0.191075l 0.419935, -0.191075l 0.419935,
 -0.191075l 0.419935, -0.191075l 0.419935, -0.191075l 0.419935, -0.191075l 0.419935, -0.191075l 0.419935, -0.191075l 0.419935, -0.191075l 0.419935, -0.191075l 0.419935, -0.191075l 0.419935, -0.191075l 0.419935, -0.191075l 0.419935, -0.191075l
 0.419935, -0.191075l 0.419935, -0.191075l 0.419935, -0.191075l 0.419935, -0.191075l 0.419935, -0.191075l 0.419935, -0.191075l 0.419935, -0.191075l 0.419935, -0.191075l 0.419935, -0.191075l 0.419935, -0.191075l 0.419935, -0.191075l 0.419935,
 -0.191075l 0.419935, -0.191075l 0.419935, -0.191075l 0.419935, -0.191075l 0.419935, -0.191075l 0.419935, -0.191075l 0.419935, -0.191075l 0.419935, -0.191075l 0.419935, -0.191075l 0.419935, -0.191075l 0.419935, -0.191075l 0.419935, -0.191075l
 0.419935, -0.191075l 0.419935, -0.191075l 0.419935, -0.191075l 0.419935, -0.191075" fill="none" stroke="#33cccc" stroke-width="3"/>
<path d="M416.807,250.536l 0.419935, -0.191075l 0.419935, -0.191075l 0.419935, -0.191075l 0.419935, -0.191075l 0.419935, -0.191075l 0.419935, -0.191075l 0.419935, -0.191075l 0.419935, -0.191075l 0.419935, -0.191075l 0.419935, -0.191075l 0.419935,
 -0.191075l 0.419935, -0.191075l 0.419935, -0.191075l 0.419935, -0.191075l 0.419935, -0.191075l 0.419935, -0.191075l 0.419935, -0.191075l 0.419935, -0.191075l 0.419935, -0.191075l 0.419935, -0.191075l 0.419935, -0.191075l 0.419935, -0.191075l
 0.419935, -0.191075l 0.419935, -0.191075l 0.419935, -0.191075l 0.419935, -0.191075l 0.419935, -0.191075l 0.419935, -0.191075l 0.419935, -0.191075l 0.419935, -0.191075l 0.419935, -0.191075l 0.419935, -0.191075l 0.419935, -0.191075l 0.419935,
 -0.191075l 0.419935, -0.191075l 0.419935, -0.191075l 0.419935, -0.191075l 0.419935, -0.191075l 0.419935, -0.191075l 0.419935, -0.191075l 0.419935, -0.191075l 0.419935, -0.191075l 0.419935, -0.191075l 0.419935, -0.191075l 0.419935, -0.191075l
 0.419935, -0.191075l 0.419935, -0.191075l 0.419935, -0.191075l 0.419935, -0.191075" fill="none" stroke="#33cccc" stroke-width="3"/>
<path d="M437.384,241.174l 0.419935, -0.191075l 0.419935, -0.191075l 0.419935, -0.191075l 0.419935, -0.191075l 0.419935, -0.191075l 0.419935, -0.191075l 0.419935, -0.191075l 0.419935, -0.191075l 0.419935, -0.191075l 0.419935, -0.191075l 0.419935,
 -0.191075l 0.419935, -0.191075l 0.419935, -0.191075l 0.419935, -0.191075l 0.419935, -0.191075l 0.419935, -0.191075l 0.419935, -0.191075l 0.419935, -0.191075l 0.419935, -0.191075l 0.419935, -0.191075l 0.419935, -0.191075l 0.419935, -0.191075l
 0.419935, -0.191075l 0.419935, -0.191075l 0.419935, -0.191075l 0.419935, -0.191075l 0.419935, -0.191075l 0.419935, -0.191075l 0.419935, -0.191075l 0.419935, -0.191075l 0.419935, -0.191075l 0.419935, -0.191075l 0.419935, -0.191075l 0.419935,
 -0.191075l 0.419935, -0.191075l 0.419935, -0.191075l 0.419935, -0.191075l 0.419935, -0.191075l 0.419935, -0.191075l 0.419935, -0.191075l 0.419935, -0.191075l 0.419935, -0.191075l 0.419935, -0.191075l 0.419935, -0.191075l 0.419935, -0.191075l
 0.419935, -0.191075l 0.419935, -0.191075l 0.419935, -0.191075l 0.419935, -0.191075" fill="none" stroke="#33cccc" stroke-width="3"/>
<path d="M457.961,231.811l 0.419935, -0.191075l 0.419935, -0.191075l 0.419935, -0.191075l 0.419935, -0.191075l 0.419935, -0.191075l 0.419935, -0.191075l 0.419935, -0.191075l 0.419935, -0.191075l 0.419935, -0.191075l 0.419935, -0.191075l 0.419935,
 -0.191075l 0.419935, -0.191075l 0.419935, -0.191075l 0.419935, -0.191075l 0.419935, -0.191075l 0.419935, -0.191075l 0.419935, -0.191075l 0.419935, -0.191075l 0.419935, -0.191075l 0.419935, -0.191075l 0.419935, -0.191075l 0.419935, -0.191075l
 0.419935, -0.191075l 0.419935, -0.191075l 0.419935, -0.191075l 0.419935, -0.191075l 0.419935, -0.191075l 0.419935, -0.191075l 0.419935, -0.191075l 0.419935, -0.191075l 0.419935, -0.191075l 0.419935, -0.191075l 0.419935, -0.191075l 0.419935,
 -0.191075l 0.419935, -0.191075l 0.419935, -0.191075l 0.419935, -0.191075l 0.419935, -0.191075l 0.419935, -0.191075l 0.419935, -0.191075l 0.419935, -0.191075l 0.419935, -0.191075l 0.419935, -0.191075l 0.419935, -0.191075l 0.419935, -0.191075l
 0.419935, -0.191075l 0.419935, -0.191075l 0.419935, -0.191075l 0.419935, -0.191075" fill="none" stroke="#33cccc" stroke-width="3"/>
<path d="M478.538,222.448l 0.419935, -0.191075l 0.419935, -0.191075l 0.419935, -0.191075l 0.419935, -0.191075l 0.419935, -0.191075l 0.419935, -0.191075l 0.419935, -0.191075l 0.419935, -0.191075l 0.419935, -0.191075l 0.419935, -0.191075l 0.419935,
 -0.191075l 0.419935, -0.191075l 0.419935, -0.191075l 0.419935, -0.191075l 0.419935, -0.191075l 0.419935, -0.191075l 0.419935, -0.191075l 0.419935, -0.191075l 0.419935, -0.191075l 0.419935, -0.191075l 0.419935, -0.191075l 0.419935, -0.191075l
 0.419935, -0.191075l 0.419935, -0.191075l 0.419935, -0.191075l 0.419935, -0.191075l 0.419935, -0.191075l 0.419935, -0.191075l 0.419935, -0.191075l 0.419935, -0.191075l 0.419935, -0.191075l 0.419935, -0.191075l 0.419935, -0.191075l 0.419935,
 -0.191075l 0.419935, -0.191075l 0.419935, -0.191075l 0.419935, -0.191075l 0.419935, -0.191075l 0.419935, -0.191075l 0.419935, -0.191075l 0.419935, -0.191075l 0.419935, -0.191075l 0.419935, -0.191075l 0.419935, -0.191075l 0.419935, -0.191075l
 0.419935, -0.191075l 0.419935, -0.191075l 0.419935, -0.191075l 0.419935, -0.191075" fill="none" stroke="#33cccc" stroke-width="3"/>
<path d="M499.114,213.086l 0.419935, -0.191075l 0.419935, -0.191075l 0.419935, -0.191075l 0.419935, -0.191075l 0.419935, -0.191075l 0.419935, -0.191075l 0.419935, -0.191075l 0.419935, -0.191075l 0.419935, -0.191075l 0.419935, -0.191075l 0.419935,
 -0.191075l 0.419935, -0.191075l 0.419935, -0.191075l 0.419935, -0.191075l 0.419935, -0.191075l 0.419935, -0.191075l 0.419935, -0.191075l 0.419935, -0.191075l 0.419935, -0.191075l 0.419935, -0.191075l 0.419935, -0.191075l 0.419935, -0.191075l
 0.419935, -0.191075l 0.419935, -0.191075l 0.419935, -0.191075l 0.419935, -0.191075l 0.419935, -0.191075l 0.419935, -0.191075l 0.419935, -0.191075l 0.419935, -0.191075l 0.419935, -0.191075l 0.419935, -0.191075l 0.419935, -0.191075l 0.419935,
 -0.191075l 0.419935, -0.191075l 0.419935, -0.191075l 0.419935, -0.191075l 0.419935, -0.191075l 0.419935, -0.191075l 0.419935, -0.191075l 0.419935, -0.191075l 0.419935, -0.191075l 0.419935, -0.191075l 0.419935, -0.191075l 0.419935, -0.191075l
 0.419935, -0.191075l 0.419935, -0.191075l 0.419935, -0.191075l 0.419935, -0.191075" fill="none" stroke="#33cccc" stroke-width="3"/>
<path d="M519.691,203.723l 0.419935, -0.191075l 0.419935, -0.191075l 0.419935, -0.191075l 0.419935, -0.191075l 0.419935, -0.191075l 0.419935, -0.191075l 0.419935, -0.191075l 0.419935, -0.191075l 0.419935, -0.191075l 0.419935, -0.191075l 0.419935,
 -0.191075l 0.419935, -0.191075l 0.419935, -0.191075l 0.419935, -0.191075l 0.419935, -0.191075l 0.419935, -0.191075l 0.419935, -0.191075l 0.419935, -0.191075l 0.419935, -0.191075l 0.419935, -0.191075l 0.419935, -0.191075l 0.419935, -0.191075l
 0.419935, -0.191075l 0.419935, -0.191075l 0.419935, -0.191075l 0.419935, -0.191075l 0.419935, -0.191075l 0.419935, -0.191075l 0.419935, -0.191075l 0.419935, -0.191075l 0.419935, -0.191075l 0.419935, -0.191075l 0.419935, -0.191075l 0.419935,
 -0.191075l 0.419935, -0.191075l 0.419935, -0.191075l 0.419935, -0.191075l 0.419935, -0.191075l 0.419935, -0.191075l 0.419935, -0.191075l 0.419935, -0.191075l 0.419935, -0.191075l 0.419935, -0.191075l 0.419935, -0.191075l 0.419935, -0.191075l
 0.419935, -0.191075l 0.419935, -0.191075l 0.419935, -0.191075l 0.419935, -0.191075" fill="none" stroke="#33cccc" stroke-width="3"/>
<path d="M540.268,194.36l 0.419935, -0.191075l 0.419935, -0.191075l 0.419935, -0.191075l 0.419935, -0.191075l 0.419935, -0.191075l 0.419935, -0.191075l 0.419935, -0.191075l 0.419935, -0.191075l 0.419935, -0.191075l 0.419935, -0.191075l 0.419935,
 -0.191075l 0.419935, -0.191075l 0.419935, -0.191075l 0.419935, -0.191075l 0.419935, -0.191075l 0.419935, -0.191075l 0.419935, -0.191075l 0.419935, -0.191075l 0.419935, -0.191075" fill="none" stroke="#33cccc" stroke-width="3"/>
<path d="M128.732,395.27l 0.419935, -0.255939l 0.419935, -0.255799l 0.419935, -0.25566l 0.419935, -0.255521l 0.419935, -0.255382l 0.419935, -0.255243l 0.419935, -0.255104l 0.419935, -0.254965l 0.419935, -0.254826l 0.419935, -0.254687l 0.419935,
 -0.254547l 0.419935, -0.254408l 0.419935, -0.254269l 0.419935, -0.25413l 0.419935, -0.253991l 0.419935, -0.253852l 0.419935, -0.253713l 0.419935, -0.253574l 0.419935, -0.253435l 0.419935, -0.253295l 0.419935, -0.253156l 0.419935, -0.253017l
 0.419935, -0.252878l 0.419935, -0.252739l 0.419935, -0.2526l 0.419935, -0.252461l 0.419935, -0.252322l 0.419935, -0.252182l 0.419935, -0.252043l 0.419935, -0.251904l 0.419935, -0.251765l 0.419935, -0.251626l 0.419935, -0.251487l 0.419935, -0.251348l
 0.419935, -0.251209l 0.419935, -0.25107l 0.419935, -0.25093l 0.419935, -0.250791l 0.419935, -0.250652l 0.419935, -0.250513l 0.419935, -0.250374l 0.419935, -0.250235l 0.419935, -0.250096l 0.419935, -0.249957l 0.419935, -0.249818l 0.419935, -0.249678l
 0.419935, -0.249539l 0.419935, -0.2494l 0.419935, -0.249261" fill="none" stroke="#ff0066" stroke-width="3"/>
<path d="M149.309,382.892l 0.419935, -0.249122l 0.419935, -0.248983l 0.419935, -0.248844l 0.419935, -0.248705l 0.419935, -0.248566l 0.419935, -0.248426l 0.419935, -0.248287l 0.419935, -0.248148l 0.419935, -0.248009l 0.419935, -0.24787l 0.419935,
 -0.247731l 0.419935, -0.247592l 0.419935, -0.247453l 0.419935, -0.247314l 0.419935, -0.247174l 0.419935, -0.247035l 0.419935, -0.246896l 0.419935, -0.246757l 0.419935, -0.246618l 0.419935, -0.246479l 0.419935, -0.24634l 0.419935, -0.246201l
 0.419935, -0.246062l 0.419935, -0.245922l 0.419935, -0.245783l 0.419935, -0.245644l 0.419935, -0.245505l 0.419935, -0.245366l 0.419935, -0.245227l 0.419935, -0.245088l 0.419935, -0.244949l 0.419935, -0.24481l 0.419935, -0.24467l 0.419935, -0.244531l
 0.419935, -0.244392l 0.419935, -0.244253l 0.419935, -0.244114l 0.419935, -0.243975l 0.419935, -0.243836l 0.419935, -0.243697l 0.419935, -0.243558l 0.419935, -0.243418l 0.419935, -0.243279l 0.419935, -0.24314l 0.419935, -0.243001l 0.419935,
 -0.242862l 0.419935, -0.242723l 0.419935, -0.242584l 0.419935, -0.242445" fill="none" stroke="#ff0066" stroke-width="3"/>
<path d="M169.886,370.849l 0.419935, -0.242306l 0.419935, -0.242166l 0.419935, -0.242027l 0.419935, -0.241888l 0.419935, -0.241749l 0.419935, -0.24161l 0.419935, -0.241471l 0.419935, -0.241332l 0.419935, -0.241193l 0.419935, -0.241053l 0.419935,
 -0.240914l 0.419935, -0.240775l 0.419935, -0.240636l 0.419935, -0.240497l 0.419935, -0.240358l 0.419935, -0.240219l 0.419935, -0.24008l 0.419935, -0.239941l 0.419935, -0.239801l 0.419935, -0.239662l 0.419935, -0.239523l 0.419935, -0.239384l
 0.419935, -0.239245l 0.419935, -0.239106l 0.419935, -0.238967l 0.419935, -0.238828l 0.419935, -0.238689l 0.419935, -0.238549l 0.419935, -0.23841l 0.419935, -0.238271l 0.419935, -0.238132l 0.419935, -0.237993l 0.419935, -0.237854l 0.419935,
 -0.237715l 0.419935, -0.237576l 0.419935, -0.237437l 0.419935, -0.237297l 0.419935, -0.237158l 0.419935, -0.237019l 0.419935, -0.23688l 0.419935, -0.236741l 0.419935, -0.236602l 0.419935, -0.236463l 0.419935, -0.236324l 0.419935, -0.236185l
 0.419935, -0.236045l 0.419935, -0.235906l 0.419935, -0.235767l 0.419935, -0.235628" fill="none" stroke="#ff0066" stroke-width="3"/>
<path d="M190.462,359.14l 0.419935, -0.235489l 0.419935, -0.23535l 0.419935, -0.235211l 0.419935, -0.235072l 0.419935, -0.234933l 0.419935, -0.234793l 0.419935, -0.234654l 0.419935, -0.234515l 0.419935, -0.234376l 0.419935, -0.234237l 0.419935,
 -0.234098l 0.419935, -0.233959l 0.419935, -0.23382l 0.419935, -0.233681l 0.419935, -0.233541l 0.419935, -0.233402l 0.419935, -0.233263l 0.419935, -0.233124l 0.419935, -0.232985l 0.419935, -0.232846l 0.419935, -0.232707l 0.419935, -0.232568l
 0.419935, -0.232429l 0.419935, -0.232289l 0.419935, -0.23215l 0.419935, -0.232011l 0.419935, -0.231872l 0.419935, -0.231733l 0.419935, -0.231594l 0.419935, -0.231455l 0.419935, -0.231316l 0.419935, -0.231177l 0.419935, -0.231037l 0.419935,
 -0.230898l 0.419935, -0.230759l 0.419935, -0.23062l 0.419935, -0.230481l 0.419935, -0.230342l 0.419935, -0.230203l 0.419935, -0.230064l 0.419935, -0.229924l 0.419935, -0.229785l 0.419935, -0.229646l 0.419935, -0.229507l 0.419935, -0.229368l
 0.419935, -0.229229l 0.419935, -0.22909l 0.419935, -0.228951l 0.419935, -0.228812" fill="none" stroke="#ff0066" stroke-width="3"/>
<path d="M211.039,347.764l 0.419935, -0.228672l 0.419935, -0.228533l 0.419935, -0.228394l 0.419935, -0.228255l 0.419935, -0.228116l 0.419935, -0.227977l 0.419935, -0.227838l 0.419935, -0.227699l 0.419935, -0.22756l 0.419935, -0.22742l 0.419935,
 -0.227281l 0.419935, -0.227142l 0.419935, -0.227003l 0.419935, -0.226864l 0.419935, -0.226725l 0.419935, -0.226586l 0.419935, -0.226447l 0.419935, -0.226308l 0.419935, -0.226168l 0.419935, -0.226029l 0.419935, -0.22589l 0.419935, -0.225751l
 0.419935, -0.225612l 0.419935, -0.225473l 0.419935, -0.225334l 0.419935, -0.225195l 0.419935, -0.225056l 0.419935, -0.224916l 0.419935, -0.224777l 0.419935, -0.224638l 0.419935, -0.224499l 0.419935, -0.22436l 0.419935, -0.224221l 0.419935,
 -0.224082l 0.419935, -0.223943l 0.419935, -0.223804l 0.419935, -0.223664l 0.419935, -0.223525l 0.419935, -0.223386l 0.419935, -0.223247l 0.419935, -0.223108l 0.419935, -0.222969l 0.419935, -0.22283l 0.419935, -0.222691l 0.419935, -0.222552l
 0.419935, -0.222412l 0.419935, -0.222273l 0.419935, -0.222134l 0.419935, -0.221995" fill="none" stroke="#ff0066" stroke-width="3"/>
<path d="M231.616,336.723l 0.419935, -0.221856l 0.419935, -0.221717l 0.419935, -0.221578l 0.419935, -0.221439l 0.419935, -0.2213l 0.419935, -0.22116l 0.419935, -0.221021l 0.419935, -0.220882l 0.419935, -0.220743l 0.419935, -0.220604l 0.419935,
 -0.220465l 0.419935, -0.220326l 0.419935, -0.220187l 0.419935, -0.220048l 0.419935, -0.219908l 0.419935, -0.219769l 0.419935, -0.21963l 0.419935, -0.219491l 0.419935, -0.219352l 0.419935, -0.219213l 0.419935, -0.219074l 0.419935, -0.218935l
 0.419935, -0.218796l 0.419935, -0.218656l 0.419935, -0.218517l 0.419935, -0.218378l 0.419935, -0.218239l 0.419935, -0.2181l 0.419935, -0.217961l 0.419935, -0.217822l 0.419935, -0.217683l 0.419935, -0.217544l 0.419935, -0.217404l 0.419935, -0.217265l
 0.419935, -0.217126l 0.419935, -0.216987l 0.419935, -0.216848l 0.419935, -0.216709l 0.419935, -0.21657l 0.419935, -0.216431l 0.419935, -0.216292l 0.419935, -0.216152l 0.419935, -0.216013l 0.419935, -0.215874l 0.419935, -0.215735l 0.419935,
 -0.215596l 0.419935, -0.215457l 0.419935, -0.215318l 0.419935, -0.215179" fill="none" stroke="#ff0066" stroke-width="3"/>
<path d="M252.193,326.016l 0.419935, -0.215039l 0.419935, -0.2149l 0.419935, -0.214761l 0.419935, -0.214622l 0.419935, -0.214483l 0.419935, -0.214344l 0.419935, -0.214205l 0.419935, -0.214066l 0.419935, -0.213927l 0.419935, -0.213787l 0.419935,
 -0.213648l 0.419935, -0.213509l 0.419935, -0.21337l 0.419935, -0.213231l 0.419935, -0.213092l 0.419935, -0.212953l 0.419935, -0.212814l 0.419935, -0.212675l 0.419935, -0.212535l 0.419935, -0.212396l 0.419935, -0.212257l 0.419935, -0.212118l
 0.419935, -0.211979l 0.419935, -0.21184l 0.419935, -0.211701l 0.419935, -0.211562l 0.419935, -0.211423l 0.419935, -0.211283l 0.419935, -0.211144l 0.419935, -0.211005l 0.419935, -0.210866l 0.419935, -0.210727l 0.419935, -0.210588l 0.419935,
 -0.210449l 0.419935, -0.21031l 0.419935, -0.210171l 0.419935, -0.210031l 0.419935, -0.209892l 0.419935, -0.209753l 0.419935, -0.209614l 0.419935, -0.209475l 0.419935, -0.209336l 0.419935, -0.209197l 0.419935, -0.209058l 0.419935, -0.208919l
 0.419935, -0.208779l 0.419935, -0.20864l 0.419935, -0.208501l 0.419935, -0.208362" fill="none" stroke="#ff0066" stroke-width="3"/>
<path d="M272.77,315.642l 0.419935, -0.208223l 0.419935, -0.208084l 0.419935, -0.207945l 0.419935, -0.207806l 0.419935, -0.207667l 0.419935, -0.207527l 0.419935, -0.207388l 0.419935, -0.207249l 0.419935, -0.20711l 0.419935, -0.206971l 0.419935,
 -0.206832l 0.419935, -0.206693l 0.419935, -0.206554l 0.419935, -0.206415l 0.419935, -0.206275l 0.419935, -0.206136l 0.419935, -0.205997l 0.419935, -0.205858l 0.419935, -0.205719l 0.419935, -0.20558l 0.419935, -0.205441l 0.419935, -0.205302l
 0.419935, -0.205163l 0.419935, -0.205023l 0.419935, -0.204884l 0.419935, -0.204745l 0.419935, -0.204606l 0.419935, -0.204467l 0.419935, -0.204328l 0.419935, -0.204189l 0.419935, -0.20405l 0.419935, -0.20391l 0.419935, -0.203771l 0.419935, -0.203632l
 0.419935, -0.203493l 0.419935, -0.203354l 0.419935, -0.203215l 0.419935, -0.203076l 0.419935, -0.202937l 0.419935, -0.202798l 0.419935, -0.202658l 0.419935, -0.202519l 0.419935, -0.20238l 0.419935, -0.202241l 0.419935, -0.202102l 0.419935,
 -0.201963l 0.419935, -0.201824l 0.419935, -0.201685l 0.419935, -0.201546" fill="none" stroke="#ff0066" stroke-width="3"/>
<path d="M293.346,305.603l 0.419935, -0.201406l 0.419935, -0.201267l 0.419935, -0.201128l 0.419935, -0.200989l 0.419935, -0.20085l 0.419935, -0.200711l 0.419935, -0.200572l 0.419935, -0.200433l 0.419935, -0.200294l 0.419935, -0.200154l 0.419935,
 -0.200015l 0.419935, -0.199876l 0.419935, -0.199737l 0.419935, -0.199598l 0.419935, -0.199459l 0.419935, -0.19932l 0.419935, -0.199181l 0.419935, -0.199042l 0.419935, -0.198902l 0.419935, -0.198763l 0.419935, -0.198624l 0.419935, -0.198485l
 0.419935, -0.198346l 0.419935, -0.198207l 0.419935, -0.198068l 0.419935, -0.197929l 0.419935, -0.19779l 0.419935, -0.19765l 0.419935, -0.197511l 0.419935, -0.197372l 0.419935, -0.197233l 0.419935, -0.197094l 0.419935, -0.196955l 0.419935, -0.196816l
 0.419935, -0.196677l 0.419935, -0.196538l 0.419935, -0.196398l 0.419935, -0.196259l 0.419935, -0.19612l 0.419935, -0.195981l 0.419935, -0.195842l 0.419935, -0.195703l 0.419935, -0.195564l 0.419935, -0.195425l 0.419935, -0.195286l 0.419935,
 -0.195146l 0.419935, -0.195007l 0.419935, -0.194868l 0.419935, -0.194729" fill="none" stroke="#ff0066" stroke-width="3"/>
<path d="M313.923,295.898l 0.419935, -0.19459l 0.419935, -0.194451l 0.419935, -0.194312l 0.419935, -0.194173l 0.419935, -0.194034l 0.419935, -0.193894l 0.419935, -0.193755l 0.419935, -0.193616l 0.419935, -0.193477l 0.419935, -0.193338l 0.419935,
 -0.193199l 0.419935, -0.19306l 0.419935, -0.192921l 0.419935, -0.192782l 0.419935, -0.192642l 0.419935, -0.192503l 0.419935, -0.192364l 0.419935, -0.192225l 0.419935, -0.192086l 0.419935, -0.191947l 0.419935, -0.191808l 0.419935, -0.191669l
 0.419935, -0.191529l 0.419935, -0.19139l 0.419935, -0.191251l 0.419935, -0.191112l 0.419935, -0.190973l 0.419935, -0.190834l 0.419935, -0.190695l 0.419935, -0.190556l 0.419935, -0.190417l 0.419935, -0.190277l 0.419935, -0.190138l 0.419935,
 -0.189999l 0.419935, -0.18986l 0.419935, -0.189721l 0.419935, -0.189582l 0.419935, -0.189443l 0.419935, -0.189304l 0.419935, -0.189165l 0.419935, -0.189025l 0.419935, -0.188886l 0.419935, -0.188747l 0.419935, -0.188608l 0.419935, -0.188469l
 0.419935, -0.18833l 0.419935, -0.188191l 0.419935, -0.188052l 0.419935, -0.187913" fill="none" stroke="#ff0066" stroke-width="3"/>
<path d="M334.5,286.526l 0.419935, -0.187773l 0.419935, -0.187634l 0.419935, -0.187495l 0.419935, -0.187356l 0.419935, -0.187217l 0.419935, -0.187078l 0.419935, -0.186939l 0.419935, -0.1868l 0.419935, -0.186661l 0.419935, -0.186521l 0.419935,
 -0.186382l 0.419935, -0.186243l 0.419935, -0.186104l 0.419935, -0.185965l 0.419935, -0.185826l 0.419935, -0.185687l 0.419935, -0.185548l 0.419935, -0.185409l 0.419935, -0.185269l 0.419935, -0.18513l 0.419935, -0.184991l 0.419935, -0.184852l
 0.419935, -0.184713l 0.419935, -0.184574l 0.419935, -0.184435l 0.419935, -0.184296l 0.419935, -0.184157l 0.419935, -0.184017l 0.419935, -0.183878l 0.419935, -0.183739l 0.419935, -0.1836l 0.419935, -0.183461l 0.419935, -0.183322l 0.419935, -0.183183l
 0.419935, -0.183044l 0.419935, -0.182905l 0.419935, -0.182765l 0.419935, -0.182626l 0.419935, -0.182487l 0.419935, -0.182348l 0.419935, -0.182209l 0.419935, -0.18207l 0.419935, -0.181931l 0.419935, -0.181792l 0.419935, -0.181653l 0.419935,
 -0.181513l 0.419935, -0.181374l 0.419935, -0.181235l 0.419935, -0.181096" fill="none" stroke="#ff0066" stroke-width="3"/>
<path d="M355.077,277.489l 0.419935, -0.180957l 0.419935, -0.180818l 0.419935, -0.180679l 0.419935, -0.18054l 0.419935, -0.180401l 0.419935, -0.180261l 0.419935, -0.180122l 0.419935, -0.179983l 0.419935, -0.179844l 0.419935, -0.179705l 0.419935,
 -0.179566l 0.419935, -0.179427l 0.419935, -0.179288l 0.419935, -0.179148l 0.419935, -0.179009l 0.419935, -0.17887l 0.419935, -0.178731l 0.419935, -0.178592l 0.419935, -0.178453l 0.419935, -0.178314l 0.419935, -0.178175l 0.419935, -0.178036l
 0.419935, -0.177896l 0.419935, -0.177757l 0.419935, -0.177618l 0.419935, -0.177479l 0.419935, -0.17734l 0.419935, -0.177201l 0.419935, -0.177062l 0.419935, -0.176923l 0.419935, -0.176784l 0.419935, -0.176644l 0.419935, -0.176505l 0.419935,
 -0.176366l 0.419935, -0.176227l 0.419935, -0.176088l 0.419935, -0.175949l 0.419935, -0.17581l 0.419935, -0.175671l 0.419935, -0.175532l 0.419935, -0.175392l 0.419935, -0.175253l 0.419935, -0.175114l 0.419935, -0.174975l 0.419935, -0.174836l
 0.419935, -0.174697l 0.419935, -0.174558l 0.419935, -0.174419l 0.419935, -0.17428" fill="none" stroke="#ff0066" stroke-width="3"/>
<path d="M375.654,268.786l 0.419935, -0.17414l 0.419935, -0.174001l 0.419935, -0.173862l 0.419935, -0.173723l 0.419935, -0.173584l 0.419935, -0.173445l 0.419935, -0.173306l 0.419935, -0.173167l 0.419935, -0.173028l 0.419935, -0.172888l 0.419935,
 -0.172749l 0.419935, -0.17261l 0.419935, -0.172471l 0.419935, -0.172332l 0.419935, -0.172193l 0.419935, -0.172054l 0.419935, -0.171915l 0.419935, -0.171776l 0.419935, -0.171636l 0.419935, -0.171497l 0.419935, -0.171358l 0.419935, -0.171219l
 0.419935, -0.17108l 0.419935, -0.170941l 0.419935, -0.170802l 0.419935, -0.170663l 0.419935, -0.170524l 0.419935, -0.170384l 0.419935, -0.170245l 0.419935, -0.170106l 0.419935, -0.169967l 0.419935, -0.169828l 0.419935, -0.169689l 0.419935, -0.16955l
 0.419935, -0.169411l 0.419935, -0.169272l 0.419935, -0.169132l 0.419935, -0.168993l 0.419935, -0.168854l 0.419935, -0.168715l 0.419935, -0.168576l 0.419935, -0.168437l 0.419935, -0.168298l 0.419935, -0.168159l 0.419935, -0.16802l 0.419935, -0.16788l
 0.419935, -0.167741l 0.419935, -0.167602l 0.419935, -0.167463" fill="none" stroke="#ff0066" stroke-width="3"/>
<path d="M396.23,260.416l 0.419935, -0.167324l 0.419935, -0.167185l 0.419935, -0.167046l 0.419935, -0.166907l 0.419935, -0.166767l 0.419935, -0.166628l 0.419935, -0.166489l 0.419935, -0.16635l 0.419935, -0.166211l 0.419935, -0.166072l 0.419935,
 -0.165933l 0.419935, -0.165794l 0.419935, -0.165655l 0.419935, -0.165515l 0.419935, -0.165376l 0.419935, -0.165237l 0.419935, -0.165098l 0.419935, -0.164959l 0.419935, -0.16482l 0.419935, -0.164681l 0.419935, -0.164542l 0.419935, -0.164403l
 0.419935, -0.164263l 0.419935, -0.164124l 0.419935, -0.163985l 0.419935, -0.163846l 0.419935, -0.163707l 0.419935, -0.163568l 0.419935, -0.163429l 0.419935, -0.16329l 0.419935, -0.163151l 0.419935, -0.163011l 0.419935, -0.162872l 0.419935,
 -0.162733l 0.419935, -0.162594l 0.419935, -0.162455l 0.419935, -0.162316l 0.419935, -0.162177l 0.419935, -0.162038l 0.419935, -0.161899l 0.419935, -0.161759l 0.419935, -0.16162l 0.419935, -0.161481l 0.419935, -0.161342l 0.419935, -0.161203l
 0.419935, -0.161064l 0.419935, -0.160925l 0.419935, -0.160786l 0.419935, -0.160647" fill="none" stroke="#ff0066" stroke-width="3"/>
<path d="M416.807,252.381l 0.419935, -0.160507l 0.419935, -0.160368l 0.419935, -0.160229l 0.419935, -0.16009l 0.419935, -0.159951l 0.419935, -0.159812l 0.419935, -0.159673l 0.419935, -0.159534l 0.419935, -0.159395l 0.419935, -0.159255l 0.419935,
 -0.159116l 0.419935, -0.158977l 0.419935, -0.158838l 0.419935, -0.158699l 0.419935, -0.15856l 0.419935, -0.158421l 0.419935, -0.158282l 0.419935, -0.158143l 0.419935, -0.158003l 0.419935, -0.157864l 0.419935, -0.157725l 0.419935, -0.157586l
 0.419935, -0.157447l 0.419935, -0.157308l 0.419935, -0.157169l 0.419935, -0.15703l 0.419935, -0.156891l 0.419935, -0.156751l 0.419935, -0.156612l 0.419935, -0.156473l 0.419935, -0.156334l 0.419935, -0.156195l 0.419935, -0.156056l 0.419935,
 -0.155917l 0.419935, -0.155778l 0.419935, -0.155639l 0.419935, -0.155499l 0.419935, -0.15536l 0.419935, -0.155221l 0.419935, -0.155082l 0.419935, -0.154943l 0.419935, -0.154804l 0.419935, -0.154665l 0.419935, -0.154526l 0.419935, -0.154386l
 0.419935, -0.154247l 0.419935, -0.154108l 0.419935, -0.153969l 0.419935, -0.15383" fill="none" stroke="#ff0066" stroke-width="3"/>
<path d="M437.384,244.68l 0.419935, -0.153691l 0.419935, -0.153552l 0.419935, -0.153413l 0.419935, -0.153274l 0.419935, -0.153134l 0.419935, -0.152995l 0.419935, -0.152856l 0.419935, -0.152717l 0.419935, -0.152578l 0.419935, -0.152439l 0.419935,
 -0.1523l 0.419935, -0.152161l 0.419935, -0.152022l 0.419935, -0.151882l 0.419935, -0.151743l 0.419935, -0.151604l 0.419935, -0.151465l 0.419935, -0.151326l 0.419935, -0.151187l 0.419935, -0.151048l 0.419935, -0.150909l 0.419935, -0.15077l 0.419935,
 -0.15063l 0.419935, -0.150491l 0.419935, -0.150352l 0.419935, -0.150213l 0.419935, -0.150074l 0.419935, -0.149935l 0.419935, -0.149796l 0.419935, -0.149657l 0.419935, -0.149518l 0.419935, -0.149378l 0.419935, -0.149239l 0.419935, -0.1491l 0.419935,
 -0.148961l 0.419935, -0.148822l 0.419935, -0.148683l 0.419935, -0.148544l 0.419935, -0.148405l 0.419935, -0.148266l 0.419935, -0.148126l 0.419935, -0.147987l 0.419935, -0.147848l 0.419935, -0.147709l 0.419935, -0.14757l 0.419935, -0.147431l
 0.419935, -0.147292l 0.419935, -0.147153l 0.419935, -0.147014" fill="none" stroke="#ff0066" stroke-width="3"/>
<path d="M457.961,237.313l 0.419935, -0.146874l 0.419935, -0.146735l 0.419935, -0.146596l 0.419935, -0.146457l 0.419935, -0.146318l 0.419935, -0.146179l 0.419935, -0.14604l 0.419935, -0.145901l 0.419935, -0.145762l 0.419935, -0.145622l 0.419935,
 -0.145483l 0.419935, -0.145344l 0.419935, -0.145205l 0.419935, -0.145066l 0.419935, -0.144927l 0.419935, -0.144788l 0.419935, -0.144649l 0.419935, -0.14451l 0.419935, -0.14437l 0.419935, -0.144231l 0.419935, -0.144092l 0.419935, -0.143953l 0.419935,
 -0.143814l 0.419935, -0.143675l 0.419935, -0.143536l 0.419935, -0.143397l 0.419935, -0.143258l 0.419935, -0.143118l 0.419935, -0.142979l 0.419935, -0.14284l 0.419935, -0.142701l 0.419935, -0.142562l 0.419935, -0.142423l 0.419935, -0.142284l
 0.419935, -0.142145l 0.419935, -0.142006l 0.419935, -0.141866l 0.419935, -0.141727l 0.419935, -0.141588l 0.419935, -0.141449l 0.419935, -0.14131l 0.419935, -0.141171l 0.419935, -0.141032l 0.419935, -0.140893l 0.419935, -0.140753l 0.419935,
 -0.140614l 0.419935, -0.140475l 0.419935, -0.140336l 0.419935, -0.140197" fill="none" stroke="#ff0066" stroke-width="3"/>
<path d="M478.538,230.279l 0.419935, -0.140058l 0.419935, -0.139919l 0.419935, -0.13978l 0.419935, -0.139641l 0.419935, -0.139501l 0.419935, -0.139362l 0.419935, -0.139223l 0.419935, -0.139084l 0.419935, -0.138945l 0.419935, -0.138806l 0.419935,
 -0.138667l 0.419935, -0.138528l 0.419935, -0.138389l 0.419935, -0.138249l 0.419935, -0.13811l 0.419935, -0.137971l 0.419935, -0.137832l 0.419935, -0.137693l 0.419935, -0.137554l 0.419935, -0.137415l 0.419935, -0.137276l 0.419935, -0.137137l
 0.419935, -0.136997l 0.419935, -0.136858l 0.419935, -0.136719l 0.419935, -0.13658l 0.419935, -0.136441l 0.419935, -0.136302l 0.419935, -0.136163l 0.419935, -0.136024l 0.419935, -0.135885l 0.419935, -0.135745l 0.419935, -0.135606l 0.419935,
 -0.135467l 0.419935, -0.135328l 0.419935, -0.135189l 0.419935, -0.13505l 0.419935, -0.134911l 0.419935, -0.134772l 0.419935, -0.134633l 0.419935, -0.134493l 0.419935, -0.134354l 0.419935, -0.134215l 0.419935, -0.134076l 0.419935, -0.133937l
 0.419935, -0.133798l 0.419935, -0.133659l 0.419935, -0.13352l 0.419935, -0.133381" fill="none" stroke="#ff0066" stroke-width="3"/>
<path d="M499.114,223.58l 0.419935, -0.133241l 0.419935, -0.133102l 0.419935, -0.132963l 0.419935, -0.132824l 0.419935, -0.132685l 0.419935, -0.132546l 0.419935, -0.132407l 0.419935, -0.132268l 0.419935, -0.132129l 0.419935, -0.131989l 0.419935,
 -0.13185l 0.419935, -0.131711l 0.419935, -0.131572l 0.419935, -0.131433l 0.419935, -0.131294l 0.419935, -0.131155l 0.419935, -0.131016l 0.419935, -0.130877l 0.419935, -0.130737l 0.419935, -0.130598l 0.419935, -0.130459l 0.419935, -0.13032l 0.419935,
 -0.130181l 0.419935, -0.130042l 0.419935, -0.129903l 0.419935, -0.129764l 0.419935, -0.129625l 0.419935, -0.129485l 0.419935, -0.129346l 0.419935, -0.129207l 0.419935, -0.129068l 0.419935, -0.128929l 0.419935, -0.12879l 0.419935, -0.128651l
 0.419935, -0.128512l 0.419935, -0.128372l 0.419935, -0.128233l 0.419935, -0.128094l 0.419935, -0.127955l 0.419935, -0.127816l 0.419935, -0.127677l 0.419935, -0.127538l 0.419935, -0.127399l 0.419935, -0.12726l 0.419935, -0.12712l 0.419935, -0.126981l
 0.419935, -0.126842l 0.419935, -0.126703l 0.419935, -0.126564" fill="none" stroke="#ff0066" stroke-width="3"/>
<path d="M519.691,217.215l 0.419935, -0.126425l 0.419935, -0.126286l 0.419935, -0.126147l 0.419935, -0.126008l 0.419935, -0.125868l 0.419935, -0.125729l 0.419935, -0.12559l 0.419935, -0.125451l 0.419935, -0.125312l 0.419935, -0.125173l 0.419935,
 -0.125034l 0.419935, -0.124895l 0.419935, -0.124756l 0.419935, -0.124616l 0.419935, -0.124477l 0.419935, -0.124338l 0.419935, -0.124199l 0.419935, -0.12406l 0.419935, -0.123921l 0.419935, -0.123782l 0.419935, -0.123643l 0.419935, -0.123504l
 0.419935, -0.123364l 0.419935, -0.123225l 0.419935, -0.123086l 0.419935, -0.122947l 0.419935, -0.122808l 0.419935, -0.122669l 0.419935, -0.12253l 0.419935, -0.122391l 0.419935, -0.122252l 0.419935, -0.122112l 0.419935, -0.121973l 0.419935,
 -0.121834l 0.419935, -0.121695l 0.419935, -0.121556l 0.419935, -0.121417l 0.419935, -0.121278l 0.419935, -0.121139l 0.419935, -0.121l 0.419935, -0.12086l 0.419935, -0.120721l 0.419935, -0.120582l 0.419935, -0.120443l 0.419935, -0.120304l 0.419935,
 -0.120165l 0.419935, -0.120026l 0.419935, -0.119887l 0.419935, -0.119748" fill="none" stroke="#ff0066" stroke-width="3"/>
<path d="M540.268,211.184l 0.419935, -0.119608l 0.419935, -0.119469l 0.419935, -0.11933l 0.419935, -0.119191l 0.419935, -0.119052l 0.419935, -0.118913l 0.419935, -0.118774l 0.419935, -0.118635l 0.419935, -0.118496l 0.419935, -0.118356l 0.419935,
 -0.118217l 0.419935, -0.118078l 0.419935, -0.117939l 0.419935, -0.1178l 0.419935, -0.117661l 0.419935, -0.117522l 0.419935, -0.117383l 0.419935, -0.117243l 0.419935, -0.117104" fill="none" stroke="#ff0066" stroke-width="3"/>
<path d="M248.503,21.4167h 179.972" fill="none" stroke="#999999" stroke-width="7"/>
<text xml:space="preserve" x="360.607" y="50.7193" fill="black" font-size="16.0105" font-family="Helvetica"> with EMC</text>
<text xml:space="preserve" x="352.717" y="50.7193" fill="black" font-size="16.0105" font-family="Times">&#0947;</text>
<text xml:space="preserve" x="344.828" y="50.7193" fill="black" font-size="16.0105" font-family="Times">&#0947;</text>
<text xml:space="preserve" x="336.938" y="50.7193" fill="black" font-size="16.0105" font-family="Times">&#0947;</text>
<text xml:space="preserve" x="331.866" y="50.7193" fill="black" font-size="16.0105" font-family="Helvetica"> </text>
<text xml:space="preserve" x="316.65" y="50.7193" fill="black" font-size="16.0105" font-family="Times">&#8594;</text>
<text xml:space="preserve" x="311.578" y="50.7193" fill="black" font-size="16.0105" font-family="Helvetica"> </text>
<text xml:space="preserve" x="303.689" y="50.7193" fill="black" font-size="16.0105" font-family="Times">&#0947;</text>
<text xml:space="preserve" x="298.053" y="45.0838" fill="black" font-size="10.8403" font-family="Helvetica">0</text>
<text xml:space="preserve" x="289.6" y="50.7193" fill="black" font-size="16.0105" font-family="Times">&#0960;</text>
<text xml:space="preserve" x="284.528" y="50.7193" fill="black" font-size="16.0105" font-family="Helvetica"> </text>
<text xml:space="preserve" x="269.312" y="50.7193" fill="black" font-size="16.0105" font-family="Times">&#8594;</text>
<text xml:space="preserve" x="264.24" y="50.7193" fill="black" font-size="16.0105" font-family="Helvetica"> </text>
<text xml:space="preserve" x="252.969" y="50.7193" fill="black" font-size="16.0105" font-family="Times">&#0969;</text>
<text xml:space="preserve" x="128.989" y="50.7193" fill="black" font-size="16.0105" font-family="Helvetica"> = 13 TeV (EG1), </text>
<text xml:space="preserve" x="120.536" y="50.7193" fill="black" font-size="16.0105" font-family="Helvetica" font-style="oblique">s</text>
<path d="M114.9,41.7025l 1.69064, 9.58031" fill="none" stroke="black" stroke-width="2"/>
<path d="M116.591,51.2829l 2.25419, -14.0887" fill="none" stroke="black"/>
<path d="M118.845,37.1942h 10.1439" fill="none" stroke="black"/>
<text xml:space="preserve" x="89.5406" y="50.7193" fill="black" font-size="16.0105" font-family="Helvetica">pp </text>
<text xml:space="preserve" x="89.5406" y="85.6593" fill="black" font-size="16.0105" font-family="Helvetica">ALICE work in progress</text>
<text xml:space="preserve" x="205.068" y="120.599" fill="black" font-size="16.0105" font-family="Helvetica">) &lt; 8.0</text>
<text xml:space="preserve" x="196.051" y="120.599" fill="black" font-size="16.0105" font-family="Helvetica" font-style="oblique">c</text>
<text xml:space="preserve" x="145.895" y="120.599" fill="black" font-size="16.0105" font-family="Helvetica"> /(GeV/</text>
<text xml:space="preserve" x="139.133" y="128.489" fill="black" font-size="10.8403" font-family="Helvetica">T</text>
<text xml:space="preserve" x="129.552" y="120.599" fill="black" font-size="16.0105" font-family="Helvetica" font-style="oblique">p</text>
<text xml:space="preserve" x="124.481" y="120.599" fill="black" font-size="16.0105" font-family="Helvetica"> </text>
<text xml:space="preserve" x="116.027" y="120.599" fill="black" font-size="16.0105" font-family="Times">&#8804;</text>
<text xml:space="preserve" x="89.5406" y="120.599" fill="black" font-size="16.0105" font-family="Helvetica">6.0 </text>
<rect x="312.311" y="69.1755" width="198.425" height="113.448" fill="white"/>
<text xml:space="preserve" x="361.734" y="85.0957" fill="black" font-size="16.0105" font-family="Helvetica">ratio</text>
<path d="M319.752,80.5203h 34.7244" fill="none" stroke="black" stroke-width="2"/>
<g fill="black">
<circle cx="337.114" cy="80.5203" r="6.76257"/>
</g>
<text xml:space="preserve" x="361.734" y="108.201" fill="black" font-size="16.0105" font-family="Helvetica">peak range</text>
<path d="M319.752,103.21h 34.7244" fill="none" stroke="#333333" stroke-width="2"/>
<g stroke="#333333" stroke-width="2" fill="none">
<circle cx="337.114" cy="103.21" r="5.63548"/>
</g>
<text xml:space="preserve" x="361.734" y="130.743" fill="black" font-size="16.0105" font-family="Helvetica">background pol1</text>
<path d="M319.752,125.899h 34.7244" fill="none" stroke="#33cccc" stroke-width="3"/>
<text xml:space="preserve" x="361.734" y="153.285" fill="black" font-size="16.0105" font-family="Helvetica">background pol2</text>
<path d="M319.752,148.589h 34.7244" fill="none" stroke="#ff0066" stroke-width="3"/>
<text xml:space="preserve" x="361.734" y="175.827" fill="black" font-size="16.0105" font-family="Helvetica">param. range</text>
<path d="M319.752,171.279h 34.7244" fill="none" stroke="#999999" stroke-width="7"/></svg>
