<?xml version="1.0" standalone="no"?>
<svg width="567.429" height="553.904" viewBox="0 0 567.429 553.904" xmlns="http://www.w3.org/2000/svg" shape-rendering="crispEdges">
<title>
Data/EG1/OmegaRotPS/SameEventToBackgroundRatio_03.svg
</title>
<desc>
Creator: ROOT Version 6.20/08
CreationDate: Mon Mar 29 21:28:53 2021</desc>
<defs>
</defs>
<rect x="0.5" y="0" width="566.929" height="553.404" fill="white"/>
<rect x="68.5315" y="16.6021" width="484.724" height="481.461" fill="white"/>
<rect x="68.5315" y="16.6021" width="484.724" height="481.461" fill="none" stroke="black"/>
<rect x="68.5315" y="16.6021" width="484.724" height="481.461" fill="white"/>
<rect x="68.5315" y="16.6021" width="484.724" height="481.461" fill="none" stroke="black"/>
<g fill="black">
<circle cx="109.325" cy="463.422" r="6.76257"/>
</g>
<g fill="black">
<circle cx="114.124" cy="268.572" r="6.76257"/>
</g>
<g fill="black">
<circle cx="118.924" cy="218.239" r="6.76257"/>
</g>
<g fill="black">
<circle cx="123.723" cy="197.15" r="6.76257"/>
</g>
<g fill="black">
<circle cx="128.522" cy="233.478" r="6.76257"/>
</g>
<g fill="black">
<circle cx="133.321" cy="299.235" r="6.76257"/>
</g>
<g fill="black">
<circle cx="138.121" cy="297.498" r="6.76257"/>
</g>
<g fill="black">
<circle cx="142.92" cy="308.86" r="6.76257"/>
</g>
<g fill="black">
<circle cx="147.719" cy="317.502" r="6.76257"/>
</g>
<g fill="black">
<circle cx="152.518" cy="324.424" r="6.76257"/>
</g>
<g fill="black">
<circle cx="157.318" cy="330.081" r="6.76257"/>
</g>
<g fill="black">
<circle cx="162.117" cy="334.81" r="6.76257"/>
</g>
<g fill="black">
<circle cx="166.916" cy="339.033" r="6.76257"/>
</g>
<g fill="black">
<circle cx="171.715" cy="342.665" r="6.76257"/>
</g>
<g fill="black">
<circle cx="176.515" cy="345.741" r="6.76257"/>
</g>
<g fill="black">
<circle cx="181.314" cy="348.08" r="6.76257"/>
</g>
<g fill="black">
<circle cx="186.113" cy="349.048" r="6.76257"/>
</g>
<g fill="black">
<circle cx="190.912" cy="350.987" r="6.76257"/>
</g>
<g fill="black">
<circle cx="195.712" cy="351.774" r="6.76257"/>
</g>
<g fill="black">
<circle cx="200.511" cy="353.828" r="6.76257"/>
</g>
<g fill="black">
<circle cx="205.31" cy="354.475" r="6.76257"/>
</g>
<g fill="black">
<circle cx="210.109" cy="355.868" r="6.76257"/>
</g>
<g fill="black">
<circle cx="214.909" cy="355.755" r="6.76257"/>
</g>
<g fill="black">
<circle cx="219.708" cy="356.499" r="6.76257"/>
</g>
<g fill="black">
<circle cx="224.507" cy="356.86" r="6.76257"/>
</g>
<g fill="black">
<circle cx="229.306" cy="355.928" r="6.76257"/>
</g>
<g fill="black">
<circle cx="234.106" cy="355.374" r="6.76257"/>
</g>
<g fill="black">
<circle cx="238.905" cy="355.178" r="6.76257"/>
</g>
<g fill="black">
<circle cx="243.704" cy="353.939" r="6.76257"/>
</g>
<g fill="black">
<circle cx="248.503" cy="353.591" r="6.76257"/>
</g>
<g fill="black">
<circle cx="253.303" cy="353.366" r="6.76257"/>
</g>
<g fill="black">
<circle cx="258.102" cy="353.386" r="6.76257"/>
</g>
<g fill="black">
<circle cx="262.901" cy="351.723" r="6.76257"/>
</g>
<g fill="black">
<circle cx="267.7" cy="350.863" r="6.76257"/>
</g>
<g fill="black">
<circle cx="272.5" cy="351.22" r="6.76257"/>
</g>
<g fill="black">
<circle cx="277.299" cy="349.495" r="6.76257"/>
</g>
<g fill="black">
<circle cx="339.689" cy="337.037" r="6.76257"/>
</g>
<g fill="black">
<circle cx="344.488" cy="335.404" r="6.76257"/>
</g>
<g fill="black">
<circle cx="349.288" cy="333.76" r="6.76257"/>
</g>
<g fill="black">
<circle cx="354.087" cy="332.5" r="6.76257"/>
</g>
<g fill="black">
<circle cx="358.886" cy="330.535" r="6.76257"/>
</g>
<g fill="black">
<circle cx="363.685" cy="330.504" r="6.76257"/>
</g>
<g fill="black">
<circle cx="368.485" cy="328.844" r="6.76257"/>
</g>
<g fill="black">
<circle cx="373.284" cy="326.232" r="6.76257"/>
</g>
<g fill="black">
<circle cx="378.083" cy="327.175" r="6.76257"/>
</g>
<g fill="black">
<circle cx="382.882" cy="324.399" r="6.76257"/>
</g>
<g fill="black">
<circle cx="387.682" cy="323.518" r="6.76257"/>
</g>
<g fill="black">
<circle cx="392.481" cy="320.864" r="6.76257"/>
</g>
<g fill="black">
<circle cx="397.28" cy="319.233" r="6.76257"/>
</g>
<g fill="black">
<circle cx="402.079" cy="317.218" r="6.76257"/>
</g>
<g fill="black">
<circle cx="406.879" cy="316.064" r="6.76257"/>
</g>
<g fill="black">
<circle cx="411.678" cy="315.375" r="6.76257"/>
</g>
<g fill="black">
<circle cx="416.477" cy="312.936" r="6.76257"/>
</g>
<g fill="black">
<circle cx="421.276" cy="309.522" r="6.76257"/>
</g>
<g fill="black">
<circle cx="426.076" cy="308.758" r="6.76257"/>
</g>
<g fill="black">
<circle cx="430.875" cy="307.11" r="6.76257"/>
</g>
<g fill="black">
<circle cx="435.674" cy="303.829" r="6.76257"/>
</g>
<g fill="black">
<circle cx="440.473" cy="303.553" r="6.76257"/>
</g>
<g fill="black">
<circle cx="445.273" cy="301.733" r="6.76257"/>
</g>
<g fill="black">
<circle cx="450.072" cy="299.703" r="6.76257"/>
</g>
<g fill="black">
<circle cx="454.871" cy="297.437" r="6.76257"/>
</g>
<g fill="black">
<circle cx="459.671" cy="295.239" r="6.76257"/>
</g>
<g fill="black">
<circle cx="464.47" cy="292.761" r="6.76257"/>
</g>
<g fill="black">
<circle cx="469.269" cy="294.796" r="6.76257"/>
</g>
<g fill="black">
<circle cx="474.068" cy="287.793" r="6.76257"/>
</g>
<g fill="black">
<circle cx="478.867" cy="285.787" r="6.76257"/>
</g>
<g fill="black">
<circle cx="483.667" cy="284.107" r="6.76257"/>
</g>
<g fill="black">
<circle cx="488.466" cy="286.794" r="6.76257"/>
</g>
<g fill="black">
<circle cx="493.265" cy="278.57" r="6.76257"/>
</g>
<g fill="black">
<circle cx="498.065" cy="278.441" r="6.76257"/>
</g>
<g fill="black">
<circle cx="502.864" cy="278.718" r="6.76257"/>
</g>
<g fill="black">
<circle cx="507.663" cy="275.496" r="6.76257"/>
</g>
<g fill="black">
<circle cx="512.462" cy="273.715" r="6.76257"/>
</g>
<g fill="black">
<circle cx="517.262" cy="271.539" r="6.76257"/>
</g>
<g fill="black">
<circle cx="522.061" cy="268.247" r="6.76257"/>
</g>
<g fill="black">
<circle cx="526.86" cy="266.53" r="6.76257"/>
</g>
<g fill="black">
<circle cx="531.659" cy="263.15" r="6.76257"/>
</g>
<g fill="black">
<circle cx="536.458" cy="261.061" r="6.76257"/>
</g>
<g fill="black">
<circle cx="541.258" cy="259.187" r="6.76257"/>
</g>
<g fill="black">
<circle cx="546.057" cy="259.488" r="6.76257"/>
</g>
<path d="M68.5315,498.064h 484.724" fill="none" stroke="black"/>
<path d="M68.5315,483.869v 14.1948" fill="none" stroke="black"/>
<path d="M83.5292,490.966v 7.09741" fill="none" stroke="black"/>
<path d="M98.5268,490.966v 7.09741" fill="none" stroke="black"/>
<path d="M113.524,490.966v 7.09741" fill="none" stroke="black"/>
<path d="M128.522,483.869v 14.1948" fill="none" stroke="black"/>
<path d="M143.52,490.966v 7.09741" fill="none" stroke="black"/>
<path d="M158.517,490.966v 7.09741" fill="none" stroke="black"/>
<path d="M173.515,490.966v 7.09741" fill="none" stroke="black"/>
<path d="M188.513,483.869v 14.1948" fill="none" stroke="black"/>
<path d="M203.51,490.966v 7.09741" fill="none" stroke="black"/>
<path d="M218.508,490.966v 7.09741" fill="none" stroke="black"/>
<path d="M233.506,490.966v 7.09741" fill="none" stroke="black"/>
<path d="M248.503,483.869v 14.1948" fill="none" stroke="black"/>
<path d="M263.501,490.966v 7.09741" fill="none" stroke="black"/>
<path d="M278.499,490.966v 7.09741" fill="none" stroke="black"/>
<path d="M293.496,490.966v 7.09741" fill="none" stroke="black"/>
<path d="M308.494,483.869v 14.1948" fill="none" stroke="black"/>
<path d="M323.492,490.966v 7.09741" fill="none" stroke="black"/>
<path d="M338.489,490.966v 7.09741" fill="none" stroke="black"/>
<path d="M353.487,490.966v 7.09741" fill="none" stroke="black"/>
<path d="M368.485,483.869v 14.1948" fill="none" stroke="black"/>
<path d="M383.482,490.966v 7.09741" fill="none" stroke="black"/>
<path d="M398.48,490.966v 7.09741" fill="none" stroke="black"/>
<path d="M413.478,490.966v 7.09741" fill="none" stroke="black"/>
<path d="M428.475,483.869v 14.1948" fill="none" stroke="black"/>
<path d="M443.473,490.966v 7.09741" fill="none" stroke="black"/>
<path d="M458.471,490.966v 7.09741" fill="none" stroke="black"/>
<path d="M473.468,490.966v 7.09741" fill="none" stroke="black"/>
<path d="M488.466,483.869v 14.1948" fill="none" stroke="black"/>
<path d="M503.464,490.966v 7.09741" fill="none" stroke="black"/>
<path d="M518.461,490.966v 7.09741" fill="none" stroke="black"/>
<path d="M533.459,490.966v 7.09741" fill="none" stroke="black"/>
<path d="M548.457,483.869v 14.1948" fill="none" stroke="black"/>
<path d="M548.457,483.869v 14.1948" fill="none" stroke="black"/>
<text xml:space="preserve" x="63.6174" y="513.956" fill="black" font-size="16.0105" font-family="Helvetica">0</text>
<text xml:space="preserve" x="117.718" y="513.956" fill="black" font-size="16.0105" font-family="Helvetica">0.2</text>
<text xml:space="preserve" x="177.454" y="513.956" fill="black" font-size="16.0105" font-family="Helvetica">0.4</text>
<text xml:space="preserve" x="237.754" y="513.956" fill="black" font-size="16.0105" font-family="Helvetica">0.6</text>
<text xml:space="preserve" x="297.49" y="513.956" fill="black" font-size="16.0105" font-family="Helvetica">0.8</text>
<text xml:space="preserve" x="365.115" y="513.956" fill="black" font-size="16.0105" font-family="Helvetica">1</text>
<text xml:space="preserve" x="417.525" y="513.956" fill="black" font-size="16.0105" font-family="Helvetica">1.2</text>
<text xml:space="preserve" x="477.261" y="513.956" fill="black" font-size="16.0105" font-family="Helvetica">1.4</text>
<text xml:space="preserve" x="537.561" y="513.956" fill="black" font-size="16.0105" font-family="Helvetica">1.6</text>
<text xml:space="preserve" x="548.268" y="537.625" fill="black" font-size="16.0105" font-family="Helvetica">)</text>
<text xml:space="preserve" x="542.633" y="532.553" fill="black" font-size="10.8403" font-family="Helvetica">2</text>
<text xml:space="preserve" x="533.616" y="537.625" fill="black" font-size="16.0105" font-family="Helvetica" font-style="oblique">c</text>
<text xml:space="preserve" x="487.405" y="537.625" fill="black" font-size="16.0105" font-family="Helvetica"> (GeV/</text>
<text xml:space="preserve" x="473.317" y="542.697" fill="black" font-size="10.8403" font-family="Helvetica">inv</text>
<text xml:space="preserve" x="459.792" y="537.625" fill="black" font-size="16.0105" font-family="Helvetica" font-style="oblique">m</text>
<path d="M68.5315,16.6021h 484.724" fill="none" stroke="black"/>
<path d="M68.5315,30.7969v -14.1948" fill="none" stroke="black"/>
<path d="M83.5292,23.6995v -7.09741" fill="none" stroke="black"/>
<path d="M98.5268,23.6995v -7.09741" fill="none" stroke="black"/>
<path d="M113.524,23.6995v -7.09741" fill="none" stroke="black"/>
<path d="M128.522,30.7969v -14.1948" fill="none" stroke="black"/>
<path d="M143.52,23.6995v -7.09741" fill="none" stroke="black"/>
<path d="M158.517,23.6995v -7.09741" fill="none" stroke="black"/>
<path d="M173.515,23.6995v -7.09741" fill="none" stroke="black"/>
<path d="M188.513,30.7969v -14.1948" fill="none" stroke="black"/>
<path d="M203.51,23.6995v -7.09741" fill="none" stroke="black"/>
<path d="M218.508,23.6995v -7.09741" fill="none" stroke="black"/>
<path d="M233.506,23.6995v -7.09741" fill="none" stroke="black"/>
<path d="M248.503,30.7969v -14.1948" fill="none" stroke="black"/>
<path d="M263.501,23.6995v -7.09741" fill="none" stroke="black"/>
<path d="M278.499,23.6995v -7.09741" fill="none" stroke="black"/>
<path d="M293.496,23.6995v -7.09741" fill="none" stroke="black"/>
<path d="M308.494,30.7969v -14.1948" fill="none" stroke="black"/>
<path d="M323.492,23.6995v -7.09741" fill="none" stroke="black"/>
<path d="M338.489,23.6995v -7.09741" fill="none" stroke="black"/>
<path d="M353.487,23.6995v -7.09741" fill="none" stroke="black"/>
<path d="M368.485,30.7969v -14.1948" fill="none" stroke="black"/>
<path d="M383.482,23.6995v -7.09741" fill="none" stroke="black"/>
<path d="M398.48,23.6995v -7.09741" fill="none" stroke="black"/>
<path d="M413.478,23.6995v -7.09741" fill="none" stroke="black"/>
<path d="M428.475,30.7969v -14.1948" fill="none" stroke="black"/>
<path d="M443.473,23.6995v -7.09741" fill="none" stroke="black"/>
<path d="M458.471,23.6995v -7.09741" fill="none" stroke="black"/>
<path d="M473.468,23.6995v -7.09741" fill="none" stroke="black"/>
<path d="M488.466,30.7969v -14.1948" fill="none" stroke="black"/>
<path d="M503.464,23.6995v -7.09741" fill="none" stroke="black"/>
<path d="M518.461,23.6995v -7.09741" fill="none" stroke="black"/>
<path d="M533.459,23.6995v -7.09741" fill="none" stroke="black"/>
<path d="M548.457,30.7969v -14.1948" fill="none" stroke="black"/>
<path d="M548.457,30.7969v -14.1948" fill="none" stroke="black"/>
<path d="M68.5315,498.064v -481.461" fill="none" stroke="black"/>
<path d="M83.3283,498.064h -14.7969" fill="none" stroke="black"/>
<path d="M75.9299,477.129h -7.39843" fill="none" stroke="black"/>
<path d="M75.9299,456.194h -7.39843" fill="none" stroke="black"/>
<path d="M75.9299,435.259h -7.39843" fill="none" stroke="black"/>
<path d="M83.3283,414.325h -14.7969" fill="none" stroke="black"/>
<path d="M75.9299,393.39h -7.39843" fill="none" stroke="black"/>
<path d="M75.9299,372.455h -7.39843" fill="none" stroke="black"/>
<path d="M75.9299,351.52h -7.39843" fill="none" stroke="black"/>
<path d="M83.3283,330.586h -14.7969" fill="none" stroke="black"/>
<path d="M75.9299,309.651h -7.39843" fill="none" stroke="black"/>
<path d="M75.9299,288.716h -7.39843" fill="none" stroke="black"/>
<path d="M75.9299,267.781h -7.39843" fill="none" stroke="black"/>
<path d="M83.3283,246.847h -14.7969" fill="none" stroke="black"/>
<path d="M75.9299,225.912h -7.39843" fill="none" stroke="black"/>
<path d="M75.9299,204.977h -7.39843" fill="none" stroke="black"/>
<path d="M75.9299,184.042h -7.39843" fill="none" stroke="black"/>
<path d="M83.3283,163.108h -14.7969" fill="none" stroke="black"/>
<path d="M75.9299,142.173h -7.39843" fill="none" stroke="black"/>
<path d="M75.9299,121.238h -7.39843" fill="none" stroke="black"/>
<path d="M75.9299,100.304h -7.39843" fill="none" stroke="black"/>
<path d="M83.3283,79.3688h -14.7969" fill="none" stroke="black"/>
<path d="M83.3283,79.3688h -14.7969" fill="none" stroke="black"/>
<path d="M75.9299,58.4341h -7.39843" fill="none" stroke="black"/>
<path d="M75.9299,37.4993h -7.39843" fill="none" stroke="black"/>
<text xml:space="preserve" x="56.8548" y="503.248" fill="black" font-size="16.0105" font-family="Helvetica">0</text>
<text xml:space="preserve" x="43.8932" y="419.843" fill="black" font-size="16.0105" font-family="Helvetica">0.2</text>
<text xml:space="preserve" x="43.8932" y="335.875" fill="black" font-size="16.0105" font-family="Helvetica">0.4</text>
<text xml:space="preserve" x="43.8932" y="252.469" fill="black" font-size="16.0105" font-family="Helvetica">0.6</text>
<text xml:space="preserve" x="43.8932" y="168.501" fill="black" font-size="16.0105" font-family="Helvetica">0.8</text>
<text xml:space="preserve" x="59.6725" y="85.0957" fill="black" font-size="16.0105" font-family="Helvetica">1</text>
<g transform="rotate(-90,38.2577,98.0573)">
<text xml:space="preserve" x="38.2577" y="98.0573" fill="black" font-size="16.0105" font-family="Helvetica">background</text>
</g>
<g transform="rotate(-90,21.9148,98.0573)">
<text xml:space="preserve" x="21.9148" y="98.0573" fill="black" font-size="16.0105" font-family="Helvetica">same event</text>
</g>
<path d="M24.169,98.0573l 0.563548, -81.7144" fill="none" stroke="black" stroke-width="2"/>
<path d="M553.256,498.064v -481.461" fill="none" stroke="black"/>
<path d="M538.459,498.064h 14.7969" fill="none" stroke="black"/>
<path d="M545.857,477.129h 7.39843" fill="none" stroke="black"/>
<path d="M545.857,456.194h 7.39843" fill="none" stroke="black"/>
<path d="M545.857,435.259h 7.39843" fill="none" stroke="black"/>
<path d="M538.459,414.325h 14.7969" fill="none" stroke="black"/>
<path d="M545.857,393.39h 7.39843" fill="none" stroke="black"/>
<path d="M545.857,372.455h 7.39843" fill="none" stroke="black"/>
<path d="M545.857,351.52h 7.39843" fill="none" stroke="black"/>
<path d="M538.459,330.586h 14.7969" fill="none" stroke="black"/>
<path d="M545.857,309.651h 7.39843" fill="none" stroke="black"/>
<path d="M545.857,288.716h 7.39843" fill="none" stroke="black"/>
<path d="M545.857,267.781h 7.39843" fill="none" stroke="black"/>
<path d="M538.459,246.847h 14.7969" fill="none" stroke="black"/>
<path d="M545.857,225.912h 7.39843" fill="none" stroke="black"/>
<path d="M545.857,204.977h 7.39843" fill="none" stroke="black"/>
<path d="M545.857,184.042h 7.39843" fill="none" stroke="black"/>
<path d="M538.459,163.108h 14.7969" fill="none" stroke="black"/>
<path d="M545.857,142.173h 7.39843" fill="none" stroke="black"/>
<path d="M545.857,121.238h 7.39843" fill="none" stroke="black"/>
<path d="M545.857,100.304h 7.39843" fill="none" stroke="black"/>
<path d="M538.459,79.3688h 14.7969" fill="none" stroke="black"/>
<path d="M538.459,79.3688h 14.7969" fill="none" stroke="black"/>
<path d="M545.857,58.4341h 7.39843" fill="none" stroke="black"/>
<path d="M545.857,37.4993h 7.39843" fill="none" stroke="black"/>
<g stroke="#333333" stroke-width="2" fill="none">
<circle cx="282.098" cy="348.338" r="5.63548"/>
</g>
<g stroke="#333333" stroke-width="2" fill="none">
<circle cx="286.897" cy="348.277" r="5.63548"/>
</g>
<g stroke="#333333" stroke-width="2" fill="none">
<circle cx="291.697" cy="346.698" r="5.63548"/>
</g>
<g stroke="#333333" stroke-width="2" fill="none">
<circle cx="296.496" cy="345.803" r="5.63548"/>
</g>
<g stroke="#333333" stroke-width="2" fill="none">
<circle cx="301.295" cy="344.745" r="5.63548"/>
</g>
<g stroke="#333333" stroke-width="2" fill="none">
<circle cx="306.094" cy="344.133" r="5.63548"/>
</g>
<g stroke="#333333" stroke-width="2" fill="none">
<circle cx="310.894" cy="342.219" r="5.63548"/>
</g>
<g stroke="#333333" stroke-width="2" fill="none">
<circle cx="315.693" cy="341.303" r="5.63548"/>
</g>
<g stroke="#333333" stroke-width="2" fill="none">
<circle cx="320.492" cy="341.786" r="5.63548"/>
</g>
<g stroke="#333333" stroke-width="2" fill="none">
<circle cx="325.291" cy="339.551" r="5.63548"/>
</g>
<g stroke="#333333" stroke-width="2" fill="none">
<circle cx="330.091" cy="338.693" r="5.63548"/>
</g>
<g stroke="#333333" stroke-width="2" fill="none">
<circle cx="334.89" cy="337.376" r="5.63548"/>
</g>
<path d="M98.7518,396.821l 0.44993, -0.12009l 0.44993, -0.12009l 0.44993, -0.12009l 0.44993, -0.12009l 0.44993, -0.12009l 0.44993, -0.12009l 0.44993, -0.12009l 0.44993, -0.12009l 0.44993, -0.12009l 0.44993, -0.12009l 0.44993, -0.12009l 0.44993,
 -0.12009l 0.44993, -0.12009l 0.44993, -0.12009l 0.44993, -0.12009l 0.44993, -0.12009l 0.44993, -0.12009l 0.44993, -0.12009l 0.44993, -0.12009l 0.44993, -0.12009l 0.44993, -0.12009l 0.44993, -0.12009l 0.44993, -0.12009l 0.44993, -0.12009l 0.44993,
 -0.12009l 0.44993, -0.12009l 0.44993, -0.12009l 0.44993, -0.12009l 0.44993, -0.12009l 0.44993, -0.12009l 0.44993, -0.12009l 0.44993, -0.12009l 0.44993, -0.12009l 0.44993, -0.12009l 0.44993, -0.12009l 0.44993, -0.12009l 0.44993, -0.12009l 0.44993,
 -0.12009l 0.44993, -0.12009l 0.44993, -0.12009l 0.44993, -0.12009l 0.44993, -0.12009l 0.44993, -0.12009l 0.44993, -0.12009l 0.44993, -0.12009l 0.44993, -0.12009l 0.44993, -0.12009l 0.44993, -0.12009l 0.44993, -0.12009" fill="none" stroke="#33cccc"
 stroke-width="3"/>
<path d="M120.798,390.937l 0.44993, -0.12009l 0.44993, -0.12009l 0.44993, -0.12009l 0.44993, -0.12009l 0.44993, -0.12009l 0.44993, -0.12009l 0.44993, -0.12009l 0.44993, -0.12009l 0.44993, -0.12009l 0.44993, -0.12009l 0.44993, -0.12009l 0.44993,
 -0.12009l 0.44993, -0.12009l 0.44993, -0.12009l 0.44993, -0.12009l 0.44993, -0.12009l 0.44993, -0.12009l 0.44993, -0.12009l 0.44993, -0.12009l 0.44993, -0.12009l 0.44993, -0.12009l 0.44993, -0.12009l 0.44993, -0.12009l 0.44993, -0.12009l 0.44993,
 -0.12009l 0.44993, -0.12009l 0.44993, -0.12009l 0.44993, -0.12009l 0.44993, -0.12009l 0.44993, -0.12009l 0.44993, -0.12009l 0.44993, -0.12009l 0.44993, -0.12009l 0.44993, -0.12009l 0.44993, -0.12009l 0.44993, -0.12009l 0.44993, -0.12009l 0.44993,
 -0.12009l 0.44993, -0.12009l 0.44993, -0.12009l 0.44993, -0.12009l 0.44993, -0.12009l 0.44993, -0.12009l 0.44993, -0.12009l 0.44993, -0.12009l 0.44993, -0.12009l 0.44993, -0.12009l 0.44993, -0.12009l 0.44993, -0.12009" fill="none" stroke="#33cccc"
 stroke-width="3"/>
<path d="M142.845,385.052l 0.44993, -0.12009l 0.44993, -0.12009l 0.44993, -0.12009l 0.44993, -0.12009l 0.44993, -0.12009l 0.44993, -0.12009l 0.44993, -0.12009l 0.44993, -0.12009l 0.44993, -0.12009l 0.44993, -0.12009l 0.44993, -0.12009l 0.44993,
 -0.12009l 0.44993, -0.12009l 0.44993, -0.12009l 0.44993, -0.12009l 0.44993, -0.12009l 0.44993, -0.12009l 0.44993, -0.12009l 0.44993, -0.12009l 0.44993, -0.12009l 0.44993, -0.12009l 0.44993, -0.12009l 0.44993, -0.12009l 0.44993, -0.12009l 0.44993,
 -0.12009l 0.44993, -0.12009l 0.44993, -0.12009l 0.44993, -0.12009l 0.44993, -0.12009l 0.44993, -0.12009l 0.44993, -0.12009l 0.44993, -0.12009l 0.44993, -0.12009l 0.44993, -0.12009l 0.44993, -0.12009l 0.44993, -0.12009l 0.44993, -0.12009l 0.44993,
 -0.12009l 0.44993, -0.12009l 0.44993, -0.12009l 0.44993, -0.12009l 0.44993, -0.12009l 0.44993, -0.12009l 0.44993, -0.12009l 0.44993, -0.12009l 0.44993, -0.12009l 0.44993, -0.12009l 0.44993, -0.12009l 0.44993, -0.12009" fill="none" stroke="#33cccc"
 stroke-width="3"/>
<path d="M164.891,379.168l 0.44993, -0.12009l 0.44993, -0.12009l 0.44993, -0.12009l 0.44993, -0.12009l 0.44993, -0.12009l 0.44993, -0.12009l 0.44993, -0.12009l 0.44993, -0.12009l 0.44993, -0.12009l 0.44993, -0.12009l 0.44993, -0.12009l 0.44993,
 -0.12009l 0.44993, -0.12009l 0.44993, -0.12009l 0.44993, -0.12009l 0.44993, -0.12009l 0.44993, -0.12009l 0.44993, -0.12009l 0.44993, -0.12009l 0.44993, -0.12009l 0.44993, -0.12009l 0.44993, -0.12009l 0.44993, -0.12009l 0.44993, -0.12009l 0.44993,
 -0.12009l 0.44993, -0.12009l 0.44993, -0.12009l 0.44993, -0.12009l 0.44993, -0.12009l 0.44993, -0.12009l 0.44993, -0.12009l 0.44993, -0.12009l 0.44993, -0.12009l 0.44993, -0.12009l 0.44993, -0.12009l 0.44993, -0.12009l 0.44993, -0.12009l 0.44993,
 -0.12009l 0.44993, -0.12009l 0.44993, -0.12009l 0.44993, -0.12009l 0.44993, -0.12009l 0.44993, -0.12009l 0.44993, -0.12009l 0.44993, -0.12009l 0.44993, -0.12009l 0.44993, -0.12009l 0.44993, -0.12009l 0.44993, -0.12009" fill="none" stroke="#33cccc"
 stroke-width="3"/>
<path d="M186.938,373.284l 0.44993, -0.12009l 0.44993, -0.12009l 0.44993, -0.12009l 0.44993, -0.12009l 0.44993, -0.12009l 0.44993, -0.12009l 0.44993, -0.12009l 0.44993, -0.12009l 0.44993, -0.12009l 0.44993, -0.12009l 0.44993, -0.12009l 0.44993,
 -0.12009l 0.44993, -0.12009l 0.44993, -0.12009l 0.44993, -0.12009l 0.44993, -0.12009l 0.44993, -0.12009l 0.44993, -0.12009l 0.44993, -0.12009l 0.44993, -0.12009l 0.44993, -0.12009l 0.44993, -0.12009l 0.44993, -0.12009l 0.44993, -0.12009l 0.44993,
 -0.12009l 0.44993, -0.12009l 0.44993, -0.12009l 0.44993, -0.12009l 0.44993, -0.12009l 0.44993, -0.12009l 0.44993, -0.12009l 0.44993, -0.12009l 0.44993, -0.12009l 0.44993, -0.12009l 0.44993, -0.12009l 0.44993, -0.12009l 0.44993, -0.12009l 0.44993,
 -0.12009l 0.44993, -0.12009l 0.44993, -0.12009l 0.44993, -0.12009l 0.44993, -0.12009l 0.44993, -0.12009l 0.44993, -0.12009l 0.44993, -0.12009l 0.44993, -0.12009l 0.44993, -0.12009l 0.44993, -0.12009l 0.44993, -0.12009" fill="none" stroke="#33cccc"
 stroke-width="3"/>
<path d="M208.985,367.399l 0.44993, -0.12009l 0.44993, -0.12009l 0.44993, -0.12009l 0.44993, -0.12009l 0.44993, -0.12009l 0.44993, -0.12009l 0.44993, -0.12009l 0.44993, -0.12009l 0.44993, -0.12009l 0.44993, -0.12009l 0.44993, -0.12009l 0.44993,
 -0.12009l 0.44993, -0.12009l 0.44993, -0.12009l 0.44993, -0.12009l 0.44993, -0.12009l 0.44993, -0.12009l 0.44993, -0.12009l 0.44993, -0.12009l 0.44993, -0.12009l 0.44993, -0.12009l 0.44993, -0.12009l 0.44993, -0.12009l 0.44993, -0.12009l 0.44993,
 -0.12009l 0.44993, -0.12009l 0.44993, -0.12009l 0.44993, -0.12009l 0.44993, -0.12009l 0.44993, -0.12009l 0.44993, -0.12009l 0.44993, -0.12009l 0.44993, -0.12009l 0.44993, -0.12009l 0.44993, -0.12009l 0.44993, -0.12009l 0.44993, -0.12009l 0.44993,
 -0.12009l 0.44993, -0.12009l 0.44993, -0.12009l 0.44993, -0.12009l 0.44993, -0.12009l 0.44993, -0.12009l 0.44993, -0.12009l 0.44993, -0.12009l 0.44993, -0.12009l 0.44993, -0.12009l 0.44993, -0.12009l 0.44993, -0.12009" fill="none" stroke="#33cccc"
 stroke-width="3"/>
<path d="M231.031,361.515l 0.44993, -0.12009l 0.44993, -0.12009l 0.44993, -0.12009l 0.44993, -0.12009l 0.44993, -0.12009l 0.44993, -0.12009l 0.44993, -0.12009l 0.44993, -0.12009l 0.44993, -0.12009l 0.44993, -0.12009l 0.44993, -0.12009l 0.44993,
 -0.12009l 0.44993, -0.12009l 0.44993, -0.12009l 0.44993, -0.12009l 0.44993, -0.12009l 0.44993, -0.12009l 0.44993, -0.12009l 0.44993, -0.12009l 0.44993, -0.12009l 0.44993, -0.12009l 0.44993, -0.12009l 0.44993, -0.12009l 0.44993, -0.12009l 0.44993,
 -0.12009l 0.44993, -0.12009l 0.44993, -0.12009l 0.44993, -0.12009l 0.44993, -0.12009l 0.44993, -0.12009l 0.44993, -0.12009l 0.44993, -0.12009l 0.44993, -0.12009l 0.44993, -0.12009l 0.44993, -0.12009l 0.44993, -0.12009l 0.44993, -0.12009l 0.44993,
 -0.12009l 0.44993, -0.12009l 0.44993, -0.12009l 0.44993, -0.12009l 0.44993, -0.12009l 0.44993, -0.12009l 0.44993, -0.12009l 0.44993, -0.12009l 0.44993, -0.12009l 0.44993, -0.12009l 0.44993, -0.12009l 0.44993, -0.12009" fill="none" stroke="#33cccc"
 stroke-width="3"/>
<path d="M253.078,355.63l 0.44993, -0.12009l 0.44993, -0.12009l 0.44993, -0.12009l 0.44993, -0.12009l 0.44993, -0.12009l 0.44993, -0.12009l 0.44993, -0.12009l 0.44993, -0.12009l 0.44993, -0.12009l 0.44993, -0.12009l 0.44993, -0.12009l 0.44993,
 -0.12009l 0.44993, -0.12009l 0.44993, -0.12009l 0.44993, -0.12009l 0.44993, -0.12009l 0.44993, -0.12009l 0.44993, -0.12009l 0.44993, -0.12009l 0.44993, -0.12009l 0.44993, -0.12009l 0.44993, -0.12009l 0.44993, -0.12009l 0.44993, -0.12009l 0.44993,
 -0.12009l 0.44993, -0.12009l 0.44993, -0.12009l 0.44993, -0.12009l 0.44993, -0.12009l 0.44993, -0.12009l 0.44993, -0.12009l 0.44993, -0.12009l 0.44993, -0.12009l 0.44993, -0.12009l 0.44993, -0.12009l 0.44993, -0.12009l 0.44993, -0.12009l 0.44993,
 -0.12009l 0.44993, -0.12009l 0.44993, -0.12009l 0.44993, -0.12009l 0.44993, -0.12009l 0.44993, -0.12009l 0.44993, -0.12009l 0.44993, -0.12009l 0.44993, -0.12009l 0.44993, -0.12009l 0.44993, -0.12009l 0.44993, -0.12009" fill="none" stroke="#33cccc"
 stroke-width="3"/>
<path d="M275.124,349.746l 0.44993, -0.12009l 0.44993, -0.12009l 0.44993, -0.12009l 0.44993, -0.12009l 0.44993, -0.12009l 0.44993, -0.12009l 0.44993, -0.12009l 0.44993, -0.12009l 0.44993, -0.12009l 0.44993, -0.12009l 0.44993, -0.12009l 0.44993,
 -0.12009l 0.44993, -0.12009l 0.44993, -0.12009l 0.44993, -0.12009l 0.44993, -0.12009l 0.44993, -0.12009l 0.44993, -0.12009l 0.44993, -0.12009l 0.44993, -0.12009l 0.44993, -0.12009l 0.44993, -0.12009l 0.44993, -0.12009l 0.44993, -0.12009l 0.44993,
 -0.12009l 0.44993, -0.12009l 0.44993, -0.12009l 0.44993, -0.12009l 0.44993, -0.12009l 0.44993, -0.12009l 0.44993, -0.12009l 0.44993, -0.12009l 0.44993, -0.12009l 0.44993, -0.12009l 0.44993, -0.12009l 0.44993, -0.12009l 0.44993, -0.12009l 0.44993,
 -0.12009l 0.44993, -0.12009l 0.44993, -0.12009l 0.44993, -0.12009l 0.44993, -0.12009l 0.44993, -0.12009l 0.44993, -0.12009l 0.44993, -0.12009l 0.44993, -0.12009l 0.44993, -0.12009l 0.44993, -0.12009l 0.44993, -0.12009" fill="none" stroke="#33cccc"
 stroke-width="3"/>
<path d="M297.171,343.862l 0.44993, -0.12009l 0.44993, -0.12009l 0.44993, -0.12009l 0.44993, -0.12009l 0.44993, -0.12009l 0.44993, -0.12009l 0.44993, -0.12009l 0.44993, -0.12009l 0.44993, -0.12009l 0.44993, -0.12009l 0.44993, -0.12009l 0.44993,
 -0.12009l 0.44993, -0.12009l 0.44993, -0.12009l 0.44993, -0.12009l 0.44993, -0.12009l 0.44993, -0.12009l 0.44993, -0.12009l 0.44993, -0.12009l 0.44993, -0.12009l 0.44993, -0.12009l 0.44993, -0.12009l 0.44993, -0.12009l 0.44993, -0.12009l 0.44993,
 -0.12009l 0.44993, -0.12009l 0.44993, -0.12009l 0.44993, -0.12009l 0.44993, -0.12009l 0.44993, -0.12009l 0.44993, -0.12009l 0.44993, -0.12009l 0.44993, -0.12009l 0.44993, -0.12009l 0.44993, -0.12009l 0.44993, -0.12009l 0.44993, -0.12009l 0.44993,
 -0.12009l 0.44993, -0.12009l 0.44993, -0.12009l 0.44993, -0.12009l 0.44993, -0.12009l 0.44993, -0.12009l 0.44993, -0.12009l 0.44993, -0.12009l 0.44993, -0.12009l 0.44993, -0.12009l 0.44993, -0.12009l 0.44993, -0.12009" fill="none" stroke="#33cccc"
 stroke-width="3"/>
<path d="M319.217,337.977l 0.44993, -0.12009l 0.44993, -0.12009l 0.44993, -0.12009l 0.44993, -0.12009l 0.44993, -0.12009l 0.44993, -0.12009l 0.44993, -0.12009l 0.44993, -0.12009l 0.44993, -0.12009l 0.44993, -0.12009l 0.44993, -0.12009l 0.44993,
 -0.12009l 0.44993, -0.12009l 0.44993, -0.12009l 0.44993, -0.12009l 0.44993, -0.12009l 0.44993, -0.12009l 0.44993, -0.12009l 0.44993, -0.12009l 0.44993, -0.12009l 0.44993, -0.12009l 0.44993, -0.12009l 0.44993, -0.12009l 0.44993, -0.12009l 0.44993,
 -0.12009l 0.44993, -0.12009l 0.44993, -0.12009l 0.44993, -0.12009l 0.44993, -0.12009l 0.44993, -0.12009l 0.44993, -0.12009l 0.44993, -0.12009l 0.44993, -0.12009l 0.44993, -0.12009l 0.44993, -0.12009l 0.44993, -0.12009l 0.44993, -0.12009l 0.44993,
 -0.12009l 0.44993, -0.12009l 0.44993, -0.12009l 0.44993, -0.12009l 0.44993, -0.12009l 0.44993, -0.12009l 0.44993, -0.12009l 0.44993, -0.12009l 0.44993, -0.12009l 0.44993, -0.12009l 0.44993, -0.12009l 0.44993, -0.12009" fill="none" stroke="#33cccc"
 stroke-width="3"/>
<path d="M341.264,332.093l 0.44993, -0.12009l 0.44993, -0.12009l 0.44993, -0.12009l 0.44993, -0.12009l 0.44993, -0.12009l 0.44993, -0.12009l 0.44993, -0.12009l 0.44993, -0.12009l 0.44993, -0.12009l 0.44993, -0.12009l 0.44993, -0.12009l 0.44993,
 -0.12009l 0.44993, -0.12009l 0.44993, -0.12009l 0.44993, -0.12009l 0.44993, -0.12009l 0.44993, -0.12009l 0.44993, -0.12009l 0.44993, -0.12009l 0.44993, -0.12009l 0.44993, -0.12009l 0.44993, -0.12009l 0.44993, -0.12009l 0.44993, -0.12009l 0.44993,
 -0.12009l 0.44993, -0.12009l 0.44993, -0.12009l 0.44993, -0.12009l 0.44993, -0.12009l 0.44993, -0.12009l 0.44993, -0.12009l 0.44993, -0.12009l 0.44993, -0.12009l 0.44993, -0.12009l 0.44993, -0.12009l 0.44993, -0.12009l 0.44993, -0.12009l 0.44993,
 -0.12009l 0.44993, -0.12009l 0.44993, -0.12009l 0.44993, -0.12009l 0.44993, -0.12009l 0.44993, -0.12009l 0.44993, -0.12009l 0.44993, -0.12009l 0.44993, -0.12009l 0.44993, -0.12009l 0.44993, -0.12009l 0.44993, -0.12009" fill="none" stroke="#33cccc"
 stroke-width="3"/>
<path d="M363.311,326.208l 0.44993, -0.12009l 0.44993, -0.12009l 0.44993, -0.12009l 0.44993, -0.12009l 0.44993, -0.12009l 0.44993, -0.12009l 0.44993, -0.12009l 0.44993, -0.12009l 0.44993, -0.12009l 0.44993, -0.12009l 0.44993, -0.12009l 0.44993,
 -0.12009l 0.44993, -0.12009l 0.44993, -0.12009l 0.44993, -0.12009l 0.44993, -0.12009l 0.44993, -0.12009l 0.44993, -0.12009l 0.44993, -0.12009l 0.44993, -0.12009l 0.44993, -0.12009l 0.44993, -0.12009l 0.44993, -0.12009l 0.44993, -0.12009l 0.44993,
 -0.12009l 0.44993, -0.12009l 0.44993, -0.12009l 0.44993, -0.12009l 0.44993, -0.12009l 0.44993, -0.12009l 0.44993, -0.12009l 0.44993, -0.12009l 0.44993, -0.12009l 0.44993, -0.12009l 0.44993, -0.12009l 0.44993, -0.12009l 0.44993, -0.12009l 0.44993,
 -0.12009l 0.44993, -0.12009l 0.44993, -0.12009l 0.44993, -0.12009l 0.44993, -0.12009l 0.44993, -0.12009l 0.44993, -0.12009l 0.44993, -0.12009l 0.44993, -0.12009l 0.44993, -0.12009l 0.44993, -0.12009l 0.44993, -0.12009" fill="none" stroke="#33cccc"
 stroke-width="3"/>
<path d="M385.357,320.324l 0.44993, -0.12009l 0.44993, -0.12009l 0.44993, -0.12009l 0.44993, -0.12009l 0.44993, -0.12009l 0.44993, -0.12009l 0.44993, -0.12009l 0.44993, -0.12009l 0.44993, -0.12009l 0.44993, -0.12009l 0.44993, -0.12009l 0.44993,
 -0.12009l 0.44993, -0.12009l 0.44993, -0.12009l 0.44993, -0.12009l 0.44993, -0.12009l 0.44993, -0.12009l 0.44993, -0.12009l 0.44993, -0.12009l 0.44993, -0.12009l 0.44993, -0.12009l 0.44993, -0.12009l 0.44993, -0.12009l 0.44993, -0.12009l 0.44993,
 -0.12009l 0.44993, -0.12009l 0.44993, -0.12009l 0.44993, -0.12009l 0.44993, -0.12009l 0.44993, -0.12009l 0.44993, -0.12009l 0.44993, -0.12009l 0.44993, -0.12009l 0.44993, -0.12009l 0.44993, -0.12009l 0.44993, -0.12009l 0.44993, -0.12009l 0.44993,
 -0.12009l 0.44993, -0.12009l 0.44993, -0.12009l 0.44993, -0.12009l 0.44993, -0.12009l 0.44993, -0.12009l 0.44993, -0.12009l 0.44993, -0.12009l 0.44993, -0.12009l 0.44993, -0.12009l 0.44993, -0.12009l 0.44993, -0.12009" fill="none" stroke="#33cccc"
 stroke-width="3"/>
<path d="M407.404,314.44l 0.44993, -0.12009l 0.44993, -0.12009l 0.44993, -0.12009l 0.44993, -0.12009l 0.44993, -0.12009l 0.44993, -0.12009l 0.44993, -0.12009l 0.44993, -0.12009l 0.44993, -0.12009l 0.44993, -0.12009l 0.44993, -0.12009l 0.44993,
 -0.12009l 0.44993, -0.12009l 0.44993, -0.12009l 0.44993, -0.12009l 0.44993, -0.12009l 0.44993, -0.12009l 0.44993, -0.12009l 0.44993, -0.12009l 0.44993, -0.12009l 0.44993, -0.12009l 0.44993, -0.12009l 0.44993, -0.12009l 0.44993, -0.12009l 0.44993,
 -0.12009l 0.44993, -0.12009l 0.44993, -0.12009l 0.44993, -0.12009l 0.44993, -0.12009l 0.44993, -0.12009l 0.44993, -0.12009l 0.44993, -0.12009l 0.44993, -0.12009l 0.44993, -0.12009l 0.44993, -0.12009l 0.44993, -0.12009l 0.44993, -0.12009l 0.44993,
 -0.12009l 0.44993, -0.12009l 0.44993, -0.12009l 0.44993, -0.12009l 0.44993, -0.12009l 0.44993, -0.12009l 0.44993, -0.12009l 0.44993, -0.12009l 0.44993, -0.12009l 0.44993, -0.12009l 0.44993, -0.12009l 0.44993, -0.12009" fill="none" stroke="#33cccc"
 stroke-width="3"/>
<path d="M429.45,308.555l 0.44993, -0.12009l 0.44993, -0.12009l 0.44993, -0.12009l 0.44993, -0.12009l 0.44993, -0.12009l 0.44993, -0.12009l 0.44993, -0.12009l 0.44993, -0.12009l 0.44993, -0.12009l 0.44993, -0.12009l 0.44993, -0.12009l 0.44993,
 -0.12009l 0.44993, -0.12009l 0.44993, -0.12009l 0.44993, -0.12009l 0.44993, -0.12009l 0.44993, -0.12009l 0.44993, -0.12009l 0.44993, -0.12009l 0.44993, -0.12009l 0.44993, -0.12009l 0.44993, -0.12009l 0.44993, -0.12009l 0.44993, -0.12009l 0.44993,
 -0.12009l 0.44993, -0.12009l 0.44993, -0.12009l 0.44993, -0.12009l 0.44993, -0.12009l 0.44993, -0.12009l 0.44993, -0.12009l 0.44993, -0.12009l 0.44993, -0.12009l 0.44993, -0.12009l 0.44993, -0.12009l 0.44993, -0.12009l 0.44993, -0.12009l 0.44993,
 -0.12009l 0.44993, -0.12009l 0.44993, -0.12009l 0.44993, -0.12009l 0.44993, -0.12009l 0.44993, -0.12009l 0.44993, -0.12009l 0.44993, -0.12009l 0.44993, -0.12009l 0.44993, -0.12009l 0.44993, -0.12009l 0.44993, -0.12009" fill="none" stroke="#33cccc"
 stroke-width="3"/>
<path d="M451.497,302.671l 0.44993, -0.12009l 0.44993, -0.12009l 0.44993, -0.12009l 0.44993, -0.12009l 0.44993, -0.12009l 0.44993, -0.12009l 0.44993, -0.12009l 0.44993, -0.12009l 0.44993, -0.12009l 0.44993, -0.12009l 0.44993, -0.12009l 0.44993,
 -0.12009l 0.44993, -0.12009l 0.44993, -0.12009l 0.44993, -0.12009l 0.44993, -0.12009l 0.44993, -0.12009l 0.44993, -0.12009l 0.44993, -0.12009l 0.44993, -0.12009l 0.44993, -0.12009l 0.44993, -0.12009l 0.44993, -0.12009l 0.44993, -0.12009l 0.44993,
 -0.12009l 0.44993, -0.12009l 0.44993, -0.12009l 0.44993, -0.12009l 0.44993, -0.12009l 0.44993, -0.12009l 0.44993, -0.12009l 0.44993, -0.12009l 0.44993, -0.12009l 0.44993, -0.12009l 0.44993, -0.12009l 0.44993, -0.12009l 0.44993, -0.12009l 0.44993,
 -0.12009l 0.44993, -0.12009l 0.44993, -0.12009l 0.44993, -0.12009l 0.44993, -0.12009l 0.44993, -0.12009l 0.44993, -0.12009l 0.44993, -0.12009l 0.44993, -0.12009l 0.44993, -0.12009l 0.44993, -0.12009l 0.44993, -0.12009" fill="none" stroke="#33cccc"
 stroke-width="3"/>
<path d="M473.543,296.786l 0.44993, -0.12009l 0.44993, -0.12009l 0.44993, -0.12009l 0.44993, -0.12009l 0.44993, -0.12009l 0.44993, -0.12009l 0.44993, -0.12009l 0.44993, -0.12009l 0.44993, -0.12009l 0.44993, -0.12009l 0.44993, -0.12009l 0.44993,
 -0.12009l 0.44993, -0.12009l 0.44993, -0.12009l 0.44993, -0.12009l 0.44993, -0.12009l 0.44993, -0.12009l 0.44993, -0.12009l 0.44993, -0.12009l 0.44993, -0.12009l 0.44993, -0.12009l 0.44993, -0.12009l 0.44993, -0.12009l 0.44993, -0.12009l 0.44993,
 -0.12009l 0.44993, -0.12009l 0.44993, -0.12009l 0.44993, -0.12009l 0.44993, -0.12009l 0.44993, -0.12009l 0.44993, -0.12009l 0.44993, -0.12009l 0.44993, -0.12009l 0.44993, -0.12009l 0.44993, -0.12009l 0.44993, -0.12009l 0.44993, -0.12009l 0.44993,
 -0.12009l 0.44993, -0.12009l 0.44993, -0.12009l 0.44993, -0.12009l 0.44993, -0.12009l 0.44993, -0.12009l 0.44993, -0.12009l 0.44993, -0.12009l 0.44993, -0.12009l 0.44993, -0.12009l 0.44993, -0.12009l 0.44993, -0.12009" fill="none" stroke="#33cccc"
 stroke-width="3"/>
<path d="M495.59,290.902l 0.44993, -0.12009l 0.44993, -0.12009l 0.44993, -0.12009l 0.44993, -0.12009l 0.44993, -0.12009l 0.44993, -0.12009l 0.44993, -0.12009l 0.44993, -0.12009l 0.44993, -0.12009l 0.44993, -0.12009l 0.44993, -0.12009l 0.44993,
 -0.12009l 0.44993, -0.12009l 0.44993, -0.12009l 0.44993, -0.12009l 0.44993, -0.12009l 0.44993, -0.12009l 0.44993, -0.12009l 0.44993, -0.12009l 0.44993, -0.12009l 0.44993, -0.12009l 0.44993, -0.12009l 0.44993, -0.12009l 0.44993, -0.12009l 0.44993,
 -0.12009l 0.44993, -0.12009l 0.44993, -0.12009l 0.44993, -0.12009l 0.44993, -0.12009l 0.44993, -0.12009l 0.44993, -0.12009l 0.44993, -0.12009l 0.44993, -0.12009l 0.44993, -0.12009l 0.44993, -0.12009l 0.44993, -0.12009l 0.44993, -0.12009l 0.44993,
 -0.12009l 0.44993, -0.12009l 0.44993, -0.12009l 0.44993, -0.12009l 0.44993, -0.12009l 0.44993, -0.12009l 0.44993, -0.12009l 0.44993, -0.12009l 0.44993, -0.12009l 0.44993, -0.12009l 0.44993, -0.12009l 0.44993, -0.12009" fill="none" stroke="#33cccc"
 stroke-width="3"/>
<path d="M517.636,285.018l 0.44993, -0.12009l 0.44993, -0.12009l 0.44993, -0.12009l 0.44993, -0.12009l 0.44993, -0.12009l 0.44993, -0.12009l 0.44993, -0.12009l 0.44993, -0.12009l 0.44993, -0.12009l 0.44993, -0.12009l 0.44993, -0.12009l 0.44993,
 -0.12009l 0.44993, -0.12009l 0.44993, -0.12009l 0.44993, -0.12009l 0.44993, -0.12009l 0.44993, -0.12009l 0.44993, -0.12009l 0.44993, -0.12009l 0.44993, -0.12009l 0.44993, -0.12009l 0.44993, -0.12009l 0.44993, -0.12009l 0.44993, -0.12009l 0.44993,
 -0.12009l 0.44993, -0.12009l 0.44993, -0.12009l 0.44993, -0.12009l 0.44993, -0.12009l 0.44993, -0.12009l 0.44993, -0.12009l 0.44993, -0.12009l 0.44993, -0.12009l 0.44993, -0.12009l 0.44993, -0.12009l 0.44993, -0.12009l 0.44993, -0.12009l 0.44993,
 -0.12009l 0.44993, -0.12009l 0.44993, -0.12009l 0.44993, -0.12009l 0.44993, -0.12009l 0.44993, -0.12009l 0.44993, -0.12009l 0.44993, -0.12009l 0.44993, -0.12009l 0.44993, -0.12009l 0.44993, -0.12009l 0.44993, -0.12009" fill="none" stroke="#33cccc"
 stroke-width="3"/>
<path d="M539.683,279.133l 0.44993, -0.12009l 0.44993, -0.12009l 0.44993, -0.12009l 0.44993, -0.12009l 0.44993, -0.12009l 0.44993, -0.12009l 0.44993, -0.12009l 0.44993, -0.12009l 0.44993, -0.12009l 0.44993, -0.12009l 0.44993, -0.12009l 0.44993,
 -0.12009l 0.44993, -0.12009l 0.44993, -0.12009l 0.44993, -0.12009l 0.44993, -0.12009l 0.44993, -0.12009l 0.44993, -0.12009l 0.44993, -0.12009" fill="none" stroke="#33cccc" stroke-width="3"/>
<path d="M98.7518,355.844l 0.44993, 0.0435333l 0.44993, 0.0432363l 0.44993, 0.0429392l 0.44993, 0.0426422l 0.44993, 0.0423451l 0.44993, 0.042048l 0.44993, 0.041751l 0.44993, 0.0414539l 0.44993, 0.0411569l 0.44993, 0.0408598l 0.44993, 0.0405628l
 0.44993, 0.0402657l 0.44993, 0.0399687l 0.44993, 0.0396716l 0.44993, 0.0393746l 0.44993, 0.0390775l 0.44993, 0.0387804l 0.44993, 0.0384834l 0.44993, 0.0381863l 0.44993, 0.0378893l 0.44993, 0.0375922l 0.44993, 0.0372952l 0.44993, 0.0369981l 0.44993,
 0.0367011l 0.44993, 0.036404l 0.44993, 0.036107l 0.44993, 0.0358099l 0.44993, 0.0355128l 0.44993, 0.0352158l 0.44993, 0.0349187l 0.44993, 0.0346217l 0.44993, 0.0343246l 0.44993, 0.0340276l 0.44993, 0.0337305l 0.44993, 0.0334335l 0.44993, 0.0331364l
 0.44993, 0.0328394l 0.44993, 0.0325423l 0.44993, 0.0322452l 0.44993, 0.0319482l 0.44993, 0.0316511l 0.44993, 0.0313541l 0.44993, 0.031057l 0.44993, 0.03076l 0.44993, 0.0304629l 0.44993, 0.0301659l 0.44993, 0.0298688l 0.44993, 0.0295718l 0.44993,
 0.0292747" fill="none" stroke="#ff0066" stroke-width="3"/>
<path d="M120.798,357.628l 0.44993, 0.0289776l 0.44993, 0.0286806l 0.44993, 0.0283835l 0.44993, 0.0280865l 0.44993, 0.0277894l 0.44993, 0.0274924l 0.44993, 0.0271953l 0.44993, 0.0268983l 0.44993, 0.0266012l 0.44993, 0.0263042l 0.44993, 0.0260071l
 0.44993, 0.02571l 0.44993, 0.025413l 0.44993, 0.0251159l 0.44993, 0.0248189l 0.44993, 0.0245218l 0.44993, 0.0242248l 0.44993, 0.0239277l 0.44993, 0.0236307l 0.44993, 0.0233336l 0.44993, 0.0230366l 0.44993, 0.0227395l 0.44993, 0.0224424l 0.44993,
 0.0221454l 0.44993, 0.0218483l 0.44993, 0.0215513l 0.44993, 0.0212542l 0.44993, 0.0209572l 0.44993, 0.0206601l 0.44993, 0.0203631l 0.44993, 0.020066l 0.44993, 0.019769l 0.44993, 0.0194719l 0.44993, 0.0191748l 0.44993, 0.0188778l 0.44993, 0.0185807l
 0.44993, 0.0182837l 0.44993, 0.0179866l 0.44993, 0.0176896l 0.44993, 0.0173925l 0.44993, 0.0170955l 0.44993, 0.0167984l 0.44993, 0.0165014l 0.44993, 0.0162043l 0.44993, 0.0159073l 0.44993, 0.0156102l 0.44993, 0.0153131l 0.44993, 0.0150161l 0.44993,
 0.014719" fill="none" stroke="#ff0066" stroke-width="3"/>
<path d="M142.845,358.698l 0.44993, 0.014422l 0.44993, 0.0141249l 0.44993, 0.0138279l 0.44993, 0.0135308l 0.44993, 0.0132338l 0.44993, 0.0129367l 0.44993, 0.0126397l 0.44993, 0.0123426l 0.44993, 0.0120455l 0.44993, 0.0117485l 0.44993, 0.0114514l
 0.44993, 0.0111544l 0.44993, 0.0108573l 0.44993, 0.0105603l 0.44993, 0.0102632l 0.44993, 0.00996616l 0.44993, 0.00966911l 0.44993, 0.00937205l 0.44993, 0.009075l 0.44993, 0.00877795l 0.44993, 0.00848089l 0.44993, 0.00818384l 0.44993, 0.00788678l
 0.44993, 0.00758973l 0.44993, 0.00729267l 0.44993, 0.00699562l 0.44993, 0.00669856l 0.44993, 0.00640151l 0.44993, 0.00610446l 0.44993, 0.0058074l 0.44993, 0.00551035l 0.44993, 0.00521329l 0.44993, 0.00491624l 0.44993, 0.00461918l 0.44993,
 0.00432213l 0.44993, 0.00402508l 0.44993, 0.00372802l 0.44993, 0.00343097l 0.44993, 0.00313391l 0.44993, 0.00283686l 0.44993, 0.0025398l 0.44993, 0.00224275l 0.44993, 0.00194569l 0.44993, 0.00164864l 0.44993, 0.00135159l 0.44993, 0.00105453l
 0.44993, 0.000757476l 0.44993, 0.000460422l 0.44993, 0.000163367" fill="none" stroke="#ff0066" stroke-width="3"/>
<path d="M164.891,359.056l 0.44993, -0.000133687l 0.44993, -0.000430741l 0.44993, -0.000727796l 0.44993, -0.00102485l 0.44993, -0.0013219l 0.44993, -0.00161896l 0.44993, -0.00191601l 0.44993, -0.00221307l 0.44993, -0.00251012l 0.44993, -0.00280718l
 0.44993, -0.00310423l 0.44993, -0.00340129l 0.44993, -0.00369834l 0.44993, -0.00399539l 0.44993, -0.00429245l 0.44993, -0.0045895l 0.44993, -0.00488656l 0.44993, -0.00518361l 0.44993, -0.00548067l 0.44993, -0.00577772l 0.44993, -0.00607478l 0.44993,
 -0.00637183l 0.44993, -0.00666888l 0.44993, -0.00696594l 0.44993, -0.00726299l 0.44993, -0.00756005l 0.44993, -0.0078571l 0.44993, -0.00815416l 0.44993, -0.00845121l 0.44993, -0.00874826l 0.44993, -0.00904532l 0.44993, -0.00934237l 0.44993,
 -0.00963943l 0.44993, -0.00993648l 0.44993, -0.0102335l 0.44993, -0.0105306l 0.44993, -0.0108276l 0.44993, -0.0111247l 0.44993, -0.0114218l 0.44993, -0.0117188l 0.44993, -0.0120159l 0.44993, -0.0123129l 0.44993, -0.01261l 0.44993, -0.012907l
 0.44993, -0.0132041l 0.44993, -0.0135011l 0.44993, -0.0137982l 0.44993, -0.0140952l 0.44993, -0.0143923" fill="none" stroke="#ff0066" stroke-width="3"/>
<path d="M186.938,358.7l 0.44993, -0.0146894l 0.44993, -0.0149864l 0.44993, -0.0152835l 0.44993, -0.0155805l 0.44993, -0.0158776l 0.44993, -0.0161746l 0.44993, -0.0164717l 0.44993, -0.0167687l 0.44993, -0.0170658l 0.44993, -0.0173628l 0.44993,
 -0.0176599l 0.44993, -0.017957l 0.44993, -0.018254l 0.44993, -0.0185511l 0.44993, -0.0188481l 0.44993, -0.0191452l 0.44993, -0.0194422l 0.44993, -0.0197393l 0.44993, -0.0200363l 0.44993, -0.0203334l 0.44993, -0.0206304l 0.44993, -0.0209275l 0.44993,
 -0.0212246l 0.44993, -0.0215216l 0.44993, -0.0218187l 0.44993, -0.0221157l 0.44993, -0.0224128l 0.44993, -0.0227098l 0.44993, -0.0230069l 0.44993, -0.0233039l 0.44993, -0.023601l 0.44993, -0.023898l 0.44993, -0.0241951l 0.44993, -0.0244922l 0.44993,
 -0.0247892l 0.44993, -0.0250863l 0.44993, -0.0253833l 0.44993, -0.0256804l 0.44993, -0.0259774l 0.44993, -0.0262745l 0.44993, -0.0265715l 0.44993, -0.0268686l 0.44993, -0.0271656l 0.44993, -0.0274627l 0.44993, -0.0277597l 0.44993, -0.0280568l
 0.44993, -0.0283539l 0.44993, -0.0286509l 0.44993, -0.028948" fill="none" stroke="#ff0066" stroke-width="3"/>
<path d="M208.985,357.631l 0.44993, -0.029245l 0.44993, -0.0295421l 0.44993, -0.0298391l 0.44993, -0.0301362l 0.44993, -0.0304332l 0.44993, -0.0307303l 0.44993, -0.0310273l 0.44993, -0.0313244l 0.44993, -0.0316215l 0.44993, -0.0319185l 0.44993,
 -0.0322156l 0.44993, -0.0325126l 0.44993, -0.0328097l 0.44993, -0.0331067l 0.44993, -0.0334038l 0.44993, -0.0337008l 0.44993, -0.0339979l 0.44993, -0.0342949l 0.44993, -0.034592l 0.44993, -0.0348891l 0.44993, -0.0351861l 0.44993, -0.0354832l
 0.44993, -0.0357802l 0.44993, -0.0360773l 0.44993, -0.0363743l 0.44993, -0.0366714l 0.44993, -0.0369684l 0.44993, -0.0372655l 0.44993, -0.0375625l 0.44993, -0.0378596l 0.44993, -0.0381567l 0.44993, -0.0384537l 0.44993, -0.0387508l 0.44993,
 -0.0390478l 0.44993, -0.0393449l 0.44993, -0.0396419l 0.44993, -0.039939l 0.44993, -0.040236l 0.44993, -0.0405331l 0.44993, -0.0408301l 0.44993, -0.0411272l 0.44993, -0.0414243l 0.44993, -0.0417213l 0.44993, -0.0420184l 0.44993, -0.0423154l 0.44993,
 -0.0426125l 0.44993, -0.0429095l 0.44993, -0.0432066l 0.44993, -0.0435036" fill="none" stroke="#ff0066" stroke-width="3"/>
<path d="M231.031,355.848l 0.44993, -0.0438007l 0.44993, -0.0440977l 0.44993, -0.0443948l 0.44993, -0.0446918l 0.44993, -0.0449889l 0.44993, -0.045286l 0.44993, -0.045583l 0.44993, -0.0458801l 0.44993, -0.0461771l 0.44993, -0.0464742l 0.44993,
 -0.0467712l 0.44993, -0.0470683l 0.44993, -0.0473653l 0.44993, -0.0476624l 0.44993, -0.0479594l 0.44993, -0.0482565l 0.44993, -0.0485536l 0.44993, -0.0488506l 0.44993, -0.0491477l 0.44993, -0.0494447l 0.44993, -0.0497418l 0.44993, -0.0500388l
 0.44993, -0.0503359l 0.44993, -0.0506329l 0.44993, -0.05093l 0.44993, -0.051227l 0.44993, -0.0515241l 0.44993, -0.0518212l 0.44993, -0.0521182l 0.44993, -0.0524153l 0.44993, -0.0527123l 0.44993, -0.0530094l 0.44993, -0.0533064l 0.44993, -0.0536035l
 0.44993, -0.0539005l 0.44993, -0.0541976l 0.44993, -0.0544946l 0.44993, -0.0547917l 0.44993, -0.0550888l 0.44993, -0.0553858l 0.44993, -0.0556829l 0.44993, -0.0559799l 0.44993, -0.056277l 0.44993, -0.056574l 0.44993, -0.0568711l 0.44993, -0.0571681l
 0.44993, -0.0574652l 0.44993, -0.0577622l 0.44993, -0.0580593" fill="none" stroke="#ff0066" stroke-width="3"/>
<path d="M253.078,353.353l 0.44993, -0.0583564l 0.44993, -0.0586534l 0.44993, -0.0589505l 0.44993, -0.0592475l 0.44993, -0.0595446l 0.44993, -0.0598416l 0.44993, -0.0601387l 0.44993, -0.0604357l 0.44993, -0.0607328l 0.44993, -0.0610298l 0.44993,
 -0.0613269l 0.44993, -0.061624l 0.44993, -0.061921l 0.44993, -0.0622181l 0.44993, -0.0625151l 0.44993, -0.0628122l 0.44993, -0.0631092l 0.44993, -0.0634063l 0.44993, -0.0637033l 0.44993, -0.0640004l 0.44993, -0.0642974l 0.44993, -0.0645945l 0.44993,
 -0.0648916l 0.44993, -0.0651886l 0.44993, -0.0654857l 0.44993, -0.0657827l 0.44993, -0.0660798l 0.44993, -0.0663768l 0.44993, -0.0666739l 0.44993, -0.0669709l 0.44993, -0.067268l 0.44993, -0.067565l 0.44993, -0.0678621l 0.44993, -0.0681591l 0.44993,
 -0.0684562l 0.44993, -0.0687533l 0.44993, -0.0690503l 0.44993, -0.0693474l 0.44993, -0.0696444l 0.44993, -0.0699415l 0.44993, -0.0702385l 0.44993, -0.0705356l 0.44993, -0.0708326l 0.44993, -0.0711297l 0.44993, -0.0714267l 0.44993, -0.0717238l
 0.44993, -0.0720209l 0.44993, -0.0723179l 0.44993, -0.072615" fill="none" stroke="#ff0066" stroke-width="3"/>
<path d="M275.124,350.144l 0.44993, -0.072912l 0.44993, -0.0732091l 0.44993, -0.0735061l 0.44993, -0.0738032l 0.44993, -0.0741002l 0.44993, -0.0743973l 0.44993, -0.0746943l 0.44993, -0.0749914l 0.44993, -0.0752885l 0.44993, -0.0755855l 0.44993,
 -0.0758826l 0.44993, -0.0761796l 0.44993, -0.0764767l 0.44993, -0.0767737l 0.44993, -0.0770708l 0.44993, -0.0773678l 0.44993, -0.0776649l 0.44993, -0.0779619l 0.44993, -0.078259l 0.44993, -0.0785561l 0.44993, -0.0788531l 0.44993, -0.0791502l
 0.44993, -0.0794472l 0.44993, -0.0797443l 0.44993, -0.0800413l 0.44993, -0.0803384l 0.44993, -0.0806354l 0.44993, -0.0809325l 0.44993, -0.0812295l 0.44993, -0.0815266l 0.44993, -0.0818237l 0.44993, -0.0821207l 0.44993, -0.0824178l 0.44993,
 -0.0827148l 0.44993, -0.0830119l 0.44993, -0.0833089l 0.44993, -0.083606l 0.44993, -0.083903l 0.44993, -0.0842001l 0.44993, -0.0844971l 0.44993, -0.0847942l 0.44993, -0.0850912l 0.44993, -0.0853883l 0.44993, -0.0856854l 0.44993, -0.0859824l 0.44993,
 -0.0862795l 0.44993, -0.0865765l 0.44993, -0.0868736l 0.44993, -0.0871706" fill="none" stroke="#ff0066" stroke-width="3"/>
<path d="M297.171,346.222l 0.44993, -0.0874677l 0.44993, -0.0877647l 0.44993, -0.0880618l 0.44993, -0.0883588l 0.44993, -0.0886559l 0.44993, -0.088953l 0.44993, -0.08925l 0.44993, -0.0895471l 0.44993, -0.0898441l 0.44993, -0.0901412l 0.44993,
 -0.0904382l 0.44993, -0.0907353l 0.44993, -0.0910323l 0.44993, -0.0913294l 0.44993, -0.0916265l 0.44993, -0.0919235l 0.44993, -0.0922206l 0.44993, -0.0925176l 0.44993, -0.0928147l 0.44993, -0.0931117l 0.44993, -0.0934088l 0.44993, -0.0937058l
 0.44993, -0.0940029l 0.44993, -0.0942999l 0.44993, -0.094597l 0.44993, -0.094894l 0.44993, -0.0951911l 0.44993, -0.0954882l 0.44993, -0.0957852l 0.44993, -0.0960823l 0.44993, -0.0963793l 0.44993, -0.0966764l 0.44993, -0.0969734l 0.44993, -0.0972705l
 0.44993, -0.0975675l 0.44993, -0.0978646l 0.44993, -0.0981616l 0.44993, -0.0984587l 0.44993, -0.0987558l 0.44993, -0.0990528l 0.44993, -0.0993499l 0.44993, -0.0996469l 0.44993, -0.099944l 0.44993, -0.100241l 0.44993, -0.100538l 0.44993, -0.100835l
 0.44993, -0.101132l 0.44993, -0.101429l 0.44993, -0.101726" fill="none" stroke="#ff0066" stroke-width="3"/>
<path d="M319.217,341.587l 0.44993, -0.102023l 0.44993, -0.10232l 0.44993, -0.102617l 0.44993, -0.102915l 0.44993, -0.103212l 0.44993, -0.103509l 0.44993, -0.103806l 0.44993, -0.104103l 0.44993, -0.1044l 0.44993, -0.104697l 0.44993, -0.104994l
 0.44993, -0.105291l 0.44993, -0.105588l 0.44993, -0.105885l 0.44993, -0.106182l 0.44993, -0.106479l 0.44993, -0.106776l 0.44993, -0.107073l 0.44993, -0.10737l 0.44993, -0.107667l 0.44993, -0.107964l 0.44993, -0.108261l 0.44993, -0.108559l 0.44993,
 -0.108856l 0.44993, -0.109153l 0.44993, -0.10945l 0.44993, -0.109747l 0.44993, -0.110044l 0.44993, -0.110341l 0.44993, -0.110638l 0.44993, -0.110935l 0.44993, -0.111232l 0.44993, -0.111529l 0.44993, -0.111826l 0.44993, -0.112123l 0.44993, -0.11242l
 0.44993, -0.112717l 0.44993, -0.113014l 0.44993, -0.113311l 0.44993, -0.113608l 0.44993, -0.113906l 0.44993, -0.114203l 0.44993, -0.1145l 0.44993, -0.114797l 0.44993, -0.115094l 0.44993, -0.115391l 0.44993, -0.115688l 0.44993, -0.115985l 0.44993,
 -0.116282" fill="none" stroke="#ff0066" stroke-width="3"/>
<path d="M341.264,336.238l 0.44993, -0.116579l 0.44993, -0.116876l 0.44993, -0.117173l 0.44993, -0.11747l 0.44993, -0.117767l 0.44993, -0.118064l 0.44993, -0.118361l 0.44993, -0.118658l 0.44993, -0.118955l 0.44993, -0.119253l 0.44993, -0.11955l
 0.44993, -0.119847l 0.44993, -0.120144l 0.44993, -0.120441l 0.44993, -0.120738l 0.44993, -0.121035l 0.44993, -0.121332l 0.44993, -0.121629l 0.44993, -0.121926l 0.44993, -0.122223l 0.44993, -0.12252l 0.44993, -0.122817l 0.44993, -0.123114l 0.44993,
 -0.123411l 0.44993, -0.123708l 0.44993, -0.124005l 0.44993, -0.124302l 0.44993, -0.124599l 0.44993, -0.124897l 0.44993, -0.125194l 0.44993, -0.125491l 0.44993, -0.125788l 0.44993, -0.126085l 0.44993, -0.126382l 0.44993, -0.126679l 0.44993,
 -0.126976l 0.44993, -0.127273l 0.44993, -0.12757l 0.44993, -0.127867l 0.44993, -0.128164l 0.44993, -0.128461l 0.44993, -0.128758l 0.44993, -0.129055l 0.44993, -0.129352l 0.44993, -0.129649l 0.44993, -0.129946l 0.44993, -0.130244l 0.44993, -0.130541l
 0.44993, -0.130838" fill="none" stroke="#ff0066" stroke-width="3"/>
<path d="M363.311,330.177l 0.44993, -0.131135l 0.44993, -0.131432l 0.44993, -0.131729l 0.44993, -0.132026l 0.44993, -0.132323l 0.44993, -0.13262l 0.44993, -0.132917l 0.44993, -0.133214l 0.44993, -0.133511l 0.44993, -0.133808l 0.44993, -0.134105l
 0.44993, -0.134402l 0.44993, -0.134699l 0.44993, -0.134996l 0.44993, -0.135293l 0.44993, -0.135591l 0.44993, -0.135888l 0.44993, -0.136185l 0.44993, -0.136482l 0.44993, -0.136779l 0.44993, -0.137076l 0.44993, -0.137373l 0.44993, -0.13767l 0.44993,
 -0.137967l 0.44993, -0.138264l 0.44993, -0.138561l 0.44993, -0.138858l 0.44993, -0.139155l 0.44993, -0.139452l 0.44993, -0.139749l 0.44993, -0.140046l 0.44993, -0.140343l 0.44993, -0.14064l 0.44993, -0.140937l 0.44993, -0.141235l 0.44993, -0.141532l
 0.44993, -0.141829l 0.44993, -0.142126l 0.44993, -0.142423l 0.44993, -0.14272l 0.44993, -0.143017l 0.44993, -0.143314l 0.44993, -0.143611l 0.44993, -0.143908l 0.44993, -0.144205l 0.44993, -0.144502l 0.44993, -0.144799l 0.44993, -0.145096l 0.44993,
 -0.145393" fill="none" stroke="#ff0066" stroke-width="3"/>
<path d="M385.357,323.402l 0.44993, -0.14569l 0.44993, -0.145987l 0.44993, -0.146284l 0.44993, -0.146582l 0.44993, -0.146879l 0.44993, -0.147176l 0.44993, -0.147473l 0.44993, -0.14777l 0.44993, -0.148067l 0.44993, -0.148364l 0.44993, -0.148661l
 0.44993, -0.148958l 0.44993, -0.149255l 0.44993, -0.149552l 0.44993, -0.149849l 0.44993, -0.150146l 0.44993, -0.150443l 0.44993, -0.15074l 0.44993, -0.151037l 0.44993, -0.151334l 0.44993, -0.151631l 0.44993, -0.151928l 0.44993, -0.152226l 0.44993,
 -0.152523l 0.44993, -0.15282l 0.44993, -0.153117l 0.44993, -0.153414l 0.44993, -0.153711l 0.44993, -0.154008l 0.44993, -0.154305l 0.44993, -0.154602l 0.44993, -0.154899l 0.44993, -0.155196l 0.44993, -0.155493l 0.44993, -0.15579l 0.44993, -0.156087l
 0.44993, -0.156384l 0.44993, -0.156681l 0.44993, -0.156978l 0.44993, -0.157275l 0.44993, -0.157573l 0.44993, -0.15787l 0.44993, -0.158167l 0.44993, -0.158464l 0.44993, -0.158761l 0.44993, -0.159058l 0.44993, -0.159355l 0.44993, -0.159652l 0.44993,
 -0.159949" fill="none" stroke="#ff0066" stroke-width="3"/>
<path d="M407.404,315.914l 0.44993, -0.160246l 0.44993, -0.160543l 0.44993, -0.16084l 0.44993, -0.161137l 0.44993, -0.161434l 0.44993, -0.161731l 0.44993, -0.162028l 0.44993, -0.162325l 0.44993, -0.162622l 0.44993, -0.16292l 0.44993, -0.163217l
 0.44993, -0.163514l 0.44993, -0.163811l 0.44993, -0.164108l 0.44993, -0.164405l 0.44993, -0.164702l 0.44993, -0.164999l 0.44993, -0.165296l 0.44993, -0.165593l 0.44993, -0.16589l 0.44993, -0.166187l 0.44993, -0.166484l 0.44993, -0.166781l 0.44993,
 -0.167078l 0.44993, -0.167375l 0.44993, -0.167672l 0.44993, -0.167969l 0.44993, -0.168266l 0.44993, -0.168564l 0.44993, -0.168861l 0.44993, -0.169158l 0.44993, -0.169455l 0.44993, -0.169752l 0.44993, -0.170049l 0.44993, -0.170346l 0.44993,
 -0.170643l 0.44993, -0.17094l 0.44993, -0.171237l 0.44993, -0.171534l 0.44993, -0.171831l 0.44993, -0.172128l 0.44993, -0.172425l 0.44993, -0.172722l 0.44993, -0.173019l 0.44993, -0.173316l 0.44993, -0.173613l 0.44993, -0.173911l 0.44993, -0.174208l
 0.44993, -0.174505" fill="none" stroke="#ff0066" stroke-width="3"/>
<path d="M429.45,307.712l 0.44993, -0.174802l 0.44993, -0.175099l 0.44993, -0.175396l 0.44993, -0.175693l 0.44993, -0.17599l 0.44993, -0.176287l 0.44993, -0.176584l 0.44993, -0.176881l 0.44993, -0.177178l 0.44993, -0.177475l 0.44993, -0.177772l
 0.44993, -0.178069l 0.44993, -0.178366l 0.44993, -0.178663l 0.44993, -0.17896l 0.44993, -0.179257l 0.44993, -0.179555l 0.44993, -0.179852l 0.44993, -0.180149l 0.44993, -0.180446l 0.44993, -0.180743l 0.44993, -0.18104l 0.44993, -0.181337l 0.44993,
 -0.181634l 0.44993, -0.181931l 0.44993, -0.182228l 0.44993, -0.182525l 0.44993, -0.182822l 0.44993, -0.183119l 0.44993, -0.183416l 0.44993, -0.183713l 0.44993, -0.18401l 0.44993, -0.184307l 0.44993, -0.184604l 0.44993, -0.184902l 0.44993, -0.185199l
 0.44993, -0.185496l 0.44993, -0.185793l 0.44993, -0.18609l 0.44993, -0.186387l 0.44993, -0.186684l 0.44993, -0.186981l 0.44993, -0.187278l 0.44993, -0.187575l 0.44993, -0.187872l 0.44993, -0.188169l 0.44993, -0.188466l 0.44993, -0.188763l 0.44993,
 -0.18906" fill="none" stroke="#ff0066" stroke-width="3"/>
<path d="M451.497,298.797l 0.44993, -0.189357l 0.44993, -0.189654l 0.44993, -0.189951l 0.44993, -0.190249l 0.44993, -0.190546l 0.44993, -0.190843l 0.44993, -0.19114l 0.44993, -0.191437l 0.44993, -0.191734l 0.44993, -0.192031l 0.44993, -0.192328l
 0.44993, -0.192625l 0.44993, -0.192922l 0.44993, -0.193219l 0.44993, -0.193516l 0.44993, -0.193813l 0.44993, -0.19411l 0.44993, -0.194407l 0.44993, -0.194704l 0.44993, -0.195001l 0.44993, -0.195298l 0.44993, -0.195596l 0.44993, -0.195893l 0.44993,
 -0.19619l 0.44993, -0.196487l 0.44993, -0.196784l 0.44993, -0.197081l 0.44993, -0.197378l 0.44993, -0.197675l 0.44993, -0.197972l 0.44993, -0.198269l 0.44993, -0.198566l 0.44993, -0.198863l 0.44993, -0.19916l 0.44993, -0.199457l 0.44993, -0.199754l
 0.44993, -0.200051l 0.44993, -0.200348l 0.44993, -0.200645l 0.44993, -0.200942l 0.44993, -0.20124l 0.44993, -0.201537l 0.44993, -0.201834l 0.44993, -0.202131l 0.44993, -0.202428l 0.44993, -0.202725l 0.44993, -0.203022l 0.44993, -0.203319l 0.44993,
 -0.203616" fill="none" stroke="#ff0066" stroke-width="3"/>
<path d="M473.543,289.17l 0.44993, -0.203913l 0.44993, -0.20421l 0.44993, -0.204507l 0.44993, -0.204804l 0.44993, -0.205101l 0.44993, -0.205398l 0.44993, -0.205695l 0.44993, -0.205992l 0.44993, -0.206289l 0.44993, -0.206587l 0.44993, -0.206884l
 0.44993, -0.207181l 0.44993, -0.207478l 0.44993, -0.207775l 0.44993, -0.208072l 0.44993, -0.208369l 0.44993, -0.208666l 0.44993, -0.208963l 0.44993, -0.20926l 0.44993, -0.209557l 0.44993, -0.209854l 0.44993, -0.210151l 0.44993, -0.210448l 0.44993,
 -0.210745l 0.44993, -0.211042l 0.44993, -0.211339l 0.44993, -0.211636l 0.44993, -0.211933l 0.44993, -0.212231l 0.44993, -0.212528l 0.44993, -0.212825l 0.44993, -0.213122l 0.44993, -0.213419l 0.44993, -0.213716l 0.44993, -0.214013l 0.44993, -0.21431l
 0.44993, -0.214607l 0.44993, -0.214904l 0.44993, -0.215201l 0.44993, -0.215498l 0.44993, -0.215795l 0.44993, -0.216092l 0.44993, -0.216389l 0.44993, -0.216686l 0.44993, -0.216983l 0.44993, -0.21728l 0.44993, -0.217578l 0.44993, -0.217875l 0.44993,
 -0.218172" fill="none" stroke="#ff0066" stroke-width="3"/>
<path d="M495.59,278.829l 0.44993, -0.218469l 0.44993, -0.218766l 0.44993, -0.219063l 0.44993, -0.21936l 0.44993, -0.219657l 0.44993, -0.219954l 0.44993, -0.220251l 0.44993, -0.220548l 0.44993, -0.220845l 0.44993, -0.221142l 0.44993, -0.221439l
 0.44993, -0.221736l 0.44993, -0.222033l 0.44993, -0.22233l 0.44993, -0.222627l 0.44993, -0.222925l 0.44993, -0.223222l 0.44993, -0.223519l 0.44993, -0.223816l 0.44993, -0.224113l 0.44993, -0.22441l 0.44993, -0.224707l 0.44993, -0.225004l 0.44993,
 -0.225301l 0.44993, -0.225598l 0.44993, -0.225895l 0.44993, -0.226192l 0.44993, -0.226489l 0.44993, -0.226786l 0.44993, -0.227083l 0.44993, -0.22738l 0.44993, -0.227677l 0.44993, -0.227974l 0.44993, -0.228271l 0.44993, -0.228569l 0.44993, -0.228866l
 0.44993, -0.229163l 0.44993, -0.22946l 0.44993, -0.229757l 0.44993, -0.230054l 0.44993, -0.230351l 0.44993, -0.230648l 0.44993, -0.230945l 0.44993, -0.231242l 0.44993, -0.231539l 0.44993, -0.231836l 0.44993, -0.232133l 0.44993, -0.23243l 0.44993,
 -0.232727" fill="none" stroke="#ff0066" stroke-width="3"/>
<path d="M517.636,267.774l 0.44993, -0.233024l 0.44993, -0.233321l 0.44993, -0.233618l 0.44993, -0.233916l 0.44993, -0.234213l 0.44993, -0.23451l 0.44993, -0.234807l 0.44993, -0.235104l 0.44993, -0.235401l 0.44993, -0.235698l 0.44993, -0.235995l
 0.44993, -0.236292l 0.44993, -0.236589l 0.44993, -0.236886l 0.44993, -0.237183l 0.44993, -0.23748l 0.44993, -0.237777l 0.44993, -0.238074l 0.44993, -0.238371l 0.44993, -0.238668l 0.44993, -0.238965l 0.44993, -0.239262l 0.44993, -0.23956l 0.44993,
 -0.239857l 0.44993, -0.240154l 0.44993, -0.240451l 0.44993, -0.240748l 0.44993, -0.241045l 0.44993, -0.241342l 0.44993, -0.241639l 0.44993, -0.241936l 0.44993, -0.242233l 0.44993, -0.24253l 0.44993, -0.242827l 0.44993, -0.243124l 0.44993, -0.243421l
 0.44993, -0.243718l 0.44993, -0.244015l 0.44993, -0.244312l 0.44993, -0.244609l 0.44993, -0.244907l 0.44993, -0.245204l 0.44993, -0.245501l 0.44993, -0.245798l 0.44993, -0.246095l 0.44993, -0.246392l 0.44993, -0.246689l 0.44993, -0.246986l 0.44993,
 -0.247283" fill="none" stroke="#ff0066" stroke-width="3"/>
<path d="M539.683,256.007l 0.44993, -0.24758l 0.44993, -0.247877l 0.44993, -0.248174l 0.44993, -0.248471l 0.44993, -0.248768l 0.44993, -0.249065l 0.44993, -0.249362l 0.44993, -0.249659l 0.44993, -0.249956l 0.44993, -0.250253l 0.44993, -0.250551l
 0.44993, -0.250848l 0.44993, -0.251145l 0.44993, -0.251442l 0.44993, -0.251739l 0.44993, -0.252036l 0.44993, -0.252333l 0.44993, -0.25263l 0.44993, -0.252927" fill="none" stroke="#ff0066" stroke-width="3"/>
<path d="M248.503,21.4167h 239.963" fill="none" stroke="#999999" stroke-width="7"/>
<text xml:space="preserve" x="360.607" y="50.7193" fill="black" font-size="16.0105" font-family="Helvetica"> with EMC</text>
<text xml:space="preserve" x="352.717" y="50.7193" fill="black" font-size="16.0105" font-family="Times">&#0947;</text>
<text xml:space="preserve" x="344.828" y="50.7193" fill="black" font-size="16.0105" font-family="Times">&#0947;</text>
<text xml:space="preserve" x="336.938" y="50.7193" fill="black" font-size="16.0105" font-family="Times">&#0947;</text>
<text xml:space="preserve" x="331.866" y="50.7193" fill="black" font-size="16.0105" font-family="Helvetica"> </text>
<text xml:space="preserve" x="316.65" y="50.7193" fill="black" font-size="16.0105" font-family="Times">&#8594;</text>
<text xml:space="preserve" x="311.578" y="50.7193" fill="black" font-size="16.0105" font-family="Helvetica"> </text>
<text xml:space="preserve" x="303.689" y="50.7193" fill="black" font-size="16.0105" font-family="Times">&#0947;</text>
<text xml:space="preserve" x="298.053" y="45.0838" fill="black" font-size="10.8403" font-family="Helvetica">0</text>
<text xml:space="preserve" x="289.6" y="50.7193" fill="black" font-size="16.0105" font-family="Times">&#0960;</text>
<text xml:space="preserve" x="284.528" y="50.7193" fill="black" font-size="16.0105" font-family="Helvetica"> </text>
<text xml:space="preserve" x="269.312" y="50.7193" fill="black" font-size="16.0105" font-family="Times">&#8594;</text>
<text xml:space="preserve" x="264.24" y="50.7193" fill="black" font-size="16.0105" font-family="Helvetica"> </text>
<text xml:space="preserve" x="252.969" y="50.7193" fill="black" font-size="16.0105" font-family="Times">&#0969;</text>
<text xml:space="preserve" x="128.989" y="50.7193" fill="black" font-size="16.0105" font-family="Helvetica"> = 13 TeV (EG1), </text>
<text xml:space="preserve" x="120.536" y="50.7193" fill="black" font-size="16.0105" font-family="Helvetica" font-style="oblique">s</text>
<path d="M114.9,41.7025l 1.69064, 9.58031" fill="none" stroke="black" stroke-width="2"/>
<path d="M116.591,51.2829l 2.25419, -14.0887" fill="none" stroke="black"/>
<path d="M118.845,37.1942h 10.1439" fill="none" stroke="black"/>
<text xml:space="preserve" x="89.5406" y="50.7193" fill="black" font-size="16.0105" font-family="Helvetica">pp </text>
<text xml:space="preserve" x="89.5406" y="85.6593" fill="black" font-size="16.0105" font-family="Helvetica">ALICE work in progress</text>
<text xml:space="preserve" x="205.068" y="120.599" fill="black" font-size="16.0105" font-family="Helvetica">) &lt; 8.0</text>
<text xml:space="preserve" x="196.051" y="120.599" fill="black" font-size="16.0105" font-family="Helvetica" font-style="oblique">c</text>
<text xml:space="preserve" x="145.895" y="120.599" fill="black" font-size="16.0105" font-family="Helvetica"> /(GeV/</text>
<text xml:space="preserve" x="139.133" y="128.489" fill="black" font-size="10.8403" font-family="Helvetica">T</text>
<text xml:space="preserve" x="129.552" y="120.599" fill="black" font-size="16.0105" font-family="Helvetica" font-style="oblique">p</text>
<text xml:space="preserve" x="124.481" y="120.599" fill="black" font-size="16.0105" font-family="Helvetica"> </text>
<text xml:space="preserve" x="116.027" y="120.599" fill="black" font-size="16.0105" font-family="Times">&#8804;</text>
<text xml:space="preserve" x="89.5406" y="120.599" fill="black" font-size="16.0105" font-family="Helvetica">6.0 </text>
<rect x="312.311" y="69.1755" width="198.425" height="113.448" fill="white"/>
<text xml:space="preserve" x="361.734" y="85.0957" fill="black" font-size="16.0105" font-family="Helvetica">ratio</text>
<path d="M319.752,80.5203h 34.7244" fill="none" stroke="black" stroke-width="2"/>
<g fill="black">
<circle cx="337.114" cy="80.5203" r="6.76257"/>
</g>
<text xml:space="preserve" x="361.734" y="108.201" fill="black" font-size="16.0105" font-family="Helvetica">peak range</text>
<path d="M319.752,103.21h 34.7244" fill="none" stroke="#333333" stroke-width="2"/>
<g stroke="#333333" stroke-width="2" fill="none">
<circle cx="337.114" cy="103.21" r="5.63548"/>
</g>
<text xml:space="preserve" x="361.734" y="130.743" fill="black" font-size="16.0105" font-family="Helvetica">background pol1</text>
<path d="M319.752,125.899h 34.7244" fill="none" stroke="#33cccc" stroke-width="3"/>
<text xml:space="preserve" x="361.734" y="153.285" fill="black" font-size="16.0105" font-family="Helvetica">background pol2</text>
<path d="M319.752,148.589h 34.7244" fill="none" stroke="#ff0066" stroke-width="3"/>
<text xml:space="preserve" x="361.734" y="175.827" fill="black" font-size="16.0105" font-family="Helvetica">param. range</text>
<path d="M319.752,171.279h 34.7244" fill="none" stroke="#999999" stroke-width="7"/></svg>
