<?xml version="1.0" standalone="no"?>
<svg width="567.429" height="553.904" viewBox="0 0 567.429 553.904" xmlns="http://www.w3.org/2000/svg" shape-rendering="crispEdges">
<title>
MC/EG1/OmegaRotPS/SameEventToBackgroundRatio_08.svg
</title>
<desc>
Creator: ROOT Version 6.20/08
CreationDate: Mon Mar 29 21:28:56 2021</desc>
<defs>
</defs>
<rect x="0.5" y="0" width="566.929" height="553.404" fill="white"/>
<rect x="68.5315" y="16.6021" width="484.724" height="481.461" fill="white"/>
<rect x="68.5315" y="16.6021" width="484.724" height="481.461" fill="none" stroke="black"/>
<rect x="68.5315" y="16.6021" width="484.724" height="481.461" fill="white"/>
<rect x="68.5315" y="16.6021" width="484.724" height="481.461" fill="none" stroke="black"/>
<g fill="black">
<circle cx="114.124" cy="493.166" r="6.76257"/>
</g>
<g fill="black">
<circle cx="118.924" cy="425.445" r="6.76257"/>
</g>
<g fill="black">
<circle cx="123.723" cy="305.297" r="6.76257"/>
</g>
<g fill="black">
<circle cx="128.522" cy="243.555" r="6.76257"/>
</g>
<g fill="black">
<circle cx="133.321" cy="357.356" r="6.76257"/>
</g>
<g fill="black">
<circle cx="138.121" cy="240" r="6.76257"/>
</g>
<g fill="black">
<circle cx="142.92" cy="203.828" r="6.76257"/>
</g>
<g fill="black">
<circle cx="147.719" cy="225.057" r="6.76257"/>
</g>
<g fill="black">
<circle cx="152.518" cy="202.649" r="6.76257"/>
</g>
<g fill="black">
<circle cx="157.318" cy="197.15" r="6.76257"/>
</g>
<g fill="black">
<circle cx="162.117" cy="198.421" r="6.76257"/>
</g>
<g fill="black">
<circle cx="166.916" cy="209.267" r="6.76257"/>
</g>
<g fill="black">
<circle cx="171.715" cy="217.759" r="6.76257"/>
</g>
<g fill="black">
<circle cx="176.515" cy="225.116" r="6.76257"/>
</g>
<g fill="black">
<circle cx="181.314" cy="230.39" r="6.76257"/>
</g>
<g fill="black">
<circle cx="186.113" cy="244.295" r="6.76257"/>
</g>
<g fill="black">
<circle cx="190.912" cy="247.012" r="6.76257"/>
</g>
<g fill="black">
<circle cx="195.712" cy="256.991" r="6.76257"/>
</g>
<g fill="black">
<circle cx="200.511" cy="259.063" r="6.76257"/>
</g>
<g fill="black">
<circle cx="205.31" cy="258.416" r="6.76257"/>
</g>
<g fill="black">
<circle cx="210.109" cy="262.226" r="6.76257"/>
</g>
<g fill="black">
<circle cx="214.909" cy="266.784" r="6.76257"/>
</g>
<g fill="black">
<circle cx="219.708" cy="267.229" r="6.76257"/>
</g>
<g fill="black">
<circle cx="224.507" cy="264.162" r="6.76257"/>
</g>
<g fill="black">
<circle cx="229.306" cy="267.644" r="6.76257"/>
</g>
<g fill="black">
<circle cx="234.106" cy="269.972" r="6.76257"/>
</g>
<g fill="black">
<circle cx="238.905" cy="269.401" r="6.76257"/>
</g>
<g fill="black">
<circle cx="243.704" cy="265.592" r="6.76257"/>
</g>
<g fill="black">
<circle cx="248.503" cy="266.278" r="6.76257"/>
</g>
<g fill="black">
<circle cx="253.303" cy="266.06" r="6.76257"/>
</g>
<g fill="black">
<circle cx="258.102" cy="267.78" r="6.76257"/>
</g>
<g fill="black">
<circle cx="262.901" cy="268.167" r="6.76257"/>
</g>
<g fill="black">
<circle cx="267.7" cy="265.194" r="6.76257"/>
</g>
<g fill="black">
<circle cx="272.5" cy="272.057" r="6.76257"/>
</g>
<g fill="black">
<circle cx="277.299" cy="268.307" r="6.76257"/>
</g>
<g fill="black">
<circle cx="339.689" cy="267.549" r="6.76257"/>
</g>
<g fill="black">
<circle cx="344.488" cy="269.641" r="6.76257"/>
</g>
<g fill="black">
<circle cx="349.288" cy="267.109" r="6.76257"/>
</g>
<g fill="black">
<circle cx="354.087" cy="269.631" r="6.76257"/>
</g>
<g fill="black">
<circle cx="358.886" cy="269.918" r="6.76257"/>
</g>
<g fill="black">
<circle cx="363.685" cy="269.384" r="6.76257"/>
</g>
<g fill="black">
<circle cx="368.485" cy="265.331" r="6.76257"/>
</g>
<g fill="black">
<circle cx="373.284" cy="267.665" r="6.76257"/>
</g>
<g fill="black">
<circle cx="378.083" cy="264.128" r="6.76257"/>
</g>
<g fill="black">
<circle cx="382.882" cy="262.773" r="6.76257"/>
</g>
<g fill="black">
<circle cx="387.682" cy="264.367" r="6.76257"/>
</g>
<g fill="black">
<circle cx="392.481" cy="264.34" r="6.76257"/>
</g>
<g fill="black">
<circle cx="397.28" cy="263.854" r="6.76257"/>
</g>
<g fill="black">
<circle cx="402.079" cy="261.133" r="6.76257"/>
</g>
<g fill="black">
<circle cx="406.879" cy="259.354" r="6.76257"/>
</g>
<g fill="black">
<circle cx="411.678" cy="256.484" r="6.76257"/>
</g>
<g fill="black">
<circle cx="416.477" cy="259.741" r="6.76257"/>
</g>
<g fill="black">
<circle cx="421.276" cy="259.032" r="6.76257"/>
</g>
<g fill="black">
<circle cx="426.076" cy="256.893" r="6.76257"/>
</g>
<g fill="black">
<circle cx="430.875" cy="256.153" r="6.76257"/>
</g>
<g fill="black">
<circle cx="435.674" cy="253.933" r="6.76257"/>
</g>
<g fill="black">
<circle cx="440.473" cy="254.246" r="6.76257"/>
</g>
<g fill="black">
<circle cx="445.273" cy="252.027" r="6.76257"/>
</g>
<g fill="black">
<circle cx="450.072" cy="250.502" r="6.76257"/>
</g>
<g fill="black">
<circle cx="454.871" cy="255.15" r="6.76257"/>
</g>
<g fill="black">
<circle cx="459.671" cy="255.399" r="6.76257"/>
</g>
<g fill="black">
<circle cx="464.47" cy="251.885" r="6.76257"/>
</g>
<g fill="black">
<circle cx="469.269" cy="248.677" r="6.76257"/>
</g>
<g fill="black">
<circle cx="474.068" cy="248.826" r="6.76257"/>
</g>
<g fill="black">
<circle cx="478.867" cy="247.828" r="6.76257"/>
</g>
<g fill="black">
<circle cx="483.667" cy="243.668" r="6.76257"/>
</g>
<g fill="black">
<circle cx="488.466" cy="249.861" r="6.76257"/>
</g>
<g fill="black">
<circle cx="493.265" cy="243.161" r="6.76257"/>
</g>
<g fill="black">
<circle cx="498.065" cy="241.551" r="6.76257"/>
</g>
<g fill="black">
<circle cx="502.864" cy="236.927" r="6.76257"/>
</g>
<g fill="black">
<circle cx="507.663" cy="236.792" r="6.76257"/>
</g>
<g fill="black">
<circle cx="512.462" cy="237.082" r="6.76257"/>
</g>
<g fill="black">
<circle cx="517.262" cy="240.387" r="6.76257"/>
</g>
<g fill="black">
<circle cx="522.061" cy="237.522" r="6.76257"/>
</g>
<g fill="black">
<circle cx="526.86" cy="236.404" r="6.76257"/>
</g>
<g fill="black">
<circle cx="531.659" cy="237.936" r="6.76257"/>
</g>
<g fill="black">
<circle cx="536.458" cy="226.93" r="6.76257"/>
</g>
<g fill="black">
<circle cx="541.258" cy="235.418" r="6.76257"/>
</g>
<g fill="black">
<circle cx="546.057" cy="237.833" r="6.76257"/>
</g>
<path d="M68.5315,498.064h 484.724" fill="none" stroke="black"/>
<path d="M68.5315,483.869v 14.1948" fill="none" stroke="black"/>
<path d="M83.5292,490.966v 7.09741" fill="none" stroke="black"/>
<path d="M98.5268,490.966v 7.09741" fill="none" stroke="black"/>
<path d="M113.524,490.966v 7.09741" fill="none" stroke="black"/>
<path d="M128.522,483.869v 14.1948" fill="none" stroke="black"/>
<path d="M143.52,490.966v 7.09741" fill="none" stroke="black"/>
<path d="M158.517,490.966v 7.09741" fill="none" stroke="black"/>
<path d="M173.515,490.966v 7.09741" fill="none" stroke="black"/>
<path d="M188.513,483.869v 14.1948" fill="none" stroke="black"/>
<path d="M203.51,490.966v 7.09741" fill="none" stroke="black"/>
<path d="M218.508,490.966v 7.09741" fill="none" stroke="black"/>
<path d="M233.506,490.966v 7.09741" fill="none" stroke="black"/>
<path d="M248.503,483.869v 14.1948" fill="none" stroke="black"/>
<path d="M263.501,490.966v 7.09741" fill="none" stroke="black"/>
<path d="M278.499,490.966v 7.09741" fill="none" stroke="black"/>
<path d="M293.496,490.966v 7.09741" fill="none" stroke="black"/>
<path d="M308.494,483.869v 14.1948" fill="none" stroke="black"/>
<path d="M323.492,490.966v 7.09741" fill="none" stroke="black"/>
<path d="M338.489,490.966v 7.09741" fill="none" stroke="black"/>
<path d="M353.487,490.966v 7.09741" fill="none" stroke="black"/>
<path d="M368.485,483.869v 14.1948" fill="none" stroke="black"/>
<path d="M383.482,490.966v 7.09741" fill="none" stroke="black"/>
<path d="M398.48,490.966v 7.09741" fill="none" stroke="black"/>
<path d="M413.478,490.966v 7.09741" fill="none" stroke="black"/>
<path d="M428.475,483.869v 14.1948" fill="none" stroke="black"/>
<path d="M443.473,490.966v 7.09741" fill="none" stroke="black"/>
<path d="M458.471,490.966v 7.09741" fill="none" stroke="black"/>
<path d="M473.468,490.966v 7.09741" fill="none" stroke="black"/>
<path d="M488.466,483.869v 14.1948" fill="none" stroke="black"/>
<path d="M503.464,490.966v 7.09741" fill="none" stroke="black"/>
<path d="M518.461,490.966v 7.09741" fill="none" stroke="black"/>
<path d="M533.459,490.966v 7.09741" fill="none" stroke="black"/>
<path d="M548.457,483.869v 14.1948" fill="none" stroke="black"/>
<path d="M548.457,483.869v 14.1948" fill="none" stroke="black"/>
<text xml:space="preserve" x="63.6174" y="513.956" fill="black" font-size="16.0105" font-family="Helvetica">0</text>
<text xml:space="preserve" x="117.718" y="513.956" fill="black" font-size="16.0105" font-family="Helvetica">0.2</text>
<text xml:space="preserve" x="177.454" y="513.956" fill="black" font-size="16.0105" font-family="Helvetica">0.4</text>
<text xml:space="preserve" x="237.754" y="513.956" fill="black" font-size="16.0105" font-family="Helvetica">0.6</text>
<text xml:space="preserve" x="297.49" y="513.956" fill="black" font-size="16.0105" font-family="Helvetica">0.8</text>
<text xml:space="preserve" x="365.115" y="513.956" fill="black" font-size="16.0105" font-family="Helvetica">1</text>
<text xml:space="preserve" x="417.525" y="513.956" fill="black" font-size="16.0105" font-family="Helvetica">1.2</text>
<text xml:space="preserve" x="477.261" y="513.956" fill="black" font-size="16.0105" font-family="Helvetica">1.4</text>
<text xml:space="preserve" x="537.561" y="513.956" fill="black" font-size="16.0105" font-family="Helvetica">1.6</text>
<text xml:space="preserve" x="548.268" y="537.625" fill="black" font-size="16.0105" font-family="Helvetica">)</text>
<text xml:space="preserve" x="542.633" y="532.553" fill="black" font-size="10.8403" font-family="Helvetica">2</text>
<text xml:space="preserve" x="533.616" y="537.625" fill="black" font-size="16.0105" font-family="Helvetica" font-style="oblique">c</text>
<text xml:space="preserve" x="487.405" y="537.625" fill="black" font-size="16.0105" font-family="Helvetica"> (GeV/</text>
<text xml:space="preserve" x="473.317" y="542.697" fill="black" font-size="10.8403" font-family="Helvetica">inv</text>
<text xml:space="preserve" x="459.792" y="537.625" fill="black" font-size="16.0105" font-family="Helvetica" font-style="oblique">m</text>
<path d="M68.5315,16.6021h 484.724" fill="none" stroke="black"/>
<path d="M68.5315,30.7969v -14.1948" fill="none" stroke="black"/>
<path d="M83.5292,23.6995v -7.09741" fill="none" stroke="black"/>
<path d="M98.5268,23.6995v -7.09741" fill="none" stroke="black"/>
<path d="M113.524,23.6995v -7.09741" fill="none" stroke="black"/>
<path d="M128.522,30.7969v -14.1948" fill="none" stroke="black"/>
<path d="M143.52,23.6995v -7.09741" fill="none" stroke="black"/>
<path d="M158.517,23.6995v -7.09741" fill="none" stroke="black"/>
<path d="M173.515,23.6995v -7.09741" fill="none" stroke="black"/>
<path d="M188.513,30.7969v -14.1948" fill="none" stroke="black"/>
<path d="M203.51,23.6995v -7.09741" fill="none" stroke="black"/>
<path d="M218.508,23.6995v -7.09741" fill="none" stroke="black"/>
<path d="M233.506,23.6995v -7.09741" fill="none" stroke="black"/>
<path d="M248.503,30.7969v -14.1948" fill="none" stroke="black"/>
<path d="M263.501,23.6995v -7.09741" fill="none" stroke="black"/>
<path d="M278.499,23.6995v -7.09741" fill="none" stroke="black"/>
<path d="M293.496,23.6995v -7.09741" fill="none" stroke="black"/>
<path d="M308.494,30.7969v -14.1948" fill="none" stroke="black"/>
<path d="M323.492,23.6995v -7.09741" fill="none" stroke="black"/>
<path d="M338.489,23.6995v -7.09741" fill="none" stroke="black"/>
<path d="M353.487,23.6995v -7.09741" fill="none" stroke="black"/>
<path d="M368.485,30.7969v -14.1948" fill="none" stroke="black"/>
<path d="M383.482,23.6995v -7.09741" fill="none" stroke="black"/>
<path d="M398.48,23.6995v -7.09741" fill="none" stroke="black"/>
<path d="M413.478,23.6995v -7.09741" fill="none" stroke="black"/>
<path d="M428.475,30.7969v -14.1948" fill="none" stroke="black"/>
<path d="M443.473,23.6995v -7.09741" fill="none" stroke="black"/>
<path d="M458.471,23.6995v -7.09741" fill="none" stroke="black"/>
<path d="M473.468,23.6995v -7.09741" fill="none" stroke="black"/>
<path d="M488.466,30.7969v -14.1948" fill="none" stroke="black"/>
<path d="M503.464,23.6995v -7.09741" fill="none" stroke="black"/>
<path d="M518.461,23.6995v -7.09741" fill="none" stroke="black"/>
<path d="M533.459,23.6995v -7.09741" fill="none" stroke="black"/>
<path d="M548.457,30.7969v -14.1948" fill="none" stroke="black"/>
<path d="M548.457,30.7969v -14.1948" fill="none" stroke="black"/>
<path d="M68.5315,498.064v -481.461" fill="none" stroke="black"/>
<path d="M83.3283,498.064h -14.7969" fill="none" stroke="black"/>
<path d="M75.9299,481.169h -7.39843" fill="none" stroke="black"/>
<path d="M75.9299,464.275h -7.39843" fill="none" stroke="black"/>
<path d="M75.9299,447.38h -7.39843" fill="none" stroke="black"/>
<path d="M83.3283,430.486h -14.7969" fill="none" stroke="black"/>
<path d="M75.9299,413.591h -7.39843" fill="none" stroke="black"/>
<path d="M75.9299,396.697h -7.39843" fill="none" stroke="black"/>
<path d="M75.9299,379.803h -7.39843" fill="none" stroke="black"/>
<path d="M83.3283,362.908h -14.7969" fill="none" stroke="black"/>
<path d="M75.9299,346.014h -7.39843" fill="none" stroke="black"/>
<path d="M75.9299,329.119h -7.39843" fill="none" stroke="black"/>
<path d="M75.9299,312.225h -7.39843" fill="none" stroke="black"/>
<path d="M83.3283,295.33h -14.7969" fill="none" stroke="black"/>
<path d="M75.9299,278.436h -7.39843" fill="none" stroke="black"/>
<path d="M75.9299,261.542h -7.39843" fill="none" stroke="black"/>
<path d="M75.9299,244.647h -7.39843" fill="none" stroke="black"/>
<path d="M83.3283,227.753h -14.7969" fill="none" stroke="black"/>
<path d="M75.9299,210.858h -7.39843" fill="none" stroke="black"/>
<path d="M75.9299,193.964h -7.39843" fill="none" stroke="black"/>
<path d="M75.9299,177.069h -7.39843" fill="none" stroke="black"/>
<path d="M83.3283,160.175h -14.7969" fill="none" stroke="black"/>
<path d="M75.9299,143.281h -7.39843" fill="none" stroke="black"/>
<path d="M75.9299,126.386h -7.39843" fill="none" stroke="black"/>
<path d="M75.9299,109.492h -7.39843" fill="none" stroke="black"/>
<path d="M83.3283,92.5972h -14.7969" fill="none" stroke="black"/>
<path d="M75.9299,75.7028h -7.39843" fill="none" stroke="black"/>
<path d="M75.9299,58.8084h -7.39843" fill="none" stroke="black"/>
<path d="M75.9299,41.9139h -7.39843" fill="none" stroke="black"/>
<path d="M83.3283,25.0195h -14.7969" fill="none" stroke="black"/>
<path d="M83.3283,25.0195h -14.7969" fill="none" stroke="black"/>
<text xml:space="preserve" x="56.8548" y="503.248" fill="black" font-size="16.0105" font-family="Helvetica">0</text>
<text xml:space="preserve" x="43.8932" y="435.622" fill="black" font-size="16.0105" font-family="Helvetica">0.2</text>
<text xml:space="preserve" x="43.8932" y="367.997" fill="black" font-size="16.0105" font-family="Helvetica">0.4</text>
<text xml:space="preserve" x="43.8932" y="300.935" fill="black" font-size="16.0105" font-family="Helvetica">0.6</text>
<text xml:space="preserve" x="43.8932" y="233.309" fill="black" font-size="16.0105" font-family="Helvetica">0.8</text>
<text xml:space="preserve" x="59.6725" y="166.247" fill="black" font-size="16.0105" font-family="Helvetica">1</text>
<text xml:space="preserve" x="43.8932" y="98.6209" fill="black" font-size="16.0105" font-family="Helvetica">1.2</text>
<text xml:space="preserve" x="43.8932" y="30.9951" fill="black" font-size="16.0105" font-family="Helvetica">1.4</text>
<g transform="rotate(-90,38.2577,98.0573)">
<text xml:space="preserve" x="38.2577" y="98.0573" fill="black" font-size="16.0105" font-family="Helvetica">background</text>
</g>
<g transform="rotate(-90,21.9148,98.0573)">
<text xml:space="preserve" x="21.9148" y="98.0573" fill="black" font-size="16.0105" font-family="Helvetica">same event</text>
</g>
<path d="M24.169,98.0573l 0.563548, -81.7144" fill="none" stroke="black" stroke-width="2"/>
<path d="M553.256,498.064v -481.461" fill="none" stroke="black"/>
<path d="M538.459,498.064h 14.7969" fill="none" stroke="black"/>
<path d="M545.857,481.169h 7.39843" fill="none" stroke="black"/>
<path d="M545.857,464.275h 7.39843" fill="none" stroke="black"/>
<path d="M545.857,447.38h 7.39843" fill="none" stroke="black"/>
<path d="M538.459,430.486h 14.7969" fill="none" stroke="black"/>
<path d="M545.857,413.591h 7.39843" fill="none" stroke="black"/>
<path d="M545.857,396.697h 7.39843" fill="none" stroke="black"/>
<path d="M545.857,379.803h 7.39843" fill="none" stroke="black"/>
<path d="M538.459,362.908h 14.7969" fill="none" stroke="black"/>
<path d="M545.857,346.014h 7.39843" fill="none" stroke="black"/>
<path d="M545.857,329.119h 7.39843" fill="none" stroke="black"/>
<path d="M545.857,312.225h 7.39843" fill="none" stroke="black"/>
<path d="M538.459,295.33h 14.7969" fill="none" stroke="black"/>
<path d="M545.857,278.436h 7.39843" fill="none" stroke="black"/>
<path d="M545.857,261.542h 7.39843" fill="none" stroke="black"/>
<path d="M545.857,244.647h 7.39843" fill="none" stroke="black"/>
<path d="M538.459,227.753h 14.7969" fill="none" stroke="black"/>
<path d="M545.857,210.858h 7.39843" fill="none" stroke="black"/>
<path d="M545.857,193.964h 7.39843" fill="none" stroke="black"/>
<path d="M545.857,177.069h 7.39843" fill="none" stroke="black"/>
<path d="M538.459,160.175h 14.7969" fill="none" stroke="black"/>
<path d="M545.857,143.281h 7.39843" fill="none" stroke="black"/>
<path d="M545.857,126.386h 7.39843" fill="none" stroke="black"/>
<path d="M545.857,109.492h 7.39843" fill="none" stroke="black"/>
<path d="M538.459,92.5972h 14.7969" fill="none" stroke="black"/>
<path d="M545.857,75.7028h 7.39843" fill="none" stroke="black"/>
<path d="M545.857,58.8084h 7.39843" fill="none" stroke="black"/>
<path d="M545.857,41.9139h 7.39843" fill="none" stroke="black"/>
<path d="M538.459,25.0195h 14.7969" fill="none" stroke="black"/>
<path d="M538.459,25.0195h 14.7969" fill="none" stroke="black"/>
<g stroke="#333333" stroke-width="2" fill="none">
<circle cx="282.098" cy="269.658" r="5.63548"/>
</g>
<g stroke="#333333" stroke-width="2" fill="none">
<circle cx="286.897" cy="270.604" r="5.63548"/>
</g>
<g stroke="#333333" stroke-width="2" fill="none">
<circle cx="291.697" cy="263.618" r="5.63548"/>
</g>
<g stroke="#333333" stroke-width="2" fill="none">
<circle cx="296.496" cy="263.176" r="5.63548"/>
</g>
<g stroke="#333333" stroke-width="2" fill="none">
<circle cx="301.295" cy="260.552" r="5.63548"/>
</g>
<g stroke="#333333" stroke-width="2" fill="none">
<circle cx="306.094" cy="263.587" r="5.63548"/>
</g>
<g stroke="#333333" stroke-width="2" fill="none">
<circle cx="310.894" cy="264.18" r="5.63548"/>
</g>
<g stroke="#333333" stroke-width="2" fill="none">
<circle cx="315.693" cy="267.945" r="5.63548"/>
</g>
<g stroke="#333333" stroke-width="2" fill="none">
<circle cx="320.492" cy="269.678" r="5.63548"/>
</g>
<g stroke="#333333" stroke-width="2" fill="none">
<circle cx="325.291" cy="269.841" r="5.63548"/>
</g>
<g stroke="#333333" stroke-width="2" fill="none">
<circle cx="330.091" cy="269.619" r="5.63548"/>
</g>
<g stroke="#333333" stroke-width="2" fill="none">
<circle cx="334.89" cy="269.863" r="5.63548"/>
</g>
<path d="M98.7518,286.714l 0.44993, -0.0423547l 0.44993, -0.0423547l 0.44993, -0.0423547l 0.44993, -0.0423547l 0.44993, -0.0423547l 0.44993, -0.0423547l 0.44993, -0.0423547l 0.44993, -0.0423547l 0.44993, -0.0423547l 0.44993, -0.0423547l 0.44993,
 -0.0423547l 0.44993, -0.0423547l 0.44993, -0.0423547l 0.44993, -0.0423547l 0.44993, -0.0423547l 0.44993, -0.0423547l 0.44993, -0.0423547l 0.44993, -0.0423547l 0.44993, -0.0423547l 0.44993, -0.0423547l 0.44993, -0.0423547l 0.44993, -0.0423547l
 0.44993, -0.0423547l 0.44993, -0.0423547l 0.44993, -0.0423547l 0.44993, -0.0423547l 0.44993, -0.0423547l 0.44993, -0.0423547l 0.44993, -0.0423547l 0.44993, -0.0423547l 0.44993, -0.0423547l 0.44993, -0.0423547l 0.44993, -0.0423547l 0.44993,
 -0.0423547l 0.44993, -0.0423547l 0.44993, -0.0423547l 0.44993, -0.0423547l 0.44993, -0.0423547l 0.44993, -0.0423547l 0.44993, -0.0423547l 0.44993, -0.0423547l 0.44993, -0.0423547l 0.44993, -0.0423547l 0.44993, -0.0423547l 0.44993, -0.0423547l
 0.44993, -0.0423547l 0.44993, -0.0423547l 0.44993, -0.0423547l 0.44993, -0.0423547" fill="none" stroke="#33cccc" stroke-width="3"/>
<path d="M120.798,284.639l 0.44993, -0.0423547l 0.44993, -0.0423547l 0.44993, -0.0423547l 0.44993, -0.0423547l 0.44993, -0.0423547l 0.44993, -0.0423547l 0.44993, -0.0423547l 0.44993, -0.0423547l 0.44993, -0.0423547l 0.44993, -0.0423547l 0.44993,
 -0.0423547l 0.44993, -0.0423547l 0.44993, -0.0423547l 0.44993, -0.0423547l 0.44993, -0.0423547l 0.44993, -0.0423547l 0.44993, -0.0423547l 0.44993, -0.0423547l 0.44993, -0.0423547l 0.44993, -0.0423547l 0.44993, -0.0423547l 0.44993, -0.0423547l
 0.44993, -0.0423547l 0.44993, -0.0423547l 0.44993, -0.0423547l 0.44993, -0.0423547l 0.44993, -0.0423547l 0.44993, -0.0423547l 0.44993, -0.0423547l 0.44993, -0.0423547l 0.44993, -0.0423547l 0.44993, -0.0423547l 0.44993, -0.0423547l 0.44993,
 -0.0423547l 0.44993, -0.0423547l 0.44993, -0.0423547l 0.44993, -0.0423547l 0.44993, -0.0423547l 0.44993, -0.0423547l 0.44993, -0.0423547l 0.44993, -0.0423547l 0.44993, -0.0423547l 0.44993, -0.0423547l 0.44993, -0.0423547l 0.44993, -0.0423547l
 0.44993, -0.0423547l 0.44993, -0.0423547l 0.44993, -0.0423547l 0.44993, -0.0423547" fill="none" stroke="#33cccc" stroke-width="3"/>
<path d="M142.845,282.564l 0.44993, -0.0423547l 0.44993, -0.0423547l 0.44993, -0.0423547l 0.44993, -0.0423547l 0.44993, -0.0423547l 0.44993, -0.0423547l 0.44993, -0.0423547l 0.44993, -0.0423547l 0.44993, -0.0423547l 0.44993, -0.0423547l 0.44993,
 -0.0423547l 0.44993, -0.0423547l 0.44993, -0.0423547l 0.44993, -0.0423547l 0.44993, -0.0423547l 0.44993, -0.0423547l 0.44993, -0.0423547l 0.44993, -0.0423547l 0.44993, -0.0423547l 0.44993, -0.0423547l 0.44993, -0.0423547l 0.44993, -0.0423547l
 0.44993, -0.0423547l 0.44993, -0.0423547l 0.44993, -0.0423547l 0.44993, -0.0423547l 0.44993, -0.0423547l 0.44993, -0.0423547l 0.44993, -0.0423547l 0.44993, -0.0423547l 0.44993, -0.0423547l 0.44993, -0.0423547l 0.44993, -0.0423547l 0.44993,
 -0.0423547l 0.44993, -0.0423547l 0.44993, -0.0423547l 0.44993, -0.0423547l 0.44993, -0.0423547l 0.44993, -0.0423547l 0.44993, -0.0423547l 0.44993, -0.0423547l 0.44993, -0.0423547l 0.44993, -0.0423547l 0.44993, -0.0423547l 0.44993, -0.0423547l
 0.44993, -0.0423547l 0.44993, -0.0423547l 0.44993, -0.0423547l 0.44993, -0.0423547" fill="none" stroke="#33cccc" stroke-width="3"/>
<path d="M164.891,280.488l 0.44993, -0.0423547l 0.44993, -0.0423547l 0.44993, -0.0423547l 0.44993, -0.0423547l 0.44993, -0.0423547l 0.44993, -0.0423547l 0.44993, -0.0423547l 0.44993, -0.0423547l 0.44993, -0.0423547l 0.44993, -0.0423547l 0.44993,
 -0.0423547l 0.44993, -0.0423547l 0.44993, -0.0423547l 0.44993, -0.0423547l 0.44993, -0.0423547l 0.44993, -0.0423547l 0.44993, -0.0423547l 0.44993, -0.0423547l 0.44993, -0.0423547l 0.44993, -0.0423547l 0.44993, -0.0423547l 0.44993, -0.0423547l
 0.44993, -0.0423547l 0.44993, -0.0423547l 0.44993, -0.0423547l 0.44993, -0.0423547l 0.44993, -0.0423547l 0.44993, -0.0423547l 0.44993, -0.0423547l 0.44993, -0.0423547l 0.44993, -0.0423547l 0.44993, -0.0423547l 0.44993, -0.0423547l 0.44993,
 -0.0423547l 0.44993, -0.0423547l 0.44993, -0.0423547l 0.44993, -0.0423547l 0.44993, -0.0423547l 0.44993, -0.0423547l 0.44993, -0.0423547l 0.44993, -0.0423547l 0.44993, -0.0423547l 0.44993, -0.0423547l 0.44993, -0.0423547l 0.44993, -0.0423547l
 0.44993, -0.0423547l 0.44993, -0.0423547l 0.44993, -0.0423547l 0.44993, -0.0423547" fill="none" stroke="#33cccc" stroke-width="3"/>
<path d="M186.938,278.413l 0.44993, -0.0423547l 0.44993, -0.0423547l 0.44993, -0.0423547l 0.44993, -0.0423547l 0.44993, -0.0423547l 0.44993, -0.0423547l 0.44993, -0.0423547l 0.44993, -0.0423547l 0.44993, -0.0423547l 0.44993, -0.0423547l 0.44993,
 -0.0423547l 0.44993, -0.0423547l 0.44993, -0.0423547l 0.44993, -0.0423547l 0.44993, -0.0423547l 0.44993, -0.0423547l 0.44993, -0.0423547l 0.44993, -0.0423547l 0.44993, -0.0423547l 0.44993, -0.0423547l 0.44993, -0.0423547l 0.44993, -0.0423547l
 0.44993, -0.0423547l 0.44993, -0.0423547l 0.44993, -0.0423547l 0.44993, -0.0423547l 0.44993, -0.0423547l 0.44993, -0.0423547l 0.44993, -0.0423547l 0.44993, -0.0423547l 0.44993, -0.0423547l 0.44993, -0.0423547l 0.44993, -0.0423547l 0.44993,
 -0.0423547l 0.44993, -0.0423547l 0.44993, -0.0423547l 0.44993, -0.0423547l 0.44993, -0.0423547l 0.44993, -0.0423547l 0.44993, -0.0423547l 0.44993, -0.0423547l 0.44993, -0.0423547l 0.44993, -0.0423547l 0.44993, -0.0423547l 0.44993, -0.0423547l
 0.44993, -0.0423547l 0.44993, -0.0423547l 0.44993, -0.0423547l 0.44993, -0.0423547" fill="none" stroke="#33cccc" stroke-width="3"/>
<path d="M208.985,276.338l 0.44993, -0.0423547l 0.44993, -0.0423547l 0.44993, -0.0423547l 0.44993, -0.0423547l 0.44993, -0.0423547l 0.44993, -0.0423547l 0.44993, -0.0423547l 0.44993, -0.0423547l 0.44993, -0.0423547l 0.44993, -0.0423547l 0.44993,
 -0.0423547l 0.44993, -0.0423547l 0.44993, -0.0423547l 0.44993, -0.0423547l 0.44993, -0.0423547l 0.44993, -0.0423547l 0.44993, -0.0423547l 0.44993, -0.0423547l 0.44993, -0.0423547l 0.44993, -0.0423547l 0.44993, -0.0423547l 0.44993, -0.0423547l
 0.44993, -0.0423547l 0.44993, -0.0423547l 0.44993, -0.0423547l 0.44993, -0.0423547l 0.44993, -0.0423547l 0.44993, -0.0423547l 0.44993, -0.0423547l 0.44993, -0.0423547l 0.44993, -0.0423547l 0.44993, -0.0423547l 0.44993, -0.0423547l 0.44993,
 -0.0423547l 0.44993, -0.0423547l 0.44993, -0.0423547l 0.44993, -0.0423547l 0.44993, -0.0423547l 0.44993, -0.0423547l 0.44993, -0.0423547l 0.44993, -0.0423547l 0.44993, -0.0423547l 0.44993, -0.0423547l 0.44993, -0.0423547l 0.44993, -0.0423547l
 0.44993, -0.0423547l 0.44993, -0.0423547l 0.44993, -0.0423547l 0.44993, -0.0423547" fill="none" stroke="#33cccc" stroke-width="3"/>
<path d="M231.031,274.262l 0.44993, -0.0423547l 0.44993, -0.0423547l 0.44993, -0.0423547l 0.44993, -0.0423547l 0.44993, -0.0423547l 0.44993, -0.0423547l 0.44993, -0.0423547l 0.44993, -0.0423547l 0.44993, -0.0423547l 0.44993, -0.0423547l 0.44993,
 -0.0423547l 0.44993, -0.0423547l 0.44993, -0.0423547l 0.44993, -0.0423547l 0.44993, -0.0423547l 0.44993, -0.0423547l 0.44993, -0.0423547l 0.44993, -0.0423547l 0.44993, -0.0423547l 0.44993, -0.0423547l 0.44993, -0.0423547l 0.44993, -0.0423547l
 0.44993, -0.0423547l 0.44993, -0.0423547l 0.44993, -0.0423547l 0.44993, -0.0423547l 0.44993, -0.0423547l 0.44993, -0.0423547l 0.44993, -0.0423547l 0.44993, -0.0423547l 0.44993, -0.0423547l 0.44993, -0.0423547l 0.44993, -0.0423547l 0.44993,
 -0.0423547l 0.44993, -0.0423547l 0.44993, -0.0423547l 0.44993, -0.0423547l 0.44993, -0.0423547l 0.44993, -0.0423547l 0.44993, -0.0423547l 0.44993, -0.0423547l 0.44993, -0.0423547l 0.44993, -0.0423547l 0.44993, -0.0423547l 0.44993, -0.0423547l
 0.44993, -0.0423547l 0.44993, -0.0423547l 0.44993, -0.0423547l 0.44993, -0.0423547" fill="none" stroke="#33cccc" stroke-width="3"/>
<path d="M253.078,272.187l 0.44993, -0.0423547l 0.44993, -0.0423547l 0.44993, -0.0423547l 0.44993, -0.0423547l 0.44993, -0.0423547l 0.44993, -0.0423547l 0.44993, -0.0423547l 0.44993, -0.0423547l 0.44993, -0.0423547l 0.44993, -0.0423547l 0.44993,
 -0.0423547l 0.44993, -0.0423547l 0.44993, -0.0423547l 0.44993, -0.0423547l 0.44993, -0.0423547l 0.44993, -0.0423547l 0.44993, -0.0423547l 0.44993, -0.0423547l 0.44993, -0.0423547l 0.44993, -0.0423547l 0.44993, -0.0423547l 0.44993, -0.0423547l
 0.44993, -0.0423547l 0.44993, -0.0423547l 0.44993, -0.0423547l 0.44993, -0.0423547l 0.44993, -0.0423547l 0.44993, -0.0423547l 0.44993, -0.0423547l 0.44993, -0.0423547l 0.44993, -0.0423547l 0.44993, -0.0423547l 0.44993, -0.0423547l 0.44993,
 -0.0423547l 0.44993, -0.0423547l 0.44993, -0.0423547l 0.44993, -0.0423547l 0.44993, -0.0423547l 0.44993, -0.0423547l 0.44993, -0.0423547l 0.44993, -0.0423547l 0.44993, -0.0423547l 0.44993, -0.0423547l 0.44993, -0.0423547l 0.44993, -0.0423547l
 0.44993, -0.0423547l 0.44993, -0.0423547l 0.44993, -0.0423547l 0.44993, -0.0423547" fill="none" stroke="#33cccc" stroke-width="3"/>
<path d="M275.124,270.111l 0.44993, -0.0423547l 0.44993, -0.0423547l 0.44993, -0.0423547l 0.44993, -0.0423547l 0.44993, -0.0423547l 0.44993, -0.0423547l 0.44993, -0.0423547l 0.44993, -0.0423547l 0.44993, -0.0423547l 0.44993, -0.0423547l 0.44993,
 -0.0423547l 0.44993, -0.0423547l 0.44993, -0.0423547l 0.44993, -0.0423547l 0.44993, -0.0423547l 0.44993, -0.0423547l 0.44993, -0.0423547l 0.44993, -0.0423547l 0.44993, -0.0423547l 0.44993, -0.0423547l 0.44993, -0.0423547l 0.44993, -0.0423547l
 0.44993, -0.0423547l 0.44993, -0.0423547l 0.44993, -0.0423547l 0.44993, -0.0423547l 0.44993, -0.0423547l 0.44993, -0.0423547l 0.44993, -0.0423547l 0.44993, -0.0423547l 0.44993, -0.0423547l 0.44993, -0.0423547l 0.44993, -0.0423547l 0.44993,
 -0.0423547l 0.44993, -0.0423547l 0.44993, -0.0423547l 0.44993, -0.0423547l 0.44993, -0.0423547l 0.44993, -0.0423547l 0.44993, -0.0423547l 0.44993, -0.0423547l 0.44993, -0.0423547l 0.44993, -0.0423547l 0.44993, -0.0423547l 0.44993, -0.0423547l
 0.44993, -0.0423547l 0.44993, -0.0423547l 0.44993, -0.0423547l 0.44993, -0.0423547" fill="none" stroke="#33cccc" stroke-width="3"/>
<path d="M297.171,268.036l 0.44993, -0.0423547l 0.44993, -0.0423547l 0.44993, -0.0423547l 0.44993, -0.0423547l 0.44993, -0.0423547l 0.44993, -0.0423547l 0.44993, -0.0423547l 0.44993, -0.0423547l 0.44993, -0.0423547l 0.44993, -0.0423547l 0.44993,
 -0.0423547l 0.44993, -0.0423547l 0.44993, -0.0423547l 0.44993, -0.0423547l 0.44993, -0.0423547l 0.44993, -0.0423547l 0.44993, -0.0423547l 0.44993, -0.0423547l 0.44993, -0.0423547l 0.44993, -0.0423547l 0.44993, -0.0423547l 0.44993, -0.0423547l
 0.44993, -0.0423547l 0.44993, -0.0423547l 0.44993, -0.0423547l 0.44993, -0.0423547l 0.44993, -0.0423547l 0.44993, -0.0423547l 0.44993, -0.0423547l 0.44993, -0.0423547l 0.44993, -0.0423547l 0.44993, -0.0423547l 0.44993, -0.0423547l 0.44993,
 -0.0423547l 0.44993, -0.0423547l 0.44993, -0.0423547l 0.44993, -0.0423547l 0.44993, -0.0423547l 0.44993, -0.0423547l 0.44993, -0.0423547l 0.44993, -0.0423547l 0.44993, -0.0423547l 0.44993, -0.0423547l 0.44993, -0.0423547l 0.44993, -0.0423547l
 0.44993, -0.0423547l 0.44993, -0.0423547l 0.44993, -0.0423547l 0.44993, -0.0423547" fill="none" stroke="#33cccc" stroke-width="3"/>
<path d="M319.217,265.961l 0.44993, -0.0423547l 0.44993, -0.0423547l 0.44993, -0.0423547l 0.44993, -0.0423547l 0.44993, -0.0423547l 0.44993, -0.0423547l 0.44993, -0.0423547l 0.44993, -0.0423547l 0.44993, -0.0423547l 0.44993, -0.0423547l 0.44993,
 -0.0423547l 0.44993, -0.0423547l 0.44993, -0.0423547l 0.44993, -0.0423547l 0.44993, -0.0423547l 0.44993, -0.0423547l 0.44993, -0.0423547l 0.44993, -0.0423547l 0.44993, -0.0423547l 0.44993, -0.0423547l 0.44993, -0.0423547l 0.44993, -0.0423547l
 0.44993, -0.0423547l 0.44993, -0.0423547l 0.44993, -0.0423547l 0.44993, -0.0423547l 0.44993, -0.0423547l 0.44993, -0.0423547l 0.44993, -0.0423547l 0.44993, -0.0423547l 0.44993, -0.0423547l 0.44993, -0.0423547l 0.44993, -0.0423547l 0.44993,
 -0.0423547l 0.44993, -0.0423547l 0.44993, -0.0423547l 0.44993, -0.0423547l 0.44993, -0.0423547l 0.44993, -0.0423547l 0.44993, -0.0423547l 0.44993, -0.0423547l 0.44993, -0.0423547l 0.44993, -0.0423547l 0.44993, -0.0423547l 0.44993, -0.0423547l
 0.44993, -0.0423547l 0.44993, -0.0423547l 0.44993, -0.0423547l 0.44993, -0.0423547" fill="none" stroke="#33cccc" stroke-width="3"/>
<path d="M341.264,263.885l 0.44993, -0.0423547l 0.44993, -0.0423547l 0.44993, -0.0423547l 0.44993, -0.0423547l 0.44993, -0.0423547l 0.44993, -0.0423547l 0.44993, -0.0423547l 0.44993, -0.0423547l 0.44993, -0.0423547l 0.44993, -0.0423547l 0.44993,
 -0.0423547l 0.44993, -0.0423547l 0.44993, -0.0423547l 0.44993, -0.0423547l 0.44993, -0.0423547l 0.44993, -0.0423547l 0.44993, -0.0423547l 0.44993, -0.0423547l 0.44993, -0.0423547l 0.44993, -0.0423547l 0.44993, -0.0423547l 0.44993, -0.0423547l
 0.44993, -0.0423547l 0.44993, -0.0423547l 0.44993, -0.0423547l 0.44993, -0.0423547l 0.44993, -0.0423547l 0.44993, -0.0423547l 0.44993, -0.0423547l 0.44993, -0.0423547l 0.44993, -0.0423547l 0.44993, -0.0423547l 0.44993, -0.0423547l 0.44993,
 -0.0423547l 0.44993, -0.0423547l 0.44993, -0.0423547l 0.44993, -0.0423547l 0.44993, -0.0423547l 0.44993, -0.0423547l 0.44993, -0.0423547l 0.44993, -0.0423547l 0.44993, -0.0423547l 0.44993, -0.0423547l 0.44993, -0.0423547l 0.44993, -0.0423547l
 0.44993, -0.0423547l 0.44993, -0.0423547l 0.44993, -0.0423547l 0.44993, -0.0423547" fill="none" stroke="#33cccc" stroke-width="3"/>
<path d="M363.311,261.81l 0.44993, -0.0423547l 0.44993, -0.0423547l 0.44993, -0.0423547l 0.44993, -0.0423547l 0.44993, -0.0423547l 0.44993, -0.0423547l 0.44993, -0.0423547l 0.44993, -0.0423547l 0.44993, -0.0423547l 0.44993, -0.0423547l 0.44993,
 -0.0423547l 0.44993, -0.0423547l 0.44993, -0.0423547l 0.44993, -0.0423547l 0.44993, -0.0423547l 0.44993, -0.0423547l 0.44993, -0.0423547l 0.44993, -0.0423547l 0.44993, -0.0423547l 0.44993, -0.0423547l 0.44993, -0.0423547l 0.44993, -0.0423547l
 0.44993, -0.0423547l 0.44993, -0.0423547l 0.44993, -0.0423547l 0.44993, -0.0423547l 0.44993, -0.0423547l 0.44993, -0.0423547l 0.44993, -0.0423547l 0.44993, -0.0423547l 0.44993, -0.0423547l 0.44993, -0.0423547l 0.44993, -0.0423547l 0.44993,
 -0.0423547l 0.44993, -0.0423547l 0.44993, -0.0423547l 0.44993, -0.0423547l 0.44993, -0.0423547l 0.44993, -0.0423547l 0.44993, -0.0423547l 0.44993, -0.0423547l 0.44993, -0.0423547l 0.44993, -0.0423547l 0.44993, -0.0423547l 0.44993, -0.0423547l
 0.44993, -0.0423547l 0.44993, -0.0423547l 0.44993, -0.0423547l 0.44993, -0.0423547" fill="none" stroke="#33cccc" stroke-width="3"/>
<path d="M385.357,259.734l 0.44993, -0.0423547l 0.44993, -0.0423547l 0.44993, -0.0423547l 0.44993, -0.0423547l 0.44993, -0.0423547l 0.44993, -0.0423547l 0.44993, -0.0423547l 0.44993, -0.0423547l 0.44993, -0.0423547l 0.44993, -0.0423547l 0.44993,
 -0.0423547l 0.44993, -0.0423547l 0.44993, -0.0423547l 0.44993, -0.0423547l 0.44993, -0.0423547l 0.44993, -0.0423547l 0.44993, -0.0423547l 0.44993, -0.0423547l 0.44993, -0.0423547l 0.44993, -0.0423547l 0.44993, -0.0423547l 0.44993, -0.0423547l
 0.44993, -0.0423547l 0.44993, -0.0423547l 0.44993, -0.0423547l 0.44993, -0.0423547l 0.44993, -0.0423547l 0.44993, -0.0423547l 0.44993, -0.0423547l 0.44993, -0.0423547l 0.44993, -0.0423547l 0.44993, -0.0423547l 0.44993, -0.0423547l 0.44993,
 -0.0423547l 0.44993, -0.0423547l 0.44993, -0.0423547l 0.44993, -0.0423547l 0.44993, -0.0423547l 0.44993, -0.0423547l 0.44993, -0.0423547l 0.44993, -0.0423547l 0.44993, -0.0423547l 0.44993, -0.0423547l 0.44993, -0.0423547l 0.44993, -0.0423547l
 0.44993, -0.0423547l 0.44993, -0.0423547l 0.44993, -0.0423547l 0.44993, -0.0423547" fill="none" stroke="#33cccc" stroke-width="3"/>
<path d="M407.404,257.659l 0.44993, -0.0423547l 0.44993, -0.0423547l 0.44993, -0.0423547l 0.44993, -0.0423547l 0.44993, -0.0423547l 0.44993, -0.0423547l 0.44993, -0.0423547l 0.44993, -0.0423547l 0.44993, -0.0423547l 0.44993, -0.0423547l 0.44993,
 -0.0423547l 0.44993, -0.0423547l 0.44993, -0.0423547l 0.44993, -0.0423547l 0.44993, -0.0423547l 0.44993, -0.0423547l 0.44993, -0.0423547l 0.44993, -0.0423547l 0.44993, -0.0423547l 0.44993, -0.0423547l 0.44993, -0.0423547l 0.44993, -0.0423547l
 0.44993, -0.0423547l 0.44993, -0.0423547l 0.44993, -0.0423547l 0.44993, -0.0423547l 0.44993, -0.0423547l 0.44993, -0.0423547l 0.44993, -0.0423547l 0.44993, -0.0423547l 0.44993, -0.0423547l 0.44993, -0.0423547l 0.44993, -0.0423547l 0.44993,
 -0.0423547l 0.44993, -0.0423547l 0.44993, -0.0423547l 0.44993, -0.0423547l 0.44993, -0.0423547l 0.44993, -0.0423547l 0.44993, -0.0423547l 0.44993, -0.0423547l 0.44993, -0.0423547l 0.44993, -0.0423547l 0.44993, -0.0423547l 0.44993, -0.0423547l
 0.44993, -0.0423547l 0.44993, -0.0423547l 0.44993, -0.0423547l 0.44993, -0.0423547" fill="none" stroke="#33cccc" stroke-width="3"/>
<path d="M429.45,255.584l 0.44993, -0.0423547l 0.44993, -0.0423547l 0.44993, -0.0423547l 0.44993, -0.0423547l 0.44993, -0.0423547l 0.44993, -0.0423547l 0.44993, -0.0423547l 0.44993, -0.0423547l 0.44993, -0.0423547l 0.44993, -0.0423547l 0.44993,
 -0.0423547l 0.44993, -0.0423547l 0.44993, -0.0423547l 0.44993, -0.0423547l 0.44993, -0.0423547l 0.44993, -0.0423547l 0.44993, -0.0423547l 0.44993, -0.0423547l 0.44993, -0.0423547l 0.44993, -0.0423547l 0.44993, -0.0423547l 0.44993, -0.0423547l
 0.44993, -0.0423547l 0.44993, -0.0423547l 0.44993, -0.0423547l 0.44993, -0.0423547l 0.44993, -0.0423547l 0.44993, -0.0423547l 0.44993, -0.0423547l 0.44993, -0.0423547l 0.44993, -0.0423547l 0.44993, -0.0423547l 0.44993, -0.0423547l 0.44993,
 -0.0423547l 0.44993, -0.0423547l 0.44993, -0.0423547l 0.44993, -0.0423547l 0.44993, -0.0423547l 0.44993, -0.0423547l 0.44993, -0.0423547l 0.44993, -0.0423547l 0.44993, -0.0423547l 0.44993, -0.0423547l 0.44993, -0.0423547l 0.44993, -0.0423547l
 0.44993, -0.0423547l 0.44993, -0.0423547l 0.44993, -0.0423547l 0.44993, -0.0423547" fill="none" stroke="#33cccc" stroke-width="3"/>
<path d="M451.497,253.508l 0.44993, -0.0423547l 0.44993, -0.0423547l 0.44993, -0.0423547l 0.44993, -0.0423547l 0.44993, -0.0423547l 0.44993, -0.0423547l 0.44993, -0.0423547l 0.44993, -0.0423547l 0.44993, -0.0423547l 0.44993, -0.0423547l 0.44993,
 -0.0423547l 0.44993, -0.0423547l 0.44993, -0.0423547l 0.44993, -0.0423547l 0.44993, -0.0423547l 0.44993, -0.0423547l 0.44993, -0.0423547l 0.44993, -0.0423547l 0.44993, -0.0423547l 0.44993, -0.0423547l 0.44993, -0.0423547l 0.44993, -0.0423547l
 0.44993, -0.0423547l 0.44993, -0.0423547l 0.44993, -0.0423547l 0.44993, -0.0423547l 0.44993, -0.0423547l 0.44993, -0.0423547l 0.44993, -0.0423547l 0.44993, -0.0423547l 0.44993, -0.0423547l 0.44993, -0.0423547l 0.44993, -0.0423547l 0.44993,
 -0.0423547l 0.44993, -0.0423547l 0.44993, -0.0423547l 0.44993, -0.0423547l 0.44993, -0.0423547l 0.44993, -0.0423547l 0.44993, -0.0423547l 0.44993, -0.0423547l 0.44993, -0.0423547l 0.44993, -0.0423547l 0.44993, -0.0423547l 0.44993, -0.0423547l
 0.44993, -0.0423547l 0.44993, -0.0423547l 0.44993, -0.0423547l 0.44993, -0.0423547" fill="none" stroke="#33cccc" stroke-width="3"/>
<path d="M473.543,251.433l 0.44993, -0.0423547l 0.44993, -0.0423547l 0.44993, -0.0423547l 0.44993, -0.0423547l 0.44993, -0.0423547l 0.44993, -0.0423547l 0.44993, -0.0423547l 0.44993, -0.0423547l 0.44993, -0.0423547l 0.44993, -0.0423547l 0.44993,
 -0.0423547l 0.44993, -0.0423547l 0.44993, -0.0423547l 0.44993, -0.0423547l 0.44993, -0.0423547l 0.44993, -0.0423547l 0.44993, -0.0423547l 0.44993, -0.0423547l 0.44993, -0.0423547l 0.44993, -0.0423547l 0.44993, -0.0423547l 0.44993, -0.0423547l
 0.44993, -0.0423547l 0.44993, -0.0423547l 0.44993, -0.0423547l 0.44993, -0.0423547l 0.44993, -0.0423547l 0.44993, -0.0423547l 0.44993, -0.0423547l 0.44993, -0.0423547l 0.44993, -0.0423547l 0.44993, -0.0423547l 0.44993, -0.0423547l 0.44993,
 -0.0423547l 0.44993, -0.0423547l 0.44993, -0.0423547l 0.44993, -0.0423547l 0.44993, -0.0423547l 0.44993, -0.0423547l 0.44993, -0.0423547l 0.44993, -0.0423547l 0.44993, -0.0423547l 0.44993, -0.0423547l 0.44993, -0.0423547l 0.44993, -0.0423547l
 0.44993, -0.0423547l 0.44993, -0.0423547l 0.44993, -0.0423547l 0.44993, -0.0423547" fill="none" stroke="#33cccc" stroke-width="3"/>
<path d="M495.59,249.358l 0.44993, -0.0423547l 0.44993, -0.0423547l 0.44993, -0.0423547l 0.44993, -0.0423547l 0.44993, -0.0423547l 0.44993, -0.0423547l 0.44993, -0.0423547l 0.44993, -0.0423547l 0.44993, -0.0423547l 0.44993, -0.0423547l 0.44993,
 -0.0423547l 0.44993, -0.0423547l 0.44993, -0.0423547l 0.44993, -0.0423547l 0.44993, -0.0423547l 0.44993, -0.0423547l 0.44993, -0.0423547l 0.44993, -0.0423547l 0.44993, -0.0423547l 0.44993, -0.0423547l 0.44993, -0.0423547l 0.44993, -0.0423547l
 0.44993, -0.0423547l 0.44993, -0.0423547l 0.44993, -0.0423547l 0.44993, -0.0423547l 0.44993, -0.0423547l 0.44993, -0.0423547l 0.44993, -0.0423547l 0.44993, -0.0423547l 0.44993, -0.0423547l 0.44993, -0.0423547l 0.44993, -0.0423547l 0.44993,
 -0.0423547l 0.44993, -0.0423547l 0.44993, -0.0423547l 0.44993, -0.0423547l 0.44993, -0.0423547l 0.44993, -0.0423547l 0.44993, -0.0423547l 0.44993, -0.0423547l 0.44993, -0.0423547l 0.44993, -0.0423547l 0.44993, -0.0423547l 0.44993, -0.0423547l
 0.44993, -0.0423547l 0.44993, -0.0423547l 0.44993, -0.0423547l 0.44993, -0.0423547" fill="none" stroke="#33cccc" stroke-width="3"/>
<path d="M517.636,247.282l 0.44993, -0.0423547l 0.44993, -0.0423547l 0.44993, -0.0423547l 0.44993, -0.0423547l 0.44993, -0.0423547l 0.44993, -0.0423547l 0.44993, -0.0423547l 0.44993, -0.0423547l 0.44993, -0.0423547l 0.44993, -0.0423547l 0.44993,
 -0.0423547l 0.44993, -0.0423547l 0.44993, -0.0423547l 0.44993, -0.0423547l 0.44993, -0.0423547l 0.44993, -0.0423547l 0.44993, -0.0423547l 0.44993, -0.0423547l 0.44993, -0.0423547l 0.44993, -0.0423547l 0.44993, -0.0423547l 0.44993, -0.0423547l
 0.44993, -0.0423547l 0.44993, -0.0423547l 0.44993, -0.0423547l 0.44993, -0.0423547l 0.44993, -0.0423547l 0.44993, -0.0423547l 0.44993, -0.0423547l 0.44993, -0.0423547l 0.44993, -0.0423547l 0.44993, -0.0423547l 0.44993, -0.0423547l 0.44993,
 -0.0423547l 0.44993, -0.0423547l 0.44993, -0.0423547l 0.44993, -0.0423547l 0.44993, -0.0423547l 0.44993, -0.0423547l 0.44993, -0.0423547l 0.44993, -0.0423547l 0.44993, -0.0423547l 0.44993, -0.0423547l 0.44993, -0.0423547l 0.44993, -0.0423547l
 0.44993, -0.0423547l 0.44993, -0.0423547l 0.44993, -0.0423547l 0.44993, -0.0423547" fill="none" stroke="#33cccc" stroke-width="3"/>
<path d="M539.683,245.207l 0.44993, -0.0423547l 0.44993, -0.0423547l 0.44993, -0.0423547l 0.44993, -0.0423547l 0.44993, -0.0423547l 0.44993, -0.0423547l 0.44993, -0.0423547l 0.44993, -0.0423547l 0.44993, -0.0423547l 0.44993, -0.0423547l 0.44993,
 -0.0423547l 0.44993, -0.0423547l 0.44993, -0.0423547l 0.44993, -0.0423547l 0.44993, -0.0423547l 0.44993, -0.0423547l 0.44993, -0.0423547l 0.44993, -0.0423547l 0.44993, -0.0423547" fill="none" stroke="#33cccc" stroke-width="3"/>
<path d="M98.7518,236.285l 0.44993, 0.143097l 0.44993, 0.142785l 0.44993, 0.142473l 0.44993, 0.142161l 0.44993, 0.141849l 0.44993, 0.141537l 0.44993, 0.141225l 0.44993, 0.140913l 0.44993, 0.140602l 0.44993, 0.14029l 0.44993, 0.139978l 0.44993,
 0.139666l 0.44993, 0.139354l 0.44993, 0.139042l 0.44993, 0.13873l 0.44993, 0.138418l 0.44993, 0.138106l 0.44993, 0.137794l 0.44993, 0.137482l 0.44993, 0.13717l 0.44993, 0.136858l 0.44993, 0.136546l 0.44993, 0.136234l 0.44993, 0.135922l 0.44993,
 0.13561l 0.44993, 0.135298l 0.44993, 0.134986l 0.44993, 0.134674l 0.44993, 0.134363l 0.44993, 0.134051l 0.44993, 0.133739l 0.44993, 0.133427l 0.44993, 0.133115l 0.44993, 0.132803l 0.44993, 0.132491l 0.44993, 0.132179l 0.44993, 0.131867l 0.44993,
 0.131555l 0.44993, 0.131243l 0.44993, 0.130931l 0.44993, 0.130619l 0.44993, 0.130307l 0.44993, 0.129995l 0.44993, 0.129683l 0.44993, 0.129371l 0.44993, 0.129059l 0.44993, 0.128747l 0.44993, 0.128436l 0.44993, 0.128124" fill="none" stroke="#ff0066"
 stroke-width="3"/>
<path d="M120.798,242.93l 0.44993, 0.127812l 0.44993, 0.1275l 0.44993, 0.127188l 0.44993, 0.126876l 0.44993, 0.126564l 0.44993, 0.126252l 0.44993, 0.12594l 0.44993, 0.125628l 0.44993, 0.125316l 0.44993, 0.125004l 0.44993, 0.124692l 0.44993, 0.12438l
 0.44993, 0.124068l 0.44993, 0.123756l 0.44993, 0.123444l 0.44993, 0.123132l 0.44993, 0.12282l 0.44993, 0.122508l 0.44993, 0.122197l 0.44993, 0.121885l 0.44993, 0.121573l 0.44993, 0.121261l 0.44993, 0.120949l 0.44993, 0.120637l 0.44993, 0.120325l
 0.44993, 0.120013l 0.44993, 0.119701l 0.44993, 0.119389l 0.44993, 0.119077l 0.44993, 0.118765l 0.44993, 0.118453l 0.44993, 0.118141l 0.44993, 0.117829l 0.44993, 0.117517l 0.44993, 0.117205l 0.44993, 0.116893l 0.44993, 0.116581l 0.44993, 0.116269l
 0.44993, 0.115958l 0.44993, 0.115646l 0.44993, 0.115334l 0.44993, 0.115022l 0.44993, 0.11471l 0.44993, 0.114398l 0.44993, 0.114086l 0.44993, 0.113774l 0.44993, 0.113462l 0.44993, 0.11315l 0.44993, 0.112838" fill="none" stroke="#ff0066"
 stroke-width="3"/>
<path d="M142.845,248.826l 0.44993, 0.112526l 0.44993, 0.112214l 0.44993, 0.111902l 0.44993, 0.11159l 0.44993, 0.111278l 0.44993, 0.110966l 0.44993, 0.110654l 0.44993, 0.110342l 0.44993, 0.11003l 0.44993, 0.109719l 0.44993, 0.109407l 0.44993,
 0.109095l 0.44993, 0.108783l 0.44993, 0.108471l 0.44993, 0.108159l 0.44993, 0.107847l 0.44993, 0.107535l 0.44993, 0.107223l 0.44993, 0.106911l 0.44993, 0.106599l 0.44993, 0.106287l 0.44993, 0.105975l 0.44993, 0.105663l 0.44993, 0.105351l 0.44993,
 0.105039l 0.44993, 0.104727l 0.44993, 0.104415l 0.44993, 0.104103l 0.44993, 0.103791l 0.44993, 0.10348l 0.44993, 0.103168l 0.44993, 0.102856l 0.44993, 0.102544l 0.44993, 0.102232l 0.44993, 0.10192l 0.44993, 0.101608l 0.44993, 0.101296l 0.44993,
 0.100984l 0.44993, 0.100672l 0.44993, 0.10036l 0.44993, 0.100048l 0.44993, 0.0997361l 0.44993, 0.0994242l 0.44993, 0.0991122l 0.44993, 0.0988003l 0.44993, 0.0984884l 0.44993, 0.0981764l 0.44993, 0.0978644l 0.44993, 0.0975525" fill="none"
 stroke="#ff0066" stroke-width="3"/>
<path d="M164.891,253.973l 0.44993, 0.0972406l 0.44993, 0.0969286l 0.44993, 0.0966167l 0.44993, 0.0963047l 0.44993, 0.0959928l 0.44993, 0.0956808l 0.44993, 0.0953689l 0.44993, 0.0950569l 0.44993, 0.094745l 0.44993, 0.094433l 0.44993, 0.0941211l
 0.44993, 0.0938091l 0.44993, 0.0934972l 0.44993, 0.0931852l 0.44993, 0.0928733l 0.44993, 0.0925613l 0.44993, 0.0922494l 0.44993, 0.0919374l 0.44993, 0.0916255l 0.44993, 0.0913135l 0.44993, 0.0910016l 0.44993, 0.0906896l 0.44993, 0.0903777l 0.44993,
 0.0900657l 0.44993, 0.0897538l 0.44993, 0.0894418l 0.44993, 0.0891299l 0.44993, 0.0888179l 0.44993, 0.088506l 0.44993, 0.088194l 0.44993, 0.0878821l 0.44993, 0.0875701l 0.44993, 0.0872582l 0.44993, 0.0869462l 0.44993, 0.0866343l 0.44993, 0.0863223l
 0.44993, 0.0860104l 0.44993, 0.0856984l 0.44993, 0.0853865l 0.44993, 0.0850745l 0.44993, 0.0847626l 0.44993, 0.0844506l 0.44993, 0.0841387l 0.44993, 0.0838267l 0.44993, 0.0835148l 0.44993, 0.0832028l 0.44993, 0.0828909l 0.44993, 0.0825789l 0.44993,
 0.082267" fill="none" stroke="#ff0066" stroke-width="3"/>
<path d="M186.938,258.371l 0.44993, 0.081955l 0.44993, 0.0816431l 0.44993, 0.0813311l 0.44993, 0.0810192l 0.44993, 0.0807072l 0.44993, 0.0803953l 0.44993, 0.0800833l 0.44993, 0.0797714l 0.44993, 0.0794594l 0.44993, 0.0791475l 0.44993, 0.0788355l
 0.44993, 0.0785236l 0.44993, 0.0782116l 0.44993, 0.0778997l 0.44993, 0.0775877l 0.44993, 0.0772758l 0.44993, 0.0769638l 0.44993, 0.0766519l 0.44993, 0.0763399l 0.44993, 0.076028l 0.44993, 0.075716l 0.44993, 0.0754041l 0.44993, 0.0750921l 0.44993,
 0.0747802l 0.44993, 0.0744682l 0.44993, 0.0741563l 0.44993, 0.0738443l 0.44993, 0.0735324l 0.44993, 0.0732204l 0.44993, 0.0729085l 0.44993, 0.0725965l 0.44993, 0.0722846l 0.44993, 0.0719726l 0.44993, 0.0716607l 0.44993, 0.0713487l 0.44993,
 0.0710368l 0.44993, 0.0707248l 0.44993, 0.0704129l 0.44993, 0.0701009l 0.44993, 0.069789l 0.44993, 0.0694771l 0.44993, 0.0691651l 0.44993, 0.0688532l 0.44993, 0.0685412l 0.44993, 0.0682293l 0.44993, 0.0679173l 0.44993, 0.0676054l 0.44993, 0.0672934l
 0.44993, 0.0669815" fill="none" stroke="#ff0066" stroke-width="3"/>
<path d="M208.985,262.02l 0.44993, 0.0666695l 0.44993, 0.0663576l 0.44993, 0.0660456l 0.44993, 0.0657337l 0.44993, 0.0654217l 0.44993, 0.0651098l 0.44993, 0.0647978l 0.44993, 0.0644859l 0.44993, 0.0641739l 0.44993, 0.063862l 0.44993, 0.06355l
 0.44993, 0.0632381l 0.44993, 0.0629261l 0.44993, 0.0626142l 0.44993, 0.0623022l 0.44993, 0.0619903l 0.44993, 0.0616783l 0.44993, 0.0613664l 0.44993, 0.0610544l 0.44993, 0.0607425l 0.44993, 0.0604305l 0.44993, 0.0601186l 0.44993, 0.0598066l 0.44993,
 0.0594947l 0.44993, 0.0591827l 0.44993, 0.0588708l 0.44993, 0.0585588l 0.44993, 0.0582469l 0.44993, 0.0579349l 0.44993, 0.057623l 0.44993, 0.057311l 0.44993, 0.0569991l 0.44993, 0.0566871l 0.44993, 0.0563752l 0.44993, 0.0560632l 0.44993, 0.0557513l
 0.44993, 0.0554393l 0.44993, 0.0551274l 0.44993, 0.0548154l 0.44993, 0.0545035l 0.44993, 0.0541915l 0.44993, 0.0538796l 0.44993, 0.0535676l 0.44993, 0.0532557l 0.44993, 0.0529437l 0.44993, 0.0526318l 0.44993, 0.0523198l 0.44993, 0.0520079l 0.44993,
 0.0516959" fill="none" stroke="#ff0066" stroke-width="3"/>
<path d="M231.031,264.92l 0.44993, 0.051384l 0.44993, 0.051072l 0.44993, 0.0507601l 0.44993, 0.0504481l 0.44993, 0.0501362l 0.44993, 0.0498242l 0.44993, 0.0495123l 0.44993, 0.0492003l 0.44993, 0.0488884l 0.44993, 0.0485764l 0.44993, 0.0482645l
 0.44993, 0.0479525l 0.44993, 0.0476406l 0.44993, 0.0473286l 0.44993, 0.0470167l 0.44993, 0.0467047l 0.44993, 0.0463928l 0.44993, 0.0460808l 0.44993, 0.0457689l 0.44993, 0.0454569l 0.44993, 0.045145l 0.44993, 0.044833l 0.44993, 0.0445211l 0.44993,
 0.0442091l 0.44993, 0.0438972l 0.44993, 0.0435852l 0.44993, 0.0432733l 0.44993, 0.0429613l 0.44993, 0.0426494l 0.44993, 0.0423374l 0.44993, 0.0420255l 0.44993, 0.0417135l 0.44993, 0.0414016l 0.44993, 0.0410897l 0.44993, 0.0407777l 0.44993,
 0.0404657l 0.44993, 0.0401538l 0.44993, 0.0398418l 0.44993, 0.0395299l 0.44993, 0.039218l 0.44993, 0.038906l 0.44993, 0.0385941l 0.44993, 0.0382821l 0.44993, 0.0379702l 0.44993, 0.0376582l 0.44993, 0.0373463l 0.44993, 0.0370343l 0.44993, 0.0367224l
 0.44993, 0.0364104" fill="none" stroke="#ff0066" stroke-width="3"/>
<path d="M253.078,267.071l 0.44993, 0.0360985l 0.44993, 0.0357865l 0.44993, 0.0354746l 0.44993, 0.0351626l 0.44993, 0.0348507l 0.44993, 0.0345387l 0.44993, 0.0342268l 0.44993, 0.0339148l 0.44993, 0.0336029l 0.44993, 0.0332909l 0.44993, 0.032979l
 0.44993, 0.032667l 0.44993, 0.0323551l 0.44993, 0.0320431l 0.44993, 0.0317312l 0.44993, 0.0314192l 0.44993, 0.0311073l 0.44993, 0.0307953l 0.44993, 0.0304834l 0.44993, 0.0301714l 0.44993, 0.0298595l 0.44993, 0.0295475l 0.44993, 0.0292356l 0.44993,
 0.0289236l 0.44993, 0.0286117l 0.44993, 0.0282997l 0.44993, 0.0279878l 0.44993, 0.0276758l 0.44993, 0.0273639l 0.44993, 0.0270519l 0.44993, 0.02674l 0.44993, 0.026428l 0.44993, 0.0261161l 0.44993, 0.0258041l 0.44993, 0.0254922l 0.44993, 0.0251802l
 0.44993, 0.0248683l 0.44993, 0.0245563l 0.44993, 0.0242444l 0.44993, 0.0239324l 0.44993, 0.0236205l 0.44993, 0.0233085l 0.44993, 0.0229966l 0.44993, 0.0226846l 0.44993, 0.0223727l 0.44993, 0.0220607l 0.44993, 0.0217488l 0.44993, 0.0214368l 0.44993,
 0.0211249" fill="none" stroke="#ff0066" stroke-width="3"/>
<path d="M275.124,268.473l 0.44993, 0.0208129l 0.44993, 0.020501l 0.44993, 0.020189l 0.44993, 0.0198771l 0.44993, 0.0195651l 0.44993, 0.0192532l 0.44993, 0.0189412l 0.44993, 0.0186293l 0.44993, 0.0183173l 0.44993, 0.0180054l 0.44993, 0.0176934l
 0.44993, 0.0173815l 0.44993, 0.0170695l 0.44993, 0.0167576l 0.44993, 0.0164456l 0.44993, 0.0161337l 0.44993, 0.0158217l 0.44993, 0.0155098l 0.44993, 0.0151978l 0.44993, 0.0148859l 0.44993, 0.0145739l 0.44993, 0.014262l 0.44993, 0.01395l 0.44993,
 0.0136381l 0.44993, 0.0133261l 0.44993, 0.0130142l 0.44993, 0.0127022l 0.44993, 0.0123903l 0.44993, 0.0120783l 0.44993, 0.0117664l 0.44993, 0.0114544l 0.44993, 0.0111425l 0.44993, 0.0108306l 0.44993, 0.0105186l 0.44993, 0.0102067l 0.44993,
 0.0098947l 0.44993, 0.00958275l 0.44993, 0.0092708l 0.44993, 0.00895885l 0.44993, 0.0086469l 0.44993, 0.00833495l 0.44993, 0.008023l 0.44993, 0.00771106l 0.44993, 0.00739911l 0.44993, 0.00708716l 0.44993, 0.00677521l 0.44993, 0.00646326l 0.44993,
 0.00615131l 0.44993, 0.00583936" fill="none" stroke="#ff0066" stroke-width="3"/>
<path d="M297.171,269.126l 0.44993, 0.00552741l 0.44993, 0.00521546l 0.44993, 0.00490351l 0.44993, 0.00459156l 0.44993, 0.00427961l 0.44993, 0.00396766l 0.44993, 0.00365571l 0.44993, 0.00334376l 0.44993, 0.00303181l 0.44993, 0.00271986l 0.44993,
 0.00240791l 0.44993, 0.00209596l 0.44993, 0.00178402l 0.44993, 0.00147207l 0.44993, 0.00116012l 0.44993, 0.000848167l 0.44993, 0.000536218l 0.44993, 0.000224268l 0.44993, -8.76814e-05l 0.44993, -0.000399631l 0.44993, -0.00071158l 0.44993,
 -0.00102353l 0.44993, -0.00133548l 0.44993, -0.00164743l 0.44993, -0.00195938l 0.44993, -0.00227133l 0.44993, -0.00258328l 0.44993, -0.00289523l 0.44993, -0.00320718l 0.44993, -0.00351913l 0.44993, -0.00383108l 0.44993, -0.00414302l 0.44993,
 -0.00445497l 0.44993, -0.00476692l 0.44993, -0.00507887l 0.44993, -0.00539082l 0.44993, -0.00570277l 0.44993, -0.00601472l 0.44993, -0.00632667l 0.44993, -0.00663862l 0.44993, -0.00695057l 0.44993, -0.00726252l 0.44993, -0.00757447l 0.44993,
 -0.00788642l 0.44993, -0.00819837l 0.44993, -0.00851032l 0.44993, -0.00882227l 0.44993, -0.00913422l 0.44993, -0.00944617" fill="none" stroke="#ff0066" stroke-width="3"/>
<path d="M319.217,269.03l 0.44993, -0.00975811l 0.44993, -0.0100701l 0.44993, -0.010382l 0.44993, -0.010694l 0.44993, -0.0110059l 0.44993, -0.0113179l 0.44993, -0.0116298l 0.44993, -0.0119418l 0.44993, -0.0122537l 0.44993, -0.0125657l 0.44993,
 -0.0128776l 0.44993, -0.0131896l 0.44993, -0.0135015l 0.44993, -0.0138135l 0.44993, -0.0141254l 0.44993, -0.0144374l 0.44993, -0.0147493l 0.44993, -0.0150613l 0.44993, -0.0153732l 0.44993, -0.0156852l 0.44993, -0.0159971l 0.44993, -0.0163091l
 0.44993, -0.016621l 0.44993, -0.016933l 0.44993, -0.0172449l 0.44993, -0.0175569l 0.44993, -0.0178688l 0.44993, -0.0181808l 0.44993, -0.0184927l 0.44993, -0.0188046l 0.44993, -0.0191166l 0.44993, -0.0194285l 0.44993, -0.0197405l 0.44993, -0.0200524l
 0.44993, -0.0203644l 0.44993, -0.0206763l 0.44993, -0.0209883l 0.44993, -0.0213002l 0.44993, -0.0216122l 0.44993, -0.0219241l 0.44993, -0.0222361l 0.44993, -0.022548l 0.44993, -0.02286l 0.44993, -0.0231719l 0.44993, -0.0234839l 0.44993, -0.0237958l
 0.44993, -0.0241078l 0.44993, -0.0244197l 0.44993, -0.0247317" fill="none" stroke="#ff0066" stroke-width="3"/>
<path d="M341.264,268.185l 0.44993, -0.0250436l 0.44993, -0.0253556l 0.44993, -0.0256675l 0.44993, -0.0259795l 0.44993, -0.0262914l 0.44993, -0.0266034l 0.44993, -0.0269153l 0.44993, -0.0272273l 0.44993, -0.0275392l 0.44993, -0.0278512l 0.44993,
 -0.0281631l 0.44993, -0.0284751l 0.44993, -0.028787l 0.44993, -0.029099l 0.44993, -0.0294109l 0.44993, -0.0297229l 0.44993, -0.0300348l 0.44993, -0.0303468l 0.44993, -0.0306587l 0.44993, -0.0309707l 0.44993, -0.0312826l 0.44993, -0.0315946l 0.44993,
 -0.0319065l 0.44993, -0.0322185l 0.44993, -0.0325304l 0.44993, -0.0328424l 0.44993, -0.0331543l 0.44993, -0.0334663l 0.44993, -0.0337782l 0.44993, -0.0340902l 0.44993, -0.0344021l 0.44993, -0.0347141l 0.44993, -0.035026l 0.44993, -0.035338l 0.44993,
 -0.0356499l 0.44993, -0.0359619l 0.44993, -0.0362738l 0.44993, -0.0365858l 0.44993, -0.0368977l 0.44993, -0.0372097l 0.44993, -0.0375216l 0.44993, -0.0378336l 0.44993, -0.0381455l 0.44993, -0.0384575l 0.44993, -0.0387694l 0.44993, -0.0390814l
 0.44993, -0.0393933l 0.44993, -0.0397053l 0.44993, -0.0400172" fill="none" stroke="#ff0066" stroke-width="3"/>
<path d="M363.311,266.591l 0.44993, -0.0403292l 0.44993, -0.0406411l 0.44993, -0.0409531l 0.44993, -0.041265l 0.44993, -0.041577l 0.44993, -0.0418889l 0.44993, -0.0422009l 0.44993, -0.0425128l 0.44993, -0.0428248l 0.44993, -0.0431367l 0.44993,
 -0.0434487l 0.44993, -0.0437606l 0.44993, -0.0440726l 0.44993, -0.0443845l 0.44993, -0.0446965l 0.44993, -0.0450084l 0.44993, -0.0453204l 0.44993, -0.0456323l 0.44993, -0.0459443l 0.44993, -0.0462562l 0.44993, -0.0465682l 0.44993, -0.0468801l
 0.44993, -0.0471921l 0.44993, -0.047504l 0.44993, -0.0478159l 0.44993, -0.0481279l 0.44993, -0.0484398l 0.44993, -0.0487518l 0.44993, -0.0490637l 0.44993, -0.0493757l 0.44993, -0.0496876l 0.44993, -0.0499996l 0.44993, -0.0503115l 0.44993,
 -0.0506235l 0.44993, -0.0509354l 0.44993, -0.0512474l 0.44993, -0.0515593l 0.44993, -0.0518713l 0.44993, -0.0521832l 0.44993, -0.0524952l 0.44993, -0.0528071l 0.44993, -0.0531191l 0.44993, -0.053431l 0.44993, -0.053743l 0.44993, -0.0540549l 0.44993,
 -0.0543669l 0.44993, -0.0546788l 0.44993, -0.0549908l 0.44993, -0.0553027" fill="none" stroke="#ff0066" stroke-width="3"/>
<path d="M385.357,264.248l 0.44993, -0.0556147l 0.44993, -0.0559266l 0.44993, -0.0562386l 0.44993, -0.0565505l 0.44993, -0.0568625l 0.44993, -0.0571744l 0.44993, -0.0574864l 0.44993, -0.0577983l 0.44993, -0.0581103l 0.44993, -0.0584222l 0.44993,
 -0.0587342l 0.44993, -0.0590461l 0.44993, -0.0593581l 0.44993, -0.05967l 0.44993, -0.059982l 0.44993, -0.0602939l 0.44993, -0.0606059l 0.44993, -0.0609178l 0.44993, -0.0612298l 0.44993, -0.0615417l 0.44993, -0.0618537l 0.44993, -0.0621656l 0.44993,
 -0.0624776l 0.44993, -0.0627895l 0.44993, -0.0631015l 0.44993, -0.0634134l 0.44993, -0.0637254l 0.44993, -0.0640373l 0.44993, -0.0643493l 0.44993, -0.0646612l 0.44993, -0.0649732l 0.44993, -0.0652851l 0.44993, -0.0655971l 0.44993, -0.065909l
 0.44993, -0.066221l 0.44993, -0.0665329l 0.44993, -0.0668449l 0.44993, -0.0671568l 0.44993, -0.0674688l 0.44993, -0.0677807l 0.44993, -0.0680927l 0.44993, -0.0684046l 0.44993, -0.0687166l 0.44993, -0.0690285l 0.44993, -0.0693405l 0.44993,
 -0.0696524l 0.44993, -0.0699644l 0.44993, -0.0702763l 0.44993, -0.0705883" fill="none" stroke="#ff0066" stroke-width="3"/>
<path d="M407.404,261.156l 0.44993, -0.0709002l 0.44993, -0.0712122l 0.44993, -0.0715241l 0.44993, -0.0718361l 0.44993, -0.072148l 0.44993, -0.07246l 0.44993, -0.0727719l 0.44993, -0.0730839l 0.44993, -0.0733958l 0.44993, -0.0737078l 0.44993,
 -0.0740197l 0.44993, -0.0743317l 0.44993, -0.0746436l 0.44993, -0.0749556l 0.44993, -0.0752675l 0.44993, -0.0755795l 0.44993, -0.0758914l 0.44993, -0.0762034l 0.44993, -0.0765153l 0.44993, -0.0768273l 0.44993, -0.0771392l 0.44993, -0.0774511l
 0.44993, -0.0777631l 0.44993, -0.0780751l 0.44993, -0.078387l 0.44993, -0.0786989l 0.44993, -0.0790109l 0.44993, -0.0793228l 0.44993, -0.0796348l 0.44993, -0.0799467l 0.44993, -0.0802587l 0.44993, -0.0805706l 0.44993, -0.0808826l 0.44993,
 -0.0811945l 0.44993, -0.0815065l 0.44993, -0.0818184l 0.44993, -0.0821304l 0.44993, -0.0824423l 0.44993, -0.0827543l 0.44993, -0.0830662l 0.44993, -0.0833782l 0.44993, -0.0836901l 0.44993, -0.0840021l 0.44993, -0.084314l 0.44993, -0.084626l 0.44993,
 -0.0849379l 0.44993, -0.0852499l 0.44993, -0.0855618l 0.44993, -0.0858738" fill="none" stroke="#ff0066" stroke-width="3"/>
<path d="M429.45,257.315l 0.44993, -0.0861857l 0.44993, -0.0864977l 0.44993, -0.0868096l 0.44993, -0.0871216l 0.44993, -0.0874335l 0.44993, -0.0877455l 0.44993, -0.0880574l 0.44993, -0.0883694l 0.44993, -0.0886813l 0.44993, -0.0889933l 0.44993,
 -0.0893052l 0.44993, -0.0896172l 0.44993, -0.0899291l 0.44993, -0.0902411l 0.44993, -0.090553l 0.44993, -0.090865l 0.44993, -0.0911769l 0.44993, -0.0914889l 0.44993, -0.0918008l 0.44993, -0.0921128l 0.44993, -0.0924247l 0.44993, -0.0927367l 0.44993,
 -0.0930486l 0.44993, -0.0933606l 0.44993, -0.0936725l 0.44993, -0.0939845l 0.44993, -0.0942964l 0.44993, -0.0946084l 0.44993, -0.0949203l 0.44993, -0.0952323l 0.44993, -0.0955442l 0.44993, -0.0958562l 0.44993, -0.0961681l 0.44993, -0.0964801l
 0.44993, -0.096792l 0.44993, -0.097104l 0.44993, -0.0974159l 0.44993, -0.0977279l 0.44993, -0.0980398l 0.44993, -0.0983518l 0.44993, -0.0986637l 0.44993, -0.0989757l 0.44993, -0.0992876l 0.44993, -0.0995996l 0.44993, -0.0999115l 0.44993, -0.100223l
 0.44993, -0.100535l 0.44993, -0.100847l 0.44993, -0.101159" fill="none" stroke="#ff0066" stroke-width="3"/>
<path d="M451.497,252.725l 0.44993, -0.101471l 0.44993, -0.101783l 0.44993, -0.102095l 0.44993, -0.102407l 0.44993, -0.102719l 0.44993, -0.103031l 0.44993, -0.103343l 0.44993, -0.103655l 0.44993, -0.103967l 0.44993, -0.104279l 0.44993, -0.104591l
 0.44993, -0.104903l 0.44993, -0.105215l 0.44993, -0.105527l 0.44993, -0.105839l 0.44993, -0.106151l 0.44993, -0.106462l 0.44993, -0.106774l 0.44993, -0.107086l 0.44993, -0.107398l 0.44993, -0.10771l 0.44993, -0.108022l 0.44993, -0.108334l 0.44993,
 -0.108646l 0.44993, -0.108958l 0.44993, -0.10927l 0.44993, -0.109582l 0.44993, -0.109894l 0.44993, -0.110206l 0.44993, -0.110518l 0.44993, -0.11083l 0.44993, -0.111142l 0.44993, -0.111454l 0.44993, -0.111766l 0.44993, -0.112078l 0.44993, -0.112389l
 0.44993, -0.112701l 0.44993, -0.113013l 0.44993, -0.113325l 0.44993, -0.113637l 0.44993, -0.113949l 0.44993, -0.114261l 0.44993, -0.114573l 0.44993, -0.114885l 0.44993, -0.115197l 0.44993, -0.115509l 0.44993, -0.115821l 0.44993, -0.116133l 0.44993,
 -0.116445" fill="none" stroke="#ff0066" stroke-width="3"/>
<path d="M473.543,247.386l 0.44993, -0.116757l 0.44993, -0.117069l 0.44993, -0.117381l 0.44993, -0.117693l 0.44993, -0.118005l 0.44993, -0.118317l 0.44993, -0.118628l 0.44993, -0.11894l 0.44993, -0.119252l 0.44993, -0.119564l 0.44993, -0.119876l
 0.44993, -0.120188l 0.44993, -0.1205l 0.44993, -0.120812l 0.44993, -0.121124l 0.44993, -0.121436l 0.44993, -0.121748l 0.44993, -0.12206l 0.44993, -0.122372l 0.44993, -0.122684l 0.44993, -0.122996l 0.44993, -0.123308l 0.44993, -0.12362l 0.44993,
 -0.123932l 0.44993, -0.124244l 0.44993, -0.124556l 0.44993, -0.124867l 0.44993, -0.125179l 0.44993, -0.125491l 0.44993, -0.125803l 0.44993, -0.126115l 0.44993, -0.126427l 0.44993, -0.126739l 0.44993, -0.127051l 0.44993, -0.127363l 0.44993,
 -0.127675l 0.44993, -0.127987l 0.44993, -0.128299l 0.44993, -0.128611l 0.44993, -0.128923l 0.44993, -0.129235l 0.44993, -0.129547l 0.44993, -0.129859l 0.44993, -0.130171l 0.44993, -0.130483l 0.44993, -0.130795l 0.44993, -0.131106l 0.44993,
 -0.131418l 0.44993, -0.13173" fill="none" stroke="#ff0066" stroke-width="3"/>
<path d="M495.59,241.298l 0.44993, -0.132042l 0.44993, -0.132354l 0.44993, -0.132666l 0.44993, -0.132978l 0.44993, -0.13329l 0.44993, -0.133602l 0.44993, -0.133914l 0.44993, -0.134226l 0.44993, -0.134538l 0.44993, -0.13485l 0.44993, -0.135162l
 0.44993, -0.135474l 0.44993, -0.135786l 0.44993, -0.136098l 0.44993, -0.13641l 0.44993, -0.136722l 0.44993, -0.137033l 0.44993, -0.137345l 0.44993, -0.137657l 0.44993, -0.137969l 0.44993, -0.138281l 0.44993, -0.138593l 0.44993, -0.138905l 0.44993,
 -0.139217l 0.44993, -0.139529l 0.44993, -0.139841l 0.44993, -0.140153l 0.44993, -0.140465l 0.44993, -0.140777l 0.44993, -0.141089l 0.44993, -0.141401l 0.44993, -0.141713l 0.44993, -0.142025l 0.44993, -0.142337l 0.44993, -0.142649l 0.44993,
 -0.142961l 0.44993, -0.143272l 0.44993, -0.143584l 0.44993, -0.143896l 0.44993, -0.144208l 0.44993, -0.14452l 0.44993, -0.144832l 0.44993, -0.145144l 0.44993, -0.145456l 0.44993, -0.145768l 0.44993, -0.14608l 0.44993, -0.146392l 0.44993, -0.146704l
 0.44993, -0.147016" fill="none" stroke="#ff0066" stroke-width="3"/>
<path d="M517.636,234.461l 0.44993, -0.147328l 0.44993, -0.14764l 0.44993, -0.147952l 0.44993, -0.148264l 0.44993, -0.148576l 0.44993, -0.148888l 0.44993, -0.1492l 0.44993, -0.149511l 0.44993, -0.149823l 0.44993, -0.150135l 0.44993, -0.150447l
 0.44993, -0.150759l 0.44993, -0.151071l 0.44993, -0.151383l 0.44993, -0.151695l 0.44993, -0.152007l 0.44993, -0.152319l 0.44993, -0.152631l 0.44993, -0.152943l 0.44993, -0.153255l 0.44993, -0.153567l 0.44993, -0.153879l 0.44993, -0.154191l 0.44993,
 -0.154503l 0.44993, -0.154815l 0.44993, -0.155127l 0.44993, -0.155439l 0.44993, -0.15575l 0.44993, -0.156062l 0.44993, -0.156374l 0.44993, -0.156686l 0.44993, -0.156998l 0.44993, -0.15731l 0.44993, -0.157622l 0.44993, -0.157934l 0.44993, -0.158246l
 0.44993, -0.158558l 0.44993, -0.15887l 0.44993, -0.159182l 0.44993, -0.159494l 0.44993, -0.159806l 0.44993, -0.160118l 0.44993, -0.16043l 0.44993, -0.160742l 0.44993, -0.161054l 0.44993, -0.161366l 0.44993, -0.161678l 0.44993, -0.161989l 0.44993,
 -0.162301" fill="none" stroke="#ff0066" stroke-width="3"/>
<path d="M539.683,226.875l 0.44993, -0.162613l 0.44993, -0.162925l 0.44993, -0.163237l 0.44993, -0.163549l 0.44993, -0.163861l 0.44993, -0.164173l 0.44993, -0.164485l 0.44993, -0.164797l 0.44993, -0.165109l 0.44993, -0.165421l 0.44993, -0.165733l
 0.44993, -0.166045l 0.44993, -0.166357l 0.44993, -0.166669l 0.44993, -0.166981l 0.44993, -0.167293l 0.44993, -0.167605l 0.44993, -0.167916l 0.44993, -0.168228" fill="none" stroke="#ff0066" stroke-width="3"/>
<path d="M248.503,21.4167h 239.963" fill="none" stroke="#999999" stroke-width="7"/>
<text xml:space="preserve" x="360.607" y="50.7193" fill="black" font-size="16.0105" font-family="Helvetica"> with EMC</text>
<text xml:space="preserve" x="352.717" y="50.7193" fill="black" font-size="16.0105" font-family="Times">&#0947;</text>
<text xml:space="preserve" x="344.828" y="50.7193" fill="black" font-size="16.0105" font-family="Times">&#0947;</text>
<text xml:space="preserve" x="336.938" y="50.7193" fill="black" font-size="16.0105" font-family="Times">&#0947;</text>
<text xml:space="preserve" x="331.866" y="50.7193" fill="black" font-size="16.0105" font-family="Helvetica"> </text>
<text xml:space="preserve" x="316.65" y="50.7193" fill="black" font-size="16.0105" font-family="Times">&#8594;</text>
<text xml:space="preserve" x="311.578" y="50.7193" fill="black" font-size="16.0105" font-family="Helvetica"> </text>
<text xml:space="preserve" x="303.689" y="50.7193" fill="black" font-size="16.0105" font-family="Times">&#0947;</text>
<text xml:space="preserve" x="298.053" y="45.0838" fill="black" font-size="10.8403" font-family="Helvetica">0</text>
<text xml:space="preserve" x="289.6" y="50.7193" fill="black" font-size="16.0105" font-family="Times">&#0960;</text>
<text xml:space="preserve" x="284.528" y="50.7193" fill="black" font-size="16.0105" font-family="Helvetica"> </text>
<text xml:space="preserve" x="269.312" y="50.7193" fill="black" font-size="16.0105" font-family="Times">&#8594;</text>
<text xml:space="preserve" x="264.24" y="50.7193" fill="black" font-size="16.0105" font-family="Helvetica"> </text>
<text xml:space="preserve" x="252.969" y="50.7193" fill="black" font-size="16.0105" font-family="Times">&#0969;</text>
<text xml:space="preserve" x="128.989" y="50.7193" fill="black" font-size="16.0105" font-family="Helvetica"> = 13 TeV (EG1), </text>
<text xml:space="preserve" x="120.536" y="50.7193" fill="black" font-size="16.0105" font-family="Helvetica" font-style="oblique">s</text>
<path d="M114.9,41.7025l 1.69064, 9.58031" fill="none" stroke="black" stroke-width="2"/>
<path d="M116.591,51.2829l 2.25419, -14.0887" fill="none" stroke="black"/>
<path d="M118.845,37.1942h 10.1439" fill="none" stroke="black"/>
<text xml:space="preserve" x="89.5406" y="50.7193" fill="black" font-size="16.0105" font-family="Helvetica">pp </text>
<text xml:space="preserve" x="89.5406" y="85.6593" fill="black" font-size="16.0105" font-family="Helvetica">ALICE work in progress</text>
<text xml:space="preserve" x="214.085" y="120.599" fill="black" font-size="16.0105" font-family="Helvetica">) &lt; 18.0</text>
<text xml:space="preserve" x="205.068" y="120.599" fill="black" font-size="16.0105" font-family="Helvetica" font-style="oblique">c</text>
<text xml:space="preserve" x="154.912" y="120.599" fill="black" font-size="16.0105" font-family="Helvetica"> /(GeV/</text>
<text xml:space="preserve" x="148.15" y="128.489" fill="black" font-size="10.8403" font-family="Helvetica">T</text>
<text xml:space="preserve" x="138.569" y="120.599" fill="black" font-size="16.0105" font-family="Helvetica" font-style="oblique">p</text>
<text xml:space="preserve" x="133.497" y="120.599" fill="black" font-size="16.0105" font-family="Helvetica"> </text>
<text xml:space="preserve" x="125.044" y="120.599" fill="black" font-size="16.0105" font-family="Times">&#8804;</text>
<text xml:space="preserve" x="89.5406" y="120.599" fill="black" font-size="16.0105" font-family="Helvetica">16.0 </text>
<rect x="312.311" y="69.1755" width="198.425" height="113.448" fill="white"/>
<text xml:space="preserve" x="361.734" y="85.0957" fill="black" font-size="16.0105" font-family="Helvetica">ratio</text>
<path d="M319.752,80.5203h 34.7244" fill="none" stroke="black" stroke-width="2"/>
<g fill="black">
<circle cx="337.114" cy="80.5203" r="6.76257"/>
</g>
<text xml:space="preserve" x="361.734" y="108.201" fill="black" font-size="16.0105" font-family="Helvetica">peak range</text>
<path d="M319.752,103.21h 34.7244" fill="none" stroke="#333333" stroke-width="2"/>
<g stroke="#333333" stroke-width="2" fill="none">
<circle cx="337.114" cy="103.21" r="5.63548"/>
</g>
<text xml:space="preserve" x="361.734" y="130.743" fill="black" font-size="16.0105" font-family="Helvetica">background pol1</text>
<path d="M319.752,125.899h 34.7244" fill="none" stroke="#33cccc" stroke-width="3"/>
<text xml:space="preserve" x="361.734" y="153.285" fill="black" font-size="16.0105" font-family="Helvetica">background pol2</text>
<path d="M319.752,148.589h 34.7244" fill="none" stroke="#ff0066" stroke-width="3"/>
<text xml:space="preserve" x="361.734" y="175.827" fill="black" font-size="16.0105" font-family="Helvetica">param. range</text>
<path d="M319.752,171.279h 34.7244" fill="none" stroke="#999999" stroke-width="7"/></svg>
