<?xml version="1.0" standalone="no"?>
<svg width="567.429" height="553.904" viewBox="0 0 567.429 553.904" xmlns="http://www.w3.org/2000/svg" shape-rendering="crispEdges">
<title>
MC/EG1/Pi0TGPSPlusPS/SameEventToBackgroundRatio_04.svg
</title>
<desc>
Creator: ROOT Version 6.20/08
CreationDate: Mon Mar 29 18:49:57 2021</desc>
<defs>
</defs>
<rect x="0.5" y="0" width="566.929" height="553.404" fill="white"/>
<rect x="68.5315" y="16.6021" width="484.724" height="481.461" fill="white"/>
<rect x="68.5315" y="16.6021" width="484.724" height="481.461" fill="none" stroke="black"/>
<rect x="68.5315" y="16.6021" width="484.724" height="481.461" fill="white"/>
<rect x="68.5315" y="16.6021" width="484.724" height="481.461" fill="none" stroke="black"/>
<g fill="black">
<circle cx="109.325" cy="491.207" r="6.76257"/>
</g>
<g fill="black">
<circle cx="114.124" cy="270.14" r="6.76257"/>
</g>
<g fill="black">
<circle cx="118.924" cy="203.48" r="6.76257"/>
</g>
<g fill="black">
<circle cx="123.723" cy="197.15" r="6.76257"/>
</g>
<g fill="black">
<circle cx="128.522" cy="225.292" r="6.76257"/>
</g>
<g fill="black">
<circle cx="133.321" cy="321.516" r="6.76257"/>
</g>
<g fill="black">
<circle cx="138.121" cy="289.586" r="6.76257"/>
</g>
<g fill="black">
<circle cx="142.92" cy="281.952" r="6.76257"/>
</g>
<g fill="black">
<circle cx="147.719" cy="271.858" r="6.76257"/>
</g>
<g fill="black">
<circle cx="152.518" cy="265.98" r="6.76257"/>
</g>
<g fill="black">
<circle cx="157.318" cy="263.054" r="6.76257"/>
</g>
<g fill="black">
<circle cx="162.117" cy="259.055" r="6.76257"/>
</g>
<g fill="black">
<circle cx="166.916" cy="256.585" r="6.76257"/>
</g>
<g fill="black">
<circle cx="171.715" cy="257.661" r="6.76257"/>
</g>
<g fill="black">
<circle cx="176.515" cy="254.331" r="6.76257"/>
</g>
<g fill="black">
<circle cx="181.314" cy="252.947" r="6.76257"/>
</g>
<g fill="black">
<circle cx="186.113" cy="251.932" r="6.76257"/>
</g>
<g fill="black">
<circle cx="190.912" cy="251.537" r="6.76257"/>
</g>
<g fill="black">
<circle cx="195.712" cy="248.1" r="6.76257"/>
</g>
<g fill="black">
<circle cx="200.511" cy="245.529" r="6.76257"/>
</g>
<g fill="black">
<circle cx="205.31" cy="248.2" r="6.76257"/>
</g>
<g fill="black">
<circle cx="210.109" cy="245.984" r="6.76257"/>
</g>
<g fill="black">
<circle cx="214.909" cy="245.448" r="6.76257"/>
</g>
<g fill="black">
<circle cx="219.708" cy="242.114" r="6.76257"/>
</g>
<g fill="black">
<circle cx="224.507" cy="242.901" r="6.76257"/>
</g>
<g fill="black">
<circle cx="229.306" cy="243.588" r="6.76257"/>
</g>
<g fill="black">
<circle cx="234.106" cy="241.079" r="6.76257"/>
</g>
<g fill="black">
<circle cx="238.905" cy="239.268" r="6.76257"/>
</g>
<g fill="black">
<circle cx="243.704" cy="235.482" r="6.76257"/>
</g>
<g fill="black">
<circle cx="248.503" cy="234.483" r="6.76257"/>
</g>
<g fill="black">
<circle cx="253.303" cy="233.567" r="6.76257"/>
</g>
<g fill="black">
<circle cx="258.102" cy="233.056" r="6.76257"/>
</g>
<g fill="black">
<circle cx="262.901" cy="232.183" r="6.76257"/>
</g>
<g fill="black">
<circle cx="267.7" cy="230.677" r="6.76257"/>
</g>
<g fill="black">
<circle cx="272.5" cy="229.229" r="6.76257"/>
</g>
<g fill="black">
<circle cx="277.299" cy="229.877" r="6.76257"/>
</g>
<g fill="black">
<circle cx="339.689" cy="222.928" r="6.76257"/>
</g>
<g fill="black">
<circle cx="344.488" cy="222.77" r="6.76257"/>
</g>
<g fill="black">
<circle cx="349.288" cy="222.668" r="6.76257"/>
</g>
<g fill="black">
<circle cx="354.087" cy="223.055" r="6.76257"/>
</g>
<g fill="black">
<circle cx="358.886" cy="221.284" r="6.76257"/>
</g>
<g fill="black">
<circle cx="363.685" cy="224.767" r="6.76257"/>
</g>
<g fill="black">
<circle cx="368.485" cy="222.334" r="6.76257"/>
</g>
<g fill="black">
<circle cx="373.284" cy="221.386" r="6.76257"/>
</g>
<g fill="black">
<circle cx="378.083" cy="221.423" r="6.76257"/>
</g>
<g fill="black">
<circle cx="382.882" cy="223.583" r="6.76257"/>
</g>
<g fill="black">
<circle cx="387.682" cy="218.899" r="6.76257"/>
</g>
<g fill="black">
<circle cx="392.481" cy="220.27" r="6.76257"/>
</g>
<g fill="black">
<circle cx="397.28" cy="224.839" r="6.76257"/>
</g>
<g fill="black">
<circle cx="402.079" cy="222.841" r="6.76257"/>
</g>
<g fill="black">
<circle cx="406.879" cy="220.829" r="6.76257"/>
</g>
<g fill="black">
<circle cx="411.678" cy="220.25" r="6.76257"/>
</g>
<g fill="black">
<circle cx="416.477" cy="220.993" r="6.76257"/>
</g>
<g fill="black">
<circle cx="421.276" cy="221.075" r="6.76257"/>
</g>
<g fill="black">
<circle cx="426.076" cy="220.388" r="6.76257"/>
</g>
<g fill="black">
<circle cx="430.875" cy="224.1" r="6.76257"/>
</g>
<g fill="black">
<circle cx="435.674" cy="221.78" r="6.76257"/>
</g>
<g fill="black">
<circle cx="440.473" cy="219.862" r="6.76257"/>
</g>
<g fill="black">
<circle cx="445.273" cy="219.012" r="6.76257"/>
</g>
<g fill="black">
<circle cx="450.072" cy="221.17" r="6.76257"/>
</g>
<g fill="black">
<circle cx="454.871" cy="227.203" r="6.76257"/>
</g>
<g fill="black">
<circle cx="459.671" cy="222.036" r="6.76257"/>
</g>
<g fill="black">
<circle cx="464.47" cy="220.395" r="6.76257"/>
</g>
<g fill="black">
<circle cx="469.269" cy="223.242" r="6.76257"/>
</g>
<g fill="black">
<circle cx="474.068" cy="224.895" r="6.76257"/>
</g>
<g fill="black">
<circle cx="478.867" cy="224.481" r="6.76257"/>
</g>
<g fill="black">
<circle cx="483.667" cy="226.786" r="6.76257"/>
</g>
<g fill="black">
<circle cx="488.466" cy="224.064" r="6.76257"/>
</g>
<g fill="black">
<circle cx="493.265" cy="222.728" r="6.76257"/>
</g>
<g fill="black">
<circle cx="498.065" cy="223.024" r="6.76257"/>
</g>
<g fill="black">
<circle cx="502.864" cy="221.64" r="6.76257"/>
</g>
<g fill="black">
<circle cx="507.663" cy="222.893" r="6.76257"/>
</g>
<g fill="black">
<circle cx="512.462" cy="223.391" r="6.76257"/>
</g>
<g fill="black">
<circle cx="517.262" cy="221.02" r="6.76257"/>
</g>
<g fill="black">
<circle cx="522.061" cy="222.771" r="6.76257"/>
</g>
<g fill="black">
<circle cx="526.86" cy="219.767" r="6.76257"/>
</g>
<g fill="black">
<circle cx="531.659" cy="221.792" r="6.76257"/>
</g>
<g fill="black">
<circle cx="536.458" cy="225.477" r="6.76257"/>
</g>
<g fill="black">
<circle cx="541.258" cy="224.718" r="6.76257"/>
</g>
<g fill="black">
<circle cx="546.057" cy="217.675" r="6.76257"/>
</g>
<path d="M68.5315,498.064h 484.724" fill="none" stroke="black"/>
<path d="M68.5315,483.869v 14.1948" fill="none" stroke="black"/>
<path d="M83.5292,490.966v 7.09741" fill="none" stroke="black"/>
<path d="M98.5268,490.966v 7.09741" fill="none" stroke="black"/>
<path d="M113.524,490.966v 7.09741" fill="none" stroke="black"/>
<path d="M128.522,483.869v 14.1948" fill="none" stroke="black"/>
<path d="M143.52,490.966v 7.09741" fill="none" stroke="black"/>
<path d="M158.517,490.966v 7.09741" fill="none" stroke="black"/>
<path d="M173.515,490.966v 7.09741" fill="none" stroke="black"/>
<path d="M188.513,483.869v 14.1948" fill="none" stroke="black"/>
<path d="M203.51,490.966v 7.09741" fill="none" stroke="black"/>
<path d="M218.508,490.966v 7.09741" fill="none" stroke="black"/>
<path d="M233.506,490.966v 7.09741" fill="none" stroke="black"/>
<path d="M248.503,483.869v 14.1948" fill="none" stroke="black"/>
<path d="M263.501,490.966v 7.09741" fill="none" stroke="black"/>
<path d="M278.499,490.966v 7.09741" fill="none" stroke="black"/>
<path d="M293.496,490.966v 7.09741" fill="none" stroke="black"/>
<path d="M308.494,483.869v 14.1948" fill="none" stroke="black"/>
<path d="M323.492,490.966v 7.09741" fill="none" stroke="black"/>
<path d="M338.489,490.966v 7.09741" fill="none" stroke="black"/>
<path d="M353.487,490.966v 7.09741" fill="none" stroke="black"/>
<path d="M368.485,483.869v 14.1948" fill="none" stroke="black"/>
<path d="M383.482,490.966v 7.09741" fill="none" stroke="black"/>
<path d="M398.48,490.966v 7.09741" fill="none" stroke="black"/>
<path d="M413.478,490.966v 7.09741" fill="none" stroke="black"/>
<path d="M428.475,483.869v 14.1948" fill="none" stroke="black"/>
<path d="M443.473,490.966v 7.09741" fill="none" stroke="black"/>
<path d="M458.471,490.966v 7.09741" fill="none" stroke="black"/>
<path d="M473.468,490.966v 7.09741" fill="none" stroke="black"/>
<path d="M488.466,483.869v 14.1948" fill="none" stroke="black"/>
<path d="M503.464,490.966v 7.09741" fill="none" stroke="black"/>
<path d="M518.461,490.966v 7.09741" fill="none" stroke="black"/>
<path d="M533.459,490.966v 7.09741" fill="none" stroke="black"/>
<path d="M548.457,483.869v 14.1948" fill="none" stroke="black"/>
<path d="M548.457,483.869v 14.1948" fill="none" stroke="black"/>
<text xml:space="preserve" x="63.6174" y="513.956" fill="black" font-size="16.0105" font-family="Helvetica">0</text>
<text xml:space="preserve" x="117.718" y="513.956" fill="black" font-size="16.0105" font-family="Helvetica">0.2</text>
<text xml:space="preserve" x="177.454" y="513.956" fill="black" font-size="16.0105" font-family="Helvetica">0.4</text>
<text xml:space="preserve" x="237.754" y="513.956" fill="black" font-size="16.0105" font-family="Helvetica">0.6</text>
<text xml:space="preserve" x="297.49" y="513.956" fill="black" font-size="16.0105" font-family="Helvetica">0.8</text>
<text xml:space="preserve" x="365.115" y="513.956" fill="black" font-size="16.0105" font-family="Helvetica">1</text>
<text xml:space="preserve" x="417.525" y="513.956" fill="black" font-size="16.0105" font-family="Helvetica">1.2</text>
<text xml:space="preserve" x="477.261" y="513.956" fill="black" font-size="16.0105" font-family="Helvetica">1.4</text>
<text xml:space="preserve" x="537.561" y="513.956" fill="black" font-size="16.0105" font-family="Helvetica">1.6</text>
<text xml:space="preserve" x="548.268" y="537.625" fill="black" font-size="16.0105" font-family="Helvetica">)</text>
<text xml:space="preserve" x="542.633" y="532.553" fill="black" font-size="10.8403" font-family="Helvetica">2</text>
<text xml:space="preserve" x="533.616" y="537.625" fill="black" font-size="16.0105" font-family="Helvetica" font-style="oblique">c</text>
<text xml:space="preserve" x="487.405" y="537.625" fill="black" font-size="16.0105" font-family="Helvetica"> (GeV/</text>
<text xml:space="preserve" x="473.317" y="542.697" fill="black" font-size="10.8403" font-family="Helvetica">inv</text>
<text xml:space="preserve" x="459.792" y="537.625" fill="black" font-size="16.0105" font-family="Helvetica" font-style="oblique">m</text>
<path d="M68.5315,16.6021h 484.724" fill="none" stroke="black"/>
<path d="M68.5315,30.7969v -14.1948" fill="none" stroke="black"/>
<path d="M83.5292,23.6995v -7.09741" fill="none" stroke="black"/>
<path d="M98.5268,23.6995v -7.09741" fill="none" stroke="black"/>
<path d="M113.524,23.6995v -7.09741" fill="none" stroke="black"/>
<path d="M128.522,30.7969v -14.1948" fill="none" stroke="black"/>
<path d="M143.52,23.6995v -7.09741" fill="none" stroke="black"/>
<path d="M158.517,23.6995v -7.09741" fill="none" stroke="black"/>
<path d="M173.515,23.6995v -7.09741" fill="none" stroke="black"/>
<path d="M188.513,30.7969v -14.1948" fill="none" stroke="black"/>
<path d="M203.51,23.6995v -7.09741" fill="none" stroke="black"/>
<path d="M218.508,23.6995v -7.09741" fill="none" stroke="black"/>
<path d="M233.506,23.6995v -7.09741" fill="none" stroke="black"/>
<path d="M248.503,30.7969v -14.1948" fill="none" stroke="black"/>
<path d="M263.501,23.6995v -7.09741" fill="none" stroke="black"/>
<path d="M278.499,23.6995v -7.09741" fill="none" stroke="black"/>
<path d="M293.496,23.6995v -7.09741" fill="none" stroke="black"/>
<path d="M308.494,30.7969v -14.1948" fill="none" stroke="black"/>
<path d="M323.492,23.6995v -7.09741" fill="none" stroke="black"/>
<path d="M338.489,23.6995v -7.09741" fill="none" stroke="black"/>
<path d="M353.487,23.6995v -7.09741" fill="none" stroke="black"/>
<path d="M368.485,30.7969v -14.1948" fill="none" stroke="black"/>
<path d="M383.482,23.6995v -7.09741" fill="none" stroke="black"/>
<path d="M398.48,23.6995v -7.09741" fill="none" stroke="black"/>
<path d="M413.478,23.6995v -7.09741" fill="none" stroke="black"/>
<path d="M428.475,30.7969v -14.1948" fill="none" stroke="black"/>
<path d="M443.473,23.6995v -7.09741" fill="none" stroke="black"/>
<path d="M458.471,23.6995v -7.09741" fill="none" stroke="black"/>
<path d="M473.468,23.6995v -7.09741" fill="none" stroke="black"/>
<path d="M488.466,30.7969v -14.1948" fill="none" stroke="black"/>
<path d="M503.464,23.6995v -7.09741" fill="none" stroke="black"/>
<path d="M518.461,23.6995v -7.09741" fill="none" stroke="black"/>
<path d="M533.459,23.6995v -7.09741" fill="none" stroke="black"/>
<path d="M548.457,30.7969v -14.1948" fill="none" stroke="black"/>
<path d="M548.457,30.7969v -14.1948" fill="none" stroke="black"/>
<path d="M68.5315,498.064v -481.461" fill="none" stroke="black"/>
<path d="M83.3283,498.064h -14.7969" fill="none" stroke="black"/>
<path d="M75.9299,479.322h -7.39843" fill="none" stroke="black"/>
<path d="M75.9299,460.58h -7.39843" fill="none" stroke="black"/>
<path d="M75.9299,441.838h -7.39843" fill="none" stroke="black"/>
<path d="M75.9299,423.096h -7.39843" fill="none" stroke="black"/>
<path d="M83.3283,404.354h -14.7969" fill="none" stroke="black"/>
<path d="M75.9299,385.612h -7.39843" fill="none" stroke="black"/>
<path d="M75.9299,366.87h -7.39843" fill="none" stroke="black"/>
<path d="M75.9299,348.128h -7.39843" fill="none" stroke="black"/>
<path d="M75.9299,329.386h -7.39843" fill="none" stroke="black"/>
<path d="M83.3283,310.645h -14.7969" fill="none" stroke="black"/>
<path d="M75.9299,291.903h -7.39843" fill="none" stroke="black"/>
<path d="M75.9299,273.161h -7.39843" fill="none" stroke="black"/>
<path d="M75.9299,254.419h -7.39843" fill="none" stroke="black"/>
<path d="M75.9299,235.677h -7.39843" fill="none" stroke="black"/>
<path d="M83.3283,216.935h -14.7969" fill="none" stroke="black"/>
<path d="M75.9299,198.193h -7.39843" fill="none" stroke="black"/>
<path d="M75.9299,179.451h -7.39843" fill="none" stroke="black"/>
<path d="M75.9299,160.709h -7.39843" fill="none" stroke="black"/>
<path d="M75.9299,141.967h -7.39843" fill="none" stroke="black"/>
<path d="M83.3283,123.226h -14.7969" fill="none" stroke="black"/>
<path d="M75.9299,104.484h -7.39843" fill="none" stroke="black"/>
<path d="M75.9299,85.7417h -7.39843" fill="none" stroke="black"/>
<path d="M75.9299,66.9998h -7.39843" fill="none" stroke="black"/>
<path d="M75.9299,48.2579h -7.39843" fill="none" stroke="black"/>
<path d="M83.3283,29.516h -14.7969" fill="none" stroke="black"/>
<path d="M83.3283,29.516h -14.7969" fill="none" stroke="black"/>
<text xml:space="preserve" x="56.8548" y="503.248" fill="black" font-size="16.0105" font-family="Helvetica">0</text>
<text xml:space="preserve" x="56.8548" y="409.699" fill="black" font-size="16.0105" font-family="Helvetica">5</text>
<text xml:space="preserve" x="48.4016" y="316.15" fill="black" font-size="16.0105" font-family="Helvetica">10</text>
<text xml:space="preserve" x="48.4016" y="222.038" fill="black" font-size="16.0105" font-family="Helvetica">15</text>
<text xml:space="preserve" x="48.4016" y="128.489" fill="black" font-size="16.0105" font-family="Helvetica">20</text>
<text xml:space="preserve" x="48.4016" y="34.94" fill="black" font-size="16.0105" font-family="Helvetica">25</text>
<text xml:space="preserve" x="99.1209" y="7.32612" fill="black" font-size="10.8403" font-family="Helvetica">3</text>
<text xml:space="preserve" x="93.4854" y="7.32612" fill="black" font-size="10.8403" font-family="Times">&#8722;</text>
<text xml:space="preserve" x="76.579" y="14.6522" fill="black" font-size="16.0105" font-family="Helvetica">10</text>
<text xml:space="preserve" x="68.1257" y="14.6522" fill="black" font-size="16.0105" font-family="Times">&#0215;</text>
<g transform="rotate(-90,38.2577,98.0573)">
<text xml:space="preserve" x="38.2577" y="98.0573" fill="black" font-size="16.0105" font-family="Helvetica">background</text>
</g>
<g transform="rotate(-90,21.9148,98.0573)">
<text xml:space="preserve" x="21.9148" y="98.0573" fill="black" font-size="16.0105" font-family="Helvetica">same event</text>
</g>
<path d="M24.169,98.0573l 0.563548, -81.7144" fill="none" stroke="black" stroke-width="2"/>
<path d="M553.256,498.064v -481.461" fill="none" stroke="black"/>
<path d="M538.459,498.064h 14.7969" fill="none" stroke="black"/>
<path d="M545.857,479.322h 7.39843" fill="none" stroke="black"/>
<path d="M545.857,460.58h 7.39843" fill="none" stroke="black"/>
<path d="M545.857,441.838h 7.39843" fill="none" stroke="black"/>
<path d="M545.857,423.096h 7.39843" fill="none" stroke="black"/>
<path d="M538.459,404.354h 14.7969" fill="none" stroke="black"/>
<path d="M545.857,385.612h 7.39843" fill="none" stroke="black"/>
<path d="M545.857,366.87h 7.39843" fill="none" stroke="black"/>
<path d="M545.857,348.128h 7.39843" fill="none" stroke="black"/>
<path d="M545.857,329.386h 7.39843" fill="none" stroke="black"/>
<path d="M538.459,310.645h 14.7969" fill="none" stroke="black"/>
<path d="M545.857,291.903h 7.39843" fill="none" stroke="black"/>
<path d="M545.857,273.161h 7.39843" fill="none" stroke="black"/>
<path d="M545.857,254.419h 7.39843" fill="none" stroke="black"/>
<path d="M545.857,235.677h 7.39843" fill="none" stroke="black"/>
<path d="M538.459,216.935h 14.7969" fill="none" stroke="black"/>
<path d="M545.857,198.193h 7.39843" fill="none" stroke="black"/>
<path d="M545.857,179.451h 7.39843" fill="none" stroke="black"/>
<path d="M545.857,160.709h 7.39843" fill="none" stroke="black"/>
<path d="M545.857,141.967h 7.39843" fill="none" stroke="black"/>
<path d="M538.459,123.226h 14.7969" fill="none" stroke="black"/>
<path d="M545.857,104.484h 7.39843" fill="none" stroke="black"/>
<path d="M545.857,85.7417h 7.39843" fill="none" stroke="black"/>
<path d="M545.857,66.9998h 7.39843" fill="none" stroke="black"/>
<path d="M545.857,48.2579h 7.39843" fill="none" stroke="black"/>
<path d="M538.459,29.516h 14.7969" fill="none" stroke="black"/>
<path d="M538.459,29.516h 14.7969" fill="none" stroke="black"/>
<g stroke="#333333" stroke-width="2" fill="none">
<circle cx="282.098" cy="226.531" r="5.63548"/>
</g>
<g stroke="#333333" stroke-width="2" fill="none">
<circle cx="286.897" cy="225.411" r="5.63548"/>
</g>
<g stroke="#333333" stroke-width="2" fill="none">
<circle cx="291.697" cy="224.257" r="5.63548"/>
</g>
<g stroke="#333333" stroke-width="2" fill="none">
<circle cx="296.496" cy="224.504" r="5.63548"/>
</g>
<g stroke="#333333" stroke-width="2" fill="none">
<circle cx="301.295" cy="224.661" r="5.63548"/>
</g>
<g stroke="#333333" stroke-width="2" fill="none">
<circle cx="306.094" cy="225.462" r="5.63548"/>
</g>
<g stroke="#333333" stroke-width="2" fill="none">
<circle cx="310.894" cy="224.328" r="5.63548"/>
</g>
<g stroke="#333333" stroke-width="2" fill="none">
<circle cx="315.693" cy="224.102" r="5.63548"/>
</g>
<g stroke="#333333" stroke-width="2" fill="none">
<circle cx="320.492" cy="224.23" r="5.63548"/>
</g>
<g stroke="#333333" stroke-width="2" fill="none">
<circle cx="325.291" cy="225.268" r="5.63548"/>
</g>
<g stroke="#333333" stroke-width="2" fill="none">
<circle cx="330.091" cy="225.94" r="5.63548"/>
</g>
<g stroke="#333333" stroke-width="2" fill="none">
<circle cx="334.89" cy="220.853" r="5.63548"/>
</g>
<path d="M128.732,242.66l 0.419935, -0.0343213l 0.419935, -0.0343213l 0.419935, -0.0343213l 0.419935, -0.0343213l 0.419935, -0.0343213l 0.419935, -0.0343213l 0.419935, -0.0343213l 0.419935, -0.0343213l 0.419935, -0.0343213l 0.419935, -0.0343213l
 0.419935, -0.0343213l 0.419935, -0.0343213l 0.419935, -0.0343213l 0.419935, -0.0343213l 0.419935, -0.0343213l 0.419935, -0.0343213l 0.419935, -0.0343213l 0.419935, -0.0343213l 0.419935, -0.0343213l 0.419935, -0.0343213l 0.419935, -0.0343213l
 0.419935, -0.0343213l 0.419935, -0.0343213l 0.419935, -0.0343213l 0.419935, -0.0343213l 0.419935, -0.0343213l 0.419935, -0.0343213l 0.419935, -0.0343213l 0.419935, -0.0343213l 0.419935, -0.0343213l 0.419935, -0.0343213l 0.419935, -0.0343213l
 0.419935, -0.0343213l 0.419935, -0.0343213l 0.419935, -0.0343213l 0.419935, -0.0343213l 0.419935, -0.0343213l 0.419935, -0.0343213l 0.419935, -0.0343213l 0.419935, -0.0343213l 0.419935, -0.0343213l 0.419935, -0.0343213l 0.419935, -0.0343213l
 0.419935, -0.0343213l 0.419935, -0.0343213l 0.419935, -0.0343213l 0.419935, -0.0343213l 0.419935, -0.0343213l 0.419935, -0.0343213" fill="none" stroke="#33cccc" stroke-width="3"/>
<path d="M149.309,240.978l 0.419935, -0.0343213l 0.419935, -0.0343213l 0.419935, -0.0343213l 0.419935, -0.0343213l 0.419935, -0.0343213l 0.419935, -0.0343213l 0.419935, -0.0343213l 0.419935, -0.0343213l 0.419935, -0.0343213l 0.419935, -0.0343213l
 0.419935, -0.0343213l 0.419935, -0.0343213l 0.419935, -0.0343213l 0.419935, -0.0343213l 0.419935, -0.0343213l 0.419935, -0.0343213l 0.419935, -0.0343213l 0.419935, -0.0343213l 0.419935, -0.0343213l 0.419935, -0.0343213l 0.419935, -0.0343213l
 0.419935, -0.0343213l 0.419935, -0.0343213l 0.419935, -0.0343213l 0.419935, -0.0343213l 0.419935, -0.0343213l 0.419935, -0.0343213l 0.419935, -0.0343213l 0.419935, -0.0343213l 0.419935, -0.0343213l 0.419935, -0.0343213l 0.419935, -0.0343213l
 0.419935, -0.0343213l 0.419935, -0.0343213l 0.419935, -0.0343213l 0.419935, -0.0343213l 0.419935, -0.0343213l 0.419935, -0.0343213l 0.419935, -0.0343213l 0.419935, -0.0343213l 0.419935, -0.0343213l 0.419935, -0.0343213l 0.419935, -0.0343213l
 0.419935, -0.0343213l 0.419935, -0.0343213l 0.419935, -0.0343213l 0.419935, -0.0343213l 0.419935, -0.0343213l 0.419935, -0.0343213" fill="none" stroke="#33cccc" stroke-width="3"/>
<path d="M169.886,239.296l 0.419935, -0.0343213l 0.419935, -0.0343213l 0.419935, -0.0343213l 0.419935, -0.0343213l 0.419935, -0.0343213l 0.419935, -0.0343213l 0.419935, -0.0343213l 0.419935, -0.0343213l 0.419935, -0.0343213l 0.419935, -0.0343213l
 0.419935, -0.0343213l 0.419935, -0.0343213l 0.419935, -0.0343213l 0.419935, -0.0343213l 0.419935, -0.0343213l 0.419935, -0.0343213l 0.419935, -0.0343213l 0.419935, -0.0343213l 0.419935, -0.0343213l 0.419935, -0.0343213l 0.419935, -0.0343213l
 0.419935, -0.0343213l 0.419935, -0.0343213l 0.419935, -0.0343213l 0.419935, -0.0343213l 0.419935, -0.0343213l 0.419935, -0.0343213l 0.419935, -0.0343213l 0.419935, -0.0343213l 0.419935, -0.0343213l 0.419935, -0.0343213l 0.419935, -0.0343213l
 0.419935, -0.0343213l 0.419935, -0.0343213l 0.419935, -0.0343213l 0.419935, -0.0343213l 0.419935, -0.0343213l 0.419935, -0.0343213l 0.419935, -0.0343213l 0.419935, -0.0343213l 0.419935, -0.0343213l 0.419935, -0.0343213l 0.419935, -0.0343213l
 0.419935, -0.0343213l 0.419935, -0.0343213l 0.419935, -0.0343213l 0.419935, -0.0343213l 0.419935, -0.0343213l 0.419935, -0.0343213" fill="none" stroke="#33cccc" stroke-width="3"/>
<path d="M190.462,237.615l 0.419935, -0.0343213l 0.419935, -0.0343213l 0.419935, -0.0343213l 0.419935, -0.0343213l 0.419935, -0.0343213l 0.419935, -0.0343213l 0.419935, -0.0343213l 0.419935, -0.0343213l 0.419935, -0.0343213l 0.419935, -0.0343213l
 0.419935, -0.0343213l 0.419935, -0.0343213l 0.419935, -0.0343213l 0.419935, -0.0343213l 0.419935, -0.0343213l 0.419935, -0.0343213l 0.419935, -0.0343213l 0.419935, -0.0343213l 0.419935, -0.0343213l 0.419935, -0.0343213l 0.419935, -0.0343213l
 0.419935, -0.0343213l 0.419935, -0.0343213l 0.419935, -0.0343213l 0.419935, -0.0343213l 0.419935, -0.0343213l 0.419935, -0.0343213l 0.419935, -0.0343213l 0.419935, -0.0343213l 0.419935, -0.0343213l 0.419935, -0.0343213l 0.419935, -0.0343213l
 0.419935, -0.0343213l 0.419935, -0.0343213l 0.419935, -0.0343213l 0.419935, -0.0343213l 0.419935, -0.0343213l 0.419935, -0.0343213l 0.419935, -0.0343213l 0.419935, -0.0343213l 0.419935, -0.0343213l 0.419935, -0.0343213l 0.419935, -0.0343213l
 0.419935, -0.0343213l 0.419935, -0.0343213l 0.419935, -0.0343213l 0.419935, -0.0343213l 0.419935, -0.0343213l 0.419935, -0.0343213" fill="none" stroke="#33cccc" stroke-width="3"/>
<path d="M211.039,235.933l 0.419935, -0.0343213l 0.419935, -0.0343213l 0.419935, -0.0343213l 0.419935, -0.0343213l 0.419935, -0.0343213l 0.419935, -0.0343213l 0.419935, -0.0343213l 0.419935, -0.0343213l 0.419935, -0.0343213l 0.419935, -0.0343213l
 0.419935, -0.0343213l 0.419935, -0.0343213l 0.419935, -0.0343213l 0.419935, -0.0343213l 0.419935, -0.0343213l 0.419935, -0.0343213l 0.419935, -0.0343213l 0.419935, -0.0343213l 0.419935, -0.0343213l 0.419935, -0.0343213l 0.419935, -0.0343213l
 0.419935, -0.0343213l 0.419935, -0.0343213l 0.419935, -0.0343213l 0.419935, -0.0343213l 0.419935, -0.0343213l 0.419935, -0.0343213l 0.419935, -0.0343213l 0.419935, -0.0343213l 0.419935, -0.0343213l 0.419935, -0.0343213l 0.419935, -0.0343213l
 0.419935, -0.0343213l 0.419935, -0.0343213l 0.419935, -0.0343213l 0.419935, -0.0343213l 0.419935, -0.0343213l 0.419935, -0.0343213l 0.419935, -0.0343213l 0.419935, -0.0343213l 0.419935, -0.0343213l 0.419935, -0.0343213l 0.419935, -0.0343213l
 0.419935, -0.0343213l 0.419935, -0.0343213l 0.419935, -0.0343213l 0.419935, -0.0343213l 0.419935, -0.0343213l 0.419935, -0.0343213" fill="none" stroke="#33cccc" stroke-width="3"/>
<path d="M231.616,234.251l 0.419935, -0.0343213l 0.419935, -0.0343213l 0.419935, -0.0343213l 0.419935, -0.0343213l 0.419935, -0.0343213l 0.419935, -0.0343213l 0.419935, -0.0343213l 0.419935, -0.0343213l 0.419935, -0.0343213l 0.419935, -0.0343213l
 0.419935, -0.0343213l 0.419935, -0.0343213l 0.419935, -0.0343213l 0.419935, -0.0343213l 0.419935, -0.0343213l 0.419935, -0.0343213l 0.419935, -0.0343213l 0.419935, -0.0343213l 0.419935, -0.0343213l 0.419935, -0.0343213l 0.419935, -0.0343213l
 0.419935, -0.0343213l 0.419935, -0.0343213l 0.419935, -0.0343213l 0.419935, -0.0343213l 0.419935, -0.0343213l 0.419935, -0.0343213l 0.419935, -0.0343213l 0.419935, -0.0343213l 0.419935, -0.0343213l 0.419935, -0.0343213l 0.419935, -0.0343213l
 0.419935, -0.0343213l 0.419935, -0.0343213l 0.419935, -0.0343213l 0.419935, -0.0343213l 0.419935, -0.0343213l 0.419935, -0.0343213l 0.419935, -0.0343213l 0.419935, -0.0343213l 0.419935, -0.0343213l 0.419935, -0.0343213l 0.419935, -0.0343213l
 0.419935, -0.0343213l 0.419935, -0.0343213l 0.419935, -0.0343213l 0.419935, -0.0343213l 0.419935, -0.0343213l 0.419935, -0.0343213" fill="none" stroke="#33cccc" stroke-width="3"/>
<path d="M252.193,232.569l 0.419935, -0.0343213l 0.419935, -0.0343213l 0.419935, -0.0343213l 0.419935, -0.0343213l 0.419935, -0.0343213l 0.419935, -0.0343213l 0.419935, -0.0343213l 0.419935, -0.0343213l 0.419935, -0.0343213l 0.419935, -0.0343213l
 0.419935, -0.0343213l 0.419935, -0.0343213l 0.419935, -0.0343213l 0.419935, -0.0343213l 0.419935, -0.0343213l 0.419935, -0.0343213l 0.419935, -0.0343213l 0.419935, -0.0343213l 0.419935, -0.0343213l 0.419935, -0.0343213l 0.419935, -0.0343213l
 0.419935, -0.0343213l 0.419935, -0.0343213l 0.419935, -0.0343213l 0.419935, -0.0343213l 0.419935, -0.0343213l 0.419935, -0.0343213l 0.419935, -0.0343213l 0.419935, -0.0343213l 0.419935, -0.0343213l 0.419935, -0.0343213l 0.419935, -0.0343213l
 0.419935, -0.0343213l 0.419935, -0.0343213l 0.419935, -0.0343213l 0.419935, -0.0343213l 0.419935, -0.0343213l 0.419935, -0.0343213l 0.419935, -0.0343213l 0.419935, -0.0343213l 0.419935, -0.0343213l 0.419935, -0.0343213l 0.419935, -0.0343213l
 0.419935, -0.0343213l 0.419935, -0.0343213l 0.419935, -0.0343213l 0.419935, -0.0343213l 0.419935, -0.0343213l 0.419935, -0.0343213" fill="none" stroke="#33cccc" stroke-width="3"/>
<path d="M272.77,230.888l 0.419935, -0.0343213l 0.419935, -0.0343213l 0.419935, -0.0343213l 0.419935, -0.0343213l 0.419935, -0.0343213l 0.419935, -0.0343213l 0.419935, -0.0343213l 0.419935, -0.0343213l 0.419935, -0.0343213l 0.419935, -0.0343213l
 0.419935, -0.0343213l 0.419935, -0.0343213l 0.419935, -0.0343213l 0.419935, -0.0343213l 0.419935, -0.0343213l 0.419935, -0.0343213l 0.419935, -0.0343213l 0.419935, -0.0343213l 0.419935, -0.0343213l 0.419935, -0.0343213l 0.419935, -0.0343213l
 0.419935, -0.0343213l 0.419935, -0.0343213l 0.419935, -0.0343213l 0.419935, -0.0343213l 0.419935, -0.0343213l 0.419935, -0.0343213l 0.419935, -0.0343213l 0.419935, -0.0343213l 0.419935, -0.0343213l 0.419935, -0.0343213l 0.419935, -0.0343213l
 0.419935, -0.0343213l 0.419935, -0.0343213l 0.419935, -0.0343213l 0.419935, -0.0343213l 0.419935, -0.0343213l 0.419935, -0.0343213l 0.419935, -0.0343213l 0.419935, -0.0343213l 0.419935, -0.0343213l 0.419935, -0.0343213l 0.419935, -0.0343213l
 0.419935, -0.0343213l 0.419935, -0.0343213l 0.419935, -0.0343213l 0.419935, -0.0343213l 0.419935, -0.0343213l 0.419935, -0.0343213" fill="none" stroke="#33cccc" stroke-width="3"/>
<path d="M293.346,229.206l 0.419935, -0.0343213l 0.419935, -0.0343213l 0.419935, -0.0343213l 0.419935, -0.0343213l 0.419935, -0.0343213l 0.419935, -0.0343213l 0.419935, -0.0343213l 0.419935, -0.0343213l 0.419935, -0.0343213l 0.419935, -0.0343213l
 0.419935, -0.0343213l 0.419935, -0.0343213l 0.419935, -0.0343213l 0.419935, -0.0343213l 0.419935, -0.0343213l 0.419935, -0.0343213l 0.419935, -0.0343213l 0.419935, -0.0343213l 0.419935, -0.0343213l 0.419935, -0.0343213l 0.419935, -0.0343213l
 0.419935, -0.0343213l 0.419935, -0.0343213l 0.419935, -0.0343213l 0.419935, -0.0343213l 0.419935, -0.0343213l 0.419935, -0.0343213l 0.419935, -0.0343213l 0.419935, -0.0343213l 0.419935, -0.0343213l 0.419935, -0.0343213l 0.419935, -0.0343213l
 0.419935, -0.0343213l 0.419935, -0.0343213l 0.419935, -0.0343213l 0.419935, -0.0343213l 0.419935, -0.0343213l 0.419935, -0.0343213l 0.419935, -0.0343213l 0.419935, -0.0343213l 0.419935, -0.0343213l 0.419935, -0.0343213l 0.419935, -0.0343213l
 0.419935, -0.0343213l 0.419935, -0.0343213l 0.419935, -0.0343213l 0.419935, -0.0343213l 0.419935, -0.0343213l 0.419935, -0.0343213" fill="none" stroke="#33cccc" stroke-width="3"/>
<path d="M313.923,227.524l 0.419935, -0.0343213l 0.419935, -0.0343213l 0.419935, -0.0343213l 0.419935, -0.0343213l 0.419935, -0.0343213l 0.419935, -0.0343213l 0.419935, -0.0343213l 0.419935, -0.0343213l 0.419935, -0.0343213l 0.419935, -0.0343213l
 0.419935, -0.0343213l 0.419935, -0.0343213l 0.419935, -0.0343213l 0.419935, -0.0343213l 0.419935, -0.0343213l 0.419935, -0.0343213l 0.419935, -0.0343213l 0.419935, -0.0343213l 0.419935, -0.0343213l 0.419935, -0.0343213l 0.419935, -0.0343213l
 0.419935, -0.0343213l 0.419935, -0.0343213l 0.419935, -0.0343213l 0.419935, -0.0343213l 0.419935, -0.0343213l 0.419935, -0.0343213l 0.419935, -0.0343213l 0.419935, -0.0343213l 0.419935, -0.0343213l 0.419935, -0.0343213l 0.419935, -0.0343213l
 0.419935, -0.0343213l 0.419935, -0.0343213l 0.419935, -0.0343213l 0.419935, -0.0343213l 0.419935, -0.0343213l 0.419935, -0.0343213l 0.419935, -0.0343213l 0.419935, -0.0343213l 0.419935, -0.0343213l 0.419935, -0.0343213l 0.419935, -0.0343213l
 0.419935, -0.0343213l 0.419935, -0.0343213l 0.419935, -0.0343213l 0.419935, -0.0343213l 0.419935, -0.0343213l 0.419935, -0.0343213" fill="none" stroke="#33cccc" stroke-width="3"/>
<path d="M334.5,225.842l 0.419935, -0.0343213l 0.419935, -0.0343213l 0.419935, -0.0343213l 0.419935, -0.0343213l 0.419935, -0.0343213l 0.419935, -0.0343213l 0.419935, -0.0343213l 0.419935, -0.0343213l 0.419935, -0.0343213l 0.419935, -0.0343213l
 0.419935, -0.0343213l 0.419935, -0.0343213l 0.419935, -0.0343213l 0.419935, -0.0343213l 0.419935, -0.0343213l 0.419935, -0.0343213l 0.419935, -0.0343213l 0.419935, -0.0343213l 0.419935, -0.0343213l 0.419935, -0.0343213l 0.419935, -0.0343213l
 0.419935, -0.0343213l 0.419935, -0.0343213l 0.419935, -0.0343213l 0.419935, -0.0343213l 0.419935, -0.0343213l 0.419935, -0.0343213l 0.419935, -0.0343213l 0.419935, -0.0343213l 0.419935, -0.0343213l 0.419935, -0.0343213l 0.419935, -0.0343213l
 0.419935, -0.0343213l 0.419935, -0.0343213l 0.419935, -0.0343213l 0.419935, -0.0343213l 0.419935, -0.0343213l 0.419935, -0.0343213l 0.419935, -0.0343213l 0.419935, -0.0343213l 0.419935, -0.0343213l 0.419935, -0.0343213l 0.419935, -0.0343213l
 0.419935, -0.0343213l 0.419935, -0.0343213l 0.419935, -0.0343213l 0.419935, -0.0343213l 0.419935, -0.0343213l 0.419935, -0.0343213" fill="none" stroke="#33cccc" stroke-width="3"/>
<path d="M355.077,224.161l 0.419935, -0.0343213l 0.419935, -0.0343213l 0.419935, -0.0343213l 0.419935, -0.0343213l 0.419935, -0.0343213l 0.419935, -0.0343213l 0.419935, -0.0343213l 0.419935, -0.0343213l 0.419935, -0.0343213l 0.419935, -0.0343213l
 0.419935, -0.0343213l 0.419935, -0.0343213l 0.419935, -0.0343213l 0.419935, -0.0343213l 0.419935, -0.0343213l 0.419935, -0.0343213l 0.419935, -0.0343213l 0.419935, -0.0343213l 0.419935, -0.0343213l 0.419935, -0.0343213l 0.419935, -0.0343213l
 0.419935, -0.0343213l 0.419935, -0.0343213l 0.419935, -0.0343213l 0.419935, -0.0343213l 0.419935, -0.0343213l 0.419935, -0.0343213l 0.419935, -0.0343213l 0.419935, -0.0343213l 0.419935, -0.0343213l 0.419935, -0.0343213l 0.419935, -0.0343213l
 0.419935, -0.0343213l 0.419935, -0.0343213l 0.419935, -0.0343213l 0.419935, -0.0343213l 0.419935, -0.0343213l 0.419935, -0.0343213l 0.419935, -0.0343213l 0.419935, -0.0343213l 0.419935, -0.0343213l 0.419935, -0.0343213l 0.419935, -0.0343213l
 0.419935, -0.0343213l 0.419935, -0.0343213l 0.419935, -0.0343213l 0.419935, -0.0343213l 0.419935, -0.0343213l 0.419935, -0.0343213" fill="none" stroke="#33cccc" stroke-width="3"/>
<path d="M375.654,222.479l 0.419935, -0.0343213l 0.419935, -0.0343213l 0.419935, -0.0343213l 0.419935, -0.0343213l 0.419935, -0.0343213l 0.419935, -0.0343213l 0.419935, -0.0343213l 0.419935, -0.0343213l 0.419935, -0.0343213l 0.419935, -0.0343213l
 0.419935, -0.0343213l 0.419935, -0.0343213l 0.419935, -0.0343213l 0.419935, -0.0343213l 0.419935, -0.0343213l 0.419935, -0.0343213l 0.419935, -0.0343213l 0.419935, -0.0343213l 0.419935, -0.0343213l 0.419935, -0.0343213l 0.419935, -0.0343213l
 0.419935, -0.0343213l 0.419935, -0.0343213l 0.419935, -0.0343213l 0.419935, -0.0343213l 0.419935, -0.0343213l 0.419935, -0.0343213l 0.419935, -0.0343213l 0.419935, -0.0343213l 0.419935, -0.0343213l 0.419935, -0.0343213l 0.419935, -0.0343213l
 0.419935, -0.0343213l 0.419935, -0.0343213l 0.419935, -0.0343213l 0.419935, -0.0343213l 0.419935, -0.0343213l 0.419935, -0.0343213l 0.419935, -0.0343213l 0.419935, -0.0343213l 0.419935, -0.0343213l 0.419935, -0.0343213l 0.419935, -0.0343213l
 0.419935, -0.0343213l 0.419935, -0.0343213l 0.419935, -0.0343213l 0.419935, -0.0343213l 0.419935, -0.0343213l 0.419935, -0.0343213" fill="none" stroke="#33cccc" stroke-width="3"/>
<path d="M396.23,220.797l 0.419935, -0.0343213l 0.419935, -0.0343213l 0.419935, -0.0343213l 0.419935, -0.0343213l 0.419935, -0.0343213l 0.419935, -0.0343213l 0.419935, -0.0343213l 0.419935, -0.0343213l 0.419935, -0.0343213l 0.419935, -0.0343213l
 0.419935, -0.0343213l 0.419935, -0.0343213l 0.419935, -0.0343213l 0.419935, -0.0343213l 0.419935, -0.0343213l 0.419935, -0.0343213l 0.419935, -0.0343213l 0.419935, -0.0343213l 0.419935, -0.0343213l 0.419935, -0.0343213l 0.419935, -0.0343213l
 0.419935, -0.0343213l 0.419935, -0.0343213l 0.419935, -0.0343213l 0.419935, -0.0343213l 0.419935, -0.0343213l 0.419935, -0.0343213l 0.419935, -0.0343213l 0.419935, -0.0343213l 0.419935, -0.0343213l 0.419935, -0.0343213l 0.419935, -0.0343213l
 0.419935, -0.0343213l 0.419935, -0.0343213l 0.419935, -0.0343213l 0.419935, -0.0343213l 0.419935, -0.0343213l 0.419935, -0.0343213l 0.419935, -0.0343213l 0.419935, -0.0343213l 0.419935, -0.0343213l 0.419935, -0.0343213l 0.419935, -0.0343213l
 0.419935, -0.0343213l 0.419935, -0.0343213l 0.419935, -0.0343213l 0.419935, -0.0343213l 0.419935, -0.0343213l 0.419935, -0.0343213" fill="none" stroke="#33cccc" stroke-width="3"/>
<path d="M416.807,219.115l 0.419935, -0.0343213l 0.419935, -0.0343213l 0.419935, -0.0343213l 0.419935, -0.0343213l 0.419935, -0.0343213l 0.419935, -0.0343213l 0.419935, -0.0343213l 0.419935, -0.0343213l 0.419935, -0.0343213l 0.419935, -0.0343213l
 0.419935, -0.0343213l 0.419935, -0.0343213l 0.419935, -0.0343213l 0.419935, -0.0343213l 0.419935, -0.0343213l 0.419935, -0.0343213l 0.419935, -0.0343213l 0.419935, -0.0343213l 0.419935, -0.0343213l 0.419935, -0.0343213l 0.419935, -0.0343213l
 0.419935, -0.0343213l 0.419935, -0.0343213l 0.419935, -0.0343213l 0.419935, -0.0343213l 0.419935, -0.0343213l 0.419935, -0.0343213l 0.419935, -0.0343213l 0.419935, -0.0343213l 0.419935, -0.0343213l 0.419935, -0.0343213l 0.419935, -0.0343213l
 0.419935, -0.0343213l 0.419935, -0.0343213l 0.419935, -0.0343213l 0.419935, -0.0343213l 0.419935, -0.0343213l 0.419935, -0.0343213l 0.419935, -0.0343213l 0.419935, -0.0343213l 0.419935, -0.0343213l 0.419935, -0.0343213l 0.419935, -0.0343213l
 0.419935, -0.0343213l 0.419935, -0.0343213l 0.419935, -0.0343213l 0.419935, -0.0343213l 0.419935, -0.0343213l 0.419935, -0.0343213" fill="none" stroke="#33cccc" stroke-width="3"/>
<path d="M437.384,217.434l 0.419935, -0.0343213l 0.419935, -0.0343213l 0.419935, -0.0343213l 0.419935, -0.0343213l 0.419935, -0.0343213l 0.419935, -0.0343213l 0.419935, -0.0343213l 0.419935, -0.0343213l 0.419935, -0.0343213l 0.419935, -0.0343213l
 0.419935, -0.0343213l 0.419935, -0.0343213l 0.419935, -0.0343213l 0.419935, -0.0343213l 0.419935, -0.0343213l 0.419935, -0.0343213l 0.419935, -0.0343213l 0.419935, -0.0343213l 0.419935, -0.0343213l 0.419935, -0.0343213l 0.419935, -0.0343213l
 0.419935, -0.0343213l 0.419935, -0.0343213l 0.419935, -0.0343213l 0.419935, -0.0343213l 0.419935, -0.0343213l 0.419935, -0.0343213l 0.419935, -0.0343213l 0.419935, -0.0343213l 0.419935, -0.0343213l 0.419935, -0.0343213l 0.419935, -0.0343213l
 0.419935, -0.0343213l 0.419935, -0.0343213l 0.419935, -0.0343213l 0.419935, -0.0343213l 0.419935, -0.0343213l 0.419935, -0.0343213l 0.419935, -0.0343213l 0.419935, -0.0343213l 0.419935, -0.0343213l 0.419935, -0.0343213l 0.419935, -0.0343213l
 0.419935, -0.0343213l 0.419935, -0.0343213l 0.419935, -0.0343213l 0.419935, -0.0343213l 0.419935, -0.0343213l 0.419935, -0.0343213" fill="none" stroke="#33cccc" stroke-width="3"/>
<path d="M457.961,215.752l 0.419935, -0.0343213l 0.419935, -0.0343213l 0.419935, -0.0343213l 0.419935, -0.0343213l 0.419935, -0.0343213l 0.419935, -0.0343213l 0.419935, -0.0343213l 0.419935, -0.0343213l 0.419935, -0.0343213l 0.419935, -0.0343213l
 0.419935, -0.0343213l 0.419935, -0.0343213l 0.419935, -0.0343213l 0.419935, -0.0343213l 0.419935, -0.0343213l 0.419935, -0.0343213l 0.419935, -0.0343213l 0.419935, -0.0343213l 0.419935, -0.0343213l 0.419935, -0.0343213l 0.419935, -0.0343213l
 0.419935, -0.0343213l 0.419935, -0.0343213l 0.419935, -0.0343213l 0.419935, -0.0343213l 0.419935, -0.0343213l 0.419935, -0.0343213l 0.419935, -0.0343213l 0.419935, -0.0343213l 0.419935, -0.0343213l 0.419935, -0.0343213l 0.419935, -0.0343213l
 0.419935, -0.0343213l 0.419935, -0.0343213l 0.419935, -0.0343213l 0.419935, -0.0343213l 0.419935, -0.0343213l 0.419935, -0.0343213l 0.419935, -0.0343213l 0.419935, -0.0343213l 0.419935, -0.0343213l 0.419935, -0.0343213l 0.419935, -0.0343213l
 0.419935, -0.0343213l 0.419935, -0.0343213l 0.419935, -0.0343213l 0.419935, -0.0343213l 0.419935, -0.0343213l 0.419935, -0.0343213" fill="none" stroke="#33cccc" stroke-width="3"/>
<path d="M478.538,214.07l 0.419935, -0.0343213l 0.419935, -0.0343213l 0.419935, -0.0343213l 0.419935, -0.0343213l 0.419935, -0.0343213l 0.419935, -0.0343213l 0.419935, -0.0343213l 0.419935, -0.0343213l 0.419935, -0.0343213l 0.419935, -0.0343213l
 0.419935, -0.0343213l 0.419935, -0.0343213l 0.419935, -0.0343213l 0.419935, -0.0343213l 0.419935, -0.0343213l 0.419935, -0.0343213l 0.419935, -0.0343213l 0.419935, -0.0343213l 0.419935, -0.0343213l 0.419935, -0.0343213l 0.419935, -0.0343213l
 0.419935, -0.0343213l 0.419935, -0.0343213l 0.419935, -0.0343213l 0.419935, -0.0343213l 0.419935, -0.0343213l 0.419935, -0.0343213l 0.419935, -0.0343213l 0.419935, -0.0343213l 0.419935, -0.0343213l 0.419935, -0.0343213l 0.419935, -0.0343213l
 0.419935, -0.0343213l 0.419935, -0.0343213l 0.419935, -0.0343213l 0.419935, -0.0343213l 0.419935, -0.0343213l 0.419935, -0.0343213l 0.419935, -0.0343213l 0.419935, -0.0343213l 0.419935, -0.0343213l 0.419935, -0.0343213l 0.419935, -0.0343213l
 0.419935, -0.0343213l 0.419935, -0.0343213l 0.419935, -0.0343213l 0.419935, -0.0343213l 0.419935, -0.0343213l 0.419935, -0.0343213" fill="none" stroke="#33cccc" stroke-width="3"/>
<path d="M499.114,212.388l 0.419935, -0.0343213l 0.419935, -0.0343213l 0.419935, -0.0343213l 0.419935, -0.0343213l 0.419935, -0.0343213l 0.419935, -0.0343213l 0.419935, -0.0343213l 0.419935, -0.0343213l 0.419935, -0.0343213l 0.419935, -0.0343213l
 0.419935, -0.0343213l 0.419935, -0.0343213l 0.419935, -0.0343213l 0.419935, -0.0343213l 0.419935, -0.0343213l 0.419935, -0.0343213l 0.419935, -0.0343213l 0.419935, -0.0343213l 0.419935, -0.0343213l 0.419935, -0.0343213l 0.419935, -0.0343213l
 0.419935, -0.0343213l 0.419935, -0.0343213l 0.419935, -0.0343213l 0.419935, -0.0343213l 0.419935, -0.0343213l 0.419935, -0.0343213l 0.419935, -0.0343213l 0.419935, -0.0343213l 0.419935, -0.0343213l 0.419935, -0.0343213l 0.419935, -0.0343213l
 0.419935, -0.0343213l 0.419935, -0.0343213l 0.419935, -0.0343213l 0.419935, -0.0343213l 0.419935, -0.0343213l 0.419935, -0.0343213l 0.419935, -0.0343213l 0.419935, -0.0343213l 0.419935, -0.0343213l 0.419935, -0.0343213l 0.419935, -0.0343213l
 0.419935, -0.0343213l 0.419935, -0.0343213l 0.419935, -0.0343213l 0.419935, -0.0343213l 0.419935, -0.0343213l 0.419935, -0.0343213" fill="none" stroke="#33cccc" stroke-width="3"/>
<path d="M519.691,210.707l 0.419935, -0.0343213l 0.419935, -0.0343213l 0.419935, -0.0343213l 0.419935, -0.0343213l 0.419935, -0.0343213l 0.419935, -0.0343213l 0.419935, -0.0343213l 0.419935, -0.0343213l 0.419935, -0.0343213l 0.419935, -0.0343213l
 0.419935, -0.0343213l 0.419935, -0.0343213l 0.419935, -0.0343213l 0.419935, -0.0343213l 0.419935, -0.0343213l 0.419935, -0.0343213l 0.419935, -0.0343213l 0.419935, -0.0343213l 0.419935, -0.0343213l 0.419935, -0.0343213l 0.419935, -0.0343213l
 0.419935, -0.0343213l 0.419935, -0.0343213l 0.419935, -0.0343213l 0.419935, -0.0343213l 0.419935, -0.0343213l 0.419935, -0.0343213l 0.419935, -0.0343213l 0.419935, -0.0343213l 0.419935, -0.0343213l 0.419935, -0.0343213l 0.419935, -0.0343213l
 0.419935, -0.0343213l 0.419935, -0.0343213l 0.419935, -0.0343213l 0.419935, -0.0343213l 0.419935, -0.0343213l 0.419935, -0.0343213l 0.419935, -0.0343213l 0.419935, -0.0343213l 0.419935, -0.0343213l 0.419935, -0.0343213l 0.419935, -0.0343213l
 0.419935, -0.0343213l 0.419935, -0.0343213l 0.419935, -0.0343213l 0.419935, -0.0343213l 0.419935, -0.0343213l 0.419935, -0.0343213" fill="none" stroke="#33cccc" stroke-width="3"/>
<path d="M540.268,209.025l 0.419935, -0.0343213l 0.419935, -0.0343213l 0.419935, -0.0343213l 0.419935, -0.0343213l 0.419935, -0.0343213l 0.419935, -0.0343213l 0.419935, -0.0343213l 0.419935, -0.0343213l 0.419935, -0.0343213l 0.419935, -0.0343213l
 0.419935, -0.0343213l 0.419935, -0.0343213l 0.419935, -0.0343213l 0.419935, -0.0343213l 0.419935, -0.0343213l 0.419935, -0.0343213l 0.419935, -0.0343213l 0.419935, -0.0343213l 0.419935, -0.0343213" fill="none" stroke="#33cccc" stroke-width="3"/>
<path d="M128.732,261.71l 0.419935, -0.123445l 0.419935, -0.123256l 0.419935, -0.123067l 0.419935, -0.122878l 0.419935, -0.122689l 0.419935, -0.1225l 0.419935, -0.122311l 0.419935, -0.122122l 0.419935, -0.121933l 0.419935, -0.121744l 0.419935,
 -0.121556l 0.419935, -0.121367l 0.419935, -0.121178l 0.419935, -0.120989l 0.419935, -0.1208l 0.419935, -0.120611l 0.419935, -0.120422l 0.419935, -0.120233l 0.419935, -0.120044l 0.419935, -0.119855l 0.419935, -0.119666l 0.419935, -0.119477l 0.419935,
 -0.119288l 0.419935, -0.1191l 0.419935, -0.118911l 0.419935, -0.118722l 0.419935, -0.118533l 0.419935, -0.118344l 0.419935, -0.118155l 0.419935, -0.117966l 0.419935, -0.117777l 0.419935, -0.117588l 0.419935, -0.117399l 0.419935, -0.11721l 0.419935,
 -0.117021l 0.419935, -0.116833l 0.419935, -0.116644l 0.419935, -0.116455l 0.419935, -0.116266l 0.419935, -0.116077l 0.419935, -0.115888l 0.419935, -0.115699l 0.419935, -0.11551l 0.419935, -0.115321l 0.419935, -0.115132l 0.419935, -0.114943l
 0.419935, -0.114754l 0.419935, -0.114565l 0.419935, -0.114377" fill="none" stroke="#ff0066" stroke-width="3"/>
<path d="M149.309,255.883l 0.419935, -0.114188l 0.419935, -0.113999l 0.419935, -0.11381l 0.419935, -0.113621l 0.419935, -0.113432l 0.419935, -0.113243l 0.419935, -0.113054l 0.419935, -0.112865l 0.419935, -0.112676l 0.419935, -0.112487l 0.419935,
 -0.112298l 0.419935, -0.11211l 0.419935, -0.111921l 0.419935, -0.111732l 0.419935, -0.111543l 0.419935, -0.111354l 0.419935, -0.111165l 0.419935, -0.110976l 0.419935, -0.110787l 0.419935, -0.110598l 0.419935, -0.110409l 0.419935, -0.11022l 0.419935,
 -0.110031l 0.419935, -0.109842l 0.419935, -0.109654l 0.419935, -0.109465l 0.419935, -0.109276l 0.419935, -0.109087l 0.419935, -0.108898l 0.419935, -0.108709l 0.419935, -0.10852l 0.419935, -0.108331l 0.419935, -0.108142l 0.419935, -0.107953l
 0.419935, -0.107764l 0.419935, -0.107575l 0.419935, -0.107386l 0.419935, -0.107198l 0.419935, -0.107009l 0.419935, -0.10682l 0.419935, -0.106631l 0.419935, -0.106442l 0.419935, -0.106253l 0.419935, -0.106064l 0.419935, -0.105875l 0.419935,
 -0.105686l 0.419935, -0.105497l 0.419935, -0.105308l 0.419935, -0.105119" fill="none" stroke="#ff0066" stroke-width="3"/>
<path d="M169.886,250.51l 0.419935, -0.104931l 0.419935, -0.104742l 0.419935, -0.104553l 0.419935, -0.104364l 0.419935, -0.104175l 0.419935, -0.103986l 0.419935, -0.103797l 0.419935, -0.103608l 0.419935, -0.103419l 0.419935, -0.10323l 0.419935,
 -0.103041l 0.419935, -0.102852l 0.419935, -0.102663l 0.419935, -0.102475l 0.419935, -0.102286l 0.419935, -0.102097l 0.419935, -0.101908l 0.419935, -0.101719l 0.419935, -0.10153l 0.419935, -0.101341l 0.419935, -0.101152l 0.419935, -0.100963l
 0.419935, -0.100774l 0.419935, -0.100585l 0.419935, -0.100396l 0.419935, -0.100208l 0.419935, -0.100019l 0.419935, -0.0998297l 0.419935, -0.0996408l 0.419935, -0.0994519l 0.419935, -0.0992629l 0.419935, -0.099074l 0.419935, -0.0988851l 0.419935,
 -0.0986962l 0.419935, -0.0985073l 0.419935, -0.0983183l 0.419935, -0.0981294l 0.419935, -0.0979405l 0.419935, -0.0977516l 0.419935, -0.0975626l 0.419935, -0.0973737l 0.419935, -0.0971848l 0.419935, -0.0969959l 0.419935, -0.096807l 0.419935,
 -0.096618l 0.419935, -0.0964291l 0.419935, -0.0962402l 0.419935, -0.0960513l 0.419935, -0.0958624" fill="none" stroke="#ff0066" stroke-width="3"/>
<path d="M190.462,245.59l 0.419935, -0.0956734l 0.419935, -0.0954845l 0.419935, -0.0952956l 0.419935, -0.0951067l 0.419935, -0.0949178l 0.419935, -0.0947288l 0.419935, -0.0945399l 0.419935, -0.094351l 0.419935, -0.0941621l 0.419935, -0.0939732l
 0.419935, -0.0937842l 0.419935, -0.0935953l 0.419935, -0.0934064l 0.419935, -0.0932175l 0.419935, -0.0930286l 0.419935, -0.0928396l 0.419935, -0.0926507l 0.419935, -0.0924618l 0.419935, -0.0922729l 0.419935, -0.092084l 0.419935, -0.091895l 0.419935,
 -0.0917061l 0.419935, -0.0915172l 0.419935, -0.0913283l 0.419935, -0.0911394l 0.419935, -0.0909504l 0.419935, -0.0907615l 0.419935, -0.0905726l 0.419935, -0.0903837l 0.419935, -0.0901948l 0.419935, -0.0900058l 0.419935, -0.0898169l 0.419935,
 -0.089628l 0.419935, -0.0894391l 0.419935, -0.0892502l 0.419935, -0.0890612l 0.419935, -0.0888723l 0.419935, -0.0886834l 0.419935, -0.0884945l 0.419935, -0.0883056l 0.419935, -0.0881166l 0.419935, -0.0879277l 0.419935, -0.0877388l 0.419935,
 -0.0875499l 0.419935, -0.087361l 0.419935, -0.087172l 0.419935, -0.0869831l 0.419935, -0.0867942l 0.419935, -0.0866053" fill="none" stroke="#ff0066" stroke-width="3"/>
<path d="M211.039,241.125l 0.419935, -0.0864164l 0.419935, -0.0862274l 0.419935, -0.0860385l 0.419935, -0.0858496l 0.419935, -0.0856607l 0.419935, -0.0854718l 0.419935, -0.0852828l 0.419935, -0.0850939l 0.419935, -0.084905l 0.419935, -0.0847161l
 0.419935, -0.0845272l 0.419935, -0.0843382l 0.419935, -0.0841493l 0.419935, -0.0839604l 0.419935, -0.0837715l 0.419935, -0.0835826l 0.419935, -0.0833936l 0.419935, -0.0832047l 0.419935, -0.0830158l 0.419935, -0.0828269l 0.419935, -0.082638l
 0.419935, -0.082449l 0.419935, -0.0822601l 0.419935, -0.0820712l 0.419935, -0.0818823l 0.419935, -0.0816934l 0.419935, -0.0815044l 0.419935, -0.0813155l 0.419935, -0.0811266l 0.419935, -0.0809377l 0.419935, -0.0807488l 0.419935, -0.0805598l
 0.419935, -0.0803709l 0.419935, -0.080182l 0.419935, -0.0799931l 0.419935, -0.0798042l 0.419935, -0.0796152l 0.419935, -0.0794263l 0.419935, -0.0792374l 0.419935, -0.0790485l 0.419935, -0.0788596l 0.419935, -0.0786706l 0.419935, -0.0784817l
 0.419935, -0.0782928l 0.419935, -0.0781039l 0.419935, -0.0779149l 0.419935, -0.077726l 0.419935, -0.0775371l 0.419935, -0.0773482" fill="none" stroke="#ff0066" stroke-width="3"/>
<path d="M231.616,237.112l 0.419935, -0.0771593l 0.419935, -0.0769703l 0.419935, -0.0767814l 0.419935, -0.0765925l 0.419935, -0.0764036l 0.419935, -0.0762147l 0.419935, -0.0760257l 0.419935, -0.0758368l 0.419935, -0.0756479l 0.419935, -0.075459l
 0.419935, -0.0752701l 0.419935, -0.0750811l 0.419935, -0.0748922l 0.419935, -0.0747033l 0.419935, -0.0745144l 0.419935, -0.0743255l 0.419935, -0.0741365l 0.419935, -0.0739476l 0.419935, -0.0737587l 0.419935, -0.0735698l 0.419935, -0.0733809l
 0.419935, -0.0731919l 0.419935, -0.073003l 0.419935, -0.0728141l 0.419935, -0.0726252l 0.419935, -0.0724363l 0.419935, -0.0722473l 0.419935, -0.0720584l 0.419935, -0.0718695l 0.419935, -0.0716806l 0.419935, -0.0714917l 0.419935, -0.0713027l
 0.419935, -0.0711138l 0.419935, -0.0709249l 0.419935, -0.070736l 0.419935, -0.0705471l 0.419935, -0.0703581l 0.419935, -0.0701692l 0.419935, -0.0699803l 0.419935, -0.0697914l 0.419935, -0.0696025l 0.419935, -0.0694135l 0.419935, -0.0692246l
 0.419935, -0.0690357l 0.419935, -0.0688468l 0.419935, -0.0686579l 0.419935, -0.0684689l 0.419935, -0.06828l 0.419935, -0.0680911" fill="none" stroke="#ff0066" stroke-width="3"/>
<path d="M252.193,233.554l 0.419935, -0.0679022l 0.419935, -0.0677133l 0.419935, -0.0675243l 0.419935, -0.0673354l 0.419935, -0.0671465l 0.419935, -0.0669576l 0.419935, -0.0667687l 0.419935, -0.0665797l 0.419935, -0.0663908l 0.419935, -0.0662019l
 0.419935, -0.066013l 0.419935, -0.0658241l 0.419935, -0.0656351l 0.419935, -0.0654462l 0.419935, -0.0652573l 0.419935, -0.0650684l 0.419935, -0.0648795l 0.419935, -0.0646905l 0.419935, -0.0645016l 0.419935, -0.0643127l 0.419935, -0.0641238l
 0.419935, -0.0639349l 0.419935, -0.0637459l 0.419935, -0.063557l 0.419935, -0.0633681l 0.419935, -0.0631792l 0.419935, -0.0629903l 0.419935, -0.0628013l 0.419935, -0.0626124l 0.419935, -0.0624235l 0.419935, -0.0622346l 0.419935, -0.0620457l
 0.419935, -0.0618567l 0.419935, -0.0616678l 0.419935, -0.0614789l 0.419935, -0.06129l 0.419935, -0.061101l 0.419935, -0.0609121l 0.419935, -0.0607232l 0.419935, -0.0605343l 0.419935, -0.0603454l 0.419935, -0.0601564l 0.419935, -0.0599675l 0.419935,
 -0.0597786l 0.419935, -0.0595897l 0.419935, -0.0594008l 0.419935, -0.0592118l 0.419935, -0.0590229l 0.419935, -0.058834" fill="none" stroke="#ff0066" stroke-width="3"/>
<path d="M272.77,230.449l 0.419935, -0.0586451l 0.419935, -0.0584562l 0.419935, -0.0582672l 0.419935, -0.0580783l 0.419935, -0.0578894l 0.419935, -0.0577005l 0.419935, -0.0575116l 0.419935, -0.0573226l 0.419935, -0.0571337l 0.419935, -0.0569448l
 0.419935, -0.0567559l 0.419935, -0.056567l 0.419935, -0.056378l 0.419935, -0.0561891l 0.419935, -0.0560002l 0.419935, -0.0558113l 0.419935, -0.0556224l 0.419935, -0.0554334l 0.419935, -0.0552445l 0.419935, -0.0550556l 0.419935, -0.0548667l 0.419935,
 -0.0546778l 0.419935, -0.0544888l 0.419935, -0.0542999l 0.419935, -0.054111l 0.419935, -0.0539221l 0.419935, -0.0537332l 0.419935, -0.0535442l 0.419935, -0.0533553l 0.419935, -0.0531664l 0.419935, -0.0529775l 0.419935, -0.0527886l 0.419935,
 -0.0525996l 0.419935, -0.0524107l 0.419935, -0.0522218l 0.419935, -0.0520329l 0.419935, -0.051844l 0.419935, -0.051655l 0.419935, -0.0514661l 0.419935, -0.0512772l 0.419935, -0.0510883l 0.419935, -0.0508994l 0.419935, -0.0507104l 0.419935,
 -0.0505215l 0.419935, -0.0503326l 0.419935, -0.0501437l 0.419935, -0.0499548l 0.419935, -0.0497658l 0.419935, -0.0495769" fill="none" stroke="#ff0066" stroke-width="3"/>
<path d="M293.346,227.797l 0.419935, -0.049388l 0.419935, -0.0491991l 0.419935, -0.0490102l 0.419935, -0.0488212l 0.419935, -0.0486323l 0.419935, -0.0484434l 0.419935, -0.0482545l 0.419935, -0.0480656l 0.419935, -0.0478766l 0.419935, -0.0476877l
 0.419935, -0.0474988l 0.419935, -0.0473099l 0.419935, -0.047121l 0.419935, -0.046932l 0.419935, -0.0467431l 0.419935, -0.0465542l 0.419935, -0.0463653l 0.419935, -0.0461764l 0.419935, -0.0459874l 0.419935, -0.0457985l 0.419935, -0.0456096l 0.419935,
 -0.0454207l 0.419935, -0.0452318l 0.419935, -0.0450428l 0.419935, -0.0448539l 0.419935, -0.044665l 0.419935, -0.0444761l 0.419935, -0.0442872l 0.419935, -0.0440982l 0.419935, -0.0439093l 0.419935, -0.0437204l 0.419935, -0.0435315l 0.419935,
 -0.0433425l 0.419935, -0.0431536l 0.419935, -0.0429647l 0.419935, -0.0427758l 0.419935, -0.0425869l 0.419935, -0.0423979l 0.419935, -0.042209l 0.419935, -0.0420201l 0.419935, -0.0418312l 0.419935, -0.0416423l 0.419935, -0.0414533l 0.419935,
 -0.0412644l 0.419935, -0.0410755l 0.419935, -0.0408866l 0.419935, -0.0406977l 0.419935, -0.0405087l 0.419935, -0.0403198" fill="none" stroke="#ff0066" stroke-width="3"/>
<path d="M313.923,225.599l 0.419935, -0.0401309l 0.419935, -0.039942l 0.419935, -0.0397531l 0.419935, -0.0395641l 0.419935, -0.0393752l 0.419935, -0.0391863l 0.419935, -0.0389974l 0.419935, -0.0388085l 0.419935, -0.0386195l 0.419935, -0.0384306l
 0.419935, -0.0382417l 0.419935, -0.0380528l 0.419935, -0.0378639l 0.419935, -0.0376749l 0.419935, -0.037486l 0.419935, -0.0372971l 0.419935, -0.0371082l 0.419935, -0.0369193l 0.419935, -0.0367303l 0.419935, -0.0365414l 0.419935, -0.0363525l
 0.419935, -0.0361636l 0.419935, -0.0359747l 0.419935, -0.0357857l 0.419935, -0.0355968l 0.419935, -0.0354079l 0.419935, -0.035219l 0.419935, -0.0350301l 0.419935, -0.0348411l 0.419935, -0.0346522l 0.419935, -0.0344633l 0.419935, -0.0342744l
 0.419935, -0.0340855l 0.419935, -0.0338965l 0.419935, -0.0337076l 0.419935, -0.0335187l 0.419935, -0.0333298l 0.419935, -0.0331409l 0.419935, -0.0329519l 0.419935, -0.032763l 0.419935, -0.0325741l 0.419935, -0.0323852l 0.419935, -0.0321963l
 0.419935, -0.0320073l 0.419935, -0.0318184l 0.419935, -0.0316295l 0.419935, -0.0314406l 0.419935, -0.0312517l 0.419935, -0.0310627" fill="none" stroke="#ff0066" stroke-width="3"/>
<path d="M334.5,223.855l 0.419935, -0.0308738l 0.419935, -0.0306849l 0.419935, -0.030496l 0.419935, -0.0303071l 0.419935, -0.0301181l 0.419935, -0.0299292l 0.419935, -0.0297403l 0.419935, -0.0295514l 0.419935, -0.0293625l 0.419935, -0.0291735l
 0.419935, -0.0289846l 0.419935, -0.0287957l 0.419935, -0.0286068l 0.419935, -0.0284179l 0.419935, -0.0282289l 0.419935, -0.02804l 0.419935, -0.0278511l 0.419935, -0.0276622l 0.419935, -0.0274733l 0.419935, -0.0272843l 0.419935, -0.0270954l 0.419935,
 -0.0269065l 0.419935, -0.0267176l 0.419935, -0.0265287l 0.419935, -0.0263397l 0.419935, -0.0261508l 0.419935, -0.0259619l 0.419935, -0.025773l 0.419935, -0.0255841l 0.419935, -0.0253951l 0.419935, -0.0252062l 0.419935, -0.0250173l 0.419935,
 -0.0248284l 0.419935, -0.0246395l 0.419935, -0.0244505l 0.419935, -0.0242616l 0.419935, -0.0240727l 0.419935, -0.0238838l 0.419935, -0.0236948l 0.419935, -0.0235059l 0.419935, -0.023317l 0.419935, -0.0231281l 0.419935, -0.0229392l 0.419935,
 -0.0227502l 0.419935, -0.0225613l 0.419935, -0.0223724l 0.419935, -0.0221835l 0.419935, -0.0219946l 0.419935, -0.0218056" fill="none" stroke="#ff0066" stroke-width="3"/>
<path d="M355.077,222.565l 0.419935, -0.0216167l 0.419935, -0.0214278l 0.419935, -0.0212389l 0.419935, -0.02105l 0.419935, -0.020861l 0.419935, -0.0206721l 0.419935, -0.0204832l 0.419935, -0.0202943l 0.419935, -0.0201054l 0.419935, -0.0199164l
 0.419935, -0.0197275l 0.419935, -0.0195386l 0.419935, -0.0193497l 0.419935, -0.0191608l 0.419935, -0.0189718l 0.419935, -0.0187829l 0.419935, -0.018594l 0.419935, -0.0184051l 0.419935, -0.0182162l 0.419935, -0.0180272l 0.419935, -0.0178383l
 0.419935, -0.0176494l 0.419935, -0.0174605l 0.419935, -0.0172716l 0.419935, -0.0170826l 0.419935, -0.0168937l 0.419935, -0.0167048l 0.419935, -0.0165159l 0.419935, -0.016327l 0.419935, -0.016138l 0.419935, -0.0159491l 0.419935, -0.0157602l 0.419935,
 -0.0155713l 0.419935, -0.0153824l 0.419935, -0.0151934l 0.419935, -0.0150045l 0.419935, -0.0148156l 0.419935, -0.0146267l 0.419935, -0.0144378l 0.419935, -0.0142488l 0.419935, -0.0140599l 0.419935, -0.013871l 0.419935, -0.0136821l 0.419935,
 -0.0134932l 0.419935, -0.0133042l 0.419935, -0.0131153l 0.419935, -0.0129264l 0.419935, -0.0127375l 0.419935, -0.0125486" fill="none" stroke="#ff0066" stroke-width="3"/>
<path d="M375.654,221.728l 0.419935, -0.0123596l 0.419935, -0.0121707l 0.419935, -0.0119818l 0.419935, -0.0117929l 0.419935, -0.011604l 0.419935, -0.011415l 0.419935, -0.0112261l 0.419935, -0.0110372l 0.419935, -0.0108483l 0.419935, -0.0106594l
 0.419935, -0.0104704l 0.419935, -0.0102815l 0.419935, -0.0100926l 0.419935, -0.00990367l 0.419935, -0.00971475l 0.419935, -0.00952583l 0.419935, -0.00933691l 0.419935, -0.00914799l 0.419935, -0.00895907l 0.419935, -0.00877015l 0.419935, -0.00858123l
 0.419935, -0.00839231l 0.419935, -0.00820339l 0.419935, -0.00801447l 0.419935, -0.00782555l 0.419935, -0.00763663l 0.419935, -0.00744771l 0.419935, -0.00725879l 0.419935, -0.00706987l 0.419935, -0.00688095l 0.419935, -0.00669203l 0.419935,
 -0.00650311l 0.419935, -0.00631419l 0.419935, -0.00612527l 0.419935, -0.00593635l 0.419935, -0.00574743l 0.419935, -0.00555851l 0.419935, -0.00536959l 0.419935, -0.00518067l 0.419935, -0.00499175l 0.419935, -0.00480283l 0.419935, -0.00461391l
 0.419935, -0.00442499l 0.419935, -0.00423607l 0.419935, -0.00404715l 0.419935, -0.00385823l 0.419935, -0.00366931l 0.419935, -0.00348039l 0.419935, -0.00329147" fill="none" stroke="#ff0066" stroke-width="3"/>
<path d="M396.23,221.344l 0.419935, -0.00310255l 0.419935, -0.00291363l 0.419935, -0.00272471l 0.419935, -0.00253578l 0.419935, -0.00234686l 0.419935, -0.00215794l 0.419935, -0.00196902l 0.419935, -0.0017801l 0.419935, -0.00159118l 0.419935,
 -0.00140226l 0.419935, -0.00121334l 0.419935, -0.00102442l 0.419935, -0.000835503l 0.419935, -0.000646583l 0.419935, -0.000457662l 0.419935, -0.000268742l 0.419935, -7.98221e-05l 0.419935, 0.000109098l 0.419935, 0.000298018l 0.419935, 0.000486939l
 0.419935, 0.000675859l 0.419935, 0.000864779l 0.419935, 0.0010537l 0.419935, 0.00124262l 0.419935, 0.00143154l 0.419935, 0.00162046l 0.419935, 0.00180938l 0.419935, 0.0019983l 0.419935, 0.00218722l 0.419935, 0.00237614l 0.419935, 0.00256506l
 0.419935, 0.00275398l 0.419935, 0.0029429l 0.419935, 0.00313182l 0.419935, 0.00332074l 0.419935, 0.00350966l 0.419935, 0.00369858l 0.419935, 0.0038875l 0.419935, 0.00407642l 0.419935, 0.00426534l 0.419935, 0.00445426l 0.419935, 0.00464318l 0.419935,
 0.0048321l 0.419935, 0.00502102l 0.419935, 0.00520994l 0.419935, 0.00539886l 0.419935, 0.00558778l 0.419935, 0.0057767l 0.419935, 0.00596562" fill="none" stroke="#ff0066" stroke-width="3"/>
<path d="M416.807,221.414l 0.419935, 0.00615454l 0.419935, 0.00634347l 0.419935, 0.00653239l 0.419935, 0.00672131l 0.419935, 0.00691023l 0.419935, 0.00709915l 0.419935, 0.00728807l 0.419935, 0.00747699l 0.419935, 0.00766591l 0.419935, 0.00785483l
 0.419935, 0.00804375l 0.419935, 0.00823267l 0.419935, 0.00842159l 0.419935, 0.00861051l 0.419935, 0.00879943l 0.419935, 0.00898835l 0.419935, 0.00917727l 0.419935, 0.00936619l 0.419935, 0.00955511l 0.419935, 0.00974403l 0.419935, 0.00993295l
 0.419935, 0.0101219l 0.419935, 0.0103108l 0.419935, 0.0104997l 0.419935, 0.0106886l 0.419935, 0.0108776l 0.419935, 0.0110665l 0.419935, 0.0112554l 0.419935, 0.0114443l 0.419935, 0.0116332l 0.419935, 0.0118222l 0.419935, 0.0120111l 0.419935, 0.0122l
 0.419935, 0.0123889l 0.419935, 0.0125778l 0.419935, 0.0127668l 0.419935, 0.0129557l 0.419935, 0.0131446l 0.419935, 0.0133335l 0.419935, 0.0135224l 0.419935, 0.0137114l 0.419935, 0.0139003l 0.419935, 0.0140892l 0.419935, 0.0142781l 0.419935,
 0.014467l 0.419935, 0.014656l 0.419935, 0.0148449l 0.419935, 0.0150338l 0.419935, 0.0152227" fill="none" stroke="#ff0066" stroke-width="3"/>
<path d="M437.384,221.938l 0.419935, 0.0154116l 0.419935, 0.0156006l 0.419935, 0.0157895l 0.419935, 0.0159784l 0.419935, 0.0161673l 0.419935, 0.0163562l 0.419935, 0.0165452l 0.419935, 0.0167341l 0.419935, 0.016923l 0.419935, 0.0171119l 0.419935,
 0.0173008l 0.419935, 0.0174898l 0.419935, 0.0176787l 0.419935, 0.0178676l 0.419935, 0.0180565l 0.419935, 0.0182454l 0.419935, 0.0184344l 0.419935, 0.0186233l 0.419935, 0.0188122l 0.419935, 0.0190011l 0.419935, 0.01919l 0.419935, 0.019379l 0.419935,
 0.0195679l 0.419935, 0.0197568l 0.419935, 0.0199457l 0.419935, 0.0201346l 0.419935, 0.0203236l 0.419935, 0.0205125l 0.419935, 0.0207014l 0.419935, 0.0208903l 0.419935, 0.0210792l 0.419935, 0.0212682l 0.419935, 0.0214571l 0.419935, 0.021646l
 0.419935, 0.0218349l 0.419935, 0.0220238l 0.419935, 0.0222128l 0.419935, 0.0224017l 0.419935, 0.0225906l 0.419935, 0.0227795l 0.419935, 0.0229684l 0.419935, 0.0231574l 0.419935, 0.0233463l 0.419935, 0.0235352l 0.419935, 0.0237241l 0.419935,
 0.023913l 0.419935, 0.024102l 0.419935, 0.0242909l 0.419935, 0.0244798" fill="none" stroke="#ff0066" stroke-width="3"/>
<path d="M457.961,222.915l 0.419935, 0.0246687l 0.419935, 0.0248576l 0.419935, 0.0250466l 0.419935, 0.0252355l 0.419935, 0.0254244l 0.419935, 0.0256133l 0.419935, 0.0258022l 0.419935, 0.0259912l 0.419935, 0.0261801l 0.419935, 0.026369l 0.419935,
 0.0265579l 0.419935, 0.0267468l 0.419935, 0.0269358l 0.419935, 0.0271247l 0.419935, 0.0273136l 0.419935, 0.0275025l 0.419935, 0.0276914l 0.419935, 0.0278804l 0.419935, 0.0280693l 0.419935, 0.0282582l 0.419935, 0.0284471l 0.419935, 0.028636l
 0.419935, 0.028825l 0.419935, 0.0290139l 0.419935, 0.0292028l 0.419935, 0.0293917l 0.419935, 0.0295807l 0.419935, 0.0297696l 0.419935, 0.0299585l 0.419935, 0.0301474l 0.419935, 0.0303363l 0.419935, 0.0305253l 0.419935, 0.0307142l 0.419935,
 0.0309031l 0.419935, 0.031092l 0.419935, 0.0312809l 0.419935, 0.0314699l 0.419935, 0.0316588l 0.419935, 0.0318477l 0.419935, 0.0320366l 0.419935, 0.0322255l 0.419935, 0.0324145l 0.419935, 0.0326034l 0.419935, 0.0327923l 0.419935, 0.0329812l
 0.419935, 0.0331701l 0.419935, 0.0333591l 0.419935, 0.033548l 0.419935, 0.0337369" fill="none" stroke="#ff0066" stroke-width="3"/>
<path d="M478.538,224.346l 0.419935, 0.0339258l 0.419935, 0.0341147l 0.419935, 0.0343037l 0.419935, 0.0344926l 0.419935, 0.0346815l 0.419935, 0.0348704l 0.419935, 0.0350593l 0.419935, 0.0352483l 0.419935, 0.0354372l 0.419935, 0.0356261l 0.419935,
 0.035815l 0.419935, 0.0360039l 0.419935, 0.0361929l 0.419935, 0.0363818l 0.419935, 0.0365707l 0.419935, 0.0367596l 0.419935, 0.0369485l 0.419935, 0.0371375l 0.419935, 0.0373264l 0.419935, 0.0375153l 0.419935, 0.0377042l 0.419935, 0.0378931l
 0.419935, 0.0380821l 0.419935, 0.038271l 0.419935, 0.0384599l 0.419935, 0.0386488l 0.419935, 0.0388377l 0.419935, 0.0390267l 0.419935, 0.0392156l 0.419935, 0.0394045l 0.419935, 0.0395934l 0.419935, 0.0397823l 0.419935, 0.0399713l 0.419935,
 0.0401602l 0.419935, 0.0403491l 0.419935, 0.040538l 0.419935, 0.0407269l 0.419935, 0.0409159l 0.419935, 0.0411048l 0.419935, 0.0412937l 0.419935, 0.0414826l 0.419935, 0.0416715l 0.419935, 0.0418605l 0.419935, 0.0420494l 0.419935, 0.0422383l
 0.419935, 0.0424272l 0.419935, 0.0426161l 0.419935, 0.0428051l 0.419935, 0.042994" fill="none" stroke="#ff0066" stroke-width="3"/>
<path d="M499.114,226.231l 0.419935, 0.0431829l 0.419935, 0.0433718l 0.419935, 0.0435607l 0.419935, 0.0437497l 0.419935, 0.0439386l 0.419935, 0.0441275l 0.419935, 0.0443164l 0.419935, 0.0445053l 0.419935, 0.0446943l 0.419935, 0.0448832l 0.419935,
 0.0450721l 0.419935, 0.045261l 0.419935, 0.0454499l 0.419935, 0.0456389l 0.419935, 0.0458278l 0.419935, 0.0460167l 0.419935, 0.0462056l 0.419935, 0.0463945l 0.419935, 0.0465835l 0.419935, 0.0467724l 0.419935, 0.0469613l 0.419935, 0.0471502l
 0.419935, 0.0473392l 0.419935, 0.0475281l 0.419935, 0.047717l 0.419935, 0.0479059l 0.419935, 0.0480948l 0.419935, 0.0482838l 0.419935, 0.0484727l 0.419935, 0.0486616l 0.419935, 0.0488505l 0.419935, 0.0490394l 0.419935, 0.0492284l 0.419935,
 0.0494173l 0.419935, 0.0496062l 0.419935, 0.0497951l 0.419935, 0.049984l 0.419935, 0.050173l 0.419935, 0.0503619l 0.419935, 0.0505508l 0.419935, 0.0507397l 0.419935, 0.0509286l 0.419935, 0.0511176l 0.419935, 0.0513065l 0.419935, 0.0514954l 0.419935,
 0.0516843l 0.419935, 0.0518732l 0.419935, 0.0520622l 0.419935, 0.0522511" fill="none" stroke="#ff0066" stroke-width="3"/>
<path d="M519.691,228.569l 0.419935, 0.05244l 0.419935, 0.0526289l 0.419935, 0.0528178l 0.419935, 0.0530068l 0.419935, 0.0531957l 0.419935, 0.0533846l 0.419935, 0.0535735l 0.419935, 0.0537624l 0.419935, 0.0539514l 0.419935, 0.0541403l 0.419935,
 0.0543292l 0.419935, 0.0545181l 0.419935, 0.054707l 0.419935, 0.054896l 0.419935, 0.0550849l 0.419935, 0.0552738l 0.419935, 0.0554627l 0.419935, 0.0556516l 0.419935, 0.0558406l 0.419935, 0.0560295l 0.419935, 0.0562184l 0.419935, 0.0564073l 0.419935,
 0.0565962l 0.419935, 0.0567852l 0.419935, 0.0569741l 0.419935, 0.057163l 0.419935, 0.0573519l 0.419935, 0.0575408l 0.419935, 0.0577298l 0.419935, 0.0579187l 0.419935, 0.0581076l 0.419935, 0.0582965l 0.419935, 0.0584854l 0.419935, 0.0586744l
 0.419935, 0.0588633l 0.419935, 0.0590522l 0.419935, 0.0592411l 0.419935, 0.05943l 0.419935, 0.059619l 0.419935, 0.0598079l 0.419935, 0.0599968l 0.419935, 0.0601857l 0.419935, 0.0603746l 0.419935, 0.0605636l 0.419935, 0.0607525l 0.419935, 0.0609414l
 0.419935, 0.0611303l 0.419935, 0.0613192l 0.419935, 0.0615082" fill="none" stroke="#ff0066" stroke-width="3"/>
<path d="M540.268,231.361l 0.419935, 0.0616971l 0.419935, 0.061886l 0.419935, 0.0620749l 0.419935, 0.0622638l 0.419935, 0.0624528l 0.419935, 0.0626417l 0.419935, 0.0628306l 0.419935, 0.0630195l 0.419935, 0.0632084l 0.419935, 0.0633974l 0.419935,
 0.0635863l 0.419935, 0.0637752l 0.419935, 0.0639641l 0.419935, 0.0641531l 0.419935, 0.064342l 0.419935, 0.0645309l 0.419935, 0.0647198l 0.419935, 0.0649087l 0.419935, 0.0650977" fill="none" stroke="#ff0066" stroke-width="3"/>
<path d="M248.503,21.4167h 179.972" fill="none" stroke="#999999" stroke-width="7"/>
<text xml:space="preserve" x="360.607" y="50.7193" fill="black" font-size="16.0105" font-family="Helvetica"> with EMC</text>
<text xml:space="preserve" x="352.717" y="50.7193" fill="black" font-size="16.0105" font-family="Times">&#0947;</text>
<text xml:space="preserve" x="344.828" y="50.7193" fill="black" font-size="16.0105" font-family="Times">&#0947;</text>
<text xml:space="preserve" x="336.938" y="50.7193" fill="black" font-size="16.0105" font-family="Times">&#0947;</text>
<text xml:space="preserve" x="331.866" y="50.7193" fill="black" font-size="16.0105" font-family="Helvetica"> </text>
<text xml:space="preserve" x="316.65" y="50.7193" fill="black" font-size="16.0105" font-family="Times">&#8594;</text>
<text xml:space="preserve" x="311.578" y="50.7193" fill="black" font-size="16.0105" font-family="Helvetica"> </text>
<text xml:space="preserve" x="303.689" y="50.7193" fill="black" font-size="16.0105" font-family="Times">&#0947;</text>
<text xml:space="preserve" x="298.053" y="45.0838" fill="black" font-size="10.8403" font-family="Helvetica">0</text>
<text xml:space="preserve" x="289.6" y="50.7193" fill="black" font-size="16.0105" font-family="Times">&#0960;</text>
<text xml:space="preserve" x="284.528" y="50.7193" fill="black" font-size="16.0105" font-family="Helvetica"> </text>
<text xml:space="preserve" x="269.312" y="50.7193" fill="black" font-size="16.0105" font-family="Times">&#8594;</text>
<text xml:space="preserve" x="264.24" y="50.7193" fill="black" font-size="16.0105" font-family="Helvetica"> </text>
<text xml:space="preserve" x="252.969" y="50.7193" fill="black" font-size="16.0105" font-family="Times">&#0969;</text>
<text xml:space="preserve" x="128.989" y="50.7193" fill="black" font-size="16.0105" font-family="Helvetica"> = 13 TeV (EG1), </text>
<text xml:space="preserve" x="120.536" y="50.7193" fill="black" font-size="16.0105" font-family="Helvetica" font-style="oblique">s</text>
<path d="M114.9,41.7025l 1.69064, 9.58031" fill="none" stroke="black" stroke-width="2"/>
<path d="M116.591,51.2829l 2.25419, -14.0887" fill="none" stroke="black"/>
<path d="M118.845,37.1942h 10.1439" fill="none" stroke="black"/>
<text xml:space="preserve" x="89.5406" y="50.7193" fill="black" font-size="16.0105" font-family="Helvetica">pp </text>
<text xml:space="preserve" x="89.5406" y="85.6593" fill="black" font-size="16.0105" font-family="Helvetica">ALICE work in progress</text>
<text xml:space="preserve" x="205.068" y="120.599" fill="black" font-size="16.0105" font-family="Helvetica">) &lt; 10.0</text>
<text xml:space="preserve" x="196.051" y="120.599" fill="black" font-size="16.0105" font-family="Helvetica" font-style="oblique">c</text>
<text xml:space="preserve" x="145.895" y="120.599" fill="black" font-size="16.0105" font-family="Helvetica"> /(GeV/</text>
<text xml:space="preserve" x="139.133" y="128.489" fill="black" font-size="10.8403" font-family="Helvetica">T</text>
<text xml:space="preserve" x="129.552" y="120.599" fill="black" font-size="16.0105" font-family="Helvetica" font-style="oblique">p</text>
<text xml:space="preserve" x="124.481" y="120.599" fill="black" font-size="16.0105" font-family="Helvetica"> </text>
<text xml:space="preserve" x="116.027" y="120.599" fill="black" font-size="16.0105" font-family="Times">&#8804;</text>
<text xml:space="preserve" x="89.5406" y="120.599" fill="black" font-size="16.0105" font-family="Helvetica">8.0 </text>
<rect x="312.311" y="69.1755" width="198.425" height="113.448" fill="white"/>
<text xml:space="preserve" x="361.734" y="85.0957" fill="black" font-size="16.0105" font-family="Helvetica">ratio</text>
<path d="M319.752,80.5203h 34.7244" fill="none" stroke="black" stroke-width="2"/>
<g fill="black">
<circle cx="337.114" cy="80.5203" r="6.76257"/>
</g>
<text xml:space="preserve" x="361.734" y="108.201" fill="black" font-size="16.0105" font-family="Helvetica">peak range</text>
<path d="M319.752,103.21h 34.7244" fill="none" stroke="#333333" stroke-width="2"/>
<g stroke="#333333" stroke-width="2" fill="none">
<circle cx="337.114" cy="103.21" r="5.63548"/>
</g>
<text xml:space="preserve" x="361.734" y="130.743" fill="black" font-size="16.0105" font-family="Helvetica">background pol1</text>
<path d="M319.752,125.899h 34.7244" fill="none" stroke="#33cccc" stroke-width="3"/>
<text xml:space="preserve" x="361.734" y="153.285" fill="black" font-size="16.0105" font-family="Helvetica">background pol2</text>
<path d="M319.752,148.589h 34.7244" fill="none" stroke="#ff0066" stroke-width="3"/>
<text xml:space="preserve" x="361.734" y="175.827" fill="black" font-size="16.0105" font-family="Helvetica">param. range</text>
<path d="M319.752,171.279h 34.7244" fill="none" stroke="#999999" stroke-width="7"/></svg>
