<?xml version="1.0" standalone="no"?>
<svg width="567.429" height="553.904" viewBox="0 0 567.429 553.904" xmlns="http://www.w3.org/2000/svg" shape-rendering="crispEdges">
<title>
MC/EG1/Pi0TGPSPlusPS/SameEventToBackgroundRatio_08.svg
</title>
<desc>
Creator: ROOT Version 6.20/08
CreationDate: Mon Mar 29 18:49:59 2021</desc>
<defs>
</defs>
<rect x="0.5" y="0" width="566.929" height="553.404" fill="white"/>
<rect x="68.5315" y="16.6021" width="484.724" height="481.461" fill="white"/>
<rect x="68.5315" y="16.6021" width="484.724" height="481.461" fill="none" stroke="black"/>
<rect x="68.5315" y="16.6021" width="484.724" height="481.461" fill="white"/>
<rect x="68.5315" y="16.6021" width="484.724" height="481.461" fill="none" stroke="black"/>
<g fill="black">
<circle cx="114.124" cy="491.447" r="6.76257"/>
</g>
<g fill="black">
<circle cx="118.924" cy="446.784" r="6.76257"/>
</g>
<g fill="black">
<circle cx="123.723" cy="417.794" r="6.76257"/>
</g>
<g fill="black">
<circle cx="128.522" cy="417.946" r="6.76257"/>
</g>
<g fill="black">
<circle cx="133.321" cy="460.237" r="6.76257"/>
</g>
<g fill="black">
<circle cx="138.121" cy="370.265" r="6.76257"/>
</g>
<g fill="black">
<circle cx="142.92" cy="326.719" r="6.76257"/>
</g>
<g fill="black">
<circle cx="147.719" cy="323.283" r="6.76257"/>
</g>
<g fill="black">
<circle cx="152.518" cy="295.333" r="6.76257"/>
</g>
<g fill="black">
<circle cx="157.318" cy="284.243" r="6.76257"/>
</g>
<g fill="black">
<circle cx="162.117" cy="280.316" r="6.76257"/>
</g>
<g fill="black">
<circle cx="166.916" cy="279.255" r="6.76257"/>
</g>
<g fill="black">
<circle cx="171.715" cy="278.134" r="6.76257"/>
</g>
<g fill="black">
<circle cx="176.515" cy="273.275" r="6.76257"/>
</g>
<g fill="black">
<circle cx="181.314" cy="272.989" r="6.76257"/>
</g>
<g fill="black">
<circle cx="186.113" cy="273.324" r="6.76257"/>
</g>
<g fill="black">
<circle cx="190.912" cy="269.876" r="6.76257"/>
</g>
<g fill="black">
<circle cx="195.712" cy="270.743" r="6.76257"/>
</g>
<g fill="black">
<circle cx="200.511" cy="268.352" r="6.76257"/>
</g>
<g fill="black">
<circle cx="205.31" cy="266.526" r="6.76257"/>
</g>
<g fill="black">
<circle cx="210.109" cy="263.436" r="6.76257"/>
</g>
<g fill="black">
<circle cx="214.909" cy="265.357" r="6.76257"/>
</g>
<g fill="black">
<circle cx="219.708" cy="262.119" r="6.76257"/>
</g>
<g fill="black">
<circle cx="224.507" cy="256.969" r="6.76257"/>
</g>
<g fill="black">
<circle cx="229.306" cy="255.837" r="6.76257"/>
</g>
<g fill="black">
<circle cx="234.106" cy="254.06" r="6.76257"/>
</g>
<g fill="black">
<circle cx="238.905" cy="250.384" r="6.76257"/>
</g>
<g fill="black">
<circle cx="243.704" cy="245.032" r="6.76257"/>
</g>
<g fill="black">
<circle cx="248.503" cy="241.2" r="6.76257"/>
</g>
<g fill="black">
<circle cx="253.303" cy="241.165" r="6.76257"/>
</g>
<g fill="black">
<circle cx="258.102" cy="239.91" r="6.76257"/>
</g>
<g fill="black">
<circle cx="262.901" cy="237.675" r="6.76257"/>
</g>
<g fill="black">
<circle cx="267.7" cy="234.13" r="6.76257"/>
</g>
<g fill="black">
<circle cx="272.5" cy="238.413" r="6.76257"/>
</g>
<g fill="black">
<circle cx="277.299" cy="232.187" r="6.76257"/>
</g>
<g fill="black">
<circle cx="339.689" cy="218.371" r="6.76257"/>
</g>
<g fill="black">
<circle cx="344.488" cy="219.103" r="6.76257"/>
</g>
<g fill="black">
<circle cx="349.288" cy="218.305" r="6.76257"/>
</g>
<g fill="black">
<circle cx="354.087" cy="217.537" r="6.76257"/>
</g>
<g fill="black">
<circle cx="358.886" cy="218.745" r="6.76257"/>
</g>
<g fill="black">
<circle cx="363.685" cy="216.736" r="6.76257"/>
</g>
<g fill="black">
<circle cx="368.485" cy="213.322" r="6.76257"/>
</g>
<g fill="black">
<circle cx="373.284" cy="214.945" r="6.76257"/>
</g>
<g fill="black">
<circle cx="378.083" cy="210.056" r="6.76257"/>
</g>
<g fill="black">
<circle cx="382.882" cy="210.14" r="6.76257"/>
</g>
<g fill="black">
<circle cx="387.682" cy="211.886" r="6.76257"/>
</g>
<g fill="black">
<circle cx="392.481" cy="208.306" r="6.76257"/>
</g>
<g fill="black">
<circle cx="397.28" cy="210.695" r="6.76257"/>
</g>
<g fill="black">
<circle cx="402.079" cy="206.1" r="6.76257"/>
</g>
<g fill="black">
<circle cx="406.879" cy="205.539" r="6.76257"/>
</g>
<g fill="black">
<circle cx="411.678" cy="204.915" r="6.76257"/>
</g>
<g fill="black">
<circle cx="416.477" cy="207.274" r="6.76257"/>
</g>
<g fill="black">
<circle cx="421.276" cy="205.186" r="6.76257"/>
</g>
<g fill="black">
<circle cx="426.076" cy="205.948" r="6.76257"/>
</g>
<g fill="black">
<circle cx="430.875" cy="204.038" r="6.76257"/>
</g>
<g fill="black">
<circle cx="435.674" cy="200.597" r="6.76257"/>
</g>
<g fill="black">
<circle cx="440.473" cy="202.092" r="6.76257"/>
</g>
<g fill="black">
<circle cx="445.273" cy="200.669" r="6.76257"/>
</g>
<g fill="black">
<circle cx="450.072" cy="200.672" r="6.76257"/>
</g>
<g fill="black">
<circle cx="454.871" cy="207.512" r="6.76257"/>
</g>
<g fill="black">
<circle cx="459.671" cy="205.428" r="6.76257"/>
</g>
<g fill="black">
<circle cx="464.47" cy="204.363" r="6.76257"/>
</g>
<g fill="black">
<circle cx="469.269" cy="202.32" r="6.76257"/>
</g>
<g fill="black">
<circle cx="474.068" cy="202.459" r="6.76257"/>
</g>
<g fill="black">
<circle cx="478.867" cy="202.148" r="6.76257"/>
</g>
<g fill="black">
<circle cx="483.667" cy="200.408" r="6.76257"/>
</g>
<g fill="black">
<circle cx="488.466" cy="208.546" r="6.76257"/>
</g>
<g fill="black">
<circle cx="493.265" cy="203.069" r="6.76257"/>
</g>
<g fill="black">
<circle cx="498.065" cy="202.84" r="6.76257"/>
</g>
<g fill="black">
<circle cx="502.864" cy="197.612" r="6.76257"/>
</g>
<g fill="black">
<circle cx="507.663" cy="199.549" r="6.76257"/>
</g>
<g fill="black">
<circle cx="512.462" cy="198.154" r="6.76257"/>
</g>
<g fill="black">
<circle cx="517.262" cy="203.368" r="6.76257"/>
</g>
<g fill="black">
<circle cx="522.061" cy="200.266" r="6.76257"/>
</g>
<g fill="black">
<circle cx="526.86" cy="204.84" r="6.76257"/>
</g>
<g fill="black">
<circle cx="531.659" cy="201.608" r="6.76257"/>
</g>
<g fill="black">
<circle cx="536.458" cy="197.15" r="6.76257"/>
</g>
<g fill="black">
<circle cx="541.258" cy="206.606" r="6.76257"/>
</g>
<g fill="black">
<circle cx="546.057" cy="209.342" r="6.76257"/>
</g>
<path d="M68.5315,498.064h 484.724" fill="none" stroke="black"/>
<path d="M68.5315,483.869v 14.1948" fill="none" stroke="black"/>
<path d="M83.5292,490.966v 7.09741" fill="none" stroke="black"/>
<path d="M98.5268,490.966v 7.09741" fill="none" stroke="black"/>
<path d="M113.524,490.966v 7.09741" fill="none" stroke="black"/>
<path d="M128.522,483.869v 14.1948" fill="none" stroke="black"/>
<path d="M143.52,490.966v 7.09741" fill="none" stroke="black"/>
<path d="M158.517,490.966v 7.09741" fill="none" stroke="black"/>
<path d="M173.515,490.966v 7.09741" fill="none" stroke="black"/>
<path d="M188.513,483.869v 14.1948" fill="none" stroke="black"/>
<path d="M203.51,490.966v 7.09741" fill="none" stroke="black"/>
<path d="M218.508,490.966v 7.09741" fill="none" stroke="black"/>
<path d="M233.506,490.966v 7.09741" fill="none" stroke="black"/>
<path d="M248.503,483.869v 14.1948" fill="none" stroke="black"/>
<path d="M263.501,490.966v 7.09741" fill="none" stroke="black"/>
<path d="M278.499,490.966v 7.09741" fill="none" stroke="black"/>
<path d="M293.496,490.966v 7.09741" fill="none" stroke="black"/>
<path d="M308.494,483.869v 14.1948" fill="none" stroke="black"/>
<path d="M323.492,490.966v 7.09741" fill="none" stroke="black"/>
<path d="M338.489,490.966v 7.09741" fill="none" stroke="black"/>
<path d="M353.487,490.966v 7.09741" fill="none" stroke="black"/>
<path d="M368.485,483.869v 14.1948" fill="none" stroke="black"/>
<path d="M383.482,490.966v 7.09741" fill="none" stroke="black"/>
<path d="M398.48,490.966v 7.09741" fill="none" stroke="black"/>
<path d="M413.478,490.966v 7.09741" fill="none" stroke="black"/>
<path d="M428.475,483.869v 14.1948" fill="none" stroke="black"/>
<path d="M443.473,490.966v 7.09741" fill="none" stroke="black"/>
<path d="M458.471,490.966v 7.09741" fill="none" stroke="black"/>
<path d="M473.468,490.966v 7.09741" fill="none" stroke="black"/>
<path d="M488.466,483.869v 14.1948" fill="none" stroke="black"/>
<path d="M503.464,490.966v 7.09741" fill="none" stroke="black"/>
<path d="M518.461,490.966v 7.09741" fill="none" stroke="black"/>
<path d="M533.459,490.966v 7.09741" fill="none" stroke="black"/>
<path d="M548.457,483.869v 14.1948" fill="none" stroke="black"/>
<path d="M548.457,483.869v 14.1948" fill="none" stroke="black"/>
<text xml:space="preserve" x="63.6174" y="513.956" fill="black" font-size="16.0105" font-family="Helvetica">0</text>
<text xml:space="preserve" x="117.718" y="513.956" fill="black" font-size="16.0105" font-family="Helvetica">0.2</text>
<text xml:space="preserve" x="177.454" y="513.956" fill="black" font-size="16.0105" font-family="Helvetica">0.4</text>
<text xml:space="preserve" x="237.754" y="513.956" fill="black" font-size="16.0105" font-family="Helvetica">0.6</text>
<text xml:space="preserve" x="297.49" y="513.956" fill="black" font-size="16.0105" font-family="Helvetica">0.8</text>
<text xml:space="preserve" x="365.115" y="513.956" fill="black" font-size="16.0105" font-family="Helvetica">1</text>
<text xml:space="preserve" x="417.525" y="513.956" fill="black" font-size="16.0105" font-family="Helvetica">1.2</text>
<text xml:space="preserve" x="477.261" y="513.956" fill="black" font-size="16.0105" font-family="Helvetica">1.4</text>
<text xml:space="preserve" x="537.561" y="513.956" fill="black" font-size="16.0105" font-family="Helvetica">1.6</text>
<text xml:space="preserve" x="548.268" y="537.625" fill="black" font-size="16.0105" font-family="Helvetica">)</text>
<text xml:space="preserve" x="542.633" y="532.553" fill="black" font-size="10.8403" font-family="Helvetica">2</text>
<text xml:space="preserve" x="533.616" y="537.625" fill="black" font-size="16.0105" font-family="Helvetica" font-style="oblique">c</text>
<text xml:space="preserve" x="487.405" y="537.625" fill="black" font-size="16.0105" font-family="Helvetica"> (GeV/</text>
<text xml:space="preserve" x="473.317" y="542.697" fill="black" font-size="10.8403" font-family="Helvetica">inv</text>
<text xml:space="preserve" x="459.792" y="537.625" fill="black" font-size="16.0105" font-family="Helvetica" font-style="oblique">m</text>
<path d="M68.5315,16.6021h 484.724" fill="none" stroke="black"/>
<path d="M68.5315,30.7969v -14.1948" fill="none" stroke="black"/>
<path d="M83.5292,23.6995v -7.09741" fill="none" stroke="black"/>
<path d="M98.5268,23.6995v -7.09741" fill="none" stroke="black"/>
<path d="M113.524,23.6995v -7.09741" fill="none" stroke="black"/>
<path d="M128.522,30.7969v -14.1948" fill="none" stroke="black"/>
<path d="M143.52,23.6995v -7.09741" fill="none" stroke="black"/>
<path d="M158.517,23.6995v -7.09741" fill="none" stroke="black"/>
<path d="M173.515,23.6995v -7.09741" fill="none" stroke="black"/>
<path d="M188.513,30.7969v -14.1948" fill="none" stroke="black"/>
<path d="M203.51,23.6995v -7.09741" fill="none" stroke="black"/>
<path d="M218.508,23.6995v -7.09741" fill="none" stroke="black"/>
<path d="M233.506,23.6995v -7.09741" fill="none" stroke="black"/>
<path d="M248.503,30.7969v -14.1948" fill="none" stroke="black"/>
<path d="M263.501,23.6995v -7.09741" fill="none" stroke="black"/>
<path d="M278.499,23.6995v -7.09741" fill="none" stroke="black"/>
<path d="M293.496,23.6995v -7.09741" fill="none" stroke="black"/>
<path d="M308.494,30.7969v -14.1948" fill="none" stroke="black"/>
<path d="M323.492,23.6995v -7.09741" fill="none" stroke="black"/>
<path d="M338.489,23.6995v -7.09741" fill="none" stroke="black"/>
<path d="M353.487,23.6995v -7.09741" fill="none" stroke="black"/>
<path d="M368.485,30.7969v -14.1948" fill="none" stroke="black"/>
<path d="M383.482,23.6995v -7.09741" fill="none" stroke="black"/>
<path d="M398.48,23.6995v -7.09741" fill="none" stroke="black"/>
<path d="M413.478,23.6995v -7.09741" fill="none" stroke="black"/>
<path d="M428.475,30.7969v -14.1948" fill="none" stroke="black"/>
<path d="M443.473,23.6995v -7.09741" fill="none" stroke="black"/>
<path d="M458.471,23.6995v -7.09741" fill="none" stroke="black"/>
<path d="M473.468,23.6995v -7.09741" fill="none" stroke="black"/>
<path d="M488.466,30.7969v -14.1948" fill="none" stroke="black"/>
<path d="M503.464,23.6995v -7.09741" fill="none" stroke="black"/>
<path d="M518.461,23.6995v -7.09741" fill="none" stroke="black"/>
<path d="M533.459,23.6995v -7.09741" fill="none" stroke="black"/>
<path d="M548.457,30.7969v -14.1948" fill="none" stroke="black"/>
<path d="M548.457,30.7969v -14.1948" fill="none" stroke="black"/>
<path d="M68.5315,498.064v -481.461" fill="none" stroke="black"/>
<path d="M83.3283,498.064h -14.7969" fill="none" stroke="black"/>
<path d="M75.9299,485.592h -7.39843" fill="none" stroke="black"/>
<path d="M75.9299,473.121h -7.39843" fill="none" stroke="black"/>
<path d="M75.9299,460.65h -7.39843" fill="none" stroke="black"/>
<path d="M75.9299,448.179h -7.39843" fill="none" stroke="black"/>
<path d="M83.3283,435.708h -14.7969" fill="none" stroke="black"/>
<path d="M75.9299,423.237h -7.39843" fill="none" stroke="black"/>
<path d="M75.9299,410.766h -7.39843" fill="none" stroke="black"/>
<path d="M75.9299,398.295h -7.39843" fill="none" stroke="black"/>
<path d="M75.9299,385.824h -7.39843" fill="none" stroke="black"/>
<path d="M83.3283,373.352h -14.7969" fill="none" stroke="black"/>
<path d="M75.9299,360.881h -7.39843" fill="none" stroke="black"/>
<path d="M75.9299,348.41h -7.39843" fill="none" stroke="black"/>
<path d="M75.9299,335.939h -7.39843" fill="none" stroke="black"/>
<path d="M75.9299,323.468h -7.39843" fill="none" stroke="black"/>
<path d="M83.3283,310.997h -14.7969" fill="none" stroke="black"/>
<path d="M75.9299,298.526h -7.39843" fill="none" stroke="black"/>
<path d="M75.9299,286.055h -7.39843" fill="none" stroke="black"/>
<path d="M75.9299,273.583h -7.39843" fill="none" stroke="black"/>
<path d="M75.9299,261.112h -7.39843" fill="none" stroke="black"/>
<path d="M83.3283,248.641h -14.7969" fill="none" stroke="black"/>
<path d="M75.9299,236.17h -7.39843" fill="none" stroke="black"/>
<path d="M75.9299,223.699h -7.39843" fill="none" stroke="black"/>
<path d="M75.9299,211.228h -7.39843" fill="none" stroke="black"/>
<path d="M75.9299,198.757h -7.39843" fill="none" stroke="black"/>
<path d="M83.3283,186.286h -14.7969" fill="none" stroke="black"/>
<path d="M75.9299,173.815h -7.39843" fill="none" stroke="black"/>
<path d="M75.9299,161.343h -7.39843" fill="none" stroke="black"/>
<path d="M75.9299,148.872h -7.39843" fill="none" stroke="black"/>
<path d="M75.9299,136.401h -7.39843" fill="none" stroke="black"/>
<path d="M83.3283,123.93h -14.7969" fill="none" stroke="black"/>
<path d="M75.9299,111.459h -7.39843" fill="none" stroke="black"/>
<path d="M75.9299,98.9878h -7.39843" fill="none" stroke="black"/>
<path d="M75.9299,86.5167h -7.39843" fill="none" stroke="black"/>
<path d="M75.9299,74.0456h -7.39843" fill="none" stroke="black"/>
<path d="M83.3283,61.5745h -14.7969" fill="none" stroke="black"/>
<path d="M83.3283,61.5745h -14.7969" fill="none" stroke="black"/>
<path d="M75.9299,49.1034h -7.39843" fill="none" stroke="black"/>
<path d="M75.9299,36.6323h -7.39843" fill="none" stroke="black"/>
<path d="M75.9299,24.1611h -7.39843" fill="none" stroke="black"/>
<text xml:space="preserve" x="56.8548" y="503.248" fill="black" font-size="16.0105" font-family="Helvetica">0</text>
<text xml:space="preserve" x="56.8548" y="441.258" fill="black" font-size="16.0105" font-family="Helvetica">5</text>
<text xml:space="preserve" x="48.4016" y="378.704" fill="black" font-size="16.0105" font-family="Helvetica">10</text>
<text xml:space="preserve" x="48.4016" y="316.15" fill="black" font-size="16.0105" font-family="Helvetica">15</text>
<text xml:space="preserve" x="48.4016" y="254.16" fill="black" font-size="16.0105" font-family="Helvetica">20</text>
<text xml:space="preserve" x="48.4016" y="191.606" fill="black" font-size="16.0105" font-family="Helvetica">25</text>
<text xml:space="preserve" x="48.4016" y="129.052" fill="black" font-size="16.0105" font-family="Helvetica">30</text>
<text xml:space="preserve" x="48.4016" y="67.0622" fill="black" font-size="16.0105" font-family="Helvetica">35</text>
<text xml:space="preserve" x="99.1209" y="7.32612" fill="black" font-size="10.8403" font-family="Helvetica">3</text>
<text xml:space="preserve" x="93.4854" y="7.32612" fill="black" font-size="10.8403" font-family="Times">&#8722;</text>
<text xml:space="preserve" x="76.579" y="14.6522" fill="black" font-size="16.0105" font-family="Helvetica">10</text>
<text xml:space="preserve" x="68.1257" y="14.6522" fill="black" font-size="16.0105" font-family="Times">&#0215;</text>
<g transform="rotate(-90,38.2577,98.0573)">
<text xml:space="preserve" x="38.2577" y="98.0573" fill="black" font-size="16.0105" font-family="Helvetica">background</text>
</g>
<g transform="rotate(-90,21.9148,98.0573)">
<text xml:space="preserve" x="21.9148" y="98.0573" fill="black" font-size="16.0105" font-family="Helvetica">same event</text>
</g>
<path d="M24.169,98.0573l 0.563548, -81.7144" fill="none" stroke="black" stroke-width="2"/>
<path d="M553.256,498.064v -481.461" fill="none" stroke="black"/>
<path d="M538.459,498.064h 14.7969" fill="none" stroke="black"/>
<path d="M545.857,485.592h 7.39843" fill="none" stroke="black"/>
<path d="M545.857,473.121h 7.39843" fill="none" stroke="black"/>
<path d="M545.857,460.65h 7.39843" fill="none" stroke="black"/>
<path d="M545.857,448.179h 7.39843" fill="none" stroke="black"/>
<path d="M538.459,435.708h 14.7969" fill="none" stroke="black"/>
<path d="M545.857,423.237h 7.39843" fill="none" stroke="black"/>
<path d="M545.857,410.766h 7.39843" fill="none" stroke="black"/>
<path d="M545.857,398.295h 7.39843" fill="none" stroke="black"/>
<path d="M545.857,385.824h 7.39843" fill="none" stroke="black"/>
<path d="M538.459,373.352h 14.7969" fill="none" stroke="black"/>
<path d="M545.857,360.881h 7.39843" fill="none" stroke="black"/>
<path d="M545.857,348.41h 7.39843" fill="none" stroke="black"/>
<path d="M545.857,335.939h 7.39843" fill="none" stroke="black"/>
<path d="M545.857,323.468h 7.39843" fill="none" stroke="black"/>
<path d="M538.459,310.997h 14.7969" fill="none" stroke="black"/>
<path d="M545.857,298.526h 7.39843" fill="none" stroke="black"/>
<path d="M545.857,286.055h 7.39843" fill="none" stroke="black"/>
<path d="M545.857,273.583h 7.39843" fill="none" stroke="black"/>
<path d="M545.857,261.112h 7.39843" fill="none" stroke="black"/>
<path d="M538.459,248.641h 14.7969" fill="none" stroke="black"/>
<path d="M545.857,236.17h 7.39843" fill="none" stroke="black"/>
<path d="M545.857,223.699h 7.39843" fill="none" stroke="black"/>
<path d="M545.857,211.228h 7.39843" fill="none" stroke="black"/>
<path d="M545.857,198.757h 7.39843" fill="none" stroke="black"/>
<path d="M538.459,186.286h 14.7969" fill="none" stroke="black"/>
<path d="M545.857,173.815h 7.39843" fill="none" stroke="black"/>
<path d="M545.857,161.343h 7.39843" fill="none" stroke="black"/>
<path d="M545.857,148.872h 7.39843" fill="none" stroke="black"/>
<path d="M545.857,136.401h 7.39843" fill="none" stroke="black"/>
<path d="M538.459,123.93h 14.7969" fill="none" stroke="black"/>
<path d="M545.857,111.459h 7.39843" fill="none" stroke="black"/>
<path d="M545.857,98.9878h 7.39843" fill="none" stroke="black"/>
<path d="M545.857,86.5167h 7.39843" fill="none" stroke="black"/>
<path d="M545.857,74.0456h 7.39843" fill="none" stroke="black"/>
<path d="M538.459,61.5745h 14.7969" fill="none" stroke="black"/>
<path d="M538.459,61.5745h 14.7969" fill="none" stroke="black"/>
<path d="M545.857,49.1034h 7.39843" fill="none" stroke="black"/>
<path d="M545.857,36.6323h 7.39843" fill="none" stroke="black"/>
<path d="M545.857,24.1611h 7.39843" fill="none" stroke="black"/>
<g stroke="#333333" stroke-width="2" fill="none">
<circle cx="282.098" cy="231.62" r="5.63548"/>
</g>
<g stroke="#333333" stroke-width="2" fill="none">
<circle cx="286.897" cy="231.098" r="5.63548"/>
</g>
<g stroke="#333333" stroke-width="2" fill="none">
<circle cx="291.697" cy="223.439" r="5.63548"/>
</g>
<g stroke="#333333" stroke-width="2" fill="none">
<circle cx="296.496" cy="220.51" r="5.63548"/>
</g>
<g stroke="#333333" stroke-width="2" fill="none">
<circle cx="301.295" cy="217.081" r="5.63548"/>
</g>
<g stroke="#333333" stroke-width="2" fill="none">
<circle cx="306.094" cy="218.036" r="5.63548"/>
</g>
<g stroke="#333333" stroke-width="2" fill="none">
<circle cx="310.894" cy="219.185" r="5.63548"/>
</g>
<g stroke="#333333" stroke-width="2" fill="none">
<circle cx="315.693" cy="220.723" r="5.63548"/>
</g>
<g stroke="#333333" stroke-width="2" fill="none">
<circle cx="320.492" cy="223.766" r="5.63548"/>
</g>
<g stroke="#333333" stroke-width="2" fill="none">
<circle cx="325.291" cy="221.358" r="5.63548"/>
</g>
<g stroke="#333333" stroke-width="2" fill="none">
<circle cx="330.091" cy="218.792" r="5.63548"/>
</g>
<g stroke="#333333" stroke-width="2" fill="none">
<circle cx="334.89" cy="220.327" r="5.63548"/>
</g>
<path d="M128.732,266.697l 0.419935, -0.0908199l 0.419935, -0.0908199l 0.419935, -0.0908199l 0.419935, -0.0908199l 0.419935, -0.0908199l 0.419935, -0.0908199l 0.419935, -0.0908199l 0.419935, -0.0908199l 0.419935, -0.0908199l 0.419935, -0.0908199l
 0.419935, -0.0908199l 0.419935, -0.0908199l 0.419935, -0.0908199l 0.419935, -0.0908199l 0.419935, -0.0908199l 0.419935, -0.0908199l 0.419935, -0.0908199l 0.419935, -0.0908199l 0.419935, -0.0908199l 0.419935, -0.0908199l 0.419935, -0.0908199l
 0.419935, -0.0908199l 0.419935, -0.0908199l 0.419935, -0.0908199l 0.419935, -0.0908199l 0.419935, -0.0908199l 0.419935, -0.0908199l 0.419935, -0.0908199l 0.419935, -0.0908199l 0.419935, -0.0908199l 0.419935, -0.0908199l 0.419935, -0.0908199l
 0.419935, -0.0908199l 0.419935, -0.0908199l 0.419935, -0.0908199l 0.419935, -0.0908199l 0.419935, -0.0908199l 0.419935, -0.0908199l 0.419935, -0.0908199l 0.419935, -0.0908199l 0.419935, -0.0908199l 0.419935, -0.0908199l 0.419935, -0.0908199l
 0.419935, -0.0908199l 0.419935, -0.0908199l 0.419935, -0.0908199l 0.419935, -0.0908199l 0.419935, -0.0908199l 0.419935, -0.0908199" fill="none" stroke="#33cccc" stroke-width="3"/>
<path d="M149.309,262.247l 0.419935, -0.0908199l 0.419935, -0.0908199l 0.419935, -0.0908199l 0.419935, -0.0908199l 0.419935, -0.0908199l 0.419935, -0.0908199l 0.419935, -0.0908199l 0.419935, -0.0908199l 0.419935, -0.0908199l 0.419935, -0.0908199l
 0.419935, -0.0908199l 0.419935, -0.0908199l 0.419935, -0.0908199l 0.419935, -0.0908199l 0.419935, -0.0908199l 0.419935, -0.0908199l 0.419935, -0.0908199l 0.419935, -0.0908199l 0.419935, -0.0908199l 0.419935, -0.0908199l 0.419935, -0.0908199l
 0.419935, -0.0908199l 0.419935, -0.0908199l 0.419935, -0.0908199l 0.419935, -0.0908199l 0.419935, -0.0908199l 0.419935, -0.0908199l 0.419935, -0.0908199l 0.419935, -0.0908199l 0.419935, -0.0908199l 0.419935, -0.0908199l 0.419935, -0.0908199l
 0.419935, -0.0908199l 0.419935, -0.0908199l 0.419935, -0.0908199l 0.419935, -0.0908199l 0.419935, -0.0908199l 0.419935, -0.0908199l 0.419935, -0.0908199l 0.419935, -0.0908199l 0.419935, -0.0908199l 0.419935, -0.0908199l 0.419935, -0.0908199l
 0.419935, -0.0908199l 0.419935, -0.0908199l 0.419935, -0.0908199l 0.419935, -0.0908199l 0.419935, -0.0908199l 0.419935, -0.0908199" fill="none" stroke="#33cccc" stroke-width="3"/>
<path d="M169.886,257.796l 0.419935, -0.0908199l 0.419935, -0.0908199l 0.419935, -0.0908199l 0.419935, -0.0908199l 0.419935, -0.0908199l 0.419935, -0.0908199l 0.419935, -0.0908199l 0.419935, -0.0908199l 0.419935, -0.0908199l 0.419935, -0.0908199l
 0.419935, -0.0908199l 0.419935, -0.0908199l 0.419935, -0.0908199l 0.419935, -0.0908199l 0.419935, -0.0908199l 0.419935, -0.0908199l 0.419935, -0.0908199l 0.419935, -0.0908199l 0.419935, -0.0908199l 0.419935, -0.0908199l 0.419935, -0.0908199l
 0.419935, -0.0908199l 0.419935, -0.0908199l 0.419935, -0.0908199l 0.419935, -0.0908199l 0.419935, -0.0908199l 0.419935, -0.0908199l 0.419935, -0.0908199l 0.419935, -0.0908199l 0.419935, -0.0908199l 0.419935, -0.0908199l 0.419935, -0.0908199l
 0.419935, -0.0908199l 0.419935, -0.0908199l 0.419935, -0.0908199l 0.419935, -0.0908199l 0.419935, -0.0908199l 0.419935, -0.0908199l 0.419935, -0.0908199l 0.419935, -0.0908199l 0.419935, -0.0908199l 0.419935, -0.0908199l 0.419935, -0.0908199l
 0.419935, -0.0908199l 0.419935, -0.0908199l 0.419935, -0.0908199l 0.419935, -0.0908199l 0.419935, -0.0908199l 0.419935, -0.0908199" fill="none" stroke="#33cccc" stroke-width="3"/>
<path d="M190.462,253.346l 0.419935, -0.0908199l 0.419935, -0.0908199l 0.419935, -0.0908199l 0.419935, -0.0908199l 0.419935, -0.0908199l 0.419935, -0.0908199l 0.419935, -0.0908199l 0.419935, -0.0908199l 0.419935, -0.0908199l 0.419935, -0.0908199l
 0.419935, -0.0908199l 0.419935, -0.0908199l 0.419935, -0.0908199l 0.419935, -0.0908199l 0.419935, -0.0908199l 0.419935, -0.0908199l 0.419935, -0.0908199l 0.419935, -0.0908199l 0.419935, -0.0908199l 0.419935, -0.0908199l 0.419935, -0.0908199l
 0.419935, -0.0908199l 0.419935, -0.0908199l 0.419935, -0.0908199l 0.419935, -0.0908199l 0.419935, -0.0908199l 0.419935, -0.0908199l 0.419935, -0.0908199l 0.419935, -0.0908199l 0.419935, -0.0908199l 0.419935, -0.0908199l 0.419935, -0.0908199l
 0.419935, -0.0908199l 0.419935, -0.0908199l 0.419935, -0.0908199l 0.419935, -0.0908199l 0.419935, -0.0908199l 0.419935, -0.0908199l 0.419935, -0.0908199l 0.419935, -0.0908199l 0.419935, -0.0908199l 0.419935, -0.0908199l 0.419935, -0.0908199l
 0.419935, -0.0908199l 0.419935, -0.0908199l 0.419935, -0.0908199l 0.419935, -0.0908199l 0.419935, -0.0908199l 0.419935, -0.0908199" fill="none" stroke="#33cccc" stroke-width="3"/>
<path d="M211.039,248.896l 0.419935, -0.0908199l 0.419935, -0.0908199l 0.419935, -0.0908199l 0.419935, -0.0908199l 0.419935, -0.0908199l 0.419935, -0.0908199l 0.419935, -0.0908199l 0.419935, -0.0908199l 0.419935, -0.0908199l 0.419935, -0.0908199l
 0.419935, -0.0908199l 0.419935, -0.0908199l 0.419935, -0.0908199l 0.419935, -0.0908199l 0.419935, -0.0908199l 0.419935, -0.0908199l 0.419935, -0.0908199l 0.419935, -0.0908199l 0.419935, -0.0908199l 0.419935, -0.0908199l 0.419935, -0.0908199l
 0.419935, -0.0908199l 0.419935, -0.0908199l 0.419935, -0.0908199l 0.419935, -0.0908199l 0.419935, -0.0908199l 0.419935, -0.0908199l 0.419935, -0.0908199l 0.419935, -0.0908199l 0.419935, -0.0908199l 0.419935, -0.0908199l 0.419935, -0.0908199l
 0.419935, -0.0908199l 0.419935, -0.0908199l 0.419935, -0.0908199l 0.419935, -0.0908199l 0.419935, -0.0908199l 0.419935, -0.0908199l 0.419935, -0.0908199l 0.419935, -0.0908199l 0.419935, -0.0908199l 0.419935, -0.0908199l 0.419935, -0.0908199l
 0.419935, -0.0908199l 0.419935, -0.0908199l 0.419935, -0.0908199l 0.419935, -0.0908199l 0.419935, -0.0908199l 0.419935, -0.0908199" fill="none" stroke="#33cccc" stroke-width="3"/>
<path d="M231.616,244.446l 0.419935, -0.0908199l 0.419935, -0.0908199l 0.419935, -0.0908199l 0.419935, -0.0908199l 0.419935, -0.0908199l 0.419935, -0.0908199l 0.419935, -0.0908199l 0.419935, -0.0908199l 0.419935, -0.0908199l 0.419935, -0.0908199l
 0.419935, -0.0908199l 0.419935, -0.0908199l 0.419935, -0.0908199l 0.419935, -0.0908199l 0.419935, -0.0908199l 0.419935, -0.0908199l 0.419935, -0.0908199l 0.419935, -0.0908199l 0.419935, -0.0908199l 0.419935, -0.0908199l 0.419935, -0.0908199l
 0.419935, -0.0908199l 0.419935, -0.0908199l 0.419935, -0.0908199l 0.419935, -0.0908199l 0.419935, -0.0908199l 0.419935, -0.0908199l 0.419935, -0.0908199l 0.419935, -0.0908199l 0.419935, -0.0908199l 0.419935, -0.0908199l 0.419935, -0.0908199l
 0.419935, -0.0908199l 0.419935, -0.0908199l 0.419935, -0.0908199l 0.419935, -0.0908199l 0.419935, -0.0908199l 0.419935, -0.0908199l 0.419935, -0.0908199l 0.419935, -0.0908199l 0.419935, -0.0908199l 0.419935, -0.0908199l 0.419935, -0.0908199l
 0.419935, -0.0908199l 0.419935, -0.0908199l 0.419935, -0.0908199l 0.419935, -0.0908199l 0.419935, -0.0908199l 0.419935, -0.0908199" fill="none" stroke="#33cccc" stroke-width="3"/>
<path d="M252.193,239.996l 0.419935, -0.0908199l 0.419935, -0.0908199l 0.419935, -0.0908199l 0.419935, -0.0908199l 0.419935, -0.0908199l 0.419935, -0.0908199l 0.419935, -0.0908199l 0.419935, -0.0908199l 0.419935, -0.0908199l 0.419935, -0.0908199l
 0.419935, -0.0908199l 0.419935, -0.0908199l 0.419935, -0.0908199l 0.419935, -0.0908199l 0.419935, -0.0908199l 0.419935, -0.0908199l 0.419935, -0.0908199l 0.419935, -0.0908199l 0.419935, -0.0908199l 0.419935, -0.0908199l 0.419935, -0.0908199l
 0.419935, -0.0908199l 0.419935, -0.0908199l 0.419935, -0.0908199l 0.419935, -0.0908199l 0.419935, -0.0908199l 0.419935, -0.0908199l 0.419935, -0.0908199l 0.419935, -0.0908199l 0.419935, -0.0908199l 0.419935, -0.0908199l 0.419935, -0.0908199l
 0.419935, -0.0908199l 0.419935, -0.0908199l 0.419935, -0.0908199l 0.419935, -0.0908199l 0.419935, -0.0908199l 0.419935, -0.0908199l 0.419935, -0.0908199l 0.419935, -0.0908199l 0.419935, -0.0908199l 0.419935, -0.0908199l 0.419935, -0.0908199l
 0.419935, -0.0908199l 0.419935, -0.0908199l 0.419935, -0.0908199l 0.419935, -0.0908199l 0.419935, -0.0908199l 0.419935, -0.0908199" fill="none" stroke="#33cccc" stroke-width="3"/>
<path d="M272.77,235.545l 0.419935, -0.0908199l 0.419935, -0.0908199l 0.419935, -0.0908199l 0.419935, -0.0908199l 0.419935, -0.0908199l 0.419935, -0.0908199l 0.419935, -0.0908199l 0.419935, -0.0908199l 0.419935, -0.0908199l 0.419935, -0.0908199l
 0.419935, -0.0908199l 0.419935, -0.0908199l 0.419935, -0.0908199l 0.419935, -0.0908199l 0.419935, -0.0908199l 0.419935, -0.0908199l 0.419935, -0.0908199l 0.419935, -0.0908199l 0.419935, -0.0908199l 0.419935, -0.0908199l 0.419935, -0.0908199l
 0.419935, -0.0908199l 0.419935, -0.0908199l 0.419935, -0.0908199l 0.419935, -0.0908199l 0.419935, -0.0908199l 0.419935, -0.0908199l 0.419935, -0.0908199l 0.419935, -0.0908199l 0.419935, -0.0908199l 0.419935, -0.0908199l 0.419935, -0.0908199l
 0.419935, -0.0908199l 0.419935, -0.0908199l 0.419935, -0.0908199l 0.419935, -0.0908199l 0.419935, -0.0908199l 0.419935, -0.0908199l 0.419935, -0.0908199l 0.419935, -0.0908199l 0.419935, -0.0908199l 0.419935, -0.0908199l 0.419935, -0.0908199l
 0.419935, -0.0908199l 0.419935, -0.0908199l 0.419935, -0.0908199l 0.419935, -0.0908199l 0.419935, -0.0908199l 0.419935, -0.0908199" fill="none" stroke="#33cccc" stroke-width="3"/>
<path d="M293.346,231.095l 0.419935, -0.0908199l 0.419935, -0.0908199l 0.419935, -0.0908199l 0.419935, -0.0908199l 0.419935, -0.0908199l 0.419935, -0.0908199l 0.419935, -0.0908199l 0.419935, -0.0908199l 0.419935, -0.0908199l 0.419935, -0.0908199l
 0.419935, -0.0908199l 0.419935, -0.0908199l 0.419935, -0.0908199l 0.419935, -0.0908199l 0.419935, -0.0908199l 0.419935, -0.0908199l 0.419935, -0.0908199l 0.419935, -0.0908199l 0.419935, -0.0908199l 0.419935, -0.0908199l 0.419935, -0.0908199l
 0.419935, -0.0908199l 0.419935, -0.0908199l 0.419935, -0.0908199l 0.419935, -0.0908199l 0.419935, -0.0908199l 0.419935, -0.0908199l 0.419935, -0.0908199l 0.419935, -0.0908199l 0.419935, -0.0908199l 0.419935, -0.0908199l 0.419935, -0.0908199l
 0.419935, -0.0908199l 0.419935, -0.0908199l 0.419935, -0.0908199l 0.419935, -0.0908199l 0.419935, -0.0908199l 0.419935, -0.0908199l 0.419935, -0.0908199l 0.419935, -0.0908199l 0.419935, -0.0908199l 0.419935, -0.0908199l 0.419935, -0.0908199l
 0.419935, -0.0908199l 0.419935, -0.0908199l 0.419935, -0.0908199l 0.419935, -0.0908199l 0.419935, -0.0908199l 0.419935, -0.0908199" fill="none" stroke="#33cccc" stroke-width="3"/>
<path d="M313.923,226.645l 0.419935, -0.0908199l 0.419935, -0.0908199l 0.419935, -0.0908199l 0.419935, -0.0908199l 0.419935, -0.0908199l 0.419935, -0.0908199l 0.419935, -0.0908199l 0.419935, -0.0908199l 0.419935, -0.0908199l 0.419935, -0.0908199l
 0.419935, -0.0908199l 0.419935, -0.0908199l 0.419935, -0.0908199l 0.419935, -0.0908199l 0.419935, -0.0908199l 0.419935, -0.0908199l 0.419935, -0.0908199l 0.419935, -0.0908199l 0.419935, -0.0908199l 0.419935, -0.0908199l 0.419935, -0.0908199l
 0.419935, -0.0908199l 0.419935, -0.0908199l 0.419935, -0.0908199l 0.419935, -0.0908199l 0.419935, -0.0908199l 0.419935, -0.0908199l 0.419935, -0.0908199l 0.419935, -0.0908199l 0.419935, -0.0908199l 0.419935, -0.0908199l 0.419935, -0.0908199l
 0.419935, -0.0908199l 0.419935, -0.0908199l 0.419935, -0.0908199l 0.419935, -0.0908199l 0.419935, -0.0908199l 0.419935, -0.0908199l 0.419935, -0.0908199l 0.419935, -0.0908199l 0.419935, -0.0908199l 0.419935, -0.0908199l 0.419935, -0.0908199l
 0.419935, -0.0908199l 0.419935, -0.0908199l 0.419935, -0.0908199l 0.419935, -0.0908199l 0.419935, -0.0908199l 0.419935, -0.0908199" fill="none" stroke="#33cccc" stroke-width="3"/>
<path d="M334.5,222.195l 0.419935, -0.0908199l 0.419935, -0.0908199l 0.419935, -0.0908199l 0.419935, -0.0908199l 0.419935, -0.0908199l 0.419935, -0.0908199l 0.419935, -0.0908199l 0.419935, -0.0908199l 0.419935, -0.0908199l 0.419935, -0.0908199l
 0.419935, -0.0908199l 0.419935, -0.0908199l 0.419935, -0.0908199l 0.419935, -0.0908199l 0.419935, -0.0908199l 0.419935, -0.0908199l 0.419935, -0.0908199l 0.419935, -0.0908199l 0.419935, -0.0908199l 0.419935, -0.0908199l 0.419935, -0.0908199l
 0.419935, -0.0908199l 0.419935, -0.0908199l 0.419935, -0.0908199l 0.419935, -0.0908199l 0.419935, -0.0908199l 0.419935, -0.0908199l 0.419935, -0.0908199l 0.419935, -0.0908199l 0.419935, -0.0908199l 0.419935, -0.0908199l 0.419935, -0.0908199l
 0.419935, -0.0908199l 0.419935, -0.0908199l 0.419935, -0.0908199l 0.419935, -0.0908199l 0.419935, -0.0908199l 0.419935, -0.0908199l 0.419935, -0.0908199l 0.419935, -0.0908199l 0.419935, -0.0908199l 0.419935, -0.0908199l 0.419935, -0.0908199l
 0.419935, -0.0908199l 0.419935, -0.0908199l 0.419935, -0.0908199l 0.419935, -0.0908199l 0.419935, -0.0908199l 0.419935, -0.0908199" fill="none" stroke="#33cccc" stroke-width="3"/>
<path d="M355.077,217.745l 0.419935, -0.0908199l 0.419935, -0.0908199l 0.419935, -0.0908199l 0.419935, -0.0908199l 0.419935, -0.0908199l 0.419935, -0.0908199l 0.419935, -0.0908199l 0.419935, -0.0908199l 0.419935, -0.0908199l 0.419935, -0.0908199l
 0.419935, -0.0908199l 0.419935, -0.0908199l 0.419935, -0.0908199l 0.419935, -0.0908199l 0.419935, -0.0908199l 0.419935, -0.0908199l 0.419935, -0.0908199l 0.419935, -0.0908199l 0.419935, -0.0908199l 0.419935, -0.0908199l 0.419935, -0.0908199l
 0.419935, -0.0908199l 0.419935, -0.0908199l 0.419935, -0.0908199l 0.419935, -0.0908199l 0.419935, -0.0908199l 0.419935, -0.0908199l 0.419935, -0.0908199l 0.419935, -0.0908199l 0.419935, -0.0908199l 0.419935, -0.0908199l 0.419935, -0.0908199l
 0.419935, -0.0908199l 0.419935, -0.0908199l 0.419935, -0.0908199l 0.419935, -0.0908199l 0.419935, -0.0908199l 0.419935, -0.0908199l 0.419935, -0.0908199l 0.419935, -0.0908199l 0.419935, -0.0908199l 0.419935, -0.0908199l 0.419935, -0.0908199l
 0.419935, -0.0908199l 0.419935, -0.0908199l 0.419935, -0.0908199l 0.419935, -0.0908199l 0.419935, -0.0908199l 0.419935, -0.0908199" fill="none" stroke="#33cccc" stroke-width="3"/>
<path d="M375.654,213.295l 0.419935, -0.0908199l 0.419935, -0.0908199l 0.419935, -0.0908199l 0.419935, -0.0908199l 0.419935, -0.0908199l 0.419935, -0.0908199l 0.419935, -0.0908199l 0.419935, -0.0908199l 0.419935, -0.0908199l 0.419935, -0.0908199l
 0.419935, -0.0908199l 0.419935, -0.0908199l 0.419935, -0.0908199l 0.419935, -0.0908199l 0.419935, -0.0908199l 0.419935, -0.0908199l 0.419935, -0.0908199l 0.419935, -0.0908199l 0.419935, -0.0908199l 0.419935, -0.0908199l 0.419935, -0.0908199l
 0.419935, -0.0908199l 0.419935, -0.0908199l 0.419935, -0.0908199l 0.419935, -0.0908199l 0.419935, -0.0908199l 0.419935, -0.0908199l 0.419935, -0.0908199l 0.419935, -0.0908199l 0.419935, -0.0908199l 0.419935, -0.0908199l 0.419935, -0.0908199l
 0.419935, -0.0908199l 0.419935, -0.0908199l 0.419935, -0.0908199l 0.419935, -0.0908199l 0.419935, -0.0908199l 0.419935, -0.0908199l 0.419935, -0.0908199l 0.419935, -0.0908199l 0.419935, -0.0908199l 0.419935, -0.0908199l 0.419935, -0.0908199l
 0.419935, -0.0908199l 0.419935, -0.0908199l 0.419935, -0.0908199l 0.419935, -0.0908199l 0.419935, -0.0908199l 0.419935, -0.0908199" fill="none" stroke="#33cccc" stroke-width="3"/>
<path d="M396.23,208.844l 0.419935, -0.0908199l 0.419935, -0.0908199l 0.419935, -0.0908199l 0.419935, -0.0908199l 0.419935, -0.0908199l 0.419935, -0.0908199l 0.419935, -0.0908199l 0.419935, -0.0908199l 0.419935, -0.0908199l 0.419935, -0.0908199l
 0.419935, -0.0908199l 0.419935, -0.0908199l 0.419935, -0.0908199l 0.419935, -0.0908199l 0.419935, -0.0908199l 0.419935, -0.0908199l 0.419935, -0.0908199l 0.419935, -0.0908199l 0.419935, -0.0908199l 0.419935, -0.0908199l 0.419935, -0.0908199l
 0.419935, -0.0908199l 0.419935, -0.0908199l 0.419935, -0.0908199l 0.419935, -0.0908199l 0.419935, -0.0908199l 0.419935, -0.0908199l 0.419935, -0.0908199l 0.419935, -0.0908199l 0.419935, -0.0908199l 0.419935, -0.0908199l 0.419935, -0.0908199l
 0.419935, -0.0908199l 0.419935, -0.0908199l 0.419935, -0.0908199l 0.419935, -0.0908199l 0.419935, -0.0908199l 0.419935, -0.0908199l 0.419935, -0.0908199l 0.419935, -0.0908199l 0.419935, -0.0908199l 0.419935, -0.0908199l 0.419935, -0.0908199l
 0.419935, -0.0908199l 0.419935, -0.0908199l 0.419935, -0.0908199l 0.419935, -0.0908199l 0.419935, -0.0908199l 0.419935, -0.0908199" fill="none" stroke="#33cccc" stroke-width="3"/>
<path d="M416.807,204.394l 0.419935, -0.0908199l 0.419935, -0.0908199l 0.419935, -0.0908199l 0.419935, -0.0908199l 0.419935, -0.0908199l 0.419935, -0.0908199l 0.419935, -0.0908199l 0.419935, -0.0908199l 0.419935, -0.0908199l 0.419935, -0.0908199l
 0.419935, -0.0908199l 0.419935, -0.0908199l 0.419935, -0.0908199l 0.419935, -0.0908199l 0.419935, -0.0908199l 0.419935, -0.0908199l 0.419935, -0.0908199l 0.419935, -0.0908199l 0.419935, -0.0908199l 0.419935, -0.0908199l 0.419935, -0.0908199l
 0.419935, -0.0908199l 0.419935, -0.0908199l 0.419935, -0.0908199l 0.419935, -0.0908199l 0.419935, -0.0908199l 0.419935, -0.0908199l 0.419935, -0.0908199l 0.419935, -0.0908199l 0.419935, -0.0908199l 0.419935, -0.0908199l 0.419935, -0.0908199l
 0.419935, -0.0908199l 0.419935, -0.0908199l 0.419935, -0.0908199l 0.419935, -0.0908199l 0.419935, -0.0908199l 0.419935, -0.0908199l 0.419935, -0.0908199l 0.419935, -0.0908199l 0.419935, -0.0908199l 0.419935, -0.0908199l 0.419935, -0.0908199l
 0.419935, -0.0908199l 0.419935, -0.0908199l 0.419935, -0.0908199l 0.419935, -0.0908199l 0.419935, -0.0908199l 0.419935, -0.0908199" fill="none" stroke="#33cccc" stroke-width="3"/>
<path d="M437.384,199.944l 0.419935, -0.0908199l 0.419935, -0.0908199l 0.419935, -0.0908199l 0.419935, -0.0908199l 0.419935, -0.0908199l 0.419935, -0.0908199l 0.419935, -0.0908199l 0.419935, -0.0908199l 0.419935, -0.0908199l 0.419935, -0.0908199l
 0.419935, -0.0908199l 0.419935, -0.0908199l 0.419935, -0.0908199l 0.419935, -0.0908199l 0.419935, -0.0908199l 0.419935, -0.0908199l 0.419935, -0.0908199l 0.419935, -0.0908199l 0.419935, -0.0908199l 0.419935, -0.0908199l 0.419935, -0.0908199l
 0.419935, -0.0908199l 0.419935, -0.0908199l 0.419935, -0.0908199l 0.419935, -0.0908199l 0.419935, -0.0908199l 0.419935, -0.0908199l 0.419935, -0.0908199l 0.419935, -0.0908199l 0.419935, -0.0908199l 0.419935, -0.0908199l 0.419935, -0.0908199l
 0.419935, -0.0908199l 0.419935, -0.0908199l 0.419935, -0.0908199l 0.419935, -0.0908199l 0.419935, -0.0908199l 0.419935, -0.0908199l 0.419935, -0.0908199l 0.419935, -0.0908199l 0.419935, -0.0908199l 0.419935, -0.0908199l 0.419935, -0.0908199l
 0.419935, -0.0908199l 0.419935, -0.0908199l 0.419935, -0.0908199l 0.419935, -0.0908199l 0.419935, -0.0908199l 0.419935, -0.0908199" fill="none" stroke="#33cccc" stroke-width="3"/>
<path d="M457.961,195.494l 0.419935, -0.0908199l 0.419935, -0.0908199l 0.419935, -0.0908199l 0.419935, -0.0908199l 0.419935, -0.0908199l 0.419935, -0.0908199l 0.419935, -0.0908199l 0.419935, -0.0908199l 0.419935, -0.0908199l 0.419935, -0.0908199l
 0.419935, -0.0908199l 0.419935, -0.0908199l 0.419935, -0.0908199l 0.419935, -0.0908199l 0.419935, -0.0908199l 0.419935, -0.0908199l 0.419935, -0.0908199l 0.419935, -0.0908199l 0.419935, -0.0908199l 0.419935, -0.0908199l 0.419935, -0.0908199l
 0.419935, -0.0908199l 0.419935, -0.0908199l 0.419935, -0.0908199l 0.419935, -0.0908199l 0.419935, -0.0908199l 0.419935, -0.0908199l 0.419935, -0.0908199l 0.419935, -0.0908199l 0.419935, -0.0908199l 0.419935, -0.0908199l 0.419935, -0.0908199l
 0.419935, -0.0908199l 0.419935, -0.0908199l 0.419935, -0.0908199l 0.419935, -0.0908199l 0.419935, -0.0908199l 0.419935, -0.0908199l 0.419935, -0.0908199l 0.419935, -0.0908199l 0.419935, -0.0908199l 0.419935, -0.0908199l 0.419935, -0.0908199l
 0.419935, -0.0908199l 0.419935, -0.0908199l 0.419935, -0.0908199l 0.419935, -0.0908199l 0.419935, -0.0908199l 0.419935, -0.0908199" fill="none" stroke="#33cccc" stroke-width="3"/>
<path d="M478.538,191.044l 0.419935, -0.0908199l 0.419935, -0.0908199l 0.419935, -0.0908199l 0.419935, -0.0908199l 0.419935, -0.0908199l 0.419935, -0.0908199l 0.419935, -0.0908199l 0.419935, -0.0908199l 0.419935, -0.0908199l 0.419935, -0.0908199l
 0.419935, -0.0908199l 0.419935, -0.0908199l 0.419935, -0.0908199l 0.419935, -0.0908199l 0.419935, -0.0908199l 0.419935, -0.0908199l 0.419935, -0.0908199l 0.419935, -0.0908199l 0.419935, -0.0908199l 0.419935, -0.0908199l 0.419935, -0.0908199l
 0.419935, -0.0908199l 0.419935, -0.0908199l 0.419935, -0.0908199l 0.419935, -0.0908199l 0.419935, -0.0908199l 0.419935, -0.0908199l 0.419935, -0.0908199l 0.419935, -0.0908199l 0.419935, -0.0908199l 0.419935, -0.0908199l 0.419935, -0.0908199l
 0.419935, -0.0908199l 0.419935, -0.0908199l 0.419935, -0.0908199l 0.419935, -0.0908199l 0.419935, -0.0908199l 0.419935, -0.0908199l 0.419935, -0.0908199l 0.419935, -0.0908199l 0.419935, -0.0908199l 0.419935, -0.0908199l 0.419935, -0.0908199l
 0.419935, -0.0908199l 0.419935, -0.0908199l 0.419935, -0.0908199l 0.419935, -0.0908199l 0.419935, -0.0908199l 0.419935, -0.0908199" fill="none" stroke="#33cccc" stroke-width="3"/>
<path d="M499.114,186.594l 0.419935, -0.0908199l 0.419935, -0.0908199l 0.419935, -0.0908199l 0.419935, -0.0908199l 0.419935, -0.0908199l 0.419935, -0.0908199l 0.419935, -0.0908199l 0.419935, -0.0908199l 0.419935, -0.0908199l 0.419935, -0.0908199l
 0.419935, -0.0908199l 0.419935, -0.0908199l 0.419935, -0.0908199l 0.419935, -0.0908199l 0.419935, -0.0908199l 0.419935, -0.0908199l 0.419935, -0.0908199l 0.419935, -0.0908199l 0.419935, -0.0908199l 0.419935, -0.0908199l 0.419935, -0.0908199l
 0.419935, -0.0908199l 0.419935, -0.0908199l 0.419935, -0.0908199l 0.419935, -0.0908199l 0.419935, -0.0908199l 0.419935, -0.0908199l 0.419935, -0.0908199l 0.419935, -0.0908199l 0.419935, -0.0908199l 0.419935, -0.0908199l 0.419935, -0.0908199l
 0.419935, -0.0908199l 0.419935, -0.0908199l 0.419935, -0.0908199l 0.419935, -0.0908199l 0.419935, -0.0908199l 0.419935, -0.0908199l 0.419935, -0.0908199l 0.419935, -0.0908199l 0.419935, -0.0908199l 0.419935, -0.0908199l 0.419935, -0.0908199l
 0.419935, -0.0908199l 0.419935, -0.0908199l 0.419935, -0.0908199l 0.419935, -0.0908199l 0.419935, -0.0908199l 0.419935, -0.0908199" fill="none" stroke="#33cccc" stroke-width="3"/>
<path d="M519.691,182.143l 0.419935, -0.0908199l 0.419935, -0.0908199l 0.419935, -0.0908199l 0.419935, -0.0908199l 0.419935, -0.0908199l 0.419935, -0.0908199l 0.419935, -0.0908199l 0.419935, -0.0908199l 0.419935, -0.0908199l 0.419935, -0.0908199l
 0.419935, -0.0908199l 0.419935, -0.0908199l 0.419935, -0.0908199l 0.419935, -0.0908199l 0.419935, -0.0908199l 0.419935, -0.0908199l 0.419935, -0.0908199l 0.419935, -0.0908199l 0.419935, -0.0908199l 0.419935, -0.0908199l 0.419935, -0.0908199l
 0.419935, -0.0908199l 0.419935, -0.0908199l 0.419935, -0.0908199l 0.419935, -0.0908199l 0.419935, -0.0908199l 0.419935, -0.0908199l 0.419935, -0.0908199l 0.419935, -0.0908199l 0.419935, -0.0908199l 0.419935, -0.0908199l 0.419935, -0.0908199l
 0.419935, -0.0908199l 0.419935, -0.0908199l 0.419935, -0.0908199l 0.419935, -0.0908199l 0.419935, -0.0908199l 0.419935, -0.0908199l 0.419935, -0.0908199l 0.419935, -0.0908199l 0.419935, -0.0908199l 0.419935, -0.0908199l 0.419935, -0.0908199l
 0.419935, -0.0908199l 0.419935, -0.0908199l 0.419935, -0.0908199l 0.419935, -0.0908199l 0.419935, -0.0908199l 0.419935, -0.0908199" fill="none" stroke="#33cccc" stroke-width="3"/>
<path d="M540.268,177.693l 0.419935, -0.0908199l 0.419935, -0.0908199l 0.419935, -0.0908199l 0.419935, -0.0908199l 0.419935, -0.0908199l 0.419935, -0.0908199l 0.419935, -0.0908199l 0.419935, -0.0908199l 0.419935, -0.0908199l 0.419935, -0.0908199l
 0.419935, -0.0908199l 0.419935, -0.0908199l 0.419935, -0.0908199l 0.419935, -0.0908199l 0.419935, -0.0908199l 0.419935, -0.0908199l 0.419935, -0.0908199l 0.419935, -0.0908199l 0.419935, -0.0908199" fill="none" stroke="#33cccc" stroke-width="3"/>
<path d="M128.732,277.966l 0.419935, -0.143121l 0.419935, -0.14301l 0.419935, -0.1429l 0.419935, -0.14279l 0.419935, -0.14268l 0.419935, -0.142569l 0.419935, -0.142459l 0.419935, -0.142349l 0.419935, -0.142238l 0.419935, -0.142128l 0.419935,
 -0.142018l 0.419935, -0.141907l 0.419935, -0.141797l 0.419935, -0.141687l 0.419935, -0.141576l 0.419935, -0.141466l 0.419935, -0.141356l 0.419935, -0.141246l 0.419935, -0.141135l 0.419935, -0.141025l 0.419935, -0.140915l 0.419935, -0.140804l
 0.419935, -0.140694l 0.419935, -0.140584l 0.419935, -0.140473l 0.419935, -0.140363l 0.419935, -0.140253l 0.419935, -0.140142l 0.419935, -0.140032l 0.419935, -0.139922l 0.419935, -0.139812l 0.419935, -0.139701l 0.419935, -0.139591l 0.419935,
 -0.139481l 0.419935, -0.13937l 0.419935, -0.13926l 0.419935, -0.13915l 0.419935, -0.139039l 0.419935, -0.138929l 0.419935, -0.138819l 0.419935, -0.138709l 0.419935, -0.138598l 0.419935, -0.138488l 0.419935, -0.138378l 0.419935, -0.138267l 0.419935,
 -0.138157l 0.419935, -0.138047l 0.419935, -0.137936l 0.419935, -0.137826" fill="none" stroke="#ff0066" stroke-width="3"/>
<path d="M149.309,271.083l 0.419935, -0.137716l 0.419935, -0.137605l 0.419935, -0.137495l 0.419935, -0.137385l 0.419935, -0.137275l 0.419935, -0.137164l 0.419935, -0.137054l 0.419935, -0.136944l 0.419935, -0.136833l 0.419935, -0.136723l 0.419935,
 -0.136613l 0.419935, -0.136502l 0.419935, -0.136392l 0.419935, -0.136282l 0.419935, -0.136171l 0.419935, -0.136061l 0.419935, -0.135951l 0.419935, -0.135841l 0.419935, -0.13573l 0.419935, -0.13562l 0.419935, -0.13551l 0.419935, -0.135399l 0.419935,
 -0.135289l 0.419935, -0.135179l 0.419935, -0.135068l 0.419935, -0.134958l 0.419935, -0.134848l 0.419935, -0.134737l 0.419935, -0.134627l 0.419935, -0.134517l 0.419935, -0.134407l 0.419935, -0.134296l 0.419935, -0.134186l 0.419935, -0.134076l
 0.419935, -0.133965l 0.419935, -0.133855l 0.419935, -0.133745l 0.419935, -0.133634l 0.419935, -0.133524l 0.419935, -0.133414l 0.419935, -0.133303l 0.419935, -0.133193l 0.419935, -0.133083l 0.419935, -0.132973l 0.419935, -0.132862l 0.419935,
 -0.132752l 0.419935, -0.132642l 0.419935, -0.132531l 0.419935, -0.132421" fill="none" stroke="#ff0066" stroke-width="3"/>
<path d="M169.886,264.465l 0.419935, -0.132311l 0.419935, -0.1322l 0.419935, -0.13209l 0.419935, -0.13198l 0.419935, -0.13187l 0.419935, -0.131759l 0.419935, -0.131649l 0.419935, -0.131539l 0.419935, -0.131428l 0.419935, -0.131318l 0.419935,
 -0.131208l 0.419935, -0.131097l 0.419935, -0.130987l 0.419935, -0.130877l 0.419935, -0.130766l 0.419935, -0.130656l 0.419935, -0.130546l 0.419935, -0.130436l 0.419935, -0.130325l 0.419935, -0.130215l 0.419935, -0.130105l 0.419935, -0.129994l
 0.419935, -0.129884l 0.419935, -0.129774l 0.419935, -0.129663l 0.419935, -0.129553l 0.419935, -0.129443l 0.419935, -0.129332l 0.419935, -0.129222l 0.419935, -0.129112l 0.419935, -0.129002l 0.419935, -0.128891l 0.419935, -0.128781l 0.419935,
 -0.128671l 0.419935, -0.12856l 0.419935, -0.12845l 0.419935, -0.12834l 0.419935, -0.128229l 0.419935, -0.128119l 0.419935, -0.128009l 0.419935, -0.127898l 0.419935, -0.127788l 0.419935, -0.127678l 0.419935, -0.127568l 0.419935, -0.127457l 0.419935,
 -0.127347l 0.419935, -0.127237l 0.419935, -0.127126l 0.419935, -0.127016" fill="none" stroke="#ff0066" stroke-width="3"/>
<path d="M190.462,258.111l 0.419935, -0.126906l 0.419935, -0.126795l 0.419935, -0.126685l 0.419935, -0.126575l 0.419935, -0.126465l 0.419935, -0.126354l 0.419935, -0.126244l 0.419935, -0.126134l 0.419935, -0.126023l 0.419935, -0.125913l 0.419935,
 -0.125803l 0.419935, -0.125692l 0.419935, -0.125582l 0.419935, -0.125472l 0.419935, -0.125361l 0.419935, -0.125251l 0.419935, -0.125141l 0.419935, -0.125031l 0.419935, -0.12492l 0.419935, -0.12481l 0.419935, -0.1247l 0.419935, -0.124589l 0.419935,
 -0.124479l 0.419935, -0.124369l 0.419935, -0.124258l 0.419935, -0.124148l 0.419935, -0.124038l 0.419935, -0.123927l 0.419935, -0.123817l 0.419935, -0.123707l 0.419935, -0.123597l 0.419935, -0.123486l 0.419935, -0.123376l 0.419935, -0.123266l
 0.419935, -0.123155l 0.419935, -0.123045l 0.419935, -0.122935l 0.419935, -0.122824l 0.419935, -0.122714l 0.419935, -0.122604l 0.419935, -0.122493l 0.419935, -0.122383l 0.419935, -0.122273l 0.419935, -0.122163l 0.419935, -0.122052l 0.419935,
 -0.121942l 0.419935, -0.121832l 0.419935, -0.121721l 0.419935, -0.121611" fill="none" stroke="#ff0066" stroke-width="3"/>
<path d="M211.039,252.022l 0.419935, -0.121501l 0.419935, -0.12139l 0.419935, -0.12128l 0.419935, -0.12117l 0.419935, -0.121059l 0.419935, -0.120949l 0.419935, -0.120839l 0.419935, -0.120729l 0.419935, -0.120618l 0.419935, -0.120508l 0.419935,
 -0.120398l 0.419935, -0.120287l 0.419935, -0.120177l 0.419935, -0.120067l 0.419935, -0.119956l 0.419935, -0.119846l 0.419935, -0.119736l 0.419935, -0.119626l 0.419935, -0.119515l 0.419935, -0.119405l 0.419935, -0.119295l 0.419935, -0.119184l
 0.419935, -0.119074l 0.419935, -0.118964l 0.419935, -0.118853l 0.419935, -0.118743l 0.419935, -0.118633l 0.419935, -0.118522l 0.419935, -0.118412l 0.419935, -0.118302l 0.419935, -0.118192l 0.419935, -0.118081l 0.419935, -0.117971l 0.419935,
 -0.117861l 0.419935, -0.11775l 0.419935, -0.11764l 0.419935, -0.11753l 0.419935, -0.117419l 0.419935, -0.117309l 0.419935, -0.117199l 0.419935, -0.117088l 0.419935, -0.116978l 0.419935, -0.116868l 0.419935, -0.116758l 0.419935, -0.116647l 0.419935,
 -0.116537l 0.419935, -0.116427l 0.419935, -0.116316l 0.419935, -0.116206" fill="none" stroke="#ff0066" stroke-width="3"/>
<path d="M231.616,246.199l 0.419935, -0.116096l 0.419935, -0.115985l 0.419935, -0.115875l 0.419935, -0.115765l 0.419935, -0.115654l 0.419935, -0.115544l 0.419935, -0.115434l 0.419935, -0.115324l 0.419935, -0.115213l 0.419935, -0.115103l 0.419935,
 -0.114993l 0.419935, -0.114882l 0.419935, -0.114772l 0.419935, -0.114662l 0.419935, -0.114551l 0.419935, -0.114441l 0.419935, -0.114331l 0.419935, -0.114221l 0.419935, -0.11411l 0.419935, -0.114l 0.419935, -0.11389l 0.419935, -0.113779l 0.419935,
 -0.113669l 0.419935, -0.113559l 0.419935, -0.113448l 0.419935, -0.113338l 0.419935, -0.113228l 0.419935, -0.113117l 0.419935, -0.113007l 0.419935, -0.112897l 0.419935, -0.112787l 0.419935, -0.112676l 0.419935, -0.112566l 0.419935, -0.112456l
 0.419935, -0.112345l 0.419935, -0.112235l 0.419935, -0.112125l 0.419935, -0.112014l 0.419935, -0.111904l 0.419935, -0.111794l 0.419935, -0.111683l 0.419935, -0.111573l 0.419935, -0.111463l 0.419935, -0.111353l 0.419935, -0.111242l 0.419935,
 -0.111132l 0.419935, -0.111022l 0.419935, -0.110911l 0.419935, -0.110801" fill="none" stroke="#ff0066" stroke-width="3"/>
<path d="M252.193,240.64l 0.419935, -0.110691l 0.419935, -0.11058l 0.419935, -0.11047l 0.419935, -0.11036l 0.419935, -0.110249l 0.419935, -0.110139l 0.419935, -0.110029l 0.419935, -0.109919l 0.419935, -0.109808l 0.419935, -0.109698l 0.419935,
 -0.109588l 0.419935, -0.109477l 0.419935, -0.109367l 0.419935, -0.109257l 0.419935, -0.109146l 0.419935, -0.109036l 0.419935, -0.108926l 0.419935, -0.108816l 0.419935, -0.108705l 0.419935, -0.108595l 0.419935, -0.108485l 0.419935, -0.108374l
 0.419935, -0.108264l 0.419935, -0.108154l 0.419935, -0.108043l 0.419935, -0.107933l 0.419935, -0.107823l 0.419935, -0.107712l 0.419935, -0.107602l 0.419935, -0.107492l 0.419935, -0.107382l 0.419935, -0.107271l 0.419935, -0.107161l 0.419935,
 -0.107051l 0.419935, -0.10694l 0.419935, -0.10683l 0.419935, -0.10672l 0.419935, -0.106609l 0.419935, -0.106499l 0.419935, -0.106389l 0.419935, -0.106278l 0.419935, -0.106168l 0.419935, -0.106058l 0.419935, -0.105948l 0.419935, -0.105837l 0.419935,
 -0.105727l 0.419935, -0.105617l 0.419935, -0.105506l 0.419935, -0.105396" fill="none" stroke="#ff0066" stroke-width="3"/>
<path d="M272.77,235.345l 0.419935, -0.105286l 0.419935, -0.105175l 0.419935, -0.105065l 0.419935, -0.104955l 0.419935, -0.104844l 0.419935, -0.104734l 0.419935, -0.104624l 0.419935, -0.104514l 0.419935, -0.104403l 0.419935, -0.104293l 0.419935,
 -0.104183l 0.419935, -0.104072l 0.419935, -0.103962l 0.419935, -0.103852l 0.419935, -0.103741l 0.419935, -0.103631l 0.419935, -0.103521l 0.419935, -0.10341l 0.419935, -0.1033l 0.419935, -0.10319l 0.419935, -0.10308l 0.419935, -0.102969l 0.419935,
 -0.102859l 0.419935, -0.102749l 0.419935, -0.102638l 0.419935, -0.102528l 0.419935, -0.102418l 0.419935, -0.102307l 0.419935, -0.102197l 0.419935, -0.102087l 0.419935, -0.101977l 0.419935, -0.101866l 0.419935, -0.101756l 0.419935, -0.101646l
 0.419935, -0.101535l 0.419935, -0.101425l 0.419935, -0.101315l 0.419935, -0.101204l 0.419935, -0.101094l 0.419935, -0.100984l 0.419935, -0.100873l 0.419935, -0.100763l 0.419935, -0.100653l 0.419935, -0.100543l 0.419935, -0.100432l 0.419935,
 -0.100322l 0.419935, -0.100212l 0.419935, -0.100101l 0.419935, -0.099991" fill="none" stroke="#ff0066" stroke-width="3"/>
<path d="M293.346,230.316l 0.419935, -0.0998807l 0.419935, -0.0997704l 0.419935, -0.0996601l 0.419935, -0.0995498l 0.419935, -0.0994395l 0.419935, -0.0993292l 0.419935, -0.0992189l 0.419935, -0.0991086l 0.419935, -0.0989982l 0.419935, -0.0988879l
 0.419935, -0.0987776l 0.419935, -0.0986673l 0.419935, -0.098557l 0.419935, -0.0984467l 0.419935, -0.0983364l 0.419935, -0.0982261l 0.419935, -0.0981158l 0.419935, -0.0980055l 0.419935, -0.0978952l 0.419935, -0.0977849l 0.419935, -0.0976746l
 0.419935, -0.0975643l 0.419935, -0.097454l 0.419935, -0.0973437l 0.419935, -0.0972333l 0.419935, -0.097123l 0.419935, -0.0970127l 0.419935, -0.0969024l 0.419935, -0.0967921l 0.419935, -0.0966818l 0.419935, -0.0965715l 0.419935, -0.0964612l 0.419935,
 -0.0963509l 0.419935, -0.0962406l 0.419935, -0.0961303l 0.419935, -0.09602l 0.419935, -0.0959097l 0.419935, -0.0957994l 0.419935, -0.0956891l 0.419935, -0.0955788l 0.419935, -0.0954684l 0.419935, -0.0953581l 0.419935, -0.0952478l 0.419935,
 -0.0951375l 0.419935, -0.0950272l 0.419935, -0.0949169l 0.419935, -0.0948066l 0.419935, -0.0946963l 0.419935, -0.094586" fill="none" stroke="#ff0066" stroke-width="3"/>
<path d="M313.923,225.552l 0.419935, -0.0944757l 0.419935, -0.0943654l 0.419935, -0.0942551l 0.419935, -0.0941448l 0.419935, -0.0940345l 0.419935, -0.0939242l 0.419935, -0.0938139l 0.419935, -0.0937035l 0.419935, -0.0935932l 0.419935, -0.0934829l
 0.419935, -0.0933726l 0.419935, -0.0932623l 0.419935, -0.093152l 0.419935, -0.0930417l 0.419935, -0.0929314l 0.419935, -0.0928211l 0.419935, -0.0927108l 0.419935, -0.0926005l 0.419935, -0.0924902l 0.419935, -0.0923799l 0.419935, -0.0922696l
 0.419935, -0.0921593l 0.419935, -0.092049l 0.419935, -0.0919386l 0.419935, -0.0918283l 0.419935, -0.091718l 0.419935, -0.0916077l 0.419935, -0.0914974l 0.419935, -0.0913871l 0.419935, -0.0912768l 0.419935, -0.0911665l 0.419935, -0.0910562l 0.419935,
 -0.0909459l 0.419935, -0.0908356l 0.419935, -0.0907253l 0.419935, -0.090615l 0.419935, -0.0905047l 0.419935, -0.0903944l 0.419935, -0.090284l 0.419935, -0.0901737l 0.419935, -0.0900634l 0.419935, -0.0899531l 0.419935, -0.0898428l 0.419935,
 -0.0897325l 0.419935, -0.0896222l 0.419935, -0.0895119l 0.419935, -0.0894016l 0.419935, -0.0892913l 0.419935, -0.089181" fill="none" stroke="#ff0066" stroke-width="3"/>
<path d="M334.5,221.052l 0.419935, -0.0890707l 0.419935, -0.0889604l 0.419935, -0.0888501l 0.419935, -0.0887398l 0.419935, -0.0886295l 0.419935, -0.0885191l 0.419935, -0.0884088l 0.419935, -0.0882985l 0.419935, -0.0881882l 0.419935, -0.0880779l
 0.419935, -0.0879676l 0.419935, -0.0878573l 0.419935, -0.087747l 0.419935, -0.0876367l 0.419935, -0.0875264l 0.419935, -0.0874161l 0.419935, -0.0873058l 0.419935, -0.0871955l 0.419935, -0.0870852l 0.419935, -0.0869749l 0.419935, -0.0868646l
 0.419935, -0.0867543l 0.419935, -0.0866439l 0.419935, -0.0865336l 0.419935, -0.0864233l 0.419935, -0.086313l 0.419935, -0.0862027l 0.419935, -0.0860924l 0.419935, -0.0859821l 0.419935, -0.0858718l 0.419935, -0.0857615l 0.419935, -0.0856512l
 0.419935, -0.0855409l 0.419935, -0.0854306l 0.419935, -0.0853203l 0.419935, -0.08521l 0.419935, -0.0850997l 0.419935, -0.0849894l 0.419935, -0.084879l 0.419935, -0.0847687l 0.419935, -0.0846584l 0.419935, -0.0845481l 0.419935, -0.0844378l 0.419935,
 -0.0843275l 0.419935, -0.0842172l 0.419935, -0.0841069l 0.419935, -0.0839966l 0.419935, -0.0838863l 0.419935, -0.083776" fill="none" stroke="#ff0066" stroke-width="3"/>
<path d="M355.077,216.817l 0.419935, -0.0836657l 0.419935, -0.0835554l 0.419935, -0.0834451l 0.419935, -0.0833348l 0.419935, -0.0832245l 0.419935, -0.0831141l 0.419935, -0.0830038l 0.419935, -0.0828935l 0.419935, -0.0827832l 0.419935, -0.0826729l
 0.419935, -0.0825626l 0.419935, -0.0824523l 0.419935, -0.082342l 0.419935, -0.0822317l 0.419935, -0.0821214l 0.419935, -0.0820111l 0.419935, -0.0819008l 0.419935, -0.0817905l 0.419935, -0.0816802l 0.419935, -0.0815699l 0.419935, -0.0814596l
 0.419935, -0.0813492l 0.419935, -0.0812389l 0.419935, -0.0811286l 0.419935, -0.0810183l 0.419935, -0.080908l 0.419935, -0.0807977l 0.419935, -0.0806874l 0.419935, -0.0805771l 0.419935, -0.0804668l 0.419935, -0.0803565l 0.419935, -0.0802462l
 0.419935, -0.0801359l 0.419935, -0.0800256l 0.419935, -0.0799153l 0.419935, -0.079805l 0.419935, -0.0796947l 0.419935, -0.0795843l 0.419935, -0.079474l 0.419935, -0.0793637l 0.419935, -0.0792534l 0.419935, -0.0791431l 0.419935, -0.0790328l 0.419935,
 -0.0789225l 0.419935, -0.0788122l 0.419935, -0.0787019l 0.419935, -0.0785916l 0.419935, -0.0784813l 0.419935, -0.078371" fill="none" stroke="#ff0066" stroke-width="3"/>
<path d="M375.654,212.847l 0.419935, -0.0782607l 0.419935, -0.0781504l 0.419935, -0.0780401l 0.419935, -0.0779298l 0.419935, -0.0778194l 0.419935, -0.0777091l 0.419935, -0.0775988l 0.419935, -0.0774885l 0.419935, -0.0773782l 0.419935, -0.0772679l
 0.419935, -0.0771576l 0.419935, -0.0770473l 0.419935, -0.076937l 0.419935, -0.0768267l 0.419935, -0.0767164l 0.419935, -0.0766061l 0.419935, -0.0764958l 0.419935, -0.0763855l 0.419935, -0.0762752l 0.419935, -0.0761648l 0.419935, -0.0760545l
 0.419935, -0.0759442l 0.419935, -0.0758339l 0.419935, -0.0757236l 0.419935, -0.0756133l 0.419935, -0.075503l 0.419935, -0.0753927l 0.419935, -0.0752824l 0.419935, -0.0751721l 0.419935, -0.0750618l 0.419935, -0.0749515l 0.419935, -0.0748412l
 0.419935, -0.0747309l 0.419935, -0.0746206l 0.419935, -0.0745103l 0.419935, -0.0743999l 0.419935, -0.0742896l 0.419935, -0.0741793l 0.419935, -0.074069l 0.419935, -0.0739587l 0.419935, -0.0738484l 0.419935, -0.0737381l 0.419935, -0.0736278l
 0.419935, -0.0735175l 0.419935, -0.0734072l 0.419935, -0.0732969l 0.419935, -0.0731866l 0.419935, -0.0730763l 0.419935, -0.072966" fill="none" stroke="#ff0066" stroke-width="3"/>
<path d="M396.23,209.142l 0.419935, -0.0728557l 0.419935, -0.0727454l 0.419935, -0.072635l 0.419935, -0.0725247l 0.419935, -0.0724144l 0.419935, -0.0723041l 0.419935, -0.0721938l 0.419935, -0.0720835l 0.419935, -0.0719732l 0.419935, -0.0718629l
 0.419935, -0.0717526l 0.419935, -0.0716423l 0.419935, -0.071532l 0.419935, -0.0714217l 0.419935, -0.0713114l 0.419935, -0.0712011l 0.419935, -0.0710908l 0.419935, -0.0709805l 0.419935, -0.0708701l 0.419935, -0.0707598l 0.419935, -0.0706495l
 0.419935, -0.0705392l 0.419935, -0.0704289l 0.419935, -0.0703186l 0.419935, -0.0702083l 0.419935, -0.070098l 0.419935, -0.0699877l 0.419935, -0.0698774l 0.419935, -0.0697671l 0.419935, -0.0696568l 0.419935, -0.0695465l 0.419935, -0.0694362l
 0.419935, -0.0693259l 0.419935, -0.0692156l 0.419935, -0.0691053l 0.419935, -0.0689949l 0.419935, -0.0688846l 0.419935, -0.0687743l 0.419935, -0.068664l 0.419935, -0.0685537l 0.419935, -0.0684434l 0.419935, -0.0683331l 0.419935, -0.0682228l
 0.419935, -0.0681125l 0.419935, -0.0680022l 0.419935, -0.0678919l 0.419935, -0.0677816l 0.419935, -0.0676713l 0.419935, -0.067561" fill="none" stroke="#ff0066" stroke-width="3"/>
<path d="M416.807,205.702l 0.419935, -0.0674507l 0.419935, -0.0673404l 0.419935, -0.06723l 0.419935, -0.0671197l 0.419935, -0.0670094l 0.419935, -0.0668991l 0.419935, -0.0667888l 0.419935, -0.0666785l 0.419935, -0.0665682l 0.419935, -0.0664579l
 0.419935, -0.0663476l 0.419935, -0.0662373l 0.419935, -0.066127l 0.419935, -0.0660167l 0.419935, -0.0659064l 0.419935, -0.0657961l 0.419935, -0.0656858l 0.419935, -0.0655755l 0.419935, -0.0654651l 0.419935, -0.0653548l 0.419935, -0.0652445l
 0.419935, -0.0651342l 0.419935, -0.0650239l 0.419935, -0.0649136l 0.419935, -0.0648033l 0.419935, -0.064693l 0.419935, -0.0645827l 0.419935, -0.0644724l 0.419935, -0.0643621l 0.419935, -0.0642518l 0.419935, -0.0641415l 0.419935, -0.0640312l
 0.419935, -0.0639209l 0.419935, -0.0638105l 0.419935, -0.0637002l 0.419935, -0.0635899l 0.419935, -0.0634796l 0.419935, -0.0633693l 0.419935, -0.063259l 0.419935, -0.0631487l 0.419935, -0.0630384l 0.419935, -0.0629281l 0.419935, -0.0628178l
 0.419935, -0.0627075l 0.419935, -0.0625972l 0.419935, -0.0624869l 0.419935, -0.0623766l 0.419935, -0.0622663l 0.419935, -0.062156" fill="none" stroke="#ff0066" stroke-width="3"/>
<path d="M437.384,202.527l 0.419935, -0.0620456l 0.419935, -0.0619353l 0.419935, -0.061825l 0.419935, -0.0617147l 0.419935, -0.0616044l 0.419935, -0.0614941l 0.419935, -0.0613838l 0.419935, -0.0612735l 0.419935, -0.0611632l 0.419935, -0.0610529l
 0.419935, -0.0609426l 0.419935, -0.0608323l 0.419935, -0.060722l 0.419935, -0.0606117l 0.419935, -0.0605014l 0.419935, -0.0603911l 0.419935, -0.0602807l 0.419935, -0.0601704l 0.419935, -0.0600601l 0.419935, -0.0599498l 0.419935, -0.0598395l
 0.419935, -0.0597292l 0.419935, -0.0596189l 0.419935, -0.0595086l 0.419935, -0.0593983l 0.419935, -0.059288l 0.419935, -0.0591777l 0.419935, -0.0590674l 0.419935, -0.0589571l 0.419935, -0.0588468l 0.419935, -0.0587365l 0.419935, -0.0586262l
 0.419935, -0.0585158l 0.419935, -0.0584055l 0.419935, -0.0582952l 0.419935, -0.0581849l 0.419935, -0.0580746l 0.419935, -0.0579643l 0.419935, -0.057854l 0.419935, -0.0577437l 0.419935, -0.0576334l 0.419935, -0.0575231l 0.419935, -0.0574128l
 0.419935, -0.0573025l 0.419935, -0.0571922l 0.419935, -0.0570819l 0.419935, -0.0569716l 0.419935, -0.0568613l 0.419935, -0.0567509" fill="none" stroke="#ff0066" stroke-width="3"/>
<path d="M457.961,199.616l 0.419935, -0.0566406l 0.419935, -0.0565303l 0.419935, -0.05642l 0.419935, -0.0563097l 0.419935, -0.0561994l 0.419935, -0.0560891l 0.419935, -0.0559788l 0.419935, -0.0558685l 0.419935, -0.0557582l 0.419935, -0.0556479l
 0.419935, -0.0555376l 0.419935, -0.0554273l 0.419935, -0.055317l 0.419935, -0.0552067l 0.419935, -0.0550964l 0.419935, -0.054986l 0.419935, -0.0548757l 0.419935, -0.0547654l 0.419935, -0.0546551l 0.419935, -0.0545448l 0.419935, -0.0544345l 0.419935,
 -0.0543242l 0.419935, -0.0542139l 0.419935, -0.0541036l 0.419935, -0.0539933l 0.419935, -0.053883l 0.419935, -0.0537727l 0.419935, -0.0536624l 0.419935, -0.0535521l 0.419935, -0.0534418l 0.419935, -0.0533315l 0.419935, -0.0532211l 0.419935,
 -0.0531108l 0.419935, -0.0530005l 0.419935, -0.0528902l 0.419935, -0.0527799l 0.419935, -0.0526696l 0.419935, -0.0525593l 0.419935, -0.052449l 0.419935, -0.0523387l 0.419935, -0.0522284l 0.419935, -0.0521181l 0.419935, -0.0520078l 0.419935,
 -0.0518975l 0.419935, -0.0517872l 0.419935, -0.0516769l 0.419935, -0.0515666l 0.419935, -0.0514562l 0.419935, -0.0513459" fill="none" stroke="#ff0066" stroke-width="3"/>
<path d="M478.538,196.971l 0.419935, -0.0512356l 0.419935, -0.0511253l 0.419935, -0.051015l 0.419935, -0.0509047l 0.419935, -0.0507944l 0.419935, -0.0506841l 0.419935, -0.0505738l 0.419935, -0.0504635l 0.419935, -0.0503532l 0.419935, -0.0502429l
 0.419935, -0.0501326l 0.419935, -0.0500223l 0.419935, -0.049912l 0.419935, -0.0498017l 0.419935, -0.0496913l 0.419935, -0.049581l 0.419935, -0.0494707l 0.419935, -0.0493604l 0.419935, -0.0492501l 0.419935, -0.0491398l 0.419935, -0.0490295l 0.419935,
 -0.0489192l 0.419935, -0.0488089l 0.419935, -0.0486986l 0.419935, -0.0485883l 0.419935, -0.048478l 0.419935, -0.0483677l 0.419935, -0.0482574l 0.419935, -0.0481471l 0.419935, -0.0480368l 0.419935, -0.0479264l 0.419935, -0.0478161l 0.419935,
 -0.0477058l 0.419935, -0.0475955l 0.419935, -0.0474852l 0.419935, -0.0473749l 0.419935, -0.0472646l 0.419935, -0.0471543l 0.419935, -0.047044l 0.419935, -0.0469337l 0.419935, -0.0468234l 0.419935, -0.0467131l 0.419935, -0.0466028l 0.419935,
 -0.0464925l 0.419935, -0.0463822l 0.419935, -0.0462719l 0.419935, -0.0461615l 0.419935, -0.0460512l 0.419935, -0.0459409" fill="none" stroke="#ff0066" stroke-width="3"/>
<path d="M499.114,194.59l 0.419935, -0.0458306l 0.419935, -0.0457203l 0.419935, -0.04561l 0.419935, -0.0454997l 0.419935, -0.0453894l 0.419935, -0.0452791l 0.419935, -0.0451688l 0.419935, -0.0450585l 0.419935, -0.0449482l 0.419935, -0.0448379l
 0.419935, -0.0447276l 0.419935, -0.0446173l 0.419935, -0.044507l 0.419935, -0.0443966l 0.419935, -0.0442863l 0.419935, -0.044176l 0.419935, -0.0440657l 0.419935, -0.0439554l 0.419935, -0.0438451l 0.419935, -0.0437348l 0.419935, -0.0436245l 0.419935,
 -0.0435142l 0.419935, -0.0434039l 0.419935, -0.0432936l 0.419935, -0.0431833l 0.419935, -0.043073l 0.419935, -0.0429627l 0.419935, -0.0428524l 0.419935, -0.0427421l 0.419935, -0.0426317l 0.419935, -0.0425214l 0.419935, -0.0424111l 0.419935,
 -0.0423008l 0.419935, -0.0421905l 0.419935, -0.0420802l 0.419935, -0.0419699l 0.419935, -0.0418596l 0.419935, -0.0417493l 0.419935, -0.041639l 0.419935, -0.0415287l 0.419935, -0.0414184l 0.419935, -0.0413081l 0.419935, -0.0411978l 0.419935,
 -0.0410875l 0.419935, -0.0409772l 0.419935, -0.0408668l 0.419935, -0.0407565l 0.419935, -0.0406462l 0.419935, -0.0405359" fill="none" stroke="#ff0066" stroke-width="3"/>
<path d="M519.691,192.474l 0.419935, -0.0404256l 0.419935, -0.0403153l 0.419935, -0.040205l 0.419935, -0.0400947l 0.419935, -0.0399844l 0.419935, -0.0398741l 0.419935, -0.0397638l 0.419935, -0.0396535l 0.419935, -0.0395432l 0.419935, -0.0394329l
 0.419935, -0.0393226l 0.419935, -0.0392123l 0.419935, -0.0391019l 0.419935, -0.0389916l 0.419935, -0.0388813l 0.419935, -0.038771l 0.419935, -0.0386607l 0.419935, -0.0385504l 0.419935, -0.0384401l 0.419935, -0.0383298l 0.419935, -0.0382195l
 0.419935, -0.0381092l 0.419935, -0.0379989l 0.419935, -0.0378886l 0.419935, -0.0377783l 0.419935, -0.037668l 0.419935, -0.0375577l 0.419935, -0.0374474l 0.419935, -0.037337l 0.419935, -0.0372267l 0.419935, -0.0371164l 0.419935, -0.0370061l 0.419935,
 -0.0368958l 0.419935, -0.0367855l 0.419935, -0.0366752l 0.419935, -0.0365649l 0.419935, -0.0364546l 0.419935, -0.0363443l 0.419935, -0.036234l 0.419935, -0.0361237l 0.419935, -0.0360134l 0.419935, -0.0359031l 0.419935, -0.0357928l 0.419935,
 -0.0356825l 0.419935, -0.0355721l 0.419935, -0.0354618l 0.419935, -0.0353515l 0.419935, -0.0352412l 0.419935, -0.0351309" fill="none" stroke="#ff0066" stroke-width="3"/>
<path d="M540.268,190.623l 0.419935, -0.0350206l 0.419935, -0.0349103l 0.419935, -0.0348l 0.419935, -0.0346897l 0.419935, -0.0345794l 0.419935, -0.0344691l 0.419935, -0.0343588l 0.419935, -0.0342485l 0.419935, -0.0341382l 0.419935, -0.0340279l
 0.419935, -0.0339175l 0.419935, -0.0338072l 0.419935, -0.0336969l 0.419935, -0.0335866l 0.419935, -0.0334763l 0.419935, -0.033366l 0.419935, -0.0332557l 0.419935, -0.0331454l 0.419935, -0.0330351" fill="none" stroke="#ff0066" stroke-width="3"/>
<path d="M248.503,21.4167h 179.972" fill="none" stroke="#999999" stroke-width="7"/>
<text xml:space="preserve" x="360.607" y="50.7193" fill="black" font-size="16.0105" font-family="Helvetica"> with EMC</text>
<text xml:space="preserve" x="352.717" y="50.7193" fill="black" font-size="16.0105" font-family="Times">&#0947;</text>
<text xml:space="preserve" x="344.828" y="50.7193" fill="black" font-size="16.0105" font-family="Times">&#0947;</text>
<text xml:space="preserve" x="336.938" y="50.7193" fill="black" font-size="16.0105" font-family="Times">&#0947;</text>
<text xml:space="preserve" x="331.866" y="50.7193" fill="black" font-size="16.0105" font-family="Helvetica"> </text>
<text xml:space="preserve" x="316.65" y="50.7193" fill="black" font-size="16.0105" font-family="Times">&#8594;</text>
<text xml:space="preserve" x="311.578" y="50.7193" fill="black" font-size="16.0105" font-family="Helvetica"> </text>
<text xml:space="preserve" x="303.689" y="50.7193" fill="black" font-size="16.0105" font-family="Times">&#0947;</text>
<text xml:space="preserve" x="298.053" y="45.0838" fill="black" font-size="10.8403" font-family="Helvetica">0</text>
<text xml:space="preserve" x="289.6" y="50.7193" fill="black" font-size="16.0105" font-family="Times">&#0960;</text>
<text xml:space="preserve" x="284.528" y="50.7193" fill="black" font-size="16.0105" font-family="Helvetica"> </text>
<text xml:space="preserve" x="269.312" y="50.7193" fill="black" font-size="16.0105" font-family="Times">&#8594;</text>
<text xml:space="preserve" x="264.24" y="50.7193" fill="black" font-size="16.0105" font-family="Helvetica"> </text>
<text xml:space="preserve" x="252.969" y="50.7193" fill="black" font-size="16.0105" font-family="Times">&#0969;</text>
<text xml:space="preserve" x="128.989" y="50.7193" fill="black" font-size="16.0105" font-family="Helvetica"> = 13 TeV (EG1), </text>
<text xml:space="preserve" x="120.536" y="50.7193" fill="black" font-size="16.0105" font-family="Helvetica" font-style="oblique">s</text>
<path d="M114.9,41.7025l 1.69064, 9.58031" fill="none" stroke="black" stroke-width="2"/>
<path d="M116.591,51.2829l 2.25419, -14.0887" fill="none" stroke="black"/>
<path d="M118.845,37.1942h 10.1439" fill="none" stroke="black"/>
<text xml:space="preserve" x="89.5406" y="50.7193" fill="black" font-size="16.0105" font-family="Helvetica">pp </text>
<text xml:space="preserve" x="89.5406" y="85.6593" fill="black" font-size="16.0105" font-family="Helvetica">ALICE work in progress</text>
<text xml:space="preserve" x="214.085" y="120.599" fill="black" font-size="16.0105" font-family="Helvetica">) &lt; 18.0</text>
<text xml:space="preserve" x="205.068" y="120.599" fill="black" font-size="16.0105" font-family="Helvetica" font-style="oblique">c</text>
<text xml:space="preserve" x="154.912" y="120.599" fill="black" font-size="16.0105" font-family="Helvetica"> /(GeV/</text>
<text xml:space="preserve" x="148.15" y="128.489" fill="black" font-size="10.8403" font-family="Helvetica">T</text>
<text xml:space="preserve" x="138.569" y="120.599" fill="black" font-size="16.0105" font-family="Helvetica" font-style="oblique">p</text>
<text xml:space="preserve" x="133.497" y="120.599" fill="black" font-size="16.0105" font-family="Helvetica"> </text>
<text xml:space="preserve" x="125.044" y="120.599" fill="black" font-size="16.0105" font-family="Times">&#8804;</text>
<text xml:space="preserve" x="89.5406" y="120.599" fill="black" font-size="16.0105" font-family="Helvetica">16.0 </text>
<rect x="312.311" y="69.1755" width="198.425" height="113.448" fill="white"/>
<text xml:space="preserve" x="361.734" y="85.0957" fill="black" font-size="16.0105" font-family="Helvetica">ratio</text>
<path d="M319.752,80.5203h 34.7244" fill="none" stroke="black" stroke-width="2"/>
<g fill="black">
<circle cx="337.114" cy="80.5203" r="6.76257"/>
</g>
<text xml:space="preserve" x="361.734" y="108.201" fill="black" font-size="16.0105" font-family="Helvetica">peak range</text>
<path d="M319.752,103.21h 34.7244" fill="none" stroke="#333333" stroke-width="2"/>
<g stroke="#333333" stroke-width="2" fill="none">
<circle cx="337.114" cy="103.21" r="5.63548"/>
</g>
<text xml:space="preserve" x="361.734" y="130.743" fill="black" font-size="16.0105" font-family="Helvetica">background pol1</text>
<path d="M319.752,125.899h 34.7244" fill="none" stroke="#33cccc" stroke-width="3"/>
<text xml:space="preserve" x="361.734" y="153.285" fill="black" font-size="16.0105" font-family="Helvetica">background pol2</text>
<path d="M319.752,148.589h 34.7244" fill="none" stroke="#ff0066" stroke-width="3"/>
<text xml:space="preserve" x="361.734" y="175.827" fill="black" font-size="16.0105" font-family="Helvetica">param. range</text>
<path d="M319.752,171.279h 34.7244" fill="none" stroke="#999999" stroke-width="7"/></svg>
