<?xml version="1.0" standalone="no"?>
<svg width="567.429" height="553.904" viewBox="0 0 567.429 553.904" xmlns="http://www.w3.org/2000/svg" shape-rendering="crispEdges">
<title>
MC/EG1/OmegaRotWOPS/SameEventAndBackgroundBeforeScaling_05.svg
</title>
<desc>
Creator: ROOT Version 6.20/08
CreationDate: Wed Mar 10 16:17:23 2021</desc>
<defs>
</defs>
<rect x="0.5" y="0" width="566.929" height="553.404" fill="white"/>
<rect x="57.1929" y="16.6021" width="496.063" height="481.461" fill="white"/>
<rect x="57.1929" y="16.6021" width="496.063" height="481.461" fill="none" stroke="black"/>
<rect x="57.1929" y="16.6021" width="496.063" height="481.461" fill="white"/>
<rect x="57.1929" y="16.6021" width="496.063" height="481.461" fill="none" stroke="black"/>
<path d="M96.0998,494.341h 0.35498" fill="none" stroke="#993333" stroke-width="2"/>
<path d="M105.472,494.341h 0.35498" fill="none" stroke="#993333" stroke-width="2"/>
<g fill="#993333">
<rect x="96.4548" y="489.833" width="9.01677" height="9.01677"/>
</g>
<path d="M105.827,230.585h 0.35498" fill="none" stroke="#993333" stroke-width="2"/>
<path d="M115.198,230.585h 0.35498" fill="none" stroke="#993333" stroke-width="2"/>
<g fill="#993333">
<rect x="106.182" y="226.077" width="9.01677" height="9.01677"/>
</g>
<path d="M115.553,232.215h 0.35498" fill="none" stroke="#993333" stroke-width="2"/>
<path d="M124.925,232.215h 0.35498" fill="none" stroke="#993333" stroke-width="2"/>
<g fill="#993333">
<rect x="115.908" y="227.706" width="9.01677" height="9.01677"/>
</g>
<path d="M125.28,440.025h 0.35498" fill="none" stroke="#993333" stroke-width="2"/>
<path d="M134.652,440.025h 0.35498" fill="none" stroke="#993333" stroke-width="2"/>
<g fill="#993333">
<rect x="125.635" y="435.517" width="9.01677" height="9.01677"/>
</g>
<path d="M135.007,448.81h 0.35498" fill="none" stroke="#993333" stroke-width="2"/>
<path d="M144.378,448.81h 0.35498" fill="none" stroke="#993333" stroke-width="2"/>
<g fill="#993333">
<rect x="135.362" y="444.302" width="9.01677" height="9.01677"/>
</g>
<path d="M144.733,461.494h 0.35498" fill="none" stroke="#993333" stroke-width="2"/>
<path d="M154.105,461.494h 0.35498" fill="none" stroke="#993333" stroke-width="2"/>
<g fill="#993333">
<rect x="145.088" y="456.986" width="9.01677" height="9.01677"/>
</g>
<path d="M154.46,456.577h 0.35498" fill="none" stroke="#993333" stroke-width="2"/>
<path d="M163.832,456.577h 0.35498" fill="none" stroke="#993333" stroke-width="2"/>
<g fill="#993333">
<rect x="154.815" y="452.069" width="9.01677" height="9.01677"/>
</g>
<path d="M164.187,450.986h 0.35498" fill="none" stroke="#993333" stroke-width="2"/>
<path d="M173.559,450.986h 0.35498" fill="none" stroke="#993333" stroke-width="2"/>
<g fill="#993333">
<rect x="164.542" y="446.478" width="9.01677" height="9.01677"/>
</g>
<path d="M173.914,444.67h 0.35498" fill="none" stroke="#993333" stroke-width="2"/>
<path d="M183.285,444.67h 0.35498" fill="none" stroke="#993333" stroke-width="2"/>
<g fill="#993333">
<rect x="174.269" y="440.162" width="9.01677" height="9.01677"/>
</g>
<path d="M183.64,439.05h 0.35498" fill="none" stroke="#993333" stroke-width="2"/>
<path d="M193.012,439.05h 0.35498" fill="none" stroke="#993333" stroke-width="2"/>
<g fill="#993333">
<rect x="183.995" y="434.542" width="9.01677" height="9.01677"/>
</g>
<path d="M193.367,434.625h 0.35498" fill="none" stroke="#993333" stroke-width="2"/>
<path d="M202.739,434.625h 0.35498" fill="none" stroke="#993333" stroke-width="2"/>
<g fill="#993333">
<rect x="193.722" y="430.116" width="9.01677" height="9.01677"/>
</g>
<path d="M203.094,428.871h 0.35498" fill="none" stroke="#993333" stroke-width="2"/>
<path d="M212.466,428.871h 0.35498" fill="none" stroke="#993333" stroke-width="2"/>
<g fill="#993333">
<rect x="203.449" y="424.362" width="9.01677" height="9.01677"/>
</g>
<path d="M212.821,424.931h 0.35498" fill="none" stroke="#993333" stroke-width="2"/>
<path d="M222.192,424.931h 0.35498" fill="none" stroke="#993333" stroke-width="2"/>
<g fill="#993333">
<rect x="213.176" y="420.422" width="9.01677" height="9.01677"/>
</g>
<path d="M222.547,422.389h 0.35498" fill="none" stroke="#993333" stroke-width="2"/>
<path d="M231.919,422.389h 0.35498" fill="none" stroke="#993333" stroke-width="2"/>
<g fill="#993333">
<rect x="222.902" y="417.881" width="9.01677" height="9.01677"/>
</g>
<path d="M232.274,420.592h 0.35498" fill="none" stroke="#993333" stroke-width="2"/>
<path d="M241.646,420.592h 0.35498" fill="none" stroke="#993333" stroke-width="2"/>
<g fill="#993333">
<rect x="232.629" y="416.083" width="9.01677" height="9.01677"/>
</g>
<path d="M242.001,420.482h 0.35498" fill="none" stroke="#993333" stroke-width="2"/>
<path d="M251.372,420.482h 0.35498" fill="none" stroke="#993333" stroke-width="2"/>
<g fill="#993333">
<rect x="242.356" y="415.974" width="9.01677" height="9.01677"/>
</g>
<path d="M251.727,422.38h 0.35498" fill="none" stroke="#993333" stroke-width="2"/>
<path d="M261.099,422.38h 0.35498" fill="none" stroke="#993333" stroke-width="2"/>
<g fill="#993333">
<rect x="252.082" y="417.872" width="9.01677" height="9.01677"/>
</g>
<path d="M261.454,423.22h 0.35498" fill="none" stroke="#993333" stroke-width="2"/>
<path d="M270.826,423.22h 0.35498" fill="none" stroke="#993333" stroke-width="2"/>
<g fill="#993333">
<rect x="261.809" y="418.711" width="9.01677" height="9.01677"/>
</g>
<path d="M271.181,424.614h 0.35498" fill="none" stroke="#993333" stroke-width="2"/>
<path d="M280.553,424.614h 0.35498" fill="none" stroke="#993333" stroke-width="2"/>
<g fill="#993333">
<rect x="271.536" y="420.106" width="9.01677" height="9.01677"/>
</g>
<path d="M280.908,427.181h 0.35498" fill="none" stroke="#993333" stroke-width="2"/>
<path d="M290.279,427.181h 0.35498" fill="none" stroke="#993333" stroke-width="2"/>
<g fill="#993333">
<rect x="281.263" y="422.673" width="9.01677" height="9.01677"/>
</g>
<path d="M290.634,428.022h 0.35498" fill="none" stroke="#993333" stroke-width="2"/>
<path d="M300.006,428.022h 0.35498" fill="none" stroke="#993333" stroke-width="2"/>
<g fill="#993333">
<rect x="290.989" y="423.514" width="9.01677" height="9.01677"/>
</g>
<path d="M300.361,431.14h 0.35498" fill="none" stroke="#993333" stroke-width="2"/>
<path d="M309.733,431.14h 0.35498" fill="none" stroke="#993333" stroke-width="2"/>
<g fill="#993333">
<rect x="300.716" y="426.632" width="9.01677" height="9.01677"/>
</g>
<path d="M310.088,433.066h 0.35498" fill="none" stroke="#993333" stroke-width="2"/>
<path d="M319.46,433.066h 0.35498" fill="none" stroke="#993333" stroke-width="2"/>
<g fill="#993333">
<rect x="310.443" y="428.558" width="9.01677" height="9.01677"/>
</g>
<path d="M319.814,435.309h 0.35498" fill="none" stroke="#993333" stroke-width="2"/>
<path d="M329.186,435.309h 0.35498" fill="none" stroke="#993333" stroke-width="2"/>
<g fill="#993333">
<rect x="320.169" y="430.8" width="9.01677" height="9.01677"/>
</g>
<path d="M329.541,437.75h 0.35498" fill="none" stroke="#993333" stroke-width="2"/>
<path d="M338.913,437.75h 0.35498" fill="none" stroke="#993333" stroke-width="2"/>
<g fill="#993333">
<rect x="329.896" y="433.242" width="9.01677" height="9.01677"/>
</g>
<path d="M339.268,440.33h 0.35498" fill="none" stroke="#993333" stroke-width="2"/>
<path d="M348.64,440.33h 0.35498" fill="none" stroke="#993333" stroke-width="2"/>
<g fill="#993333">
<rect x="339.623" y="435.822" width="9.01677" height="9.01677"/>
</g>
<path d="M348.995,442.54h 0.35498" fill="none" stroke="#993333" stroke-width="2"/>
<path d="M358.366,442.54h 0.35498" fill="none" stroke="#993333" stroke-width="2"/>
<g fill="#993333">
<rect x="349.35" y="438.032" width="9.01677" height="9.01677"/>
</g>
<path d="M358.721,446.612h 0.35498" fill="none" stroke="#993333" stroke-width="2"/>
<path d="M368.093,446.612h 0.35498" fill="none" stroke="#993333" stroke-width="2"/>
<g fill="#993333">
<rect x="359.076" y="442.104" width="9.01677" height="9.01677"/>
</g>
<path d="M368.448,448.745h 0.35498" fill="none" stroke="#993333" stroke-width="2"/>
<path d="M377.82,448.745h 0.35498" fill="none" stroke="#993333" stroke-width="2"/>
<g fill="#993333">
<rect x="368.803" y="444.236" width="9.01677" height="9.01677"/>
</g>
<path d="M378.175,452.146h 0.35498" fill="none" stroke="#993333" stroke-width="2"/>
<path d="M387.547,452.146h 0.35498" fill="none" stroke="#993333" stroke-width="2"/>
<g fill="#993333">
<rect x="378.53" y="447.638" width="9.01677" height="9.01677"/>
</g>
<path d="M387.902,453.36h 0.35498" fill="none" stroke="#993333" stroke-width="2"/>
<path d="M397.273,453.36h 0.35498" fill="none" stroke="#993333" stroke-width="2"/>
<g fill="#993333">
<rect x="388.257" y="448.851" width="9.01677" height="9.01677"/>
</g>
<path d="M397.628,455.963h 0.35498" fill="none" stroke="#993333" stroke-width="2"/>
<path d="M407,455.963h 0.35498" fill="none" stroke="#993333" stroke-width="2"/>
<g fill="#993333">
<rect x="397.983" y="451.454" width="9.01677" height="9.01677"/>
</g>
<path d="M407.355,458.208h 0.35498" fill="none" stroke="#993333" stroke-width="2"/>
<path d="M416.727,458.208h 0.35498" fill="none" stroke="#993333" stroke-width="2"/>
<g fill="#993333">
<rect x="407.71" y="453.7" width="9.01677" height="9.01677"/>
</g>
<path d="M417.082,460.349h 0.35498" fill="none" stroke="#993333" stroke-width="2"/>
<path d="M426.453,460.349h 0.35498" fill="none" stroke="#993333" stroke-width="2"/>
<g fill="#993333">
<rect x="417.437" y="455.841" width="9.01677" height="9.01677"/>
</g>
<path d="M426.808,461.524h 0.35498" fill="none" stroke="#993333" stroke-width="2"/>
<path d="M436.18,461.524h 0.35498" fill="none" stroke="#993333" stroke-width="2"/>
<g fill="#993333">
<rect x="427.163" y="457.016" width="9.01677" height="9.01677"/>
</g>
<path d="M436.535,464.17h 0.35498" fill="none" stroke="#993333" stroke-width="2"/>
<path d="M445.907,464.17h 0.35498" fill="none" stroke="#993333" stroke-width="2"/>
<g fill="#993333">
<rect x="436.89" y="459.662" width="9.01677" height="9.01677"/>
</g>
<path d="M446.262,466.314h 0.35498" fill="none" stroke="#993333" stroke-width="2"/>
<path d="M455.634,466.314h 0.35498" fill="none" stroke="#993333" stroke-width="2"/>
<g fill="#993333">
<rect x="446.617" y="461.806" width="9.01677" height="9.01677"/>
</g>
<path d="M455.989,468.678h 0.35498" fill="none" stroke="#993333" stroke-width="2"/>
<path d="M465.36,468.678h 0.35498" fill="none" stroke="#993333" stroke-width="2"/>
<g fill="#993333">
<rect x="456.344" y="464.17" width="9.01677" height="9.01677"/>
</g>
<path d="M465.715,469.966h 0.35498" fill="none" stroke="#993333" stroke-width="2"/>
<path d="M475.087,469.966h 0.35498" fill="none" stroke="#993333" stroke-width="2"/>
<g fill="#993333">
<rect x="466.07" y="465.458" width="9.01677" height="9.01677"/>
</g>
<path d="M475.442,471.332h 0.35498" fill="none" stroke="#993333" stroke-width="2"/>
<path d="M484.814,471.332h 0.35498" fill="none" stroke="#993333" stroke-width="2"/>
<g fill="#993333">
<rect x="475.797" y="466.824" width="9.01677" height="9.01677"/>
</g>
<path d="M485.169,472.915h 0.35498" fill="none" stroke="#993333" stroke-width="2"/>
<path d="M494.541,472.915h 0.35498" fill="none" stroke="#993333" stroke-width="2"/>
<g fill="#993333">
<rect x="485.524" y="468.406" width="9.01677" height="9.01677"/>
</g>
<path d="M494.896,474.278h 0.35498" fill="none" stroke="#993333" stroke-width="2"/>
<path d="M504.267,474.278h 0.35498" fill="none" stroke="#993333" stroke-width="2"/>
<g fill="#993333">
<rect x="495.251" y="469.77" width="9.01677" height="9.01677"/>
</g>
<path d="M504.622,475.708h 0.35498" fill="none" stroke="#993333" stroke-width="2"/>
<path d="M513.994,475.708h 0.35498" fill="none" stroke="#993333" stroke-width="2"/>
<g fill="#993333">
<rect x="504.977" y="471.199" width="9.01677" height="9.01677"/>
</g>
<path d="M514.349,476.743h 0.35498" fill="none" stroke="#993333" stroke-width="2"/>
<path d="M523.721,476.743h 0.35498" fill="none" stroke="#993333" stroke-width="2"/>
<g fill="#993333">
<rect x="514.704" y="472.235" width="9.01677" height="9.01677"/>
</g>
<path d="M524.076,478.276h 0.35498" fill="none" stroke="#993333" stroke-width="2"/>
<path d="M533.447,478.276h 0.35498" fill="none" stroke="#993333" stroke-width="2"/>
<g fill="#993333">
<rect x="524.431" y="473.767" width="9.01677" height="9.01677"/>
</g>
<path d="M533.802,478.963h 0.35498" fill="none" stroke="#993333" stroke-width="2"/>
<path d="M543.174,478.963h 0.35498" fill="none" stroke="#993333" stroke-width="2"/>
<g fill="#993333">
<rect x="534.157" y="474.455" width="9.01677" height="9.01677"/>
</g>
<path d="M57.1929,498.064h 496.063" fill="none" stroke="black"/>
<path d="M57.1929,483.537v 14.5269" fill="none" stroke="black"/>
<path d="M72.3909,490.8v 7.26343" fill="none" stroke="black"/>
<path d="M87.5889,490.8v 7.26343" fill="none" stroke="black"/>
<path d="M102.787,490.8v 7.26343" fill="none" stroke="black"/>
<path d="M117.985,483.537v 14.5269" fill="none" stroke="black"/>
<path d="M133.183,490.8v 7.26343" fill="none" stroke="black"/>
<path d="M148.381,490.8v 7.26343" fill="none" stroke="black"/>
<path d="M163.579,490.8v 7.26343" fill="none" stroke="black"/>
<path d="M178.777,483.537v 14.5269" fill="none" stroke="black"/>
<path d="M193.975,490.8v 7.26343" fill="none" stroke="black"/>
<path d="M209.173,490.8v 7.26343" fill="none" stroke="black"/>
<path d="M224.371,490.8v 7.26343" fill="none" stroke="black"/>
<path d="M239.569,483.537v 14.5269" fill="none" stroke="black"/>
<path d="M254.767,490.8v 7.26343" fill="none" stroke="black"/>
<path d="M269.965,490.8v 7.26343" fill="none" stroke="black"/>
<path d="M285.163,490.8v 7.26343" fill="none" stroke="black"/>
<path d="M300.361,483.537v 14.5269" fill="none" stroke="black"/>
<path d="M315.559,490.8v 7.26343" fill="none" stroke="black"/>
<path d="M330.757,490.8v 7.26343" fill="none" stroke="black"/>
<path d="M345.955,490.8v 7.26343" fill="none" stroke="black"/>
<path d="M361.153,483.537v 14.5269" fill="none" stroke="black"/>
<path d="M376.351,490.8v 7.26343" fill="none" stroke="black"/>
<path d="M391.549,490.8v 7.26343" fill="none" stroke="black"/>
<path d="M406.747,490.8v 7.26343" fill="none" stroke="black"/>
<path d="M421.945,483.537v 14.5269" fill="none" stroke="black"/>
<path d="M437.143,490.8v 7.26343" fill="none" stroke="black"/>
<path d="M452.341,490.8v 7.26343" fill="none" stroke="black"/>
<path d="M467.539,490.8v 7.26343" fill="none" stroke="black"/>
<path d="M482.737,483.537v 14.5269" fill="none" stroke="black"/>
<path d="M497.935,490.8v 7.26343" fill="none" stroke="black"/>
<path d="M513.133,490.8v 7.26343" fill="none" stroke="black"/>
<path d="M528.331,490.8v 7.26343" fill="none" stroke="black"/>
<path d="M543.529,483.537v 14.5269" fill="none" stroke="black"/>
<path d="M543.529,483.537v 14.5269" fill="none" stroke="black"/>
<text xml:space="preserve" x="52.3464" y="513.956" fill="black" font-size="16.0105" font-family="Helvetica">0</text>
<text xml:space="preserve" x="107.011" y="513.956" fill="black" font-size="16.0105" font-family="Helvetica">0.2</text>
<text xml:space="preserve" x="167.874" y="513.956" fill="black" font-size="16.0105" font-family="Helvetica">0.4</text>
<text xml:space="preserve" x="228.737" y="513.956" fill="black" font-size="16.0105" font-family="Helvetica">0.6</text>
<text xml:space="preserve" x="289.6" y="513.956" fill="black" font-size="16.0105" font-family="Helvetica">0.8</text>
<text xml:space="preserve" x="357.789" y="513.956" fill="black" font-size="16.0105" font-family="Helvetica">1</text>
<text xml:space="preserve" x="410.763" y="513.956" fill="black" font-size="16.0105" font-family="Helvetica">1.2</text>
<text xml:space="preserve" x="471.626" y="513.956" fill="black" font-size="16.0105" font-family="Helvetica">1.4</text>
<text xml:space="preserve" x="532.489" y="513.956" fill="black" font-size="16.0105" font-family="Helvetica">1.6</text>
<text xml:space="preserve" x="548.268" y="537.625" fill="black" font-size="16.0105" font-family="Helvetica">)</text>
<text xml:space="preserve" x="542.633" y="532.553" fill="black" font-size="10.8403" font-family="Helvetica">2</text>
<text xml:space="preserve" x="533.616" y="537.625" fill="black" font-size="16.0105" font-family="Helvetica" font-style="oblique">c</text>
<text xml:space="preserve" x="487.405" y="537.625" fill="black" font-size="16.0105" font-family="Helvetica"> (GeV/</text>
<text xml:space="preserve" x="473.317" y="542.697" fill="black" font-size="10.8403" font-family="Helvetica">inv</text>
<text xml:space="preserve" x="459.792" y="537.625" fill="black" font-size="16.0105" font-family="Helvetica" font-style="oblique">m</text>
<path d="M57.1929,16.6021h 496.063" fill="none" stroke="black"/>
<path d="M57.1929,31.129v -14.5269" fill="none" stroke="black"/>
<path d="M72.3909,23.8655v -7.26343" fill="none" stroke="black"/>
<path d="M87.5889,23.8655v -7.26343" fill="none" stroke="black"/>
<path d="M102.787,23.8655v -7.26343" fill="none" stroke="black"/>
<path d="M117.985,31.129v -14.5269" fill="none" stroke="black"/>
<path d="M133.183,23.8655v -7.26343" fill="none" stroke="black"/>
<path d="M148.381,23.8655v -7.26343" fill="none" stroke="black"/>
<path d="M163.579,23.8655v -7.26343" fill="none" stroke="black"/>
<path d="M178.777,31.129v -14.5269" fill="none" stroke="black"/>
<path d="M193.975,23.8655v -7.26343" fill="none" stroke="black"/>
<path d="M209.173,23.8655v -7.26343" fill="none" stroke="black"/>
<path d="M224.371,23.8655v -7.26343" fill="none" stroke="black"/>
<path d="M239.569,31.129v -14.5269" fill="none" stroke="black"/>
<path d="M254.767,23.8655v -7.26343" fill="none" stroke="black"/>
<path d="M269.965,23.8655v -7.26343" fill="none" stroke="black"/>
<path d="M285.163,23.8655v -7.26343" fill="none" stroke="black"/>
<path d="M300.361,31.129v -14.5269" fill="none" stroke="black"/>
<path d="M315.559,23.8655v -7.26343" fill="none" stroke="black"/>
<path d="M330.757,23.8655v -7.26343" fill="none" stroke="black"/>
<path d="M345.955,23.8655v -7.26343" fill="none" stroke="black"/>
<path d="M361.153,31.129v -14.5269" fill="none" stroke="black"/>
<path d="M376.351,23.8655v -7.26343" fill="none" stroke="black"/>
<path d="M391.549,23.8655v -7.26343" fill="none" stroke="black"/>
<path d="M406.747,23.8655v -7.26343" fill="none" stroke="black"/>
<path d="M421.945,31.129v -14.5269" fill="none" stroke="black"/>
<path d="M437.143,23.8655v -7.26343" fill="none" stroke="black"/>
<path d="M452.341,23.8655v -7.26343" fill="none" stroke="black"/>
<path d="M467.539,23.8655v -7.26343" fill="none" stroke="black"/>
<path d="M482.737,31.129v -14.5269" fill="none" stroke="black"/>
<path d="M497.935,23.8655v -7.26343" fill="none" stroke="black"/>
<path d="M513.133,23.8655v -7.26343" fill="none" stroke="black"/>
<path d="M528.331,23.8655v -7.26343" fill="none" stroke="black"/>
<path d="M543.529,31.129v -14.5269" fill="none" stroke="black"/>
<path d="M543.529,31.129v -14.5269" fill="none" stroke="black"/>
<path d="M57.1929,498.064v -481.461" fill="none" stroke="black"/>
<path d="M71.9898,498.064h -14.7969" fill="none" stroke="black"/>
<path d="M64.5913,477.442h -7.39843" fill="none" stroke="black"/>
<path d="M64.5913,456.821h -7.39843" fill="none" stroke="black"/>
<path d="M64.5913,436.2h -7.39843" fill="none" stroke="black"/>
<path d="M71.9898,415.579h -14.7969" fill="none" stroke="black"/>
<path d="M64.5913,394.958h -7.39843" fill="none" stroke="black"/>
<path d="M64.5913,374.337h -7.39843" fill="none" stroke="black"/>
<path d="M64.5913,353.716h -7.39843" fill="none" stroke="black"/>
<path d="M71.9898,333.094h -14.7969" fill="none" stroke="black"/>
<path d="M64.5913,312.473h -7.39843" fill="none" stroke="black"/>
<path d="M64.5913,291.852h -7.39843" fill="none" stroke="black"/>
<path d="M64.5913,271.231h -7.39843" fill="none" stroke="black"/>
<path d="M71.9898,250.61h -14.7969" fill="none" stroke="black"/>
<path d="M64.5913,229.989h -7.39843" fill="none" stroke="black"/>
<path d="M64.5913,209.368h -7.39843" fill="none" stroke="black"/>
<path d="M64.5913,188.747h -7.39843" fill="none" stroke="black"/>
<path d="M71.9898,168.125h -14.7969" fill="none" stroke="black"/>
<path d="M64.5913,147.504h -7.39843" fill="none" stroke="black"/>
<path d="M64.5913,126.883h -7.39843" fill="none" stroke="black"/>
<path d="M64.5913,106.262h -7.39843" fill="none" stroke="black"/>
<path d="M71.9898,85.6408h -14.7969" fill="none" stroke="black"/>
<path d="M71.9898,85.6408h -14.7969" fill="none" stroke="black"/>
<path d="M64.5913,65.0197h -7.39843" fill="none" stroke="black"/>
<path d="M64.5913,44.3985h -7.39843" fill="none" stroke="black"/>
<path d="M64.5913,23.7774h -7.39843" fill="none" stroke="black"/>
<text xml:space="preserve" x="45.5838" y="503.248" fill="black" font-size="16.0105" font-family="Helvetica">0</text>
<text xml:space="preserve" x="37.1306" y="420.97" fill="black" font-size="16.0105" font-family="Helvetica">20</text>
<text xml:space="preserve" x="37.1306" y="338.692" fill="black" font-size="16.0105" font-family="Helvetica">40</text>
<text xml:space="preserve" x="37.1306" y="255.851" fill="black" font-size="16.0105" font-family="Helvetica">60</text>
<text xml:space="preserve" x="37.1306" y="173.573" fill="black" font-size="16.0105" font-family="Helvetica">80</text>
<text xml:space="preserve" x="28.1138" y="90.7312" fill="black" font-size="16.0105" font-family="Helvetica">100</text>
<g transform="rotate(-90,22.4784,21.9784)">
<text xml:space="preserve" x="22.4784" y="21.9784" fill="black" font-size="10.8403" font-family="Times">&#0947;</text>
</g>
<g transform="rotate(-90,18.5335,25.9232)">
<text xml:space="preserve" x="18.5335" y="25.9232" fill="black" font-size="7.39355" font-family="Helvetica">0</text>
</g>
<g transform="rotate(-90,22.4784,32.1222)">
<text xml:space="preserve" x="22.4784" y="32.1222" fill="black" font-size="10.8403" font-family="Times">&#0960;</text>
</g>
<g transform="rotate(-90,17.4064,45.0838)">
<text xml:space="preserve" x="17.4064" y="45.0838" fill="black" font-size="16.0105" font-family="Helvetica" font-style="oblique">N</text>
</g>
<path d="M553.256,498.064v -481.461" fill="none" stroke="black"/>
<path d="M538.459,498.064h 14.7969" fill="none" stroke="black"/>
<path d="M545.857,477.442h 7.39843" fill="none" stroke="black"/>
<path d="M545.857,456.821h 7.39843" fill="none" stroke="black"/>
<path d="M545.857,436.2h 7.39843" fill="none" stroke="black"/>
<path d="M538.459,415.579h 14.7969" fill="none" stroke="black"/>
<path d="M545.857,394.958h 7.39843" fill="none" stroke="black"/>
<path d="M545.857,374.337h 7.39843" fill="none" stroke="black"/>
<path d="M545.857,353.716h 7.39843" fill="none" stroke="black"/>
<path d="M538.459,333.094h 14.7969" fill="none" stroke="black"/>
<path d="M545.857,312.473h 7.39843" fill="none" stroke="black"/>
<path d="M545.857,291.852h 7.39843" fill="none" stroke="black"/>
<path d="M545.857,271.231h 7.39843" fill="none" stroke="black"/>
<path d="M538.459,250.61h 14.7969" fill="none" stroke="black"/>
<path d="M545.857,229.989h 7.39843" fill="none" stroke="black"/>
<path d="M545.857,209.368h 7.39843" fill="none" stroke="black"/>
<path d="M545.857,188.747h 7.39843" fill="none" stroke="black"/>
<path d="M538.459,168.125h 14.7969" fill="none" stroke="black"/>
<path d="M545.857,147.504h 7.39843" fill="none" stroke="black"/>
<path d="M545.857,126.883h 7.39843" fill="none" stroke="black"/>
<path d="M545.857,106.262h 7.39843" fill="none" stroke="black"/>
<path d="M538.459,85.6408h 14.7969" fill="none" stroke="black"/>
<path d="M538.459,85.6408h 14.7969" fill="none" stroke="black"/>
<path d="M545.857,65.0197h 7.39843" fill="none" stroke="black"/>
<path d="M545.857,44.3985h 7.39843" fill="none" stroke="black"/>
<path d="M545.857,23.7774h 7.39843" fill="none" stroke="black"/>
<path d="M96.0998,498.062h 0.35498" fill="none" stroke="black" stroke-width="2"/>
<path d="M105.472,498.062h 0.35498" fill="none" stroke="black" stroke-width="2"/>
<g fill="black">
<circle cx="100.963" cy="498.062" r="4.50838"/>
</g>
<path d="M105.827,497.874h 0.35498" fill="none" stroke="black" stroke-width="2"/>
<path d="M115.198,497.874h 0.35498" fill="none" stroke="black" stroke-width="2"/>
<g fill="black">
<circle cx="110.69" cy="497.874" r="4.50838"/>
</g>
<path d="M115.553,495.722h 0.35498" fill="none" stroke="black" stroke-width="2"/>
<path d="M124.925,495.722h 0.35498" fill="none" stroke="black" stroke-width="2"/>
<g fill="black">
<circle cx="120.417" cy="495.722" r="4.50838"/>
</g>
<path d="M125.28,492.261h 0.35498" fill="none" stroke="black" stroke-width="2"/>
<path d="M134.652,492.261h 0.35498" fill="none" stroke="black" stroke-width="2"/>
<g fill="black">
<circle cx="130.143" cy="492.261" r="4.50838"/>
</g>
<path d="M135.007,489.9h 0.35498" fill="none" stroke="black" stroke-width="2"/>
<path d="M144.378,489.9h 0.35498" fill="none" stroke="black" stroke-width="2"/>
<g fill="black">
<circle cx="139.87" cy="489.9" r="4.50838"/>
</g>
<path d="M144.733,487.379h 0.35498" fill="none" stroke="black" stroke-width="2"/>
<path d="M154.105,487.379h 0.35498" fill="none" stroke="black" stroke-width="2"/>
<g fill="black">
<circle cx="149.597" cy="487.379" r="4.50838"/>
</g>
<path d="M154.46,484.819h 0.35498" fill="none" stroke="black" stroke-width="2"/>
<path d="M163.832,484.819h 0.35498" fill="none" stroke="black" stroke-width="2"/>
<g fill="black">
<circle cx="159.324" cy="484.819" r="4.50838"/>
</g>
<path d="M164.187,483.238h 0.35498" fill="none" stroke="black" stroke-width="2"/>
<path d="M173.559,483.238h 0.35498" fill="none" stroke="black" stroke-width="2"/>
<g fill="black">
<circle cx="169.05" cy="483.238" r="4.50838"/>
</g>
<path d="M173.914,480.715h 0.35498" fill="none" stroke="black" stroke-width="2"/>
<path d="M183.285,480.715h 0.35498" fill="none" stroke="black" stroke-width="2"/>
<g fill="black">
<circle cx="178.777" cy="480.715" r="4.50838"/>
</g>
<path d="M183.64,479.283h 0.35498" fill="none" stroke="black" stroke-width="2"/>
<path d="M193.012,479.283h 0.35498" fill="none" stroke="black" stroke-width="2"/>
<g fill="black">
<circle cx="188.504" cy="479.283" r="4.50838"/>
</g>
<path d="M193.367,477.915h 0.35498" fill="none" stroke="black" stroke-width="2"/>
<path d="M202.739,477.915h 0.35498" fill="none" stroke="black" stroke-width="2"/>
<g fill="black">
<circle cx="198.23" cy="477.915" r="4.50838"/>
</g>
<path d="M203.094,477.059h 0.35498" fill="none" stroke="black" stroke-width="2"/>
<path d="M212.466,477.059h 0.35498" fill="none" stroke="black" stroke-width="2"/>
<g fill="black">
<circle cx="207.957" cy="477.059" r="4.50838"/>
</g>
<path d="M212.821,476.28h 0.35498" fill="none" stroke="black" stroke-width="2"/>
<path d="M222.192,476.28h 0.35498" fill="none" stroke="black" stroke-width="2"/>
<g fill="black">
<circle cx="217.684" cy="476.28" r="4.50838"/>
</g>
<path d="M222.547,475.639h 0.35498" fill="none" stroke="black" stroke-width="2"/>
<path d="M231.919,475.639h 0.35498" fill="none" stroke="black" stroke-width="2"/>
<g fill="black">
<circle cx="227.411" cy="475.639" r="4.50838"/>
</g>
<path d="M232.274,474.304h 0.35498" fill="none" stroke="black" stroke-width="2"/>
<path d="M241.646,474.304h 0.35498" fill="none" stroke="black" stroke-width="2"/>
<g fill="black">
<circle cx="237.137" cy="474.304" r="4.50838"/>
</g>
<path d="M242.001,474.534h 0.35498" fill="none" stroke="black" stroke-width="2"/>
<path d="M251.372,474.534h 0.35498" fill="none" stroke="black" stroke-width="2"/>
<g fill="black">
<circle cx="246.864" cy="474.534" r="4.50838"/>
</g>
<path d="M251.727,475.232h 0.35498" fill="none" stroke="black" stroke-width="2"/>
<path d="M261.099,475.232h 0.35498" fill="none" stroke="black" stroke-width="2"/>
<g fill="black">
<circle cx="256.591" cy="475.232" r="4.50838"/>
</g>
<path d="M261.454,475.703h 0.35498" fill="none" stroke="black" stroke-width="2"/>
<path d="M270.826,475.703h 0.35498" fill="none" stroke="black" stroke-width="2"/>
<g fill="black">
<circle cx="266.318" cy="475.703" r="4.50838"/>
</g>
<path d="M271.181,476.168h 0.35498" fill="none" stroke="black" stroke-width="2"/>
<path d="M280.553,476.168h 0.35498" fill="none" stroke="black" stroke-width="2"/>
<g fill="black">
<circle cx="276.044" cy="476.168" r="4.50838"/>
</g>
<path d="M280.908,476.384h 0.35498" fill="none" stroke="black" stroke-width="2"/>
<path d="M290.279,476.384h 0.35498" fill="none" stroke="black" stroke-width="2"/>
<g fill="black">
<circle cx="285.771" cy="476.384" r="4.50838"/>
</g>
<path d="M290.634,475.784h 0.35498" fill="none" stroke="black" stroke-width="2"/>
<path d="M300.006,475.784h 0.35498" fill="none" stroke="black" stroke-width="2"/>
<g fill="black">
<circle cx="295.498" cy="475.784" r="4.50838"/>
</g>
<path d="M300.361,477.45h 0.35498" fill="none" stroke="black" stroke-width="2"/>
<path d="M309.733,477.45h 0.35498" fill="none" stroke="black" stroke-width="2"/>
<g fill="black">
<circle cx="305.224" cy="477.45" r="4.50838"/>
</g>
<path d="M310.088,478.385h 0.35498" fill="none" stroke="black" stroke-width="2"/>
<path d="M319.46,478.385h 0.35498" fill="none" stroke="black" stroke-width="2"/>
<g fill="black">
<circle cx="314.951" cy="478.385" r="4.50838"/>
</g>
<path d="M319.814,479.008h 0.35498" fill="none" stroke="black" stroke-width="2"/>
<path d="M329.186,479.008h 0.35498" fill="none" stroke="black" stroke-width="2"/>
<g fill="black">
<circle cx="324.678" cy="479.008" r="4.50838"/>
</g>
<path d="M329.541,480.111h 0.35498" fill="none" stroke="black" stroke-width="2"/>
<path d="M338.913,480.111h 0.35498" fill="none" stroke="black" stroke-width="2"/>
<g fill="black">
<circle cx="334.405" cy="480.111" r="4.50838"/>
</g>
<path d="M339.268,480.733h 0.35498" fill="none" stroke="black" stroke-width="2"/>
<path d="M348.64,480.733h 0.35498" fill="none" stroke="black" stroke-width="2"/>
<g fill="black">
<circle cx="344.131" cy="480.733" r="4.50838"/>
</g>
<path d="M348.995,481.17h 0.35498" fill="none" stroke="black" stroke-width="2"/>
<path d="M358.366,481.17h 0.35498" fill="none" stroke="black" stroke-width="2"/>
<g fill="black">
<circle cx="353.858" cy="481.17" r="4.50838"/>
</g>
<path d="M358.721,482.123h 0.35498" fill="none" stroke="black" stroke-width="2"/>
<path d="M368.093,482.123h 0.35498" fill="none" stroke="black" stroke-width="2"/>
<g fill="black">
<circle cx="363.585" cy="482.123" r="4.50838"/>
</g>
<path d="M368.448,482.99h 0.35498" fill="none" stroke="black" stroke-width="2"/>
<path d="M377.82,482.99h 0.35498" fill="none" stroke="black" stroke-width="2"/>
<g fill="black">
<circle cx="373.311" cy="482.99" r="4.50838"/>
</g>
<path d="M378.175,483.809h 0.35498" fill="none" stroke="black" stroke-width="2"/>
<path d="M387.547,483.809h 0.35498" fill="none" stroke="black" stroke-width="2"/>
<g fill="black">
<circle cx="383.038" cy="483.809" r="4.50838"/>
</g>
<path d="M387.902,484.627h 0.35498" fill="none" stroke="black" stroke-width="2"/>
<path d="M397.273,484.627h 0.35498" fill="none" stroke="black" stroke-width="2"/>
<g fill="black">
<circle cx="392.765" cy="484.627" r="4.50838"/>
</g>
<path d="M397.628,485.23h 0.35498" fill="none" stroke="black" stroke-width="2"/>
<path d="M407,485.23h 0.35498" fill="none" stroke="black" stroke-width="2"/>
<g fill="black">
<circle cx="402.492" cy="485.23" r="4.50838"/>
</g>
<path d="M407.355,485.506h 0.35498" fill="none" stroke="black" stroke-width="2"/>
<path d="M416.727,485.506h 0.35498" fill="none" stroke="black" stroke-width="2"/>
<g fill="black">
<circle cx="412.218" cy="485.506" r="4.50838"/>
</g>
<path d="M417.082,486.38h 0.35498" fill="none" stroke="black" stroke-width="2"/>
<path d="M426.453,486.38h 0.35498" fill="none" stroke="black" stroke-width="2"/>
<g fill="black">
<circle cx="421.945" cy="486.38" r="4.50838"/>
</g>
<path d="M426.808,486.846h 0.35498" fill="none" stroke="black" stroke-width="2"/>
<path d="M436.18,486.846h 0.35498" fill="none" stroke="black" stroke-width="2"/>
<g fill="black">
<circle cx="431.672" cy="486.846" r="4.50838"/>
</g>
<path d="M436.535,487.469h 0.35498" fill="none" stroke="black" stroke-width="2"/>
<path d="M445.907,487.469h 0.35498" fill="none" stroke="black" stroke-width="2"/>
<g fill="black">
<circle cx="441.399" cy="487.469" r="4.50838"/>
</g>
<path d="M446.262,488.183h 0.35498" fill="none" stroke="black" stroke-width="2"/>
<path d="M455.634,488.183h 0.35498" fill="none" stroke="black" stroke-width="2"/>
<g fill="black">
<circle cx="451.125" cy="488.183" r="4.50838"/>
</g>
<path d="M455.989,489.019h 0.35498" fill="none" stroke="black" stroke-width="2"/>
<path d="M465.36,489.019h 0.35498" fill="none" stroke="black" stroke-width="2"/>
<g fill="black">
<circle cx="460.852" cy="489.019" r="4.50838"/>
</g>
<path d="M465.715,489.209h 0.35498" fill="none" stroke="black" stroke-width="2"/>
<path d="M475.087,489.209h 0.35498" fill="none" stroke="black" stroke-width="2"/>
<g fill="black">
<circle cx="470.579" cy="489.209" r="4.50838"/>
</g>
<path d="M475.442,489.338h 0.35498" fill="none" stroke="black" stroke-width="2"/>
<path d="M484.814,489.338h 0.35498" fill="none" stroke="black" stroke-width="2"/>
<g fill="black">
<circle cx="480.305" cy="489.338" r="4.50838"/>
</g>
<path d="M485.169,490.036h 0.35498" fill="none" stroke="black" stroke-width="2"/>
<path d="M494.541,490.036h 0.35498" fill="none" stroke="black" stroke-width="2"/>
<g fill="black">
<circle cx="490.032" cy="490.036" r="4.50838"/>
</g>
<path d="M494.896,490.499h 0.35498" fill="none" stroke="black" stroke-width="2"/>
<path d="M504.267,490.499h 0.35498" fill="none" stroke="black" stroke-width="2"/>
<g fill="black">
<circle cx="499.759" cy="490.499" r="4.50838"/>
</g>
<path d="M504.622,490.874h 0.35498" fill="none" stroke="black" stroke-width="2"/>
<path d="M513.994,490.874h 0.35498" fill="none" stroke="black" stroke-width="2"/>
<g fill="black">
<circle cx="509.486" cy="490.874" r="4.50838"/>
</g>
<path d="M514.349,491.318h 0.35498" fill="none" stroke="black" stroke-width="2"/>
<path d="M523.721,491.318h 0.35498" fill="none" stroke="black" stroke-width="2"/>
<g fill="black">
<circle cx="519.212" cy="491.318" r="4.50838"/>
</g>
<path d="M524.076,491.736h 0.35498" fill="none" stroke="black" stroke-width="2"/>
<path d="M533.447,491.736h 0.35498" fill="none" stroke="black" stroke-width="2"/>
<g fill="black">
<circle cx="528.939" cy="491.736" r="4.50838"/>
</g>
<path d="M533.802,492.077h 0.35498" fill="none" stroke="black" stroke-width="2"/>
<path d="M543.174,492.077h 0.35498" fill="none" stroke="black" stroke-width="2"/>
<g fill="black">
<circle cx="538.666" cy="492.077" r="4.50838"/>
</g>
<text xml:space="preserve" x="360.607" y="50.7193" fill="black" font-size="16.0105" font-family="Helvetica"> with EMC</text>
<text xml:space="preserve" x="352.717" y="50.7193" fill="black" font-size="16.0105" font-family="Times">&#0947;</text>
<text xml:space="preserve" x="344.828" y="50.7193" fill="black" font-size="16.0105" font-family="Times">&#0947;</text>
<text xml:space="preserve" x="336.938" y="50.7193" fill="black" font-size="16.0105" font-family="Times">&#0947;</text>
<text xml:space="preserve" x="331.866" y="50.7193" fill="black" font-size="16.0105" font-family="Helvetica"> </text>
<text xml:space="preserve" x="316.65" y="50.7193" fill="black" font-size="16.0105" font-family="Times">&#8594;</text>
<text xml:space="preserve" x="311.578" y="50.7193" fill="black" font-size="16.0105" font-family="Helvetica"> </text>
<text xml:space="preserve" x="303.689" y="50.7193" fill="black" font-size="16.0105" font-family="Times">&#0947;</text>
<text xml:space="preserve" x="298.053" y="45.0838" fill="black" font-size="10.8403" font-family="Helvetica">0</text>
<text xml:space="preserve" x="289.6" y="50.7193" fill="black" font-size="16.0105" font-family="Times">&#0960;</text>
<text xml:space="preserve" x="284.528" y="50.7193" fill="black" font-size="16.0105" font-family="Helvetica"> </text>
<text xml:space="preserve" x="269.312" y="50.7193" fill="black" font-size="16.0105" font-family="Times">&#8594;</text>
<text xml:space="preserve" x="264.24" y="50.7193" fill="black" font-size="16.0105" font-family="Helvetica"> </text>
<text xml:space="preserve" x="252.969" y="50.7193" fill="black" font-size="16.0105" font-family="Times">&#0969;</text>
<text xml:space="preserve" x="128.989" y="50.7193" fill="black" font-size="16.0105" font-family="Helvetica"> = 13 TeV (EG1), </text>
<text xml:space="preserve" x="120.536" y="50.7193" fill="black" font-size="16.0105" font-family="Helvetica" font-style="oblique">s</text>
<path d="M114.9,41.7025l 1.69064, 9.58031" fill="none" stroke="black" stroke-width="2"/>
<path d="M116.591,51.2829l 2.25419, -14.0887" fill="none" stroke="black"/>
<path d="M118.845,37.1942h 10.1439" fill="none" stroke="black"/>
<text xml:space="preserve" x="89.5406" y="50.7193" fill="black" font-size="16.0105" font-family="Helvetica">pp </text>
<text xml:space="preserve" x="89.5406" y="85.6593" fill="black" font-size="16.0105" font-family="Helvetica">ALICE work in progress</text>
<text xml:space="preserve" x="214.085" y="120.599" fill="black" font-size="16.0105" font-family="Helvetica">) &lt; 32.0</text>
<text xml:space="preserve" x="205.068" y="120.599" fill="black" font-size="16.0105" font-family="Helvetica" font-style="oblique">c</text>
<text xml:space="preserve" x="154.912" y="120.599" fill="black" font-size="16.0105" font-family="Helvetica"> /(GeV/</text>
<text xml:space="preserve" x="148.15" y="128.489" fill="black" font-size="10.8403" font-family="Helvetica">T</text>
<text xml:space="preserve" x="138.569" y="120.599" fill="black" font-size="16.0105" font-family="Helvetica" font-style="oblique">p</text>
<text xml:space="preserve" x="133.497" y="120.599" fill="black" font-size="16.0105" font-family="Helvetica"> </text>
<text xml:space="preserve" x="125.044" y="120.599" fill="black" font-size="16.0105" font-family="Times">&#8804;</text>
<text xml:space="preserve" x="89.5406" y="120.599" fill="black" font-size="16.0105" font-family="Helvetica">28.0 </text>
<text xml:space="preserve" x="134.624" y="158.357" fill="black" font-size="16.0105" font-family="Helvetica">background</text>
<path d="M92.9803,152.186h 34.7244" fill="none" stroke="#993333" stroke-width="2"/>
<g fill="#993333">
<rect x="105.834" y="147.678" width="9.01677" height="9.01677"/>
</g>
<text xml:space="preserve" x="134.624" y="185.971" fill="black" font-size="16.0105" font-family="Helvetica">same event</text>
<path d="M92.9803,179.856h 34.7244" fill="none" stroke="black" stroke-width="2"/>
<g fill="black">
<circle cx="110.343" cy="179.856" r="4.50838"/>
</g></svg>
