<?xml version="1.0" standalone="no"?>
<svg width="567.429" height="553.904" viewBox="0 0 567.429 553.904" xmlns="http://www.w3.org/2000/svg" shape-rendering="crispEdges">
<title>
MC/EG1/OmegaRotWOPS/SameEventAndBackgroundBeforeScaling_01.svg
</title>
<desc>
Creator: ROOT Version 6.20/08
CreationDate: Wed Mar 10 16:17:21 2021</desc>
<defs>
</defs>
<rect x="0.5" y="0" width="566.929" height="553.404" fill="white"/>
<rect x="57.1929" y="16.6021" width="496.063" height="481.461" fill="white"/>
<rect x="57.1929" y="16.6021" width="496.063" height="481.461" fill="none" stroke="black"/>
<rect x="57.1929" y="16.6021" width="496.063" height="481.461" fill="white"/>
<rect x="57.1929" y="16.6021" width="496.063" height="481.461" fill="none" stroke="black"/>
<g fill="#993333">
<rect x="94.4324" y="491.409" width="9.01677" height="9.01677"/>
</g>
<g fill="#993333">
<rect x="99.3439" y="475.43" width="9.01677" height="9.01677"/>
</g>
<g fill="#993333">
<rect x="104.255" y="464.796" width="9.01677" height="9.01677"/>
</g>
<g fill="#993333">
<rect x="109.167" y="226.077" width="9.01677" height="9.01677"/>
</g>
<g fill="#993333">
<rect x="114.078" y="276.683" width="9.01677" height="9.01677"/>
</g>
<g fill="#993333">
<rect x="118.99" y="423.793" width="9.01677" height="9.01677"/>
</g>
<g fill="#993333">
<rect x="123.901" y="426.185" width="9.01677" height="9.01677"/>
</g>
<g fill="#993333">
<rect x="128.813" y="420.856" width="9.01677" height="9.01677"/>
</g>
<g fill="#993333">
<rect x="133.725" y="415.461" width="9.01677" height="9.01677"/>
</g>
<g fill="#993333">
<rect x="138.636" y="409.693" width="9.01677" height="9.01677"/>
</g>
<g fill="#993333">
<rect x="143.548" y="404.385" width="9.01677" height="9.01677"/>
</g>
<g fill="#993333">
<rect x="148.459" y="399.549" width="9.01677" height="9.01677"/>
</g>
<g fill="#993333">
<rect x="153.371" y="394.866" width="9.01677" height="9.01677"/>
</g>
<g fill="#993333">
<rect x="158.282" y="392.028" width="9.01677" height="9.01677"/>
</g>
<g fill="#993333">
<rect x="163.194" y="389.408" width="9.01677" height="9.01677"/>
</g>
<g fill="#993333">
<rect x="168.105" y="387.68" width="9.01677" height="9.01677"/>
</g>
<g fill="#993333">
<rect x="173.017" y="387.333" width="9.01677" height="9.01677"/>
</g>
<g fill="#993333">
<rect x="177.928" y="387.672" width="9.01677" height="9.01677"/>
</g>
<g fill="#993333">
<rect x="182.84" y="388.956" width="9.01677" height="9.01677"/>
</g>
<g fill="#993333">
<rect x="187.751" y="390.247" width="9.01677" height="9.01677"/>
</g>
<g fill="#993333">
<rect x="192.663" y="391.78" width="9.01677" height="9.01677"/>
</g>
<g fill="#993333">
<rect x="197.574" y="393.524" width="9.01677" height="9.01677"/>
</g>
<g fill="#993333">
<rect x="202.486" y="395.092" width="9.01677" height="9.01677"/>
</g>
<g fill="#993333">
<rect x="207.397" y="397.079" width="9.01677" height="9.01677"/>
</g>
<g fill="#993333">
<rect x="212.309" y="398.56" width="9.01677" height="9.01677"/>
</g>
<g fill="#993333">
<rect x="217.22" y="401.036" width="9.01677" height="9.01677"/>
</g>
<g fill="#993333">
<rect x="222.132" y="402.648" width="9.01677" height="9.01677"/>
</g>
<g fill="#993333">
<rect x="227.043" y="404.575" width="9.01677" height="9.01677"/>
</g>
<g fill="#993333">
<rect x="231.955" y="406.758" width="9.01677" height="9.01677"/>
</g>
<g fill="#993333">
<rect x="236.866" y="409.391" width="9.01677" height="9.01677"/>
</g>
<g fill="#993333">
<rect x="241.778" y="411.905" width="9.01677" height="9.01677"/>
</g>
<g fill="#993333">
<rect x="246.689" y="413.927" width="9.01677" height="9.01677"/>
</g>
<g fill="#993333">
<rect x="251.601" y="416.573" width="9.01677" height="9.01677"/>
</g>
<g fill="#993333">
<rect x="256.512" y="419.397" width="9.01677" height="9.01677"/>
</g>
<g fill="#993333">
<rect x="261.424" y="421.879" width="9.01677" height="9.01677"/>
</g>
<g fill="#993333">
<rect x="266.335" y="424.316" width="9.01677" height="9.01677"/>
</g>
<g fill="#993333">
<rect x="271.247" y="426.527" width="9.01677" height="9.01677"/>
</g>
<g fill="#993333">
<rect x="276.158" y="429.099" width="9.01677" height="9.01677"/>
</g>
<g fill="#993333">
<rect x="281.07" y="431.434" width="9.01677" height="9.01677"/>
</g>
<g fill="#993333">
<rect x="285.981" y="433.759" width="9.01677" height="9.01677"/>
</g>
<g fill="#993333">
<rect x="290.893" y="435.869" width="9.01677" height="9.01677"/>
</g>
<g fill="#993333">
<rect x="295.805" y="438.064" width="9.01677" height="9.01677"/>
</g>
<g fill="#993333">
<rect x="300.716" y="440.305" width="9.01677" height="9.01677"/>
</g>
<g fill="#993333">
<rect x="305.628" y="442.412" width="9.01677" height="9.01677"/>
</g>
<g fill="#993333">
<rect x="310.539" y="444.227" width="9.01677" height="9.01677"/>
</g>
<g fill="#993333">
<rect x="315.451" y="446.251" width="9.01677" height="9.01677"/>
</g>
<g fill="#993333">
<rect x="320.362" y="448.115" width="9.01677" height="9.01677"/>
</g>
<g fill="#993333">
<rect x="325.274" y="449.657" width="9.01677" height="9.01677"/>
</g>
<g fill="#993333">
<rect x="330.185" y="451.35" width="9.01677" height="9.01677"/>
</g>
<g fill="#993333">
<rect x="335.097" y="453.091" width="9.01677" height="9.01677"/>
</g>
<g fill="#993333">
<rect x="340.008" y="454.917" width="9.01677" height="9.01677"/>
</g>
<g fill="#993333">
<rect x="344.92" y="456.548" width="9.01677" height="9.01677"/>
</g>
<g fill="#993333">
<rect x="349.831" y="457.951" width="9.01677" height="9.01677"/>
</g>
<g fill="#993333">
<rect x="354.743" y="459.208" width="9.01677" height="9.01677"/>
</g>
<g fill="#993333">
<rect x="359.654" y="460.514" width="9.01677" height="9.01677"/>
</g>
<g fill="#993333">
<rect x="364.566" y="462.062" width="9.01677" height="9.01677"/>
</g>
<g fill="#993333">
<rect x="369.477" y="463.451" width="9.01677" height="9.01677"/>
</g>
<g fill="#993333">
<rect x="374.389" y="464.477" width="9.01677" height="9.01677"/>
</g>
<g fill="#993333">
<rect x="379.3" y="465.459" width="9.01677" height="9.01677"/>
</g>
<g fill="#993333">
<rect x="384.212" y="466.545" width="9.01677" height="9.01677"/>
</g>
<g fill="#993333">
<rect x="389.123" y="467.682" width="9.01677" height="9.01677"/>
</g>
<g fill="#993333">
<rect x="394.035" y="468.736" width="9.01677" height="9.01677"/>
</g>
<g fill="#993333">
<rect x="398.946" y="469.746" width="9.01677" height="9.01677"/>
</g>
<g fill="#993333">
<rect x="403.858" y="470.6" width="9.01677" height="9.01677"/>
</g>
<g fill="#993333">
<rect x="408.769" y="471.496" width="9.01677" height="9.01677"/>
</g>
<g fill="#993333">
<rect x="413.681" y="472.394" width="9.01677" height="9.01677"/>
</g>
<g fill="#993333">
<rect x="418.592" y="473.229" width="9.01677" height="9.01677"/>
</g>
<g fill="#993333">
<rect x="423.504" y="473.974" width="9.01677" height="9.01677"/>
</g>
<g fill="#993333">
<rect x="428.415" y="474.649" width="9.01677" height="9.01677"/>
</g>
<g fill="#993333">
<rect x="433.327" y="475.373" width="9.01677" height="9.01677"/>
</g>
<g fill="#993333">
<rect x="438.238" y="476.121" width="9.01677" height="9.01677"/>
</g>
<g fill="#993333">
<rect x="443.15" y="476.673" width="9.01677" height="9.01677"/>
</g>
<g fill="#993333">
<rect x="448.061" y="477.422" width="9.01677" height="9.01677"/>
</g>
<g fill="#993333">
<rect x="452.973" y="478.135" width="9.01677" height="9.01677"/>
</g>
<g fill="#993333">
<rect x="457.884" y="478.551" width="9.01677" height="9.01677"/>
</g>
<g fill="#993333">
<rect x="462.796" y="479.082" width="9.01677" height="9.01677"/>
</g>
<g fill="#993333">
<rect x="467.708" y="479.602" width="9.01677" height="9.01677"/>
</g>
<g fill="#993333">
<rect x="472.619" y="480.076" width="9.01677" height="9.01677"/>
</g>
<g fill="#993333">
<rect x="477.531" y="480.72" width="9.01677" height="9.01677"/>
</g>
<g fill="#993333">
<rect x="482.442" y="481.056" width="9.01677" height="9.01677"/>
</g>
<g fill="#993333">
<rect x="487.354" y="481.56" width="9.01677" height="9.01677"/>
</g>
<g fill="#993333">
<rect x="492.265" y="481.964" width="9.01677" height="9.01677"/>
</g>
<g fill="#993333">
<rect x="497.177" y="482.31" width="9.01677" height="9.01677"/>
</g>
<g fill="#993333">
<rect x="502.088" y="482.643" width="9.01677" height="9.01677"/>
</g>
<g fill="#993333">
<rect x="507" y="483.039" width="9.01677" height="9.01677"/>
</g>
<g fill="#993333">
<rect x="511.911" y="483.415" width="9.01677" height="9.01677"/>
</g>
<g fill="#993333">
<rect x="516.823" y="483.655" width="9.01677" height="9.01677"/>
</g>
<g fill="#993333">
<rect x="521.734" y="484.014" width="9.01677" height="9.01677"/>
</g>
<g fill="#993333">
<rect x="526.646" y="484.331" width="9.01677" height="9.01677"/>
</g>
<g fill="#993333">
<rect x="531.557" y="484.645" width="9.01677" height="9.01677"/>
</g>
<g fill="#993333">
<rect x="536.469" y="484.795" width="9.01677" height="9.01677"/>
</g>
<g fill="#993333">
<rect x="541.38" y="485.112" width="9.01677" height="9.01677"/>
</g>
<path d="M57.1929,498.064h 496.063" fill="none" stroke="black"/>
<path d="M57.1929,483.537v 14.5269" fill="none" stroke="black"/>
<path d="M72.5414,490.8v 7.26343" fill="none" stroke="black"/>
<path d="M87.8899,490.8v 7.26343" fill="none" stroke="black"/>
<path d="M103.238,490.8v 7.26343" fill="none" stroke="black"/>
<path d="M118.587,483.537v 14.5269" fill="none" stroke="black"/>
<path d="M133.935,490.8v 7.26343" fill="none" stroke="black"/>
<path d="M149.284,490.8v 7.26343" fill="none" stroke="black"/>
<path d="M164.632,490.8v 7.26343" fill="none" stroke="black"/>
<path d="M179.981,483.537v 14.5269" fill="none" stroke="black"/>
<path d="M195.329,490.8v 7.26343" fill="none" stroke="black"/>
<path d="M210.678,490.8v 7.26343" fill="none" stroke="black"/>
<path d="M226.026,490.8v 7.26343" fill="none" stroke="black"/>
<path d="M241.375,483.537v 14.5269" fill="none" stroke="black"/>
<path d="M256.723,490.8v 7.26343" fill="none" stroke="black"/>
<path d="M272.072,490.8v 7.26343" fill="none" stroke="black"/>
<path d="M287.42,490.8v 7.26343" fill="none" stroke="black"/>
<path d="M302.769,483.537v 14.5269" fill="none" stroke="black"/>
<path d="M318.117,490.8v 7.26343" fill="none" stroke="black"/>
<path d="M333.466,490.8v 7.26343" fill="none" stroke="black"/>
<path d="M348.814,490.8v 7.26343" fill="none" stroke="black"/>
<path d="M364.163,483.537v 14.5269" fill="none" stroke="black"/>
<path d="M379.511,490.8v 7.26343" fill="none" stroke="black"/>
<path d="M394.86,490.8v 7.26343" fill="none" stroke="black"/>
<path d="M410.208,490.8v 7.26343" fill="none" stroke="black"/>
<path d="M425.557,483.537v 14.5269" fill="none" stroke="black"/>
<path d="M440.905,490.8v 7.26343" fill="none" stroke="black"/>
<path d="M456.253,490.8v 7.26343" fill="none" stroke="black"/>
<path d="M471.602,490.8v 7.26343" fill="none" stroke="black"/>
<path d="M486.95,483.537v 14.5269" fill="none" stroke="black"/>
<path d="M502.299,490.8v 7.26343" fill="none" stroke="black"/>
<path d="M517.647,490.8v 7.26343" fill="none" stroke="black"/>
<path d="M532.996,490.8v 7.26343" fill="none" stroke="black"/>
<path d="M548.344,483.537v 14.5269" fill="none" stroke="black"/>
<path d="M548.344,483.537v 14.5269" fill="none" stroke="black"/>
<text xml:space="preserve" x="52.3464" y="513.956" fill="black" font-size="16.0105" font-family="Helvetica">0</text>
<text xml:space="preserve" x="107.574" y="513.956" fill="black" font-size="16.0105" font-family="Helvetica">0.2</text>
<text xml:space="preserve" x="169.001" y="513.956" fill="black" font-size="16.0105" font-family="Helvetica">0.4</text>
<text xml:space="preserve" x="230.428" y="513.956" fill="black" font-size="16.0105" font-family="Helvetica">0.6</text>
<text xml:space="preserve" x="291.854" y="513.956" fill="black" font-size="16.0105" font-family="Helvetica">0.8</text>
<text xml:space="preserve" x="361.171" y="513.956" fill="black" font-size="16.0105" font-family="Helvetica">1</text>
<text xml:space="preserve" x="414.708" y="513.956" fill="black" font-size="16.0105" font-family="Helvetica">1.2</text>
<text xml:space="preserve" x="476.134" y="513.956" fill="black" font-size="16.0105" font-family="Helvetica">1.4</text>
<text xml:space="preserve" x="537.561" y="513.956" fill="black" font-size="16.0105" font-family="Helvetica">1.6</text>
<text xml:space="preserve" x="548.268" y="537.625" fill="black" font-size="16.0105" font-family="Helvetica">)</text>
<text xml:space="preserve" x="542.633" y="532.553" fill="black" font-size="10.8403" font-family="Helvetica">2</text>
<text xml:space="preserve" x="533.616" y="537.625" fill="black" font-size="16.0105" font-family="Helvetica" font-style="oblique">c</text>
<text xml:space="preserve" x="487.405" y="537.625" fill="black" font-size="16.0105" font-family="Helvetica"> (GeV/</text>
<text xml:space="preserve" x="473.317" y="542.697" fill="black" font-size="10.8403" font-family="Helvetica">inv</text>
<text xml:space="preserve" x="459.792" y="537.625" fill="black" font-size="16.0105" font-family="Helvetica" font-style="oblique">m</text>
<path d="M57.1929,16.6021h 496.063" fill="none" stroke="black"/>
<path d="M57.1929,31.129v -14.5269" fill="none" stroke="black"/>
<path d="M72.5414,23.8655v -7.26343" fill="none" stroke="black"/>
<path d="M87.8899,23.8655v -7.26343" fill="none" stroke="black"/>
<path d="M103.238,23.8655v -7.26343" fill="none" stroke="black"/>
<path d="M118.587,31.129v -14.5269" fill="none" stroke="black"/>
<path d="M133.935,23.8655v -7.26343" fill="none" stroke="black"/>
<path d="M149.284,23.8655v -7.26343" fill="none" stroke="black"/>
<path d="M164.632,23.8655v -7.26343" fill="none" stroke="black"/>
<path d="M179.981,31.129v -14.5269" fill="none" stroke="black"/>
<path d="M195.329,23.8655v -7.26343" fill="none" stroke="black"/>
<path d="M210.678,23.8655v -7.26343" fill="none" stroke="black"/>
<path d="M226.026,23.8655v -7.26343" fill="none" stroke="black"/>
<path d="M241.375,31.129v -14.5269" fill="none" stroke="black"/>
<path d="M256.723,23.8655v -7.26343" fill="none" stroke="black"/>
<path d="M272.072,23.8655v -7.26343" fill="none" stroke="black"/>
<path d="M287.42,23.8655v -7.26343" fill="none" stroke="black"/>
<path d="M302.769,31.129v -14.5269" fill="none" stroke="black"/>
<path d="M318.117,23.8655v -7.26343" fill="none" stroke="black"/>
<path d="M333.466,23.8655v -7.26343" fill="none" stroke="black"/>
<path d="M348.814,23.8655v -7.26343" fill="none" stroke="black"/>
<path d="M364.163,31.129v -14.5269" fill="none" stroke="black"/>
<path d="M379.511,23.8655v -7.26343" fill="none" stroke="black"/>
<path d="M394.86,23.8655v -7.26343" fill="none" stroke="black"/>
<path d="M410.208,23.8655v -7.26343" fill="none" stroke="black"/>
<path d="M425.557,31.129v -14.5269" fill="none" stroke="black"/>
<path d="M440.905,23.8655v -7.26343" fill="none" stroke="black"/>
<path d="M456.253,23.8655v -7.26343" fill="none" stroke="black"/>
<path d="M471.602,23.8655v -7.26343" fill="none" stroke="black"/>
<path d="M486.95,31.129v -14.5269" fill="none" stroke="black"/>
<path d="M502.299,23.8655v -7.26343" fill="none" stroke="black"/>
<path d="M517.647,23.8655v -7.26343" fill="none" stroke="black"/>
<path d="M532.996,23.8655v -7.26343" fill="none" stroke="black"/>
<path d="M548.344,31.129v -14.5269" fill="none" stroke="black"/>
<path d="M548.344,31.129v -14.5269" fill="none" stroke="black"/>
<path d="M57.1929,498.064v -481.461" fill="none" stroke="black"/>
<path d="M71.9898,498.064h -14.7969" fill="none" stroke="black"/>
<path d="M64.5913,481.175h -7.39843" fill="none" stroke="black"/>
<path d="M64.5913,464.287h -7.39843" fill="none" stroke="black"/>
<path d="M64.5913,447.398h -7.39843" fill="none" stroke="black"/>
<path d="M71.9898,430.51h -14.7969" fill="none" stroke="black"/>
<path d="M64.5913,413.621h -7.39843" fill="none" stroke="black"/>
<path d="M64.5913,396.733h -7.39843" fill="none" stroke="black"/>
<path d="M64.5913,379.844h -7.39843" fill="none" stroke="black"/>
<path d="M71.9898,362.956h -14.7969" fill="none" stroke="black"/>
<path d="M64.5913,346.067h -7.39843" fill="none" stroke="black"/>
<path d="M64.5913,329.178h -7.39843" fill="none" stroke="black"/>
<path d="M64.5913,312.29h -7.39843" fill="none" stroke="black"/>
<path d="M71.9898,295.401h -14.7969" fill="none" stroke="black"/>
<path d="M64.5913,278.513h -7.39843" fill="none" stroke="black"/>
<path d="M64.5913,261.624h -7.39843" fill="none" stroke="black"/>
<path d="M64.5913,244.736h -7.39843" fill="none" stroke="black"/>
<path d="M71.9898,227.847h -14.7969" fill="none" stroke="black"/>
<path d="M64.5913,210.959h -7.39843" fill="none" stroke="black"/>
<path d="M64.5913,194.07h -7.39843" fill="none" stroke="black"/>
<path d="M64.5913,177.182h -7.39843" fill="none" stroke="black"/>
<path d="M71.9898,160.293h -14.7969" fill="none" stroke="black"/>
<path d="M64.5913,143.405h -7.39843" fill="none" stroke="black"/>
<path d="M64.5913,126.516h -7.39843" fill="none" stroke="black"/>
<path d="M64.5913,109.628h -7.39843" fill="none" stroke="black"/>
<path d="M71.9898,92.7393h -14.7969" fill="none" stroke="black"/>
<path d="M64.5913,75.8508h -7.39843" fill="none" stroke="black"/>
<path d="M64.5913,58.9623h -7.39843" fill="none" stroke="black"/>
<path d="M64.5913,42.0738h -7.39843" fill="none" stroke="black"/>
<path d="M71.9898,25.1852h -14.7969" fill="none" stroke="black"/>
<path d="M71.9898,25.1852h -14.7969" fill="none" stroke="black"/>
<text xml:space="preserve" x="45.5838" y="503.248" fill="black" font-size="16.0105" font-family="Helvetica">0</text>
<text xml:space="preserve" x="32.6222" y="435.622" fill="black" font-size="16.0105" font-family="Helvetica">0.2</text>
<text xml:space="preserve" x="32.6222" y="368.56" fill="black" font-size="16.0105" font-family="Helvetica">0.4</text>
<text xml:space="preserve" x="32.6222" y="300.935" fill="black" font-size="16.0105" font-family="Helvetica">0.6</text>
<text xml:space="preserve" x="32.6222" y="233.309" fill="black" font-size="16.0105" font-family="Helvetica">0.8</text>
<text xml:space="preserve" x="48.4016" y="166.247" fill="black" font-size="16.0105" font-family="Helvetica">1</text>
<text xml:space="preserve" x="32.6222" y="98.6209" fill="black" font-size="16.0105" font-family="Helvetica">1.2</text>
<text xml:space="preserve" x="32.6222" y="30.9951" fill="black" font-size="16.0105" font-family="Helvetica">1.4</text>
<text xml:space="preserve" x="82.2144" y="7.32612" fill="black" font-size="10.8403" font-family="Helvetica">3</text>
<text xml:space="preserve" x="65.308" y="14.6522" fill="black" font-size="16.0105" font-family="Helvetica">10</text>
<text xml:space="preserve" x="56.8548" y="14.6522" fill="black" font-size="16.0105" font-family="Times">&#0215;</text>
<g transform="rotate(-90,22.4784,21.9784)">
<text xml:space="preserve" x="22.4784" y="21.9784" fill="black" font-size="10.8403" font-family="Times">&#0947;</text>
</g>
<g transform="rotate(-90,18.5335,25.9232)">
<text xml:space="preserve" x="18.5335" y="25.9232" fill="black" font-size="7.39355" font-family="Helvetica">0</text>
</g>
<g transform="rotate(-90,22.4784,32.1222)">
<text xml:space="preserve" x="22.4784" y="32.1222" fill="black" font-size="10.8403" font-family="Times">&#0960;</text>
</g>
<g transform="rotate(-90,17.4064,45.0838)">
<text xml:space="preserve" x="17.4064" y="45.0838" fill="black" font-size="16.0105" font-family="Helvetica" font-style="oblique">N</text>
</g>
<path d="M553.256,498.064v -481.461" fill="none" stroke="black"/>
<path d="M538.459,498.064h 14.7969" fill="none" stroke="black"/>
<path d="M545.857,481.175h 7.39843" fill="none" stroke="black"/>
<path d="M545.857,464.287h 7.39843" fill="none" stroke="black"/>
<path d="M545.857,447.398h 7.39843" fill="none" stroke="black"/>
<path d="M538.459,430.51h 14.7969" fill="none" stroke="black"/>
<path d="M545.857,413.621h 7.39843" fill="none" stroke="black"/>
<path d="M545.857,396.733h 7.39843" fill="none" stroke="black"/>
<path d="M545.857,379.844h 7.39843" fill="none" stroke="black"/>
<path d="M538.459,362.956h 14.7969" fill="none" stroke="black"/>
<path d="M545.857,346.067h 7.39843" fill="none" stroke="black"/>
<path d="M545.857,329.178h 7.39843" fill="none" stroke="black"/>
<path d="M545.857,312.29h 7.39843" fill="none" stroke="black"/>
<path d="M538.459,295.401h 14.7969" fill="none" stroke="black"/>
<path d="M545.857,278.513h 7.39843" fill="none" stroke="black"/>
<path d="M545.857,261.624h 7.39843" fill="none" stroke="black"/>
<path d="M545.857,244.736h 7.39843" fill="none" stroke="black"/>
<path d="M538.459,227.847h 14.7969" fill="none" stroke="black"/>
<path d="M545.857,210.959h 7.39843" fill="none" stroke="black"/>
<path d="M545.857,194.07h 7.39843" fill="none" stroke="black"/>
<path d="M545.857,177.182h 7.39843" fill="none" stroke="black"/>
<path d="M538.459,160.293h 14.7969" fill="none" stroke="black"/>
<path d="M545.857,143.405h 7.39843" fill="none" stroke="black"/>
<path d="M545.857,126.516h 7.39843" fill="none" stroke="black"/>
<path d="M545.857,109.628h 7.39843" fill="none" stroke="black"/>
<path d="M538.459,92.7393h 14.7969" fill="none" stroke="black"/>
<path d="M545.857,75.8508h 7.39843" fill="none" stroke="black"/>
<path d="M545.857,58.9623h 7.39843" fill="none" stroke="black"/>
<path d="M545.857,42.0738h 7.39843" fill="none" stroke="black"/>
<path d="M538.459,25.1852h 14.7969" fill="none" stroke="black"/>
<path d="M538.459,25.1852h 14.7969" fill="none" stroke="black"/>
<g fill="black">
<circle cx="98.9408" cy="498.063" r="4.50838"/>
</g>
<g fill="black">
<circle cx="103.852" cy="497.238" r="4.50838"/>
</g>
<g fill="black">
<circle cx="108.764" cy="489.684" r="4.50838"/>
</g>
<g fill="black">
<circle cx="113.675" cy="478.919" r="4.50838"/>
</g>
<g fill="black">
<circle cx="118.587" cy="467.729" r="4.50838"/>
</g>
<g fill="black">
<circle cx="123.498" cy="461.347" r="4.50838"/>
</g>
<g fill="black">
<circle cx="128.41" cy="458.054" r="4.50838"/>
</g>
<g fill="black">
<circle cx="133.321" cy="456.682" r="4.50838"/>
</g>
<g fill="black">
<circle cx="138.233" cy="456.228" r="4.50838"/>
</g>
<g fill="black">
<circle cx="143.144" cy="455.626" r="4.50838"/>
</g>
<g fill="black">
<circle cx="148.056" cy="454.452" r="4.50838"/>
</g>
<g fill="black">
<circle cx="152.967" cy="453.584" r="4.50838"/>
</g>
<g fill="black">
<circle cx="157.879" cy="452.985" r="4.50838"/>
</g>
<g fill="black">
<circle cx="162.79" cy="453.076" r="4.50838"/>
</g>
<g fill="black">
<circle cx="167.702" cy="453.184" r="4.50838"/>
</g>
<g fill="black">
<circle cx="172.614" cy="453.363" r="4.50838"/>
</g>
<g fill="black">
<circle cx="177.525" cy="453.738" r="4.50838"/>
</g>
<g fill="black">
<circle cx="182.437" cy="454.612" r="4.50838"/>
</g>
<g fill="black">
<circle cx="187.348" cy="455.496" r="4.50838"/>
</g>
<g fill="black">
<circle cx="192.26" cy="456.123" r="4.50838"/>
</g>
<g fill="black">
<circle cx="197.171" cy="456.813" r="4.50838"/>
</g>
<g fill="black">
<circle cx="202.083" cy="457.62" r="4.50838"/>
</g>
<g fill="black">
<circle cx="206.994" cy="458.379" r="4.50838"/>
</g>
<g fill="black">
<circle cx="211.906" cy="458.918" r="4.50838"/>
</g>
<g fill="black">
<circle cx="216.817" cy="459.62" r="4.50838"/>
</g>
<g fill="black">
<circle cx="221.729" cy="459.875" r="4.50838"/>
</g>
<g fill="black">
<circle cx="226.64" cy="460.775" r="4.50838"/>
</g>
<g fill="black">
<circle cx="231.552" cy="460.943" r="4.50838"/>
</g>
<g fill="black">
<circle cx="236.463" cy="461.449" r="4.50838"/>
</g>
<g fill="black">
<circle cx="241.375" cy="462.178" r="4.50838"/>
</g>
<g fill="black">
<circle cx="246.286" cy="463.08" r="4.50838"/>
</g>
<g fill="black">
<circle cx="251.198" cy="463.944" r="4.50838"/>
</g>
<g fill="black">
<circle cx="256.109" cy="464.653" r="4.50838"/>
</g>
<g fill="black">
<circle cx="261.021" cy="465.783" r="4.50838"/>
</g>
<g fill="black">
<circle cx="265.932" cy="466.617" r="4.50838"/>
</g>
<g fill="black">
<circle cx="270.844" cy="467.338" r="4.50838"/>
</g>
<g fill="black">
<circle cx="275.755" cy="467.907" r="4.50838"/>
</g>
<g fill="black">
<circle cx="280.667" cy="468.658" r="4.50838"/>
</g>
<g fill="black">
<circle cx="285.578" cy="469.117" r="4.50838"/>
</g>
<g fill="black">
<circle cx="290.49" cy="469.772" r="4.50838"/>
</g>
<g fill="black">
<circle cx="295.401" cy="470.506" r="4.50838"/>
</g>
<g fill="black">
<circle cx="300.313" cy="471.345" r="4.50838"/>
</g>
<g fill="black">
<circle cx="305.224" cy="472.317" r="4.50838"/>
</g>
<g fill="black">
<circle cx="310.136" cy="473.317" r="4.50838"/>
</g>
<g fill="black">
<circle cx="315.047" cy="474.135" r="4.50838"/>
</g>
<g fill="black">
<circle cx="319.959" cy="474.899" r="4.50838"/>
</g>
<g fill="black">
<circle cx="324.87" cy="475.637" r="4.50838"/>
</g>
<g fill="black">
<circle cx="329.782" cy="476.19" r="4.50838"/>
</g>
<g fill="black">
<circle cx="334.694" cy="476.854" r="4.50838"/>
</g>
<g fill="black">
<circle cx="339.605" cy="477.611" r="4.50838"/>
</g>
<g fill="black">
<circle cx="344.517" cy="478.123" r="4.50838"/>
</g>
<g fill="black">
<circle cx="349.428" cy="478.69" r="4.50838"/>
</g>
<g fill="black">
<circle cx="354.34" cy="479.243" r="4.50838"/>
</g>
<g fill="black">
<circle cx="359.251" cy="479.78" r="4.50838"/>
</g>
<g fill="black">
<circle cx="364.163" cy="480.399" r="4.50838"/>
</g>
<g fill="black">
<circle cx="369.074" cy="480.894" r="4.50838"/>
</g>
<g fill="black">
<circle cx="373.986" cy="481.421" r="4.50838"/>
</g>
<g fill="black">
<circle cx="378.897" cy="481.935" r="4.50838"/>
</g>
<g fill="black">
<circle cx="383.809" cy="482.476" r="4.50838"/>
</g>
<g fill="black">
<circle cx="388.72" cy="482.859" r="4.50838"/>
</g>
<g fill="black">
<circle cx="393.632" cy="483.369" r="4.50838"/>
</g>
<g fill="black">
<circle cx="398.543" cy="483.768" r="4.50838"/>
</g>
<g fill="black">
<circle cx="403.455" cy="484.207" r="4.50838"/>
</g>
<g fill="black">
<circle cx="408.366" cy="484.617" r="4.50838"/>
</g>
<g fill="black">
<circle cx="413.278" cy="484.991" r="4.50838"/>
</g>
<g fill="black">
<circle cx="418.189" cy="485.404" r="4.50838"/>
</g>
<g fill="black">
<circle cx="423.101" cy="485.72" r="4.50838"/>
</g>
<g fill="black">
<circle cx="428.012" cy="486.089" r="4.50838"/>
</g>
<g fill="black">
<circle cx="432.924" cy="486.431" r="4.50838"/>
</g>
<g fill="black">
<circle cx="437.835" cy="486.894" r="4.50838"/>
</g>
<g fill="black">
<circle cx="442.747" cy="487.112" r="4.50838"/>
</g>
<g fill="black">
<circle cx="447.658" cy="487.547" r="4.50838"/>
</g>
<g fill="black">
<circle cx="452.57" cy="487.78" r="4.50838"/>
</g>
<g fill="black">
<circle cx="457.481" cy="488.002" r="4.50838"/>
</g>
<g fill="black">
<circle cx="462.393" cy="488.401" r="4.50838"/>
</g>
<g fill="black">
<circle cx="467.304" cy="488.6" r="4.50838"/>
</g>
<g fill="black">
<circle cx="472.216" cy="488.863" r="4.50838"/>
</g>
<g fill="black">
<circle cx="477.127" cy="489.166" r="4.50838"/>
</g>
<g fill="black">
<circle cx="482.039" cy="489.35" r="4.50838"/>
</g>
<g fill="black">
<circle cx="486.95" cy="489.578" r="4.50838"/>
</g>
<g fill="black">
<circle cx="491.862" cy="489.923" r="4.50838"/>
</g>
<g fill="black">
<circle cx="496.773" cy="490.043" r="4.50838"/>
</g>
<g fill="black">
<circle cx="501.685" cy="490.306" r="4.50838"/>
</g>
<g fill="black">
<circle cx="506.597" cy="490.517" r="4.50838"/>
</g>
<g fill="black">
<circle cx="511.508" cy="490.65" r="4.50838"/>
</g>
<g fill="black">
<circle cx="516.42" cy="490.872" r="4.50838"/>
</g>
<g fill="black">
<circle cx="521.331" cy="491.058" r="4.50838"/>
</g>
<g fill="black">
<circle cx="526.243" cy="491.246" r="4.50838"/>
</g>
<g fill="black">
<circle cx="531.154" cy="491.427" r="4.50838"/>
</g>
<g fill="black">
<circle cx="536.066" cy="491.599" r="4.50838"/>
</g>
<g fill="black">
<circle cx="540.977" cy="491.683" r="4.50838"/>
</g>
<g fill="black">
<circle cx="545.889" cy="491.864" r="4.50838"/>
</g>
<text xml:space="preserve" x="360.607" y="50.7193" fill="black" font-size="16.0105" font-family="Helvetica"> with EMC</text>
<text xml:space="preserve" x="352.717" y="50.7193" fill="black" font-size="16.0105" font-family="Times">&#0947;</text>
<text xml:space="preserve" x="344.828" y="50.7193" fill="black" font-size="16.0105" font-family="Times">&#0947;</text>
<text xml:space="preserve" x="336.938" y="50.7193" fill="black" font-size="16.0105" font-family="Times">&#0947;</text>
<text xml:space="preserve" x="331.866" y="50.7193" fill="black" font-size="16.0105" font-family="Helvetica"> </text>
<text xml:space="preserve" x="316.65" y="50.7193" fill="black" font-size="16.0105" font-family="Times">&#8594;</text>
<text xml:space="preserve" x="311.578" y="50.7193" fill="black" font-size="16.0105" font-family="Helvetica"> </text>
<text xml:space="preserve" x="303.689" y="50.7193" fill="black" font-size="16.0105" font-family="Times">&#0947;</text>
<text xml:space="preserve" x="298.053" y="45.0838" fill="black" font-size="10.8403" font-family="Helvetica">0</text>
<text xml:space="preserve" x="289.6" y="50.7193" fill="black" font-size="16.0105" font-family="Times">&#0960;</text>
<text xml:space="preserve" x="284.528" y="50.7193" fill="black" font-size="16.0105" font-family="Helvetica"> </text>
<text xml:space="preserve" x="269.312" y="50.7193" fill="black" font-size="16.0105" font-family="Times">&#8594;</text>
<text xml:space="preserve" x="264.24" y="50.7193" fill="black" font-size="16.0105" font-family="Helvetica"> </text>
<text xml:space="preserve" x="252.969" y="50.7193" fill="black" font-size="16.0105" font-family="Times">&#0969;</text>
<text xml:space="preserve" x="128.989" y="50.7193" fill="black" font-size="16.0105" font-family="Helvetica"> = 13 TeV (EG1), </text>
<text xml:space="preserve" x="120.536" y="50.7193" fill="black" font-size="16.0105" font-family="Helvetica" font-style="oblique">s</text>
<path d="M114.9,41.7025l 1.69064, 9.58031" fill="none" stroke="black" stroke-width="2"/>
<path d="M116.591,51.2829l 2.25419, -14.0887" fill="none" stroke="black"/>
<path d="M118.845,37.1942h 10.1439" fill="none" stroke="black"/>
<text xml:space="preserve" x="89.5406" y="50.7193" fill="black" font-size="16.0105" font-family="Helvetica">pp </text>
<text xml:space="preserve" x="89.5406" y="85.6593" fill="black" font-size="16.0105" font-family="Helvetica">ALICE work in progress</text>
<text xml:space="preserve" x="214.085" y="120.599" fill="black" font-size="16.0105" font-family="Helvetica">) &lt; 16.0</text>
<text xml:space="preserve" x="205.068" y="120.599" fill="black" font-size="16.0105" font-family="Helvetica" font-style="oblique">c</text>
<text xml:space="preserve" x="154.912" y="120.599" fill="black" font-size="16.0105" font-family="Helvetica"> /(GeV/</text>
<text xml:space="preserve" x="148.15" y="128.489" fill="black" font-size="10.8403" font-family="Helvetica">T</text>
<text xml:space="preserve" x="138.569" y="120.599" fill="black" font-size="16.0105" font-family="Helvetica" font-style="oblique">p</text>
<text xml:space="preserve" x="133.497" y="120.599" fill="black" font-size="16.0105" font-family="Helvetica"> </text>
<text xml:space="preserve" x="125.044" y="120.599" fill="black" font-size="16.0105" font-family="Times">&#8804;</text>
<text xml:space="preserve" x="89.5406" y="120.599" fill="black" font-size="16.0105" font-family="Helvetica">12.0 </text>
<text xml:space="preserve" x="134.624" y="158.357" fill="black" font-size="16.0105" font-family="Helvetica">background</text>
<path d="M92.9803,152.186h 34.7244" fill="none" stroke="#993333" stroke-width="2"/>
<g fill="#993333">
<rect x="105.834" y="147.678" width="9.01677" height="9.01677"/>
</g>
<text xml:space="preserve" x="134.624" y="185.971" fill="black" font-size="16.0105" font-family="Helvetica">same event</text>
<path d="M92.9803,179.856h 34.7244" fill="none" stroke="black" stroke-width="2"/>
<g fill="black">
<circle cx="110.343" cy="179.856" r="4.50838"/>
</g></svg>
