<?xml version="1.0" standalone="no"?>
<svg width="567.429" height="553.904" viewBox="0 0 567.429 553.904" xmlns="http://www.w3.org/2000/svg" shape-rendering="crispEdges">
<title>
MC/EG1/OmegaTGPSPSNCell/SameEventToBackgroundRatio_06.svg
</title>
<desc>
Creator: ROOT Version 6.20/08
CreationDate: Mon Mar 29 18:49:58 2021</desc>
<defs>
</defs>
<rect x="0.5" y="0" width="566.929" height="553.404" fill="white"/>
<rect x="68.5315" y="16.6021" width="484.724" height="481.461" fill="white"/>
<rect x="68.5315" y="16.6021" width="484.724" height="481.461" fill="none" stroke="black"/>
<rect x="68.5315" y="16.6021" width="484.724" height="481.461" fill="white"/>
<rect x="68.5315" y="16.6021" width="484.724" height="481.461" fill="none" stroke="black"/>
<g fill="black">
<circle cx="109.325" cy="472.119" r="6.76257"/>
</g>
<g fill="black">
<circle cx="114.124" cy="362.498" r="6.76257"/>
</g>
<g fill="black">
<circle cx="118.924" cy="300.86" r="6.76257"/>
</g>
<g fill="black">
<circle cx="123.723" cy="269.089" r="6.76257"/>
</g>
<g fill="black">
<circle cx="128.522" cy="312.429" r="6.76257"/>
</g>
<g fill="black">
<circle cx="133.321" cy="370.204" r="6.76257"/>
</g>
<g fill="black">
<circle cx="138.121" cy="345.934" r="6.76257"/>
</g>
<g fill="black">
<circle cx="142.92" cy="355.201" r="6.76257"/>
</g>
<g fill="black">
<circle cx="147.719" cy="355.851" r="6.76257"/>
</g>
<g fill="black">
<circle cx="152.518" cy="355.701" r="6.76257"/>
</g>
<g fill="black">
<circle cx="157.318" cy="359.799" r="6.76257"/>
</g>
<g fill="black">
<circle cx="162.117" cy="362.909" r="6.76257"/>
</g>
<g fill="black">
<circle cx="166.916" cy="364.099" r="6.76257"/>
</g>
<g fill="black">
<circle cx="171.715" cy="365.46" r="6.76257"/>
</g>
<g fill="black">
<circle cx="176.515" cy="363.919" r="6.76257"/>
</g>
<g fill="black">
<circle cx="181.314" cy="364.428" r="6.76257"/>
</g>
<g fill="black">
<circle cx="186.113" cy="362.568" r="6.76257"/>
</g>
<g fill="black">
<circle cx="190.912" cy="362.083" r="6.76257"/>
</g>
<g fill="black">
<circle cx="195.712" cy="360.554" r="6.76257"/>
</g>
<g fill="black">
<circle cx="200.511" cy="358.151" r="6.76257"/>
</g>
<g fill="black">
<circle cx="205.31" cy="357.265" r="6.76257"/>
</g>
<g fill="black">
<circle cx="210.109" cy="354.614" r="6.76257"/>
</g>
<g fill="black">
<circle cx="214.909" cy="352.656" r="6.76257"/>
</g>
<g fill="black">
<circle cx="219.708" cy="351.961" r="6.76257"/>
</g>
<g fill="black">
<circle cx="224.507" cy="348.95" r="6.76257"/>
</g>
<g fill="black">
<circle cx="229.306" cy="345.927" r="6.76257"/>
</g>
<g fill="black">
<circle cx="234.106" cy="343.264" r="6.76257"/>
</g>
<g fill="black">
<circle cx="238.905" cy="340.175" r="6.76257"/>
</g>
<g fill="black">
<circle cx="243.704" cy="337.376" r="6.76257"/>
</g>
<g fill="black">
<circle cx="248.503" cy="335.025" r="6.76257"/>
</g>
<g fill="black">
<circle cx="253.303" cy="333.704" r="6.76257"/>
</g>
<g fill="black">
<circle cx="258.102" cy="331.426" r="6.76257"/>
</g>
<g fill="black">
<circle cx="262.901" cy="329.735" r="6.76257"/>
</g>
<g fill="black">
<circle cx="267.7" cy="328.467" r="6.76257"/>
</g>
<g fill="black">
<circle cx="272.5" cy="326.516" r="6.76257"/>
</g>
<g fill="black">
<circle cx="277.299" cy="323.642" r="6.76257"/>
</g>
<g fill="black">
<circle cx="339.689" cy="299.255" r="6.76257"/>
</g>
<g fill="black">
<circle cx="344.488" cy="298.083" r="6.76257"/>
</g>
<g fill="black">
<circle cx="349.288" cy="294.111" r="6.76257"/>
</g>
<g fill="black">
<circle cx="354.087" cy="295.698" r="6.76257"/>
</g>
<g fill="black">
<circle cx="358.886" cy="291.62" r="6.76257"/>
</g>
<g fill="black">
<circle cx="363.685" cy="289.364" r="6.76257"/>
</g>
<g fill="black">
<circle cx="368.485" cy="287.474" r="6.76257"/>
</g>
<g fill="black">
<circle cx="373.284" cy="284.892" r="6.76257"/>
</g>
<g fill="black">
<circle cx="378.083" cy="281.7" r="6.76257"/>
</g>
<g fill="black">
<circle cx="382.882" cy="278.772" r="6.76257"/>
</g>
<g fill="black">
<circle cx="387.682" cy="276.397" r="6.76257"/>
</g>
<g fill="black">
<circle cx="392.481" cy="273.551" r="6.76257"/>
</g>
<g fill="black">
<circle cx="397.28" cy="273.002" r="6.76257"/>
</g>
<g fill="black">
<circle cx="402.079" cy="271.697" r="6.76257"/>
</g>
<g fill="black">
<circle cx="406.879" cy="270.094" r="6.76257"/>
</g>
<g fill="black">
<circle cx="411.678" cy="266.195" r="6.76257"/>
</g>
<g fill="black">
<circle cx="416.477" cy="263.641" r="6.76257"/>
</g>
<g fill="black">
<circle cx="421.276" cy="261.304" r="6.76257"/>
</g>
<g fill="black">
<circle cx="426.076" cy="261.834" r="6.76257"/>
</g>
<g fill="black">
<circle cx="430.875" cy="257.208" r="6.76257"/>
</g>
<g fill="black">
<circle cx="435.674" cy="254.757" r="6.76257"/>
</g>
<g fill="black">
<circle cx="440.473" cy="254.034" r="6.76257"/>
</g>
<g fill="black">
<circle cx="445.273" cy="250.814" r="6.76257"/>
</g>
<g fill="black">
<circle cx="450.072" cy="248.462" r="6.76257"/>
</g>
<g fill="black">
<circle cx="454.871" cy="248.035" r="6.76257"/>
</g>
<g fill="black">
<circle cx="459.671" cy="244.605" r="6.76257"/>
</g>
<g fill="black">
<circle cx="464.47" cy="240.992" r="6.76257"/>
</g>
<g fill="black">
<circle cx="469.269" cy="239.022" r="6.76257"/>
</g>
<g fill="black">
<circle cx="474.068" cy="237.928" r="6.76257"/>
</g>
<g fill="black">
<circle cx="478.867" cy="236.743" r="6.76257"/>
</g>
<g fill="black">
<circle cx="483.667" cy="234.698" r="6.76257"/>
</g>
<g fill="black">
<circle cx="488.466" cy="227.327" r="6.76257"/>
</g>
<g fill="black">
<circle cx="493.265" cy="227.289" r="6.76257"/>
</g>
<g fill="black">
<circle cx="498.065" cy="226.071" r="6.76257"/>
</g>
<g fill="black">
<circle cx="502.864" cy="222.453" r="6.76257"/>
</g>
<g fill="black">
<circle cx="507.663" cy="221.05" r="6.76257"/>
</g>
<g fill="black">
<circle cx="512.462" cy="217.91" r="6.76257"/>
</g>
<g fill="black">
<circle cx="517.262" cy="215.312" r="6.76257"/>
</g>
<g fill="black">
<circle cx="522.061" cy="214.532" r="6.76257"/>
</g>
<g fill="black">
<circle cx="526.86" cy="209.947" r="6.76257"/>
</g>
<g fill="black">
<circle cx="531.659" cy="210.967" r="6.76257"/>
</g>
<g fill="black">
<circle cx="536.458" cy="206.605" r="6.76257"/>
</g>
<g fill="black">
<circle cx="541.258" cy="197.15" r="6.76257"/>
</g>
<g fill="black">
<circle cx="546.057" cy="199.171" r="6.76257"/>
</g>
<path d="M68.5315,498.064h 484.724" fill="none" stroke="black"/>
<path d="M68.5315,483.869v 14.1948" fill="none" stroke="black"/>
<path d="M83.5292,490.966v 7.09741" fill="none" stroke="black"/>
<path d="M98.5268,490.966v 7.09741" fill="none" stroke="black"/>
<path d="M113.524,490.966v 7.09741" fill="none" stroke="black"/>
<path d="M128.522,483.869v 14.1948" fill="none" stroke="black"/>
<path d="M143.52,490.966v 7.09741" fill="none" stroke="black"/>
<path d="M158.517,490.966v 7.09741" fill="none" stroke="black"/>
<path d="M173.515,490.966v 7.09741" fill="none" stroke="black"/>
<path d="M188.513,483.869v 14.1948" fill="none" stroke="black"/>
<path d="M203.51,490.966v 7.09741" fill="none" stroke="black"/>
<path d="M218.508,490.966v 7.09741" fill="none" stroke="black"/>
<path d="M233.506,490.966v 7.09741" fill="none" stroke="black"/>
<path d="M248.503,483.869v 14.1948" fill="none" stroke="black"/>
<path d="M263.501,490.966v 7.09741" fill="none" stroke="black"/>
<path d="M278.499,490.966v 7.09741" fill="none" stroke="black"/>
<path d="M293.496,490.966v 7.09741" fill="none" stroke="black"/>
<path d="M308.494,483.869v 14.1948" fill="none" stroke="black"/>
<path d="M323.492,490.966v 7.09741" fill="none" stroke="black"/>
<path d="M338.489,490.966v 7.09741" fill="none" stroke="black"/>
<path d="M353.487,490.966v 7.09741" fill="none" stroke="black"/>
<path d="M368.485,483.869v 14.1948" fill="none" stroke="black"/>
<path d="M383.482,490.966v 7.09741" fill="none" stroke="black"/>
<path d="M398.48,490.966v 7.09741" fill="none" stroke="black"/>
<path d="M413.478,490.966v 7.09741" fill="none" stroke="black"/>
<path d="M428.475,483.869v 14.1948" fill="none" stroke="black"/>
<path d="M443.473,490.966v 7.09741" fill="none" stroke="black"/>
<path d="M458.471,490.966v 7.09741" fill="none" stroke="black"/>
<path d="M473.468,490.966v 7.09741" fill="none" stroke="black"/>
<path d="M488.466,483.869v 14.1948" fill="none" stroke="black"/>
<path d="M503.464,490.966v 7.09741" fill="none" stroke="black"/>
<path d="M518.461,490.966v 7.09741" fill="none" stroke="black"/>
<path d="M533.459,490.966v 7.09741" fill="none" stroke="black"/>
<path d="M548.457,483.869v 14.1948" fill="none" stroke="black"/>
<path d="M548.457,483.869v 14.1948" fill="none" stroke="black"/>
<text xml:space="preserve" x="63.6174" y="513.956" fill="black" font-size="16.0105" font-family="Helvetica">0</text>
<text xml:space="preserve" x="117.718" y="513.956" fill="black" font-size="16.0105" font-family="Helvetica">0.2</text>
<text xml:space="preserve" x="177.454" y="513.956" fill="black" font-size="16.0105" font-family="Helvetica">0.4</text>
<text xml:space="preserve" x="237.754" y="513.956" fill="black" font-size="16.0105" font-family="Helvetica">0.6</text>
<text xml:space="preserve" x="297.49" y="513.956" fill="black" font-size="16.0105" font-family="Helvetica">0.8</text>
<text xml:space="preserve" x="365.115" y="513.956" fill="black" font-size="16.0105" font-family="Helvetica">1</text>
<text xml:space="preserve" x="417.525" y="513.956" fill="black" font-size="16.0105" font-family="Helvetica">1.2</text>
<text xml:space="preserve" x="477.261" y="513.956" fill="black" font-size="16.0105" font-family="Helvetica">1.4</text>
<text xml:space="preserve" x="537.561" y="513.956" fill="black" font-size="16.0105" font-family="Helvetica">1.6</text>
<text xml:space="preserve" x="548.268" y="537.625" fill="black" font-size="16.0105" font-family="Helvetica">)</text>
<text xml:space="preserve" x="542.633" y="532.553" fill="black" font-size="10.8403" font-family="Helvetica">2</text>
<text xml:space="preserve" x="533.616" y="537.625" fill="black" font-size="16.0105" font-family="Helvetica" font-style="oblique">c</text>
<text xml:space="preserve" x="487.405" y="537.625" fill="black" font-size="16.0105" font-family="Helvetica"> (GeV/</text>
<text xml:space="preserve" x="473.317" y="542.697" fill="black" font-size="10.8403" font-family="Helvetica">inv</text>
<text xml:space="preserve" x="459.792" y="537.625" fill="black" font-size="16.0105" font-family="Helvetica" font-style="oblique">m</text>
<path d="M68.5315,16.6021h 484.724" fill="none" stroke="black"/>
<path d="M68.5315,30.7969v -14.1948" fill="none" stroke="black"/>
<path d="M83.5292,23.6995v -7.09741" fill="none" stroke="black"/>
<path d="M98.5268,23.6995v -7.09741" fill="none" stroke="black"/>
<path d="M113.524,23.6995v -7.09741" fill="none" stroke="black"/>
<path d="M128.522,30.7969v -14.1948" fill="none" stroke="black"/>
<path d="M143.52,23.6995v -7.09741" fill="none" stroke="black"/>
<path d="M158.517,23.6995v -7.09741" fill="none" stroke="black"/>
<path d="M173.515,23.6995v -7.09741" fill="none" stroke="black"/>
<path d="M188.513,30.7969v -14.1948" fill="none" stroke="black"/>
<path d="M203.51,23.6995v -7.09741" fill="none" stroke="black"/>
<path d="M218.508,23.6995v -7.09741" fill="none" stroke="black"/>
<path d="M233.506,23.6995v -7.09741" fill="none" stroke="black"/>
<path d="M248.503,30.7969v -14.1948" fill="none" stroke="black"/>
<path d="M263.501,23.6995v -7.09741" fill="none" stroke="black"/>
<path d="M278.499,23.6995v -7.09741" fill="none" stroke="black"/>
<path d="M293.496,23.6995v -7.09741" fill="none" stroke="black"/>
<path d="M308.494,30.7969v -14.1948" fill="none" stroke="black"/>
<path d="M323.492,23.6995v -7.09741" fill="none" stroke="black"/>
<path d="M338.489,23.6995v -7.09741" fill="none" stroke="black"/>
<path d="M353.487,23.6995v -7.09741" fill="none" stroke="black"/>
<path d="M368.485,30.7969v -14.1948" fill="none" stroke="black"/>
<path d="M383.482,23.6995v -7.09741" fill="none" stroke="black"/>
<path d="M398.48,23.6995v -7.09741" fill="none" stroke="black"/>
<path d="M413.478,23.6995v -7.09741" fill="none" stroke="black"/>
<path d="M428.475,30.7969v -14.1948" fill="none" stroke="black"/>
<path d="M443.473,23.6995v -7.09741" fill="none" stroke="black"/>
<path d="M458.471,23.6995v -7.09741" fill="none" stroke="black"/>
<path d="M473.468,23.6995v -7.09741" fill="none" stroke="black"/>
<path d="M488.466,30.7969v -14.1948" fill="none" stroke="black"/>
<path d="M503.464,23.6995v -7.09741" fill="none" stroke="black"/>
<path d="M518.461,23.6995v -7.09741" fill="none" stroke="black"/>
<path d="M533.459,23.6995v -7.09741" fill="none" stroke="black"/>
<path d="M548.457,30.7969v -14.1948" fill="none" stroke="black"/>
<path d="M548.457,30.7969v -14.1948" fill="none" stroke="black"/>
<path d="M68.5315,498.064v -481.461" fill="none" stroke="black"/>
<path d="M83.3283,498.064h -14.7969" fill="none" stroke="black"/>
<path d="M75.9299,486.338h -7.39843" fill="none" stroke="black"/>
<path d="M75.9299,474.612h -7.39843" fill="none" stroke="black"/>
<path d="M75.9299,462.886h -7.39843" fill="none" stroke="black"/>
<path d="M83.3283,451.16h -14.7969" fill="none" stroke="black"/>
<path d="M75.9299,439.434h -7.39843" fill="none" stroke="black"/>
<path d="M75.9299,427.709h -7.39843" fill="none" stroke="black"/>
<path d="M75.9299,415.983h -7.39843" fill="none" stroke="black"/>
<path d="M83.3283,404.257h -14.7969" fill="none" stroke="black"/>
<path d="M75.9299,392.531h -7.39843" fill="none" stroke="black"/>
<path d="M75.9299,380.805h -7.39843" fill="none" stroke="black"/>
<path d="M75.9299,369.08h -7.39843" fill="none" stroke="black"/>
<path d="M83.3283,357.354h -14.7969" fill="none" stroke="black"/>
<path d="M75.9299,345.628h -7.39843" fill="none" stroke="black"/>
<path d="M75.9299,333.902h -7.39843" fill="none" stroke="black"/>
<path d="M75.9299,322.176h -7.39843" fill="none" stroke="black"/>
<path d="M83.3283,310.45h -14.7969" fill="none" stroke="black"/>
<path d="M75.9299,298.725h -7.39843" fill="none" stroke="black"/>
<path d="M75.9299,286.999h -7.39843" fill="none" stroke="black"/>
<path d="M75.9299,275.273h -7.39843" fill="none" stroke="black"/>
<path d="M83.3283,263.547h -14.7969" fill="none" stroke="black"/>
<path d="M75.9299,251.821h -7.39843" fill="none" stroke="black"/>
<path d="M75.9299,240.095h -7.39843" fill="none" stroke="black"/>
<path d="M75.9299,228.37h -7.39843" fill="none" stroke="black"/>
<path d="M83.3283,216.644h -14.7969" fill="none" stroke="black"/>
<path d="M75.9299,204.918h -7.39843" fill="none" stroke="black"/>
<path d="M75.9299,193.192h -7.39843" fill="none" stroke="black"/>
<path d="M75.9299,181.466h -7.39843" fill="none" stroke="black"/>
<path d="M83.3283,169.741h -14.7969" fill="none" stroke="black"/>
<path d="M75.9299,158.015h -7.39843" fill="none" stroke="black"/>
<path d="M75.9299,146.289h -7.39843" fill="none" stroke="black"/>
<path d="M75.9299,134.563h -7.39843" fill="none" stroke="black"/>
<path d="M83.3283,122.837h -14.7969" fill="none" stroke="black"/>
<path d="M75.9299,111.111h -7.39843" fill="none" stroke="black"/>
<path d="M75.9299,99.3856h -7.39843" fill="none" stroke="black"/>
<path d="M75.9299,87.6598h -7.39843" fill="none" stroke="black"/>
<path d="M83.3283,75.934h -14.7969" fill="none" stroke="black"/>
<path d="M75.9299,64.2081h -7.39843" fill="none" stroke="black"/>
<path d="M75.9299,52.4823h -7.39843" fill="none" stroke="black"/>
<path d="M75.9299,40.7565h -7.39843" fill="none" stroke="black"/>
<path d="M83.3283,29.0307h -14.7969" fill="none" stroke="black"/>
<path d="M83.3283,29.0307h -14.7969" fill="none" stroke="black"/>
<path d="M75.9299,17.3048h -7.39843" fill="none" stroke="black"/>
<text xml:space="preserve" x="56.8548" y="503.248" fill="black" font-size="16.0105" font-family="Helvetica">0</text>
<text xml:space="preserve" x="34.8764" y="456.474" fill="black" font-size="16.0105" font-family="Helvetica">0.02</text>
<text xml:space="preserve" x="34.8764" y="409.699" fill="black" font-size="16.0105" font-family="Helvetica">0.04</text>
<text xml:space="preserve" x="34.8764" y="362.925" fill="black" font-size="16.0105" font-family="Helvetica">0.06</text>
<text xml:space="preserve" x="34.8764" y="315.587" fill="black" font-size="16.0105" font-family="Helvetica">0.08</text>
<text xml:space="preserve" x="46.1474" y="268.812" fill="black" font-size="16.0105" font-family="Helvetica">0.1</text>
<text xml:space="preserve" x="34.8764" y="222.038" fill="black" font-size="16.0105" font-family="Helvetica">0.12</text>
<text xml:space="preserve" x="34.8764" y="175.263" fill="black" font-size="16.0105" font-family="Helvetica">0.14</text>
<text xml:space="preserve" x="34.8764" y="127.925" fill="black" font-size="16.0105" font-family="Helvetica">0.16</text>
<text xml:space="preserve" x="34.8764" y="81.1509" fill="black" font-size="16.0105" font-family="Helvetica">0.18</text>
<text xml:space="preserve" x="43.8932" y="34.3764" fill="black" font-size="16.0105" font-family="Helvetica">0.2</text>
<g transform="rotate(-90,38.2577,98.0573)">
<text xml:space="preserve" x="38.2577" y="98.0573" fill="black" font-size="16.0105" font-family="Helvetica">background</text>
</g>
<g transform="rotate(-90,21.9148,98.0573)">
<text xml:space="preserve" x="21.9148" y="98.0573" fill="black" font-size="16.0105" font-family="Helvetica">same event</text>
</g>
<path d="M24.169,98.0573l 0.563548, -81.7144" fill="none" stroke="black" stroke-width="2"/>
<path d="M553.256,498.064v -481.461" fill="none" stroke="black"/>
<path d="M538.459,498.064h 14.7969" fill="none" stroke="black"/>
<path d="M545.857,486.338h 7.39843" fill="none" stroke="black"/>
<path d="M545.857,474.612h 7.39843" fill="none" stroke="black"/>
<path d="M545.857,462.886h 7.39843" fill="none" stroke="black"/>
<path d="M538.459,451.16h 14.7969" fill="none" stroke="black"/>
<path d="M545.857,439.434h 7.39843" fill="none" stroke="black"/>
<path d="M545.857,427.709h 7.39843" fill="none" stroke="black"/>
<path d="M545.857,415.983h 7.39843" fill="none" stroke="black"/>
<path d="M538.459,404.257h 14.7969" fill="none" stroke="black"/>
<path d="M545.857,392.531h 7.39843" fill="none" stroke="black"/>
<path d="M545.857,380.805h 7.39843" fill="none" stroke="black"/>
<path d="M545.857,369.08h 7.39843" fill="none" stroke="black"/>
<path d="M538.459,357.354h 14.7969" fill="none" stroke="black"/>
<path d="M545.857,345.628h 7.39843" fill="none" stroke="black"/>
<path d="M545.857,333.902h 7.39843" fill="none" stroke="black"/>
<path d="M545.857,322.176h 7.39843" fill="none" stroke="black"/>
<path d="M538.459,310.45h 14.7969" fill="none" stroke="black"/>
<path d="M545.857,298.725h 7.39843" fill="none" stroke="black"/>
<path d="M545.857,286.999h 7.39843" fill="none" stroke="black"/>
<path d="M545.857,275.273h 7.39843" fill="none" stroke="black"/>
<path d="M538.459,263.547h 14.7969" fill="none" stroke="black"/>
<path d="M545.857,251.821h 7.39843" fill="none" stroke="black"/>
<path d="M545.857,240.095h 7.39843" fill="none" stroke="black"/>
<path d="M545.857,228.37h 7.39843" fill="none" stroke="black"/>
<path d="M538.459,216.644h 14.7969" fill="none" stroke="black"/>
<path d="M545.857,204.918h 7.39843" fill="none" stroke="black"/>
<path d="M545.857,193.192h 7.39843" fill="none" stroke="black"/>
<path d="M545.857,181.466h 7.39843" fill="none" stroke="black"/>
<path d="M538.459,169.741h 14.7969" fill="none" stroke="black"/>
<path d="M545.857,158.015h 7.39843" fill="none" stroke="black"/>
<path d="M545.857,146.289h 7.39843" fill="none" stroke="black"/>
<path d="M545.857,134.563h 7.39843" fill="none" stroke="black"/>
<path d="M538.459,122.837h 14.7969" fill="none" stroke="black"/>
<path d="M545.857,111.111h 7.39843" fill="none" stroke="black"/>
<path d="M545.857,99.3856h 7.39843" fill="none" stroke="black"/>
<path d="M545.857,87.6598h 7.39843" fill="none" stroke="black"/>
<path d="M538.459,75.934h 14.7969" fill="none" stroke="black"/>
<path d="M545.857,64.2081h 7.39843" fill="none" stroke="black"/>
<path d="M545.857,52.4823h 7.39843" fill="none" stroke="black"/>
<path d="M545.857,40.7565h 7.39843" fill="none" stroke="black"/>
<path d="M538.459,29.0307h 14.7969" fill="none" stroke="black"/>
<path d="M538.459,29.0307h 14.7969" fill="none" stroke="black"/>
<path d="M545.857,17.3048h 7.39843" fill="none" stroke="black"/>
<g stroke="#333333" stroke-width="2" fill="none">
<circle cx="282.098" cy="321.806" r="5.63548"/>
</g>
<g stroke="#333333" stroke-width="2" fill="none">
<circle cx="286.897" cy="319.448" r="5.63548"/>
</g>
<g stroke="#333333" stroke-width="2" fill="none">
<circle cx="291.697" cy="316.197" r="5.63548"/>
</g>
<g stroke="#333333" stroke-width="2" fill="none">
<circle cx="296.496" cy="312.683" r="5.63548"/>
</g>
<g stroke="#333333" stroke-width="2" fill="none">
<circle cx="301.295" cy="310.225" r="5.63548"/>
</g>
<g stroke="#333333" stroke-width="2" fill="none">
<circle cx="306.094" cy="310.223" r="5.63548"/>
</g>
<g stroke="#333333" stroke-width="2" fill="none">
<circle cx="310.894" cy="308.48" r="5.63548"/>
</g>
<g stroke="#333333" stroke-width="2" fill="none">
<circle cx="315.693" cy="308.052" r="5.63548"/>
</g>
<g stroke="#333333" stroke-width="2" fill="none">
<circle cx="320.492" cy="307.204" r="5.63548"/>
</g>
<g stroke="#333333" stroke-width="2" fill="none">
<circle cx="325.291" cy="305.31" r="5.63548"/>
</g>
<g stroke="#333333" stroke-width="2" fill="none">
<circle cx="330.091" cy="302.367" r="5.63548"/>
</g>
<g stroke="#333333" stroke-width="2" fill="none">
<circle cx="334.89" cy="300.941" r="5.63548"/>
</g>
<path d="M128.732,385.895l 0.419935, -0.17495l 0.419935, -0.17495l 0.419935, -0.17495l 0.419935, -0.17495l 0.419935, -0.17495l 0.419935, -0.17495l 0.419935, -0.17495l 0.419935, -0.17495l 0.419935, -0.17495l 0.419935, -0.17495l 0.419935, -0.17495l
 0.419935, -0.17495l 0.419935, -0.17495l 0.419935, -0.17495l 0.419935, -0.17495l 0.419935, -0.17495l 0.419935, -0.17495l 0.419935, -0.17495l 0.419935, -0.17495l 0.419935, -0.17495l 0.419935, -0.17495l 0.419935, -0.17495l 0.419935, -0.17495l 0.419935,
 -0.17495l 0.419935, -0.17495l 0.419935, -0.17495l 0.419935, -0.17495l 0.419935, -0.17495l 0.419935, -0.17495l 0.419935, -0.17495l 0.419935, -0.17495l 0.419935, -0.17495l 0.419935, -0.17495l 0.419935, -0.17495l 0.419935, -0.17495l 0.419935, -0.17495l
 0.419935, -0.17495l 0.419935, -0.17495l 0.419935, -0.17495l 0.419935, -0.17495l 0.419935, -0.17495l 0.419935, -0.17495l 0.419935, -0.17495l 0.419935, -0.17495l 0.419935, -0.17495l 0.419935, -0.17495l 0.419935, -0.17495l 0.419935, -0.17495l 0.419935,
 -0.17495" fill="none" stroke="#33cccc" stroke-width="3"/>
<path d="M149.309,377.322l 0.419935, -0.17495l 0.419935, -0.17495l 0.419935, -0.17495l 0.419935, -0.17495l 0.419935, -0.17495l 0.419935, -0.17495l 0.419935, -0.17495l 0.419935, -0.17495l 0.419935, -0.17495l 0.419935, -0.17495l 0.419935, -0.17495l
 0.419935, -0.17495l 0.419935, -0.17495l 0.419935, -0.17495l 0.419935, -0.17495l 0.419935, -0.17495l 0.419935, -0.17495l 0.419935, -0.17495l 0.419935, -0.17495l 0.419935, -0.17495l 0.419935, -0.17495l 0.419935, -0.17495l 0.419935, -0.17495l 0.419935,
 -0.17495l 0.419935, -0.17495l 0.419935, -0.17495l 0.419935, -0.17495l 0.419935, -0.17495l 0.419935, -0.17495l 0.419935, -0.17495l 0.419935, -0.17495l 0.419935, -0.17495l 0.419935, -0.17495l 0.419935, -0.17495l 0.419935, -0.17495l 0.419935, -0.17495l
 0.419935, -0.17495l 0.419935, -0.17495l 0.419935, -0.17495l 0.419935, -0.17495l 0.419935, -0.17495l 0.419935, -0.17495l 0.419935, -0.17495l 0.419935, -0.17495l 0.419935, -0.17495l 0.419935, -0.17495l 0.419935, -0.17495l 0.419935, -0.17495l 0.419935,
 -0.17495" fill="none" stroke="#33cccc" stroke-width="3"/>
<path d="M169.886,368.75l 0.419935, -0.17495l 0.419935, -0.17495l 0.419935, -0.17495l 0.419935, -0.17495l 0.419935, -0.17495l 0.419935, -0.17495l 0.419935, -0.17495l 0.419935, -0.17495l 0.419935, -0.17495l 0.419935, -0.17495l 0.419935, -0.17495l
 0.419935, -0.17495l 0.419935, -0.17495l 0.419935, -0.17495l 0.419935, -0.17495l 0.419935, -0.17495l 0.419935, -0.17495l 0.419935, -0.17495l 0.419935, -0.17495l 0.419935, -0.17495l 0.419935, -0.17495l 0.419935, -0.17495l 0.419935, -0.17495l 0.419935,
 -0.17495l 0.419935, -0.17495l 0.419935, -0.17495l 0.419935, -0.17495l 0.419935, -0.17495l 0.419935, -0.17495l 0.419935, -0.17495l 0.419935, -0.17495l 0.419935, -0.17495l 0.419935, -0.17495l 0.419935, -0.17495l 0.419935, -0.17495l 0.419935, -0.17495l
 0.419935, -0.17495l 0.419935, -0.17495l 0.419935, -0.17495l 0.419935, -0.17495l 0.419935, -0.17495l 0.419935, -0.17495l 0.419935, -0.17495l 0.419935, -0.17495l 0.419935, -0.17495l 0.419935, -0.17495l 0.419935, -0.17495l 0.419935, -0.17495l 0.419935,
 -0.17495" fill="none" stroke="#33cccc" stroke-width="3"/>
<path d="M190.462,360.177l 0.419935, -0.17495l 0.419935, -0.17495l 0.419935, -0.17495l 0.419935, -0.17495l 0.419935, -0.17495l 0.419935, -0.17495l 0.419935, -0.17495l 0.419935, -0.17495l 0.419935, -0.17495l 0.419935, -0.17495l 0.419935, -0.17495l
 0.419935, -0.17495l 0.419935, -0.17495l 0.419935, -0.17495l 0.419935, -0.17495l 0.419935, -0.17495l 0.419935, -0.17495l 0.419935, -0.17495l 0.419935, -0.17495l 0.419935, -0.17495l 0.419935, -0.17495l 0.419935, -0.17495l 0.419935, -0.17495l 0.419935,
 -0.17495l 0.419935, -0.17495l 0.419935, -0.17495l 0.419935, -0.17495l 0.419935, -0.17495l 0.419935, -0.17495l 0.419935, -0.17495l 0.419935, -0.17495l 0.419935, -0.17495l 0.419935, -0.17495l 0.419935, -0.17495l 0.419935, -0.17495l 0.419935, -0.17495l
 0.419935, -0.17495l 0.419935, -0.17495l 0.419935, -0.17495l 0.419935, -0.17495l 0.419935, -0.17495l 0.419935, -0.17495l 0.419935, -0.17495l 0.419935, -0.17495l 0.419935, -0.17495l 0.419935, -0.17495l 0.419935, -0.17495l 0.419935, -0.17495l 0.419935,
 -0.17495" fill="none" stroke="#33cccc" stroke-width="3"/>
<path d="M211.039,351.605l 0.419935, -0.17495l 0.419935, -0.17495l 0.419935, -0.17495l 0.419935, -0.17495l 0.419935, -0.17495l 0.419935, -0.17495l 0.419935, -0.17495l 0.419935, -0.17495l 0.419935, -0.17495l 0.419935, -0.17495l 0.419935, -0.17495l
 0.419935, -0.17495l 0.419935, -0.17495l 0.419935, -0.17495l 0.419935, -0.17495l 0.419935, -0.17495l 0.419935, -0.17495l 0.419935, -0.17495l 0.419935, -0.17495l 0.419935, -0.17495l 0.419935, -0.17495l 0.419935, -0.17495l 0.419935, -0.17495l 0.419935,
 -0.17495l 0.419935, -0.17495l 0.419935, -0.17495l 0.419935, -0.17495l 0.419935, -0.17495l 0.419935, -0.17495l 0.419935, -0.17495l 0.419935, -0.17495l 0.419935, -0.17495l 0.419935, -0.17495l 0.419935, -0.17495l 0.419935, -0.17495l 0.419935, -0.17495l
 0.419935, -0.17495l 0.419935, -0.17495l 0.419935, -0.17495l 0.419935, -0.17495l 0.419935, -0.17495l 0.419935, -0.17495l 0.419935, -0.17495l 0.419935, -0.17495l 0.419935, -0.17495l 0.419935, -0.17495l 0.419935, -0.17495l 0.419935, -0.17495l 0.419935,
 -0.17495" fill="none" stroke="#33cccc" stroke-width="3"/>
<path d="M231.616,343.032l 0.419935, -0.17495l 0.419935, -0.17495l 0.419935, -0.17495l 0.419935, -0.17495l 0.419935, -0.17495l 0.419935, -0.17495l 0.419935, -0.17495l 0.419935, -0.17495l 0.419935, -0.17495l 0.419935, -0.17495l 0.419935, -0.17495l
 0.419935, -0.17495l 0.419935, -0.17495l 0.419935, -0.17495l 0.419935, -0.17495l 0.419935, -0.17495l 0.419935, -0.17495l 0.419935, -0.17495l 0.419935, -0.17495l 0.419935, -0.17495l 0.419935, -0.17495l 0.419935, -0.17495l 0.419935, -0.17495l 0.419935,
 -0.17495l 0.419935, -0.17495l 0.419935, -0.17495l 0.419935, -0.17495l 0.419935, -0.17495l 0.419935, -0.17495l 0.419935, -0.17495l 0.419935, -0.17495l 0.419935, -0.17495l 0.419935, -0.17495l 0.419935, -0.17495l 0.419935, -0.17495l 0.419935, -0.17495l
 0.419935, -0.17495l 0.419935, -0.17495l 0.419935, -0.17495l 0.419935, -0.17495l 0.419935, -0.17495l 0.419935, -0.17495l 0.419935, -0.17495l 0.419935, -0.17495l 0.419935, -0.17495l 0.419935, -0.17495l 0.419935, -0.17495l 0.419935, -0.17495l 0.419935,
 -0.17495" fill="none" stroke="#33cccc" stroke-width="3"/>
<path d="M252.193,334.46l 0.419935, -0.17495l 0.419935, -0.17495l 0.419935, -0.17495l 0.419935, -0.17495l 0.419935, -0.17495l 0.419935, -0.17495l 0.419935, -0.17495l 0.419935, -0.17495l 0.419935, -0.17495l 0.419935, -0.17495l 0.419935, -0.17495l
 0.419935, -0.17495l 0.419935, -0.17495l 0.419935, -0.17495l 0.419935, -0.17495l 0.419935, -0.17495l 0.419935, -0.17495l 0.419935, -0.17495l 0.419935, -0.17495l 0.419935, -0.17495l 0.419935, -0.17495l 0.419935, -0.17495l 0.419935, -0.17495l 0.419935,
 -0.17495l 0.419935, -0.17495l 0.419935, -0.17495l 0.419935, -0.17495l 0.419935, -0.17495l 0.419935, -0.17495l 0.419935, -0.17495l 0.419935, -0.17495l 0.419935, -0.17495l 0.419935, -0.17495l 0.419935, -0.17495l 0.419935, -0.17495l 0.419935, -0.17495l
 0.419935, -0.17495l 0.419935, -0.17495l 0.419935, -0.17495l 0.419935, -0.17495l 0.419935, -0.17495l 0.419935, -0.17495l 0.419935, -0.17495l 0.419935, -0.17495l 0.419935, -0.17495l 0.419935, -0.17495l 0.419935, -0.17495l 0.419935, -0.17495l 0.419935,
 -0.17495" fill="none" stroke="#33cccc" stroke-width="3"/>
<path d="M272.77,325.887l 0.419935, -0.17495l 0.419935, -0.17495l 0.419935, -0.17495l 0.419935, -0.17495l 0.419935, -0.17495l 0.419935, -0.17495l 0.419935, -0.17495l 0.419935, -0.17495l 0.419935, -0.17495l 0.419935, -0.17495l 0.419935, -0.17495l
 0.419935, -0.17495l 0.419935, -0.17495l 0.419935, -0.17495l 0.419935, -0.17495l 0.419935, -0.17495l 0.419935, -0.17495l 0.419935, -0.17495l 0.419935, -0.17495l 0.419935, -0.17495l 0.419935, -0.17495l 0.419935, -0.17495l 0.419935, -0.17495l 0.419935,
 -0.17495l 0.419935, -0.17495l 0.419935, -0.17495l 0.419935, -0.17495l 0.419935, -0.17495l 0.419935, -0.17495l 0.419935, -0.17495l 0.419935, -0.17495l 0.419935, -0.17495l 0.419935, -0.17495l 0.419935, -0.17495l 0.419935, -0.17495l 0.419935, -0.17495l
 0.419935, -0.17495l 0.419935, -0.17495l 0.419935, -0.17495l 0.419935, -0.17495l 0.419935, -0.17495l 0.419935, -0.17495l 0.419935, -0.17495l 0.419935, -0.17495l 0.419935, -0.17495l 0.419935, -0.17495l 0.419935, -0.17495l 0.419935, -0.17495l 0.419935,
 -0.17495" fill="none" stroke="#33cccc" stroke-width="3"/>
<path d="M293.346,317.315l 0.419935, -0.17495l 0.419935, -0.17495l 0.419935, -0.17495l 0.419935, -0.17495l 0.419935, -0.17495l 0.419935, -0.17495l 0.419935, -0.17495l 0.419935, -0.17495l 0.419935, -0.17495l 0.419935, -0.17495l 0.419935, -0.17495l
 0.419935, -0.17495l 0.419935, -0.17495l 0.419935, -0.17495l 0.419935, -0.17495l 0.419935, -0.17495l 0.419935, -0.17495l 0.419935, -0.17495l 0.419935, -0.17495l 0.419935, -0.17495l 0.419935, -0.17495l 0.419935, -0.17495l 0.419935, -0.17495l 0.419935,
 -0.17495l 0.419935, -0.17495l 0.419935, -0.17495l 0.419935, -0.17495l 0.419935, -0.17495l 0.419935, -0.17495l 0.419935, -0.17495l 0.419935, -0.17495l 0.419935, -0.17495l 0.419935, -0.17495l 0.419935, -0.17495l 0.419935, -0.17495l 0.419935, -0.17495l
 0.419935, -0.17495l 0.419935, -0.17495l 0.419935, -0.17495l 0.419935, -0.17495l 0.419935, -0.17495l 0.419935, -0.17495l 0.419935, -0.17495l 0.419935, -0.17495l 0.419935, -0.17495l 0.419935, -0.17495l 0.419935, -0.17495l 0.419935, -0.17495l 0.419935,
 -0.17495" fill="none" stroke="#33cccc" stroke-width="3"/>
<path d="M313.923,308.742l 0.419935, -0.17495l 0.419935, -0.17495l 0.419935, -0.17495l 0.419935, -0.17495l 0.419935, -0.17495l 0.419935, -0.17495l 0.419935, -0.17495l 0.419935, -0.17495l 0.419935, -0.17495l 0.419935, -0.17495l 0.419935, -0.17495l
 0.419935, -0.17495l 0.419935, -0.17495l 0.419935, -0.17495l 0.419935, -0.17495l 0.419935, -0.17495l 0.419935, -0.17495l 0.419935, -0.17495l 0.419935, -0.17495l 0.419935, -0.17495l 0.419935, -0.17495l 0.419935, -0.17495l 0.419935, -0.17495l 0.419935,
 -0.17495l 0.419935, -0.17495l 0.419935, -0.17495l 0.419935, -0.17495l 0.419935, -0.17495l 0.419935, -0.17495l 0.419935, -0.17495l 0.419935, -0.17495l 0.419935, -0.17495l 0.419935, -0.17495l 0.419935, -0.17495l 0.419935, -0.17495l 0.419935, -0.17495l
 0.419935, -0.17495l 0.419935, -0.17495l 0.419935, -0.17495l 0.419935, -0.17495l 0.419935, -0.17495l 0.419935, -0.17495l 0.419935, -0.17495l 0.419935, -0.17495l 0.419935, -0.17495l 0.419935, -0.17495l 0.419935, -0.17495l 0.419935, -0.17495l 0.419935,
 -0.17495" fill="none" stroke="#33cccc" stroke-width="3"/>
<path d="M334.5,300.169l 0.419935, -0.17495l 0.419935, -0.17495l 0.419935, -0.17495l 0.419935, -0.17495l 0.419935, -0.17495l 0.419935, -0.17495l 0.419935, -0.17495l 0.419935, -0.17495l 0.419935, -0.17495l 0.419935, -0.17495l 0.419935, -0.17495l
 0.419935, -0.17495l 0.419935, -0.17495l 0.419935, -0.17495l 0.419935, -0.17495l 0.419935, -0.17495l 0.419935, -0.17495l 0.419935, -0.17495l 0.419935, -0.17495l 0.419935, -0.17495l 0.419935, -0.17495l 0.419935, -0.17495l 0.419935, -0.17495l 0.419935,
 -0.17495l 0.419935, -0.17495l 0.419935, -0.17495l 0.419935, -0.17495l 0.419935, -0.17495l 0.419935, -0.17495l 0.419935, -0.17495l 0.419935, -0.17495l 0.419935, -0.17495l 0.419935, -0.17495l 0.419935, -0.17495l 0.419935, -0.17495l 0.419935, -0.17495l
 0.419935, -0.17495l 0.419935, -0.17495l 0.419935, -0.17495l 0.419935, -0.17495l 0.419935, -0.17495l 0.419935, -0.17495l 0.419935, -0.17495l 0.419935, -0.17495l 0.419935, -0.17495l 0.419935, -0.17495l 0.419935, -0.17495l 0.419935, -0.17495l 0.419935,
 -0.17495" fill="none" stroke="#33cccc" stroke-width="3"/>
<path d="M355.077,291.597l 0.419935, -0.17495l 0.419935, -0.17495l 0.419935, -0.17495l 0.419935, -0.17495l 0.419935, -0.17495l 0.419935, -0.17495l 0.419935, -0.17495l 0.419935, -0.17495l 0.419935, -0.17495l 0.419935, -0.17495l 0.419935, -0.17495l
 0.419935, -0.17495l 0.419935, -0.17495l 0.419935, -0.17495l 0.419935, -0.17495l 0.419935, -0.17495l 0.419935, -0.17495l 0.419935, -0.17495l 0.419935, -0.17495l 0.419935, -0.17495l 0.419935, -0.17495l 0.419935, -0.17495l 0.419935, -0.17495l 0.419935,
 -0.17495l 0.419935, -0.17495l 0.419935, -0.17495l 0.419935, -0.17495l 0.419935, -0.17495l 0.419935, -0.17495l 0.419935, -0.17495l 0.419935, -0.17495l 0.419935, -0.17495l 0.419935, -0.17495l 0.419935, -0.17495l 0.419935, -0.17495l 0.419935, -0.17495l
 0.419935, -0.17495l 0.419935, -0.17495l 0.419935, -0.17495l 0.419935, -0.17495l 0.419935, -0.17495l 0.419935, -0.17495l 0.419935, -0.17495l 0.419935, -0.17495l 0.419935, -0.17495l 0.419935, -0.17495l 0.419935, -0.17495l 0.419935, -0.17495l 0.419935,
 -0.17495" fill="none" stroke="#33cccc" stroke-width="3"/>
<path d="M375.654,283.024l 0.419935, -0.17495l 0.419935, -0.17495l 0.419935, -0.17495l 0.419935, -0.17495l 0.419935, -0.17495l 0.419935, -0.17495l 0.419935, -0.17495l 0.419935, -0.17495l 0.419935, -0.17495l 0.419935, -0.17495l 0.419935, -0.17495l
 0.419935, -0.17495l 0.419935, -0.17495l 0.419935, -0.17495l 0.419935, -0.17495l 0.419935, -0.17495l 0.419935, -0.17495l 0.419935, -0.17495l 0.419935, -0.17495l 0.419935, -0.17495l 0.419935, -0.17495l 0.419935, -0.17495l 0.419935, -0.17495l 0.419935,
 -0.17495l 0.419935, -0.17495l 0.419935, -0.17495l 0.419935, -0.17495l 0.419935, -0.17495l 0.419935, -0.17495l 0.419935, -0.17495l 0.419935, -0.17495l 0.419935, -0.17495l 0.419935, -0.17495l 0.419935, -0.17495l 0.419935, -0.17495l 0.419935, -0.17495l
 0.419935, -0.17495l 0.419935, -0.17495l 0.419935, -0.17495l 0.419935, -0.17495l 0.419935, -0.17495l 0.419935, -0.17495l 0.419935, -0.17495l 0.419935, -0.17495l 0.419935, -0.17495l 0.419935, -0.17495l 0.419935, -0.17495l 0.419935, -0.17495l 0.419935,
 -0.17495" fill="none" stroke="#33cccc" stroke-width="3"/>
<path d="M396.23,274.452l 0.419935, -0.17495l 0.419935, -0.17495l 0.419935, -0.17495l 0.419935, -0.17495l 0.419935, -0.17495l 0.419935, -0.17495l 0.419935, -0.17495l 0.419935, -0.17495l 0.419935, -0.17495l 0.419935, -0.17495l 0.419935, -0.17495l
 0.419935, -0.17495l 0.419935, -0.17495l 0.419935, -0.17495l 0.419935, -0.17495l 0.419935, -0.17495l 0.419935, -0.17495l 0.419935, -0.17495l 0.419935, -0.17495l 0.419935, -0.17495l 0.419935, -0.17495l 0.419935, -0.17495l 0.419935, -0.17495l 0.419935,
 -0.17495l 0.419935, -0.17495l 0.419935, -0.17495l 0.419935, -0.17495l 0.419935, -0.17495l 0.419935, -0.17495l 0.419935, -0.17495l 0.419935, -0.17495l 0.419935, -0.17495l 0.419935, -0.17495l 0.419935, -0.17495l 0.419935, -0.17495l 0.419935, -0.17495l
 0.419935, -0.17495l 0.419935, -0.17495l 0.419935, -0.17495l 0.419935, -0.17495l 0.419935, -0.17495l 0.419935, -0.17495l 0.419935, -0.17495l 0.419935, -0.17495l 0.419935, -0.17495l 0.419935, -0.17495l 0.419935, -0.17495l 0.419935, -0.17495l 0.419935,
 -0.17495" fill="none" stroke="#33cccc" stroke-width="3"/>
<path d="M416.807,265.879l 0.419935, -0.17495l 0.419935, -0.17495l 0.419935, -0.17495l 0.419935, -0.17495l 0.419935, -0.17495l 0.419935, -0.17495l 0.419935, -0.17495l 0.419935, -0.17495l 0.419935, -0.17495l 0.419935, -0.17495l 0.419935, -0.17495l
 0.419935, -0.17495l 0.419935, -0.17495l 0.419935, -0.17495l 0.419935, -0.17495l 0.419935, -0.17495l 0.419935, -0.17495l 0.419935, -0.17495l 0.419935, -0.17495l 0.419935, -0.17495l 0.419935, -0.17495l 0.419935, -0.17495l 0.419935, -0.17495l 0.419935,
 -0.17495l 0.419935, -0.17495l 0.419935, -0.17495l 0.419935, -0.17495l 0.419935, -0.17495l 0.419935, -0.17495l 0.419935, -0.17495l 0.419935, -0.17495l 0.419935, -0.17495l 0.419935, -0.17495l 0.419935, -0.17495l 0.419935, -0.17495l 0.419935, -0.17495l
 0.419935, -0.17495l 0.419935, -0.17495l 0.419935, -0.17495l 0.419935, -0.17495l 0.419935, -0.17495l 0.419935, -0.17495l 0.419935, -0.17495l 0.419935, -0.17495l 0.419935, -0.17495l 0.419935, -0.17495l 0.419935, -0.17495l 0.419935, -0.17495l 0.419935,
 -0.17495" fill="none" stroke="#33cccc" stroke-width="3"/>
<path d="M437.384,257.307l 0.419935, -0.17495l 0.419935, -0.17495l 0.419935, -0.17495l 0.419935, -0.17495l 0.419935, -0.17495l 0.419935, -0.17495l 0.419935, -0.17495l 0.419935, -0.17495l 0.419935, -0.17495l 0.419935, -0.17495l 0.419935, -0.17495l
 0.419935, -0.17495l 0.419935, -0.17495l 0.419935, -0.17495l 0.419935, -0.17495l 0.419935, -0.17495l 0.419935, -0.17495l 0.419935, -0.17495l 0.419935, -0.17495l 0.419935, -0.17495l 0.419935, -0.17495l 0.419935, -0.17495l 0.419935, -0.17495l 0.419935,
 -0.17495l 0.419935, -0.17495l 0.419935, -0.17495l 0.419935, -0.17495l 0.419935, -0.17495l 0.419935, -0.17495l 0.419935, -0.17495l 0.419935, -0.17495l 0.419935, -0.17495l 0.419935, -0.17495l 0.419935, -0.17495l 0.419935, -0.17495l 0.419935, -0.17495l
 0.419935, -0.17495l 0.419935, -0.17495l 0.419935, -0.17495l 0.419935, -0.17495l 0.419935, -0.17495l 0.419935, -0.17495l 0.419935, -0.17495l 0.419935, -0.17495l 0.419935, -0.17495l 0.419935, -0.17495l 0.419935, -0.17495l 0.419935, -0.17495l 0.419935,
 -0.17495" fill="none" stroke="#33cccc" stroke-width="3"/>
<path d="M457.961,248.734l 0.419935, -0.17495l 0.419935, -0.17495l 0.419935, -0.17495l 0.419935, -0.17495l 0.419935, -0.17495l 0.419935, -0.17495l 0.419935, -0.17495l 0.419935, -0.17495l 0.419935, -0.17495l 0.419935, -0.17495l 0.419935, -0.17495l
 0.419935, -0.17495l 0.419935, -0.17495l 0.419935, -0.17495l 0.419935, -0.17495l 0.419935, -0.17495l 0.419935, -0.17495l 0.419935, -0.17495l 0.419935, -0.17495l 0.419935, -0.17495l 0.419935, -0.17495l 0.419935, -0.17495l 0.419935, -0.17495l 0.419935,
 -0.17495l 0.419935, -0.17495l 0.419935, -0.17495l 0.419935, -0.17495l 0.419935, -0.17495l 0.419935, -0.17495l 0.419935, -0.17495l 0.419935, -0.17495l 0.419935, -0.17495l 0.419935, -0.17495l 0.419935, -0.17495l 0.419935, -0.17495l 0.419935, -0.17495l
 0.419935, -0.17495l 0.419935, -0.17495l 0.419935, -0.17495l 0.419935, -0.17495l 0.419935, -0.17495l 0.419935, -0.17495l 0.419935, -0.17495l 0.419935, -0.17495l 0.419935, -0.17495l 0.419935, -0.17495l 0.419935, -0.17495l 0.419935, -0.17495l 0.419935,
 -0.17495" fill="none" stroke="#33cccc" stroke-width="3"/>
<path d="M478.538,240.162l 0.419935, -0.17495l 0.419935, -0.17495l 0.419935, -0.17495l 0.419935, -0.17495l 0.419935, -0.17495l 0.419935, -0.17495l 0.419935, -0.17495l 0.419935, -0.17495l 0.419935, -0.17495l 0.419935, -0.17495l 0.419935, -0.17495l
 0.419935, -0.17495l 0.419935, -0.17495l 0.419935, -0.17495l 0.419935, -0.17495l 0.419935, -0.17495l 0.419935, -0.17495l 0.419935, -0.17495l 0.419935, -0.17495l 0.419935, -0.17495l 0.419935, -0.17495l 0.419935, -0.17495l 0.419935, -0.17495l 0.419935,
 -0.17495l 0.419935, -0.17495l 0.419935, -0.17495l 0.419935, -0.17495l 0.419935, -0.17495l 0.419935, -0.17495l 0.419935, -0.17495l 0.419935, -0.17495l 0.419935, -0.17495l 0.419935, -0.17495l 0.419935, -0.17495l 0.419935, -0.17495l 0.419935, -0.17495l
 0.419935, -0.17495l 0.419935, -0.17495l 0.419935, -0.17495l 0.419935, -0.17495l 0.419935, -0.17495l 0.419935, -0.17495l 0.419935, -0.17495l 0.419935, -0.17495l 0.419935, -0.17495l 0.419935, -0.17495l 0.419935, -0.17495l 0.419935, -0.17495l 0.419935,
 -0.17495" fill="none" stroke="#33cccc" stroke-width="3"/>
<path d="M499.114,231.589l 0.419935, -0.17495l 0.419935, -0.17495l 0.419935, -0.17495l 0.419935, -0.17495l 0.419935, -0.17495l 0.419935, -0.17495l 0.419935, -0.17495l 0.419935, -0.17495l 0.419935, -0.17495l 0.419935, -0.17495l 0.419935, -0.17495l
 0.419935, -0.17495l 0.419935, -0.17495l 0.419935, -0.17495l 0.419935, -0.17495l 0.419935, -0.17495l 0.419935, -0.17495l 0.419935, -0.17495l 0.419935, -0.17495l 0.419935, -0.17495l 0.419935, -0.17495l 0.419935, -0.17495l 0.419935, -0.17495l 0.419935,
 -0.17495l 0.419935, -0.17495l 0.419935, -0.17495l 0.419935, -0.17495l 0.419935, -0.17495l 0.419935, -0.17495l 0.419935, -0.17495l 0.419935, -0.17495l 0.419935, -0.17495l 0.419935, -0.17495l 0.419935, -0.17495l 0.419935, -0.17495l 0.419935, -0.17495l
 0.419935, -0.17495l 0.419935, -0.17495l 0.419935, -0.17495l 0.419935, -0.17495l 0.419935, -0.17495l 0.419935, -0.17495l 0.419935, -0.17495l 0.419935, -0.17495l 0.419935, -0.17495l 0.419935, -0.17495l 0.419935, -0.17495l 0.419935, -0.17495l 0.419935,
 -0.17495" fill="none" stroke="#33cccc" stroke-width="3"/>
<path d="M519.691,223.017l 0.419935, -0.17495l 0.419935, -0.17495l 0.419935, -0.17495l 0.419935, -0.17495l 0.419935, -0.17495l 0.419935, -0.17495l 0.419935, -0.17495l 0.419935, -0.17495l 0.419935, -0.17495l 0.419935, -0.17495l 0.419935, -0.17495l
 0.419935, -0.17495l 0.419935, -0.17495l 0.419935, -0.17495l 0.419935, -0.17495l 0.419935, -0.17495l 0.419935, -0.17495l 0.419935, -0.17495l 0.419935, -0.17495l 0.419935, -0.17495l 0.419935, -0.17495l 0.419935, -0.17495l 0.419935, -0.17495l 0.419935,
 -0.17495l 0.419935, -0.17495l 0.419935, -0.17495l 0.419935, -0.17495l 0.419935, -0.17495l 0.419935, -0.17495l 0.419935, -0.17495l 0.419935, -0.17495l 0.419935, -0.17495l 0.419935, -0.17495l 0.419935, -0.17495l 0.419935, -0.17495l 0.419935, -0.17495l
 0.419935, -0.17495l 0.419935, -0.17495l 0.419935, -0.17495l 0.419935, -0.17495l 0.419935, -0.17495l 0.419935, -0.17495l 0.419935, -0.17495l 0.419935, -0.17495l 0.419935, -0.17495l 0.419935, -0.17495l 0.419935, -0.17495l 0.419935, -0.17495l 0.419935,
 -0.17495" fill="none" stroke="#33cccc" stroke-width="3"/>
<path d="M540.268,214.444l 0.419935, -0.17495l 0.419935, -0.17495l 0.419935, -0.17495l 0.419935, -0.17495l 0.419935, -0.17495l 0.419935, -0.17495l 0.419935, -0.17495l 0.419935, -0.17495l 0.419935, -0.17495l 0.419935, -0.17495l 0.419935, -0.17495l
 0.419935, -0.17495l 0.419935, -0.17495l 0.419935, -0.17495l 0.419935, -0.17495l 0.419935, -0.17495l 0.419935, -0.17495l 0.419935, -0.17495l 0.419935, -0.17495" fill="none" stroke="#33cccc" stroke-width="3"/>
<path d="M128.732,371.488l 0.419935, -0.107263l 0.419935, -0.107407l 0.419935, -0.107552l 0.419935, -0.107696l 0.419935, -0.10784l 0.419935, -0.107984l 0.419935, -0.108128l 0.419935, -0.108273l 0.419935, -0.108417l 0.419935, -0.108561l 0.419935,
 -0.108705l 0.419935, -0.10885l 0.419935, -0.108994l 0.419935, -0.109138l 0.419935, -0.109282l 0.419935, -0.109427l 0.419935, -0.109571l 0.419935, -0.109715l 0.419935, -0.109859l 0.419935, -0.110003l 0.419935, -0.110148l 0.419935, -0.110292l
 0.419935, -0.110436l 0.419935, -0.11058l 0.419935, -0.110725l 0.419935, -0.110869l 0.419935, -0.111013l 0.419935, -0.111157l 0.419935, -0.111301l 0.419935, -0.111446l 0.419935, -0.11159l 0.419935, -0.111734l 0.419935, -0.111878l 0.419935, -0.112023l
 0.419935, -0.112167l 0.419935, -0.112311l 0.419935, -0.112455l 0.419935, -0.1126l 0.419935, -0.112744l 0.419935, -0.112888l 0.419935, -0.113032l 0.419935, -0.113176l 0.419935, -0.113321l 0.419935, -0.113465l 0.419935, -0.113609l 0.419935, -0.113753l
 0.419935, -0.113898l 0.419935, -0.114042l 0.419935, -0.114186" fill="none" stroke="#ff0066" stroke-width="3"/>
<path d="M149.309,366.063l 0.419935, -0.11433l 0.419935, -0.114475l 0.419935, -0.114619l 0.419935, -0.114763l 0.419935, -0.114907l 0.419935, -0.115051l 0.419935, -0.115196l 0.419935, -0.11534l 0.419935, -0.115484l 0.419935, -0.115628l 0.419935,
 -0.115773l 0.419935, -0.115917l 0.419935, -0.116061l 0.419935, -0.116205l 0.419935, -0.11635l 0.419935, -0.116494l 0.419935, -0.116638l 0.419935, -0.116782l 0.419935, -0.116926l 0.419935, -0.117071l 0.419935, -0.117215l 0.419935, -0.117359l
 0.419935, -0.117503l 0.419935, -0.117648l 0.419935, -0.117792l 0.419935, -0.117936l 0.419935, -0.11808l 0.419935, -0.118225l 0.419935, -0.118369l 0.419935, -0.118513l 0.419935, -0.118657l 0.419935, -0.118801l 0.419935, -0.118946l 0.419935, -0.11909l
 0.419935, -0.119234l 0.419935, -0.119378l 0.419935, -0.119523l 0.419935, -0.119667l 0.419935, -0.119811l 0.419935, -0.119955l 0.419935, -0.120099l 0.419935, -0.120244l 0.419935, -0.120388l 0.419935, -0.120532l 0.419935, -0.120676l 0.419935,
 -0.120821l 0.419935, -0.120965l 0.419935, -0.121109l 0.419935, -0.121253" fill="none" stroke="#ff0066" stroke-width="3"/>
<path d="M169.886,360.291l 0.419935, -0.121398l 0.419935, -0.121542l 0.419935, -0.121686l 0.419935, -0.12183l 0.419935, -0.121974l 0.419935, -0.122119l 0.419935, -0.122263l 0.419935, -0.122407l 0.419935, -0.122551l 0.419935, -0.122696l 0.419935,
 -0.12284l 0.419935, -0.122984l 0.419935, -0.123128l 0.419935, -0.123273l 0.419935, -0.123417l 0.419935, -0.123561l 0.419935, -0.123705l 0.419935, -0.123849l 0.419935, -0.123994l 0.419935, -0.124138l 0.419935, -0.124282l 0.419935, -0.124426l
 0.419935, -0.124571l 0.419935, -0.124715l 0.419935, -0.124859l 0.419935, -0.125003l 0.419935, -0.125148l 0.419935, -0.125292l 0.419935, -0.125436l 0.419935, -0.12558l 0.419935, -0.125724l 0.419935, -0.125869l 0.419935, -0.126013l 0.419935,
 -0.126157l 0.419935, -0.126301l 0.419935, -0.126446l 0.419935, -0.12659l 0.419935, -0.126734l 0.419935, -0.126878l 0.419935, -0.127023l 0.419935, -0.127167l 0.419935, -0.127311l 0.419935, -0.127455l 0.419935, -0.127599l 0.419935, -0.127744l
 0.419935, -0.127888l 0.419935, -0.128032l 0.419935, -0.128176l 0.419935, -0.128321" fill="none" stroke="#ff0066" stroke-width="3"/>
<path d="M190.462,354.173l 0.419935, -0.128465l 0.419935, -0.128609l 0.419935, -0.128753l 0.419935, -0.128898l 0.419935, -0.129042l 0.419935, -0.129186l 0.419935, -0.12933l 0.419935, -0.129474l 0.419935, -0.129619l 0.419935, -0.129763l 0.419935,
 -0.129907l 0.419935, -0.130051l 0.419935, -0.130196l 0.419935, -0.13034l 0.419935, -0.130484l 0.419935, -0.130628l 0.419935, -0.130772l 0.419935, -0.130917l 0.419935, -0.131061l 0.419935, -0.131205l 0.419935, -0.131349l 0.419935, -0.131494l
 0.419935, -0.131638l 0.419935, -0.131782l 0.419935, -0.131926l 0.419935, -0.132071l 0.419935, -0.132215l 0.419935, -0.132359l 0.419935, -0.132503l 0.419935, -0.132647l 0.419935, -0.132792l 0.419935, -0.132936l 0.419935, -0.13308l 0.419935,
 -0.133224l 0.419935, -0.133369l 0.419935, -0.133513l 0.419935, -0.133657l 0.419935, -0.133801l 0.419935, -0.133946l 0.419935, -0.13409l 0.419935, -0.134234l 0.419935, -0.134378l 0.419935, -0.134522l 0.419935, -0.134667l 0.419935, -0.134811l
 0.419935, -0.134955l 0.419935, -0.135099l 0.419935, -0.135244l 0.419935, -0.135388" fill="none" stroke="#ff0066" stroke-width="3"/>
<path d="M211.039,347.709l 0.419935, -0.135532l 0.419935, -0.135676l 0.419935, -0.135821l 0.419935, -0.135965l 0.419935, -0.136109l 0.419935, -0.136253l 0.419935, -0.136397l 0.419935, -0.136542l 0.419935, -0.136686l 0.419935, -0.13683l 0.419935,
 -0.136974l 0.419935, -0.137119l 0.419935, -0.137263l 0.419935, -0.137407l 0.419935, -0.137551l 0.419935, -0.137696l 0.419935, -0.13784l 0.419935, -0.137984l 0.419935, -0.138128l 0.419935, -0.138272l 0.419935, -0.138417l 0.419935, -0.138561l
 0.419935, -0.138705l 0.419935, -0.138849l 0.419935, -0.138994l 0.419935, -0.139138l 0.419935, -0.139282l 0.419935, -0.139426l 0.419935, -0.13957l 0.419935, -0.139715l 0.419935, -0.139859l 0.419935, -0.140003l 0.419935, -0.140147l 0.419935,
 -0.140292l 0.419935, -0.140436l 0.419935, -0.14058l 0.419935, -0.140724l 0.419935, -0.140869l 0.419935, -0.141013l 0.419935, -0.141157l 0.419935, -0.141301l 0.419935, -0.141445l 0.419935, -0.14159l 0.419935, -0.141734l 0.419935, -0.141878l 0.419935,
 -0.142022l 0.419935, -0.142167l 0.419935, -0.142311l 0.419935, -0.142455" fill="none" stroke="#ff0066" stroke-width="3"/>
<path d="M231.616,340.898l 0.419935, -0.142599l 0.419935, -0.142744l 0.419935, -0.142888l 0.419935, -0.143032l 0.419935, -0.143176l 0.419935, -0.14332l 0.419935, -0.143465l 0.419935, -0.143609l 0.419935, -0.143753l 0.419935, -0.143897l 0.419935,
 -0.144042l 0.419935, -0.144186l 0.419935, -0.14433l 0.419935, -0.144474l 0.419935, -0.144619l 0.419935, -0.144763l 0.419935, -0.144907l 0.419935, -0.145051l 0.419935, -0.145195l 0.419935, -0.14534l 0.419935, -0.145484l 0.419935, -0.145628l 0.419935,
 -0.145772l 0.419935, -0.145917l 0.419935, -0.146061l 0.419935, -0.146205l 0.419935, -0.146349l 0.419935, -0.146494l 0.419935, -0.146638l 0.419935, -0.146782l 0.419935, -0.146926l 0.419935, -0.14707l 0.419935, -0.147215l 0.419935, -0.147359l
 0.419935, -0.147503l 0.419935, -0.147647l 0.419935, -0.147792l 0.419935, -0.147936l 0.419935, -0.14808l 0.419935, -0.148224l 0.419935, -0.148369l 0.419935, -0.148513l 0.419935, -0.148657l 0.419935, -0.148801l 0.419935, -0.148945l 0.419935, -0.14909l
 0.419935, -0.149234l 0.419935, -0.149378l 0.419935, -0.149522" fill="none" stroke="#ff0066" stroke-width="3"/>
<path d="M252.193,333.741l 0.419935, -0.149667l 0.419935, -0.149811l 0.419935, -0.149955l 0.419935, -0.150099l 0.419935, -0.150243l 0.419935, -0.150388l 0.419935, -0.150532l 0.419935, -0.150676l 0.419935, -0.15082l 0.419935, -0.150965l 0.419935,
 -0.151109l 0.419935, -0.151253l 0.419935, -0.151397l 0.419935, -0.151542l 0.419935, -0.151686l 0.419935, -0.15183l 0.419935, -0.151974l 0.419935, -0.152118l 0.419935, -0.152263l 0.419935, -0.152407l 0.419935, -0.152551l 0.419935, -0.152695l
 0.419935, -0.15284l 0.419935, -0.152984l 0.419935, -0.153128l 0.419935, -0.153272l 0.419935, -0.153417l 0.419935, -0.153561l 0.419935, -0.153705l 0.419935, -0.153849l 0.419935, -0.153993l 0.419935, -0.154138l 0.419935, -0.154282l 0.419935,
 -0.154426l 0.419935, -0.15457l 0.419935, -0.154715l 0.419935, -0.154859l 0.419935, -0.155003l 0.419935, -0.155147l 0.419935, -0.155292l 0.419935, -0.155436l 0.419935, -0.15558l 0.419935, -0.155724l 0.419935, -0.155868l 0.419935, -0.156013l 0.419935,
 -0.156157l 0.419935, -0.156301l 0.419935, -0.156445l 0.419935, -0.15659" fill="none" stroke="#ff0066" stroke-width="3"/>
<path d="M272.77,326.238l 0.419935, -0.156734l 0.419935, -0.156878l 0.419935, -0.157022l 0.419935, -0.157167l 0.419935, -0.157311l 0.419935, -0.157455l 0.419935, -0.157599l 0.419935, -0.157743l 0.419935, -0.157888l 0.419935, -0.158032l 0.419935,
 -0.158176l 0.419935, -0.15832l 0.419935, -0.158465l 0.419935, -0.158609l 0.419935, -0.158753l 0.419935, -0.158897l 0.419935, -0.159041l 0.419935, -0.159186l 0.419935, -0.15933l 0.419935, -0.159474l 0.419935, -0.159618l 0.419935, -0.159763l 0.419935,
 -0.159907l 0.419935, -0.160051l 0.419935, -0.160195l 0.419935, -0.16034l 0.419935, -0.160484l 0.419935, -0.160628l 0.419935, -0.160772l 0.419935, -0.160916l 0.419935, -0.161061l 0.419935, -0.161205l 0.419935, -0.161349l 0.419935, -0.161493l
 0.419935, -0.161638l 0.419935, -0.161782l 0.419935, -0.161926l 0.419935, -0.16207l 0.419935, -0.162215l 0.419935, -0.162359l 0.419935, -0.162503l 0.419935, -0.162647l 0.419935, -0.162791l 0.419935, -0.162936l 0.419935, -0.16308l 0.419935, -0.163224l
 0.419935, -0.163368l 0.419935, -0.163513l 0.419935, -0.163657" fill="none" stroke="#ff0066" stroke-width="3"/>
<path d="M293.346,318.388l 0.419935, -0.163801l 0.419935, -0.163945l 0.419935, -0.16409l 0.419935, -0.164234l 0.419935, -0.164378l 0.419935, -0.164522l 0.419935, -0.164666l 0.419935, -0.164811l 0.419935, -0.164955l 0.419935, -0.165099l 0.419935,
 -0.165243l 0.419935, -0.165388l 0.419935, -0.165532l 0.419935, -0.165676l 0.419935, -0.16582l 0.419935, -0.165965l 0.419935, -0.166109l 0.419935, -0.166253l 0.419935, -0.166397l 0.419935, -0.166541l 0.419935, -0.166686l 0.419935, -0.16683l 0.419935,
 -0.166974l 0.419935, -0.167118l 0.419935, -0.167263l 0.419935, -0.167407l 0.419935, -0.167551l 0.419935, -0.167695l 0.419935, -0.167839l 0.419935, -0.167984l 0.419935, -0.168128l 0.419935, -0.168272l 0.419935, -0.168416l 0.419935, -0.168561l
 0.419935, -0.168705l 0.419935, -0.168849l 0.419935, -0.168993l 0.419935, -0.169138l 0.419935, -0.169282l 0.419935, -0.169426l 0.419935, -0.16957l 0.419935, -0.169714l 0.419935, -0.169859l 0.419935, -0.170003l 0.419935, -0.170147l 0.419935,
 -0.170291l 0.419935, -0.170436l 0.419935, -0.17058l 0.419935, -0.170724" fill="none" stroke="#ff0066" stroke-width="3"/>
<path d="M313.923,310.192l 0.419935, -0.170868l 0.419935, -0.171013l 0.419935, -0.171157l 0.419935, -0.171301l 0.419935, -0.171445l 0.419935, -0.171589l 0.419935, -0.171734l 0.419935, -0.171878l 0.419935, -0.172022l 0.419935, -0.172166l 0.419935,
 -0.172311l 0.419935, -0.172455l 0.419935, -0.172599l 0.419935, -0.172743l 0.419935, -0.172888l 0.419935, -0.173032l 0.419935, -0.173176l 0.419935, -0.17332l 0.419935, -0.173464l 0.419935, -0.173609l 0.419935, -0.173753l 0.419935, -0.173897l
 0.419935, -0.174041l 0.419935, -0.174186l 0.419935, -0.17433l 0.419935, -0.174474l 0.419935, -0.174618l 0.419935, -0.174763l 0.419935, -0.174907l 0.419935, -0.175051l 0.419935, -0.175195l 0.419935, -0.175339l 0.419935, -0.175484l 0.419935,
 -0.175628l 0.419935, -0.175772l 0.419935, -0.175916l 0.419935, -0.176061l 0.419935, -0.176205l 0.419935, -0.176349l 0.419935, -0.176493l 0.419935, -0.176638l 0.419935, -0.176782l 0.419935, -0.176926l 0.419935, -0.17707l 0.419935, -0.177214l
 0.419935, -0.177359l 0.419935, -0.177503l 0.419935, -0.177647l 0.419935, -0.177791" fill="none" stroke="#ff0066" stroke-width="3"/>
<path d="M334.5,301.65l 0.419935, -0.177936l 0.419935, -0.17808l 0.419935, -0.178224l 0.419935, -0.178368l 0.419935, -0.178512l 0.419935, -0.178657l 0.419935, -0.178801l 0.419935, -0.178945l 0.419935, -0.179089l 0.419935, -0.179234l 0.419935,
 -0.179378l 0.419935, -0.179522l 0.419935, -0.179666l 0.419935, -0.179811l 0.419935, -0.179955l 0.419935, -0.180099l 0.419935, -0.180243l 0.419935, -0.180387l 0.419935, -0.180532l 0.419935, -0.180676l 0.419935, -0.18082l 0.419935, -0.180964l
 0.419935, -0.181109l 0.419935, -0.181253l 0.419935, -0.181397l 0.419935, -0.181541l 0.419935, -0.181686l 0.419935, -0.18183l 0.419935, -0.181974l 0.419935, -0.182118l 0.419935, -0.182262l 0.419935, -0.182407l 0.419935, -0.182551l 0.419935,
 -0.182695l 0.419935, -0.182839l 0.419935, -0.182984l 0.419935, -0.183128l 0.419935, -0.183272l 0.419935, -0.183416l 0.419935, -0.183561l 0.419935, -0.183705l 0.419935, -0.183849l 0.419935, -0.183993l 0.419935, -0.184137l 0.419935, -0.184282l
 0.419935, -0.184426l 0.419935, -0.18457l 0.419935, -0.184714l 0.419935, -0.184859" fill="none" stroke="#ff0066" stroke-width="3"/>
<path d="M355.077,292.762l 0.419935, -0.185003l 0.419935, -0.185147l 0.419935, -0.185291l 0.419935, -0.185436l 0.419935, -0.18558l 0.419935, -0.185724l 0.419935, -0.185868l 0.419935, -0.186012l 0.419935, -0.186157l 0.419935, -0.186301l 0.419935,
 -0.186445l 0.419935, -0.186589l 0.419935, -0.186734l 0.419935, -0.186878l 0.419935, -0.187022l 0.419935, -0.187166l 0.419935, -0.18731l 0.419935, -0.187455l 0.419935, -0.187599l 0.419935, -0.187743l 0.419935, -0.187887l 0.419935, -0.188032l
 0.419935, -0.188176l 0.419935, -0.18832l 0.419935, -0.188464l 0.419935, -0.188609l 0.419935, -0.188753l 0.419935, -0.188897l 0.419935, -0.189041l 0.419935, -0.189185l 0.419935, -0.18933l 0.419935, -0.189474l 0.419935, -0.189618l 0.419935, -0.189762l
 0.419935, -0.189907l 0.419935, -0.190051l 0.419935, -0.190195l 0.419935, -0.190339l 0.419935, -0.190484l 0.419935, -0.190628l 0.419935, -0.190772l 0.419935, -0.190916l 0.419935, -0.19106l 0.419935, -0.191205l 0.419935, -0.191349l 0.419935,
 -0.191493l 0.419935, -0.191637l 0.419935, -0.191782l 0.419935, -0.191926" fill="none" stroke="#ff0066" stroke-width="3"/>
<path d="M375.654,283.527l 0.419935, -0.19207l 0.419935, -0.192214l 0.419935, -0.192359l 0.419935, -0.192503l 0.419935, -0.192647l 0.419935, -0.192791l 0.419935, -0.192935l 0.419935, -0.19308l 0.419935, -0.193224l 0.419935, -0.193368l 0.419935,
 -0.193512l 0.419935, -0.193657l 0.419935, -0.193801l 0.419935, -0.193945l 0.419935, -0.194089l 0.419935, -0.194234l 0.419935, -0.194378l 0.419935, -0.194522l 0.419935, -0.194666l 0.419935, -0.19481l 0.419935, -0.194955l 0.419935, -0.195099l
 0.419935, -0.195243l 0.419935, -0.195387l 0.419935, -0.195532l 0.419935, -0.195676l 0.419935, -0.19582l 0.419935, -0.195964l 0.419935, -0.196109l 0.419935, -0.196253l 0.419935, -0.196397l 0.419935, -0.196541l 0.419935, -0.196685l 0.419935, -0.19683l
 0.419935, -0.196974l 0.419935, -0.197118l 0.419935, -0.197262l 0.419935, -0.197407l 0.419935, -0.197551l 0.419935, -0.197695l 0.419935, -0.197839l 0.419935, -0.197983l 0.419935, -0.198128l 0.419935, -0.198272l 0.419935, -0.198416l 0.419935,
 -0.19856l 0.419935, -0.198705l 0.419935, -0.198849l 0.419935, -0.198993" fill="none" stroke="#ff0066" stroke-width="3"/>
<path d="M396.23,273.946l 0.419935, -0.199137l 0.419935, -0.199282l 0.419935, -0.199426l 0.419935, -0.19957l 0.419935, -0.199714l 0.419935, -0.199858l 0.419935, -0.200003l 0.419935, -0.200147l 0.419935, -0.200291l 0.419935, -0.200435l 0.419935,
 -0.20058l 0.419935, -0.200724l 0.419935, -0.200868l 0.419935, -0.201012l 0.419935, -0.201157l 0.419935, -0.201301l 0.419935, -0.201445l 0.419935, -0.201589l 0.419935, -0.201733l 0.419935, -0.201878l 0.419935, -0.202022l 0.419935, -0.202166l
 0.419935, -0.20231l 0.419935, -0.202455l 0.419935, -0.202599l 0.419935, -0.202743l 0.419935, -0.202887l 0.419935, -0.203032l 0.419935, -0.203176l 0.419935, -0.20332l 0.419935, -0.203464l 0.419935, -0.203608l 0.419935, -0.203753l 0.419935, -0.203897l
 0.419935, -0.204041l 0.419935, -0.204185l 0.419935, -0.20433l 0.419935, -0.204474l 0.419935, -0.204618l 0.419935, -0.204762l 0.419935, -0.204907l 0.419935, -0.205051l 0.419935, -0.205195l 0.419935, -0.205339l 0.419935, -0.205483l 0.419935,
 -0.205628l 0.419935, -0.205772l 0.419935, -0.205916l 0.419935, -0.20606" fill="none" stroke="#ff0066" stroke-width="3"/>
<path d="M416.807,264.019l 0.419935, -0.206205l 0.419935, -0.206349l 0.419935, -0.206493l 0.419935, -0.206637l 0.419935, -0.206781l 0.419935, -0.206926l 0.419935, -0.20707l 0.419935, -0.207214l 0.419935, -0.207358l 0.419935, -0.207503l 0.419935,
 -0.207647l 0.419935, -0.207791l 0.419935, -0.207935l 0.419935, -0.20808l 0.419935, -0.208224l 0.419935, -0.208368l 0.419935, -0.208512l 0.419935, -0.208656l 0.419935, -0.208801l 0.419935, -0.208945l 0.419935, -0.209089l 0.419935, -0.209233l
 0.419935, -0.209378l 0.419935, -0.209522l 0.419935, -0.209666l 0.419935, -0.20981l 0.419935, -0.209955l 0.419935, -0.210099l 0.419935, -0.210243l 0.419935, -0.210387l 0.419935, -0.210531l 0.419935, -0.210676l 0.419935, -0.21082l 0.419935, -0.210964l
 0.419935, -0.211108l 0.419935, -0.211253l 0.419935, -0.211397l 0.419935, -0.211541l 0.419935, -0.211685l 0.419935, -0.21183l 0.419935, -0.211974l 0.419935, -0.212118l 0.419935, -0.212262l 0.419935, -0.212406l 0.419935, -0.212551l 0.419935,
 -0.212695l 0.419935, -0.212839l 0.419935, -0.212983l 0.419935, -0.213128" fill="none" stroke="#ff0066" stroke-width="3"/>
<path d="M437.384,253.745l 0.419935, -0.213272l 0.419935, -0.213416l 0.419935, -0.21356l 0.419935, -0.213705l 0.419935, -0.213849l 0.419935, -0.213993l 0.419935, -0.214137l 0.419935, -0.214281l 0.419935, -0.214426l 0.419935, -0.21457l 0.419935,
 -0.214714l 0.419935, -0.214858l 0.419935, -0.215003l 0.419935, -0.215147l 0.419935, -0.215291l 0.419935, -0.215435l 0.419935, -0.215579l 0.419935, -0.215724l 0.419935, -0.215868l 0.419935, -0.216012l 0.419935, -0.216156l 0.419935, -0.216301l
 0.419935, -0.216445l 0.419935, -0.216589l 0.419935, -0.216733l 0.419935, -0.216878l 0.419935, -0.217022l 0.419935, -0.217166l 0.419935, -0.21731l 0.419935, -0.217454l 0.419935, -0.217599l 0.419935, -0.217743l 0.419935, -0.217887l 0.419935,
 -0.218031l 0.419935, -0.218176l 0.419935, -0.21832l 0.419935, -0.218464l 0.419935, -0.218608l 0.419935, -0.218753l 0.419935, -0.218897l 0.419935, -0.219041l 0.419935, -0.219185l 0.419935, -0.219329l 0.419935, -0.219474l 0.419935, -0.219618l
 0.419935, -0.219762l 0.419935, -0.219906l 0.419935, -0.220051l 0.419935, -0.220195" fill="none" stroke="#ff0066" stroke-width="3"/>
<path d="M457.961,243.125l 0.419935, -0.220339l 0.419935, -0.220483l 0.419935, -0.220628l 0.419935, -0.220772l 0.419935, -0.220916l 0.419935, -0.22106l 0.419935, -0.221204l 0.419935, -0.221349l 0.419935, -0.221493l 0.419935, -0.221637l 0.419935,
 -0.221781l 0.419935, -0.221926l 0.419935, -0.22207l 0.419935, -0.222214l 0.419935, -0.222358l 0.419935, -0.222503l 0.419935, -0.222647l 0.419935, -0.222791l 0.419935, -0.222935l 0.419935, -0.223079l 0.419935, -0.223224l 0.419935, -0.223368l
 0.419935, -0.223512l 0.419935, -0.223656l 0.419935, -0.223801l 0.419935, -0.223945l 0.419935, -0.224089l 0.419935, -0.224233l 0.419935, -0.224377l 0.419935, -0.224522l 0.419935, -0.224666l 0.419935, -0.22481l 0.419935, -0.224954l 0.419935,
 -0.225099l 0.419935, -0.225243l 0.419935, -0.225387l 0.419935, -0.225531l 0.419935, -0.225676l 0.419935, -0.22582l 0.419935, -0.225964l 0.419935, -0.226108l 0.419935, -0.226252l 0.419935, -0.226397l 0.419935, -0.226541l 0.419935, -0.226685l
 0.419935, -0.226829l 0.419935, -0.226974l 0.419935, -0.227118l 0.419935, -0.227262" fill="none" stroke="#ff0066" stroke-width="3"/>
<path d="M478.538,232.159l 0.419935, -0.227406l 0.419935, -0.227551l 0.419935, -0.227695l 0.419935, -0.227839l 0.419935, -0.227983l 0.419935, -0.228127l 0.419935, -0.228272l 0.419935, -0.228416l 0.419935, -0.22856l 0.419935, -0.228704l 0.419935,
 -0.228849l 0.419935, -0.228993l 0.419935, -0.229137l 0.419935, -0.229281l 0.419935, -0.229426l 0.419935, -0.22957l 0.419935, -0.229714l 0.419935, -0.229858l 0.419935, -0.230002l 0.419935, -0.230147l 0.419935, -0.230291l 0.419935, -0.230435l
 0.419935, -0.230579l 0.419935, -0.230724l 0.419935, -0.230868l 0.419935, -0.231012l 0.419935, -0.231156l 0.419935, -0.231301l 0.419935, -0.231445l 0.419935, -0.231589l 0.419935, -0.231733l 0.419935, -0.231877l 0.419935, -0.232022l 0.419935,
 -0.232166l 0.419935, -0.23231l 0.419935, -0.232454l 0.419935, -0.232599l 0.419935, -0.232743l 0.419935, -0.232887l 0.419935, -0.233031l 0.419935, -0.233176l 0.419935, -0.23332l 0.419935, -0.233464l 0.419935, -0.233608l 0.419935, -0.233752l 0.419935,
 -0.233897l 0.419935, -0.234041l 0.419935, -0.234185l 0.419935, -0.234329" fill="none" stroke="#ff0066" stroke-width="3"/>
<path d="M499.114,220.846l 0.419935, -0.234474l 0.419935, -0.234618l 0.419935, -0.234762l 0.419935, -0.234906l 0.419935, -0.23505l 0.419935, -0.235195l 0.419935, -0.235339l 0.419935, -0.235483l 0.419935, -0.235627l 0.419935, -0.235772l 0.419935,
 -0.235916l 0.419935, -0.23606l 0.419935, -0.236204l 0.419935, -0.236349l 0.419935, -0.236493l 0.419935, -0.236637l 0.419935, -0.236781l 0.419935, -0.236925l 0.419935, -0.23707l 0.419935, -0.237214l 0.419935, -0.237358l 0.419935, -0.237502l 0.419935,
 -0.237647l 0.419935, -0.237791l 0.419935, -0.237935l 0.419935, -0.238079l 0.419935, -0.238224l 0.419935, -0.238368l 0.419935, -0.238512l 0.419935, -0.238656l 0.419935, -0.2388l 0.419935, -0.238945l 0.419935, -0.239089l 0.419935, -0.239233l 0.419935,
 -0.239377l 0.419935, -0.239522l 0.419935, -0.239666l 0.419935, -0.23981l 0.419935, -0.239954l 0.419935, -0.240099l 0.419935, -0.240243l 0.419935, -0.240387l 0.419935, -0.240531l 0.419935, -0.240675l 0.419935, -0.24082l 0.419935, -0.240964l 0.419935,
 -0.241108l 0.419935, -0.241252l 0.419935, -0.241397" fill="none" stroke="#ff0066" stroke-width="3"/>
<path d="M519.691,209.187l 0.419935, -0.241541l 0.419935, -0.241685l 0.419935, -0.241829l 0.419935, -0.241974l 0.419935, -0.242118l 0.419935, -0.242262l 0.419935, -0.242406l 0.419935, -0.24255l 0.419935, -0.242695l 0.419935, -0.242839l 0.419935,
 -0.242983l 0.419935, -0.243127l 0.419935, -0.243272l 0.419935, -0.243416l 0.419935, -0.24356l 0.419935, -0.243704l 0.419935, -0.243849l 0.419935, -0.243993l 0.419935, -0.244137l 0.419935, -0.244281l 0.419935, -0.244425l 0.419935, -0.24457l 0.419935,
 -0.244714l 0.419935, -0.244858l 0.419935, -0.245002l 0.419935, -0.245147l 0.419935, -0.245291l 0.419935, -0.245435l 0.419935, -0.245579l 0.419935, -0.245723l 0.419935, -0.245868l 0.419935, -0.246012l 0.419935, -0.246156l 0.419935, -0.2463l 0.419935,
 -0.246445l 0.419935, -0.246589l 0.419935, -0.246733l 0.419935, -0.246877l 0.419935, -0.247022l 0.419935, -0.247166l 0.419935, -0.24731l 0.419935, -0.247454l 0.419935, -0.247598l 0.419935, -0.247743l 0.419935, -0.247887l 0.419935, -0.248031l
 0.419935, -0.248175l 0.419935, -0.24832l 0.419935, -0.248464" fill="none" stroke="#ff0066" stroke-width="3"/>
<path d="M540.268,197.182l 0.419935, -0.248608l 0.419935, -0.248752l 0.419935, -0.248897l 0.419935, -0.249041l 0.419935, -0.249185l 0.419935, -0.249329l 0.419935, -0.249473l 0.419935, -0.249618l 0.419935, -0.249762l 0.419935, -0.249906l 0.419935,
 -0.25005l 0.419935, -0.250195l 0.419935, -0.250339l 0.419935, -0.250483l 0.419935, -0.250627l 0.419935, -0.250772l 0.419935, -0.250916l 0.419935, -0.25106l 0.419935, -0.251204" fill="none" stroke="#ff0066" stroke-width="3"/>
<path d="M248.503,21.4167h 179.972" fill="none" stroke="#999999" stroke-width="7"/>
<text xml:space="preserve" x="360.607" y="50.7193" fill="black" font-size="16.0105" font-family="Helvetica"> with EMC</text>
<text xml:space="preserve" x="352.717" y="50.7193" fill="black" font-size="16.0105" font-family="Times">&#0947;</text>
<text xml:space="preserve" x="344.828" y="50.7193" fill="black" font-size="16.0105" font-family="Times">&#0947;</text>
<text xml:space="preserve" x="336.938" y="50.7193" fill="black" font-size="16.0105" font-family="Times">&#0947;</text>
<text xml:space="preserve" x="331.866" y="50.7193" fill="black" font-size="16.0105" font-family="Helvetica"> </text>
<text xml:space="preserve" x="316.65" y="50.7193" fill="black" font-size="16.0105" font-family="Times">&#8594;</text>
<text xml:space="preserve" x="311.578" y="50.7193" fill="black" font-size="16.0105" font-family="Helvetica"> </text>
<text xml:space="preserve" x="303.689" y="50.7193" fill="black" font-size="16.0105" font-family="Times">&#0947;</text>
<text xml:space="preserve" x="298.053" y="45.0838" fill="black" font-size="10.8403" font-family="Helvetica">0</text>
<text xml:space="preserve" x="289.6" y="50.7193" fill="black" font-size="16.0105" font-family="Times">&#0960;</text>
<text xml:space="preserve" x="284.528" y="50.7193" fill="black" font-size="16.0105" font-family="Helvetica"> </text>
<text xml:space="preserve" x="269.312" y="50.7193" fill="black" font-size="16.0105" font-family="Times">&#8594;</text>
<text xml:space="preserve" x="264.24" y="50.7193" fill="black" font-size="16.0105" font-family="Helvetica"> </text>
<text xml:space="preserve" x="252.969" y="50.7193" fill="black" font-size="16.0105" font-family="Times">&#0969;</text>
<text xml:space="preserve" x="128.989" y="50.7193" fill="black" font-size="16.0105" font-family="Helvetica"> = 13 TeV (EG1), </text>
<text xml:space="preserve" x="120.536" y="50.7193" fill="black" font-size="16.0105" font-family="Helvetica" font-style="oblique">s</text>
<path d="M114.9,41.7025l 1.69064, 9.58031" fill="none" stroke="black" stroke-width="2"/>
<path d="M116.591,51.2829l 2.25419, -14.0887" fill="none" stroke="black"/>
<path d="M118.845,37.1942h 10.1439" fill="none" stroke="black"/>
<text xml:space="preserve" x="89.5406" y="50.7193" fill="black" font-size="16.0105" font-family="Helvetica">pp </text>
<text xml:space="preserve" x="89.5406" y="85.6593" fill="black" font-size="16.0105" font-family="Helvetica">ALICE work in progress</text>
<text xml:space="preserve" x="214.085" y="120.599" fill="black" font-size="16.0105" font-family="Helvetica">) &lt; 14.0</text>
<text xml:space="preserve" x="205.068" y="120.599" fill="black" font-size="16.0105" font-family="Helvetica" font-style="oblique">c</text>
<text xml:space="preserve" x="154.912" y="120.599" fill="black" font-size="16.0105" font-family="Helvetica"> /(GeV/</text>
<text xml:space="preserve" x="148.15" y="128.489" fill="black" font-size="10.8403" font-family="Helvetica">T</text>
<text xml:space="preserve" x="138.569" y="120.599" fill="black" font-size="16.0105" font-family="Helvetica" font-style="oblique">p</text>
<text xml:space="preserve" x="133.497" y="120.599" fill="black" font-size="16.0105" font-family="Helvetica"> </text>
<text xml:space="preserve" x="125.044" y="120.599" fill="black" font-size="16.0105" font-family="Times">&#8804;</text>
<text xml:space="preserve" x="89.5406" y="120.599" fill="black" font-size="16.0105" font-family="Helvetica">12.0 </text>
<rect x="312.311" y="69.1755" width="198.425" height="113.448" fill="white"/>
<text xml:space="preserve" x="361.734" y="85.0957" fill="black" font-size="16.0105" font-family="Helvetica">ratio</text>
<path d="M319.752,80.5203h 34.7244" fill="none" stroke="black" stroke-width="2"/>
<g fill="black">
<circle cx="337.114" cy="80.5203" r="6.76257"/>
</g>
<text xml:space="preserve" x="361.734" y="108.201" fill="black" font-size="16.0105" font-family="Helvetica">peak range</text>
<path d="M319.752,103.21h 34.7244" fill="none" stroke="#333333" stroke-width="2"/>
<g stroke="#333333" stroke-width="2" fill="none">
<circle cx="337.114" cy="103.21" r="5.63548"/>
</g>
<text xml:space="preserve" x="361.734" y="130.743" fill="black" font-size="16.0105" font-family="Helvetica">background pol1</text>
<path d="M319.752,125.899h 34.7244" fill="none" stroke="#33cccc" stroke-width="3"/>
<text xml:space="preserve" x="361.734" y="153.285" fill="black" font-size="16.0105" font-family="Helvetica">background pol2</text>
<path d="M319.752,148.589h 34.7244" fill="none" stroke="#ff0066" stroke-width="3"/>
<text xml:space="preserve" x="361.734" y="175.827" fill="black" font-size="16.0105" font-family="Helvetica">param. range</text>
<path d="M319.752,171.279h 34.7244" fill="none" stroke="#999999" stroke-width="7"/></svg>
