<?xml version="1.0" standalone="no"?>
<svg width="567.429" height="553.904" viewBox="0 0 567.429 553.904" xmlns="http://www.w3.org/2000/svg" shape-rendering="crispEdges">
<title>
Data/EG1/CorrectedYieldRatio_Pol1.svg
</title>
<desc>
Creator: ROOT Version 6.20/08
CreationDate: Mon Mar 29 21:28:59 2021</desc>
<defs>
</defs>
<rect x="0.5" y="0" width="566.929" height="553.404" fill="white"/>
<rect x="85.5394" y="16.6021" width="467.717" height="481.461" fill="white"/>
<rect x="85.5394" y="16.6021" width="467.717" height="481.461" fill="none" stroke="black"/>
<rect x="85.5394" y="16.6021" width="467.717" height="481.461" fill="white"/>
<rect x="85.5394" y="16.6021" width="467.717" height="481.461" fill="none" stroke="black"/>
<path d="M155.697,353.841v -25.8185" fill="none" stroke="#ff9900" stroke-width="2"/>
<path d="M155.697,314.498v -25.8185" fill="none" stroke="#ff9900" stroke-width="2"/>
<path d="M132.311,321.26h 16.6233" fill="none" stroke="#ff9900" stroke-width="2"/>
<path d="M162.459,321.26h 16.6233" fill="none" stroke="#ff9900" stroke-width="2"/>
<g stroke="#ff9900" stroke-width="2" fill="none">
<circle cx="155.697" cy="321.26" r="6.76257"/>
</g>
<path d="M202.469,362.567v -37.8009" fill="none" stroke="#ff9900" stroke-width="2"/>
<path d="M202.469,311.241v -37.8009" fill="none" stroke="#ff9900" stroke-width="2"/>
<path d="M179.083,318.004h 16.6233" fill="none" stroke="#ff9900" stroke-width="2"/>
<path d="M209.231,318.004h 16.6233" fill="none" stroke="#ff9900" stroke-width="2"/>
<g stroke="#ff9900" stroke-width="2" fill="none">
<circle cx="202.469" cy="318.004" r="6.76257"/>
</g>
<path d="M249.24,363.288v -35.3368" fill="none" stroke="#ff9900" stroke-width="2"/>
<path d="M249.24,314.426v -35.3368" fill="none" stroke="#ff9900" stroke-width="2"/>
<path d="M225.854,321.188h 16.6233" fill="none" stroke="#ff9900" stroke-width="2"/>
<path d="M256.003,321.188h 16.6233" fill="none" stroke="#ff9900" stroke-width="2"/>
<g stroke="#ff9900" stroke-width="2" fill="none">
<circle cx="249.24" cy="321.188" r="6.76257"/>
</g>
<path d="M319.398,487.971v -2.04407" fill="none" stroke="#ff9900" stroke-width="2"/>
<path d="M272.626,494.733h 40.0091" fill="none" stroke="#ff9900" stroke-width="2"/>
<path d="M326.16,494.733h 40.0091" fill="none" stroke="#ff9900" stroke-width="2"/>
<g stroke="#ff9900" stroke-width="2" fill="none">
<circle cx="319.398" cy="494.733" r="6.76257"/>
</g>
<path d="M412.941,323.9v -102.175" fill="none" stroke="#ff9900" stroke-width="2"/>
<path d="M412.941,208.199v -102.175" fill="none" stroke="#ff9900" stroke-width="2"/>
<path d="M366.169,214.962h 40.0091" fill="none" stroke="#ff9900" stroke-width="2"/>
<path d="M419.704,214.962h 40.0091" fill="none" stroke="#ff9900" stroke-width="2"/>
<g stroke="#ff9900" stroke-width="2" fill="none">
<circle cx="412.941" cy="214.962" r="6.76257"/>
</g>
<path d="M506.484,342.405v -9.15326" fill="none" stroke="#ff9900" stroke-width="2"/>
<path d="M506.484,319.726v -9.15326" fill="none" stroke="#ff9900" stroke-width="2"/>
<path d="M459.713,326.489h 40.0091" fill="none" stroke="#ff9900" stroke-width="2"/>
<path d="M513.247,326.489h 40.0091" fill="none" stroke="#ff9900" stroke-width="2"/>
<g stroke="#ff9900" stroke-width="2" fill="none">
<circle cx="506.484" cy="326.489" r="6.76257"/>
</g>
<path d="M85.5394,498.064h 467.717" fill="none" stroke="black"/>
<path d="M85.5394,484.367v 13.6967" fill="none" stroke="black"/>
<path d="M97.2323,491.215v 6.84837" fill="none" stroke="black"/>
<path d="M108.925,491.215v 6.84837" fill="none" stroke="black"/>
<path d="M120.618,491.215v 6.84837" fill="none" stroke="black"/>
<path d="M132.311,484.367v 13.6967" fill="none" stroke="black"/>
<path d="M144.004,491.215v 6.84837" fill="none" stroke="black"/>
<path d="M155.697,491.215v 6.84837" fill="none" stroke="black"/>
<path d="M167.39,491.215v 6.84837" fill="none" stroke="black"/>
<path d="M179.083,484.367v 13.6967" fill="none" stroke="black"/>
<path d="M190.776,491.215v 6.84837" fill="none" stroke="black"/>
<path d="M202.469,491.215v 6.84837" fill="none" stroke="black"/>
<path d="M214.161,491.215v 6.84837" fill="none" stroke="black"/>
<path d="M225.854,484.367v 13.6967" fill="none" stroke="black"/>
<path d="M237.547,491.215v 6.84837" fill="none" stroke="black"/>
<path d="M249.24,491.215v 6.84837" fill="none" stroke="black"/>
<path d="M260.933,491.215v 6.84837" fill="none" stroke="black"/>
<path d="M272.626,484.367v 13.6967" fill="none" stroke="black"/>
<path d="M284.319,491.215v 6.84837" fill="none" stroke="black"/>
<path d="M296.012,491.215v 6.84837" fill="none" stroke="black"/>
<path d="M307.705,491.215v 6.84837" fill="none" stroke="black"/>
<path d="M319.398,484.367v 13.6967" fill="none" stroke="black"/>
<path d="M331.091,491.215v 6.84837" fill="none" stroke="black"/>
<path d="M342.783,491.215v 6.84837" fill="none" stroke="black"/>
<path d="M354.476,491.215v 6.84837" fill="none" stroke="black"/>
<path d="M366.169,484.367v 13.6967" fill="none" stroke="black"/>
<path d="M377.862,491.215v 6.84837" fill="none" stroke="black"/>
<path d="M389.555,491.215v 6.84837" fill="none" stroke="black"/>
<path d="M401.248,491.215v 6.84837" fill="none" stroke="black"/>
<path d="M412.941,484.367v 13.6967" fill="none" stroke="black"/>
<path d="M424.634,491.215v 6.84837" fill="none" stroke="black"/>
<path d="M436.327,491.215v 6.84837" fill="none" stroke="black"/>
<path d="M448.02,491.215v 6.84837" fill="none" stroke="black"/>
<path d="M459.713,484.367v 13.6967" fill="none" stroke="black"/>
<path d="M471.406,491.215v 6.84837" fill="none" stroke="black"/>
<path d="M483.098,491.215v 6.84837" fill="none" stroke="black"/>
<path d="M494.791,491.215v 6.84837" fill="none" stroke="black"/>
<path d="M506.484,484.367v 13.6967" fill="none" stroke="black"/>
<path d="M518.177,491.215v 6.84837" fill="none" stroke="black"/>
<path d="M529.87,491.215v 6.84837" fill="none" stroke="black"/>
<path d="M541.563,491.215v 6.84837" fill="none" stroke="black"/>
<path d="M553.256,484.367v 13.6967" fill="none" stroke="black"/>
<text xml:space="preserve" x="76.579" y="513.956" fill="black" font-size="16.0105" font-family="Helvetica">12</text>
<text xml:space="preserve" x="122.79" y="513.956" fill="black" font-size="16.0105" font-family="Helvetica">14</text>
<text xml:space="preserve" x="170.128" y="513.956" fill="black" font-size="16.0105" font-family="Helvetica">16</text>
<text xml:space="preserve" x="216.902" y="513.956" fill="black" font-size="16.0105" font-family="Helvetica">18</text>
<text xml:space="preserve" x="263.677" y="513.956" fill="black" font-size="16.0105" font-family="Helvetica">20</text>
<text xml:space="preserve" x="310.451" y="513.956" fill="black" font-size="16.0105" font-family="Helvetica">22</text>
<text xml:space="preserve" x="356.662" y="513.956" fill="black" font-size="16.0105" font-family="Helvetica">24</text>
<text xml:space="preserve" x="404" y="513.956" fill="black" font-size="16.0105" font-family="Helvetica">26</text>
<text xml:space="preserve" x="450.775" y="513.956" fill="black" font-size="16.0105" font-family="Helvetica">28</text>
<text xml:space="preserve" x="497.549" y="513.956" fill="black" font-size="16.0105" font-family="Helvetica">30</text>
<text xml:space="preserve" x="544.324" y="513.956" fill="black" font-size="16.0105" font-family="Helvetica">32</text>
<text xml:space="preserve" x="548.268" y="532.553" fill="black" font-size="16.0105" font-family="Helvetica">)</text>
<text xml:space="preserve" x="539.252" y="532.553" fill="black" font-size="16.0105" font-family="Helvetica" font-style="oblique">c</text>
<text xml:space="preserve" x="493.041" y="532.553" fill="black" font-size="16.0105" font-family="Helvetica"> (GeV/</text>
<text xml:space="preserve" x="486.278" y="540.442" fill="black" font-size="10.8403" font-family="Helvetica">T</text>
<text xml:space="preserve" x="476.698" y="532.553" fill="black" font-size="16.0105" font-family="Helvetica" font-style="oblique">p</text>
<path d="M85.5394,16.6021h 467.717" fill="none" stroke="black"/>
<path d="M85.5394,30.2989v -13.6967" fill="none" stroke="black"/>
<path d="M97.2323,23.4505v -6.84837" fill="none" stroke="black"/>
<path d="M108.925,23.4505v -6.84837" fill="none" stroke="black"/>
<path d="M120.618,23.4505v -6.84837" fill="none" stroke="black"/>
<path d="M132.311,30.2989v -13.6967" fill="none" stroke="black"/>
<path d="M144.004,23.4505v -6.84837" fill="none" stroke="black"/>
<path d="M155.697,23.4505v -6.84837" fill="none" stroke="black"/>
<path d="M167.39,23.4505v -6.84837" fill="none" stroke="black"/>
<path d="M179.083,30.2989v -13.6967" fill="none" stroke="black"/>
<path d="M190.776,23.4505v -6.84837" fill="none" stroke="black"/>
<path d="M202.469,23.4505v -6.84837" fill="none" stroke="black"/>
<path d="M214.161,23.4505v -6.84837" fill="none" stroke="black"/>
<path d="M225.854,30.2989v -13.6967" fill="none" stroke="black"/>
<path d="M237.547,23.4505v -6.84837" fill="none" stroke="black"/>
<path d="M249.24,23.4505v -6.84837" fill="none" stroke="black"/>
<path d="M260.933,23.4505v -6.84837" fill="none" stroke="black"/>
<path d="M272.626,30.2989v -13.6967" fill="none" stroke="black"/>
<path d="M284.319,23.4505v -6.84837" fill="none" stroke="black"/>
<path d="M296.012,23.4505v -6.84837" fill="none" stroke="black"/>
<path d="M307.705,23.4505v -6.84837" fill="none" stroke="black"/>
<path d="M319.398,30.2989v -13.6967" fill="none" stroke="black"/>
<path d="M331.091,23.4505v -6.84837" fill="none" stroke="black"/>
<path d="M342.783,23.4505v -6.84837" fill="none" stroke="black"/>
<path d="M354.476,23.4505v -6.84837" fill="none" stroke="black"/>
<path d="M366.169,30.2989v -13.6967" fill="none" stroke="black"/>
<path d="M377.862,23.4505v -6.84837" fill="none" stroke="black"/>
<path d="M389.555,23.4505v -6.84837" fill="none" stroke="black"/>
<path d="M401.248,23.4505v -6.84837" fill="none" stroke="black"/>
<path d="M412.941,30.2989v -13.6967" fill="none" stroke="black"/>
<path d="M424.634,23.4505v -6.84837" fill="none" stroke="black"/>
<path d="M436.327,23.4505v -6.84837" fill="none" stroke="black"/>
<path d="M448.02,23.4505v -6.84837" fill="none" stroke="black"/>
<path d="M459.713,30.2989v -13.6967" fill="none" stroke="black"/>
<path d="M471.406,23.4505v -6.84837" fill="none" stroke="black"/>
<path d="M483.098,23.4505v -6.84837" fill="none" stroke="black"/>
<path d="M494.791,23.4505v -6.84837" fill="none" stroke="black"/>
<path d="M506.484,30.2989v -13.6967" fill="none" stroke="black"/>
<path d="M518.177,23.4505v -6.84837" fill="none" stroke="black"/>
<path d="M529.87,23.4505v -6.84837" fill="none" stroke="black"/>
<path d="M541.563,23.4505v -6.84837" fill="none" stroke="black"/>
<path d="M553.256,30.2989v -13.6967" fill="none" stroke="black"/>
<path d="M85.5394,498.064v -481.461" fill="none" stroke="black"/>
<path d="M100.336,498.064h -14.7969" fill="none" stroke="black"/>
<path d="M92.9378,482.015h -7.39843" fill="none" stroke="black"/>
<path d="M92.9378,465.966h -7.39843" fill="none" stroke="black"/>
<path d="M92.9378,449.917h -7.39843" fill="none" stroke="black"/>
<path d="M92.9378,433.869h -7.39843" fill="none" stroke="black"/>
<path d="M100.336,417.82h -14.7969" fill="none" stroke="black"/>
<path d="M92.9378,401.771h -7.39843" fill="none" stroke="black"/>
<path d="M92.9378,385.723h -7.39843" fill="none" stroke="black"/>
<path d="M92.9378,369.674h -7.39843" fill="none" stroke="black"/>
<path d="M92.9378,353.625h -7.39843" fill="none" stroke="black"/>
<path d="M100.336,337.576h -14.7969" fill="none" stroke="black"/>
<path d="M92.9378,321.528h -7.39843" fill="none" stroke="black"/>
<path d="M92.9378,305.479h -7.39843" fill="none" stroke="black"/>
<path d="M92.9378,289.43h -7.39843" fill="none" stroke="black"/>
<path d="M92.9378,273.382h -7.39843" fill="none" stroke="black"/>
<path d="M100.336,257.333h -14.7969" fill="none" stroke="black"/>
<path d="M92.9378,241.284h -7.39843" fill="none" stroke="black"/>
<path d="M92.9378,225.235h -7.39843" fill="none" stroke="black"/>
<path d="M92.9378,209.187h -7.39843" fill="none" stroke="black"/>
<path d="M92.9378,193.138h -7.39843" fill="none" stroke="black"/>
<path d="M100.336,177.089h -14.7969" fill="none" stroke="black"/>
<path d="M92.9378,161.041h -7.39843" fill="none" stroke="black"/>
<path d="M92.9378,144.992h -7.39843" fill="none" stroke="black"/>
<path d="M92.9378,128.943h -7.39843" fill="none" stroke="black"/>
<path d="M92.9378,112.894h -7.39843" fill="none" stroke="black"/>
<path d="M100.336,96.8457h -14.7969" fill="none" stroke="black"/>
<path d="M92.9378,80.797h -7.39843" fill="none" stroke="black"/>
<path d="M92.9378,64.7483h -7.39843" fill="none" stroke="black"/>
<path d="M92.9378,48.6996h -7.39843" fill="none" stroke="black"/>
<path d="M92.9378,32.6508h -7.39843" fill="none" stroke="black"/>
<path d="M100.336,16.6021h -14.7969" fill="none" stroke="black"/>
<text xml:space="preserve" x="73.7612" y="503.248" fill="black" font-size="16.0105" font-family="Helvetica">0</text>
<text xml:space="preserve" x="60.7996" y="423.224" fill="black" font-size="16.0105" font-family="Helvetica">0.5</text>
<text xml:space="preserve" x="76.579" y="343.764" fill="black" font-size="16.0105" font-family="Helvetica">1</text>
<text xml:space="preserve" x="60.7996" y="262.613" fill="black" font-size="16.0105" font-family="Helvetica">1.5</text>
<text xml:space="preserve" x="73.7612" y="183.153" fill="black" font-size="16.0105" font-family="Helvetica">2</text>
<text xml:space="preserve" x="60.7996" y="102.002" fill="black" font-size="16.0105" font-family="Helvetica">2.5</text>
<text xml:space="preserve" x="73.7612" y="21.9784" fill="black" font-size="16.0105" font-family="Helvetica">3</text>
<g transform="rotate(-90,47.838,131.87)">
<text xml:space="preserve" x="47.838" y="131.87" fill="black" font-size="16.0105" font-family="Helvetica">OmegaTGPSPS</text>
</g>
<g transform="rotate(-90,31.4951,99.748)">
<text xml:space="preserve" x="31.4951" y="99.748" fill="black" font-size="16.0105" font-family="Helvetica">method</text>
</g>
<path d="M33.7493,131.87l 0.563548, -115.527" fill="none" stroke="black" stroke-width="2"/>
<path d="M553.256,498.064v -481.461" fill="none" stroke="black"/>
<path d="M538.459,498.064h 14.7969" fill="none" stroke="black"/>
<path d="M545.857,482.015h 7.39843" fill="none" stroke="black"/>
<path d="M545.857,465.966h 7.39843" fill="none" stroke="black"/>
<path d="M545.857,449.917h 7.39843" fill="none" stroke="black"/>
<path d="M545.857,433.869h 7.39843" fill="none" stroke="black"/>
<path d="M538.459,417.82h 14.7969" fill="none" stroke="black"/>
<path d="M545.857,401.771h 7.39843" fill="none" stroke="black"/>
<path d="M545.857,385.723h 7.39843" fill="none" stroke="black"/>
<path d="M545.857,369.674h 7.39843" fill="none" stroke="black"/>
<path d="M545.857,353.625h 7.39843" fill="none" stroke="black"/>
<path d="M538.459,337.576h 14.7969" fill="none" stroke="black"/>
<path d="M545.857,321.528h 7.39843" fill="none" stroke="black"/>
<path d="M545.857,305.479h 7.39843" fill="none" stroke="black"/>
<path d="M545.857,289.43h 7.39843" fill="none" stroke="black"/>
<path d="M545.857,273.382h 7.39843" fill="none" stroke="black"/>
<path d="M538.459,257.333h 14.7969" fill="none" stroke="black"/>
<path d="M545.857,241.284h 7.39843" fill="none" stroke="black"/>
<path d="M545.857,225.235h 7.39843" fill="none" stroke="black"/>
<path d="M545.857,209.187h 7.39843" fill="none" stroke="black"/>
<path d="M545.857,193.138h 7.39843" fill="none" stroke="black"/>
<path d="M538.459,177.089h 14.7969" fill="none" stroke="black"/>
<path d="M545.857,161.041h 7.39843" fill="none" stroke="black"/>
<path d="M545.857,144.992h 7.39843" fill="none" stroke="black"/>
<path d="M545.857,128.943h 7.39843" fill="none" stroke="black"/>
<path d="M545.857,112.894h 7.39843" fill="none" stroke="black"/>
<path d="M538.459,96.8457h 14.7969" fill="none" stroke="black"/>
<path d="M545.857,80.797h 7.39843" fill="none" stroke="black"/>
<path d="M545.857,64.7483h 7.39843" fill="none" stroke="black"/>
<path d="M545.857,48.6996h 7.39843" fill="none" stroke="black"/>
<path d="M545.857,32.6508h 7.39843" fill="none" stroke="black"/>
<path d="M538.459,16.6021h 14.7969" fill="none" stroke="black"/>
<path d="M85.5394,337.576h 467.717" fill="none" stroke="#9900ff" stroke-width="2"/>
<path d="M108.925,385.698v -13.1796" fill="none" stroke="#33cc33" stroke-width="2"/>
<path d="M108.925,358.993v -13.1796" fill="none" stroke="#33cc33" stroke-width="2"/>
<path d="M85.5394,365.756h 16.6233" fill="none" stroke="#33cc33" stroke-width="2"/>
<path d="M115.688,365.756h 16.6233" fill="none" stroke="#33cc33" stroke-width="2"/>
<g stroke="#33cc33" stroke-width="2" fill="none">
<circle cx="108.925" cy="365.756" r="6.76257"/>
</g>
<path d="M155.697,347.923v -0.0263224" fill="none" stroke="#33cc33" stroke-width="2"/>
<path d="M155.697,334.372v -0.0263224" fill="none" stroke="#33cc33" stroke-width="2"/>
<path d="M132.311,341.135h 16.6233" fill="none" stroke="#33cc33" stroke-width="2"/>
<path d="M162.459,341.135h 16.6233" fill="none" stroke="#33cc33" stroke-width="2"/>
<g stroke="#33cc33" stroke-width="2" fill="none">
<circle cx="155.697" cy="341.135" r="6.76257"/>
</g>
<path d="M179.083,332.072h 16.6233" fill="none" stroke="#33cc33" stroke-width="2"/>
<path d="M209.231,332.072h 16.6233" fill="none" stroke="#33cc33" stroke-width="2"/>
<g stroke="#33cc33" stroke-width="2" fill="none">
<circle cx="202.469" cy="332.072" r="6.76257"/>
</g>
<path d="M225.854,332.801h 16.6233" fill="none" stroke="#33cc33" stroke-width="2"/>
<path d="M256.003,332.801h 16.6233" fill="none" stroke="#33cc33" stroke-width="2"/>
<g stroke="#33cc33" stroke-width="2" fill="none">
<circle cx="249.24" cy="332.801" r="6.76257"/>
</g>
<path d="M319.398,344.24v -1.71482" fill="none" stroke="#33cc33" stroke-width="2"/>
<path d="M319.398,329.001v -1.71482" fill="none" stroke="#33cc33" stroke-width="2"/>
<path d="M272.626,335.763h 40.0091" fill="none" stroke="#33cc33" stroke-width="2"/>
<path d="M326.16,335.763h 40.0091" fill="none" stroke="#33cc33" stroke-width="2"/>
<g stroke="#33cc33" stroke-width="2" fill="none">
<circle cx="319.398" cy="335.763" r="6.76257"/>
</g>
<path d="M366.169,285.08h 40.0091" fill="none" stroke="#33cc33" stroke-width="2"/>
<path d="M419.704,285.08h 40.0091" fill="none" stroke="#33cc33" stroke-width="2"/>
<g stroke="#33cc33" stroke-width="2" fill="none">
<circle cx="412.941" cy="285.08" r="6.76257"/>
</g>
<path d="M506.484,335.912v -19.2506" fill="none" stroke="#33cc33" stroke-width="2"/>
<path d="M506.484,303.136v -19.2506" fill="none" stroke="#33cc33" stroke-width="2"/>
<path d="M459.713,309.899h 40.0091" fill="none" stroke="#33cc33" stroke-width="2"/>
<path d="M513.247,309.899h 40.0091" fill="none" stroke="#33cc33" stroke-width="2"/>
<g stroke="#33cc33" stroke-width="2" fill="none">
<circle cx="506.484" cy="309.899" r="6.76257"/>
</g>
<path d="M108.925,313.795v -19.4439" fill="none" stroke="#cc3333" stroke-width="2"/>
<path d="M108.925,280.826v -19.4439" fill="none" stroke="#cc3333" stroke-width="2"/>
<path d="M85.5394,287.589h 16.6233" fill="none" stroke="#cc3333" stroke-width="2"/>
<path d="M115.688,287.589h 16.6233" fill="none" stroke="#cc3333" stroke-width="2"/>
<g stroke="#cc3333" stroke-width="2" fill="none">
<polygon points=" 108.925, 280.826 113.434, 287.589 108.925, 294.351 104.417, 287.589"/>
</g>
<path d="M155.697,336.973v -5.37256" fill="none" stroke="#cc3333" stroke-width="2"/>
<path d="M155.697,318.075v -5.37256" fill="none" stroke="#cc3333" stroke-width="2"/>
<path d="M132.311,324.838h 16.6233" fill="none" stroke="#cc3333" stroke-width="2"/>
<path d="M162.459,324.838h 16.6233" fill="none" stroke="#cc3333" stroke-width="2"/>
<g stroke="#cc3333" stroke-width="2" fill="none">
<polygon points=" 155.697, 318.075 160.205, 324.838 155.697, 331.6 151.188, 324.838"/>
</g>
<path d="M202.469,338.954v -10.8823" fill="none" stroke="#cc3333" stroke-width="2"/>
<path d="M202.469,314.546v -10.8823" fill="none" stroke="#cc3333" stroke-width="2"/>
<path d="M179.083,321.309h 16.6233" fill="none" stroke="#cc3333" stroke-width="2"/>
<path d="M209.231,321.309h 16.6233" fill="none" stroke="#cc3333" stroke-width="2"/>
<g stroke="#cc3333" stroke-width="2" fill="none">
<polygon points=" 202.469, 314.546 206.977, 321.309 202.469, 328.071 197.96, 321.309"/>
</g>
<path d="M249.24,358.088v -3.84856" fill="none" stroke="#cc3333" stroke-width="2"/>
<path d="M249.24,340.715v -3.84856" fill="none" stroke="#cc3333" stroke-width="2"/>
<path d="M225.854,347.477h 16.6233" fill="none" stroke="#cc3333" stroke-width="2"/>
<path d="M256.003,347.477h 16.6233" fill="none" stroke="#cc3333" stroke-width="2"/>
<g stroke="#cc3333" stroke-width="2" fill="none">
<polygon points=" 249.24, 340.715 253.749, 347.477 249.24, 354.24 244.732, 347.477"/>
</g>
<path d="M319.398,366.364v -7.77438" fill="none" stroke="#cc3333" stroke-width="2"/>
<path d="M319.398,345.065v -7.77438" fill="none" stroke="#cc3333" stroke-width="2"/>
<path d="M272.626,351.827h 40.0091" fill="none" stroke="#cc3333" stroke-width="2"/>
<path d="M326.16,351.827h 40.0091" fill="none" stroke="#cc3333" stroke-width="2"/>
<g stroke="#cc3333" stroke-width="2" fill="none">
<polygon points=" 319.398, 345.065 323.906, 351.827 319.398, 358.59 314.889, 351.827"/>
</g>
<path d="M412.941,395.935v -20.7487" fill="none" stroke="#cc3333" stroke-width="2"/>
<path d="M412.941,361.661v -20.7487" fill="none" stroke="#cc3333" stroke-width="2"/>
<path d="M366.169,368.424h 40.0091" fill="none" stroke="#cc3333" stroke-width="2"/>
<path d="M419.704,368.424h 40.0091" fill="none" stroke="#cc3333" stroke-width="2"/>
<g stroke="#cc3333" stroke-width="2" fill="none">
<polygon points=" 412.941, 361.661 417.449, 368.424 412.941, 375.187 408.433, 368.424"/>
</g>
<path d="M506.484,367.505v -149.848" fill="none" stroke="#cc3333" stroke-width="2"/>
<path d="M506.484,204.132v -149.848" fill="none" stroke="#cc3333" stroke-width="2"/>
<path d="M459.713,210.895h 40.0091" fill="none" stroke="#cc3333" stroke-width="2"/>
<path d="M513.247,210.895h 40.0091" fill="none" stroke="#cc3333" stroke-width="2"/>
<g stroke="#cc3333" stroke-width="2" fill="none">
<polygon points=" 506.484, 204.132 510.993, 210.895 506.484, 217.658 501.976, 210.895"/>
</g>
<path d="M108.925,332.734v -17.0898" fill="none" stroke="#3333cc" stroke-width="2"/>
<path d="M108.925,302.119v -17.0898" fill="none" stroke="#3333cc" stroke-width="2"/>
<path d="M85.5394,308.882h 16.6233" fill="none" stroke="#3333cc" stroke-width="2"/>
<path d="M115.688,308.882h 16.6233" fill="none" stroke="#3333cc" stroke-width="2"/>
<g stroke="#3333cc" stroke-width="2" fill="none">
<polygon points=" 108.925, 302.119 113.434, 308.882 108.925, 315.644 104.417, 308.882"/>
</g>
<path d="M132.311,313.174h 16.6233" fill="none" stroke="#3333cc" stroke-width="2"/>
<path d="M162.459,313.174h 16.6233" fill="none" stroke="#3333cc" stroke-width="2"/>
<g stroke="#3333cc" stroke-width="2" fill="none">
<polygon points=" 155.697, 306.411 160.205, 313.174 155.697, 319.936 151.188, 313.174"/>
</g>
<path d="M202.469,321.26v -4.39995" fill="none" stroke="#3333cc" stroke-width="2"/>
<path d="M202.469,303.335v -4.39995" fill="none" stroke="#3333cc" stroke-width="2"/>
<path d="M179.083,310.098h 16.6233" fill="none" stroke="#3333cc" stroke-width="2"/>
<path d="M209.231,310.098h 16.6233" fill="none" stroke="#3333cc" stroke-width="2"/>
<g stroke="#3333cc" stroke-width="2" fill="none">
<polygon points=" 202.469, 303.335 206.977, 310.098 202.469, 316.86 197.96, 310.098"/>
</g>
<path d="M249.24,332.669v -1.50459" fill="none" stroke="#3333cc" stroke-width="2"/>
<path d="M249.24,317.639v -1.50459" fill="none" stroke="#3333cc" stroke-width="2"/>
<path d="M225.854,324.401h 16.6233" fill="none" stroke="#3333cc" stroke-width="2"/>
<path d="M256.003,324.401h 16.6233" fill="none" stroke="#3333cc" stroke-width="2"/>
<g stroke="#3333cc" stroke-width="2" fill="none">
<polygon points=" 249.24, 317.639 253.749, 324.401 249.24, 331.164 244.732, 324.401"/>
</g>
<path d="M319.398,334.925v -4.29124" fill="none" stroke="#3333cc" stroke-width="2"/>
<path d="M319.398,317.109v -4.29124" fill="none" stroke="#3333cc" stroke-width="2"/>
<path d="M272.626,323.871h 40.0091" fill="none" stroke="#3333cc" stroke-width="2"/>
<path d="M326.16,323.871h 40.0091" fill="none" stroke="#3333cc" stroke-width="2"/>
<g stroke="#3333cc" stroke-width="2" fill="none">
<polygon points=" 319.398, 317.109 323.906, 323.871 319.398, 330.634 314.889, 323.871"/>
</g>
<path d="M412.941,329.388v -50.119" fill="none" stroke="#3333cc" stroke-width="2"/>
<path d="M412.941,265.744v -50.119" fill="none" stroke="#3333cc" stroke-width="2"/>
<path d="M366.169,272.506h 40.0091" fill="none" stroke="#3333cc" stroke-width="2"/>
<path d="M419.704,272.506h 40.0091" fill="none" stroke="#3333cc" stroke-width="2"/>
<g stroke="#3333cc" stroke-width="2" fill="none">
<polygon points=" 412.941, 265.744 417.449, 272.506 412.941, 279.269 408.433, 272.506"/>
</g>
<path d="M249.24,366.282v -36.4635" fill="none" stroke="#ff0066" stroke-width="2"/>
<path d="M249.24,316.293v -36.4635" fill="none" stroke="#ff0066" stroke-width="2"/>
<path d="M225.854,323.056h 16.6233" fill="none" stroke="#ff0066" stroke-width="2"/>
<path d="M256.003,323.056h 16.6233" fill="none" stroke="#ff0066" stroke-width="2"/>
<g stroke="#ff0066" stroke-width="2" fill="none">
<rect x="242.478" y="316.293" width="13.5251" height="13.5251"/>
</g>
<path d="M319.398,368.953v -32.4978" fill="none" stroke="#ff0066" stroke-width="2"/>
<path d="M319.398,322.93v -32.4978" fill="none" stroke="#ff0066" stroke-width="2"/>
<path d="M272.626,329.693h 40.0091" fill="none" stroke="#ff0066" stroke-width="2"/>
<path d="M326.16,329.693h 40.0091" fill="none" stroke="#ff0066" stroke-width="2"/>
<g stroke="#ff0066" stroke-width="2" fill="none">
<rect x="312.635" y="322.93" width="13.5251" height="13.5251"/>
</g>
<path d="M412.941,398.631v -61.9488" fill="none" stroke="#ff0066" stroke-width="2"/>
<path d="M412.941,323.157v -61.9488" fill="none" stroke="#ff0066" stroke-width="2"/>
<path d="M366.169,329.92h 40.0091" fill="none" stroke="#ff0066" stroke-width="2"/>
<path d="M419.704,329.92h 40.0091" fill="none" stroke="#ff0066" stroke-width="2"/>
<g stroke="#ff0066" stroke-width="2" fill="none">
<rect x="406.178" y="323.157" width="13.5251" height="13.5251"/>
</g>
<path d="M506.484,383.378v -69.388" fill="none" stroke="#ff0066" stroke-width="2"/>
<path d="M506.484,300.465v -69.388" fill="none" stroke="#ff0066" stroke-width="2"/>
<path d="M459.713,307.228h 40.0091" fill="none" stroke="#ff0066" stroke-width="2"/>
<path d="M513.247,307.228h 40.0091" fill="none" stroke="#ff0066" stroke-width="2"/>
<g stroke="#ff0066" stroke-width="2" fill="none">
<rect x="499.722" y="300.465" width="13.5251" height="13.5251"/>
</g>
<path d="M108.925,298.648v -19.9681" fill="none" stroke="#0066ff" stroke-width="2"/>
<path d="M108.925,267.409v -19.9681" fill="none" stroke="#0066ff" stroke-width="2"/>
<path d="M85.5394,273.044h 17.7503" fill="none" stroke="#0066ff" stroke-width="2"/>
<path d="M114.561,273.044h 17.7503" fill="none" stroke="#0066ff" stroke-width="2"/>
<g stroke="#0066ff" stroke-width="2" fill="none">
<rect x="103.29" y="267.409" width="11.271" height="11.271"/>
</g>
<path d="M155.697,333.38v -8.00801" fill="none" stroke="#0066ff" stroke-width="2"/>
<path d="M155.697,314.101v -8.00801" fill="none" stroke="#0066ff" stroke-width="2"/>
<path d="M132.311,319.736h 17.7503" fill="none" stroke="#0066ff" stroke-width="2"/>
<path d="M161.332,319.736h 17.7503" fill="none" stroke="#0066ff" stroke-width="2"/>
<g stroke="#0066ff" stroke-width="2" fill="none">
<rect x="150.061" y="314.101" width="11.271" height="11.271"/>
</g>
<path d="M179.083,354.311h 17.7503" fill="none" stroke="#0066ff" stroke-width="2"/>
<path d="M208.104,354.311h 17.7503" fill="none" stroke="#0066ff" stroke-width="2"/>
<g stroke="#0066ff" stroke-width="2" fill="none">
<rect x="196.833" y="348.675" width="11.271" height="11.271"/>
</g>
<path d="M249.24,352.78v -5.0075" fill="none" stroke="#0066ff" stroke-width="2"/>
<path d="M249.24,336.501v -5.0075" fill="none" stroke="#0066ff" stroke-width="2"/>
<path d="M225.854,342.137h 17.7503" fill="none" stroke="#0066ff" stroke-width="2"/>
<path d="M254.876,342.137h 17.7503" fill="none" stroke="#0066ff" stroke-width="2"/>
<g stroke="#0066ff" stroke-width="2" fill="none">
<rect x="243.605" y="336.501" width="11.271" height="11.271"/>
</g>
<path d="M319.398,329.608v -5.66839" fill="none" stroke="#0066ff" stroke-width="2"/>
<path d="M319.398,312.669v -5.66839" fill="none" stroke="#0066ff" stroke-width="2"/>
<path d="M272.626,318.304h 41.1362" fill="none" stroke="#0066ff" stroke-width="2"/>
<path d="M325.033,318.304h 41.1362" fill="none" stroke="#0066ff" stroke-width="2"/>
<g stroke="#0066ff" stroke-width="2" fill="none">
<rect x="313.762" y="312.669" width="11.271" height="11.271"/>
</g>
<path d="M412.941,383.011v -8.01829" fill="none" stroke="#0066ff" stroke-width="2"/>
<path d="M412.941,363.721v -8.01829" fill="none" stroke="#0066ff" stroke-width="2"/>
<path d="M366.169,369.357h 41.1362" fill="none" stroke="#0066ff" stroke-width="2"/>
<path d="M418.576,369.357h 41.1362" fill="none" stroke="#0066ff" stroke-width="2"/>
<g stroke="#0066ff" stroke-width="2" fill="none">
<rect x="407.305" y="363.721" width="11.271" height="11.271"/>
</g>
<path d="M506.484,331.426v -29.7054" fill="none" stroke="#0066ff" stroke-width="2"/>
<path d="M506.484,290.449v -29.7054" fill="none" stroke="#0066ff" stroke-width="2"/>
<path d="M459.713,296.085h 41.1362" fill="none" stroke="#0066ff" stroke-width="2"/>
<path d="M512.12,296.085h 41.1362" fill="none" stroke="#0066ff" stroke-width="2"/>
<g stroke="#0066ff" stroke-width="2" fill="none">
<rect x="500.849" y="290.449" width="11.271" height="11.271"/>
</g>
<path d="M108.925,306.773v -87.2881" fill="none" stroke="#66ff00" stroke-width="2"/>
<path d="M108.925,208.214v -87.2881" fill="none" stroke="#66ff00" stroke-width="2"/>
<path d="M85.5394,213.849h 17.7503" fill="none" stroke="#66ff00" stroke-width="2"/>
<path d="M114.561,213.849h 17.7503" fill="none" stroke="#66ff00" stroke-width="2"/>
<g stroke="#66ff00" stroke-width="2" fill="none">
<rect x="103.29" y="208.214" width="11.271" height="11.271"/>
</g>
<path d="M155.697,323.831v -16.0577" fill="none" stroke="#66ff00" stroke-width="2"/>
<path d="M155.697,296.502v -16.0577" fill="none" stroke="#66ff00" stroke-width="2"/>
<path d="M132.311,302.138h 17.7503" fill="none" stroke="#66ff00" stroke-width="2"/>
<path d="M161.332,302.138h 17.7503" fill="none" stroke="#66ff00" stroke-width="2"/>
<g stroke="#66ff00" stroke-width="2" fill="none">
<rect x="150.061" y="296.502" width="11.271" height="11.271"/>
</g>
<path d="M202.469,361.802v -2.33268" fill="none" stroke="#66ff00" stroke-width="2"/>
<path d="M202.469,348.199v -2.33268" fill="none" stroke="#66ff00" stroke-width="2"/>
<path d="M179.083,353.834h 17.7503" fill="none" stroke="#66ff00" stroke-width="2"/>
<path d="M208.104,353.834h 17.7503" fill="none" stroke="#66ff00" stroke-width="2"/>
<g stroke="#66ff00" stroke-width="2" fill="none">
<rect x="196.833" y="348.199" width="11.271" height="11.271"/>
</g>
<path d="M249.24,341.185v -7.30224" fill="none" stroke="#66ff00" stroke-width="2"/>
<path d="M249.24,322.612v -7.30224" fill="none" stroke="#66ff00" stroke-width="2"/>
<path d="M225.854,328.247h 17.7503" fill="none" stroke="#66ff00" stroke-width="2"/>
<path d="M254.876,328.247h 17.7503" fill="none" stroke="#66ff00" stroke-width="2"/>
<g stroke="#66ff00" stroke-width="2" fill="none">
<rect x="243.605" y="322.612" width="11.271" height="11.271"/>
</g>
<path d="M319.398,307.482v -4.77665" fill="none" stroke="#66ff00" stroke-width="2"/>
<path d="M319.398,291.434v -4.77665" fill="none" stroke="#66ff00" stroke-width="2"/>
<path d="M272.626,297.07h 41.1362" fill="none" stroke="#66ff00" stroke-width="2"/>
<path d="M325.033,297.07h 41.1362" fill="none" stroke="#66ff00" stroke-width="2"/>
<g stroke="#66ff00" stroke-width="2" fill="none">
<rect x="313.762" y="291.434" width="11.271" height="11.271"/>
</g>
<path d="M412.941,306.047v -11.1383" fill="none" stroke="#66ff00" stroke-width="2"/>
<path d="M412.941,283.638v -11.1383" fill="none" stroke="#66ff00" stroke-width="2"/>
<path d="M366.169,289.274h 41.1362" fill="none" stroke="#66ff00" stroke-width="2"/>
<path d="M418.576,289.274h 41.1362" fill="none" stroke="#66ff00" stroke-width="2"/>
<g stroke="#66ff00" stroke-width="2" fill="none">
<rect x="407.305" y="283.638" width="11.271" height="11.271"/>
</g>
<path d="M506.484,390.127v -32.4687" fill="none" stroke="#66ff00" stroke-width="2"/>
<path d="M506.484,346.388v -32.4687" fill="none" stroke="#66ff00" stroke-width="2"/>
<path d="M459.713,352.023h 41.1362" fill="none" stroke="#66ff00" stroke-width="2"/>
<path d="M512.12,352.023h 41.1362" fill="none" stroke="#66ff00" stroke-width="2"/>
<g stroke="#66ff00" stroke-width="2" fill="none">
<rect x="500.849" y="346.388" width="11.271" height="11.271"/>
</g>
<text xml:space="preserve" x="349.9" y="63.1174" fill="black" font-size="16.0105" font-family="Helvetica"> with EMC</text>
<text xml:space="preserve" x="342.01" y="63.1174" fill="black" font-size="16.0105" font-family="Times">&#0947;</text>
<text xml:space="preserve" x="334.12" y="63.1174" fill="black" font-size="16.0105" font-family="Times">&#0947;</text>
<text xml:space="preserve" x="326.231" y="63.1174" fill="black" font-size="16.0105" font-family="Times">&#0947;</text>
<text xml:space="preserve" x="321.159" y="63.1174" fill="black" font-size="16.0105" font-family="Helvetica"> </text>
<text xml:space="preserve" x="305.943" y="63.1174" fill="black" font-size="16.0105" font-family="Times">&#8594;</text>
<text xml:space="preserve" x="300.871" y="63.1174" fill="black" font-size="16.0105" font-family="Helvetica"> </text>
<text xml:space="preserve" x="292.981" y="63.1174" fill="black" font-size="16.0105" font-family="Times">&#0947;</text>
<text xml:space="preserve" x="287.346" y="57.4819" fill="black" font-size="10.8403" font-family="Helvetica">0</text>
<text xml:space="preserve" x="278.893" y="63.1174" fill="black" font-size="16.0105" font-family="Times">&#0960;</text>
<text xml:space="preserve" x="273.821" y="63.1174" fill="black" font-size="16.0105" font-family="Helvetica"> </text>
<text xml:space="preserve" x="258.605" y="63.1174" fill="black" font-size="16.0105" font-family="Times">&#8594;</text>
<text xml:space="preserve" x="253.533" y="63.1174" fill="black" font-size="16.0105" font-family="Helvetica"> </text>
<text xml:space="preserve" x="242.262" y="63.1174" fill="black" font-size="16.0105" font-family="Times">&#0969;</text>
<text xml:space="preserve" x="128.989" y="63.1174" fill="black" font-size="16.0105" font-family="Helvetica"> = 13 TeV EG1, </text>
<text xml:space="preserve" x="120.536" y="63.1174" fill="black" font-size="16.0105" font-family="Helvetica" font-style="oblique">s</text>
<path d="M114.9,54.1006l 1.69064, 9.58031" fill="none" stroke="black" stroke-width="2"/>
<path d="M116.591,63.6809l 2.25419, -14.0887" fill="none" stroke="black"/>
<path d="M118.845,49.5922h 10.1439" fill="none" stroke="black"/>
<text xml:space="preserve" x="89.5406" y="63.1174" fill="black" font-size="16.0105" font-family="Helvetica">pp </text>
<text xml:space="preserve" x="89.5406" y="113.273" fill="black" font-size="16.0105" font-family="Helvetica">ALICE work in progress</text>
<rect x="283.965" y="69.1755" width="226.772" height="152.186" fill="white"/>
<text xml:space="preserve" x="340.319" y="81.1509" fill="black" font-size="16.0105" font-family="Helvetica">corrected yield ratio pol1</text>
<text xml:space="preserve" x="340.319" y="98.0573" fill="black" font-size="16.0105" font-family="Helvetica">OmegaRotPS</text>
<path d="M292.469,94.5398h 39.685" fill="none" stroke="#ff9900" stroke-width="2"/>
<g stroke="#ff9900" stroke-width="2" fill="none">
<circle cx="312.311" cy="94.5398" r="6.76257"/>
</g>
<text xml:space="preserve" x="340.319" y="114.964" fill="black" font-size="16.0105" font-family="Helvetica">OmegaTGPSPS</text>
<path d="M292.469,111.449h 39.685" fill="none" stroke="#9900ff" stroke-width="2"/>
<g stroke="#9900ff" stroke-width="2" fill="none">
<circle cx="312.311" cy="111.449" r="6.76257"/>
</g>
<text xml:space="preserve" x="340.319" y="131.87" fill="black" font-size="16.0105" font-family="Helvetica">OmegaTGPSPlusPS</text>
<path d="M292.469,128.359h 39.685" fill="none" stroke="#33cc33" stroke-width="2"/>
<g stroke="#33cc33" stroke-width="2" fill="none">
<circle cx="312.311" cy="128.359" r="6.76257"/>
</g>
<text xml:space="preserve" x="340.319" y="148.777" fill="black" font-size="16.0105" font-family="Helvetica">Pi0RotPS</text>
<path d="M292.469,145.269h 39.685" fill="none" stroke="#cc3333" stroke-width="2"/>
<g stroke="#cc3333" stroke-width="2" fill="none">
<polygon points=" 312.311, 138.506 316.819, 145.269 312.311, 152.031 307.803, 145.269"/>
</g>
<text xml:space="preserve" x="340.319" y="165.683" fill="black" font-size="16.0105" font-family="Helvetica">Pi0TGPSPS</text>
<path d="M292.469,162.178h 39.685" fill="none" stroke="#3333cc" stroke-width="2"/>
<g stroke="#3333cc" stroke-width="2" fill="none">
<polygon points=" 312.311, 155.416 316.819, 162.178 312.311, 168.941 307.803, 162.178"/>
</g>
<text xml:space="preserve" x="340.319" y="182.59" fill="black" font-size="16.0105" font-family="Helvetica">OmegaRotWOPS</text>
<path d="M292.469,179.088h 39.685" fill="none" stroke="#ff0066" stroke-width="2"/>
<g stroke="#ff0066" stroke-width="2" fill="none">
<rect x="305.548" y="172.325" width="13.5251" height="13.5251"/>
</g>
<text xml:space="preserve" x="340.319" y="199.496" fill="black" font-size="16.0105" font-family="Helvetica">OmegaTGPSWOPS</text>
<path d="M292.469,195.997h 39.685" fill="none" stroke="#0066ff" stroke-width="2"/>
<g stroke="#0066ff" stroke-width="2" fill="none">
<rect x="306.676" y="190.362" width="11.271" height="11.271"/>
</g>
<text xml:space="preserve" x="340.319" y="216.402" fill="black" font-size="16.0105" font-family="Helvetica">OmegaTGPSPlusWOPS</text>
<path d="M292.469,212.907h 39.685" fill="none" stroke="#66ff00" stroke-width="2"/>
<g stroke="#66ff00" stroke-width="2" fill="none">
<rect x="306.676" y="207.271" width="11.271" height="11.271"/>
</g></svg>
