<?xml version="1.0" standalone="no"?>
<svg width="567.429" height="553.904" viewBox="0 0 567.429 553.904" xmlns="http://www.w3.org/2000/svg" shape-rendering="crispEdges">
<title>
Data/EG1/OmegaTGPSPlusPSNCell/SameEventAndBackgroundBeforeScaling_03.svg
</title>
<desc>
Creator: ROOT Version 6.20/08
CreationDate: Mon Mar 29 21:28:53 2021</desc>
<defs>
</defs>
<rect x="0.5" y="0" width="566.929" height="553.404" fill="white"/>
<rect x="57.1929" y="16.6021" width="496.063" height="481.461" fill="white"/>
<rect x="57.1929" y="16.6021" width="496.063" height="481.461" fill="none" stroke="black"/>
<rect x="57.1929" y="16.6021" width="496.063" height="481.461" fill="white"/>
<rect x="57.1929" y="16.6021" width="496.063" height="481.461" fill="none" stroke="black"/>
<g fill="#993333">
<rect x="94.4324" y="491.467" width="9.01677" height="9.01677"/>
</g>
<g fill="#993333">
<rect x="99.3439" y="397.359" width="9.01677" height="9.01677"/>
</g>
<g fill="#993333">
<rect x="104.255" y="313.059" width="9.01677" height="9.01677"/>
</g>
<g fill="#993333">
<rect x="109.167" y="343.982" width="9.01677" height="9.01677"/>
</g>
<g fill="#993333">
<rect x="114.078" y="432.067" width="9.01677" height="9.01677"/>
</g>
<g fill="#993333">
<rect x="118.99" y="376.256" width="9.01677" height="9.01677"/>
</g>
<g fill="#993333">
<rect x="123.901" y="274.443" width="9.01677" height="9.01677"/>
</g>
<g fill="#993333">
<rect x="128.813" y="269.001" width="9.01677" height="9.01677"/>
</g>
<g fill="#993333">
<rect x="133.725" y="264.777" width="9.01677" height="9.01677"/>
</g>
<g fill="#993333">
<rect x="138.636" y="246.584" width="9.01677" height="9.01677"/>
</g>
<g fill="#993333">
<rect x="143.548" y="234.16" width="9.01677" height="9.01677"/>
</g>
<g fill="#993333">
<rect x="148.459" y="228.253" width="9.01677" height="9.01677"/>
</g>
<g fill="#993333">
<rect x="153.371" y="226.077" width="9.01677" height="9.01677"/>
</g>
<g fill="#993333">
<rect x="158.282" y="226.761" width="9.01677" height="9.01677"/>
</g>
<g fill="#993333">
<rect x="163.194" y="228.317" width="9.01677" height="9.01677"/>
</g>
<g fill="#993333">
<rect x="168.105" y="231.67" width="9.01677" height="9.01677"/>
</g>
<g fill="#993333">
<rect x="173.017" y="235.3" width="9.01677" height="9.01677"/>
</g>
<g fill="#993333">
<rect x="177.928" y="239.712" width="9.01677" height="9.01677"/>
</g>
<g fill="#993333">
<rect x="182.84" y="245.206" width="9.01677" height="9.01677"/>
</g>
<g fill="#993333">
<rect x="187.751" y="250.293" width="9.01677" height="9.01677"/>
</g>
<g fill="#993333">
<rect x="192.663" y="255.554" width="9.01677" height="9.01677"/>
</g>
<g fill="#993333">
<rect x="197.574" y="261.484" width="9.01677" height="9.01677"/>
</g>
<g fill="#993333">
<rect x="202.486" y="266.794" width="9.01677" height="9.01677"/>
</g>
<g fill="#993333">
<rect x="207.397" y="272.222" width="9.01677" height="9.01677"/>
</g>
<g fill="#993333">
<rect x="212.309" y="277.753" width="9.01677" height="9.01677"/>
</g>
<g fill="#993333">
<rect x="217.22" y="284.004" width="9.01677" height="9.01677"/>
</g>
<g fill="#993333">
<rect x="222.132" y="289.55" width="9.01677" height="9.01677"/>
</g>
<g fill="#993333">
<rect x="227.043" y="296.126" width="9.01677" height="9.01677"/>
</g>
<g fill="#993333">
<rect x="231.955" y="302.109" width="9.01677" height="9.01677"/>
</g>
<g fill="#993333">
<rect x="236.866" y="308.85" width="9.01677" height="9.01677"/>
</g>
<g fill="#993333">
<rect x="241.778" y="315.295" width="9.01677" height="9.01677"/>
</g>
<g fill="#993333">
<rect x="246.689" y="322.186" width="9.01677" height="9.01677"/>
</g>
<g fill="#993333">
<rect x="251.601" y="328.991" width="9.01677" height="9.01677"/>
</g>
<g fill="#993333">
<rect x="256.512" y="335.253" width="9.01677" height="9.01677"/>
</g>
<g fill="#993333">
<rect x="261.424" y="341.483" width="9.01677" height="9.01677"/>
</g>
<g fill="#993333">
<rect x="266.335" y="347.624" width="9.01677" height="9.01677"/>
</g>
<g fill="#993333">
<rect x="271.247" y="353.483" width="9.01677" height="9.01677"/>
</g>
<g fill="#993333">
<rect x="276.158" y="359.247" width="9.01677" height="9.01677"/>
</g>
<g fill="#993333">
<rect x="281.07" y="364.422" width="9.01677" height="9.01677"/>
</g>
<g fill="#993333">
<rect x="285.981" y="369.538" width="9.01677" height="9.01677"/>
</g>
<g fill="#993333">
<rect x="290.893" y="374.715" width="9.01677" height="9.01677"/>
</g>
<g fill="#993333">
<rect x="295.805" y="379.361" width="9.01677" height="9.01677"/>
</g>
<g fill="#993333">
<rect x="300.716" y="383.599" width="9.01677" height="9.01677"/>
</g>
<g fill="#993333">
<rect x="305.628" y="387.914" width="9.01677" height="9.01677"/>
</g>
<g fill="#993333">
<rect x="310.539" y="391.853" width="9.01677" height="9.01677"/>
</g>
<g fill="#993333">
<rect x="315.451" y="395.954" width="9.01677" height="9.01677"/>
</g>
<g fill="#993333">
<rect x="320.362" y="399.564" width="9.01677" height="9.01677"/>
</g>
<g fill="#993333">
<rect x="325.274" y="403.08" width="9.01677" height="9.01677"/>
</g>
<g fill="#993333">
<rect x="330.185" y="406.113" width="9.01677" height="9.01677"/>
</g>
<g fill="#993333">
<rect x="335.097" y="409.321" width="9.01677" height="9.01677"/>
</g>
<g fill="#993333">
<rect x="340.008" y="412.419" width="9.01677" height="9.01677"/>
</g>
<g fill="#993333">
<rect x="344.92" y="415.34" width="9.01677" height="9.01677"/>
</g>
<g fill="#993333">
<rect x="349.831" y="418.17" width="9.01677" height="9.01677"/>
</g>
<g fill="#993333">
<rect x="354.743" y="420.629" width="9.01677" height="9.01677"/>
</g>
<g fill="#993333">
<rect x="359.654" y="423.233" width="9.01677" height="9.01677"/>
</g>
<g fill="#993333">
<rect x="364.566" y="425.625" width="9.01677" height="9.01677"/>
</g>
<g fill="#993333">
<rect x="369.477" y="427.681" width="9.01677" height="9.01677"/>
</g>
<g fill="#993333">
<rect x="374.389" y="429.793" width="9.01677" height="9.01677"/>
</g>
<g fill="#993333">
<rect x="379.3" y="431.905" width="9.01677" height="9.01677"/>
</g>
<g fill="#993333">
<rect x="384.212" y="433.879" width="9.01677" height="9.01677"/>
</g>
<g fill="#993333">
<rect x="389.123" y="436.014" width="9.01677" height="9.01677"/>
</g>
<g fill="#993333">
<rect x="394.035" y="437.652" width="9.01677" height="9.01677"/>
</g>
<g fill="#993333">
<rect x="398.946" y="439.448" width="9.01677" height="9.01677"/>
</g>
<g fill="#993333">
<rect x="403.858" y="441.154" width="9.01677" height="9.01677"/>
</g>
<g fill="#993333">
<rect x="408.769" y="442.574" width="9.01677" height="9.01677"/>
</g>
<g fill="#993333">
<rect x="413.681" y="444.291" width="9.01677" height="9.01677"/>
</g>
<g fill="#993333">
<rect x="418.592" y="445.78" width="9.01677" height="9.01677"/>
</g>
<g fill="#993333">
<rect x="423.504" y="447.097" width="9.01677" height="9.01677"/>
</g>
<g fill="#993333">
<rect x="428.415" y="448.537" width="9.01677" height="9.01677"/>
</g>
<g fill="#993333">
<rect x="433.327" y="449.832" width="9.01677" height="9.01677"/>
</g>
<g fill="#993333">
<rect x="438.238" y="450.992" width="9.01677" height="9.01677"/>
</g>
<g fill="#993333">
<rect x="443.15" y="452.041" width="9.01677" height="9.01677"/>
</g>
<g fill="#993333">
<rect x="448.061" y="453.225" width="9.01677" height="9.01677"/>
</g>
<g fill="#993333">
<rect x="452.973" y="454.198" width="9.01677" height="9.01677"/>
</g>
<g fill="#993333">
<rect x="457.884" y="455.388" width="9.01677" height="9.01677"/>
</g>
<g fill="#993333">
<rect x="462.796" y="456.248" width="9.01677" height="9.01677"/>
</g>
<g fill="#993333">
<rect x="467.708" y="457.358" width="9.01677" height="9.01677"/>
</g>
<g fill="#993333">
<rect x="472.619" y="458.401" width="9.01677" height="9.01677"/>
</g>
<g fill="#993333">
<rect x="477.531" y="459.171" width="9.01677" height="9.01677"/>
</g>
<g fill="#993333">
<rect x="482.442" y="460.111" width="9.01677" height="9.01677"/>
</g>
<g fill="#993333">
<rect x="487.354" y="460.909" width="9.01677" height="9.01677"/>
</g>
<g fill="#993333">
<rect x="492.265" y="461.391" width="9.01677" height="9.01677"/>
</g>
<g fill="#993333">
<rect x="497.177" y="462.404" width="9.01677" height="9.01677"/>
</g>
<g fill="#993333">
<rect x="502.088" y="462.964" width="9.01677" height="9.01677"/>
</g>
<g fill="#993333">
<rect x="507" y="463.823" width="9.01677" height="9.01677"/>
</g>
<g fill="#993333">
<rect x="511.911" y="464.366" width="9.01677" height="9.01677"/>
</g>
<g fill="#993333">
<rect x="516.823" y="465.133" width="9.01677" height="9.01677"/>
</g>
<g fill="#993333">
<rect x="521.734" y="465.625" width="9.01677" height="9.01677"/>
</g>
<g fill="#993333">
<rect x="526.646" y="466.109" width="9.01677" height="9.01677"/>
</g>
<g fill="#993333">
<rect x="531.557" y="466.545" width="9.01677" height="9.01677"/>
</g>
<g fill="#993333">
<rect x="536.469" y="467.121" width="9.01677" height="9.01677"/>
</g>
<g fill="#993333">
<rect x="541.38" y="467.684" width="9.01677" height="9.01677"/>
</g>
<path d="M57.1929,498.064h 496.063" fill="none" stroke="black"/>
<path d="M57.1929,483.537v 14.5269" fill="none" stroke="black"/>
<path d="M72.5414,490.8v 7.26343" fill="none" stroke="black"/>
<path d="M87.8899,490.8v 7.26343" fill="none" stroke="black"/>
<path d="M103.238,490.8v 7.26343" fill="none" stroke="black"/>
<path d="M118.587,483.537v 14.5269" fill="none" stroke="black"/>
<path d="M133.935,490.8v 7.26343" fill="none" stroke="black"/>
<path d="M149.284,490.8v 7.26343" fill="none" stroke="black"/>
<path d="M164.632,490.8v 7.26343" fill="none" stroke="black"/>
<path d="M179.981,483.537v 14.5269" fill="none" stroke="black"/>
<path d="M195.329,490.8v 7.26343" fill="none" stroke="black"/>
<path d="M210.678,490.8v 7.26343" fill="none" stroke="black"/>
<path d="M226.026,490.8v 7.26343" fill="none" stroke="black"/>
<path d="M241.375,483.537v 14.5269" fill="none" stroke="black"/>
<path d="M256.723,490.8v 7.26343" fill="none" stroke="black"/>
<path d="M272.072,490.8v 7.26343" fill="none" stroke="black"/>
<path d="M287.42,490.8v 7.26343" fill="none" stroke="black"/>
<path d="M302.769,483.537v 14.5269" fill="none" stroke="black"/>
<path d="M318.117,490.8v 7.26343" fill="none" stroke="black"/>
<path d="M333.466,490.8v 7.26343" fill="none" stroke="black"/>
<path d="M348.814,490.8v 7.26343" fill="none" stroke="black"/>
<path d="M364.163,483.537v 14.5269" fill="none" stroke="black"/>
<path d="M379.511,490.8v 7.26343" fill="none" stroke="black"/>
<path d="M394.86,490.8v 7.26343" fill="none" stroke="black"/>
<path d="M410.208,490.8v 7.26343" fill="none" stroke="black"/>
<path d="M425.557,483.537v 14.5269" fill="none" stroke="black"/>
<path d="M440.905,490.8v 7.26343" fill="none" stroke="black"/>
<path d="M456.253,490.8v 7.26343" fill="none" stroke="black"/>
<path d="M471.602,490.8v 7.26343" fill="none" stroke="black"/>
<path d="M486.95,483.537v 14.5269" fill="none" stroke="black"/>
<path d="M502.299,490.8v 7.26343" fill="none" stroke="black"/>
<path d="M517.647,490.8v 7.26343" fill="none" stroke="black"/>
<path d="M532.996,490.8v 7.26343" fill="none" stroke="black"/>
<path d="M548.344,483.537v 14.5269" fill="none" stroke="black"/>
<path d="M548.344,483.537v 14.5269" fill="none" stroke="black"/>
<text xml:space="preserve" x="52.3464" y="513.956" fill="black" font-size="16.0105" font-family="Helvetica">0</text>
<text xml:space="preserve" x="107.574" y="513.956" fill="black" font-size="16.0105" font-family="Helvetica">0.2</text>
<text xml:space="preserve" x="169.001" y="513.956" fill="black" font-size="16.0105" font-family="Helvetica">0.4</text>
<text xml:space="preserve" x="230.428" y="513.956" fill="black" font-size="16.0105" font-family="Helvetica">0.6</text>
<text xml:space="preserve" x="291.854" y="513.956" fill="black" font-size="16.0105" font-family="Helvetica">0.8</text>
<text xml:space="preserve" x="361.171" y="513.956" fill="black" font-size="16.0105" font-family="Helvetica">1</text>
<text xml:space="preserve" x="414.708" y="513.956" fill="black" font-size="16.0105" font-family="Helvetica">1.2</text>
<text xml:space="preserve" x="476.134" y="513.956" fill="black" font-size="16.0105" font-family="Helvetica">1.4</text>
<text xml:space="preserve" x="537.561" y="513.956" fill="black" font-size="16.0105" font-family="Helvetica">1.6</text>
<text xml:space="preserve" x="548.268" y="537.625" fill="black" font-size="16.0105" font-family="Helvetica">)</text>
<text xml:space="preserve" x="542.633" y="532.553" fill="black" font-size="10.8403" font-family="Helvetica">2</text>
<text xml:space="preserve" x="533.616" y="537.625" fill="black" font-size="16.0105" font-family="Helvetica" font-style="oblique">c</text>
<text xml:space="preserve" x="487.405" y="537.625" fill="black" font-size="16.0105" font-family="Helvetica"> (GeV/</text>
<text xml:space="preserve" x="473.317" y="542.697" fill="black" font-size="10.8403" font-family="Helvetica">inv</text>
<text xml:space="preserve" x="459.792" y="537.625" fill="black" font-size="16.0105" font-family="Helvetica" font-style="oblique">m</text>
<path d="M57.1929,16.6021h 496.063" fill="none" stroke="black"/>
<path d="M57.1929,31.129v -14.5269" fill="none" stroke="black"/>
<path d="M72.5414,23.8655v -7.26343" fill="none" stroke="black"/>
<path d="M87.8899,23.8655v -7.26343" fill="none" stroke="black"/>
<path d="M103.238,23.8655v -7.26343" fill="none" stroke="black"/>
<path d="M118.587,31.129v -14.5269" fill="none" stroke="black"/>
<path d="M133.935,23.8655v -7.26343" fill="none" stroke="black"/>
<path d="M149.284,23.8655v -7.26343" fill="none" stroke="black"/>
<path d="M164.632,23.8655v -7.26343" fill="none" stroke="black"/>
<path d="M179.981,31.129v -14.5269" fill="none" stroke="black"/>
<path d="M195.329,23.8655v -7.26343" fill="none" stroke="black"/>
<path d="M210.678,23.8655v -7.26343" fill="none" stroke="black"/>
<path d="M226.026,23.8655v -7.26343" fill="none" stroke="black"/>
<path d="M241.375,31.129v -14.5269" fill="none" stroke="black"/>
<path d="M256.723,23.8655v -7.26343" fill="none" stroke="black"/>
<path d="M272.072,23.8655v -7.26343" fill="none" stroke="black"/>
<path d="M287.42,23.8655v -7.26343" fill="none" stroke="black"/>
<path d="M302.769,31.129v -14.5269" fill="none" stroke="black"/>
<path d="M318.117,23.8655v -7.26343" fill="none" stroke="black"/>
<path d="M333.466,23.8655v -7.26343" fill="none" stroke="black"/>
<path d="M348.814,23.8655v -7.26343" fill="none" stroke="black"/>
<path d="M364.163,31.129v -14.5269" fill="none" stroke="black"/>
<path d="M379.511,23.8655v -7.26343" fill="none" stroke="black"/>
<path d="M394.86,23.8655v -7.26343" fill="none" stroke="black"/>
<path d="M410.208,23.8655v -7.26343" fill="none" stroke="black"/>
<path d="M425.557,31.129v -14.5269" fill="none" stroke="black"/>
<path d="M440.905,23.8655v -7.26343" fill="none" stroke="black"/>
<path d="M456.253,23.8655v -7.26343" fill="none" stroke="black"/>
<path d="M471.602,23.8655v -7.26343" fill="none" stroke="black"/>
<path d="M486.95,31.129v -14.5269" fill="none" stroke="black"/>
<path d="M502.299,23.8655v -7.26343" fill="none" stroke="black"/>
<path d="M517.647,23.8655v -7.26343" fill="none" stroke="black"/>
<path d="M532.996,23.8655v -7.26343" fill="none" stroke="black"/>
<path d="M548.344,31.129v -14.5269" fill="none" stroke="black"/>
<path d="M548.344,31.129v -14.5269" fill="none" stroke="black"/>
<path d="M57.1929,498.064v -481.461" fill="none" stroke="black"/>
<path d="M71.9898,498.064h -14.7969" fill="none" stroke="black"/>
<path d="M64.5913,479.247h -7.39843" fill="none" stroke="black"/>
<path d="M64.5913,460.43h -7.39843" fill="none" stroke="black"/>
<path d="M64.5913,441.614h -7.39843" fill="none" stroke="black"/>
<path d="M64.5913,422.797h -7.39843" fill="none" stroke="black"/>
<path d="M71.9898,403.98h -14.7969" fill="none" stroke="black"/>
<path d="M64.5913,385.164h -7.39843" fill="none" stroke="black"/>
<path d="M64.5913,366.347h -7.39843" fill="none" stroke="black"/>
<path d="M64.5913,347.53h -7.39843" fill="none" stroke="black"/>
<path d="M64.5913,328.713h -7.39843" fill="none" stroke="black"/>
<path d="M71.9898,309.897h -14.7969" fill="none" stroke="black"/>
<path d="M64.5913,291.08h -7.39843" fill="none" stroke="black"/>
<path d="M64.5913,272.263h -7.39843" fill="none" stroke="black"/>
<path d="M64.5913,253.447h -7.39843" fill="none" stroke="black"/>
<path d="M64.5913,234.63h -7.39843" fill="none" stroke="black"/>
<path d="M71.9898,215.813h -14.7969" fill="none" stroke="black"/>
<path d="M64.5913,196.997h -7.39843" fill="none" stroke="black"/>
<path d="M64.5913,178.18h -7.39843" fill="none" stroke="black"/>
<path d="M64.5913,159.363h -7.39843" fill="none" stroke="black"/>
<path d="M64.5913,140.547h -7.39843" fill="none" stroke="black"/>
<path d="M71.9898,121.73h -14.7969" fill="none" stroke="black"/>
<path d="M64.5913,102.913h -7.39843" fill="none" stroke="black"/>
<path d="M64.5913,84.0966h -7.39843" fill="none" stroke="black"/>
<path d="M64.5913,65.2799h -7.39843" fill="none" stroke="black"/>
<path d="M64.5913,46.4633h -7.39843" fill="none" stroke="black"/>
<path d="M71.9898,27.6466h -14.7969" fill="none" stroke="black"/>
<path d="M71.9898,27.6466h -14.7969" fill="none" stroke="black"/>
<text xml:space="preserve" x="45.5838" y="503.248" fill="black" font-size="16.0105" font-family="Helvetica">0</text>
<text xml:space="preserve" x="45.5838" y="409.136" fill="black" font-size="16.0105" font-family="Helvetica">5</text>
<text xml:space="preserve" x="37.1306" y="315.023" fill="black" font-size="16.0105" font-family="Helvetica">10</text>
<text xml:space="preserve" x="37.1306" y="220.911" fill="black" font-size="16.0105" font-family="Helvetica">15</text>
<text xml:space="preserve" x="37.1306" y="127.362" fill="black" font-size="16.0105" font-family="Helvetica">20</text>
<text xml:space="preserve" x="37.1306" y="33.2493" fill="black" font-size="16.0105" font-family="Helvetica">25</text>
<text xml:space="preserve" x="82.2144" y="7.32612" fill="black" font-size="10.8403" font-family="Helvetica">6</text>
<text xml:space="preserve" x="65.308" y="14.6522" fill="black" font-size="16.0105" font-family="Helvetica">10</text>
<text xml:space="preserve" x="56.8548" y="14.6522" fill="black" font-size="16.0105" font-family="Times">&#0215;</text>
<g transform="rotate(-90,22.4784,21.9784)">
<text xml:space="preserve" x="22.4784" y="21.9784" fill="black" font-size="10.8403" font-family="Times">&#0947;</text>
</g>
<g transform="rotate(-90,18.5335,25.9232)">
<text xml:space="preserve" x="18.5335" y="25.9232" fill="black" font-size="7.39355" font-family="Helvetica">0</text>
</g>
<g transform="rotate(-90,22.4784,32.1222)">
<text xml:space="preserve" x="22.4784" y="32.1222" fill="black" font-size="10.8403" font-family="Times">&#0960;</text>
</g>
<g transform="rotate(-90,17.4064,45.0838)">
<text xml:space="preserve" x="17.4064" y="45.0838" fill="black" font-size="16.0105" font-family="Helvetica" font-style="oblique">N</text>
</g>
<path d="M553.256,498.064v -481.461" fill="none" stroke="black"/>
<path d="M538.459,498.064h 14.7969" fill="none" stroke="black"/>
<path d="M545.857,479.247h 7.39843" fill="none" stroke="black"/>
<path d="M545.857,460.43h 7.39843" fill="none" stroke="black"/>
<path d="M545.857,441.614h 7.39843" fill="none" stroke="black"/>
<path d="M545.857,422.797h 7.39843" fill="none" stroke="black"/>
<path d="M538.459,403.98h 14.7969" fill="none" stroke="black"/>
<path d="M545.857,385.164h 7.39843" fill="none" stroke="black"/>
<path d="M545.857,366.347h 7.39843" fill="none" stroke="black"/>
<path d="M545.857,347.53h 7.39843" fill="none" stroke="black"/>
<path d="M545.857,328.713h 7.39843" fill="none" stroke="black"/>
<path d="M538.459,309.897h 14.7969" fill="none" stroke="black"/>
<path d="M545.857,291.08h 7.39843" fill="none" stroke="black"/>
<path d="M545.857,272.263h 7.39843" fill="none" stroke="black"/>
<path d="M545.857,253.447h 7.39843" fill="none" stroke="black"/>
<path d="M545.857,234.63h 7.39843" fill="none" stroke="black"/>
<path d="M538.459,215.813h 14.7969" fill="none" stroke="black"/>
<path d="M545.857,196.997h 7.39843" fill="none" stroke="black"/>
<path d="M545.857,178.18h 7.39843" fill="none" stroke="black"/>
<path d="M545.857,159.363h 7.39843" fill="none" stroke="black"/>
<path d="M545.857,140.547h 7.39843" fill="none" stroke="black"/>
<path d="M538.459,121.73h 14.7969" fill="none" stroke="black"/>
<path d="M545.857,102.913h 7.39843" fill="none" stroke="black"/>
<path d="M545.857,84.0966h 7.39843" fill="none" stroke="black"/>
<path d="M545.857,65.2799h 7.39843" fill="none" stroke="black"/>
<path d="M545.857,46.4633h 7.39843" fill="none" stroke="black"/>
<path d="M538.459,27.6466h 14.7969" fill="none" stroke="black"/>
<path d="M538.459,27.6466h 14.7969" fill="none" stroke="black"/>
<g fill="black">
<circle cx="98.9408" cy="497.994" r="4.50838"/>
</g>
<g fill="black">
<circle cx="103.852" cy="494.486" r="4.50838"/>
</g>
<g fill="black">
<circle cx="108.764" cy="491.892" r="4.50838"/>
</g>
<g fill="black">
<circle cx="113.675" cy="493.087" r="4.50838"/>
</g>
<g fill="black">
<circle cx="118.587" cy="496.325" r="4.50838"/>
</g>
<g fill="black">
<circle cx="123.498" cy="495.236" r="4.50838"/>
</g>
<g fill="black">
<circle cx="128.41" cy="492.495" r="4.50838"/>
</g>
<g fill="black">
<circle cx="133.321" cy="492.409" r="4.50838"/>
</g>
<g fill="black">
<circle cx="138.233" cy="492.227" r="4.50838"/>
</g>
<g fill="black">
<circle cx="143.144" cy="491.81" r="4.50838"/>
</g>
<g fill="black">
<circle cx="148.056" cy="491.623" r="4.50838"/>
</g>
<g fill="black">
<circle cx="152.967" cy="491.601" r="4.50838"/>
</g>
<g fill="black">
<circle cx="157.879" cy="491.692" r="4.50838"/>
</g>
<g fill="black">
<circle cx="162.79" cy="491.8" r="4.50838"/>
</g>
<g fill="black">
<circle cx="167.702" cy="491.94" r="4.50838"/>
</g>
<g fill="black">
<circle cx="172.614" cy="492.092" r="4.50838"/>
</g>
<g fill="black">
<circle cx="177.525" cy="492.216" r="4.50838"/>
</g>
<g fill="black">
<circle cx="182.437" cy="492.376" r="4.50838"/>
</g>
<g fill="black">
<circle cx="187.348" cy="492.524" r="4.50838"/>
</g>
<g fill="black">
<circle cx="192.26" cy="492.711" r="4.50838"/>
</g>
<g fill="black">
<circle cx="197.171" cy="492.851" r="4.50838"/>
</g>
<g fill="black">
<circle cx="202.083" cy="493.009" r="4.50838"/>
</g>
<g fill="black">
<circle cx="206.994" cy="493.146" r="4.50838"/>
</g>
<g fill="black">
<circle cx="211.906" cy="493.287" r="4.50838"/>
</g>
<g fill="black">
<circle cx="216.817" cy="493.437" r="4.50838"/>
</g>
<g fill="black">
<circle cx="221.729" cy="493.535" r="4.50838"/>
</g>
<g fill="black">
<circle cx="226.64" cy="493.651" r="4.50838"/>
</g>
<g fill="black">
<circle cx="231.552" cy="493.806" r="4.50838"/>
</g>
<g fill="black">
<circle cx="236.463" cy="493.932" r="4.50838"/>
</g>
<g fill="black">
<circle cx="241.375" cy="494.063" r="4.50838"/>
</g>
<g fill="black">
<circle cx="246.286" cy="494.23" r="4.50838"/>
</g>
<g fill="black">
<circle cx="251.198" cy="494.375" r="4.50838"/>
</g>
<g fill="black">
<circle cx="256.109" cy="494.522" r="4.50838"/>
</g>
<g fill="black">
<circle cx="261.021" cy="494.663" r="4.50838"/>
</g>
<g fill="black">
<circle cx="265.932" cy="494.8" r="4.50838"/>
</g>
<g fill="black">
<circle cx="270.844" cy="494.926" r="4.50838"/>
</g>
<g fill="black">
<circle cx="275.755" cy="495.058" r="4.50838"/>
</g>
<g fill="black">
<circle cx="280.667" cy="495.18" r="4.50838"/>
</g>
<g fill="black">
<circle cx="285.578" cy="495.284" r="4.50838"/>
</g>
<g fill="black">
<circle cx="290.49" cy="495.396" r="4.50838"/>
</g>
<g fill="black">
<circle cx="295.401" cy="495.502" r="4.50838"/>
</g>
<g fill="black">
<circle cx="300.313" cy="495.601" r="4.50838"/>
</g>
<g fill="black">
<circle cx="305.224" cy="495.693" r="4.50838"/>
</g>
<g fill="black">
<circle cx="310.136" cy="495.794" r="4.50838"/>
</g>
<g fill="black">
<circle cx="315.047" cy="495.886" r="4.50838"/>
</g>
<g fill="black">
<circle cx="319.959" cy="495.957" r="4.50838"/>
</g>
<g fill="black">
<circle cx="324.87" cy="496.033" r="4.50838"/>
</g>
<g fill="black">
<circle cx="329.782" cy="496.104" r="4.50838"/>
</g>
<g fill="black">
<circle cx="334.694" cy="496.176" r="4.50838"/>
</g>
<g fill="black">
<circle cx="339.605" cy="496.247" r="4.50838"/>
</g>
<g fill="black">
<circle cx="344.517" cy="496.303" r="4.50838"/>
</g>
<g fill="black">
<circle cx="349.428" cy="496.353" r="4.50838"/>
</g>
<g fill="black">
<circle cx="354.34" cy="496.409" r="4.50838"/>
</g>
<g fill="black">
<circle cx="359.251" cy="496.471" r="4.50838"/>
</g>
<g fill="black">
<circle cx="364.163" cy="496.529" r="4.50838"/>
</g>
<g fill="black">
<circle cx="369.074" cy="496.553" r="4.50838"/>
</g>
<g fill="black">
<circle cx="373.986" cy="496.611" r="4.50838"/>
</g>
<g fill="black">
<circle cx="378.897" cy="496.652" r="4.50838"/>
</g>
<g fill="black">
<circle cx="383.809" cy="496.691" r="4.50838"/>
</g>
<g fill="black">
<circle cx="388.72" cy="496.722" r="4.50838"/>
</g>
<g fill="black">
<circle cx="393.632" cy="496.771" r="4.50838"/>
</g>
<g fill="black">
<circle cx="398.543" cy="496.798" r="4.50838"/>
</g>
<g fill="black">
<circle cx="403.455" cy="496.826" r="4.50838"/>
</g>
<g fill="black">
<circle cx="408.366" cy="496.868" r="4.50838"/>
</g>
<g fill="black">
<circle cx="413.278" cy="496.9" r="4.50838"/>
</g>
<g fill="black">
<circle cx="418.189" cy="496.93" r="4.50838"/>
</g>
<g fill="black">
<circle cx="423.101" cy="496.956" r="4.50838"/>
</g>
<g fill="black">
<circle cx="428.012" cy="496.99" r="4.50838"/>
</g>
<g fill="black">
<circle cx="432.924" cy="497.007" r="4.50838"/>
</g>
<g fill="black">
<circle cx="437.835" cy="497.032" r="4.50838"/>
</g>
<g fill="black">
<circle cx="442.747" cy="497.057" r="4.50838"/>
</g>
<g fill="black">
<circle cx="447.658" cy="497.081" r="4.50838"/>
</g>
<g fill="black">
<circle cx="452.57" cy="497.099" r="4.50838"/>
</g>
<g fill="black">
<circle cx="457.481" cy="497.12" r="4.50838"/>
</g>
<g fill="black">
<circle cx="462.393" cy="497.137" r="4.50838"/>
</g>
<g fill="black">
<circle cx="467.304" cy="497.164" r="4.50838"/>
</g>
<g fill="black">
<circle cx="472.216" cy="497.171" r="4.50838"/>
</g>
<g fill="black">
<circle cx="477.127" cy="497.19" r="4.50838"/>
</g>
<g fill="black">
<circle cx="482.039" cy="497.215" r="4.50838"/>
</g>
<g fill="black">
<circle cx="486.95" cy="497.226" r="4.50838"/>
</g>
<g fill="black">
<circle cx="491.862" cy="497.23" r="4.50838"/>
</g>
<g fill="black">
<circle cx="496.773" cy="497.249" r="4.50838"/>
</g>
<g fill="black">
<circle cx="501.685" cy="497.27" r="4.50838"/>
</g>
<g fill="black">
<circle cx="506.597" cy="497.283" r="4.50838"/>
</g>
<g fill="black">
<circle cx="511.508" cy="497.29" r="4.50838"/>
</g>
<g fill="black">
<circle cx="516.42" cy="497.303" r="4.50838"/>
</g>
<g fill="black">
<circle cx="521.331" cy="497.316" r="4.50838"/>
</g>
<g fill="black">
<circle cx="526.243" cy="497.328" r="4.50838"/>
</g>
<g fill="black">
<circle cx="531.154" cy="497.334" r="4.50838"/>
</g>
<g fill="black">
<circle cx="536.066" cy="497.343" r="4.50838"/>
</g>
<g fill="black">
<circle cx="540.977" cy="497.351" r="4.50838"/>
</g>
<g fill="black">
<circle cx="545.889" cy="497.365" r="4.50838"/>
</g>
<text xml:space="preserve" x="360.607" y="50.7193" fill="black" font-size="16.0105" font-family="Helvetica"> with EMC</text>
<text xml:space="preserve" x="352.717" y="50.7193" fill="black" font-size="16.0105" font-family="Times">&#0947;</text>
<text xml:space="preserve" x="344.828" y="50.7193" fill="black" font-size="16.0105" font-family="Times">&#0947;</text>
<text xml:space="preserve" x="336.938" y="50.7193" fill="black" font-size="16.0105" font-family="Times">&#0947;</text>
<text xml:space="preserve" x="331.866" y="50.7193" fill="black" font-size="16.0105" font-family="Helvetica"> </text>
<text xml:space="preserve" x="316.65" y="50.7193" fill="black" font-size="16.0105" font-family="Times">&#8594;</text>
<text xml:space="preserve" x="311.578" y="50.7193" fill="black" font-size="16.0105" font-family="Helvetica"> </text>
<text xml:space="preserve" x="303.689" y="50.7193" fill="black" font-size="16.0105" font-family="Times">&#0947;</text>
<text xml:space="preserve" x="298.053" y="45.0838" fill="black" font-size="10.8403" font-family="Helvetica">0</text>
<text xml:space="preserve" x="289.6" y="50.7193" fill="black" font-size="16.0105" font-family="Times">&#0960;</text>
<text xml:space="preserve" x="284.528" y="50.7193" fill="black" font-size="16.0105" font-family="Helvetica"> </text>
<text xml:space="preserve" x="269.312" y="50.7193" fill="black" font-size="16.0105" font-family="Times">&#8594;</text>
<text xml:space="preserve" x="264.24" y="50.7193" fill="black" font-size="16.0105" font-family="Helvetica"> </text>
<text xml:space="preserve" x="252.969" y="50.7193" fill="black" font-size="16.0105" font-family="Times">&#0969;</text>
<text xml:space="preserve" x="128.989" y="50.7193" fill="black" font-size="16.0105" font-family="Helvetica"> = 13 TeV (EG1), </text>
<text xml:space="preserve" x="120.536" y="50.7193" fill="black" font-size="16.0105" font-family="Helvetica" font-style="oblique">s</text>
<path d="M114.9,41.7025l 1.69064, 9.58031" fill="none" stroke="black" stroke-width="2"/>
<path d="M116.591,51.2829l 2.25419, -14.0887" fill="none" stroke="black"/>
<path d="M118.845,37.1942h 10.1439" fill="none" stroke="black"/>
<text xml:space="preserve" x="89.5406" y="50.7193" fill="black" font-size="16.0105" font-family="Helvetica">pp </text>
<text xml:space="preserve" x="89.5406" y="85.6593" fill="black" font-size="16.0105" font-family="Helvetica">ALICE work in progress</text>
<text xml:space="preserve" x="205.068" y="120.599" fill="black" font-size="16.0105" font-family="Helvetica">) &lt; 8.0</text>
<text xml:space="preserve" x="196.051" y="120.599" fill="black" font-size="16.0105" font-family="Helvetica" font-style="oblique">c</text>
<text xml:space="preserve" x="145.895" y="120.599" fill="black" font-size="16.0105" font-family="Helvetica"> /(GeV/</text>
<text xml:space="preserve" x="139.133" y="128.489" fill="black" font-size="10.8403" font-family="Helvetica">T</text>
<text xml:space="preserve" x="129.552" y="120.599" fill="black" font-size="16.0105" font-family="Helvetica" font-style="oblique">p</text>
<text xml:space="preserve" x="124.481" y="120.599" fill="black" font-size="16.0105" font-family="Helvetica"> </text>
<text xml:space="preserve" x="116.027" y="120.599" fill="black" font-size="16.0105" font-family="Times">&#8804;</text>
<text xml:space="preserve" x="89.5406" y="120.599" fill="black" font-size="16.0105" font-family="Helvetica">6.0 </text>
<text xml:space="preserve" x="134.624" y="158.357" fill="black" font-size="16.0105" font-family="Helvetica">background</text>
<path d="M92.9803,152.186h 34.7244" fill="none" stroke="#993333" stroke-width="2"/>
<g fill="#993333">
<rect x="105.834" y="147.678" width="9.01677" height="9.01677"/>
</g>
<text xml:space="preserve" x="134.624" y="185.971" fill="black" font-size="16.0105" font-family="Helvetica">same event</text>
<path d="M92.9803,179.856h 34.7244" fill="none" stroke="black" stroke-width="2"/>
<g fill="black">
<circle cx="110.343" cy="179.856" r="4.50838"/>
</g></svg>
