<?xml version="1.0" standalone="no"?>
<svg width="567.429" height="553.904" viewBox="0 0 567.429 553.904" xmlns="http://www.w3.org/2000/svg" shape-rendering="crispEdges">
<title>
Data/EG1/Pi0RotPS/SignalAndBackgroundFit_11.svg
</title>
<desc>
Creator: ROOT Version 6.20/08
CreationDate: Mon Mar 29 21:28:57 2021</desc>
<defs>
</defs>
<rect x="0.5" y="0" width="566.929" height="553.404" fill="white"/>
<rect x="57.1929" y="16.6021" width="496.063" height="481.461" fill="white"/>
<rect x="57.1929" y="16.6021" width="496.063" height="481.461" fill="none" stroke="black"/>
<rect x="57.1929" y="16.6021" width="496.063" height="481.461" fill="white"/>
<rect x="57.1929" y="16.6021" width="496.063" height="481.461" fill="none" stroke="black"/>
<g fill="black">
<circle cx="108.764" cy="498.034" r="6.76257"/>
</g>
<g fill="black">
<circle cx="113.675" cy="497.678" r="6.76257"/>
</g>
<g fill="black">
<circle cx="118.587" cy="496.935" r="6.76257"/>
</g>
<g fill="black">
<circle cx="123.498" cy="494.293" r="6.76257"/>
</g>
<g fill="black">
<circle cx="128.41" cy="492.839" r="6.76257"/>
</g>
<g fill="black">
<circle cx="133.321" cy="486.189" r="6.76257"/>
</g>
<g fill="black">
<circle cx="138.233" cy="457.808" r="6.76257"/>
</g>
<g fill="black">
<circle cx="143.144" cy="422.214" r="6.76257"/>
</g>
<g fill="black">
<circle cx="148.056" cy="401.73" r="6.76257"/>
</g>
<g fill="black">
<circle cx="152.967" cy="389.024" r="6.76257"/>
</g>
<g fill="black">
<circle cx="157.879" cy="375.16" r="6.76257"/>
</g>
<g fill="black">
<circle cx="162.79" cy="355.389" r="6.76257"/>
</g>
<g fill="black">
<circle cx="167.702" cy="337.25" r="6.76257"/>
</g>
<g fill="black">
<circle cx="172.614" cy="319.378" r="6.76257"/>
</g>
<g fill="black">
<circle cx="177.525" cy="303.763" r="6.76257"/>
</g>
<g fill="black">
<circle cx="182.437" cy="289.009" r="6.76257"/>
</g>
<g fill="black">
<circle cx="187.348" cy="275.115" r="6.76257"/>
</g>
<g fill="black">
<circle cx="192.26" cy="265.823" r="6.76257"/>
</g>
<g fill="black">
<circle cx="197.171" cy="255.374" r="6.76257"/>
</g>
<g fill="black">
<circle cx="202.083" cy="259.173" r="6.76257"/>
</g>
<g fill="black">
<circle cx="206.994" cy="252.583" r="6.76257"/>
</g>
<g fill="black">
<circle cx="211.906" cy="253.385" r="6.76257"/>
</g>
<g fill="black">
<circle cx="216.817" cy="248.249" r="6.76257"/>
</g>
<g fill="black">
<circle cx="221.729" cy="249.288" r="6.76257"/>
</g>
<g fill="black">
<circle cx="226.64" cy="250.624" r="6.76257"/>
</g>
<g fill="black">
<circle cx="231.552" cy="240.085" r="6.76257"/>
</g>
<g fill="black">
<circle cx="236.463" cy="241.302" r="6.76257"/>
</g>
<g fill="black">
<circle cx="241.375" cy="238.986" r="6.76257"/>
</g>
<g fill="black">
<circle cx="246.286" cy="230.585" r="6.76257"/>
</g>
<g fill="black">
<circle cx="251.198" cy="237.799" r="6.76257"/>
</g>
<g fill="black">
<circle cx="256.109" cy="239.165" r="6.76257"/>
</g>
<g fill="black">
<circle cx="261.021" cy="244.36" r="6.76257"/>
</g>
<g fill="black">
<circle cx="265.932" cy="245.963" r="6.76257"/>
</g>
<g fill="black">
<circle cx="270.844" cy="246.141" r="6.76257"/>
</g>
<g fill="black">
<circle cx="275.755" cy="250.891" r="6.76257"/>
</g>
<g fill="black">
<circle cx="280.667" cy="248.516" r="6.76257"/>
</g>
<g fill="black">
<circle cx="285.578" cy="253.177" r="6.76257"/>
</g>
<g fill="black">
<circle cx="290.49" cy="253.978" r="6.76257"/>
</g>
<g fill="black">
<circle cx="295.401" cy="255.166" r="6.76257"/>
</g>
<g fill="black">
<circle cx="300.313" cy="257.125" r="6.76257"/>
</g>
<g fill="black">
<circle cx="305.224" cy="260.45" r="6.76257"/>
</g>
<g fill="black">
<circle cx="310.136" cy="269.831" r="6.76257"/>
</g>
<g fill="black">
<circle cx="315.047" cy="278.915" r="6.76257"/>
</g>
<g fill="black">
<circle cx="319.959" cy="286.663" r="6.76257"/>
</g>
<g fill="black">
<circle cx="324.87" cy="284.793" r="6.76257"/>
</g>
<g fill="black">
<circle cx="329.782" cy="287.97" r="6.76257"/>
</g>
<g fill="black">
<circle cx="334.694" cy="290.76" r="6.76257"/>
</g>
<g fill="black">
<circle cx="339.605" cy="302.962" r="6.76257"/>
</g>
<g fill="black">
<circle cx="344.517" cy="299.548" r="6.76257"/>
</g>
<g fill="black">
<circle cx="349.428" cy="306.672" r="6.76257"/>
</g>
<g fill="black">
<circle cx="354.34" cy="313.352" r="6.76257"/>
</g>
<g fill="black">
<circle cx="359.251" cy="318.903" r="6.76257"/>
</g>
<g fill="black">
<circle cx="364.163" cy="324.01" r="6.76257"/>
</g>
<g fill="black">
<circle cx="369.074" cy="329.798" r="6.76257"/>
</g>
<g fill="black">
<circle cx="373.986" cy="335.023" r="6.76257"/>
</g>
<g fill="black">
<circle cx="378.897" cy="334.489" r="6.76257"/>
</g>
<g fill="black">
<circle cx="383.809" cy="341.495" r="6.76257"/>
</g>
<g fill="black">
<circle cx="388.72" cy="342.356" r="6.76257"/>
</g>
<g fill="black">
<circle cx="393.632" cy="346.542" r="6.76257"/>
</g>
<g fill="black">
<circle cx="398.543" cy="348.679" r="6.76257"/>
</g>
<g fill="black">
<circle cx="403.455" cy="354.676" r="6.76257"/>
</g>
<g fill="black">
<circle cx="408.366" cy="359.278" r="6.76257"/>
</g>
<g fill="black">
<circle cx="413.278" cy="356.546" r="6.76257"/>
</g>
<g fill="black">
<circle cx="418.189" cy="362.276" r="6.76257"/>
</g>
<g fill="black">
<circle cx="423.101" cy="365.571" r="6.76257"/>
</g>
<g fill="black">
<circle cx="428.012" cy="367.887" r="6.76257"/>
</g>
<g fill="black">
<circle cx="432.924" cy="374.418" r="6.76257"/>
</g>
<g fill="black">
<circle cx="437.835" cy="378.218" r="6.76257"/>
</g>
<g fill="black">
<circle cx="442.747" cy="382.285" r="6.76257"/>
</g>
<g fill="black">
<circle cx="447.658" cy="386.144" r="6.76257"/>
</g>
<g fill="black">
<circle cx="452.57" cy="383.888" r="6.76257"/>
</g>
<g fill="black">
<circle cx="457.481" cy="390.775" r="6.76257"/>
</g>
<g fill="black">
<circle cx="462.393" cy="392.438" r="6.76257"/>
</g>
<g fill="black">
<circle cx="467.304" cy="396.742" r="6.76257"/>
</g>
<g fill="black">
<circle cx="472.216" cy="399.77" r="6.76257"/>
</g>
<g fill="black">
<circle cx="477.127" cy="404.134" r="6.76257"/>
</g>
<g fill="black">
<circle cx="482.039" cy="406.153" r="6.76257"/>
</g>
<g fill="black">
<circle cx="486.95" cy="405.381" r="6.76257"/>
</g>
<g fill="black">
<circle cx="491.862" cy="409.894" r="6.76257"/>
</g>
<g fill="black">
<circle cx="496.773" cy="412.15" r="6.76257"/>
</g>
<g fill="black">
<circle cx="501.685" cy="414.079" r="6.76257"/>
</g>
<g fill="black">
<circle cx="506.597" cy="419.512" r="6.76257"/>
</g>
<g fill="black">
<circle cx="511.508" cy="418.533" r="6.76257"/>
</g>
<g fill="black">
<circle cx="516.42" cy="423.817" r="6.76257"/>
</g>
<g fill="black">
<circle cx="521.331" cy="422.748" r="6.76257"/>
</g>
<g fill="black">
<circle cx="526.243" cy="425.45" r="6.76257"/>
</g>
<g fill="black">
<circle cx="531.154" cy="425.271" r="6.76257"/>
</g>
<g fill="black">
<circle cx="536.066" cy="425.776" r="6.76257"/>
</g>
<g fill="black">
<circle cx="540.977" cy="434.148" r="6.76257"/>
</g>
<g fill="black">
<circle cx="545.889" cy="433.613" r="6.76257"/>
</g>
<path d="M57.1929,498.064h 496.063" fill="none" stroke="black"/>
<path d="M57.1929,483.537v 14.5269" fill="none" stroke="black"/>
<path d="M72.5414,490.8v 7.26343" fill="none" stroke="black"/>
<path d="M87.8899,490.8v 7.26343" fill="none" stroke="black"/>
<path d="M103.238,490.8v 7.26343" fill="none" stroke="black"/>
<path d="M118.587,483.537v 14.5269" fill="none" stroke="black"/>
<path d="M133.935,490.8v 7.26343" fill="none" stroke="black"/>
<path d="M149.284,490.8v 7.26343" fill="none" stroke="black"/>
<path d="M164.632,490.8v 7.26343" fill="none" stroke="black"/>
<path d="M179.981,483.537v 14.5269" fill="none" stroke="black"/>
<path d="M195.329,490.8v 7.26343" fill="none" stroke="black"/>
<path d="M210.678,490.8v 7.26343" fill="none" stroke="black"/>
<path d="M226.026,490.8v 7.26343" fill="none" stroke="black"/>
<path d="M241.375,483.537v 14.5269" fill="none" stroke="black"/>
<path d="M256.723,490.8v 7.26343" fill="none" stroke="black"/>
<path d="M272.072,490.8v 7.26343" fill="none" stroke="black"/>
<path d="M287.42,490.8v 7.26343" fill="none" stroke="black"/>
<path d="M302.769,483.537v 14.5269" fill="none" stroke="black"/>
<path d="M318.117,490.8v 7.26343" fill="none" stroke="black"/>
<path d="M333.466,490.8v 7.26343" fill="none" stroke="black"/>
<path d="M348.814,490.8v 7.26343" fill="none" stroke="black"/>
<path d="M364.163,483.537v 14.5269" fill="none" stroke="black"/>
<path d="M379.511,490.8v 7.26343" fill="none" stroke="black"/>
<path d="M394.86,490.8v 7.26343" fill="none" stroke="black"/>
<path d="M410.208,490.8v 7.26343" fill="none" stroke="black"/>
<path d="M425.557,483.537v 14.5269" fill="none" stroke="black"/>
<path d="M440.905,490.8v 7.26343" fill="none" stroke="black"/>
<path d="M456.253,490.8v 7.26343" fill="none" stroke="black"/>
<path d="M471.602,490.8v 7.26343" fill="none" stroke="black"/>
<path d="M486.95,483.537v 14.5269" fill="none" stroke="black"/>
<path d="M502.299,490.8v 7.26343" fill="none" stroke="black"/>
<path d="M517.647,490.8v 7.26343" fill="none" stroke="black"/>
<path d="M532.996,490.8v 7.26343" fill="none" stroke="black"/>
<path d="M548.344,483.537v 14.5269" fill="none" stroke="black"/>
<path d="M548.344,483.537v 14.5269" fill="none" stroke="black"/>
<text xml:space="preserve" x="52.3464" y="513.956" fill="black" font-size="16.0105" font-family="Helvetica">0</text>
<text xml:space="preserve" x="107.574" y="513.956" fill="black" font-size="16.0105" font-family="Helvetica">0.2</text>
<text xml:space="preserve" x="169.001" y="513.956" fill="black" font-size="16.0105" font-family="Helvetica">0.4</text>
<text xml:space="preserve" x="230.428" y="513.956" fill="black" font-size="16.0105" font-family="Helvetica">0.6</text>
<text xml:space="preserve" x="291.854" y="513.956" fill="black" font-size="16.0105" font-family="Helvetica">0.8</text>
<text xml:space="preserve" x="361.171" y="513.956" fill="black" font-size="16.0105" font-family="Helvetica">1</text>
<text xml:space="preserve" x="414.708" y="513.956" fill="black" font-size="16.0105" font-family="Helvetica">1.2</text>
<text xml:space="preserve" x="476.134" y="513.956" fill="black" font-size="16.0105" font-family="Helvetica">1.4</text>
<text xml:space="preserve" x="537.561" y="513.956" fill="black" font-size="16.0105" font-family="Helvetica">1.6</text>
<text xml:space="preserve" x="548.268" y="537.625" fill="black" font-size="16.0105" font-family="Helvetica">)</text>
<text xml:space="preserve" x="542.633" y="532.553" fill="black" font-size="10.8403" font-family="Helvetica">2</text>
<text xml:space="preserve" x="533.616" y="537.625" fill="black" font-size="16.0105" font-family="Helvetica" font-style="oblique">c</text>
<text xml:space="preserve" x="487.405" y="537.625" fill="black" font-size="16.0105" font-family="Helvetica"> (GeV/</text>
<text xml:space="preserve" x="473.317" y="542.697" fill="black" font-size="10.8403" font-family="Helvetica">inv</text>
<text xml:space="preserve" x="459.792" y="537.625" fill="black" font-size="16.0105" font-family="Helvetica" font-style="oblique">m</text>
<path d="M57.1929,16.6021h 496.063" fill="none" stroke="black"/>
<path d="M57.1929,31.129v -14.5269" fill="none" stroke="black"/>
<path d="M72.5414,23.8655v -7.26343" fill="none" stroke="black"/>
<path d="M87.8899,23.8655v -7.26343" fill="none" stroke="black"/>
<path d="M103.238,23.8655v -7.26343" fill="none" stroke="black"/>
<path d="M118.587,31.129v -14.5269" fill="none" stroke="black"/>
<path d="M133.935,23.8655v -7.26343" fill="none" stroke="black"/>
<path d="M149.284,23.8655v -7.26343" fill="none" stroke="black"/>
<path d="M164.632,23.8655v -7.26343" fill="none" stroke="black"/>
<path d="M179.981,31.129v -14.5269" fill="none" stroke="black"/>
<path d="M195.329,23.8655v -7.26343" fill="none" stroke="black"/>
<path d="M210.678,23.8655v -7.26343" fill="none" stroke="black"/>
<path d="M226.026,23.8655v -7.26343" fill="none" stroke="black"/>
<path d="M241.375,31.129v -14.5269" fill="none" stroke="black"/>
<path d="M256.723,23.8655v -7.26343" fill="none" stroke="black"/>
<path d="M272.072,23.8655v -7.26343" fill="none" stroke="black"/>
<path d="M287.42,23.8655v -7.26343" fill="none" stroke="black"/>
<path d="M302.769,31.129v -14.5269" fill="none" stroke="black"/>
<path d="M318.117,23.8655v -7.26343" fill="none" stroke="black"/>
<path d="M333.466,23.8655v -7.26343" fill="none" stroke="black"/>
<path d="M348.814,23.8655v -7.26343" fill="none" stroke="black"/>
<path d="M364.163,31.129v -14.5269" fill="none" stroke="black"/>
<path d="M379.511,23.8655v -7.26343" fill="none" stroke="black"/>
<path d="M394.86,23.8655v -7.26343" fill="none" stroke="black"/>
<path d="M410.208,23.8655v -7.26343" fill="none" stroke="black"/>
<path d="M425.557,31.129v -14.5269" fill="none" stroke="black"/>
<path d="M440.905,23.8655v -7.26343" fill="none" stroke="black"/>
<path d="M456.253,23.8655v -7.26343" fill="none" stroke="black"/>
<path d="M471.602,23.8655v -7.26343" fill="none" stroke="black"/>
<path d="M486.95,31.129v -14.5269" fill="none" stroke="black"/>
<path d="M502.299,23.8655v -7.26343" fill="none" stroke="black"/>
<path d="M517.647,23.8655v -7.26343" fill="none" stroke="black"/>
<path d="M532.996,23.8655v -7.26343" fill="none" stroke="black"/>
<path d="M548.344,31.129v -14.5269" fill="none" stroke="black"/>
<path d="M548.344,31.129v -14.5269" fill="none" stroke="black"/>
<path d="M57.1929,498.064v -481.461" fill="none" stroke="black"/>
<path d="M71.9898,498.064h -14.7969" fill="none" stroke="black"/>
<path d="M64.5913,483.22h -7.39843" fill="none" stroke="black"/>
<path d="M64.5913,468.377h -7.39843" fill="none" stroke="black"/>
<path d="M64.5913,453.533h -7.39843" fill="none" stroke="black"/>
<path d="M71.9898,438.69h -14.7969" fill="none" stroke="black"/>
<path d="M64.5913,423.846h -7.39843" fill="none" stroke="black"/>
<path d="M64.5913,409.003h -7.39843" fill="none" stroke="black"/>
<path d="M64.5913,394.16h -7.39843" fill="none" stroke="black"/>
<path d="M71.9898,379.316h -14.7969" fill="none" stroke="black"/>
<path d="M64.5913,364.473h -7.39843" fill="none" stroke="black"/>
<path d="M64.5913,349.629h -7.39843" fill="none" stroke="black"/>
<path d="M64.5913,334.786h -7.39843" fill="none" stroke="black"/>
<path d="M71.9898,319.942h -14.7969" fill="none" stroke="black"/>
<path d="M64.5913,305.099h -7.39843" fill="none" stroke="black"/>
<path d="M64.5913,290.256h -7.39843" fill="none" stroke="black"/>
<path d="M64.5913,275.412h -7.39843" fill="none" stroke="black"/>
<path d="M71.9898,260.569h -14.7969" fill="none" stroke="black"/>
<path d="M64.5913,245.725h -7.39843" fill="none" stroke="black"/>
<path d="M64.5913,230.882h -7.39843" fill="none" stroke="black"/>
<path d="M64.5913,216.038h -7.39843" fill="none" stroke="black"/>
<path d="M71.9898,201.195h -14.7969" fill="none" stroke="black"/>
<path d="M64.5913,186.352h -7.39843" fill="none" stroke="black"/>
<path d="M64.5913,171.508h -7.39843" fill="none" stroke="black"/>
<path d="M64.5913,156.665h -7.39843" fill="none" stroke="black"/>
<path d="M71.9898,141.821h -14.7969" fill="none" stroke="black"/>
<path d="M64.5913,126.978h -7.39843" fill="none" stroke="black"/>
<path d="M64.5913,112.134h -7.39843" fill="none" stroke="black"/>
<path d="M64.5913,97.291h -7.39843" fill="none" stroke="black"/>
<path d="M71.9898,82.4476h -14.7969" fill="none" stroke="black"/>
<path d="M64.5913,67.6041h -7.39843" fill="none" stroke="black"/>
<path d="M64.5913,52.7607h -7.39843" fill="none" stroke="black"/>
<path d="M64.5913,37.9173h -7.39843" fill="none" stroke="black"/>
<path d="M71.9898,23.0739h -14.7969" fill="none" stroke="black"/>
<path d="M71.9898,23.0739h -14.7969" fill="none" stroke="black"/>
<text xml:space="preserve" x="45.5838" y="503.248" fill="black" font-size="16.0105" font-family="Helvetica">0</text>
<text xml:space="preserve" x="45.5838" y="444.639" fill="black" font-size="16.0105" font-family="Helvetica">2</text>
<text xml:space="preserve" x="45.5838" y="385.467" fill="black" font-size="16.0105" font-family="Helvetica">4</text>
<text xml:space="preserve" x="45.5838" y="325.167" fill="black" font-size="16.0105" font-family="Helvetica">6</text>
<text xml:space="preserve" x="45.5838" y="265.995" fill="black" font-size="16.0105" font-family="Helvetica">8</text>
<text xml:space="preserve" x="37.1306" y="206.822" fill="black" font-size="16.0105" font-family="Helvetica">10</text>
<text xml:space="preserve" x="37.1306" y="147.65" fill="black" font-size="16.0105" font-family="Helvetica">12</text>
<text xml:space="preserve" x="36.5671" y="88.477" fill="black" font-size="16.0105" font-family="Helvetica">14</text>
<text xml:space="preserve" x="37.1306" y="28.1774" fill="black" font-size="16.0105" font-family="Helvetica">16</text>
<text xml:space="preserve" x="82.2144" y="7.32612" fill="black" font-size="10.8403" font-family="Helvetica">3</text>
<text xml:space="preserve" x="65.308" y="14.6522" fill="black" font-size="16.0105" font-family="Helvetica">10</text>
<text xml:space="preserve" x="56.8548" y="14.6522" fill="black" font-size="16.0105" font-family="Times">&#0215;</text>
<g transform="rotate(-90,22.4784,21.9784)">
<text xml:space="preserve" x="22.4784" y="21.9784" fill="black" font-size="10.8403" font-family="Times">&#0947;</text>
</g>
<g transform="rotate(-90,18.5335,25.9232)">
<text xml:space="preserve" x="18.5335" y="25.9232" fill="black" font-size="7.39355" font-family="Helvetica">0</text>
</g>
<g transform="rotate(-90,22.4784,32.1222)">
<text xml:space="preserve" x="22.4784" y="32.1222" fill="black" font-size="10.8403" font-family="Times">&#0960;</text>
</g>
<g transform="rotate(-90,17.4064,45.0838)">
<text xml:space="preserve" x="17.4064" y="45.0838" fill="black" font-size="16.0105" font-family="Helvetica" font-style="oblique">N</text>
</g>
<path d="M553.256,498.064v -481.461" fill="none" stroke="black"/>
<path d="M538.459,498.064h 14.7969" fill="none" stroke="black"/>
<path d="M545.857,483.22h 7.39843" fill="none" stroke="black"/>
<path d="M545.857,468.377h 7.39843" fill="none" stroke="black"/>
<path d="M545.857,453.533h 7.39843" fill="none" stroke="black"/>
<path d="M538.459,438.69h 14.7969" fill="none" stroke="black"/>
<path d="M545.857,423.846h 7.39843" fill="none" stroke="black"/>
<path d="M545.857,409.003h 7.39843" fill="none" stroke="black"/>
<path d="M545.857,394.16h 7.39843" fill="none" stroke="black"/>
<path d="M538.459,379.316h 14.7969" fill="none" stroke="black"/>
<path d="M545.857,364.473h 7.39843" fill="none" stroke="black"/>
<path d="M545.857,349.629h 7.39843" fill="none" stroke="black"/>
<path d="M545.857,334.786h 7.39843" fill="none" stroke="black"/>
<path d="M538.459,319.942h 14.7969" fill="none" stroke="black"/>
<path d="M545.857,305.099h 7.39843" fill="none" stroke="black"/>
<path d="M545.857,290.256h 7.39843" fill="none" stroke="black"/>
<path d="M545.857,275.412h 7.39843" fill="none" stroke="black"/>
<path d="M538.459,260.569h 14.7969" fill="none" stroke="black"/>
<path d="M545.857,245.725h 7.39843" fill="none" stroke="black"/>
<path d="M545.857,230.882h 7.39843" fill="none" stroke="black"/>
<path d="M545.857,216.038h 7.39843" fill="none" stroke="black"/>
<path d="M538.459,201.195h 14.7969" fill="none" stroke="black"/>
<path d="M545.857,186.352h 7.39843" fill="none" stroke="black"/>
<path d="M545.857,171.508h 7.39843" fill="none" stroke="black"/>
<path d="M545.857,156.665h 7.39843" fill="none" stroke="black"/>
<path d="M538.459,141.821h 14.7969" fill="none" stroke="black"/>
<path d="M545.857,126.978h 7.39843" fill="none" stroke="black"/>
<path d="M545.857,112.134h 7.39843" fill="none" stroke="black"/>
<path d="M545.857,97.291h 7.39843" fill="none" stroke="black"/>
<path d="M538.459,82.4476h 14.7969" fill="none" stroke="black"/>
<path d="M545.857,67.6041h 7.39843" fill="none" stroke="black"/>
<path d="M545.857,52.7607h 7.39843" fill="none" stroke="black"/>
<path d="M545.857,37.9173h 7.39843" fill="none" stroke="black"/>
<path d="M538.459,23.0739h 14.7969" fill="none" stroke="black"/>
<path d="M538.459,23.0739h 14.7969" fill="none" stroke="black"/>
<g stroke="#33cccc" stroke-width="2" fill="none">
<rect x="93.3053" y="487.848" width="11.271" height="11.271"/>
</g>
<g stroke="#33cccc" stroke-width="2" fill="none">
<rect x="98.2168" y="469.859" width="11.271" height="11.271"/>
</g>
<g stroke="#33cccc" stroke-width="2" fill="none">
<rect x="103.128" y="464.93" width="11.271" height="11.271"/>
</g>
<g stroke="#33cccc" stroke-width="2" fill="none">
<rect x="108.04" y="468.792" width="11.271" height="11.271"/>
</g>
<g stroke="#33cccc" stroke-width="2" fill="none">
<rect x="112.951" y="472.796" width="11.271" height="11.271"/>
</g>
<g stroke="#33cccc" stroke-width="2" fill="none">
<rect x="117.863" y="474.084" width="11.271" height="11.271"/>
</g>
<g stroke="#33cccc" stroke-width="2" fill="none">
<rect x="122.774" y="473.691" width="11.271" height="11.271"/>
</g>
<g stroke="#33cccc" stroke-width="2" fill="none">
<rect x="127.686" y="465.22" width="11.271" height="11.271"/>
</g>
<g stroke="#33cccc" stroke-width="2" fill="none">
<rect x="132.597" y="435.936" width="11.271" height="11.271"/>
</g>
<g stroke="#33cccc" stroke-width="2" fill="none">
<rect x="137.509" y="396.838" width="11.271" height="11.271"/>
</g>
<g stroke="#33cccc" stroke-width="2" fill="none">
<rect x="142.42" y="380.911" width="11.271" height="11.271"/>
</g>
<g stroke="#33cccc" stroke-width="2" fill="none">
<rect x="147.332" y="371.179" width="11.271" height="11.271"/>
</g>
<g stroke="#33cccc" stroke-width="2" fill="none">
<rect x="152.243" y="360.789" width="11.271" height="11.271"/>
</g>
<g stroke="#33cccc" stroke-width="2" fill="none">
<rect x="157.155" y="351.138" width="11.271" height="11.271"/>
</g>
<g stroke="#33cccc" stroke-width="2" fill="none">
<rect x="162.067" y="339.373" width="11.271" height="11.271"/>
</g>
<g stroke="#33cccc" stroke-width="2" fill="none">
<rect x="166.978" y="328.585" width="11.271" height="11.271"/>
</g>
<g stroke="#33cccc" stroke-width="2" fill="none">
<rect x="171.89" y="316.733" width="11.271" height="11.271"/>
</g>
<g stroke="#33cccc" stroke-width="2" fill="none">
<rect x="176.801" y="306.286" width="11.271" height="11.271"/>
</g>
<g stroke="#33cccc" stroke-width="2" fill="none">
<rect x="181.713" y="293.508" width="11.271" height="11.271"/>
</g>
<g stroke="#33cccc" stroke-width="2" fill="none">
<rect x="186.624" y="283.177" width="11.271" height="11.271"/>
</g>
<g stroke="#33cccc" stroke-width="2" fill="none">
<rect x="191.536" y="273.476" width="11.271" height="11.271"/>
</g>
<g stroke="#33cccc" stroke-width="2" fill="none">
<rect x="196.447" y="264.943" width="11.271" height="11.271"/>
</g>
<g stroke="#33cccc" stroke-width="2" fill="none">
<rect x="201.359" y="256.98" width="11.271" height="11.271"/>
</g>
<g stroke="#33cccc" stroke-width="2" fill="none">
<rect x="206.27" y="250.912" width="11.271" height="11.271"/>
</g>
<g stroke="#33cccc" stroke-width="2" fill="none">
<rect x="211.182" y="246.42" width="11.271" height="11.271"/>
</g>
<g stroke="#33cccc" stroke-width="2" fill="none">
<rect x="216.093" y="240.99" width="11.271" height="11.271"/>
</g>
<g stroke="#33cccc" stroke-width="2" fill="none">
<rect x="221.005" y="240.139" width="11.271" height="11.271"/>
</g>
<g stroke="#33cccc" stroke-width="2" fill="none">
<rect x="225.916" y="237.382" width="11.271" height="11.271"/>
</g>
<g stroke="#33cccc" stroke-width="2" fill="none">
<rect x="230.828" y="236.043" width="11.271" height="11.271"/>
</g>
<g stroke="#33cccc" stroke-width="2" fill="none">
<rect x="235.739" y="234.974" width="11.271" height="11.271"/>
</g>
<g stroke="#33cccc" stroke-width="2" fill="none">
<rect x="240.651" y="234.238" width="11.271" height="11.271"/>
</g>
<g stroke="#33cccc" stroke-width="2" fill="none">
<rect x="245.562" y="237.308" width="11.271" height="11.271"/>
</g>
<g stroke="#33cccc" stroke-width="2" fill="none">
<rect x="250.474" y="237.064" width="11.271" height="11.271"/>
</g>
<g stroke="#33cccc" stroke-width="2" fill="none">
<rect x="255.385" y="236.635" width="11.271" height="11.271"/>
</g>
<g stroke="#33cccc" stroke-width="2" fill="none">
<rect x="260.297" y="238.931" width="11.271" height="11.271"/>
</g>
<g stroke="#33cccc" stroke-width="2" fill="none">
<rect x="265.208" y="242.928" width="11.271" height="11.271"/>
</g>
<g stroke="#33cccc" stroke-width="2" fill="none">
<rect x="270.12" y="243.871" width="11.271" height="11.271"/>
</g>
<g stroke="#33cccc" stroke-width="2" fill="none">
<rect x="275.031" y="247.305" width="11.271" height="11.271"/>
</g>
<g stroke="#33cccc" stroke-width="2" fill="none">
<rect x="279.943" y="249.665" width="11.271" height="11.271"/>
</g>
<g stroke="#33cccc" stroke-width="2" fill="none">
<rect x="284.854" y="251.809" width="11.271" height="11.271"/>
</g>
<g stroke="#33cccc" stroke-width="2" fill="none">
<rect x="289.766" y="256.168" width="11.271" height="11.271"/>
</g>
<g stroke="#33cccc" stroke-width="2" fill="none">
<rect x="294.677" y="259.291" width="11.271" height="11.271"/>
</g>
<g stroke="#33cccc" stroke-width="2" fill="none">
<rect x="299.589" y="264.033" width="11.271" height="11.271"/>
</g>
<g stroke="#33cccc" stroke-width="2" fill="none">
<rect x="304.5" y="267.482" width="11.271" height="11.271"/>
</g>
<g stroke="#33cccc" stroke-width="2" fill="none">
<rect x="309.412" y="270.05" width="11.271" height="11.271"/>
</g>
<g stroke="#33cccc" stroke-width="2" fill="none">
<rect x="314.323" y="276.193" width="11.271" height="11.271"/>
</g>
<g stroke="#33cccc" stroke-width="2" fill="none">
<rect x="319.235" y="279.044" width="11.271" height="11.271"/>
</g>
<g stroke="#33cccc" stroke-width="2" fill="none">
<rect x="324.147" y="283.028" width="11.271" height="11.271"/>
</g>
<g stroke="#33cccc" stroke-width="2" fill="none">
<rect x="329.058" y="286.999" width="11.271" height="11.271"/>
</g>
<g stroke="#33cccc" stroke-width="2" fill="none">
<rect x="333.97" y="292.317" width="11.271" height="11.271"/>
</g>
<g stroke="#33cccc" stroke-width="2" fill="none">
<rect x="338.881" y="296.641" width="11.271" height="11.271"/>
</g>
<g stroke="#33cccc" stroke-width="2" fill="none">
<rect x="343.793" y="302.554" width="11.271" height="11.271"/>
</g>
<g stroke="#33cccc" stroke-width="2" fill="none">
<rect x="348.704" y="304.896" width="11.271" height="11.271"/>
</g>
<g stroke="#33cccc" stroke-width="2" fill="none">
<rect x="353.616" y="309.832" width="11.271" height="11.271"/>
</g>
<g stroke="#33cccc" stroke-width="2" fill="none">
<rect x="358.527" y="313.145" width="11.271" height="11.271"/>
</g>
<g stroke="#33cccc" stroke-width="2" fill="none">
<rect x="363.439" y="316.757" width="11.271" height="11.271"/>
</g>
<g stroke="#33cccc" stroke-width="2" fill="none">
<rect x="368.35" y="322.232" width="11.271" height="11.271"/>
</g>
<g stroke="#33cccc" stroke-width="2" fill="none">
<rect x="373.262" y="325.639" width="11.271" height="11.271"/>
</g>
<g stroke="#33cccc" stroke-width="2" fill="none">
<rect x="378.173" y="328.58" width="11.271" height="11.271"/>
</g>
<g stroke="#33cccc" stroke-width="2" fill="none">
<rect x="383.085" y="333.685" width="11.271" height="11.271"/>
</g>
<g stroke="#33cccc" stroke-width="2" fill="none">
<rect x="387.996" y="338.541" width="11.271" height="11.271"/>
</g>
<g stroke="#33cccc" stroke-width="2" fill="none">
<rect x="392.908" y="342.317" width="11.271" height="11.271"/>
</g>
<g stroke="#33cccc" stroke-width="2" fill="none">
<rect x="397.819" y="346.313" width="11.271" height="11.271"/>
</g>
<g stroke="#33cccc" stroke-width="2" fill="none">
<rect x="402.731" y="351.55" width="11.271" height="11.271"/>
</g>
<g stroke="#33cccc" stroke-width="2" fill="none">
<rect x="407.642" y="355.146" width="11.271" height="11.271"/>
</g>
<g stroke="#33cccc" stroke-width="2" fill="none">
<rect x="412.554" y="358.747" width="11.271" height="11.271"/>
</g>
<g stroke="#33cccc" stroke-width="2" fill="none">
<rect x="417.465" y="361.004" width="11.271" height="11.271"/>
</g>
<g stroke="#33cccc" stroke-width="2" fill="none">
<rect x="422.377" y="366.464" width="11.271" height="11.271"/>
</g>
<g stroke="#33cccc" stroke-width="2" fill="none">
<rect x="427.288" y="370.045" width="11.271" height="11.271"/>
</g>
<g stroke="#33cccc" stroke-width="2" fill="none">
<rect x="432.2" y="373.21" width="11.271" height="11.271"/>
</g>
<g stroke="#33cccc" stroke-width="2" fill="none">
<rect x="437.111" y="376.85" width="11.271" height="11.271"/>
</g>
<g stroke="#33cccc" stroke-width="2" fill="none">
<rect x="442.023" y="380.67" width="11.271" height="11.271"/>
</g>
<g stroke="#33cccc" stroke-width="2" fill="none">
<rect x="446.934" y="384.51" width="11.271" height="11.271"/>
</g>
<g stroke="#33cccc" stroke-width="2" fill="none">
<rect x="451.846" y="387.079" width="11.271" height="11.271"/>
</g>
<g stroke="#33cccc" stroke-width="2" fill="none">
<rect x="456.757" y="389.659" width="11.271" height="11.271"/>
</g>
<g stroke="#33cccc" stroke-width="2" fill="none">
<rect x="461.669" y="394.104" width="11.271" height="11.271"/>
</g>
<g stroke="#33cccc" stroke-width="2" fill="none">
<rect x="466.58" y="395.634" width="11.271" height="11.271"/>
</g>
<g stroke="#33cccc" stroke-width="2" fill="none">
<rect x="471.492" y="398.838" width="11.271" height="11.271"/>
</g>
<g stroke="#33cccc" stroke-width="2" fill="none">
<rect x="476.403" y="401.233" width="11.271" height="11.271"/>
</g>
<g stroke="#33cccc" stroke-width="2" fill="none">
<rect x="481.315" y="404.76" width="11.271" height="11.271"/>
</g>
<g stroke="#33cccc" stroke-width="2" fill="none">
<rect x="486.227" y="406.593" width="11.271" height="11.271"/>
</g>
<g stroke="#33cccc" stroke-width="2" fill="none">
<rect x="491.138" y="409.454" width="11.271" height="11.271"/>
</g>
<g stroke="#33cccc" stroke-width="2" fill="none">
<rect x="496.05" y="412.233" width="11.271" height="11.271"/>
</g>
<g stroke="#33cccc" stroke-width="2" fill="none">
<rect x="500.961" y="414.394" width="11.271" height="11.271"/>
</g>
<g stroke="#33cccc" stroke-width="2" fill="none">
<rect x="505.873" y="416.49" width="11.271" height="11.271"/>
</g>
<g stroke="#33cccc" stroke-width="2" fill="none">
<rect x="510.784" y="418.957" width="11.271" height="11.271"/>
</g>
<g stroke="#33cccc" stroke-width="2" fill="none">
<rect x="515.696" y="420.698" width="11.271" height="11.271"/>
</g>
<g stroke="#33cccc" stroke-width="2" fill="none">
<rect x="520.607" y="422.719" width="11.271" height="11.271"/>
</g>
<g stroke="#33cccc" stroke-width="2" fill="none">
<rect x="525.519" y="425.244" width="11.271" height="11.271"/>
</g>
<g stroke="#33cccc" stroke-width="2" fill="none">
<rect x="530.43" y="427.239" width="11.271" height="11.271"/>
</g>
<g stroke="#33cccc" stroke-width="2" fill="none">
<rect x="535.342" y="429.097" width="11.271" height="11.271"/>
</g>
<g stroke="#33cccc" stroke-width="2" fill="none">
<rect x="540.253" y="431.181" width="11.271" height="11.271"/>
</g>
<g stroke="#ff0066" stroke-width="2" fill="none">
<circle cx="98.9408" cy="492.88" r="5.63548"/>
</g>
<g stroke="#ff0066" stroke-width="2" fill="none">
<circle cx="103.852" cy="472.637" r="5.63548"/>
</g>
<g stroke="#ff0066" stroke-width="2" fill="none">
<circle cx="108.764" cy="467.218" r="5.63548"/>
</g>
<g stroke="#ff0066" stroke-width="2" fill="none">
<circle cx="113.675" cy="471.666" r="5.63548"/>
</g>
<g stroke="#ff0066" stroke-width="2" fill="none">
<circle cx="118.587" cy="476.231" r="5.63548"/>
</g>
<g stroke="#ff0066" stroke-width="2" fill="none">
<circle cx="123.498" cy="477.749" r="5.63548"/>
</g>
<g stroke="#ff0066" stroke-width="2" fill="none">
<circle cx="128.41" cy="477.401" r="5.63548"/>
</g>
<g stroke="#ff0066" stroke-width="2" fill="none">
<circle cx="133.321" cy="468.184" r="5.63548"/>
</g>
<g stroke="#ff0066" stroke-width="2" fill="none">
<circle cx="138.233" cy="436.279" r="5.63548"/>
</g>
<g stroke="#ff0066" stroke-width="2" fill="none">
<circle cx="143.144" cy="393.94" r="5.63548"/>
</g>
<g stroke="#ff0066" stroke-width="2" fill="none">
<circle cx="148.056" cy="377.076" r="5.63548"/>
</g>
<g stroke="#ff0066" stroke-width="2" fill="none">
<circle cx="152.967" cy="367.034" r="5.63548"/>
</g>
<g stroke="#ff0066" stroke-width="2" fill="none">
<circle cx="157.879" cy="356.356" r="5.63548"/>
</g>
<g stroke="#ff0066" stroke-width="2" fill="none">
<circle cx="162.79" cy="346.548" r="5.63548"/>
</g>
<g stroke="#ff0066" stroke-width="2" fill="none">
<circle cx="167.702" cy="334.548" r="5.63548"/>
</g>
<g stroke="#ff0066" stroke-width="2" fill="none">
<circle cx="172.614" cy="323.67" r="5.63548"/>
</g>
<g stroke="#ff0066" stroke-width="2" fill="none">
<circle cx="177.525" cy="311.734" r="5.63548"/>
</g>
<g stroke="#ff0066" stroke-width="2" fill="none">
<circle cx="182.437" cy="301.36" r="5.63548"/>
</g>
<g stroke="#ff0066" stroke-width="2" fill="none">
<circle cx="187.348" cy="288.594" r="5.63548"/>
</g>
<g stroke="#ff0066" stroke-width="2" fill="none">
<circle cx="192.26" cy="278.472" r="5.63548"/>
</g>
<g stroke="#ff0066" stroke-width="2" fill="none">
<circle cx="197.171" cy="269.065" r="5.63548"/>
</g>
<g stroke="#ff0066" stroke-width="2" fill="none">
<circle cx="202.083" cy="260.925" r="5.63548"/>
</g>
<g stroke="#ff0066" stroke-width="2" fill="none">
<circle cx="206.994" cy="253.416" r="5.63548"/>
</g>
<g stroke="#ff0066" stroke-width="2" fill="none">
<circle cx="211.906" cy="247.901" r="5.63548"/>
</g>
<g stroke="#ff0066" stroke-width="2" fill="none">
<circle cx="216.817" cy="244.031" r="5.63548"/>
</g>
<g stroke="#ff0066" stroke-width="2" fill="none">
<circle cx="221.729" cy="239.202" r="5.63548"/>
</g>
<g stroke="#ff0066" stroke-width="2" fill="none">
<circle cx="226.64" cy="239.083" r="5.63548"/>
</g>
<g stroke="#ff0066" stroke-width="2" fill="none">
<circle cx="231.552" cy="236.995" r="5.63548"/>
</g>
<g stroke="#ff0066" stroke-width="2" fill="none">
<circle cx="236.463" cy="236.345" r="5.63548"/>
</g>
<g stroke="#ff0066" stroke-width="2" fill="none">
<circle cx="241.375" cy="235.954" r="5.63548"/>
</g>
<g stroke="#ff0066" stroke-width="2" fill="none">
<circle cx="246.286" cy="235.881" r="5.63548"/>
</g>
<g stroke="#ff0066" stroke-width="2" fill="none">
<circle cx="251.198" cy="239.642" r="5.63548"/>
</g>
<g stroke="#ff0066" stroke-width="2" fill="none">
<circle cx="256.109" cy="240.014" r="5.63548"/>
</g>
<g stroke="#ff0066" stroke-width="2" fill="none">
<circle cx="261.021" cy="240.175" r="5.63548"/>
</g>
<g stroke="#ff0066" stroke-width="2" fill="none">
<circle cx="265.932" cy="243.053" r="5.63548"/>
</g>
<g stroke="#ff0066" stroke-width="2" fill="none">
<circle cx="270.844" cy="247.602" r="5.63548"/>
</g>
<g stroke="#ff0066" stroke-width="2" fill="none">
<circle cx="275.755" cy="249.049" r="5.63548"/>
</g>
<g stroke="#ff0066" stroke-width="2" fill="none">
<circle cx="280.667" cy="252.957" r="5.63548"/>
</g>
<g stroke="#ff0066" stroke-width="2" fill="none">
<circle cx="285.578" cy="255.754" r="5.63548"/>
</g>
<g stroke="#ff0066" stroke-width="2" fill="none">
<circle cx="290.49" cy="258.301" r="5.63548"/>
</g>
<g stroke="#ff0066" stroke-width="2" fill="none">
<circle cx="295.401" cy="263.018" r="5.63548"/>
</g>
<g stroke="#ff0066" stroke-width="2" fill="none">
<circle cx="300.313" cy="266.467" r="5.63548"/>
</g>
<g stroke="#ff0066" stroke-width="2" fill="none">
<circle cx="305.224" cy="271.487" r="5.63548"/>
</g>
<g stroke="#ff0066" stroke-width="2" fill="none">
<circle cx="310.136" cy="275.187" r="5.63548"/>
</g>
<g stroke="#ff0066" stroke-width="2" fill="none">
<circle cx="315.047" cy="277.981" r="5.63548"/>
</g>
<g stroke="#ff0066" stroke-width="2" fill="none">
<circle cx="319.959" cy="284.278" r="5.63548"/>
</g>
<g stroke="#ff0066" stroke-width="2" fill="none">
<circle cx="324.87" cy="287.285" r="5.63548"/>
</g>
<g stroke="#ff0066" stroke-width="2" fill="none">
<circle cx="329.782" cy="291.38" r="5.63548"/>
</g>
<g stroke="#ff0066" stroke-width="2" fill="none">
<circle cx="334.694" cy="295.431" r="5.63548"/>
</g>
<g stroke="#ff0066" stroke-width="2" fill="none">
<circle cx="339.605" cy="300.778" r="5.63548"/>
</g>
<g stroke="#ff0066" stroke-width="2" fill="none">
<circle cx="344.517" cy="305.117" r="5.63548"/>
</g>
<g stroke="#ff0066" stroke-width="2" fill="none">
<circle cx="349.428" cy="310.993" r="5.63548"/>
</g>
<g stroke="#ff0066" stroke-width="2" fill="none">
<circle cx="354.34" cy="313.324" r="5.63548"/>
</g>
<g stroke="#ff0066" stroke-width="2" fill="none">
<circle cx="359.251" cy="318.185" r="5.63548"/>
</g>
<g stroke="#ff0066" stroke-width="2" fill="none">
<circle cx="364.163" cy="321.424" r="5.63548"/>
</g>
<g stroke="#ff0066" stroke-width="2" fill="none">
<circle cx="369.074" cy="324.933" r="5.63548"/>
</g>
<g stroke="#ff0066" stroke-width="2" fill="none">
<circle cx="373.986" cy="330.258" r="5.63548"/>
</g>
<g stroke="#ff0066" stroke-width="2" fill="none">
<circle cx="378.897" cy="333.523" r="5.63548"/>
</g>
<g stroke="#ff0066" stroke-width="2" fill="none">
<circle cx="383.809" cy="336.31" r="5.63548"/>
</g>
<g stroke="#ff0066" stroke-width="2" fill="none">
<circle cx="388.72" cy="341.215" r="5.63548"/>
</g>
<g stroke="#ff0066" stroke-width="2" fill="none">
<circle cx="393.632" cy="345.861" r="5.63548"/>
</g>
<g stroke="#ff0066" stroke-width="2" fill="none">
<circle cx="398.543" cy="349.423" r="5.63548"/>
</g>
<g stroke="#ff0066" stroke-width="2" fill="none">
<circle cx="403.455" cy="353.191" r="5.63548"/>
</g>
<g stroke="#ff0066" stroke-width="2" fill="none">
<circle cx="408.366" cy="358.179" r="5.63548"/>
</g>
<g stroke="#ff0066" stroke-width="2" fill="none">
<circle cx="413.278" cy="361.529" r="5.63548"/>
</g>
<g stroke="#ff0066" stroke-width="2" fill="none">
<circle cx="418.189" cy="364.875" r="5.63548"/>
</g>
<g stroke="#ff0066" stroke-width="2" fill="none">
<circle cx="423.101" cy="366.87" r="5.63548"/>
</g>
<g stroke="#ff0066" stroke-width="2" fill="none">
<circle cx="428.012" cy="372.057" r="5.63548"/>
</g>
<g stroke="#ff0066" stroke-width="2" fill="none">
<circle cx="432.924" cy="375.363" r="5.63548"/>
</g>
<g stroke="#ff0066" stroke-width="2" fill="none">
<circle cx="437.835" cy="378.246" r="5.63548"/>
</g>
<g stroke="#ff0066" stroke-width="2" fill="none">
<circle cx="442.747" cy="381.605" r="5.63548"/>
</g>
<g stroke="#ff0066" stroke-width="2" fill="none">
<circle cx="447.658" cy="385.143" r="5.63548"/>
</g>
<g stroke="#ff0066" stroke-width="2" fill="none">
<circle cx="452.57" cy="388.705" r="5.63548"/>
</g>
<g stroke="#ff0066" stroke-width="2" fill="none">
<circle cx="457.481" cy="390.979" r="5.63548"/>
</g>
<g stroke="#ff0066" stroke-width="2" fill="none">
<circle cx="462.393" cy="393.26" r="5.63548"/>
</g>
<g stroke="#ff0066" stroke-width="2" fill="none">
<circle cx="467.304" cy="397.448" r="5.63548"/>
</g>
<g stroke="#ff0066" stroke-width="2" fill="none">
<circle cx="472.216" cy="398.657" r="5.63548"/>
</g>
<g stroke="#ff0066" stroke-width="2" fill="none">
<circle cx="477.127" cy="401.583" r="5.63548"/>
</g>
<g stroke="#ff0066" stroke-width="2" fill="none">
<circle cx="482.039" cy="403.68" r="5.63548"/>
</g>
<g stroke="#ff0066" stroke-width="2" fill="none">
<circle cx="486.95" cy="406.955" r="5.63548"/>
</g>
<g stroke="#ff0066" stroke-width="2" fill="none">
<circle cx="491.862" cy="408.476" r="5.63548"/>
</g>
<g stroke="#ff0066" stroke-width="2" fill="none">
<circle cx="496.773" cy="411.073" r="5.63548"/>
</g>
<g stroke="#ff0066" stroke-width="2" fill="none">
<circle cx="501.685" cy="413.594" r="5.63548"/>
</g>
<g stroke="#ff0066" stroke-width="2" fill="none">
<circle cx="506.597" cy="415.471" r="5.63548"/>
</g>
<g stroke="#ff0066" stroke-width="2" fill="none">
<circle cx="511.508" cy="417.285" r="5.63548"/>
</g>
<g stroke="#ff0066" stroke-width="2" fill="none">
<circle cx="516.42" cy="419.501" r="5.63548"/>
</g>
<g stroke="#ff0066" stroke-width="2" fill="none">
<circle cx="521.331" cy="420.949" r="5.63548"/>
</g>
<g stroke="#ff0066" stroke-width="2" fill="none">
<circle cx="526.243" cy="422.703" r="5.63548"/>
</g>
<g stroke="#ff0066" stroke-width="2" fill="none">
<circle cx="531.154" cy="425.014" r="5.63548"/>
</g>
<g stroke="#ff0066" stroke-width="2" fill="none">
<circle cx="536.066" cy="426.761" r="5.63548"/>
</g>
<g stroke="#ff0066" stroke-width="2" fill="none">
<circle cx="540.977" cy="428.368" r="5.63548"/>
</g>
<g stroke="#ff0066" stroke-width="2" fill="none">
<circle cx="545.889" cy="430.236" r="5.63548"/>
</g>
<text xml:space="preserve" x="360.607" y="50.7193" fill="black" font-size="16.0105" font-family="Helvetica"> with EMC</text>
<text xml:space="preserve" x="352.717" y="50.7193" fill="black" font-size="16.0105" font-family="Times">&#0947;</text>
<text xml:space="preserve" x="344.828" y="50.7193" fill="black" font-size="16.0105" font-family="Times">&#0947;</text>
<text xml:space="preserve" x="336.938" y="50.7193" fill="black" font-size="16.0105" font-family="Times">&#0947;</text>
<text xml:space="preserve" x="331.866" y="50.7193" fill="black" font-size="16.0105" font-family="Helvetica"> </text>
<text xml:space="preserve" x="316.65" y="50.7193" fill="black" font-size="16.0105" font-family="Times">&#8594;</text>
<text xml:space="preserve" x="311.578" y="50.7193" fill="black" font-size="16.0105" font-family="Helvetica"> </text>
<text xml:space="preserve" x="303.689" y="50.7193" fill="black" font-size="16.0105" font-family="Times">&#0947;</text>
<text xml:space="preserve" x="298.053" y="45.0838" fill="black" font-size="10.8403" font-family="Helvetica">0</text>
<text xml:space="preserve" x="289.6" y="50.7193" fill="black" font-size="16.0105" font-family="Times">&#0960;</text>
<text xml:space="preserve" x="284.528" y="50.7193" fill="black" font-size="16.0105" font-family="Helvetica"> </text>
<text xml:space="preserve" x="269.312" y="50.7193" fill="black" font-size="16.0105" font-family="Times">&#8594;</text>
<text xml:space="preserve" x="264.24" y="50.7193" fill="black" font-size="16.0105" font-family="Helvetica"> </text>
<text xml:space="preserve" x="252.969" y="50.7193" fill="black" font-size="16.0105" font-family="Times">&#0969;</text>
<text xml:space="preserve" x="128.989" y="50.7193" fill="black" font-size="16.0105" font-family="Helvetica"> = 13 TeV (EG1), </text>
<text xml:space="preserve" x="120.536" y="50.7193" fill="black" font-size="16.0105" font-family="Helvetica" font-style="oblique">s</text>
<path d="M114.9,41.7025l 1.69064, 9.58031" fill="none" stroke="black" stroke-width="2"/>
<path d="M116.591,51.2829l 2.25419, -14.0887" fill="none" stroke="black"/>
<path d="M118.845,37.1942h 10.1439" fill="none" stroke="black"/>
<text xml:space="preserve" x="89.5406" y="50.7193" fill="black" font-size="16.0105" font-family="Helvetica">pp </text>
<text xml:space="preserve" x="89.5406" y="85.6593" fill="black" font-size="16.0105" font-family="Helvetica">ALICE work in progress</text>
<text xml:space="preserve" x="214.085" y="120.599" fill="black" font-size="16.0105" font-family="Helvetica">) &lt; 28.0</text>
<text xml:space="preserve" x="205.068" y="120.599" fill="black" font-size="16.0105" font-family="Helvetica" font-style="oblique">c</text>
<text xml:space="preserve" x="154.912" y="120.599" fill="black" font-size="16.0105" font-family="Helvetica"> /(GeV/</text>
<text xml:space="preserve" x="148.15" y="128.489" fill="black" font-size="10.8403" font-family="Helvetica">T</text>
<text xml:space="preserve" x="138.569" y="120.599" fill="black" font-size="16.0105" font-family="Helvetica" font-style="oblique">p</text>
<text xml:space="preserve" x="133.497" y="120.599" fill="black" font-size="16.0105" font-family="Helvetica"> </text>
<text xml:space="preserve" x="125.044" y="120.599" fill="black" font-size="16.0105" font-family="Times">&#8804;</text>
<text xml:space="preserve" x="89.5406" y="120.599" fill="black" font-size="16.0105" font-family="Helvetica">24.0 </text>
<rect x="312.311" y="69.1755" width="198.425" height="113.448" fill="white"/>
<text xml:space="preserve" x="361.734" y="93.5489" fill="black" font-size="16.0105" font-family="Helvetica">same event</text>
<path d="M319.752,88.0835h 34.7244" fill="none" stroke="black" stroke-width="2"/>
<g fill="black">
<circle cx="337.114" cy="88.0835" r="6.76257"/>
</g>
<text xml:space="preserve" x="361.734" y="130.18" fill="black" font-size="16.0105" font-family="Helvetica">background pol1</text>
<path d="M319.752,125.899h 34.7244" fill="none" stroke="#33cccc" stroke-width="2"/>
<g stroke="#33cccc" stroke-width="2" fill="none">
<rect x="331.479" y="120.264" width="11.271" height="11.271"/>
</g>
<text xml:space="preserve" x="361.734" y="167.937" fill="black" font-size="16.0105" font-family="Helvetica">background pol2</text>
<path d="M319.752,163.715h 34.7244" fill="none" stroke="#ff0066" stroke-width="2"/>
<g stroke="#ff0066" stroke-width="2" fill="none">
<circle cx="337.114" cy="163.715" r="5.63548"/>
</g></svg>
