<?xml version="1.0" standalone="no"?>
<svg width="567.429" height="553.904" viewBox="0 0 567.429 553.904" xmlns="http://www.w3.org/2000/svg" shape-rendering="crispEdges">
<title>
MC/EG1/Pi0RotPS/Peaks_12.svg
</title>
<desc>
Creator: ROOT Version 6.20/08
CreationDate: Mon Mar 29 21:31:19 2021</desc>
<defs>
</defs>
<rect x="0.5" y="0" width="566.929" height="553.404" fill="white"/>
<rect x="57.1929" y="16.6021" width="496.063" height="481.461" fill="white"/>
<rect x="57.1929" y="16.6021" width="496.063" height="481.461" fill="none" stroke="black"/>
<rect x="57.1929" y="16.6021" width="496.063" height="481.461" fill="white"/>
<rect x="57.1929" y="16.6021" width="496.063" height="481.461" fill="none" stroke="black"/>
<path d="M57.1929,417.504h 2.7771" fill="none" stroke="black" stroke-width="2"/>
<path d="M73.4952,417.504h 2.7771" fill="none" stroke="black" stroke-width="2"/>
<g fill="black">
<circle cx="66.7326" cy="417.504" r="6.76257"/>
</g>
<path d="M95.3516,416.933h 2.7771" fill="none" stroke="black" stroke-width="2"/>
<path d="M111.654,416.933h 2.7771" fill="none" stroke="black" stroke-width="2"/>
<g fill="black">
<circle cx="104.891" cy="416.933" r="6.76257"/>
</g>
<path d="M114.431,415.854h 2.7771" fill="none" stroke="black" stroke-width="2"/>
<path d="M130.733,415.854h 2.7771" fill="none" stroke="black" stroke-width="2"/>
<g fill="black">
<circle cx="123.971" cy="415.854" r="6.76257"/>
</g>
<path d="M133.51,415.28h 2.7771" fill="none" stroke="black" stroke-width="2"/>
<path d="M149.813,415.28h 2.7771" fill="none" stroke="black" stroke-width="2"/>
<g fill="black">
<circle cx="143.05" cy="415.28" r="6.76257"/>
</g>
<path d="M152.59,416.25h 2.7771" fill="none" stroke="black" stroke-width="2"/>
<path d="M168.892,416.25h 2.7771" fill="none" stroke="black" stroke-width="2"/>
<g fill="black">
<circle cx="162.129" cy="416.25" r="6.76257"/>
</g>
<path d="M171.669,413.196h 2.7771" fill="none" stroke="black" stroke-width="2"/>
<path d="M187.971,413.196h 2.7771" fill="none" stroke="black" stroke-width="2"/>
<g fill="black">
<circle cx="181.209" cy="413.196" r="6.76257"/>
</g>
<path d="M190.748,412.719h 2.7771" fill="none" stroke="black" stroke-width="2"/>
<path d="M207.051,412.719h 2.7771" fill="none" stroke="black" stroke-width="2"/>
<g fill="black">
<circle cx="200.288" cy="412.719" r="6.76257"/>
</g>
<path d="M209.828,408.604h 2.7771" fill="none" stroke="black" stroke-width="2"/>
<path d="M226.13,408.604h 2.7771" fill="none" stroke="black" stroke-width="2"/>
<g fill="black">
<circle cx="219.367" cy="408.604" r="6.76257"/>
</g>
<path d="M228.907,395.461h 2.7771" fill="none" stroke="black" stroke-width="2"/>
<path d="M245.209,395.461h 2.7771" fill="none" stroke="black" stroke-width="2"/>
<g fill="black">
<circle cx="238.447" cy="395.461" r="6.76257"/>
</g>
<path d="M247.986,381.047h 2.7771" fill="none" stroke="black" stroke-width="2"/>
<path d="M264.289,381.047h 2.7771" fill="none" stroke="black" stroke-width="2"/>
<g fill="black">
<circle cx="257.526" cy="381.047" r="6.76257"/>
</g>
<path d="M276.605,316.816v -0.408178" fill="none" stroke="black" stroke-width="2"/>
<path d="M276.605,302.883v -0.408178" fill="none" stroke="black" stroke-width="2"/>
<path d="M267.066,309.645h 2.7771" fill="none" stroke="black" stroke-width="2"/>
<path d="M283.368,309.645h 2.7771" fill="none" stroke="black" stroke-width="2"/>
<g fill="black">
<circle cx="276.605" cy="309.645" r="6.76257"/>
</g>
<path d="M295.685,265.963v -1.8678" fill="none" stroke="black" stroke-width="2"/>
<path d="M295.685,250.57v -1.8678" fill="none" stroke="black" stroke-width="2"/>
<path d="M286.145,257.333h 2.7771" fill="none" stroke="black" stroke-width="2"/>
<path d="M302.447,257.333h 2.7771" fill="none" stroke="black" stroke-width="2"/>
<g fill="black">
<circle cx="295.685" cy="257.333" r="6.76257"/>
</g>
<path d="M314.764,283.023v -1.40902" fill="none" stroke="black" stroke-width="2"/>
<path d="M314.764,268.089v -1.40902" fill="none" stroke="black" stroke-width="2"/>
<path d="M305.224,274.851h 2.7771" fill="none" stroke="black" stroke-width="2"/>
<path d="M321.527,274.851h 2.7771" fill="none" stroke="black" stroke-width="2"/>
<g fill="black">
<circle cx="314.764" cy="274.851" r="6.76257"/>
</g>
<path d="M324.304,358.857h 2.7771" fill="none" stroke="black" stroke-width="2"/>
<path d="M340.606,358.857h 2.7771" fill="none" stroke="black" stroke-width="2"/>
<g fill="black">
<circle cx="333.843" cy="358.857" r="6.76257"/>
</g>
<path d="M343.383,383.829h 2.7771" fill="none" stroke="black" stroke-width="2"/>
<path d="M359.685,383.829h 2.7771" fill="none" stroke="black" stroke-width="2"/>
<g fill="black">
<circle cx="352.923" cy="383.829" r="6.76257"/>
</g>
<path d="M362.462,397.985h 2.7771" fill="none" stroke="black" stroke-width="2"/>
<path d="M378.765,397.985h 2.7771" fill="none" stroke="black" stroke-width="2"/>
<g fill="black">
<circle cx="372.002" cy="397.985" r="6.76257"/>
</g>
<path d="M381.542,406.187h 2.7771" fill="none" stroke="black" stroke-width="2"/>
<path d="M397.844,406.187h 2.7771" fill="none" stroke="black" stroke-width="2"/>
<g fill="black">
<circle cx="391.081" cy="406.187" r="6.76257"/>
</g>
<path d="M400.621,407.915h 2.7771" fill="none" stroke="black" stroke-width="2"/>
<path d="M416.923,407.915h 2.7771" fill="none" stroke="black" stroke-width="2"/>
<g fill="black">
<circle cx="410.161" cy="407.915" r="6.76257"/>
</g>
<path d="M419.7,409.426h 2.7771" fill="none" stroke="black" stroke-width="2"/>
<path d="M436.003,409.426h 2.7771" fill="none" stroke="black" stroke-width="2"/>
<g fill="black">
<circle cx="429.24" cy="409.426" r="6.76257"/>
</g>
<path d="M438.78,410.428h 2.7771" fill="none" stroke="black" stroke-width="2"/>
<path d="M455.082,410.428h 2.7771" fill="none" stroke="black" stroke-width="2"/>
<g fill="black">
<circle cx="448.319" cy="410.428" r="6.76257"/>
</g>
<path d="M457.859,413.625h 2.7771" fill="none" stroke="black" stroke-width="2"/>
<path d="M474.161,413.625h 2.7771" fill="none" stroke="black" stroke-width="2"/>
<g fill="black">
<circle cx="467.399" cy="413.625" r="6.76257"/>
</g>
<path d="M476.939,413.389h 2.7771" fill="none" stroke="black" stroke-width="2"/>
<path d="M493.241,413.389h 2.7771" fill="none" stroke="black" stroke-width="2"/>
<g fill="black">
<circle cx="486.478" cy="413.389" r="6.76257"/>
</g>
<path d="M496.018,416.598h 2.7771" fill="none" stroke="black" stroke-width="2"/>
<path d="M512.32,416.598h 2.7771" fill="none" stroke="black" stroke-width="2"/>
<g fill="black">
<circle cx="505.558" cy="416.598" r="6.76257"/>
</g>
<path d="M515.097,416.184h 2.7771" fill="none" stroke="black" stroke-width="2"/>
<path d="M531.399,416.184h 2.7771" fill="none" stroke="black" stroke-width="2"/>
<g fill="black">
<circle cx="524.637" cy="416.184" r="6.76257"/>
</g>
<path d="M534.177,416.595h 2.7771" fill="none" stroke="black" stroke-width="2"/>
<path d="M550.479,416.595h 2.7771" fill="none" stroke="black" stroke-width="2"/>
<g fill="black">
<circle cx="543.716" cy="416.595" r="6.76257"/>
</g>
<path d="M57.1929,498.064h 496.063" fill="none" stroke="black"/>
<path d="M66.7326,483.537v 14.5269" fill="none" stroke="black"/>
<path d="M78.6572,490.8v 7.26343" fill="none" stroke="black"/>
<path d="M90.5818,490.8v 7.26343" fill="none" stroke="black"/>
<path d="M102.506,490.8v 7.26343" fill="none" stroke="black"/>
<path d="M114.431,490.8v 7.26343" fill="none" stroke="black"/>
<path d="M126.356,483.537v 14.5269" fill="none" stroke="black"/>
<path d="M138.28,490.8v 7.26343" fill="none" stroke="black"/>
<path d="M150.205,490.8v 7.26343" fill="none" stroke="black"/>
<path d="M162.129,490.8v 7.26343" fill="none" stroke="black"/>
<path d="M174.054,490.8v 7.26343" fill="none" stroke="black"/>
<path d="M185.979,483.537v 14.5269" fill="none" stroke="black"/>
<path d="M197.903,490.8v 7.26343" fill="none" stroke="black"/>
<path d="M209.828,490.8v 7.26343" fill="none" stroke="black"/>
<path d="M221.752,490.8v 7.26343" fill="none" stroke="black"/>
<path d="M233.677,490.8v 7.26343" fill="none" stroke="black"/>
<path d="M245.601,483.537v 14.5269" fill="none" stroke="black"/>
<path d="M257.526,490.8v 7.26343" fill="none" stroke="black"/>
<path d="M269.451,490.8v 7.26343" fill="none" stroke="black"/>
<path d="M281.375,490.8v 7.26343" fill="none" stroke="black"/>
<path d="M293.3,490.8v 7.26343" fill="none" stroke="black"/>
<path d="M305.224,483.537v 14.5269" fill="none" stroke="black"/>
<path d="M317.149,490.8v 7.26343" fill="none" stroke="black"/>
<path d="M329.074,490.8v 7.26343" fill="none" stroke="black"/>
<path d="M340.998,490.8v 7.26343" fill="none" stroke="black"/>
<path d="M352.923,490.8v 7.26343" fill="none" stroke="black"/>
<path d="M364.847,483.537v 14.5269" fill="none" stroke="black"/>
<path d="M376.772,490.8v 7.26343" fill="none" stroke="black"/>
<path d="M388.697,490.8v 7.26343" fill="none" stroke="black"/>
<path d="M400.621,490.8v 7.26343" fill="none" stroke="black"/>
<path d="M412.546,490.8v 7.26343" fill="none" stroke="black"/>
<path d="M424.47,483.537v 14.5269" fill="none" stroke="black"/>
<path d="M436.395,490.8v 7.26343" fill="none" stroke="black"/>
<path d="M448.319,490.8v 7.26343" fill="none" stroke="black"/>
<path d="M460.244,490.8v 7.26343" fill="none" stroke="black"/>
<path d="M472.169,490.8v 7.26343" fill="none" stroke="black"/>
<path d="M484.093,483.537v 14.5269" fill="none" stroke="black"/>
<path d="M496.018,490.8v 7.26343" fill="none" stroke="black"/>
<path d="M507.942,490.8v 7.26343" fill="none" stroke="black"/>
<path d="M519.867,490.8v 7.26343" fill="none" stroke="black"/>
<path d="M531.792,490.8v 7.26343" fill="none" stroke="black"/>
<path d="M543.716,483.537v 14.5269" fill="none" stroke="black"/>
<path d="M66.7326,483.537v 14.5269" fill="none" stroke="black"/>
<path d="M543.716,483.537v 14.5269" fill="none" stroke="black"/>
<text xml:space="preserve" x="55.7277" y="513.956" fill="black" font-size="16.0105" font-family="Helvetica">0.4</text>
<text xml:space="preserve" x="115.464" y="513.956" fill="black" font-size="16.0105" font-family="Helvetica">0.5</text>
<text xml:space="preserve" x="175.2" y="513.956" fill="black" font-size="16.0105" font-family="Helvetica">0.6</text>
<text xml:space="preserve" x="234.372" y="513.956" fill="black" font-size="16.0105" font-family="Helvetica">0.7</text>
<text xml:space="preserve" x="294.108" y="513.956" fill="black" font-size="16.0105" font-family="Helvetica">0.8</text>
<text xml:space="preserve" x="353.845" y="513.956" fill="black" font-size="16.0105" font-family="Helvetica">0.9</text>
<text xml:space="preserve" x="421.47" y="513.956" fill="black" font-size="16.0105" font-family="Helvetica">1</text>
<text xml:space="preserve" x="474.444" y="513.956" fill="black" font-size="16.0105" font-family="Helvetica">1.1</text>
<text xml:space="preserve" x="532.489" y="513.956" fill="black" font-size="16.0105" font-family="Helvetica">1.2</text>
<text xml:space="preserve" x="548.268" y="537.625" fill="black" font-size="16.0105" font-family="Helvetica">)</text>
<text xml:space="preserve" x="542.633" y="532.553" fill="black" font-size="10.8403" font-family="Helvetica">2</text>
<text xml:space="preserve" x="533.616" y="537.625" fill="black" font-size="16.0105" font-family="Helvetica" font-style="oblique">c</text>
<text xml:space="preserve" x="487.405" y="537.625" fill="black" font-size="16.0105" font-family="Helvetica"> (GeV/</text>
<text xml:space="preserve" x="473.317" y="542.697" fill="black" font-size="10.8403" font-family="Helvetica">inv</text>
<text xml:space="preserve" x="459.792" y="537.625" fill="black" font-size="16.0105" font-family="Helvetica" font-style="oblique">m</text>
<path d="M57.1929,16.6021h 496.063" fill="none" stroke="black"/>
<path d="M66.7326,31.129v -14.5269" fill="none" stroke="black"/>
<path d="M78.6572,23.8655v -7.26343" fill="none" stroke="black"/>
<path d="M90.5818,23.8655v -7.26343" fill="none" stroke="black"/>
<path d="M102.506,23.8655v -7.26343" fill="none" stroke="black"/>
<path d="M114.431,23.8655v -7.26343" fill="none" stroke="black"/>
<path d="M126.356,31.129v -14.5269" fill="none" stroke="black"/>
<path d="M138.28,23.8655v -7.26343" fill="none" stroke="black"/>
<path d="M150.205,23.8655v -7.26343" fill="none" stroke="black"/>
<path d="M162.129,23.8655v -7.26343" fill="none" stroke="black"/>
<path d="M174.054,23.8655v -7.26343" fill="none" stroke="black"/>
<path d="M185.979,31.129v -14.5269" fill="none" stroke="black"/>
<path d="M197.903,23.8655v -7.26343" fill="none" stroke="black"/>
<path d="M209.828,23.8655v -7.26343" fill="none" stroke="black"/>
<path d="M221.752,23.8655v -7.26343" fill="none" stroke="black"/>
<path d="M233.677,23.8655v -7.26343" fill="none" stroke="black"/>
<path d="M245.601,31.129v -14.5269" fill="none" stroke="black"/>
<path d="M257.526,23.8655v -7.26343" fill="none" stroke="black"/>
<path d="M269.451,23.8655v -7.26343" fill="none" stroke="black"/>
<path d="M281.375,23.8655v -7.26343" fill="none" stroke="black"/>
<path d="M293.3,23.8655v -7.26343" fill="none" stroke="black"/>
<path d="M305.224,31.129v -14.5269" fill="none" stroke="black"/>
<path d="M317.149,23.8655v -7.26343" fill="none" stroke="black"/>
<path d="M329.074,23.8655v -7.26343" fill="none" stroke="black"/>
<path d="M340.998,23.8655v -7.26343" fill="none" stroke="black"/>
<path d="M352.923,23.8655v -7.26343" fill="none" stroke="black"/>
<path d="M364.847,31.129v -14.5269" fill="none" stroke="black"/>
<path d="M376.772,23.8655v -7.26343" fill="none" stroke="black"/>
<path d="M388.697,23.8655v -7.26343" fill="none" stroke="black"/>
<path d="M400.621,23.8655v -7.26343" fill="none" stroke="black"/>
<path d="M412.546,23.8655v -7.26343" fill="none" stroke="black"/>
<path d="M424.47,31.129v -14.5269" fill="none" stroke="black"/>
<path d="M436.395,23.8655v -7.26343" fill="none" stroke="black"/>
<path d="M448.319,23.8655v -7.26343" fill="none" stroke="black"/>
<path d="M460.244,23.8655v -7.26343" fill="none" stroke="black"/>
<path d="M472.169,23.8655v -7.26343" fill="none" stroke="black"/>
<path d="M484.093,31.129v -14.5269" fill="none" stroke="black"/>
<path d="M496.018,23.8655v -7.26343" fill="none" stroke="black"/>
<path d="M507.942,23.8655v -7.26343" fill="none" stroke="black"/>
<path d="M519.867,23.8655v -7.26343" fill="none" stroke="black"/>
<path d="M531.792,23.8655v -7.26343" fill="none" stroke="black"/>
<path d="M543.716,31.129v -14.5269" fill="none" stroke="black"/>
<path d="M66.7326,31.129v -14.5269" fill="none" stroke="black"/>
<path d="M543.716,31.129v -14.5269" fill="none" stroke="black"/>
<path d="M57.1929,498.064v -481.461" fill="none" stroke="black"/>
<path d="M71.9898,481.829h -14.7969" fill="none" stroke="black"/>
<path d="M64.5913,469.027h -7.39843" fill="none" stroke="black"/>
<path d="M64.5913,456.225h -7.39843" fill="none" stroke="black"/>
<path d="M64.5913,443.424h -7.39843" fill="none" stroke="black"/>
<path d="M64.5913,430.622h -7.39843" fill="none" stroke="black"/>
<path d="M71.9898,417.82h -14.7969" fill="none" stroke="black"/>
<path d="M64.5913,405.018h -7.39843" fill="none" stroke="black"/>
<path d="M64.5913,392.216h -7.39843" fill="none" stroke="black"/>
<path d="M64.5913,379.415h -7.39843" fill="none" stroke="black"/>
<path d="M64.5913,366.613h -7.39843" fill="none" stroke="black"/>
<path d="M71.9898,353.811h -14.7969" fill="none" stroke="black"/>
<path d="M64.5913,341.009h -7.39843" fill="none" stroke="black"/>
<path d="M64.5913,328.208h -7.39843" fill="none" stroke="black"/>
<path d="M64.5913,315.406h -7.39843" fill="none" stroke="black"/>
<path d="M64.5913,302.604h -7.39843" fill="none" stroke="black"/>
<path d="M71.9898,289.802h -14.7969" fill="none" stroke="black"/>
<path d="M64.5913,277.001h -7.39843" fill="none" stroke="black"/>
<path d="M64.5913,264.199h -7.39843" fill="none" stroke="black"/>
<path d="M64.5913,251.397h -7.39843" fill="none" stroke="black"/>
<path d="M64.5913,238.595h -7.39843" fill="none" stroke="black"/>
<path d="M71.9898,225.794h -14.7969" fill="none" stroke="black"/>
<path d="M64.5913,212.992h -7.39843" fill="none" stroke="black"/>
<path d="M64.5913,200.19h -7.39843" fill="none" stroke="black"/>
<path d="M64.5913,187.388h -7.39843" fill="none" stroke="black"/>
<path d="M64.5913,174.586h -7.39843" fill="none" stroke="black"/>
<path d="M71.9898,161.785h -14.7969" fill="none" stroke="black"/>
<path d="M64.5913,148.983h -7.39843" fill="none" stroke="black"/>
<path d="M64.5913,136.181h -7.39843" fill="none" stroke="black"/>
<path d="M64.5913,123.379h -7.39843" fill="none" stroke="black"/>
<path d="M64.5913,110.578h -7.39843" fill="none" stroke="black"/>
<path d="M71.9898,97.7758h -14.7969" fill="none" stroke="black"/>
<path d="M64.5913,84.9741h -7.39843" fill="none" stroke="black"/>
<path d="M64.5913,72.1723h -7.39843" fill="none" stroke="black"/>
<path d="M64.5913,59.3706h -7.39843" fill="none" stroke="black"/>
<path d="M64.5913,46.5688h -7.39843" fill="none" stroke="black"/>
<path d="M71.9898,33.767h -14.7969" fill="none" stroke="black"/>
<path d="M71.9898,481.829h -14.7969" fill="none" stroke="black"/>
<path d="M64.5913,494.631h -7.39843" fill="none" stroke="black"/>
<path d="M71.9898,33.767h -14.7969" fill="none" stroke="black"/>
<path d="M64.5913,20.9653h -7.39843" fill="none" stroke="black"/>
<text xml:space="preserve" x="34.8764" y="486.905" fill="black" font-size="16.0105" font-family="Helvetica">0.1</text>
<text xml:space="preserve" x="26.4232" y="486.905" fill="black" font-size="16.0105" font-family="Times">&#8722;</text>
<text xml:space="preserve" x="45.5838" y="423.224" fill="black" font-size="16.0105" font-family="Helvetica">0</text>
<text xml:space="preserve" x="34.8764" y="358.98" fill="black" font-size="16.0105" font-family="Helvetica">0.1</text>
<text xml:space="preserve" x="32.6222" y="295.299" fill="black" font-size="16.0105" font-family="Helvetica">0.2</text>
<text xml:space="preserve" x="32.6222" y="231.055" fill="black" font-size="16.0105" font-family="Helvetica">0.3</text>
<text xml:space="preserve" x="32.6222" y="167.374" fill="black" font-size="16.0105" font-family="Helvetica">0.4</text>
<text xml:space="preserve" x="32.6222" y="103.129" fill="black" font-size="16.0105" font-family="Helvetica">0.5</text>
<text xml:space="preserve" x="32.6222" y="38.8848" fill="black" font-size="16.0105" font-family="Helvetica">0.6</text>
<g transform="rotate(-90,22.4784,21.9784)">
<text xml:space="preserve" x="22.4784" y="21.9784" fill="black" font-size="10.8403" font-family="Times">&#0947;</text>
</g>
<g transform="rotate(-90,18.5335,25.9232)">
<text xml:space="preserve" x="18.5335" y="25.9232" fill="black" font-size="7.39355" font-family="Helvetica">0</text>
</g>
<g transform="rotate(-90,22.4784,32.1222)">
<text xml:space="preserve" x="22.4784" y="32.1222" fill="black" font-size="10.8403" font-family="Times">&#0960;</text>
</g>
<g transform="rotate(-90,17.4064,45.0838)">
<text xml:space="preserve" x="17.4064" y="45.0838" fill="black" font-size="16.0105" font-family="Helvetica" font-style="oblique">N</text>
</g>
<path d="M553.256,498.064v -481.461" fill="none" stroke="black"/>
<path d="M538.459,481.829h 14.7969" fill="none" stroke="black"/>
<path d="M545.857,469.027h 7.39843" fill="none" stroke="black"/>
<path d="M545.857,456.225h 7.39843" fill="none" stroke="black"/>
<path d="M545.857,443.424h 7.39843" fill="none" stroke="black"/>
<path d="M545.857,430.622h 7.39843" fill="none" stroke="black"/>
<path d="M538.459,417.82h 14.7969" fill="none" stroke="black"/>
<path d="M545.857,405.018h 7.39843" fill="none" stroke="black"/>
<path d="M545.857,392.216h 7.39843" fill="none" stroke="black"/>
<path d="M545.857,379.415h 7.39843" fill="none" stroke="black"/>
<path d="M545.857,366.613h 7.39843" fill="none" stroke="black"/>
<path d="M538.459,353.811h 14.7969" fill="none" stroke="black"/>
<path d="M545.857,341.009h 7.39843" fill="none" stroke="black"/>
<path d="M545.857,328.208h 7.39843" fill="none" stroke="black"/>
<path d="M545.857,315.406h 7.39843" fill="none" stroke="black"/>
<path d="M545.857,302.604h 7.39843" fill="none" stroke="black"/>
<path d="M538.459,289.802h 14.7969" fill="none" stroke="black"/>
<path d="M545.857,277.001h 7.39843" fill="none" stroke="black"/>
<path d="M545.857,264.199h 7.39843" fill="none" stroke="black"/>
<path d="M545.857,251.397h 7.39843" fill="none" stroke="black"/>
<path d="M545.857,238.595h 7.39843" fill="none" stroke="black"/>
<path d="M538.459,225.794h 14.7969" fill="none" stroke="black"/>
<path d="M545.857,212.992h 7.39843" fill="none" stroke="black"/>
<path d="M545.857,200.19h 7.39843" fill="none" stroke="black"/>
<path d="M545.857,187.388h 7.39843" fill="none" stroke="black"/>
<path d="M545.857,174.586h 7.39843" fill="none" stroke="black"/>
<path d="M538.459,161.785h 14.7969" fill="none" stroke="black"/>
<path d="M545.857,148.983h 7.39843" fill="none" stroke="black"/>
<path d="M545.857,136.181h 7.39843" fill="none" stroke="black"/>
<path d="M545.857,123.379h 7.39843" fill="none" stroke="black"/>
<path d="M545.857,110.578h 7.39843" fill="none" stroke="black"/>
<path d="M538.459,97.7758h 14.7969" fill="none" stroke="black"/>
<path d="M545.857,84.9741h 7.39843" fill="none" stroke="black"/>
<path d="M545.857,72.1723h 7.39843" fill="none" stroke="black"/>
<path d="M545.857,59.3706h 7.39843" fill="none" stroke="black"/>
<path d="M545.857,46.5688h 7.39843" fill="none" stroke="black"/>
<path d="M538.459,33.767h 14.7969" fill="none" stroke="black"/>
<path d="M538.459,481.829h 14.7969" fill="none" stroke="black"/>
<path d="M545.857,494.631h 7.39843" fill="none" stroke="black"/>
<path d="M538.459,33.767h 14.7969" fill="none" stroke="black"/>
<path d="M545.857,20.9653h 7.39843" fill="none" stroke="black"/>
<path d="M104.891,382.561v -31.6561" fill="none" stroke="#33cccc" stroke-width="2"/>
<path d="M104.891,341.888v -31.6561" fill="none" stroke="#33cccc" stroke-width="2"/>
<path d="M95.3516,346.397h 5.03129" fill="none" stroke="#33cccc" stroke-width="2"/>
<path d="M109.4,346.397h 5.03129" fill="none" stroke="#33cccc" stroke-width="2"/>
<g stroke="#33cccc" stroke-width="2" fill="none">
<rect x="100.383" y="341.888" width="9.01677" height="9.01677"/>
</g>
<path d="M123.971,486.221v -32.7781" fill="none" stroke="#33cccc" stroke-width="2"/>
<path d="M123.971,444.426v -32.7781" fill="none" stroke="#33cccc" stroke-width="2"/>
<path d="M114.431,448.935h 5.03129" fill="none" stroke="#33cccc" stroke-width="2"/>
<path d="M128.479,448.935h 5.03129" fill="none" stroke="#33cccc" stroke-width="2"/>
<g stroke="#33cccc" stroke-width="2" fill="none">
<rect x="119.462" y="444.426" width="9.01677" height="9.01677"/>
</g>
<path d="M143.05,463.437v -34.4988" fill="none" stroke="#33cccc" stroke-width="2"/>
<path d="M143.05,419.922v -34.4988" fill="none" stroke="#33cccc" stroke-width="2"/>
<path d="M133.51,424.43h 5.03129" fill="none" stroke="#33cccc" stroke-width="2"/>
<path d="M147.558,424.43h 5.03129" fill="none" stroke="#33cccc" stroke-width="2"/>
<g stroke="#33cccc" stroke-width="2" fill="none">
<rect x="138.542" y="419.922" width="9.01677" height="9.01677"/>
</g>
<path d="M162.129,387.459v -35.9874" fill="none" stroke="#33cccc" stroke-width="2"/>
<path d="M162.129,342.455v -35.9874" fill="none" stroke="#33cccc" stroke-width="2"/>
<path d="M152.59,346.963h 5.03129" fill="none" stroke="#33cccc" stroke-width="2"/>
<path d="M166.638,346.963h 5.03129" fill="none" stroke="#33cccc" stroke-width="2"/>
<g stroke="#33cccc" stroke-width="2" fill="none">
<rect x="157.621" y="342.455" width="9.01677" height="9.01677"/>
</g>
<path d="M181.209,358.374v -36.9707" fill="none" stroke="#33cccc" stroke-width="2"/>
<path d="M181.209,312.387v -36.9707" fill="none" stroke="#33cccc" stroke-width="2"/>
<path d="M171.669,316.895h 5.03129" fill="none" stroke="#33cccc" stroke-width="2"/>
<path d="M185.717,316.895h 5.03129" fill="none" stroke="#33cccc" stroke-width="2"/>
<g stroke="#33cccc" stroke-width="2" fill="none">
<rect x="176.7" y="312.387" width="9.01677" height="9.01677"/>
</g>
<path d="M200.288,329.548v -37.6328" fill="none" stroke="#33cccc" stroke-width="2"/>
<path d="M200.288,282.899v -37.6328" fill="none" stroke="#33cccc" stroke-width="2"/>
<path d="M190.748,287.407h 5.03129" fill="none" stroke="#33cccc" stroke-width="2"/>
<path d="M204.796,287.407h 5.03129" fill="none" stroke="#33cccc" stroke-width="2"/>
<g stroke="#33cccc" stroke-width="2" fill="none">
<rect x="195.78" y="282.899" width="9.01677" height="9.01677"/>
</g>
<path d="M219.367,369.074v -37.3502" fill="none" stroke="#33cccc" stroke-width="2"/>
<path d="M219.367,322.707v -37.3502" fill="none" stroke="#33cccc" stroke-width="2"/>
<path d="M209.828,327.216h 5.03129" fill="none" stroke="#33cccc" stroke-width="2"/>
<path d="M223.876,327.216h 5.03129" fill="none" stroke="#33cccc" stroke-width="2"/>
<g stroke="#33cccc" stroke-width="2" fill="none">
<rect x="214.859" y="322.707" width="9.01677" height="9.01677"/>
</g>
<path d="M238.447,477.714v -36.9596" fill="none" stroke="#33cccc" stroke-width="2"/>
<path d="M238.447,431.738v -36.9596" fill="none" stroke="#33cccc" stroke-width="2"/>
<path d="M228.907,436.246h 5.03129" fill="none" stroke="#33cccc" stroke-width="2"/>
<path d="M242.955,436.246h 5.03129" fill="none" stroke="#33cccc" stroke-width="2"/>
<g stroke="#33cccc" stroke-width="2" fill="none">
<rect x="233.938" y="431.738" width="9.01677" height="9.01677"/>
</g>
<path d="M257.526,488.714v -36.8499" fill="none" stroke="#33cccc" stroke-width="2"/>
<path d="M257.526,442.847v -36.8499" fill="none" stroke="#33cccc" stroke-width="2"/>
<path d="M247.986,447.355h 5.03129" fill="none" stroke="#33cccc" stroke-width="2"/>
<path d="M262.034,447.355h 5.03129" fill="none" stroke="#33cccc" stroke-width="2"/>
<g stroke="#33cccc" stroke-width="2" fill="none">
<rect x="253.018" y="442.847" width="9.01677" height="9.01677"/>
</g>
<path d="M276.605,359.485v -37.6304" fill="none" stroke="#33cccc" stroke-width="2"/>
<path d="M276.605,312.838v -37.6304" fill="none" stroke="#33cccc" stroke-width="2"/>
<path d="M267.066,317.346h 5.03129" fill="none" stroke="#33cccc" stroke-width="2"/>
<path d="M281.114,317.346h 5.03129" fill="none" stroke="#33cccc" stroke-width="2"/>
<g stroke="#33cccc" stroke-width="2" fill="none">
<rect x="272.097" y="312.838" width="9.01677" height="9.01677"/>
</g>
<path d="M295.685,268.39v -37.8045" fill="none" stroke="#33cccc" stroke-width="2"/>
<path d="M295.685,221.568v -37.8045" fill="none" stroke="#33cccc" stroke-width="2"/>
<path d="M286.145,226.077h 5.03129" fill="none" stroke="#33cccc" stroke-width="2"/>
<path d="M300.193,226.077h 5.03129" fill="none" stroke="#33cccc" stroke-width="2"/>
<g stroke="#33cccc" stroke-width="2" fill="none">
<rect x="291.176" y="221.568" width="9.01677" height="9.01677"/>
</g>
<path d="M314.764,390.069v -36.6275" fill="none" stroke="#33cccc" stroke-width="2"/>
<path d="M314.764,344.424v -36.6275" fill="none" stroke="#33cccc" stroke-width="2"/>
<path d="M305.224,348.933h 5.03129" fill="none" stroke="#33cccc" stroke-width="2"/>
<path d="M319.272,348.933h 5.03129" fill="none" stroke="#33cccc" stroke-width="2"/>
<g stroke="#33cccc" stroke-width="2" fill="none">
<rect x="310.256" y="344.424" width="9.01677" height="9.01677"/>
</g>
<path d="M333.843,421.926v -36.107" fill="none" stroke="#33cccc" stroke-width="2"/>
<path d="M333.843,376.802v -36.107" fill="none" stroke="#33cccc" stroke-width="2"/>
<path d="M324.304,381.31h 5.03129" fill="none" stroke="#33cccc" stroke-width="2"/>
<path d="M338.352,381.31h 5.03129" fill="none" stroke="#33cccc" stroke-width="2"/>
<g stroke="#33cccc" stroke-width="2" fill="none">
<rect x="329.335" y="376.802" width="9.01677" height="9.01677"/>
</g>
<path d="M352.923,498.064v -28.2817" fill="none" stroke="#33cccc" stroke-width="2"/>
<path d="M352.923,460.765v -35.2148" fill="none" stroke="#33cccc" stroke-width="2"/>
<path d="M343.383,465.273h 5.03129" fill="none" stroke="#33cccc" stroke-width="2"/>
<path d="M357.431,465.273h 5.03129" fill="none" stroke="#33cccc" stroke-width="2"/>
<g stroke="#33cccc" stroke-width="2" fill="none">
<rect x="348.414" y="460.765" width="9.01677" height="9.01677"/>
</g>
<path d="M372.002,498.064v -7.93475" fill="none" stroke="#33cccc" stroke-width="2"/>
<path d="M372.002,481.112v -34.387" fill="none" stroke="#33cccc" stroke-width="2"/>
<path d="M362.462,485.62h 5.03129" fill="none" stroke="#33cccc" stroke-width="2"/>
<path d="M376.51,485.62h 5.03129" fill="none" stroke="#33cccc" stroke-width="2"/>
<g stroke="#33cccc" stroke-width="2" fill="none">
<rect x="367.494" y="481.112" width="9.01677" height="9.01677"/>
</g>
<path d="M391.081,491.106v -34.1036" fill="none" stroke="#33cccc" stroke-width="2"/>
<path d="M391.081,447.985v -34.1036" fill="none" stroke="#33cccc" stroke-width="2"/>
<path d="M381.542,452.494h 5.03129" fill="none" stroke="#33cccc" stroke-width="2"/>
<path d="M395.59,452.494h 5.03129" fill="none" stroke="#33cccc" stroke-width="2"/>
<g stroke="#33cccc" stroke-width="2" fill="none">
<rect x="386.573" y="447.985" width="9.01677" height="9.01677"/>
</g>
<path d="M410.161,445.887v -33.6227" fill="none" stroke="#33cccc" stroke-width="2"/>
<path d="M410.161,403.248v -33.6227" fill="none" stroke="#33cccc" stroke-width="2"/>
<path d="M400.621,407.756h 5.03129" fill="none" stroke="#33cccc" stroke-width="2"/>
<path d="M414.669,407.756h 5.03129" fill="none" stroke="#33cccc" stroke-width="2"/>
<g stroke="#33cccc" stroke-width="2" fill="none">
<rect x="405.652" y="403.248" width="9.01677" height="9.01677"/>
</g>
<path d="M467.399,498.064v -26.7946" fill="none" stroke="#33cccc" stroke-width="2"/>
<path d="M467.399,462.252v -31.1213" fill="none" stroke="#33cccc" stroke-width="2"/>
<path d="M457.859,466.761h 5.03129" fill="none" stroke="#33cccc" stroke-width="2"/>
<path d="M471.907,466.761h 5.03129" fill="none" stroke="#33cccc" stroke-width="2"/>
<g stroke="#33cccc" stroke-width="2" fill="none">
<rect x="462.89" y="462.252" width="9.01677" height="9.01677"/>
</g>
<path d="M486.478,488.836v -30.4044" fill="none" stroke="#33cccc" stroke-width="2"/>
<path d="M486.478,449.415v -30.4044" fill="none" stroke="#33cccc" stroke-width="2"/>
<path d="M476.939,453.923h 5.03129" fill="none" stroke="#33cccc" stroke-width="2"/>
<path d="M490.987,453.923h 5.03129" fill="none" stroke="#33cccc" stroke-width="2"/>
<g stroke="#33cccc" stroke-width="2" fill="none">
<rect x="481.97" y="449.415" width="9.01677" height="9.01677"/>
</g>
<path d="M505.558,443.824v -29.736" fill="none" stroke="#33cccc" stroke-width="2"/>
<path d="M505.558,405.071v -29.736" fill="none" stroke="#33cccc" stroke-width="2"/>
<path d="M496.018,409.58h 5.03129" fill="none" stroke="#33cccc" stroke-width="2"/>
<path d="M510.066,409.58h 5.03129" fill="none" stroke="#33cccc" stroke-width="2"/>
<g stroke="#33cccc" stroke-width="2" fill="none">
<rect x="501.049" y="405.071" width="9.01677" height="9.01677"/>
</g>
<path d="M524.637,498.064v -17.1522" fill="none" stroke="#33cccc" stroke-width="2"/>
<path d="M524.637,471.895v -28.823" fill="none" stroke="#33cccc" stroke-width="2"/>
<path d="M515.097,476.403h 5.03129" fill="none" stroke="#33cccc" stroke-width="2"/>
<path d="M529.145,476.403h 5.03129" fill="none" stroke="#33cccc" stroke-width="2"/>
<g stroke="#33cccc" stroke-width="2" fill="none">
<rect x="520.128" y="471.895" width="9.01677" height="9.01677"/>
</g>
<path d="M543.716,413.887v -28.6628" fill="none" stroke="#33cccc" stroke-width="2"/>
<path d="M543.716,376.208v -28.6628" fill="none" stroke="#33cccc" stroke-width="2"/>
<path d="M534.177,380.716h 5.03129" fill="none" stroke="#33cccc" stroke-width="2"/>
<path d="M548.225,380.716h 5.03129" fill="none" stroke="#33cccc" stroke-width="2"/>
<g stroke="#33cccc" stroke-width="2" fill="none">
<rect x="539.208" y="376.208" width="9.01677" height="9.01677"/>
</g>
<path d="M162.129,498.064v -14.0041" fill="none" stroke="#ff0066" stroke-width="2"/>
<path d="M162.129,484.06v -40.6395" fill="none" stroke="#ff0066" stroke-width="2"/>
<path d="M152.59,484.06h 9.53967" fill="none" stroke="#ff0066" stroke-width="2"/>
<path d="M162.129,484.06h 9.53967" fill="none" stroke="#ff0066" stroke-width="2"/>
<g stroke="#ff0066" stroke-width="2" fill="none">
<line x1="161.129" y1="484.06" x2="162.129" y2="484.06"/>
</g>
<path d="M181.209,474.903v -41.5968" fill="none" stroke="#ff0066" stroke-width="2"/>
<path d="M181.209,433.306v -41.5968" fill="none" stroke="#ff0066" stroke-width="2"/>
<path d="M171.669,433.306h 9.53967" fill="none" stroke="#ff0066" stroke-width="2"/>
<path d="M181.209,433.306h 9.53967" fill="none" stroke="#ff0066" stroke-width="2"/>
<g stroke="#ff0066" stroke-width="2" fill="none">
<line x1="180.209" y1="433.306" x2="181.209" y2="433.306"/>
</g>
<path d="M200.288,422.416v -42.2326" fill="none" stroke="#ff0066" stroke-width="2"/>
<path d="M200.288,380.183v -42.2326" fill="none" stroke="#ff0066" stroke-width="2"/>
<path d="M190.748,380.183h 9.53967" fill="none" stroke="#ff0066" stroke-width="2"/>
<path d="M200.288,380.183h 9.53967" fill="none" stroke="#ff0066" stroke-width="2"/>
<g stroke="#ff0066" stroke-width="2" fill="none">
<line x1="199.288" y1="380.183" x2="200.288" y2="380.183"/>
</g>
<path d="M219.367,438.225v -41.926" fill="none" stroke="#ff0066" stroke-width="2"/>
<path d="M219.367,396.299v -41.926" fill="none" stroke="#ff0066" stroke-width="2"/>
<path d="M209.828,396.299h 9.53967" fill="none" stroke="#ff0066" stroke-width="2"/>
<path d="M219.367,396.299h 9.53967" fill="none" stroke="#ff0066" stroke-width="2"/>
<g stroke="#ff0066" stroke-width="2" fill="none">
<line x1="218.367" y1="396.299" x2="219.367" y2="396.299"/>
</g>
<path d="M238.447,498.064v -14.8387" fill="none" stroke="#ff0066" stroke-width="2"/>
<path d="M238.447,483.225v -41.5136" fill="none" stroke="#ff0066" stroke-width="2"/>
<path d="M228.907,483.225h 9.53967" fill="none" stroke="#ff0066" stroke-width="2"/>
<path d="M238.447,483.225h 9.53967" fill="none" stroke="#ff0066" stroke-width="2"/>
<g stroke="#ff0066" stroke-width="2" fill="none">
<line x1="237.447" y1="483.225" x2="238.447" y2="483.225"/>
</g>
<path d="M257.526,498.064v -24.2671" fill="none" stroke="#ff0066" stroke-width="2"/>
<path d="M257.526,473.796v -41.3838" fill="none" stroke="#ff0066" stroke-width="2"/>
<path d="M247.986,473.796h 9.53967" fill="none" stroke="#ff0066" stroke-width="2"/>
<path d="M257.526,473.796h 9.53967" fill="none" stroke="#ff0066" stroke-width="2"/>
<g stroke="#ff0066" stroke-width="2" fill="none">
<line x1="256.526" y1="473.796" x2="257.526" y2="473.796"/>
</g>
<path d="M276.605,367.291v -42.1461" fill="none" stroke="#ff0066" stroke-width="2"/>
<path d="M276.605,325.145v -42.1461" fill="none" stroke="#ff0066" stroke-width="2"/>
<path d="M267.066,325.145h 9.53967" fill="none" stroke="#ff0066" stroke-width="2"/>
<path d="M276.605,325.145h 9.53967" fill="none" stroke="#ff0066" stroke-width="2"/>
<g stroke="#ff0066" stroke-width="2" fill="none">
<line x1="275.605" y1="325.145" x2="276.605" y2="325.145"/>
</g>
<path d="M295.685,259.74v -42.3049" fill="none" stroke="#ff0066" stroke-width="2"/>
<path d="M295.685,217.435v -42.3049" fill="none" stroke="#ff0066" stroke-width="2"/>
<path d="M286.145,217.435h 9.53967" fill="none" stroke="#ff0066" stroke-width="2"/>
<path d="M295.685,217.435h 9.53967" fill="none" stroke="#ff0066" stroke-width="2"/>
<g stroke="#ff0066" stroke-width="2" fill="none">
<line x1="294.685" y1="217.435" x2="295.685" y2="217.435"/>
</g>
<path d="M314.764,367.549v -41.1149" fill="none" stroke="#ff0066" stroke-width="2"/>
<path d="M314.764,326.434v -41.1149" fill="none" stroke="#ff0066" stroke-width="2"/>
<path d="M305.224,326.434h 9.53967" fill="none" stroke="#ff0066" stroke-width="2"/>
<path d="M314.764,326.434h 9.53967" fill="none" stroke="#ff0066" stroke-width="2"/>
<g stroke="#ff0066" stroke-width="2" fill="none">
<line x1="313.764" y1="326.434" x2="314.764" y2="326.434"/>
</g>
<path d="M333.843,387.823v -40.5835" fill="none" stroke="#ff0066" stroke-width="2"/>
<path d="M333.843,347.239v -40.5835" fill="none" stroke="#ff0066" stroke-width="2"/>
<path d="M324.304,347.239h 9.53967" fill="none" stroke="#ff0066" stroke-width="2"/>
<path d="M333.843,347.239h 9.53967" fill="none" stroke="#ff0066" stroke-width="2"/>
<g stroke="#ff0066" stroke-width="2" fill="none">
<line x1="332.843" y1="347.239" x2="333.843" y2="347.239"/>
</g>
<path d="M352.923,462.323v -39.6829" fill="none" stroke="#ff0066" stroke-width="2"/>
<path d="M352.923,422.64v -39.6829" fill="none" stroke="#ff0066" stroke-width="2"/>
<path d="M343.383,422.64h 9.53967" fill="none" stroke="#ff0066" stroke-width="2"/>
<path d="M352.923,422.64h 9.53967" fill="none" stroke="#ff0066" stroke-width="2"/>
<g stroke="#ff0066" stroke-width="2" fill="none">
<line x1="351.923" y1="422.64" x2="352.923" y2="422.64"/>
</g>
<path d="M372.002,475.528v -38.8488" fill="none" stroke="#ff0066" stroke-width="2"/>
<path d="M372.002,436.68v -38.8488" fill="none" stroke="#ff0066" stroke-width="2"/>
<path d="M362.462,436.68h 9.53967" fill="none" stroke="#ff0066" stroke-width="2"/>
<path d="M372.002,436.68h 9.53967" fill="none" stroke="#ff0066" stroke-width="2"/>
<g stroke="#ff0066" stroke-width="2" fill="none">
<line x1="371.002" y1="436.68" x2="372.002" y2="436.68"/>
</g>
<path d="M391.081,438.376v -38.562" fill="none" stroke="#ff0066" stroke-width="2"/>
<path d="M391.081,399.814v -38.562" fill="none" stroke="#ff0066" stroke-width="2"/>
<path d="M381.542,399.814h 9.53967" fill="none" stroke="#ff0066" stroke-width="2"/>
<path d="M391.081,399.814h 9.53967" fill="none" stroke="#ff0066" stroke-width="2"/>
<g stroke="#ff0066" stroke-width="2" fill="none">
<line x1="390.081" y1="399.814" x2="391.081" y2="399.814"/>
</g>
<path d="M410.161,392.29v -38.0803" fill="none" stroke="#ff0066" stroke-width="2"/>
<path d="M410.161,354.21v -38.0803" fill="none" stroke="#ff0066" stroke-width="2"/>
<path d="M400.621,354.21h 9.53967" fill="none" stroke="#ff0066" stroke-width="2"/>
<path d="M410.161,354.21h 9.53967" fill="none" stroke="#ff0066" stroke-width="2"/>
<g stroke="#ff0066" stroke-width="2" fill="none">
<line x1="409.161" y1="354.21" x2="410.161" y2="354.21"/>
</g>
<path d="M429.24,498.064v -29.4012" fill="none" stroke="#ff0066" stroke-width="2"/>
<path d="M429.24,468.662v -36.8584" fill="none" stroke="#ff0066" stroke-width="2"/>
<path d="M419.7,468.662h 9.53967" fill="none" stroke="#ff0066" stroke-width="2"/>
<path d="M429.24,468.662h 9.53967" fill="none" stroke="#ff0066" stroke-width="2"/>
<g stroke="#ff0066" stroke-width="2" fill="none">
<line x1="428.24" y1="468.662" x2="429.24" y2="468.662"/>
</g>
<path d="M448.319,495.752v -36.1616" fill="none" stroke="#ff0066" stroke-width="2"/>
<path d="M448.319,459.59v -36.1616" fill="none" stroke="#ff0066" stroke-width="2"/>
<path d="M438.78,459.59h 9.53967" fill="none" stroke="#ff0066" stroke-width="2"/>
<path d="M448.319,459.59h 9.53967" fill="none" stroke="#ff0066" stroke-width="2"/>
<g stroke="#ff0066" stroke-width="2" fill="none">
<line x1="447.319" y1="459.59" x2="448.319" y2="459.59"/>
</g>
<path d="M467.399,457.794v -35.586" fill="none" stroke="#ff0066" stroke-width="2"/>
<path d="M467.399,422.209v -35.586" fill="none" stroke="#ff0066" stroke-width="2"/>
<path d="M457.859,422.209h 9.53967" fill="none" stroke="#ff0066" stroke-width="2"/>
<path d="M467.399,422.209h 9.53967" fill="none" stroke="#ff0066" stroke-width="2"/>
<g stroke="#ff0066" stroke-width="2" fill="none">
<line x1="466.399" y1="422.209" x2="467.399" y2="422.209"/>
</g>
<path d="M486.478,450.786v -34.875" fill="none" stroke="#ff0066" stroke-width="2"/>
<path d="M486.478,415.911v -34.875" fill="none" stroke="#ff0066" stroke-width="2"/>
<path d="M476.939,415.911h 9.53967" fill="none" stroke="#ff0066" stroke-width="2"/>
<path d="M486.478,415.911h 9.53967" fill="none" stroke="#ff0066" stroke-width="2"/>
<g stroke="#ff0066" stroke-width="2" fill="none">
<line x1="485.478" y1="415.911" x2="486.478" y2="415.911"/>
</g>
<path d="M505.558,414.386v -34.2149" fill="none" stroke="#ff0066" stroke-width="2"/>
<path d="M505.558,380.171v -34.2149" fill="none" stroke="#ff0066" stroke-width="2"/>
<path d="M496.018,380.171h 9.53967" fill="none" stroke="#ff0066" stroke-width="2"/>
<path d="M505.558,380.171h 9.53967" fill="none" stroke="#ff0066" stroke-width="2"/>
<g stroke="#ff0066" stroke-width="2" fill="none">
<line x1="504.558" y1="380.171" x2="505.558" y2="380.171"/>
</g>
<path d="M524.637,489.694v -33.311" fill="none" stroke="#ff0066" stroke-width="2"/>
<path d="M524.637,456.383v -33.311" fill="none" stroke="#ff0066" stroke-width="2"/>
<path d="M515.097,456.383h 9.53967" fill="none" stroke="#ff0066" stroke-width="2"/>
<path d="M524.637,456.383h 9.53967" fill="none" stroke="#ff0066" stroke-width="2"/>
<g stroke="#ff0066" stroke-width="2" fill="none">
<line x1="523.637" y1="456.383" x2="524.637" y2="456.383"/>
</g>
<path d="M543.716,404.524v -33.1617" fill="none" stroke="#ff0066" stroke-width="2"/>
<path d="M543.716,371.363v -33.1617" fill="none" stroke="#ff0066" stroke-width="2"/>
<path d="M534.177,371.363h 9.53967" fill="none" stroke="#ff0066" stroke-width="2"/>
<path d="M543.716,371.363h 9.53967" fill="none" stroke="#ff0066" stroke-width="2"/>
<g stroke="#ff0066" stroke-width="2" fill="none">
<line x1="542.716" y1="371.363" x2="543.716" y2="371.363"/>
</g>
<text xml:space="preserve" x="360.607" y="50.7193" fill="black" font-size="16.0105" font-family="Helvetica"> with EMC</text>
<text xml:space="preserve" x="352.717" y="50.7193" fill="black" font-size="16.0105" font-family="Times">&#0947;</text>
<text xml:space="preserve" x="344.828" y="50.7193" fill="black" font-size="16.0105" font-family="Times">&#0947;</text>
<text xml:space="preserve" x="336.938" y="50.7193" fill="black" font-size="16.0105" font-family="Times">&#0947;</text>
<text xml:space="preserve" x="331.866" y="50.7193" fill="black" font-size="16.0105" font-family="Helvetica"> </text>
<text xml:space="preserve" x="316.65" y="50.7193" fill="black" font-size="16.0105" font-family="Times">&#8594;</text>
<text xml:space="preserve" x="311.578" y="50.7193" fill="black" font-size="16.0105" font-family="Helvetica"> </text>
<text xml:space="preserve" x="303.689" y="50.7193" fill="black" font-size="16.0105" font-family="Times">&#0947;</text>
<text xml:space="preserve" x="298.053" y="45.0838" fill="black" font-size="10.8403" font-family="Helvetica">0</text>
<text xml:space="preserve" x="289.6" y="50.7193" fill="black" font-size="16.0105" font-family="Times">&#0960;</text>
<text xml:space="preserve" x="284.528" y="50.7193" fill="black" font-size="16.0105" font-family="Helvetica"> </text>
<text xml:space="preserve" x="269.312" y="50.7193" fill="black" font-size="16.0105" font-family="Times">&#8594;</text>
<text xml:space="preserve" x="264.24" y="50.7193" fill="black" font-size="16.0105" font-family="Helvetica"> </text>
<text xml:space="preserve" x="252.969" y="50.7193" fill="black" font-size="16.0105" font-family="Times">&#0969;</text>
<text xml:space="preserve" x="128.989" y="50.7193" fill="black" font-size="16.0105" font-family="Helvetica"> = 13 TeV (EG1), </text>
<text xml:space="preserve" x="120.536" y="50.7193" fill="black" font-size="16.0105" font-family="Helvetica" font-style="oblique">s</text>
<path d="M114.9,41.7025l 1.69064, 9.58031" fill="none" stroke="black" stroke-width="2"/>
<path d="M116.591,51.2829l 2.25419, -14.0887" fill="none" stroke="black"/>
<path d="M118.845,37.1942h 10.1439" fill="none" stroke="black"/>
<text xml:space="preserve" x="89.5406" y="50.7193" fill="black" font-size="16.0105" font-family="Helvetica">pp </text>
<text xml:space="preserve" x="89.5406" y="85.6593" fill="black" font-size="16.0105" font-family="Helvetica">ALICE work in progress</text>
<text xml:space="preserve" x="214.085" y="120.599" fill="black" font-size="16.0105" font-family="Helvetica">) &lt; 32.0</text>
<text xml:space="preserve" x="205.068" y="120.599" fill="black" font-size="16.0105" font-family="Helvetica" font-style="oblique">c</text>
<text xml:space="preserve" x="154.912" y="120.599" fill="black" font-size="16.0105" font-family="Helvetica"> /(GeV/</text>
<text xml:space="preserve" x="148.15" y="128.489" fill="black" font-size="10.8403" font-family="Helvetica">T</text>
<text xml:space="preserve" x="138.569" y="120.599" fill="black" font-size="16.0105" font-family="Helvetica" font-style="oblique">p</text>
<text xml:space="preserve" x="133.497" y="120.599" fill="black" font-size="16.0105" font-family="Helvetica"> </text>
<text xml:space="preserve" x="125.044" y="120.599" fill="black" font-size="16.0105" font-family="Times">&#8804;</text>
<text xml:space="preserve" x="89.5406" y="120.599" fill="black" font-size="16.0105" font-family="Helvetica">28.0 </text>
<rect x="312.311" y="69.1755" width="198.425" height="113.448" fill="white"/>
<text xml:space="preserve" x="361.734" y="92.4219" fill="black" font-size="16.0105" font-family="Helvetica">true signal</text>
<path d="M319.752,88.0835h 34.7244" fill="none" stroke="black" stroke-width="2"/>
<g fill="black">
<circle cx="337.114" cy="88.0835" r="6.76257"/>
</g>
<text xml:space="preserve" x="361.734" y="130.18" fill="black" font-size="16.0105" font-family="Helvetica">extracted signal pol1</text>
<path d="M319.752,125.899h 34.7244" fill="none" stroke="#33cccc" stroke-width="2"/>
<g stroke="#33cccc" stroke-width="2" fill="none">
<rect x="332.606" y="121.391" width="9.01677" height="9.01677"/>
</g>
<text xml:space="preserve" x="361.734" y="167.937" fill="black" font-size="16.0105" font-family="Helvetica">extracted signal pol2</text>
<path d="M319.752,163.715h 34.7244" fill="none" stroke="#ff0066" stroke-width="2"/>
<g stroke="#ff0066" stroke-width="2" fill="none">
<line x1="336.114" y1="163.715" x2="337.114" y2="163.715"/>
</g></svg>
