<?xml version="1.0" standalone="no"?>
<svg width="567.429" height="553.904" viewBox="0 0 567.429 553.904" xmlns="http://www.w3.org/2000/svg" shape-rendering="crispEdges">
<title>
MC/EG1/Pi0RotPS/SameEventToBackgroundRatio_06.svg
</title>
<desc>
Creator: ROOT Version 6.20/08
CreationDate: Mon Mar 29 21:31:16 2021</desc>
<defs>
</defs>
<rect x="0.5" y="0" width="566.929" height="553.404" fill="white"/>
<rect x="68.5315" y="16.6021" width="484.724" height="481.461" fill="white"/>
<rect x="68.5315" y="16.6021" width="484.724" height="481.461" fill="none" stroke="black"/>
<rect x="68.5315" y="16.6021" width="484.724" height="481.461" fill="white"/>
<rect x="68.5315" y="16.6021" width="484.724" height="481.461" fill="none" stroke="black"/>
<g fill="black">
<circle cx="109.325" cy="497.954" r="6.76257"/>
</g>
<g fill="black">
<circle cx="114.124" cy="470.103" r="6.76257"/>
</g>
<g fill="black">
<circle cx="118.924" cy="345.977" r="6.76257"/>
</g>
<g fill="black">
<circle cx="123.723" cy="224.173" r="6.76257"/>
</g>
<g fill="black">
<circle cx="128.522" cy="197.15" r="6.76257"/>
</g>
<g fill="black">
<circle cx="133.321" cy="322.634" r="6.76257"/>
</g>
<g fill="black">
<circle cx="138.121" cy="294.575" r="6.76257"/>
</g>
<g fill="black">
<circle cx="142.92" cy="311.09" r="6.76257"/>
</g>
<g fill="black">
<circle cx="147.719" cy="320.386" r="6.76257"/>
</g>
<g fill="black">
<circle cx="152.518" cy="320.916" r="6.76257"/>
</g>
<g fill="black">
<circle cx="157.318" cy="328.141" r="6.76257"/>
</g>
<g fill="black">
<circle cx="162.117" cy="334.293" r="6.76257"/>
</g>
<g fill="black">
<circle cx="166.916" cy="338.284" r="6.76257"/>
</g>
<g fill="black">
<circle cx="171.715" cy="342.98" r="6.76257"/>
</g>
<g fill="black">
<circle cx="176.515" cy="343.349" r="6.76257"/>
</g>
<g fill="black">
<circle cx="181.314" cy="347.246" r="6.76257"/>
</g>
<g fill="black">
<circle cx="186.113" cy="346.788" r="6.76257"/>
</g>
<g fill="black">
<circle cx="190.912" cy="349.196" r="6.76257"/>
</g>
<g fill="black">
<circle cx="195.712" cy="348.973" r="6.76257"/>
</g>
<g fill="black">
<circle cx="200.511" cy="349.426" r="6.76257"/>
</g>
<g fill="black">
<circle cx="205.31" cy="349.49" r="6.76257"/>
</g>
<g fill="black">
<circle cx="210.109" cy="349.585" r="6.76257"/>
</g>
<g fill="black">
<circle cx="214.909" cy="349.023" r="6.76257"/>
</g>
<g fill="black">
<circle cx="219.708" cy="350.202" r="6.76257"/>
</g>
<g fill="black">
<circle cx="224.507" cy="349.019" r="6.76257"/>
</g>
<g fill="black">
<circle cx="229.306" cy="348.257" r="6.76257"/>
</g>
<g fill="black">
<circle cx="234.106" cy="348.559" r="6.76257"/>
</g>
<g fill="black">
<circle cx="238.905" cy="346.286" r="6.76257"/>
</g>
<g fill="black">
<circle cx="243.704" cy="344.657" r="6.76257"/>
</g>
<g fill="black">
<circle cx="248.503" cy="345.334" r="6.76257"/>
</g>
<g fill="black">
<circle cx="253.303" cy="345.811" r="6.76257"/>
</g>
<g fill="black">
<circle cx="258.102" cy="345.276" r="6.76257"/>
</g>
<g fill="black">
<circle cx="262.901" cy="345.004" r="6.76257"/>
</g>
<g fill="black">
<circle cx="267.7" cy="345.184" r="6.76257"/>
</g>
<g fill="black">
<circle cx="272.5" cy="345.337" r="6.76257"/>
</g>
<g fill="black">
<circle cx="277.299" cy="344.255" r="6.76257"/>
</g>
<g fill="black">
<circle cx="339.689" cy="344.069" r="6.76257"/>
</g>
<g fill="black">
<circle cx="344.488" cy="343.314" r="6.76257"/>
</g>
<g fill="black">
<circle cx="349.288" cy="341.771" r="6.76257"/>
</g>
<g fill="black">
<circle cx="354.087" cy="345.76" r="6.76257"/>
</g>
<g fill="black">
<circle cx="358.886" cy="342.811" r="6.76257"/>
</g>
<g fill="black">
<circle cx="363.685" cy="342.613" r="6.76257"/>
</g>
<g fill="black">
<circle cx="368.485" cy="342.291" r="6.76257"/>
</g>
<g fill="black">
<circle cx="373.284" cy="342.526" r="6.76257"/>
</g>
<g fill="black">
<circle cx="378.083" cy="340.302" r="6.76257"/>
</g>
<g fill="black">
<circle cx="382.882" cy="340.734" r="6.76257"/>
</g>
<g fill="black">
<circle cx="387.682" cy="340.762" r="6.76257"/>
</g>
<g fill="black">
<circle cx="392.481" cy="338.674" r="6.76257"/>
</g>
<g fill="black">
<circle cx="397.28" cy="340.584" r="6.76257"/>
</g>
<g fill="black">
<circle cx="402.079" cy="340.412" r="6.76257"/>
</g>
<g fill="black">
<circle cx="406.879" cy="341.364" r="6.76257"/>
</g>
<g fill="black">
<circle cx="411.678" cy="340.024" r="6.76257"/>
</g>
<g fill="black">
<circle cx="416.477" cy="339.061" r="6.76257"/>
</g>
<g fill="black">
<circle cx="421.276" cy="339.147" r="6.76257"/>
</g>
<g fill="black">
<circle cx="426.076" cy="340.471" r="6.76257"/>
</g>
<g fill="black">
<circle cx="430.875" cy="339.656" r="6.76257"/>
</g>
<g fill="black">
<circle cx="435.674" cy="341.283" r="6.76257"/>
</g>
<g fill="black">
<circle cx="440.473" cy="340.719" r="6.76257"/>
</g>
<g fill="black">
<circle cx="445.273" cy="340.259" r="6.76257"/>
</g>
<g fill="black">
<circle cx="450.072" cy="338.788" r="6.76257"/>
</g>
<g fill="black">
<circle cx="454.871" cy="342.527" r="6.76257"/>
</g>
<g fill="black">
<circle cx="459.671" cy="339.599" r="6.76257"/>
</g>
<g fill="black">
<circle cx="464.47" cy="339.773" r="6.76257"/>
</g>
<g fill="black">
<circle cx="469.269" cy="338.557" r="6.76257"/>
</g>
<g fill="black">
<circle cx="474.068" cy="340.141" r="6.76257"/>
</g>
<g fill="black">
<circle cx="478.867" cy="341.911" r="6.76257"/>
</g>
<g fill="black">
<circle cx="483.667" cy="341.533" r="6.76257"/>
</g>
<g fill="black">
<circle cx="488.466" cy="338.535" r="6.76257"/>
</g>
<g fill="black">
<circle cx="493.265" cy="339.777" r="6.76257"/>
</g>
<g fill="black">
<circle cx="498.065" cy="340.729" r="6.76257"/>
</g>
<g fill="black">
<circle cx="502.864" cy="341.993" r="6.76257"/>
</g>
<g fill="black">
<circle cx="507.663" cy="340.657" r="6.76257"/>
</g>
<g fill="black">
<circle cx="512.462" cy="341.658" r="6.76257"/>
</g>
<g fill="black">
<circle cx="517.262" cy="340.286" r="6.76257"/>
</g>
<g fill="black">
<circle cx="522.061" cy="342.347" r="6.76257"/>
</g>
<g fill="black">
<circle cx="526.86" cy="342.604" r="6.76257"/>
</g>
<g fill="black">
<circle cx="531.659" cy="342.371" r="6.76257"/>
</g>
<g fill="black">
<circle cx="536.458" cy="343.975" r="6.76257"/>
</g>
<g fill="black">
<circle cx="541.258" cy="340.969" r="6.76257"/>
</g>
<g fill="black">
<circle cx="546.057" cy="343.439" r="6.76257"/>
</g>
<path d="M68.5315,498.064h 484.724" fill="none" stroke="black"/>
<path d="M68.5315,483.869v 14.1948" fill="none" stroke="black"/>
<path d="M83.5292,490.966v 7.09741" fill="none" stroke="black"/>
<path d="M98.5268,490.966v 7.09741" fill="none" stroke="black"/>
<path d="M113.524,490.966v 7.09741" fill="none" stroke="black"/>
<path d="M128.522,483.869v 14.1948" fill="none" stroke="black"/>
<path d="M143.52,490.966v 7.09741" fill="none" stroke="black"/>
<path d="M158.517,490.966v 7.09741" fill="none" stroke="black"/>
<path d="M173.515,490.966v 7.09741" fill="none" stroke="black"/>
<path d="M188.513,483.869v 14.1948" fill="none" stroke="black"/>
<path d="M203.51,490.966v 7.09741" fill="none" stroke="black"/>
<path d="M218.508,490.966v 7.09741" fill="none" stroke="black"/>
<path d="M233.506,490.966v 7.09741" fill="none" stroke="black"/>
<path d="M248.503,483.869v 14.1948" fill="none" stroke="black"/>
<path d="M263.501,490.966v 7.09741" fill="none" stroke="black"/>
<path d="M278.499,490.966v 7.09741" fill="none" stroke="black"/>
<path d="M293.496,490.966v 7.09741" fill="none" stroke="black"/>
<path d="M308.494,483.869v 14.1948" fill="none" stroke="black"/>
<path d="M323.492,490.966v 7.09741" fill="none" stroke="black"/>
<path d="M338.489,490.966v 7.09741" fill="none" stroke="black"/>
<path d="M353.487,490.966v 7.09741" fill="none" stroke="black"/>
<path d="M368.485,483.869v 14.1948" fill="none" stroke="black"/>
<path d="M383.482,490.966v 7.09741" fill="none" stroke="black"/>
<path d="M398.48,490.966v 7.09741" fill="none" stroke="black"/>
<path d="M413.478,490.966v 7.09741" fill="none" stroke="black"/>
<path d="M428.475,483.869v 14.1948" fill="none" stroke="black"/>
<path d="M443.473,490.966v 7.09741" fill="none" stroke="black"/>
<path d="M458.471,490.966v 7.09741" fill="none" stroke="black"/>
<path d="M473.468,490.966v 7.09741" fill="none" stroke="black"/>
<path d="M488.466,483.869v 14.1948" fill="none" stroke="black"/>
<path d="M503.464,490.966v 7.09741" fill="none" stroke="black"/>
<path d="M518.461,490.966v 7.09741" fill="none" stroke="black"/>
<path d="M533.459,490.966v 7.09741" fill="none" stroke="black"/>
<path d="M548.457,483.869v 14.1948" fill="none" stroke="black"/>
<path d="M548.457,483.869v 14.1948" fill="none" stroke="black"/>
<text xml:space="preserve" x="63.6174" y="513.956" fill="black" font-size="16.0105" font-family="Helvetica">0</text>
<text xml:space="preserve" x="117.718" y="513.956" fill="black" font-size="16.0105" font-family="Helvetica">0.2</text>
<text xml:space="preserve" x="177.454" y="513.956" fill="black" font-size="16.0105" font-family="Helvetica">0.4</text>
<text xml:space="preserve" x="237.754" y="513.956" fill="black" font-size="16.0105" font-family="Helvetica">0.6</text>
<text xml:space="preserve" x="297.49" y="513.956" fill="black" font-size="16.0105" font-family="Helvetica">0.8</text>
<text xml:space="preserve" x="365.115" y="513.956" fill="black" font-size="16.0105" font-family="Helvetica">1</text>
<text xml:space="preserve" x="417.525" y="513.956" fill="black" font-size="16.0105" font-family="Helvetica">1.2</text>
<text xml:space="preserve" x="477.261" y="513.956" fill="black" font-size="16.0105" font-family="Helvetica">1.4</text>
<text xml:space="preserve" x="537.561" y="513.956" fill="black" font-size="16.0105" font-family="Helvetica">1.6</text>
<text xml:space="preserve" x="548.268" y="537.625" fill="black" font-size="16.0105" font-family="Helvetica">)</text>
<text xml:space="preserve" x="542.633" y="532.553" fill="black" font-size="10.8403" font-family="Helvetica">2</text>
<text xml:space="preserve" x="533.616" y="537.625" fill="black" font-size="16.0105" font-family="Helvetica" font-style="oblique">c</text>
<text xml:space="preserve" x="487.405" y="537.625" fill="black" font-size="16.0105" font-family="Helvetica"> (GeV/</text>
<text xml:space="preserve" x="473.317" y="542.697" fill="black" font-size="10.8403" font-family="Helvetica">inv</text>
<text xml:space="preserve" x="459.792" y="537.625" fill="black" font-size="16.0105" font-family="Helvetica" font-style="oblique">m</text>
<path d="M68.5315,16.6021h 484.724" fill="none" stroke="black"/>
<path d="M68.5315,30.7969v -14.1948" fill="none" stroke="black"/>
<path d="M83.5292,23.6995v -7.09741" fill="none" stroke="black"/>
<path d="M98.5268,23.6995v -7.09741" fill="none" stroke="black"/>
<path d="M113.524,23.6995v -7.09741" fill="none" stroke="black"/>
<path d="M128.522,30.7969v -14.1948" fill="none" stroke="black"/>
<path d="M143.52,23.6995v -7.09741" fill="none" stroke="black"/>
<path d="M158.517,23.6995v -7.09741" fill="none" stroke="black"/>
<path d="M173.515,23.6995v -7.09741" fill="none" stroke="black"/>
<path d="M188.513,30.7969v -14.1948" fill="none" stroke="black"/>
<path d="M203.51,23.6995v -7.09741" fill="none" stroke="black"/>
<path d="M218.508,23.6995v -7.09741" fill="none" stroke="black"/>
<path d="M233.506,23.6995v -7.09741" fill="none" stroke="black"/>
<path d="M248.503,30.7969v -14.1948" fill="none" stroke="black"/>
<path d="M263.501,23.6995v -7.09741" fill="none" stroke="black"/>
<path d="M278.499,23.6995v -7.09741" fill="none" stroke="black"/>
<path d="M293.496,23.6995v -7.09741" fill="none" stroke="black"/>
<path d="M308.494,30.7969v -14.1948" fill="none" stroke="black"/>
<path d="M323.492,23.6995v -7.09741" fill="none" stroke="black"/>
<path d="M338.489,23.6995v -7.09741" fill="none" stroke="black"/>
<path d="M353.487,23.6995v -7.09741" fill="none" stroke="black"/>
<path d="M368.485,30.7969v -14.1948" fill="none" stroke="black"/>
<path d="M383.482,23.6995v -7.09741" fill="none" stroke="black"/>
<path d="M398.48,23.6995v -7.09741" fill="none" stroke="black"/>
<path d="M413.478,23.6995v -7.09741" fill="none" stroke="black"/>
<path d="M428.475,30.7969v -14.1948" fill="none" stroke="black"/>
<path d="M443.473,23.6995v -7.09741" fill="none" stroke="black"/>
<path d="M458.471,23.6995v -7.09741" fill="none" stroke="black"/>
<path d="M473.468,23.6995v -7.09741" fill="none" stroke="black"/>
<path d="M488.466,30.7969v -14.1948" fill="none" stroke="black"/>
<path d="M503.464,23.6995v -7.09741" fill="none" stroke="black"/>
<path d="M518.461,23.6995v -7.09741" fill="none" stroke="black"/>
<path d="M533.459,23.6995v -7.09741" fill="none" stroke="black"/>
<path d="M548.457,30.7969v -14.1948" fill="none" stroke="black"/>
<path d="M548.457,30.7969v -14.1948" fill="none" stroke="black"/>
<path d="M68.5315,498.064v -481.461" fill="none" stroke="black"/>
<path d="M83.3283,498.064h -14.7969" fill="none" stroke="black"/>
<path d="M75.9299,478.849h -7.39843" fill="none" stroke="black"/>
<path d="M75.9299,459.634h -7.39843" fill="none" stroke="black"/>
<path d="M75.9299,440.42h -7.39843" fill="none" stroke="black"/>
<path d="M75.9299,421.205h -7.39843" fill="none" stroke="black"/>
<path d="M83.3283,401.99h -14.7969" fill="none" stroke="black"/>
<path d="M75.9299,382.776h -7.39843" fill="none" stroke="black"/>
<path d="M75.9299,363.561h -7.39843" fill="none" stroke="black"/>
<path d="M75.9299,344.346h -7.39843" fill="none" stroke="black"/>
<path d="M75.9299,325.131h -7.39843" fill="none" stroke="black"/>
<path d="M83.3283,305.917h -14.7969" fill="none" stroke="black"/>
<path d="M75.9299,286.702h -7.39843" fill="none" stroke="black"/>
<path d="M75.9299,267.487h -7.39843" fill="none" stroke="black"/>
<path d="M75.9299,248.273h -7.39843" fill="none" stroke="black"/>
<path d="M75.9299,229.058h -7.39843" fill="none" stroke="black"/>
<path d="M83.3283,209.843h -14.7969" fill="none" stroke="black"/>
<path d="M75.9299,190.629h -7.39843" fill="none" stroke="black"/>
<path d="M75.9299,171.414h -7.39843" fill="none" stroke="black"/>
<path d="M75.9299,152.199h -7.39843" fill="none" stroke="black"/>
<path d="M75.9299,132.985h -7.39843" fill="none" stroke="black"/>
<path d="M83.3283,113.77h -14.7969" fill="none" stroke="black"/>
<path d="M75.9299,94.5553h -7.39843" fill="none" stroke="black"/>
<path d="M75.9299,75.3407h -7.39843" fill="none" stroke="black"/>
<path d="M75.9299,56.126h -7.39843" fill="none" stroke="black"/>
<path d="M75.9299,36.9113h -7.39843" fill="none" stroke="black"/>
<path d="M83.3283,17.6966h -14.7969" fill="none" stroke="black"/>
<path d="M83.3283,17.6966h -14.7969" fill="none" stroke="black"/>
<text xml:space="preserve" x="56.8548" y="503.248" fill="black" font-size="16.0105" font-family="Helvetica">0</text>
<text xml:space="preserve" x="46.1474" y="407.445" fill="black" font-size="16.0105" font-family="Helvetica">0.1</text>
<text xml:space="preserve" x="43.8932" y="311.078" fill="black" font-size="16.0105" font-family="Helvetica">0.2</text>
<text xml:space="preserve" x="43.8932" y="215.275" fill="black" font-size="16.0105" font-family="Helvetica">0.3</text>
<text xml:space="preserve" x="43.8932" y="118.909" fill="black" font-size="16.0105" font-family="Helvetica">0.4</text>
<text xml:space="preserve" x="43.8932" y="23.1055" fill="black" font-size="16.0105" font-family="Helvetica">0.5</text>
<g transform="rotate(-90,38.2577,98.0573)">
<text xml:space="preserve" x="38.2577" y="98.0573" fill="black" font-size="16.0105" font-family="Helvetica">background</text>
</g>
<g transform="rotate(-90,21.9148,98.0573)">
<text xml:space="preserve" x="21.9148" y="98.0573" fill="black" font-size="16.0105" font-family="Helvetica">same event</text>
</g>
<path d="M24.169,98.0573l 0.563548, -81.7144" fill="none" stroke="black" stroke-width="2"/>
<path d="M553.256,498.064v -481.461" fill="none" stroke="black"/>
<path d="M538.459,498.064h 14.7969" fill="none" stroke="black"/>
<path d="M545.857,478.849h 7.39843" fill="none" stroke="black"/>
<path d="M545.857,459.634h 7.39843" fill="none" stroke="black"/>
<path d="M545.857,440.42h 7.39843" fill="none" stroke="black"/>
<path d="M545.857,421.205h 7.39843" fill="none" stroke="black"/>
<path d="M538.459,401.99h 14.7969" fill="none" stroke="black"/>
<path d="M545.857,382.776h 7.39843" fill="none" stroke="black"/>
<path d="M545.857,363.561h 7.39843" fill="none" stroke="black"/>
<path d="M545.857,344.346h 7.39843" fill="none" stroke="black"/>
<path d="M545.857,325.131h 7.39843" fill="none" stroke="black"/>
<path d="M538.459,305.917h 14.7969" fill="none" stroke="black"/>
<path d="M545.857,286.702h 7.39843" fill="none" stroke="black"/>
<path d="M545.857,267.487h 7.39843" fill="none" stroke="black"/>
<path d="M545.857,248.273h 7.39843" fill="none" stroke="black"/>
<path d="M545.857,229.058h 7.39843" fill="none" stroke="black"/>
<path d="M538.459,209.843h 14.7969" fill="none" stroke="black"/>
<path d="M545.857,190.629h 7.39843" fill="none" stroke="black"/>
<path d="M545.857,171.414h 7.39843" fill="none" stroke="black"/>
<path d="M545.857,152.199h 7.39843" fill="none" stroke="black"/>
<path d="M545.857,132.985h 7.39843" fill="none" stroke="black"/>
<path d="M538.459,113.77h 14.7969" fill="none" stroke="black"/>
<path d="M545.857,94.5553h 7.39843" fill="none" stroke="black"/>
<path d="M545.857,75.3407h 7.39843" fill="none" stroke="black"/>
<path d="M545.857,56.126h 7.39843" fill="none" stroke="black"/>
<path d="M545.857,36.9113h 7.39843" fill="none" stroke="black"/>
<path d="M538.459,17.6966h 14.7969" fill="none" stroke="black"/>
<path d="M538.459,17.6966h 14.7969" fill="none" stroke="black"/>
<g stroke="#333333" stroke-width="2" fill="none">
<circle cx="282.098" cy="344.739" r="5.63548"/>
</g>
<g stroke="#333333" stroke-width="2" fill="none">
<circle cx="286.897" cy="343.694" r="5.63548"/>
</g>
<g stroke="#333333" stroke-width="2" fill="none">
<circle cx="291.697" cy="342.865" r="5.63548"/>
</g>
<g stroke="#333333" stroke-width="2" fill="none">
<circle cx="296.496" cy="341.462" r="5.63548"/>
</g>
<g stroke="#333333" stroke-width="2" fill="none">
<circle cx="301.295" cy="340.765" r="5.63548"/>
</g>
<g stroke="#333333" stroke-width="2" fill="none">
<circle cx="306.094" cy="342.563" r="5.63548"/>
</g>
<g stroke="#333333" stroke-width="2" fill="none">
<circle cx="310.894" cy="342.504" r="5.63548"/>
</g>
<g stroke="#333333" stroke-width="2" fill="none">
<circle cx="315.693" cy="342.131" r="5.63548"/>
</g>
<g stroke="#333333" stroke-width="2" fill="none">
<circle cx="320.492" cy="343.563" r="5.63548"/>
</g>
<g stroke="#333333" stroke-width="2" fill="none">
<circle cx="325.291" cy="342.658" r="5.63548"/>
</g>
<g stroke="#333333" stroke-width="2" fill="none">
<circle cx="330.091" cy="342.669" r="5.63548"/>
</g>
<g stroke="#333333" stroke-width="2" fill="none">
<circle cx="334.89" cy="342.51" r="5.63548"/>
</g>
<path d="M98.7518,352.425l 0.44993, -0.0167238l 0.44993, -0.0167238l 0.44993, -0.0167238l 0.44993, -0.0167238l 0.44993, -0.0167238l 0.44993, -0.0167238l 0.44993, -0.0167238l 0.44993, -0.0167238l 0.44993, -0.0167238l 0.44993, -0.0167238l 0.44993,
 -0.0167238l 0.44993, -0.0167238l 0.44993, -0.0167238l 0.44993, -0.0167238l 0.44993, -0.0167238l 0.44993, -0.0167238l 0.44993, -0.0167238l 0.44993, -0.0167238l 0.44993, -0.0167238l 0.44993, -0.0167238l 0.44993, -0.0167238l 0.44993, -0.0167238l
 0.44993, -0.0167238l 0.44993, -0.0167238l 0.44993, -0.0167238l 0.44993, -0.0167238l 0.44993, -0.0167238l 0.44993, -0.0167238l 0.44993, -0.0167238l 0.44993, -0.0167238l 0.44993, -0.0167238l 0.44993, -0.0167238l 0.44993, -0.0167238l 0.44993,
 -0.0167238l 0.44993, -0.0167238l 0.44993, -0.0167238l 0.44993, -0.0167238l 0.44993, -0.0167238l 0.44993, -0.0167238l 0.44993, -0.0167238l 0.44993, -0.0167238l 0.44993, -0.0167238l 0.44993, -0.0167238l 0.44993, -0.0167238l 0.44993, -0.0167238l
 0.44993, -0.0167238l 0.44993, -0.0167238l 0.44993, -0.0167238l 0.44993, -0.0167238" fill="none" stroke="#33cccc" stroke-width="3"/>
<path d="M120.798,351.606l 0.44993, -0.0167238l 0.44993, -0.0167238l 0.44993, -0.0167238l 0.44993, -0.0167238l 0.44993, -0.0167238l 0.44993, -0.0167238l 0.44993, -0.0167238l 0.44993, -0.0167238l 0.44993, -0.0167238l 0.44993, -0.0167238l 0.44993,
 -0.0167238l 0.44993, -0.0167238l 0.44993, -0.0167238l 0.44993, -0.0167238l 0.44993, -0.0167238l 0.44993, -0.0167238l 0.44993, -0.0167238l 0.44993, -0.0167238l 0.44993, -0.0167238l 0.44993, -0.0167238l 0.44993, -0.0167238l 0.44993, -0.0167238l
 0.44993, -0.0167238l 0.44993, -0.0167238l 0.44993, -0.0167238l 0.44993, -0.0167238l 0.44993, -0.0167238l 0.44993, -0.0167238l 0.44993, -0.0167238l 0.44993, -0.0167238l 0.44993, -0.0167238l 0.44993, -0.0167238l 0.44993, -0.0167238l 0.44993,
 -0.0167238l 0.44993, -0.0167238l 0.44993, -0.0167238l 0.44993, -0.0167238l 0.44993, -0.0167238l 0.44993, -0.0167238l 0.44993, -0.0167238l 0.44993, -0.0167238l 0.44993, -0.0167238l 0.44993, -0.0167238l 0.44993, -0.0167238l 0.44993, -0.0167238l
 0.44993, -0.0167238l 0.44993, -0.0167238l 0.44993, -0.0167238l 0.44993, -0.0167238" fill="none" stroke="#33cccc" stroke-width="3"/>
<path d="M142.845,350.786l 0.44993, -0.0167238l 0.44993, -0.0167238l 0.44993, -0.0167238l 0.44993, -0.0167238l 0.44993, -0.0167238l 0.44993, -0.0167238l 0.44993, -0.0167238l 0.44993, -0.0167238l 0.44993, -0.0167238l 0.44993, -0.0167238l 0.44993,
 -0.0167238l 0.44993, -0.0167238l 0.44993, -0.0167238l 0.44993, -0.0167238l 0.44993, -0.0167238l 0.44993, -0.0167238l 0.44993, -0.0167238l 0.44993, -0.0167238l 0.44993, -0.0167238l 0.44993, -0.0167238l 0.44993, -0.0167238l 0.44993, -0.0167238l
 0.44993, -0.0167238l 0.44993, -0.0167238l 0.44993, -0.0167238l 0.44993, -0.0167238l 0.44993, -0.0167238l 0.44993, -0.0167238l 0.44993, -0.0167238l 0.44993, -0.0167238l 0.44993, -0.0167238l 0.44993, -0.0167238l 0.44993, -0.0167238l 0.44993,
 -0.0167238l 0.44993, -0.0167238l 0.44993, -0.0167238l 0.44993, -0.0167238l 0.44993, -0.0167238l 0.44993, -0.0167238l 0.44993, -0.0167238l 0.44993, -0.0167238l 0.44993, -0.0167238l 0.44993, -0.0167238l 0.44993, -0.0167238l 0.44993, -0.0167238l
 0.44993, -0.0167238l 0.44993, -0.0167238l 0.44993, -0.0167238l 0.44993, -0.0167238" fill="none" stroke="#33cccc" stroke-width="3"/>
<path d="M164.891,349.967l 0.44993, -0.0167238l 0.44993, -0.0167238l 0.44993, -0.0167238l 0.44993, -0.0167238l 0.44993, -0.0167238l 0.44993, -0.0167238l 0.44993, -0.0167238l 0.44993, -0.0167238l 0.44993, -0.0167238l 0.44993, -0.0167238l 0.44993,
 -0.0167238l 0.44993, -0.0167238l 0.44993, -0.0167238l 0.44993, -0.0167238l 0.44993, -0.0167238l 0.44993, -0.0167238l 0.44993, -0.0167238l 0.44993, -0.0167238l 0.44993, -0.0167238l 0.44993, -0.0167238l 0.44993, -0.0167238l 0.44993, -0.0167238l
 0.44993, -0.0167238l 0.44993, -0.0167238l 0.44993, -0.0167238l 0.44993, -0.0167238l 0.44993, -0.0167238l 0.44993, -0.0167238l 0.44993, -0.0167238l 0.44993, -0.0167238l 0.44993, -0.0167238l 0.44993, -0.0167238l 0.44993, -0.0167238l 0.44993,
 -0.0167238l 0.44993, -0.0167238l 0.44993, -0.0167238l 0.44993, -0.0167238l 0.44993, -0.0167238l 0.44993, -0.0167238l 0.44993, -0.0167238l 0.44993, -0.0167238l 0.44993, -0.0167238l 0.44993, -0.0167238l 0.44993, -0.0167238l 0.44993, -0.0167238l
 0.44993, -0.0167238l 0.44993, -0.0167238l 0.44993, -0.0167238l 0.44993, -0.0167238" fill="none" stroke="#33cccc" stroke-width="3"/>
<path d="M186.938,349.147l 0.44993, -0.0167238l 0.44993, -0.0167238l 0.44993, -0.0167238l 0.44993, -0.0167238l 0.44993, -0.0167238l 0.44993, -0.0167238l 0.44993, -0.0167238l 0.44993, -0.0167238l 0.44993, -0.0167238l 0.44993, -0.0167238l 0.44993,
 -0.0167238l 0.44993, -0.0167238l 0.44993, -0.0167238l 0.44993, -0.0167238l 0.44993, -0.0167238l 0.44993, -0.0167238l 0.44993, -0.0167238l 0.44993, -0.0167238l 0.44993, -0.0167238l 0.44993, -0.0167238l 0.44993, -0.0167238l 0.44993, -0.0167238l
 0.44993, -0.0167238l 0.44993, -0.0167238l 0.44993, -0.0167238l 0.44993, -0.0167238l 0.44993, -0.0167238l 0.44993, -0.0167238l 0.44993, -0.0167238l 0.44993, -0.0167238l 0.44993, -0.0167238l 0.44993, -0.0167238l 0.44993, -0.0167238l 0.44993,
 -0.0167238l 0.44993, -0.0167238l 0.44993, -0.0167238l 0.44993, -0.0167238l 0.44993, -0.0167238l 0.44993, -0.0167238l 0.44993, -0.0167238l 0.44993, -0.0167238l 0.44993, -0.0167238l 0.44993, -0.0167238l 0.44993, -0.0167238l 0.44993, -0.0167238l
 0.44993, -0.0167238l 0.44993, -0.0167238l 0.44993, -0.0167238l 0.44993, -0.0167238" fill="none" stroke="#33cccc" stroke-width="3"/>
<path d="M208.985,348.328l 0.44993, -0.0167238l 0.44993, -0.0167238l 0.44993, -0.0167238l 0.44993, -0.0167238l 0.44993, -0.0167238l 0.44993, -0.0167238l 0.44993, -0.0167238l 0.44993, -0.0167238l 0.44993, -0.0167238l 0.44993, -0.0167238l 0.44993,
 -0.0167238l 0.44993, -0.0167238l 0.44993, -0.0167238l 0.44993, -0.0167238l 0.44993, -0.0167238l 0.44993, -0.0167238l 0.44993, -0.0167238l 0.44993, -0.0167238l 0.44993, -0.0167238l 0.44993, -0.0167238l 0.44993, -0.0167238l 0.44993, -0.0167238l
 0.44993, -0.0167238l 0.44993, -0.0167238l 0.44993, -0.0167238l 0.44993, -0.0167238l 0.44993, -0.0167238l 0.44993, -0.0167238l 0.44993, -0.0167238l 0.44993, -0.0167238l 0.44993, -0.0167238l 0.44993, -0.0167238l 0.44993, -0.0167238l 0.44993,
 -0.0167238l 0.44993, -0.0167238l 0.44993, -0.0167238l 0.44993, -0.0167238l 0.44993, -0.0167238l 0.44993, -0.0167238l 0.44993, -0.0167238l 0.44993, -0.0167238l 0.44993, -0.0167238l 0.44993, -0.0167238l 0.44993, -0.0167238l 0.44993, -0.0167238l
 0.44993, -0.0167238l 0.44993, -0.0167238l 0.44993, -0.0167238l 0.44993, -0.0167238" fill="none" stroke="#33cccc" stroke-width="3"/>
<path d="M231.031,347.509l 0.44993, -0.0167238l 0.44993, -0.0167238l 0.44993, -0.0167238l 0.44993, -0.0167238l 0.44993, -0.0167238l 0.44993, -0.0167238l 0.44993, -0.0167238l 0.44993, -0.0167238l 0.44993, -0.0167238l 0.44993, -0.0167238l 0.44993,
 -0.0167238l 0.44993, -0.0167238l 0.44993, -0.0167238l 0.44993, -0.0167238l 0.44993, -0.0167238l 0.44993, -0.0167238l 0.44993, -0.0167238l 0.44993, -0.0167238l 0.44993, -0.0167238l 0.44993, -0.0167238l 0.44993, -0.0167238l 0.44993, -0.0167238l
 0.44993, -0.0167238l 0.44993, -0.0167238l 0.44993, -0.0167238l 0.44993, -0.0167238l 0.44993, -0.0167238l 0.44993, -0.0167238l 0.44993, -0.0167238l 0.44993, -0.0167238l 0.44993, -0.0167238l 0.44993, -0.0167238l 0.44993, -0.0167238l 0.44993,
 -0.0167238l 0.44993, -0.0167238l 0.44993, -0.0167238l 0.44993, -0.0167238l 0.44993, -0.0167238l 0.44993, -0.0167238l 0.44993, -0.0167238l 0.44993, -0.0167238l 0.44993, -0.0167238l 0.44993, -0.0167238l 0.44993, -0.0167238l 0.44993, -0.0167238l
 0.44993, -0.0167238l 0.44993, -0.0167238l 0.44993, -0.0167238l 0.44993, -0.0167238" fill="none" stroke="#33cccc" stroke-width="3"/>
<path d="M253.078,346.689l 0.44993, -0.0167238l 0.44993, -0.0167238l 0.44993, -0.0167238l 0.44993, -0.0167238l 0.44993, -0.0167238l 0.44993, -0.0167238l 0.44993, -0.0167238l 0.44993, -0.0167238l 0.44993, -0.0167238l 0.44993, -0.0167238l 0.44993,
 -0.0167238l 0.44993, -0.0167238l 0.44993, -0.0167238l 0.44993, -0.0167238l 0.44993, -0.0167238l 0.44993, -0.0167238l 0.44993, -0.0167238l 0.44993, -0.0167238l 0.44993, -0.0167238l 0.44993, -0.0167238l 0.44993, -0.0167238l 0.44993, -0.0167238l
 0.44993, -0.0167238l 0.44993, -0.0167238l 0.44993, -0.0167238l 0.44993, -0.0167238l 0.44993, -0.0167238l 0.44993, -0.0167238l 0.44993, -0.0167238l 0.44993, -0.0167238l 0.44993, -0.0167238l 0.44993, -0.0167238l 0.44993, -0.0167238l 0.44993,
 -0.0167238l 0.44993, -0.0167238l 0.44993, -0.0167238l 0.44993, -0.0167238l 0.44993, -0.0167238l 0.44993, -0.0167238l 0.44993, -0.0167238l 0.44993, -0.0167238l 0.44993, -0.0167238l 0.44993, -0.0167238l 0.44993, -0.0167238l 0.44993, -0.0167238l
 0.44993, -0.0167238l 0.44993, -0.0167238l 0.44993, -0.0167238l 0.44993, -0.0167238" fill="none" stroke="#33cccc" stroke-width="3"/>
<path d="M275.124,345.87l 0.44993, -0.0167238l 0.44993, -0.0167238l 0.44993, -0.0167238l 0.44993, -0.0167238l 0.44993, -0.0167238l 0.44993, -0.0167238l 0.44993, -0.0167238l 0.44993, -0.0167238l 0.44993, -0.0167238l 0.44993, -0.0167238l 0.44993,
 -0.0167238l 0.44993, -0.0167238l 0.44993, -0.0167238l 0.44993, -0.0167238l 0.44993, -0.0167238l 0.44993, -0.0167238l 0.44993, -0.0167238l 0.44993, -0.0167238l 0.44993, -0.0167238l 0.44993, -0.0167238l 0.44993, -0.0167238l 0.44993, -0.0167238l
 0.44993, -0.0167238l 0.44993, -0.0167238l 0.44993, -0.0167238l 0.44993, -0.0167238l 0.44993, -0.0167238l 0.44993, -0.0167238l 0.44993, -0.0167238l 0.44993, -0.0167238l 0.44993, -0.0167238l 0.44993, -0.0167238l 0.44993, -0.0167238l 0.44993,
 -0.0167238l 0.44993, -0.0167238l 0.44993, -0.0167238l 0.44993, -0.0167238l 0.44993, -0.0167238l 0.44993, -0.0167238l 0.44993, -0.0167238l 0.44993, -0.0167238l 0.44993, -0.0167238l 0.44993, -0.0167238l 0.44993, -0.0167238l 0.44993, -0.0167238l
 0.44993, -0.0167238l 0.44993, -0.0167238l 0.44993, -0.0167238l 0.44993, -0.0167238" fill="none" stroke="#33cccc" stroke-width="3"/>
<path d="M297.171,345.05l 0.44993, -0.0167238l 0.44993, -0.0167238l 0.44993, -0.0167238l 0.44993, -0.0167238l 0.44993, -0.0167238l 0.44993, -0.0167238l 0.44993, -0.0167238l 0.44993, -0.0167238l 0.44993, -0.0167238l 0.44993, -0.0167238l 0.44993,
 -0.0167238l 0.44993, -0.0167238l 0.44993, -0.0167238l 0.44993, -0.0167238l 0.44993, -0.0167238l 0.44993, -0.0167238l 0.44993, -0.0167238l 0.44993, -0.0167238l 0.44993, -0.0167238l 0.44993, -0.0167238l 0.44993, -0.0167238l 0.44993, -0.0167238l
 0.44993, -0.0167238l 0.44993, -0.0167238l 0.44993, -0.0167238l 0.44993, -0.0167238l 0.44993, -0.0167238l 0.44993, -0.0167238l 0.44993, -0.0167238l 0.44993, -0.0167238l 0.44993, -0.0167238l 0.44993, -0.0167238l 0.44993, -0.0167238l 0.44993,
 -0.0167238l 0.44993, -0.0167238l 0.44993, -0.0167238l 0.44993, -0.0167238l 0.44993, -0.0167238l 0.44993, -0.0167238l 0.44993, -0.0167238l 0.44993, -0.0167238l 0.44993, -0.0167238l 0.44993, -0.0167238l 0.44993, -0.0167238l 0.44993, -0.0167238l
 0.44993, -0.0167238l 0.44993, -0.0167238l 0.44993, -0.0167238l 0.44993, -0.0167238" fill="none" stroke="#33cccc" stroke-width="3"/>
<path d="M319.217,344.231l 0.44993, -0.0167238l 0.44993, -0.0167238l 0.44993, -0.0167238l 0.44993, -0.0167238l 0.44993, -0.0167238l 0.44993, -0.0167238l 0.44993, -0.0167238l 0.44993, -0.0167238l 0.44993, -0.0167238l 0.44993, -0.0167238l 0.44993,
 -0.0167238l 0.44993, -0.0167238l 0.44993, -0.0167238l 0.44993, -0.0167238l 0.44993, -0.0167238l 0.44993, -0.0167238l 0.44993, -0.0167238l 0.44993, -0.0167238l 0.44993, -0.0167238l 0.44993, -0.0167238l 0.44993, -0.0167238l 0.44993, -0.0167238l
 0.44993, -0.0167238l 0.44993, -0.0167238l 0.44993, -0.0167238l 0.44993, -0.0167238l 0.44993, -0.0167238l 0.44993, -0.0167238l 0.44993, -0.0167238l 0.44993, -0.0167238l 0.44993, -0.0167238l 0.44993, -0.0167238l 0.44993, -0.0167238l 0.44993,
 -0.0167238l 0.44993, -0.0167238l 0.44993, -0.0167238l 0.44993, -0.0167238l 0.44993, -0.0167238l 0.44993, -0.0167238l 0.44993, -0.0167238l 0.44993, -0.0167238l 0.44993, -0.0167238l 0.44993, -0.0167238l 0.44993, -0.0167238l 0.44993, -0.0167238l
 0.44993, -0.0167238l 0.44993, -0.0167238l 0.44993, -0.0167238l 0.44993, -0.0167238" fill="none" stroke="#33cccc" stroke-width="3"/>
<path d="M341.264,343.411l 0.44993, -0.0167238l 0.44993, -0.0167238l 0.44993, -0.0167238l 0.44993, -0.0167238l 0.44993, -0.0167238l 0.44993, -0.0167238l 0.44993, -0.0167238l 0.44993, -0.0167238l 0.44993, -0.0167238l 0.44993, -0.0167238l 0.44993,
 -0.0167238l 0.44993, -0.0167238l 0.44993, -0.0167238l 0.44993, -0.0167238l 0.44993, -0.0167238l 0.44993, -0.0167238l 0.44993, -0.0167238l 0.44993, -0.0167238l 0.44993, -0.0167238l 0.44993, -0.0167238l 0.44993, -0.0167238l 0.44993, -0.0167238l
 0.44993, -0.0167238l 0.44993, -0.0167238l 0.44993, -0.0167238l 0.44993, -0.0167238l 0.44993, -0.0167238l 0.44993, -0.0167238l 0.44993, -0.0167238l 0.44993, -0.0167238l 0.44993, -0.0167238l 0.44993, -0.0167238l 0.44993, -0.0167238l 0.44993,
 -0.0167238l 0.44993, -0.0167238l 0.44993, -0.0167238l 0.44993, -0.0167238l 0.44993, -0.0167238l 0.44993, -0.0167238l 0.44993, -0.0167238l 0.44993, -0.0167238l 0.44993, -0.0167238l 0.44993, -0.0167238l 0.44993, -0.0167238l 0.44993, -0.0167238l
 0.44993, -0.0167238l 0.44993, -0.0167238l 0.44993, -0.0167238l 0.44993, -0.0167238" fill="none" stroke="#33cccc" stroke-width="3"/>
<path d="M363.311,342.592l 0.44993, -0.0167238l 0.44993, -0.0167238l 0.44993, -0.0167238l 0.44993, -0.0167238l 0.44993, -0.0167238l 0.44993, -0.0167238l 0.44993, -0.0167238l 0.44993, -0.0167238l 0.44993, -0.0167238l 0.44993, -0.0167238l 0.44993,
 -0.0167238l 0.44993, -0.0167238l 0.44993, -0.0167238l 0.44993, -0.0167238l 0.44993, -0.0167238l 0.44993, -0.0167238l 0.44993, -0.0167238l 0.44993, -0.0167238l 0.44993, -0.0167238l 0.44993, -0.0167238l 0.44993, -0.0167238l 0.44993, -0.0167238l
 0.44993, -0.0167238l 0.44993, -0.0167238l 0.44993, -0.0167238l 0.44993, -0.0167238l 0.44993, -0.0167238l 0.44993, -0.0167238l 0.44993, -0.0167238l 0.44993, -0.0167238l 0.44993, -0.0167238l 0.44993, -0.0167238l 0.44993, -0.0167238l 0.44993,
 -0.0167238l 0.44993, -0.0167238l 0.44993, -0.0167238l 0.44993, -0.0167238l 0.44993, -0.0167238l 0.44993, -0.0167238l 0.44993, -0.0167238l 0.44993, -0.0167238l 0.44993, -0.0167238l 0.44993, -0.0167238l 0.44993, -0.0167238l 0.44993, -0.0167238l
 0.44993, -0.0167238l 0.44993, -0.0167238l 0.44993, -0.0167238l 0.44993, -0.0167238" fill="none" stroke="#33cccc" stroke-width="3"/>
<path d="M385.357,341.772l 0.44993, -0.0167238l 0.44993, -0.0167238l 0.44993, -0.0167238l 0.44993, -0.0167238l 0.44993, -0.0167238l 0.44993, -0.0167238l 0.44993, -0.0167238l 0.44993, -0.0167238l 0.44993, -0.0167238l 0.44993, -0.0167238l 0.44993,
 -0.0167238l 0.44993, -0.0167238l 0.44993, -0.0167238l 0.44993, -0.0167238l 0.44993, -0.0167238l 0.44993, -0.0167238l 0.44993, -0.0167238l 0.44993, -0.0167238l 0.44993, -0.0167238l 0.44993, -0.0167238l 0.44993, -0.0167238l 0.44993, -0.0167238l
 0.44993, -0.0167238l 0.44993, -0.0167238l 0.44993, -0.0167238l 0.44993, -0.0167238l 0.44993, -0.0167238l 0.44993, -0.0167238l 0.44993, -0.0167238l 0.44993, -0.0167238l 0.44993, -0.0167238l 0.44993, -0.0167238l 0.44993, -0.0167238l 0.44993,
 -0.0167238l 0.44993, -0.0167238l 0.44993, -0.0167238l 0.44993, -0.0167238l 0.44993, -0.0167238l 0.44993, -0.0167238l 0.44993, -0.0167238l 0.44993, -0.0167238l 0.44993, -0.0167238l 0.44993, -0.0167238l 0.44993, -0.0167238l 0.44993, -0.0167238l
 0.44993, -0.0167238l 0.44993, -0.0167238l 0.44993, -0.0167238l 0.44993, -0.0167238" fill="none" stroke="#33cccc" stroke-width="3"/>
<path d="M407.404,340.953l 0.44993, -0.0167238l 0.44993, -0.0167238l 0.44993, -0.0167238l 0.44993, -0.0167238l 0.44993, -0.0167238l 0.44993, -0.0167238l 0.44993, -0.0167238l 0.44993, -0.0167238l 0.44993, -0.0167238l 0.44993, -0.0167238l 0.44993,
 -0.0167238l 0.44993, -0.0167238l 0.44993, -0.0167238l 0.44993, -0.0167238l 0.44993, -0.0167238l 0.44993, -0.0167238l 0.44993, -0.0167238l 0.44993, -0.0167238l 0.44993, -0.0167238l 0.44993, -0.0167238l 0.44993, -0.0167238l 0.44993, -0.0167238l
 0.44993, -0.0167238l 0.44993, -0.0167238l 0.44993, -0.0167238l 0.44993, -0.0167238l 0.44993, -0.0167238l 0.44993, -0.0167238l 0.44993, -0.0167238l 0.44993, -0.0167238l 0.44993, -0.0167238l 0.44993, -0.0167238l 0.44993, -0.0167238l 0.44993,
 -0.0167238l 0.44993, -0.0167238l 0.44993, -0.0167238l 0.44993, -0.0167238l 0.44993, -0.0167238l 0.44993, -0.0167238l 0.44993, -0.0167238l 0.44993, -0.0167238l 0.44993, -0.0167238l 0.44993, -0.0167238l 0.44993, -0.0167238l 0.44993, -0.0167238l
 0.44993, -0.0167238l 0.44993, -0.0167238l 0.44993, -0.0167238l 0.44993, -0.0167238" fill="none" stroke="#33cccc" stroke-width="3"/>
<path d="M429.45,340.133l 0.44993, -0.0167238l 0.44993, -0.0167238l 0.44993, -0.0167238l 0.44993, -0.0167238l 0.44993, -0.0167238l 0.44993, -0.0167238l 0.44993, -0.0167238l 0.44993, -0.0167238l 0.44993, -0.0167238l 0.44993, -0.0167238l 0.44993,
 -0.0167238l 0.44993, -0.0167238l 0.44993, -0.0167238l 0.44993, -0.0167238l 0.44993, -0.0167238l 0.44993, -0.0167238l 0.44993, -0.0167238l 0.44993, -0.0167238l 0.44993, -0.0167238l 0.44993, -0.0167238l 0.44993, -0.0167238l 0.44993, -0.0167238l
 0.44993, -0.0167238l 0.44993, -0.0167238l 0.44993, -0.0167238l 0.44993, -0.0167238l 0.44993, -0.0167238l 0.44993, -0.0167238l 0.44993, -0.0167238l 0.44993, -0.0167238l 0.44993, -0.0167238l 0.44993, -0.0167238l 0.44993, -0.0167238l 0.44993,
 -0.0167238l 0.44993, -0.0167238l 0.44993, -0.0167238l 0.44993, -0.0167238l 0.44993, -0.0167238l 0.44993, -0.0167238l 0.44993, -0.0167238l 0.44993, -0.0167238l 0.44993, -0.0167238l 0.44993, -0.0167238l 0.44993, -0.0167238l 0.44993, -0.0167238l
 0.44993, -0.0167238l 0.44993, -0.0167238l 0.44993, -0.0167238l 0.44993, -0.0167238" fill="none" stroke="#33cccc" stroke-width="3"/>
<path d="M451.497,339.314l 0.44993, -0.0167238l 0.44993, -0.0167238l 0.44993, -0.0167238l 0.44993, -0.0167238l 0.44993, -0.0167238l 0.44993, -0.0167238l 0.44993, -0.0167238l 0.44993, -0.0167238l 0.44993, -0.0167238l 0.44993, -0.0167238l 0.44993,
 -0.0167238l 0.44993, -0.0167238l 0.44993, -0.0167238l 0.44993, -0.0167238l 0.44993, -0.0167238l 0.44993, -0.0167238l 0.44993, -0.0167238l 0.44993, -0.0167238l 0.44993, -0.0167238l 0.44993, -0.0167238l 0.44993, -0.0167238l 0.44993, -0.0167238l
 0.44993, -0.0167238l 0.44993, -0.0167238l 0.44993, -0.0167238l 0.44993, -0.0167238l 0.44993, -0.0167238l 0.44993, -0.0167238l 0.44993, -0.0167238l 0.44993, -0.0167238l 0.44993, -0.0167238l 0.44993, -0.0167238l 0.44993, -0.0167238l 0.44993,
 -0.0167238l 0.44993, -0.0167238l 0.44993, -0.0167238l 0.44993, -0.0167238l 0.44993, -0.0167238l 0.44993, -0.0167238l 0.44993, -0.0167238l 0.44993, -0.0167238l 0.44993, -0.0167238l 0.44993, -0.0167238l 0.44993, -0.0167238l 0.44993, -0.0167238l
 0.44993, -0.0167238l 0.44993, -0.0167238l 0.44993, -0.0167238l 0.44993, -0.0167238" fill="none" stroke="#33cccc" stroke-width="3"/>
<path d="M473.543,338.494l 0.44993, -0.0167238l 0.44993, -0.0167238l 0.44993, -0.0167238l 0.44993, -0.0167238l 0.44993, -0.0167238l 0.44993, -0.0167238l 0.44993, -0.0167238l 0.44993, -0.0167238l 0.44993, -0.0167238l 0.44993, -0.0167238l 0.44993,
 -0.0167238l 0.44993, -0.0167238l 0.44993, -0.0167238l 0.44993, -0.0167238l 0.44993, -0.0167238l 0.44993, -0.0167238l 0.44993, -0.0167238l 0.44993, -0.0167238l 0.44993, -0.0167238l 0.44993, -0.0167238l 0.44993, -0.0167238l 0.44993, -0.0167238l
 0.44993, -0.0167238l 0.44993, -0.0167238l 0.44993, -0.0167238l 0.44993, -0.0167238l 0.44993, -0.0167238l 0.44993, -0.0167238l 0.44993, -0.0167238l 0.44993, -0.0167238l 0.44993, -0.0167238l 0.44993, -0.0167238l 0.44993, -0.0167238l 0.44993,
 -0.0167238l 0.44993, -0.0167238l 0.44993, -0.0167238l 0.44993, -0.0167238l 0.44993, -0.0167238l 0.44993, -0.0167238l 0.44993, -0.0167238l 0.44993, -0.0167238l 0.44993, -0.0167238l 0.44993, -0.0167238l 0.44993, -0.0167238l 0.44993, -0.0167238l
 0.44993, -0.0167238l 0.44993, -0.0167238l 0.44993, -0.0167238l 0.44993, -0.0167238" fill="none" stroke="#33cccc" stroke-width="3"/>
<path d="M495.59,337.675l 0.44993, -0.0167238l 0.44993, -0.0167238l 0.44993, -0.0167238l 0.44993, -0.0167238l 0.44993, -0.0167238l 0.44993, -0.0167238l 0.44993, -0.0167238l 0.44993, -0.0167238l 0.44993, -0.0167238l 0.44993, -0.0167238l 0.44993,
 -0.0167238l 0.44993, -0.0167238l 0.44993, -0.0167238l 0.44993, -0.0167238l 0.44993, -0.0167238l 0.44993, -0.0167238l 0.44993, -0.0167238l 0.44993, -0.0167238l 0.44993, -0.0167238l 0.44993, -0.0167238l 0.44993, -0.0167238l 0.44993, -0.0167238l
 0.44993, -0.0167238l 0.44993, -0.0167238l 0.44993, -0.0167238l 0.44993, -0.0167238l 0.44993, -0.0167238l 0.44993, -0.0167238l 0.44993, -0.0167238l 0.44993, -0.0167238l 0.44993, -0.0167238l 0.44993, -0.0167238l 0.44993, -0.0167238l 0.44993,
 -0.0167238l 0.44993, -0.0167238l 0.44993, -0.0167238l 0.44993, -0.0167238l 0.44993, -0.0167238l 0.44993, -0.0167238l 0.44993, -0.0167238l 0.44993, -0.0167238l 0.44993, -0.0167238l 0.44993, -0.0167238l 0.44993, -0.0167238l 0.44993, -0.0167238l
 0.44993, -0.0167238l 0.44993, -0.0167238l 0.44993, -0.0167238l 0.44993, -0.0167238" fill="none" stroke="#33cccc" stroke-width="3"/>
<path d="M517.636,336.855l 0.44993, -0.0167238l 0.44993, -0.0167238l 0.44993, -0.0167238l 0.44993, -0.0167238l 0.44993, -0.0167238l 0.44993, -0.0167238l 0.44993, -0.0167238l 0.44993, -0.0167238l 0.44993, -0.0167238l 0.44993, -0.0167238l 0.44993,
 -0.0167238l 0.44993, -0.0167238l 0.44993, -0.0167238l 0.44993, -0.0167238l 0.44993, -0.0167238l 0.44993, -0.0167238l 0.44993, -0.0167238l 0.44993, -0.0167238l 0.44993, -0.0167238l 0.44993, -0.0167238l 0.44993, -0.0167238l 0.44993, -0.0167238l
 0.44993, -0.0167238l 0.44993, -0.0167238l 0.44993, -0.0167238l 0.44993, -0.0167238l 0.44993, -0.0167238l 0.44993, -0.0167238l 0.44993, -0.0167238l 0.44993, -0.0167238l 0.44993, -0.0167238l 0.44993, -0.0167238l 0.44993, -0.0167238l 0.44993,
 -0.0167238l 0.44993, -0.0167238l 0.44993, -0.0167238l 0.44993, -0.0167238l 0.44993, -0.0167238l 0.44993, -0.0167238l 0.44993, -0.0167238l 0.44993, -0.0167238l 0.44993, -0.0167238l 0.44993, -0.0167238l 0.44993, -0.0167238l 0.44993, -0.0167238l
 0.44993, -0.0167238l 0.44993, -0.0167238l 0.44993, -0.0167238l 0.44993, -0.0167238" fill="none" stroke="#33cccc" stroke-width="3"/>
<path d="M539.683,336.036l 0.44993, -0.0167238l 0.44993, -0.0167238l 0.44993, -0.0167238l 0.44993, -0.0167238l 0.44993, -0.0167238l 0.44993, -0.0167238l 0.44993, -0.0167238l 0.44993, -0.0167238l 0.44993, -0.0167238l 0.44993, -0.0167238l 0.44993,
 -0.0167238l 0.44993, -0.0167238l 0.44993, -0.0167238l 0.44993, -0.0167238l 0.44993, -0.0167238l 0.44993, -0.0167238l 0.44993, -0.0167238l 0.44993, -0.0167238l 0.44993, -0.0167238" fill="none" stroke="#33cccc" stroke-width="3"/>
<path d="M98.7518,358.54l 0.44993, -0.0450705l 0.44993, -0.0450147l 0.44993, -0.0449589l 0.44993, -0.044903l 0.44993, -0.0448472l 0.44993, -0.0447914l 0.44993, -0.0447355l 0.44993, -0.0446797l 0.44993, -0.0446239l 0.44993, -0.044568l 0.44993,
 -0.0445122l 0.44993, -0.0444564l 0.44993, -0.0444005l 0.44993, -0.0443447l 0.44993, -0.0442889l 0.44993, -0.044233l 0.44993, -0.0441772l 0.44993, -0.0441214l 0.44993, -0.0440655l 0.44993, -0.0440097l 0.44993, -0.0439539l 0.44993, -0.043898l 0.44993,
 -0.0438422l 0.44993, -0.0437864l 0.44993, -0.0437305l 0.44993, -0.0436747l 0.44993, -0.0436189l 0.44993, -0.043563l 0.44993, -0.0435072l 0.44993, -0.0434513l 0.44993, -0.0433955l 0.44993, -0.0433397l 0.44993, -0.0432838l 0.44993, -0.043228l 0.44993,
 -0.0431722l 0.44993, -0.0431163l 0.44993, -0.0430605l 0.44993, -0.0430047l 0.44993, -0.0429488l 0.44993, -0.042893l 0.44993, -0.0428372l 0.44993, -0.0427813l 0.44993, -0.0427255l 0.44993, -0.0426697l 0.44993, -0.0426138l 0.44993, -0.042558l 0.44993,
 -0.0425022l 0.44993, -0.0424463l 0.44993, -0.0423905" fill="none" stroke="#ff0066" stroke-width="3"/>
<path d="M120.798,356.397l 0.44993, -0.0423347l 0.44993, -0.0422788l 0.44993, -0.042223l 0.44993, -0.0421672l 0.44993, -0.0421113l 0.44993, -0.0420555l 0.44993, -0.0419997l 0.44993, -0.0419438l 0.44993, -0.041888l 0.44993, -0.0418322l 0.44993,
 -0.0417763l 0.44993, -0.0417205l 0.44993, -0.0416647l 0.44993, -0.0416088l 0.44993, -0.041553l 0.44993, -0.0414972l 0.44993, -0.0414413l 0.44993, -0.0413855l 0.44993, -0.0413297l 0.44993, -0.0412738l 0.44993, -0.041218l 0.44993, -0.0411622l 0.44993,
 -0.0411063l 0.44993, -0.0410505l 0.44993, -0.0409947l 0.44993, -0.0409388l 0.44993, -0.040883l 0.44993, -0.0408272l 0.44993, -0.0407713l 0.44993, -0.0407155l 0.44993, -0.0406597l 0.44993, -0.0406038l 0.44993, -0.040548l 0.44993, -0.0404922l 0.44993,
 -0.0404363l 0.44993, -0.0403805l 0.44993, -0.0403247l 0.44993, -0.0402688l 0.44993, -0.040213l 0.44993, -0.0401572l 0.44993, -0.0401013l 0.44993, -0.0400455l 0.44993, -0.0399897l 0.44993, -0.0399338l 0.44993, -0.039878l 0.44993, -0.0398222l 0.44993,
 -0.0397663l 0.44993, -0.0397105l 0.44993, -0.0396546" fill="none" stroke="#ff0066" stroke-width="3"/>
<path d="M142.845,354.389l 0.44993, -0.0395988l 0.44993, -0.039543l 0.44993, -0.0394871l 0.44993, -0.0394313l 0.44993, -0.0393755l 0.44993, -0.0393196l 0.44993, -0.0392638l 0.44993, -0.039208l 0.44993, -0.0391521l 0.44993, -0.0390963l 0.44993,
 -0.0390405l 0.44993, -0.0389846l 0.44993, -0.0389288l 0.44993, -0.038873l 0.44993, -0.0388171l 0.44993, -0.0387613l 0.44993, -0.0387055l 0.44993, -0.0386496l 0.44993, -0.0385938l 0.44993, -0.038538l 0.44993, -0.0384821l 0.44993, -0.0384263l 0.44993,
 -0.0383705l 0.44993, -0.0383146l 0.44993, -0.0382588l 0.44993, -0.038203l 0.44993, -0.0381471l 0.44993, -0.0380913l 0.44993, -0.0380355l 0.44993, -0.0379796l 0.44993, -0.0379238l 0.44993, -0.037868l 0.44993, -0.0378121l 0.44993, -0.0377563l 0.44993,
 -0.0377005l 0.44993, -0.0376446l 0.44993, -0.0375888l 0.44993, -0.037533l 0.44993, -0.0374771l 0.44993, -0.0374213l 0.44993, -0.0373655l 0.44993, -0.0373096l 0.44993, -0.0372538l 0.44993, -0.037198l 0.44993, -0.0371421l 0.44993, -0.0370863l 0.44993,
 -0.0370305l 0.44993, -0.0369746l 0.44993, -0.0369188" fill="none" stroke="#ff0066" stroke-width="3"/>
<path d="M164.891,352.514l 0.44993, -0.036863l 0.44993, -0.0368071l 0.44993, -0.0367513l 0.44993, -0.0366955l 0.44993, -0.0366396l 0.44993, -0.0365838l 0.44993, -0.036528l 0.44993, -0.0364721l 0.44993, -0.0364163l 0.44993, -0.0363605l 0.44993,
 -0.0363046l 0.44993, -0.0362488l 0.44993, -0.036193l 0.44993, -0.0361371l 0.44993, -0.0360813l 0.44993, -0.0360254l 0.44993, -0.0359696l 0.44993, -0.0359138l 0.44993, -0.0358579l 0.44993, -0.0358021l 0.44993, -0.0357463l 0.44993, -0.0356904l
 0.44993, -0.0356346l 0.44993, -0.0355788l 0.44993, -0.0355229l 0.44993, -0.0354671l 0.44993, -0.0354113l 0.44993, -0.0353554l 0.44993, -0.0352996l 0.44993, -0.0352438l 0.44993, -0.0351879l 0.44993, -0.0351321l 0.44993, -0.0350763l 0.44993,
 -0.0350204l 0.44993, -0.0349646l 0.44993, -0.0349088l 0.44993, -0.0348529l 0.44993, -0.0347971l 0.44993, -0.0347413l 0.44993, -0.0346854l 0.44993, -0.0346296l 0.44993, -0.0345738l 0.44993, -0.0345179l 0.44993, -0.0344621l 0.44993, -0.0344063l
 0.44993, -0.0343504l 0.44993, -0.0342946l 0.44993, -0.0342388l 0.44993, -0.0341829" fill="none" stroke="#ff0066" stroke-width="3"/>
<path d="M186.938,350.773l 0.44993, -0.0341271l 0.44993, -0.0340713l 0.44993, -0.0340154l 0.44993, -0.0339596l 0.44993, -0.0339038l 0.44993, -0.0338479l 0.44993, -0.0337921l 0.44993, -0.0337363l 0.44993, -0.0336804l 0.44993, -0.0336246l 0.44993,
 -0.0335688l 0.44993, -0.0335129l 0.44993, -0.0334571l 0.44993, -0.0334013l 0.44993, -0.0333454l 0.44993, -0.0332896l 0.44993, -0.0332338l 0.44993, -0.0331779l 0.44993, -0.0331221l 0.44993, -0.0330663l 0.44993, -0.0330104l 0.44993, -0.0329546l
 0.44993, -0.0328988l 0.44993, -0.0328429l 0.44993, -0.0327871l 0.44993, -0.0327313l 0.44993, -0.0326754l 0.44993, -0.0326196l 0.44993, -0.0325638l 0.44993, -0.0325079l 0.44993, -0.0324521l 0.44993, -0.0323963l 0.44993, -0.0323404l 0.44993,
 -0.0322846l 0.44993, -0.0322287l 0.44993, -0.0321729l 0.44993, -0.0321171l 0.44993, -0.0320612l 0.44993, -0.0320054l 0.44993, -0.0319496l 0.44993, -0.0318937l 0.44993, -0.0318379l 0.44993, -0.0317821l 0.44993, -0.0317262l 0.44993, -0.0316704l
 0.44993, -0.0316146l 0.44993, -0.0315587l 0.44993, -0.0315029l 0.44993, -0.0314471" fill="none" stroke="#ff0066" stroke-width="3"/>
<path d="M208.985,349.167l 0.44993, -0.0313912l 0.44993, -0.0313354l 0.44993, -0.0312796l 0.44993, -0.0312237l 0.44993, -0.0311679l 0.44993, -0.0311121l 0.44993, -0.0310562l 0.44993, -0.0310004l 0.44993, -0.0309446l 0.44993, -0.0308887l 0.44993,
 -0.0308329l 0.44993, -0.0307771l 0.44993, -0.0307212l 0.44993, -0.0306654l 0.44993, -0.0306096l 0.44993, -0.0305537l 0.44993, -0.0304979l 0.44993, -0.0304421l 0.44993, -0.0303862l 0.44993, -0.0303304l 0.44993, -0.0302746l 0.44993, -0.0302187l
 0.44993, -0.0301629l 0.44993, -0.0301071l 0.44993, -0.0300512l 0.44993, -0.0299954l 0.44993, -0.0299396l 0.44993, -0.0298837l 0.44993, -0.0298279l 0.44993, -0.0297721l 0.44993, -0.0297162l 0.44993, -0.0296604l 0.44993, -0.0296046l 0.44993,
 -0.0295487l 0.44993, -0.0294929l 0.44993, -0.0294371l 0.44993, -0.0293812l 0.44993, -0.0293254l 0.44993, -0.0292696l 0.44993, -0.0292137l 0.44993, -0.0291579l 0.44993, -0.0291021l 0.44993, -0.0290462l 0.44993, -0.0289904l 0.44993, -0.0289346l
 0.44993, -0.0288787l 0.44993, -0.0288229l 0.44993, -0.0287671l 0.44993, -0.0287112" fill="none" stroke="#ff0066" stroke-width="3"/>
<path d="M231.031,347.694l 0.44993, -0.0286554l 0.44993, -0.0285996l 0.44993, -0.0285437l 0.44993, -0.0284879l 0.44993, -0.0284321l 0.44993, -0.0283762l 0.44993, -0.0283204l 0.44993, -0.0282646l 0.44993, -0.0282087l 0.44993, -0.0281529l 0.44993,
 -0.028097l 0.44993, -0.0280412l 0.44993, -0.0279854l 0.44993, -0.0279295l 0.44993, -0.0278737l 0.44993, -0.0278179l 0.44993, -0.027762l 0.44993, -0.0277062l 0.44993, -0.0276504l 0.44993, -0.0275945l 0.44993, -0.0275387l 0.44993, -0.0274829l 0.44993,
 -0.027427l 0.44993, -0.0273712l 0.44993, -0.0273154l 0.44993, -0.0272595l 0.44993, -0.0272037l 0.44993, -0.0271479l 0.44993, -0.027092l 0.44993, -0.0270362l 0.44993, -0.0269804l 0.44993, -0.0269245l 0.44993, -0.0268687l 0.44993, -0.0268129l 0.44993,
 -0.026757l 0.44993, -0.0267012l 0.44993, -0.0266454l 0.44993, -0.0265895l 0.44993, -0.0265337l 0.44993, -0.0264779l 0.44993, -0.026422l 0.44993, -0.0263662l 0.44993, -0.0263104l 0.44993, -0.0262545l 0.44993, -0.0261987l 0.44993, -0.0261429l 0.44993,
 -0.026087l 0.44993, -0.0260312l 0.44993, -0.0259754" fill="none" stroke="#ff0066" stroke-width="3"/>
<path d="M253.078,346.356l 0.44993, -0.0259195l 0.44993, -0.0258637l 0.44993, -0.0258079l 0.44993, -0.025752l 0.44993, -0.0256962l 0.44993, -0.0256404l 0.44993, -0.0255845l 0.44993, -0.0255287l 0.44993, -0.0254729l 0.44993, -0.025417l 0.44993,
 -0.0253612l 0.44993, -0.0253054l 0.44993, -0.0252495l 0.44993, -0.0251937l 0.44993, -0.0251379l 0.44993, -0.025082l 0.44993, -0.0250262l 0.44993, -0.0249704l 0.44993, -0.0249145l 0.44993, -0.0248587l 0.44993, -0.0248029l 0.44993, -0.024747l 0.44993,
 -0.0246912l 0.44993, -0.0246354l 0.44993, -0.0245795l 0.44993, -0.0245237l 0.44993, -0.0244679l 0.44993, -0.024412l 0.44993, -0.0243562l 0.44993, -0.0243003l 0.44993, -0.0242445l 0.44993, -0.0241887l 0.44993, -0.0241328l 0.44993, -0.024077l 0.44993,
 -0.0240212l 0.44993, -0.0239653l 0.44993, -0.0239095l 0.44993, -0.0238537l 0.44993, -0.0237978l 0.44993, -0.023742l 0.44993, -0.0236862l 0.44993, -0.0236303l 0.44993, -0.0235745l 0.44993, -0.0235187l 0.44993, -0.0234628l 0.44993, -0.023407l 0.44993,
 -0.0233512l 0.44993, -0.0232953l 0.44993, -0.0232395" fill="none" stroke="#ff0066" stroke-width="3"/>
<path d="M275.124,345.151l 0.44993, -0.0231837l 0.44993, -0.0231278l 0.44993, -0.023072l 0.44993, -0.0230162l 0.44993, -0.0229603l 0.44993, -0.0229045l 0.44993, -0.0228487l 0.44993, -0.0227928l 0.44993, -0.022737l 0.44993, -0.0226812l 0.44993,
 -0.0226253l 0.44993, -0.0225695l 0.44993, -0.0225137l 0.44993, -0.0224578l 0.44993, -0.022402l 0.44993, -0.0223462l 0.44993, -0.0222903l 0.44993, -0.0222345l 0.44993, -0.0221787l 0.44993, -0.0221228l 0.44993, -0.022067l 0.44993, -0.0220112l 0.44993,
 -0.0219553l 0.44993, -0.0218995l 0.44993, -0.0218437l 0.44993, -0.0217878l 0.44993, -0.021732l 0.44993, -0.0216762l 0.44993, -0.0216203l 0.44993, -0.0215645l 0.44993, -0.0215087l 0.44993, -0.0214528l 0.44993, -0.021397l 0.44993, -0.0213412l 0.44993,
 -0.0212853l 0.44993, -0.0212295l 0.44993, -0.0211737l 0.44993, -0.0211178l 0.44993, -0.021062l 0.44993, -0.0210062l 0.44993, -0.0209503l 0.44993, -0.0208945l 0.44993, -0.0208387l 0.44993, -0.0207828l 0.44993, -0.020727l 0.44993, -0.0206712l 0.44993,
 -0.0206153l 0.44993, -0.0205595l 0.44993, -0.0205036" fill="none" stroke="#ff0066" stroke-width="3"/>
<path d="M297.171,344.081l 0.44993, -0.0204478l 0.44993, -0.020392l 0.44993, -0.0203361l 0.44993, -0.0202803l 0.44993, -0.0202245l 0.44993, -0.0201686l 0.44993, -0.0201128l 0.44993, -0.020057l 0.44993, -0.0200011l 0.44993, -0.0199453l 0.44993,
 -0.0198895l 0.44993, -0.0198336l 0.44993, -0.0197778l 0.44993, -0.019722l 0.44993, -0.0196661l 0.44993, -0.0196103l 0.44993, -0.0195545l 0.44993, -0.0194986l 0.44993, -0.0194428l 0.44993, -0.019387l 0.44993, -0.0193311l 0.44993, -0.0192753l 0.44993,
 -0.0192195l 0.44993, -0.0191636l 0.44993, -0.0191078l 0.44993, -0.019052l 0.44993, -0.0189961l 0.44993, -0.0189403l 0.44993, -0.0188845l 0.44993, -0.0188286l 0.44993, -0.0187728l 0.44993, -0.018717l 0.44993, -0.0186611l 0.44993, -0.0186053l 0.44993,
 -0.0185495l 0.44993, -0.0184936l 0.44993, -0.0184378l 0.44993, -0.018382l 0.44993, -0.0183261l 0.44993, -0.0182703l 0.44993, -0.0182145l 0.44993, -0.0181586l 0.44993, -0.0181028l 0.44993, -0.018047l 0.44993, -0.0179911l 0.44993, -0.0179353l 0.44993,
 -0.0178795l 0.44993, -0.0178236l 0.44993, -0.0177678" fill="none" stroke="#ff0066" stroke-width="3"/>
<path d="M319.217,343.145l 0.44993, -0.017712l 0.44993, -0.0176561l 0.44993, -0.0176003l 0.44993, -0.0175445l 0.44993, -0.0174886l 0.44993, -0.0174328l 0.44993, -0.017377l 0.44993, -0.0173211l 0.44993, -0.0172653l 0.44993, -0.0172095l 0.44993,
 -0.0171536l 0.44993, -0.0170978l 0.44993, -0.017042l 0.44993, -0.0169861l 0.44993, -0.0169303l 0.44993, -0.0168745l 0.44993, -0.0168186l 0.44993, -0.0167628l 0.44993, -0.016707l 0.44993, -0.0166511l 0.44993, -0.0165953l 0.44993, -0.0165394l 0.44993,
 -0.0164836l 0.44993, -0.0164278l 0.44993, -0.0163719l 0.44993, -0.0163161l 0.44993, -0.0162603l 0.44993, -0.0162044l 0.44993, -0.0161486l 0.44993, -0.0160928l 0.44993, -0.0160369l 0.44993, -0.0159811l 0.44993, -0.0159253l 0.44993, -0.0158694l
 0.44993, -0.0158136l 0.44993, -0.0157578l 0.44993, -0.0157019l 0.44993, -0.0156461l 0.44993, -0.0155903l 0.44993, -0.0155344l 0.44993, -0.0154786l 0.44993, -0.0154228l 0.44993, -0.0153669l 0.44993, -0.0153111l 0.44993, -0.0152553l 0.44993,
 -0.0151994l 0.44993, -0.0151436l 0.44993, -0.0150878l 0.44993, -0.0150319" fill="none" stroke="#ff0066" stroke-width="3"/>
<path d="M341.264,342.342l 0.44993, -0.0149761l 0.44993, -0.0149203l 0.44993, -0.0148644l 0.44993, -0.0148086l 0.44993, -0.0147528l 0.44993, -0.0146969l 0.44993, -0.0146411l 0.44993, -0.0145853l 0.44993, -0.0145294l 0.44993, -0.0144736l 0.44993,
 -0.0144178l 0.44993, -0.0143619l 0.44993, -0.0143061l 0.44993, -0.0142503l 0.44993, -0.0141944l 0.44993, -0.0141386l 0.44993, -0.0140828l 0.44993, -0.0140269l 0.44993, -0.0139711l 0.44993, -0.0139153l 0.44993, -0.0138594l 0.44993, -0.0138036l
 0.44993, -0.0137478l 0.44993, -0.0136919l 0.44993, -0.0136361l 0.44993, -0.0135803l 0.44993, -0.0135244l 0.44993, -0.0134686l 0.44993, -0.0134128l 0.44993, -0.0133569l 0.44993, -0.0133011l 0.44993, -0.0132453l 0.44993, -0.0131894l 0.44993,
 -0.0131336l 0.44993, -0.0130778l 0.44993, -0.0130219l 0.44993, -0.0129661l 0.44993, -0.0129103l 0.44993, -0.0128544l 0.44993, -0.0127986l 0.44993, -0.0127428l 0.44993, -0.0126869l 0.44993, -0.0126311l 0.44993, -0.0125752l 0.44993, -0.0125194l
 0.44993, -0.0124636l 0.44993, -0.0124077l 0.44993, -0.0123519l 0.44993, -0.0122961" fill="none" stroke="#ff0066" stroke-width="3"/>
<path d="M363.311,341.674l 0.44993, -0.0122402l 0.44993, -0.0121844l 0.44993, -0.0121286l 0.44993, -0.0120727l 0.44993, -0.0120169l 0.44993, -0.0119611l 0.44993, -0.0119052l 0.44993, -0.0118494l 0.44993, -0.0117936l 0.44993, -0.0117377l 0.44993,
 -0.0116819l 0.44993, -0.0116261l 0.44993, -0.0115702l 0.44993, -0.0115144l 0.44993, -0.0114586l 0.44993, -0.0114027l 0.44993, -0.0113469l 0.44993, -0.0112911l 0.44993, -0.0112352l 0.44993, -0.0111794l 0.44993, -0.0111236l 0.44993, -0.0110677l
 0.44993, -0.0110119l 0.44993, -0.0109561l 0.44993, -0.0109002l 0.44993, -0.0108444l 0.44993, -0.0107886l 0.44993, -0.0107327l 0.44993, -0.0106769l 0.44993, -0.0106211l 0.44993, -0.0105652l 0.44993, -0.0105094l 0.44993, -0.0104536l 0.44993,
 -0.0103977l 0.44993, -0.0103419l 0.44993, -0.0102861l 0.44993, -0.0102302l 0.44993, -0.0101744l 0.44993, -0.0101186l 0.44993, -0.0100627l 0.44993, -0.0100069l 0.44993, -0.00995106l 0.44993, -0.00989523l 0.44993, -0.00983939l 0.44993, -0.00978356l
 0.44993, -0.00972772l 0.44993, -0.00967189l 0.44993, -0.00961606l 0.44993, -0.00956022" fill="none" stroke="#ff0066" stroke-width="3"/>
<path d="M385.357,341.14l 0.44993, -0.00950439l 0.44993, -0.00944856l 0.44993, -0.00939272l 0.44993, -0.00933689l 0.44993, -0.00928105l 0.44993, -0.00922522l 0.44993, -0.00916939l 0.44993, -0.00911355l 0.44993, -0.00905772l 0.44993, -0.00900188l
 0.44993, -0.00894605l 0.44993, -0.00889022l 0.44993, -0.00883438l 0.44993, -0.00877855l 0.44993, -0.00872272l 0.44993, -0.00866688l 0.44993, -0.00861105l 0.44993, -0.00855521l 0.44993, -0.00849938l 0.44993, -0.00844355l 0.44993, -0.00838771l
 0.44993, -0.00833188l 0.44993, -0.00827605l 0.44993, -0.00822021l 0.44993, -0.00816438l 0.44993, -0.00810854l 0.44993, -0.00805271l 0.44993, -0.00799688l 0.44993, -0.00794104l 0.44993, -0.00788521l 0.44993, -0.00782937l 0.44993, -0.00777354l
 0.44993, -0.00771771l 0.44993, -0.00766187l 0.44993, -0.00760604l 0.44993, -0.00755021l 0.44993, -0.00749437l 0.44993, -0.00743854l 0.44993, -0.0073827l 0.44993, -0.00732687l 0.44993, -0.00727104l 0.44993, -0.0072152l 0.44993, -0.00715937l 0.44993,
 -0.00710354l 0.44993, -0.0070477l 0.44993, -0.00699187l 0.44993, -0.00693603l 0.44993, -0.0068802l 0.44993, -0.00682437" fill="none" stroke="#ff0066" stroke-width="3"/>
<path d="M407.404,340.74l 0.44993, -0.00676853l 0.44993, -0.0067127l 0.44993, -0.00665686l 0.44993, -0.00660103l 0.44993, -0.0065452l 0.44993, -0.00648936l 0.44993, -0.00643353l 0.44993, -0.0063777l 0.44993, -0.00632186l 0.44993, -0.00626603l
 0.44993, -0.00621019l 0.44993, -0.00615436l 0.44993, -0.00609853l 0.44993, -0.00604269l 0.44993, -0.00598686l 0.44993, -0.00593103l 0.44993, -0.00587519l 0.44993, -0.00581936l 0.44993, -0.00576352l 0.44993, -0.00570769l 0.44993, -0.00565186l
 0.44993, -0.00559602l 0.44993, -0.00554019l 0.44993, -0.00548435l 0.44993, -0.00542852l 0.44993, -0.00537269l 0.44993, -0.00531685l 0.44993, -0.00526102l 0.44993, -0.00520519l 0.44993, -0.00514935l 0.44993, -0.00509352l 0.44993, -0.00503768l
 0.44993, -0.00498185l 0.44993, -0.00492602l 0.44993, -0.00487018l 0.44993, -0.00481435l 0.44993, -0.00475852l 0.44993, -0.00470268l 0.44993, -0.00464685l 0.44993, -0.00459101l 0.44993, -0.00453518l 0.44993, -0.00447935l 0.44993, -0.00442351l
 0.44993, -0.00436768l 0.44993, -0.00431184l 0.44993, -0.00425601l 0.44993, -0.00420018l 0.44993, -0.00414434l 0.44993, -0.00408851" fill="none" stroke="#ff0066" stroke-width="3"/>
<path d="M429.45,340.474l 0.44993, -0.00403268l 0.44993, -0.00397684l 0.44993, -0.00392101l 0.44993, -0.00386517l 0.44993, -0.00380934l 0.44993, -0.00375351l 0.44993, -0.00369767l 0.44993, -0.00364184l 0.44993, -0.00358601l 0.44993, -0.00353017l
 0.44993, -0.00347434l 0.44993, -0.0034185l 0.44993, -0.00336267l 0.44993, -0.00330684l 0.44993, -0.003251l 0.44993, -0.00319517l 0.44993, -0.00313933l 0.44993, -0.0030835l 0.44993, -0.00302767l 0.44993, -0.00297183l 0.44993, -0.002916l 0.44993,
 -0.00286017l 0.44993, -0.00280433l 0.44993, -0.0027485l 0.44993, -0.00269266l 0.44993, -0.00263683l 0.44993, -0.002581l 0.44993, -0.00252516l 0.44993, -0.00246933l 0.44993, -0.00241349l 0.44993, -0.00235766l 0.44993, -0.00230183l 0.44993,
 -0.00224599l 0.44993, -0.00219016l 0.44993, -0.00213433l 0.44993, -0.00207849l 0.44993, -0.00202266l 0.44993, -0.00196682l 0.44993, -0.00191099l 0.44993, -0.00185516l 0.44993, -0.00179932l 0.44993, -0.00174349l 0.44993, -0.00168766l 0.44993,
 -0.00163182l 0.44993, -0.00157599l 0.44993, -0.00152015l 0.44993, -0.00146432l 0.44993, -0.00140849l 0.44993, -0.00135265" fill="none" stroke="#ff0066" stroke-width="3"/>
<path d="M451.497,340.342l 0.44993, -0.00129682l 0.44993, -0.00124099l 0.44993, -0.00118515l 0.44993, -0.00112932l 0.44993, -0.00107348l 0.44993, -0.00101765l 0.44993, -0.000961816l 0.44993, -0.000905982l 0.44993, -0.000850148l 0.44993, -0.000794314l
 0.44993, -0.000738481l 0.44993, -0.000682647l 0.44993, -0.000626813l 0.44993, -0.000570979l 0.44993, -0.000515145l 0.44993, -0.000459312l 0.44993, -0.000403478l 0.44993, -0.000347644l 0.44993, -0.00029181l 0.44993, -0.000235976l 0.44993,
 -0.000180143l 0.44993, -0.000124309l 0.44993, -6.84749e-05l 0.44993, -1.26411e-05l 0.44993, 4.31927e-05l 0.44993, 9.90265e-05l 0.44993, 0.00015486l 0.44993, 0.000210694l 0.44993, 0.000266528l 0.44993, 0.000322362l 0.44993, 0.000378196l 0.44993,
 0.000434029l 0.44993, 0.000489863l 0.44993, 0.000545697l 0.44993, 0.000601531l 0.44993, 0.000657365l 0.44993, 0.000713198l 0.44993, 0.000769032l 0.44993, 0.000824866l 0.44993, 0.0008807l 0.44993, 0.000936534l 0.44993, 0.000992368l 0.44993,
 0.0010482l 0.44993, 0.00110404l 0.44993, 0.00115987l 0.44993, 0.0012157l 0.44993, 0.00127154l 0.44993, 0.00132737l 0.44993, 0.0013832" fill="none" stroke="#ff0066" stroke-width="3"/>
<path d="M473.543,340.344l 0.44993, 0.00143904l 0.44993, 0.00149487l 0.44993, 0.00155071l 0.44993, 0.00160654l 0.44993, 0.00166237l 0.44993, 0.00171821l 0.44993, 0.00177404l 0.44993, 0.00182987l 0.44993, 0.00188571l 0.44993, 0.00194154l 0.44993,
 0.00199738l 0.44993, 0.00205321l 0.44993, 0.00210904l 0.44993, 0.00216488l 0.44993, 0.00222071l 0.44993, 0.00227655l 0.44993, 0.00233238l 0.44993, 0.00238821l 0.44993, 0.00244405l 0.44993, 0.00249988l 0.44993, 0.00255571l 0.44993, 0.00261155l
 0.44993, 0.00266738l 0.44993, 0.00272322l 0.44993, 0.00277905l 0.44993, 0.00283488l 0.44993, 0.00289072l 0.44993, 0.00294655l 0.44993, 0.00300238l 0.44993, 0.00305822l 0.44993, 0.00311405l 0.44993, 0.00316989l 0.44993, 0.00322572l 0.44993,
 0.00328155l 0.44993, 0.00333739l 0.44993, 0.00339322l 0.44993, 0.00344906l 0.44993, 0.00350489l 0.44993, 0.00356072l 0.44993, 0.00361656l 0.44993, 0.00367239l 0.44993, 0.00372822l 0.44993, 0.00378406l 0.44993, 0.00383989l 0.44993, 0.00389573l
 0.44993, 0.00395156l 0.44993, 0.00400739l 0.44993, 0.00406323l 0.44993, 0.00411906" fill="none" stroke="#ff0066" stroke-width="3"/>
<path d="M495.59,340.48l 0.44993, 0.00417489l 0.44993, 0.00423073l 0.44993, 0.00428656l 0.44993, 0.0043424l 0.44993, 0.00439823l 0.44993, 0.00445406l 0.44993, 0.0045099l 0.44993, 0.00456573l 0.44993, 0.00462157l 0.44993, 0.0046774l 0.44993,
 0.00473323l 0.44993, 0.00478907l 0.44993, 0.0048449l 0.44993, 0.00490073l 0.44993, 0.00495657l 0.44993, 0.0050124l 0.44993, 0.00506824l 0.44993, 0.00512407l 0.44993, 0.0051799l 0.44993, 0.00523574l 0.44993, 0.00529157l 0.44993, 0.00534741l 0.44993,
 0.00540324l 0.44993, 0.00545907l 0.44993, 0.00551491l 0.44993, 0.00557074l 0.44993, 0.00562657l 0.44993, 0.00568241l 0.44993, 0.00573824l 0.44993, 0.00579408l 0.44993, 0.00584991l 0.44993, 0.00590574l 0.44993, 0.00596158l 0.44993, 0.00601741l
 0.44993, 0.00607324l 0.44993, 0.00612908l 0.44993, 0.00618491l 0.44993, 0.00624075l 0.44993, 0.00629658l 0.44993, 0.00635241l 0.44993, 0.00640825l 0.44993, 0.00646408l 0.44993, 0.00651992l 0.44993, 0.00657575l 0.44993, 0.00663158l 0.44993,
 0.00668742l 0.44993, 0.00674325l 0.44993, 0.00679908l 0.44993, 0.00685492" fill="none" stroke="#ff0066" stroke-width="3"/>
<path d="M517.636,340.751l 0.44993, 0.00691075l 0.44993, 0.00696659l 0.44993, 0.00702242l 0.44993, 0.00707825l 0.44993, 0.00713409l 0.44993, 0.00718992l 0.44993, 0.00724575l 0.44993, 0.00730159l 0.44993, 0.00735742l 0.44993, 0.00741326l 0.44993,
 0.00746909l 0.44993, 0.00752492l 0.44993, 0.00758076l 0.44993, 0.00763659l 0.44993, 0.00769243l 0.44993, 0.00774826l 0.44993, 0.00780409l 0.44993, 0.00785993l 0.44993, 0.00791576l 0.44993, 0.00797159l 0.44993, 0.00802743l 0.44993, 0.00808326l
 0.44993, 0.0081391l 0.44993, 0.00819493l 0.44993, 0.00825076l 0.44993, 0.0083066l 0.44993, 0.00836243l 0.44993, 0.00841826l 0.44993, 0.0084741l 0.44993, 0.00852993l 0.44993, 0.00858577l 0.44993, 0.0086416l 0.44993, 0.00869743l 0.44993, 0.00875327l
 0.44993, 0.0088091l 0.44993, 0.00886494l 0.44993, 0.00892077l 0.44993, 0.0089766l 0.44993, 0.00903244l 0.44993, 0.00908827l 0.44993, 0.0091441l 0.44993, 0.00919994l 0.44993, 0.00925577l 0.44993, 0.00931161l 0.44993, 0.00936744l 0.44993, 0.00942327l
 0.44993, 0.00947911l 0.44993, 0.00953494l 0.44993, 0.00959077" fill="none" stroke="#ff0066" stroke-width="3"/>
<path d="M539.683,341.155l 0.44993, 0.00964661l 0.44993, 0.00970244l 0.44993, 0.00975828l 0.44993, 0.00981411l 0.44993, 0.00986994l 0.44993, 0.00992578l 0.44993, 0.00998161l 0.44993, 0.0100374l 0.44993, 0.0100933l 0.44993, 0.0101491l 0.44993,
 0.0102049l 0.44993, 0.0102608l 0.44993, 0.0103166l 0.44993, 0.0103724l 0.44993, 0.0104283l 0.44993, 0.0104841l 0.44993, 0.0105399l 0.44993, 0.0105958l 0.44993, 0.0106516" fill="none" stroke="#ff0066" stroke-width="3"/>
<path d="M200.511,21.4167h 287.955" fill="none" stroke="#999999" stroke-width="7"/>
<text xml:space="preserve" x="360.607" y="50.7193" fill="black" font-size="16.0105" font-family="Helvetica"> with EMC</text>
<text xml:space="preserve" x="352.717" y="50.7193" fill="black" font-size="16.0105" font-family="Times">&#0947;</text>
<text xml:space="preserve" x="344.828" y="50.7193" fill="black" font-size="16.0105" font-family="Times">&#0947;</text>
<text xml:space="preserve" x="336.938" y="50.7193" fill="black" font-size="16.0105" font-family="Times">&#0947;</text>
<text xml:space="preserve" x="331.866" y="50.7193" fill="black" font-size="16.0105" font-family="Helvetica"> </text>
<text xml:space="preserve" x="316.65" y="50.7193" fill="black" font-size="16.0105" font-family="Times">&#8594;</text>
<text xml:space="preserve" x="311.578" y="50.7193" fill="black" font-size="16.0105" font-family="Helvetica"> </text>
<text xml:space="preserve" x="303.689" y="50.7193" fill="black" font-size="16.0105" font-family="Times">&#0947;</text>
<text xml:space="preserve" x="298.053" y="45.0838" fill="black" font-size="10.8403" font-family="Helvetica">0</text>
<text xml:space="preserve" x="289.6" y="50.7193" fill="black" font-size="16.0105" font-family="Times">&#0960;</text>
<text xml:space="preserve" x="284.528" y="50.7193" fill="black" font-size="16.0105" font-family="Helvetica"> </text>
<text xml:space="preserve" x="269.312" y="50.7193" fill="black" font-size="16.0105" font-family="Times">&#8594;</text>
<text xml:space="preserve" x="264.24" y="50.7193" fill="black" font-size="16.0105" font-family="Helvetica"> </text>
<text xml:space="preserve" x="252.969" y="50.7193" fill="black" font-size="16.0105" font-family="Times">&#0969;</text>
<text xml:space="preserve" x="128.989" y="50.7193" fill="black" font-size="16.0105" font-family="Helvetica"> = 13 TeV (EG1), </text>
<text xml:space="preserve" x="120.536" y="50.7193" fill="black" font-size="16.0105" font-family="Helvetica" font-style="oblique">s</text>
<path d="M114.9,41.7025l 1.69064, 9.58031" fill="none" stroke="black" stroke-width="2"/>
<path d="M116.591,51.2829l 2.25419, -14.0887" fill="none" stroke="black"/>
<path d="M118.845,37.1942h 10.1439" fill="none" stroke="black"/>
<text xml:space="preserve" x="89.5406" y="50.7193" fill="black" font-size="16.0105" font-family="Helvetica">pp </text>
<text xml:space="preserve" x="89.5406" y="85.6593" fill="black" font-size="16.0105" font-family="Helvetica">ALICE work in progress</text>
<text xml:space="preserve" x="214.085" y="120.599" fill="black" font-size="16.0105" font-family="Helvetica">) &lt; 14.0</text>
<text xml:space="preserve" x="205.068" y="120.599" fill="black" font-size="16.0105" font-family="Helvetica" font-style="oblique">c</text>
<text xml:space="preserve" x="154.912" y="120.599" fill="black" font-size="16.0105" font-family="Helvetica"> /(GeV/</text>
<text xml:space="preserve" x="148.15" y="128.489" fill="black" font-size="10.8403" font-family="Helvetica">T</text>
<text xml:space="preserve" x="138.569" y="120.599" fill="black" font-size="16.0105" font-family="Helvetica" font-style="oblique">p</text>
<text xml:space="preserve" x="133.497" y="120.599" fill="black" font-size="16.0105" font-family="Helvetica"> </text>
<text xml:space="preserve" x="125.044" y="120.599" fill="black" font-size="16.0105" font-family="Times">&#8804;</text>
<text xml:space="preserve" x="89.5406" y="120.599" fill="black" font-size="16.0105" font-family="Helvetica">12.0 </text>
<rect x="312.311" y="69.1755" width="198.425" height="113.448" fill="white"/>
<text xml:space="preserve" x="361.734" y="85.0957" fill="black" font-size="16.0105" font-family="Helvetica">ratio</text>
<path d="M319.752,80.5203h 34.7244" fill="none" stroke="black" stroke-width="2"/>
<g fill="black">
<circle cx="337.114" cy="80.5203" r="6.76257"/>
</g>
<text xml:space="preserve" x="361.734" y="108.201" fill="black" font-size="16.0105" font-family="Helvetica">peak range</text>
<path d="M319.752,103.21h 34.7244" fill="none" stroke="#333333" stroke-width="2"/>
<g stroke="#333333" stroke-width="2" fill="none">
<circle cx="337.114" cy="103.21" r="5.63548"/>
</g>
<text xml:space="preserve" x="361.734" y="130.743" fill="black" font-size="16.0105" font-family="Helvetica">background pol1</text>
<path d="M319.752,125.899h 34.7244" fill="none" stroke="#33cccc" stroke-width="3"/>
<text xml:space="preserve" x="361.734" y="153.285" fill="black" font-size="16.0105" font-family="Helvetica">background pol2</text>
<path d="M319.752,148.589h 34.7244" fill="none" stroke="#ff0066" stroke-width="3"/>
<text xml:space="preserve" x="361.734" y="175.827" fill="black" font-size="16.0105" font-family="Helvetica">param. range</text>
<path d="M319.752,171.279h 34.7244" fill="none" stroke="#999999" stroke-width="7"/></svg>
