<?xml version="1.0" standalone="no"?>
<svg width="567.429" height="553.904" viewBox="0 0 567.429 553.904" xmlns="http://www.w3.org/2000/svg" shape-rendering="crispEdges">
<title>
Data/EG1/OmegaRotWOPS/SameEventToBackgroundRatio_01.svg
</title>
<desc>
Creator: ROOT Version 6.20/08
CreationDate: Mon Mar 29 21:31:13 2021</desc>
<defs>
</defs>
<rect x="0.5" y="0" width="566.929" height="553.404" fill="white"/>
<rect x="68.5315" y="16.6021" width="484.724" height="481.461" fill="white"/>
<rect x="68.5315" y="16.6021" width="484.724" height="481.461" fill="none" stroke="black"/>
<rect x="68.5315" y="16.6021" width="484.724" height="481.461" fill="white"/>
<rect x="68.5315" y="16.6021" width="484.724" height="481.461" fill="none" stroke="black"/>
<g fill="black">
<circle cx="114.124" cy="347.42" r="6.76257"/>
</g>
<g fill="black">
<circle cx="118.924" cy="366.07" r="6.76257"/>
</g>
<g fill="black">
<circle cx="123.723" cy="462.831" r="6.76257"/>
</g>
<g fill="black">
<circle cx="128.522" cy="433.916" r="6.76257"/>
</g>
<g fill="black">
<circle cx="133.321" cy="374.856" r="6.76257"/>
</g>
<g fill="black">
<circle cx="138.121" cy="376.588" r="6.76257"/>
</g>
<g fill="black">
<circle cx="142.92" cy="377.37" r="6.76257"/>
</g>
<g fill="black">
<circle cx="147.719" cy="377.157" r="6.76257"/>
</g>
<g fill="black">
<circle cx="152.518" cy="377.136" r="6.76257"/>
</g>
<g fill="black">
<circle cx="157.318" cy="375.64" r="6.76257"/>
</g>
<g fill="black">
<circle cx="162.117" cy="374.498" r="6.76257"/>
</g>
<g fill="black">
<circle cx="166.916" cy="373.203" r="6.76257"/>
</g>
<g fill="black">
<circle cx="171.715" cy="371.588" r="6.76257"/>
</g>
<g fill="black">
<circle cx="176.515" cy="369.405" r="6.76257"/>
</g>
<g fill="black">
<circle cx="181.314" cy="366.582" r="6.76257"/>
</g>
<g fill="black">
<circle cx="186.113" cy="364.047" r="6.76257"/>
</g>
<g fill="black">
<circle cx="190.912" cy="360.812" r="6.76257"/>
</g>
<g fill="black">
<circle cx="195.712" cy="358.302" r="6.76257"/>
</g>
<g fill="black">
<circle cx="200.511" cy="353.998" r="6.76257"/>
</g>
<g fill="black">
<circle cx="205.31" cy="351.633" r="6.76257"/>
</g>
<g fill="black">
<circle cx="210.109" cy="347.614" r="6.76257"/>
</g>
<g fill="black">
<circle cx="214.909" cy="344.016" r="6.76257"/>
</g>
<g fill="black">
<circle cx="219.708" cy="340.62" r="6.76257"/>
</g>
<g fill="black">
<circle cx="224.507" cy="337.502" r="6.76257"/>
</g>
<g fill="black">
<circle cx="229.306" cy="334.138" r="6.76257"/>
</g>
<g fill="black">
<circle cx="234.106" cy="331.897" r="6.76257"/>
</g>
<g fill="black">
<circle cx="238.905" cy="328.633" r="6.76257"/>
</g>
<g fill="black">
<circle cx="243.704" cy="325.182" r="6.76257"/>
</g>
<g fill="black">
<circle cx="248.503" cy="321.81" r="6.76257"/>
</g>
<g fill="black">
<circle cx="253.303" cy="319.023" r="6.76257"/>
</g>
<g fill="black">
<circle cx="258.102" cy="316.835" r="6.76257"/>
</g>
<g fill="black">
<circle cx="262.901" cy="313.874" r="6.76257"/>
</g>
<g fill="black">
<circle cx="267.7" cy="311.414" r="6.76257"/>
</g>
<g fill="black">
<circle cx="272.5" cy="308.27" r="6.76257"/>
</g>
<g fill="black">
<circle cx="277.299" cy="305.327" r="6.76257"/>
</g>
<g fill="black">
<circle cx="339.689" cy="276.504" r="6.76257"/>
</g>
<g fill="black">
<circle cx="344.488" cy="272.236" r="6.76257"/>
</g>
<g fill="black">
<circle cx="349.288" cy="269.918" r="6.76257"/>
</g>
<g fill="black">
<circle cx="354.087" cy="268.897" r="6.76257"/>
</g>
<g fill="black">
<circle cx="358.886" cy="267.478" r="6.76257"/>
</g>
<g fill="black">
<circle cx="363.685" cy="262.496" r="6.76257"/>
</g>
<g fill="black">
<circle cx="368.485" cy="261.906" r="6.76257"/>
</g>
<g fill="black">
<circle cx="373.284" cy="258.939" r="6.76257"/>
</g>
<g fill="black">
<circle cx="378.083" cy="258.436" r="6.76257"/>
</g>
<g fill="black">
<circle cx="382.882" cy="258.013" r="6.76257"/>
</g>
<g fill="black">
<circle cx="387.682" cy="254.31" r="6.76257"/>
</g>
<g fill="black">
<circle cx="392.481" cy="251.579" r="6.76257"/>
</g>
<g fill="black">
<circle cx="397.28" cy="248.851" r="6.76257"/>
</g>
<g fill="black">
<circle cx="402.079" cy="245.681" r="6.76257"/>
</g>
<g fill="black">
<circle cx="406.879" cy="245.153" r="6.76257"/>
</g>
<g fill="black">
<circle cx="411.678" cy="242.376" r="6.76257"/>
</g>
<g fill="black">
<circle cx="416.477" cy="239.904" r="6.76257"/>
</g>
<g fill="black">
<circle cx="421.276" cy="237.64" r="6.76257"/>
</g>
<g fill="black">
<circle cx="426.076" cy="234.288" r="6.76257"/>
</g>
<g fill="black">
<circle cx="430.875" cy="234.214" r="6.76257"/>
</g>
<g fill="black">
<circle cx="435.674" cy="230.995" r="6.76257"/>
</g>
<g fill="black">
<circle cx="440.473" cy="228.718" r="6.76257"/>
</g>
<g fill="black">
<circle cx="445.273" cy="225.723" r="6.76257"/>
</g>
<g fill="black">
<circle cx="450.072" cy="223.931" r="6.76257"/>
</g>
<g fill="black">
<circle cx="454.871" cy="221.743" r="6.76257"/>
</g>
<g fill="black">
<circle cx="459.671" cy="222.067" r="6.76257"/>
</g>
<g fill="black">
<circle cx="464.47" cy="215.952" r="6.76257"/>
</g>
<g fill="black">
<circle cx="469.269" cy="217.25" r="6.76257"/>
</g>
<g fill="black">
<circle cx="474.068" cy="215.747" r="6.76257"/>
</g>
<g fill="black">
<circle cx="478.867" cy="213.07" r="6.76257"/>
</g>
<g fill="black">
<circle cx="483.667" cy="209.109" r="6.76257"/>
</g>
<g fill="black">
<circle cx="488.466" cy="211.113" r="6.76257"/>
</g>
<g fill="black">
<circle cx="493.265" cy="207.522" r="6.76257"/>
</g>
<g fill="black">
<circle cx="498.065" cy="206.937" r="6.76257"/>
</g>
<g fill="black">
<circle cx="502.864" cy="207.937" r="6.76257"/>
</g>
<g fill="black">
<circle cx="507.663" cy="203.898" r="6.76257"/>
</g>
<g fill="black">
<circle cx="512.462" cy="203.153" r="6.76257"/>
</g>
<g fill="black">
<circle cx="517.262" cy="204.192" r="6.76257"/>
</g>
<g fill="black">
<circle cx="522.061" cy="205.67" r="6.76257"/>
</g>
<g fill="black">
<circle cx="526.86" cy="201.555" r="6.76257"/>
</g>
<g fill="black">
<circle cx="531.659" cy="199.795" r="6.76257"/>
</g>
<g fill="black">
<circle cx="536.458" cy="201.665" r="6.76257"/>
</g>
<g fill="black">
<circle cx="541.258" cy="203.439" r="6.76257"/>
</g>
<g fill="black">
<circle cx="546.057" cy="197.15" r="6.76257"/>
</g>
<path d="M68.5315,498.064h 484.724" fill="none" stroke="black"/>
<path d="M68.5315,483.869v 14.1948" fill="none" stroke="black"/>
<path d="M83.5292,490.966v 7.09741" fill="none" stroke="black"/>
<path d="M98.5268,490.966v 7.09741" fill="none" stroke="black"/>
<path d="M113.524,490.966v 7.09741" fill="none" stroke="black"/>
<path d="M128.522,483.869v 14.1948" fill="none" stroke="black"/>
<path d="M143.52,490.966v 7.09741" fill="none" stroke="black"/>
<path d="M158.517,490.966v 7.09741" fill="none" stroke="black"/>
<path d="M173.515,490.966v 7.09741" fill="none" stroke="black"/>
<path d="M188.513,483.869v 14.1948" fill="none" stroke="black"/>
<path d="M203.51,490.966v 7.09741" fill="none" stroke="black"/>
<path d="M218.508,490.966v 7.09741" fill="none" stroke="black"/>
<path d="M233.506,490.966v 7.09741" fill="none" stroke="black"/>
<path d="M248.503,483.869v 14.1948" fill="none" stroke="black"/>
<path d="M263.501,490.966v 7.09741" fill="none" stroke="black"/>
<path d="M278.499,490.966v 7.09741" fill="none" stroke="black"/>
<path d="M293.496,490.966v 7.09741" fill="none" stroke="black"/>
<path d="M308.494,483.869v 14.1948" fill="none" stroke="black"/>
<path d="M323.492,490.966v 7.09741" fill="none" stroke="black"/>
<path d="M338.489,490.966v 7.09741" fill="none" stroke="black"/>
<path d="M353.487,490.966v 7.09741" fill="none" stroke="black"/>
<path d="M368.485,483.869v 14.1948" fill="none" stroke="black"/>
<path d="M383.482,490.966v 7.09741" fill="none" stroke="black"/>
<path d="M398.48,490.966v 7.09741" fill="none" stroke="black"/>
<path d="M413.478,490.966v 7.09741" fill="none" stroke="black"/>
<path d="M428.475,483.869v 14.1948" fill="none" stroke="black"/>
<path d="M443.473,490.966v 7.09741" fill="none" stroke="black"/>
<path d="M458.471,490.966v 7.09741" fill="none" stroke="black"/>
<path d="M473.468,490.966v 7.09741" fill="none" stroke="black"/>
<path d="M488.466,483.869v 14.1948" fill="none" stroke="black"/>
<path d="M503.464,490.966v 7.09741" fill="none" stroke="black"/>
<path d="M518.461,490.966v 7.09741" fill="none" stroke="black"/>
<path d="M533.459,490.966v 7.09741" fill="none" stroke="black"/>
<path d="M548.457,483.869v 14.1948" fill="none" stroke="black"/>
<path d="M548.457,483.869v 14.1948" fill="none" stroke="black"/>
<text xml:space="preserve" x="63.6174" y="513.956" fill="black" font-size="16.0105" font-family="Helvetica">0</text>
<text xml:space="preserve" x="117.718" y="513.956" fill="black" font-size="16.0105" font-family="Helvetica">0.2</text>
<text xml:space="preserve" x="177.454" y="513.956" fill="black" font-size="16.0105" font-family="Helvetica">0.4</text>
<text xml:space="preserve" x="237.754" y="513.956" fill="black" font-size="16.0105" font-family="Helvetica">0.6</text>
<text xml:space="preserve" x="297.49" y="513.956" fill="black" font-size="16.0105" font-family="Helvetica">0.8</text>
<text xml:space="preserve" x="365.115" y="513.956" fill="black" font-size="16.0105" font-family="Helvetica">1</text>
<text xml:space="preserve" x="417.525" y="513.956" fill="black" font-size="16.0105" font-family="Helvetica">1.2</text>
<text xml:space="preserve" x="477.261" y="513.956" fill="black" font-size="16.0105" font-family="Helvetica">1.4</text>
<text xml:space="preserve" x="537.561" y="513.956" fill="black" font-size="16.0105" font-family="Helvetica">1.6</text>
<text xml:space="preserve" x="548.268" y="537.625" fill="black" font-size="16.0105" font-family="Helvetica">)</text>
<text xml:space="preserve" x="542.633" y="532.553" fill="black" font-size="10.8403" font-family="Helvetica">2</text>
<text xml:space="preserve" x="533.616" y="537.625" fill="black" font-size="16.0105" font-family="Helvetica" font-style="oblique">c</text>
<text xml:space="preserve" x="487.405" y="537.625" fill="black" font-size="16.0105" font-family="Helvetica"> (GeV/</text>
<text xml:space="preserve" x="473.317" y="542.697" fill="black" font-size="10.8403" font-family="Helvetica">inv</text>
<text xml:space="preserve" x="459.792" y="537.625" fill="black" font-size="16.0105" font-family="Helvetica" font-style="oblique">m</text>
<path d="M68.5315,16.6021h 484.724" fill="none" stroke="black"/>
<path d="M68.5315,30.7969v -14.1948" fill="none" stroke="black"/>
<path d="M83.5292,23.6995v -7.09741" fill="none" stroke="black"/>
<path d="M98.5268,23.6995v -7.09741" fill="none" stroke="black"/>
<path d="M113.524,23.6995v -7.09741" fill="none" stroke="black"/>
<path d="M128.522,30.7969v -14.1948" fill="none" stroke="black"/>
<path d="M143.52,23.6995v -7.09741" fill="none" stroke="black"/>
<path d="M158.517,23.6995v -7.09741" fill="none" stroke="black"/>
<path d="M173.515,23.6995v -7.09741" fill="none" stroke="black"/>
<path d="M188.513,30.7969v -14.1948" fill="none" stroke="black"/>
<path d="M203.51,23.6995v -7.09741" fill="none" stroke="black"/>
<path d="M218.508,23.6995v -7.09741" fill="none" stroke="black"/>
<path d="M233.506,23.6995v -7.09741" fill="none" stroke="black"/>
<path d="M248.503,30.7969v -14.1948" fill="none" stroke="black"/>
<path d="M263.501,23.6995v -7.09741" fill="none" stroke="black"/>
<path d="M278.499,23.6995v -7.09741" fill="none" stroke="black"/>
<path d="M293.496,23.6995v -7.09741" fill="none" stroke="black"/>
<path d="M308.494,30.7969v -14.1948" fill="none" stroke="black"/>
<path d="M323.492,23.6995v -7.09741" fill="none" stroke="black"/>
<path d="M338.489,23.6995v -7.09741" fill="none" stroke="black"/>
<path d="M353.487,23.6995v -7.09741" fill="none" stroke="black"/>
<path d="M368.485,30.7969v -14.1948" fill="none" stroke="black"/>
<path d="M383.482,23.6995v -7.09741" fill="none" stroke="black"/>
<path d="M398.48,23.6995v -7.09741" fill="none" stroke="black"/>
<path d="M413.478,23.6995v -7.09741" fill="none" stroke="black"/>
<path d="M428.475,30.7969v -14.1948" fill="none" stroke="black"/>
<path d="M443.473,23.6995v -7.09741" fill="none" stroke="black"/>
<path d="M458.471,23.6995v -7.09741" fill="none" stroke="black"/>
<path d="M473.468,23.6995v -7.09741" fill="none" stroke="black"/>
<path d="M488.466,30.7969v -14.1948" fill="none" stroke="black"/>
<path d="M503.464,23.6995v -7.09741" fill="none" stroke="black"/>
<path d="M518.461,23.6995v -7.09741" fill="none" stroke="black"/>
<path d="M533.459,23.6995v -7.09741" fill="none" stroke="black"/>
<path d="M548.457,30.7969v -14.1948" fill="none" stroke="black"/>
<path d="M548.457,30.7969v -14.1948" fill="none" stroke="black"/>
<path d="M68.5315,498.064v -481.461" fill="none" stroke="black"/>
<path d="M83.3283,498.064h -14.7969" fill="none" stroke="black"/>
<path d="M75.9299,485.931h -7.39843" fill="none" stroke="black"/>
<path d="M75.9299,473.798h -7.39843" fill="none" stroke="black"/>
<path d="M75.9299,461.665h -7.39843" fill="none" stroke="black"/>
<path d="M75.9299,449.532h -7.39843" fill="none" stroke="black"/>
<path d="M83.3283,437.399h -14.7969" fill="none" stroke="black"/>
<path d="M75.9299,425.266h -7.39843" fill="none" stroke="black"/>
<path d="M75.9299,413.133h -7.39843" fill="none" stroke="black"/>
<path d="M75.9299,401h -7.39843" fill="none" stroke="black"/>
<path d="M75.9299,388.867h -7.39843" fill="none" stroke="black"/>
<path d="M83.3283,376.734h -14.7969" fill="none" stroke="black"/>
<path d="M75.9299,364.601h -7.39843" fill="none" stroke="black"/>
<path d="M75.9299,352.469h -7.39843" fill="none" stroke="black"/>
<path d="M75.9299,340.336h -7.39843" fill="none" stroke="black"/>
<path d="M75.9299,328.203h -7.39843" fill="none" stroke="black"/>
<path d="M83.3283,316.07h -14.7969" fill="none" stroke="black"/>
<path d="M75.9299,303.937h -7.39843" fill="none" stroke="black"/>
<path d="M75.9299,291.804h -7.39843" fill="none" stroke="black"/>
<path d="M75.9299,279.671h -7.39843" fill="none" stroke="black"/>
<path d="M75.9299,267.538h -7.39843" fill="none" stroke="black"/>
<path d="M83.3283,255.405h -14.7969" fill="none" stroke="black"/>
<path d="M75.9299,243.272h -7.39843" fill="none" stroke="black"/>
<path d="M75.9299,231.139h -7.39843" fill="none" stroke="black"/>
<path d="M75.9299,219.006h -7.39843" fill="none" stroke="black"/>
<path d="M75.9299,206.873h -7.39843" fill="none" stroke="black"/>
<path d="M83.3283,194.741h -14.7969" fill="none" stroke="black"/>
<path d="M75.9299,182.608h -7.39843" fill="none" stroke="black"/>
<path d="M75.9299,170.475h -7.39843" fill="none" stroke="black"/>
<path d="M75.9299,158.342h -7.39843" fill="none" stroke="black"/>
<path d="M75.9299,146.209h -7.39843" fill="none" stroke="black"/>
<path d="M83.3283,134.076h -14.7969" fill="none" stroke="black"/>
<path d="M75.9299,121.943h -7.39843" fill="none" stroke="black"/>
<path d="M75.9299,109.81h -7.39843" fill="none" stroke="black"/>
<path d="M75.9299,97.6772h -7.39843" fill="none" stroke="black"/>
<path d="M75.9299,85.5443h -7.39843" fill="none" stroke="black"/>
<path d="M83.3283,73.4113h -14.7969" fill="none" stroke="black"/>
<path d="M83.3283,73.4113h -14.7969" fill="none" stroke="black"/>
<path d="M75.9299,61.2784h -7.39843" fill="none" stroke="black"/>
<path d="M75.9299,49.1455h -7.39843" fill="none" stroke="black"/>
<path d="M75.9299,37.0126h -7.39843" fill="none" stroke="black"/>
<path d="M75.9299,24.8796h -7.39843" fill="none" stroke="black"/>
<text xml:space="preserve" x="56.8548" y="503.248" fill="black" font-size="16.0105" font-family="Helvetica">0</text>
<text xml:space="preserve" x="34.8764" y="442.949" fill="black" font-size="16.0105" font-family="Helvetica">0.05</text>
<text xml:space="preserve" x="46.1474" y="382.085" fill="black" font-size="16.0105" font-family="Helvetica">0.1</text>
<text xml:space="preserve" x="34.8764" y="321.222" fill="black" font-size="16.0105" font-family="Helvetica">0.15</text>
<text xml:space="preserve" x="43.8932" y="260.923" fill="black" font-size="16.0105" font-family="Helvetica">0.2</text>
<text xml:space="preserve" x="34.8764" y="200.059" fill="black" font-size="16.0105" font-family="Helvetica">0.25</text>
<text xml:space="preserve" x="43.8932" y="139.196" fill="black" font-size="16.0105" font-family="Helvetica">0.3</text>
<text xml:space="preserve" x="34.8764" y="78.8967" fill="black" font-size="16.0105" font-family="Helvetica">0.35</text>
<g transform="rotate(-90,38.2577,98.0573)">
<text xml:space="preserve" x="38.2577" y="98.0573" fill="black" font-size="16.0105" font-family="Helvetica">background</text>
</g>
<g transform="rotate(-90,21.9148,98.0573)">
<text xml:space="preserve" x="21.9148" y="98.0573" fill="black" font-size="16.0105" font-family="Helvetica">same event</text>
</g>
<path d="M24.169,98.0573l 0.563548, -81.7144" fill="none" stroke="black" stroke-width="2"/>
<path d="M553.256,498.064v -481.461" fill="none" stroke="black"/>
<path d="M538.459,498.064h 14.7969" fill="none" stroke="black"/>
<path d="M545.857,485.931h 7.39843" fill="none" stroke="black"/>
<path d="M545.857,473.798h 7.39843" fill="none" stroke="black"/>
<path d="M545.857,461.665h 7.39843" fill="none" stroke="black"/>
<path d="M545.857,449.532h 7.39843" fill="none" stroke="black"/>
<path d="M538.459,437.399h 14.7969" fill="none" stroke="black"/>
<path d="M545.857,425.266h 7.39843" fill="none" stroke="black"/>
<path d="M545.857,413.133h 7.39843" fill="none" stroke="black"/>
<path d="M545.857,401h 7.39843" fill="none" stroke="black"/>
<path d="M545.857,388.867h 7.39843" fill="none" stroke="black"/>
<path d="M538.459,376.734h 14.7969" fill="none" stroke="black"/>
<path d="M545.857,364.601h 7.39843" fill="none" stroke="black"/>
<path d="M545.857,352.469h 7.39843" fill="none" stroke="black"/>
<path d="M545.857,340.336h 7.39843" fill="none" stroke="black"/>
<path d="M545.857,328.203h 7.39843" fill="none" stroke="black"/>
<path d="M538.459,316.07h 14.7969" fill="none" stroke="black"/>
<path d="M545.857,303.937h 7.39843" fill="none" stroke="black"/>
<path d="M545.857,291.804h 7.39843" fill="none" stroke="black"/>
<path d="M545.857,279.671h 7.39843" fill="none" stroke="black"/>
<path d="M545.857,267.538h 7.39843" fill="none" stroke="black"/>
<path d="M538.459,255.405h 14.7969" fill="none" stroke="black"/>
<path d="M545.857,243.272h 7.39843" fill="none" stroke="black"/>
<path d="M545.857,231.139h 7.39843" fill="none" stroke="black"/>
<path d="M545.857,219.006h 7.39843" fill="none" stroke="black"/>
<path d="M545.857,206.873h 7.39843" fill="none" stroke="black"/>
<path d="M538.459,194.741h 14.7969" fill="none" stroke="black"/>
<path d="M545.857,182.608h 7.39843" fill="none" stroke="black"/>
<path d="M545.857,170.475h 7.39843" fill="none" stroke="black"/>
<path d="M545.857,158.342h 7.39843" fill="none" stroke="black"/>
<path d="M545.857,146.209h 7.39843" fill="none" stroke="black"/>
<path d="M538.459,134.076h 14.7969" fill="none" stroke="black"/>
<path d="M545.857,121.943h 7.39843" fill="none" stroke="black"/>
<path d="M545.857,109.81h 7.39843" fill="none" stroke="black"/>
<path d="M545.857,97.6772h 7.39843" fill="none" stroke="black"/>
<path d="M545.857,85.5443h 7.39843" fill="none" stroke="black"/>
<path d="M538.459,73.4113h 14.7969" fill="none" stroke="black"/>
<path d="M538.459,73.4113h 14.7969" fill="none" stroke="black"/>
<path d="M545.857,61.2784h 7.39843" fill="none" stroke="black"/>
<path d="M545.857,49.1455h 7.39843" fill="none" stroke="black"/>
<path d="M545.857,37.0126h 7.39843" fill="none" stroke="black"/>
<path d="M545.857,24.8796h 7.39843" fill="none" stroke="black"/>
<g stroke="#333333" stroke-width="2" fill="none">
<circle cx="282.098" cy="302.309" r="5.63548"/>
</g>
<g stroke="#333333" stroke-width="2" fill="none">
<circle cx="286.897" cy="301.627" r="5.63548"/>
</g>
<g stroke="#333333" stroke-width="2" fill="none">
<circle cx="291.697" cy="298.756" r="5.63548"/>
</g>
<g stroke="#333333" stroke-width="2" fill="none">
<circle cx="296.496" cy="296.155" r="5.63548"/>
</g>
<g stroke="#333333" stroke-width="2" fill="none">
<circle cx="301.295" cy="293.198" r="5.63548"/>
</g>
<g stroke="#333333" stroke-width="2" fill="none">
<circle cx="306.094" cy="291.733" r="5.63548"/>
</g>
<g stroke="#333333" stroke-width="2" fill="none">
<circle cx="310.894" cy="289.276" r="5.63548"/>
</g>
<g stroke="#333333" stroke-width="2" fill="none">
<circle cx="315.693" cy="286.318" r="5.63548"/>
</g>
<g stroke="#333333" stroke-width="2" fill="none">
<circle cx="320.492" cy="284.602" r="5.63548"/>
</g>
<g stroke="#333333" stroke-width="2" fill="none">
<circle cx="325.291" cy="282.058" r="5.63548"/>
</g>
<g stroke="#333333" stroke-width="2" fill="none">
<circle cx="330.091" cy="278.727" r="5.63548"/>
</g>
<g stroke="#333333" stroke-width="2" fill="none">
<circle cx="334.89" cy="279.649" r="5.63548"/>
</g>
<path d="M98.7518,409.054l 0.44993, -0.244365l 0.44993, -0.244365l 0.44993, -0.244365l 0.44993, -0.244365l 0.44993, -0.244365l 0.44993, -0.244365l 0.44993, -0.244365l 0.44993, -0.244365l 0.44993, -0.244365l 0.44993, -0.244365l 0.44993, -0.244365l
 0.44993, -0.244365l 0.44993, -0.244365l 0.44993, -0.244365l 0.44993, -0.244365l 0.44993, -0.244365l 0.44993, -0.244365l 0.44993, -0.244365l 0.44993, -0.244365l 0.44993, -0.244365l 0.44993, -0.244365l 0.44993, -0.244365l 0.44993, -0.244365l 0.44993,
 -0.244365l 0.44993, -0.244365l 0.44993, -0.244365l 0.44993, -0.244365l 0.44993, -0.244365l 0.44993, -0.244365l 0.44993, -0.244365l 0.44993, -0.244365l 0.44993, -0.244365l 0.44993, -0.244365l 0.44993, -0.244365l 0.44993, -0.244365l 0.44993,
 -0.244365l 0.44993, -0.244365l 0.44993, -0.244365l 0.44993, -0.244365l 0.44993, -0.244365l 0.44993, -0.244365l 0.44993, -0.244365l 0.44993, -0.244365l 0.44993, -0.244365l 0.44993, -0.244365l 0.44993, -0.244365l 0.44993, -0.244365l 0.44993,
 -0.244365l 0.44993, -0.244365" fill="none" stroke="#33cccc" stroke-width="3"/>
<path d="M120.798,397.08l 0.44993, -0.244365l 0.44993, -0.244365l 0.44993, -0.244365l 0.44993, -0.244365l 0.44993, -0.244365l 0.44993, -0.244365l 0.44993, -0.244365l 0.44993, -0.244365l 0.44993, -0.244365l 0.44993, -0.244365l 0.44993, -0.244365l
 0.44993, -0.244365l 0.44993, -0.244365l 0.44993, -0.244365l 0.44993, -0.244365l 0.44993, -0.244365l 0.44993, -0.244365l 0.44993, -0.244365l 0.44993, -0.244365l 0.44993, -0.244365l 0.44993, -0.244365l 0.44993, -0.244365l 0.44993, -0.244365l 0.44993,
 -0.244365l 0.44993, -0.244365l 0.44993, -0.244365l 0.44993, -0.244365l 0.44993, -0.244365l 0.44993, -0.244365l 0.44993, -0.244365l 0.44993, -0.244365l 0.44993, -0.244365l 0.44993, -0.244365l 0.44993, -0.244365l 0.44993, -0.244365l 0.44993,
 -0.244365l 0.44993, -0.244365l 0.44993, -0.244365l 0.44993, -0.244365l 0.44993, -0.244365l 0.44993, -0.244365l 0.44993, -0.244365l 0.44993, -0.244365l 0.44993, -0.244365l 0.44993, -0.244365l 0.44993, -0.244365l 0.44993, -0.244365l 0.44993,
 -0.244365l 0.44993, -0.244365" fill="none" stroke="#33cccc" stroke-width="3"/>
<path d="M142.845,385.107l 0.44993, -0.244365l 0.44993, -0.244365l 0.44993, -0.244365l 0.44993, -0.244365l 0.44993, -0.244365l 0.44993, -0.244365l 0.44993, -0.244365l 0.44993, -0.244365l 0.44993, -0.244365l 0.44993, -0.244365l 0.44993, -0.244365l
 0.44993, -0.244365l 0.44993, -0.244365l 0.44993, -0.244365l 0.44993, -0.244365l 0.44993, -0.244365l 0.44993, -0.244365l 0.44993, -0.244365l 0.44993, -0.244365l 0.44993, -0.244365l 0.44993, -0.244365l 0.44993, -0.244365l 0.44993, -0.244365l 0.44993,
 -0.244365l 0.44993, -0.244365l 0.44993, -0.244365l 0.44993, -0.244365l 0.44993, -0.244365l 0.44993, -0.244365l 0.44993, -0.244365l 0.44993, -0.244365l 0.44993, -0.244365l 0.44993, -0.244365l 0.44993, -0.244365l 0.44993, -0.244365l 0.44993,
 -0.244365l 0.44993, -0.244365l 0.44993, -0.244365l 0.44993, -0.244365l 0.44993, -0.244365l 0.44993, -0.244365l 0.44993, -0.244365l 0.44993, -0.244365l 0.44993, -0.244365l 0.44993, -0.244365l 0.44993, -0.244365l 0.44993, -0.244365l 0.44993,
 -0.244365l 0.44993, -0.244365" fill="none" stroke="#33cccc" stroke-width="3"/>
<path d="M164.891,373.133l 0.44993, -0.244365l 0.44993, -0.244365l 0.44993, -0.244365l 0.44993, -0.244365l 0.44993, -0.244365l 0.44993, -0.244365l 0.44993, -0.244365l 0.44993, -0.244365l 0.44993, -0.244365l 0.44993, -0.244365l 0.44993, -0.244365l
 0.44993, -0.244365l 0.44993, -0.244365l 0.44993, -0.244365l 0.44993, -0.244365l 0.44993, -0.244365l 0.44993, -0.244365l 0.44993, -0.244365l 0.44993, -0.244365l 0.44993, -0.244365l 0.44993, -0.244365l 0.44993, -0.244365l 0.44993, -0.244365l 0.44993,
 -0.244365l 0.44993, -0.244365l 0.44993, -0.244365l 0.44993, -0.244365l 0.44993, -0.244365l 0.44993, -0.244365l 0.44993, -0.244365l 0.44993, -0.244365l 0.44993, -0.244365l 0.44993, -0.244365l 0.44993, -0.244365l 0.44993, -0.244365l 0.44993,
 -0.244365l 0.44993, -0.244365l 0.44993, -0.244365l 0.44993, -0.244365l 0.44993, -0.244365l 0.44993, -0.244365l 0.44993, -0.244365l 0.44993, -0.244365l 0.44993, -0.244365l 0.44993, -0.244365l 0.44993, -0.244365l 0.44993, -0.244365l 0.44993,
 -0.244365l 0.44993, -0.244365" fill="none" stroke="#33cccc" stroke-width="3"/>
<path d="M186.938,361.159l 0.44993, -0.244365l 0.44993, -0.244365l 0.44993, -0.244365l 0.44993, -0.244365l 0.44993, -0.244365l 0.44993, -0.244365l 0.44993, -0.244365l 0.44993, -0.244365l 0.44993, -0.244365l 0.44993, -0.244365l 0.44993, -0.244365l
 0.44993, -0.244365l 0.44993, -0.244365l 0.44993, -0.244365l 0.44993, -0.244365l 0.44993, -0.244365l 0.44993, -0.244365l 0.44993, -0.244365l 0.44993, -0.244365l 0.44993, -0.244365l 0.44993, -0.244365l 0.44993, -0.244365l 0.44993, -0.244365l 0.44993,
 -0.244365l 0.44993, -0.244365l 0.44993, -0.244365l 0.44993, -0.244365l 0.44993, -0.244365l 0.44993, -0.244365l 0.44993, -0.244365l 0.44993, -0.244365l 0.44993, -0.244365l 0.44993, -0.244365l 0.44993, -0.244365l 0.44993, -0.244365l 0.44993,
 -0.244365l 0.44993, -0.244365l 0.44993, -0.244365l 0.44993, -0.244365l 0.44993, -0.244365l 0.44993, -0.244365l 0.44993, -0.244365l 0.44993, -0.244365l 0.44993, -0.244365l 0.44993, -0.244365l 0.44993, -0.244365l 0.44993, -0.244365l 0.44993,
 -0.244365l 0.44993, -0.244365" fill="none" stroke="#33cccc" stroke-width="3"/>
<path d="M208.985,349.185l 0.44993, -0.244365l 0.44993, -0.244365l 0.44993, -0.244365l 0.44993, -0.244365l 0.44993, -0.244365l 0.44993, -0.244365l 0.44993, -0.244365l 0.44993, -0.244365l 0.44993, -0.244365l 0.44993, -0.244365l 0.44993, -0.244365l
 0.44993, -0.244365l 0.44993, -0.244365l 0.44993, -0.244365l 0.44993, -0.244365l 0.44993, -0.244365l 0.44993, -0.244365l 0.44993, -0.244365l 0.44993, -0.244365l 0.44993, -0.244365l 0.44993, -0.244365l 0.44993, -0.244365l 0.44993, -0.244365l 0.44993,
 -0.244365l 0.44993, -0.244365l 0.44993, -0.244365l 0.44993, -0.244365l 0.44993, -0.244365l 0.44993, -0.244365l 0.44993, -0.244365l 0.44993, -0.244365l 0.44993, -0.244365l 0.44993, -0.244365l 0.44993, -0.244365l 0.44993, -0.244365l 0.44993,
 -0.244365l 0.44993, -0.244365l 0.44993, -0.244365l 0.44993, -0.244365l 0.44993, -0.244365l 0.44993, -0.244365l 0.44993, -0.244365l 0.44993, -0.244365l 0.44993, -0.244365l 0.44993, -0.244365l 0.44993, -0.244365l 0.44993, -0.244365l 0.44993,
 -0.244365l 0.44993, -0.244365" fill="none" stroke="#33cccc" stroke-width="3"/>
<path d="M231.031,337.211l 0.44993, -0.244365l 0.44993, -0.244365l 0.44993, -0.244365l 0.44993, -0.244365l 0.44993, -0.244365l 0.44993, -0.244365l 0.44993, -0.244365l 0.44993, -0.244365l 0.44993, -0.244365l 0.44993, -0.244365l 0.44993, -0.244365l
 0.44993, -0.244365l 0.44993, -0.244365l 0.44993, -0.244365l 0.44993, -0.244365l 0.44993, -0.244365l 0.44993, -0.244365l 0.44993, -0.244365l 0.44993, -0.244365l 0.44993, -0.244365l 0.44993, -0.244365l 0.44993, -0.244365l 0.44993, -0.244365l 0.44993,
 -0.244365l 0.44993, -0.244365l 0.44993, -0.244365l 0.44993, -0.244365l 0.44993, -0.244365l 0.44993, -0.244365l 0.44993, -0.244365l 0.44993, -0.244365l 0.44993, -0.244365l 0.44993, -0.244365l 0.44993, -0.244365l 0.44993, -0.244365l 0.44993,
 -0.244365l 0.44993, -0.244365l 0.44993, -0.244365l 0.44993, -0.244365l 0.44993, -0.244365l 0.44993, -0.244365l 0.44993, -0.244365l 0.44993, -0.244365l 0.44993, -0.244365l 0.44993, -0.244365l 0.44993, -0.244365l 0.44993, -0.244365l 0.44993,
 -0.244365l 0.44993, -0.244365" fill="none" stroke="#33cccc" stroke-width="3"/>
<path d="M253.078,325.237l 0.44993, -0.244365l 0.44993, -0.244365l 0.44993, -0.244365l 0.44993, -0.244365l 0.44993, -0.244365l 0.44993, -0.244365l 0.44993, -0.244365l 0.44993, -0.244365l 0.44993, -0.244365l 0.44993, -0.244365l 0.44993, -0.244365l
 0.44993, -0.244365l 0.44993, -0.244365l 0.44993, -0.244365l 0.44993, -0.244365l 0.44993, -0.244365l 0.44993, -0.244365l 0.44993, -0.244365l 0.44993, -0.244365l 0.44993, -0.244365l 0.44993, -0.244365l 0.44993, -0.244365l 0.44993, -0.244365l 0.44993,
 -0.244365l 0.44993, -0.244365l 0.44993, -0.244365l 0.44993, -0.244365l 0.44993, -0.244365l 0.44993, -0.244365l 0.44993, -0.244365l 0.44993, -0.244365l 0.44993, -0.244365l 0.44993, -0.244365l 0.44993, -0.244365l 0.44993, -0.244365l 0.44993,
 -0.244365l 0.44993, -0.244365l 0.44993, -0.244365l 0.44993, -0.244365l 0.44993, -0.244365l 0.44993, -0.244365l 0.44993, -0.244365l 0.44993, -0.244365l 0.44993, -0.244365l 0.44993, -0.244365l 0.44993, -0.244365l 0.44993, -0.244365l 0.44993,
 -0.244365l 0.44993, -0.244365" fill="none" stroke="#33cccc" stroke-width="3"/>
<path d="M275.124,313.263l 0.44993, -0.244365l 0.44993, -0.244365l 0.44993, -0.244365l 0.44993, -0.244365l 0.44993, -0.244365l 0.44993, -0.244365l 0.44993, -0.244365l 0.44993, -0.244365l 0.44993, -0.244365l 0.44993, -0.244365l 0.44993, -0.244365l
 0.44993, -0.244365l 0.44993, -0.244365l 0.44993, -0.244365l 0.44993, -0.244365l 0.44993, -0.244365l 0.44993, -0.244365l 0.44993, -0.244365l 0.44993, -0.244365l 0.44993, -0.244365l 0.44993, -0.244365l 0.44993, -0.244365l 0.44993, -0.244365l 0.44993,
 -0.244365l 0.44993, -0.244365l 0.44993, -0.244365l 0.44993, -0.244365l 0.44993, -0.244365l 0.44993, -0.244365l 0.44993, -0.244365l 0.44993, -0.244365l 0.44993, -0.244365l 0.44993, -0.244365l 0.44993, -0.244365l 0.44993, -0.244365l 0.44993,
 -0.244365l 0.44993, -0.244365l 0.44993, -0.244365l 0.44993, -0.244365l 0.44993, -0.244365l 0.44993, -0.244365l 0.44993, -0.244365l 0.44993, -0.244365l 0.44993, -0.244365l 0.44993, -0.244365l 0.44993, -0.244365l 0.44993, -0.244365l 0.44993,
 -0.244365l 0.44993, -0.244365" fill="none" stroke="#33cccc" stroke-width="3"/>
<path d="M297.171,301.289l 0.44993, -0.244365l 0.44993, -0.244365l 0.44993, -0.244365l 0.44993, -0.244365l 0.44993, -0.244365l 0.44993, -0.244365l 0.44993, -0.244365l 0.44993, -0.244365l 0.44993, -0.244365l 0.44993, -0.244365l 0.44993, -0.244365l
 0.44993, -0.244365l 0.44993, -0.244365l 0.44993, -0.244365l 0.44993, -0.244365l 0.44993, -0.244365l 0.44993, -0.244365l 0.44993, -0.244365l 0.44993, -0.244365l 0.44993, -0.244365l 0.44993, -0.244365l 0.44993, -0.244365l 0.44993, -0.244365l 0.44993,
 -0.244365l 0.44993, -0.244365l 0.44993, -0.244365l 0.44993, -0.244365l 0.44993, -0.244365l 0.44993, -0.244365l 0.44993, -0.244365l 0.44993, -0.244365l 0.44993, -0.244365l 0.44993, -0.244365l 0.44993, -0.244365l 0.44993, -0.244365l 0.44993,
 -0.244365l 0.44993, -0.244365l 0.44993, -0.244365l 0.44993, -0.244365l 0.44993, -0.244365l 0.44993, -0.244365l 0.44993, -0.244365l 0.44993, -0.244365l 0.44993, -0.244365l 0.44993, -0.244365l 0.44993, -0.244365l 0.44993, -0.244365l 0.44993,
 -0.244365l 0.44993, -0.244365" fill="none" stroke="#33cccc" stroke-width="3"/>
<path d="M319.217,289.316l 0.44993, -0.244365l 0.44993, -0.244365l 0.44993, -0.244365l 0.44993, -0.244365l 0.44993, -0.244365l 0.44993, -0.244365l 0.44993, -0.244365l 0.44993, -0.244365l 0.44993, -0.244365l 0.44993, -0.244365l 0.44993, -0.244365l
 0.44993, -0.244365l 0.44993, -0.244365l 0.44993, -0.244365l 0.44993, -0.244365l 0.44993, -0.244365l 0.44993, -0.244365l 0.44993, -0.244365l 0.44993, -0.244365l 0.44993, -0.244365l 0.44993, -0.244365l 0.44993, -0.244365l 0.44993, -0.244365l 0.44993,
 -0.244365l 0.44993, -0.244365l 0.44993, -0.244365l 0.44993, -0.244365l 0.44993, -0.244365l 0.44993, -0.244365l 0.44993, -0.244365l 0.44993, -0.244365l 0.44993, -0.244365l 0.44993, -0.244365l 0.44993, -0.244365l 0.44993, -0.244365l 0.44993,
 -0.244365l 0.44993, -0.244365l 0.44993, -0.244365l 0.44993, -0.244365l 0.44993, -0.244365l 0.44993, -0.244365l 0.44993, -0.244365l 0.44993, -0.244365l 0.44993, -0.244365l 0.44993, -0.244365l 0.44993, -0.244365l 0.44993, -0.244365l 0.44993,
 -0.244365l 0.44993, -0.244365" fill="none" stroke="#33cccc" stroke-width="3"/>
<path d="M341.264,277.342l 0.44993, -0.244365l 0.44993, -0.244365l 0.44993, -0.244365l 0.44993, -0.244365l 0.44993, -0.244365l 0.44993, -0.244365l 0.44993, -0.244365l 0.44993, -0.244365l 0.44993, -0.244365l 0.44993, -0.244365l 0.44993, -0.244365l
 0.44993, -0.244365l 0.44993, -0.244365l 0.44993, -0.244365l 0.44993, -0.244365l 0.44993, -0.244365l 0.44993, -0.244365l 0.44993, -0.244365l 0.44993, -0.244365l 0.44993, -0.244365l 0.44993, -0.244365l 0.44993, -0.244365l 0.44993, -0.244365l 0.44993,
 -0.244365l 0.44993, -0.244365l 0.44993, -0.244365l 0.44993, -0.244365l 0.44993, -0.244365l 0.44993, -0.244365l 0.44993, -0.244365l 0.44993, -0.244365l 0.44993, -0.244365l 0.44993, -0.244365l 0.44993, -0.244365l 0.44993, -0.244365l 0.44993,
 -0.244365l 0.44993, -0.244365l 0.44993, -0.244365l 0.44993, -0.244365l 0.44993, -0.244365l 0.44993, -0.244365l 0.44993, -0.244365l 0.44993, -0.244365l 0.44993, -0.244365l 0.44993, -0.244365l 0.44993, -0.244365l 0.44993, -0.244365l 0.44993,
 -0.244365l 0.44993, -0.244365" fill="none" stroke="#33cccc" stroke-width="3"/>
<path d="M363.311,265.368l 0.44993, -0.244365l 0.44993, -0.244365l 0.44993, -0.244365l 0.44993, -0.244365l 0.44993, -0.244365l 0.44993, -0.244365l 0.44993, -0.244365l 0.44993, -0.244365l 0.44993, -0.244365l 0.44993, -0.244365l 0.44993, -0.244365l
 0.44993, -0.244365l 0.44993, -0.244365l 0.44993, -0.244365l 0.44993, -0.244365l 0.44993, -0.244365l 0.44993, -0.244365l 0.44993, -0.244365l 0.44993, -0.244365l 0.44993, -0.244365l 0.44993, -0.244365l 0.44993, -0.244365l 0.44993, -0.244365l 0.44993,
 -0.244365l 0.44993, -0.244365l 0.44993, -0.244365l 0.44993, -0.244365l 0.44993, -0.244365l 0.44993, -0.244365l 0.44993, -0.244365l 0.44993, -0.244365l 0.44993, -0.244365l 0.44993, -0.244365l 0.44993, -0.244365l 0.44993, -0.244365l 0.44993,
 -0.244365l 0.44993, -0.244365l 0.44993, -0.244365l 0.44993, -0.244365l 0.44993, -0.244365l 0.44993, -0.244365l 0.44993, -0.244365l 0.44993, -0.244365l 0.44993, -0.244365l 0.44993, -0.244365l 0.44993, -0.244365l 0.44993, -0.244365l 0.44993,
 -0.244365l 0.44993, -0.244365" fill="none" stroke="#33cccc" stroke-width="3"/>
<path d="M385.357,253.394l 0.44993, -0.244365l 0.44993, -0.244365l 0.44993, -0.244365l 0.44993, -0.244365l 0.44993, -0.244365l 0.44993, -0.244365l 0.44993, -0.244365l 0.44993, -0.244365l 0.44993, -0.244365l 0.44993, -0.244365l 0.44993, -0.244365l
 0.44993, -0.244365l 0.44993, -0.244365l 0.44993, -0.244365l 0.44993, -0.244365l 0.44993, -0.244365l 0.44993, -0.244365l 0.44993, -0.244365l 0.44993, -0.244365l 0.44993, -0.244365l 0.44993, -0.244365l 0.44993, -0.244365l 0.44993, -0.244365l 0.44993,
 -0.244365l 0.44993, -0.244365l 0.44993, -0.244365l 0.44993, -0.244365l 0.44993, -0.244365l 0.44993, -0.244365l 0.44993, -0.244365l 0.44993, -0.244365l 0.44993, -0.244365l 0.44993, -0.244365l 0.44993, -0.244365l 0.44993, -0.244365l 0.44993,
 -0.244365l 0.44993, -0.244365l 0.44993, -0.244365l 0.44993, -0.244365l 0.44993, -0.244365l 0.44993, -0.244365l 0.44993, -0.244365l 0.44993, -0.244365l 0.44993, -0.244365l 0.44993, -0.244365l 0.44993, -0.244365l 0.44993, -0.244365l 0.44993,
 -0.244365l 0.44993, -0.244365" fill="none" stroke="#33cccc" stroke-width="3"/>
<path d="M407.404,241.42l 0.44993, -0.244365l 0.44993, -0.244365l 0.44993, -0.244365l 0.44993, -0.244365l 0.44993, -0.244365l 0.44993, -0.244365l 0.44993, -0.244365l 0.44993, -0.244365l 0.44993, -0.244365l 0.44993, -0.244365l 0.44993, -0.244365l
 0.44993, -0.244365l 0.44993, -0.244365l 0.44993, -0.244365l 0.44993, -0.244365l 0.44993, -0.244365l 0.44993, -0.244365l 0.44993, -0.244365l 0.44993, -0.244365l 0.44993, -0.244365l 0.44993, -0.244365l 0.44993, -0.244365l 0.44993, -0.244365l 0.44993,
 -0.244365l 0.44993, -0.244365l 0.44993, -0.244365l 0.44993, -0.244365l 0.44993, -0.244365l 0.44993, -0.244365l 0.44993, -0.244365l 0.44993, -0.244365l 0.44993, -0.244365l 0.44993, -0.244365l 0.44993, -0.244365l 0.44993, -0.244365l 0.44993,
 -0.244365l 0.44993, -0.244365l 0.44993, -0.244365l 0.44993, -0.244365l 0.44993, -0.244365l 0.44993, -0.244365l 0.44993, -0.244365l 0.44993, -0.244365l 0.44993, -0.244365l 0.44993, -0.244365l 0.44993, -0.244365l 0.44993, -0.244365l 0.44993,
 -0.244365l 0.44993, -0.244365" fill="none" stroke="#33cccc" stroke-width="3"/>
<path d="M429.45,229.446l 0.44993, -0.244365l 0.44993, -0.244365l 0.44993, -0.244365l 0.44993, -0.244365l 0.44993, -0.244365l 0.44993, -0.244365l 0.44993, -0.244365l 0.44993, -0.244365l 0.44993, -0.244365l 0.44993, -0.244365l 0.44993, -0.244365l
 0.44993, -0.244365l 0.44993, -0.244365l 0.44993, -0.244365l 0.44993, -0.244365l 0.44993, -0.244365l 0.44993, -0.244365l 0.44993, -0.244365l 0.44993, -0.244365l 0.44993, -0.244365l 0.44993, -0.244365l 0.44993, -0.244365l 0.44993, -0.244365l 0.44993,
 -0.244365l 0.44993, -0.244365l 0.44993, -0.244365l 0.44993, -0.244365l 0.44993, -0.244365l 0.44993, -0.244365l 0.44993, -0.244365l 0.44993, -0.244365l 0.44993, -0.244365l 0.44993, -0.244365l 0.44993, -0.244365l 0.44993, -0.244365l 0.44993,
 -0.244365l 0.44993, -0.244365l 0.44993, -0.244365l 0.44993, -0.244365l 0.44993, -0.244365l 0.44993, -0.244365l 0.44993, -0.244365l 0.44993, -0.244365l 0.44993, -0.244365l 0.44993, -0.244365l 0.44993, -0.244365l 0.44993, -0.244365l 0.44993,
 -0.244365l 0.44993, -0.244365" fill="none" stroke="#33cccc" stroke-width="3"/>
<path d="M451.497,217.472l 0.44993, -0.244365l 0.44993, -0.244365l 0.44993, -0.244365l 0.44993, -0.244365l 0.44993, -0.244365l 0.44993, -0.244365l 0.44993, -0.244365l 0.44993, -0.244365l 0.44993, -0.244365l 0.44993, -0.244365l 0.44993, -0.244365l
 0.44993, -0.244365l 0.44993, -0.244365l 0.44993, -0.244365l 0.44993, -0.244365l 0.44993, -0.244365l 0.44993, -0.244365l 0.44993, -0.244365l 0.44993, -0.244365l 0.44993, -0.244365l 0.44993, -0.244365l 0.44993, -0.244365l 0.44993, -0.244365l 0.44993,
 -0.244365l 0.44993, -0.244365l 0.44993, -0.244365l 0.44993, -0.244365l 0.44993, -0.244365l 0.44993, -0.244365l 0.44993, -0.244365l 0.44993, -0.244365l 0.44993, -0.244365l 0.44993, -0.244365l 0.44993, -0.244365l 0.44993, -0.244365l 0.44993,
 -0.244365l 0.44993, -0.244365l 0.44993, -0.244365l 0.44993, -0.244365l 0.44993, -0.244365l 0.44993, -0.244365l 0.44993, -0.244365l 0.44993, -0.244365l 0.44993, -0.244365l 0.44993, -0.244365l 0.44993, -0.244365l 0.44993, -0.244365l 0.44993,
 -0.244365l 0.44993, -0.244365" fill="none" stroke="#33cccc" stroke-width="3"/>
<path d="M473.543,205.498l 0.44993, -0.244365l 0.44993, -0.244365l 0.44993, -0.244365l 0.44993, -0.244365l 0.44993, -0.244365l 0.44993, -0.244365l 0.44993, -0.244365l 0.44993, -0.244365l 0.44993, -0.244365l 0.44993, -0.244365l 0.44993, -0.244365l
 0.44993, -0.244365l 0.44993, -0.244365l 0.44993, -0.244365l 0.44993, -0.244365l 0.44993, -0.244365l 0.44993, -0.244365l 0.44993, -0.244365l 0.44993, -0.244365l 0.44993, -0.244365l 0.44993, -0.244365l 0.44993, -0.244365l 0.44993, -0.244365l 0.44993,
 -0.244365l 0.44993, -0.244365l 0.44993, -0.244365l 0.44993, -0.244365l 0.44993, -0.244365l 0.44993, -0.244365l 0.44993, -0.244365l 0.44993, -0.244365l 0.44993, -0.244365l 0.44993, -0.244365l 0.44993, -0.244365l 0.44993, -0.244365l 0.44993,
 -0.244365l 0.44993, -0.244365l 0.44993, -0.244365l 0.44993, -0.244365l 0.44993, -0.244365l 0.44993, -0.244365l 0.44993, -0.244365l 0.44993, -0.244365l 0.44993, -0.244365l 0.44993, -0.244365l 0.44993, -0.244365l 0.44993, -0.244365l 0.44993,
 -0.244365l 0.44993, -0.244365" fill="none" stroke="#33cccc" stroke-width="3"/>
<path d="M495.59,193.525l 0.44993, -0.244365l 0.44993, -0.244365l 0.44993, -0.244365l 0.44993, -0.244365l 0.44993, -0.244365l 0.44993, -0.244365l 0.44993, -0.244365l 0.44993, -0.244365l 0.44993, -0.244365l 0.44993, -0.244365l 0.44993, -0.244365l
 0.44993, -0.244365l 0.44993, -0.244365l 0.44993, -0.244365l 0.44993, -0.244365l 0.44993, -0.244365l 0.44993, -0.244365l 0.44993, -0.244365l 0.44993, -0.244365l 0.44993, -0.244365l 0.44993, -0.244365l 0.44993, -0.244365l 0.44993, -0.244365l 0.44993,
 -0.244365l 0.44993, -0.244365l 0.44993, -0.244365l 0.44993, -0.244365l 0.44993, -0.244365l 0.44993, -0.244365l 0.44993, -0.244365l 0.44993, -0.244365l 0.44993, -0.244365l 0.44993, -0.244365l 0.44993, -0.244365l 0.44993, -0.244365l 0.44993,
 -0.244365l 0.44993, -0.244365l 0.44993, -0.244365l 0.44993, -0.244365l 0.44993, -0.244365l 0.44993, -0.244365l 0.44993, -0.244365l 0.44993, -0.244365l 0.44993, -0.244365l 0.44993, -0.244365l 0.44993, -0.244365l 0.44993, -0.244365l 0.44993,
 -0.244365l 0.44993, -0.244365" fill="none" stroke="#33cccc" stroke-width="3"/>
<path d="M517.636,181.551l 0.44993, -0.244365l 0.44993, -0.244365l 0.44993, -0.244365l 0.44993, -0.244365l 0.44993, -0.244365l 0.44993, -0.244365l 0.44993, -0.244365l 0.44993, -0.244365l 0.44993, -0.244365l 0.44993, -0.244365l 0.44993, -0.244365l
 0.44993, -0.244365l 0.44993, -0.244365l 0.44993, -0.244365l 0.44993, -0.244365l 0.44993, -0.244365l 0.44993, -0.244365l 0.44993, -0.244365l 0.44993, -0.244365l 0.44993, -0.244365l 0.44993, -0.244365l 0.44993, -0.244365l 0.44993, -0.244365l 0.44993,
 -0.244365l 0.44993, -0.244365l 0.44993, -0.244365l 0.44993, -0.244365l 0.44993, -0.244365l 0.44993, -0.244365l 0.44993, -0.244365l 0.44993, -0.244365l 0.44993, -0.244365l 0.44993, -0.244365l 0.44993, -0.244365l 0.44993, -0.244365l 0.44993,
 -0.244365l 0.44993, -0.244365l 0.44993, -0.244365l 0.44993, -0.244365l 0.44993, -0.244365l 0.44993, -0.244365l 0.44993, -0.244365l 0.44993, -0.244365l 0.44993, -0.244365l 0.44993, -0.244365l 0.44993, -0.244365l 0.44993, -0.244365l 0.44993,
 -0.244365l 0.44993, -0.244365" fill="none" stroke="#33cccc" stroke-width="3"/>
<path d="M539.683,169.577l 0.44993, -0.244365l 0.44993, -0.244365l 0.44993, -0.244365l 0.44993, -0.244365l 0.44993, -0.244365l 0.44993, -0.244365l 0.44993, -0.244365l 0.44993, -0.244365l 0.44993, -0.244365l 0.44993, -0.244365l 0.44993, -0.244365l
 0.44993, -0.244365l 0.44993, -0.244365l 0.44993, -0.244365l 0.44993, -0.244365l 0.44993, -0.244365l 0.44993, -0.244365l 0.44993, -0.244365l 0.44993, -0.244365" fill="none" stroke="#33cccc" stroke-width="3"/>
<path d="M98.7518,425.418l 0.44993, -0.342792l 0.44993, -0.342569l 0.44993, -0.342346l 0.44993, -0.342122l 0.44993, -0.341899l 0.44993, -0.341676l 0.44993, -0.341453l 0.44993, -0.341229l 0.44993, -0.341006l 0.44993, -0.340783l 0.44993, -0.34056l
 0.44993, -0.340337l 0.44993, -0.340113l 0.44993, -0.33989l 0.44993, -0.339667l 0.44993, -0.339444l 0.44993, -0.33922l 0.44993, -0.338997l 0.44993, -0.338774l 0.44993, -0.338551l 0.44993, -0.338327l 0.44993, -0.338104l 0.44993, -0.337881l 0.44993,
 -0.337658l 0.44993, -0.337434l 0.44993, -0.337211l 0.44993, -0.336988l 0.44993, -0.336765l 0.44993, -0.336541l 0.44993, -0.336318l 0.44993, -0.336095l 0.44993, -0.335872l 0.44993, -0.335648l 0.44993, -0.335425l 0.44993, -0.335202l 0.44993,
 -0.334979l 0.44993, -0.334755l 0.44993, -0.334532l 0.44993, -0.334309l 0.44993, -0.334086l 0.44993, -0.333863l 0.44993, -0.333639l 0.44993, -0.333416l 0.44993, -0.333193l 0.44993, -0.33297l 0.44993, -0.332746l 0.44993, -0.332523l 0.44993, -0.3323l
 0.44993, -0.332077" fill="none" stroke="#ff0066" stroke-width="3"/>
<path d="M120.798,408.884l 0.44993, -0.331853l 0.44993, -0.33163l 0.44993, -0.331407l 0.44993, -0.331184l 0.44993, -0.33096l 0.44993, -0.330737l 0.44993, -0.330514l 0.44993, -0.330291l 0.44993, -0.330067l 0.44993, -0.329844l 0.44993, -0.329621l
 0.44993, -0.329398l 0.44993, -0.329174l 0.44993, -0.328951l 0.44993, -0.328728l 0.44993, -0.328505l 0.44993, -0.328281l 0.44993, -0.328058l 0.44993, -0.327835l 0.44993, -0.327612l 0.44993, -0.327388l 0.44993, -0.327165l 0.44993, -0.326942l 0.44993,
 -0.326719l 0.44993, -0.326496l 0.44993, -0.326272l 0.44993, -0.326049l 0.44993, -0.325826l 0.44993, -0.325603l 0.44993, -0.325379l 0.44993, -0.325156l 0.44993, -0.324933l 0.44993, -0.32471l 0.44993, -0.324486l 0.44993, -0.324263l 0.44993, -0.32404l
 0.44993, -0.323817l 0.44993, -0.323593l 0.44993, -0.32337l 0.44993, -0.323147l 0.44993, -0.322924l 0.44993, -0.3227l 0.44993, -0.322477l 0.44993, -0.322254l 0.44993, -0.322031l 0.44993, -0.321807l 0.44993, -0.321584l 0.44993, -0.321361l 0.44993,
 -0.321138" fill="none" stroke="#ff0066" stroke-width="3"/>
<path d="M142.845,392.885l 0.44993, -0.320914l 0.44993, -0.320691l 0.44993, -0.320468l 0.44993, -0.320245l 0.44993, -0.320022l 0.44993, -0.319798l 0.44993, -0.319575l 0.44993, -0.319352l 0.44993, -0.319129l 0.44993, -0.318905l 0.44993, -0.318682l
 0.44993, -0.318459l 0.44993, -0.318236l 0.44993, -0.318012l 0.44993, -0.317789l 0.44993, -0.317566l 0.44993, -0.317343l 0.44993, -0.317119l 0.44993, -0.316896l 0.44993, -0.316673l 0.44993, -0.31645l 0.44993, -0.316226l 0.44993, -0.316003l 0.44993,
 -0.31578l 0.44993, -0.315557l 0.44993, -0.315333l 0.44993, -0.31511l 0.44993, -0.314887l 0.44993, -0.314664l 0.44993, -0.31444l 0.44993, -0.314217l 0.44993, -0.313994l 0.44993, -0.313771l 0.44993, -0.313547l 0.44993, -0.313324l 0.44993, -0.313101l
 0.44993, -0.312878l 0.44993, -0.312655l 0.44993, -0.312431l 0.44993, -0.312208l 0.44993, -0.311985l 0.44993, -0.311762l 0.44993, -0.311538l 0.44993, -0.311315l 0.44993, -0.311092l 0.44993, -0.310869l 0.44993, -0.310645l 0.44993, -0.310422l 0.44993,
 -0.310199" fill="none" stroke="#ff0066" stroke-width="3"/>
<path d="M164.891,377.423l 0.44993, -0.309976l 0.44993, -0.309752l 0.44993, -0.309529l 0.44993, -0.309306l 0.44993, -0.309083l 0.44993, -0.308859l 0.44993, -0.308636l 0.44993, -0.308413l 0.44993, -0.30819l 0.44993, -0.307966l 0.44993, -0.307743l
 0.44993, -0.30752l 0.44993, -0.307297l 0.44993, -0.307073l 0.44993, -0.30685l 0.44993, -0.306627l 0.44993, -0.306404l 0.44993, -0.306181l 0.44993, -0.305957l 0.44993, -0.305734l 0.44993, -0.305511l 0.44993, -0.305288l 0.44993, -0.305064l 0.44993,
 -0.304841l 0.44993, -0.304618l 0.44993, -0.304395l 0.44993, -0.304171l 0.44993, -0.303948l 0.44993, -0.303725l 0.44993, -0.303502l 0.44993, -0.303278l 0.44993, -0.303055l 0.44993, -0.302832l 0.44993, -0.302609l 0.44993, -0.302385l 0.44993,
 -0.302162l 0.44993, -0.301939l 0.44993, -0.301716l 0.44993, -0.301492l 0.44993, -0.301269l 0.44993, -0.301046l 0.44993, -0.300823l 0.44993, -0.300599l 0.44993, -0.300376l 0.44993, -0.300153l 0.44993, -0.29993l 0.44993, -0.299706l 0.44993, -0.299483l
 0.44993, -0.29926" fill="none" stroke="#ff0066" stroke-width="3"/>
<path d="M186.938,362.497l 0.44993, -0.299037l 0.44993, -0.298814l 0.44993, -0.29859l 0.44993, -0.298367l 0.44993, -0.298144l 0.44993, -0.297921l 0.44993, -0.297697l 0.44993, -0.297474l 0.44993, -0.297251l 0.44993, -0.297028l 0.44993, -0.296804l
 0.44993, -0.296581l 0.44993, -0.296358l 0.44993, -0.296135l 0.44993, -0.295911l 0.44993, -0.295688l 0.44993, -0.295465l 0.44993, -0.295242l 0.44993, -0.295018l 0.44993, -0.294795l 0.44993, -0.294572l 0.44993, -0.294349l 0.44993, -0.294125l 0.44993,
 -0.293902l 0.44993, -0.293679l 0.44993, -0.293456l 0.44993, -0.293232l 0.44993, -0.293009l 0.44993, -0.292786l 0.44993, -0.292563l 0.44993, -0.29234l 0.44993, -0.292116l 0.44993, -0.291893l 0.44993, -0.29167l 0.44993, -0.291447l 0.44993, -0.291223l
 0.44993, -0.291l 0.44993, -0.290777l 0.44993, -0.290554l 0.44993, -0.29033l 0.44993, -0.290107l 0.44993, -0.289884l 0.44993, -0.289661l 0.44993, -0.289437l 0.44993, -0.289214l 0.44993, -0.288991l 0.44993, -0.288768l 0.44993, -0.288544l 0.44993,
 -0.288321" fill="none" stroke="#ff0066" stroke-width="3"/>
<path d="M208.985,348.107l 0.44993, -0.288098l 0.44993, -0.287875l 0.44993, -0.287651l 0.44993, -0.287428l 0.44993, -0.287205l 0.44993, -0.286982l 0.44993, -0.286758l 0.44993, -0.286535l 0.44993, -0.286312l 0.44993, -0.286089l 0.44993, -0.285865l
 0.44993, -0.285642l 0.44993, -0.285419l 0.44993, -0.285196l 0.44993, -0.284973l 0.44993, -0.284749l 0.44993, -0.284526l 0.44993, -0.284303l 0.44993, -0.28408l 0.44993, -0.283856l 0.44993, -0.283633l 0.44993, -0.28341l 0.44993, -0.283187l 0.44993,
 -0.282963l 0.44993, -0.28274l 0.44993, -0.282517l 0.44993, -0.282294l 0.44993, -0.28207l 0.44993, -0.281847l 0.44993, -0.281624l 0.44993, -0.281401l 0.44993, -0.281177l 0.44993, -0.280954l 0.44993, -0.280731l 0.44993, -0.280508l 0.44993, -0.280284l
 0.44993, -0.280061l 0.44993, -0.279838l 0.44993, -0.279615l 0.44993, -0.279391l 0.44993, -0.279168l 0.44993, -0.278945l 0.44993, -0.278722l 0.44993, -0.278499l 0.44993, -0.278275l 0.44993, -0.278052l 0.44993, -0.277829l 0.44993, -0.277606l 0.44993,
 -0.277382" fill="none" stroke="#ff0066" stroke-width="3"/>
<path d="M231.031,334.252l 0.44993, -0.277159l 0.44993, -0.276936l 0.44993, -0.276713l 0.44993, -0.276489l 0.44993, -0.276266l 0.44993, -0.276043l 0.44993, -0.27582l 0.44993, -0.275596l 0.44993, -0.275373l 0.44993, -0.27515l 0.44993, -0.274927l
 0.44993, -0.274703l 0.44993, -0.27448l 0.44993, -0.274257l 0.44993, -0.274034l 0.44993, -0.27381l 0.44993, -0.273587l 0.44993, -0.273364l 0.44993, -0.273141l 0.44993, -0.272917l 0.44993, -0.272694l 0.44993, -0.272471l 0.44993, -0.272248l 0.44993,
 -0.272024l 0.44993, -0.271801l 0.44993, -0.271578l 0.44993, -0.271355l 0.44993, -0.271132l 0.44993, -0.270908l 0.44993, -0.270685l 0.44993, -0.270462l 0.44993, -0.270239l 0.44993, -0.270015l 0.44993, -0.269792l 0.44993, -0.269569l 0.44993,
 -0.269346l 0.44993, -0.269122l 0.44993, -0.268899l 0.44993, -0.268676l 0.44993, -0.268453l 0.44993, -0.268229l 0.44993, -0.268006l 0.44993, -0.267783l 0.44993, -0.26756l 0.44993, -0.267336l 0.44993, -0.267113l 0.44993, -0.26689l 0.44993, -0.266667l
 0.44993, -0.266443" fill="none" stroke="#ff0066" stroke-width="3"/>
<path d="M253.078,320.934l 0.44993, -0.26622l 0.44993, -0.265997l 0.44993, -0.265774l 0.44993, -0.26555l 0.44993, -0.265327l 0.44993, -0.265104l 0.44993, -0.264881l 0.44993, -0.264657l 0.44993, -0.264434l 0.44993, -0.264211l 0.44993, -0.263988l
 0.44993, -0.263765l 0.44993, -0.263541l 0.44993, -0.263318l 0.44993, -0.263095l 0.44993, -0.262872l 0.44993, -0.262648l 0.44993, -0.262425l 0.44993, -0.262202l 0.44993, -0.261979l 0.44993, -0.261755l 0.44993, -0.261532l 0.44993, -0.261309l 0.44993,
 -0.261086l 0.44993, -0.260862l 0.44993, -0.260639l 0.44993, -0.260416l 0.44993, -0.260193l 0.44993, -0.259969l 0.44993, -0.259746l 0.44993, -0.259523l 0.44993, -0.2593l 0.44993, -0.259076l 0.44993, -0.258853l 0.44993, -0.25863l 0.44993, -0.258407l
 0.44993, -0.258183l 0.44993, -0.25796l 0.44993, -0.257737l 0.44993, -0.257514l 0.44993, -0.257291l 0.44993, -0.257067l 0.44993, -0.256844l 0.44993, -0.256621l 0.44993, -0.256398l 0.44993, -0.256174l 0.44993, -0.255951l 0.44993, -0.255728l 0.44993,
 -0.255505" fill="none" stroke="#ff0066" stroke-width="3"/>
<path d="M275.124,308.152l 0.44993, -0.255281l 0.44993, -0.255058l 0.44993, -0.254835l 0.44993, -0.254612l 0.44993, -0.254388l 0.44993, -0.254165l 0.44993, -0.253942l 0.44993, -0.253719l 0.44993, -0.253495l 0.44993, -0.253272l 0.44993, -0.253049l
 0.44993, -0.252826l 0.44993, -0.252602l 0.44993, -0.252379l 0.44993, -0.252156l 0.44993, -0.251933l 0.44993, -0.251709l 0.44993, -0.251486l 0.44993, -0.251263l 0.44993, -0.25104l 0.44993, -0.250816l 0.44993, -0.250593l 0.44993, -0.25037l 0.44993,
 -0.250147l 0.44993, -0.249924l 0.44993, -0.2497l 0.44993, -0.249477l 0.44993, -0.249254l 0.44993, -0.249031l 0.44993, -0.248807l 0.44993, -0.248584l 0.44993, -0.248361l 0.44993, -0.248138l 0.44993, -0.247914l 0.44993, -0.247691l 0.44993, -0.247468l
 0.44993, -0.247245l 0.44993, -0.247021l 0.44993, -0.246798l 0.44993, -0.246575l 0.44993, -0.246352l 0.44993, -0.246128l 0.44993, -0.245905l 0.44993, -0.245682l 0.44993, -0.245459l 0.44993, -0.245235l 0.44993, -0.245012l 0.44993, -0.244789l 0.44993,
 -0.244566" fill="none" stroke="#ff0066" stroke-width="3"/>
<path d="M297.171,295.906l 0.44993, -0.244342l 0.44993, -0.244119l 0.44993, -0.243896l 0.44993, -0.243673l 0.44993, -0.24345l 0.44993, -0.243226l 0.44993, -0.243003l 0.44993, -0.24278l 0.44993, -0.242557l 0.44993, -0.242333l 0.44993, -0.24211l
 0.44993, -0.241887l 0.44993, -0.241664l 0.44993, -0.24144l 0.44993, -0.241217l 0.44993, -0.240994l 0.44993, -0.240771l 0.44993, -0.240547l 0.44993, -0.240324l 0.44993, -0.240101l 0.44993, -0.239878l 0.44993, -0.239654l 0.44993, -0.239431l 0.44993,
 -0.239208l 0.44993, -0.238985l 0.44993, -0.238761l 0.44993, -0.238538l 0.44993, -0.238315l 0.44993, -0.238092l 0.44993, -0.237868l 0.44993, -0.237645l 0.44993, -0.237422l 0.44993, -0.237199l 0.44993, -0.236975l 0.44993, -0.236752l 0.44993,
 -0.236529l 0.44993, -0.236306l 0.44993, -0.236083l 0.44993, -0.235859l 0.44993, -0.235636l 0.44993, -0.235413l 0.44993, -0.23519l 0.44993, -0.234966l 0.44993, -0.234743l 0.44993, -0.23452l 0.44993, -0.234297l 0.44993, -0.234073l 0.44993, -0.23385l
 0.44993, -0.233627" fill="none" stroke="#ff0066" stroke-width="3"/>
<path d="M319.217,284.195l 0.44993, -0.233404l 0.44993, -0.23318l 0.44993, -0.232957l 0.44993, -0.232734l 0.44993, -0.232511l 0.44993, -0.232287l 0.44993, -0.232064l 0.44993, -0.231841l 0.44993, -0.231618l 0.44993, -0.231394l 0.44993, -0.231171l
 0.44993, -0.230948l 0.44993, -0.230725l 0.44993, -0.230501l 0.44993, -0.230278l 0.44993, -0.230055l 0.44993, -0.229832l 0.44993, -0.229609l 0.44993, -0.229385l 0.44993, -0.229162l 0.44993, -0.228939l 0.44993, -0.228716l 0.44993, -0.228492l 0.44993,
 -0.228269l 0.44993, -0.228046l 0.44993, -0.227823l 0.44993, -0.227599l 0.44993, -0.227376l 0.44993, -0.227153l 0.44993, -0.22693l 0.44993, -0.226706l 0.44993, -0.226483l 0.44993, -0.22626l 0.44993, -0.226037l 0.44993, -0.225813l 0.44993, -0.22559l
 0.44993, -0.225367l 0.44993, -0.225144l 0.44993, -0.22492l 0.44993, -0.224697l 0.44993, -0.224474l 0.44993, -0.224251l 0.44993, -0.224027l 0.44993, -0.223804l 0.44993, -0.223581l 0.44993, -0.223358l 0.44993, -0.223134l 0.44993, -0.222911l 0.44993,
 -0.222688" fill="none" stroke="#ff0066" stroke-width="3"/>
<path d="M341.264,273.021l 0.44993, -0.222465l 0.44993, -0.222242l 0.44993, -0.222018l 0.44993, -0.221795l 0.44993, -0.221572l 0.44993, -0.221349l 0.44993, -0.221125l 0.44993, -0.220902l 0.44993, -0.220679l 0.44993, -0.220456l 0.44993, -0.220232l
 0.44993, -0.220009l 0.44993, -0.219786l 0.44993, -0.219563l 0.44993, -0.219339l 0.44993, -0.219116l 0.44993, -0.218893l 0.44993, -0.21867l 0.44993, -0.218446l 0.44993, -0.218223l 0.44993, -0.218l 0.44993, -0.217777l 0.44993, -0.217553l 0.44993,
 -0.21733l 0.44993, -0.217107l 0.44993, -0.216884l 0.44993, -0.21666l 0.44993, -0.216437l 0.44993, -0.216214l 0.44993, -0.215991l 0.44993, -0.215768l 0.44993, -0.215544l 0.44993, -0.215321l 0.44993, -0.215098l 0.44993, -0.214875l 0.44993, -0.214651l
 0.44993, -0.214428l 0.44993, -0.214205l 0.44993, -0.213982l 0.44993, -0.213758l 0.44993, -0.213535l 0.44993, -0.213312l 0.44993, -0.213089l 0.44993, -0.212865l 0.44993, -0.212642l 0.44993, -0.212419l 0.44993, -0.212196l 0.44993, -0.211972l 0.44993,
 -0.211749" fill="none" stroke="#ff0066" stroke-width="3"/>
<path d="M363.311,262.383l 0.44993, -0.211526l 0.44993, -0.211303l 0.44993, -0.211079l 0.44993, -0.210856l 0.44993, -0.210633l 0.44993, -0.21041l 0.44993, -0.210186l 0.44993, -0.209963l 0.44993, -0.20974l 0.44993, -0.209517l 0.44993, -0.209293l
 0.44993, -0.20907l 0.44993, -0.208847l 0.44993, -0.208624l 0.44993, -0.208401l 0.44993, -0.208177l 0.44993, -0.207954l 0.44993, -0.207731l 0.44993, -0.207508l 0.44993, -0.207284l 0.44993, -0.207061l 0.44993, -0.206838l 0.44993, -0.206615l 0.44993,
 -0.206391l 0.44993, -0.206168l 0.44993, -0.205945l 0.44993, -0.205722l 0.44993, -0.205498l 0.44993, -0.205275l 0.44993, -0.205052l 0.44993, -0.204829l 0.44993, -0.204605l 0.44993, -0.204382l 0.44993, -0.204159l 0.44993, -0.203936l 0.44993,
 -0.203712l 0.44993, -0.203489l 0.44993, -0.203266l 0.44993, -0.203043l 0.44993, -0.202819l 0.44993, -0.202596l 0.44993, -0.202373l 0.44993, -0.20215l 0.44993, -0.201926l 0.44993, -0.201703l 0.44993, -0.20148l 0.44993, -0.201257l 0.44993, -0.201034l
 0.44993, -0.20081" fill="none" stroke="#ff0066" stroke-width="3"/>
<path d="M385.357,252.281l 0.44993, -0.200587l 0.44993, -0.200364l 0.44993, -0.200141l 0.44993, -0.199917l 0.44993, -0.199694l 0.44993, -0.199471l 0.44993, -0.199248l 0.44993, -0.199024l 0.44993, -0.198801l 0.44993, -0.198578l 0.44993, -0.198355l
 0.44993, -0.198131l 0.44993, -0.197908l 0.44993, -0.197685l 0.44993, -0.197462l 0.44993, -0.197238l 0.44993, -0.197015l 0.44993, -0.196792l 0.44993, -0.196569l 0.44993, -0.196345l 0.44993, -0.196122l 0.44993, -0.195899l 0.44993, -0.195676l 0.44993,
 -0.195452l 0.44993, -0.195229l 0.44993, -0.195006l 0.44993, -0.194783l 0.44993, -0.194559l 0.44993, -0.194336l 0.44993, -0.194113l 0.44993, -0.19389l 0.44993, -0.193667l 0.44993, -0.193443l 0.44993, -0.19322l 0.44993, -0.192997l 0.44993, -0.192774l
 0.44993, -0.19255l 0.44993, -0.192327l 0.44993, -0.192104l 0.44993, -0.191881l 0.44993, -0.191657l 0.44993, -0.191434l 0.44993, -0.191211l 0.44993, -0.190988l 0.44993, -0.190764l 0.44993, -0.190541l 0.44993, -0.190318l 0.44993, -0.190095l 0.44993,
 -0.189871" fill="none" stroke="#ff0066" stroke-width="3"/>
<path d="M407.404,242.714l 0.44993, -0.189648l 0.44993, -0.189425l 0.44993, -0.189202l 0.44993, -0.188978l 0.44993, -0.188755l 0.44993, -0.188532l 0.44993, -0.188309l 0.44993, -0.188085l 0.44993, -0.187862l 0.44993, -0.187639l 0.44993, -0.187416l
 0.44993, -0.187193l 0.44993, -0.186969l 0.44993, -0.186746l 0.44993, -0.186523l 0.44993, -0.1863l 0.44993, -0.186076l 0.44993, -0.185853l 0.44993, -0.18563l 0.44993, -0.185407l 0.44993, -0.185183l 0.44993, -0.18496l 0.44993, -0.184737l 0.44993,
 -0.184514l 0.44993, -0.18429l 0.44993, -0.184067l 0.44993, -0.183844l 0.44993, -0.183621l 0.44993, -0.183397l 0.44993, -0.183174l 0.44993, -0.182951l 0.44993, -0.182728l 0.44993, -0.182504l 0.44993, -0.182281l 0.44993, -0.182058l 0.44993, -0.181835l
 0.44993, -0.181611l 0.44993, -0.181388l 0.44993, -0.181165l 0.44993, -0.180942l 0.44993, -0.180718l 0.44993, -0.180495l 0.44993, -0.180272l 0.44993, -0.180049l 0.44993, -0.179826l 0.44993, -0.179602l 0.44993, -0.179379l 0.44993, -0.179156l 0.44993,
 -0.178933" fill="none" stroke="#ff0066" stroke-width="3"/>
<path d="M429.45,233.684l 0.44993, -0.178709l 0.44993, -0.178486l 0.44993, -0.178263l 0.44993, -0.17804l 0.44993, -0.177816l 0.44993, -0.177593l 0.44993, -0.17737l 0.44993, -0.177147l 0.44993, -0.176923l 0.44993, -0.1767l 0.44993, -0.176477l 0.44993,
 -0.176254l 0.44993, -0.17603l 0.44993, -0.175807l 0.44993, -0.175584l 0.44993, -0.175361l 0.44993, -0.175137l 0.44993, -0.174914l 0.44993, -0.174691l 0.44993, -0.174468l 0.44993, -0.174244l 0.44993, -0.174021l 0.44993, -0.173798l 0.44993, -0.173575l
 0.44993, -0.173352l 0.44993, -0.173128l 0.44993, -0.172905l 0.44993, -0.172682l 0.44993, -0.172459l 0.44993, -0.172235l 0.44993, -0.172012l 0.44993, -0.171789l 0.44993, -0.171566l 0.44993, -0.171342l 0.44993, -0.171119l 0.44993, -0.170896l 0.44993,
 -0.170673l 0.44993, -0.170449l 0.44993, -0.170226l 0.44993, -0.170003l 0.44993, -0.16978l 0.44993, -0.169556l 0.44993, -0.169333l 0.44993, -0.16911l 0.44993, -0.168887l 0.44993, -0.168663l 0.44993, -0.16844l 0.44993, -0.168217l 0.44993, -0.167994"
 fill="none" stroke="#ff0066" stroke-width="3"/>
<path d="M451.497,225.19l 0.44993, -0.16777l 0.44993, -0.167547l 0.44993, -0.167324l 0.44993, -0.167101l 0.44993, -0.166877l 0.44993, -0.166654l 0.44993, -0.166431l 0.44993, -0.166208l 0.44993, -0.165985l 0.44993, -0.165761l 0.44993, -0.165538l
 0.44993, -0.165315l 0.44993, -0.165092l 0.44993, -0.164868l 0.44993, -0.164645l 0.44993, -0.164422l 0.44993, -0.164199l 0.44993, -0.163975l 0.44993, -0.163752l 0.44993, -0.163529l 0.44993, -0.163306l 0.44993, -0.163082l 0.44993, -0.162859l 0.44993,
 -0.162636l 0.44993, -0.162413l 0.44993, -0.162189l 0.44993, -0.161966l 0.44993, -0.161743l 0.44993, -0.16152l 0.44993, -0.161296l 0.44993, -0.161073l 0.44993, -0.16085l 0.44993, -0.160627l 0.44993, -0.160403l 0.44993, -0.16018l 0.44993, -0.159957l
 0.44993, -0.159734l 0.44993, -0.159511l 0.44993, -0.159287l 0.44993, -0.159064l 0.44993, -0.158841l 0.44993, -0.158618l 0.44993, -0.158394l 0.44993, -0.158171l 0.44993, -0.157948l 0.44993, -0.157725l 0.44993, -0.157501l 0.44993, -0.157278l 0.44993,
 -0.157055" fill="none" stroke="#ff0066" stroke-width="3"/>
<path d="M473.543,217.232l 0.44993, -0.156832l 0.44993, -0.156608l 0.44993, -0.156385l 0.44993, -0.156162l 0.44993, -0.155939l 0.44993, -0.155715l 0.44993, -0.155492l 0.44993, -0.155269l 0.44993, -0.155046l 0.44993, -0.154822l 0.44993, -0.154599l
 0.44993, -0.154376l 0.44993, -0.154153l 0.44993, -0.153929l 0.44993, -0.153706l 0.44993, -0.153483l 0.44993, -0.15326l 0.44993, -0.153036l 0.44993, -0.152813l 0.44993, -0.15259l 0.44993, -0.152367l 0.44993, -0.152144l 0.44993, -0.15192l 0.44993,
 -0.151697l 0.44993, -0.151474l 0.44993, -0.151251l 0.44993, -0.151027l 0.44993, -0.150804l 0.44993, -0.150581l 0.44993, -0.150358l 0.44993, -0.150134l 0.44993, -0.149911l 0.44993, -0.149688l 0.44993, -0.149465l 0.44993, -0.149241l 0.44993,
 -0.149018l 0.44993, -0.148795l 0.44993, -0.148572l 0.44993, -0.148348l 0.44993, -0.148125l 0.44993, -0.147902l 0.44993, -0.147679l 0.44993, -0.147455l 0.44993, -0.147232l 0.44993, -0.147009l 0.44993, -0.146786l 0.44993, -0.146562l 0.44993,
 -0.146339l 0.44993, -0.146116" fill="none" stroke="#ff0066" stroke-width="3"/>
<path d="M495.59,209.81l 0.44993, -0.145893l 0.44993, -0.14567l 0.44993, -0.145446l 0.44993, -0.145223l 0.44993, -0.145l 0.44993, -0.144777l 0.44993, -0.144553l 0.44993, -0.14433l 0.44993, -0.144107l 0.44993, -0.143884l 0.44993, -0.14366l 0.44993,
 -0.143437l 0.44993, -0.143214l 0.44993, -0.142991l 0.44993, -0.142767l 0.44993, -0.142544l 0.44993, -0.142321l 0.44993, -0.142098l 0.44993, -0.141874l 0.44993, -0.141651l 0.44993, -0.141428l 0.44993, -0.141205l 0.44993, -0.140981l 0.44993,
 -0.140758l 0.44993, -0.140535l 0.44993, -0.140312l 0.44993, -0.140088l 0.44993, -0.139865l 0.44993, -0.139642l 0.44993, -0.139419l 0.44993, -0.139195l 0.44993, -0.138972l 0.44993, -0.138749l 0.44993, -0.138526l 0.44993, -0.138303l 0.44993,
 -0.138079l 0.44993, -0.137856l 0.44993, -0.137633l 0.44993, -0.13741l 0.44993, -0.137186l 0.44993, -0.136963l 0.44993, -0.13674l 0.44993, -0.136517l 0.44993, -0.136293l 0.44993, -0.13607l 0.44993, -0.135847l 0.44993, -0.135624l 0.44993, -0.1354l
 0.44993, -0.135177" fill="none" stroke="#ff0066" stroke-width="3"/>
<path d="M517.636,202.923l 0.44993, -0.134954l 0.44993, -0.134731l 0.44993, -0.134507l 0.44993, -0.134284l 0.44993, -0.134061l 0.44993, -0.133838l 0.44993, -0.133614l 0.44993, -0.133391l 0.44993, -0.133168l 0.44993, -0.132945l 0.44993, -0.132721l
 0.44993, -0.132498l 0.44993, -0.132275l 0.44993, -0.132052l 0.44993, -0.131829l 0.44993, -0.131605l 0.44993, -0.131382l 0.44993, -0.131159l 0.44993, -0.130936l 0.44993, -0.130712l 0.44993, -0.130489l 0.44993, -0.130266l 0.44993, -0.130043l 0.44993,
 -0.129819l 0.44993, -0.129596l 0.44993, -0.129373l 0.44993, -0.12915l 0.44993, -0.128926l 0.44993, -0.128703l 0.44993, -0.12848l 0.44993, -0.128257l 0.44993, -0.128033l 0.44993, -0.12781l 0.44993, -0.127587l 0.44993, -0.127364l 0.44993, -0.12714l
 0.44993, -0.126917l 0.44993, -0.126694l 0.44993, -0.126471l 0.44993, -0.126247l 0.44993, -0.126024l 0.44993, -0.125801l 0.44993, -0.125578l 0.44993, -0.125354l 0.44993, -0.125131l 0.44993, -0.124908l 0.44993, -0.124685l 0.44993, -0.124462l 0.44993,
 -0.124238" fill="none" stroke="#ff0066" stroke-width="3"/>
<path d="M539.683,196.573l 0.44993, -0.124015l 0.44993, -0.123792l 0.44993, -0.123569l 0.44993, -0.123345l 0.44993, -0.123122l 0.44993, -0.122899l 0.44993, -0.122676l 0.44993, -0.122452l 0.44993, -0.122229l 0.44993, -0.122006l 0.44993, -0.121783l
 0.44993, -0.121559l 0.44993, -0.121336l 0.44993, -0.121113l 0.44993, -0.12089l 0.44993, -0.120666l 0.44993, -0.120443l 0.44993, -0.12022l 0.44993, -0.119997" fill="none" stroke="#ff0066" stroke-width="3"/>
<path d="M170.516,21.4167h 317.95" fill="none" stroke="#999999" stroke-width="7"/>
<text xml:space="preserve" x="360.607" y="50.7193" fill="black" font-size="16.0105" font-family="Helvetica"> with EMC</text>
<text xml:space="preserve" x="352.717" y="50.7193" fill="black" font-size="16.0105" font-family="Times">&#0947;</text>
<text xml:space="preserve" x="344.828" y="50.7193" fill="black" font-size="16.0105" font-family="Times">&#0947;</text>
<text xml:space="preserve" x="336.938" y="50.7193" fill="black" font-size="16.0105" font-family="Times">&#0947;</text>
<text xml:space="preserve" x="331.866" y="50.7193" fill="black" font-size="16.0105" font-family="Helvetica"> </text>
<text xml:space="preserve" x="316.65" y="50.7193" fill="black" font-size="16.0105" font-family="Times">&#8594;</text>
<text xml:space="preserve" x="311.578" y="50.7193" fill="black" font-size="16.0105" font-family="Helvetica"> </text>
<text xml:space="preserve" x="303.689" y="50.7193" fill="black" font-size="16.0105" font-family="Times">&#0947;</text>
<text xml:space="preserve" x="298.053" y="45.0838" fill="black" font-size="10.8403" font-family="Helvetica">0</text>
<text xml:space="preserve" x="289.6" y="50.7193" fill="black" font-size="16.0105" font-family="Times">&#0960;</text>
<text xml:space="preserve" x="284.528" y="50.7193" fill="black" font-size="16.0105" font-family="Helvetica"> </text>
<text xml:space="preserve" x="269.312" y="50.7193" fill="black" font-size="16.0105" font-family="Times">&#8594;</text>
<text xml:space="preserve" x="264.24" y="50.7193" fill="black" font-size="16.0105" font-family="Helvetica"> </text>
<text xml:space="preserve" x="252.969" y="50.7193" fill="black" font-size="16.0105" font-family="Times">&#0969;</text>
<text xml:space="preserve" x="128.989" y="50.7193" fill="black" font-size="16.0105" font-family="Helvetica"> = 13 TeV (EG1), </text>
<text xml:space="preserve" x="120.536" y="50.7193" fill="black" font-size="16.0105" font-family="Helvetica" font-style="oblique">s</text>
<path d="M114.9,41.7025l 1.69064, 9.58031" fill="none" stroke="black" stroke-width="2"/>
<path d="M116.591,51.2829l 2.25419, -14.0887" fill="none" stroke="black"/>
<path d="M118.845,37.1942h 10.1439" fill="none" stroke="black"/>
<text xml:space="preserve" x="89.5406" y="50.7193" fill="black" font-size="16.0105" font-family="Helvetica">pp </text>
<text xml:space="preserve" x="89.5406" y="85.6593" fill="black" font-size="16.0105" font-family="Helvetica">ALICE work in progress</text>
<text xml:space="preserve" x="205.068" y="120.599" fill="black" font-size="16.0105" font-family="Helvetica">) &lt; 4.0</text>
<text xml:space="preserve" x="196.051" y="120.599" fill="black" font-size="16.0105" font-family="Helvetica" font-style="oblique">c</text>
<text xml:space="preserve" x="145.895" y="120.599" fill="black" font-size="16.0105" font-family="Helvetica"> /(GeV/</text>
<text xml:space="preserve" x="139.133" y="128.489" fill="black" font-size="10.8403" font-family="Helvetica">T</text>
<text xml:space="preserve" x="129.552" y="120.599" fill="black" font-size="16.0105" font-family="Helvetica" font-style="oblique">p</text>
<text xml:space="preserve" x="124.481" y="120.599" fill="black" font-size="16.0105" font-family="Helvetica"> </text>
<text xml:space="preserve" x="116.027" y="120.599" fill="black" font-size="16.0105" font-family="Times">&#8804;</text>
<text xml:space="preserve" x="89.5406" y="120.599" fill="black" font-size="16.0105" font-family="Helvetica">2.0 </text>
<rect x="312.311" y="69.1755" width="198.425" height="113.448" fill="white"/>
<text xml:space="preserve" x="361.734" y="85.0957" fill="black" font-size="16.0105" font-family="Helvetica">ratio</text>
<path d="M319.752,80.5203h 34.7244" fill="none" stroke="black" stroke-width="2"/>
<g fill="black">
<circle cx="337.114" cy="80.5203" r="6.76257"/>
</g>
<text xml:space="preserve" x="361.734" y="108.201" fill="black" font-size="16.0105" font-family="Helvetica">peak range</text>
<path d="M319.752,103.21h 34.7244" fill="none" stroke="#333333" stroke-width="2"/>
<g stroke="#333333" stroke-width="2" fill="none">
<circle cx="337.114" cy="103.21" r="5.63548"/>
</g>
<text xml:space="preserve" x="361.734" y="130.743" fill="black" font-size="16.0105" font-family="Helvetica">background pol1</text>
<path d="M319.752,125.899h 34.7244" fill="none" stroke="#33cccc" stroke-width="3"/>
<text xml:space="preserve" x="361.734" y="153.285" fill="black" font-size="16.0105" font-family="Helvetica">background pol2</text>
<path d="M319.752,148.589h 34.7244" fill="none" stroke="#ff0066" stroke-width="3"/>
<text xml:space="preserve" x="361.734" y="175.827" fill="black" font-size="16.0105" font-family="Helvetica">param. range</text>
<path d="M319.752,171.279h 34.7244" fill="none" stroke="#999999" stroke-width="7"/></svg>
