<?xml version="1.0" standalone="no"?>
<svg width="567.429" height="553.904" viewBox="0 0 567.429 553.904" xmlns="http://www.w3.org/2000/svg" shape-rendering="crispEdges">
<title>
Data/EG1/OmegaRotWOPS/SameEventToBackgroundRatio_08.svg
</title>
<desc>
Creator: ROOT Version 6.20/08
CreationDate: Mon Mar 29 21:31:17 2021</desc>
<defs>
</defs>
<rect x="0.5" y="0" width="566.929" height="553.404" fill="white"/>
<rect x="68.5315" y="16.6021" width="484.724" height="481.461" fill="white"/>
<rect x="68.5315" y="16.6021" width="484.724" height="481.461" fill="none" stroke="black"/>
<rect x="68.5315" y="16.6021" width="484.724" height="481.461" fill="white"/>
<rect x="68.5315" y="16.6021" width="484.724" height="481.461" fill="none" stroke="black"/>
<g fill="black">
<circle cx="114.124" cy="495.916" r="6.76257"/>
</g>
<g fill="black">
<circle cx="118.924" cy="453.121" r="6.76257"/>
</g>
<g fill="black">
<circle cx="123.723" cy="488.919" r="6.76257"/>
</g>
<g fill="black">
<circle cx="128.522" cy="472.028" r="6.76257"/>
</g>
<g fill="black">
<circle cx="133.321" cy="347.932" r="6.76257"/>
</g>
<g fill="black">
<circle cx="138.121" cy="254.72" r="6.76257"/>
</g>
<g fill="black">
<circle cx="142.92" cy="241.567" r="6.76257"/>
</g>
<g fill="black">
<circle cx="147.719" cy="239.918" r="6.76257"/>
</g>
<g fill="black">
<circle cx="152.518" cy="242.98" r="6.76257"/>
</g>
<g fill="black">
<circle cx="157.318" cy="245.681" r="6.76257"/>
</g>
<g fill="black">
<circle cx="162.117" cy="254.632" r="6.76257"/>
</g>
<g fill="black">
<circle cx="166.916" cy="263.339" r="6.76257"/>
</g>
<g fill="black">
<circle cx="171.715" cy="268.59" r="6.76257"/>
</g>
<g fill="black">
<circle cx="176.515" cy="277.235" r="6.76257"/>
</g>
<g fill="black">
<circle cx="181.314" cy="284.681" r="6.76257"/>
</g>
<g fill="black">
<circle cx="186.113" cy="292.721" r="6.76257"/>
</g>
<g fill="black">
<circle cx="190.912" cy="298.449" r="6.76257"/>
</g>
<g fill="black">
<circle cx="195.712" cy="302.104" r="6.76257"/>
</g>
<g fill="black">
<circle cx="200.511" cy="307.649" r="6.76257"/>
</g>
<g fill="black">
<circle cx="205.31" cy="310.237" r="6.76257"/>
</g>
<g fill="black">
<circle cx="210.109" cy="314.487" r="6.76257"/>
</g>
<g fill="black">
<circle cx="214.909" cy="317.104" r="6.76257"/>
</g>
<g fill="black">
<circle cx="219.708" cy="318.697" r="6.76257"/>
</g>
<g fill="black">
<circle cx="224.507" cy="319.843" r="6.76257"/>
</g>
<g fill="black">
<circle cx="229.306" cy="317.176" r="6.76257"/>
</g>
<g fill="black">
<circle cx="234.106" cy="315.892" r="6.76257"/>
</g>
<g fill="black">
<circle cx="238.905" cy="313.409" r="6.76257"/>
</g>
<g fill="black">
<circle cx="243.704" cy="310.033" r="6.76257"/>
</g>
<g fill="black">
<circle cx="248.503" cy="309.411" r="6.76257"/>
</g>
<g fill="black">
<circle cx="253.303" cy="309.599" r="6.76257"/>
</g>
<g fill="black">
<circle cx="258.102" cy="307.258" r="6.76257"/>
</g>
<g fill="black">
<circle cx="262.901" cy="306.218" r="6.76257"/>
</g>
<g fill="black">
<circle cx="267.7" cy="307.326" r="6.76257"/>
</g>
<g fill="black">
<circle cx="272.5" cy="306.338" r="6.76257"/>
</g>
<g fill="black">
<circle cx="277.299" cy="302.651" r="6.76257"/>
</g>
<g fill="black">
<circle cx="339.689" cy="282.337" r="6.76257"/>
</g>
<g fill="black">
<circle cx="344.488" cy="283.636" r="6.76257"/>
</g>
<g fill="black">
<circle cx="349.288" cy="279.006" r="6.76257"/>
</g>
<g fill="black">
<circle cx="354.087" cy="279.743" r="6.76257"/>
</g>
<g fill="black">
<circle cx="358.886" cy="279.644" r="6.76257"/>
</g>
<g fill="black">
<circle cx="363.685" cy="274.403" r="6.76257"/>
</g>
<g fill="black">
<circle cx="368.485" cy="270.895" r="6.76257"/>
</g>
<g fill="black">
<circle cx="373.284" cy="272.521" r="6.76257"/>
</g>
<g fill="black">
<circle cx="378.083" cy="271.63" r="6.76257"/>
</g>
<g fill="black">
<circle cx="382.882" cy="267.016" r="6.76257"/>
</g>
<g fill="black">
<circle cx="387.682" cy="265.834" r="6.76257"/>
</g>
<g fill="black">
<circle cx="392.481" cy="262.914" r="6.76257"/>
</g>
<g fill="black">
<circle cx="397.28" cy="258.574" r="6.76257"/>
</g>
<g fill="black">
<circle cx="402.079" cy="256.577" r="6.76257"/>
</g>
<g fill="black">
<circle cx="406.879" cy="249.598" r="6.76257"/>
</g>
<g fill="black">
<circle cx="411.678" cy="244.802" r="6.76257"/>
</g>
<g fill="black">
<circle cx="416.477" cy="251.144" r="6.76257"/>
</g>
<g fill="black">
<circle cx="421.276" cy="245.727" r="6.76257"/>
</g>
<g fill="black">
<circle cx="426.076" cy="242.74" r="6.76257"/>
</g>
<g fill="black">
<circle cx="430.875" cy="237.669" r="6.76257"/>
</g>
<g fill="black">
<circle cx="435.674" cy="238.695" r="6.76257"/>
</g>
<g fill="black">
<circle cx="440.473" cy="236.599" r="6.76257"/>
</g>
<g fill="black">
<circle cx="445.273" cy="238.2" r="6.76257"/>
</g>
<g fill="black">
<circle cx="450.072" cy="240.962" r="6.76257"/>
</g>
<g fill="black">
<circle cx="454.871" cy="234.306" r="6.76257"/>
</g>
<g fill="black">
<circle cx="459.671" cy="235.298" r="6.76257"/>
</g>
<g fill="black">
<circle cx="464.47" cy="232.156" r="6.76257"/>
</g>
<g fill="black">
<circle cx="469.269" cy="232.44" r="6.76257"/>
</g>
<g fill="black">
<circle cx="474.068" cy="227.704" r="6.76257"/>
</g>
<g fill="black">
<circle cx="478.867" cy="231.868" r="6.76257"/>
</g>
<g fill="black">
<circle cx="483.667" cy="224.409" r="6.76257"/>
</g>
<g fill="black">
<circle cx="488.466" cy="227.447" r="6.76257"/>
</g>
<g fill="black">
<circle cx="493.265" cy="221.198" r="6.76257"/>
</g>
<g fill="black">
<circle cx="498.065" cy="218.735" r="6.76257"/>
</g>
<g fill="black">
<circle cx="502.864" cy="214.405" r="6.76257"/>
</g>
<g fill="black">
<circle cx="507.663" cy="216.076" r="6.76257"/>
</g>
<g fill="black">
<circle cx="512.462" cy="216.331" r="6.76257"/>
</g>
<g fill="black">
<circle cx="517.262" cy="212.622" r="6.76257"/>
</g>
<g fill="black">
<circle cx="522.061" cy="212.448" r="6.76257"/>
</g>
<g fill="black">
<circle cx="526.86" cy="207.079" r="6.76257"/>
</g>
<g fill="black">
<circle cx="531.659" cy="208.863" r="6.76257"/>
</g>
<g fill="black">
<circle cx="536.458" cy="203.334" r="6.76257"/>
</g>
<g fill="black">
<circle cx="541.258" cy="202.69" r="6.76257"/>
</g>
<g fill="black">
<circle cx="546.057" cy="197.15" r="6.76257"/>
</g>
<path d="M68.5315,498.064h 484.724" fill="none" stroke="black"/>
<path d="M68.5315,483.869v 14.1948" fill="none" stroke="black"/>
<path d="M83.5292,490.966v 7.09741" fill="none" stroke="black"/>
<path d="M98.5268,490.966v 7.09741" fill="none" stroke="black"/>
<path d="M113.524,490.966v 7.09741" fill="none" stroke="black"/>
<path d="M128.522,483.869v 14.1948" fill="none" stroke="black"/>
<path d="M143.52,490.966v 7.09741" fill="none" stroke="black"/>
<path d="M158.517,490.966v 7.09741" fill="none" stroke="black"/>
<path d="M173.515,490.966v 7.09741" fill="none" stroke="black"/>
<path d="M188.513,483.869v 14.1948" fill="none" stroke="black"/>
<path d="M203.51,490.966v 7.09741" fill="none" stroke="black"/>
<path d="M218.508,490.966v 7.09741" fill="none" stroke="black"/>
<path d="M233.506,490.966v 7.09741" fill="none" stroke="black"/>
<path d="M248.503,483.869v 14.1948" fill="none" stroke="black"/>
<path d="M263.501,490.966v 7.09741" fill="none" stroke="black"/>
<path d="M278.499,490.966v 7.09741" fill="none" stroke="black"/>
<path d="M293.496,490.966v 7.09741" fill="none" stroke="black"/>
<path d="M308.494,483.869v 14.1948" fill="none" stroke="black"/>
<path d="M323.492,490.966v 7.09741" fill="none" stroke="black"/>
<path d="M338.489,490.966v 7.09741" fill="none" stroke="black"/>
<path d="M353.487,490.966v 7.09741" fill="none" stroke="black"/>
<path d="M368.485,483.869v 14.1948" fill="none" stroke="black"/>
<path d="M383.482,490.966v 7.09741" fill="none" stroke="black"/>
<path d="M398.48,490.966v 7.09741" fill="none" stroke="black"/>
<path d="M413.478,490.966v 7.09741" fill="none" stroke="black"/>
<path d="M428.475,483.869v 14.1948" fill="none" stroke="black"/>
<path d="M443.473,490.966v 7.09741" fill="none" stroke="black"/>
<path d="M458.471,490.966v 7.09741" fill="none" stroke="black"/>
<path d="M473.468,490.966v 7.09741" fill="none" stroke="black"/>
<path d="M488.466,483.869v 14.1948" fill="none" stroke="black"/>
<path d="M503.464,490.966v 7.09741" fill="none" stroke="black"/>
<path d="M518.461,490.966v 7.09741" fill="none" stroke="black"/>
<path d="M533.459,490.966v 7.09741" fill="none" stroke="black"/>
<path d="M548.457,483.869v 14.1948" fill="none" stroke="black"/>
<path d="M548.457,483.869v 14.1948" fill="none" stroke="black"/>
<text xml:space="preserve" x="63.6174" y="513.956" fill="black" font-size="16.0105" font-family="Helvetica">0</text>
<text xml:space="preserve" x="117.718" y="513.956" fill="black" font-size="16.0105" font-family="Helvetica">0.2</text>
<text xml:space="preserve" x="177.454" y="513.956" fill="black" font-size="16.0105" font-family="Helvetica">0.4</text>
<text xml:space="preserve" x="237.754" y="513.956" fill="black" font-size="16.0105" font-family="Helvetica">0.6</text>
<text xml:space="preserve" x="297.49" y="513.956" fill="black" font-size="16.0105" font-family="Helvetica">0.8</text>
<text xml:space="preserve" x="365.115" y="513.956" fill="black" font-size="16.0105" font-family="Helvetica">1</text>
<text xml:space="preserve" x="417.525" y="513.956" fill="black" font-size="16.0105" font-family="Helvetica">1.2</text>
<text xml:space="preserve" x="477.261" y="513.956" fill="black" font-size="16.0105" font-family="Helvetica">1.4</text>
<text xml:space="preserve" x="537.561" y="513.956" fill="black" font-size="16.0105" font-family="Helvetica">1.6</text>
<text xml:space="preserve" x="548.268" y="537.625" fill="black" font-size="16.0105" font-family="Helvetica">)</text>
<text xml:space="preserve" x="542.633" y="532.553" fill="black" font-size="10.8403" font-family="Helvetica">2</text>
<text xml:space="preserve" x="533.616" y="537.625" fill="black" font-size="16.0105" font-family="Helvetica" font-style="oblique">c</text>
<text xml:space="preserve" x="487.405" y="537.625" fill="black" font-size="16.0105" font-family="Helvetica"> (GeV/</text>
<text xml:space="preserve" x="473.317" y="542.697" fill="black" font-size="10.8403" font-family="Helvetica">inv</text>
<text xml:space="preserve" x="459.792" y="537.625" fill="black" font-size="16.0105" font-family="Helvetica" font-style="oblique">m</text>
<path d="M68.5315,16.6021h 484.724" fill="none" stroke="black"/>
<path d="M68.5315,30.7969v -14.1948" fill="none" stroke="black"/>
<path d="M83.5292,23.6995v -7.09741" fill="none" stroke="black"/>
<path d="M98.5268,23.6995v -7.09741" fill="none" stroke="black"/>
<path d="M113.524,23.6995v -7.09741" fill="none" stroke="black"/>
<path d="M128.522,30.7969v -14.1948" fill="none" stroke="black"/>
<path d="M143.52,23.6995v -7.09741" fill="none" stroke="black"/>
<path d="M158.517,23.6995v -7.09741" fill="none" stroke="black"/>
<path d="M173.515,23.6995v -7.09741" fill="none" stroke="black"/>
<path d="M188.513,30.7969v -14.1948" fill="none" stroke="black"/>
<path d="M203.51,23.6995v -7.09741" fill="none" stroke="black"/>
<path d="M218.508,23.6995v -7.09741" fill="none" stroke="black"/>
<path d="M233.506,23.6995v -7.09741" fill="none" stroke="black"/>
<path d="M248.503,30.7969v -14.1948" fill="none" stroke="black"/>
<path d="M263.501,23.6995v -7.09741" fill="none" stroke="black"/>
<path d="M278.499,23.6995v -7.09741" fill="none" stroke="black"/>
<path d="M293.496,23.6995v -7.09741" fill="none" stroke="black"/>
<path d="M308.494,30.7969v -14.1948" fill="none" stroke="black"/>
<path d="M323.492,23.6995v -7.09741" fill="none" stroke="black"/>
<path d="M338.489,23.6995v -7.09741" fill="none" stroke="black"/>
<path d="M353.487,23.6995v -7.09741" fill="none" stroke="black"/>
<path d="M368.485,30.7969v -14.1948" fill="none" stroke="black"/>
<path d="M383.482,23.6995v -7.09741" fill="none" stroke="black"/>
<path d="M398.48,23.6995v -7.09741" fill="none" stroke="black"/>
<path d="M413.478,23.6995v -7.09741" fill="none" stroke="black"/>
<path d="M428.475,30.7969v -14.1948" fill="none" stroke="black"/>
<path d="M443.473,23.6995v -7.09741" fill="none" stroke="black"/>
<path d="M458.471,23.6995v -7.09741" fill="none" stroke="black"/>
<path d="M473.468,23.6995v -7.09741" fill="none" stroke="black"/>
<path d="M488.466,30.7969v -14.1948" fill="none" stroke="black"/>
<path d="M503.464,23.6995v -7.09741" fill="none" stroke="black"/>
<path d="M518.461,23.6995v -7.09741" fill="none" stroke="black"/>
<path d="M533.459,23.6995v -7.09741" fill="none" stroke="black"/>
<path d="M548.457,30.7969v -14.1948" fill="none" stroke="black"/>
<path d="M548.457,30.7969v -14.1948" fill="none" stroke="black"/>
<path d="M68.5315,498.064v -481.461" fill="none" stroke="black"/>
<path d="M83.3283,498.064h -14.7969" fill="none" stroke="black"/>
<path d="M75.9299,485.804h -7.39843" fill="none" stroke="black"/>
<path d="M75.9299,473.544h -7.39843" fill="none" stroke="black"/>
<path d="M75.9299,461.285h -7.39843" fill="none" stroke="black"/>
<path d="M75.9299,449.025h -7.39843" fill="none" stroke="black"/>
<path d="M83.3283,436.766h -14.7969" fill="none" stroke="black"/>
<path d="M75.9299,424.506h -7.39843" fill="none" stroke="black"/>
<path d="M75.9299,412.246h -7.39843" fill="none" stroke="black"/>
<path d="M75.9299,399.987h -7.39843" fill="none" stroke="black"/>
<path d="M75.9299,387.727h -7.39843" fill="none" stroke="black"/>
<path d="M83.3283,375.468h -14.7969" fill="none" stroke="black"/>
<path d="M75.9299,363.208h -7.39843" fill="none" stroke="black"/>
<path d="M75.9299,350.949h -7.39843" fill="none" stroke="black"/>
<path d="M75.9299,338.689h -7.39843" fill="none" stroke="black"/>
<path d="M75.9299,326.429h -7.39843" fill="none" stroke="black"/>
<path d="M83.3283,314.17h -14.7969" fill="none" stroke="black"/>
<path d="M75.9299,301.91h -7.39843" fill="none" stroke="black"/>
<path d="M75.9299,289.651h -7.39843" fill="none" stroke="black"/>
<path d="M75.9299,277.391h -7.39843" fill="none" stroke="black"/>
<path d="M75.9299,265.131h -7.39843" fill="none" stroke="black"/>
<path d="M83.3283,252.872h -14.7969" fill="none" stroke="black"/>
<path d="M75.9299,240.612h -7.39843" fill="none" stroke="black"/>
<path d="M75.9299,228.353h -7.39843" fill="none" stroke="black"/>
<path d="M75.9299,216.093h -7.39843" fill="none" stroke="black"/>
<path d="M75.9299,203.834h -7.39843" fill="none" stroke="black"/>
<path d="M83.3283,191.574h -14.7969" fill="none" stroke="black"/>
<path d="M75.9299,179.314h -7.39843" fill="none" stroke="black"/>
<path d="M75.9299,167.055h -7.39843" fill="none" stroke="black"/>
<path d="M75.9299,154.795h -7.39843" fill="none" stroke="black"/>
<path d="M75.9299,142.536h -7.39843" fill="none" stroke="black"/>
<path d="M83.3283,130.276h -14.7969" fill="none" stroke="black"/>
<path d="M75.9299,118.016h -7.39843" fill="none" stroke="black"/>
<path d="M75.9299,105.757h -7.39843" fill="none" stroke="black"/>
<path d="M75.9299,93.4973h -7.39843" fill="none" stroke="black"/>
<path d="M75.9299,81.2377h -7.39843" fill="none" stroke="black"/>
<path d="M83.3283,68.9781h -14.7969" fill="none" stroke="black"/>
<path d="M83.3283,68.9781h -14.7969" fill="none" stroke="black"/>
<path d="M75.9299,56.7185h -7.39843" fill="none" stroke="black"/>
<path d="M75.9299,44.4589h -7.39843" fill="none" stroke="black"/>
<path d="M75.9299,32.1994h -7.39843" fill="none" stroke="black"/>
<path d="M75.9299,19.9398h -7.39843" fill="none" stroke="black"/>
<text xml:space="preserve" x="56.8548" y="503.248" fill="black" font-size="16.0105" font-family="Helvetica">0</text>
<text xml:space="preserve" x="46.1474" y="442.385" fill="black" font-size="16.0105" font-family="Helvetica">0.1</text>
<text xml:space="preserve" x="43.8932" y="380.958" fill="black" font-size="16.0105" font-family="Helvetica">0.2</text>
<text xml:space="preserve" x="43.8932" y="319.532" fill="black" font-size="16.0105" font-family="Helvetica">0.3</text>
<text xml:space="preserve" x="43.8932" y="258.105" fill="black" font-size="16.0105" font-family="Helvetica">0.4</text>
<text xml:space="preserve" x="43.8932" y="196.678" fill="black" font-size="16.0105" font-family="Helvetica">0.5</text>
<text xml:space="preserve" x="43.8932" y="135.815" fill="black" font-size="16.0105" font-family="Helvetica">0.6</text>
<text xml:space="preserve" x="43.8932" y="74.3883" fill="black" font-size="16.0105" font-family="Helvetica">0.7</text>
<g transform="rotate(-90,38.2577,98.0573)">
<text xml:space="preserve" x="38.2577" y="98.0573" fill="black" font-size="16.0105" font-family="Helvetica">background</text>
</g>
<g transform="rotate(-90,21.9148,98.0573)">
<text xml:space="preserve" x="21.9148" y="98.0573" fill="black" font-size="16.0105" font-family="Helvetica">same event</text>
</g>
<path d="M24.169,98.0573l 0.563548, -81.7144" fill="none" stroke="black" stroke-width="2"/>
<path d="M553.256,498.064v -481.461" fill="none" stroke="black"/>
<path d="M538.459,498.064h 14.7969" fill="none" stroke="black"/>
<path d="M545.857,485.804h 7.39843" fill="none" stroke="black"/>
<path d="M545.857,473.544h 7.39843" fill="none" stroke="black"/>
<path d="M545.857,461.285h 7.39843" fill="none" stroke="black"/>
<path d="M545.857,449.025h 7.39843" fill="none" stroke="black"/>
<path d="M538.459,436.766h 14.7969" fill="none" stroke="black"/>
<path d="M545.857,424.506h 7.39843" fill="none" stroke="black"/>
<path d="M545.857,412.246h 7.39843" fill="none" stroke="black"/>
<path d="M545.857,399.987h 7.39843" fill="none" stroke="black"/>
<path d="M545.857,387.727h 7.39843" fill="none" stroke="black"/>
<path d="M538.459,375.468h 14.7969" fill="none" stroke="black"/>
<path d="M545.857,363.208h 7.39843" fill="none" stroke="black"/>
<path d="M545.857,350.949h 7.39843" fill="none" stroke="black"/>
<path d="M545.857,338.689h 7.39843" fill="none" stroke="black"/>
<path d="M545.857,326.429h 7.39843" fill="none" stroke="black"/>
<path d="M538.459,314.17h 14.7969" fill="none" stroke="black"/>
<path d="M545.857,301.91h 7.39843" fill="none" stroke="black"/>
<path d="M545.857,289.651h 7.39843" fill="none" stroke="black"/>
<path d="M545.857,277.391h 7.39843" fill="none" stroke="black"/>
<path d="M545.857,265.131h 7.39843" fill="none" stroke="black"/>
<path d="M538.459,252.872h 14.7969" fill="none" stroke="black"/>
<path d="M545.857,240.612h 7.39843" fill="none" stroke="black"/>
<path d="M545.857,228.353h 7.39843" fill="none" stroke="black"/>
<path d="M545.857,216.093h 7.39843" fill="none" stroke="black"/>
<path d="M545.857,203.834h 7.39843" fill="none" stroke="black"/>
<path d="M538.459,191.574h 14.7969" fill="none" stroke="black"/>
<path d="M545.857,179.314h 7.39843" fill="none" stroke="black"/>
<path d="M545.857,167.055h 7.39843" fill="none" stroke="black"/>
<path d="M545.857,154.795h 7.39843" fill="none" stroke="black"/>
<path d="M545.857,142.536h 7.39843" fill="none" stroke="black"/>
<path d="M538.459,130.276h 14.7969" fill="none" stroke="black"/>
<path d="M545.857,118.016h 7.39843" fill="none" stroke="black"/>
<path d="M545.857,105.757h 7.39843" fill="none" stroke="black"/>
<path d="M545.857,93.4973h 7.39843" fill="none" stroke="black"/>
<path d="M545.857,81.2377h 7.39843" fill="none" stroke="black"/>
<path d="M538.459,68.9781h 14.7969" fill="none" stroke="black"/>
<path d="M538.459,68.9781h 14.7969" fill="none" stroke="black"/>
<path d="M545.857,56.7185h 7.39843" fill="none" stroke="black"/>
<path d="M545.857,44.4589h 7.39843" fill="none" stroke="black"/>
<path d="M545.857,32.1994h 7.39843" fill="none" stroke="black"/>
<path d="M545.857,19.9398h 7.39843" fill="none" stroke="black"/>
<g stroke="#333333" stroke-width="2" fill="none">
<circle cx="282.098" cy="302.197" r="5.63548"/>
</g>
<g stroke="#333333" stroke-width="2" fill="none">
<circle cx="286.897" cy="298.011" r="5.63548"/>
</g>
<g stroke="#333333" stroke-width="2" fill="none">
<circle cx="291.697" cy="296.16" r="5.63548"/>
</g>
<g stroke="#333333" stroke-width="2" fill="none">
<circle cx="296.496" cy="290.98" r="5.63548"/>
</g>
<g stroke="#333333" stroke-width="2" fill="none">
<circle cx="301.295" cy="289.524" r="5.63548"/>
</g>
<g stroke="#333333" stroke-width="2" fill="none">
<circle cx="306.094" cy="289.229" r="5.63548"/>
</g>
<g stroke="#333333" stroke-width="2" fill="none">
<circle cx="310.894" cy="288.516" r="5.63548"/>
</g>
<g stroke="#333333" stroke-width="2" fill="none">
<circle cx="315.693" cy="289.423" r="5.63548"/>
</g>
<g stroke="#333333" stroke-width="2" fill="none">
<circle cx="320.492" cy="286.511" r="5.63548"/>
</g>
<g stroke="#333333" stroke-width="2" fill="none">
<circle cx="325.291" cy="284.971" r="5.63548"/>
</g>
<g stroke="#333333" stroke-width="2" fill="none">
<circle cx="330.091" cy="285.844" r="5.63548"/>
</g>
<g stroke="#333333" stroke-width="2" fill="none">
<circle cx="334.89" cy="282.161" r="5.63548"/>
</g>
<path d="M98.7518,363.042l 0.44993, -0.15691l 0.44993, -0.15691l 0.44993, -0.15691l 0.44993, -0.15691l 0.44993, -0.15691l 0.44993, -0.15691l 0.44993, -0.15691l 0.44993, -0.15691l 0.44993, -0.15691l 0.44993, -0.15691l 0.44993, -0.15691l 0.44993,
 -0.15691l 0.44993, -0.15691l 0.44993, -0.15691l 0.44993, -0.15691l 0.44993, -0.15691l 0.44993, -0.15691l 0.44993, -0.15691l 0.44993, -0.15691l 0.44993, -0.15691l 0.44993, -0.15691l 0.44993, -0.15691l 0.44993, -0.15691l 0.44993, -0.15691l 0.44993,
 -0.15691l 0.44993, -0.15691l 0.44993, -0.15691l 0.44993, -0.15691l 0.44993, -0.15691l 0.44993, -0.15691l 0.44993, -0.15691l 0.44993, -0.15691l 0.44993, -0.15691l 0.44993, -0.15691l 0.44993, -0.15691l 0.44993, -0.15691l 0.44993, -0.15691l 0.44993,
 -0.15691l 0.44993, -0.15691l 0.44993, -0.15691l 0.44993, -0.15691l 0.44993, -0.15691l 0.44993, -0.15691l 0.44993, -0.15691l 0.44993, -0.15691l 0.44993, -0.15691l 0.44993, -0.15691l 0.44993, -0.15691l 0.44993, -0.15691" fill="none" stroke="#33cccc"
 stroke-width="3"/>
<path d="M120.798,355.354l 0.44993, -0.15691l 0.44993, -0.15691l 0.44993, -0.15691l 0.44993, -0.15691l 0.44993, -0.15691l 0.44993, -0.15691l 0.44993, -0.15691l 0.44993, -0.15691l 0.44993, -0.15691l 0.44993, -0.15691l 0.44993, -0.15691l 0.44993,
 -0.15691l 0.44993, -0.15691l 0.44993, -0.15691l 0.44993, -0.15691l 0.44993, -0.15691l 0.44993, -0.15691l 0.44993, -0.15691l 0.44993, -0.15691l 0.44993, -0.15691l 0.44993, -0.15691l 0.44993, -0.15691l 0.44993, -0.15691l 0.44993, -0.15691l 0.44993,
 -0.15691l 0.44993, -0.15691l 0.44993, -0.15691l 0.44993, -0.15691l 0.44993, -0.15691l 0.44993, -0.15691l 0.44993, -0.15691l 0.44993, -0.15691l 0.44993, -0.15691l 0.44993, -0.15691l 0.44993, -0.15691l 0.44993, -0.15691l 0.44993, -0.15691l 0.44993,
 -0.15691l 0.44993, -0.15691l 0.44993, -0.15691l 0.44993, -0.15691l 0.44993, -0.15691l 0.44993, -0.15691l 0.44993, -0.15691l 0.44993, -0.15691l 0.44993, -0.15691l 0.44993, -0.15691l 0.44993, -0.15691l 0.44993, -0.15691" fill="none" stroke="#33cccc"
 stroke-width="3"/>
<path d="M142.845,347.665l 0.44993, -0.15691l 0.44993, -0.15691l 0.44993, -0.15691l 0.44993, -0.15691l 0.44993, -0.15691l 0.44993, -0.15691l 0.44993, -0.15691l 0.44993, -0.15691l 0.44993, -0.15691l 0.44993, -0.15691l 0.44993, -0.15691l 0.44993,
 -0.15691l 0.44993, -0.15691l 0.44993, -0.15691l 0.44993, -0.15691l 0.44993, -0.15691l 0.44993, -0.15691l 0.44993, -0.15691l 0.44993, -0.15691l 0.44993, -0.15691l 0.44993, -0.15691l 0.44993, -0.15691l 0.44993, -0.15691l 0.44993, -0.15691l 0.44993,
 -0.15691l 0.44993, -0.15691l 0.44993, -0.15691l 0.44993, -0.15691l 0.44993, -0.15691l 0.44993, -0.15691l 0.44993, -0.15691l 0.44993, -0.15691l 0.44993, -0.15691l 0.44993, -0.15691l 0.44993, -0.15691l 0.44993, -0.15691l 0.44993, -0.15691l 0.44993,
 -0.15691l 0.44993, -0.15691l 0.44993, -0.15691l 0.44993, -0.15691l 0.44993, -0.15691l 0.44993, -0.15691l 0.44993, -0.15691l 0.44993, -0.15691l 0.44993, -0.15691l 0.44993, -0.15691l 0.44993, -0.15691l 0.44993, -0.15691" fill="none" stroke="#33cccc"
 stroke-width="3"/>
<path d="M164.891,339.977l 0.44993, -0.15691l 0.44993, -0.15691l 0.44993, -0.15691l 0.44993, -0.15691l 0.44993, -0.15691l 0.44993, -0.15691l 0.44993, -0.15691l 0.44993, -0.15691l 0.44993, -0.15691l 0.44993, -0.15691l 0.44993, -0.15691l 0.44993,
 -0.15691l 0.44993, -0.15691l 0.44993, -0.15691l 0.44993, -0.15691l 0.44993, -0.15691l 0.44993, -0.15691l 0.44993, -0.15691l 0.44993, -0.15691l 0.44993, -0.15691l 0.44993, -0.15691l 0.44993, -0.15691l 0.44993, -0.15691l 0.44993, -0.15691l 0.44993,
 -0.15691l 0.44993, -0.15691l 0.44993, -0.15691l 0.44993, -0.15691l 0.44993, -0.15691l 0.44993, -0.15691l 0.44993, -0.15691l 0.44993, -0.15691l 0.44993, -0.15691l 0.44993, -0.15691l 0.44993, -0.15691l 0.44993, -0.15691l 0.44993, -0.15691l 0.44993,
 -0.15691l 0.44993, -0.15691l 0.44993, -0.15691l 0.44993, -0.15691l 0.44993, -0.15691l 0.44993, -0.15691l 0.44993, -0.15691l 0.44993, -0.15691l 0.44993, -0.15691l 0.44993, -0.15691l 0.44993, -0.15691l 0.44993, -0.15691" fill="none" stroke="#33cccc"
 stroke-width="3"/>
<path d="M186.938,332.288l 0.44993, -0.15691l 0.44993, -0.15691l 0.44993, -0.15691l 0.44993, -0.15691l 0.44993, -0.15691l 0.44993, -0.15691l 0.44993, -0.15691l 0.44993, -0.15691l 0.44993, -0.15691l 0.44993, -0.15691l 0.44993, -0.15691l 0.44993,
 -0.15691l 0.44993, -0.15691l 0.44993, -0.15691l 0.44993, -0.15691l 0.44993, -0.15691l 0.44993, -0.15691l 0.44993, -0.15691l 0.44993, -0.15691l 0.44993, -0.15691l 0.44993, -0.15691l 0.44993, -0.15691l 0.44993, -0.15691l 0.44993, -0.15691l 0.44993,
 -0.15691l 0.44993, -0.15691l 0.44993, -0.15691l 0.44993, -0.15691l 0.44993, -0.15691l 0.44993, -0.15691l 0.44993, -0.15691l 0.44993, -0.15691l 0.44993, -0.15691l 0.44993, -0.15691l 0.44993, -0.15691l 0.44993, -0.15691l 0.44993, -0.15691l 0.44993,
 -0.15691l 0.44993, -0.15691l 0.44993, -0.15691l 0.44993, -0.15691l 0.44993, -0.15691l 0.44993, -0.15691l 0.44993, -0.15691l 0.44993, -0.15691l 0.44993, -0.15691l 0.44993, -0.15691l 0.44993, -0.15691l 0.44993, -0.15691" fill="none" stroke="#33cccc"
 stroke-width="3"/>
<path d="M208.985,324.599l 0.44993, -0.15691l 0.44993, -0.15691l 0.44993, -0.15691l 0.44993, -0.15691l 0.44993, -0.15691l 0.44993, -0.15691l 0.44993, -0.15691l 0.44993, -0.15691l 0.44993, -0.15691l 0.44993, -0.15691l 0.44993, -0.15691l 0.44993,
 -0.15691l 0.44993, -0.15691l 0.44993, -0.15691l 0.44993, -0.15691l 0.44993, -0.15691l 0.44993, -0.15691l 0.44993, -0.15691l 0.44993, -0.15691l 0.44993, -0.15691l 0.44993, -0.15691l 0.44993, -0.15691l 0.44993, -0.15691l 0.44993, -0.15691l 0.44993,
 -0.15691l 0.44993, -0.15691l 0.44993, -0.15691l 0.44993, -0.15691l 0.44993, -0.15691l 0.44993, -0.15691l 0.44993, -0.15691l 0.44993, -0.15691l 0.44993, -0.15691l 0.44993, -0.15691l 0.44993, -0.15691l 0.44993, -0.15691l 0.44993, -0.15691l 0.44993,
 -0.15691l 0.44993, -0.15691l 0.44993, -0.15691l 0.44993, -0.15691l 0.44993, -0.15691l 0.44993, -0.15691l 0.44993, -0.15691l 0.44993, -0.15691l 0.44993, -0.15691l 0.44993, -0.15691l 0.44993, -0.15691l 0.44993, -0.15691" fill="none" stroke="#33cccc"
 stroke-width="3"/>
<path d="M231.031,316.911l 0.44993, -0.15691l 0.44993, -0.15691l 0.44993, -0.15691l 0.44993, -0.15691l 0.44993, -0.15691l 0.44993, -0.15691l 0.44993, -0.15691l 0.44993, -0.15691l 0.44993, -0.15691l 0.44993, -0.15691l 0.44993, -0.15691l 0.44993,
 -0.15691l 0.44993, -0.15691l 0.44993, -0.15691l 0.44993, -0.15691l 0.44993, -0.15691l 0.44993, -0.15691l 0.44993, -0.15691l 0.44993, -0.15691l 0.44993, -0.15691l 0.44993, -0.15691l 0.44993, -0.15691l 0.44993, -0.15691l 0.44993, -0.15691l 0.44993,
 -0.15691l 0.44993, -0.15691l 0.44993, -0.15691l 0.44993, -0.15691l 0.44993, -0.15691l 0.44993, -0.15691l 0.44993, -0.15691l 0.44993, -0.15691l 0.44993, -0.15691l 0.44993, -0.15691l 0.44993, -0.15691l 0.44993, -0.15691l 0.44993, -0.15691l 0.44993,
 -0.15691l 0.44993, -0.15691l 0.44993, -0.15691l 0.44993, -0.15691l 0.44993, -0.15691l 0.44993, -0.15691l 0.44993, -0.15691l 0.44993, -0.15691l 0.44993, -0.15691l 0.44993, -0.15691l 0.44993, -0.15691l 0.44993, -0.15691" fill="none" stroke="#33cccc"
 stroke-width="3"/>
<path d="M253.078,309.222l 0.44993, -0.15691l 0.44993, -0.15691l 0.44993, -0.15691l 0.44993, -0.15691l 0.44993, -0.15691l 0.44993, -0.15691l 0.44993, -0.15691l 0.44993, -0.15691l 0.44993, -0.15691l 0.44993, -0.15691l 0.44993, -0.15691l 0.44993,
 -0.15691l 0.44993, -0.15691l 0.44993, -0.15691l 0.44993, -0.15691l 0.44993, -0.15691l 0.44993, -0.15691l 0.44993, -0.15691l 0.44993, -0.15691l 0.44993, -0.15691l 0.44993, -0.15691l 0.44993, -0.15691l 0.44993, -0.15691l 0.44993, -0.15691l 0.44993,
 -0.15691l 0.44993, -0.15691l 0.44993, -0.15691l 0.44993, -0.15691l 0.44993, -0.15691l 0.44993, -0.15691l 0.44993, -0.15691l 0.44993, -0.15691l 0.44993, -0.15691l 0.44993, -0.15691l 0.44993, -0.15691l 0.44993, -0.15691l 0.44993, -0.15691l 0.44993,
 -0.15691l 0.44993, -0.15691l 0.44993, -0.15691l 0.44993, -0.15691l 0.44993, -0.15691l 0.44993, -0.15691l 0.44993, -0.15691l 0.44993, -0.15691l 0.44993, -0.15691l 0.44993, -0.15691l 0.44993, -0.15691l 0.44993, -0.15691" fill="none" stroke="#33cccc"
 stroke-width="3"/>
<path d="M275.124,301.534l 0.44993, -0.15691l 0.44993, -0.15691l 0.44993, -0.15691l 0.44993, -0.15691l 0.44993, -0.15691l 0.44993, -0.15691l 0.44993, -0.15691l 0.44993, -0.15691l 0.44993, -0.15691l 0.44993, -0.15691l 0.44993, -0.15691l 0.44993,
 -0.15691l 0.44993, -0.15691l 0.44993, -0.15691l 0.44993, -0.15691l 0.44993, -0.15691l 0.44993, -0.15691l 0.44993, -0.15691l 0.44993, -0.15691l 0.44993, -0.15691l 0.44993, -0.15691l 0.44993, -0.15691l 0.44993, -0.15691l 0.44993, -0.15691l 0.44993,
 -0.15691l 0.44993, -0.15691l 0.44993, -0.15691l 0.44993, -0.15691l 0.44993, -0.15691l 0.44993, -0.15691l 0.44993, -0.15691l 0.44993, -0.15691l 0.44993, -0.15691l 0.44993, -0.15691l 0.44993, -0.15691l 0.44993, -0.15691l 0.44993, -0.15691l 0.44993,
 -0.15691l 0.44993, -0.15691l 0.44993, -0.15691l 0.44993, -0.15691l 0.44993, -0.15691l 0.44993, -0.15691l 0.44993, -0.15691l 0.44993, -0.15691l 0.44993, -0.15691l 0.44993, -0.15691l 0.44993, -0.15691l 0.44993, -0.15691" fill="none" stroke="#33cccc"
 stroke-width="3"/>
<path d="M297.171,293.845l 0.44993, -0.15691l 0.44993, -0.15691l 0.44993, -0.15691l 0.44993, -0.15691l 0.44993, -0.15691l 0.44993, -0.15691l 0.44993, -0.15691l 0.44993, -0.15691l 0.44993, -0.15691l 0.44993, -0.15691l 0.44993, -0.15691l 0.44993,
 -0.15691l 0.44993, -0.15691l 0.44993, -0.15691l 0.44993, -0.15691l 0.44993, -0.15691l 0.44993, -0.15691l 0.44993, -0.15691l 0.44993, -0.15691l 0.44993, -0.15691l 0.44993, -0.15691l 0.44993, -0.15691l 0.44993, -0.15691l 0.44993, -0.15691l 0.44993,
 -0.15691l 0.44993, -0.15691l 0.44993, -0.15691l 0.44993, -0.15691l 0.44993, -0.15691l 0.44993, -0.15691l 0.44993, -0.15691l 0.44993, -0.15691l 0.44993, -0.15691l 0.44993, -0.15691l 0.44993, -0.15691l 0.44993, -0.15691l 0.44993, -0.15691l 0.44993,
 -0.15691l 0.44993, -0.15691l 0.44993, -0.15691l 0.44993, -0.15691l 0.44993, -0.15691l 0.44993, -0.15691l 0.44993, -0.15691l 0.44993, -0.15691l 0.44993, -0.15691l 0.44993, -0.15691l 0.44993, -0.15691l 0.44993, -0.15691" fill="none" stroke="#33cccc"
 stroke-width="3"/>
<path d="M319.217,286.156l 0.44993, -0.15691l 0.44993, -0.15691l 0.44993, -0.15691l 0.44993, -0.15691l 0.44993, -0.15691l 0.44993, -0.15691l 0.44993, -0.15691l 0.44993, -0.15691l 0.44993, -0.15691l 0.44993, -0.15691l 0.44993, -0.15691l 0.44993,
 -0.15691l 0.44993, -0.15691l 0.44993, -0.15691l 0.44993, -0.15691l 0.44993, -0.15691l 0.44993, -0.15691l 0.44993, -0.15691l 0.44993, -0.15691l 0.44993, -0.15691l 0.44993, -0.15691l 0.44993, -0.15691l 0.44993, -0.15691l 0.44993, -0.15691l 0.44993,
 -0.15691l 0.44993, -0.15691l 0.44993, -0.15691l 0.44993, -0.15691l 0.44993, -0.15691l 0.44993, -0.15691l 0.44993, -0.15691l 0.44993, -0.15691l 0.44993, -0.15691l 0.44993, -0.15691l 0.44993, -0.15691l 0.44993, -0.15691l 0.44993, -0.15691l 0.44993,
 -0.15691l 0.44993, -0.15691l 0.44993, -0.15691l 0.44993, -0.15691l 0.44993, -0.15691l 0.44993, -0.15691l 0.44993, -0.15691l 0.44993, -0.15691l 0.44993, -0.15691l 0.44993, -0.15691l 0.44993, -0.15691l 0.44993, -0.15691" fill="none" stroke="#33cccc"
 stroke-width="3"/>
<path d="M341.264,278.468l 0.44993, -0.15691l 0.44993, -0.15691l 0.44993, -0.15691l 0.44993, -0.15691l 0.44993, -0.15691l 0.44993, -0.15691l 0.44993, -0.15691l 0.44993, -0.15691l 0.44993, -0.15691l 0.44993, -0.15691l 0.44993, -0.15691l 0.44993,
 -0.15691l 0.44993, -0.15691l 0.44993, -0.15691l 0.44993, -0.15691l 0.44993, -0.15691l 0.44993, -0.15691l 0.44993, -0.15691l 0.44993, -0.15691l 0.44993, -0.15691l 0.44993, -0.15691l 0.44993, -0.15691l 0.44993, -0.15691l 0.44993, -0.15691l 0.44993,
 -0.15691l 0.44993, -0.15691l 0.44993, -0.15691l 0.44993, -0.15691l 0.44993, -0.15691l 0.44993, -0.15691l 0.44993, -0.15691l 0.44993, -0.15691l 0.44993, -0.15691l 0.44993, -0.15691l 0.44993, -0.15691l 0.44993, -0.15691l 0.44993, -0.15691l 0.44993,
 -0.15691l 0.44993, -0.15691l 0.44993, -0.15691l 0.44993, -0.15691l 0.44993, -0.15691l 0.44993, -0.15691l 0.44993, -0.15691l 0.44993, -0.15691l 0.44993, -0.15691l 0.44993, -0.15691l 0.44993, -0.15691l 0.44993, -0.15691" fill="none" stroke="#33cccc"
 stroke-width="3"/>
<path d="M363.311,270.779l 0.44993, -0.15691l 0.44993, -0.15691l 0.44993, -0.15691l 0.44993, -0.15691l 0.44993, -0.15691l 0.44993, -0.15691l 0.44993, -0.15691l 0.44993, -0.15691l 0.44993, -0.15691l 0.44993, -0.15691l 0.44993, -0.15691l 0.44993,
 -0.15691l 0.44993, -0.15691l 0.44993, -0.15691l 0.44993, -0.15691l 0.44993, -0.15691l 0.44993, -0.15691l 0.44993, -0.15691l 0.44993, -0.15691l 0.44993, -0.15691l 0.44993, -0.15691l 0.44993, -0.15691l 0.44993, -0.15691l 0.44993, -0.15691l 0.44993,
 -0.15691l 0.44993, -0.15691l 0.44993, -0.15691l 0.44993, -0.15691l 0.44993, -0.15691l 0.44993, -0.15691l 0.44993, -0.15691l 0.44993, -0.15691l 0.44993, -0.15691l 0.44993, -0.15691l 0.44993, -0.15691l 0.44993, -0.15691l 0.44993, -0.15691l 0.44993,
 -0.15691l 0.44993, -0.15691l 0.44993, -0.15691l 0.44993, -0.15691l 0.44993, -0.15691l 0.44993, -0.15691l 0.44993, -0.15691l 0.44993, -0.15691l 0.44993, -0.15691l 0.44993, -0.15691l 0.44993, -0.15691l 0.44993, -0.15691" fill="none" stroke="#33cccc"
 stroke-width="3"/>
<path d="M385.357,263.091l 0.44993, -0.15691l 0.44993, -0.15691l 0.44993, -0.15691l 0.44993, -0.15691l 0.44993, -0.15691l 0.44993, -0.15691l 0.44993, -0.15691l 0.44993, -0.15691l 0.44993, -0.15691l 0.44993, -0.15691l 0.44993, -0.15691l 0.44993,
 -0.15691l 0.44993, -0.15691l 0.44993, -0.15691l 0.44993, -0.15691l 0.44993, -0.15691l 0.44993, -0.15691l 0.44993, -0.15691l 0.44993, -0.15691l 0.44993, -0.15691l 0.44993, -0.15691l 0.44993, -0.15691l 0.44993, -0.15691l 0.44993, -0.15691l 0.44993,
 -0.15691l 0.44993, -0.15691l 0.44993, -0.15691l 0.44993, -0.15691l 0.44993, -0.15691l 0.44993, -0.15691l 0.44993, -0.15691l 0.44993, -0.15691l 0.44993, -0.15691l 0.44993, -0.15691l 0.44993, -0.15691l 0.44993, -0.15691l 0.44993, -0.15691l 0.44993,
 -0.15691l 0.44993, -0.15691l 0.44993, -0.15691l 0.44993, -0.15691l 0.44993, -0.15691l 0.44993, -0.15691l 0.44993, -0.15691l 0.44993, -0.15691l 0.44993, -0.15691l 0.44993, -0.15691l 0.44993, -0.15691l 0.44993, -0.15691" fill="none" stroke="#33cccc"
 stroke-width="3"/>
<path d="M407.404,255.402l 0.44993, -0.15691l 0.44993, -0.15691l 0.44993, -0.15691l 0.44993, -0.15691l 0.44993, -0.15691l 0.44993, -0.15691l 0.44993, -0.15691l 0.44993, -0.15691l 0.44993, -0.15691l 0.44993, -0.15691l 0.44993, -0.15691l 0.44993,
 -0.15691l 0.44993, -0.15691l 0.44993, -0.15691l 0.44993, -0.15691l 0.44993, -0.15691l 0.44993, -0.15691l 0.44993, -0.15691l 0.44993, -0.15691l 0.44993, -0.15691l 0.44993, -0.15691l 0.44993, -0.15691l 0.44993, -0.15691l 0.44993, -0.15691l 0.44993,
 -0.15691l 0.44993, -0.15691l 0.44993, -0.15691l 0.44993, -0.15691l 0.44993, -0.15691l 0.44993, -0.15691l 0.44993, -0.15691l 0.44993, -0.15691l 0.44993, -0.15691l 0.44993, -0.15691l 0.44993, -0.15691l 0.44993, -0.15691l 0.44993, -0.15691l 0.44993,
 -0.15691l 0.44993, -0.15691l 0.44993, -0.15691l 0.44993, -0.15691l 0.44993, -0.15691l 0.44993, -0.15691l 0.44993, -0.15691l 0.44993, -0.15691l 0.44993, -0.15691l 0.44993, -0.15691l 0.44993, -0.15691l 0.44993, -0.15691" fill="none" stroke="#33cccc"
 stroke-width="3"/>
<path d="M429.45,247.714l 0.44993, -0.15691l 0.44993, -0.15691l 0.44993, -0.15691l 0.44993, -0.15691l 0.44993, -0.15691l 0.44993, -0.15691l 0.44993, -0.15691l 0.44993, -0.15691l 0.44993, -0.15691l 0.44993, -0.15691l 0.44993, -0.15691l 0.44993,
 -0.15691l 0.44993, -0.15691l 0.44993, -0.15691l 0.44993, -0.15691l 0.44993, -0.15691l 0.44993, -0.15691l 0.44993, -0.15691l 0.44993, -0.15691l 0.44993, -0.15691l 0.44993, -0.15691l 0.44993, -0.15691l 0.44993, -0.15691l 0.44993, -0.15691l 0.44993,
 -0.15691l 0.44993, -0.15691l 0.44993, -0.15691l 0.44993, -0.15691l 0.44993, -0.15691l 0.44993, -0.15691l 0.44993, -0.15691l 0.44993, -0.15691l 0.44993, -0.15691l 0.44993, -0.15691l 0.44993, -0.15691l 0.44993, -0.15691l 0.44993, -0.15691l 0.44993,
 -0.15691l 0.44993, -0.15691l 0.44993, -0.15691l 0.44993, -0.15691l 0.44993, -0.15691l 0.44993, -0.15691l 0.44993, -0.15691l 0.44993, -0.15691l 0.44993, -0.15691l 0.44993, -0.15691l 0.44993, -0.15691l 0.44993, -0.15691" fill="none" stroke="#33cccc"
 stroke-width="3"/>
<path d="M451.497,240.025l 0.44993, -0.15691l 0.44993, -0.15691l 0.44993, -0.15691l 0.44993, -0.15691l 0.44993, -0.15691l 0.44993, -0.15691l 0.44993, -0.15691l 0.44993, -0.15691l 0.44993, -0.15691l 0.44993, -0.15691l 0.44993, -0.15691l 0.44993,
 -0.15691l 0.44993, -0.15691l 0.44993, -0.15691l 0.44993, -0.15691l 0.44993, -0.15691l 0.44993, -0.15691l 0.44993, -0.15691l 0.44993, -0.15691l 0.44993, -0.15691l 0.44993, -0.15691l 0.44993, -0.15691l 0.44993, -0.15691l 0.44993, -0.15691l 0.44993,
 -0.15691l 0.44993, -0.15691l 0.44993, -0.15691l 0.44993, -0.15691l 0.44993, -0.15691l 0.44993, -0.15691l 0.44993, -0.15691l 0.44993, -0.15691l 0.44993, -0.15691l 0.44993, -0.15691l 0.44993, -0.15691l 0.44993, -0.15691l 0.44993, -0.15691l 0.44993,
 -0.15691l 0.44993, -0.15691l 0.44993, -0.15691l 0.44993, -0.15691l 0.44993, -0.15691l 0.44993, -0.15691l 0.44993, -0.15691l 0.44993, -0.15691l 0.44993, -0.15691l 0.44993, -0.15691l 0.44993, -0.15691l 0.44993, -0.15691" fill="none" stroke="#33cccc"
 stroke-width="3"/>
<path d="M473.543,232.336l 0.44993, -0.15691l 0.44993, -0.15691l 0.44993, -0.15691l 0.44993, -0.15691l 0.44993, -0.15691l 0.44993, -0.15691l 0.44993, -0.15691l 0.44993, -0.15691l 0.44993, -0.15691l 0.44993, -0.15691l 0.44993, -0.15691l 0.44993,
 -0.15691l 0.44993, -0.15691l 0.44993, -0.15691l 0.44993, -0.15691l 0.44993, -0.15691l 0.44993, -0.15691l 0.44993, -0.15691l 0.44993, -0.15691l 0.44993, -0.15691l 0.44993, -0.15691l 0.44993, -0.15691l 0.44993, -0.15691l 0.44993, -0.15691l 0.44993,
 -0.15691l 0.44993, -0.15691l 0.44993, -0.15691l 0.44993, -0.15691l 0.44993, -0.15691l 0.44993, -0.15691l 0.44993, -0.15691l 0.44993, -0.15691l 0.44993, -0.15691l 0.44993, -0.15691l 0.44993, -0.15691l 0.44993, -0.15691l 0.44993, -0.15691l 0.44993,
 -0.15691l 0.44993, -0.15691l 0.44993, -0.15691l 0.44993, -0.15691l 0.44993, -0.15691l 0.44993, -0.15691l 0.44993, -0.15691l 0.44993, -0.15691l 0.44993, -0.15691l 0.44993, -0.15691l 0.44993, -0.15691l 0.44993, -0.15691" fill="none" stroke="#33cccc"
 stroke-width="3"/>
<path d="M495.59,224.648l 0.44993, -0.15691l 0.44993, -0.15691l 0.44993, -0.15691l 0.44993, -0.15691l 0.44993, -0.15691l 0.44993, -0.15691l 0.44993, -0.15691l 0.44993, -0.15691l 0.44993, -0.15691l 0.44993, -0.15691l 0.44993, -0.15691l 0.44993,
 -0.15691l 0.44993, -0.15691l 0.44993, -0.15691l 0.44993, -0.15691l 0.44993, -0.15691l 0.44993, -0.15691l 0.44993, -0.15691l 0.44993, -0.15691l 0.44993, -0.15691l 0.44993, -0.15691l 0.44993, -0.15691l 0.44993, -0.15691l 0.44993, -0.15691l 0.44993,
 -0.15691l 0.44993, -0.15691l 0.44993, -0.15691l 0.44993, -0.15691l 0.44993, -0.15691l 0.44993, -0.15691l 0.44993, -0.15691l 0.44993, -0.15691l 0.44993, -0.15691l 0.44993, -0.15691l 0.44993, -0.15691l 0.44993, -0.15691l 0.44993, -0.15691l 0.44993,
 -0.15691l 0.44993, -0.15691l 0.44993, -0.15691l 0.44993, -0.15691l 0.44993, -0.15691l 0.44993, -0.15691l 0.44993, -0.15691l 0.44993, -0.15691l 0.44993, -0.15691l 0.44993, -0.15691l 0.44993, -0.15691l 0.44993, -0.15691" fill="none" stroke="#33cccc"
 stroke-width="3"/>
<path d="M517.636,216.959l 0.44993, -0.15691l 0.44993, -0.15691l 0.44993, -0.15691l 0.44993, -0.15691l 0.44993, -0.15691l 0.44993, -0.15691l 0.44993, -0.15691l 0.44993, -0.15691l 0.44993, -0.15691l 0.44993, -0.15691l 0.44993, -0.15691l 0.44993,
 -0.15691l 0.44993, -0.15691l 0.44993, -0.15691l 0.44993, -0.15691l 0.44993, -0.15691l 0.44993, -0.15691l 0.44993, -0.15691l 0.44993, -0.15691l 0.44993, -0.15691l 0.44993, -0.15691l 0.44993, -0.15691l 0.44993, -0.15691l 0.44993, -0.15691l 0.44993,
 -0.15691l 0.44993, -0.15691l 0.44993, -0.15691l 0.44993, -0.15691l 0.44993, -0.15691l 0.44993, -0.15691l 0.44993, -0.15691l 0.44993, -0.15691l 0.44993, -0.15691l 0.44993, -0.15691l 0.44993, -0.15691l 0.44993, -0.15691l 0.44993, -0.15691l 0.44993,
 -0.15691l 0.44993, -0.15691l 0.44993, -0.15691l 0.44993, -0.15691l 0.44993, -0.15691l 0.44993, -0.15691l 0.44993, -0.15691l 0.44993, -0.15691l 0.44993, -0.15691l 0.44993, -0.15691l 0.44993, -0.15691l 0.44993, -0.15691" fill="none" stroke="#33cccc"
 stroke-width="3"/>
<path d="M539.683,209.271l 0.44993, -0.15691l 0.44993, -0.15691l 0.44993, -0.15691l 0.44993, -0.15691l 0.44993, -0.15691l 0.44993, -0.15691l 0.44993, -0.15691l 0.44993, -0.15691l 0.44993, -0.15691l 0.44993, -0.15691l 0.44993, -0.15691l 0.44993,
 -0.15691l 0.44993, -0.15691l 0.44993, -0.15691l 0.44993, -0.15691l 0.44993, -0.15691l 0.44993, -0.15691l 0.44993, -0.15691l 0.44993, -0.15691" fill="none" stroke="#33cccc" stroke-width="3"/>
<path d="M98.7518,339.966l 0.44993, -0.0531116l 0.44993, -0.0533142l 0.44993, -0.0535168l 0.44993, -0.0537194l 0.44993, -0.053922l 0.44993, -0.0541246l 0.44993, -0.0543272l 0.44993, -0.0545298l 0.44993, -0.0547324l 0.44993, -0.054935l 0.44993,
 -0.0551376l 0.44993, -0.0553402l 0.44993, -0.0555429l 0.44993, -0.0557455l 0.44993, -0.0559481l 0.44993, -0.0561507l 0.44993, -0.0563533l 0.44993, -0.0565559l 0.44993, -0.0567585l 0.44993, -0.0569611l 0.44993, -0.0571637l 0.44993, -0.0573663l
 0.44993, -0.0575689l 0.44993, -0.0577715l 0.44993, -0.0579741l 0.44993, -0.0581767l 0.44993, -0.0583793l 0.44993, -0.0585819l 0.44993, -0.0587845l 0.44993, -0.0589871l 0.44993, -0.0591897l 0.44993, -0.0593923l 0.44993, -0.059595l 0.44993,
 -0.0597976l 0.44993, -0.0600002l 0.44993, -0.0602028l 0.44993, -0.0604054l 0.44993, -0.060608l 0.44993, -0.0608106l 0.44993, -0.0610132l 0.44993, -0.0612158l 0.44993, -0.0614184l 0.44993, -0.061621l 0.44993, -0.0618236l 0.44993, -0.0620262l 0.44993,
 -0.0622288l 0.44993, -0.0624314l 0.44993, -0.062634l 0.44993, -0.0628366" fill="none" stroke="#ff0066" stroke-width="3"/>
<path d="M120.798,337.126l 0.44993, -0.0630392l 0.44993, -0.0632418l 0.44993, -0.0634444l 0.44993, -0.063647l 0.44993, -0.0638497l 0.44993, -0.0640523l 0.44993, -0.0642549l 0.44993, -0.0644575l 0.44993, -0.0646601l 0.44993, -0.0648627l 0.44993,
 -0.0650653l 0.44993, -0.0652679l 0.44993, -0.0654705l 0.44993, -0.0656731l 0.44993, -0.0658757l 0.44993, -0.0660783l 0.44993, -0.0662809l 0.44993, -0.0664835l 0.44993, -0.0666861l 0.44993, -0.0668887l 0.44993, -0.0670913l 0.44993, -0.0672939l
 0.44993, -0.0674965l 0.44993, -0.0676991l 0.44993, -0.0679018l 0.44993, -0.0681044l 0.44993, -0.068307l 0.44993, -0.0685096l 0.44993, -0.0687122l 0.44993, -0.0689148l 0.44993, -0.0691174l 0.44993, -0.06932l 0.44993, -0.0695226l 0.44993, -0.0697252l
 0.44993, -0.0699278l 0.44993, -0.0701304l 0.44993, -0.070333l 0.44993, -0.0705356l 0.44993, -0.0707382l 0.44993, -0.0709408l 0.44993, -0.0711434l 0.44993, -0.071346l 0.44993, -0.0715486l 0.44993, -0.0717512l 0.44993, -0.0719539l 0.44993, -0.0721565l
 0.44993, -0.0723591l 0.44993, -0.0725617l 0.44993, -0.0727643" fill="none" stroke="#ff0066" stroke-width="3"/>
<path d="M142.845,333.798l 0.44993, -0.0729669l 0.44993, -0.0731695l 0.44993, -0.0733721l 0.44993, -0.0735747l 0.44993, -0.0737773l 0.44993, -0.0739799l 0.44993, -0.0741825l 0.44993, -0.0743851l 0.44993, -0.0745877l 0.44993, -0.0747903l 0.44993,
 -0.0749929l 0.44993, -0.0751955l 0.44993, -0.0753981l 0.44993, -0.0756007l 0.44993, -0.0758033l 0.44993, -0.076006l 0.44993, -0.0762086l 0.44993, -0.0764112l 0.44993, -0.0766138l 0.44993, -0.0768164l 0.44993, -0.077019l 0.44993, -0.0772216l 0.44993,
 -0.0774242l 0.44993, -0.0776268l 0.44993, -0.0778294l 0.44993, -0.078032l 0.44993, -0.0782346l 0.44993, -0.0784372l 0.44993, -0.0786398l 0.44993, -0.0788424l 0.44993, -0.079045l 0.44993, -0.0792476l 0.44993, -0.0794502l 0.44993, -0.0796528l 0.44993,
 -0.0798554l 0.44993, -0.0800581l 0.44993, -0.0802607l 0.44993, -0.0804633l 0.44993, -0.0806659l 0.44993, -0.0808685l 0.44993, -0.0810711l 0.44993, -0.0812737l 0.44993, -0.0814763l 0.44993, -0.0816789l 0.44993, -0.0818815l 0.44993, -0.0820841l
 0.44993, -0.0822867l 0.44993, -0.0824893l 0.44993, -0.0826919" fill="none" stroke="#ff0066" stroke-width="3"/>
<path d="M164.891,329.985l 0.44993, -0.0828945l 0.44993, -0.0830971l 0.44993, -0.0832997l 0.44993, -0.0835023l 0.44993, -0.0837049l 0.44993, -0.0839075l 0.44993, -0.0841101l 0.44993, -0.0843128l 0.44993, -0.0845154l 0.44993, -0.084718l 0.44993,
 -0.0849206l 0.44993, -0.0851232l 0.44993, -0.0853258l 0.44993, -0.0855284l 0.44993, -0.085731l 0.44993, -0.0859336l 0.44993, -0.0861362l 0.44993, -0.0863388l 0.44993, -0.0865414l 0.44993, -0.086744l 0.44993, -0.0869466l 0.44993, -0.0871492l 0.44993,
 -0.0873518l 0.44993, -0.0875544l 0.44993, -0.087757l 0.44993, -0.0879596l 0.44993, -0.0881623l 0.44993, -0.0883649l 0.44993, -0.0885675l 0.44993, -0.0887701l 0.44993, -0.0889727l 0.44993, -0.0891753l 0.44993, -0.0893779l 0.44993, -0.0895805l
 0.44993, -0.0897831l 0.44993, -0.0899857l 0.44993, -0.0901883l 0.44993, -0.0903909l 0.44993, -0.0905935l 0.44993, -0.0907961l 0.44993, -0.0909987l 0.44993, -0.0912013l 0.44993, -0.0914039l 0.44993, -0.0916065l 0.44993, -0.0918091l 0.44993,
 -0.0920117l 0.44993, -0.0922143l 0.44993, -0.0924169l 0.44993, -0.0926196" fill="none" stroke="#ff0066" stroke-width="3"/>
<path d="M186.938,325.685l 0.44993, -0.0928222l 0.44993, -0.0930248l 0.44993, -0.0932274l 0.44993, -0.09343l 0.44993, -0.0936326l 0.44993, -0.0938352l 0.44993, -0.0940378l 0.44993, -0.0942404l 0.44993, -0.094443l 0.44993, -0.0946456l 0.44993,
 -0.0948482l 0.44993, -0.0950508l 0.44993, -0.0952534l 0.44993, -0.095456l 0.44993, -0.0956586l 0.44993, -0.0958612l 0.44993, -0.0960638l 0.44993, -0.0962664l 0.44993, -0.0964691l 0.44993, -0.0966717l 0.44993, -0.0968743l 0.44993, -0.0970769l
 0.44993, -0.0972795l 0.44993, -0.0974821l 0.44993, -0.0976847l 0.44993, -0.0978873l 0.44993, -0.0980899l 0.44993, -0.0982925l 0.44993, -0.0984951l 0.44993, -0.0986977l 0.44993, -0.0989003l 0.44993, -0.0991029l 0.44993, -0.0993055l 0.44993,
 -0.0995081l 0.44993, -0.0997107l 0.44993, -0.0999133l 0.44993, -0.100116l 0.44993, -0.100319l 0.44993, -0.100521l 0.44993, -0.100724l 0.44993, -0.100926l 0.44993, -0.101129l 0.44993, -0.101332l 0.44993, -0.101534l 0.44993, -0.101737l 0.44993,
 -0.101939l 0.44993, -0.102142l 0.44993, -0.102345l 0.44993, -0.102547" fill="none" stroke="#ff0066" stroke-width="3"/>
<path d="M208.985,320.898l 0.44993, -0.10275l 0.44993, -0.102952l 0.44993, -0.103155l 0.44993, -0.103358l 0.44993, -0.10356l 0.44993, -0.103763l 0.44993, -0.103965l 0.44993, -0.104168l 0.44993, -0.104371l 0.44993, -0.104573l 0.44993, -0.104776l
 0.44993, -0.104978l 0.44993, -0.105181l 0.44993, -0.105384l 0.44993, -0.105586l 0.44993, -0.105789l 0.44993, -0.105991l 0.44993, -0.106194l 0.44993, -0.106397l 0.44993, -0.106599l 0.44993, -0.106802l 0.44993, -0.107005l 0.44993, -0.107207l 0.44993,
 -0.10741l 0.44993, -0.107612l 0.44993, -0.107815l 0.44993, -0.108018l 0.44993, -0.10822l 0.44993, -0.108423l 0.44993, -0.108625l 0.44993, -0.108828l 0.44993, -0.109031l 0.44993, -0.109233l 0.44993, -0.109436l 0.44993, -0.109638l 0.44993, -0.109841l
 0.44993, -0.110044l 0.44993, -0.110246l 0.44993, -0.110449l 0.44993, -0.110651l 0.44993, -0.110854l 0.44993, -0.111057l 0.44993, -0.111259l 0.44993, -0.111462l 0.44993, -0.111664l 0.44993, -0.111867l 0.44993, -0.11207l 0.44993, -0.112272l 0.44993,
 -0.112475" fill="none" stroke="#ff0066" stroke-width="3"/>
<path d="M231.031,315.625l 0.44993, -0.112677l 0.44993, -0.11288l 0.44993, -0.113083l 0.44993, -0.113285l 0.44993, -0.113488l 0.44993, -0.11369l 0.44993, -0.113893l 0.44993, -0.114096l 0.44993, -0.114298l 0.44993, -0.114501l 0.44993, -0.114703l
 0.44993, -0.114906l 0.44993, -0.115109l 0.44993, -0.115311l 0.44993, -0.115514l 0.44993, -0.115717l 0.44993, -0.115919l 0.44993, -0.116122l 0.44993, -0.116324l 0.44993, -0.116527l 0.44993, -0.11673l 0.44993, -0.116932l 0.44993, -0.117135l 0.44993,
 -0.117337l 0.44993, -0.11754l 0.44993, -0.117743l 0.44993, -0.117945l 0.44993, -0.118148l 0.44993, -0.11835l 0.44993, -0.118553l 0.44993, -0.118756l 0.44993, -0.118958l 0.44993, -0.119161l 0.44993, -0.119363l 0.44993, -0.119566l 0.44993, -0.119769l
 0.44993, -0.119971l 0.44993, -0.120174l 0.44993, -0.120376l 0.44993, -0.120579l 0.44993, -0.120782l 0.44993, -0.120984l 0.44993, -0.121187l 0.44993, -0.121389l 0.44993, -0.121592l 0.44993, -0.121795l 0.44993, -0.121997l 0.44993, -0.1222l 0.44993,
 -0.122402" fill="none" stroke="#ff0066" stroke-width="3"/>
<path d="M253.078,309.866l 0.44993, -0.122605l 0.44993, -0.122808l 0.44993, -0.12301l 0.44993, -0.123213l 0.44993, -0.123416l 0.44993, -0.123618l 0.44993, -0.123821l 0.44993, -0.124023l 0.44993, -0.124226l 0.44993, -0.124429l 0.44993, -0.124631l
 0.44993, -0.124834l 0.44993, -0.125036l 0.44993, -0.125239l 0.44993, -0.125442l 0.44993, -0.125644l 0.44993, -0.125847l 0.44993, -0.126049l 0.44993, -0.126252l 0.44993, -0.126455l 0.44993, -0.126657l 0.44993, -0.12686l 0.44993, -0.127062l 0.44993,
 -0.127265l 0.44993, -0.127468l 0.44993, -0.12767l 0.44993, -0.127873l 0.44993, -0.128075l 0.44993, -0.128278l 0.44993, -0.128481l 0.44993, -0.128683l 0.44993, -0.128886l 0.44993, -0.129088l 0.44993, -0.129291l 0.44993, -0.129494l 0.44993, -0.129696l
 0.44993, -0.129899l 0.44993, -0.130101l 0.44993, -0.130304l 0.44993, -0.130507l 0.44993, -0.130709l 0.44993, -0.130912l 0.44993, -0.131114l 0.44993, -0.131317l 0.44993, -0.13152l 0.44993, -0.131722l 0.44993, -0.131925l 0.44993, -0.132128l 0.44993,
 -0.13233" fill="none" stroke="#ff0066" stroke-width="3"/>
<path d="M275.124,303.62l 0.44993, -0.132533l 0.44993, -0.132735l 0.44993, -0.132938l 0.44993, -0.133141l 0.44993, -0.133343l 0.44993, -0.133546l 0.44993, -0.133748l 0.44993, -0.133951l 0.44993, -0.134154l 0.44993, -0.134356l 0.44993, -0.134559l
 0.44993, -0.134761l 0.44993, -0.134964l 0.44993, -0.135167l 0.44993, -0.135369l 0.44993, -0.135572l 0.44993, -0.135774l 0.44993, -0.135977l 0.44993, -0.13618l 0.44993, -0.136382l 0.44993, -0.136585l 0.44993, -0.136787l 0.44993, -0.13699l 0.44993,
 -0.137193l 0.44993, -0.137395l 0.44993, -0.137598l 0.44993, -0.1378l 0.44993, -0.138003l 0.44993, -0.138206l 0.44993, -0.138408l 0.44993, -0.138611l 0.44993, -0.138813l 0.44993, -0.139016l 0.44993, -0.139219l 0.44993, -0.139421l 0.44993, -0.139624l
 0.44993, -0.139827l 0.44993, -0.140029l 0.44993, -0.140232l 0.44993, -0.140434l 0.44993, -0.140637l 0.44993, -0.14084l 0.44993, -0.141042l 0.44993, -0.141245l 0.44993, -0.141447l 0.44993, -0.14165l 0.44993, -0.141853l 0.44993, -0.142055l 0.44993,
 -0.142258" fill="none" stroke="#ff0066" stroke-width="3"/>
<path d="M297.171,296.887l 0.44993, -0.14246l 0.44993, -0.142663l 0.44993, -0.142866l 0.44993, -0.143068l 0.44993, -0.143271l 0.44993, -0.143473l 0.44993, -0.143676l 0.44993, -0.143879l 0.44993, -0.144081l 0.44993, -0.144284l 0.44993, -0.144486l
 0.44993, -0.144689l 0.44993, -0.144892l 0.44993, -0.145094l 0.44993, -0.145297l 0.44993, -0.145499l 0.44993, -0.145702l 0.44993, -0.145905l 0.44993, -0.146107l 0.44993, -0.14631l 0.44993, -0.146512l 0.44993, -0.146715l 0.44993, -0.146918l 0.44993,
 -0.14712l 0.44993, -0.147323l 0.44993, -0.147526l 0.44993, -0.147728l 0.44993, -0.147931l 0.44993, -0.148133l 0.44993, -0.148336l 0.44993, -0.148539l 0.44993, -0.148741l 0.44993, -0.148944l 0.44993, -0.149146l 0.44993, -0.149349l 0.44993, -0.149552l
 0.44993, -0.149754l 0.44993, -0.149957l 0.44993, -0.150159l 0.44993, -0.150362l 0.44993, -0.150565l 0.44993, -0.150767l 0.44993, -0.15097l 0.44993, -0.151172l 0.44993, -0.151375l 0.44993, -0.151578l 0.44993, -0.15178l 0.44993, -0.151983l 0.44993,
 -0.152185" fill="none" stroke="#ff0066" stroke-width="3"/>
<path d="M319.217,289.669l 0.44993, -0.152388l 0.44993, -0.152591l 0.44993, -0.152793l 0.44993, -0.152996l 0.44993, -0.153198l 0.44993, -0.153401l 0.44993, -0.153604l 0.44993, -0.153806l 0.44993, -0.154009l 0.44993, -0.154211l 0.44993, -0.154414l
 0.44993, -0.154617l 0.44993, -0.154819l 0.44993, -0.155022l 0.44993, -0.155224l 0.44993, -0.155427l 0.44993, -0.15563l 0.44993, -0.155832l 0.44993, -0.156035l 0.44993, -0.156238l 0.44993, -0.15644l 0.44993, -0.156643l 0.44993, -0.156845l 0.44993,
 -0.157048l 0.44993, -0.157251l 0.44993, -0.157453l 0.44993, -0.157656l 0.44993, -0.157858l 0.44993, -0.158061l 0.44993, -0.158264l 0.44993, -0.158466l 0.44993, -0.158669l 0.44993, -0.158871l 0.44993, -0.159074l 0.44993, -0.159277l 0.44993,
 -0.159479l 0.44993, -0.159682l 0.44993, -0.159884l 0.44993, -0.160087l 0.44993, -0.16029l 0.44993, -0.160492l 0.44993, -0.160695l 0.44993, -0.160897l 0.44993, -0.1611l 0.44993, -0.161303l 0.44993, -0.161505l 0.44993, -0.161708l 0.44993, -0.16191l
 0.44993, -0.162113" fill="none" stroke="#ff0066" stroke-width="3"/>
<path d="M341.264,281.963l 0.44993, -0.162316l 0.44993, -0.162518l 0.44993, -0.162721l 0.44993, -0.162923l 0.44993, -0.163126l 0.44993, -0.163329l 0.44993, -0.163531l 0.44993, -0.163734l 0.44993, -0.163936l 0.44993, -0.164139l 0.44993, -0.164342l
 0.44993, -0.164544l 0.44993, -0.164747l 0.44993, -0.16495l 0.44993, -0.165152l 0.44993, -0.165355l 0.44993, -0.165557l 0.44993, -0.16576l 0.44993, -0.165963l 0.44993, -0.166165l 0.44993, -0.166368l 0.44993, -0.16657l 0.44993, -0.166773l 0.44993,
 -0.166976l 0.44993, -0.167178l 0.44993, -0.167381l 0.44993, -0.167583l 0.44993, -0.167786l 0.44993, -0.167989l 0.44993, -0.168191l 0.44993, -0.168394l 0.44993, -0.168596l 0.44993, -0.168799l 0.44993, -0.169002l 0.44993, -0.169204l 0.44993,
 -0.169407l 0.44993, -0.169609l 0.44993, -0.169812l 0.44993, -0.170015l 0.44993, -0.170217l 0.44993, -0.17042l 0.44993, -0.170622l 0.44993, -0.170825l 0.44993, -0.171028l 0.44993, -0.17123l 0.44993, -0.171433l 0.44993, -0.171635l 0.44993, -0.171838l
 0.44993, -0.172041" fill="none" stroke="#ff0066" stroke-width="3"/>
<path d="M363.311,273.772l 0.44993, -0.172243l 0.44993, -0.172446l 0.44993, -0.172649l 0.44993, -0.172851l 0.44993, -0.173054l 0.44993, -0.173256l 0.44993, -0.173459l 0.44993, -0.173662l 0.44993, -0.173864l 0.44993, -0.174067l 0.44993, -0.174269l
 0.44993, -0.174472l 0.44993, -0.174675l 0.44993, -0.174877l 0.44993, -0.17508l 0.44993, -0.175282l 0.44993, -0.175485l 0.44993, -0.175688l 0.44993, -0.17589l 0.44993, -0.176093l 0.44993, -0.176295l 0.44993, -0.176498l 0.44993, -0.176701l 0.44993,
 -0.176903l 0.44993, -0.177106l 0.44993, -0.177308l 0.44993, -0.177511l 0.44993, -0.177714l 0.44993, -0.177916l 0.44993, -0.178119l 0.44993, -0.178321l 0.44993, -0.178524l 0.44993, -0.178727l 0.44993, -0.178929l 0.44993, -0.179132l 0.44993,
 -0.179334l 0.44993, -0.179537l 0.44993, -0.17974l 0.44993, -0.179942l 0.44993, -0.180145l 0.44993, -0.180348l 0.44993, -0.18055l 0.44993, -0.180753l 0.44993, -0.180955l 0.44993, -0.181158l 0.44993, -0.181361l 0.44993, -0.181563l 0.44993, -0.181766l
 0.44993, -0.181968" fill="none" stroke="#ff0066" stroke-width="3"/>
<path d="M385.357,265.093l 0.44993, -0.182171l 0.44993, -0.182374l 0.44993, -0.182576l 0.44993, -0.182779l 0.44993, -0.182981l 0.44993, -0.183184l 0.44993, -0.183387l 0.44993, -0.183589l 0.44993, -0.183792l 0.44993, -0.183994l 0.44993, -0.184197l
 0.44993, -0.1844l 0.44993, -0.184602l 0.44993, -0.184805l 0.44993, -0.185007l 0.44993, -0.18521l 0.44993, -0.185413l 0.44993, -0.185615l 0.44993, -0.185818l 0.44993, -0.18602l 0.44993, -0.186223l 0.44993, -0.186426l 0.44993, -0.186628l 0.44993,
 -0.186831l 0.44993, -0.187033l 0.44993, -0.187236l 0.44993, -0.187439l 0.44993, -0.187641l 0.44993, -0.187844l 0.44993, -0.188046l 0.44993, -0.188249l 0.44993, -0.188452l 0.44993, -0.188654l 0.44993, -0.188857l 0.44993, -0.18906l 0.44993, -0.189262l
 0.44993, -0.189465l 0.44993, -0.189667l 0.44993, -0.18987l 0.44993, -0.190073l 0.44993, -0.190275l 0.44993, -0.190478l 0.44993, -0.19068l 0.44993, -0.190883l 0.44993, -0.191086l 0.44993, -0.191288l 0.44993, -0.191491l 0.44993, -0.191693l 0.44993,
 -0.191896" fill="none" stroke="#ff0066" stroke-width="3"/>
<path d="M407.404,255.929l 0.44993, -0.192099l 0.44993, -0.192301l 0.44993, -0.192504l 0.44993, -0.192706l 0.44993, -0.192909l 0.44993, -0.193112l 0.44993, -0.193314l 0.44993, -0.193517l 0.44993, -0.193719l 0.44993, -0.193922l 0.44993, -0.194125l
 0.44993, -0.194327l 0.44993, -0.19453l 0.44993, -0.194732l 0.44993, -0.194935l 0.44993, -0.195138l 0.44993, -0.19534l 0.44993, -0.195543l 0.44993, -0.195745l 0.44993, -0.195948l 0.44993, -0.196151l 0.44993, -0.196353l 0.44993, -0.196556l 0.44993,
 -0.196758l 0.44993, -0.196961l 0.44993, -0.197164l 0.44993, -0.197366l 0.44993, -0.197569l 0.44993, -0.197772l 0.44993, -0.197974l 0.44993, -0.198177l 0.44993, -0.198379l 0.44993, -0.198582l 0.44993, -0.198785l 0.44993, -0.198987l 0.44993, -0.19919l
 0.44993, -0.199392l 0.44993, -0.199595l 0.44993, -0.199798l 0.44993, -0.2l 0.44993, -0.200203l 0.44993, -0.200405l 0.44993, -0.200608l 0.44993, -0.200811l 0.44993, -0.201013l 0.44993, -0.201216l 0.44993, -0.201418l 0.44993, -0.201621l 0.44993,
 -0.201824" fill="none" stroke="#ff0066" stroke-width="3"/>
<path d="M429.45,246.278l 0.44993, -0.202026l 0.44993, -0.202229l 0.44993, -0.202431l 0.44993, -0.202634l 0.44993, -0.202837l 0.44993, -0.203039l 0.44993, -0.203242l 0.44993, -0.203444l 0.44993, -0.203647l 0.44993, -0.20385l 0.44993, -0.204052l
 0.44993, -0.204255l 0.44993, -0.204457l 0.44993, -0.20466l 0.44993, -0.204863l 0.44993, -0.205065l 0.44993, -0.205268l 0.44993, -0.205471l 0.44993, -0.205673l 0.44993, -0.205876l 0.44993, -0.206078l 0.44993, -0.206281l 0.44993, -0.206484l 0.44993,
 -0.206686l 0.44993, -0.206889l 0.44993, -0.207091l 0.44993, -0.207294l 0.44993, -0.207497l 0.44993, -0.207699l 0.44993, -0.207902l 0.44993, -0.208104l 0.44993, -0.208307l 0.44993, -0.20851l 0.44993, -0.208712l 0.44993, -0.208915l 0.44993, -0.209117l
 0.44993, -0.20932l 0.44993, -0.209523l 0.44993, -0.209725l 0.44993, -0.209928l 0.44993, -0.21013l 0.44993, -0.210333l 0.44993, -0.210536l 0.44993, -0.210738l 0.44993, -0.210941l 0.44993, -0.211143l 0.44993, -0.211346l 0.44993, -0.211549l 0.44993,
 -0.211751" fill="none" stroke="#ff0066" stroke-width="3"/>
<path d="M451.497,236.14l 0.44993, -0.211954l 0.44993, -0.212156l 0.44993, -0.212359l 0.44993, -0.212562l 0.44993, -0.212764l 0.44993, -0.212967l 0.44993, -0.21317l 0.44993, -0.213372l 0.44993, -0.213575l 0.44993, -0.213777l 0.44993, -0.21398l
 0.44993, -0.214183l 0.44993, -0.214385l 0.44993, -0.214588l 0.44993, -0.21479l 0.44993, -0.214993l 0.44993, -0.215196l 0.44993, -0.215398l 0.44993, -0.215601l 0.44993, -0.215803l 0.44993, -0.216006l 0.44993, -0.216209l 0.44993, -0.216411l 0.44993,
 -0.216614l 0.44993, -0.216816l 0.44993, -0.217019l 0.44993, -0.217222l 0.44993, -0.217424l 0.44993, -0.217627l 0.44993, -0.217829l 0.44993, -0.218032l 0.44993, -0.218235l 0.44993, -0.218437l 0.44993, -0.21864l 0.44993, -0.218842l 0.44993, -0.219045l
 0.44993, -0.219248l 0.44993, -0.21945l 0.44993, -0.219653l 0.44993, -0.219855l 0.44993, -0.220058l 0.44993, -0.220261l 0.44993, -0.220463l 0.44993, -0.220666l 0.44993, -0.220868l 0.44993, -0.221071l 0.44993, -0.221274l 0.44993, -0.221476l 0.44993,
 -0.221679" fill="none" stroke="#ff0066" stroke-width="3"/>
<path d="M473.543,225.516l 0.44993, -0.221882l 0.44993, -0.222084l 0.44993, -0.222287l 0.44993, -0.222489l 0.44993, -0.222692l 0.44993, -0.222895l 0.44993, -0.223097l 0.44993, -0.2233l 0.44993, -0.223502l 0.44993, -0.223705l 0.44993, -0.223908l
 0.44993, -0.22411l 0.44993, -0.224313l 0.44993, -0.224515l 0.44993, -0.224718l 0.44993, -0.224921l 0.44993, -0.225123l 0.44993, -0.225326l 0.44993, -0.225528l 0.44993, -0.225731l 0.44993, -0.225934l 0.44993, -0.226136l 0.44993, -0.226339l 0.44993,
 -0.226541l 0.44993, -0.226744l 0.44993, -0.226947l 0.44993, -0.227149l 0.44993, -0.227352l 0.44993, -0.227554l 0.44993, -0.227757l 0.44993, -0.22796l 0.44993, -0.228162l 0.44993, -0.228365l 0.44993, -0.228567l 0.44993, -0.22877l 0.44993, -0.228973l
 0.44993, -0.229175l 0.44993, -0.229378l 0.44993, -0.229581l 0.44993, -0.229783l 0.44993, -0.229986l 0.44993, -0.230188l 0.44993, -0.230391l 0.44993, -0.230594l 0.44993, -0.230796l 0.44993, -0.230999l 0.44993, -0.231201l 0.44993, -0.231404l 0.44993,
 -0.231607" fill="none" stroke="#ff0066" stroke-width="3"/>
<path d="M495.59,214.406l 0.44993, -0.231809l 0.44993, -0.232012l 0.44993, -0.232214l 0.44993, -0.232417l 0.44993, -0.23262l 0.44993, -0.232822l 0.44993, -0.233025l 0.44993, -0.233227l 0.44993, -0.23343l 0.44993, -0.233633l 0.44993, -0.233835l
 0.44993, -0.234038l 0.44993, -0.23424l 0.44993, -0.234443l 0.44993, -0.234646l 0.44993, -0.234848l 0.44993, -0.235051l 0.44993, -0.235253l 0.44993, -0.235456l 0.44993, -0.235659l 0.44993, -0.235861l 0.44993, -0.236064l 0.44993, -0.236266l 0.44993,
 -0.236469l 0.44993, -0.236672l 0.44993, -0.236874l 0.44993, -0.237077l 0.44993, -0.237279l 0.44993, -0.237482l 0.44993, -0.237685l 0.44993, -0.237887l 0.44993, -0.23809l 0.44993, -0.238293l 0.44993, -0.238495l 0.44993, -0.238698l 0.44993, -0.2389l
 0.44993, -0.239103l 0.44993, -0.239306l 0.44993, -0.239508l 0.44993, -0.239711l 0.44993, -0.239913l 0.44993, -0.240116l 0.44993, -0.240319l 0.44993, -0.240521l 0.44993, -0.240724l 0.44993, -0.240926l 0.44993, -0.241129l 0.44993, -0.241332l 0.44993,
 -0.241534" fill="none" stroke="#ff0066" stroke-width="3"/>
<path d="M517.636,202.809l 0.44993, -0.241737l 0.44993, -0.241939l 0.44993, -0.242142l 0.44993, -0.242345l 0.44993, -0.242547l 0.44993, -0.24275l 0.44993, -0.242952l 0.44993, -0.243155l 0.44993, -0.243358l 0.44993, -0.24356l 0.44993, -0.243763l
 0.44993, -0.243965l 0.44993, -0.244168l 0.44993, -0.244371l 0.44993, -0.244573l 0.44993, -0.244776l 0.44993, -0.244978l 0.44993, -0.245181l 0.44993, -0.245384l 0.44993, -0.245586l 0.44993, -0.245789l 0.44993, -0.245991l 0.44993, -0.246194l 0.44993,
 -0.246397l 0.44993, -0.246599l 0.44993, -0.246802l 0.44993, -0.247005l 0.44993, -0.247207l 0.44993, -0.24741l 0.44993, -0.247612l 0.44993, -0.247815l 0.44993, -0.248018l 0.44993, -0.24822l 0.44993, -0.248423l 0.44993, -0.248625l 0.44993, -0.248828l
 0.44993, -0.249031l 0.44993, -0.249233l 0.44993, -0.249436l 0.44993, -0.249638l 0.44993, -0.249841l 0.44993, -0.250044l 0.44993, -0.250246l 0.44993, -0.250449l 0.44993, -0.250651l 0.44993, -0.250854l 0.44993, -0.251057l 0.44993, -0.251259l 0.44993,
 -0.251462" fill="none" stroke="#ff0066" stroke-width="3"/>
<path d="M539.683,190.725l 0.44993, -0.251664l 0.44993, -0.251867l 0.44993, -0.25207l 0.44993, -0.252272l 0.44993, -0.252475l 0.44993, -0.252677l 0.44993, -0.25288l 0.44993, -0.253083l 0.44993, -0.253285l 0.44993, -0.253488l 0.44993, -0.25369l
 0.44993, -0.253893l 0.44993, -0.254096l 0.44993, -0.254298l 0.44993, -0.254501l 0.44993, -0.254704l 0.44993, -0.254906l 0.44993, -0.255109l 0.44993, -0.255311" fill="none" stroke="#ff0066" stroke-width="3"/>
<path d="M212.509,21.4167h 275.957" fill="none" stroke="#999999" stroke-width="7"/>
<text xml:space="preserve" x="360.607" y="50.7193" fill="black" font-size="16.0105" font-family="Helvetica"> with EMC</text>
<text xml:space="preserve" x="352.717" y="50.7193" fill="black" font-size="16.0105" font-family="Times">&#0947;</text>
<text xml:space="preserve" x="344.828" y="50.7193" fill="black" font-size="16.0105" font-family="Times">&#0947;</text>
<text xml:space="preserve" x="336.938" y="50.7193" fill="black" font-size="16.0105" font-family="Times">&#0947;</text>
<text xml:space="preserve" x="331.866" y="50.7193" fill="black" font-size="16.0105" font-family="Helvetica"> </text>
<text xml:space="preserve" x="316.65" y="50.7193" fill="black" font-size="16.0105" font-family="Times">&#8594;</text>
<text xml:space="preserve" x="311.578" y="50.7193" fill="black" font-size="16.0105" font-family="Helvetica"> </text>
<text xml:space="preserve" x="303.689" y="50.7193" fill="black" font-size="16.0105" font-family="Times">&#0947;</text>
<text xml:space="preserve" x="298.053" y="45.0838" fill="black" font-size="10.8403" font-family="Helvetica">0</text>
<text xml:space="preserve" x="289.6" y="50.7193" fill="black" font-size="16.0105" font-family="Times">&#0960;</text>
<text xml:space="preserve" x="284.528" y="50.7193" fill="black" font-size="16.0105" font-family="Helvetica"> </text>
<text xml:space="preserve" x="269.312" y="50.7193" fill="black" font-size="16.0105" font-family="Times">&#8594;</text>
<text xml:space="preserve" x="264.24" y="50.7193" fill="black" font-size="16.0105" font-family="Helvetica"> </text>
<text xml:space="preserve" x="252.969" y="50.7193" fill="black" font-size="16.0105" font-family="Times">&#0969;</text>
<text xml:space="preserve" x="128.989" y="50.7193" fill="black" font-size="16.0105" font-family="Helvetica"> = 13 TeV (EG1), </text>
<text xml:space="preserve" x="120.536" y="50.7193" fill="black" font-size="16.0105" font-family="Helvetica" font-style="oblique">s</text>
<path d="M114.9,41.7025l 1.69064, 9.58031" fill="none" stroke="black" stroke-width="2"/>
<path d="M116.591,51.2829l 2.25419, -14.0887" fill="none" stroke="black"/>
<path d="M118.845,37.1942h 10.1439" fill="none" stroke="black"/>
<text xml:space="preserve" x="89.5406" y="50.7193" fill="black" font-size="16.0105" font-family="Helvetica">pp </text>
<text xml:space="preserve" x="89.5406" y="85.6593" fill="black" font-size="16.0105" font-family="Helvetica">ALICE work in progress</text>
<text xml:space="preserve" x="214.085" y="120.599" fill="black" font-size="16.0105" font-family="Helvetica">) &lt; 18.0</text>
<text xml:space="preserve" x="205.068" y="120.599" fill="black" font-size="16.0105" font-family="Helvetica" font-style="oblique">c</text>
<text xml:space="preserve" x="154.912" y="120.599" fill="black" font-size="16.0105" font-family="Helvetica"> /(GeV/</text>
<text xml:space="preserve" x="148.15" y="128.489" fill="black" font-size="10.8403" font-family="Helvetica">T</text>
<text xml:space="preserve" x="138.569" y="120.599" fill="black" font-size="16.0105" font-family="Helvetica" font-style="oblique">p</text>
<text xml:space="preserve" x="133.497" y="120.599" fill="black" font-size="16.0105" font-family="Helvetica"> </text>
<text xml:space="preserve" x="125.044" y="120.599" fill="black" font-size="16.0105" font-family="Times">&#8804;</text>
<text xml:space="preserve" x="89.5406" y="120.599" fill="black" font-size="16.0105" font-family="Helvetica">16.0 </text>
<rect x="312.311" y="69.1755" width="198.425" height="113.448" fill="white"/>
<text xml:space="preserve" x="361.734" y="85.0957" fill="black" font-size="16.0105" font-family="Helvetica">ratio</text>
<path d="M319.752,80.5203h 34.7244" fill="none" stroke="black" stroke-width="2"/>
<g fill="black">
<circle cx="337.114" cy="80.5203" r="6.76257"/>
</g>
<text xml:space="preserve" x="361.734" y="108.201" fill="black" font-size="16.0105" font-family="Helvetica">peak range</text>
<path d="M319.752,103.21h 34.7244" fill="none" stroke="#333333" stroke-width="2"/>
<g stroke="#333333" stroke-width="2" fill="none">
<circle cx="337.114" cy="103.21" r="5.63548"/>
</g>
<text xml:space="preserve" x="361.734" y="130.743" fill="black" font-size="16.0105" font-family="Helvetica">background pol1</text>
<path d="M319.752,125.899h 34.7244" fill="none" stroke="#33cccc" stroke-width="3"/>
<text xml:space="preserve" x="361.734" y="153.285" fill="black" font-size="16.0105" font-family="Helvetica">background pol2</text>
<path d="M319.752,148.589h 34.7244" fill="none" stroke="#ff0066" stroke-width="3"/>
<text xml:space="preserve" x="361.734" y="175.827" fill="black" font-size="16.0105" font-family="Helvetica">param. range</text>
<path d="M319.752,171.279h 34.7244" fill="none" stroke="#999999" stroke-width="7"/></svg>
