<?xml version="1.0" standalone="no"?>
<svg width="567.429" height="553.904" viewBox="0 0 567.429 553.904" xmlns="http://www.w3.org/2000/svg" shape-rendering="crispEdges">
<title>
MC/MB1/OmegaTGPSPlusPS/SameEventToBackgroundRatio_09.svg
</title>
<desc>
Creator: ROOT Version 6.20/08
CreationDate: Mon Mar 29 21:28:59 2021</desc>
<defs>
</defs>
<rect x="0.5" y="0" width="566.929" height="553.404" fill="white"/>
<rect x="68.5315" y="16.6021" width="484.724" height="481.461" fill="white"/>
<rect x="68.5315" y="16.6021" width="484.724" height="481.461" fill="none" stroke="black"/>
<rect x="68.5315" y="16.6021" width="484.724" height="481.461" fill="white"/>
<rect x="68.5315" y="16.6021" width="484.724" height="481.461" fill="none" stroke="black"/>
<g fill="black">
<circle cx="114.124" cy="495.47" r="6.76257"/>
</g>
<g fill="black">
<circle cx="118.924" cy="460.155" r="6.76257"/>
</g>
<g fill="black">
<circle cx="123.723" cy="452.502" r="6.76257"/>
</g>
<g fill="black">
<circle cx="128.522" cy="464.132" r="6.76257"/>
</g>
<g fill="black">
<circle cx="133.321" cy="474.404" r="6.76257"/>
</g>
<g fill="black">
<circle cx="138.121" cy="429.973" r="6.76257"/>
</g>
<g fill="black">
<circle cx="142.92" cy="378.055" r="6.76257"/>
</g>
<g fill="black">
<circle cx="147.719" cy="378.107" r="6.76257"/>
</g>
<g fill="black">
<circle cx="152.518" cy="351.662" r="6.76257"/>
</g>
<g fill="black">
<circle cx="157.318" cy="334.03" r="6.76257"/>
</g>
<g fill="black">
<circle cx="162.117" cy="326.633" r="6.76257"/>
</g>
<g fill="black">
<circle cx="166.916" cy="320.318" r="6.76257"/>
</g>
<g fill="black">
<circle cx="171.715" cy="316.009" r="6.76257"/>
</g>
<g fill="black">
<circle cx="176.515" cy="312.434" r="6.76257"/>
</g>
<g fill="black">
<circle cx="181.314" cy="310.219" r="6.76257"/>
</g>
<g fill="black">
<circle cx="186.113" cy="304.975" r="6.76257"/>
</g>
<g fill="black">
<circle cx="190.912" cy="304.2" r="6.76257"/>
</g>
<g fill="black">
<circle cx="195.712" cy="301.786" r="6.76257"/>
</g>
<g fill="black">
<circle cx="200.511" cy="302.025" r="6.76257"/>
</g>
<g fill="black">
<circle cx="205.31" cy="298.505" r="6.76257"/>
</g>
<g fill="black">
<circle cx="210.109" cy="295.352" r="6.76257"/>
</g>
<g fill="black">
<circle cx="214.909" cy="291.511" r="6.76257"/>
</g>
<g fill="black">
<circle cx="219.708" cy="288.221" r="6.76257"/>
</g>
<g fill="black">
<circle cx="224.507" cy="285.393" r="6.76257"/>
</g>
<g fill="black">
<circle cx="229.306" cy="283.012" r="6.76257"/>
</g>
<g fill="black">
<circle cx="234.106" cy="280.275" r="6.76257"/>
</g>
<g fill="black">
<circle cx="238.905" cy="274.114" r="6.76257"/>
</g>
<g fill="black">
<circle cx="243.704" cy="267.54" r="6.76257"/>
</g>
<g fill="black">
<circle cx="248.503" cy="267.186" r="6.76257"/>
</g>
<g fill="black">
<circle cx="253.303" cy="262.35" r="6.76257"/>
</g>
<g fill="black">
<circle cx="258.102" cy="262.575" r="6.76257"/>
</g>
<g fill="black">
<circle cx="262.901" cy="258.908" r="6.76257"/>
</g>
<g fill="black">
<circle cx="267.7" cy="259.595" r="6.76257"/>
</g>
<g fill="black">
<circle cx="272.5" cy="254.202" r="6.76257"/>
</g>
<g fill="black">
<circle cx="277.299" cy="252.963" r="6.76257"/>
</g>
<g fill="black">
<circle cx="339.689" cy="237.678" r="6.76257"/>
</g>
<g fill="black">
<circle cx="344.488" cy="238.505" r="6.76257"/>
</g>
<g fill="black">
<circle cx="349.288" cy="238.259" r="6.76257"/>
</g>
<g fill="black">
<circle cx="354.087" cy="237.175" r="6.76257"/>
</g>
<g fill="black">
<circle cx="358.886" cy="238.509" r="6.76257"/>
</g>
<g fill="black">
<circle cx="363.685" cy="237.424" r="6.76257"/>
</g>
<g fill="black">
<circle cx="368.485" cy="235.876" r="6.76257"/>
</g>
<g fill="black">
<circle cx="373.284" cy="233.621" r="6.76257"/>
</g>
<g fill="black">
<circle cx="378.083" cy="230.815" r="6.76257"/>
</g>
<g fill="black">
<circle cx="382.882" cy="231.421" r="6.76257"/>
</g>
<g fill="black">
<circle cx="387.682" cy="222.398" r="6.76257"/>
</g>
<g fill="black">
<circle cx="392.481" cy="234.21" r="6.76257"/>
</g>
<g fill="black">
<circle cx="397.28" cy="229.76" r="6.76257"/>
</g>
<g fill="black">
<circle cx="402.079" cy="226.48" r="6.76257"/>
</g>
<g fill="black">
<circle cx="406.879" cy="230.11" r="6.76257"/>
</g>
<g fill="black">
<circle cx="411.678" cy="226.876" r="6.76257"/>
</g>
<g fill="black">
<circle cx="416.477" cy="229.973" r="6.76257"/>
</g>
<g fill="black">
<circle cx="421.276" cy="227.143" r="6.76257"/>
</g>
<g fill="black">
<circle cx="426.076" cy="223.181" r="6.76257"/>
</g>
<g fill="black">
<circle cx="430.875" cy="223.46" r="6.76257"/>
</g>
<g fill="black">
<circle cx="435.674" cy="223.724" r="6.76257"/>
</g>
<g fill="black">
<circle cx="440.473" cy="221.226" r="6.76257"/>
</g>
<g fill="black">
<circle cx="445.273" cy="216.483" r="6.76257"/>
</g>
<g fill="black">
<circle cx="450.072" cy="213.734" r="6.76257"/>
</g>
<g fill="black">
<circle cx="454.871" cy="222.173" r="6.76257"/>
</g>
<g fill="black">
<circle cx="459.671" cy="217.148" r="6.76257"/>
</g>
<g fill="black">
<circle cx="464.47" cy="215.832" r="6.76257"/>
</g>
<g fill="black">
<circle cx="469.269" cy="211.813" r="6.76257"/>
</g>
<g fill="black">
<circle cx="474.068" cy="216.043" r="6.76257"/>
</g>
<g fill="black">
<circle cx="478.867" cy="212.251" r="6.76257"/>
</g>
<g fill="black">
<circle cx="483.667" cy="215.098" r="6.76257"/>
</g>
<g fill="black">
<circle cx="488.466" cy="209.127" r="6.76257"/>
</g>
<g fill="black">
<circle cx="493.265" cy="218.981" r="6.76257"/>
</g>
<g fill="black">
<circle cx="498.065" cy="216.867" r="6.76257"/>
</g>
<g fill="black">
<circle cx="502.864" cy="217.458" r="6.76257"/>
</g>
<g fill="black">
<circle cx="507.663" cy="207.575" r="6.76257"/>
</g>
<g fill="black">
<circle cx="512.462" cy="205.804" r="6.76257"/>
</g>
<g fill="black">
<circle cx="517.262" cy="209.543" r="6.76257"/>
</g>
<g fill="black">
<circle cx="522.061" cy="206.569" r="6.76257"/>
</g>
<g fill="black">
<circle cx="526.86" cy="215.948" r="6.76257"/>
</g>
<g fill="black">
<circle cx="531.659" cy="197.15" r="6.76257"/>
</g>
<g fill="black">
<circle cx="536.458" cy="203.392" r="6.76257"/>
</g>
<g fill="black">
<circle cx="541.258" cy="207.429" r="6.76257"/>
</g>
<g fill="black">
<circle cx="546.057" cy="208.057" r="6.76257"/>
</g>
<path d="M68.5315,498.064h 484.724" fill="none" stroke="black"/>
<path d="M68.5315,483.869v 14.1948" fill="none" stroke="black"/>
<path d="M83.5292,490.966v 7.09741" fill="none" stroke="black"/>
<path d="M98.5268,490.966v 7.09741" fill="none" stroke="black"/>
<path d="M113.524,490.966v 7.09741" fill="none" stroke="black"/>
<path d="M128.522,483.869v 14.1948" fill="none" stroke="black"/>
<path d="M143.52,490.966v 7.09741" fill="none" stroke="black"/>
<path d="M158.517,490.966v 7.09741" fill="none" stroke="black"/>
<path d="M173.515,490.966v 7.09741" fill="none" stroke="black"/>
<path d="M188.513,483.869v 14.1948" fill="none" stroke="black"/>
<path d="M203.51,490.966v 7.09741" fill="none" stroke="black"/>
<path d="M218.508,490.966v 7.09741" fill="none" stroke="black"/>
<path d="M233.506,490.966v 7.09741" fill="none" stroke="black"/>
<path d="M248.503,483.869v 14.1948" fill="none" stroke="black"/>
<path d="M263.501,490.966v 7.09741" fill="none" stroke="black"/>
<path d="M278.499,490.966v 7.09741" fill="none" stroke="black"/>
<path d="M293.496,490.966v 7.09741" fill="none" stroke="black"/>
<path d="M308.494,483.869v 14.1948" fill="none" stroke="black"/>
<path d="M323.492,490.966v 7.09741" fill="none" stroke="black"/>
<path d="M338.489,490.966v 7.09741" fill="none" stroke="black"/>
<path d="M353.487,490.966v 7.09741" fill="none" stroke="black"/>
<path d="M368.485,483.869v 14.1948" fill="none" stroke="black"/>
<path d="M383.482,490.966v 7.09741" fill="none" stroke="black"/>
<path d="M398.48,490.966v 7.09741" fill="none" stroke="black"/>
<path d="M413.478,490.966v 7.09741" fill="none" stroke="black"/>
<path d="M428.475,483.869v 14.1948" fill="none" stroke="black"/>
<path d="M443.473,490.966v 7.09741" fill="none" stroke="black"/>
<path d="M458.471,490.966v 7.09741" fill="none" stroke="black"/>
<path d="M473.468,490.966v 7.09741" fill="none" stroke="black"/>
<path d="M488.466,483.869v 14.1948" fill="none" stroke="black"/>
<path d="M503.464,490.966v 7.09741" fill="none" stroke="black"/>
<path d="M518.461,490.966v 7.09741" fill="none" stroke="black"/>
<path d="M533.459,490.966v 7.09741" fill="none" stroke="black"/>
<path d="M548.457,483.869v 14.1948" fill="none" stroke="black"/>
<path d="M548.457,483.869v 14.1948" fill="none" stroke="black"/>
<text xml:space="preserve" x="63.6174" y="513.956" fill="black" font-size="16.0105" font-family="Helvetica">0</text>
<text xml:space="preserve" x="117.718" y="513.956" fill="black" font-size="16.0105" font-family="Helvetica">0.2</text>
<text xml:space="preserve" x="177.454" y="513.956" fill="black" font-size="16.0105" font-family="Helvetica">0.4</text>
<text xml:space="preserve" x="237.754" y="513.956" fill="black" font-size="16.0105" font-family="Helvetica">0.6</text>
<text xml:space="preserve" x="297.49" y="513.956" fill="black" font-size="16.0105" font-family="Helvetica">0.8</text>
<text xml:space="preserve" x="365.115" y="513.956" fill="black" font-size="16.0105" font-family="Helvetica">1</text>
<text xml:space="preserve" x="417.525" y="513.956" fill="black" font-size="16.0105" font-family="Helvetica">1.2</text>
<text xml:space="preserve" x="477.261" y="513.956" fill="black" font-size="16.0105" font-family="Helvetica">1.4</text>
<text xml:space="preserve" x="537.561" y="513.956" fill="black" font-size="16.0105" font-family="Helvetica">1.6</text>
<text xml:space="preserve" x="548.268" y="537.625" fill="black" font-size="16.0105" font-family="Helvetica">)</text>
<text xml:space="preserve" x="542.633" y="532.553" fill="black" font-size="10.8403" font-family="Helvetica">2</text>
<text xml:space="preserve" x="533.616" y="537.625" fill="black" font-size="16.0105" font-family="Helvetica" font-style="oblique">c</text>
<text xml:space="preserve" x="487.405" y="537.625" fill="black" font-size="16.0105" font-family="Helvetica"> (GeV/</text>
<text xml:space="preserve" x="473.317" y="542.697" fill="black" font-size="10.8403" font-family="Helvetica">inv</text>
<text xml:space="preserve" x="459.792" y="537.625" fill="black" font-size="16.0105" font-family="Helvetica" font-style="oblique">m</text>
<path d="M68.5315,16.6021h 484.724" fill="none" stroke="black"/>
<path d="M68.5315,30.7969v -14.1948" fill="none" stroke="black"/>
<path d="M83.5292,23.6995v -7.09741" fill="none" stroke="black"/>
<path d="M98.5268,23.6995v -7.09741" fill="none" stroke="black"/>
<path d="M113.524,23.6995v -7.09741" fill="none" stroke="black"/>
<path d="M128.522,30.7969v -14.1948" fill="none" stroke="black"/>
<path d="M143.52,23.6995v -7.09741" fill="none" stroke="black"/>
<path d="M158.517,23.6995v -7.09741" fill="none" stroke="black"/>
<path d="M173.515,23.6995v -7.09741" fill="none" stroke="black"/>
<path d="M188.513,30.7969v -14.1948" fill="none" stroke="black"/>
<path d="M203.51,23.6995v -7.09741" fill="none" stroke="black"/>
<path d="M218.508,23.6995v -7.09741" fill="none" stroke="black"/>
<path d="M233.506,23.6995v -7.09741" fill="none" stroke="black"/>
<path d="M248.503,30.7969v -14.1948" fill="none" stroke="black"/>
<path d="M263.501,23.6995v -7.09741" fill="none" stroke="black"/>
<path d="M278.499,23.6995v -7.09741" fill="none" stroke="black"/>
<path d="M293.496,23.6995v -7.09741" fill="none" stroke="black"/>
<path d="M308.494,30.7969v -14.1948" fill="none" stroke="black"/>
<path d="M323.492,23.6995v -7.09741" fill="none" stroke="black"/>
<path d="M338.489,23.6995v -7.09741" fill="none" stroke="black"/>
<path d="M353.487,23.6995v -7.09741" fill="none" stroke="black"/>
<path d="M368.485,30.7969v -14.1948" fill="none" stroke="black"/>
<path d="M383.482,23.6995v -7.09741" fill="none" stroke="black"/>
<path d="M398.48,23.6995v -7.09741" fill="none" stroke="black"/>
<path d="M413.478,23.6995v -7.09741" fill="none" stroke="black"/>
<path d="M428.475,30.7969v -14.1948" fill="none" stroke="black"/>
<path d="M443.473,23.6995v -7.09741" fill="none" stroke="black"/>
<path d="M458.471,23.6995v -7.09741" fill="none" stroke="black"/>
<path d="M473.468,23.6995v -7.09741" fill="none" stroke="black"/>
<path d="M488.466,30.7969v -14.1948" fill="none" stroke="black"/>
<path d="M503.464,23.6995v -7.09741" fill="none" stroke="black"/>
<path d="M518.461,23.6995v -7.09741" fill="none" stroke="black"/>
<path d="M533.459,23.6995v -7.09741" fill="none" stroke="black"/>
<path d="M548.457,30.7969v -14.1948" fill="none" stroke="black"/>
<path d="M548.457,30.7969v -14.1948" fill="none" stroke="black"/>
<path d="M68.5315,498.064v -481.461" fill="none" stroke="black"/>
<path d="M83.3283,498.064h -14.7969" fill="none" stroke="black"/>
<path d="M75.9299,485.392h -7.39843" fill="none" stroke="black"/>
<path d="M75.9299,472.72h -7.39843" fill="none" stroke="black"/>
<path d="M75.9299,460.048h -7.39843" fill="none" stroke="black"/>
<path d="M75.9299,447.377h -7.39843" fill="none" stroke="black"/>
<path d="M83.3283,434.705h -14.7969" fill="none" stroke="black"/>
<path d="M75.9299,422.033h -7.39843" fill="none" stroke="black"/>
<path d="M75.9299,409.361h -7.39843" fill="none" stroke="black"/>
<path d="M75.9299,396.69h -7.39843" fill="none" stroke="black"/>
<path d="M75.9299,384.018h -7.39843" fill="none" stroke="black"/>
<path d="M83.3283,371.346h -14.7969" fill="none" stroke="black"/>
<path d="M75.9299,358.675h -7.39843" fill="none" stroke="black"/>
<path d="M75.9299,346.003h -7.39843" fill="none" stroke="black"/>
<path d="M75.9299,333.331h -7.39843" fill="none" stroke="black"/>
<path d="M75.9299,320.659h -7.39843" fill="none" stroke="black"/>
<path d="M83.3283,307.988h -14.7969" fill="none" stroke="black"/>
<path d="M75.9299,295.316h -7.39843" fill="none" stroke="black"/>
<path d="M75.9299,282.644h -7.39843" fill="none" stroke="black"/>
<path d="M75.9299,269.972h -7.39843" fill="none" stroke="black"/>
<path d="M75.9299,257.301h -7.39843" fill="none" stroke="black"/>
<path d="M83.3283,244.629h -14.7969" fill="none" stroke="black"/>
<path d="M75.9299,231.957h -7.39843" fill="none" stroke="black"/>
<path d="M75.9299,219.285h -7.39843" fill="none" stroke="black"/>
<path d="M75.9299,206.614h -7.39843" fill="none" stroke="black"/>
<path d="M75.9299,193.942h -7.39843" fill="none" stroke="black"/>
<path d="M83.3283,181.27h -14.7969" fill="none" stroke="black"/>
<path d="M75.9299,168.599h -7.39843" fill="none" stroke="black"/>
<path d="M75.9299,155.927h -7.39843" fill="none" stroke="black"/>
<path d="M75.9299,143.255h -7.39843" fill="none" stroke="black"/>
<path d="M75.9299,130.583h -7.39843" fill="none" stroke="black"/>
<path d="M83.3283,117.912h -14.7969" fill="none" stroke="black"/>
<path d="M75.9299,105.24h -7.39843" fill="none" stroke="black"/>
<path d="M75.9299,92.5682h -7.39843" fill="none" stroke="black"/>
<path d="M75.9299,79.8964h -7.39843" fill="none" stroke="black"/>
<path d="M75.9299,67.2247h -7.39843" fill="none" stroke="black"/>
<path d="M83.3283,54.553h -14.7969" fill="none" stroke="black"/>
<path d="M83.3283,54.553h -14.7969" fill="none" stroke="black"/>
<path d="M75.9299,41.8812h -7.39843" fill="none" stroke="black"/>
<path d="M75.9299,29.2095h -7.39843" fill="none" stroke="black"/>
<text xml:space="preserve" x="56.8548" y="503.248" fill="black" font-size="16.0105" font-family="Helvetica">0</text>
<text xml:space="preserve" x="48.4016" y="440.131" fill="black" font-size="16.0105" font-family="Helvetica">10</text>
<text xml:space="preserve" x="48.4016" y="376.45" fill="black" font-size="16.0105" font-family="Helvetica">20</text>
<text xml:space="preserve" x="48.4016" y="313.333" fill="black" font-size="16.0105" font-family="Helvetica">30</text>
<text xml:space="preserve" x="48.4016" y="250.215" fill="black" font-size="16.0105" font-family="Helvetica">40</text>
<text xml:space="preserve" x="48.4016" y="186.534" fill="black" font-size="16.0105" font-family="Helvetica">50</text>
<text xml:space="preserve" x="48.4016" y="123.417" fill="black" font-size="16.0105" font-family="Helvetica">60</text>
<text xml:space="preserve" x="48.4016" y="59.7361" fill="black" font-size="16.0105" font-family="Helvetica">70</text>
<text xml:space="preserve" x="99.1209" y="7.32612" fill="black" font-size="10.8403" font-family="Helvetica">3</text>
<text xml:space="preserve" x="93.4854" y="7.32612" fill="black" font-size="10.8403" font-family="Times">&#8722;</text>
<text xml:space="preserve" x="76.579" y="14.6522" fill="black" font-size="16.0105" font-family="Helvetica">10</text>
<text xml:space="preserve" x="68.1257" y="14.6522" fill="black" font-size="16.0105" font-family="Times">&#0215;</text>
<g transform="rotate(-90,38.2577,98.0573)">
<text xml:space="preserve" x="38.2577" y="98.0573" fill="black" font-size="16.0105" font-family="Helvetica">background</text>
</g>
<g transform="rotate(-90,21.9148,98.0573)">
<text xml:space="preserve" x="21.9148" y="98.0573" fill="black" font-size="16.0105" font-family="Helvetica">same event</text>
</g>
<path d="M24.169,98.0573l 0.563548, -81.7144" fill="none" stroke="black" stroke-width="2"/>
<path d="M553.256,498.064v -481.461" fill="none" stroke="black"/>
<path d="M538.459,498.064h 14.7969" fill="none" stroke="black"/>
<path d="M545.857,485.392h 7.39843" fill="none" stroke="black"/>
<path d="M545.857,472.72h 7.39843" fill="none" stroke="black"/>
<path d="M545.857,460.048h 7.39843" fill="none" stroke="black"/>
<path d="M545.857,447.377h 7.39843" fill="none" stroke="black"/>
<path d="M538.459,434.705h 14.7969" fill="none" stroke="black"/>
<path d="M545.857,422.033h 7.39843" fill="none" stroke="black"/>
<path d="M545.857,409.361h 7.39843" fill="none" stroke="black"/>
<path d="M545.857,396.69h 7.39843" fill="none" stroke="black"/>
<path d="M545.857,384.018h 7.39843" fill="none" stroke="black"/>
<path d="M538.459,371.346h 14.7969" fill="none" stroke="black"/>
<path d="M545.857,358.675h 7.39843" fill="none" stroke="black"/>
<path d="M545.857,346.003h 7.39843" fill="none" stroke="black"/>
<path d="M545.857,333.331h 7.39843" fill="none" stroke="black"/>
<path d="M545.857,320.659h 7.39843" fill="none" stroke="black"/>
<path d="M538.459,307.988h 14.7969" fill="none" stroke="black"/>
<path d="M545.857,295.316h 7.39843" fill="none" stroke="black"/>
<path d="M545.857,282.644h 7.39843" fill="none" stroke="black"/>
<path d="M545.857,269.972h 7.39843" fill="none" stroke="black"/>
<path d="M545.857,257.301h 7.39843" fill="none" stroke="black"/>
<path d="M538.459,244.629h 14.7969" fill="none" stroke="black"/>
<path d="M545.857,231.957h 7.39843" fill="none" stroke="black"/>
<path d="M545.857,219.285h 7.39843" fill="none" stroke="black"/>
<path d="M545.857,206.614h 7.39843" fill="none" stroke="black"/>
<path d="M545.857,193.942h 7.39843" fill="none" stroke="black"/>
<path d="M538.459,181.27h 14.7969" fill="none" stroke="black"/>
<path d="M545.857,168.599h 7.39843" fill="none" stroke="black"/>
<path d="M545.857,155.927h 7.39843" fill="none" stroke="black"/>
<path d="M545.857,143.255h 7.39843" fill="none" stroke="black"/>
<path d="M545.857,130.583h 7.39843" fill="none" stroke="black"/>
<path d="M538.459,117.912h 14.7969" fill="none" stroke="black"/>
<path d="M545.857,105.24h 7.39843" fill="none" stroke="black"/>
<path d="M545.857,92.5682h 7.39843" fill="none" stroke="black"/>
<path d="M545.857,79.8964h 7.39843" fill="none" stroke="black"/>
<path d="M545.857,67.2247h 7.39843" fill="none" stroke="black"/>
<path d="M538.459,54.553h 14.7969" fill="none" stroke="black"/>
<path d="M538.459,54.553h 14.7969" fill="none" stroke="black"/>
<path d="M545.857,41.8812h 7.39843" fill="none" stroke="black"/>
<path d="M545.857,29.2095h 7.39843" fill="none" stroke="black"/>
<g stroke="#333333" stroke-width="2" fill="none">
<circle cx="282.098" cy="254.061" r="5.63548"/>
</g>
<g stroke="#333333" stroke-width="2" fill="none">
<circle cx="286.897" cy="247.865" r="5.63548"/>
</g>
<g stroke="#333333" stroke-width="2" fill="none">
<circle cx="291.697" cy="243.319" r="5.63548"/>
</g>
<g stroke="#333333" stroke-width="2" fill="none">
<circle cx="296.496" cy="237.33" r="5.63548"/>
</g>
<g stroke="#333333" stroke-width="2" fill="none">
<circle cx="301.295" cy="236.223" r="5.63548"/>
</g>
<g stroke="#333333" stroke-width="2" fill="none">
<circle cx="306.094" cy="233.195" r="5.63548"/>
</g>
<g stroke="#333333" stroke-width="2" fill="none">
<circle cx="310.894" cy="232.567" r="5.63548"/>
</g>
<g stroke="#333333" stroke-width="2" fill="none">
<circle cx="315.693" cy="239.02" r="5.63548"/>
</g>
<g stroke="#333333" stroke-width="2" fill="none">
<circle cx="320.492" cy="242.109" r="5.63548"/>
</g>
<g stroke="#333333" stroke-width="2" fill="none">
<circle cx="325.291" cy="242.623" r="5.63548"/>
</g>
<g stroke="#333333" stroke-width="2" fill="none">
<circle cx="330.091" cy="244.161" r="5.63548"/>
</g>
<g stroke="#333333" stroke-width="2" fill="none">
<circle cx="334.89" cy="238.219" r="5.63548"/>
</g>
<path d="M98.7518,295.508l 0.44993, -0.099466l 0.44993, -0.099466l 0.44993, -0.099466l 0.44993, -0.099466l 0.44993, -0.099466l 0.44993, -0.099466l 0.44993, -0.099466l 0.44993, -0.099466l 0.44993, -0.099466l 0.44993, -0.099466l 0.44993, -0.099466l
 0.44993, -0.099466l 0.44993, -0.099466l 0.44993, -0.099466l 0.44993, -0.099466l 0.44993, -0.099466l 0.44993, -0.099466l 0.44993, -0.099466l 0.44993, -0.099466l 0.44993, -0.099466l 0.44993, -0.099466l 0.44993, -0.099466l 0.44993, -0.099466l 0.44993,
 -0.099466l 0.44993, -0.099466l 0.44993, -0.099466l 0.44993, -0.099466l 0.44993, -0.099466l 0.44993, -0.099466l 0.44993, -0.099466l 0.44993, -0.099466l 0.44993, -0.099466l 0.44993, -0.099466l 0.44993, -0.099466l 0.44993, -0.099466l 0.44993,
 -0.099466l 0.44993, -0.099466l 0.44993, -0.099466l 0.44993, -0.099466l 0.44993, -0.099466l 0.44993, -0.099466l 0.44993, -0.099466l 0.44993, -0.099466l 0.44993, -0.099466l 0.44993, -0.099466l 0.44993, -0.099466l 0.44993, -0.099466l 0.44993,
 -0.099466l 0.44993, -0.099466" fill="none" stroke="#33cccc" stroke-width="3"/>
<path d="M120.798,290.634l 0.44993, -0.099466l 0.44993, -0.099466l 0.44993, -0.099466l 0.44993, -0.099466l 0.44993, -0.099466l 0.44993, -0.099466l 0.44993, -0.099466l 0.44993, -0.099466l 0.44993, -0.099466l 0.44993, -0.099466l 0.44993, -0.099466l
 0.44993, -0.099466l 0.44993, -0.099466l 0.44993, -0.099466l 0.44993, -0.099466l 0.44993, -0.099466l 0.44993, -0.099466l 0.44993, -0.099466l 0.44993, -0.099466l 0.44993, -0.099466l 0.44993, -0.099466l 0.44993, -0.099466l 0.44993, -0.099466l 0.44993,
 -0.099466l 0.44993, -0.099466l 0.44993, -0.099466l 0.44993, -0.099466l 0.44993, -0.099466l 0.44993, -0.099466l 0.44993, -0.099466l 0.44993, -0.099466l 0.44993, -0.099466l 0.44993, -0.099466l 0.44993, -0.099466l 0.44993, -0.099466l 0.44993,
 -0.099466l 0.44993, -0.099466l 0.44993, -0.099466l 0.44993, -0.099466l 0.44993, -0.099466l 0.44993, -0.099466l 0.44993, -0.099466l 0.44993, -0.099466l 0.44993, -0.099466l 0.44993, -0.099466l 0.44993, -0.099466l 0.44993, -0.099466l 0.44993,
 -0.099466l 0.44993, -0.099466" fill="none" stroke="#33cccc" stroke-width="3"/>
<path d="M142.845,285.76l 0.44993, -0.099466l 0.44993, -0.099466l 0.44993, -0.099466l 0.44993, -0.099466l 0.44993, -0.099466l 0.44993, -0.099466l 0.44993, -0.099466l 0.44993, -0.099466l 0.44993, -0.099466l 0.44993, -0.099466l 0.44993, -0.099466l
 0.44993, -0.099466l 0.44993, -0.099466l 0.44993, -0.099466l 0.44993, -0.099466l 0.44993, -0.099466l 0.44993, -0.099466l 0.44993, -0.099466l 0.44993, -0.099466l 0.44993, -0.099466l 0.44993, -0.099466l 0.44993, -0.099466l 0.44993, -0.099466l 0.44993,
 -0.099466l 0.44993, -0.099466l 0.44993, -0.099466l 0.44993, -0.099466l 0.44993, -0.099466l 0.44993, -0.099466l 0.44993, -0.099466l 0.44993, -0.099466l 0.44993, -0.099466l 0.44993, -0.099466l 0.44993, -0.099466l 0.44993, -0.099466l 0.44993,
 -0.099466l 0.44993, -0.099466l 0.44993, -0.099466l 0.44993, -0.099466l 0.44993, -0.099466l 0.44993, -0.099466l 0.44993, -0.099466l 0.44993, -0.099466l 0.44993, -0.099466l 0.44993, -0.099466l 0.44993, -0.099466l 0.44993, -0.099466l 0.44993,
 -0.099466l 0.44993, -0.099466" fill="none" stroke="#33cccc" stroke-width="3"/>
<path d="M164.891,280.886l 0.44993, -0.099466l 0.44993, -0.099466l 0.44993, -0.099466l 0.44993, -0.099466l 0.44993, -0.099466l 0.44993, -0.099466l 0.44993, -0.099466l 0.44993, -0.099466l 0.44993, -0.099466l 0.44993, -0.099466l 0.44993, -0.099466l
 0.44993, -0.099466l 0.44993, -0.099466l 0.44993, -0.099466l 0.44993, -0.099466l 0.44993, -0.099466l 0.44993, -0.099466l 0.44993, -0.099466l 0.44993, -0.099466l 0.44993, -0.099466l 0.44993, -0.099466l 0.44993, -0.099466l 0.44993, -0.099466l 0.44993,
 -0.099466l 0.44993, -0.099466l 0.44993, -0.099466l 0.44993, -0.099466l 0.44993, -0.099466l 0.44993, -0.099466l 0.44993, -0.099466l 0.44993, -0.099466l 0.44993, -0.099466l 0.44993, -0.099466l 0.44993, -0.099466l 0.44993, -0.099466l 0.44993,
 -0.099466l 0.44993, -0.099466l 0.44993, -0.099466l 0.44993, -0.099466l 0.44993, -0.099466l 0.44993, -0.099466l 0.44993, -0.099466l 0.44993, -0.099466l 0.44993, -0.099466l 0.44993, -0.099466l 0.44993, -0.099466l 0.44993, -0.099466l 0.44993,
 -0.099466l 0.44993, -0.099466" fill="none" stroke="#33cccc" stroke-width="3"/>
<path d="M186.938,276.012l 0.44993, -0.099466l 0.44993, -0.099466l 0.44993, -0.099466l 0.44993, -0.099466l 0.44993, -0.099466l 0.44993, -0.099466l 0.44993, -0.099466l 0.44993, -0.099466l 0.44993, -0.099466l 0.44993, -0.099466l 0.44993, -0.099466l
 0.44993, -0.099466l 0.44993, -0.099466l 0.44993, -0.099466l 0.44993, -0.099466l 0.44993, -0.099466l 0.44993, -0.099466l 0.44993, -0.099466l 0.44993, -0.099466l 0.44993, -0.099466l 0.44993, -0.099466l 0.44993, -0.099466l 0.44993, -0.099466l 0.44993,
 -0.099466l 0.44993, -0.099466l 0.44993, -0.099466l 0.44993, -0.099466l 0.44993, -0.099466l 0.44993, -0.099466l 0.44993, -0.099466l 0.44993, -0.099466l 0.44993, -0.099466l 0.44993, -0.099466l 0.44993, -0.099466l 0.44993, -0.099466l 0.44993,
 -0.099466l 0.44993, -0.099466l 0.44993, -0.099466l 0.44993, -0.099466l 0.44993, -0.099466l 0.44993, -0.099466l 0.44993, -0.099466l 0.44993, -0.099466l 0.44993, -0.099466l 0.44993, -0.099466l 0.44993, -0.099466l 0.44993, -0.099466l 0.44993,
 -0.099466l 0.44993, -0.099466" fill="none" stroke="#33cccc" stroke-width="3"/>
<path d="M208.985,271.138l 0.44993, -0.099466l 0.44993, -0.099466l 0.44993, -0.099466l 0.44993, -0.099466l 0.44993, -0.099466l 0.44993, -0.099466l 0.44993, -0.099466l 0.44993, -0.099466l 0.44993, -0.099466l 0.44993, -0.099466l 0.44993, -0.099466l
 0.44993, -0.099466l 0.44993, -0.099466l 0.44993, -0.099466l 0.44993, -0.099466l 0.44993, -0.099466l 0.44993, -0.099466l 0.44993, -0.099466l 0.44993, -0.099466l 0.44993, -0.099466l 0.44993, -0.099466l 0.44993, -0.099466l 0.44993, -0.099466l 0.44993,
 -0.099466l 0.44993, -0.099466l 0.44993, -0.099466l 0.44993, -0.099466l 0.44993, -0.099466l 0.44993, -0.099466l 0.44993, -0.099466l 0.44993, -0.099466l 0.44993, -0.099466l 0.44993, -0.099466l 0.44993, -0.099466l 0.44993, -0.099466l 0.44993,
 -0.099466l 0.44993, -0.099466l 0.44993, -0.099466l 0.44993, -0.099466l 0.44993, -0.099466l 0.44993, -0.099466l 0.44993, -0.099466l 0.44993, -0.099466l 0.44993, -0.099466l 0.44993, -0.099466l 0.44993, -0.099466l 0.44993, -0.099466l 0.44993,
 -0.099466l 0.44993, -0.099466" fill="none" stroke="#33cccc" stroke-width="3"/>
<path d="M231.031,266.265l 0.44993, -0.099466l 0.44993, -0.099466l 0.44993, -0.099466l 0.44993, -0.099466l 0.44993, -0.099466l 0.44993, -0.099466l 0.44993, -0.099466l 0.44993, -0.099466l 0.44993, -0.099466l 0.44993, -0.099466l 0.44993, -0.099466l
 0.44993, -0.099466l 0.44993, -0.099466l 0.44993, -0.099466l 0.44993, -0.099466l 0.44993, -0.099466l 0.44993, -0.099466l 0.44993, -0.099466l 0.44993, -0.099466l 0.44993, -0.099466l 0.44993, -0.099466l 0.44993, -0.099466l 0.44993, -0.099466l 0.44993,
 -0.099466l 0.44993, -0.099466l 0.44993, -0.099466l 0.44993, -0.099466l 0.44993, -0.099466l 0.44993, -0.099466l 0.44993, -0.099466l 0.44993, -0.099466l 0.44993, -0.099466l 0.44993, -0.099466l 0.44993, -0.099466l 0.44993, -0.099466l 0.44993,
 -0.099466l 0.44993, -0.099466l 0.44993, -0.099466l 0.44993, -0.099466l 0.44993, -0.099466l 0.44993, -0.099466l 0.44993, -0.099466l 0.44993, -0.099466l 0.44993, -0.099466l 0.44993, -0.099466l 0.44993, -0.099466l 0.44993, -0.099466l 0.44993,
 -0.099466l 0.44993, -0.099466" fill="none" stroke="#33cccc" stroke-width="3"/>
<path d="M253.078,261.391l 0.44993, -0.099466l 0.44993, -0.099466l 0.44993, -0.099466l 0.44993, -0.099466l 0.44993, -0.099466l 0.44993, -0.099466l 0.44993, -0.099466l 0.44993, -0.099466l 0.44993, -0.099466l 0.44993, -0.099466l 0.44993, -0.099466l
 0.44993, -0.099466l 0.44993, -0.099466l 0.44993, -0.099466l 0.44993, -0.099466l 0.44993, -0.099466l 0.44993, -0.099466l 0.44993, -0.099466l 0.44993, -0.099466l 0.44993, -0.099466l 0.44993, -0.099466l 0.44993, -0.099466l 0.44993, -0.099466l 0.44993,
 -0.099466l 0.44993, -0.099466l 0.44993, -0.099466l 0.44993, -0.099466l 0.44993, -0.099466l 0.44993, -0.099466l 0.44993, -0.099466l 0.44993, -0.099466l 0.44993, -0.099466l 0.44993, -0.099466l 0.44993, -0.099466l 0.44993, -0.099466l 0.44993,
 -0.099466l 0.44993, -0.099466l 0.44993, -0.099466l 0.44993, -0.099466l 0.44993, -0.099466l 0.44993, -0.099466l 0.44993, -0.099466l 0.44993, -0.099466l 0.44993, -0.099466l 0.44993, -0.099466l 0.44993, -0.099466l 0.44993, -0.099466l 0.44993,
 -0.099466l 0.44993, -0.099466" fill="none" stroke="#33cccc" stroke-width="3"/>
<path d="M275.124,256.517l 0.44993, -0.099466l 0.44993, -0.099466l 0.44993, -0.099466l 0.44993, -0.099466l 0.44993, -0.099466l 0.44993, -0.099466l 0.44993, -0.099466l 0.44993, -0.099466l 0.44993, -0.099466l 0.44993, -0.099466l 0.44993, -0.099466l
 0.44993, -0.099466l 0.44993, -0.099466l 0.44993, -0.099466l 0.44993, -0.099466l 0.44993, -0.099466l 0.44993, -0.099466l 0.44993, -0.099466l 0.44993, -0.099466l 0.44993, -0.099466l 0.44993, -0.099466l 0.44993, -0.099466l 0.44993, -0.099466l 0.44993,
 -0.099466l 0.44993, -0.099466l 0.44993, -0.099466l 0.44993, -0.099466l 0.44993, -0.099466l 0.44993, -0.099466l 0.44993, -0.099466l 0.44993, -0.099466l 0.44993, -0.099466l 0.44993, -0.099466l 0.44993, -0.099466l 0.44993, -0.099466l 0.44993,
 -0.099466l 0.44993, -0.099466l 0.44993, -0.099466l 0.44993, -0.099466l 0.44993, -0.099466l 0.44993, -0.099466l 0.44993, -0.099466l 0.44993, -0.099466l 0.44993, -0.099466l 0.44993, -0.099466l 0.44993, -0.099466l 0.44993, -0.099466l 0.44993,
 -0.099466l 0.44993, -0.099466" fill="none" stroke="#33cccc" stroke-width="3"/>
<path d="M297.171,251.643l 0.44993, -0.099466l 0.44993, -0.099466l 0.44993, -0.099466l 0.44993, -0.099466l 0.44993, -0.099466l 0.44993, -0.099466l 0.44993, -0.099466l 0.44993, -0.099466l 0.44993, -0.099466l 0.44993, -0.099466l 0.44993, -0.099466l
 0.44993, -0.099466l 0.44993, -0.099466l 0.44993, -0.099466l 0.44993, -0.099466l 0.44993, -0.099466l 0.44993, -0.099466l 0.44993, -0.099466l 0.44993, -0.099466l 0.44993, -0.099466l 0.44993, -0.099466l 0.44993, -0.099466l 0.44993, -0.099466l 0.44993,
 -0.099466l 0.44993, -0.099466l 0.44993, -0.099466l 0.44993, -0.099466l 0.44993, -0.099466l 0.44993, -0.099466l 0.44993, -0.099466l 0.44993, -0.099466l 0.44993, -0.099466l 0.44993, -0.099466l 0.44993, -0.099466l 0.44993, -0.099466l 0.44993,
 -0.099466l 0.44993, -0.099466l 0.44993, -0.099466l 0.44993, -0.099466l 0.44993, -0.099466l 0.44993, -0.099466l 0.44993, -0.099466l 0.44993, -0.099466l 0.44993, -0.099466l 0.44993, -0.099466l 0.44993, -0.099466l 0.44993, -0.099466l 0.44993,
 -0.099466l 0.44993, -0.099466" fill="none" stroke="#33cccc" stroke-width="3"/>
<path d="M319.217,246.769l 0.44993, -0.099466l 0.44993, -0.099466l 0.44993, -0.099466l 0.44993, -0.099466l 0.44993, -0.099466l 0.44993, -0.099466l 0.44993, -0.099466l 0.44993, -0.099466l 0.44993, -0.099466l 0.44993, -0.099466l 0.44993, -0.099466l
 0.44993, -0.099466l 0.44993, -0.099466l 0.44993, -0.099466l 0.44993, -0.099466l 0.44993, -0.099466l 0.44993, -0.099466l 0.44993, -0.099466l 0.44993, -0.099466l 0.44993, -0.099466l 0.44993, -0.099466l 0.44993, -0.099466l 0.44993, -0.099466l 0.44993,
 -0.099466l 0.44993, -0.099466l 0.44993, -0.099466l 0.44993, -0.099466l 0.44993, -0.099466l 0.44993, -0.099466l 0.44993, -0.099466l 0.44993, -0.099466l 0.44993, -0.099466l 0.44993, -0.099466l 0.44993, -0.099466l 0.44993, -0.099466l 0.44993,
 -0.099466l 0.44993, -0.099466l 0.44993, -0.099466l 0.44993, -0.099466l 0.44993, -0.099466l 0.44993, -0.099466l 0.44993, -0.099466l 0.44993, -0.099466l 0.44993, -0.099466l 0.44993, -0.099466l 0.44993, -0.099466l 0.44993, -0.099466l 0.44993,
 -0.099466l 0.44993, -0.099466" fill="none" stroke="#33cccc" stroke-width="3"/>
<path d="M341.264,241.895l 0.44993, -0.099466l 0.44993, -0.099466l 0.44993, -0.099466l 0.44993, -0.099466l 0.44993, -0.099466l 0.44993, -0.099466l 0.44993, -0.099466l 0.44993, -0.099466l 0.44993, -0.099466l 0.44993, -0.099466l 0.44993, -0.099466l
 0.44993, -0.099466l 0.44993, -0.099466l 0.44993, -0.099466l 0.44993, -0.099466l 0.44993, -0.099466l 0.44993, -0.099466l 0.44993, -0.099466l 0.44993, -0.099466l 0.44993, -0.099466l 0.44993, -0.099466l 0.44993, -0.099466l 0.44993, -0.099466l 0.44993,
 -0.099466l 0.44993, -0.099466l 0.44993, -0.099466l 0.44993, -0.099466l 0.44993, -0.099466l 0.44993, -0.099466l 0.44993, -0.099466l 0.44993, -0.099466l 0.44993, -0.099466l 0.44993, -0.099466l 0.44993, -0.099466l 0.44993, -0.099466l 0.44993,
 -0.099466l 0.44993, -0.099466l 0.44993, -0.099466l 0.44993, -0.099466l 0.44993, -0.099466l 0.44993, -0.099466l 0.44993, -0.099466l 0.44993, -0.099466l 0.44993, -0.099466l 0.44993, -0.099466l 0.44993, -0.099466l 0.44993, -0.099466l 0.44993,
 -0.099466l 0.44993, -0.099466" fill="none" stroke="#33cccc" stroke-width="3"/>
<path d="M363.311,237.022l 0.44993, -0.099466l 0.44993, -0.099466l 0.44993, -0.099466l 0.44993, -0.099466l 0.44993, -0.099466l 0.44993, -0.099466l 0.44993, -0.099466l 0.44993, -0.099466l 0.44993, -0.099466l 0.44993, -0.099466l 0.44993, -0.099466l
 0.44993, -0.099466l 0.44993, -0.099466l 0.44993, -0.099466l 0.44993, -0.099466l 0.44993, -0.099466l 0.44993, -0.099466l 0.44993, -0.099466l 0.44993, -0.099466l 0.44993, -0.099466l 0.44993, -0.099466l 0.44993, -0.099466l 0.44993, -0.099466l 0.44993,
 -0.099466l 0.44993, -0.099466l 0.44993, -0.099466l 0.44993, -0.099466l 0.44993, -0.099466l 0.44993, -0.099466l 0.44993, -0.099466l 0.44993, -0.099466l 0.44993, -0.099466l 0.44993, -0.099466l 0.44993, -0.099466l 0.44993, -0.099466l 0.44993,
 -0.099466l 0.44993, -0.099466l 0.44993, -0.099466l 0.44993, -0.099466l 0.44993, -0.099466l 0.44993, -0.099466l 0.44993, -0.099466l 0.44993, -0.099466l 0.44993, -0.099466l 0.44993, -0.099466l 0.44993, -0.099466l 0.44993, -0.099466l 0.44993,
 -0.099466l 0.44993, -0.099466" fill="none" stroke="#33cccc" stroke-width="3"/>
<path d="M385.357,232.148l 0.44993, -0.099466l 0.44993, -0.099466l 0.44993, -0.099466l 0.44993, -0.099466l 0.44993, -0.099466l 0.44993, -0.099466l 0.44993, -0.099466l 0.44993, -0.099466l 0.44993, -0.099466l 0.44993, -0.099466l 0.44993, -0.099466l
 0.44993, -0.099466l 0.44993, -0.099466l 0.44993, -0.099466l 0.44993, -0.099466l 0.44993, -0.099466l 0.44993, -0.099466l 0.44993, -0.099466l 0.44993, -0.099466l 0.44993, -0.099466l 0.44993, -0.099466l 0.44993, -0.099466l 0.44993, -0.099466l 0.44993,
 -0.099466l 0.44993, -0.099466l 0.44993, -0.099466l 0.44993, -0.099466l 0.44993, -0.099466l 0.44993, -0.099466l 0.44993, -0.099466l 0.44993, -0.099466l 0.44993, -0.099466l 0.44993, -0.099466l 0.44993, -0.099466l 0.44993, -0.099466l 0.44993,
 -0.099466l 0.44993, -0.099466l 0.44993, -0.099466l 0.44993, -0.099466l 0.44993, -0.099466l 0.44993, -0.099466l 0.44993, -0.099466l 0.44993, -0.099466l 0.44993, -0.099466l 0.44993, -0.099466l 0.44993, -0.099466l 0.44993, -0.099466l 0.44993,
 -0.099466l 0.44993, -0.099466" fill="none" stroke="#33cccc" stroke-width="3"/>
<path d="M407.404,227.274l 0.44993, -0.099466l 0.44993, -0.099466l 0.44993, -0.099466l 0.44993, -0.099466l 0.44993, -0.099466l 0.44993, -0.099466l 0.44993, -0.099466l 0.44993, -0.099466l 0.44993, -0.099466l 0.44993, -0.099466l 0.44993, -0.099466l
 0.44993, -0.099466l 0.44993, -0.099466l 0.44993, -0.099466l 0.44993, -0.099466l 0.44993, -0.099466l 0.44993, -0.099466l 0.44993, -0.099466l 0.44993, -0.099466l 0.44993, -0.099466l 0.44993, -0.099466l 0.44993, -0.099466l 0.44993, -0.099466l 0.44993,
 -0.099466l 0.44993, -0.099466l 0.44993, -0.099466l 0.44993, -0.099466l 0.44993, -0.099466l 0.44993, -0.099466l 0.44993, -0.099466l 0.44993, -0.099466l 0.44993, -0.099466l 0.44993, -0.099466l 0.44993, -0.099466l 0.44993, -0.099466l 0.44993,
 -0.099466l 0.44993, -0.099466l 0.44993, -0.099466l 0.44993, -0.099466l 0.44993, -0.099466l 0.44993, -0.099466l 0.44993, -0.099466l 0.44993, -0.099466l 0.44993, -0.099466l 0.44993, -0.099466l 0.44993, -0.099466l 0.44993, -0.099466l 0.44993,
 -0.099466l 0.44993, -0.099466" fill="none" stroke="#33cccc" stroke-width="3"/>
<path d="M429.45,222.4l 0.44993, -0.099466l 0.44993, -0.099466l 0.44993, -0.099466l 0.44993, -0.099466l 0.44993, -0.099466l 0.44993, -0.099466l 0.44993, -0.099466l 0.44993, -0.099466l 0.44993, -0.099466l 0.44993, -0.099466l 0.44993, -0.099466l
 0.44993, -0.099466l 0.44993, -0.099466l 0.44993, -0.099466l 0.44993, -0.099466l 0.44993, -0.099466l 0.44993, -0.099466l 0.44993, -0.099466l 0.44993, -0.099466l 0.44993, -0.099466l 0.44993, -0.099466l 0.44993, -0.099466l 0.44993, -0.099466l 0.44993,
 -0.099466l 0.44993, -0.099466l 0.44993, -0.099466l 0.44993, -0.099466l 0.44993, -0.099466l 0.44993, -0.099466l 0.44993, -0.099466l 0.44993, -0.099466l 0.44993, -0.099466l 0.44993, -0.099466l 0.44993, -0.099466l 0.44993, -0.099466l 0.44993,
 -0.099466l 0.44993, -0.099466l 0.44993, -0.099466l 0.44993, -0.099466l 0.44993, -0.099466l 0.44993, -0.099466l 0.44993, -0.099466l 0.44993, -0.099466l 0.44993, -0.099466l 0.44993, -0.099466l 0.44993, -0.099466l 0.44993, -0.099466l 0.44993,
 -0.099466l 0.44993, -0.099466" fill="none" stroke="#33cccc" stroke-width="3"/>
<path d="M451.497,217.526l 0.44993, -0.099466l 0.44993, -0.099466l 0.44993, -0.099466l 0.44993, -0.099466l 0.44993, -0.099466l 0.44993, -0.099466l 0.44993, -0.099466l 0.44993, -0.099466l 0.44993, -0.099466l 0.44993, -0.099466l 0.44993, -0.099466l
 0.44993, -0.099466l 0.44993, -0.099466l 0.44993, -0.099466l 0.44993, -0.099466l 0.44993, -0.099466l 0.44993, -0.099466l 0.44993, -0.099466l 0.44993, -0.099466l 0.44993, -0.099466l 0.44993, -0.099466l 0.44993, -0.099466l 0.44993, -0.099466l 0.44993,
 -0.099466l 0.44993, -0.099466l 0.44993, -0.099466l 0.44993, -0.099466l 0.44993, -0.099466l 0.44993, -0.099466l 0.44993, -0.099466l 0.44993, -0.099466l 0.44993, -0.099466l 0.44993, -0.099466l 0.44993, -0.099466l 0.44993, -0.099466l 0.44993,
 -0.099466l 0.44993, -0.099466l 0.44993, -0.099466l 0.44993, -0.099466l 0.44993, -0.099466l 0.44993, -0.099466l 0.44993, -0.099466l 0.44993, -0.099466l 0.44993, -0.099466l 0.44993, -0.099466l 0.44993, -0.099466l 0.44993, -0.099466l 0.44993,
 -0.099466l 0.44993, -0.099466" fill="none" stroke="#33cccc" stroke-width="3"/>
<path d="M473.543,212.652l 0.44993, -0.099466l 0.44993, -0.099466l 0.44993, -0.099466l 0.44993, -0.099466l 0.44993, -0.099466l 0.44993, -0.099466l 0.44993, -0.099466l 0.44993, -0.099466l 0.44993, -0.099466l 0.44993, -0.099466l 0.44993, -0.099466l
 0.44993, -0.099466l 0.44993, -0.099466l 0.44993, -0.099466l 0.44993, -0.099466l 0.44993, -0.099466l 0.44993, -0.099466l 0.44993, -0.099466l 0.44993, -0.099466l 0.44993, -0.099466l 0.44993, -0.099466l 0.44993, -0.099466l 0.44993, -0.099466l 0.44993,
 -0.099466l 0.44993, -0.099466l 0.44993, -0.099466l 0.44993, -0.099466l 0.44993, -0.099466l 0.44993, -0.099466l 0.44993, -0.099466l 0.44993, -0.099466l 0.44993, -0.099466l 0.44993, -0.099466l 0.44993, -0.099466l 0.44993, -0.099466l 0.44993,
 -0.099466l 0.44993, -0.099466l 0.44993, -0.099466l 0.44993, -0.099466l 0.44993, -0.099466l 0.44993, -0.099466l 0.44993, -0.099466l 0.44993, -0.099466l 0.44993, -0.099466l 0.44993, -0.099466l 0.44993, -0.099466l 0.44993, -0.099466l 0.44993,
 -0.099466l 0.44993, -0.099466" fill="none" stroke="#33cccc" stroke-width="3"/>
<path d="M495.59,207.779l 0.44993, -0.099466l 0.44993, -0.099466l 0.44993, -0.099466l 0.44993, -0.099466l 0.44993, -0.099466l 0.44993, -0.099466l 0.44993, -0.099466l 0.44993, -0.099466l 0.44993, -0.099466l 0.44993, -0.099466l 0.44993, -0.099466l
 0.44993, -0.099466l 0.44993, -0.099466l 0.44993, -0.099466l 0.44993, -0.099466l 0.44993, -0.099466l 0.44993, -0.099466l 0.44993, -0.099466l 0.44993, -0.099466l 0.44993, -0.099466l 0.44993, -0.099466l 0.44993, -0.099466l 0.44993, -0.099466l 0.44993,
 -0.099466l 0.44993, -0.099466l 0.44993, -0.099466l 0.44993, -0.099466l 0.44993, -0.099466l 0.44993, -0.099466l 0.44993, -0.099466l 0.44993, -0.099466l 0.44993, -0.099466l 0.44993, -0.099466l 0.44993, -0.099466l 0.44993, -0.099466l 0.44993,
 -0.099466l 0.44993, -0.099466l 0.44993, -0.099466l 0.44993, -0.099466l 0.44993, -0.099466l 0.44993, -0.099466l 0.44993, -0.099466l 0.44993, -0.099466l 0.44993, -0.099466l 0.44993, -0.099466l 0.44993, -0.099466l 0.44993, -0.099466l 0.44993,
 -0.099466l 0.44993, -0.099466" fill="none" stroke="#33cccc" stroke-width="3"/>
<path d="M517.636,202.905l 0.44993, -0.099466l 0.44993, -0.099466l 0.44993, -0.099466l 0.44993, -0.099466l 0.44993, -0.099466l 0.44993, -0.099466l 0.44993, -0.099466l 0.44993, -0.099466l 0.44993, -0.099466l 0.44993, -0.099466l 0.44993, -0.099466l
 0.44993, -0.099466l 0.44993, -0.099466l 0.44993, -0.099466l 0.44993, -0.099466l 0.44993, -0.099466l 0.44993, -0.099466l 0.44993, -0.099466l 0.44993, -0.099466l 0.44993, -0.099466l 0.44993, -0.099466l 0.44993, -0.099466l 0.44993, -0.099466l 0.44993,
 -0.099466l 0.44993, -0.099466l 0.44993, -0.099466l 0.44993, -0.099466l 0.44993, -0.099466l 0.44993, -0.099466l 0.44993, -0.099466l 0.44993, -0.099466l 0.44993, -0.099466l 0.44993, -0.099466l 0.44993, -0.099466l 0.44993, -0.099466l 0.44993,
 -0.099466l 0.44993, -0.099466l 0.44993, -0.099466l 0.44993, -0.099466l 0.44993, -0.099466l 0.44993, -0.099466l 0.44993, -0.099466l 0.44993, -0.099466l 0.44993, -0.099466l 0.44993, -0.099466l 0.44993, -0.099466l 0.44993, -0.099466l 0.44993,
 -0.099466l 0.44993, -0.099466" fill="none" stroke="#33cccc" stroke-width="3"/>
<path d="M539.683,198.031l 0.44993, -0.099466l 0.44993, -0.099466l 0.44993, -0.099466l 0.44993, -0.099466l 0.44993, -0.099466l 0.44993, -0.099466l 0.44993, -0.099466l 0.44993, -0.099466l 0.44993, -0.099466l 0.44993, -0.099466l 0.44993, -0.099466l
 0.44993, -0.099466l 0.44993, -0.099466l 0.44993, -0.099466l 0.44993, -0.099466l 0.44993, -0.099466l 0.44993, -0.099466l 0.44993, -0.099466l 0.44993, -0.099466" fill="none" stroke="#33cccc" stroke-width="3"/>
<path d="M98.7518,313.313l 0.44993, -0.169136l 0.44993, -0.169011l 0.44993, -0.168886l 0.44993, -0.168761l 0.44993, -0.168636l 0.44993, -0.168511l 0.44993, -0.168386l 0.44993, -0.168262l 0.44993, -0.168137l 0.44993, -0.168012l 0.44993, -0.167887l
 0.44993, -0.167762l 0.44993, -0.167637l 0.44993, -0.167512l 0.44993, -0.167387l 0.44993, -0.167263l 0.44993, -0.167138l 0.44993, -0.167013l 0.44993, -0.166888l 0.44993, -0.166763l 0.44993, -0.166638l 0.44993, -0.166513l 0.44993, -0.166388l 0.44993,
 -0.166264l 0.44993, -0.166139l 0.44993, -0.166014l 0.44993, -0.165889l 0.44993, -0.165764l 0.44993, -0.165639l 0.44993, -0.165514l 0.44993, -0.165389l 0.44993, -0.165265l 0.44993, -0.16514l 0.44993, -0.165015l 0.44993, -0.16489l 0.44993, -0.164765l
 0.44993, -0.16464l 0.44993, -0.164515l 0.44993, -0.16439l 0.44993, -0.164266l 0.44993, -0.164141l 0.44993, -0.164016l 0.44993, -0.163891l 0.44993, -0.163766l 0.44993, -0.163641l 0.44993, -0.163516l 0.44993, -0.163391l 0.44993, -0.163267l 0.44993,
 -0.163142" fill="none" stroke="#ff0066" stroke-width="3"/>
<path d="M120.798,305.172l 0.44993, -0.163017l 0.44993, -0.162892l 0.44993, -0.162767l 0.44993, -0.162642l 0.44993, -0.162517l 0.44993, -0.162392l 0.44993, -0.162268l 0.44993, -0.162143l 0.44993, -0.162018l 0.44993, -0.161893l 0.44993, -0.161768l
 0.44993, -0.161643l 0.44993, -0.161518l 0.44993, -0.161393l 0.44993, -0.161269l 0.44993, -0.161144l 0.44993, -0.161019l 0.44993, -0.160894l 0.44993, -0.160769l 0.44993, -0.160644l 0.44993, -0.160519l 0.44993, -0.160394l 0.44993, -0.16027l 0.44993,
 -0.160145l 0.44993, -0.16002l 0.44993, -0.159895l 0.44993, -0.15977l 0.44993, -0.159645l 0.44993, -0.15952l 0.44993, -0.159395l 0.44993, -0.159271l 0.44993, -0.159146l 0.44993, -0.159021l 0.44993, -0.158896l 0.44993, -0.158771l 0.44993, -0.158646l
 0.44993, -0.158521l 0.44993, -0.158396l 0.44993, -0.158272l 0.44993, -0.158147l 0.44993, -0.158022l 0.44993, -0.157897l 0.44993, -0.157772l 0.44993, -0.157647l 0.44993, -0.157522l 0.44993, -0.157397l 0.44993, -0.157273l 0.44993, -0.157148l 0.44993,
 -0.157023" fill="none" stroke="#ff0066" stroke-width="3"/>
<path d="M142.845,297.331l 0.44993, -0.156898l 0.44993, -0.156773l 0.44993, -0.156648l 0.44993, -0.156523l 0.44993, -0.156398l 0.44993, -0.156274l 0.44993, -0.156149l 0.44993, -0.156024l 0.44993, -0.155899l 0.44993, -0.155774l 0.44993, -0.155649l
 0.44993, -0.155524l 0.44993, -0.155399l 0.44993, -0.155275l 0.44993, -0.15515l 0.44993, -0.155025l 0.44993, -0.1549l 0.44993, -0.154775l 0.44993, -0.15465l 0.44993, -0.154525l 0.44993, -0.1544l 0.44993, -0.154276l 0.44993, -0.154151l 0.44993,
 -0.154026l 0.44993, -0.153901l 0.44993, -0.153776l 0.44993, -0.153651l 0.44993, -0.153526l 0.44993, -0.153401l 0.44993, -0.153277l 0.44993, -0.153152l 0.44993, -0.153027l 0.44993, -0.152902l 0.44993, -0.152777l 0.44993, -0.152652l 0.44993,
 -0.152527l 0.44993, -0.152402l 0.44993, -0.152278l 0.44993, -0.152153l 0.44993, -0.152028l 0.44993, -0.151903l 0.44993, -0.151778l 0.44993, -0.151653l 0.44993, -0.151528l 0.44993, -0.151403l 0.44993, -0.151279l 0.44993, -0.151154l 0.44993,
 -0.151029l 0.44993, -0.150904" fill="none" stroke="#ff0066" stroke-width="3"/>
<path d="M164.891,289.79l 0.44993, -0.150779l 0.44993, -0.150654l 0.44993, -0.150529l 0.44993, -0.150404l 0.44993, -0.15028l 0.44993, -0.150155l 0.44993, -0.15003l 0.44993, -0.149905l 0.44993, -0.14978l 0.44993, -0.149655l 0.44993, -0.14953l 0.44993,
 -0.149405l 0.44993, -0.149281l 0.44993, -0.149156l 0.44993, -0.149031l 0.44993, -0.148906l 0.44993, -0.148781l 0.44993, -0.148656l 0.44993, -0.148531l 0.44993, -0.148406l 0.44993, -0.148282l 0.44993, -0.148157l 0.44993, -0.148032l 0.44993,
 -0.147907l 0.44993, -0.147782l 0.44993, -0.147657l 0.44993, -0.147532l 0.44993, -0.147407l 0.44993, -0.147283l 0.44993, -0.147158l 0.44993, -0.147033l 0.44993, -0.146908l 0.44993, -0.146783l 0.44993, -0.146658l 0.44993, -0.146533l 0.44993,
 -0.146408l 0.44993, -0.146284l 0.44993, -0.146159l 0.44993, -0.146034l 0.44993, -0.145909l 0.44993, -0.145784l 0.44993, -0.145659l 0.44993, -0.145534l 0.44993, -0.145409l 0.44993, -0.145285l 0.44993, -0.14516l 0.44993, -0.145035l 0.44993, -0.14491l
 0.44993, -0.144785" fill="none" stroke="#ff0066" stroke-width="3"/>
<path d="M186.938,282.549l 0.44993, -0.14466l 0.44993, -0.144535l 0.44993, -0.14441l 0.44993, -0.144286l 0.44993, -0.144161l 0.44993, -0.144036l 0.44993, -0.143911l 0.44993, -0.143786l 0.44993, -0.143661l 0.44993, -0.143536l 0.44993, -0.143411l
 0.44993, -0.143287l 0.44993, -0.143162l 0.44993, -0.143037l 0.44993, -0.142912l 0.44993, -0.142787l 0.44993, -0.142662l 0.44993, -0.142537l 0.44993, -0.142412l 0.44993, -0.142288l 0.44993, -0.142163l 0.44993, -0.142038l 0.44993, -0.141913l 0.44993,
 -0.141788l 0.44993, -0.141663l 0.44993, -0.141538l 0.44993, -0.141413l 0.44993, -0.141289l 0.44993, -0.141164l 0.44993, -0.141039l 0.44993, -0.140914l 0.44993, -0.140789l 0.44993, -0.140664l 0.44993, -0.140539l 0.44993, -0.140414l 0.44993, -0.14029l
 0.44993, -0.140165l 0.44993, -0.14004l 0.44993, -0.139915l 0.44993, -0.13979l 0.44993, -0.139665l 0.44993, -0.13954l 0.44993, -0.139415l 0.44993, -0.139291l 0.44993, -0.139166l 0.44993, -0.139041l 0.44993, -0.138916l 0.44993, -0.138791l 0.44993,
 -0.138666" fill="none" stroke="#ff0066" stroke-width="3"/>
<path d="M208.985,275.607l 0.44993, -0.138541l 0.44993, -0.138416l 0.44993, -0.138292l 0.44993, -0.138167l 0.44993, -0.138042l 0.44993, -0.137917l 0.44993, -0.137792l 0.44993, -0.137667l 0.44993, -0.137542l 0.44993, -0.137417l 0.44993, -0.137293l
 0.44993, -0.137168l 0.44993, -0.137043l 0.44993, -0.136918l 0.44993, -0.136793l 0.44993, -0.136668l 0.44993, -0.136543l 0.44993, -0.136418l 0.44993, -0.136294l 0.44993, -0.136169l 0.44993, -0.136044l 0.44993, -0.135919l 0.44993, -0.135794l 0.44993,
 -0.135669l 0.44993, -0.135544l 0.44993, -0.135419l 0.44993, -0.135295l 0.44993, -0.13517l 0.44993, -0.135045l 0.44993, -0.13492l 0.44993, -0.134795l 0.44993, -0.13467l 0.44993, -0.134545l 0.44993, -0.13442l 0.44993, -0.134296l 0.44993, -0.134171l
 0.44993, -0.134046l 0.44993, -0.133921l 0.44993, -0.133796l 0.44993, -0.133671l 0.44993, -0.133546l 0.44993, -0.133421l 0.44993, -0.133297l 0.44993, -0.133172l 0.44993, -0.133047l 0.44993, -0.132922l 0.44993, -0.132797l 0.44993, -0.132672l 0.44993,
 -0.132547" fill="none" stroke="#ff0066" stroke-width="3"/>
<path d="M231.031,268.966l 0.44993, -0.132422l 0.44993, -0.132298l 0.44993, -0.132173l 0.44993, -0.132048l 0.44993, -0.131923l 0.44993, -0.131798l 0.44993, -0.131673l 0.44993, -0.131548l 0.44993, -0.131423l 0.44993, -0.131299l 0.44993, -0.131174l
 0.44993, -0.131049l 0.44993, -0.130924l 0.44993, -0.130799l 0.44993, -0.130674l 0.44993, -0.130549l 0.44993, -0.130424l 0.44993, -0.1303l 0.44993, -0.130175l 0.44993, -0.13005l 0.44993, -0.129925l 0.44993, -0.1298l 0.44993, -0.129675l 0.44993,
 -0.12955l 0.44993, -0.129425l 0.44993, -0.129301l 0.44993, -0.129176l 0.44993, -0.129051l 0.44993, -0.128926l 0.44993, -0.128801l 0.44993, -0.128676l 0.44993, -0.128551l 0.44993, -0.128426l 0.44993, -0.128302l 0.44993, -0.128177l 0.44993, -0.128052l
 0.44993, -0.127927l 0.44993, -0.127802l 0.44993, -0.127677l 0.44993, -0.127552l 0.44993, -0.127427l 0.44993, -0.127303l 0.44993, -0.127178l 0.44993, -0.127053l 0.44993, -0.126928l 0.44993, -0.126803l 0.44993, -0.126678l 0.44993, -0.126553l 0.44993,
 -0.126428" fill="none" stroke="#ff0066" stroke-width="3"/>
<path d="M253.078,262.624l 0.44993, -0.126304l 0.44993, -0.126179l 0.44993, -0.126054l 0.44993, -0.125929l 0.44993, -0.125804l 0.44993, -0.125679l 0.44993, -0.125554l 0.44993, -0.125429l 0.44993, -0.125305l 0.44993, -0.12518l 0.44993, -0.125055l
 0.44993, -0.12493l 0.44993, -0.124805l 0.44993, -0.12468l 0.44993, -0.124555l 0.44993, -0.12443l 0.44993, -0.124306l 0.44993, -0.124181l 0.44993, -0.124056l 0.44993, -0.123931l 0.44993, -0.123806l 0.44993, -0.123681l 0.44993, -0.123556l 0.44993,
 -0.123431l 0.44993, -0.123307l 0.44993, -0.123182l 0.44993, -0.123057l 0.44993, -0.122932l 0.44993, -0.122807l 0.44993, -0.122682l 0.44993, -0.122557l 0.44993, -0.122432l 0.44993, -0.122308l 0.44993, -0.122183l 0.44993, -0.122058l 0.44993,
 -0.121933l 0.44993, -0.121808l 0.44993, -0.121683l 0.44993, -0.121558l 0.44993, -0.121433l 0.44993, -0.121309l 0.44993, -0.121184l 0.44993, -0.121059l 0.44993, -0.120934l 0.44993, -0.120809l 0.44993, -0.120684l 0.44993, -0.120559l 0.44993,
 -0.120434l 0.44993, -0.12031" fill="none" stroke="#ff0066" stroke-width="3"/>
<path d="M275.124,256.582l 0.44993, -0.120185l 0.44993, -0.12006l 0.44993, -0.119935l 0.44993, -0.11981l 0.44993, -0.119685l 0.44993, -0.11956l 0.44993, -0.119435l 0.44993, -0.119311l 0.44993, -0.119186l 0.44993, -0.119061l 0.44993, -0.118936l
 0.44993, -0.118811l 0.44993, -0.118686l 0.44993, -0.118561l 0.44993, -0.118436l 0.44993, -0.118312l 0.44993, -0.118187l 0.44993, -0.118062l 0.44993, -0.117937l 0.44993, -0.117812l 0.44993, -0.117687l 0.44993, -0.117562l 0.44993, -0.117437l 0.44993,
 -0.117313l 0.44993, -0.117188l 0.44993, -0.117063l 0.44993, -0.116938l 0.44993, -0.116813l 0.44993, -0.116688l 0.44993, -0.116563l 0.44993, -0.116438l 0.44993, -0.116314l 0.44993, -0.116189l 0.44993, -0.116064l 0.44993, -0.115939l 0.44993,
 -0.115814l 0.44993, -0.115689l 0.44993, -0.115564l 0.44993, -0.115439l 0.44993, -0.115315l 0.44993, -0.11519l 0.44993, -0.115065l 0.44993, -0.11494l 0.44993, -0.114815l 0.44993, -0.11469l 0.44993, -0.114565l 0.44993, -0.114441l 0.44993, -0.114316l
 0.44993, -0.114191" fill="none" stroke="#ff0066" stroke-width="3"/>
<path d="M297.171,250.839l 0.44993, -0.114066l 0.44993, -0.113941l 0.44993, -0.113816l 0.44993, -0.113691l 0.44993, -0.113566l 0.44993, -0.113441l 0.44993, -0.113317l 0.44993, -0.113192l 0.44993, -0.113067l 0.44993, -0.112942l 0.44993, -0.112817l
 0.44993, -0.112692l 0.44993, -0.112567l 0.44993, -0.112443l 0.44993, -0.112318l 0.44993, -0.112193l 0.44993, -0.112068l 0.44993, -0.111943l 0.44993, -0.111818l 0.44993, -0.111693l 0.44993, -0.111568l 0.44993, -0.111444l 0.44993, -0.111319l 0.44993,
 -0.111194l 0.44993, -0.111069l 0.44993, -0.110944l 0.44993, -0.110819l 0.44993, -0.110694l 0.44993, -0.110569l 0.44993, -0.110445l 0.44993, -0.11032l 0.44993, -0.110195l 0.44993, -0.11007l 0.44993, -0.109945l 0.44993, -0.10982l 0.44993, -0.109695l
 0.44993, -0.10957l 0.44993, -0.109446l 0.44993, -0.109321l 0.44993, -0.109196l 0.44993, -0.109071l 0.44993, -0.108946l 0.44993, -0.108821l 0.44993, -0.108696l 0.44993, -0.108571l 0.44993, -0.108447l 0.44993, -0.108322l 0.44993, -0.108197l 0.44993,
 -0.108072" fill="none" stroke="#ff0066" stroke-width="3"/>
<path d="M319.217,245.397l 0.44993, -0.107947l 0.44993, -0.107822l 0.44993, -0.107697l 0.44993, -0.107572l 0.44993, -0.107448l 0.44993, -0.107323l 0.44993, -0.107198l 0.44993, -0.107073l 0.44993, -0.106948l 0.44993, -0.106823l 0.44993, -0.106698l
 0.44993, -0.106573l 0.44993, -0.106449l 0.44993, -0.106324l 0.44993, -0.106199l 0.44993, -0.106074l 0.44993, -0.105949l 0.44993, -0.105824l 0.44993, -0.105699l 0.44993, -0.105574l 0.44993, -0.10545l 0.44993, -0.105325l 0.44993, -0.1052l 0.44993,
 -0.105075l 0.44993, -0.10495l 0.44993, -0.104825l 0.44993, -0.1047l 0.44993, -0.104575l 0.44993, -0.104451l 0.44993, -0.104326l 0.44993, -0.104201l 0.44993, -0.104076l 0.44993, -0.103951l 0.44993, -0.103826l 0.44993, -0.103701l 0.44993, -0.103576l
 0.44993, -0.103452l 0.44993, -0.103327l 0.44993, -0.103202l 0.44993, -0.103077l 0.44993, -0.102952l 0.44993, -0.102827l 0.44993, -0.102702l 0.44993, -0.102577l 0.44993, -0.102453l 0.44993, -0.102328l 0.44993, -0.102203l 0.44993, -0.102078l 0.44993,
 -0.101953" fill="none" stroke="#ff0066" stroke-width="3"/>
<path d="M341.264,240.255l 0.44993, -0.101828l 0.44993, -0.101703l 0.44993, -0.101578l 0.44993, -0.101454l 0.44993, -0.101329l 0.44993, -0.101204l 0.44993, -0.101079l 0.44993, -0.100954l 0.44993, -0.100829l 0.44993, -0.100704l 0.44993, -0.100579l
 0.44993, -0.100455l 0.44993, -0.10033l 0.44993, -0.100205l 0.44993, -0.10008l 0.44993, -0.099955l 0.44993, -0.0998301l 0.44993, -0.0997053l 0.44993, -0.0995804l 0.44993, -0.0994555l 0.44993, -0.0993306l 0.44993, -0.0992058l 0.44993, -0.0990809l
 0.44993, -0.098956l 0.44993, -0.0988311l 0.44993, -0.0987063l 0.44993, -0.0985814l 0.44993, -0.0984565l 0.44993, -0.0983316l 0.44993, -0.0982068l 0.44993, -0.0980819l 0.44993, -0.097957l 0.44993, -0.0978322l 0.44993, -0.0977073l 0.44993, -0.0975824l
 0.44993, -0.0974575l 0.44993, -0.0973326l 0.44993, -0.0972078l 0.44993, -0.0970829l 0.44993, -0.096958l 0.44993, -0.0968331l 0.44993, -0.0967083l 0.44993, -0.0965834l 0.44993, -0.0964585l 0.44993, -0.0963337l 0.44993, -0.0962088l 0.44993,
 -0.0960839l 0.44993, -0.095959l 0.44993, -0.0958342" fill="none" stroke="#ff0066" stroke-width="3"/>
<path d="M363.311,235.412l 0.44993, -0.0957093l 0.44993, -0.0955844l 0.44993, -0.0954595l 0.44993, -0.0953346l 0.44993, -0.0952098l 0.44993, -0.0950849l 0.44993, -0.09496l 0.44993, -0.0948352l 0.44993, -0.0947103l 0.44993, -0.0945854l 0.44993,
 -0.0944605l 0.44993, -0.0943357l 0.44993, -0.0942108l 0.44993, -0.0940859l 0.44993, -0.093961l 0.44993, -0.0938362l 0.44993, -0.0937113l 0.44993, -0.0935864l 0.44993, -0.0934615l 0.44993, -0.0933367l 0.44993, -0.0932118l 0.44993, -0.0930869l
 0.44993, -0.092962l 0.44993, -0.0928372l 0.44993, -0.0927123l 0.44993, -0.0925874l 0.44993, -0.0924625l 0.44993, -0.0923377l 0.44993, -0.0922128l 0.44993, -0.0920879l 0.44993, -0.091963l 0.44993, -0.0918382l 0.44993, -0.0917133l 0.44993, -0.0915884l
 0.44993, -0.0914635l 0.44993, -0.0913387l 0.44993, -0.0912138l 0.44993, -0.0910889l 0.44993, -0.090964l 0.44993, -0.0908392l 0.44993, -0.0907143l 0.44993, -0.0905894l 0.44993, -0.0904645l 0.44993, -0.0903397l 0.44993, -0.0902148l 0.44993,
 -0.0900899l 0.44993, -0.089965l 0.44993, -0.0898402l 0.44993, -0.0897153" fill="none" stroke="#ff0066" stroke-width="3"/>
<path d="M385.357,230.869l 0.44993, -0.0895904l 0.44993, -0.0894655l 0.44993, -0.0893407l 0.44993, -0.0892158l 0.44993, -0.0890909l 0.44993, -0.088966l 0.44993, -0.0888412l 0.44993, -0.0887163l 0.44993, -0.0885914l 0.44993, -0.0884665l 0.44993,
 -0.0883417l 0.44993, -0.0882168l 0.44993, -0.0880919l 0.44993, -0.087967l 0.44993, -0.0878422l 0.44993, -0.0877173l 0.44993, -0.0875924l 0.44993, -0.0874675l 0.44993, -0.0873427l 0.44993, -0.0872178l 0.44993, -0.0870929l 0.44993, -0.086968l 0.44993,
 -0.0868432l 0.44993, -0.0867183l 0.44993, -0.0865934l 0.44993, -0.0864685l 0.44993, -0.0863437l 0.44993, -0.0862188l 0.44993, -0.0860939l 0.44993, -0.085969l 0.44993, -0.0858442l 0.44993, -0.0857193l 0.44993, -0.0855944l 0.44993, -0.0854695l
 0.44993, -0.0853447l 0.44993, -0.0852198l 0.44993, -0.0850949l 0.44993, -0.08497l 0.44993, -0.0848452l 0.44993, -0.0847203l 0.44993, -0.0845954l 0.44993, -0.0844705l 0.44993, -0.0843457l 0.44993, -0.0842208l 0.44993, -0.0840959l 0.44993, -0.083971l
 0.44993, -0.0838462l 0.44993, -0.0837213l 0.44993, -0.0835964" fill="none" stroke="#ff0066" stroke-width="3"/>
<path d="M407.404,226.626l 0.44993, -0.0834715l 0.44993, -0.0833467l 0.44993, -0.0832218l 0.44993, -0.0830969l 0.44993, -0.082972l 0.44993, -0.0828472l 0.44993, -0.0827223l 0.44993, -0.0825974l 0.44993, -0.0824725l 0.44993, -0.0823477l 0.44993,
 -0.0822228l 0.44993, -0.0820979l 0.44993, -0.081973l 0.44993, -0.0818482l 0.44993, -0.0817233l 0.44993, -0.0815984l 0.44993, -0.0814735l 0.44993, -0.0813487l 0.44993, -0.0812238l 0.44993, -0.0810989l 0.44993, -0.080974l 0.44993, -0.0808492l 0.44993,
 -0.0807243l 0.44993, -0.0805994l 0.44993, -0.0804745l 0.44993, -0.0803497l 0.44993, -0.0802248l 0.44993, -0.0800999l 0.44993, -0.079975l 0.44993, -0.0798502l 0.44993, -0.0797253l 0.44993, -0.0796004l 0.44993, -0.0794755l 0.44993, -0.0793507l
 0.44993, -0.0792258l 0.44993, -0.0791009l 0.44993, -0.0789761l 0.44993, -0.0788512l 0.44993, -0.0787263l 0.44993, -0.0786014l 0.44993, -0.0784765l 0.44993, -0.0783517l 0.44993, -0.0782268l 0.44993, -0.0781019l 0.44993, -0.0779771l 0.44993,
 -0.0778522l 0.44993, -0.0777273l 0.44993, -0.0776024l 0.44993, -0.0774776" fill="none" stroke="#ff0066" stroke-width="3"/>
<path d="M429.45,222.683l 0.44993, -0.0773527l 0.44993, -0.0772278l 0.44993, -0.0771029l 0.44993, -0.0769781l 0.44993, -0.0768532l 0.44993, -0.0767283l 0.44993, -0.0766034l 0.44993, -0.0764786l 0.44993, -0.0763537l 0.44993, -0.0762288l 0.44993,
 -0.0761039l 0.44993, -0.0759791l 0.44993, -0.0758542l 0.44993, -0.0757293l 0.44993, -0.0756044l 0.44993, -0.0754796l 0.44993, -0.0753547l 0.44993, -0.0752298l 0.44993, -0.0751049l 0.44993, -0.0749801l 0.44993, -0.0748552l 0.44993, -0.0747303l
 0.44993, -0.0746054l 0.44993, -0.0744806l 0.44993, -0.0743557l 0.44993, -0.0742308l 0.44993, -0.0741059l 0.44993, -0.0739811l 0.44993, -0.0738562l 0.44993, -0.0737313l 0.44993, -0.0736064l 0.44993, -0.0734816l 0.44993, -0.0733567l 0.44993,
 -0.0732318l 0.44993, -0.0731069l 0.44993, -0.0729821l 0.44993, -0.0728572l 0.44993, -0.0727323l 0.44993, -0.0726074l 0.44993, -0.0724826l 0.44993, -0.0723577l 0.44993, -0.0722328l 0.44993, -0.0721079l 0.44993, -0.0719831l 0.44993, -0.0718582l
 0.44993, -0.0717333l 0.44993, -0.0716084l 0.44993, -0.0714836l 0.44993, -0.0713587" fill="none" stroke="#ff0066" stroke-width="3"/>
<path d="M451.497,219.039l 0.44993, -0.0712338l 0.44993, -0.0711089l 0.44993, -0.0709841l 0.44993, -0.0708592l 0.44993, -0.0707343l 0.44993, -0.0706094l 0.44993, -0.0704846l 0.44993, -0.0703597l 0.44993, -0.0702348l 0.44993, -0.0701099l 0.44993,
 -0.0699851l 0.44993, -0.0698602l 0.44993, -0.0697353l 0.44993, -0.0696104l 0.44993, -0.0694856l 0.44993, -0.0693607l 0.44993, -0.0692358l 0.44993, -0.0691109l 0.44993, -0.0689861l 0.44993, -0.0688612l 0.44993, -0.0687363l 0.44993, -0.0686114l
 0.44993, -0.0684866l 0.44993, -0.0683617l 0.44993, -0.0682368l 0.44993, -0.0681119l 0.44993, -0.0679871l 0.44993, -0.0678622l 0.44993, -0.0677373l 0.44993, -0.0676124l 0.44993, -0.0674876l 0.44993, -0.0673627l 0.44993, -0.0672378l 0.44993,
 -0.0671129l 0.44993, -0.0669881l 0.44993, -0.0668632l 0.44993, -0.0667383l 0.44993, -0.0666134l 0.44993, -0.0664886l 0.44993, -0.0663637l 0.44993, -0.0662388l 0.44993, -0.0661139l 0.44993, -0.0659891l 0.44993, -0.0658642l 0.44993, -0.0657393l
 0.44993, -0.0656144l 0.44993, -0.0654896l 0.44993, -0.0653647l 0.44993, -0.0652398" fill="none" stroke="#ff0066" stroke-width="3"/>
<path d="M473.543,215.696l 0.44993, -0.0651149l 0.44993, -0.0649901l 0.44993, -0.0648652l 0.44993, -0.0647403l 0.44993, -0.0646154l 0.44993, -0.0644906l 0.44993, -0.0643657l 0.44993, -0.0642408l 0.44993, -0.0641159l 0.44993, -0.0639911l 0.44993,
 -0.0638662l 0.44993, -0.0637413l 0.44993, -0.0636164l 0.44993, -0.0634916l 0.44993, -0.0633667l 0.44993, -0.0632418l 0.44993, -0.0631169l 0.44993, -0.0629921l 0.44993, -0.0628672l 0.44993, -0.0627423l 0.44993, -0.0626174l 0.44993, -0.0624926l
 0.44993, -0.0623677l 0.44993, -0.0622428l 0.44993, -0.0621179l 0.44993, -0.0619931l 0.44993, -0.0618682l 0.44993, -0.0617433l 0.44993, -0.0616184l 0.44993, -0.0614936l 0.44993, -0.0613687l 0.44993, -0.0612438l 0.44993, -0.0611189l 0.44993,
 -0.0609941l 0.44993, -0.0608692l 0.44993, -0.0607443l 0.44993, -0.0606195l 0.44993, -0.0604946l 0.44993, -0.0603697l 0.44993, -0.0602448l 0.44993, -0.0601199l 0.44993, -0.0599951l 0.44993, -0.0598702l 0.44993, -0.0597453l 0.44993, -0.0596205l
 0.44993, -0.0594956l 0.44993, -0.0593707l 0.44993, -0.0592458l 0.44993, -0.059121" fill="none" stroke="#ff0066" stroke-width="3"/>
<path d="M495.59,212.652l 0.44993, -0.0589961l 0.44993, -0.0588712l 0.44993, -0.0587463l 0.44993, -0.0586215l 0.44993, -0.0584966l 0.44993, -0.0583717l 0.44993, -0.0582468l 0.44993, -0.058122l 0.44993, -0.0579971l 0.44993, -0.0578722l 0.44993,
 -0.0577473l 0.44993, -0.0576225l 0.44993, -0.0574976l 0.44993, -0.0573727l 0.44993, -0.0572478l 0.44993, -0.057123l 0.44993, -0.0569981l 0.44993, -0.0568732l 0.44993, -0.0567483l 0.44993, -0.0566235l 0.44993, -0.0564986l 0.44993, -0.0563737l
 0.44993, -0.0562488l 0.44993, -0.056124l 0.44993, -0.0559991l 0.44993, -0.0558742l 0.44993, -0.0557493l 0.44993, -0.0556245l 0.44993, -0.0554996l 0.44993, -0.0553747l 0.44993, -0.0552498l 0.44993, -0.055125l 0.44993, -0.0550001l 0.44993, -0.0548752l
 0.44993, -0.0547503l 0.44993, -0.0546255l 0.44993, -0.0545006l 0.44993, -0.0543757l 0.44993, -0.0542508l 0.44993, -0.054126l 0.44993, -0.0540011l 0.44993, -0.0538762l 0.44993, -0.0537513l 0.44993, -0.0536265l 0.44993, -0.0535016l 0.44993,
 -0.0533767l 0.44993, -0.0532518l 0.44993, -0.053127l 0.44993, -0.0530021" fill="none" stroke="#ff0066" stroke-width="3"/>
<path d="M517.636,209.908l 0.44993, -0.0528772l 0.44993, -0.0527523l 0.44993, -0.0526275l 0.44993, -0.0525026l 0.44993, -0.0523777l 0.44993, -0.0522528l 0.44993, -0.052128l 0.44993, -0.0520031l 0.44993, -0.0518782l 0.44993, -0.0517533l 0.44993,
 -0.0516285l 0.44993, -0.0515036l 0.44993, -0.0513787l 0.44993, -0.0512538l 0.44993, -0.051129l 0.44993, -0.0510041l 0.44993, -0.0508792l 0.44993, -0.0507543l 0.44993, -0.0506295l 0.44993, -0.0505046l 0.44993, -0.0503797l 0.44993, -0.0502548l
 0.44993, -0.05013l 0.44993, -0.0500051l 0.44993, -0.0498802l 0.44993, -0.0497553l 0.44993, -0.0496305l 0.44993, -0.0495056l 0.44993, -0.0493807l 0.44993, -0.0492558l 0.44993, -0.049131l 0.44993, -0.0490061l 0.44993, -0.0488812l 0.44993, -0.0487563l
 0.44993, -0.0486315l 0.44993, -0.0485066l 0.44993, -0.0483817l 0.44993, -0.0482568l 0.44993, -0.048132l 0.44993, -0.0480071l 0.44993, -0.0478822l 0.44993, -0.0477573l 0.44993, -0.0476325l 0.44993, -0.0475076l 0.44993, -0.0473827l 0.44993,
 -0.0472578l 0.44993, -0.047133l 0.44993, -0.0470081l 0.44993, -0.0468832" fill="none" stroke="#ff0066" stroke-width="3"/>
<path d="M539.683,207.464l 0.44993, -0.0467583l 0.44993, -0.0466335l 0.44993, -0.0465086l 0.44993, -0.0463837l 0.44993, -0.0462588l 0.44993, -0.046134l 0.44993, -0.0460091l 0.44993, -0.0458842l 0.44993, -0.0457593l 0.44993, -0.0456345l 0.44993,
 -0.0455096l 0.44993, -0.0453847l 0.44993, -0.0452598l 0.44993, -0.045135l 0.44993, -0.0450101l 0.44993, -0.0448852l 0.44993, -0.0447603l 0.44993, -0.0446355l 0.44993, -0.0445106" fill="none" stroke="#ff0066" stroke-width="3"/>
<path d="M248.503,21.4167h 239.963" fill="none" stroke="#999999" stroke-width="7"/>
<text xml:space="preserve" x="361.171" y="50.7193" fill="black" font-size="16.0105" font-family="Helvetica"> with EMC</text>
<text xml:space="preserve" x="353.281" y="50.7193" fill="black" font-size="16.0105" font-family="Times">&#0947;</text>
<text xml:space="preserve" x="345.391" y="50.7193" fill="black" font-size="16.0105" font-family="Times">&#0947;</text>
<text xml:space="preserve" x="337.502" y="50.7193" fill="black" font-size="16.0105" font-family="Times">&#0947;</text>
<text xml:space="preserve" x="332.43" y="50.7193" fill="black" font-size="16.0105" font-family="Helvetica"> </text>
<text xml:space="preserve" x="317.214" y="50.7193" fill="black" font-size="16.0105" font-family="Times">&#8594;</text>
<text xml:space="preserve" x="312.142" y="50.7193" fill="black" font-size="16.0105" font-family="Helvetica"> </text>
<text xml:space="preserve" x="304.252" y="50.7193" fill="black" font-size="16.0105" font-family="Times">&#0947;</text>
<text xml:space="preserve" x="298.617" y="45.0838" fill="black" font-size="10.8403" font-family="Helvetica">0</text>
<text xml:space="preserve" x="290.164" y="50.7193" fill="black" font-size="16.0105" font-family="Times">&#0960;</text>
<text xml:space="preserve" x="285.092" y="50.7193" fill="black" font-size="16.0105" font-family="Helvetica"> </text>
<text xml:space="preserve" x="269.876" y="50.7193" fill="black" font-size="16.0105" font-family="Times">&#8594;</text>
<text xml:space="preserve" x="264.804" y="50.7193" fill="black" font-size="16.0105" font-family="Helvetica"> </text>
<text xml:space="preserve" x="253.533" y="50.7193" fill="black" font-size="16.0105" font-family="Times">&#0969;</text>
<text xml:space="preserve" x="128.989" y="50.7193" fill="black" font-size="16.0105" font-family="Helvetica"> = 13 TeV (MB1), </text>
<text xml:space="preserve" x="120.536" y="50.7193" fill="black" font-size="16.0105" font-family="Helvetica" font-style="oblique">s</text>
<path d="M114.9,41.7025l 1.69064, 9.58031" fill="none" stroke="black" stroke-width="2"/>
<path d="M116.591,51.2829l 2.25419, -14.0887" fill="none" stroke="black"/>
<path d="M118.845,37.1942h 10.1439" fill="none" stroke="black"/>
<text xml:space="preserve" x="89.5406" y="50.7193" fill="black" font-size="16.0105" font-family="Helvetica">pp </text>
<text xml:space="preserve" x="89.5406" y="85.6593" fill="black" font-size="16.0105" font-family="Helvetica">ALICE work in progress</text>
<text xml:space="preserve" x="214.085" y="120.599" fill="black" font-size="16.0105" font-family="Helvetica">) &lt; 20.0</text>
<text xml:space="preserve" x="205.068" y="120.599" fill="black" font-size="16.0105" font-family="Helvetica" font-style="oblique">c</text>
<text xml:space="preserve" x="154.912" y="120.599" fill="black" font-size="16.0105" font-family="Helvetica"> /(GeV/</text>
<text xml:space="preserve" x="148.15" y="128.489" fill="black" font-size="10.8403" font-family="Helvetica">T</text>
<text xml:space="preserve" x="138.569" y="120.599" fill="black" font-size="16.0105" font-family="Helvetica" font-style="oblique">p</text>
<text xml:space="preserve" x="133.497" y="120.599" fill="black" font-size="16.0105" font-family="Helvetica"> </text>
<text xml:space="preserve" x="125.044" y="120.599" fill="black" font-size="16.0105" font-family="Times">&#8804;</text>
<text xml:space="preserve" x="89.5406" y="120.599" fill="black" font-size="16.0105" font-family="Helvetica">18.0 </text>
<rect x="312.311" y="69.1755" width="198.425" height="113.448" fill="white"/>
<text xml:space="preserve" x="361.734" y="85.0957" fill="black" font-size="16.0105" font-family="Helvetica">ratio</text>
<path d="M319.752,80.5203h 34.7244" fill="none" stroke="black" stroke-width="2"/>
<g fill="black">
<circle cx="337.114" cy="80.5203" r="6.76257"/>
</g>
<text xml:space="preserve" x="361.734" y="108.201" fill="black" font-size="16.0105" font-family="Helvetica">peak range</text>
<path d="M319.752,103.21h 34.7244" fill="none" stroke="#333333" stroke-width="2"/>
<g stroke="#333333" stroke-width="2" fill="none">
<circle cx="337.114" cy="103.21" r="5.63548"/>
</g>
<text xml:space="preserve" x="361.734" y="130.743" fill="black" font-size="16.0105" font-family="Helvetica">background pol1</text>
<path d="M319.752,125.899h 34.7244" fill="none" stroke="#33cccc" stroke-width="3"/>
<text xml:space="preserve" x="361.734" y="153.285" fill="black" font-size="16.0105" font-family="Helvetica">background pol2</text>
<path d="M319.752,148.589h 34.7244" fill="none" stroke="#ff0066" stroke-width="3"/>
<text xml:space="preserve" x="361.734" y="175.827" fill="black" font-size="16.0105" font-family="Helvetica">param. range</text>
<path d="M319.752,171.279h 34.7244" fill="none" stroke="#999999" stroke-width="7"/></svg>
