<?xml version="1.0" standalone="no"?>
<svg width="567.429" height="553.904" viewBox="0 0 567.429 553.904" xmlns="http://www.w3.org/2000/svg" shape-rendering="crispEdges">
<title>
Data/EG1/Pi0RotPS/SignalAndBackgroundFit_08.svg
</title>
<desc>
Creator: ROOT Version 6.20/08
CreationDate: Mon Mar 29 21:31:17 2021</desc>
<defs>
</defs>
<rect x="0.5" y="0" width="566.929" height="553.404" fill="white"/>
<rect x="57.1929" y="16.6021" width="496.063" height="481.461" fill="white"/>
<rect x="57.1929" y="16.6021" width="496.063" height="481.461" fill="none" stroke="black"/>
<rect x="57.1929" y="16.6021" width="496.063" height="481.461" fill="white"/>
<rect x="57.1929" y="16.6021" width="496.063" height="481.461" fill="none" stroke="black"/>
<g fill="black">
<circle cx="103.852" cy="497.505" r="6.76257"/>
</g>
<g fill="black">
<circle cx="108.764" cy="481.72" r="6.76257"/>
</g>
<g fill="black">
<circle cx="113.675" cy="460.98" r="6.76257"/>
</g>
<g fill="black">
<circle cx="118.587" cy="475.747" r="6.76257"/>
</g>
<g fill="black">
<circle cx="123.498" cy="488.959" r="6.76257"/>
</g>
<g fill="black">
<circle cx="128.41" cy="426.817" r="6.76257"/>
</g>
<g fill="black">
<circle cx="133.321" cy="369.283" r="6.76257"/>
</g>
<g fill="black">
<circle cx="138.233" cy="365.367" r="6.76257"/>
</g>
<g fill="black">
<circle cx="143.144" cy="337.063" r="6.76257"/>
</g>
<g fill="black">
<circle cx="148.056" cy="305.119" r="6.76257"/>
</g>
<g fill="black">
<circle cx="152.967" cy="282.159" r="6.76257"/>
</g>
<g fill="black">
<circle cx="157.879" cy="264.233" r="6.76257"/>
</g>
<g fill="black">
<circle cx="162.79" cy="253.085" r="6.76257"/>
</g>
<g fill="black">
<circle cx="167.702" cy="243.988" r="6.76257"/>
</g>
<g fill="black">
<circle cx="172.614" cy="235.371" r="6.76257"/>
</g>
<g fill="black">
<circle cx="177.525" cy="234.798" r="6.76257"/>
</g>
<g fill="black">
<circle cx="182.437" cy="232.762" r="6.76257"/>
</g>
<g fill="black">
<circle cx="187.348" cy="230.585" r="6.76257"/>
</g>
<g fill="black">
<circle cx="192.26" cy="230.896" r="6.76257"/>
</g>
<g fill="black">
<circle cx="197.171" cy="234.727" r="6.76257"/>
</g>
<g fill="black">
<circle cx="202.083" cy="237.951" r="6.76257"/>
</g>
<g fill="black">
<circle cx="206.994" cy="243.153" r="6.76257"/>
</g>
<g fill="black">
<circle cx="211.906" cy="247.819" r="6.76257"/>
</g>
<g fill="black">
<circle cx="216.817" cy="247.133" r="6.76257"/>
</g>
<g fill="black">
<circle cx="221.729" cy="247.699" r="6.76257"/>
</g>
<g fill="black">
<circle cx="226.64" cy="247.699" r="6.76257"/>
</g>
<g fill="black">
<circle cx="231.552" cy="246.801" r="6.76257"/>
</g>
<g fill="black">
<circle cx="236.463" cy="243.535" r="6.76257"/>
</g>
<g fill="black">
<circle cx="241.375" cy="243.98" r="6.76257"/>
</g>
<g fill="black">
<circle cx="246.286" cy="248.674" r="6.76257"/>
</g>
<g fill="black">
<circle cx="251.198" cy="251.763" r="6.76257"/>
</g>
<g fill="black">
<circle cx="256.109" cy="254.294" r="6.76257"/>
</g>
<g fill="black">
<circle cx="261.021" cy="259.065" r="6.76257"/>
</g>
<g fill="black">
<circle cx="265.932" cy="264.049" r="6.76257"/>
</g>
<g fill="black">
<circle cx="270.844" cy="266.891" r="6.76257"/>
</g>
<g fill="black">
<circle cx="275.755" cy="269.655" r="6.76257"/>
</g>
<g fill="black">
<circle cx="280.667" cy="271.21" r="6.76257"/>
</g>
<g fill="black">
<circle cx="285.578" cy="275.67" r="6.76257"/>
</g>
<g fill="black">
<circle cx="290.49" cy="274.172" r="6.76257"/>
</g>
<g fill="black">
<circle cx="295.401" cy="278.929" r="6.76257"/>
</g>
<g fill="black">
<circle cx="300.313" cy="288.104" r="6.76257"/>
</g>
<g fill="black">
<circle cx="305.224" cy="292.741" r="6.76257"/>
</g>
<g fill="black">
<circle cx="310.136" cy="300.553" r="6.76257"/>
</g>
<g fill="black">
<circle cx="315.047" cy="305.734" r="6.76257"/>
</g>
<g fill="black">
<circle cx="319.959" cy="311.318" r="6.76257"/>
</g>
<g fill="black">
<circle cx="324.87" cy="317.15" r="6.76257"/>
</g>
<g fill="black">
<circle cx="329.782" cy="321.83" r="6.76257"/>
</g>
<g fill="black">
<circle cx="334.694" cy="326.425" r="6.76257"/>
</g>
<g fill="black">
<circle cx="339.605" cy="333.465" r="6.76257"/>
</g>
<g fill="black">
<circle cx="344.517" cy="337.099" r="6.76257"/>
</g>
<g fill="black">
<circle cx="349.428" cy="344.5" r="6.76257"/>
</g>
<g fill="black">
<circle cx="354.34" cy="349.533" r="6.76257"/>
</g>
<g fill="black">
<circle cx="359.251" cy="351.293" r="6.76257"/>
</g>
<g fill="black">
<circle cx="364.163" cy="355.555" r="6.76257"/>
</g>
<g fill="black">
<circle cx="369.074" cy="362.568" r="6.76257"/>
</g>
<g fill="black">
<circle cx="373.986" cy="366.498" r="6.76257"/>
</g>
<g fill="black">
<circle cx="378.897" cy="368.845" r="6.76257"/>
</g>
<g fill="black">
<circle cx="383.809" cy="372.528" r="6.76257"/>
</g>
<g fill="black">
<circle cx="388.72" cy="376.585" r="6.76257"/>
</g>
<g fill="black">
<circle cx="393.632" cy="379.13" r="6.76257"/>
</g>
<g fill="black">
<circle cx="398.543" cy="382.997" r="6.76257"/>
</g>
<g fill="black">
<circle cx="403.455" cy="383.753" r="6.76257"/>
</g>
<g fill="black">
<circle cx="408.366" cy="385.93" r="6.76257"/>
</g>
<g fill="black">
<circle cx="413.278" cy="391.451" r="6.76257"/>
</g>
<g fill="black">
<circle cx="418.189" cy="394.604" r="6.76257"/>
</g>
<g fill="black">
<circle cx="423.101" cy="396.131" r="6.76257"/>
</g>
<g fill="black">
<circle cx="428.012" cy="397.891" r="6.76257"/>
</g>
<g fill="black">
<circle cx="432.924" cy="401.998" r="6.76257"/>
</g>
<g fill="black">
<circle cx="437.835" cy="403.503" r="6.76257"/>
</g>
<g fill="black">
<circle cx="442.747" cy="407.907" r="6.76257"/>
</g>
<g fill="black">
<circle cx="447.658" cy="411.456" r="6.76257"/>
</g>
<g fill="black">
<circle cx="452.57" cy="413.322" r="6.76257"/>
</g>
<g fill="black">
<circle cx="457.481" cy="415.902" r="6.76257"/>
</g>
<g fill="black">
<circle cx="462.393" cy="417.274" r="6.76257"/>
</g>
<g fill="black">
<circle cx="467.304" cy="421.112" r="6.76257"/>
</g>
<g fill="black">
<circle cx="472.216" cy="422.045" r="6.76257"/>
</g>
<g fill="black">
<circle cx="477.127" cy="425.954" r="6.76257"/>
</g>
<g fill="black">
<circle cx="482.039" cy="426.689" r="6.76257"/>
</g>
<g fill="black">
<circle cx="486.95" cy="429.962" r="6.76257"/>
</g>
<g fill="black">
<circle cx="491.862" cy="430.86" r="6.76257"/>
</g>
<g fill="black">
<circle cx="496.773" cy="432.387" r="6.76257"/>
</g>
<g fill="black">
<circle cx="501.685" cy="433.454" r="6.76257"/>
</g>
<g fill="black">
<circle cx="506.597" cy="434.458" r="6.76257"/>
</g>
<g fill="black">
<circle cx="511.508" cy="437.024" r="6.76257"/>
</g>
<g fill="black">
<circle cx="516.42" cy="438.593" r="6.76257"/>
</g>
<g fill="black">
<circle cx="521.331" cy="440.707" r="6.76257"/>
</g>
<g fill="black">
<circle cx="526.243" cy="440.467" r="6.76257"/>
</g>
<g fill="black">
<circle cx="531.154" cy="443.796" r="6.76257"/>
</g>
<g fill="black">
<circle cx="536.066" cy="444.213" r="6.76257"/>
</g>
<g fill="black">
<circle cx="540.977" cy="445.174" r="6.76257"/>
</g>
<g fill="black">
<circle cx="545.889" cy="445.719" r="6.76257"/>
</g>
<path d="M57.1929,498.064h 496.063" fill="none" stroke="black"/>
<path d="M57.1929,483.537v 14.5269" fill="none" stroke="black"/>
<path d="M72.5414,490.8v 7.26343" fill="none" stroke="black"/>
<path d="M87.8899,490.8v 7.26343" fill="none" stroke="black"/>
<path d="M103.238,490.8v 7.26343" fill="none" stroke="black"/>
<path d="M118.587,483.537v 14.5269" fill="none" stroke="black"/>
<path d="M133.935,490.8v 7.26343" fill="none" stroke="black"/>
<path d="M149.284,490.8v 7.26343" fill="none" stroke="black"/>
<path d="M164.632,490.8v 7.26343" fill="none" stroke="black"/>
<path d="M179.981,483.537v 14.5269" fill="none" stroke="black"/>
<path d="M195.329,490.8v 7.26343" fill="none" stroke="black"/>
<path d="M210.678,490.8v 7.26343" fill="none" stroke="black"/>
<path d="M226.026,490.8v 7.26343" fill="none" stroke="black"/>
<path d="M241.375,483.537v 14.5269" fill="none" stroke="black"/>
<path d="M256.723,490.8v 7.26343" fill="none" stroke="black"/>
<path d="M272.072,490.8v 7.26343" fill="none" stroke="black"/>
<path d="M287.42,490.8v 7.26343" fill="none" stroke="black"/>
<path d="M302.769,483.537v 14.5269" fill="none" stroke="black"/>
<path d="M318.117,490.8v 7.26343" fill="none" stroke="black"/>
<path d="M333.466,490.8v 7.26343" fill="none" stroke="black"/>
<path d="M348.814,490.8v 7.26343" fill="none" stroke="black"/>
<path d="M364.163,483.537v 14.5269" fill="none" stroke="black"/>
<path d="M379.511,490.8v 7.26343" fill="none" stroke="black"/>
<path d="M394.86,490.8v 7.26343" fill="none" stroke="black"/>
<path d="M410.208,490.8v 7.26343" fill="none" stroke="black"/>
<path d="M425.557,483.537v 14.5269" fill="none" stroke="black"/>
<path d="M440.905,490.8v 7.26343" fill="none" stroke="black"/>
<path d="M456.253,490.8v 7.26343" fill="none" stroke="black"/>
<path d="M471.602,490.8v 7.26343" fill="none" stroke="black"/>
<path d="M486.95,483.537v 14.5269" fill="none" stroke="black"/>
<path d="M502.299,490.8v 7.26343" fill="none" stroke="black"/>
<path d="M517.647,490.8v 7.26343" fill="none" stroke="black"/>
<path d="M532.996,490.8v 7.26343" fill="none" stroke="black"/>
<path d="M548.344,483.537v 14.5269" fill="none" stroke="black"/>
<path d="M548.344,483.537v 14.5269" fill="none" stroke="black"/>
<text xml:space="preserve" x="52.3464" y="513.956" fill="black" font-size="16.0105" font-family="Helvetica">0</text>
<text xml:space="preserve" x="107.574" y="513.956" fill="black" font-size="16.0105" font-family="Helvetica">0.2</text>
<text xml:space="preserve" x="169.001" y="513.956" fill="black" font-size="16.0105" font-family="Helvetica">0.4</text>
<text xml:space="preserve" x="230.428" y="513.956" fill="black" font-size="16.0105" font-family="Helvetica">0.6</text>
<text xml:space="preserve" x="291.854" y="513.956" fill="black" font-size="16.0105" font-family="Helvetica">0.8</text>
<text xml:space="preserve" x="361.171" y="513.956" fill="black" font-size="16.0105" font-family="Helvetica">1</text>
<text xml:space="preserve" x="414.708" y="513.956" fill="black" font-size="16.0105" font-family="Helvetica">1.2</text>
<text xml:space="preserve" x="476.134" y="513.956" fill="black" font-size="16.0105" font-family="Helvetica">1.4</text>
<text xml:space="preserve" x="537.561" y="513.956" fill="black" font-size="16.0105" font-family="Helvetica">1.6</text>
<text xml:space="preserve" x="548.268" y="537.625" fill="black" font-size="16.0105" font-family="Helvetica">)</text>
<text xml:space="preserve" x="542.633" y="532.553" fill="black" font-size="10.8403" font-family="Helvetica">2</text>
<text xml:space="preserve" x="533.616" y="537.625" fill="black" font-size="16.0105" font-family="Helvetica" font-style="oblique">c</text>
<text xml:space="preserve" x="487.405" y="537.625" fill="black" font-size="16.0105" font-family="Helvetica"> (GeV/</text>
<text xml:space="preserve" x="473.317" y="542.697" fill="black" font-size="10.8403" font-family="Helvetica">inv</text>
<text xml:space="preserve" x="459.792" y="537.625" fill="black" font-size="16.0105" font-family="Helvetica" font-style="oblique">m</text>
<path d="M57.1929,16.6021h 496.063" fill="none" stroke="black"/>
<path d="M57.1929,31.129v -14.5269" fill="none" stroke="black"/>
<path d="M72.5414,23.8655v -7.26343" fill="none" stroke="black"/>
<path d="M87.8899,23.8655v -7.26343" fill="none" stroke="black"/>
<path d="M103.238,23.8655v -7.26343" fill="none" stroke="black"/>
<path d="M118.587,31.129v -14.5269" fill="none" stroke="black"/>
<path d="M133.935,23.8655v -7.26343" fill="none" stroke="black"/>
<path d="M149.284,23.8655v -7.26343" fill="none" stroke="black"/>
<path d="M164.632,23.8655v -7.26343" fill="none" stroke="black"/>
<path d="M179.981,31.129v -14.5269" fill="none" stroke="black"/>
<path d="M195.329,23.8655v -7.26343" fill="none" stroke="black"/>
<path d="M210.678,23.8655v -7.26343" fill="none" stroke="black"/>
<path d="M226.026,23.8655v -7.26343" fill="none" stroke="black"/>
<path d="M241.375,31.129v -14.5269" fill="none" stroke="black"/>
<path d="M256.723,23.8655v -7.26343" fill="none" stroke="black"/>
<path d="M272.072,23.8655v -7.26343" fill="none" stroke="black"/>
<path d="M287.42,23.8655v -7.26343" fill="none" stroke="black"/>
<path d="M302.769,31.129v -14.5269" fill="none" stroke="black"/>
<path d="M318.117,23.8655v -7.26343" fill="none" stroke="black"/>
<path d="M333.466,23.8655v -7.26343" fill="none" stroke="black"/>
<path d="M348.814,23.8655v -7.26343" fill="none" stroke="black"/>
<path d="M364.163,31.129v -14.5269" fill="none" stroke="black"/>
<path d="M379.511,23.8655v -7.26343" fill="none" stroke="black"/>
<path d="M394.86,23.8655v -7.26343" fill="none" stroke="black"/>
<path d="M410.208,23.8655v -7.26343" fill="none" stroke="black"/>
<path d="M425.557,31.129v -14.5269" fill="none" stroke="black"/>
<path d="M440.905,23.8655v -7.26343" fill="none" stroke="black"/>
<path d="M456.253,23.8655v -7.26343" fill="none" stroke="black"/>
<path d="M471.602,23.8655v -7.26343" fill="none" stroke="black"/>
<path d="M486.95,31.129v -14.5269" fill="none" stroke="black"/>
<path d="M502.299,23.8655v -7.26343" fill="none" stroke="black"/>
<path d="M517.647,23.8655v -7.26343" fill="none" stroke="black"/>
<path d="M532.996,23.8655v -7.26343" fill="none" stroke="black"/>
<path d="M548.344,31.129v -14.5269" fill="none" stroke="black"/>
<path d="M548.344,31.129v -14.5269" fill="none" stroke="black"/>
<path d="M57.1929,498.064v -481.461" fill="none" stroke="black"/>
<path d="M71.9898,498.064h -14.7969" fill="none" stroke="black"/>
<path d="M64.5913,483.926h -7.39843" fill="none" stroke="black"/>
<path d="M64.5913,469.788h -7.39843" fill="none" stroke="black"/>
<path d="M64.5913,455.65h -7.39843" fill="none" stroke="black"/>
<path d="M64.5913,441.513h -7.39843" fill="none" stroke="black"/>
<path d="M71.9898,427.375h -14.7969" fill="none" stroke="black"/>
<path d="M64.5913,413.237h -7.39843" fill="none" stroke="black"/>
<path d="M64.5913,399.1h -7.39843" fill="none" stroke="black"/>
<path d="M64.5913,384.962h -7.39843" fill="none" stroke="black"/>
<path d="M64.5913,370.824h -7.39843" fill="none" stroke="black"/>
<path d="M71.9898,356.686h -14.7969" fill="none" stroke="black"/>
<path d="M64.5913,342.549h -7.39843" fill="none" stroke="black"/>
<path d="M64.5913,328.411h -7.39843" fill="none" stroke="black"/>
<path d="M64.5913,314.273h -7.39843" fill="none" stroke="black"/>
<path d="M64.5913,300.136h -7.39843" fill="none" stroke="black"/>
<path d="M71.9898,285.998h -14.7969" fill="none" stroke="black"/>
<path d="M64.5913,271.86h -7.39843" fill="none" stroke="black"/>
<path d="M64.5913,257.722h -7.39843" fill="none" stroke="black"/>
<path d="M64.5913,243.585h -7.39843" fill="none" stroke="black"/>
<path d="M64.5913,229.447h -7.39843" fill="none" stroke="black"/>
<path d="M71.9898,215.309h -14.7969" fill="none" stroke="black"/>
<path d="M64.5913,201.171h -7.39843" fill="none" stroke="black"/>
<path d="M64.5913,187.034h -7.39843" fill="none" stroke="black"/>
<path d="M64.5913,172.896h -7.39843" fill="none" stroke="black"/>
<path d="M64.5913,158.758h -7.39843" fill="none" stroke="black"/>
<path d="M71.9898,144.621h -14.7969" fill="none" stroke="black"/>
<path d="M64.5913,130.483h -7.39843" fill="none" stroke="black"/>
<path d="M64.5913,116.345h -7.39843" fill="none" stroke="black"/>
<path d="M64.5913,102.207h -7.39843" fill="none" stroke="black"/>
<path d="M64.5913,88.0697h -7.39843" fill="none" stroke="black"/>
<path d="M71.9898,73.932h -14.7969" fill="none" stroke="black"/>
<path d="M71.9898,73.932h -14.7969" fill="none" stroke="black"/>
<path d="M64.5913,59.7943h -7.39843" fill="none" stroke="black"/>
<path d="M64.5913,45.6566h -7.39843" fill="none" stroke="black"/>
<path d="M64.5913,31.5189h -7.39843" fill="none" stroke="black"/>
<path d="M64.5913,17.3811h -7.39843" fill="none" stroke="black"/>
<text xml:space="preserve" x="45.5838" y="503.248" fill="black" font-size="16.0105" font-family="Helvetica">0</text>
<text xml:space="preserve" x="37.1306" y="432.805" fill="black" font-size="16.0105" font-family="Helvetica">10</text>
<text xml:space="preserve" x="37.1306" y="361.798" fill="black" font-size="16.0105" font-family="Helvetica">20</text>
<text xml:space="preserve" x="37.1306" y="291.354" fill="black" font-size="16.0105" font-family="Helvetica">30</text>
<text xml:space="preserve" x="37.1306" y="220.911" fill="black" font-size="16.0105" font-family="Helvetica">40</text>
<text xml:space="preserve" x="37.1306" y="149.904" fill="black" font-size="16.0105" font-family="Helvetica">50</text>
<text xml:space="preserve" x="37.1306" y="79.4603" fill="black" font-size="16.0105" font-family="Helvetica">60</text>
<text xml:space="preserve" x="82.2144" y="7.32612" fill="black" font-size="10.8403" font-family="Helvetica">3</text>
<text xml:space="preserve" x="65.308" y="14.6522" fill="black" font-size="16.0105" font-family="Helvetica">10</text>
<text xml:space="preserve" x="56.8548" y="14.6522" fill="black" font-size="16.0105" font-family="Times">&#0215;</text>
<g transform="rotate(-90,22.4784,21.9784)">
<text xml:space="preserve" x="22.4784" y="21.9784" fill="black" font-size="10.8403" font-family="Times">&#0947;</text>
</g>
<g transform="rotate(-90,18.5335,25.9232)">
<text xml:space="preserve" x="18.5335" y="25.9232" fill="black" font-size="7.39355" font-family="Helvetica">0</text>
</g>
<g transform="rotate(-90,22.4784,32.1222)">
<text xml:space="preserve" x="22.4784" y="32.1222" fill="black" font-size="10.8403" font-family="Times">&#0960;</text>
</g>
<g transform="rotate(-90,17.4064,45.0838)">
<text xml:space="preserve" x="17.4064" y="45.0838" fill="black" font-size="16.0105" font-family="Helvetica" font-style="oblique">N</text>
</g>
<path d="M553.256,498.064v -481.461" fill="none" stroke="black"/>
<path d="M538.459,498.064h 14.7969" fill="none" stroke="black"/>
<path d="M545.857,483.926h 7.39843" fill="none" stroke="black"/>
<path d="M545.857,469.788h 7.39843" fill="none" stroke="black"/>
<path d="M545.857,455.65h 7.39843" fill="none" stroke="black"/>
<path d="M545.857,441.513h 7.39843" fill="none" stroke="black"/>
<path d="M538.459,427.375h 14.7969" fill="none" stroke="black"/>
<path d="M545.857,413.237h 7.39843" fill="none" stroke="black"/>
<path d="M545.857,399.1h 7.39843" fill="none" stroke="black"/>
<path d="M545.857,384.962h 7.39843" fill="none" stroke="black"/>
<path d="M545.857,370.824h 7.39843" fill="none" stroke="black"/>
<path d="M538.459,356.686h 14.7969" fill="none" stroke="black"/>
<path d="M545.857,342.549h 7.39843" fill="none" stroke="black"/>
<path d="M545.857,328.411h 7.39843" fill="none" stroke="black"/>
<path d="M545.857,314.273h 7.39843" fill="none" stroke="black"/>
<path d="M545.857,300.136h 7.39843" fill="none" stroke="black"/>
<path d="M538.459,285.998h 14.7969" fill="none" stroke="black"/>
<path d="M545.857,271.86h 7.39843" fill="none" stroke="black"/>
<path d="M545.857,257.722h 7.39843" fill="none" stroke="black"/>
<path d="M545.857,243.585h 7.39843" fill="none" stroke="black"/>
<path d="M545.857,229.447h 7.39843" fill="none" stroke="black"/>
<path d="M538.459,215.309h 14.7969" fill="none" stroke="black"/>
<path d="M545.857,201.171h 7.39843" fill="none" stroke="black"/>
<path d="M545.857,187.034h 7.39843" fill="none" stroke="black"/>
<path d="M545.857,172.896h 7.39843" fill="none" stroke="black"/>
<path d="M545.857,158.758h 7.39843" fill="none" stroke="black"/>
<path d="M538.459,144.621h 14.7969" fill="none" stroke="black"/>
<path d="M545.857,130.483h 7.39843" fill="none" stroke="black"/>
<path d="M545.857,116.345h 7.39843" fill="none" stroke="black"/>
<path d="M545.857,102.207h 7.39843" fill="none" stroke="black"/>
<path d="M545.857,88.0697h 7.39843" fill="none" stroke="black"/>
<path d="M538.459,73.932h 14.7969" fill="none" stroke="black"/>
<path d="M538.459,73.932h 14.7969" fill="none" stroke="black"/>
<path d="M545.857,59.7943h 7.39843" fill="none" stroke="black"/>
<path d="M545.857,45.6566h 7.39843" fill="none" stroke="black"/>
<path d="M545.857,31.5189h 7.39843" fill="none" stroke="black"/>
<path d="M545.857,17.3811h 7.39843" fill="none" stroke="black"/>
<g stroke="#33cccc" stroke-width="2" fill="none">
<rect x="93.3053" y="488.335" width="11.271" height="11.271"/>
</g>
<g stroke="#33cccc" stroke-width="2" fill="none">
<rect x="98.2168" y="458.224" width="11.271" height="11.271"/>
</g>
<g stroke="#33cccc" stroke-width="2" fill="none">
<rect x="103.128" y="434.498" width="11.271" height="11.271"/>
</g>
<g stroke="#33cccc" stroke-width="2" fill="none">
<rect x="108.04" y="441.103" width="11.271" height="11.271"/>
</g>
<g stroke="#33cccc" stroke-width="2" fill="none">
<rect x="112.951" y="468.193" width="11.271" height="11.271"/>
</g>
<g stroke="#33cccc" stroke-width="2" fill="none">
<rect x="117.863" y="473.446" width="11.271" height="11.271"/>
</g>
<g stroke="#33cccc" stroke-width="2" fill="none">
<rect x="122.774" y="420.468" width="11.271" height="11.271"/>
</g>
<g stroke="#33cccc" stroke-width="2" fill="none">
<rect x="127.686" y="379.422" width="11.271" height="11.271"/>
</g>
<g stroke="#33cccc" stroke-width="2" fill="none">
<rect x="132.597" y="376.913" width="11.271" height="11.271"/>
</g>
<g stroke="#33cccc" stroke-width="2" fill="none">
<rect x="137.509" y="360.712" width="11.271" height="11.271"/>
</g>
<g stroke="#33cccc" stroke-width="2" fill="none">
<rect x="142.42" y="343.161" width="11.271" height="11.271"/>
</g>
<g stroke="#33cccc" stroke-width="2" fill="none">
<rect x="147.332" y="324.998" width="11.271" height="11.271"/>
</g>
<g stroke="#33cccc" stroke-width="2" fill="none">
<rect x="152.243" y="307.737" width="11.271" height="11.271"/>
</g>
<g stroke="#33cccc" stroke-width="2" fill="none">
<rect x="157.155" y="293.053" width="11.271" height="11.271"/>
</g>
<g stroke="#33cccc" stroke-width="2" fill="none">
<rect x="162.067" y="279.999" width="11.271" height="11.271"/>
</g>
<g stroke="#33cccc" stroke-width="2" fill="none">
<rect x="166.978" y="267.961" width="11.271" height="11.271"/>
</g>
<g stroke="#33cccc" stroke-width="2" fill="none">
<rect x="171.89" y="259.329" width="11.271" height="11.271"/>
</g>
<g stroke="#33cccc" stroke-width="2" fill="none">
<rect x="176.801" y="251.537" width="11.271" height="11.271"/>
</g>
<g stroke="#33cccc" stroke-width="2" fill="none">
<rect x="181.713" y="245.295" width="11.271" height="11.271"/>
</g>
<g stroke="#33cccc" stroke-width="2" fill="none">
<rect x="186.624" y="239.886" width="11.271" height="11.271"/>
</g>
<g stroke="#33cccc" stroke-width="2" fill="none">
<rect x="191.536" y="238.982" width="11.271" height="11.271"/>
</g>
<g stroke="#33cccc" stroke-width="2" fill="none">
<rect x="196.447" y="238.396" width="11.271" height="11.271"/>
</g>
<g stroke="#33cccc" stroke-width="2" fill="none">
<rect x="201.359" y="238.164" width="11.271" height="11.271"/>
</g>
<g stroke="#33cccc" stroke-width="2" fill="none">
<rect x="206.27" y="238.208" width="11.271" height="11.271"/>
</g>
<g stroke="#33cccc" stroke-width="2" fill="none">
<rect x="211.182" y="236.927" width="11.271" height="11.271"/>
</g>
<g stroke="#33cccc" stroke-width="2" fill="none">
<rect x="216.093" y="237.155" width="11.271" height="11.271"/>
</g>
<g stroke="#33cccc" stroke-width="2" fill="none">
<rect x="221.005" y="237.73" width="11.271" height="11.271"/>
</g>
<g stroke="#33cccc" stroke-width="2" fill="none">
<rect x="225.916" y="240.299" width="11.271" height="11.271"/>
</g>
<g stroke="#33cccc" stroke-width="2" fill="none">
<rect x="230.828" y="241.289" width="11.271" height="11.271"/>
</g>
<g stroke="#33cccc" stroke-width="2" fill="none">
<rect x="235.739" y="243.015" width="11.271" height="11.271"/>
</g>
<g stroke="#33cccc" stroke-width="2" fill="none">
<rect x="240.651" y="245.23" width="11.271" height="11.271"/>
</g>
<g stroke="#33cccc" stroke-width="2" fill="none">
<rect x="245.562" y="248.612" width="11.271" height="11.271"/>
</g>
<g stroke="#33cccc" stroke-width="2" fill="none">
<rect x="250.474" y="251.278" width="11.271" height="11.271"/>
</g>
<g stroke="#33cccc" stroke-width="2" fill="none">
<rect x="255.385" y="255.521" width="11.271" height="11.271"/>
</g>
<g stroke="#33cccc" stroke-width="2" fill="none">
<rect x="260.297" y="258.132" width="11.271" height="11.271"/>
</g>
<g stroke="#33cccc" stroke-width="2" fill="none">
<rect x="265.208" y="263.97" width="11.271" height="11.271"/>
</g>
<g stroke="#33cccc" stroke-width="2" fill="none">
<rect x="270.12" y="267.466" width="11.271" height="11.271"/>
</g>
<g stroke="#33cccc" stroke-width="2" fill="none">
<rect x="275.031" y="271.073" width="11.271" height="11.271"/>
</g>
<g stroke="#33cccc" stroke-width="2" fill="none">
<rect x="279.943" y="275.883" width="11.271" height="11.271"/>
</g>
<g stroke="#33cccc" stroke-width="2" fill="none">
<rect x="284.854" y="281.984" width="11.271" height="11.271"/>
</g>
<g stroke="#33cccc" stroke-width="2" fill="none">
<rect x="289.766" y="285.346" width="11.271" height="11.271"/>
</g>
<g stroke="#33cccc" stroke-width="2" fill="none">
<rect x="294.677" y="290.18" width="11.271" height="11.271"/>
</g>
<g stroke="#33cccc" stroke-width="2" fill="none">
<rect x="299.589" y="295.202" width="11.271" height="11.271"/>
</g>
<g stroke="#33cccc" stroke-width="2" fill="none">
<rect x="304.5" y="299.894" width="11.271" height="11.271"/>
</g>
<g stroke="#33cccc" stroke-width="2" fill="none">
<rect x="309.412" y="303.884" width="11.271" height="11.271"/>
</g>
<g stroke="#33cccc" stroke-width="2" fill="none">
<rect x="314.323" y="309.192" width="11.271" height="11.271"/>
</g>
<g stroke="#33cccc" stroke-width="2" fill="none">
<rect x="319.235" y="314.197" width="11.271" height="11.271"/>
</g>
<g stroke="#33cccc" stroke-width="2" fill="none">
<rect x="324.147" y="319.292" width="11.271" height="11.271"/>
</g>
<g stroke="#33cccc" stroke-width="2" fill="none">
<rect x="329.058" y="323.35" width="11.271" height="11.271"/>
</g>
<g stroke="#33cccc" stroke-width="2" fill="none">
<rect x="333.97" y="328.875" width="11.271" height="11.271"/>
</g>
<g stroke="#33cccc" stroke-width="2" fill="none">
<rect x="338.881" y="332.798" width="11.271" height="11.271"/>
</g>
<g stroke="#33cccc" stroke-width="2" fill="none">
<rect x="343.793" y="337.399" width="11.271" height="11.271"/>
</g>
<g stroke="#33cccc" stroke-width="2" fill="none">
<rect x="348.704" y="341.75" width="11.271" height="11.271"/>
</g>
<g stroke="#33cccc" stroke-width="2" fill="none">
<rect x="353.616" y="346.028" width="11.271" height="11.271"/>
</g>
<g stroke="#33cccc" stroke-width="2" fill="none">
<rect x="358.527" y="350.452" width="11.271" height="11.271"/>
</g>
<g stroke="#33cccc" stroke-width="2" fill="none">
<rect x="363.439" y="354.886" width="11.271" height="11.271"/>
</g>
<g stroke="#33cccc" stroke-width="2" fill="none">
<rect x="368.35" y="358.358" width="11.271" height="11.271"/>
</g>
<g stroke="#33cccc" stroke-width="2" fill="none">
<rect x="373.262" y="362.394" width="11.271" height="11.271"/>
</g>
<g stroke="#33cccc" stroke-width="2" fill="none">
<rect x="378.173" y="366.057" width="11.271" height="11.271"/>
</g>
<g stroke="#33cccc" stroke-width="2" fill="none">
<rect x="383.085" y="370.314" width="11.271" height="11.271"/>
</g>
<g stroke="#33cccc" stroke-width="2" fill="none">
<rect x="387.996" y="373.177" width="11.271" height="11.271"/>
</g>
<g stroke="#33cccc" stroke-width="2" fill="none">
<rect x="392.908" y="376.889" width="11.271" height="11.271"/>
</g>
<g stroke="#33cccc" stroke-width="2" fill="none">
<rect x="397.819" y="380.39" width="11.271" height="11.271"/>
</g>
<g stroke="#33cccc" stroke-width="2" fill="none">
<rect x="402.731" y="382.926" width="11.271" height="11.271"/>
</g>
<g stroke="#33cccc" stroke-width="2" fill="none">
<rect x="407.642" y="386.5" width="11.271" height="11.271"/>
</g>
<g stroke="#33cccc" stroke-width="2" fill="none">
<rect x="412.554" y="389.193" width="11.271" height="11.271"/>
</g>
<g stroke="#33cccc" stroke-width="2" fill="none">
<rect x="417.465" y="391.832" width="11.271" height="11.271"/>
</g>
<g stroke="#33cccc" stroke-width="2" fill="none">
<rect x="422.377" y="394.865" width="11.271" height="11.271"/>
</g>
<g stroke="#33cccc" stroke-width="2" fill="none">
<rect x="427.288" y="397.669" width="11.271" height="11.271"/>
</g>
<g stroke="#33cccc" stroke-width="2" fill="none">
<rect x="432.2" y="400.035" width="11.271" height="11.271"/>
</g>
<g stroke="#33cccc" stroke-width="2" fill="none">
<rect x="437.111" y="401.953" width="11.271" height="11.271"/>
</g>
<g stroke="#33cccc" stroke-width="2" fill="none">
<rect x="442.023" y="404.356" width="11.271" height="11.271"/>
</g>
<g stroke="#33cccc" stroke-width="2" fill="none">
<rect x="446.934" y="407.251" width="11.271" height="11.271"/>
</g>
<g stroke="#33cccc" stroke-width="2" fill="none">
<rect x="451.846" y="409.548" width="11.271" height="11.271"/>
</g>
<g stroke="#33cccc" stroke-width="2" fill="none">
<rect x="456.757" y="411.416" width="11.271" height="11.271"/>
</g>
<g stroke="#33cccc" stroke-width="2" fill="none">
<rect x="461.669" y="413.718" width="11.271" height="11.271"/>
</g>
<g stroke="#33cccc" stroke-width="2" fill="none">
<rect x="466.58" y="415.729" width="11.271" height="11.271"/>
</g>
<g stroke="#33cccc" stroke-width="2" fill="none">
<rect x="471.492" y="418.508" width="11.271" height="11.271"/>
</g>
<g stroke="#33cccc" stroke-width="2" fill="none">
<rect x="476.403" y="419.727" width="11.271" height="11.271"/>
</g>
<g stroke="#33cccc" stroke-width="2" fill="none">
<rect x="481.315" y="421.357" width="11.271" height="11.271"/>
</g>
<g stroke="#33cccc" stroke-width="2" fill="none">
<rect x="486.227" y="423.252" width="11.271" height="11.271"/>
</g>
<g stroke="#33cccc" stroke-width="2" fill="none">
<rect x="491.138" y="425.037" width="11.271" height="11.271"/>
</g>
<g stroke="#33cccc" stroke-width="2" fill="none">
<rect x="496.05" y="426.723" width="11.271" height="11.271"/>
</g>
<g stroke="#33cccc" stroke-width="2" fill="none">
<rect x="500.961" y="428.519" width="11.271" height="11.271"/>
</g>
<g stroke="#33cccc" stroke-width="2" fill="none">
<rect x="505.873" y="429.679" width="11.271" height="11.271"/>
</g>
<g stroke="#33cccc" stroke-width="2" fill="none">
<rect x="510.784" y="430.903" width="11.271" height="11.271"/>
</g>
<g stroke="#33cccc" stroke-width="2" fill="none">
<rect x="515.696" y="432.525" width="11.271" height="11.271"/>
</g>
<g stroke="#33cccc" stroke-width="2" fill="none">
<rect x="520.607" y="433.664" width="11.271" height="11.271"/>
</g>
<g stroke="#33cccc" stroke-width="2" fill="none">
<rect x="525.519" y="434.659" width="11.271" height="11.271"/>
</g>
<g stroke="#33cccc" stroke-width="2" fill="none">
<rect x="530.43" y="436.366" width="11.271" height="11.271"/>
</g>
<g stroke="#33cccc" stroke-width="2" fill="none">
<rect x="535.342" y="437.772" width="11.271" height="11.271"/>
</g>
<g stroke="#33cccc" stroke-width="2" fill="none">
<rect x="540.253" y="439.17" width="11.271" height="11.271"/>
</g>
<g stroke="#ff0066" stroke-width="2" fill="none">
<circle cx="98.9408" cy="494.115" r="5.63548"/>
</g>
<g stroke="#ff0066" stroke-width="2" fill="none">
<circle cx="103.852" cy="465.008" r="5.63548"/>
</g>
<g stroke="#ff0066" stroke-width="2" fill="none">
<circle cx="108.764" cy="441.982" r="5.63548"/>
</g>
<g stroke="#ff0066" stroke-width="2" fill="none">
<circle cx="113.675" cy="448.293" r="5.63548"/>
</g>
<g stroke="#ff0066" stroke-width="2" fill="none">
<circle cx="118.587" cy="474.524" r="5.63548"/>
</g>
<g stroke="#ff0066" stroke-width="2" fill="none">
<circle cx="123.498" cy="479.597" r="5.63548"/>
</g>
<g stroke="#ff0066" stroke-width="2" fill="none">
<circle cx="128.41" cy="427.947" r="5.63548"/>
</g>
<g stroke="#ff0066" stroke-width="2" fill="none">
<circle cx="133.321" cy="387.783" r="5.63548"/>
</g>
<g stroke="#ff0066" stroke-width="2" fill="none">
<circle cx="138.233" cy="385.167" r="5.63548"/>
</g>
<g stroke="#ff0066" stroke-width="2" fill="none">
<circle cx="143.144" cy="369.146" r="5.63548"/>
</g>
<g stroke="#ff0066" stroke-width="2" fill="none">
<circle cx="148.056" cy="351.761" r="5.63548"/>
</g>
<g stroke="#ff0066" stroke-width="2" fill="none">
<circle cx="152.967" cy="333.734" r="5.63548"/>
</g>
<g stroke="#ff0066" stroke-width="2" fill="none">
<circle cx="157.879" cy="316.55" r="5.63548"/>
</g>
<g stroke="#ff0066" stroke-width="2" fill="none">
<circle cx="162.79" cy="301.863" r="5.63548"/>
</g>
<g stroke="#ff0066" stroke-width="2" fill="none">
<circle cx="167.702" cy="288.753" r="5.63548"/>
</g>
<g stroke="#ff0066" stroke-width="2" fill="none">
<circle cx="172.614" cy="276.621" r="5.63548"/>
</g>
<g stroke="#ff0066" stroke-width="2" fill="none">
<circle cx="177.525" cy="267.832" r="5.63548"/>
</g>
<g stroke="#ff0066" stroke-width="2" fill="none">
<circle cx="182.437" cy="259.862" r="5.63548"/>
</g>
<g stroke="#ff0066" stroke-width="2" fill="none">
<circle cx="187.348" cy="253.417" r="5.63548"/>
</g>
<g stroke="#ff0066" stroke-width="2" fill="none">
<circle cx="192.26" cy="247.794" r="5.63548"/>
</g>
<g stroke="#ff0066" stroke-width="2" fill="none">
<circle cx="197.171" cy="246.636" r="5.63548"/>
</g>
<g stroke="#ff0066" stroke-width="2" fill="none">
<circle cx="202.083" cy="245.802" r="5.63548"/>
</g>
<g stroke="#ff0066" stroke-width="2" fill="none">
<circle cx="206.994" cy="245.329" r="5.63548"/>
</g>
<g stroke="#ff0066" stroke-width="2" fill="none">
<circle cx="211.906" cy="245.139" r="5.63548"/>
</g>
<g stroke="#ff0066" stroke-width="2" fill="none">
<circle cx="216.817" cy="243.638" r="5.63548"/>
</g>
<g stroke="#ff0066" stroke-width="2" fill="none">
<circle cx="221.729" cy="243.648" r="5.63548"/>
</g>
<g stroke="#ff0066" stroke-width="2" fill="none">
<circle cx="226.64" cy="244.014" r="5.63548"/>
</g>
<g stroke="#ff0066" stroke-width="2" fill="none">
<circle cx="231.552" cy="246.38" r="5.63548"/>
</g>
<g stroke="#ff0066" stroke-width="2" fill="none">
<circle cx="236.463" cy="247.183" r="5.63548"/>
</g>
<g stroke="#ff0066" stroke-width="2" fill="none">
<circle cx="241.375" cy="248.732" r="5.63548"/>
</g>
<g stroke="#ff0066" stroke-width="2" fill="none">
<circle cx="246.286" cy="250.781" r="5.63548"/>
</g>
<g stroke="#ff0066" stroke-width="2" fill="none">
<circle cx="251.198" cy="254.011" r="5.63548"/>
</g>
<g stroke="#ff0066" stroke-width="2" fill="none">
<circle cx="256.109" cy="256.536" r="5.63548"/>
</g>
<g stroke="#ff0066" stroke-width="2" fill="none">
<circle cx="261.021" cy="260.653" r="5.63548"/>
</g>
<g stroke="#ff0066" stroke-width="2" fill="none">
<circle cx="265.932" cy="263.148" r="5.63548"/>
</g>
<g stroke="#ff0066" stroke-width="2" fill="none">
<circle cx="270.844" cy="268.892" r="5.63548"/>
</g>
<g stroke="#ff0066" stroke-width="2" fill="none">
<circle cx="275.755" cy="272.298" r="5.63548"/>
</g>
<g stroke="#ff0066" stroke-width="2" fill="none">
<circle cx="280.667" cy="275.827" r="5.63548"/>
</g>
<g stroke="#ff0066" stroke-width="2" fill="none">
<circle cx="285.578" cy="280.576" r="5.63548"/>
</g>
<g stroke="#ff0066" stroke-width="2" fill="none">
<circle cx="290.49" cy="286.633" r="5.63548"/>
</g>
<g stroke="#ff0066" stroke-width="2" fill="none">
<circle cx="295.401" cy="289.949" r="5.63548"/>
</g>
<g stroke="#ff0066" stroke-width="2" fill="none">
<circle cx="300.313" cy="294.755" r="5.63548"/>
</g>
<g stroke="#ff0066" stroke-width="2" fill="none">
<circle cx="305.224" cy="299.759" r="5.63548"/>
</g>
<g stroke="#ff0066" stroke-width="2" fill="none">
<circle cx="310.136" cy="304.441" r="5.63548"/>
</g>
<g stroke="#ff0066" stroke-width="2" fill="none">
<circle cx="315.047" cy="308.426" r="5.63548"/>
</g>
<g stroke="#ff0066" stroke-width="2" fill="none">
<circle cx="319.959" cy="313.745" r="5.63548"/>
</g>
<g stroke="#ff0066" stroke-width="2" fill="none">
<circle cx="324.87" cy="318.767" r="5.63548"/>
</g>
<g stroke="#ff0066" stroke-width="2" fill="none">
<circle cx="329.782" cy="323.887" r="5.63548"/>
</g>
<g stroke="#ff0066" stroke-width="2" fill="none">
<circle cx="334.694" cy="327.969" r="5.63548"/>
</g>
<g stroke="#ff0066" stroke-width="2" fill="none">
<circle cx="339.605" cy="333.534" r="5.63548"/>
</g>
<g stroke="#ff0066" stroke-width="2" fill="none">
<circle cx="344.517" cy="337.494" r="5.63548"/>
</g>
<g stroke="#ff0066" stroke-width="2" fill="none">
<circle cx="349.428" cy="342.141" r="5.63548"/>
</g>
<g stroke="#ff0066" stroke-width="2" fill="none">
<circle cx="354.34" cy="346.54" r="5.63548"/>
</g>
<g stroke="#ff0066" stroke-width="2" fill="none">
<circle cx="359.251" cy="350.87" r="5.63548"/>
</g>
<g stroke="#ff0066" stroke-width="2" fill="none">
<circle cx="364.163" cy="355.351" r="5.63548"/>
</g>
<g stroke="#ff0066" stroke-width="2" fill="none">
<circle cx="369.074" cy="359.847" r="5.63548"/>
</g>
<g stroke="#ff0066" stroke-width="2" fill="none">
<circle cx="373.986" cy="363.377" r="5.63548"/>
</g>
<g stroke="#ff0066" stroke-width="2" fill="none">
<circle cx="378.897" cy="367.477" r="5.63548"/>
</g>
<g stroke="#ff0066" stroke-width="2" fill="none">
<circle cx="383.809" cy="371.205" r="5.63548"/>
</g>
<g stroke="#ff0066" stroke-width="2" fill="none">
<circle cx="388.72" cy="375.53" r="5.63548"/>
</g>
<g stroke="#ff0066" stroke-width="2" fill="none">
<circle cx="393.632" cy="378.459" r="5.63548"/>
</g>
<g stroke="#ff0066" stroke-width="2" fill="none">
<circle cx="398.543" cy="382.24" r="5.63548"/>
</g>
<g stroke="#ff0066" stroke-width="2" fill="none">
<circle cx="403.455" cy="385.81" r="5.63548"/>
</g>
<g stroke="#ff0066" stroke-width="2" fill="none">
<circle cx="408.366" cy="388.415" r="5.63548"/>
</g>
<g stroke="#ff0066" stroke-width="2" fill="none">
<circle cx="413.278" cy="392.061" r="5.63548"/>
</g>
<g stroke="#ff0066" stroke-width="2" fill="none">
<circle cx="418.189" cy="394.823" r="5.63548"/>
</g>
<g stroke="#ff0066" stroke-width="2" fill="none">
<circle cx="423.101" cy="397.533" r="5.63548"/>
</g>
<g stroke="#ff0066" stroke-width="2" fill="none">
<circle cx="428.012" cy="400.637" r="5.63548"/>
</g>
<g stroke="#ff0066" stroke-width="2" fill="none">
<circle cx="432.924" cy="403.511" r="5.63548"/>
</g>
<g stroke="#ff0066" stroke-width="2" fill="none">
<circle cx="437.835" cy="405.947" r="5.63548"/>
</g>
<g stroke="#ff0066" stroke-width="2" fill="none">
<circle cx="442.747" cy="407.937" r="5.63548"/>
</g>
<g stroke="#ff0066" stroke-width="2" fill="none">
<circle cx="447.658" cy="410.411" r="5.63548"/>
</g>
<g stroke="#ff0066" stroke-width="2" fill="none">
<circle cx="452.57" cy="413.372" r="5.63548"/>
</g>
<g stroke="#ff0066" stroke-width="2" fill="none">
<circle cx="457.481" cy="415.737" r="5.63548"/>
</g>
<g stroke="#ff0066" stroke-width="2" fill="none">
<circle cx="462.393" cy="417.676" r="5.63548"/>
</g>
<g stroke="#ff0066" stroke-width="2" fill="none">
<circle cx="467.304" cy="420.044" r="5.63548"/>
</g>
<g stroke="#ff0066" stroke-width="2" fill="none">
<circle cx="472.216" cy="422.121" r="5.63548"/>
</g>
<g stroke="#ff0066" stroke-width="2" fill="none">
<circle cx="477.127" cy="424.957" r="5.63548"/>
</g>
<g stroke="#ff0066" stroke-width="2" fill="none">
<circle cx="482.039" cy="426.249" r="5.63548"/>
</g>
<g stroke="#ff0066" stroke-width="2" fill="none">
<circle cx="486.95" cy="427.946" r="5.63548"/>
</g>
<g stroke="#ff0066" stroke-width="2" fill="none">
<circle cx="491.862" cy="429.903" r="5.63548"/>
</g>
<g stroke="#ff0066" stroke-width="2" fill="none">
<circle cx="496.773" cy="431.749" r="5.63548"/>
</g>
<g stroke="#ff0066" stroke-width="2" fill="none">
<circle cx="501.685" cy="433.497" r="5.63548"/>
</g>
<g stroke="#ff0066" stroke-width="2" fill="none">
<circle cx="506.597" cy="435.35" r="5.63548"/>
</g>
<g stroke="#ff0066" stroke-width="2" fill="none">
<circle cx="511.508" cy="436.578" r="5.63548"/>
</g>
<g stroke="#ff0066" stroke-width="2" fill="none">
<circle cx="516.42" cy="437.868" r="5.63548"/>
</g>
<g stroke="#ff0066" stroke-width="2" fill="none">
<circle cx="521.331" cy="439.545" r="5.63548"/>
</g>
<g stroke="#ff0066" stroke-width="2" fill="none">
<circle cx="526.243" cy="440.749" r="5.63548"/>
</g>
<g stroke="#ff0066" stroke-width="2" fill="none">
<circle cx="531.154" cy="441.811" r="5.63548"/>
</g>
<g stroke="#ff0066" stroke-width="2" fill="none">
<circle cx="536.066" cy="443.565" r="5.63548"/>
</g>
<g stroke="#ff0066" stroke-width="2" fill="none">
<circle cx="540.977" cy="445.024" r="5.63548"/>
</g>
<g stroke="#ff0066" stroke-width="2" fill="none">
<circle cx="545.889" cy="446.472" r="5.63548"/>
</g>
<text xml:space="preserve" x="360.607" y="50.7193" fill="black" font-size="16.0105" font-family="Helvetica"> with EMC</text>
<text xml:space="preserve" x="352.717" y="50.7193" fill="black" font-size="16.0105" font-family="Times">&#0947;</text>
<text xml:space="preserve" x="344.828" y="50.7193" fill="black" font-size="16.0105" font-family="Times">&#0947;</text>
<text xml:space="preserve" x="336.938" y="50.7193" fill="black" font-size="16.0105" font-family="Times">&#0947;</text>
<text xml:space="preserve" x="331.866" y="50.7193" fill="black" font-size="16.0105" font-family="Helvetica"> </text>
<text xml:space="preserve" x="316.65" y="50.7193" fill="black" font-size="16.0105" font-family="Times">&#8594;</text>
<text xml:space="preserve" x="311.578" y="50.7193" fill="black" font-size="16.0105" font-family="Helvetica"> </text>
<text xml:space="preserve" x="303.689" y="50.7193" fill="black" font-size="16.0105" font-family="Times">&#0947;</text>
<text xml:space="preserve" x="298.053" y="45.0838" fill="black" font-size="10.8403" font-family="Helvetica">0</text>
<text xml:space="preserve" x="289.6" y="50.7193" fill="black" font-size="16.0105" font-family="Times">&#0960;</text>
<text xml:space="preserve" x="284.528" y="50.7193" fill="black" font-size="16.0105" font-family="Helvetica"> </text>
<text xml:space="preserve" x="269.312" y="50.7193" fill="black" font-size="16.0105" font-family="Times">&#8594;</text>
<text xml:space="preserve" x="264.24" y="50.7193" fill="black" font-size="16.0105" font-family="Helvetica"> </text>
<text xml:space="preserve" x="252.969" y="50.7193" fill="black" font-size="16.0105" font-family="Times">&#0969;</text>
<text xml:space="preserve" x="128.989" y="50.7193" fill="black" font-size="16.0105" font-family="Helvetica"> = 13 TeV (EG1), </text>
<text xml:space="preserve" x="120.536" y="50.7193" fill="black" font-size="16.0105" font-family="Helvetica" font-style="oblique">s</text>
<path d="M114.9,41.7025l 1.69064, 9.58031" fill="none" stroke="black" stroke-width="2"/>
<path d="M116.591,51.2829l 2.25419, -14.0887" fill="none" stroke="black"/>
<path d="M118.845,37.1942h 10.1439" fill="none" stroke="black"/>
<text xml:space="preserve" x="89.5406" y="50.7193" fill="black" font-size="16.0105" font-family="Helvetica">pp </text>
<text xml:space="preserve" x="89.5406" y="85.6593" fill="black" font-size="16.0105" font-family="Helvetica">ALICE work in progress</text>
<text xml:space="preserve" x="214.085" y="120.599" fill="black" font-size="16.0105" font-family="Helvetica">) &lt; 18.0</text>
<text xml:space="preserve" x="205.068" y="120.599" fill="black" font-size="16.0105" font-family="Helvetica" font-style="oblique">c</text>
<text xml:space="preserve" x="154.912" y="120.599" fill="black" font-size="16.0105" font-family="Helvetica"> /(GeV/</text>
<text xml:space="preserve" x="148.15" y="128.489" fill="black" font-size="10.8403" font-family="Helvetica">T</text>
<text xml:space="preserve" x="138.569" y="120.599" fill="black" font-size="16.0105" font-family="Helvetica" font-style="oblique">p</text>
<text xml:space="preserve" x="133.497" y="120.599" fill="black" font-size="16.0105" font-family="Helvetica"> </text>
<text xml:space="preserve" x="125.044" y="120.599" fill="black" font-size="16.0105" font-family="Times">&#8804;</text>
<text xml:space="preserve" x="89.5406" y="120.599" fill="black" font-size="16.0105" font-family="Helvetica">16.0 </text>
<rect x="312.311" y="69.1755" width="198.425" height="113.448" fill="white"/>
<text xml:space="preserve" x="361.734" y="93.5489" fill="black" font-size="16.0105" font-family="Helvetica">same event</text>
<path d="M319.752,88.0835h 34.7244" fill="none" stroke="black" stroke-width="2"/>
<g fill="black">
<circle cx="337.114" cy="88.0835" r="6.76257"/>
</g>
<text xml:space="preserve" x="361.734" y="130.18" fill="black" font-size="16.0105" font-family="Helvetica">background pol1</text>
<path d="M319.752,125.899h 34.7244" fill="none" stroke="#33cccc" stroke-width="2"/>
<g stroke="#33cccc" stroke-width="2" fill="none">
<rect x="331.479" y="120.264" width="11.271" height="11.271"/>
</g>
<text xml:space="preserve" x="361.734" y="167.937" fill="black" font-size="16.0105" font-family="Helvetica">background pol2</text>
<path d="M319.752,163.715h 34.7244" fill="none" stroke="#ff0066" stroke-width="2"/>
<g stroke="#ff0066" stroke-width="2" fill="none">
<circle cx="337.114" cy="163.715" r="5.63548"/>
</g></svg>
