<?xml version="1.0" standalone="no"?>
<svg width="567.429" height="553.904" viewBox="0 0 567.429 553.904" xmlns="http://www.w3.org/2000/svg" shape-rendering="crispEdges">
<title>
Data/EG1/Pi0RotPS/SignalAndBackgroundFit_01.svg
</title>
<desc>
Creator: ROOT Version 6.20/08
CreationDate: Mon Mar 29 21:31:13 2021</desc>
<defs>
</defs>
<rect x="0.5" y="0" width="566.929" height="553.404" fill="white"/>
<rect x="57.1929" y="16.6021" width="496.063" height="481.461" fill="white"/>
<rect x="57.1929" y="16.6021" width="496.063" height="481.461" fill="none" stroke="black"/>
<rect x="57.1929" y="16.6021" width="496.063" height="481.461" fill="white"/>
<rect x="57.1929" y="16.6021" width="496.063" height="481.461" fill="none" stroke="black"/>
<g fill="black">
<circle cx="103.852" cy="443.906" r="6.76257"/>
</g>
<g fill="black">
<circle cx="108.764" cy="230.585" r="6.76257"/>
</g>
<g fill="black">
<circle cx="113.675" cy="325.391" r="6.76257"/>
</g>
<g fill="black">
<circle cx="118.587" cy="441.72" r="6.76257"/>
</g>
<g fill="black">
<circle cx="123.498" cy="341.102" r="6.76257"/>
</g>
<g fill="black">
<circle cx="128.41" cy="270.303" r="6.76257"/>
</g>
<g fill="black">
<circle cx="133.321" cy="313.412" r="6.76257"/>
</g>
<g fill="black">
<circle cx="138.233" cy="343.168" r="6.76257"/>
</g>
<g fill="black">
<circle cx="143.144" cy="351.315" r="6.76257"/>
</g>
<g fill="black">
<circle cx="148.056" cy="353.436" r="6.76257"/>
</g>
<g fill="black">
<circle cx="152.967" cy="352.4" r="6.76257"/>
</g>
<g fill="black">
<circle cx="157.879" cy="349.775" r="6.76257"/>
</g>
<g fill="black">
<circle cx="162.79" cy="346.43" r="6.76257"/>
</g>
<g fill="black">
<circle cx="167.702" cy="344.441" r="6.76257"/>
</g>
<g fill="black">
<circle cx="172.614" cy="342.827" r="6.76257"/>
</g>
<g fill="black">
<circle cx="177.525" cy="344.862" r="6.76257"/>
</g>
<g fill="black">
<circle cx="182.437" cy="347.575" r="6.76257"/>
</g>
<g fill="black">
<circle cx="187.348" cy="352.98" r="6.76257"/>
</g>
<g fill="black">
<circle cx="192.26" cy="358.232" r="6.76257"/>
</g>
<g fill="black">
<circle cx="197.171" cy="364.567" r="6.76257"/>
</g>
<g fill="black">
<circle cx="202.083" cy="370.458" r="6.76257"/>
</g>
<g fill="black">
<circle cx="206.994" cy="376.182" r="6.76257"/>
</g>
<g fill="black">
<circle cx="211.906" cy="381.984" r="6.76257"/>
</g>
<g fill="black">
<circle cx="216.817" cy="387.956" r="6.76257"/>
</g>
<g fill="black">
<circle cx="221.729" cy="392.698" r="6.76257"/>
</g>
<g fill="black">
<circle cx="226.64" cy="398.096" r="6.76257"/>
</g>
<g fill="black">
<circle cx="231.552" cy="402.321" r="6.76257"/>
</g>
<g fill="black">
<circle cx="236.463" cy="406.329" r="6.76257"/>
</g>
<g fill="black">
<circle cx="241.375" cy="410.401" r="6.76257"/>
</g>
<g fill="black">
<circle cx="246.286" cy="414.44" r="6.76257"/>
</g>
<g fill="black">
<circle cx="251.198" cy="417.993" r="6.76257"/>
</g>
<g fill="black">
<circle cx="256.109" cy="421.313" r="6.76257"/>
</g>
<g fill="black">
<circle cx="261.021" cy="424.135" r="6.76257"/>
</g>
<g fill="black">
<circle cx="265.932" cy="427.374" r="6.76257"/>
</g>
<g fill="black">
<circle cx="270.844" cy="430.044" r="6.76257"/>
</g>
<g fill="black">
<circle cx="275.755" cy="432.473" r="6.76257"/>
</g>
<g fill="black">
<circle cx="280.667" cy="435.626" r="6.76257"/>
</g>
<g fill="black">
<circle cx="285.578" cy="437.452" r="6.76257"/>
</g>
<g fill="black">
<circle cx="290.49" cy="439.209" r="6.76257"/>
</g>
<g fill="black">
<circle cx="295.401" cy="441.11" r="6.76257"/>
</g>
<g fill="black">
<circle cx="300.313" cy="443.083" r="6.76257"/>
</g>
<g fill="black">
<circle cx="305.224" cy="444.857" r="6.76257"/>
</g>
<g fill="black">
<circle cx="310.136" cy="446.166" r="6.76257"/>
</g>
<g fill="black">
<circle cx="315.047" cy="447.659" r="6.76257"/>
</g>
<g fill="black">
<circle cx="319.959" cy="448.684" r="6.76257"/>
</g>
<g fill="black">
<circle cx="324.87" cy="449.616" r="6.76257"/>
</g>
<g fill="black">
<circle cx="329.782" cy="451.517" r="6.76257"/>
</g>
<g fill="black">
<circle cx="334.694" cy="452.258" r="6.76257"/>
</g>
<g fill="black">
<circle cx="339.605" cy="452.698" r="6.76257"/>
</g>
<g fill="black">
<circle cx="344.517" cy="453.724" r="6.76257"/>
</g>
<g fill="black">
<circle cx="349.428" cy="454.8" r="6.76257"/>
</g>
<g fill="black">
<circle cx="354.34" cy="455.594" r="6.76257"/>
</g>
<g fill="black">
<circle cx="359.251" cy="455.811" r="6.76257"/>
</g>
<g fill="black">
<circle cx="364.163" cy="456.584" r="6.76257"/>
</g>
<g fill="black">
<circle cx="369.074" cy="456.985" r="6.76257"/>
</g>
<g fill="black">
<circle cx="373.986" cy="457.885" r="6.76257"/>
</g>
<g fill="black">
<circle cx="378.897" cy="458.629" r="6.76257"/>
</g>
<g fill="black">
<circle cx="383.809" cy="459.016" r="6.76257"/>
</g>
<g fill="black">
<circle cx="388.72" cy="459.357" r="6.76257"/>
</g>
<g fill="black">
<circle cx="393.632" cy="459.916" r="6.76257"/>
</g>
<g fill="black">
<circle cx="398.543" cy="460.006" r="6.76257"/>
</g>
<g fill="black">
<circle cx="403.455" cy="460.589" r="6.76257"/>
</g>
<g fill="black">
<circle cx="408.366" cy="461.201" r="6.76257"/>
</g>
<g fill="black">
<circle cx="413.278" cy="461.565" r="6.76257"/>
</g>
<g fill="black">
<circle cx="418.189" cy="461.913" r="6.76257"/>
</g>
<g fill="black">
<circle cx="423.101" cy="462.136" r="6.76257"/>
</g>
<g fill="black">
<circle cx="428.012" cy="462.327" r="6.76257"/>
</g>
<g fill="black">
<circle cx="432.924" cy="462.923" r="6.76257"/>
</g>
<g fill="black">
<circle cx="437.835" cy="463.26" r="6.76257"/>
</g>
<g fill="black">
<circle cx="442.747" cy="463.533" r="6.76257"/>
</g>
<g fill="black">
<circle cx="447.658" cy="463.804" r="6.76257"/>
</g>
<g fill="black">
<circle cx="452.57" cy="464.223" r="6.76257"/>
</g>
<g fill="black">
<circle cx="457.481" cy="464.734" r="6.76257"/>
</g>
<g fill="black">
<circle cx="462.393" cy="464.855" r="6.76257"/>
</g>
<g fill="black">
<circle cx="467.304" cy="465.418" r="6.76257"/>
</g>
<g fill="black">
<circle cx="472.216" cy="465.595" r="6.76257"/>
</g>
<g fill="black">
<circle cx="477.127" cy="466.078" r="6.76257"/>
</g>
<g fill="black">
<circle cx="482.039" cy="466.211" r="6.76257"/>
</g>
<g fill="black">
<circle cx="486.95" cy="466.749" r="6.76257"/>
</g>
<g fill="black">
<circle cx="491.862" cy="466.956" r="6.76257"/>
</g>
<g fill="black">
<circle cx="496.773" cy="467.485" r="6.76257"/>
</g>
<g fill="black">
<circle cx="501.685" cy="467.847" r="6.76257"/>
</g>
<g fill="black">
<circle cx="506.597" cy="468.089" r="6.76257"/>
</g>
<g fill="black">
<circle cx="511.508" cy="468.564" r="6.76257"/>
</g>
<g fill="black">
<circle cx="516.42" cy="469.064" r="6.76257"/>
</g>
<g fill="black">
<circle cx="521.331" cy="469.561" r="6.76257"/>
</g>
<g fill="black">
<circle cx="526.243" cy="469.66" r="6.76257"/>
</g>
<g fill="black">
<circle cx="531.154" cy="470.115" r="6.76257"/>
</g>
<g fill="black">
<circle cx="536.066" cy="470.992" r="6.76257"/>
</g>
<g fill="black">
<circle cx="540.977" cy="471.288" r="6.76257"/>
</g>
<g fill="black">
<circle cx="545.889" cy="471.399" r="6.76257"/>
</g>
<path d="M57.1929,498.064h 496.063" fill="none" stroke="black"/>
<path d="M57.1929,483.537v 14.5269" fill="none" stroke="black"/>
<path d="M72.5414,490.8v 7.26343" fill="none" stroke="black"/>
<path d="M87.8899,490.8v 7.26343" fill="none" stroke="black"/>
<path d="M103.238,490.8v 7.26343" fill="none" stroke="black"/>
<path d="M118.587,483.537v 14.5269" fill="none" stroke="black"/>
<path d="M133.935,490.8v 7.26343" fill="none" stroke="black"/>
<path d="M149.284,490.8v 7.26343" fill="none" stroke="black"/>
<path d="M164.632,490.8v 7.26343" fill="none" stroke="black"/>
<path d="M179.981,483.537v 14.5269" fill="none" stroke="black"/>
<path d="M195.329,490.8v 7.26343" fill="none" stroke="black"/>
<path d="M210.678,490.8v 7.26343" fill="none" stroke="black"/>
<path d="M226.026,490.8v 7.26343" fill="none" stroke="black"/>
<path d="M241.375,483.537v 14.5269" fill="none" stroke="black"/>
<path d="M256.723,490.8v 7.26343" fill="none" stroke="black"/>
<path d="M272.072,490.8v 7.26343" fill="none" stroke="black"/>
<path d="M287.42,490.8v 7.26343" fill="none" stroke="black"/>
<path d="M302.769,483.537v 14.5269" fill="none" stroke="black"/>
<path d="M318.117,490.8v 7.26343" fill="none" stroke="black"/>
<path d="M333.466,490.8v 7.26343" fill="none" stroke="black"/>
<path d="M348.814,490.8v 7.26343" fill="none" stroke="black"/>
<path d="M364.163,483.537v 14.5269" fill="none" stroke="black"/>
<path d="M379.511,490.8v 7.26343" fill="none" stroke="black"/>
<path d="M394.86,490.8v 7.26343" fill="none" stroke="black"/>
<path d="M410.208,490.8v 7.26343" fill="none" stroke="black"/>
<path d="M425.557,483.537v 14.5269" fill="none" stroke="black"/>
<path d="M440.905,490.8v 7.26343" fill="none" stroke="black"/>
<path d="M456.253,490.8v 7.26343" fill="none" stroke="black"/>
<path d="M471.602,490.8v 7.26343" fill="none" stroke="black"/>
<path d="M486.95,483.537v 14.5269" fill="none" stroke="black"/>
<path d="M502.299,490.8v 7.26343" fill="none" stroke="black"/>
<path d="M517.647,490.8v 7.26343" fill="none" stroke="black"/>
<path d="M532.996,490.8v 7.26343" fill="none" stroke="black"/>
<path d="M548.344,483.537v 14.5269" fill="none" stroke="black"/>
<path d="M548.344,483.537v 14.5269" fill="none" stroke="black"/>
<text xml:space="preserve" x="52.3464" y="513.956" fill="black" font-size="16.0105" font-family="Helvetica">0</text>
<text xml:space="preserve" x="107.574" y="513.956" fill="black" font-size="16.0105" font-family="Helvetica">0.2</text>
<text xml:space="preserve" x="169.001" y="513.956" fill="black" font-size="16.0105" font-family="Helvetica">0.4</text>
<text xml:space="preserve" x="230.428" y="513.956" fill="black" font-size="16.0105" font-family="Helvetica">0.6</text>
<text xml:space="preserve" x="291.854" y="513.956" fill="black" font-size="16.0105" font-family="Helvetica">0.8</text>
<text xml:space="preserve" x="361.171" y="513.956" fill="black" font-size="16.0105" font-family="Helvetica">1</text>
<text xml:space="preserve" x="414.708" y="513.956" fill="black" font-size="16.0105" font-family="Helvetica">1.2</text>
<text xml:space="preserve" x="476.134" y="513.956" fill="black" font-size="16.0105" font-family="Helvetica">1.4</text>
<text xml:space="preserve" x="537.561" y="513.956" fill="black" font-size="16.0105" font-family="Helvetica">1.6</text>
<text xml:space="preserve" x="548.268" y="537.625" fill="black" font-size="16.0105" font-family="Helvetica">)</text>
<text xml:space="preserve" x="542.633" y="532.553" fill="black" font-size="10.8403" font-family="Helvetica">2</text>
<text xml:space="preserve" x="533.616" y="537.625" fill="black" font-size="16.0105" font-family="Helvetica" font-style="oblique">c</text>
<text xml:space="preserve" x="487.405" y="537.625" fill="black" font-size="16.0105" font-family="Helvetica"> (GeV/</text>
<text xml:space="preserve" x="473.317" y="542.697" fill="black" font-size="10.8403" font-family="Helvetica">inv</text>
<text xml:space="preserve" x="459.792" y="537.625" fill="black" font-size="16.0105" font-family="Helvetica" font-style="oblique">m</text>
<path d="M57.1929,16.6021h 496.063" fill="none" stroke="black"/>
<path d="M57.1929,31.129v -14.5269" fill="none" stroke="black"/>
<path d="M72.5414,23.8655v -7.26343" fill="none" stroke="black"/>
<path d="M87.8899,23.8655v -7.26343" fill="none" stroke="black"/>
<path d="M103.238,23.8655v -7.26343" fill="none" stroke="black"/>
<path d="M118.587,31.129v -14.5269" fill="none" stroke="black"/>
<path d="M133.935,23.8655v -7.26343" fill="none" stroke="black"/>
<path d="M149.284,23.8655v -7.26343" fill="none" stroke="black"/>
<path d="M164.632,23.8655v -7.26343" fill="none" stroke="black"/>
<path d="M179.981,31.129v -14.5269" fill="none" stroke="black"/>
<path d="M195.329,23.8655v -7.26343" fill="none" stroke="black"/>
<path d="M210.678,23.8655v -7.26343" fill="none" stroke="black"/>
<path d="M226.026,23.8655v -7.26343" fill="none" stroke="black"/>
<path d="M241.375,31.129v -14.5269" fill="none" stroke="black"/>
<path d="M256.723,23.8655v -7.26343" fill="none" stroke="black"/>
<path d="M272.072,23.8655v -7.26343" fill="none" stroke="black"/>
<path d="M287.42,23.8655v -7.26343" fill="none" stroke="black"/>
<path d="M302.769,31.129v -14.5269" fill="none" stroke="black"/>
<path d="M318.117,23.8655v -7.26343" fill="none" stroke="black"/>
<path d="M333.466,23.8655v -7.26343" fill="none" stroke="black"/>
<path d="M348.814,23.8655v -7.26343" fill="none" stroke="black"/>
<path d="M364.163,31.129v -14.5269" fill="none" stroke="black"/>
<path d="M379.511,23.8655v -7.26343" fill="none" stroke="black"/>
<path d="M394.86,23.8655v -7.26343" fill="none" stroke="black"/>
<path d="M410.208,23.8655v -7.26343" fill="none" stroke="black"/>
<path d="M425.557,31.129v -14.5269" fill="none" stroke="black"/>
<path d="M440.905,23.8655v -7.26343" fill="none" stroke="black"/>
<path d="M456.253,23.8655v -7.26343" fill="none" stroke="black"/>
<path d="M471.602,23.8655v -7.26343" fill="none" stroke="black"/>
<path d="M486.95,31.129v -14.5269" fill="none" stroke="black"/>
<path d="M502.299,23.8655v -7.26343" fill="none" stroke="black"/>
<path d="M517.647,23.8655v -7.26343" fill="none" stroke="black"/>
<path d="M532.996,23.8655v -7.26343" fill="none" stroke="black"/>
<path d="M548.344,31.129v -14.5269" fill="none" stroke="black"/>
<path d="M548.344,31.129v -14.5269" fill="none" stroke="black"/>
<path d="M57.1929,498.064v -481.461" fill="none" stroke="black"/>
<path d="M71.9898,498.064h -14.7969" fill="none" stroke="black"/>
<path d="M64.5913,488.044h -7.39843" fill="none" stroke="black"/>
<path d="M64.5913,478.025h -7.39843" fill="none" stroke="black"/>
<path d="M64.5913,468.006h -7.39843" fill="none" stroke="black"/>
<path d="M64.5913,457.986h -7.39843" fill="none" stroke="black"/>
<path d="M71.9898,447.967h -14.7969" fill="none" stroke="black"/>
<path d="M64.5913,437.948h -7.39843" fill="none" stroke="black"/>
<path d="M64.5913,427.929h -7.39843" fill="none" stroke="black"/>
<path d="M64.5913,417.909h -7.39843" fill="none" stroke="black"/>
<path d="M64.5913,407.89h -7.39843" fill="none" stroke="black"/>
<path d="M71.9898,397.871h -14.7969" fill="none" stroke="black"/>
<path d="M64.5913,387.852h -7.39843" fill="none" stroke="black"/>
<path d="M64.5913,377.832h -7.39843" fill="none" stroke="black"/>
<path d="M64.5913,367.813h -7.39843" fill="none" stroke="black"/>
<path d="M64.5913,357.794h -7.39843" fill="none" stroke="black"/>
<path d="M71.9898,347.774h -14.7969" fill="none" stroke="black"/>
<path d="M64.5913,337.755h -7.39843" fill="none" stroke="black"/>
<path d="M64.5913,327.736h -7.39843" fill="none" stroke="black"/>
<path d="M64.5913,317.717h -7.39843" fill="none" stroke="black"/>
<path d="M64.5913,307.697h -7.39843" fill="none" stroke="black"/>
<path d="M71.9898,297.678h -14.7969" fill="none" stroke="black"/>
<path d="M64.5913,287.659h -7.39843" fill="none" stroke="black"/>
<path d="M64.5913,277.64h -7.39843" fill="none" stroke="black"/>
<path d="M64.5913,267.62h -7.39843" fill="none" stroke="black"/>
<path d="M64.5913,257.601h -7.39843" fill="none" stroke="black"/>
<path d="M71.9898,247.582h -14.7969" fill="none" stroke="black"/>
<path d="M64.5913,237.562h -7.39843" fill="none" stroke="black"/>
<path d="M64.5913,227.543h -7.39843" fill="none" stroke="black"/>
<path d="M64.5913,217.524h -7.39843" fill="none" stroke="black"/>
<path d="M64.5913,207.505h -7.39843" fill="none" stroke="black"/>
<path d="M71.9898,197.485h -14.7969" fill="none" stroke="black"/>
<path d="M64.5913,187.466h -7.39843" fill="none" stroke="black"/>
<path d="M64.5913,177.447h -7.39843" fill="none" stroke="black"/>
<path d="M64.5913,167.427h -7.39843" fill="none" stroke="black"/>
<path d="M64.5913,157.408h -7.39843" fill="none" stroke="black"/>
<path d="M71.9898,147.389h -14.7969" fill="none" stroke="black"/>
<path d="M64.5913,137.37h -7.39843" fill="none" stroke="black"/>
<path d="M64.5913,127.35h -7.39843" fill="none" stroke="black"/>
<path d="M64.5913,117.331h -7.39843" fill="none" stroke="black"/>
<path d="M64.5913,107.312h -7.39843" fill="none" stroke="black"/>
<path d="M71.9898,97.2925h -14.7969" fill="none" stroke="black"/>
<path d="M64.5913,87.2733h -7.39843" fill="none" stroke="black"/>
<path d="M64.5913,77.254h -7.39843" fill="none" stroke="black"/>
<path d="M64.5913,67.2347h -7.39843" fill="none" stroke="black"/>
<path d="M64.5913,57.2154h -7.39843" fill="none" stroke="black"/>
<path d="M71.9898,47.1962h -14.7969" fill="none" stroke="black"/>
<path d="M71.9898,47.1962h -14.7969" fill="none" stroke="black"/>
<path d="M64.5913,37.1769h -7.39843" fill="none" stroke="black"/>
<path d="M64.5913,27.1576h -7.39843" fill="none" stroke="black"/>
<path d="M64.5913,17.1383h -7.39843" fill="none" stroke="black"/>
<text xml:space="preserve" x="45.5838" y="503.248" fill="black" font-size="16.0105" font-family="Helvetica">0</text>
<text xml:space="preserve" x="23.6055" y="453.092" fill="black" font-size="16.0105" font-family="Helvetica">0.05</text>
<text xml:space="preserve" x="34.8764" y="403.5" fill="black" font-size="16.0105" font-family="Helvetica">0.1</text>
<text xml:space="preserve" x="23.6055" y="353.345" fill="black" font-size="16.0105" font-family="Helvetica">0.15</text>
<text xml:space="preserve" x="32.6222" y="303.189" fill="black" font-size="16.0105" font-family="Helvetica">0.2</text>
<text xml:space="preserve" x="23.6055" y="253.033" fill="black" font-size="16.0105" font-family="Helvetica">0.25</text>
<text xml:space="preserve" x="32.6222" y="202.877" fill="black" font-size="16.0105" font-family="Helvetica">0.3</text>
<text xml:space="preserve" x="23.6055" y="152.721" fill="black" font-size="16.0105" font-family="Helvetica">0.35</text>
<text xml:space="preserve" x="32.6222" y="102.566" fill="black" font-size="16.0105" font-family="Helvetica">0.4</text>
<text xml:space="preserve" x="23.6055" y="52.41" fill="black" font-size="16.0105" font-family="Helvetica">0.45</text>
<text xml:space="preserve" x="82.2144" y="7.32612" fill="black" font-size="10.8403" font-family="Helvetica">6</text>
<text xml:space="preserve" x="65.308" y="14.6522" fill="black" font-size="16.0105" font-family="Helvetica">10</text>
<text xml:space="preserve" x="56.8548" y="14.6522" fill="black" font-size="16.0105" font-family="Times">&#0215;</text>
<g transform="rotate(-90,22.4784,21.9784)">
<text xml:space="preserve" x="22.4784" y="21.9784" fill="black" font-size="10.8403" font-family="Times">&#0947;</text>
</g>
<g transform="rotate(-90,18.5335,25.9232)">
<text xml:space="preserve" x="18.5335" y="25.9232" fill="black" font-size="7.39355" font-family="Helvetica">0</text>
</g>
<g transform="rotate(-90,22.4784,32.1222)">
<text xml:space="preserve" x="22.4784" y="32.1222" fill="black" font-size="10.8403" font-family="Times">&#0960;</text>
</g>
<g transform="rotate(-90,17.4064,45.0838)">
<text xml:space="preserve" x="17.4064" y="45.0838" fill="black" font-size="16.0105" font-family="Helvetica" font-style="oblique">N</text>
</g>
<path d="M553.256,498.064v -481.461" fill="none" stroke="black"/>
<path d="M538.459,498.064h 14.7969" fill="none" stroke="black"/>
<path d="M545.857,488.044h 7.39843" fill="none" stroke="black"/>
<path d="M545.857,478.025h 7.39843" fill="none" stroke="black"/>
<path d="M545.857,468.006h 7.39843" fill="none" stroke="black"/>
<path d="M545.857,457.986h 7.39843" fill="none" stroke="black"/>
<path d="M538.459,447.967h 14.7969" fill="none" stroke="black"/>
<path d="M545.857,437.948h 7.39843" fill="none" stroke="black"/>
<path d="M545.857,427.929h 7.39843" fill="none" stroke="black"/>
<path d="M545.857,417.909h 7.39843" fill="none" stroke="black"/>
<path d="M545.857,407.89h 7.39843" fill="none" stroke="black"/>
<path d="M538.459,397.871h 14.7969" fill="none" stroke="black"/>
<path d="M545.857,387.852h 7.39843" fill="none" stroke="black"/>
<path d="M545.857,377.832h 7.39843" fill="none" stroke="black"/>
<path d="M545.857,367.813h 7.39843" fill="none" stroke="black"/>
<path d="M545.857,357.794h 7.39843" fill="none" stroke="black"/>
<path d="M538.459,347.774h 14.7969" fill="none" stroke="black"/>
<path d="M545.857,337.755h 7.39843" fill="none" stroke="black"/>
<path d="M545.857,327.736h 7.39843" fill="none" stroke="black"/>
<path d="M545.857,317.717h 7.39843" fill="none" stroke="black"/>
<path d="M545.857,307.697h 7.39843" fill="none" stroke="black"/>
<path d="M538.459,297.678h 14.7969" fill="none" stroke="black"/>
<path d="M545.857,287.659h 7.39843" fill="none" stroke="black"/>
<path d="M545.857,277.64h 7.39843" fill="none" stroke="black"/>
<path d="M545.857,267.62h 7.39843" fill="none" stroke="black"/>
<path d="M545.857,257.601h 7.39843" fill="none" stroke="black"/>
<path d="M538.459,247.582h 14.7969" fill="none" stroke="black"/>
<path d="M545.857,237.562h 7.39843" fill="none" stroke="black"/>
<path d="M545.857,227.543h 7.39843" fill="none" stroke="black"/>
<path d="M545.857,217.524h 7.39843" fill="none" stroke="black"/>
<path d="M545.857,207.505h 7.39843" fill="none" stroke="black"/>
<path d="M538.459,197.485h 14.7969" fill="none" stroke="black"/>
<path d="M545.857,187.466h 7.39843" fill="none" stroke="black"/>
<path d="M545.857,177.447h 7.39843" fill="none" stroke="black"/>
<path d="M545.857,167.427h 7.39843" fill="none" stroke="black"/>
<path d="M545.857,157.408h 7.39843" fill="none" stroke="black"/>
<path d="M538.459,147.389h 14.7969" fill="none" stroke="black"/>
<path d="M545.857,137.37h 7.39843" fill="none" stroke="black"/>
<path d="M545.857,127.35h 7.39843" fill="none" stroke="black"/>
<path d="M545.857,117.331h 7.39843" fill="none" stroke="black"/>
<path d="M545.857,107.312h 7.39843" fill="none" stroke="black"/>
<path d="M538.459,97.2925h 14.7969" fill="none" stroke="black"/>
<path d="M545.857,87.2733h 7.39843" fill="none" stroke="black"/>
<path d="M545.857,77.254h 7.39843" fill="none" stroke="black"/>
<path d="M545.857,67.2347h 7.39843" fill="none" stroke="black"/>
<path d="M545.857,57.2154h 7.39843" fill="none" stroke="black"/>
<path d="M538.459,47.1962h 14.7969" fill="none" stroke="black"/>
<path d="M538.459,47.1962h 14.7969" fill="none" stroke="black"/>
<path d="M545.857,37.1769h 7.39843" fill="none" stroke="black"/>
<path d="M545.857,27.1576h 7.39843" fill="none" stroke="black"/>
<path d="M545.857,17.1383h 7.39843" fill="none" stroke="black"/>
<g stroke="#33cccc" stroke-width="2" fill="none">
<rect x="98.2168" y="462.426" width="11.271" height="11.271"/>
</g>
<g stroke="#33cccc" stroke-width="2" fill="none">
<rect x="103.128" y="325.58" width="11.271" height="11.271"/>
</g>
<g stroke="#33cccc" stroke-width="2" fill="none">
<rect x="108.04" y="375.842" width="11.271" height="11.271"/>
</g>
<g stroke="#33cccc" stroke-width="2" fill="none">
<rect x="112.951" y="451.683" width="11.271" height="11.271"/>
</g>
<g stroke="#33cccc" stroke-width="2" fill="none">
<rect x="117.863" y="376.595" width="11.271" height="11.271"/>
</g>
<g stroke="#33cccc" stroke-width="2" fill="none">
<rect x="122.774" y="315.618" width="11.271" height="11.271"/>
</g>
<g stroke="#33cccc" stroke-width="2" fill="none">
<rect x="127.686" y="344.358" width="11.271" height="11.271"/>
</g>
<g stroke="#33cccc" stroke-width="2" fill="none">
<rect x="132.597" y="362.99" width="11.271" height="11.271"/>
</g>
<g stroke="#33cccc" stroke-width="2" fill="none">
<rect x="137.509" y="363.591" width="11.271" height="11.271"/>
</g>
<g stroke="#33cccc" stroke-width="2" fill="none">
<rect x="142.42" y="360.699" width="11.271" height="11.271"/>
</g>
<g stroke="#33cccc" stroke-width="2" fill="none">
<rect x="147.332" y="355.913" width="11.271" height="11.271"/>
</g>
<g stroke="#33cccc" stroke-width="2" fill="none">
<rect x="152.243" y="350.712" width="11.271" height="11.271"/>
</g>
<g stroke="#33cccc" stroke-width="2" fill="none">
<rect x="157.155" y="345.231" width="11.271" height="11.271"/>
</g>
<g stroke="#33cccc" stroke-width="2" fill="none">
<rect x="162.067" y="341.616" width="11.271" height="11.271"/>
</g>
<g stroke="#33cccc" stroke-width="2" fill="none">
<rect x="166.978" y="339.954" width="11.271" height="11.271"/>
</g>
<g stroke="#33cccc" stroke-width="2" fill="none">
<rect x="171.89" y="340.408" width="11.271" height="11.271"/>
</g>
<g stroke="#33cccc" stroke-width="2" fill="none">
<rect x="176.801" y="343.255" width="11.271" height="11.271"/>
</g>
<g stroke="#33cccc" stroke-width="2" fill="none">
<rect x="181.713" y="347.472" width="11.271" height="11.271"/>
</g>
<g stroke="#33cccc" stroke-width="2" fill="none">
<rect x="186.624" y="352.81" width="11.271" height="11.271"/>
</g>
<g stroke="#33cccc" stroke-width="2" fill="none">
<rect x="191.536" y="358.91" width="11.271" height="11.271"/>
</g>
<g stroke="#33cccc" stroke-width="2" fill="none">
<rect x="196.447" y="364.633" width="11.271" height="11.271"/>
</g>
<g stroke="#33cccc" stroke-width="2" fill="none">
<rect x="201.359" y="370.701" width="11.271" height="11.271"/>
</g>
<g stroke="#33cccc" stroke-width="2" fill="none">
<rect x="206.27" y="376.483" width="11.271" height="11.271"/>
</g>
<g stroke="#33cccc" stroke-width="2" fill="none">
<rect x="211.182" y="381.789" width="11.271" height="11.271"/>
</g>
<g stroke="#33cccc" stroke-width="2" fill="none">
<rect x="216.093" y="386.937" width="11.271" height="11.271"/>
</g>
<g stroke="#33cccc" stroke-width="2" fill="none">
<rect x="221.005" y="391.678" width="11.271" height="11.271"/>
</g>
<g stroke="#33cccc" stroke-width="2" fill="none">
<rect x="225.916" y="395.963" width="11.271" height="11.271"/>
</g>
<g stroke="#33cccc" stroke-width="2" fill="none">
<rect x="230.828" y="400.369" width="11.271" height="11.271"/>
</g>
<g stroke="#33cccc" stroke-width="2" fill="none">
<rect x="235.739" y="404.396" width="11.271" height="11.271"/>
</g>
<g stroke="#33cccc" stroke-width="2" fill="none">
<rect x="240.651" y="407.985" width="11.271" height="11.271"/>
</g>
<g stroke="#33cccc" stroke-width="2" fill="none">
<rect x="245.562" y="411.321" width="11.271" height="11.271"/>
</g>
<g stroke="#33cccc" stroke-width="2" fill="none">
<rect x="250.474" y="414.808" width="11.271" height="11.271"/>
</g>
<g stroke="#33cccc" stroke-width="2" fill="none">
<rect x="255.385" y="417.65" width="11.271" height="11.271"/>
</g>
<g stroke="#33cccc" stroke-width="2" fill="none">
<rect x="260.297" y="420.47" width="11.271" height="11.271"/>
</g>
<g stroke="#33cccc" stroke-width="2" fill="none">
<rect x="265.208" y="423.172" width="11.271" height="11.271"/>
</g>
<g stroke="#33cccc" stroke-width="2" fill="none">
<rect x="270.12" y="425.783" width="11.271" height="11.271"/>
</g>
<g stroke="#33cccc" stroke-width="2" fill="none">
<rect x="275.031" y="427.884" width="11.271" height="11.271"/>
</g>
<g stroke="#33cccc" stroke-width="2" fill="none">
<rect x="279.943" y="430.084" width="11.271" height="11.271"/>
</g>
<g stroke="#33cccc" stroke-width="2" fill="none">
<rect x="284.854" y="432.061" width="11.271" height="11.271"/>
</g>
<g stroke="#33cccc" stroke-width="2" fill="none">
<rect x="289.766" y="433.604" width="11.271" height="11.271"/>
</g>
<g stroke="#33cccc" stroke-width="2" fill="none">
<rect x="294.677" y="435.36" width="11.271" height="11.271"/>
</g>
<g stroke="#33cccc" stroke-width="2" fill="none">
<rect x="299.589" y="436.987" width="11.271" height="11.271"/>
</g>
<g stroke="#33cccc" stroke-width="2" fill="none">
<rect x="304.5" y="438.559" width="11.271" height="11.271"/>
</g>
<g stroke="#33cccc" stroke-width="2" fill="none">
<rect x="309.412" y="439.963" width="11.271" height="11.271"/>
</g>
<g stroke="#33cccc" stroke-width="2" fill="none">
<rect x="314.323" y="441.038" width="11.271" height="11.271"/>
</g>
<g stroke="#33cccc" stroke-width="2" fill="none">
<rect x="319.235" y="442.311" width="11.271" height="11.271"/>
</g>
<g stroke="#33cccc" stroke-width="2" fill="none">
<rect x="324.147" y="443.313" width="11.271" height="11.271"/>
</g>
<g stroke="#33cccc" stroke-width="2" fill="none">
<rect x="329.058" y="444.48" width="11.271" height="11.271"/>
</g>
<g stroke="#33cccc" stroke-width="2" fill="none">
<rect x="333.97" y="445.465" width="11.271" height="11.271"/>
</g>
<g stroke="#33cccc" stroke-width="2" fill="none">
<rect x="338.881" y="446.419" width="11.271" height="11.271"/>
</g>
<g stroke="#33cccc" stroke-width="2" fill="none">
<rect x="343.793" y="447.258" width="11.271" height="11.271"/>
</g>
<g stroke="#33cccc" stroke-width="2" fill="none">
<rect x="348.704" y="448.04" width="11.271" height="11.271"/>
</g>
<g stroke="#33cccc" stroke-width="2" fill="none">
<rect x="353.616" y="448.955" width="11.271" height="11.271"/>
</g>
<g stroke="#33cccc" stroke-width="2" fill="none">
<rect x="358.527" y="449.525" width="11.271" height="11.271"/>
</g>
<g stroke="#33cccc" stroke-width="2" fill="none">
<rect x="363.439" y="450.242" width="11.271" height="11.271"/>
</g>
<g stroke="#33cccc" stroke-width="2" fill="none">
<rect x="368.35" y="450.927" width="11.271" height="11.271"/>
</g>
<g stroke="#33cccc" stroke-width="2" fill="none">
<rect x="373.262" y="451.522" width="11.271" height="11.271"/>
</g>
<g stroke="#33cccc" stroke-width="2" fill="none">
<rect x="378.173" y="452.247" width="11.271" height="11.271"/>
</g>
<g stroke="#33cccc" stroke-width="2" fill="none">
<rect x="383.085" y="452.957" width="11.271" height="11.271"/>
</g>
<g stroke="#33cccc" stroke-width="2" fill="none">
<rect x="387.996" y="453.459" width="11.271" height="11.271"/>
</g>
<g stroke="#33cccc" stroke-width="2" fill="none">
<rect x="392.908" y="454.13" width="11.271" height="11.271"/>
</g>
<g stroke="#33cccc" stroke-width="2" fill="none">
<rect x="397.819" y="454.648" width="11.271" height="11.271"/>
</g>
<g stroke="#33cccc" stroke-width="2" fill="none">
<rect x="402.731" y="455.195" width="11.271" height="11.271"/>
</g>
<g stroke="#33cccc" stroke-width="2" fill="none">
<rect x="407.642" y="455.829" width="11.271" height="11.271"/>
</g>
<g stroke="#33cccc" stroke-width="2" fill="none">
<rect x="412.554" y="456.254" width="11.271" height="11.271"/>
</g>
<g stroke="#33cccc" stroke-width="2" fill="none">
<rect x="417.465" y="456.809" width="11.271" height="11.271"/>
</g>
<g stroke="#33cccc" stroke-width="2" fill="none">
<rect x="422.377" y="457.335" width="11.271" height="11.271"/>
</g>
<g stroke="#33cccc" stroke-width="2" fill="none">
<rect x="427.288" y="457.692" width="11.271" height="11.271"/>
</g>
<g stroke="#33cccc" stroke-width="2" fill="none">
<rect x="432.2" y="458.441" width="11.271" height="11.271"/>
</g>
<g stroke="#33cccc" stroke-width="2" fill="none">
<rect x="437.111" y="459.065" width="11.271" height="11.271"/>
</g>
<g stroke="#33cccc" stroke-width="2" fill="none">
<rect x="442.023" y="459.52" width="11.271" height="11.271"/>
</g>
<g stroke="#33cccc" stroke-width="2" fill="none">
<rect x="446.934" y="459.943" width="11.271" height="11.271"/>
</g>
<g stroke="#33cccc" stroke-width="2" fill="none">
<rect x="451.846" y="460.424" width="11.271" height="11.271"/>
</g>
<g stroke="#33cccc" stroke-width="2" fill="none">
<rect x="456.757" y="460.981" width="11.271" height="11.271"/>
</g>
<g stroke="#33cccc" stroke-width="2" fill="none">
<rect x="461.669" y="461.474" width="11.271" height="11.271"/>
</g>
<g stroke="#33cccc" stroke-width="2" fill="none">
<rect x="466.58" y="461.923" width="11.271" height="11.271"/>
</g>
<g stroke="#33cccc" stroke-width="2" fill="none">
<rect x="471.492" y="462.54" width="11.271" height="11.271"/>
</g>
<g stroke="#33cccc" stroke-width="2" fill="none">
<rect x="476.403" y="462.901" width="11.271" height="11.271"/>
</g>
<g stroke="#33cccc" stroke-width="2" fill="none">
<rect x="481.315" y="463.434" width="11.271" height="11.271"/>
</g>
<g stroke="#33cccc" stroke-width="2" fill="none">
<rect x="486.227" y="463.971" width="11.271" height="11.271"/>
</g>
<g stroke="#33cccc" stroke-width="2" fill="none">
<rect x="491.138" y="464.453" width="11.271" height="11.271"/>
</g>
<g stroke="#33cccc" stroke-width="2" fill="none">
<rect x="496.05" y="464.91" width="11.271" height="11.271"/>
</g>
<g stroke="#33cccc" stroke-width="2" fill="none">
<rect x="500.961" y="465.428" width="11.271" height="11.271"/>
</g>
<g stroke="#33cccc" stroke-width="2" fill="none">
<rect x="505.873" y="465.919" width="11.271" height="11.271"/>
</g>
<g stroke="#33cccc" stroke-width="2" fill="none">
<rect x="510.784" y="466.405" width="11.271" height="11.271"/>
</g>
<g stroke="#33cccc" stroke-width="2" fill="none">
<rect x="515.696" y="466.893" width="11.271" height="11.271"/>
</g>
<g stroke="#33cccc" stroke-width="2" fill="none">
<rect x="520.607" y="467.41" width="11.271" height="11.271"/>
</g>
<g stroke="#33cccc" stroke-width="2" fill="none">
<rect x="525.519" y="467.858" width="11.271" height="11.271"/>
</g>
<g stroke="#33cccc" stroke-width="2" fill="none">
<rect x="530.43" y="468.32" width="11.271" height="11.271"/>
</g>
<g stroke="#33cccc" stroke-width="2" fill="none">
<rect x="535.342" y="468.838" width="11.271" height="11.271"/>
</g>
<g stroke="#33cccc" stroke-width="2" fill="none">
<rect x="540.253" y="469.294" width="11.271" height="11.271"/>
</g>
<g stroke="#ff0066" stroke-width="2" fill="none">
<circle cx="103.852" cy="465.202" r="5.63548"/>
</g>
<g stroke="#ff0066" stroke-width="2" fill="none">
<circle cx="108.764" cy="316.39" r="5.63548"/>
</g>
<g stroke="#ff0066" stroke-width="2" fill="none">
<circle cx="113.675" cy="371.848" r="5.63548"/>
</g>
<g stroke="#ff0066" stroke-width="2" fill="none">
<circle cx="118.587" cy="454.2" r="5.63548"/>
</g>
<g stroke="#ff0066" stroke-width="2" fill="none">
<circle cx="123.498" cy="374.049" r="5.63548"/>
</g>
<g stroke="#ff0066" stroke-width="2" fill="none">
<circle cx="128.41" cy="309.774" r="5.63548"/>
</g>
<g stroke="#ff0066" stroke-width="2" fill="none">
<circle cx="133.321" cy="341.2" r="5.63548"/>
</g>
<g stroke="#ff0066" stroke-width="2" fill="none">
<circle cx="138.233" cy="361.631" r="5.63548"/>
</g>
<g stroke="#ff0066" stroke-width="2" fill="none">
<circle cx="143.144" cy="362.932" r="5.63548"/>
</g>
<g stroke="#ff0066" stroke-width="2" fill="none">
<circle cx="148.056" cy="360.557" r="5.63548"/>
</g>
<g stroke="#ff0066" stroke-width="2" fill="none">
<circle cx="152.967" cy="356.22" r="5.63548"/>
</g>
<g stroke="#ff0066" stroke-width="2" fill="none">
<circle cx="157.879" cy="351.476" r="5.63548"/>
</g>
<g stroke="#ff0066" stroke-width="2" fill="none">
<circle cx="162.79" cy="346.467" r="5.63548"/>
</g>
<g stroke="#ff0066" stroke-width="2" fill="none">
<circle cx="167.702" cy="343.394" r="5.63548"/>
</g>
<g stroke="#ff0066" stroke-width="2" fill="none">
<circle cx="172.614" cy="342.321" r="5.63548"/>
</g>
<g stroke="#ff0066" stroke-width="2" fill="none">
<circle cx="177.525" cy="343.389" r="5.63548"/>
</g>
<g stroke="#ff0066" stroke-width="2" fill="none">
<circle cx="182.437" cy="346.854" r="5.63548"/>
</g>
<g stroke="#ff0066" stroke-width="2" fill="none">
<circle cx="187.348" cy="351.657" r="5.63548"/>
</g>
<g stroke="#ff0066" stroke-width="2" fill="none">
<circle cx="192.26" cy="357.534" r="5.63548"/>
</g>
<g stroke="#ff0066" stroke-width="2" fill="none">
<circle cx="197.171" cy="364.116" r="5.63548"/>
</g>
<g stroke="#ff0066" stroke-width="2" fill="none">
<circle cx="202.083" cy="370.261" r="5.63548"/>
</g>
<g stroke="#ff0066" stroke-width="2" fill="none">
<circle cx="206.994" cy="376.693" r="5.63548"/>
</g>
<g stroke="#ff0066" stroke-width="2" fill="none">
<circle cx="211.906" cy="382.786" r="5.63548"/>
</g>
<g stroke="#ff0066" stroke-width="2" fill="none">
<circle cx="216.817" cy="388.357" r="5.63548"/>
</g>
<g stroke="#ff0066" stroke-width="2" fill="none">
<circle cx="221.729" cy="393.727" r="5.63548"/>
</g>
<g stroke="#ff0066" stroke-width="2" fill="none">
<circle cx="226.64" cy="398.653" r="5.63548"/>
</g>
<g stroke="#ff0066" stroke-width="2" fill="none">
<circle cx="231.552" cy="403.093" r="5.63548"/>
</g>
<g stroke="#ff0066" stroke-width="2" fill="none">
<circle cx="236.463" cy="407.619" r="5.63548"/>
</g>
<g stroke="#ff0066" stroke-width="2" fill="none">
<circle cx="241.375" cy="411.742" r="5.63548"/>
</g>
<g stroke="#ff0066" stroke-width="2" fill="none">
<circle cx="246.286" cy="415.409" r="5.63548"/>
</g>
<g stroke="#ff0066" stroke-width="2" fill="none">
<circle cx="251.198" cy="418.802" r="5.63548"/>
</g>
<g stroke="#ff0066" stroke-width="2" fill="none">
<circle cx="256.109" cy="422.322" r="5.63548"/>
</g>
<g stroke="#ff0066" stroke-width="2" fill="none">
<circle cx="261.021" cy="425.191" r="5.63548"/>
</g>
<g stroke="#ff0066" stroke-width="2" fill="none">
<circle cx="265.932" cy="428.021" r="5.63548"/>
</g>
<g stroke="#ff0066" stroke-width="2" fill="none">
<circle cx="270.844" cy="430.72" r="5.63548"/>
</g>
<g stroke="#ff0066" stroke-width="2" fill="none">
<circle cx="275.755" cy="433.315" r="5.63548"/>
</g>
<g stroke="#ff0066" stroke-width="2" fill="none">
<circle cx="280.667" cy="435.401" r="5.63548"/>
</g>
<g stroke="#ff0066" stroke-width="2" fill="none">
<circle cx="285.578" cy="437.571" r="5.63548"/>
</g>
<g stroke="#ff0066" stroke-width="2" fill="none">
<circle cx="290.49" cy="439.513" r="5.63548"/>
</g>
<g stroke="#ff0066" stroke-width="2" fill="none">
<circle cx="295.401" cy="441.026" r="5.63548"/>
</g>
<g stroke="#ff0066" stroke-width="2" fill="none">
<circle cx="300.313" cy="442.735" r="5.63548"/>
</g>
<g stroke="#ff0066" stroke-width="2" fill="none">
<circle cx="305.224" cy="444.312" r="5.63548"/>
</g>
<g stroke="#ff0066" stroke-width="2" fill="none">
<circle cx="310.136" cy="445.827" r="5.63548"/>
</g>
<g stroke="#ff0066" stroke-width="2" fill="none">
<circle cx="315.047" cy="447.173" r="5.63548"/>
</g>
<g stroke="#ff0066" stroke-width="2" fill="none">
<circle cx="319.959" cy="448.193" r="5.63548"/>
</g>
<g stroke="#ff0066" stroke-width="2" fill="none">
<circle cx="324.87" cy="449.4" r="5.63548"/>
</g>
<g stroke="#ff0066" stroke-width="2" fill="none">
<circle cx="329.782" cy="450.337" r="5.63548"/>
</g>
<g stroke="#ff0066" stroke-width="2" fill="none">
<circle cx="334.694" cy="451.431" r="5.63548"/>
</g>
<g stroke="#ff0066" stroke-width="2" fill="none">
<circle cx="339.605" cy="452.342" r="5.63548"/>
</g>
<g stroke="#ff0066" stroke-width="2" fill="none">
<circle cx="344.517" cy="453.22" r="5.63548"/>
</g>
<g stroke="#ff0066" stroke-width="2" fill="none">
<circle cx="349.428" cy="453.981" r="5.63548"/>
</g>
<g stroke="#ff0066" stroke-width="2" fill="none">
<circle cx="354.34" cy="454.683" r="5.63548"/>
</g>
<g stroke="#ff0066" stroke-width="2" fill="none">
<circle cx="359.251" cy="455.511" r="5.63548"/>
</g>
<g stroke="#ff0066" stroke-width="2" fill="none">
<circle cx="364.163" cy="455.998" r="5.63548"/>
</g>
<g stroke="#ff0066" stroke-width="2" fill="none">
<circle cx="369.074" cy="456.627" r="5.63548"/>
</g>
<g stroke="#ff0066" stroke-width="2" fill="none">
<circle cx="373.986" cy="457.221" r="5.63548"/>
</g>
<g stroke="#ff0066" stroke-width="2" fill="none">
<circle cx="378.897" cy="457.723" r="5.63548"/>
</g>
<g stroke="#ff0066" stroke-width="2" fill="none">
<circle cx="383.809" cy="458.352" r="5.63548"/>
</g>
<g stroke="#ff0066" stroke-width="2" fill="none">
<circle cx="388.72" cy="458.963" r="5.63548"/>
</g>
<g stroke="#ff0066" stroke-width="2" fill="none">
<circle cx="393.632" cy="459.366" r="5.63548"/>
</g>
<g stroke="#ff0066" stroke-width="2" fill="none">
<circle cx="398.543" cy="459.935" r="5.63548"/>
</g>
<g stroke="#ff0066" stroke-width="2" fill="none">
<circle cx="403.455" cy="460.35" r="5.63548"/>
</g>
<g stroke="#ff0066" stroke-width="2" fill="none">
<circle cx="408.366" cy="460.792" r="5.63548"/>
</g>
<g stroke="#ff0066" stroke-width="2" fill="none">
<circle cx="413.278" cy="461.321" r="5.63548"/>
</g>
<g stroke="#ff0066" stroke-width="2" fill="none">
<circle cx="418.189" cy="461.638" r="5.63548"/>
</g>
<g stroke="#ff0066" stroke-width="2" fill="none">
<circle cx="423.101" cy="462.084" r="5.63548"/>
</g>
<g stroke="#ff0066" stroke-width="2" fill="none">
<circle cx="428.012" cy="462.501" r="5.63548"/>
</g>
<g stroke="#ff0066" stroke-width="2" fill="none">
<circle cx="432.924" cy="462.745" r="5.63548"/>
</g>
<g stroke="#ff0066" stroke-width="2" fill="none">
<circle cx="437.835" cy="463.387" r="5.63548"/>
</g>
<g stroke="#ff0066" stroke-width="2" fill="none">
<circle cx="442.747" cy="463.903" r="5.63548"/>
</g>
<g stroke="#ff0066" stroke-width="2" fill="none">
<circle cx="447.658" cy="464.244" r="5.63548"/>
</g>
<g stroke="#ff0066" stroke-width="2" fill="none">
<circle cx="452.57" cy="464.554" r="5.63548"/>
</g>
<g stroke="#ff0066" stroke-width="2" fill="none">
<circle cx="457.481" cy="464.923" r="5.63548"/>
</g>
<g stroke="#ff0066" stroke-width="2" fill="none">
<circle cx="462.393" cy="465.371" r="5.63548"/>
</g>
<g stroke="#ff0066" stroke-width="2" fill="none">
<circle cx="467.304" cy="465.753" r="5.63548"/>
</g>
<g stroke="#ff0066" stroke-width="2" fill="none">
<circle cx="472.216" cy="466.09" r="5.63548"/>
</g>
<g stroke="#ff0066" stroke-width="2" fill="none">
<circle cx="477.127" cy="466.604" r="5.63548"/>
</g>
<g stroke="#ff0066" stroke-width="2" fill="none">
<circle cx="482.039" cy="466.849" r="5.63548"/>
</g>
<g stroke="#ff0066" stroke-width="2" fill="none">
<circle cx="486.95" cy="467.277" r="5.63548"/>
</g>
<g stroke="#ff0066" stroke-width="2" fill="none">
<circle cx="491.862" cy="467.711" r="5.63548"/>
</g>
<g stroke="#ff0066" stroke-width="2" fill="none">
<circle cx="496.773" cy="468.089" r="5.63548"/>
</g>
<g stroke="#ff0066" stroke-width="2" fill="none">
<circle cx="501.685" cy="468.441" r="5.63548"/>
</g>
<g stroke="#ff0066" stroke-width="2" fill="none">
<circle cx="506.597" cy="468.862" r="5.63548"/>
</g>
<g stroke="#ff0066" stroke-width="2" fill="none">
<circle cx="511.508" cy="469.254" r="5.63548"/>
</g>
<g stroke="#ff0066" stroke-width="2" fill="none">
<circle cx="516.42" cy="469.644" r="5.63548"/>
</g>
<g stroke="#ff0066" stroke-width="2" fill="none">
<circle cx="521.331" cy="470.038" r="5.63548"/>
</g>
<g stroke="#ff0066" stroke-width="2" fill="none">
<circle cx="526.243" cy="470.466" r="5.63548"/>
</g>
<g stroke="#ff0066" stroke-width="2" fill="none">
<circle cx="531.154" cy="470.822" r="5.63548"/>
</g>
<g stroke="#ff0066" stroke-width="2" fill="none">
<circle cx="536.066" cy="471.196" r="5.63548"/>
</g>
<g stroke="#ff0066" stroke-width="2" fill="none">
<circle cx="540.977" cy="471.635" r="5.63548"/>
</g>
<g stroke="#ff0066" stroke-width="2" fill="none">
<circle cx="545.889" cy="472.008" r="5.63548"/>
</g>
<text xml:space="preserve" x="360.607" y="50.7193" fill="black" font-size="16.0105" font-family="Helvetica"> with EMC</text>
<text xml:space="preserve" x="352.717" y="50.7193" fill="black" font-size="16.0105" font-family="Times">&#0947;</text>
<text xml:space="preserve" x="344.828" y="50.7193" fill="black" font-size="16.0105" font-family="Times">&#0947;</text>
<text xml:space="preserve" x="336.938" y="50.7193" fill="black" font-size="16.0105" font-family="Times">&#0947;</text>
<text xml:space="preserve" x="331.866" y="50.7193" fill="black" font-size="16.0105" font-family="Helvetica"> </text>
<text xml:space="preserve" x="316.65" y="50.7193" fill="black" font-size="16.0105" font-family="Times">&#8594;</text>
<text xml:space="preserve" x="311.578" y="50.7193" fill="black" font-size="16.0105" font-family="Helvetica"> </text>
<text xml:space="preserve" x="303.689" y="50.7193" fill="black" font-size="16.0105" font-family="Times">&#0947;</text>
<text xml:space="preserve" x="298.053" y="45.0838" fill="black" font-size="10.8403" font-family="Helvetica">0</text>
<text xml:space="preserve" x="289.6" y="50.7193" fill="black" font-size="16.0105" font-family="Times">&#0960;</text>
<text xml:space="preserve" x="284.528" y="50.7193" fill="black" font-size="16.0105" font-family="Helvetica"> </text>
<text xml:space="preserve" x="269.312" y="50.7193" fill="black" font-size="16.0105" font-family="Times">&#8594;</text>
<text xml:space="preserve" x="264.24" y="50.7193" fill="black" font-size="16.0105" font-family="Helvetica"> </text>
<text xml:space="preserve" x="252.969" y="50.7193" fill="black" font-size="16.0105" font-family="Times">&#0969;</text>
<text xml:space="preserve" x="128.989" y="50.7193" fill="black" font-size="16.0105" font-family="Helvetica"> = 13 TeV (EG1), </text>
<text xml:space="preserve" x="120.536" y="50.7193" fill="black" font-size="16.0105" font-family="Helvetica" font-style="oblique">s</text>
<path d="M114.9,41.7025l 1.69064, 9.58031" fill="none" stroke="black" stroke-width="2"/>
<path d="M116.591,51.2829l 2.25419, -14.0887" fill="none" stroke="black"/>
<path d="M118.845,37.1942h 10.1439" fill="none" stroke="black"/>
<text xml:space="preserve" x="89.5406" y="50.7193" fill="black" font-size="16.0105" font-family="Helvetica">pp </text>
<text xml:space="preserve" x="89.5406" y="85.6593" fill="black" font-size="16.0105" font-family="Helvetica">ALICE work in progress</text>
<text xml:space="preserve" x="205.068" y="120.599" fill="black" font-size="16.0105" font-family="Helvetica">) &lt; 4.0</text>
<text xml:space="preserve" x="196.051" y="120.599" fill="black" font-size="16.0105" font-family="Helvetica" font-style="oblique">c</text>
<text xml:space="preserve" x="145.895" y="120.599" fill="black" font-size="16.0105" font-family="Helvetica"> /(GeV/</text>
<text xml:space="preserve" x="139.133" y="128.489" fill="black" font-size="10.8403" font-family="Helvetica">T</text>
<text xml:space="preserve" x="129.552" y="120.599" fill="black" font-size="16.0105" font-family="Helvetica" font-style="oblique">p</text>
<text xml:space="preserve" x="124.481" y="120.599" fill="black" font-size="16.0105" font-family="Helvetica"> </text>
<text xml:space="preserve" x="116.027" y="120.599" fill="black" font-size="16.0105" font-family="Times">&#8804;</text>
<text xml:space="preserve" x="89.5406" y="120.599" fill="black" font-size="16.0105" font-family="Helvetica">2.0 </text>
<rect x="312.311" y="69.1755" width="198.425" height="113.448" fill="white"/>
<text xml:space="preserve" x="361.734" y="93.5489" fill="black" font-size="16.0105" font-family="Helvetica">same event</text>
<path d="M319.752,88.0835h 34.7244" fill="none" stroke="black" stroke-width="2"/>
<g fill="black">
<circle cx="337.114" cy="88.0835" r="6.76257"/>
</g>
<text xml:space="preserve" x="361.734" y="130.18" fill="black" font-size="16.0105" font-family="Helvetica">background pol1</text>
<path d="M319.752,125.899h 34.7244" fill="none" stroke="#33cccc" stroke-width="2"/>
<g stroke="#33cccc" stroke-width="2" fill="none">
<rect x="331.479" y="120.264" width="11.271" height="11.271"/>
</g>
<text xml:space="preserve" x="361.734" y="167.937" fill="black" font-size="16.0105" font-family="Helvetica">background pol2</text>
<path d="M319.752,163.715h 34.7244" fill="none" stroke="#ff0066" stroke-width="2"/>
<g stroke="#ff0066" stroke-width="2" fill="none">
<circle cx="337.114" cy="163.715" r="5.63548"/>
</g></svg>
