<?xml version="1.0" standalone="no"?>
<svg width="567.429" height="553.904" viewBox="0 0 567.429 553.904" xmlns="http://www.w3.org/2000/svg" shape-rendering="crispEdges">
<title>
MC/EG1/OmegaTGPSPlusPSNCell/SameEventToBackgroundRatio_08.svg
</title>
<desc>
Creator: ROOT Version 6.20/08
CreationDate: Mon Mar 29 21:28:56 2021</desc>
<defs>
</defs>
<rect x="0.5" y="0" width="566.929" height="553.404" fill="white"/>
<rect x="68.5315" y="16.6021" width="484.724" height="481.461" fill="white"/>
<rect x="68.5315" y="16.6021" width="484.724" height="481.461" fill="none" stroke="black"/>
<rect x="68.5315" y="16.6021" width="484.724" height="481.461" fill="white"/>
<rect x="68.5315" y="16.6021" width="484.724" height="481.461" fill="none" stroke="black"/>
<g fill="black">
<circle cx="109.325" cy="497.375" r="6.76257"/>
</g>
<g fill="black">
<circle cx="114.124" cy="405.113" r="6.76257"/>
</g>
<g fill="black">
<circle cx="118.924" cy="295.352" r="6.76257"/>
</g>
<g fill="black">
<circle cx="123.723" cy="289.989" r="6.76257"/>
</g>
<g fill="black">
<circle cx="128.522" cy="378.541" r="6.76257"/>
</g>
<g fill="black">
<circle cx="133.321" cy="441.999" r="6.76257"/>
</g>
<g fill="black">
<circle cx="138.121" cy="311.641" r="6.76257"/>
</g>
<g fill="black">
<circle cx="142.92" cy="272.944" r="6.76257"/>
</g>
<g fill="black">
<circle cx="147.719" cy="283.633" r="6.76257"/>
</g>
<g fill="black">
<circle cx="152.518" cy="263.149" r="6.76257"/>
</g>
<g fill="black">
<circle cx="157.318" cy="259.579" r="6.76257"/>
</g>
<g fill="black">
<circle cx="162.117" cy="263.853" r="6.76257"/>
</g>
<g fill="black">
<circle cx="166.916" cy="265.158" r="6.76257"/>
</g>
<g fill="black">
<circle cx="171.715" cy="267.228" r="6.76257"/>
</g>
<g fill="black">
<circle cx="176.515" cy="265.382" r="6.76257"/>
</g>
<g fill="black">
<circle cx="181.314" cy="267.56" r="6.76257"/>
</g>
<g fill="black">
<circle cx="186.113" cy="268.634" r="6.76257"/>
</g>
<g fill="black">
<circle cx="190.912" cy="265.214" r="6.76257"/>
</g>
<g fill="black">
<circle cx="195.712" cy="267.598" r="6.76257"/>
</g>
<g fill="black">
<circle cx="200.511" cy="262.552" r="6.76257"/>
</g>
<g fill="black">
<circle cx="205.31" cy="262.121" r="6.76257"/>
</g>
<g fill="black">
<circle cx="210.109" cy="262.361" r="6.76257"/>
</g>
<g fill="black">
<circle cx="214.909" cy="261.841" r="6.76257"/>
</g>
<g fill="black">
<circle cx="219.708" cy="260.484" r="6.76257"/>
</g>
<g fill="black">
<circle cx="224.507" cy="256.183" r="6.76257"/>
</g>
<g fill="black">
<circle cx="229.306" cy="253.308" r="6.76257"/>
</g>
<g fill="black">
<circle cx="234.106" cy="251.88" r="6.76257"/>
</g>
<g fill="black">
<circle cx="238.905" cy="247.516" r="6.76257"/>
</g>
<g fill="black">
<circle cx="243.704" cy="242.729" r="6.76257"/>
</g>
<g fill="black">
<circle cx="248.503" cy="240.519" r="6.76257"/>
</g>
<g fill="black">
<circle cx="253.303" cy="239.938" r="6.76257"/>
</g>
<g fill="black">
<circle cx="258.102" cy="240.98" r="6.76257"/>
</g>
<g fill="black">
<circle cx="262.901" cy="235.74" r="6.76257"/>
</g>
<g fill="black">
<circle cx="267.7" cy="234.335" r="6.76257"/>
</g>
<g fill="black">
<circle cx="272.5" cy="236.025" r="6.76257"/>
</g>
<g fill="black">
<circle cx="277.299" cy="231.506" r="6.76257"/>
</g>
<g fill="black">
<circle cx="339.689" cy="223.197" r="6.76257"/>
</g>
<g fill="black">
<circle cx="344.488" cy="226.272" r="6.76257"/>
</g>
<g fill="black">
<circle cx="349.288" cy="225.804" r="6.76257"/>
</g>
<g fill="black">
<circle cx="354.087" cy="224.732" r="6.76257"/>
</g>
<g fill="black">
<circle cx="358.886" cy="226.395" r="6.76257"/>
</g>
<g fill="black">
<circle cx="363.685" cy="225.754" r="6.76257"/>
</g>
<g fill="black">
<circle cx="368.485" cy="219.895" r="6.76257"/>
</g>
<g fill="black">
<circle cx="373.284" cy="223.369" r="6.76257"/>
</g>
<g fill="black">
<circle cx="378.083" cy="221.702" r="6.76257"/>
</g>
<g fill="black">
<circle cx="382.882" cy="220.12" r="6.76257"/>
</g>
<g fill="black">
<circle cx="387.682" cy="221.234" r="6.76257"/>
</g>
<g fill="black">
<circle cx="392.481" cy="218.169" r="6.76257"/>
</g>
<g fill="black">
<circle cx="397.28" cy="221.907" r="6.76257"/>
</g>
<g fill="black">
<circle cx="402.079" cy="220.05" r="6.76257"/>
</g>
<g fill="black">
<circle cx="406.879" cy="216.535" r="6.76257"/>
</g>
<g fill="black">
<circle cx="411.678" cy="217.698" r="6.76257"/>
</g>
<g fill="black">
<circle cx="416.477" cy="217.718" r="6.76257"/>
</g>
<g fill="black">
<circle cx="421.276" cy="216.055" r="6.76257"/>
</g>
<g fill="black">
<circle cx="426.076" cy="216.862" r="6.76257"/>
</g>
<g fill="black">
<circle cx="430.875" cy="212.966" r="6.76257"/>
</g>
<g fill="black">
<circle cx="435.674" cy="211.857" r="6.76257"/>
</g>
<g fill="black">
<circle cx="440.473" cy="215.328" r="6.76257"/>
</g>
<g fill="black">
<circle cx="445.273" cy="214.088" r="6.76257"/>
</g>
<g fill="black">
<circle cx="450.072" cy="212.828" r="6.76257"/>
</g>
<g fill="black">
<circle cx="454.871" cy="216.636" r="6.76257"/>
</g>
<g fill="black">
<circle cx="459.671" cy="210.519" r="6.76257"/>
</g>
<g fill="black">
<circle cx="464.47" cy="211.323" r="6.76257"/>
</g>
<g fill="black">
<circle cx="469.269" cy="210.278" r="6.76257"/>
</g>
<g fill="black">
<circle cx="474.068" cy="209.177" r="6.76257"/>
</g>
<g fill="black">
<circle cx="478.867" cy="209.554" r="6.76257"/>
</g>
<g fill="black">
<circle cx="483.667" cy="210.43" r="6.76257"/>
</g>
<g fill="black">
<circle cx="488.466" cy="212.862" r="6.76257"/>
</g>
<g fill="black">
<circle cx="493.265" cy="207.985" r="6.76257"/>
</g>
<g fill="black">
<circle cx="498.065" cy="212.155" r="6.76257"/>
</g>
<g fill="black">
<circle cx="502.864" cy="202.111" r="6.76257"/>
</g>
<g fill="black">
<circle cx="507.663" cy="202.373" r="6.76257"/>
</g>
<g fill="black">
<circle cx="512.462" cy="197.15" r="6.76257"/>
</g>
<g fill="black">
<circle cx="517.262" cy="202.388" r="6.76257"/>
</g>
<g fill="black">
<circle cx="522.061" cy="203.957" r="6.76257"/>
</g>
<g fill="black">
<circle cx="526.86" cy="198.487" r="6.76257"/>
</g>
<g fill="black">
<circle cx="531.659" cy="209.252" r="6.76257"/>
</g>
<g fill="black">
<circle cx="536.458" cy="197.641" r="6.76257"/>
</g>
<g fill="black">
<circle cx="541.258" cy="207.534" r="6.76257"/>
</g>
<g fill="black">
<circle cx="546.057" cy="210.766" r="6.76257"/>
</g>
<path d="M68.5315,498.064h 484.724" fill="none" stroke="black"/>
<path d="M68.5315,483.869v 14.1948" fill="none" stroke="black"/>
<path d="M83.5292,490.966v 7.09741" fill="none" stroke="black"/>
<path d="M98.5268,490.966v 7.09741" fill="none" stroke="black"/>
<path d="M113.524,490.966v 7.09741" fill="none" stroke="black"/>
<path d="M128.522,483.869v 14.1948" fill="none" stroke="black"/>
<path d="M143.52,490.966v 7.09741" fill="none" stroke="black"/>
<path d="M158.517,490.966v 7.09741" fill="none" stroke="black"/>
<path d="M173.515,490.966v 7.09741" fill="none" stroke="black"/>
<path d="M188.513,483.869v 14.1948" fill="none" stroke="black"/>
<path d="M203.51,490.966v 7.09741" fill="none" stroke="black"/>
<path d="M218.508,490.966v 7.09741" fill="none" stroke="black"/>
<path d="M233.506,490.966v 7.09741" fill="none" stroke="black"/>
<path d="M248.503,483.869v 14.1948" fill="none" stroke="black"/>
<path d="M263.501,490.966v 7.09741" fill="none" stroke="black"/>
<path d="M278.499,490.966v 7.09741" fill="none" stroke="black"/>
<path d="M293.496,490.966v 7.09741" fill="none" stroke="black"/>
<path d="M308.494,483.869v 14.1948" fill="none" stroke="black"/>
<path d="M323.492,490.966v 7.09741" fill="none" stroke="black"/>
<path d="M338.489,490.966v 7.09741" fill="none" stroke="black"/>
<path d="M353.487,490.966v 7.09741" fill="none" stroke="black"/>
<path d="M368.485,483.869v 14.1948" fill="none" stroke="black"/>
<path d="M383.482,490.966v 7.09741" fill="none" stroke="black"/>
<path d="M398.48,490.966v 7.09741" fill="none" stroke="black"/>
<path d="M413.478,490.966v 7.09741" fill="none" stroke="black"/>
<path d="M428.475,483.869v 14.1948" fill="none" stroke="black"/>
<path d="M443.473,490.966v 7.09741" fill="none" stroke="black"/>
<path d="M458.471,490.966v 7.09741" fill="none" stroke="black"/>
<path d="M473.468,490.966v 7.09741" fill="none" stroke="black"/>
<path d="M488.466,483.869v 14.1948" fill="none" stroke="black"/>
<path d="M503.464,490.966v 7.09741" fill="none" stroke="black"/>
<path d="M518.461,490.966v 7.09741" fill="none" stroke="black"/>
<path d="M533.459,490.966v 7.09741" fill="none" stroke="black"/>
<path d="M548.457,483.869v 14.1948" fill="none" stroke="black"/>
<path d="M548.457,483.869v 14.1948" fill="none" stroke="black"/>
<text xml:space="preserve" x="63.6174" y="513.956" fill="black" font-size="16.0105" font-family="Helvetica">0</text>
<text xml:space="preserve" x="117.718" y="513.956" fill="black" font-size="16.0105" font-family="Helvetica">0.2</text>
<text xml:space="preserve" x="177.454" y="513.956" fill="black" font-size="16.0105" font-family="Helvetica">0.4</text>
<text xml:space="preserve" x="237.754" y="513.956" fill="black" font-size="16.0105" font-family="Helvetica">0.6</text>
<text xml:space="preserve" x="297.49" y="513.956" fill="black" font-size="16.0105" font-family="Helvetica">0.8</text>
<text xml:space="preserve" x="365.115" y="513.956" fill="black" font-size="16.0105" font-family="Helvetica">1</text>
<text xml:space="preserve" x="417.525" y="513.956" fill="black" font-size="16.0105" font-family="Helvetica">1.2</text>
<text xml:space="preserve" x="477.261" y="513.956" fill="black" font-size="16.0105" font-family="Helvetica">1.4</text>
<text xml:space="preserve" x="537.561" y="513.956" fill="black" font-size="16.0105" font-family="Helvetica">1.6</text>
<text xml:space="preserve" x="548.268" y="537.625" fill="black" font-size="16.0105" font-family="Helvetica">)</text>
<text xml:space="preserve" x="542.633" y="532.553" fill="black" font-size="10.8403" font-family="Helvetica">2</text>
<text xml:space="preserve" x="533.616" y="537.625" fill="black" font-size="16.0105" font-family="Helvetica" font-style="oblique">c</text>
<text xml:space="preserve" x="487.405" y="537.625" fill="black" font-size="16.0105" font-family="Helvetica"> (GeV/</text>
<text xml:space="preserve" x="473.317" y="542.697" fill="black" font-size="10.8403" font-family="Helvetica">inv</text>
<text xml:space="preserve" x="459.792" y="537.625" fill="black" font-size="16.0105" font-family="Helvetica" font-style="oblique">m</text>
<path d="M68.5315,16.6021h 484.724" fill="none" stroke="black"/>
<path d="M68.5315,30.7969v -14.1948" fill="none" stroke="black"/>
<path d="M83.5292,23.6995v -7.09741" fill="none" stroke="black"/>
<path d="M98.5268,23.6995v -7.09741" fill="none" stroke="black"/>
<path d="M113.524,23.6995v -7.09741" fill="none" stroke="black"/>
<path d="M128.522,30.7969v -14.1948" fill="none" stroke="black"/>
<path d="M143.52,23.6995v -7.09741" fill="none" stroke="black"/>
<path d="M158.517,23.6995v -7.09741" fill="none" stroke="black"/>
<path d="M173.515,23.6995v -7.09741" fill="none" stroke="black"/>
<path d="M188.513,30.7969v -14.1948" fill="none" stroke="black"/>
<path d="M203.51,23.6995v -7.09741" fill="none" stroke="black"/>
<path d="M218.508,23.6995v -7.09741" fill="none" stroke="black"/>
<path d="M233.506,23.6995v -7.09741" fill="none" stroke="black"/>
<path d="M248.503,30.7969v -14.1948" fill="none" stroke="black"/>
<path d="M263.501,23.6995v -7.09741" fill="none" stroke="black"/>
<path d="M278.499,23.6995v -7.09741" fill="none" stroke="black"/>
<path d="M293.496,23.6995v -7.09741" fill="none" stroke="black"/>
<path d="M308.494,30.7969v -14.1948" fill="none" stroke="black"/>
<path d="M323.492,23.6995v -7.09741" fill="none" stroke="black"/>
<path d="M338.489,23.6995v -7.09741" fill="none" stroke="black"/>
<path d="M353.487,23.6995v -7.09741" fill="none" stroke="black"/>
<path d="M368.485,30.7969v -14.1948" fill="none" stroke="black"/>
<path d="M383.482,23.6995v -7.09741" fill="none" stroke="black"/>
<path d="M398.48,23.6995v -7.09741" fill="none" stroke="black"/>
<path d="M413.478,23.6995v -7.09741" fill="none" stroke="black"/>
<path d="M428.475,30.7969v -14.1948" fill="none" stroke="black"/>
<path d="M443.473,23.6995v -7.09741" fill="none" stroke="black"/>
<path d="M458.471,23.6995v -7.09741" fill="none" stroke="black"/>
<path d="M473.468,23.6995v -7.09741" fill="none" stroke="black"/>
<path d="M488.466,30.7969v -14.1948" fill="none" stroke="black"/>
<path d="M503.464,23.6995v -7.09741" fill="none" stroke="black"/>
<path d="M518.461,23.6995v -7.09741" fill="none" stroke="black"/>
<path d="M533.459,23.6995v -7.09741" fill="none" stroke="black"/>
<path d="M548.457,30.7969v -14.1948" fill="none" stroke="black"/>
<path d="M548.457,30.7969v -14.1948" fill="none" stroke="black"/>
<path d="M68.5315,498.064v -481.461" fill="none" stroke="black"/>
<path d="M83.3283,498.064h -14.7969" fill="none" stroke="black"/>
<path d="M75.9299,481.432h -7.39843" fill="none" stroke="black"/>
<path d="M75.9299,464.801h -7.39843" fill="none" stroke="black"/>
<path d="M75.9299,448.17h -7.39843" fill="none" stroke="black"/>
<path d="M75.9299,431.539h -7.39843" fill="none" stroke="black"/>
<path d="M83.3283,414.908h -14.7969" fill="none" stroke="black"/>
<path d="M75.9299,398.277h -7.39843" fill="none" stroke="black"/>
<path d="M75.9299,381.646h -7.39843" fill="none" stroke="black"/>
<path d="M75.9299,365.015h -7.39843" fill="none" stroke="black"/>
<path d="M75.9299,348.383h -7.39843" fill="none" stroke="black"/>
<path d="M83.3283,331.752h -14.7969" fill="none" stroke="black"/>
<path d="M75.9299,315.121h -7.39843" fill="none" stroke="black"/>
<path d="M75.9299,298.49h -7.39843" fill="none" stroke="black"/>
<path d="M75.9299,281.859h -7.39843" fill="none" stroke="black"/>
<path d="M75.9299,265.228h -7.39843" fill="none" stroke="black"/>
<path d="M83.3283,248.597h -14.7969" fill="none" stroke="black"/>
<path d="M75.9299,231.965h -7.39843" fill="none" stroke="black"/>
<path d="M75.9299,215.334h -7.39843" fill="none" stroke="black"/>
<path d="M75.9299,198.703h -7.39843" fill="none" stroke="black"/>
<path d="M75.9299,182.072h -7.39843" fill="none" stroke="black"/>
<path d="M83.3283,165.441h -14.7969" fill="none" stroke="black"/>
<path d="M75.9299,148.81h -7.39843" fill="none" stroke="black"/>
<path d="M75.9299,132.179h -7.39843" fill="none" stroke="black"/>
<path d="M75.9299,115.547h -7.39843" fill="none" stroke="black"/>
<path d="M75.9299,98.9164h -7.39843" fill="none" stroke="black"/>
<path d="M83.3283,82.2852h -14.7969" fill="none" stroke="black"/>
<path d="M83.3283,82.2852h -14.7969" fill="none" stroke="black"/>
<path d="M75.9299,65.6541h -7.39843" fill="none" stroke="black"/>
<path d="M75.9299,49.023h -7.39843" fill="none" stroke="black"/>
<path d="M75.9299,32.3918h -7.39843" fill="none" stroke="black"/>
<text xml:space="preserve" x="56.8548" y="503.248" fill="black" font-size="16.0105" font-family="Helvetica">0</text>
<text xml:space="preserve" x="48.4016" y="420.407" fill="black" font-size="16.0105" font-family="Helvetica">10</text>
<text xml:space="preserve" x="48.4016" y="337.002" fill="black" font-size="16.0105" font-family="Helvetica">20</text>
<text xml:space="preserve" x="48.4016" y="254.16" fill="black" font-size="16.0105" font-family="Helvetica">30</text>
<text xml:space="preserve" x="48.4016" y="170.755" fill="black" font-size="16.0105" font-family="Helvetica">40</text>
<text xml:space="preserve" x="48.4016" y="87.9135" fill="black" font-size="16.0105" font-family="Helvetica">50</text>
<text xml:space="preserve" x="99.1209" y="7.32612" fill="black" font-size="10.8403" font-family="Helvetica">3</text>
<text xml:space="preserve" x="93.4854" y="7.32612" fill="black" font-size="10.8403" font-family="Times">&#8722;</text>
<text xml:space="preserve" x="76.579" y="14.6522" fill="black" font-size="16.0105" font-family="Helvetica">10</text>
<text xml:space="preserve" x="68.1257" y="14.6522" fill="black" font-size="16.0105" font-family="Times">&#0215;</text>
<g transform="rotate(-90,38.2577,98.0573)">
<text xml:space="preserve" x="38.2577" y="98.0573" fill="black" font-size="16.0105" font-family="Helvetica">background</text>
</g>
<g transform="rotate(-90,21.9148,98.0573)">
<text xml:space="preserve" x="21.9148" y="98.0573" fill="black" font-size="16.0105" font-family="Helvetica">same event</text>
</g>
<path d="M24.169,98.0573l 0.563548, -81.7144" fill="none" stroke="black" stroke-width="2"/>
<path d="M553.256,498.064v -481.461" fill="none" stroke="black"/>
<path d="M538.459,498.064h 14.7969" fill="none" stroke="black"/>
<path d="M545.857,481.432h 7.39843" fill="none" stroke="black"/>
<path d="M545.857,464.801h 7.39843" fill="none" stroke="black"/>
<path d="M545.857,448.17h 7.39843" fill="none" stroke="black"/>
<path d="M545.857,431.539h 7.39843" fill="none" stroke="black"/>
<path d="M538.459,414.908h 14.7969" fill="none" stroke="black"/>
<path d="M545.857,398.277h 7.39843" fill="none" stroke="black"/>
<path d="M545.857,381.646h 7.39843" fill="none" stroke="black"/>
<path d="M545.857,365.015h 7.39843" fill="none" stroke="black"/>
<path d="M545.857,348.383h 7.39843" fill="none" stroke="black"/>
<path d="M538.459,331.752h 14.7969" fill="none" stroke="black"/>
<path d="M545.857,315.121h 7.39843" fill="none" stroke="black"/>
<path d="M545.857,298.49h 7.39843" fill="none" stroke="black"/>
<path d="M545.857,281.859h 7.39843" fill="none" stroke="black"/>
<path d="M545.857,265.228h 7.39843" fill="none" stroke="black"/>
<path d="M538.459,248.597h 14.7969" fill="none" stroke="black"/>
<path d="M545.857,231.965h 7.39843" fill="none" stroke="black"/>
<path d="M545.857,215.334h 7.39843" fill="none" stroke="black"/>
<path d="M545.857,198.703h 7.39843" fill="none" stroke="black"/>
<path d="M545.857,182.072h 7.39843" fill="none" stroke="black"/>
<path d="M538.459,165.441h 14.7969" fill="none" stroke="black"/>
<path d="M545.857,148.81h 7.39843" fill="none" stroke="black"/>
<path d="M545.857,132.179h 7.39843" fill="none" stroke="black"/>
<path d="M545.857,115.547h 7.39843" fill="none" stroke="black"/>
<path d="M545.857,98.9164h 7.39843" fill="none" stroke="black"/>
<path d="M538.459,82.2852h 14.7969" fill="none" stroke="black"/>
<path d="M538.459,82.2852h 14.7969" fill="none" stroke="black"/>
<path d="M545.857,65.6541h 7.39843" fill="none" stroke="black"/>
<path d="M545.857,49.023h 7.39843" fill="none" stroke="black"/>
<path d="M545.857,32.3918h 7.39843" fill="none" stroke="black"/>
<g stroke="#333333" stroke-width="2" fill="none">
<circle cx="282.098" cy="232.892" r="5.63548"/>
</g>
<g stroke="#333333" stroke-width="2" fill="none">
<circle cx="286.897" cy="229.985" r="5.63548"/>
</g>
<g stroke="#333333" stroke-width="2" fill="none">
<circle cx="291.697" cy="223.356" r="5.63548"/>
</g>
<g stroke="#333333" stroke-width="2" fill="none">
<circle cx="296.496" cy="221.213" r="5.63548"/>
</g>
<g stroke="#333333" stroke-width="2" fill="none">
<circle cx="301.295" cy="218.426" r="5.63548"/>
</g>
<g stroke="#333333" stroke-width="2" fill="none">
<circle cx="306.094" cy="220.578" r="5.63548"/>
</g>
<g stroke="#333333" stroke-width="2" fill="none">
<circle cx="310.894" cy="221.901" r="5.63548"/>
</g>
<g stroke="#333333" stroke-width="2" fill="none">
<circle cx="315.693" cy="224.684" r="5.63548"/>
</g>
<g stroke="#333333" stroke-width="2" fill="none">
<circle cx="320.492" cy="227.136" r="5.63548"/>
</g>
<g stroke="#333333" stroke-width="2" fill="none">
<circle cx="325.291" cy="225.447" r="5.63548"/>
</g>
<g stroke="#333333" stroke-width="2" fill="none">
<circle cx="330.091" cy="226.206" r="5.63548"/>
</g>
<g stroke="#333333" stroke-width="2" fill="none">
<circle cx="334.89" cy="226.113" r="5.63548"/>
</g>
<path d="M98.7518,258.248l 0.44993, -0.0583707l 0.44993, -0.0583707l 0.44993, -0.0583707l 0.44993, -0.0583707l 0.44993, -0.0583707l 0.44993, -0.0583707l 0.44993, -0.0583707l 0.44993, -0.0583707l 0.44993, -0.0583707l 0.44993, -0.0583707l 0.44993,
 -0.0583707l 0.44993, -0.0583707l 0.44993, -0.0583707l 0.44993, -0.0583707l 0.44993, -0.0583707l 0.44993, -0.0583707l 0.44993, -0.0583707l 0.44993, -0.0583707l 0.44993, -0.0583707l 0.44993, -0.0583707l 0.44993, -0.0583707l 0.44993, -0.0583707l
 0.44993, -0.0583707l 0.44993, -0.0583707l 0.44993, -0.0583707l 0.44993, -0.0583707l 0.44993, -0.0583707l 0.44993, -0.0583707l 0.44993, -0.0583707l 0.44993, -0.0583707l 0.44993, -0.0583707l 0.44993, -0.0583707l 0.44993, -0.0583707l 0.44993,
 -0.0583707l 0.44993, -0.0583707l 0.44993, -0.0583707l 0.44993, -0.0583707l 0.44993, -0.0583707l 0.44993, -0.0583707l 0.44993, -0.0583707l 0.44993, -0.0583707l 0.44993, -0.0583707l 0.44993, -0.0583707l 0.44993, -0.0583707l 0.44993, -0.0583707l
 0.44993, -0.0583707l 0.44993, -0.0583707l 0.44993, -0.0583707l 0.44993, -0.0583707" fill="none" stroke="#33cccc" stroke-width="3"/>
<path d="M120.798,255.388l 0.44993, -0.0583707l 0.44993, -0.0583707l 0.44993, -0.0583707l 0.44993, -0.0583707l 0.44993, -0.0583707l 0.44993, -0.0583707l 0.44993, -0.0583707l 0.44993, -0.0583707l 0.44993, -0.0583707l 0.44993, -0.0583707l 0.44993,
 -0.0583707l 0.44993, -0.0583707l 0.44993, -0.0583707l 0.44993, -0.0583707l 0.44993, -0.0583707l 0.44993, -0.0583707l 0.44993, -0.0583707l 0.44993, -0.0583707l 0.44993, -0.0583707l 0.44993, -0.0583707l 0.44993, -0.0583707l 0.44993, -0.0583707l
 0.44993, -0.0583707l 0.44993, -0.0583707l 0.44993, -0.0583707l 0.44993, -0.0583707l 0.44993, -0.0583707l 0.44993, -0.0583707l 0.44993, -0.0583707l 0.44993, -0.0583707l 0.44993, -0.0583707l 0.44993, -0.0583707l 0.44993, -0.0583707l 0.44993,
 -0.0583707l 0.44993, -0.0583707l 0.44993, -0.0583707l 0.44993, -0.0583707l 0.44993, -0.0583707l 0.44993, -0.0583707l 0.44993, -0.0583707l 0.44993, -0.0583707l 0.44993, -0.0583707l 0.44993, -0.0583707l 0.44993, -0.0583707l 0.44993, -0.0583707l
 0.44993, -0.0583707l 0.44993, -0.0583707l 0.44993, -0.0583707l 0.44993, -0.0583707" fill="none" stroke="#33cccc" stroke-width="3"/>
<path d="M142.845,252.527l 0.44993, -0.0583707l 0.44993, -0.0583707l 0.44993, -0.0583707l 0.44993, -0.0583707l 0.44993, -0.0583707l 0.44993, -0.0583707l 0.44993, -0.0583707l 0.44993, -0.0583707l 0.44993, -0.0583707l 0.44993, -0.0583707l 0.44993,
 -0.0583707l 0.44993, -0.0583707l 0.44993, -0.0583707l 0.44993, -0.0583707l 0.44993, -0.0583707l 0.44993, -0.0583707l 0.44993, -0.0583707l 0.44993, -0.0583707l 0.44993, -0.0583707l 0.44993, -0.0583707l 0.44993, -0.0583707l 0.44993, -0.0583707l
 0.44993, -0.0583707l 0.44993, -0.0583707l 0.44993, -0.0583707l 0.44993, -0.0583707l 0.44993, -0.0583707l 0.44993, -0.0583707l 0.44993, -0.0583707l 0.44993, -0.0583707l 0.44993, -0.0583707l 0.44993, -0.0583707l 0.44993, -0.0583707l 0.44993,
 -0.0583707l 0.44993, -0.0583707l 0.44993, -0.0583707l 0.44993, -0.0583707l 0.44993, -0.0583707l 0.44993, -0.0583707l 0.44993, -0.0583707l 0.44993, -0.0583707l 0.44993, -0.0583707l 0.44993, -0.0583707l 0.44993, -0.0583707l 0.44993, -0.0583707l
 0.44993, -0.0583707l 0.44993, -0.0583707l 0.44993, -0.0583707l 0.44993, -0.0583707" fill="none" stroke="#33cccc" stroke-width="3"/>
<path d="M164.891,249.667l 0.44993, -0.0583707l 0.44993, -0.0583707l 0.44993, -0.0583707l 0.44993, -0.0583707l 0.44993, -0.0583707l 0.44993, -0.0583707l 0.44993, -0.0583707l 0.44993, -0.0583707l 0.44993, -0.0583707l 0.44993, -0.0583707l 0.44993,
 -0.0583707l 0.44993, -0.0583707l 0.44993, -0.0583707l 0.44993, -0.0583707l 0.44993, -0.0583707l 0.44993, -0.0583707l 0.44993, -0.0583707l 0.44993, -0.0583707l 0.44993, -0.0583707l 0.44993, -0.0583707l 0.44993, -0.0583707l 0.44993, -0.0583707l
 0.44993, -0.0583707l 0.44993, -0.0583707l 0.44993, -0.0583707l 0.44993, -0.0583707l 0.44993, -0.0583707l 0.44993, -0.0583707l 0.44993, -0.0583707l 0.44993, -0.0583707l 0.44993, -0.0583707l 0.44993, -0.0583707l 0.44993, -0.0583707l 0.44993,
 -0.0583707l 0.44993, -0.0583707l 0.44993, -0.0583707l 0.44993, -0.0583707l 0.44993, -0.0583707l 0.44993, -0.0583707l 0.44993, -0.0583707l 0.44993, -0.0583707l 0.44993, -0.0583707l 0.44993, -0.0583707l 0.44993, -0.0583707l 0.44993, -0.0583707l
 0.44993, -0.0583707l 0.44993, -0.0583707l 0.44993, -0.0583707l 0.44993, -0.0583707" fill="none" stroke="#33cccc" stroke-width="3"/>
<path d="M186.938,246.807l 0.44993, -0.0583707l 0.44993, -0.0583707l 0.44993, -0.0583707l 0.44993, -0.0583707l 0.44993, -0.0583707l 0.44993, -0.0583707l 0.44993, -0.0583707l 0.44993, -0.0583707l 0.44993, -0.0583707l 0.44993, -0.0583707l 0.44993,
 -0.0583707l 0.44993, -0.0583707l 0.44993, -0.0583707l 0.44993, -0.0583707l 0.44993, -0.0583707l 0.44993, -0.0583707l 0.44993, -0.0583707l 0.44993, -0.0583707l 0.44993, -0.0583707l 0.44993, -0.0583707l 0.44993, -0.0583707l 0.44993, -0.0583707l
 0.44993, -0.0583707l 0.44993, -0.0583707l 0.44993, -0.0583707l 0.44993, -0.0583707l 0.44993, -0.0583707l 0.44993, -0.0583707l 0.44993, -0.0583707l 0.44993, -0.0583707l 0.44993, -0.0583707l 0.44993, -0.0583707l 0.44993, -0.0583707l 0.44993,
 -0.0583707l 0.44993, -0.0583707l 0.44993, -0.0583707l 0.44993, -0.0583707l 0.44993, -0.0583707l 0.44993, -0.0583707l 0.44993, -0.0583707l 0.44993, -0.0583707l 0.44993, -0.0583707l 0.44993, -0.0583707l 0.44993, -0.0583707l 0.44993, -0.0583707l
 0.44993, -0.0583707l 0.44993, -0.0583707l 0.44993, -0.0583707l 0.44993, -0.0583707" fill="none" stroke="#33cccc" stroke-width="3"/>
<path d="M208.985,243.947l 0.44993, -0.0583707l 0.44993, -0.0583707l 0.44993, -0.0583707l 0.44993, -0.0583707l 0.44993, -0.0583707l 0.44993, -0.0583707l 0.44993, -0.0583707l 0.44993, -0.0583707l 0.44993, -0.0583707l 0.44993, -0.0583707l 0.44993,
 -0.0583707l 0.44993, -0.0583707l 0.44993, -0.0583707l 0.44993, -0.0583707l 0.44993, -0.0583707l 0.44993, -0.0583707l 0.44993, -0.0583707l 0.44993, -0.0583707l 0.44993, -0.0583707l 0.44993, -0.0583707l 0.44993, -0.0583707l 0.44993, -0.0583707l
 0.44993, -0.0583707l 0.44993, -0.0583707l 0.44993, -0.0583707l 0.44993, -0.0583707l 0.44993, -0.0583707l 0.44993, -0.0583707l 0.44993, -0.0583707l 0.44993, -0.0583707l 0.44993, -0.0583707l 0.44993, -0.0583707l 0.44993, -0.0583707l 0.44993,
 -0.0583707l 0.44993, -0.0583707l 0.44993, -0.0583707l 0.44993, -0.0583707l 0.44993, -0.0583707l 0.44993, -0.0583707l 0.44993, -0.0583707l 0.44993, -0.0583707l 0.44993, -0.0583707l 0.44993, -0.0583707l 0.44993, -0.0583707l 0.44993, -0.0583707l
 0.44993, -0.0583707l 0.44993, -0.0583707l 0.44993, -0.0583707l 0.44993, -0.0583707" fill="none" stroke="#33cccc" stroke-width="3"/>
<path d="M231.031,241.087l 0.44993, -0.0583707l 0.44993, -0.0583707l 0.44993, -0.0583707l 0.44993, -0.0583707l 0.44993, -0.0583707l 0.44993, -0.0583707l 0.44993, -0.0583707l 0.44993, -0.0583707l 0.44993, -0.0583707l 0.44993, -0.0583707l 0.44993,
 -0.0583707l 0.44993, -0.0583707l 0.44993, -0.0583707l 0.44993, -0.0583707l 0.44993, -0.0583707l 0.44993, -0.0583707l 0.44993, -0.0583707l 0.44993, -0.0583707l 0.44993, -0.0583707l 0.44993, -0.0583707l 0.44993, -0.0583707l 0.44993, -0.0583707l
 0.44993, -0.0583707l 0.44993, -0.0583707l 0.44993, -0.0583707l 0.44993, -0.0583707l 0.44993, -0.0583707l 0.44993, -0.0583707l 0.44993, -0.0583707l 0.44993, -0.0583707l 0.44993, -0.0583707l 0.44993, -0.0583707l 0.44993, -0.0583707l 0.44993,
 -0.0583707l 0.44993, -0.0583707l 0.44993, -0.0583707l 0.44993, -0.0583707l 0.44993, -0.0583707l 0.44993, -0.0583707l 0.44993, -0.0583707l 0.44993, -0.0583707l 0.44993, -0.0583707l 0.44993, -0.0583707l 0.44993, -0.0583707l 0.44993, -0.0583707l
 0.44993, -0.0583707l 0.44993, -0.0583707l 0.44993, -0.0583707l 0.44993, -0.0583707" fill="none" stroke="#33cccc" stroke-width="3"/>
<path d="M253.078,238.227l 0.44993, -0.0583707l 0.44993, -0.0583707l 0.44993, -0.0583707l 0.44993, -0.0583707l 0.44993, -0.0583707l 0.44993, -0.0583707l 0.44993, -0.0583707l 0.44993, -0.0583707l 0.44993, -0.0583707l 0.44993, -0.0583707l 0.44993,
 -0.0583707l 0.44993, -0.0583707l 0.44993, -0.0583707l 0.44993, -0.0583707l 0.44993, -0.0583707l 0.44993, -0.0583707l 0.44993, -0.0583707l 0.44993, -0.0583707l 0.44993, -0.0583707l 0.44993, -0.0583707l 0.44993, -0.0583707l 0.44993, -0.0583707l
 0.44993, -0.0583707l 0.44993, -0.0583707l 0.44993, -0.0583707l 0.44993, -0.0583707l 0.44993, -0.0583707l 0.44993, -0.0583707l 0.44993, -0.0583707l 0.44993, -0.0583707l 0.44993, -0.0583707l 0.44993, -0.0583707l 0.44993, -0.0583707l 0.44993,
 -0.0583707l 0.44993, -0.0583707l 0.44993, -0.0583707l 0.44993, -0.0583707l 0.44993, -0.0583707l 0.44993, -0.0583707l 0.44993, -0.0583707l 0.44993, -0.0583707l 0.44993, -0.0583707l 0.44993, -0.0583707l 0.44993, -0.0583707l 0.44993, -0.0583707l
 0.44993, -0.0583707l 0.44993, -0.0583707l 0.44993, -0.0583707l 0.44993, -0.0583707" fill="none" stroke="#33cccc" stroke-width="3"/>
<path d="M275.124,235.366l 0.44993, -0.0583707l 0.44993, -0.0583707l 0.44993, -0.0583707l 0.44993, -0.0583707l 0.44993, -0.0583707l 0.44993, -0.0583707l 0.44993, -0.0583707l 0.44993, -0.0583707l 0.44993, -0.0583707l 0.44993, -0.0583707l 0.44993,
 -0.0583707l 0.44993, -0.0583707l 0.44993, -0.0583707l 0.44993, -0.0583707l 0.44993, -0.0583707l 0.44993, -0.0583707l 0.44993, -0.0583707l 0.44993, -0.0583707l 0.44993, -0.0583707l 0.44993, -0.0583707l 0.44993, -0.0583707l 0.44993, -0.0583707l
 0.44993, -0.0583707l 0.44993, -0.0583707l 0.44993, -0.0583707l 0.44993, -0.0583707l 0.44993, -0.0583707l 0.44993, -0.0583707l 0.44993, -0.0583707l 0.44993, -0.0583707l 0.44993, -0.0583707l 0.44993, -0.0583707l 0.44993, -0.0583707l 0.44993,
 -0.0583707l 0.44993, -0.0583707l 0.44993, -0.0583707l 0.44993, -0.0583707l 0.44993, -0.0583707l 0.44993, -0.0583707l 0.44993, -0.0583707l 0.44993, -0.0583707l 0.44993, -0.0583707l 0.44993, -0.0583707l 0.44993, -0.0583707l 0.44993, -0.0583707l
 0.44993, -0.0583707l 0.44993, -0.0583707l 0.44993, -0.0583707l 0.44993, -0.0583707" fill="none" stroke="#33cccc" stroke-width="3"/>
<path d="M297.171,232.506l 0.44993, -0.0583707l 0.44993, -0.0583707l 0.44993, -0.0583707l 0.44993, -0.0583707l 0.44993, -0.0583707l 0.44993, -0.0583707l 0.44993, -0.0583707l 0.44993, -0.0583707l 0.44993, -0.0583707l 0.44993, -0.0583707l 0.44993,
 -0.0583707l 0.44993, -0.0583707l 0.44993, -0.0583707l 0.44993, -0.0583707l 0.44993, -0.0583707l 0.44993, -0.0583707l 0.44993, -0.0583707l 0.44993, -0.0583707l 0.44993, -0.0583707l 0.44993, -0.0583707l 0.44993, -0.0583707l 0.44993, -0.0583707l
 0.44993, -0.0583707l 0.44993, -0.0583707l 0.44993, -0.0583707l 0.44993, -0.0583707l 0.44993, -0.0583707l 0.44993, -0.0583707l 0.44993, -0.0583707l 0.44993, -0.0583707l 0.44993, -0.0583707l 0.44993, -0.0583707l 0.44993, -0.0583707l 0.44993,
 -0.0583707l 0.44993, -0.0583707l 0.44993, -0.0583707l 0.44993, -0.0583707l 0.44993, -0.0583707l 0.44993, -0.0583707l 0.44993, -0.0583707l 0.44993, -0.0583707l 0.44993, -0.0583707l 0.44993, -0.0583707l 0.44993, -0.0583707l 0.44993, -0.0583707l
 0.44993, -0.0583707l 0.44993, -0.0583707l 0.44993, -0.0583707l 0.44993, -0.0583707" fill="none" stroke="#33cccc" stroke-width="3"/>
<path d="M319.217,229.646l 0.44993, -0.0583707l 0.44993, -0.0583707l 0.44993, -0.0583707l 0.44993, -0.0583707l 0.44993, -0.0583707l 0.44993, -0.0583707l 0.44993, -0.0583707l 0.44993, -0.0583707l 0.44993, -0.0583707l 0.44993, -0.0583707l 0.44993,
 -0.0583707l 0.44993, -0.0583707l 0.44993, -0.0583707l 0.44993, -0.0583707l 0.44993, -0.0583707l 0.44993, -0.0583707l 0.44993, -0.0583707l 0.44993, -0.0583707l 0.44993, -0.0583707l 0.44993, -0.0583707l 0.44993, -0.0583707l 0.44993, -0.0583707l
 0.44993, -0.0583707l 0.44993, -0.0583707l 0.44993, -0.0583707l 0.44993, -0.0583707l 0.44993, -0.0583707l 0.44993, -0.0583707l 0.44993, -0.0583707l 0.44993, -0.0583707l 0.44993, -0.0583707l 0.44993, -0.0583707l 0.44993, -0.0583707l 0.44993,
 -0.0583707l 0.44993, -0.0583707l 0.44993, -0.0583707l 0.44993, -0.0583707l 0.44993, -0.0583707l 0.44993, -0.0583707l 0.44993, -0.0583707l 0.44993, -0.0583707l 0.44993, -0.0583707l 0.44993, -0.0583707l 0.44993, -0.0583707l 0.44993, -0.0583707l
 0.44993, -0.0583707l 0.44993, -0.0583707l 0.44993, -0.0583707l 0.44993, -0.0583707" fill="none" stroke="#33cccc" stroke-width="3"/>
<path d="M341.264,226.786l 0.44993, -0.0583707l 0.44993, -0.0583707l 0.44993, -0.0583707l 0.44993, -0.0583707l 0.44993, -0.0583707l 0.44993, -0.0583707l 0.44993, -0.0583707l 0.44993, -0.0583707l 0.44993, -0.0583707l 0.44993, -0.0583707l 0.44993,
 -0.0583707l 0.44993, -0.0583707l 0.44993, -0.0583707l 0.44993, -0.0583707l 0.44993, -0.0583707l 0.44993, -0.0583707l 0.44993, -0.0583707l 0.44993, -0.0583707l 0.44993, -0.0583707l 0.44993, -0.0583707l 0.44993, -0.0583707l 0.44993, -0.0583707l
 0.44993, -0.0583707l 0.44993, -0.0583707l 0.44993, -0.0583707l 0.44993, -0.0583707l 0.44993, -0.0583707l 0.44993, -0.0583707l 0.44993, -0.0583707l 0.44993, -0.0583707l 0.44993, -0.0583707l 0.44993, -0.0583707l 0.44993, -0.0583707l 0.44993,
 -0.0583707l 0.44993, -0.0583707l 0.44993, -0.0583707l 0.44993, -0.0583707l 0.44993, -0.0583707l 0.44993, -0.0583707l 0.44993, -0.0583707l 0.44993, -0.0583707l 0.44993, -0.0583707l 0.44993, -0.0583707l 0.44993, -0.0583707l 0.44993, -0.0583707l
 0.44993, -0.0583707l 0.44993, -0.0583707l 0.44993, -0.0583707l 0.44993, -0.0583707" fill="none" stroke="#33cccc" stroke-width="3"/>
<path d="M363.311,223.926l 0.44993, -0.0583707l 0.44993, -0.0583707l 0.44993, -0.0583707l 0.44993, -0.0583707l 0.44993, -0.0583707l 0.44993, -0.0583707l 0.44993, -0.0583707l 0.44993, -0.0583707l 0.44993, -0.0583707l 0.44993, -0.0583707l 0.44993,
 -0.0583707l 0.44993, -0.0583707l 0.44993, -0.0583707l 0.44993, -0.0583707l 0.44993, -0.0583707l 0.44993, -0.0583707l 0.44993, -0.0583707l 0.44993, -0.0583707l 0.44993, -0.0583707l 0.44993, -0.0583707l 0.44993, -0.0583707l 0.44993, -0.0583707l
 0.44993, -0.0583707l 0.44993, -0.0583707l 0.44993, -0.0583707l 0.44993, -0.0583707l 0.44993, -0.0583707l 0.44993, -0.0583707l 0.44993, -0.0583707l 0.44993, -0.0583707l 0.44993, -0.0583707l 0.44993, -0.0583707l 0.44993, -0.0583707l 0.44993,
 -0.0583707l 0.44993, -0.0583707l 0.44993, -0.0583707l 0.44993, -0.0583707l 0.44993, -0.0583707l 0.44993, -0.0583707l 0.44993, -0.0583707l 0.44993, -0.0583707l 0.44993, -0.0583707l 0.44993, -0.0583707l 0.44993, -0.0583707l 0.44993, -0.0583707l
 0.44993, -0.0583707l 0.44993, -0.0583707l 0.44993, -0.0583707l 0.44993, -0.0583707" fill="none" stroke="#33cccc" stroke-width="3"/>
<path d="M385.357,221.066l 0.44993, -0.0583707l 0.44993, -0.0583707l 0.44993, -0.0583707l 0.44993, -0.0583707l 0.44993, -0.0583707l 0.44993, -0.0583707l 0.44993, -0.0583707l 0.44993, -0.0583707l 0.44993, -0.0583707l 0.44993, -0.0583707l 0.44993,
 -0.0583707l 0.44993, -0.0583707l 0.44993, -0.0583707l 0.44993, -0.0583707l 0.44993, -0.0583707l 0.44993, -0.0583707l 0.44993, -0.0583707l 0.44993, -0.0583707l 0.44993, -0.0583707l 0.44993, -0.0583707l 0.44993, -0.0583707l 0.44993, -0.0583707l
 0.44993, -0.0583707l 0.44993, -0.0583707l 0.44993, -0.0583707l 0.44993, -0.0583707l 0.44993, -0.0583707l 0.44993, -0.0583707l 0.44993, -0.0583707l 0.44993, -0.0583707l 0.44993, -0.0583707l 0.44993, -0.0583707l 0.44993, -0.0583707l 0.44993,
 -0.0583707l 0.44993, -0.0583707l 0.44993, -0.0583707l 0.44993, -0.0583707l 0.44993, -0.0583707l 0.44993, -0.0583707l 0.44993, -0.0583707l 0.44993, -0.0583707l 0.44993, -0.0583707l 0.44993, -0.0583707l 0.44993, -0.0583707l 0.44993, -0.0583707l
 0.44993, -0.0583707l 0.44993, -0.0583707l 0.44993, -0.0583707l 0.44993, -0.0583707" fill="none" stroke="#33cccc" stroke-width="3"/>
<path d="M407.404,218.205l 0.44993, -0.0583707l 0.44993, -0.0583707l 0.44993, -0.0583707l 0.44993, -0.0583707l 0.44993, -0.0583707l 0.44993, -0.0583707l 0.44993, -0.0583707l 0.44993, -0.0583707l 0.44993, -0.0583707l 0.44993, -0.0583707l 0.44993,
 -0.0583707l 0.44993, -0.0583707l 0.44993, -0.0583707l 0.44993, -0.0583707l 0.44993, -0.0583707l 0.44993, -0.0583707l 0.44993, -0.0583707l 0.44993, -0.0583707l 0.44993, -0.0583707l 0.44993, -0.0583707l 0.44993, -0.0583707l 0.44993, -0.0583707l
 0.44993, -0.0583707l 0.44993, -0.0583707l 0.44993, -0.0583707l 0.44993, -0.0583707l 0.44993, -0.0583707l 0.44993, -0.0583707l 0.44993, -0.0583707l 0.44993, -0.0583707l 0.44993, -0.0583707l 0.44993, -0.0583707l 0.44993, -0.0583707l 0.44993,
 -0.0583707l 0.44993, -0.0583707l 0.44993, -0.0583707l 0.44993, -0.0583707l 0.44993, -0.0583707l 0.44993, -0.0583707l 0.44993, -0.0583707l 0.44993, -0.0583707l 0.44993, -0.0583707l 0.44993, -0.0583707l 0.44993, -0.0583707l 0.44993, -0.0583707l
 0.44993, -0.0583707l 0.44993, -0.0583707l 0.44993, -0.0583707l 0.44993, -0.0583707" fill="none" stroke="#33cccc" stroke-width="3"/>
<path d="M429.45,215.345l 0.44993, -0.0583707l 0.44993, -0.0583707l 0.44993, -0.0583707l 0.44993, -0.0583707l 0.44993, -0.0583707l 0.44993, -0.0583707l 0.44993, -0.0583707l 0.44993, -0.0583707l 0.44993, -0.0583707l 0.44993, -0.0583707l 0.44993,
 -0.0583707l 0.44993, -0.0583707l 0.44993, -0.0583707l 0.44993, -0.0583707l 0.44993, -0.0583707l 0.44993, -0.0583707l 0.44993, -0.0583707l 0.44993, -0.0583707l 0.44993, -0.0583707l 0.44993, -0.0583707l 0.44993, -0.0583707l 0.44993, -0.0583707l
 0.44993, -0.0583707l 0.44993, -0.0583707l 0.44993, -0.0583707l 0.44993, -0.0583707l 0.44993, -0.0583707l 0.44993, -0.0583707l 0.44993, -0.0583707l 0.44993, -0.0583707l 0.44993, -0.0583707l 0.44993, -0.0583707l 0.44993, -0.0583707l 0.44993,
 -0.0583707l 0.44993, -0.0583707l 0.44993, -0.0583707l 0.44993, -0.0583707l 0.44993, -0.0583707l 0.44993, -0.0583707l 0.44993, -0.0583707l 0.44993, -0.0583707l 0.44993, -0.0583707l 0.44993, -0.0583707l 0.44993, -0.0583707l 0.44993, -0.0583707l
 0.44993, -0.0583707l 0.44993, -0.0583707l 0.44993, -0.0583707l 0.44993, -0.0583707" fill="none" stroke="#33cccc" stroke-width="3"/>
<path d="M451.497,212.485l 0.44993, -0.0583707l 0.44993, -0.0583707l 0.44993, -0.0583707l 0.44993, -0.0583707l 0.44993, -0.0583707l 0.44993, -0.0583707l 0.44993, -0.0583707l 0.44993, -0.0583707l 0.44993, -0.0583707l 0.44993, -0.0583707l 0.44993,
 -0.0583707l 0.44993, -0.0583707l 0.44993, -0.0583707l 0.44993, -0.0583707l 0.44993, -0.0583707l 0.44993, -0.0583707l 0.44993, -0.0583707l 0.44993, -0.0583707l 0.44993, -0.0583707l 0.44993, -0.0583707l 0.44993, -0.0583707l 0.44993, -0.0583707l
 0.44993, -0.0583707l 0.44993, -0.0583707l 0.44993, -0.0583707l 0.44993, -0.0583707l 0.44993, -0.0583707l 0.44993, -0.0583707l 0.44993, -0.0583707l 0.44993, -0.0583707l 0.44993, -0.0583707l 0.44993, -0.0583707l 0.44993, -0.0583707l 0.44993,
 -0.0583707l 0.44993, -0.0583707l 0.44993, -0.0583707l 0.44993, -0.0583707l 0.44993, -0.0583707l 0.44993, -0.0583707l 0.44993, -0.0583707l 0.44993, -0.0583707l 0.44993, -0.0583707l 0.44993, -0.0583707l 0.44993, -0.0583707l 0.44993, -0.0583707l
 0.44993, -0.0583707l 0.44993, -0.0583707l 0.44993, -0.0583707l 0.44993, -0.0583707" fill="none" stroke="#33cccc" stroke-width="3"/>
<path d="M473.543,209.625l 0.44993, -0.0583707l 0.44993, -0.0583707l 0.44993, -0.0583707l 0.44993, -0.0583707l 0.44993, -0.0583707l 0.44993, -0.0583707l 0.44993, -0.0583707l 0.44993, -0.0583707l 0.44993, -0.0583707l 0.44993, -0.0583707l 0.44993,
 -0.0583707l 0.44993, -0.0583707l 0.44993, -0.0583707l 0.44993, -0.0583707l 0.44993, -0.0583707l 0.44993, -0.0583707l 0.44993, -0.0583707l 0.44993, -0.0583707l 0.44993, -0.0583707l 0.44993, -0.0583707l 0.44993, -0.0583707l 0.44993, -0.0583707l
 0.44993, -0.0583707l 0.44993, -0.0583707l 0.44993, -0.0583707l 0.44993, -0.0583707l 0.44993, -0.0583707l 0.44993, -0.0583707l 0.44993, -0.0583707l 0.44993, -0.0583707l 0.44993, -0.0583707l 0.44993, -0.0583707l 0.44993, -0.0583707l 0.44993,
 -0.0583707l 0.44993, -0.0583707l 0.44993, -0.0583707l 0.44993, -0.0583707l 0.44993, -0.0583707l 0.44993, -0.0583707l 0.44993, -0.0583707l 0.44993, -0.0583707l 0.44993, -0.0583707l 0.44993, -0.0583707l 0.44993, -0.0583707l 0.44993, -0.0583707l
 0.44993, -0.0583707l 0.44993, -0.0583707l 0.44993, -0.0583707l 0.44993, -0.0583707" fill="none" stroke="#33cccc" stroke-width="3"/>
<path d="M495.59,206.765l 0.44993, -0.0583707l 0.44993, -0.0583707l 0.44993, -0.0583707l 0.44993, -0.0583707l 0.44993, -0.0583707l 0.44993, -0.0583707l 0.44993, -0.0583707l 0.44993, -0.0583707l 0.44993, -0.0583707l 0.44993, -0.0583707l 0.44993,
 -0.0583707l 0.44993, -0.0583707l 0.44993, -0.0583707l 0.44993, -0.0583707l 0.44993, -0.0583707l 0.44993, -0.0583707l 0.44993, -0.0583707l 0.44993, -0.0583707l 0.44993, -0.0583707l 0.44993, -0.0583707l 0.44993, -0.0583707l 0.44993, -0.0583707l
 0.44993, -0.0583707l 0.44993, -0.0583707l 0.44993, -0.0583707l 0.44993, -0.0583707l 0.44993, -0.0583707l 0.44993, -0.0583707l 0.44993, -0.0583707l 0.44993, -0.0583707l 0.44993, -0.0583707l 0.44993, -0.0583707l 0.44993, -0.0583707l 0.44993,
 -0.0583707l 0.44993, -0.0583707l 0.44993, -0.0583707l 0.44993, -0.0583707l 0.44993, -0.0583707l 0.44993, -0.0583707l 0.44993, -0.0583707l 0.44993, -0.0583707l 0.44993, -0.0583707l 0.44993, -0.0583707l 0.44993, -0.0583707l 0.44993, -0.0583707l
 0.44993, -0.0583707l 0.44993, -0.0583707l 0.44993, -0.0583707l 0.44993, -0.0583707" fill="none" stroke="#33cccc" stroke-width="3"/>
<path d="M517.636,203.905l 0.44993, -0.0583707l 0.44993, -0.0583707l 0.44993, -0.0583707l 0.44993, -0.0583707l 0.44993, -0.0583707l 0.44993, -0.0583707l 0.44993, -0.0583707l 0.44993, -0.0583707l 0.44993, -0.0583707l 0.44993, -0.0583707l 0.44993,
 -0.0583707l 0.44993, -0.0583707l 0.44993, -0.0583707l 0.44993, -0.0583707l 0.44993, -0.0583707l 0.44993, -0.0583707l 0.44993, -0.0583707l 0.44993, -0.0583707l 0.44993, -0.0583707l 0.44993, -0.0583707l 0.44993, -0.0583707l 0.44993, -0.0583707l
 0.44993, -0.0583707l 0.44993, -0.0583707l 0.44993, -0.0583707l 0.44993, -0.0583707l 0.44993, -0.0583707l 0.44993, -0.0583707l 0.44993, -0.0583707l 0.44993, -0.0583707l 0.44993, -0.0583707l 0.44993, -0.0583707l 0.44993, -0.0583707l 0.44993,
 -0.0583707l 0.44993, -0.0583707l 0.44993, -0.0583707l 0.44993, -0.0583707l 0.44993, -0.0583707l 0.44993, -0.0583707l 0.44993, -0.0583707l 0.44993, -0.0583707l 0.44993, -0.0583707l 0.44993, -0.0583707l 0.44993, -0.0583707l 0.44993, -0.0583707l
 0.44993, -0.0583707l 0.44993, -0.0583707l 0.44993, -0.0583707l 0.44993, -0.0583707" fill="none" stroke="#33cccc" stroke-width="3"/>
<path d="M539.683,201.044l 0.44993, -0.0583707l 0.44993, -0.0583707l 0.44993, -0.0583707l 0.44993, -0.0583707l 0.44993, -0.0583707l 0.44993, -0.0583707l 0.44993, -0.0583707l 0.44993, -0.0583707l 0.44993, -0.0583707l 0.44993, -0.0583707l 0.44993,
 -0.0583707l 0.44993, -0.0583707l 0.44993, -0.0583707l 0.44993, -0.0583707l 0.44993, -0.0583707l 0.44993, -0.0583707l 0.44993, -0.0583707l 0.44993, -0.0583707l 0.44993, -0.0583707" fill="none" stroke="#33cccc" stroke-width="3"/>
<path d="M98.7518,265.296l 0.44993, -0.0857782l 0.44993, -0.0857293l 0.44993, -0.0856804l 0.44993, -0.0856316l 0.44993, -0.0855827l 0.44993, -0.0855338l 0.44993, -0.085485l 0.44993, -0.0854361l 0.44993, -0.0853872l 0.44993, -0.0853384l 0.44993,
 -0.0852895l 0.44993, -0.0852406l 0.44993, -0.0851918l 0.44993, -0.0851429l 0.44993, -0.085094l 0.44993, -0.0850452l 0.44993, -0.0849963l 0.44993, -0.0849474l 0.44993, -0.0848986l 0.44993, -0.0848497l 0.44993, -0.0848008l 0.44993, -0.0847519l
 0.44993, -0.0847031l 0.44993, -0.0846542l 0.44993, -0.0846054l 0.44993, -0.0845565l 0.44993, -0.0845076l 0.44993, -0.0844587l 0.44993, -0.0844099l 0.44993, -0.084361l 0.44993, -0.0843121l 0.44993, -0.0842633l 0.44993, -0.0842144l 0.44993,
 -0.0841655l 0.44993, -0.0841167l 0.44993, -0.0840678l 0.44993, -0.0840189l 0.44993, -0.0839701l 0.44993, -0.0839212l 0.44993, -0.0838723l 0.44993, -0.0838235l 0.44993, -0.0837746l 0.44993, -0.0837257l 0.44993, -0.0836769l 0.44993, -0.083628l
 0.44993, -0.0835791l 0.44993, -0.0835303l 0.44993, -0.0834814l 0.44993, -0.0834325" fill="none" stroke="#ff0066" stroke-width="3"/>
<path d="M120.798,261.15l 0.44993, -0.0833836l 0.44993, -0.0833348l 0.44993, -0.0832859l 0.44993, -0.0832371l 0.44993, -0.0831882l 0.44993, -0.0831393l 0.44993, -0.0830904l 0.44993, -0.0830416l 0.44993, -0.0829927l 0.44993, -0.0829438l 0.44993,
 -0.082895l 0.44993, -0.0828461l 0.44993, -0.0827972l 0.44993, -0.0827484l 0.44993, -0.0826995l 0.44993, -0.0826506l 0.44993, -0.0826018l 0.44993, -0.0825529l 0.44993, -0.082504l 0.44993, -0.0824552l 0.44993, -0.0824063l 0.44993, -0.0823574l 0.44993,
 -0.0823086l 0.44993, -0.0822597l 0.44993, -0.0822108l 0.44993, -0.082162l 0.44993, -0.0821131l 0.44993, -0.0820642l 0.44993, -0.0820154l 0.44993, -0.0819665l 0.44993, -0.0819176l 0.44993, -0.0818687l 0.44993, -0.0818199l 0.44993, -0.081771l 0.44993,
 -0.0817221l 0.44993, -0.0816733l 0.44993, -0.0816244l 0.44993, -0.0815755l 0.44993, -0.0815267l 0.44993, -0.0814778l 0.44993, -0.0814289l 0.44993, -0.0813801l 0.44993, -0.0813312l 0.44993, -0.0812823l 0.44993, -0.0812335l 0.44993, -0.0811846l
 0.44993, -0.0811357l 0.44993, -0.0810869l 0.44993, -0.081038" fill="none" stroke="#ff0066" stroke-width="3"/>
<path d="M142.845,257.122l 0.44993, -0.0809891l 0.44993, -0.0809403l 0.44993, -0.0808914l 0.44993, -0.0808425l 0.44993, -0.0807937l 0.44993, -0.0807448l 0.44993, -0.0806959l 0.44993, -0.0806471l 0.44993, -0.0805982l 0.44993, -0.0805493l 0.44993,
 -0.0805004l 0.44993, -0.0804516l 0.44993, -0.0804027l 0.44993, -0.0803538l 0.44993, -0.080305l 0.44993, -0.0802561l 0.44993, -0.0802072l 0.44993, -0.0801584l 0.44993, -0.0801095l 0.44993, -0.0800606l 0.44993, -0.0800118l 0.44993, -0.0799629l
 0.44993, -0.079914l 0.44993, -0.0798652l 0.44993, -0.0798163l 0.44993, -0.0797674l 0.44993, -0.0797186l 0.44993, -0.0796697l 0.44993, -0.0796208l 0.44993, -0.079572l 0.44993, -0.0795231l 0.44993, -0.0794742l 0.44993, -0.0794254l 0.44993, -0.0793765l
 0.44993, -0.0793276l 0.44993, -0.0792788l 0.44993, -0.0792299l 0.44993, -0.079181l 0.44993, -0.0791321l 0.44993, -0.0790833l 0.44993, -0.0790344l 0.44993, -0.0789855l 0.44993, -0.0789367l 0.44993, -0.0788878l 0.44993, -0.0788389l 0.44993,
 -0.0787901l 0.44993, -0.0787412l 0.44993, -0.0786923l 0.44993, -0.0786435" fill="none" stroke="#ff0066" stroke-width="3"/>
<path d="M164.891,253.211l 0.44993, -0.0785946l 0.44993, -0.0785457l 0.44993, -0.0784969l 0.44993, -0.078448l 0.44993, -0.0783991l 0.44993, -0.0783503l 0.44993, -0.0783014l 0.44993, -0.0782525l 0.44993, -0.0782037l 0.44993, -0.0781548l 0.44993,
 -0.0781059l 0.44993, -0.0780571l 0.44993, -0.0780082l 0.44993, -0.0779593l 0.44993, -0.0779105l 0.44993, -0.0778616l 0.44993, -0.0778127l 0.44993, -0.0777638l 0.44993, -0.077715l 0.44993, -0.0776661l 0.44993, -0.0776172l 0.44993, -0.0775684l
 0.44993, -0.0775195l 0.44993, -0.0774706l 0.44993, -0.0774218l 0.44993, -0.0773729l 0.44993, -0.077324l 0.44993, -0.0772752l 0.44993, -0.0772263l 0.44993, -0.0771774l 0.44993, -0.0771286l 0.44993, -0.0770797l 0.44993, -0.0770308l 0.44993, -0.076982l
 0.44993, -0.0769331l 0.44993, -0.0768842l 0.44993, -0.0768354l 0.44993, -0.0767865l 0.44993, -0.0767376l 0.44993, -0.0766888l 0.44993, -0.0766399l 0.44993, -0.076591l 0.44993, -0.0765422l 0.44993, -0.0764933l 0.44993, -0.0764444l 0.44993,
 -0.0763955l 0.44993, -0.0763467l 0.44993, -0.0762978l 0.44993, -0.0762489" fill="none" stroke="#ff0066" stroke-width="3"/>
<path d="M186.938,249.417l 0.44993, -0.0762001l 0.44993, -0.0761512l 0.44993, -0.0761023l 0.44993, -0.0760535l 0.44993, -0.0760046l 0.44993, -0.0759557l 0.44993, -0.0759069l 0.44993, -0.075858l 0.44993, -0.0758091l 0.44993, -0.0757603l 0.44993,
 -0.0757114l 0.44993, -0.0756625l 0.44993, -0.0756137l 0.44993, -0.0755648l 0.44993, -0.0755159l 0.44993, -0.0754671l 0.44993, -0.0754182l 0.44993, -0.0753693l 0.44993, -0.0753205l 0.44993, -0.0752716l 0.44993, -0.0752227l 0.44993, -0.0751739l
 0.44993, -0.075125l 0.44993, -0.0750761l 0.44993, -0.0750272l 0.44993, -0.0749784l 0.44993, -0.0749295l 0.44993, -0.0748806l 0.44993, -0.0748318l 0.44993, -0.0747829l 0.44993, -0.074734l 0.44993, -0.0746852l 0.44993, -0.0746363l 0.44993, -0.0745874l
 0.44993, -0.0745386l 0.44993, -0.0744897l 0.44993, -0.0744408l 0.44993, -0.074392l 0.44993, -0.0743431l 0.44993, -0.0742942l 0.44993, -0.0742454l 0.44993, -0.0741965l 0.44993, -0.0741476l 0.44993, -0.0740988l 0.44993, -0.0740499l 0.44993, -0.074001l
 0.44993, -0.0739522l 0.44993, -0.0739033l 0.44993, -0.0738544" fill="none" stroke="#ff0066" stroke-width="3"/>
<path d="M208.985,245.741l 0.44993, -0.0738056l 0.44993, -0.0737567l 0.44993, -0.0737078l 0.44993, -0.073659l 0.44993, -0.0736101l 0.44993, -0.0735612l 0.44993, -0.0735123l 0.44993, -0.0734635l 0.44993, -0.0734146l 0.44993, -0.0733657l 0.44993,
 -0.0733169l 0.44993, -0.073268l 0.44993, -0.0732191l 0.44993, -0.0731703l 0.44993, -0.0731214l 0.44993, -0.0730725l 0.44993, -0.0730237l 0.44993, -0.0729748l 0.44993, -0.0729259l 0.44993, -0.0728771l 0.44993, -0.0728282l 0.44993, -0.0727793l
 0.44993, -0.0727305l 0.44993, -0.0726816l 0.44993, -0.0726327l 0.44993, -0.0725839l 0.44993, -0.072535l 0.44993, -0.0724861l 0.44993, -0.0724373l 0.44993, -0.0723884l 0.44993, -0.0723395l 0.44993, -0.0722907l 0.44993, -0.0722418l 0.44993,
 -0.0721929l 0.44993, -0.072144l 0.44993, -0.0720952l 0.44993, -0.0720463l 0.44993, -0.0719974l 0.44993, -0.0719486l 0.44993, -0.0718997l 0.44993, -0.0718508l 0.44993, -0.071802l 0.44993, -0.0717531l 0.44993, -0.0717042l 0.44993, -0.0716554l 0.44993,
 -0.0716065l 0.44993, -0.0715576l 0.44993, -0.0715088l 0.44993, -0.0714599" fill="none" stroke="#ff0066" stroke-width="3"/>
<path d="M231.031,242.182l 0.44993, -0.071411l 0.44993, -0.0713622l 0.44993, -0.0713133l 0.44993, -0.0712644l 0.44993, -0.0712156l 0.44993, -0.0711667l 0.44993, -0.0711178l 0.44993, -0.071069l 0.44993, -0.0710201l 0.44993, -0.0709712l 0.44993,
 -0.0709224l 0.44993, -0.0708735l 0.44993, -0.0708246l 0.44993, -0.0707757l 0.44993, -0.0707269l 0.44993, -0.070678l 0.44993, -0.0706291l 0.44993, -0.0705803l 0.44993, -0.0705314l 0.44993, -0.0704825l 0.44993, -0.0704337l 0.44993, -0.0703848l
 0.44993, -0.0703359l 0.44993, -0.0702871l 0.44993, -0.0702382l 0.44993, -0.0701893l 0.44993, -0.0701405l 0.44993, -0.0700916l 0.44993, -0.0700427l 0.44993, -0.0699939l 0.44993, -0.069945l 0.44993, -0.0698961l 0.44993, -0.0698473l 0.44993,
 -0.0697984l 0.44993, -0.0697495l 0.44993, -0.0697007l 0.44993, -0.0696518l 0.44993, -0.0696029l 0.44993, -0.0695541l 0.44993, -0.0695052l 0.44993, -0.0694563l 0.44993, -0.0694074l 0.44993, -0.0693586l 0.44993, -0.0693097l 0.44993, -0.0692608l
 0.44993, -0.069212l 0.44993, -0.0691631l 0.44993, -0.0691142l 0.44993, -0.0690654" fill="none" stroke="#ff0066" stroke-width="3"/>
<path d="M253.078,238.74l 0.44993, -0.0690165l 0.44993, -0.0689676l 0.44993, -0.0689188l 0.44993, -0.0688699l 0.44993, -0.068821l 0.44993, -0.0687722l 0.44993, -0.0687233l 0.44993, -0.0686744l 0.44993, -0.0686256l 0.44993, -0.0685767l 0.44993,
 -0.0685278l 0.44993, -0.068479l 0.44993, -0.0684301l 0.44993, -0.0683812l 0.44993, -0.0683324l 0.44993, -0.0682835l 0.44993, -0.0682346l 0.44993, -0.0681858l 0.44993, -0.0681369l 0.44993, -0.068088l 0.44993, -0.0680391l 0.44993, -0.0679903l 0.44993,
 -0.0679414l 0.44993, -0.0678925l 0.44993, -0.0678437l 0.44993, -0.0677948l 0.44993, -0.0677459l 0.44993, -0.0676971l 0.44993, -0.0676482l 0.44993, -0.0675993l 0.44993, -0.0675505l 0.44993, -0.0675016l 0.44993, -0.0674527l 0.44993, -0.0674039l
 0.44993, -0.067355l 0.44993, -0.0673061l 0.44993, -0.0672573l 0.44993, -0.0672084l 0.44993, -0.0671595l 0.44993, -0.0671107l 0.44993, -0.0670618l 0.44993, -0.0670129l 0.44993, -0.0669641l 0.44993, -0.0669152l 0.44993, -0.0668663l 0.44993,
 -0.0668175l 0.44993, -0.0667686l 0.44993, -0.0667197l 0.44993, -0.0666708" fill="none" stroke="#ff0066" stroke-width="3"/>
<path d="M275.124,235.416l 0.44993, -0.066622l 0.44993, -0.0665731l 0.44993, -0.0665242l 0.44993, -0.0664754l 0.44993, -0.0664265l 0.44993, -0.0663776l 0.44993, -0.0663288l 0.44993, -0.0662799l 0.44993, -0.066231l 0.44993, -0.0661822l 0.44993,
 -0.0661333l 0.44993, -0.0660844l 0.44993, -0.0660356l 0.44993, -0.0659867l 0.44993, -0.0659378l 0.44993, -0.065889l 0.44993, -0.0658401l 0.44993, -0.0657912l 0.44993, -0.0657424l 0.44993, -0.0656935l 0.44993, -0.0656446l 0.44993, -0.0655958l
 0.44993, -0.0655469l 0.44993, -0.065498l 0.44993, -0.0654492l 0.44993, -0.0654003l 0.44993, -0.0653514l 0.44993, -0.0653026l 0.44993, -0.0652537l 0.44993, -0.0652048l 0.44993, -0.0651559l 0.44993, -0.0651071l 0.44993, -0.0650582l 0.44993,
 -0.0650093l 0.44993, -0.0649605l 0.44993, -0.0649116l 0.44993, -0.0648627l 0.44993, -0.0648139l 0.44993, -0.064765l 0.44993, -0.0647161l 0.44993, -0.0646673l 0.44993, -0.0646184l 0.44993, -0.0645695l 0.44993, -0.0645207l 0.44993, -0.0644718l
 0.44993, -0.0644229l 0.44993, -0.0643741l 0.44993, -0.0643252l 0.44993, -0.0642763" fill="none" stroke="#ff0066" stroke-width="3"/>
<path d="M297.171,232.209l 0.44993, -0.0642275l 0.44993, -0.0641786l 0.44993, -0.0641297l 0.44993, -0.0640809l 0.44993, -0.064032l 0.44993, -0.0639831l 0.44993, -0.0639343l 0.44993, -0.0638854l 0.44993, -0.0638365l 0.44993, -0.0637876l 0.44993,
 -0.0637388l 0.44993, -0.0636899l 0.44993, -0.063641l 0.44993, -0.0635922l 0.44993, -0.0635433l 0.44993, -0.0634944l 0.44993, -0.0634456l 0.44993, -0.0633967l 0.44993, -0.0633478l 0.44993, -0.063299l 0.44993, -0.0632501l 0.44993, -0.0632012l 0.44993,
 -0.0631524l 0.44993, -0.0631035l 0.44993, -0.0630546l 0.44993, -0.0630058l 0.44993, -0.0629569l 0.44993, -0.062908l 0.44993, -0.0628592l 0.44993, -0.0628103l 0.44993, -0.0627614l 0.44993, -0.0627126l 0.44993, -0.0626637l 0.44993, -0.0626148l
 0.44993, -0.062566l 0.44993, -0.0625171l 0.44993, -0.0624682l 0.44993, -0.0624193l 0.44993, -0.0623705l 0.44993, -0.0623216l 0.44993, -0.0622727l 0.44993, -0.0622239l 0.44993, -0.062175l 0.44993, -0.0621261l 0.44993, -0.0620773l 0.44993, -0.0620284l
 0.44993, -0.0619795l 0.44993, -0.0619307l 0.44993, -0.0618818" fill="none" stroke="#ff0066" stroke-width="3"/>
<path d="M319.217,229.119l 0.44993, -0.0618329l 0.44993, -0.0617841l 0.44993, -0.0617352l 0.44993, -0.0616863l 0.44993, -0.0616375l 0.44993, -0.0615886l 0.44993, -0.0615397l 0.44993, -0.0614909l 0.44993, -0.061442l 0.44993, -0.0613931l 0.44993,
 -0.0613443l 0.44993, -0.0612954l 0.44993, -0.0612465l 0.44993, -0.0611976l 0.44993, -0.0611488l 0.44993, -0.0610999l 0.44993, -0.061051l 0.44993, -0.0610022l 0.44993, -0.0609533l 0.44993, -0.0609044l 0.44993, -0.0608556l 0.44993, -0.0608067l
 0.44993, -0.0607578l 0.44993, -0.060709l 0.44993, -0.0606601l 0.44993, -0.0606112l 0.44993, -0.0605624l 0.44993, -0.0605135l 0.44993, -0.0604646l 0.44993, -0.0604158l 0.44993, -0.0603669l 0.44993, -0.060318l 0.44993, -0.0602692l 0.44993, -0.0602203l
 0.44993, -0.0601714l 0.44993, -0.0601226l 0.44993, -0.0600737l 0.44993, -0.0600248l 0.44993, -0.059976l 0.44993, -0.0599271l 0.44993, -0.0598782l 0.44993, -0.0598294l 0.44993, -0.0597805l 0.44993, -0.0597316l 0.44993, -0.0596827l 0.44993,
 -0.0596339l 0.44993, -0.059585l 0.44993, -0.0595361l 0.44993, -0.0594873" fill="none" stroke="#ff0066" stroke-width="3"/>
<path d="M341.264,226.147l 0.44993, -0.0594384l 0.44993, -0.0593895l 0.44993, -0.0593407l 0.44993, -0.0592918l 0.44993, -0.0592429l 0.44993, -0.0591941l 0.44993, -0.0591452l 0.44993, -0.0590963l 0.44993, -0.0590475l 0.44993, -0.0589986l 0.44993,
 -0.0589497l 0.44993, -0.0589009l 0.44993, -0.058852l 0.44993, -0.0588031l 0.44993, -0.0587543l 0.44993, -0.0587054l 0.44993, -0.0586565l 0.44993, -0.0586077l 0.44993, -0.0585588l 0.44993, -0.0585099l 0.44993, -0.0584611l 0.44993, -0.0584122l
 0.44993, -0.0583633l 0.44993, -0.0583144l 0.44993, -0.0582656l 0.44993, -0.0582167l 0.44993, -0.0581678l 0.44993, -0.058119l 0.44993, -0.0580701l 0.44993, -0.0580212l 0.44993, -0.0579724l 0.44993, -0.0579235l 0.44993, -0.0578746l 0.44993,
 -0.0578258l 0.44993, -0.0577769l 0.44993, -0.057728l 0.44993, -0.0576792l 0.44993, -0.0576303l 0.44993, -0.0575814l 0.44993, -0.0575326l 0.44993, -0.0574837l 0.44993, -0.0574348l 0.44993, -0.057386l 0.44993, -0.0573371l 0.44993, -0.0572882l 0.44993,
 -0.0572394l 0.44993, -0.0571905l 0.44993, -0.0571416l 0.44993, -0.0570928" fill="none" stroke="#ff0066" stroke-width="3"/>
<path d="M363.311,223.292l 0.44993, -0.0570439l 0.44993, -0.056995l 0.44993, -0.0569461l 0.44993, -0.0568973l 0.44993, -0.0568484l 0.44993, -0.0567995l 0.44993, -0.0567507l 0.44993, -0.0567018l 0.44993, -0.0566529l 0.44993, -0.0566041l 0.44993,
 -0.0565552l 0.44993, -0.0565063l 0.44993, -0.0564575l 0.44993, -0.0564086l 0.44993, -0.0563597l 0.44993, -0.0563109l 0.44993, -0.056262l 0.44993, -0.0562131l 0.44993, -0.0561643l 0.44993, -0.0561154l 0.44993, -0.0560665l 0.44993, -0.0560177l
 0.44993, -0.0559688l 0.44993, -0.0559199l 0.44993, -0.0558711l 0.44993, -0.0558222l 0.44993, -0.0557733l 0.44993, -0.0557245l 0.44993, -0.0556756l 0.44993, -0.0556267l 0.44993, -0.0555778l 0.44993, -0.055529l 0.44993, -0.0554801l 0.44993,
 -0.0554312l 0.44993, -0.0553824l 0.44993, -0.0553335l 0.44993, -0.0552846l 0.44993, -0.0552358l 0.44993, -0.0551869l 0.44993, -0.055138l 0.44993, -0.0550892l 0.44993, -0.0550403l 0.44993, -0.0549914l 0.44993, -0.0549426l 0.44993, -0.0548937l
 0.44993, -0.0548448l 0.44993, -0.054796l 0.44993, -0.0547471l 0.44993, -0.0546982" fill="none" stroke="#ff0066" stroke-width="3"/>
<path d="M385.357,220.554l 0.44993, -0.0546494l 0.44993, -0.0546005l 0.44993, -0.0545516l 0.44993, -0.0545028l 0.44993, -0.0544539l 0.44993, -0.054405l 0.44993, -0.0543562l 0.44993, -0.0543073l 0.44993, -0.0542584l 0.44993, -0.0542095l 0.44993,
 -0.0541607l 0.44993, -0.0541118l 0.44993, -0.0540629l 0.44993, -0.0540141l 0.44993, -0.0539652l 0.44993, -0.0539163l 0.44993, -0.0538675l 0.44993, -0.0538186l 0.44993, -0.0537697l 0.44993, -0.0537209l 0.44993, -0.053672l 0.44993, -0.0536231l
 0.44993, -0.0535743l 0.44993, -0.0535254l 0.44993, -0.0534765l 0.44993, -0.0534277l 0.44993, -0.0533788l 0.44993, -0.0533299l 0.44993, -0.0532811l 0.44993, -0.0532322l 0.44993, -0.0531833l 0.44993, -0.0531345l 0.44993, -0.0530856l 0.44993,
 -0.0530367l 0.44993, -0.0529879l 0.44993, -0.052939l 0.44993, -0.0528901l 0.44993, -0.0528412l 0.44993, -0.0527924l 0.44993, -0.0527435l 0.44993, -0.0526946l 0.44993, -0.0526458l 0.44993, -0.0525969l 0.44993, -0.052548l 0.44993, -0.0524992l 0.44993,
 -0.0524503l 0.44993, -0.0524014l 0.44993, -0.0523526l 0.44993, -0.0523037" fill="none" stroke="#ff0066" stroke-width="3"/>
<path d="M407.404,217.934l 0.44993, -0.0522548l 0.44993, -0.052206l 0.44993, -0.0521571l 0.44993, -0.0521082l 0.44993, -0.0520594l 0.44993, -0.0520105l 0.44993, -0.0519616l 0.44993, -0.0519128l 0.44993, -0.0518639l 0.44993, -0.051815l 0.44993,
 -0.0517662l 0.44993, -0.0517173l 0.44993, -0.0516684l 0.44993, -0.0516196l 0.44993, -0.0515707l 0.44993, -0.0515218l 0.44993, -0.051473l 0.44993, -0.0514241l 0.44993, -0.0513752l 0.44993, -0.0513263l 0.44993, -0.0512775l 0.44993, -0.0512286l
 0.44993, -0.0511797l 0.44993, -0.0511309l 0.44993, -0.051082l 0.44993, -0.0510331l 0.44993, -0.0509843l 0.44993, -0.0509354l 0.44993, -0.0508865l 0.44993, -0.0508377l 0.44993, -0.0507888l 0.44993, -0.0507399l 0.44993, -0.0506911l 0.44993,
 -0.0506422l 0.44993, -0.0505933l 0.44993, -0.0505445l 0.44993, -0.0504956l 0.44993, -0.0504467l 0.44993, -0.0503979l 0.44993, -0.050349l 0.44993, -0.0503001l 0.44993, -0.0502513l 0.44993, -0.0502024l 0.44993, -0.0501535l 0.44993, -0.0501047l
 0.44993, -0.0500558l 0.44993, -0.0500069l 0.44993, -0.049958l 0.44993, -0.0499092" fill="none" stroke="#ff0066" stroke-width="3"/>
<path d="M429.45,215.431l 0.44993, -0.0498603l 0.44993, -0.0498114l 0.44993, -0.0497626l 0.44993, -0.0497137l 0.44993, -0.0496648l 0.44993, -0.049616l 0.44993, -0.0495671l 0.44993, -0.0495182l 0.44993, -0.0494694l 0.44993, -0.0494205l 0.44993,
 -0.0493716l 0.44993, -0.0493228l 0.44993, -0.0492739l 0.44993, -0.049225l 0.44993, -0.0491762l 0.44993, -0.0491273l 0.44993, -0.0490784l 0.44993, -0.0490296l 0.44993, -0.0489807l 0.44993, -0.0489318l 0.44993, -0.048883l 0.44993, -0.0488341l 0.44993,
 -0.0487852l 0.44993, -0.0487363l 0.44993, -0.0486875l 0.44993, -0.0486386l 0.44993, -0.0485897l 0.44993, -0.0485409l 0.44993, -0.048492l 0.44993, -0.0484431l 0.44993, -0.0483943l 0.44993, -0.0483454l 0.44993, -0.0482965l 0.44993, -0.0482477l
 0.44993, -0.0481988l 0.44993, -0.0481499l 0.44993, -0.0481011l 0.44993, -0.0480522l 0.44993, -0.0480033l 0.44993, -0.0479545l 0.44993, -0.0479056l 0.44993, -0.0478567l 0.44993, -0.0478079l 0.44993, -0.047759l 0.44993, -0.0477101l 0.44993,
 -0.0476613l 0.44993, -0.0476124l 0.44993, -0.0475635l 0.44993, -0.0475147" fill="none" stroke="#ff0066" stroke-width="3"/>
<path d="M451.497,213.045l 0.44993, -0.0474658l 0.44993, -0.0474169l 0.44993, -0.047368l 0.44993, -0.0473192l 0.44993, -0.0472703l 0.44993, -0.0472214l 0.44993, -0.0471726l 0.44993, -0.0471237l 0.44993, -0.0470748l 0.44993, -0.047026l 0.44993,
 -0.0469771l 0.44993, -0.0469282l 0.44993, -0.0468794l 0.44993, -0.0468305l 0.44993, -0.0467816l 0.44993, -0.0467328l 0.44993, -0.0466839l 0.44993, -0.046635l 0.44993, -0.0465862l 0.44993, -0.0465373l 0.44993, -0.0464884l 0.44993, -0.0464396l
 0.44993, -0.0463907l 0.44993, -0.0463418l 0.44993, -0.046293l 0.44993, -0.0462441l 0.44993, -0.0461952l 0.44993, -0.0461464l 0.44993, -0.0460975l 0.44993, -0.0460486l 0.44993, -0.0459998l 0.44993, -0.0459509l 0.44993, -0.045902l 0.44993, -0.0458531l
 0.44993, -0.0458043l 0.44993, -0.0457554l 0.44993, -0.0457065l 0.44993, -0.0456577l 0.44993, -0.0456088l 0.44993, -0.0455599l 0.44993, -0.0455111l 0.44993, -0.0454622l 0.44993, -0.0454133l 0.44993, -0.0453645l 0.44993, -0.0453156l 0.44993,
 -0.0452667l 0.44993, -0.0452179l 0.44993, -0.045169l 0.44993, -0.0451201" fill="none" stroke="#ff0066" stroke-width="3"/>
<path d="M473.543,210.777l 0.44993, -0.0450713l 0.44993, -0.0450224l 0.44993, -0.0449735l 0.44993, -0.0449247l 0.44993, -0.0448758l 0.44993, -0.0448269l 0.44993, -0.0447781l 0.44993, -0.0447292l 0.44993, -0.0446803l 0.44993, -0.0446315l 0.44993,
 -0.0445826l 0.44993, -0.0445337l 0.44993, -0.0444848l 0.44993, -0.044436l 0.44993, -0.0443871l 0.44993, -0.0443382l 0.44993, -0.0442894l 0.44993, -0.0442405l 0.44993, -0.0441916l 0.44993, -0.0441428l 0.44993, -0.0440939l 0.44993, -0.044045l 0.44993,
 -0.0439962l 0.44993, -0.0439473l 0.44993, -0.0438984l 0.44993, -0.0438496l 0.44993, -0.0438007l 0.44993, -0.0437518l 0.44993, -0.043703l 0.44993, -0.0436541l 0.44993, -0.0436052l 0.44993, -0.0435564l 0.44993, -0.0435075l 0.44993, -0.0434586l
 0.44993, -0.0434098l 0.44993, -0.0433609l 0.44993, -0.043312l 0.44993, -0.0432632l 0.44993, -0.0432143l 0.44993, -0.0431654l 0.44993, -0.0431165l 0.44993, -0.0430677l 0.44993, -0.0430188l 0.44993, -0.0429699l 0.44993, -0.0429211l 0.44993,
 -0.0428722l 0.44993, -0.0428233l 0.44993, -0.0427745l 0.44993, -0.0427256" fill="none" stroke="#ff0066" stroke-width="3"/>
<path d="M495.59,208.626l 0.44993, -0.0426767l 0.44993, -0.0426279l 0.44993, -0.042579l 0.44993, -0.0425301l 0.44993, -0.0424813l 0.44993, -0.0424324l 0.44993, -0.0423835l 0.44993, -0.0423347l 0.44993, -0.0422858l 0.44993, -0.0422369l 0.44993,
 -0.0421881l 0.44993, -0.0421392l 0.44993, -0.0420903l 0.44993, -0.0420415l 0.44993, -0.0419926l 0.44993, -0.0419437l 0.44993, -0.0418949l 0.44993, -0.041846l 0.44993, -0.0417971l 0.44993, -0.0417482l 0.44993, -0.0416994l 0.44993, -0.0416505l
 0.44993, -0.0416016l 0.44993, -0.0415528l 0.44993, -0.0415039l 0.44993, -0.041455l 0.44993, -0.0414062l 0.44993, -0.0413573l 0.44993, -0.0413084l 0.44993, -0.0412596l 0.44993, -0.0412107l 0.44993, -0.0411618l 0.44993, -0.041113l 0.44993, -0.0410641l
 0.44993, -0.0410152l 0.44993, -0.0409664l 0.44993, -0.0409175l 0.44993, -0.0408686l 0.44993, -0.0408198l 0.44993, -0.0407709l 0.44993, -0.040722l 0.44993, -0.0406732l 0.44993, -0.0406243l 0.44993, -0.0405754l 0.44993, -0.0405266l 0.44993,
 -0.0404777l 0.44993, -0.0404288l 0.44993, -0.0403799l 0.44993, -0.0403311" fill="none" stroke="#ff0066" stroke-width="3"/>
<path d="M517.636,206.592l 0.44993, -0.0402822l 0.44993, -0.0402333l 0.44993, -0.0401845l 0.44993, -0.0401356l 0.44993, -0.0400867l 0.44993, -0.0400379l 0.44993, -0.039989l 0.44993, -0.0399401l 0.44993, -0.0398913l 0.44993, -0.0398424l 0.44993,
 -0.0397935l 0.44993, -0.0397447l 0.44993, -0.0396958l 0.44993, -0.0396469l 0.44993, -0.0395981l 0.44993, -0.0395492l 0.44993, -0.0395003l 0.44993, -0.0394515l 0.44993, -0.0394026l 0.44993, -0.0393537l 0.44993, -0.0393049l 0.44993, -0.039256l
 0.44993, -0.0392071l 0.44993, -0.0391583l 0.44993, -0.0391094l 0.44993, -0.0390605l 0.44993, -0.0390116l 0.44993, -0.0389628l 0.44993, -0.0389139l 0.44993, -0.038865l 0.44993, -0.0388162l 0.44993, -0.0387673l 0.44993, -0.0387184l 0.44993,
 -0.0386696l 0.44993, -0.0386207l 0.44993, -0.0385718l 0.44993, -0.038523l 0.44993, -0.0384741l 0.44993, -0.0384252l 0.44993, -0.0383764l 0.44993, -0.0383275l 0.44993, -0.0382786l 0.44993, -0.0382298l 0.44993, -0.0381809l 0.44993, -0.038132l 0.44993,
 -0.0380832l 0.44993, -0.0380343l 0.44993, -0.0379854l 0.44993, -0.0379366" fill="none" stroke="#ff0066" stroke-width="3"/>
<path d="M539.683,204.676l 0.44993, -0.0378877l 0.44993, -0.0378388l 0.44993, -0.03779l 0.44993, -0.0377411l 0.44993, -0.0376922l 0.44993, -0.0376434l 0.44993, -0.0375945l 0.44993, -0.0375456l 0.44993, -0.0374967l 0.44993, -0.0374479l 0.44993,
 -0.037399l 0.44993, -0.0373501l 0.44993, -0.0373013l 0.44993, -0.0372524l 0.44993, -0.0372035l 0.44993, -0.0371547l 0.44993, -0.0371058l 0.44993, -0.0370569l 0.44993, -0.0370081" fill="none" stroke="#ff0066" stroke-width="3"/>
<path d="M248.503,21.4167h 239.963" fill="none" stroke="#999999" stroke-width="7"/>
<text xml:space="preserve" x="360.607" y="50.7193" fill="black" font-size="16.0105" font-family="Helvetica"> with EMC</text>
<text xml:space="preserve" x="352.717" y="50.7193" fill="black" font-size="16.0105" font-family="Times">&#0947;</text>
<text xml:space="preserve" x="344.828" y="50.7193" fill="black" font-size="16.0105" font-family="Times">&#0947;</text>
<text xml:space="preserve" x="336.938" y="50.7193" fill="black" font-size="16.0105" font-family="Times">&#0947;</text>
<text xml:space="preserve" x="331.866" y="50.7193" fill="black" font-size="16.0105" font-family="Helvetica"> </text>
<text xml:space="preserve" x="316.65" y="50.7193" fill="black" font-size="16.0105" font-family="Times">&#8594;</text>
<text xml:space="preserve" x="311.578" y="50.7193" fill="black" font-size="16.0105" font-family="Helvetica"> </text>
<text xml:space="preserve" x="303.689" y="50.7193" fill="black" font-size="16.0105" font-family="Times">&#0947;</text>
<text xml:space="preserve" x="298.053" y="45.0838" fill="black" font-size="10.8403" font-family="Helvetica">0</text>
<text xml:space="preserve" x="289.6" y="50.7193" fill="black" font-size="16.0105" font-family="Times">&#0960;</text>
<text xml:space="preserve" x="284.528" y="50.7193" fill="black" font-size="16.0105" font-family="Helvetica"> </text>
<text xml:space="preserve" x="269.312" y="50.7193" fill="black" font-size="16.0105" font-family="Times">&#8594;</text>
<text xml:space="preserve" x="264.24" y="50.7193" fill="black" font-size="16.0105" font-family="Helvetica"> </text>
<text xml:space="preserve" x="252.969" y="50.7193" fill="black" font-size="16.0105" font-family="Times">&#0969;</text>
<text xml:space="preserve" x="128.989" y="50.7193" fill="black" font-size="16.0105" font-family="Helvetica"> = 13 TeV (EG1), </text>
<text xml:space="preserve" x="120.536" y="50.7193" fill="black" font-size="16.0105" font-family="Helvetica" font-style="oblique">s</text>
<path d="M114.9,41.7025l 1.69064, 9.58031" fill="none" stroke="black" stroke-width="2"/>
<path d="M116.591,51.2829l 2.25419, -14.0887" fill="none" stroke="black"/>
<path d="M118.845,37.1942h 10.1439" fill="none" stroke="black"/>
<text xml:space="preserve" x="89.5406" y="50.7193" fill="black" font-size="16.0105" font-family="Helvetica">pp </text>
<text xml:space="preserve" x="89.5406" y="85.6593" fill="black" font-size="16.0105" font-family="Helvetica">ALICE work in progress</text>
<text xml:space="preserve" x="214.085" y="120.599" fill="black" font-size="16.0105" font-family="Helvetica">) &lt; 18.0</text>
<text xml:space="preserve" x="205.068" y="120.599" fill="black" font-size="16.0105" font-family="Helvetica" font-style="oblique">c</text>
<text xml:space="preserve" x="154.912" y="120.599" fill="black" font-size="16.0105" font-family="Helvetica"> /(GeV/</text>
<text xml:space="preserve" x="148.15" y="128.489" fill="black" font-size="10.8403" font-family="Helvetica">T</text>
<text xml:space="preserve" x="138.569" y="120.599" fill="black" font-size="16.0105" font-family="Helvetica" font-style="oblique">p</text>
<text xml:space="preserve" x="133.497" y="120.599" fill="black" font-size="16.0105" font-family="Helvetica"> </text>
<text xml:space="preserve" x="125.044" y="120.599" fill="black" font-size="16.0105" font-family="Times">&#8804;</text>
<text xml:space="preserve" x="89.5406" y="120.599" fill="black" font-size="16.0105" font-family="Helvetica">16.0 </text>
<rect x="312.311" y="69.1755" width="198.425" height="113.448" fill="white"/>
<text xml:space="preserve" x="361.734" y="85.0957" fill="black" font-size="16.0105" font-family="Helvetica">ratio</text>
<path d="M319.752,80.5203h 34.7244" fill="none" stroke="black" stroke-width="2"/>
<g fill="black">
<circle cx="337.114" cy="80.5203" r="6.76257"/>
</g>
<text xml:space="preserve" x="361.734" y="108.201" fill="black" font-size="16.0105" font-family="Helvetica">peak range</text>
<path d="M319.752,103.21h 34.7244" fill="none" stroke="#333333" stroke-width="2"/>
<g stroke="#333333" stroke-width="2" fill="none">
<circle cx="337.114" cy="103.21" r="5.63548"/>
</g>
<text xml:space="preserve" x="361.734" y="130.743" fill="black" font-size="16.0105" font-family="Helvetica">background pol1</text>
<path d="M319.752,125.899h 34.7244" fill="none" stroke="#33cccc" stroke-width="3"/>
<text xml:space="preserve" x="361.734" y="153.285" fill="black" font-size="16.0105" font-family="Helvetica">background pol2</text>
<path d="M319.752,148.589h 34.7244" fill="none" stroke="#ff0066" stroke-width="3"/>
<text xml:space="preserve" x="361.734" y="175.827" fill="black" font-size="16.0105" font-family="Helvetica">param. range</text>
<path d="M319.752,171.279h 34.7244" fill="none" stroke="#999999" stroke-width="7"/></svg>
