<?xml version="1.0" standalone="no"?>
<svg width="567.429" height="553.904" viewBox="0 0 567.429 553.904" xmlns="http://www.w3.org/2000/svg" shape-rendering="crispEdges">
<title>
MC/EG1/OmegaTGPSPlusPSNCell/SameEventToBackgroundRatio_02.svg
</title>
<desc>
Creator: ROOT Version 6.20/08
CreationDate: Mon Mar 29 21:28:52 2021</desc>
<defs>
</defs>
<rect x="0.5" y="0" width="566.929" height="553.404" fill="white"/>
<rect x="68.5315" y="16.6021" width="484.724" height="481.461" fill="white"/>
<rect x="68.5315" y="16.6021" width="484.724" height="481.461" fill="none" stroke="black"/>
<rect x="68.5315" y="16.6021" width="484.724" height="481.461" fill="white"/>
<rect x="68.5315" y="16.6021" width="484.724" height="481.461" fill="none" stroke="black"/>
<path d="M109.325,264.257v -16.9008" fill="none" stroke="black" stroke-width="2"/>
<path d="M109.325,233.831v -16.9008" fill="none" stroke="black" stroke-width="2"/>
<g fill="black">
<circle cx="109.325" cy="240.594" r="6.76257"/>
</g>
<g fill="black">
<circle cx="114.124" cy="197.15" r="6.76257"/>
</g>
<g fill="black">
<circle cx="118.924" cy="210.31" r="6.76257"/>
</g>
<g fill="black">
<circle cx="123.723" cy="227.287" r="6.76257"/>
</g>
<g fill="black">
<circle cx="128.522" cy="269.114" r="6.76257"/>
</g>
<g fill="black">
<circle cx="133.321" cy="263.15" r="6.76257"/>
</g>
<g fill="black">
<circle cx="138.121" cy="261.675" r="6.76257"/>
</g>
<g fill="black">
<circle cx="142.92" cy="266.215" r="6.76257"/>
</g>
<g fill="black">
<circle cx="147.719" cy="266.757" r="6.76257"/>
</g>
<g fill="black">
<circle cx="152.518" cy="268.963" r="6.76257"/>
</g>
<g fill="black">
<circle cx="157.318" cy="273.003" r="6.76257"/>
</g>
<g fill="black">
<circle cx="162.117" cy="275.867" r="6.76257"/>
</g>
<g fill="black">
<circle cx="166.916" cy="277.954" r="6.76257"/>
</g>
<g fill="black">
<circle cx="171.715" cy="279.717" r="6.76257"/>
</g>
<g fill="black">
<circle cx="176.515" cy="282.178" r="6.76257"/>
</g>
<g fill="black">
<circle cx="181.314" cy="283.173" r="6.76257"/>
</g>
<g fill="black">
<circle cx="186.113" cy="283.979" r="6.76257"/>
</g>
<g fill="black">
<circle cx="190.912" cy="285.767" r="6.76257"/>
</g>
<g fill="black">
<circle cx="195.712" cy="286.881" r="6.76257"/>
</g>
<g fill="black">
<circle cx="200.511" cy="287.757" r="6.76257"/>
</g>
<g fill="black">
<circle cx="205.31" cy="288.924" r="6.76257"/>
</g>
<g fill="black">
<circle cx="210.109" cy="290.021" r="6.76257"/>
</g>
<g fill="black">
<circle cx="214.909" cy="290.412" r="6.76257"/>
</g>
<g fill="black">
<circle cx="219.708" cy="291.406" r="6.76257"/>
</g>
<g fill="black">
<circle cx="224.507" cy="291.606" r="6.76257"/>
</g>
<g fill="black">
<circle cx="229.306" cy="291.946" r="6.76257"/>
</g>
<g fill="black">
<circle cx="234.106" cy="291.618" r="6.76257"/>
</g>
<g fill="black">
<circle cx="238.905" cy="291.937" r="6.76257"/>
</g>
<g fill="black">
<circle cx="243.704" cy="291.575" r="6.76257"/>
</g>
<g fill="black">
<circle cx="248.503" cy="291.047" r="6.76257"/>
</g>
<g fill="black">
<circle cx="253.303" cy="292.987" r="6.76257"/>
</g>
<g fill="black">
<circle cx="258.102" cy="292.687" r="6.76257"/>
</g>
<g fill="black">
<circle cx="262.901" cy="292.188" r="6.76257"/>
</g>
<g fill="black">
<circle cx="267.7" cy="292.351" r="6.76257"/>
</g>
<g fill="black">
<circle cx="272.5" cy="292.921" r="6.76257"/>
</g>
<g fill="black">
<circle cx="277.299" cy="292.884" r="6.76257"/>
</g>
<g fill="black">
<circle cx="339.689" cy="297.385" r="6.76257"/>
</g>
<g fill="black">
<circle cx="344.488" cy="296.323" r="6.76257"/>
</g>
<g fill="black">
<circle cx="349.288" cy="297.331" r="6.76257"/>
</g>
<g fill="black">
<circle cx="354.087" cy="296.898" r="6.76257"/>
</g>
<g fill="black">
<circle cx="358.886" cy="297.303" r="6.76257"/>
</g>
<g fill="black">
<circle cx="363.685" cy="298.507" r="6.76257"/>
</g>
<g fill="black">
<circle cx="368.485" cy="297.788" r="6.76257"/>
</g>
<g fill="black">
<circle cx="373.284" cy="296.26" r="6.76257"/>
</g>
<g fill="black">
<circle cx="378.083" cy="296.329" r="6.76257"/>
</g>
<g fill="black">
<circle cx="382.882" cy="295.383" r="6.76257"/>
</g>
<g fill="black">
<circle cx="387.682" cy="294.993" r="6.76257"/>
</g>
<g fill="black">
<circle cx="392.481" cy="295.921" r="6.76257"/>
</g>
<g fill="black">
<circle cx="397.28" cy="295.908" r="6.76257"/>
</g>
<g fill="black">
<circle cx="402.079" cy="293.792" r="6.76257"/>
</g>
<g fill="black">
<circle cx="406.879" cy="291.25" r="6.76257"/>
</g>
<g fill="black">
<circle cx="411.678" cy="291.61" r="6.76257"/>
</g>
<g fill="black">
<circle cx="416.477" cy="291.226" r="6.76257"/>
</g>
<g fill="black">
<circle cx="421.276" cy="290.749" r="6.76257"/>
</g>
<g fill="black">
<circle cx="426.076" cy="287.521" r="6.76257"/>
</g>
<g fill="black">
<circle cx="430.875" cy="287.978" r="6.76257"/>
</g>
<g fill="black">
<circle cx="435.674" cy="287.184" r="6.76257"/>
</g>
<g fill="black">
<circle cx="440.473" cy="285.751" r="6.76257"/>
</g>
<g fill="black">
<circle cx="445.273" cy="283.524" r="6.76257"/>
</g>
<g fill="black">
<circle cx="450.072" cy="282.337" r="6.76257"/>
</g>
<g fill="black">
<circle cx="454.871" cy="280.685" r="6.76257"/>
</g>
<g fill="black">
<circle cx="459.671" cy="281.744" r="6.76257"/>
</g>
<g fill="black">
<circle cx="464.47" cy="280.522" r="6.76257"/>
</g>
<g fill="black">
<circle cx="469.269" cy="277.713" r="6.76257"/>
</g>
<g fill="black">
<circle cx="474.068" cy="278.052" r="6.76257"/>
</g>
<g fill="black">
<circle cx="478.867" cy="277.367" r="6.76257"/>
</g>
<g fill="black">
<circle cx="483.667" cy="274.285" r="6.76257"/>
</g>
<g fill="black">
<circle cx="488.466" cy="275.314" r="6.76257"/>
</g>
<g fill="black">
<circle cx="493.265" cy="271.039" r="6.76257"/>
</g>
<g fill="black">
<circle cx="498.065" cy="270.521" r="6.76257"/>
</g>
<g fill="black">
<circle cx="502.864" cy="269.729" r="6.76257"/>
</g>
<g fill="black">
<circle cx="507.663" cy="267.18" r="6.76257"/>
</g>
<g fill="black">
<circle cx="512.462" cy="265.813" r="6.76257"/>
</g>
<g fill="black">
<circle cx="517.262" cy="264.533" r="6.76257"/>
</g>
<g fill="black">
<circle cx="522.061" cy="264.688" r="6.76257"/>
</g>
<g fill="black">
<circle cx="526.86" cy="263.496" r="6.76257"/>
</g>
<g fill="black">
<circle cx="531.659" cy="264.563" r="6.76257"/>
</g>
<g fill="black">
<circle cx="536.458" cy="262.239" r="6.76257"/>
</g>
<g fill="black">
<circle cx="541.258" cy="261.59" r="6.76257"/>
</g>
<g fill="black">
<circle cx="546.057" cy="258.679" r="6.76257"/>
</g>
<path d="M68.5315,498.064h 484.724" fill="none" stroke="black"/>
<path d="M68.5315,483.869v 14.1948" fill="none" stroke="black"/>
<path d="M83.5292,490.966v 7.09741" fill="none" stroke="black"/>
<path d="M98.5268,490.966v 7.09741" fill="none" stroke="black"/>
<path d="M113.524,490.966v 7.09741" fill="none" stroke="black"/>
<path d="M128.522,483.869v 14.1948" fill="none" stroke="black"/>
<path d="M143.52,490.966v 7.09741" fill="none" stroke="black"/>
<path d="M158.517,490.966v 7.09741" fill="none" stroke="black"/>
<path d="M173.515,490.966v 7.09741" fill="none" stroke="black"/>
<path d="M188.513,483.869v 14.1948" fill="none" stroke="black"/>
<path d="M203.51,490.966v 7.09741" fill="none" stroke="black"/>
<path d="M218.508,490.966v 7.09741" fill="none" stroke="black"/>
<path d="M233.506,490.966v 7.09741" fill="none" stroke="black"/>
<path d="M248.503,483.869v 14.1948" fill="none" stroke="black"/>
<path d="M263.501,490.966v 7.09741" fill="none" stroke="black"/>
<path d="M278.499,490.966v 7.09741" fill="none" stroke="black"/>
<path d="M293.496,490.966v 7.09741" fill="none" stroke="black"/>
<path d="M308.494,483.869v 14.1948" fill="none" stroke="black"/>
<path d="M323.492,490.966v 7.09741" fill="none" stroke="black"/>
<path d="M338.489,490.966v 7.09741" fill="none" stroke="black"/>
<path d="M353.487,490.966v 7.09741" fill="none" stroke="black"/>
<path d="M368.485,483.869v 14.1948" fill="none" stroke="black"/>
<path d="M383.482,490.966v 7.09741" fill="none" stroke="black"/>
<path d="M398.48,490.966v 7.09741" fill="none" stroke="black"/>
<path d="M413.478,490.966v 7.09741" fill="none" stroke="black"/>
<path d="M428.475,483.869v 14.1948" fill="none" stroke="black"/>
<path d="M443.473,490.966v 7.09741" fill="none" stroke="black"/>
<path d="M458.471,490.966v 7.09741" fill="none" stroke="black"/>
<path d="M473.468,490.966v 7.09741" fill="none" stroke="black"/>
<path d="M488.466,483.869v 14.1948" fill="none" stroke="black"/>
<path d="M503.464,490.966v 7.09741" fill="none" stroke="black"/>
<path d="M518.461,490.966v 7.09741" fill="none" stroke="black"/>
<path d="M533.459,490.966v 7.09741" fill="none" stroke="black"/>
<path d="M548.457,483.869v 14.1948" fill="none" stroke="black"/>
<path d="M548.457,483.869v 14.1948" fill="none" stroke="black"/>
<text xml:space="preserve" x="63.6174" y="513.956" fill="black" font-size="16.0105" font-family="Helvetica">0</text>
<text xml:space="preserve" x="117.718" y="513.956" fill="black" font-size="16.0105" font-family="Helvetica">0.2</text>
<text xml:space="preserve" x="177.454" y="513.956" fill="black" font-size="16.0105" font-family="Helvetica">0.4</text>
<text xml:space="preserve" x="237.754" y="513.956" fill="black" font-size="16.0105" font-family="Helvetica">0.6</text>
<text xml:space="preserve" x="297.49" y="513.956" fill="black" font-size="16.0105" font-family="Helvetica">0.8</text>
<text xml:space="preserve" x="365.115" y="513.956" fill="black" font-size="16.0105" font-family="Helvetica">1</text>
<text xml:space="preserve" x="417.525" y="513.956" fill="black" font-size="16.0105" font-family="Helvetica">1.2</text>
<text xml:space="preserve" x="477.261" y="513.956" fill="black" font-size="16.0105" font-family="Helvetica">1.4</text>
<text xml:space="preserve" x="537.561" y="513.956" fill="black" font-size="16.0105" font-family="Helvetica">1.6</text>
<text xml:space="preserve" x="548.268" y="537.625" fill="black" font-size="16.0105" font-family="Helvetica">)</text>
<text xml:space="preserve" x="542.633" y="532.553" fill="black" font-size="10.8403" font-family="Helvetica">2</text>
<text xml:space="preserve" x="533.616" y="537.625" fill="black" font-size="16.0105" font-family="Helvetica" font-style="oblique">c</text>
<text xml:space="preserve" x="487.405" y="537.625" fill="black" font-size="16.0105" font-family="Helvetica"> (GeV/</text>
<text xml:space="preserve" x="473.317" y="542.697" fill="black" font-size="10.8403" font-family="Helvetica">inv</text>
<text xml:space="preserve" x="459.792" y="537.625" fill="black" font-size="16.0105" font-family="Helvetica" font-style="oblique">m</text>
<path d="M68.5315,16.6021h 484.724" fill="none" stroke="black"/>
<path d="M68.5315,30.7969v -14.1948" fill="none" stroke="black"/>
<path d="M83.5292,23.6995v -7.09741" fill="none" stroke="black"/>
<path d="M98.5268,23.6995v -7.09741" fill="none" stroke="black"/>
<path d="M113.524,23.6995v -7.09741" fill="none" stroke="black"/>
<path d="M128.522,30.7969v -14.1948" fill="none" stroke="black"/>
<path d="M143.52,23.6995v -7.09741" fill="none" stroke="black"/>
<path d="M158.517,23.6995v -7.09741" fill="none" stroke="black"/>
<path d="M173.515,23.6995v -7.09741" fill="none" stroke="black"/>
<path d="M188.513,30.7969v -14.1948" fill="none" stroke="black"/>
<path d="M203.51,23.6995v -7.09741" fill="none" stroke="black"/>
<path d="M218.508,23.6995v -7.09741" fill="none" stroke="black"/>
<path d="M233.506,23.6995v -7.09741" fill="none" stroke="black"/>
<path d="M248.503,30.7969v -14.1948" fill="none" stroke="black"/>
<path d="M263.501,23.6995v -7.09741" fill="none" stroke="black"/>
<path d="M278.499,23.6995v -7.09741" fill="none" stroke="black"/>
<path d="M293.496,23.6995v -7.09741" fill="none" stroke="black"/>
<path d="M308.494,30.7969v -14.1948" fill="none" stroke="black"/>
<path d="M323.492,23.6995v -7.09741" fill="none" stroke="black"/>
<path d="M338.489,23.6995v -7.09741" fill="none" stroke="black"/>
<path d="M353.487,23.6995v -7.09741" fill="none" stroke="black"/>
<path d="M368.485,30.7969v -14.1948" fill="none" stroke="black"/>
<path d="M383.482,23.6995v -7.09741" fill="none" stroke="black"/>
<path d="M398.48,23.6995v -7.09741" fill="none" stroke="black"/>
<path d="M413.478,23.6995v -7.09741" fill="none" stroke="black"/>
<path d="M428.475,30.7969v -14.1948" fill="none" stroke="black"/>
<path d="M443.473,23.6995v -7.09741" fill="none" stroke="black"/>
<path d="M458.471,23.6995v -7.09741" fill="none" stroke="black"/>
<path d="M473.468,23.6995v -7.09741" fill="none" stroke="black"/>
<path d="M488.466,30.7969v -14.1948" fill="none" stroke="black"/>
<path d="M503.464,23.6995v -7.09741" fill="none" stroke="black"/>
<path d="M518.461,23.6995v -7.09741" fill="none" stroke="black"/>
<path d="M533.459,23.6995v -7.09741" fill="none" stroke="black"/>
<path d="M548.457,30.7969v -14.1948" fill="none" stroke="black"/>
<path d="M548.457,30.7969v -14.1948" fill="none" stroke="black"/>
<path d="M68.5315,498.064v -481.461" fill="none" stroke="black"/>
<path d="M83.3283,498.064h -14.7969" fill="none" stroke="black"/>
<path d="M75.9299,486.652h -7.39843" fill="none" stroke="black"/>
<path d="M75.9299,475.241h -7.39843" fill="none" stroke="black"/>
<path d="M75.9299,463.83h -7.39843" fill="none" stroke="black"/>
<path d="M75.9299,452.419h -7.39843" fill="none" stroke="black"/>
<path d="M83.3283,441.008h -14.7969" fill="none" stroke="black"/>
<path d="M75.9299,429.597h -7.39843" fill="none" stroke="black"/>
<path d="M75.9299,418.186h -7.39843" fill="none" stroke="black"/>
<path d="M75.9299,406.775h -7.39843" fill="none" stroke="black"/>
<path d="M75.9299,395.364h -7.39843" fill="none" stroke="black"/>
<path d="M83.3283,383.953h -14.7969" fill="none" stroke="black"/>
<path d="M75.9299,372.541h -7.39843" fill="none" stroke="black"/>
<path d="M75.9299,361.13h -7.39843" fill="none" stroke="black"/>
<path d="M75.9299,349.719h -7.39843" fill="none" stroke="black"/>
<path d="M75.9299,338.308h -7.39843" fill="none" stroke="black"/>
<path d="M83.3283,326.897h -14.7969" fill="none" stroke="black"/>
<path d="M75.9299,315.486h -7.39843" fill="none" stroke="black"/>
<path d="M75.9299,304.075h -7.39843" fill="none" stroke="black"/>
<path d="M75.9299,292.664h -7.39843" fill="none" stroke="black"/>
<path d="M75.9299,281.253h -7.39843" fill="none" stroke="black"/>
<path d="M83.3283,269.841h -14.7969" fill="none" stroke="black"/>
<path d="M75.9299,258.43h -7.39843" fill="none" stroke="black"/>
<path d="M75.9299,247.019h -7.39843" fill="none" stroke="black"/>
<path d="M75.9299,235.608h -7.39843" fill="none" stroke="black"/>
<path d="M75.9299,224.197h -7.39843" fill="none" stroke="black"/>
<path d="M83.3283,212.786h -14.7969" fill="none" stroke="black"/>
<path d="M75.9299,201.375h -7.39843" fill="none" stroke="black"/>
<path d="M75.9299,189.964h -7.39843" fill="none" stroke="black"/>
<path d="M75.9299,178.553h -7.39843" fill="none" stroke="black"/>
<path d="M75.9299,167.141h -7.39843" fill="none" stroke="black"/>
<path d="M83.3283,155.73h -14.7969" fill="none" stroke="black"/>
<path d="M75.9299,144.319h -7.39843" fill="none" stroke="black"/>
<path d="M75.9299,132.908h -7.39843" fill="none" stroke="black"/>
<path d="M75.9299,121.497h -7.39843" fill="none" stroke="black"/>
<path d="M75.9299,110.086h -7.39843" fill="none" stroke="black"/>
<path d="M83.3283,98.6748h -14.7969" fill="none" stroke="black"/>
<path d="M75.9299,87.2637h -7.39843" fill="none" stroke="black"/>
<path d="M75.9299,75.8526h -7.39843" fill="none" stroke="black"/>
<path d="M75.9299,64.4415h -7.39843" fill="none" stroke="black"/>
<path d="M75.9299,53.0303h -7.39843" fill="none" stroke="black"/>
<path d="M83.3283,41.6192h -14.7969" fill="none" stroke="black"/>
<path d="M83.3283,41.6192h -14.7969" fill="none" stroke="black"/>
<path d="M75.9299,30.2081h -7.39843" fill="none" stroke="black"/>
<path d="M75.9299,18.797h -7.39843" fill="none" stroke="black"/>
<text xml:space="preserve" x="56.8548" y="503.248" fill="black" font-size="16.0105" font-family="Helvetica">0</text>
<text xml:space="preserve" x="56.8548" y="446.33" fill="black" font-size="16.0105" font-family="Helvetica">5</text>
<text xml:space="preserve" x="48.4016" y="389.412" fill="black" font-size="16.0105" font-family="Helvetica">10</text>
<text xml:space="preserve" x="48.4016" y="332.493" fill="black" font-size="16.0105" font-family="Helvetica">15</text>
<text xml:space="preserve" x="48.4016" y="275.011" fill="black" font-size="16.0105" font-family="Helvetica">20</text>
<text xml:space="preserve" x="48.4016" y="218.093" fill="black" font-size="16.0105" font-family="Helvetica">25</text>
<text xml:space="preserve" x="48.4016" y="161.175" fill="black" font-size="16.0105" font-family="Helvetica">30</text>
<text xml:space="preserve" x="48.4016" y="104.256" fill="black" font-size="16.0105" font-family="Helvetica">35</text>
<text xml:space="preserve" x="48.4016" y="46.7745" fill="black" font-size="16.0105" font-family="Helvetica">40</text>
<text xml:space="preserve" x="99.1209" y="7.32612" fill="black" font-size="10.8403" font-family="Helvetica">3</text>
<text xml:space="preserve" x="93.4854" y="7.32612" fill="black" font-size="10.8403" font-family="Times">&#8722;</text>
<text xml:space="preserve" x="76.579" y="14.6522" fill="black" font-size="16.0105" font-family="Helvetica">10</text>
<text xml:space="preserve" x="68.1257" y="14.6522" fill="black" font-size="16.0105" font-family="Times">&#0215;</text>
<g transform="rotate(-90,38.2577,98.0573)">
<text xml:space="preserve" x="38.2577" y="98.0573" fill="black" font-size="16.0105" font-family="Helvetica">background</text>
</g>
<g transform="rotate(-90,21.9148,98.0573)">
<text xml:space="preserve" x="21.9148" y="98.0573" fill="black" font-size="16.0105" font-family="Helvetica">same event</text>
</g>
<path d="M24.169,98.0573l 0.563548, -81.7144" fill="none" stroke="black" stroke-width="2"/>
<path d="M553.256,498.064v -481.461" fill="none" stroke="black"/>
<path d="M538.459,498.064h 14.7969" fill="none" stroke="black"/>
<path d="M545.857,486.652h 7.39843" fill="none" stroke="black"/>
<path d="M545.857,475.241h 7.39843" fill="none" stroke="black"/>
<path d="M545.857,463.83h 7.39843" fill="none" stroke="black"/>
<path d="M545.857,452.419h 7.39843" fill="none" stroke="black"/>
<path d="M538.459,441.008h 14.7969" fill="none" stroke="black"/>
<path d="M545.857,429.597h 7.39843" fill="none" stroke="black"/>
<path d="M545.857,418.186h 7.39843" fill="none" stroke="black"/>
<path d="M545.857,406.775h 7.39843" fill="none" stroke="black"/>
<path d="M545.857,395.364h 7.39843" fill="none" stroke="black"/>
<path d="M538.459,383.953h 14.7969" fill="none" stroke="black"/>
<path d="M545.857,372.541h 7.39843" fill="none" stroke="black"/>
<path d="M545.857,361.13h 7.39843" fill="none" stroke="black"/>
<path d="M545.857,349.719h 7.39843" fill="none" stroke="black"/>
<path d="M545.857,338.308h 7.39843" fill="none" stroke="black"/>
<path d="M538.459,326.897h 14.7969" fill="none" stroke="black"/>
<path d="M545.857,315.486h 7.39843" fill="none" stroke="black"/>
<path d="M545.857,304.075h 7.39843" fill="none" stroke="black"/>
<path d="M545.857,292.664h 7.39843" fill="none" stroke="black"/>
<path d="M545.857,281.253h 7.39843" fill="none" stroke="black"/>
<path d="M538.459,269.841h 14.7969" fill="none" stroke="black"/>
<path d="M545.857,258.43h 7.39843" fill="none" stroke="black"/>
<path d="M545.857,247.019h 7.39843" fill="none" stroke="black"/>
<path d="M545.857,235.608h 7.39843" fill="none" stroke="black"/>
<path d="M545.857,224.197h 7.39843" fill="none" stroke="black"/>
<path d="M538.459,212.786h 14.7969" fill="none" stroke="black"/>
<path d="M545.857,201.375h 7.39843" fill="none" stroke="black"/>
<path d="M545.857,189.964h 7.39843" fill="none" stroke="black"/>
<path d="M545.857,178.553h 7.39843" fill="none" stroke="black"/>
<path d="M545.857,167.141h 7.39843" fill="none" stroke="black"/>
<path d="M538.459,155.73h 14.7969" fill="none" stroke="black"/>
<path d="M545.857,144.319h 7.39843" fill="none" stroke="black"/>
<path d="M545.857,132.908h 7.39843" fill="none" stroke="black"/>
<path d="M545.857,121.497h 7.39843" fill="none" stroke="black"/>
<path d="M545.857,110.086h 7.39843" fill="none" stroke="black"/>
<path d="M538.459,98.6748h 14.7969" fill="none" stroke="black"/>
<path d="M545.857,87.2637h 7.39843" fill="none" stroke="black"/>
<path d="M545.857,75.8526h 7.39843" fill="none" stroke="black"/>
<path d="M545.857,64.4415h 7.39843" fill="none" stroke="black"/>
<path d="M545.857,53.0303h 7.39843" fill="none" stroke="black"/>
<path d="M538.459,41.6192h 14.7969" fill="none" stroke="black"/>
<path d="M538.459,41.6192h 14.7969" fill="none" stroke="black"/>
<path d="M545.857,30.2081h 7.39843" fill="none" stroke="black"/>
<path d="M545.857,18.797h 7.39843" fill="none" stroke="black"/>
<g stroke="#333333" stroke-width="2" fill="none">
<circle cx="282.098" cy="292.726" r="5.63548"/>
</g>
<g stroke="#333333" stroke-width="2" fill="none">
<circle cx="286.897" cy="293.054" r="5.63548"/>
</g>
<g stroke="#333333" stroke-width="2" fill="none">
<circle cx="291.697" cy="293.638" r="5.63548"/>
</g>
<g stroke="#333333" stroke-width="2" fill="none">
<circle cx="296.496" cy="294.791" r="5.63548"/>
</g>
<g stroke="#333333" stroke-width="2" fill="none">
<circle cx="301.295" cy="294.941" r="5.63548"/>
</g>
<g stroke="#333333" stroke-width="2" fill="none">
<circle cx="306.094" cy="293.953" r="5.63548"/>
</g>
<g stroke="#333333" stroke-width="2" fill="none">
<circle cx="310.894" cy="295.448" r="5.63548"/>
</g>
<g stroke="#333333" stroke-width="2" fill="none">
<circle cx="315.693" cy="296.137" r="5.63548"/>
</g>
<g stroke="#333333" stroke-width="2" fill="none">
<circle cx="320.492" cy="295.901" r="5.63548"/>
</g>
<g stroke="#333333" stroke-width="2" fill="none">
<circle cx="325.291" cy="296.456" r="5.63548"/>
</g>
<g stroke="#333333" stroke-width="2" fill="none">
<circle cx="330.091" cy="297.621" r="5.63548"/>
</g>
<g stroke="#333333" stroke-width="2" fill="none">
<circle cx="334.89" cy="298.059" r="5.63548"/>
</g>
<path d="M98.7518,299.8l 0.44993, -0.0143249l 0.44993, -0.0143249l 0.44993, -0.0143249l 0.44993, -0.0143249l 0.44993, -0.0143249l 0.44993, -0.0143249l 0.44993, -0.0143249l 0.44993, -0.0143249l 0.44993, -0.0143249l 0.44993, -0.0143249l 0.44993,
 -0.0143249l 0.44993, -0.0143249l 0.44993, -0.0143249l 0.44993, -0.0143249l 0.44993, -0.0143249l 0.44993, -0.0143249l 0.44993, -0.0143249l 0.44993, -0.0143249l 0.44993, -0.0143249l 0.44993, -0.0143249l 0.44993, -0.0143249l 0.44993, -0.0143249l
 0.44993, -0.0143249l 0.44993, -0.0143249l 0.44993, -0.0143249l 0.44993, -0.0143249l 0.44993, -0.0143249l 0.44993, -0.0143249l 0.44993, -0.0143249l 0.44993, -0.0143249l 0.44993, -0.0143249l 0.44993, -0.0143249l 0.44993, -0.0143249l 0.44993,
 -0.0143249l 0.44993, -0.0143249l 0.44993, -0.0143249l 0.44993, -0.0143249l 0.44993, -0.0143249l 0.44993, -0.0143249l 0.44993, -0.0143249l 0.44993, -0.0143249l 0.44993, -0.0143249l 0.44993, -0.0143249l 0.44993, -0.0143249l 0.44993, -0.0143249l
 0.44993, -0.0143249l 0.44993, -0.0143249l 0.44993, -0.0143249l 0.44993, -0.0143249" fill="none" stroke="#33cccc" stroke-width="3"/>
<path d="M120.798,299.098l 0.44993, -0.0143249l 0.44993, -0.0143249l 0.44993, -0.0143249l 0.44993, -0.0143249l 0.44993, -0.0143249l 0.44993, -0.0143249l 0.44993, -0.0143249l 0.44993, -0.0143249l 0.44993, -0.0143249l 0.44993, -0.0143249l 0.44993,
 -0.0143249l 0.44993, -0.0143249l 0.44993, -0.0143249l 0.44993, -0.0143249l 0.44993, -0.0143249l 0.44993, -0.0143249l 0.44993, -0.0143249l 0.44993, -0.0143249l 0.44993, -0.0143249l 0.44993, -0.0143249l 0.44993, -0.0143249l 0.44993, -0.0143249l
 0.44993, -0.0143249l 0.44993, -0.0143249l 0.44993, -0.0143249l 0.44993, -0.0143249l 0.44993, -0.0143249l 0.44993, -0.0143249l 0.44993, -0.0143249l 0.44993, -0.0143249l 0.44993, -0.0143249l 0.44993, -0.0143249l 0.44993, -0.0143249l 0.44993,
 -0.0143249l 0.44993, -0.0143249l 0.44993, -0.0143249l 0.44993, -0.0143249l 0.44993, -0.0143249l 0.44993, -0.0143249l 0.44993, -0.0143249l 0.44993, -0.0143249l 0.44993, -0.0143249l 0.44993, -0.0143249l 0.44993, -0.0143249l 0.44993, -0.0143249l
 0.44993, -0.0143249l 0.44993, -0.0143249l 0.44993, -0.0143249l 0.44993, -0.0143249" fill="none" stroke="#33cccc" stroke-width="3"/>
<path d="M142.845,298.396l 0.44993, -0.0143249l 0.44993, -0.0143249l 0.44993, -0.0143249l 0.44993, -0.0143249l 0.44993, -0.0143249l 0.44993, -0.0143249l 0.44993, -0.0143249l 0.44993, -0.0143249l 0.44993, -0.0143249l 0.44993, -0.0143249l 0.44993,
 -0.0143249l 0.44993, -0.0143249l 0.44993, -0.0143249l 0.44993, -0.0143249l 0.44993, -0.0143249l 0.44993, -0.0143249l 0.44993, -0.0143249l 0.44993, -0.0143249l 0.44993, -0.0143249l 0.44993, -0.0143249l 0.44993, -0.0143249l 0.44993, -0.0143249l
 0.44993, -0.0143249l 0.44993, -0.0143249l 0.44993, -0.0143249l 0.44993, -0.0143249l 0.44993, -0.0143249l 0.44993, -0.0143249l 0.44993, -0.0143249l 0.44993, -0.0143249l 0.44993, -0.0143249l 0.44993, -0.0143249l 0.44993, -0.0143249l 0.44993,
 -0.0143249l 0.44993, -0.0143249l 0.44993, -0.0143249l 0.44993, -0.0143249l 0.44993, -0.0143249l 0.44993, -0.0143249l 0.44993, -0.0143249l 0.44993, -0.0143249l 0.44993, -0.0143249l 0.44993, -0.0143249l 0.44993, -0.0143249l 0.44993, -0.0143249l
 0.44993, -0.0143249l 0.44993, -0.0143249l 0.44993, -0.0143249l 0.44993, -0.0143249" fill="none" stroke="#33cccc" stroke-width="3"/>
<path d="M164.891,297.694l 0.44993, -0.0143249l 0.44993, -0.0143249l 0.44993, -0.0143249l 0.44993, -0.0143249l 0.44993, -0.0143249l 0.44993, -0.0143249l 0.44993, -0.0143249l 0.44993, -0.0143249l 0.44993, -0.0143249l 0.44993, -0.0143249l 0.44993,
 -0.0143249l 0.44993, -0.0143249l 0.44993, -0.0143249l 0.44993, -0.0143249l 0.44993, -0.0143249l 0.44993, -0.0143249l 0.44993, -0.0143249l 0.44993, -0.0143249l 0.44993, -0.0143249l 0.44993, -0.0143249l 0.44993, -0.0143249l 0.44993, -0.0143249l
 0.44993, -0.0143249l 0.44993, -0.0143249l 0.44993, -0.0143249l 0.44993, -0.0143249l 0.44993, -0.0143249l 0.44993, -0.0143249l 0.44993, -0.0143249l 0.44993, -0.0143249l 0.44993, -0.0143249l 0.44993, -0.0143249l 0.44993, -0.0143249l 0.44993,
 -0.0143249l 0.44993, -0.0143249l 0.44993, -0.0143249l 0.44993, -0.0143249l 0.44993, -0.0143249l 0.44993, -0.0143249l 0.44993, -0.0143249l 0.44993, -0.0143249l 0.44993, -0.0143249l 0.44993, -0.0143249l 0.44993, -0.0143249l 0.44993, -0.0143249l
 0.44993, -0.0143249l 0.44993, -0.0143249l 0.44993, -0.0143249l 0.44993, -0.0143249" fill="none" stroke="#33cccc" stroke-width="3"/>
<path d="M186.938,296.993l 0.44993, -0.0143249l 0.44993, -0.0143249l 0.44993, -0.0143249l 0.44993, -0.0143249l 0.44993, -0.0143249l 0.44993, -0.0143249l 0.44993, -0.0143249l 0.44993, -0.0143249l 0.44993, -0.0143249l 0.44993, -0.0143249l 0.44993,
 -0.0143249l 0.44993, -0.0143249l 0.44993, -0.0143249l 0.44993, -0.0143249l 0.44993, -0.0143249l 0.44993, -0.0143249l 0.44993, -0.0143249l 0.44993, -0.0143249l 0.44993, -0.0143249l 0.44993, -0.0143249l 0.44993, -0.0143249l 0.44993, -0.0143249l
 0.44993, -0.0143249l 0.44993, -0.0143249l 0.44993, -0.0143249l 0.44993, -0.0143249l 0.44993, -0.0143249l 0.44993, -0.0143249l 0.44993, -0.0143249l 0.44993, -0.0143249l 0.44993, -0.0143249l 0.44993, -0.0143249l 0.44993, -0.0143249l 0.44993,
 -0.0143249l 0.44993, -0.0143249l 0.44993, -0.0143249l 0.44993, -0.0143249l 0.44993, -0.0143249l 0.44993, -0.0143249l 0.44993, -0.0143249l 0.44993, -0.0143249l 0.44993, -0.0143249l 0.44993, -0.0143249l 0.44993, -0.0143249l 0.44993, -0.0143249l
 0.44993, -0.0143249l 0.44993, -0.0143249l 0.44993, -0.0143249l 0.44993, -0.0143249" fill="none" stroke="#33cccc" stroke-width="3"/>
<path d="M208.985,296.291l 0.44993, -0.0143249l 0.44993, -0.0143249l 0.44993, -0.0143249l 0.44993, -0.0143249l 0.44993, -0.0143249l 0.44993, -0.0143249l 0.44993, -0.0143249l 0.44993, -0.0143249l 0.44993, -0.0143249l 0.44993, -0.0143249l 0.44993,
 -0.0143249l 0.44993, -0.0143249l 0.44993, -0.0143249l 0.44993, -0.0143249l 0.44993, -0.0143249l 0.44993, -0.0143249l 0.44993, -0.0143249l 0.44993, -0.0143249l 0.44993, -0.0143249l 0.44993, -0.0143249l 0.44993, -0.0143249l 0.44993, -0.0143249l
 0.44993, -0.0143249l 0.44993, -0.0143249l 0.44993, -0.0143249l 0.44993, -0.0143249l 0.44993, -0.0143249l 0.44993, -0.0143249l 0.44993, -0.0143249l 0.44993, -0.0143249l 0.44993, -0.0143249l 0.44993, -0.0143249l 0.44993, -0.0143249l 0.44993,
 -0.0143249l 0.44993, -0.0143249l 0.44993, -0.0143249l 0.44993, -0.0143249l 0.44993, -0.0143249l 0.44993, -0.0143249l 0.44993, -0.0143249l 0.44993, -0.0143249l 0.44993, -0.0143249l 0.44993, -0.0143249l 0.44993, -0.0143249l 0.44993, -0.0143249l
 0.44993, -0.0143249l 0.44993, -0.0143249l 0.44993, -0.0143249l 0.44993, -0.0143249" fill="none" stroke="#33cccc" stroke-width="3"/>
<path d="M231.031,295.589l 0.44993, -0.0143249l 0.44993, -0.0143249l 0.44993, -0.0143249l 0.44993, -0.0143249l 0.44993, -0.0143249l 0.44993, -0.0143249l 0.44993, -0.0143249l 0.44993, -0.0143249l 0.44993, -0.0143249l 0.44993, -0.0143249l 0.44993,
 -0.0143249l 0.44993, -0.0143249l 0.44993, -0.0143249l 0.44993, -0.0143249l 0.44993, -0.0143249l 0.44993, -0.0143249l 0.44993, -0.0143249l 0.44993, -0.0143249l 0.44993, -0.0143249l 0.44993, -0.0143249l 0.44993, -0.0143249l 0.44993, -0.0143249l
 0.44993, -0.0143249l 0.44993, -0.0143249l 0.44993, -0.0143249l 0.44993, -0.0143249l 0.44993, -0.0143249l 0.44993, -0.0143249l 0.44993, -0.0143249l 0.44993, -0.0143249l 0.44993, -0.0143249l 0.44993, -0.0143249l 0.44993, -0.0143249l 0.44993,
 -0.0143249l 0.44993, -0.0143249l 0.44993, -0.0143249l 0.44993, -0.0143249l 0.44993, -0.0143249l 0.44993, -0.0143249l 0.44993, -0.0143249l 0.44993, -0.0143249l 0.44993, -0.0143249l 0.44993, -0.0143249l 0.44993, -0.0143249l 0.44993, -0.0143249l
 0.44993, -0.0143249l 0.44993, -0.0143249l 0.44993, -0.0143249l 0.44993, -0.0143249" fill="none" stroke="#33cccc" stroke-width="3"/>
<path d="M253.078,294.887l 0.44993, -0.0143249l 0.44993, -0.0143249l 0.44993, -0.0143249l 0.44993, -0.0143249l 0.44993, -0.0143249l 0.44993, -0.0143249l 0.44993, -0.0143249l 0.44993, -0.0143249l 0.44993, -0.0143249l 0.44993, -0.0143249l 0.44993,
 -0.0143249l 0.44993, -0.0143249l 0.44993, -0.0143249l 0.44993, -0.0143249l 0.44993, -0.0143249l 0.44993, -0.0143249l 0.44993, -0.0143249l 0.44993, -0.0143249l 0.44993, -0.0143249l 0.44993, -0.0143249l 0.44993, -0.0143249l 0.44993, -0.0143249l
 0.44993, -0.0143249l 0.44993, -0.0143249l 0.44993, -0.0143249l 0.44993, -0.0143249l 0.44993, -0.0143249l 0.44993, -0.0143249l 0.44993, -0.0143249l 0.44993, -0.0143249l 0.44993, -0.0143249l 0.44993, -0.0143249l 0.44993, -0.0143249l 0.44993,
 -0.0143249l 0.44993, -0.0143249l 0.44993, -0.0143249l 0.44993, -0.0143249l 0.44993, -0.0143249l 0.44993, -0.0143249l 0.44993, -0.0143249l 0.44993, -0.0143249l 0.44993, -0.0143249l 0.44993, -0.0143249l 0.44993, -0.0143249l 0.44993, -0.0143249l
 0.44993, -0.0143249l 0.44993, -0.0143249l 0.44993, -0.0143249l 0.44993, -0.0143249" fill="none" stroke="#33cccc" stroke-width="3"/>
<path d="M275.124,294.185l 0.44993, -0.0143249l 0.44993, -0.0143249l 0.44993, -0.0143249l 0.44993, -0.0143249l 0.44993, -0.0143249l 0.44993, -0.0143249l 0.44993, -0.0143249l 0.44993, -0.0143249l 0.44993, -0.0143249l 0.44993, -0.0143249l 0.44993,
 -0.0143249l 0.44993, -0.0143249l 0.44993, -0.0143249l 0.44993, -0.0143249l 0.44993, -0.0143249l 0.44993, -0.0143249l 0.44993, -0.0143249l 0.44993, -0.0143249l 0.44993, -0.0143249l 0.44993, -0.0143249l 0.44993, -0.0143249l 0.44993, -0.0143249l
 0.44993, -0.0143249l 0.44993, -0.0143249l 0.44993, -0.0143249l 0.44993, -0.0143249l 0.44993, -0.0143249l 0.44993, -0.0143249l 0.44993, -0.0143249l 0.44993, -0.0143249l 0.44993, -0.0143249l 0.44993, -0.0143249l 0.44993, -0.0143249l 0.44993,
 -0.0143249l 0.44993, -0.0143249l 0.44993, -0.0143249l 0.44993, -0.0143249l 0.44993, -0.0143249l 0.44993, -0.0143249l 0.44993, -0.0143249l 0.44993, -0.0143249l 0.44993, -0.0143249l 0.44993, -0.0143249l 0.44993, -0.0143249l 0.44993, -0.0143249l
 0.44993, -0.0143249l 0.44993, -0.0143249l 0.44993, -0.0143249l 0.44993, -0.0143249" fill="none" stroke="#33cccc" stroke-width="3"/>
<path d="M297.171,293.483l 0.44993, -0.0143249l 0.44993, -0.0143249l 0.44993, -0.0143249l 0.44993, -0.0143249l 0.44993, -0.0143249l 0.44993, -0.0143249l 0.44993, -0.0143249l 0.44993, -0.0143249l 0.44993, -0.0143249l 0.44993, -0.0143249l 0.44993,
 -0.0143249l 0.44993, -0.0143249l 0.44993, -0.0143249l 0.44993, -0.0143249l 0.44993, -0.0143249l 0.44993, -0.0143249l 0.44993, -0.0143249l 0.44993, -0.0143249l 0.44993, -0.0143249l 0.44993, -0.0143249l 0.44993, -0.0143249l 0.44993, -0.0143249l
 0.44993, -0.0143249l 0.44993, -0.0143249l 0.44993, -0.0143249l 0.44993, -0.0143249l 0.44993, -0.0143249l 0.44993, -0.0143249l 0.44993, -0.0143249l 0.44993, -0.0143249l 0.44993, -0.0143249l 0.44993, -0.0143249l 0.44993, -0.0143249l 0.44993,
 -0.0143249l 0.44993, -0.0143249l 0.44993, -0.0143249l 0.44993, -0.0143249l 0.44993, -0.0143249l 0.44993, -0.0143249l 0.44993, -0.0143249l 0.44993, -0.0143249l 0.44993, -0.0143249l 0.44993, -0.0143249l 0.44993, -0.0143249l 0.44993, -0.0143249l
 0.44993, -0.0143249l 0.44993, -0.0143249l 0.44993, -0.0143249l 0.44993, -0.0143249" fill="none" stroke="#33cccc" stroke-width="3"/>
<path d="M319.217,292.781l 0.44993, -0.0143249l 0.44993, -0.0143249l 0.44993, -0.0143249l 0.44993, -0.0143249l 0.44993, -0.0143249l 0.44993, -0.0143249l 0.44993, -0.0143249l 0.44993, -0.0143249l 0.44993, -0.0143249l 0.44993, -0.0143249l 0.44993,
 -0.0143249l 0.44993, -0.0143249l 0.44993, -0.0143249l 0.44993, -0.0143249l 0.44993, -0.0143249l 0.44993, -0.0143249l 0.44993, -0.0143249l 0.44993, -0.0143249l 0.44993, -0.0143249l 0.44993, -0.0143249l 0.44993, -0.0143249l 0.44993, -0.0143249l
 0.44993, -0.0143249l 0.44993, -0.0143249l 0.44993, -0.0143249l 0.44993, -0.0143249l 0.44993, -0.0143249l 0.44993, -0.0143249l 0.44993, -0.0143249l 0.44993, -0.0143249l 0.44993, -0.0143249l 0.44993, -0.0143249l 0.44993, -0.0143249l 0.44993,
 -0.0143249l 0.44993, -0.0143249l 0.44993, -0.0143249l 0.44993, -0.0143249l 0.44993, -0.0143249l 0.44993, -0.0143249l 0.44993, -0.0143249l 0.44993, -0.0143249l 0.44993, -0.0143249l 0.44993, -0.0143249l 0.44993, -0.0143249l 0.44993, -0.0143249l
 0.44993, -0.0143249l 0.44993, -0.0143249l 0.44993, -0.0143249l 0.44993, -0.0143249" fill="none" stroke="#33cccc" stroke-width="3"/>
<path d="M341.264,292.079l 0.44993, -0.0143249l 0.44993, -0.0143249l 0.44993, -0.0143249l 0.44993, -0.0143249l 0.44993, -0.0143249l 0.44993, -0.0143249l 0.44993, -0.0143249l 0.44993, -0.0143249l 0.44993, -0.0143249l 0.44993, -0.0143249l 0.44993,
 -0.0143249l 0.44993, -0.0143249l 0.44993, -0.0143249l 0.44993, -0.0143249l 0.44993, -0.0143249l 0.44993, -0.0143249l 0.44993, -0.0143249l 0.44993, -0.0143249l 0.44993, -0.0143249l 0.44993, -0.0143249l 0.44993, -0.0143249l 0.44993, -0.0143249l
 0.44993, -0.0143249l 0.44993, -0.0143249l 0.44993, -0.0143249l 0.44993, -0.0143249l 0.44993, -0.0143249l 0.44993, -0.0143249l 0.44993, -0.0143249l 0.44993, -0.0143249l 0.44993, -0.0143249l 0.44993, -0.0143249l 0.44993, -0.0143249l 0.44993,
 -0.0143249l 0.44993, -0.0143249l 0.44993, -0.0143249l 0.44993, -0.0143249l 0.44993, -0.0143249l 0.44993, -0.0143249l 0.44993, -0.0143249l 0.44993, -0.0143249l 0.44993, -0.0143249l 0.44993, -0.0143249l 0.44993, -0.0143249l 0.44993, -0.0143249l
 0.44993, -0.0143249l 0.44993, -0.0143249l 0.44993, -0.0143249l 0.44993, -0.0143249" fill="none" stroke="#33cccc" stroke-width="3"/>
<path d="M363.311,291.377l 0.44993, -0.0143249l 0.44993, -0.0143249l 0.44993, -0.0143249l 0.44993, -0.0143249l 0.44993, -0.0143249l 0.44993, -0.0143249l 0.44993, -0.0143249l 0.44993, -0.0143249l 0.44993, -0.0143249l 0.44993, -0.0143249l 0.44993,
 -0.0143249l 0.44993, -0.0143249l 0.44993, -0.0143249l 0.44993, -0.0143249l 0.44993, -0.0143249l 0.44993, -0.0143249l 0.44993, -0.0143249l 0.44993, -0.0143249l 0.44993, -0.0143249l 0.44993, -0.0143249l 0.44993, -0.0143249l 0.44993, -0.0143249l
 0.44993, -0.0143249l 0.44993, -0.0143249l 0.44993, -0.0143249l 0.44993, -0.0143249l 0.44993, -0.0143249l 0.44993, -0.0143249l 0.44993, -0.0143249l 0.44993, -0.0143249l 0.44993, -0.0143249l 0.44993, -0.0143249l 0.44993, -0.0143249l 0.44993,
 -0.0143249l 0.44993, -0.0143249l 0.44993, -0.0143249l 0.44993, -0.0143249l 0.44993, -0.0143249l 0.44993, -0.0143249l 0.44993, -0.0143249l 0.44993, -0.0143249l 0.44993, -0.0143249l 0.44993, -0.0143249l 0.44993, -0.0143249l 0.44993, -0.0143249l
 0.44993, -0.0143249l 0.44993, -0.0143249l 0.44993, -0.0143249l 0.44993, -0.0143249" fill="none" stroke="#33cccc" stroke-width="3"/>
<path d="M385.357,290.675l 0.44993, -0.0143249l 0.44993, -0.0143249l 0.44993, -0.0143249l 0.44993, -0.0143249l 0.44993, -0.0143249l 0.44993, -0.0143249l 0.44993, -0.0143249l 0.44993, -0.0143249l 0.44993, -0.0143249l 0.44993, -0.0143249l 0.44993,
 -0.0143249l 0.44993, -0.0143249l 0.44993, -0.0143249l 0.44993, -0.0143249l 0.44993, -0.0143249l 0.44993, -0.0143249l 0.44993, -0.0143249l 0.44993, -0.0143249l 0.44993, -0.0143249l 0.44993, -0.0143249l 0.44993, -0.0143249l 0.44993, -0.0143249l
 0.44993, -0.0143249l 0.44993, -0.0143249l 0.44993, -0.0143249l 0.44993, -0.0143249l 0.44993, -0.0143249l 0.44993, -0.0143249l 0.44993, -0.0143249l 0.44993, -0.0143249l 0.44993, -0.0143249l 0.44993, -0.0143249l 0.44993, -0.0143249l 0.44993,
 -0.0143249l 0.44993, -0.0143249l 0.44993, -0.0143249l 0.44993, -0.0143249l 0.44993, -0.0143249l 0.44993, -0.0143249l 0.44993, -0.0143249l 0.44993, -0.0143249l 0.44993, -0.0143249l 0.44993, -0.0143249l 0.44993, -0.0143249l 0.44993, -0.0143249l
 0.44993, -0.0143249l 0.44993, -0.0143249l 0.44993, -0.0143249l 0.44993, -0.0143249" fill="none" stroke="#33cccc" stroke-width="3"/>
<path d="M407.404,289.973l 0.44993, -0.0143249l 0.44993, -0.0143249l 0.44993, -0.0143249l 0.44993, -0.0143249l 0.44993, -0.0143249l 0.44993, -0.0143249l 0.44993, -0.0143249l 0.44993, -0.0143249l 0.44993, -0.0143249l 0.44993, -0.0143249l 0.44993,
 -0.0143249l 0.44993, -0.0143249l 0.44993, -0.0143249l 0.44993, -0.0143249l 0.44993, -0.0143249l 0.44993, -0.0143249l 0.44993, -0.0143249l 0.44993, -0.0143249l 0.44993, -0.0143249l 0.44993, -0.0143249l 0.44993, -0.0143249l 0.44993, -0.0143249l
 0.44993, -0.0143249l 0.44993, -0.0143249l 0.44993, -0.0143249l 0.44993, -0.0143249l 0.44993, -0.0143249l 0.44993, -0.0143249l 0.44993, -0.0143249l 0.44993, -0.0143249l 0.44993, -0.0143249l 0.44993, -0.0143249l 0.44993, -0.0143249l 0.44993,
 -0.0143249l 0.44993, -0.0143249l 0.44993, -0.0143249l 0.44993, -0.0143249l 0.44993, -0.0143249l 0.44993, -0.0143249l 0.44993, -0.0143249l 0.44993, -0.0143249l 0.44993, -0.0143249l 0.44993, -0.0143249l 0.44993, -0.0143249l 0.44993, -0.0143249l
 0.44993, -0.0143249l 0.44993, -0.0143249l 0.44993, -0.0143249l 0.44993, -0.0143249" fill="none" stroke="#33cccc" stroke-width="3"/>
<path d="M429.45,289.271l 0.44993, -0.0143249l 0.44993, -0.0143249l 0.44993, -0.0143249l 0.44993, -0.0143249l 0.44993, -0.0143249l 0.44993, -0.0143249l 0.44993, -0.0143249l 0.44993, -0.0143249l 0.44993, -0.0143249l 0.44993, -0.0143249l 0.44993,
 -0.0143249l 0.44993, -0.0143249l 0.44993, -0.0143249l 0.44993, -0.0143249l 0.44993, -0.0143249l 0.44993, -0.0143249l 0.44993, -0.0143249l 0.44993, -0.0143249l 0.44993, -0.0143249l 0.44993, -0.0143249l 0.44993, -0.0143249l 0.44993, -0.0143249l
 0.44993, -0.0143249l 0.44993, -0.0143249l 0.44993, -0.0143249l 0.44993, -0.0143249l 0.44993, -0.0143249l 0.44993, -0.0143249l 0.44993, -0.0143249l 0.44993, -0.0143249l 0.44993, -0.0143249l 0.44993, -0.0143249l 0.44993, -0.0143249l 0.44993,
 -0.0143249l 0.44993, -0.0143249l 0.44993, -0.0143249l 0.44993, -0.0143249l 0.44993, -0.0143249l 0.44993, -0.0143249l 0.44993, -0.0143249l 0.44993, -0.0143249l 0.44993, -0.0143249l 0.44993, -0.0143249l 0.44993, -0.0143249l 0.44993, -0.0143249l
 0.44993, -0.0143249l 0.44993, -0.0143249l 0.44993, -0.0143249l 0.44993, -0.0143249" fill="none" stroke="#33cccc" stroke-width="3"/>
<path d="M451.497,288.57l 0.44993, -0.0143249l 0.44993, -0.0143249l 0.44993, -0.0143249l 0.44993, -0.0143249l 0.44993, -0.0143249l 0.44993, -0.0143249l 0.44993, -0.0143249l 0.44993, -0.0143249l 0.44993, -0.0143249l 0.44993, -0.0143249l 0.44993,
 -0.0143249l 0.44993, -0.0143249l 0.44993, -0.0143249l 0.44993, -0.0143249l 0.44993, -0.0143249l 0.44993, -0.0143249l 0.44993, -0.0143249l 0.44993, -0.0143249l 0.44993, -0.0143249l 0.44993, -0.0143249l 0.44993, -0.0143249l 0.44993, -0.0143249l
 0.44993, -0.0143249l 0.44993, -0.0143249l 0.44993, -0.0143249l 0.44993, -0.0143249l 0.44993, -0.0143249l 0.44993, -0.0143249l 0.44993, -0.0143249l 0.44993, -0.0143249l 0.44993, -0.0143249l 0.44993, -0.0143249l 0.44993, -0.0143249l 0.44993,
 -0.0143249l 0.44993, -0.0143249l 0.44993, -0.0143249l 0.44993, -0.0143249l 0.44993, -0.0143249l 0.44993, -0.0143249l 0.44993, -0.0143249l 0.44993, -0.0143249l 0.44993, -0.0143249l 0.44993, -0.0143249l 0.44993, -0.0143249l 0.44993, -0.0143249l
 0.44993, -0.0143249l 0.44993, -0.0143249l 0.44993, -0.0143249l 0.44993, -0.0143249" fill="none" stroke="#33cccc" stroke-width="3"/>
<path d="M473.543,287.868l 0.44993, -0.0143249l 0.44993, -0.0143249l 0.44993, -0.0143249l 0.44993, -0.0143249l 0.44993, -0.0143249l 0.44993, -0.0143249l 0.44993, -0.0143249l 0.44993, -0.0143249l 0.44993, -0.0143249l 0.44993, -0.0143249l 0.44993,
 -0.0143249l 0.44993, -0.0143249l 0.44993, -0.0143249l 0.44993, -0.0143249l 0.44993, -0.0143249l 0.44993, -0.0143249l 0.44993, -0.0143249l 0.44993, -0.0143249l 0.44993, -0.0143249l 0.44993, -0.0143249l 0.44993, -0.0143249l 0.44993, -0.0143249l
 0.44993, -0.0143249l 0.44993, -0.0143249l 0.44993, -0.0143249l 0.44993, -0.0143249l 0.44993, -0.0143249l 0.44993, -0.0143249l 0.44993, -0.0143249l 0.44993, -0.0143249l 0.44993, -0.0143249l 0.44993, -0.0143249l 0.44993, -0.0143249l 0.44993,
 -0.0143249l 0.44993, -0.0143249l 0.44993, -0.0143249l 0.44993, -0.0143249l 0.44993, -0.0143249l 0.44993, -0.0143249l 0.44993, -0.0143249l 0.44993, -0.0143249l 0.44993, -0.0143249l 0.44993, -0.0143249l 0.44993, -0.0143249l 0.44993, -0.0143249l
 0.44993, -0.0143249l 0.44993, -0.0143249l 0.44993, -0.0143249l 0.44993, -0.0143249" fill="none" stroke="#33cccc" stroke-width="3"/>
<path d="M495.59,287.166l 0.44993, -0.0143249l 0.44993, -0.0143249l 0.44993, -0.0143249l 0.44993, -0.0143249l 0.44993, -0.0143249l 0.44993, -0.0143249l 0.44993, -0.0143249l 0.44993, -0.0143249l 0.44993, -0.0143249l 0.44993, -0.0143249l 0.44993,
 -0.0143249l 0.44993, -0.0143249l 0.44993, -0.0143249l 0.44993, -0.0143249l 0.44993, -0.0143249l 0.44993, -0.0143249l 0.44993, -0.0143249l 0.44993, -0.0143249l 0.44993, -0.0143249l 0.44993, -0.0143249l 0.44993, -0.0143249l 0.44993, -0.0143249l
 0.44993, -0.0143249l 0.44993, -0.0143249l 0.44993, -0.0143249l 0.44993, -0.0143249l 0.44993, -0.0143249l 0.44993, -0.0143249l 0.44993, -0.0143249l 0.44993, -0.0143249l 0.44993, -0.0143249l 0.44993, -0.0143249l 0.44993, -0.0143249l 0.44993,
 -0.0143249l 0.44993, -0.0143249l 0.44993, -0.0143249l 0.44993, -0.0143249l 0.44993, -0.0143249l 0.44993, -0.0143249l 0.44993, -0.0143249l 0.44993, -0.0143249l 0.44993, -0.0143249l 0.44993, -0.0143249l 0.44993, -0.0143249l 0.44993, -0.0143249l
 0.44993, -0.0143249l 0.44993, -0.0143249l 0.44993, -0.0143249l 0.44993, -0.0143249" fill="none" stroke="#33cccc" stroke-width="3"/>
<path d="M517.636,286.464l 0.44993, -0.0143249l 0.44993, -0.0143249l 0.44993, -0.0143249l 0.44993, -0.0143249l 0.44993, -0.0143249l 0.44993, -0.0143249l 0.44993, -0.0143249l 0.44993, -0.0143249l 0.44993, -0.0143249l 0.44993, -0.0143249l 0.44993,
 -0.0143249l 0.44993, -0.0143249l 0.44993, -0.0143249l 0.44993, -0.0143249l 0.44993, -0.0143249l 0.44993, -0.0143249l 0.44993, -0.0143249l 0.44993, -0.0143249l 0.44993, -0.0143249l 0.44993, -0.0143249l 0.44993, -0.0143249l 0.44993, -0.0143249l
 0.44993, -0.0143249l 0.44993, -0.0143249l 0.44993, -0.0143249l 0.44993, -0.0143249l 0.44993, -0.0143249l 0.44993, -0.0143249l 0.44993, -0.0143249l 0.44993, -0.0143249l 0.44993, -0.0143249l 0.44993, -0.0143249l 0.44993, -0.0143249l 0.44993,
 -0.0143249l 0.44993, -0.0143249l 0.44993, -0.0143249l 0.44993, -0.0143249l 0.44993, -0.0143249l 0.44993, -0.0143249l 0.44993, -0.0143249l 0.44993, -0.0143249l 0.44993, -0.0143249l 0.44993, -0.0143249l 0.44993, -0.0143249l 0.44993, -0.0143249l
 0.44993, -0.0143249l 0.44993, -0.0143249l 0.44993, -0.0143249l 0.44993, -0.0143249" fill="none" stroke="#33cccc" stroke-width="3"/>
<path d="M539.683,285.762l 0.44993, -0.0143249l 0.44993, -0.0143249l 0.44993, -0.0143249l 0.44993, -0.0143249l 0.44993, -0.0143249l 0.44993, -0.0143249l 0.44993, -0.0143249l 0.44993, -0.0143249l 0.44993, -0.0143249l 0.44993, -0.0143249l 0.44993,
 -0.0143249l 0.44993, -0.0143249l 0.44993, -0.0143249l 0.44993, -0.0143249l 0.44993, -0.0143249l 0.44993, -0.0143249l 0.44993, -0.0143249l 0.44993, -0.0143249l 0.44993, -0.0143249" fill="none" stroke="#33cccc" stroke-width="3"/>
<path d="M98.7518,241.275l 0.44993, 0.216718l 0.44993, 0.216302l 0.44993, 0.215886l 0.44993, 0.21547l 0.44993, 0.215054l 0.44993, 0.214637l 0.44993, 0.214221l 0.44993, 0.213805l 0.44993, 0.213389l 0.44993, 0.212973l 0.44993, 0.212557l 0.44993,
 0.212141l 0.44993, 0.211725l 0.44993, 0.211309l 0.44993, 0.210893l 0.44993, 0.210477l 0.44993, 0.210061l 0.44993, 0.209645l 0.44993, 0.209229l 0.44993, 0.208813l 0.44993, 0.208397l 0.44993, 0.207981l 0.44993, 0.207565l 0.44993, 0.207149l 0.44993,
 0.206733l 0.44993, 0.206317l 0.44993, 0.205901l 0.44993, 0.205485l 0.44993, 0.205069l 0.44993, 0.204653l 0.44993, 0.204237l 0.44993, 0.203821l 0.44993, 0.203405l 0.44993, 0.202989l 0.44993, 0.202573l 0.44993, 0.202157l 0.44993, 0.201741l 0.44993,
 0.201325l 0.44993, 0.200909l 0.44993, 0.200493l 0.44993, 0.200077l 0.44993, 0.199661l 0.44993, 0.199244l 0.44993, 0.198828l 0.44993, 0.198412l 0.44993, 0.197996l 0.44993, 0.19758l 0.44993, 0.197164l 0.44993, 0.196748" fill="none" stroke="#ff0066"
 stroke-width="3"/>
<path d="M120.798,251.405l 0.44993, 0.196332l 0.44993, 0.195916l 0.44993, 0.1955l 0.44993, 0.195084l 0.44993, 0.194668l 0.44993, 0.194252l 0.44993, 0.193836l 0.44993, 0.19342l 0.44993, 0.193004l 0.44993, 0.192588l 0.44993, 0.192172l 0.44993,
 0.191756l 0.44993, 0.19134l 0.44993, 0.190924l 0.44993, 0.190508l 0.44993, 0.190092l 0.44993, 0.189676l 0.44993, 0.18926l 0.44993, 0.188844l 0.44993, 0.188428l 0.44993, 0.188012l 0.44993, 0.187596l 0.44993, 0.18718l 0.44993, 0.186764l 0.44993,
 0.186348l 0.44993, 0.185932l 0.44993, 0.185516l 0.44993, 0.1851l 0.44993, 0.184684l 0.44993, 0.184268l 0.44993, 0.183851l 0.44993, 0.183435l 0.44993, 0.183019l 0.44993, 0.182603l 0.44993, 0.182187l 0.44993, 0.181771l 0.44993, 0.181355l 0.44993,
 0.180939l 0.44993, 0.180523l 0.44993, 0.180107l 0.44993, 0.179691l 0.44993, 0.179275l 0.44993, 0.178859l 0.44993, 0.178443l 0.44993, 0.178027l 0.44993, 0.177611l 0.44993, 0.177195l 0.44993, 0.176779l 0.44993, 0.176363" fill="none" stroke="#ff0066"
 stroke-width="3"/>
<path d="M142.845,260.536l 0.44993, 0.175947l 0.44993, 0.175531l 0.44993, 0.175115l 0.44993, 0.174699l 0.44993, 0.174283l 0.44993, 0.173867l 0.44993, 0.173451l 0.44993, 0.173035l 0.44993, 0.172619l 0.44993, 0.172203l 0.44993, 0.171787l 0.44993,
 0.171371l 0.44993, 0.170955l 0.44993, 0.170539l 0.44993, 0.170123l 0.44993, 0.169707l 0.44993, 0.169291l 0.44993, 0.168875l 0.44993, 0.168458l 0.44993, 0.168042l 0.44993, 0.167626l 0.44993, 0.16721l 0.44993, 0.166794l 0.44993, 0.166378l 0.44993,
 0.165962l 0.44993, 0.165546l 0.44993, 0.16513l 0.44993, 0.164714l 0.44993, 0.164298l 0.44993, 0.163882l 0.44993, 0.163466l 0.44993, 0.16305l 0.44993, 0.162634l 0.44993, 0.162218l 0.44993, 0.161802l 0.44993, 0.161386l 0.44993, 0.16097l 0.44993,
 0.160554l 0.44993, 0.160138l 0.44993, 0.159722l 0.44993, 0.159306l 0.44993, 0.15889l 0.44993, 0.158474l 0.44993, 0.158058l 0.44993, 0.157642l 0.44993, 0.157226l 0.44993, 0.15681l 0.44993, 0.156394l 0.44993, 0.155978" fill="none" stroke="#ff0066"
 stroke-width="3"/>
<path d="M164.891,268.668l 0.44993, 0.155562l 0.44993, 0.155146l 0.44993, 0.15473l 0.44993, 0.154314l 0.44993, 0.153898l 0.44993, 0.153482l 0.44993, 0.153065l 0.44993, 0.152649l 0.44993, 0.152233l 0.44993, 0.151817l 0.44993, 0.151401l 0.44993,
 0.150985l 0.44993, 0.150569l 0.44993, 0.150153l 0.44993, 0.149737l 0.44993, 0.149321l 0.44993, 0.148905l 0.44993, 0.148489l 0.44993, 0.148073l 0.44993, 0.147657l 0.44993, 0.147241l 0.44993, 0.146825l 0.44993, 0.146409l 0.44993, 0.145993l 0.44993,
 0.145577l 0.44993, 0.145161l 0.44993, 0.144745l 0.44993, 0.144329l 0.44993, 0.143913l 0.44993, 0.143497l 0.44993, 0.143081l 0.44993, 0.142665l 0.44993, 0.142249l 0.44993, 0.141833l 0.44993, 0.141417l 0.44993, 0.141001l 0.44993, 0.140585l 0.44993,
 0.140169l 0.44993, 0.139753l 0.44993, 0.139337l 0.44993, 0.138921l 0.44993, 0.138505l 0.44993, 0.138089l 0.44993, 0.137672l 0.44993, 0.137256l 0.44993, 0.13684l 0.44993, 0.136424l 0.44993, 0.136008l 0.44993, 0.135592" fill="none" stroke="#ff0066"
 stroke-width="3"/>
<path d="M186.938,275.801l 0.44993, 0.135176l 0.44993, 0.13476l 0.44993, 0.134344l 0.44993, 0.133928l 0.44993, 0.133512l 0.44993, 0.133096l 0.44993, 0.13268l 0.44993, 0.132264l 0.44993, 0.131848l 0.44993, 0.131432l 0.44993, 0.131016l 0.44993, 0.1306l
 0.44993, 0.130184l 0.44993, 0.129768l 0.44993, 0.129352l 0.44993, 0.128936l 0.44993, 0.12852l 0.44993, 0.128104l 0.44993, 0.127688l 0.44993, 0.127272l 0.44993, 0.126856l 0.44993, 0.12644l 0.44993, 0.126024l 0.44993, 0.125608l 0.44993, 0.125192l
 0.44993, 0.124776l 0.44993, 0.12436l 0.44993, 0.123944l 0.44993, 0.123528l 0.44993, 0.123112l 0.44993, 0.122695l 0.44993, 0.122279l 0.44993, 0.121863l 0.44993, 0.121447l 0.44993, 0.121031l 0.44993, 0.120615l 0.44993, 0.120199l 0.44993, 0.119783l
 0.44993, 0.119367l 0.44993, 0.118951l 0.44993, 0.118535l 0.44993, 0.118119l 0.44993, 0.117703l 0.44993, 0.117287l 0.44993, 0.116871l 0.44993, 0.116455l 0.44993, 0.116039l 0.44993, 0.115623l 0.44993, 0.115207" fill="none" stroke="#ff0066"
 stroke-width="3"/>
<path d="M208.985,281.936l 0.44993, 0.114791l 0.44993, 0.114375l 0.44993, 0.113959l 0.44993, 0.113543l 0.44993, 0.113127l 0.44993, 0.112711l 0.44993, 0.112295l 0.44993, 0.111879l 0.44993, 0.111463l 0.44993, 0.111047l 0.44993, 0.110631l 0.44993,
 0.110215l 0.44993, 0.109799l 0.44993, 0.109383l 0.44993, 0.108967l 0.44993, 0.108551l 0.44993, 0.108135l 0.44993, 0.107719l 0.44993, 0.107302l 0.44993, 0.106886l 0.44993, 0.10647l 0.44993, 0.106054l 0.44993, 0.105638l 0.44993, 0.105222l 0.44993,
 0.104806l 0.44993, 0.10439l 0.44993, 0.103974l 0.44993, 0.103558l 0.44993, 0.103142l 0.44993, 0.102726l 0.44993, 0.10231l 0.44993, 0.101894l 0.44993, 0.101478l 0.44993, 0.101062l 0.44993, 0.100646l 0.44993, 0.10023l 0.44993, 0.099814l 0.44993,
 0.099398l 0.44993, 0.098982l 0.44993, 0.0985659l 0.44993, 0.0981499l 0.44993, 0.0977339l 0.44993, 0.0973178l 0.44993, 0.0969018l 0.44993, 0.0964858l 0.44993, 0.0960698l 0.44993, 0.0956537l 0.44993, 0.0952377l 0.44993, 0.0948217" fill="none"
 stroke="#ff0066" stroke-width="3"/>
<path d="M231.031,287.071l 0.44993, 0.0944057l 0.44993, 0.0939896l 0.44993, 0.0935736l 0.44993, 0.0931576l 0.44993, 0.0927415l 0.44993, 0.0923255l 0.44993, 0.0919095l 0.44993, 0.0914935l 0.44993, 0.0910774l 0.44993, 0.0906614l 0.44993, 0.0902454l
 0.44993, 0.0898294l 0.44993, 0.0894133l 0.44993, 0.0889973l 0.44993, 0.0885813l 0.44993, 0.0881652l 0.44993, 0.0877492l 0.44993, 0.0873332l 0.44993, 0.0869172l 0.44993, 0.0865011l 0.44993, 0.0860851l 0.44993, 0.0856691l 0.44993, 0.0852531l 0.44993,
 0.084837l 0.44993, 0.084421l 0.44993, 0.084005l 0.44993, 0.083589l 0.44993, 0.0831729l 0.44993, 0.0827569l 0.44993, 0.0823409l 0.44993, 0.0819248l 0.44993, 0.0815088l 0.44993, 0.0810928l 0.44993, 0.0806768l 0.44993, 0.0802607l 0.44993, 0.0798447l
 0.44993, 0.0794287l 0.44993, 0.0790127l 0.44993, 0.0785966l 0.44993, 0.0781806l 0.44993, 0.0777646l 0.44993, 0.0773485l 0.44993, 0.0769325l 0.44993, 0.0765165l 0.44993, 0.0761005l 0.44993, 0.0756844l 0.44993, 0.0752684l 0.44993, 0.0748524l 0.44993,
 0.0744364" fill="none" stroke="#ff0066" stroke-width="3"/>
<path d="M253.078,291.208l 0.44993, 0.0740203l 0.44993, 0.0736043l 0.44993, 0.0731883l 0.44993, 0.0727722l 0.44993, 0.0723562l 0.44993, 0.0719402l 0.44993, 0.0715242l 0.44993, 0.0711081l 0.44993, 0.0706921l 0.44993, 0.0702761l 0.44993, 0.0698601l
 0.44993, 0.069444l 0.44993, 0.069028l 0.44993, 0.068612l 0.44993, 0.0681959l 0.44993, 0.0677799l 0.44993, 0.0673639l 0.44993, 0.0669479l 0.44993, 0.0665318l 0.44993, 0.0661158l 0.44993, 0.0656998l 0.44993, 0.0652838l 0.44993, 0.0648677l 0.44993,
 0.0644517l 0.44993, 0.0640357l 0.44993, 0.0636197l 0.44993, 0.0632036l 0.44993, 0.0627876l 0.44993, 0.0623716l 0.44993, 0.0619555l 0.44993, 0.0615395l 0.44993, 0.0611235l 0.44993, 0.0607075l 0.44993, 0.0602914l 0.44993, 0.0598754l 0.44993,
 0.0594594l 0.44993, 0.0590433l 0.44993, 0.0586273l 0.44993, 0.0582113l 0.44993, 0.0577953l 0.44993, 0.0573792l 0.44993, 0.0569632l 0.44993, 0.0565472l 0.44993, 0.0561312l 0.44993, 0.0557151l 0.44993, 0.0552991l 0.44993, 0.0548831l 0.44993,
 0.0544671l 0.44993, 0.054051" fill="none" stroke="#ff0066" stroke-width="3"/>
<path d="M275.124,294.346l 0.44993, 0.053635l 0.44993, 0.053219l 0.44993, 0.0528029l 0.44993, 0.0523869l 0.44993, 0.0519709l 0.44993, 0.0515549l 0.44993, 0.0511388l 0.44993, 0.0507228l 0.44993, 0.0503068l 0.44993, 0.0498908l 0.44993, 0.0494747l
 0.44993, 0.0490587l 0.44993, 0.0486427l 0.44993, 0.0482266l 0.44993, 0.0478106l 0.44993, 0.0473946l 0.44993, 0.0469786l 0.44993, 0.0465625l 0.44993, 0.0461465l 0.44993, 0.0457305l 0.44993, 0.0453145l 0.44993, 0.0448984l 0.44993, 0.0444824l 0.44993,
 0.0440664l 0.44993, 0.0436503l 0.44993, 0.0432343l 0.44993, 0.0428183l 0.44993, 0.0424023l 0.44993, 0.0419862l 0.44993, 0.0415702l 0.44993, 0.0411542l 0.44993, 0.0407382l 0.44993, 0.0403221l 0.44993, 0.0399061l 0.44993, 0.0394901l 0.44993, 0.039074l
 0.44993, 0.038658l 0.44993, 0.038242l 0.44993, 0.037826l 0.44993, 0.0374099l 0.44993, 0.0369939l 0.44993, 0.0365779l 0.44993, 0.0361619l 0.44993, 0.0357458l 0.44993, 0.0353298l 0.44993, 0.0349138l 0.44993, 0.0344977l 0.44993, 0.0340817l 0.44993,
 0.0336657" fill="none" stroke="#ff0066" stroke-width="3"/>
<path d="M297.171,296.484l 0.44993, 0.0332497l 0.44993, 0.0328336l 0.44993, 0.0324176l 0.44993, 0.0320016l 0.44993, 0.0315856l 0.44993, 0.0311695l 0.44993, 0.0307535l 0.44993, 0.0303375l 0.44993, 0.0299214l 0.44993, 0.0295054l 0.44993, 0.0290894l
 0.44993, 0.0286734l 0.44993, 0.0282573l 0.44993, 0.0278413l 0.44993, 0.0274253l 0.44993, 0.0270093l 0.44993, 0.0265932l 0.44993, 0.0261772l 0.44993, 0.0257612l 0.44993, 0.0253452l 0.44993, 0.0249291l 0.44993, 0.0245131l 0.44993, 0.0240971l 0.44993,
 0.023681l 0.44993, 0.023265l 0.44993, 0.022849l 0.44993, 0.022433l 0.44993, 0.0220169l 0.44993, 0.0216009l 0.44993, 0.0211849l 0.44993, 0.0207689l 0.44993, 0.0203528l 0.44993, 0.0199368l 0.44993, 0.0195208l 0.44993, 0.0191047l 0.44993, 0.0186887l
 0.44993, 0.0182727l 0.44993, 0.0178567l 0.44993, 0.0174406l 0.44993, 0.0170246l 0.44993, 0.0166086l 0.44993, 0.0161926l 0.44993, 0.0157765l 0.44993, 0.0153605l 0.44993, 0.0149445l 0.44993, 0.0145284l 0.44993, 0.0141124l 0.44993, 0.0136964l 0.44993,
 0.0132804" fill="none" stroke="#ff0066" stroke-width="3"/>
<path d="M319.217,297.624l 0.44993, 0.0128643l 0.44993, 0.0124483l 0.44993, 0.0120323l 0.44993, 0.0116163l 0.44993, 0.0112002l 0.44993, 0.0107842l 0.44993, 0.0103682l 0.44993, 0.00995215l 0.44993, 0.00953612l 0.44993, 0.00912009l 0.44993, 0.00870407l
 0.44993, 0.00828804l 0.44993, 0.00787201l 0.44993, 0.00745598l 0.44993, 0.00703996l 0.44993, 0.00662393l 0.44993, 0.0062079l 0.44993, 0.00579188l 0.44993, 0.00537585l 0.44993, 0.00495982l 0.44993, 0.00454379l 0.44993, 0.00412777l 0.44993,
 0.00371174l 0.44993, 0.00329571l 0.44993, 0.00287969l 0.44993, 0.00246366l 0.44993, 0.00204763l 0.44993, 0.0016316l 0.44993, 0.00121558l 0.44993, 0.000799551l 0.44993, 0.000383524l 0.44993, -3.25035e-05l 0.44993, -0.000448531l 0.44993, -0.000864558l
 0.44993, -0.00128058l 0.44993, -0.00169661l 0.44993, -0.00211264l 0.44993, -0.00252867l 0.44993, -0.00294469l 0.44993, -0.00336072l 0.44993, -0.00377675l 0.44993, -0.00419277l 0.44993, -0.0046088l 0.44993, -0.00502483l 0.44993, -0.00544086l 0.44993,
 -0.00585688l 0.44993, -0.00627291l 0.44993, -0.00668894l 0.44993, -0.00710496" fill="none" stroke="#ff0066" stroke-width="3"/>
<path d="M341.264,297.766l 0.44993, -0.00752099l 0.44993, -0.00793702l 0.44993, -0.00835305l 0.44993, -0.00876907l 0.44993, -0.0091851l 0.44993, -0.00960113l 0.44993, -0.0100172l 0.44993, -0.0104332l 0.44993, -0.0108492l 0.44993, -0.0112652l 0.44993,
 -0.0116813l 0.44993, -0.0120973l 0.44993, -0.0125133l 0.44993, -0.0129293l 0.44993, -0.0133454l 0.44993, -0.0137614l 0.44993, -0.0141774l 0.44993, -0.0145935l 0.44993, -0.0150095l 0.44993, -0.0154255l 0.44993, -0.0158415l 0.44993, -0.0162576l
 0.44993, -0.0166736l 0.44993, -0.0170896l 0.44993, -0.0175056l 0.44993, -0.0179217l 0.44993, -0.0183377l 0.44993, -0.0187537l 0.44993, -0.0191698l 0.44993, -0.0195858l 0.44993, -0.0200018l 0.44993, -0.0204178l 0.44993, -0.0208339l 0.44993,
 -0.0212499l 0.44993, -0.0216659l 0.44993, -0.0220819l 0.44993, -0.022498l 0.44993, -0.022914l 0.44993, -0.02333l 0.44993, -0.023746l 0.44993, -0.0241621l 0.44993, -0.0245781l 0.44993, -0.0249941l 0.44993, -0.0254102l 0.44993, -0.0258262l 0.44993,
 -0.0262422l 0.44993, -0.0266582l 0.44993, -0.0270743l 0.44993, -0.0274903" fill="none" stroke="#ff0066" stroke-width="3"/>
<path d="M363.311,296.908l 0.44993, -0.0279063l 0.44993, -0.0283223l 0.44993, -0.0287384l 0.44993, -0.0291544l 0.44993, -0.0295704l 0.44993, -0.0299865l 0.44993, -0.0304025l 0.44993, -0.0308185l 0.44993, -0.0312345l 0.44993, -0.0316506l 0.44993,
 -0.0320666l 0.44993, -0.0324826l 0.44993, -0.0328986l 0.44993, -0.0333147l 0.44993, -0.0337307l 0.44993, -0.0341467l 0.44993, -0.0345628l 0.44993, -0.0349788l 0.44993, -0.0353948l 0.44993, -0.0358108l 0.44993, -0.0362269l 0.44993, -0.0366429l
 0.44993, -0.0370589l 0.44993, -0.0374749l 0.44993, -0.037891l 0.44993, -0.038307l 0.44993, -0.038723l 0.44993, -0.0391391l 0.44993, -0.0395551l 0.44993, -0.0399711l 0.44993, -0.0403871l 0.44993, -0.0408032l 0.44993, -0.0412192l 0.44993, -0.0416352l
 0.44993, -0.0420512l 0.44993, -0.0424673l 0.44993, -0.0428833l 0.44993, -0.0432993l 0.44993, -0.0437154l 0.44993, -0.0441314l 0.44993, -0.0445474l 0.44993, -0.0449634l 0.44993, -0.0453795l 0.44993, -0.0457955l 0.44993, -0.0462115l 0.44993,
 -0.0466275l 0.44993, -0.0470436l 0.44993, -0.0474596l 0.44993, -0.0478756" fill="none" stroke="#ff0066" stroke-width="3"/>
<path d="M385.357,295.051l 0.44993, -0.0482916l 0.44993, -0.0487077l 0.44993, -0.0491237l 0.44993, -0.0495397l 0.44993, -0.0499558l 0.44993, -0.0503718l 0.44993, -0.0507878l 0.44993, -0.0512038l 0.44993, -0.0516199l 0.44993, -0.0520359l 0.44993,
 -0.0524519l 0.44993, -0.0528679l 0.44993, -0.053284l 0.44993, -0.0537l 0.44993, -0.054116l 0.44993, -0.0545321l 0.44993, -0.0549481l 0.44993, -0.0553641l 0.44993, -0.0557801l 0.44993, -0.0561962l 0.44993, -0.0566122l 0.44993, -0.0570282l 0.44993,
 -0.0574442l 0.44993, -0.0578603l 0.44993, -0.0582763l 0.44993, -0.0586923l 0.44993, -0.0591084l 0.44993, -0.0595244l 0.44993, -0.0599404l 0.44993, -0.0603564l 0.44993, -0.0607725l 0.44993, -0.0611885l 0.44993, -0.0616045l 0.44993, -0.0620205l
 0.44993, -0.0624366l 0.44993, -0.0628526l 0.44993, -0.0632686l 0.44993, -0.0636847l 0.44993, -0.0641007l 0.44993, -0.0645167l 0.44993, -0.0649327l 0.44993, -0.0653488l 0.44993, -0.0657648l 0.44993, -0.0661808l 0.44993, -0.0665968l 0.44993,
 -0.0670129l 0.44993, -0.0674289l 0.44993, -0.0678449l 0.44993, -0.068261" fill="none" stroke="#ff0066" stroke-width="3"/>
<path d="M407.404,292.196l 0.44993, -0.068677l 0.44993, -0.069093l 0.44993, -0.069509l 0.44993, -0.0699251l 0.44993, -0.0703411l 0.44993, -0.0707571l 0.44993, -0.0711731l 0.44993, -0.0715892l 0.44993, -0.0720052l 0.44993, -0.0724212l 0.44993,
 -0.0728372l 0.44993, -0.0732533l 0.44993, -0.0736693l 0.44993, -0.0740853l 0.44993, -0.0745014l 0.44993, -0.0749174l 0.44993, -0.0753334l 0.44993, -0.0757494l 0.44993, -0.0761655l 0.44993, -0.0765815l 0.44993, -0.0769975l 0.44993, -0.0774136l
 0.44993, -0.0778296l 0.44993, -0.0782456l 0.44993, -0.0786616l 0.44993, -0.0790777l 0.44993, -0.0794937l 0.44993, -0.0799097l 0.44993, -0.0803257l 0.44993, -0.0807418l 0.44993, -0.0811578l 0.44993, -0.0815738l 0.44993, -0.0819898l 0.44993,
 -0.0824059l 0.44993, -0.0828219l 0.44993, -0.0832379l 0.44993, -0.083654l 0.44993, -0.08407l 0.44993, -0.084486l 0.44993, -0.084902l 0.44993, -0.0853181l 0.44993, -0.0857341l 0.44993, -0.0861501l 0.44993, -0.0865661l 0.44993, -0.0869822l 0.44993,
 -0.0873982l 0.44993, -0.0878142l 0.44993, -0.0882303l 0.44993, -0.0886463" fill="none" stroke="#ff0066" stroke-width="3"/>
<path d="M429.45,288.341l 0.44993, -0.0890623l 0.44993, -0.0894783l 0.44993, -0.0898944l 0.44993, -0.0903104l 0.44993, -0.0907264l 0.44993, -0.0911424l 0.44993, -0.0915585l 0.44993, -0.0919745l 0.44993, -0.0923905l 0.44993, -0.0928066l 0.44993,
 -0.0932226l 0.44993, -0.0936386l 0.44993, -0.0940546l 0.44993, -0.0944707l 0.44993, -0.0948867l 0.44993, -0.0953027l 0.44993, -0.0957187l 0.44993, -0.0961348l 0.44993, -0.0965508l 0.44993, -0.0969668l 0.44993, -0.0973829l 0.44993, -0.0977989l
 0.44993, -0.0982149l 0.44993, -0.0986309l 0.44993, -0.099047l 0.44993, -0.099463l 0.44993, -0.099879l 0.44993, -0.100295l 0.44993, -0.100711l 0.44993, -0.101127l 0.44993, -0.101543l 0.44993, -0.101959l 0.44993, -0.102375l 0.44993, -0.102791l
 0.44993, -0.103207l 0.44993, -0.103623l 0.44993, -0.104039l 0.44993, -0.104455l 0.44993, -0.104871l 0.44993, -0.105287l 0.44993, -0.105703l 0.44993, -0.106119l 0.44993, -0.106535l 0.44993, -0.106951l 0.44993, -0.107368l 0.44993, -0.107784l 0.44993,
 -0.1082l 0.44993, -0.108616l 0.44993, -0.109032" fill="none" stroke="#ff0066" stroke-width="3"/>
<path d="M451.497,283.488l 0.44993, -0.109448l 0.44993, -0.109864l 0.44993, -0.11028l 0.44993, -0.110696l 0.44993, -0.111112l 0.44993, -0.111528l 0.44993, -0.111944l 0.44993, -0.11236l 0.44993, -0.112776l 0.44993, -0.113192l 0.44993, -0.113608l
 0.44993, -0.114024l 0.44993, -0.11444l 0.44993, -0.114856l 0.44993, -0.115272l 0.44993, -0.115688l 0.44993, -0.116104l 0.44993, -0.11652l 0.44993, -0.116936l 0.44993, -0.117352l 0.44993, -0.117768l 0.44993, -0.118184l 0.44993, -0.1186l 0.44993,
 -0.119016l 0.44993, -0.119432l 0.44993, -0.119848l 0.44993, -0.120264l 0.44993, -0.12068l 0.44993, -0.121096l 0.44993, -0.121512l 0.44993, -0.121928l 0.44993, -0.122344l 0.44993, -0.122761l 0.44993, -0.123177l 0.44993, -0.123593l 0.44993, -0.124009l
 0.44993, -0.124425l 0.44993, -0.124841l 0.44993, -0.125257l 0.44993, -0.125673l 0.44993, -0.126089l 0.44993, -0.126505l 0.44993, -0.126921l 0.44993, -0.127337l 0.44993, -0.127753l 0.44993, -0.128169l 0.44993, -0.128585l 0.44993, -0.129001l 0.44993,
 -0.129417" fill="none" stroke="#ff0066" stroke-width="3"/>
<path d="M473.543,277.636l 0.44993, -0.129833l 0.44993, -0.130249l 0.44993, -0.130665l 0.44993, -0.131081l 0.44993, -0.131497l 0.44993, -0.131913l 0.44993, -0.132329l 0.44993, -0.132745l 0.44993, -0.133161l 0.44993, -0.133577l 0.44993, -0.133993l
 0.44993, -0.134409l 0.44993, -0.134825l 0.44993, -0.135241l 0.44993, -0.135657l 0.44993, -0.136073l 0.44993, -0.136489l 0.44993, -0.136905l 0.44993, -0.137321l 0.44993, -0.137737l 0.44993, -0.138154l 0.44993, -0.13857l 0.44993, -0.138986l 0.44993,
 -0.139402l 0.44993, -0.139818l 0.44993, -0.140234l 0.44993, -0.14065l 0.44993, -0.141066l 0.44993, -0.141482l 0.44993, -0.141898l 0.44993, -0.142314l 0.44993, -0.14273l 0.44993, -0.143146l 0.44993, -0.143562l 0.44993, -0.143978l 0.44993, -0.144394l
 0.44993, -0.14481l 0.44993, -0.145226l 0.44993, -0.145642l 0.44993, -0.146058l 0.44993, -0.146474l 0.44993, -0.14689l 0.44993, -0.147306l 0.44993, -0.147722l 0.44993, -0.148138l 0.44993, -0.148554l 0.44993, -0.14897l 0.44993, -0.149386l 0.44993,
 -0.149802" fill="none" stroke="#ff0066" stroke-width="3"/>
<path d="M495.59,270.785l 0.44993, -0.150218l 0.44993, -0.150634l 0.44993, -0.15105l 0.44993, -0.151466l 0.44993, -0.151882l 0.44993, -0.152298l 0.44993, -0.152714l 0.44993, -0.15313l 0.44993, -0.153547l 0.44993, -0.153963l 0.44993, -0.154379l
 0.44993, -0.154795l 0.44993, -0.155211l 0.44993, -0.155627l 0.44993, -0.156043l 0.44993, -0.156459l 0.44993, -0.156875l 0.44993, -0.157291l 0.44993, -0.157707l 0.44993, -0.158123l 0.44993, -0.158539l 0.44993, -0.158955l 0.44993, -0.159371l 0.44993,
 -0.159787l 0.44993, -0.160203l 0.44993, -0.160619l 0.44993, -0.161035l 0.44993, -0.161451l 0.44993, -0.161867l 0.44993, -0.162283l 0.44993, -0.162699l 0.44993, -0.163115l 0.44993, -0.163531l 0.44993, -0.163947l 0.44993, -0.164363l 0.44993,
 -0.164779l 0.44993, -0.165195l 0.44993, -0.165611l 0.44993, -0.166027l 0.44993, -0.166443l 0.44993, -0.166859l 0.44993, -0.167275l 0.44993, -0.167691l 0.44993, -0.168107l 0.44993, -0.168523l 0.44993, -0.16894l 0.44993, -0.169356l 0.44993, -0.169772l
 0.44993, -0.170188" fill="none" stroke="#ff0066" stroke-width="3"/>
<path d="M517.636,262.935l 0.44993, -0.170604l 0.44993, -0.17102l 0.44993, -0.171436l 0.44993, -0.171852l 0.44993, -0.172268l 0.44993, -0.172684l 0.44993, -0.1731l 0.44993, -0.173516l 0.44993, -0.173932l 0.44993, -0.174348l 0.44993, -0.174764l
 0.44993, -0.17518l 0.44993, -0.175596l 0.44993, -0.176012l 0.44993, -0.176428l 0.44993, -0.176844l 0.44993, -0.17726l 0.44993, -0.177676l 0.44993, -0.178092l 0.44993, -0.178508l 0.44993, -0.178924l 0.44993, -0.17934l 0.44993, -0.179756l 0.44993,
 -0.180172l 0.44993, -0.180588l 0.44993, -0.181004l 0.44993, -0.18142l 0.44993, -0.181836l 0.44993, -0.182252l 0.44993, -0.182668l 0.44993, -0.183084l 0.44993, -0.1835l 0.44993, -0.183916l 0.44993, -0.184333l 0.44993, -0.184749l 0.44993, -0.185165l
 0.44993, -0.185581l 0.44993, -0.185997l 0.44993, -0.186413l 0.44993, -0.186829l 0.44993, -0.187245l 0.44993, -0.187661l 0.44993, -0.188077l 0.44993, -0.188493l 0.44993, -0.188909l 0.44993, -0.189325l 0.44993, -0.189741l 0.44993, -0.190157l 0.44993,
 -0.190573" fill="none" stroke="#ff0066" stroke-width="3"/>
<path d="M539.683,254.086l 0.44993, -0.190989l 0.44993, -0.191405l 0.44993, -0.191821l 0.44993, -0.192237l 0.44993, -0.192653l 0.44993, -0.193069l 0.44993, -0.193485l 0.44993, -0.193901l 0.44993, -0.194317l 0.44993, -0.194733l 0.44993, -0.195149l
 0.44993, -0.195565l 0.44993, -0.195981l 0.44993, -0.196397l 0.44993, -0.196813l 0.44993, -0.197229l 0.44993, -0.197645l 0.44993, -0.198061l 0.44993, -0.198477" fill="none" stroke="#ff0066" stroke-width="3"/>
<path d="M248.503,21.4167h 239.963" fill="none" stroke="#999999" stroke-width="7"/>
<text xml:space="preserve" x="360.607" y="50.7193" fill="black" font-size="16.0105" font-family="Helvetica"> with EMC</text>
<text xml:space="preserve" x="352.717" y="50.7193" fill="black" font-size="16.0105" font-family="Times">&#0947;</text>
<text xml:space="preserve" x="344.828" y="50.7193" fill="black" font-size="16.0105" font-family="Times">&#0947;</text>
<text xml:space="preserve" x="336.938" y="50.7193" fill="black" font-size="16.0105" font-family="Times">&#0947;</text>
<text xml:space="preserve" x="331.866" y="50.7193" fill="black" font-size="16.0105" font-family="Helvetica"> </text>
<text xml:space="preserve" x="316.65" y="50.7193" fill="black" font-size="16.0105" font-family="Times">&#8594;</text>
<text xml:space="preserve" x="311.578" y="50.7193" fill="black" font-size="16.0105" font-family="Helvetica"> </text>
<text xml:space="preserve" x="303.689" y="50.7193" fill="black" font-size="16.0105" font-family="Times">&#0947;</text>
<text xml:space="preserve" x="298.053" y="45.0838" fill="black" font-size="10.8403" font-family="Helvetica">0</text>
<text xml:space="preserve" x="289.6" y="50.7193" fill="black" font-size="16.0105" font-family="Times">&#0960;</text>
<text xml:space="preserve" x="284.528" y="50.7193" fill="black" font-size="16.0105" font-family="Helvetica"> </text>
<text xml:space="preserve" x="269.312" y="50.7193" fill="black" font-size="16.0105" font-family="Times">&#8594;</text>
<text xml:space="preserve" x="264.24" y="50.7193" fill="black" font-size="16.0105" font-family="Helvetica"> </text>
<text xml:space="preserve" x="252.969" y="50.7193" fill="black" font-size="16.0105" font-family="Times">&#0969;</text>
<text xml:space="preserve" x="128.989" y="50.7193" fill="black" font-size="16.0105" font-family="Helvetica"> = 13 TeV (EG1), </text>
<text xml:space="preserve" x="120.536" y="50.7193" fill="black" font-size="16.0105" font-family="Helvetica" font-style="oblique">s</text>
<path d="M114.9,41.7025l 1.69064, 9.58031" fill="none" stroke="black" stroke-width="2"/>
<path d="M116.591,51.2829l 2.25419, -14.0887" fill="none" stroke="black"/>
<path d="M118.845,37.1942h 10.1439" fill="none" stroke="black"/>
<text xml:space="preserve" x="89.5406" y="50.7193" fill="black" font-size="16.0105" font-family="Helvetica">pp </text>
<text xml:space="preserve" x="89.5406" y="85.6593" fill="black" font-size="16.0105" font-family="Helvetica">ALICE work in progress</text>
<text xml:space="preserve" x="205.068" y="120.599" fill="black" font-size="16.0105" font-family="Helvetica">) &lt; 6.0</text>
<text xml:space="preserve" x="196.051" y="120.599" fill="black" font-size="16.0105" font-family="Helvetica" font-style="oblique">c</text>
<text xml:space="preserve" x="145.895" y="120.599" fill="black" font-size="16.0105" font-family="Helvetica"> /(GeV/</text>
<text xml:space="preserve" x="139.133" y="128.489" fill="black" font-size="10.8403" font-family="Helvetica">T</text>
<text xml:space="preserve" x="129.552" y="120.599" fill="black" font-size="16.0105" font-family="Helvetica" font-style="oblique">p</text>
<text xml:space="preserve" x="124.481" y="120.599" fill="black" font-size="16.0105" font-family="Helvetica"> </text>
<text xml:space="preserve" x="116.027" y="120.599" fill="black" font-size="16.0105" font-family="Times">&#8804;</text>
<text xml:space="preserve" x="89.5406" y="120.599" fill="black" font-size="16.0105" font-family="Helvetica">4.0 </text>
<rect x="312.311" y="69.1755" width="198.425" height="113.448" fill="white"/>
<text xml:space="preserve" x="361.734" y="85.0957" fill="black" font-size="16.0105" font-family="Helvetica">ratio</text>
<path d="M319.752,80.5203h 34.7244" fill="none" stroke="black" stroke-width="2"/>
<g fill="black">
<circle cx="337.114" cy="80.5203" r="6.76257"/>
</g>
<text xml:space="preserve" x="361.734" y="108.201" fill="black" font-size="16.0105" font-family="Helvetica">peak range</text>
<path d="M319.752,103.21h 34.7244" fill="none" stroke="#333333" stroke-width="2"/>
<g stroke="#333333" stroke-width="2" fill="none">
<circle cx="337.114" cy="103.21" r="5.63548"/>
</g>
<text xml:space="preserve" x="361.734" y="130.743" fill="black" font-size="16.0105" font-family="Helvetica">background pol1</text>
<path d="M319.752,125.899h 34.7244" fill="none" stroke="#33cccc" stroke-width="3"/>
<text xml:space="preserve" x="361.734" y="153.285" fill="black" font-size="16.0105" font-family="Helvetica">background pol2</text>
<path d="M319.752,148.589h 34.7244" fill="none" stroke="#ff0066" stroke-width="3"/>
<text xml:space="preserve" x="361.734" y="175.827" fill="black" font-size="16.0105" font-family="Helvetica">param. range</text>
<path d="M319.752,171.279h 34.7244" fill="none" stroke="#999999" stroke-width="7"/></svg>
