<?xml version="1.0" standalone="no"?>
<svg width="567.429" height="553.904" viewBox="0 0 567.429 553.904" xmlns="http://www.w3.org/2000/svg" shape-rendering="crispEdges">
<title>
MC/EG1/Pi0RotPS/SameEventAndBackgroundBeforeScaling_03.svg
</title>
<desc>
Creator: ROOT Version 6.20/08
CreationDate: Mon Mar 29 21:28:53 2021</desc>
<defs>
</defs>
<rect x="0.5" y="0" width="566.929" height="553.404" fill="white"/>
<rect x="57.1929" y="16.6021" width="496.063" height="481.461" fill="white"/>
<rect x="57.1929" y="16.6021" width="496.063" height="481.461" fill="none" stroke="black"/>
<rect x="57.1929" y="16.6021" width="496.063" height="481.461" fill="white"/>
<rect x="57.1929" y="16.6021" width="496.063" height="481.461" fill="none" stroke="black"/>
<g fill="#993333">
<rect x="94.4324" y="493.063" width="9.01677" height="9.01677"/>
</g>
<g fill="#993333">
<rect x="99.3439" y="451.177" width="9.01677" height="9.01677"/>
</g>
<g fill="#993333">
<rect x="104.255" y="387.859" width="9.01677" height="9.01677"/>
</g>
<g fill="#993333">
<rect x="109.167" y="398.508" width="9.01677" height="9.01677"/>
</g>
<g fill="#993333">
<rect x="114.078" y="454.148" width="9.01677" height="9.01677"/>
</g>
<g fill="#993333">
<rect x="118.99" y="403.505" width="9.01677" height="9.01677"/>
</g>
<g fill="#993333">
<rect x="123.901" y="320.992" width="9.01677" height="9.01677"/>
</g>
<g fill="#993333">
<rect x="128.813" y="313.471" width="9.01677" height="9.01677"/>
</g>
<g fill="#993333">
<rect x="133.725" y="302.397" width="9.01677" height="9.01677"/>
</g>
<g fill="#993333">
<rect x="138.636" y="278.836" width="9.01677" height="9.01677"/>
</g>
<g fill="#993333">
<rect x="143.548" y="261.143" width="9.01677" height="9.01677"/>
</g>
<g fill="#993333">
<rect x="148.459" y="248.516" width="9.01677" height="9.01677"/>
</g>
<g fill="#993333">
<rect x="153.371" y="239.968" width="9.01677" height="9.01677"/>
</g>
<g fill="#993333">
<rect x="158.282" y="233.335" width="9.01677" height="9.01677"/>
</g>
<g fill="#993333">
<rect x="163.194" y="230.021" width="9.01677" height="9.01677"/>
</g>
<g fill="#993333">
<rect x="168.105" y="227.18" width="9.01677" height="9.01677"/>
</g>
<g fill="#993333">
<rect x="173.017" y="226.077" width="9.01677" height="9.01677"/>
</g>
<g fill="#993333">
<rect x="177.928" y="226.162" width="9.01677" height="9.01677"/>
</g>
<g fill="#993333">
<rect x="182.84" y="227.651" width="9.01677" height="9.01677"/>
</g>
<g fill="#993333">
<rect x="187.751" y="229.904" width="9.01677" height="9.01677"/>
</g>
<g fill="#993333">
<rect x="192.663" y="232.79" width="9.01677" height="9.01677"/>
</g>
<g fill="#993333">
<rect x="197.574" y="236.093" width="9.01677" height="9.01677"/>
</g>
<g fill="#993333">
<rect x="202.486" y="239.96" width="9.01677" height="9.01677"/>
</g>
<g fill="#993333">
<rect x="207.397" y="244.514" width="9.01677" height="9.01677"/>
</g>
<g fill="#993333">
<rect x="212.309" y="249.516" width="9.01677" height="9.01677"/>
</g>
<g fill="#993333">
<rect x="217.22" y="255.468" width="9.01677" height="9.01677"/>
</g>
<g fill="#993333">
<rect x="222.132" y="261.553" width="9.01677" height="9.01677"/>
</g>
<g fill="#993333">
<rect x="227.043" y="267.797" width="9.01677" height="9.01677"/>
</g>
<g fill="#993333">
<rect x="231.955" y="274.508" width="9.01677" height="9.01677"/>
</g>
<g fill="#993333">
<rect x="236.866" y="281.219" width="9.01677" height="9.01677"/>
</g>
<g fill="#993333">
<rect x="241.778" y="288.476" width="9.01677" height="9.01677"/>
</g>
<g fill="#993333">
<rect x="246.689" y="296.289" width="9.01677" height="9.01677"/>
</g>
<g fill="#993333">
<rect x="251.601" y="303.255" width="9.01677" height="9.01677"/>
</g>
<g fill="#993333">
<rect x="256.512" y="310.636" width="9.01677" height="9.01677"/>
</g>
<g fill="#993333">
<rect x="261.424" y="317.717" width="9.01677" height="9.01677"/>
</g>
<g fill="#993333">
<rect x="266.335" y="324.448" width="9.01677" height="9.01677"/>
</g>
<g fill="#993333">
<rect x="271.247" y="330.935" width="9.01677" height="9.01677"/>
</g>
<g fill="#993333">
<rect x="276.158" y="337.547" width="9.01677" height="9.01677"/>
</g>
<g fill="#993333">
<rect x="281.07" y="343.472" width="9.01677" height="9.01677"/>
</g>
<g fill="#993333">
<rect x="285.981" y="349.284" width="9.01677" height="9.01677"/>
</g>
<g fill="#993333">
<rect x="290.893" y="355.146" width="9.01677" height="9.01677"/>
</g>
<g fill="#993333">
<rect x="295.805" y="360.427" width="9.01677" height="9.01677"/>
</g>
<g fill="#993333">
<rect x="300.716" y="365.548" width="9.01677" height="9.01677"/>
</g>
<g fill="#993333">
<rect x="305.628" y="370.332" width="9.01677" height="9.01677"/>
</g>
<g fill="#993333">
<rect x="310.539" y="375.15" width="9.01677" height="9.01677"/>
</g>
<g fill="#993333">
<rect x="315.451" y="379.515" width="9.01677" height="9.01677"/>
</g>
<g fill="#993333">
<rect x="320.362" y="383.573" width="9.01677" height="9.01677"/>
</g>
<g fill="#993333">
<rect x="325.274" y="387.64" width="9.01677" height="9.01677"/>
</g>
<g fill="#993333">
<rect x="330.185" y="391.603" width="9.01677" height="9.01677"/>
</g>
<g fill="#993333">
<rect x="335.097" y="395.031" width="9.01677" height="9.01677"/>
</g>
<g fill="#993333">
<rect x="340.008" y="398.33" width="9.01677" height="9.01677"/>
</g>
<g fill="#993333">
<rect x="344.92" y="401.679" width="9.01677" height="9.01677"/>
</g>
<g fill="#993333">
<rect x="349.831" y="404.955" width="9.01677" height="9.01677"/>
</g>
<g fill="#993333">
<rect x="354.743" y="407.6" width="9.01677" height="9.01677"/>
</g>
<g fill="#993333">
<rect x="359.654" y="410.887" width="9.01677" height="9.01677"/>
</g>
<g fill="#993333">
<rect x="364.566" y="413.433" width="9.01677" height="9.01677"/>
</g>
<g fill="#993333">
<rect x="369.477" y="416.018" width="9.01677" height="9.01677"/>
</g>
<g fill="#993333">
<rect x="374.389" y="418.599" width="9.01677" height="9.01677"/>
</g>
<g fill="#993333">
<rect x="379.3" y="420.852" width="9.01677" height="9.01677"/>
</g>
<g fill="#993333">
<rect x="384.212" y="423.183" width="9.01677" height="9.01677"/>
</g>
<g fill="#993333">
<rect x="389.123" y="425.125" width="9.01677" height="9.01677"/>
</g>
<g fill="#993333">
<rect x="394.035" y="427.298" width="9.01677" height="9.01677"/>
</g>
<g fill="#993333">
<rect x="398.946" y="429.391" width="9.01677" height="9.01677"/>
</g>
<g fill="#993333">
<rect x="403.858" y="431.289" width="9.01677" height="9.01677"/>
</g>
<g fill="#993333">
<rect x="408.769" y="432.869" width="9.01677" height="9.01677"/>
</g>
<g fill="#993333">
<rect x="413.681" y="434.627" width="9.01677" height="9.01677"/>
</g>
<g fill="#993333">
<rect x="418.592" y="436.241" width="9.01677" height="9.01677"/>
</g>
<g fill="#993333">
<rect x="423.504" y="437.958" width="9.01677" height="9.01677"/>
</g>
<g fill="#993333">
<rect x="428.415" y="439.343" width="9.01677" height="9.01677"/>
</g>
<g fill="#993333">
<rect x="433.327" y="440.841" width="9.01677" height="9.01677"/>
</g>
<g fill="#993333">
<rect x="438.238" y="442.159" width="9.01677" height="9.01677"/>
</g>
<g fill="#993333">
<rect x="443.15" y="443.569" width="9.01677" height="9.01677"/>
</g>
<g fill="#993333">
<rect x="448.061" y="444.804" width="9.01677" height="9.01677"/>
</g>
<g fill="#993333">
<rect x="452.973" y="446.016" width="9.01677" height="9.01677"/>
</g>
<g fill="#993333">
<rect x="457.884" y="447.251" width="9.01677" height="9.01677"/>
</g>
<g fill="#993333">
<rect x="462.796" y="448.415" width="9.01677" height="9.01677"/>
</g>
<g fill="#993333">
<rect x="467.708" y="449.471" width="9.01677" height="9.01677"/>
</g>
<g fill="#993333">
<rect x="472.619" y="450.664" width="9.01677" height="9.01677"/>
</g>
<g fill="#993333">
<rect x="477.531" y="451.57" width="9.01677" height="9.01677"/>
</g>
<g fill="#993333">
<rect x="482.442" y="452.486" width="9.01677" height="9.01677"/>
</g>
<g fill="#993333">
<rect x="487.354" y="453.423" width="9.01677" height="9.01677"/>
</g>
<g fill="#993333">
<rect x="492.265" y="454.338" width="9.01677" height="9.01677"/>
</g>
<g fill="#993333">
<rect x="497.177" y="455.275" width="9.01677" height="9.01677"/>
</g>
<g fill="#993333">
<rect x="502.088" y="455.88" width="9.01677" height="9.01677"/>
</g>
<g fill="#993333">
<rect x="507" y="456.859" width="9.01677" height="9.01677"/>
</g>
<g fill="#993333">
<rect x="511.911" y="457.528" width="9.01677" height="9.01677"/>
</g>
<g fill="#993333">
<rect x="516.823" y="458.288" width="9.01677" height="9.01677"/>
</g>
<g fill="#993333">
<rect x="521.734" y="459.04" width="9.01677" height="9.01677"/>
</g>
<g fill="#993333">
<rect x="526.646" y="459.67" width="9.01677" height="9.01677"/>
</g>
<g fill="#993333">
<rect x="531.557" y="460.421" width="9.01677" height="9.01677"/>
</g>
<g fill="#993333">
<rect x="536.469" y="461.124" width="9.01677" height="9.01677"/>
</g>
<g fill="#993333">
<rect x="541.38" y="461.597" width="9.01677" height="9.01677"/>
</g>
<path d="M57.1929,498.064h 496.063" fill="none" stroke="black"/>
<path d="M57.1929,483.537v 14.5269" fill="none" stroke="black"/>
<path d="M72.5414,490.8v 7.26343" fill="none" stroke="black"/>
<path d="M87.8899,490.8v 7.26343" fill="none" stroke="black"/>
<path d="M103.238,490.8v 7.26343" fill="none" stroke="black"/>
<path d="M118.587,483.537v 14.5269" fill="none" stroke="black"/>
<path d="M133.935,490.8v 7.26343" fill="none" stroke="black"/>
<path d="M149.284,490.8v 7.26343" fill="none" stroke="black"/>
<path d="M164.632,490.8v 7.26343" fill="none" stroke="black"/>
<path d="M179.981,483.537v 14.5269" fill="none" stroke="black"/>
<path d="M195.329,490.8v 7.26343" fill="none" stroke="black"/>
<path d="M210.678,490.8v 7.26343" fill="none" stroke="black"/>
<path d="M226.026,490.8v 7.26343" fill="none" stroke="black"/>
<path d="M241.375,483.537v 14.5269" fill="none" stroke="black"/>
<path d="M256.723,490.8v 7.26343" fill="none" stroke="black"/>
<path d="M272.072,490.8v 7.26343" fill="none" stroke="black"/>
<path d="M287.42,490.8v 7.26343" fill="none" stroke="black"/>
<path d="M302.769,483.537v 14.5269" fill="none" stroke="black"/>
<path d="M318.117,490.8v 7.26343" fill="none" stroke="black"/>
<path d="M333.466,490.8v 7.26343" fill="none" stroke="black"/>
<path d="M348.814,490.8v 7.26343" fill="none" stroke="black"/>
<path d="M364.163,483.537v 14.5269" fill="none" stroke="black"/>
<path d="M379.511,490.8v 7.26343" fill="none" stroke="black"/>
<path d="M394.86,490.8v 7.26343" fill="none" stroke="black"/>
<path d="M410.208,490.8v 7.26343" fill="none" stroke="black"/>
<path d="M425.557,483.537v 14.5269" fill="none" stroke="black"/>
<path d="M440.905,490.8v 7.26343" fill="none" stroke="black"/>
<path d="M456.253,490.8v 7.26343" fill="none" stroke="black"/>
<path d="M471.602,490.8v 7.26343" fill="none" stroke="black"/>
<path d="M486.95,483.537v 14.5269" fill="none" stroke="black"/>
<path d="M502.299,490.8v 7.26343" fill="none" stroke="black"/>
<path d="M517.647,490.8v 7.26343" fill="none" stroke="black"/>
<path d="M532.996,490.8v 7.26343" fill="none" stroke="black"/>
<path d="M548.344,483.537v 14.5269" fill="none" stroke="black"/>
<path d="M548.344,483.537v 14.5269" fill="none" stroke="black"/>
<text xml:space="preserve" x="52.3464" y="513.956" fill="black" font-size="16.0105" font-family="Helvetica">0</text>
<text xml:space="preserve" x="107.574" y="513.956" fill="black" font-size="16.0105" font-family="Helvetica">0.2</text>
<text xml:space="preserve" x="169.001" y="513.956" fill="black" font-size="16.0105" font-family="Helvetica">0.4</text>
<text xml:space="preserve" x="230.428" y="513.956" fill="black" font-size="16.0105" font-family="Helvetica">0.6</text>
<text xml:space="preserve" x="291.854" y="513.956" fill="black" font-size="16.0105" font-family="Helvetica">0.8</text>
<text xml:space="preserve" x="361.171" y="513.956" fill="black" font-size="16.0105" font-family="Helvetica">1</text>
<text xml:space="preserve" x="414.708" y="513.956" fill="black" font-size="16.0105" font-family="Helvetica">1.2</text>
<text xml:space="preserve" x="476.134" y="513.956" fill="black" font-size="16.0105" font-family="Helvetica">1.4</text>
<text xml:space="preserve" x="537.561" y="513.956" fill="black" font-size="16.0105" font-family="Helvetica">1.6</text>
<text xml:space="preserve" x="548.268" y="537.625" fill="black" font-size="16.0105" font-family="Helvetica">)</text>
<text xml:space="preserve" x="542.633" y="532.553" fill="black" font-size="10.8403" font-family="Helvetica">2</text>
<text xml:space="preserve" x="533.616" y="537.625" fill="black" font-size="16.0105" font-family="Helvetica" font-style="oblique">c</text>
<text xml:space="preserve" x="487.405" y="537.625" fill="black" font-size="16.0105" font-family="Helvetica"> (GeV/</text>
<text xml:space="preserve" x="473.317" y="542.697" fill="black" font-size="10.8403" font-family="Helvetica">inv</text>
<text xml:space="preserve" x="459.792" y="537.625" fill="black" font-size="16.0105" font-family="Helvetica" font-style="oblique">m</text>
<path d="M57.1929,16.6021h 496.063" fill="none" stroke="black"/>
<path d="M57.1929,31.129v -14.5269" fill="none" stroke="black"/>
<path d="M72.5414,23.8655v -7.26343" fill="none" stroke="black"/>
<path d="M87.8899,23.8655v -7.26343" fill="none" stroke="black"/>
<path d="M103.238,23.8655v -7.26343" fill="none" stroke="black"/>
<path d="M118.587,31.129v -14.5269" fill="none" stroke="black"/>
<path d="M133.935,23.8655v -7.26343" fill="none" stroke="black"/>
<path d="M149.284,23.8655v -7.26343" fill="none" stroke="black"/>
<path d="M164.632,23.8655v -7.26343" fill="none" stroke="black"/>
<path d="M179.981,31.129v -14.5269" fill="none" stroke="black"/>
<path d="M195.329,23.8655v -7.26343" fill="none" stroke="black"/>
<path d="M210.678,23.8655v -7.26343" fill="none" stroke="black"/>
<path d="M226.026,23.8655v -7.26343" fill="none" stroke="black"/>
<path d="M241.375,31.129v -14.5269" fill="none" stroke="black"/>
<path d="M256.723,23.8655v -7.26343" fill="none" stroke="black"/>
<path d="M272.072,23.8655v -7.26343" fill="none" stroke="black"/>
<path d="M287.42,23.8655v -7.26343" fill="none" stroke="black"/>
<path d="M302.769,31.129v -14.5269" fill="none" stroke="black"/>
<path d="M318.117,23.8655v -7.26343" fill="none" stroke="black"/>
<path d="M333.466,23.8655v -7.26343" fill="none" stroke="black"/>
<path d="M348.814,23.8655v -7.26343" fill="none" stroke="black"/>
<path d="M364.163,31.129v -14.5269" fill="none" stroke="black"/>
<path d="M379.511,23.8655v -7.26343" fill="none" stroke="black"/>
<path d="M394.86,23.8655v -7.26343" fill="none" stroke="black"/>
<path d="M410.208,23.8655v -7.26343" fill="none" stroke="black"/>
<path d="M425.557,31.129v -14.5269" fill="none" stroke="black"/>
<path d="M440.905,23.8655v -7.26343" fill="none" stroke="black"/>
<path d="M456.253,23.8655v -7.26343" fill="none" stroke="black"/>
<path d="M471.602,23.8655v -7.26343" fill="none" stroke="black"/>
<path d="M486.95,31.129v -14.5269" fill="none" stroke="black"/>
<path d="M502.299,23.8655v -7.26343" fill="none" stroke="black"/>
<path d="M517.647,23.8655v -7.26343" fill="none" stroke="black"/>
<path d="M532.996,23.8655v -7.26343" fill="none" stroke="black"/>
<path d="M548.344,31.129v -14.5269" fill="none" stroke="black"/>
<path d="M548.344,31.129v -14.5269" fill="none" stroke="black"/>
<path d="M57.1929,498.064v -481.461" fill="none" stroke="black"/>
<path d="M71.9898,498.064h -14.7969" fill="none" stroke="black"/>
<path d="M64.5913,484.134h -7.39843" fill="none" stroke="black"/>
<path d="M64.5913,470.204h -7.39843" fill="none" stroke="black"/>
<path d="M64.5913,456.274h -7.39843" fill="none" stroke="black"/>
<path d="M71.9898,442.343h -14.7969" fill="none" stroke="black"/>
<path d="M64.5913,428.413h -7.39843" fill="none" stroke="black"/>
<path d="M64.5913,414.483h -7.39843" fill="none" stroke="black"/>
<path d="M64.5913,400.553h -7.39843" fill="none" stroke="black"/>
<path d="M71.9898,386.623h -14.7969" fill="none" stroke="black"/>
<path d="M64.5913,372.693h -7.39843" fill="none" stroke="black"/>
<path d="M64.5913,358.763h -7.39843" fill="none" stroke="black"/>
<path d="M64.5913,344.833h -7.39843" fill="none" stroke="black"/>
<path d="M71.9898,330.903h -14.7969" fill="none" stroke="black"/>
<path d="M64.5913,316.973h -7.39843" fill="none" stroke="black"/>
<path d="M64.5913,303.043h -7.39843" fill="none" stroke="black"/>
<path d="M64.5913,289.113h -7.39843" fill="none" stroke="black"/>
<path d="M71.9898,275.183h -14.7969" fill="none" stroke="black"/>
<path d="M64.5913,261.253h -7.39843" fill="none" stroke="black"/>
<path d="M64.5913,247.323h -7.39843" fill="none" stroke="black"/>
<path d="M64.5913,233.393h -7.39843" fill="none" stroke="black"/>
<path d="M71.9898,219.463h -14.7969" fill="none" stroke="black"/>
<path d="M64.5913,205.533h -7.39843" fill="none" stroke="black"/>
<path d="M64.5913,191.603h -7.39843" fill="none" stroke="black"/>
<path d="M64.5913,177.673h -7.39843" fill="none" stroke="black"/>
<path d="M71.9898,163.743h -14.7969" fill="none" stroke="black"/>
<path d="M64.5913,149.813h -7.39843" fill="none" stroke="black"/>
<path d="M64.5913,135.883h -7.39843" fill="none" stroke="black"/>
<path d="M64.5913,121.953h -7.39843" fill="none" stroke="black"/>
<path d="M71.9898,108.023h -14.7969" fill="none" stroke="black"/>
<path d="M64.5913,94.0928h -7.39843" fill="none" stroke="black"/>
<path d="M64.5913,80.1628h -7.39843" fill="none" stroke="black"/>
<path d="M64.5913,66.2327h -7.39843" fill="none" stroke="black"/>
<path d="M71.9898,52.3027h -14.7969" fill="none" stroke="black"/>
<path d="M71.9898,52.3027h -14.7969" fill="none" stroke="black"/>
<path d="M64.5913,38.3727h -7.39843" fill="none" stroke="black"/>
<path d="M64.5913,24.4427h -7.39843" fill="none" stroke="black"/>
<text xml:space="preserve" x="45.5838" y="503.248" fill="black" font-size="16.0105" font-family="Helvetica">0</text>
<text xml:space="preserve" x="32.6222" y="447.457" fill="black" font-size="16.0105" font-family="Helvetica">0.2</text>
<text xml:space="preserve" x="32.6222" y="392.229" fill="black" font-size="16.0105" font-family="Helvetica">0.4</text>
<text xml:space="preserve" x="32.6222" y="336.438" fill="black" font-size="16.0105" font-family="Helvetica">0.6</text>
<text xml:space="preserve" x="32.6222" y="280.647" fill="black" font-size="16.0105" font-family="Helvetica">0.8</text>
<text xml:space="preserve" x="48.4016" y="225.419" fill="black" font-size="16.0105" font-family="Helvetica">1</text>
<text xml:space="preserve" x="32.6222" y="169.628" fill="black" font-size="16.0105" font-family="Helvetica">1.2</text>
<text xml:space="preserve" x="32.6222" y="113.837" fill="black" font-size="16.0105" font-family="Helvetica">1.4</text>
<text xml:space="preserve" x="32.6222" y="57.4819" fill="black" font-size="16.0105" font-family="Helvetica">1.6</text>
<text xml:space="preserve" x="82.2144" y="7.32612" fill="black" font-size="10.8403" font-family="Helvetica">3</text>
<text xml:space="preserve" x="65.308" y="14.6522" fill="black" font-size="16.0105" font-family="Helvetica">10</text>
<text xml:space="preserve" x="56.8548" y="14.6522" fill="black" font-size="16.0105" font-family="Times">&#0215;</text>
<g transform="rotate(-90,22.4784,21.9784)">
<text xml:space="preserve" x="22.4784" y="21.9784" fill="black" font-size="10.8403" font-family="Times">&#0947;</text>
</g>
<g transform="rotate(-90,18.5335,25.9232)">
<text xml:space="preserve" x="18.5335" y="25.9232" fill="black" font-size="7.39355" font-family="Helvetica">0</text>
</g>
<g transform="rotate(-90,22.4784,32.1222)">
<text xml:space="preserve" x="22.4784" y="32.1222" fill="black" font-size="10.8403" font-family="Times">&#0960;</text>
</g>
<g transform="rotate(-90,17.4064,45.0838)">
<text xml:space="preserve" x="17.4064" y="45.0838" fill="black" font-size="16.0105" font-family="Helvetica" font-style="oblique">N</text>
</g>
<path d="M553.256,498.064v -481.461" fill="none" stroke="black"/>
<path d="M538.459,498.064h 14.7969" fill="none" stroke="black"/>
<path d="M545.857,484.134h 7.39843" fill="none" stroke="black"/>
<path d="M545.857,470.204h 7.39843" fill="none" stroke="black"/>
<path d="M545.857,456.274h 7.39843" fill="none" stroke="black"/>
<path d="M538.459,442.343h 14.7969" fill="none" stroke="black"/>
<path d="M545.857,428.413h 7.39843" fill="none" stroke="black"/>
<path d="M545.857,414.483h 7.39843" fill="none" stroke="black"/>
<path d="M545.857,400.553h 7.39843" fill="none" stroke="black"/>
<path d="M538.459,386.623h 14.7969" fill="none" stroke="black"/>
<path d="M545.857,372.693h 7.39843" fill="none" stroke="black"/>
<path d="M545.857,358.763h 7.39843" fill="none" stroke="black"/>
<path d="M545.857,344.833h 7.39843" fill="none" stroke="black"/>
<path d="M538.459,330.903h 14.7969" fill="none" stroke="black"/>
<path d="M545.857,316.973h 7.39843" fill="none" stroke="black"/>
<path d="M545.857,303.043h 7.39843" fill="none" stroke="black"/>
<path d="M545.857,289.113h 7.39843" fill="none" stroke="black"/>
<path d="M538.459,275.183h 14.7969" fill="none" stroke="black"/>
<path d="M545.857,261.253h 7.39843" fill="none" stroke="black"/>
<path d="M545.857,247.323h 7.39843" fill="none" stroke="black"/>
<path d="M545.857,233.393h 7.39843" fill="none" stroke="black"/>
<path d="M538.459,219.463h 14.7969" fill="none" stroke="black"/>
<path d="M545.857,205.533h 7.39843" fill="none" stroke="black"/>
<path d="M545.857,191.603h 7.39843" fill="none" stroke="black"/>
<path d="M545.857,177.673h 7.39843" fill="none" stroke="black"/>
<path d="M538.459,163.743h 14.7969" fill="none" stroke="black"/>
<path d="M545.857,149.813h 7.39843" fill="none" stroke="black"/>
<path d="M545.857,135.883h 7.39843" fill="none" stroke="black"/>
<path d="M545.857,121.953h 7.39843" fill="none" stroke="black"/>
<path d="M538.459,108.023h 14.7969" fill="none" stroke="black"/>
<path d="M545.857,94.0928h 7.39843" fill="none" stroke="black"/>
<path d="M545.857,80.1628h 7.39843" fill="none" stroke="black"/>
<path d="M545.857,66.2327h 7.39843" fill="none" stroke="black"/>
<path d="M538.459,52.3027h 14.7969" fill="none" stroke="black"/>
<path d="M538.459,52.3027h 14.7969" fill="none" stroke="black"/>
<path d="M545.857,38.3727h 7.39843" fill="none" stroke="black"/>
<path d="M545.857,24.4427h 7.39843" fill="none" stroke="black"/>
<g fill="black">
<circle cx="98.9408" cy="498.057" r="4.50838"/>
</g>
<g fill="black">
<circle cx="103.852" cy="493.759" r="4.50838"/>
</g>
<g fill="black">
<circle cx="108.764" cy="485.19" r="4.50838"/>
</g>
<g fill="black">
<circle cx="113.675" cy="485.221" r="4.50838"/>
</g>
<g fill="black">
<circle cx="118.587" cy="493.324" r="4.50838"/>
</g>
<g fill="black">
<circle cx="123.498" cy="489.261" r="4.50838"/>
</g>
<g fill="black">
<circle cx="128.41" cy="480.46" r="4.50838"/>
</g>
<g fill="black">
<circle cx="133.321" cy="480.149" r="4.50838"/>
</g>
<g fill="black">
<circle cx="138.233" cy="479.331" r="4.50838"/>
</g>
<g fill="black">
<circle cx="143.144" cy="477.297" r="4.50838"/>
</g>
<g fill="black">
<circle cx="148.056" cy="475.904" r="4.50838"/>
</g>
<g fill="black">
<circle cx="152.967" cy="475.177" r="4.50838"/>
</g>
<g fill="black">
<circle cx="157.879" cy="474.643" r="4.50838"/>
</g>
<g fill="black">
<circle cx="162.79" cy="474.286" r="4.50838"/>
</g>
<g fill="black">
<circle cx="167.702" cy="474.182" r="4.50838"/>
</g>
<g fill="black">
<circle cx="172.614" cy="473.912" r="4.50838"/>
</g>
<g fill="black">
<circle cx="177.525" cy="474.238" r="4.50838"/>
</g>
<g fill="black">
<circle cx="182.437" cy="474.356" r="4.50838"/>
</g>
<g fill="black">
<circle cx="187.348" cy="474.44" r="4.50838"/>
</g>
<g fill="black">
<circle cx="192.26" cy="474.849" r="4.50838"/>
</g>
<g fill="black">
<circle cx="197.171" cy="475.247" r="4.50838"/>
</g>
<g fill="black">
<circle cx="202.083" cy="475.668" r="4.50838"/>
</g>
<g fill="black">
<circle cx="206.994" cy="476.27" r="4.50838"/>
</g>
<g fill="black">
<circle cx="211.906" cy="476.708" r="4.50838"/>
</g>
<g fill="black">
<circle cx="216.817" cy="477.147" r="4.50838"/>
</g>
<g fill="black">
<circle cx="221.729" cy="477.609" r="4.50838"/>
</g>
<g fill="black">
<circle cx="226.64" cy="478.145" r="4.50838"/>
</g>
<g fill="black">
<circle cx="231.552" cy="478.614" r="4.50838"/>
</g>
<g fill="black">
<circle cx="236.463" cy="479.254" r="4.50838"/>
</g>
<g fill="black">
<circle cx="241.375" cy="479.824" r="4.50838"/>
</g>
<g fill="black">
<circle cx="246.286" cy="480.441" r="4.50838"/>
</g>
<g fill="black">
<circle cx="251.198" cy="481.129" r="4.50838"/>
</g>
<g fill="black">
<circle cx="256.109" cy="481.822" r="4.50838"/>
</g>
<g fill="black">
<circle cx="261.021" cy="482.412" r="4.50838"/>
</g>
<g fill="black">
<circle cx="265.932" cy="483.04" r="4.50838"/>
</g>
<g fill="black">
<circle cx="270.844" cy="483.65" r="4.50838"/>
</g>
<g fill="black">
<circle cx="275.755" cy="484.239" r="4.50838"/>
</g>
<g fill="black">
<circle cx="280.667" cy="484.751" r="4.50838"/>
</g>
<g fill="black">
<circle cx="285.578" cy="485.349" r="4.50838"/>
</g>
<g fill="black">
<circle cx="290.49" cy="485.877" r="4.50838"/>
</g>
<g fill="black">
<circle cx="295.401" cy="486.398" r="4.50838"/>
</g>
<g fill="black">
<circle cx="300.313" cy="486.885" r="4.50838"/>
</g>
<g fill="black">
<circle cx="305.224" cy="487.327" r="4.50838"/>
</g>
<g fill="black">
<circle cx="310.136" cy="487.788" r="4.50838"/>
</g>
<g fill="black">
<circle cx="315.047" cy="488.303" r="4.50838"/>
</g>
<g fill="black">
<circle cx="319.959" cy="488.631" r="4.50838"/>
</g>
<g fill="black">
<circle cx="324.87" cy="489.023" r="4.50838"/>
</g>
<g fill="black">
<circle cx="329.782" cy="489.453" r="4.50838"/>
</g>
<g fill="black">
<circle cx="334.694" cy="489.738" r="4.50838"/>
</g>
<g fill="black">
<circle cx="339.605" cy="490.038" r="4.50838"/>
</g>
<g fill="black">
<circle cx="344.517" cy="490.401" r="4.50838"/>
</g>
<g fill="black">
<circle cx="349.428" cy="490.673" r="4.50838"/>
</g>
<g fill="black">
<circle cx="354.34" cy="490.87" r="4.50838"/>
</g>
<g fill="black">
<circle cx="359.251" cy="491.175" r="4.50838"/>
</g>
<g fill="black">
<circle cx="364.163" cy="491.428" r="4.50838"/>
</g>
<g fill="black">
<circle cx="369.074" cy="491.613" r="4.50838"/>
</g>
<g fill="black">
<circle cx="373.986" cy="491.847" r="4.50838"/>
</g>
<g fill="black">
<circle cx="378.897" cy="492.1" r="4.50838"/>
</g>
<g fill="black">
<circle cx="383.809" cy="492.239" r="4.50838"/>
</g>
<g fill="black">
<circle cx="388.72" cy="492.469" r="4.50838"/>
</g>
<g fill="black">
<circle cx="393.632" cy="492.663" r="4.50838"/>
</g>
<g fill="black">
<circle cx="398.543" cy="492.916" r="4.50838"/>
</g>
<g fill="black">
<circle cx="403.455" cy="493.019" r="4.50838"/>
</g>
<g fill="black">
<circle cx="408.366" cy="493.197" r="4.50838"/>
</g>
<g fill="black">
<circle cx="413.278" cy="493.359" r="4.50838"/>
</g>
<g fill="black">
<circle cx="418.189" cy="493.498" r="4.50838"/>
</g>
<g fill="black">
<circle cx="423.101" cy="493.622" r="4.50838"/>
</g>
<g fill="black">
<circle cx="428.012" cy="493.821" r="4.50838"/>
</g>
<g fill="black">
<circle cx="432.924" cy="493.903" r="4.50838"/>
</g>
<g fill="black">
<circle cx="437.835" cy="494.033" r="4.50838"/>
</g>
<g fill="black">
<circle cx="442.747" cy="494.144" r="4.50838"/>
</g>
<g fill="black">
<circle cx="447.658" cy="494.283" r="4.50838"/>
</g>
<g fill="black">
<circle cx="452.57" cy="494.336" r="4.50838"/>
</g>
<g fill="black">
<circle cx="457.481" cy="494.442" r="4.50838"/>
</g>
<g fill="black">
<circle cx="462.393" cy="494.561" r="4.50838"/>
</g>
<g fill="black">
<circle cx="467.304" cy="494.658" r="4.50838"/>
</g>
<g fill="black">
<circle cx="472.216" cy="494.793" r="4.50838"/>
</g>
<g fill="black">
<circle cx="477.127" cy="494.875" r="4.50838"/>
</g>
<g fill="black">
<circle cx="482.039" cy="494.965" r="4.50838"/>
</g>
<g fill="black">
<circle cx="486.95" cy="494.987" r="4.50838"/>
</g>
<g fill="black">
<circle cx="491.862" cy="495.102" r="4.50838"/>
</g>
<g fill="black">
<circle cx="496.773" cy="495.167" r="4.50838"/>
</g>
<g fill="black">
<circle cx="501.685" cy="495.194" r="4.50838"/>
</g>
<g fill="black">
<circle cx="506.597" cy="495.25" r="4.50838"/>
</g>
<g fill="black">
<circle cx="511.508" cy="495.352" r="4.50838"/>
</g>
<g fill="black">
<circle cx="516.42" cy="495.357" r="4.50838"/>
</g>
<g fill="black">
<circle cx="521.331" cy="495.429" r="4.50838"/>
</g>
<g fill="black">
<circle cx="526.243" cy="495.499" r="4.50838"/>
</g>
<g fill="black">
<circle cx="531.154" cy="495.51" r="4.50838"/>
</g>
<g fill="black">
<circle cx="536.066" cy="495.604" r="4.50838"/>
</g>
<g fill="black">
<circle cx="540.977" cy="495.645" r="4.50838"/>
</g>
<g fill="black">
<circle cx="545.889" cy="495.715" r="4.50838"/>
</g>
<text xml:space="preserve" x="360.607" y="50.7193" fill="black" font-size="16.0105" font-family="Helvetica"> with EMC</text>
<text xml:space="preserve" x="352.717" y="50.7193" fill="black" font-size="16.0105" font-family="Times">&#0947;</text>
<text xml:space="preserve" x="344.828" y="50.7193" fill="black" font-size="16.0105" font-family="Times">&#0947;</text>
<text xml:space="preserve" x="336.938" y="50.7193" fill="black" font-size="16.0105" font-family="Times">&#0947;</text>
<text xml:space="preserve" x="331.866" y="50.7193" fill="black" font-size="16.0105" font-family="Helvetica"> </text>
<text xml:space="preserve" x="316.65" y="50.7193" fill="black" font-size="16.0105" font-family="Times">&#8594;</text>
<text xml:space="preserve" x="311.578" y="50.7193" fill="black" font-size="16.0105" font-family="Helvetica"> </text>
<text xml:space="preserve" x="303.689" y="50.7193" fill="black" font-size="16.0105" font-family="Times">&#0947;</text>
<text xml:space="preserve" x="298.053" y="45.0838" fill="black" font-size="10.8403" font-family="Helvetica">0</text>
<text xml:space="preserve" x="289.6" y="50.7193" fill="black" font-size="16.0105" font-family="Times">&#0960;</text>
<text xml:space="preserve" x="284.528" y="50.7193" fill="black" font-size="16.0105" font-family="Helvetica"> </text>
<text xml:space="preserve" x="269.312" y="50.7193" fill="black" font-size="16.0105" font-family="Times">&#8594;</text>
<text xml:space="preserve" x="264.24" y="50.7193" fill="black" font-size="16.0105" font-family="Helvetica"> </text>
<text xml:space="preserve" x="252.969" y="50.7193" fill="black" font-size="16.0105" font-family="Times">&#0969;</text>
<text xml:space="preserve" x="128.989" y="50.7193" fill="black" font-size="16.0105" font-family="Helvetica"> = 13 TeV (EG1), </text>
<text xml:space="preserve" x="120.536" y="50.7193" fill="black" font-size="16.0105" font-family="Helvetica" font-style="oblique">s</text>
<path d="M114.9,41.7025l 1.69064, 9.58031" fill="none" stroke="black" stroke-width="2"/>
<path d="M116.591,51.2829l 2.25419, -14.0887" fill="none" stroke="black"/>
<path d="M118.845,37.1942h 10.1439" fill="none" stroke="black"/>
<text xml:space="preserve" x="89.5406" y="50.7193" fill="black" font-size="16.0105" font-family="Helvetica">pp </text>
<text xml:space="preserve" x="89.5406" y="85.6593" fill="black" font-size="16.0105" font-family="Helvetica">ALICE work in progress</text>
<text xml:space="preserve" x="205.068" y="120.599" fill="black" font-size="16.0105" font-family="Helvetica">) &lt; 8.0</text>
<text xml:space="preserve" x="196.051" y="120.599" fill="black" font-size="16.0105" font-family="Helvetica" font-style="oblique">c</text>
<text xml:space="preserve" x="145.895" y="120.599" fill="black" font-size="16.0105" font-family="Helvetica"> /(GeV/</text>
<text xml:space="preserve" x="139.133" y="128.489" fill="black" font-size="10.8403" font-family="Helvetica">T</text>
<text xml:space="preserve" x="129.552" y="120.599" fill="black" font-size="16.0105" font-family="Helvetica" font-style="oblique">p</text>
<text xml:space="preserve" x="124.481" y="120.599" fill="black" font-size="16.0105" font-family="Helvetica"> </text>
<text xml:space="preserve" x="116.027" y="120.599" fill="black" font-size="16.0105" font-family="Times">&#8804;</text>
<text xml:space="preserve" x="89.5406" y="120.599" fill="black" font-size="16.0105" font-family="Helvetica">6.0 </text>
<text xml:space="preserve" x="134.624" y="158.357" fill="black" font-size="16.0105" font-family="Helvetica">background</text>
<path d="M92.9803,152.186h 34.7244" fill="none" stroke="#993333" stroke-width="2"/>
<g fill="#993333">
<rect x="105.834" y="147.678" width="9.01677" height="9.01677"/>
</g>
<text xml:space="preserve" x="134.624" y="185.971" fill="black" font-size="16.0105" font-family="Helvetica">same event</text>
<path d="M92.9803,179.856h 34.7244" fill="none" stroke="black" stroke-width="2"/>
<g fill="black">
<circle cx="110.343" cy="179.856" r="4.50838"/>
</g></svg>
