<?xml version="1.0" standalone="no"?>
<svg width="567.429" height="553.904" viewBox="0 0 567.429 553.904" xmlns="http://www.w3.org/2000/svg" shape-rendering="crispEdges">
<title>
Data/EG1/OmegaTGPSPlusPSNCell/SameEventToBackgroundRatio_11.svg
</title>
<desc>
Creator: ROOT Version 6.20/08
CreationDate: Mon Mar 29 18:50:01 2021</desc>
<defs>
</defs>
<rect x="0.5" y="0" width="566.929" height="553.404" fill="white"/>
<rect x="68.5315" y="16.6021" width="484.724" height="481.461" fill="white"/>
<rect x="68.5315" y="16.6021" width="484.724" height="481.461" fill="none" stroke="black"/>
<rect x="68.5315" y="16.6021" width="484.724" height="481.461" fill="white"/>
<rect x="68.5315" y="16.6021" width="484.724" height="481.461" fill="none" stroke="black"/>
<g fill="black">
<circle cx="114.124" cy="487.578" r="6.76257"/>
</g>
<g fill="black">
<circle cx="118.924" cy="461.449" r="6.76257"/>
</g>
<g fill="black">
<circle cx="123.723" cy="477.966" r="6.76257"/>
</g>
<g fill="black">
<circle cx="128.522" cy="482.645" r="6.76257"/>
</g>
<g fill="black">
<circle cx="133.321" cy="483.889" r="6.76257"/>
</g>
<g fill="black">
<circle cx="138.121" cy="483.482" r="6.76257"/>
</g>
<g fill="black">
<circle cx="142.92" cy="474.339" r="6.76257"/>
</g>
<g fill="black">
<circle cx="147.719" cy="422.969" r="6.76257"/>
</g>
<g fill="black">
<circle cx="152.518" cy="370.843" r="6.76257"/>
</g>
<g fill="black">
<circle cx="157.318" cy="361.133" r="6.76257"/>
</g>
<g fill="black">
<circle cx="162.117" cy="350.892" r="6.76257"/>
</g>
<g fill="black">
<circle cx="166.916" cy="347.066" r="6.76257"/>
</g>
<g fill="black">
<circle cx="171.715" cy="334.766" r="6.76257"/>
</g>
<g fill="black">
<circle cx="176.515" cy="325.386" r="6.76257"/>
</g>
<g fill="black">
<circle cx="181.314" cy="315.366" r="6.76257"/>
</g>
<g fill="black">
<circle cx="186.113" cy="308.526" r="6.76257"/>
</g>
<g fill="black">
<circle cx="190.912" cy="300.88" r="6.76257"/>
</g>
<g fill="black">
<circle cx="195.712" cy="293.946" r="6.76257"/>
</g>
<g fill="black">
<circle cx="200.511" cy="289.349" r="6.76257"/>
</g>
<g fill="black">
<circle cx="205.31" cy="282.519" r="6.76257"/>
</g>
<g fill="black">
<circle cx="210.109" cy="285.166" r="6.76257"/>
</g>
<g fill="black">
<circle cx="214.909" cy="283.897" r="6.76257"/>
</g>
<g fill="black">
<circle cx="219.708" cy="284.074" r="6.76257"/>
</g>
<g fill="black">
<circle cx="224.507" cy="279.214" r="6.76257"/>
</g>
<g fill="black">
<circle cx="229.306" cy="278.283" r="6.76257"/>
</g>
<g fill="black">
<circle cx="234.106" cy="280.146" r="6.76257"/>
</g>
<g fill="black">
<circle cx="238.905" cy="268.793" r="6.76257"/>
</g>
<g fill="black">
<circle cx="243.704" cy="269.925" r="6.76257"/>
</g>
<g fill="black">
<circle cx="248.503" cy="267.321" r="6.76257"/>
</g>
<g fill="black">
<circle cx="253.303" cy="261.987" r="6.76257"/>
</g>
<g fill="black">
<circle cx="258.102" cy="260.749" r="6.76257"/>
</g>
<g fill="black">
<circle cx="262.901" cy="261.962" r="6.76257"/>
</g>
<g fill="black">
<circle cx="267.7" cy="259.537" r="6.76257"/>
</g>
<g fill="black">
<circle cx="272.5" cy="259.596" r="6.76257"/>
</g>
<g fill="black">
<circle cx="277.299" cy="254.472" r="6.76257"/>
</g>
<g fill="black">
<circle cx="339.689" cy="227.002" r="6.76257"/>
</g>
<g fill="black">
<circle cx="344.488" cy="237.382" r="6.76257"/>
</g>
<g fill="black">
<circle cx="349.288" cy="227.438" r="6.76257"/>
</g>
<g fill="black">
<circle cx="354.087" cy="228.134" r="6.76257"/>
</g>
<g fill="black">
<circle cx="358.886" cy="229.379" r="6.76257"/>
</g>
<g fill="black">
<circle cx="363.685" cy="227.575" r="6.76257"/>
</g>
<g fill="black">
<circle cx="368.485" cy="228.782" r="6.76257"/>
</g>
<g fill="black">
<circle cx="373.284" cy="232.908" r="6.76257"/>
</g>
<g fill="black">
<circle cx="378.083" cy="228.012" r="6.76257"/>
</g>
<g fill="black">
<circle cx="382.882" cy="226.858" r="6.76257"/>
</g>
<g fill="black">
<circle cx="387.682" cy="225.556" r="6.76257"/>
</g>
<g fill="black">
<circle cx="392.481" cy="225.509" r="6.76257"/>
</g>
<g fill="black">
<circle cx="397.28" cy="225.973" r="6.76257"/>
</g>
<g fill="black">
<circle cx="402.079" cy="223.219" r="6.76257"/>
</g>
<g fill="black">
<circle cx="406.879" cy="224" r="6.76257"/>
</g>
<g fill="black">
<circle cx="411.678" cy="219.179" r="6.76257"/>
</g>
<g fill="black">
<circle cx="416.477" cy="214.8" r="6.76257"/>
</g>
<g fill="black">
<circle cx="421.276" cy="216.623" r="6.76257"/>
</g>
<g fill="black">
<circle cx="426.076" cy="211.98" r="6.76257"/>
</g>
<g fill="black">
<circle cx="430.875" cy="210.549" r="6.76257"/>
</g>
<g fill="black">
<circle cx="435.674" cy="219.075" r="6.76257"/>
</g>
<g fill="black">
<circle cx="440.473" cy="214.978" r="6.76257"/>
</g>
<g fill="black">
<circle cx="445.273" cy="211.849" r="6.76257"/>
</g>
<g fill="black">
<circle cx="450.072" cy="209.494" r="6.76257"/>
</g>
<g fill="black">
<circle cx="454.871" cy="203.849" r="6.76257"/>
</g>
<g fill="black">
<circle cx="459.671" cy="209.162" r="6.76257"/>
</g>
<g fill="black">
<circle cx="464.47" cy="206.954" r="6.76257"/>
</g>
<g fill="black">
<circle cx="469.269" cy="212.62" r="6.76257"/>
</g>
<g fill="black">
<circle cx="474.068" cy="205.456" r="6.76257"/>
</g>
<g fill="black">
<circle cx="478.867" cy="213.442" r="6.76257"/>
</g>
<g fill="black">
<circle cx="483.667" cy="210.556" r="6.76257"/>
</g>
<g fill="black">
<circle cx="488.466" cy="201.346" r="6.76257"/>
</g>
<g fill="black">
<circle cx="493.265" cy="209.124" r="6.76257"/>
</g>
<g fill="black">
<circle cx="498.065" cy="205.96" r="6.76257"/>
</g>
<g fill="black">
<circle cx="502.864" cy="205.725" r="6.76257"/>
</g>
<g fill="black">
<circle cx="507.663" cy="215.045" r="6.76257"/>
</g>
<g fill="black">
<circle cx="512.462" cy="206.053" r="6.76257"/>
</g>
<g fill="black">
<circle cx="517.262" cy="213.402" r="6.76257"/>
</g>
<g fill="black">
<circle cx="522.061" cy="206.436" r="6.76257"/>
</g>
<g fill="black">
<circle cx="526.86" cy="202.734" r="6.76257"/>
</g>
<g fill="black">
<circle cx="531.659" cy="197.15" r="6.76257"/>
</g>
<g fill="black">
<circle cx="536.458" cy="199.103" r="6.76257"/>
</g>
<g fill="black">
<circle cx="541.258" cy="216.289" r="6.76257"/>
</g>
<g fill="black">
<circle cx="546.057" cy="205.617" r="6.76257"/>
</g>
<path d="M68.5315,498.064h 484.724" fill="none" stroke="black"/>
<path d="M68.5315,483.869v 14.1948" fill="none" stroke="black"/>
<path d="M83.5292,490.966v 7.09741" fill="none" stroke="black"/>
<path d="M98.5268,490.966v 7.09741" fill="none" stroke="black"/>
<path d="M113.524,490.966v 7.09741" fill="none" stroke="black"/>
<path d="M128.522,483.869v 14.1948" fill="none" stroke="black"/>
<path d="M143.52,490.966v 7.09741" fill="none" stroke="black"/>
<path d="M158.517,490.966v 7.09741" fill="none" stroke="black"/>
<path d="M173.515,490.966v 7.09741" fill="none" stroke="black"/>
<path d="M188.513,483.869v 14.1948" fill="none" stroke="black"/>
<path d="M203.51,490.966v 7.09741" fill="none" stroke="black"/>
<path d="M218.508,490.966v 7.09741" fill="none" stroke="black"/>
<path d="M233.506,490.966v 7.09741" fill="none" stroke="black"/>
<path d="M248.503,483.869v 14.1948" fill="none" stroke="black"/>
<path d="M263.501,490.966v 7.09741" fill="none" stroke="black"/>
<path d="M278.499,490.966v 7.09741" fill="none" stroke="black"/>
<path d="M293.496,490.966v 7.09741" fill="none" stroke="black"/>
<path d="M308.494,483.869v 14.1948" fill="none" stroke="black"/>
<path d="M323.492,490.966v 7.09741" fill="none" stroke="black"/>
<path d="M338.489,490.966v 7.09741" fill="none" stroke="black"/>
<path d="M353.487,490.966v 7.09741" fill="none" stroke="black"/>
<path d="M368.485,483.869v 14.1948" fill="none" stroke="black"/>
<path d="M383.482,490.966v 7.09741" fill="none" stroke="black"/>
<path d="M398.48,490.966v 7.09741" fill="none" stroke="black"/>
<path d="M413.478,490.966v 7.09741" fill="none" stroke="black"/>
<path d="M428.475,483.869v 14.1948" fill="none" stroke="black"/>
<path d="M443.473,490.966v 7.09741" fill="none" stroke="black"/>
<path d="M458.471,490.966v 7.09741" fill="none" stroke="black"/>
<path d="M473.468,490.966v 7.09741" fill="none" stroke="black"/>
<path d="M488.466,483.869v 14.1948" fill="none" stroke="black"/>
<path d="M503.464,490.966v 7.09741" fill="none" stroke="black"/>
<path d="M518.461,490.966v 7.09741" fill="none" stroke="black"/>
<path d="M533.459,490.966v 7.09741" fill="none" stroke="black"/>
<path d="M548.457,483.869v 14.1948" fill="none" stroke="black"/>
<path d="M548.457,483.869v 14.1948" fill="none" stroke="black"/>
<text xml:space="preserve" x="63.6174" y="513.956" fill="black" font-size="16.0105" font-family="Helvetica">0</text>
<text xml:space="preserve" x="117.718" y="513.956" fill="black" font-size="16.0105" font-family="Helvetica">0.2</text>
<text xml:space="preserve" x="177.454" y="513.956" fill="black" font-size="16.0105" font-family="Helvetica">0.4</text>
<text xml:space="preserve" x="237.754" y="513.956" fill="black" font-size="16.0105" font-family="Helvetica">0.6</text>
<text xml:space="preserve" x="297.49" y="513.956" fill="black" font-size="16.0105" font-family="Helvetica">0.8</text>
<text xml:space="preserve" x="365.115" y="513.956" fill="black" font-size="16.0105" font-family="Helvetica">1</text>
<text xml:space="preserve" x="417.525" y="513.956" fill="black" font-size="16.0105" font-family="Helvetica">1.2</text>
<text xml:space="preserve" x="477.261" y="513.956" fill="black" font-size="16.0105" font-family="Helvetica">1.4</text>
<text xml:space="preserve" x="537.561" y="513.956" fill="black" font-size="16.0105" font-family="Helvetica">1.6</text>
<text xml:space="preserve" x="548.268" y="537.625" fill="black" font-size="16.0105" font-family="Helvetica">)</text>
<text xml:space="preserve" x="542.633" y="532.553" fill="black" font-size="10.8403" font-family="Helvetica">2</text>
<text xml:space="preserve" x="533.616" y="537.625" fill="black" font-size="16.0105" font-family="Helvetica" font-style="oblique">c</text>
<text xml:space="preserve" x="487.405" y="537.625" fill="black" font-size="16.0105" font-family="Helvetica"> (GeV/</text>
<text xml:space="preserve" x="473.317" y="542.697" fill="black" font-size="10.8403" font-family="Helvetica">inv</text>
<text xml:space="preserve" x="459.792" y="537.625" fill="black" font-size="16.0105" font-family="Helvetica" font-style="oblique">m</text>
<path d="M68.5315,16.6021h 484.724" fill="none" stroke="black"/>
<path d="M68.5315,30.7969v -14.1948" fill="none" stroke="black"/>
<path d="M83.5292,23.6995v -7.09741" fill="none" stroke="black"/>
<path d="M98.5268,23.6995v -7.09741" fill="none" stroke="black"/>
<path d="M113.524,23.6995v -7.09741" fill="none" stroke="black"/>
<path d="M128.522,30.7969v -14.1948" fill="none" stroke="black"/>
<path d="M143.52,23.6995v -7.09741" fill="none" stroke="black"/>
<path d="M158.517,23.6995v -7.09741" fill="none" stroke="black"/>
<path d="M173.515,23.6995v -7.09741" fill="none" stroke="black"/>
<path d="M188.513,30.7969v -14.1948" fill="none" stroke="black"/>
<path d="M203.51,23.6995v -7.09741" fill="none" stroke="black"/>
<path d="M218.508,23.6995v -7.09741" fill="none" stroke="black"/>
<path d="M233.506,23.6995v -7.09741" fill="none" stroke="black"/>
<path d="M248.503,30.7969v -14.1948" fill="none" stroke="black"/>
<path d="M263.501,23.6995v -7.09741" fill="none" stroke="black"/>
<path d="M278.499,23.6995v -7.09741" fill="none" stroke="black"/>
<path d="M293.496,23.6995v -7.09741" fill="none" stroke="black"/>
<path d="M308.494,30.7969v -14.1948" fill="none" stroke="black"/>
<path d="M323.492,23.6995v -7.09741" fill="none" stroke="black"/>
<path d="M338.489,23.6995v -7.09741" fill="none" stroke="black"/>
<path d="M353.487,23.6995v -7.09741" fill="none" stroke="black"/>
<path d="M368.485,30.7969v -14.1948" fill="none" stroke="black"/>
<path d="M383.482,23.6995v -7.09741" fill="none" stroke="black"/>
<path d="M398.48,23.6995v -7.09741" fill="none" stroke="black"/>
<path d="M413.478,23.6995v -7.09741" fill="none" stroke="black"/>
<path d="M428.475,30.7969v -14.1948" fill="none" stroke="black"/>
<path d="M443.473,23.6995v -7.09741" fill="none" stroke="black"/>
<path d="M458.471,23.6995v -7.09741" fill="none" stroke="black"/>
<path d="M473.468,23.6995v -7.09741" fill="none" stroke="black"/>
<path d="M488.466,30.7969v -14.1948" fill="none" stroke="black"/>
<path d="M503.464,23.6995v -7.09741" fill="none" stroke="black"/>
<path d="M518.461,23.6995v -7.09741" fill="none" stroke="black"/>
<path d="M533.459,23.6995v -7.09741" fill="none" stroke="black"/>
<path d="M548.457,30.7969v -14.1948" fill="none" stroke="black"/>
<path d="M548.457,30.7969v -14.1948" fill="none" stroke="black"/>
<path d="M68.5315,498.064v -481.461" fill="none" stroke="black"/>
<path d="M83.3283,498.064h -14.7969" fill="none" stroke="black"/>
<path d="M75.9299,480.105h -7.39843" fill="none" stroke="black"/>
<path d="M75.9299,462.147h -7.39843" fill="none" stroke="black"/>
<path d="M75.9299,444.189h -7.39843" fill="none" stroke="black"/>
<path d="M75.9299,426.23h -7.39843" fill="none" stroke="black"/>
<path d="M83.3283,408.272h -14.7969" fill="none" stroke="black"/>
<path d="M75.9299,390.314h -7.39843" fill="none" stroke="black"/>
<path d="M75.9299,372.355h -7.39843" fill="none" stroke="black"/>
<path d="M75.9299,354.397h -7.39843" fill="none" stroke="black"/>
<path d="M75.9299,336.439h -7.39843" fill="none" stroke="black"/>
<path d="M83.3283,318.48h -14.7969" fill="none" stroke="black"/>
<path d="M75.9299,300.522h -7.39843" fill="none" stroke="black"/>
<path d="M75.9299,282.564h -7.39843" fill="none" stroke="black"/>
<path d="M75.9299,264.605h -7.39843" fill="none" stroke="black"/>
<path d="M75.9299,246.647h -7.39843" fill="none" stroke="black"/>
<path d="M83.3283,228.689h -14.7969" fill="none" stroke="black"/>
<path d="M75.9299,210.73h -7.39843" fill="none" stroke="black"/>
<path d="M75.9299,192.772h -7.39843" fill="none" stroke="black"/>
<path d="M75.9299,174.814h -7.39843" fill="none" stroke="black"/>
<path d="M75.9299,156.855h -7.39843" fill="none" stroke="black"/>
<path d="M83.3283,138.897h -14.7969" fill="none" stroke="black"/>
<path d="M75.9299,120.939h -7.39843" fill="none" stroke="black"/>
<path d="M75.9299,102.98h -7.39843" fill="none" stroke="black"/>
<path d="M75.9299,85.0221h -7.39843" fill="none" stroke="black"/>
<path d="M75.9299,67.0637h -7.39843" fill="none" stroke="black"/>
<path d="M83.3283,49.1054h -14.7969" fill="none" stroke="black"/>
<path d="M83.3283,49.1054h -14.7969" fill="none" stroke="black"/>
<path d="M75.9299,31.1471h -7.39843" fill="none" stroke="black"/>
<text xml:space="preserve" x="56.8548" y="503.248" fill="black" font-size="16.0105" font-family="Helvetica">0</text>
<text xml:space="preserve" x="48.4016" y="413.644" fill="black" font-size="16.0105" font-family="Helvetica">10</text>
<text xml:space="preserve" x="48.4016" y="324.04" fill="black" font-size="16.0105" font-family="Helvetica">20</text>
<text xml:space="preserve" x="48.4016" y="233.872" fill="black" font-size="16.0105" font-family="Helvetica">30</text>
<text xml:space="preserve" x="48.4016" y="144.268" fill="black" font-size="16.0105" font-family="Helvetica">40</text>
<text xml:space="preserve" x="48.4016" y="54.6641" fill="black" font-size="16.0105" font-family="Helvetica">50</text>
<text xml:space="preserve" x="99.1209" y="7.32612" fill="black" font-size="10.8403" font-family="Helvetica">3</text>
<text xml:space="preserve" x="93.4854" y="7.32612" fill="black" font-size="10.8403" font-family="Times">&#8722;</text>
<text xml:space="preserve" x="76.579" y="14.6522" fill="black" font-size="16.0105" font-family="Helvetica">10</text>
<text xml:space="preserve" x="68.1257" y="14.6522" fill="black" font-size="16.0105" font-family="Times">&#0215;</text>
<g transform="rotate(-90,38.2577,98.0573)">
<text xml:space="preserve" x="38.2577" y="98.0573" fill="black" font-size="16.0105" font-family="Helvetica">background</text>
</g>
<g transform="rotate(-90,21.9148,98.0573)">
<text xml:space="preserve" x="21.9148" y="98.0573" fill="black" font-size="16.0105" font-family="Helvetica">same event</text>
</g>
<path d="M24.169,98.0573l 0.563548, -81.7144" fill="none" stroke="black" stroke-width="2"/>
<path d="M553.256,498.064v -481.461" fill="none" stroke="black"/>
<path d="M538.459,498.064h 14.7969" fill="none" stroke="black"/>
<path d="M545.857,480.105h 7.39843" fill="none" stroke="black"/>
<path d="M545.857,462.147h 7.39843" fill="none" stroke="black"/>
<path d="M545.857,444.189h 7.39843" fill="none" stroke="black"/>
<path d="M545.857,426.23h 7.39843" fill="none" stroke="black"/>
<path d="M538.459,408.272h 14.7969" fill="none" stroke="black"/>
<path d="M545.857,390.314h 7.39843" fill="none" stroke="black"/>
<path d="M545.857,372.355h 7.39843" fill="none" stroke="black"/>
<path d="M545.857,354.397h 7.39843" fill="none" stroke="black"/>
<path d="M545.857,336.439h 7.39843" fill="none" stroke="black"/>
<path d="M538.459,318.48h 14.7969" fill="none" stroke="black"/>
<path d="M545.857,300.522h 7.39843" fill="none" stroke="black"/>
<path d="M545.857,282.564h 7.39843" fill="none" stroke="black"/>
<path d="M545.857,264.605h 7.39843" fill="none" stroke="black"/>
<path d="M545.857,246.647h 7.39843" fill="none" stroke="black"/>
<path d="M538.459,228.689h 14.7969" fill="none" stroke="black"/>
<path d="M545.857,210.73h 7.39843" fill="none" stroke="black"/>
<path d="M545.857,192.772h 7.39843" fill="none" stroke="black"/>
<path d="M545.857,174.814h 7.39843" fill="none" stroke="black"/>
<path d="M545.857,156.855h 7.39843" fill="none" stroke="black"/>
<path d="M538.459,138.897h 14.7969" fill="none" stroke="black"/>
<path d="M545.857,120.939h 7.39843" fill="none" stroke="black"/>
<path d="M545.857,102.98h 7.39843" fill="none" stroke="black"/>
<path d="M545.857,85.0221h 7.39843" fill="none" stroke="black"/>
<path d="M545.857,67.0637h 7.39843" fill="none" stroke="black"/>
<path d="M538.459,49.1054h 14.7969" fill="none" stroke="black"/>
<path d="M538.459,49.1054h 14.7969" fill="none" stroke="black"/>
<path d="M545.857,31.1471h 7.39843" fill="none" stroke="black"/>
<g stroke="#333333" stroke-width="2" fill="none">
<circle cx="282.098" cy="252.57" r="5.63548"/>
</g>
<g stroke="#333333" stroke-width="2" fill="none">
<circle cx="286.897" cy="247.975" r="5.63548"/>
</g>
<g stroke="#333333" stroke-width="2" fill="none">
<circle cx="291.697" cy="247.674" r="5.63548"/>
</g>
<g stroke="#333333" stroke-width="2" fill="none">
<circle cx="296.496" cy="242.23" r="5.63548"/>
</g>
<g stroke="#333333" stroke-width="2" fill="none">
<circle cx="301.295" cy="238.121" r="5.63548"/>
</g>
<g stroke="#333333" stroke-width="2" fill="none">
<circle cx="306.094" cy="236.992" r="5.63548"/>
</g>
<g stroke="#333333" stroke-width="2" fill="none">
<circle cx="310.894" cy="234.23" r="5.63548"/>
</g>
<g stroke="#333333" stroke-width="2" fill="none">
<circle cx="315.693" cy="239.879" r="5.63548"/>
</g>
<g stroke="#333333" stroke-width="2" fill="none">
<circle cx="320.492" cy="241.805" r="5.63548"/>
</g>
<g stroke="#333333" stroke-width="2" fill="none">
<circle cx="325.291" cy="239.89" r="5.63548"/>
</g>
<g stroke="#333333" stroke-width="2" fill="none">
<circle cx="330.091" cy="230.386" r="5.63548"/>
</g>
<g stroke="#333333" stroke-width="2" fill="none">
<circle cx="334.89" cy="231.905" r="5.63548"/>
</g>
<path d="M128.732,298.592l 0.419935, -0.120769l 0.419935, -0.120769l 0.419935, -0.120769l 0.419935, -0.120769l 0.419935, -0.120769l 0.419935, -0.120769l 0.419935, -0.120769l 0.419935, -0.120769l 0.419935, -0.120769l 0.419935, -0.120769l 0.419935,
 -0.120769l 0.419935, -0.120769l 0.419935, -0.120769l 0.419935, -0.120769l 0.419935, -0.120769l 0.419935, -0.120769l 0.419935, -0.120769l 0.419935, -0.120769l 0.419935, -0.120769l 0.419935, -0.120769l 0.419935, -0.120769l 0.419935, -0.120769l
 0.419935, -0.120769l 0.419935, -0.120769l 0.419935, -0.120769l 0.419935, -0.120769l 0.419935, -0.120769l 0.419935, -0.120769l 0.419935, -0.120769l 0.419935, -0.120769l 0.419935, -0.120769l 0.419935, -0.120769l 0.419935, -0.120769l 0.419935,
 -0.120769l 0.419935, -0.120769l 0.419935, -0.120769l 0.419935, -0.120769l 0.419935, -0.120769l 0.419935, -0.120769l 0.419935, -0.120769l 0.419935, -0.120769l 0.419935, -0.120769l 0.419935, -0.120769l 0.419935, -0.120769l 0.419935, -0.120769l
 0.419935, -0.120769l 0.419935, -0.120769l 0.419935, -0.120769l 0.419935, -0.120769" fill="none" stroke="#33cccc" stroke-width="3"/>
<path d="M149.309,292.674l 0.419935, -0.120769l 0.419935, -0.120769l 0.419935, -0.120769l 0.419935, -0.120769l 0.419935, -0.120769l 0.419935, -0.120769l 0.419935, -0.120769l 0.419935, -0.120769l 0.419935, -0.120769l 0.419935, -0.120769l 0.419935,
 -0.120769l 0.419935, -0.120769l 0.419935, -0.120769l 0.419935, -0.120769l 0.419935, -0.120769l 0.419935, -0.120769l 0.419935, -0.120769l 0.419935, -0.120769l 0.419935, -0.120769l 0.419935, -0.120769l 0.419935, -0.120769l 0.419935, -0.120769l
 0.419935, -0.120769l 0.419935, -0.120769l 0.419935, -0.120769l 0.419935, -0.120769l 0.419935, -0.120769l 0.419935, -0.120769l 0.419935, -0.120769l 0.419935, -0.120769l 0.419935, -0.120769l 0.419935, -0.120769l 0.419935, -0.120769l 0.419935,
 -0.120769l 0.419935, -0.120769l 0.419935, -0.120769l 0.419935, -0.120769l 0.419935, -0.120769l 0.419935, -0.120769l 0.419935, -0.120769l 0.419935, -0.120769l 0.419935, -0.120769l 0.419935, -0.120769l 0.419935, -0.120769l 0.419935, -0.120769l
 0.419935, -0.120769l 0.419935, -0.120769l 0.419935, -0.120769l 0.419935, -0.120769" fill="none" stroke="#33cccc" stroke-width="3"/>
<path d="M169.886,286.756l 0.419935, -0.120769l 0.419935, -0.120769l 0.419935, -0.120769l 0.419935, -0.120769l 0.419935, -0.120769l 0.419935, -0.120769l 0.419935, -0.120769l 0.419935, -0.120769l 0.419935, -0.120769l 0.419935, -0.120769l 0.419935,
 -0.120769l 0.419935, -0.120769l 0.419935, -0.120769l 0.419935, -0.120769l 0.419935, -0.120769l 0.419935, -0.120769l 0.419935, -0.120769l 0.419935, -0.120769l 0.419935, -0.120769l 0.419935, -0.120769l 0.419935, -0.120769l 0.419935, -0.120769l
 0.419935, -0.120769l 0.419935, -0.120769l 0.419935, -0.120769l 0.419935, -0.120769l 0.419935, -0.120769l 0.419935, -0.120769l 0.419935, -0.120769l 0.419935, -0.120769l 0.419935, -0.120769l 0.419935, -0.120769l 0.419935, -0.120769l 0.419935,
 -0.120769l 0.419935, -0.120769l 0.419935, -0.120769l 0.419935, -0.120769l 0.419935, -0.120769l 0.419935, -0.120769l 0.419935, -0.120769l 0.419935, -0.120769l 0.419935, -0.120769l 0.419935, -0.120769l 0.419935, -0.120769l 0.419935, -0.120769l
 0.419935, -0.120769l 0.419935, -0.120769l 0.419935, -0.120769l 0.419935, -0.120769" fill="none" stroke="#33cccc" stroke-width="3"/>
<path d="M190.462,280.839l 0.419935, -0.120769l 0.419935, -0.120769l 0.419935, -0.120769l 0.419935, -0.120769l 0.419935, -0.120769l 0.419935, -0.120769l 0.419935, -0.120769l 0.419935, -0.120769l 0.419935, -0.120769l 0.419935, -0.120769l 0.419935,
 -0.120769l 0.419935, -0.120769l 0.419935, -0.120769l 0.419935, -0.120769l 0.419935, -0.120769l 0.419935, -0.120769l 0.419935, -0.120769l 0.419935, -0.120769l 0.419935, -0.120769l 0.419935, -0.120769l 0.419935, -0.120769l 0.419935, -0.120769l
 0.419935, -0.120769l 0.419935, -0.120769l 0.419935, -0.120769l 0.419935, -0.120769l 0.419935, -0.120769l 0.419935, -0.120769l 0.419935, -0.120769l 0.419935, -0.120769l 0.419935, -0.120769l 0.419935, -0.120769l 0.419935, -0.120769l 0.419935,
 -0.120769l 0.419935, -0.120769l 0.419935, -0.120769l 0.419935, -0.120769l 0.419935, -0.120769l 0.419935, -0.120769l 0.419935, -0.120769l 0.419935, -0.120769l 0.419935, -0.120769l 0.419935, -0.120769l 0.419935, -0.120769l 0.419935, -0.120769l
 0.419935, -0.120769l 0.419935, -0.120769l 0.419935, -0.120769l 0.419935, -0.120769" fill="none" stroke="#33cccc" stroke-width="3"/>
<path d="M211.039,274.921l 0.419935, -0.120769l 0.419935, -0.120769l 0.419935, -0.120769l 0.419935, -0.120769l 0.419935, -0.120769l 0.419935, -0.120769l 0.419935, -0.120769l 0.419935, -0.120769l 0.419935, -0.120769l 0.419935, -0.120769l 0.419935,
 -0.120769l 0.419935, -0.120769l 0.419935, -0.120769l 0.419935, -0.120769l 0.419935, -0.120769l 0.419935, -0.120769l 0.419935, -0.120769l 0.419935, -0.120769l 0.419935, -0.120769l 0.419935, -0.120769l 0.419935, -0.120769l 0.419935, -0.120769l
 0.419935, -0.120769l 0.419935, -0.120769l 0.419935, -0.120769l 0.419935, -0.120769l 0.419935, -0.120769l 0.419935, -0.120769l 0.419935, -0.120769l 0.419935, -0.120769l 0.419935, -0.120769l 0.419935, -0.120769l 0.419935, -0.120769l 0.419935,
 -0.120769l 0.419935, -0.120769l 0.419935, -0.120769l 0.419935, -0.120769l 0.419935, -0.120769l 0.419935, -0.120769l 0.419935, -0.120769l 0.419935, -0.120769l 0.419935, -0.120769l 0.419935, -0.120769l 0.419935, -0.120769l 0.419935, -0.120769l
 0.419935, -0.120769l 0.419935, -0.120769l 0.419935, -0.120769l 0.419935, -0.120769" fill="none" stroke="#33cccc" stroke-width="3"/>
<path d="M231.616,269.003l 0.419935, -0.120769l 0.419935, -0.120769l 0.419935, -0.120769l 0.419935, -0.120769l 0.419935, -0.120769l 0.419935, -0.120769l 0.419935, -0.120769l 0.419935, -0.120769l 0.419935, -0.120769l 0.419935, -0.120769l 0.419935,
 -0.120769l 0.419935, -0.120769l 0.419935, -0.120769l 0.419935, -0.120769l 0.419935, -0.120769l 0.419935, -0.120769l 0.419935, -0.120769l 0.419935, -0.120769l 0.419935, -0.120769l 0.419935, -0.120769l 0.419935, -0.120769l 0.419935, -0.120769l
 0.419935, -0.120769l 0.419935, -0.120769l 0.419935, -0.120769l 0.419935, -0.120769l 0.419935, -0.120769l 0.419935, -0.120769l 0.419935, -0.120769l 0.419935, -0.120769l 0.419935, -0.120769l 0.419935, -0.120769l 0.419935, -0.120769l 0.419935,
 -0.120769l 0.419935, -0.120769l 0.419935, -0.120769l 0.419935, -0.120769l 0.419935, -0.120769l 0.419935, -0.120769l 0.419935, -0.120769l 0.419935, -0.120769l 0.419935, -0.120769l 0.419935, -0.120769l 0.419935, -0.120769l 0.419935, -0.120769l
 0.419935, -0.120769l 0.419935, -0.120769l 0.419935, -0.120769l 0.419935, -0.120769" fill="none" stroke="#33cccc" stroke-width="3"/>
<path d="M252.193,263.085l 0.419935, -0.120769l 0.419935, -0.120769l 0.419935, -0.120769l 0.419935, -0.120769l 0.419935, -0.120769l 0.419935, -0.120769l 0.419935, -0.120769l 0.419935, -0.120769l 0.419935, -0.120769l 0.419935, -0.120769l 0.419935,
 -0.120769l 0.419935, -0.120769l 0.419935, -0.120769l 0.419935, -0.120769l 0.419935, -0.120769l 0.419935, -0.120769l 0.419935, -0.120769l 0.419935, -0.120769l 0.419935, -0.120769l 0.419935, -0.120769l 0.419935, -0.120769l 0.419935, -0.120769l
 0.419935, -0.120769l 0.419935, -0.120769l 0.419935, -0.120769l 0.419935, -0.120769l 0.419935, -0.120769l 0.419935, -0.120769l 0.419935, -0.120769l 0.419935, -0.120769l 0.419935, -0.120769l 0.419935, -0.120769l 0.419935, -0.120769l 0.419935,
 -0.120769l 0.419935, -0.120769l 0.419935, -0.120769l 0.419935, -0.120769l 0.419935, -0.120769l 0.419935, -0.120769l 0.419935, -0.120769l 0.419935, -0.120769l 0.419935, -0.120769l 0.419935, -0.120769l 0.419935, -0.120769l 0.419935, -0.120769l
 0.419935, -0.120769l 0.419935, -0.120769l 0.419935, -0.120769l 0.419935, -0.120769" fill="none" stroke="#33cccc" stroke-width="3"/>
<path d="M272.77,257.168l 0.419935, -0.120769l 0.419935, -0.120769l 0.419935, -0.120769l 0.419935, -0.120769l 0.419935, -0.120769l 0.419935, -0.120769l 0.419935, -0.120769l 0.419935, -0.120769l 0.419935, -0.120769l 0.419935, -0.120769l 0.419935,
 -0.120769l 0.419935, -0.120769l 0.419935, -0.120769l 0.419935, -0.120769l 0.419935, -0.120769l 0.419935, -0.120769l 0.419935, -0.120769l 0.419935, -0.120769l 0.419935, -0.120769l 0.419935, -0.120769l 0.419935, -0.120769l 0.419935, -0.120769l
 0.419935, -0.120769l 0.419935, -0.120769l 0.419935, -0.120769l 0.419935, -0.120769l 0.419935, -0.120769l 0.419935, -0.120769l 0.419935, -0.120769l 0.419935, -0.120769l 0.419935, -0.120769l 0.419935, -0.120769l 0.419935, -0.120769l 0.419935,
 -0.120769l 0.419935, -0.120769l 0.419935, -0.120769l 0.419935, -0.120769l 0.419935, -0.120769l 0.419935, -0.120769l 0.419935, -0.120769l 0.419935, -0.120769l 0.419935, -0.120769l 0.419935, -0.120769l 0.419935, -0.120769l 0.419935, -0.120769l
 0.419935, -0.120769l 0.419935, -0.120769l 0.419935, -0.120769l 0.419935, -0.120769" fill="none" stroke="#33cccc" stroke-width="3"/>
<path d="M293.346,251.25l 0.419935, -0.120769l 0.419935, -0.120769l 0.419935, -0.120769l 0.419935, -0.120769l 0.419935, -0.120769l 0.419935, -0.120769l 0.419935, -0.120769l 0.419935, -0.120769l 0.419935, -0.120769l 0.419935, -0.120769l 0.419935,
 -0.120769l 0.419935, -0.120769l 0.419935, -0.120769l 0.419935, -0.120769l 0.419935, -0.120769l 0.419935, -0.120769l 0.419935, -0.120769l 0.419935, -0.120769l 0.419935, -0.120769l 0.419935, -0.120769l 0.419935, -0.120769l 0.419935, -0.120769l
 0.419935, -0.120769l 0.419935, -0.120769l 0.419935, -0.120769l 0.419935, -0.120769l 0.419935, -0.120769l 0.419935, -0.120769l 0.419935, -0.120769l 0.419935, -0.120769l 0.419935, -0.120769l 0.419935, -0.120769l 0.419935, -0.120769l 0.419935,
 -0.120769l 0.419935, -0.120769l 0.419935, -0.120769l 0.419935, -0.120769l 0.419935, -0.120769l 0.419935, -0.120769l 0.419935, -0.120769l 0.419935, -0.120769l 0.419935, -0.120769l 0.419935, -0.120769l 0.419935, -0.120769l 0.419935, -0.120769l
 0.419935, -0.120769l 0.419935, -0.120769l 0.419935, -0.120769l 0.419935, -0.120769" fill="none" stroke="#33cccc" stroke-width="3"/>
<path d="M313.923,245.332l 0.419935, -0.120769l 0.419935, -0.120769l 0.419935, -0.120769l 0.419935, -0.120769l 0.419935, -0.120769l 0.419935, -0.120769l 0.419935, -0.120769l 0.419935, -0.120769l 0.419935, -0.120769l 0.419935, -0.120769l 0.419935,
 -0.120769l 0.419935, -0.120769l 0.419935, -0.120769l 0.419935, -0.120769l 0.419935, -0.120769l 0.419935, -0.120769l 0.419935, -0.120769l 0.419935, -0.120769l 0.419935, -0.120769l 0.419935, -0.120769l 0.419935, -0.120769l 0.419935, -0.120769l
 0.419935, -0.120769l 0.419935, -0.120769l 0.419935, -0.120769l 0.419935, -0.120769l 0.419935, -0.120769l 0.419935, -0.120769l 0.419935, -0.120769l 0.419935, -0.120769l 0.419935, -0.120769l 0.419935, -0.120769l 0.419935, -0.120769l 0.419935,
 -0.120769l 0.419935, -0.120769l 0.419935, -0.120769l 0.419935, -0.120769l 0.419935, -0.120769l 0.419935, -0.120769l 0.419935, -0.120769l 0.419935, -0.120769l 0.419935, -0.120769l 0.419935, -0.120769l 0.419935, -0.120769l 0.419935, -0.120769l
 0.419935, -0.120769l 0.419935, -0.120769l 0.419935, -0.120769l 0.419935, -0.120769" fill="none" stroke="#33cccc" stroke-width="3"/>
<path d="M334.5,239.415l 0.419935, -0.120769l 0.419935, -0.120769l 0.419935, -0.120769l 0.419935, -0.120769l 0.419935, -0.120769l 0.419935, -0.120769l 0.419935, -0.120769l 0.419935, -0.120769l 0.419935, -0.120769l 0.419935, -0.120769l 0.419935,
 -0.120769l 0.419935, -0.120769l 0.419935, -0.120769l 0.419935, -0.120769l 0.419935, -0.120769l 0.419935, -0.120769l 0.419935, -0.120769l 0.419935, -0.120769l 0.419935, -0.120769l 0.419935, -0.120769l 0.419935, -0.120769l 0.419935, -0.120769l
 0.419935, -0.120769l 0.419935, -0.120769l 0.419935, -0.120769l 0.419935, -0.120769l 0.419935, -0.120769l 0.419935, -0.120769l 0.419935, -0.120769l 0.419935, -0.120769l 0.419935, -0.120769l 0.419935, -0.120769l 0.419935, -0.120769l 0.419935,
 -0.120769l 0.419935, -0.120769l 0.419935, -0.120769l 0.419935, -0.120769l 0.419935, -0.120769l 0.419935, -0.120769l 0.419935, -0.120769l 0.419935, -0.120769l 0.419935, -0.120769l 0.419935, -0.120769l 0.419935, -0.120769l 0.419935, -0.120769l
 0.419935, -0.120769l 0.419935, -0.120769l 0.419935, -0.120769l 0.419935, -0.120769" fill="none" stroke="#33cccc" stroke-width="3"/>
<path d="M355.077,233.497l 0.419935, -0.120769l 0.419935, -0.120769l 0.419935, -0.120769l 0.419935, -0.120769l 0.419935, -0.120769l 0.419935, -0.120769l 0.419935, -0.120769l 0.419935, -0.120769l 0.419935, -0.120769l 0.419935, -0.120769l 0.419935,
 -0.120769l 0.419935, -0.120769l 0.419935, -0.120769l 0.419935, -0.120769l 0.419935, -0.120769l 0.419935, -0.120769l 0.419935, -0.120769l 0.419935, -0.120769l 0.419935, -0.120769l 0.419935, -0.120769l 0.419935, -0.120769l 0.419935, -0.120769l
 0.419935, -0.120769l 0.419935, -0.120769l 0.419935, -0.120769l 0.419935, -0.120769l 0.419935, -0.120769l 0.419935, -0.120769l 0.419935, -0.120769l 0.419935, -0.120769l 0.419935, -0.120769l 0.419935, -0.120769l 0.419935, -0.120769l 0.419935,
 -0.120769l 0.419935, -0.120769l 0.419935, -0.120769l 0.419935, -0.120769l 0.419935, -0.120769l 0.419935, -0.120769l 0.419935, -0.120769l 0.419935, -0.120769l 0.419935, -0.120769l 0.419935, -0.120769l 0.419935, -0.120769l 0.419935, -0.120769l
 0.419935, -0.120769l 0.419935, -0.120769l 0.419935, -0.120769l 0.419935, -0.120769" fill="none" stroke="#33cccc" stroke-width="3"/>
<path d="M375.654,227.579l 0.419935, -0.120769l 0.419935, -0.120769l 0.419935, -0.120769l 0.419935, -0.120769l 0.419935, -0.120769l 0.419935, -0.120769l 0.419935, -0.120769l 0.419935, -0.120769l 0.419935, -0.120769l 0.419935, -0.120769l 0.419935,
 -0.120769l 0.419935, -0.120769l 0.419935, -0.120769l 0.419935, -0.120769l 0.419935, -0.120769l 0.419935, -0.120769l 0.419935, -0.120769l 0.419935, -0.120769l 0.419935, -0.120769l 0.419935, -0.120769l 0.419935, -0.120769l 0.419935, -0.120769l
 0.419935, -0.120769l 0.419935, -0.120769l 0.419935, -0.120769l 0.419935, -0.120769l 0.419935, -0.120769l 0.419935, -0.120769l 0.419935, -0.120769l 0.419935, -0.120769l 0.419935, -0.120769l 0.419935, -0.120769l 0.419935, -0.120769l 0.419935,
 -0.120769l 0.419935, -0.120769l 0.419935, -0.120769l 0.419935, -0.120769l 0.419935, -0.120769l 0.419935, -0.120769l 0.419935, -0.120769l 0.419935, -0.120769l 0.419935, -0.120769l 0.419935, -0.120769l 0.419935, -0.120769l 0.419935, -0.120769l
 0.419935, -0.120769l 0.419935, -0.120769l 0.419935, -0.120769l 0.419935, -0.120769" fill="none" stroke="#33cccc" stroke-width="3"/>
<path d="M396.23,221.662l 0.419935, -0.120769l 0.419935, -0.120769l 0.419935, -0.120769l 0.419935, -0.120769l 0.419935, -0.120769l 0.419935, -0.120769l 0.419935, -0.120769l 0.419935, -0.120769l 0.419935, -0.120769l 0.419935, -0.120769l 0.419935,
 -0.120769l 0.419935, -0.120769l 0.419935, -0.120769l 0.419935, -0.120769l 0.419935, -0.120769l 0.419935, -0.120769l 0.419935, -0.120769l 0.419935, -0.120769l 0.419935, -0.120769l 0.419935, -0.120769l 0.419935, -0.120769l 0.419935, -0.120769l
 0.419935, -0.120769l 0.419935, -0.120769l 0.419935, -0.120769l 0.419935, -0.120769l 0.419935, -0.120769l 0.419935, -0.120769l 0.419935, -0.120769l 0.419935, -0.120769l 0.419935, -0.120769l 0.419935, -0.120769l 0.419935, -0.120769l 0.419935,
 -0.120769l 0.419935, -0.120769l 0.419935, -0.120769l 0.419935, -0.120769l 0.419935, -0.120769l 0.419935, -0.120769l 0.419935, -0.120769l 0.419935, -0.120769l 0.419935, -0.120769l 0.419935, -0.120769l 0.419935, -0.120769l 0.419935, -0.120769l
 0.419935, -0.120769l 0.419935, -0.120769l 0.419935, -0.120769l 0.419935, -0.120769" fill="none" stroke="#33cccc" stroke-width="3"/>
<path d="M416.807,215.744l 0.419935, -0.120769l 0.419935, -0.120769l 0.419935, -0.120769l 0.419935, -0.120769l 0.419935, -0.120769l 0.419935, -0.120769l 0.419935, -0.120769l 0.419935, -0.120769l 0.419935, -0.120769l 0.419935, -0.120769l 0.419935,
 -0.120769l 0.419935, -0.120769l 0.419935, -0.120769l 0.419935, -0.120769l 0.419935, -0.120769l 0.419935, -0.120769l 0.419935, -0.120769l 0.419935, -0.120769l 0.419935, -0.120769l 0.419935, -0.120769l 0.419935, -0.120769l 0.419935, -0.120769l
 0.419935, -0.120769l 0.419935, -0.120769l 0.419935, -0.120769l 0.419935, -0.120769l 0.419935, -0.120769l 0.419935, -0.120769l 0.419935, -0.120769l 0.419935, -0.120769l 0.419935, -0.120769l 0.419935, -0.120769l 0.419935, -0.120769l 0.419935,
 -0.120769l 0.419935, -0.120769l 0.419935, -0.120769l 0.419935, -0.120769l 0.419935, -0.120769l 0.419935, -0.120769l 0.419935, -0.120769l 0.419935, -0.120769l 0.419935, -0.120769l 0.419935, -0.120769l 0.419935, -0.120769l 0.419935, -0.120769l
 0.419935, -0.120769l 0.419935, -0.120769l 0.419935, -0.120769l 0.419935, -0.120769" fill="none" stroke="#33cccc" stroke-width="3"/>
<path d="M437.384,209.826l 0.419935, -0.120769l 0.419935, -0.120769l 0.419935, -0.120769l 0.419935, -0.120769l 0.419935, -0.120769l 0.419935, -0.120769l 0.419935, -0.120769l 0.419935, -0.120769l 0.419935, -0.120769l 0.419935, -0.120769l 0.419935,
 -0.120769l 0.419935, -0.120769l 0.419935, -0.120769l 0.419935, -0.120769l 0.419935, -0.120769l 0.419935, -0.120769l 0.419935, -0.120769l 0.419935, -0.120769l 0.419935, -0.120769l 0.419935, -0.120769l 0.419935, -0.120769l 0.419935, -0.120769l
 0.419935, -0.120769l 0.419935, -0.120769l 0.419935, -0.120769l 0.419935, -0.120769l 0.419935, -0.120769l 0.419935, -0.120769l 0.419935, -0.120769l 0.419935, -0.120769l 0.419935, -0.120769l 0.419935, -0.120769l 0.419935, -0.120769l 0.419935,
 -0.120769l 0.419935, -0.120769l 0.419935, -0.120769l 0.419935, -0.120769l 0.419935, -0.120769l 0.419935, -0.120769l 0.419935, -0.120769l 0.419935, -0.120769l 0.419935, -0.120769l 0.419935, -0.120769l 0.419935, -0.120769l 0.419935, -0.120769l
 0.419935, -0.120769l 0.419935, -0.120769l 0.419935, -0.120769l 0.419935, -0.120769" fill="none" stroke="#33cccc" stroke-width="3"/>
<path d="M457.961,203.909l 0.419935, -0.120769l 0.419935, -0.120769l 0.419935, -0.120769l 0.419935, -0.120769l 0.419935, -0.120769l 0.419935, -0.120769l 0.419935, -0.120769l 0.419935, -0.120769l 0.419935, -0.120769l 0.419935, -0.120769l 0.419935,
 -0.120769l 0.419935, -0.120769l 0.419935, -0.120769l 0.419935, -0.120769l 0.419935, -0.120769l 0.419935, -0.120769l 0.419935, -0.120769l 0.419935, -0.120769l 0.419935, -0.120769l 0.419935, -0.120769l 0.419935, -0.120769l 0.419935, -0.120769l
 0.419935, -0.120769l 0.419935, -0.120769l 0.419935, -0.120769l 0.419935, -0.120769l 0.419935, -0.120769l 0.419935, -0.120769l 0.419935, -0.120769l 0.419935, -0.120769l 0.419935, -0.120769l 0.419935, -0.120769l 0.419935, -0.120769l 0.419935,
 -0.120769l 0.419935, -0.120769l 0.419935, -0.120769l 0.419935, -0.120769l 0.419935, -0.120769l 0.419935, -0.120769l 0.419935, -0.120769l 0.419935, -0.120769l 0.419935, -0.120769l 0.419935, -0.120769l 0.419935, -0.120769l 0.419935, -0.120769l
 0.419935, -0.120769l 0.419935, -0.120769l 0.419935, -0.120769l 0.419935, -0.120769" fill="none" stroke="#33cccc" stroke-width="3"/>
<path d="M478.538,197.991l 0.419935, -0.120769l 0.419935, -0.120769l 0.419935, -0.120769l 0.419935, -0.120769l 0.419935, -0.120769l 0.419935, -0.120769l 0.419935, -0.120769l 0.419935, -0.120769l 0.419935, -0.120769l 0.419935, -0.120769l 0.419935,
 -0.120769l 0.419935, -0.120769l 0.419935, -0.120769l 0.419935, -0.120769l 0.419935, -0.120769l 0.419935, -0.120769l 0.419935, -0.120769l 0.419935, -0.120769l 0.419935, -0.120769l 0.419935, -0.120769l 0.419935, -0.120769l 0.419935, -0.120769l
 0.419935, -0.120769l 0.419935, -0.120769l 0.419935, -0.120769l 0.419935, -0.120769l 0.419935, -0.120769l 0.419935, -0.120769l 0.419935, -0.120769l 0.419935, -0.120769l 0.419935, -0.120769l 0.419935, -0.120769l 0.419935, -0.120769l 0.419935,
 -0.120769l 0.419935, -0.120769l 0.419935, -0.120769l 0.419935, -0.120769l 0.419935, -0.120769l 0.419935, -0.120769l 0.419935, -0.120769l 0.419935, -0.120769l 0.419935, -0.120769l 0.419935, -0.120769l 0.419935, -0.120769l 0.419935, -0.120769l
 0.419935, -0.120769l 0.419935, -0.120769l 0.419935, -0.120769l 0.419935, -0.120769" fill="none" stroke="#33cccc" stroke-width="3"/>
<path d="M499.114,192.073l 0.419935, -0.120769l 0.419935, -0.120769l 0.419935, -0.120769l 0.419935, -0.120769l 0.419935, -0.120769l 0.419935, -0.120769l 0.419935, -0.120769l 0.419935, -0.120769l 0.419935, -0.120769l 0.419935, -0.120769l 0.419935,
 -0.120769l 0.419935, -0.120769l 0.419935, -0.120769l 0.419935, -0.120769l 0.419935, -0.120769l 0.419935, -0.120769l 0.419935, -0.120769l 0.419935, -0.120769l 0.419935, -0.120769l 0.419935, -0.120769l 0.419935, -0.120769l 0.419935, -0.120769l
 0.419935, -0.120769l 0.419935, -0.120769l 0.419935, -0.120769l 0.419935, -0.120769l 0.419935, -0.120769l 0.419935, -0.120769l 0.419935, -0.120769l 0.419935, -0.120769l 0.419935, -0.120769l 0.419935, -0.120769l 0.419935, -0.120769l 0.419935,
 -0.120769l 0.419935, -0.120769l 0.419935, -0.120769l 0.419935, -0.120769l 0.419935, -0.120769l 0.419935, -0.120769l 0.419935, -0.120769l 0.419935, -0.120769l 0.419935, -0.120769l 0.419935, -0.120769l 0.419935, -0.120769l 0.419935, -0.120769l
 0.419935, -0.120769l 0.419935, -0.120769l 0.419935, -0.120769l 0.419935, -0.120769" fill="none" stroke="#33cccc" stroke-width="3"/>
<path d="M519.691,186.155l 0.419935, -0.120769l 0.419935, -0.120769l 0.419935, -0.120769l 0.419935, -0.120769l 0.419935, -0.120769l 0.419935, -0.120769l 0.419935, -0.120769l 0.419935, -0.120769l 0.419935, -0.120769l 0.419935, -0.120769l 0.419935,
 -0.120769l 0.419935, -0.120769l 0.419935, -0.120769l 0.419935, -0.120769l 0.419935, -0.120769l 0.419935, -0.120769l 0.419935, -0.120769l 0.419935, -0.120769l 0.419935, -0.120769l 0.419935, -0.120769l 0.419935, -0.120769l 0.419935, -0.120769l
 0.419935, -0.120769l 0.419935, -0.120769l 0.419935, -0.120769l 0.419935, -0.120769l 0.419935, -0.120769l 0.419935, -0.120769l 0.419935, -0.120769l 0.419935, -0.120769l 0.419935, -0.120769l 0.419935, -0.120769l 0.419935, -0.120769l 0.419935,
 -0.120769l 0.419935, -0.120769l 0.419935, -0.120769l 0.419935, -0.120769l 0.419935, -0.120769l 0.419935, -0.120769l 0.419935, -0.120769l 0.419935, -0.120769l 0.419935, -0.120769l 0.419935, -0.120769l 0.419935, -0.120769l 0.419935, -0.120769l
 0.419935, -0.120769l 0.419935, -0.120769l 0.419935, -0.120769l 0.419935, -0.120769" fill="none" stroke="#33cccc" stroke-width="3"/>
<path d="M540.268,180.238l 0.419935, -0.120769l 0.419935, -0.120769l 0.419935, -0.120769l 0.419935, -0.120769l 0.419935, -0.120769l 0.419935, -0.120769l 0.419935, -0.120769l 0.419935, -0.120769l 0.419935, -0.120769l 0.419935, -0.120769l 0.419935,
 -0.120769l 0.419935, -0.120769l 0.419935, -0.120769l 0.419935, -0.120769l 0.419935, -0.120769l 0.419935, -0.120769l 0.419935, -0.120769l 0.419935, -0.120769l 0.419935, -0.120769" fill="none" stroke="#33cccc" stroke-width="3"/>
<path d="M128.732,327.705l 0.419935, -0.255706l 0.419935, -0.255422l 0.419935, -0.255138l 0.419935, -0.254854l 0.419935, -0.25457l 0.419935, -0.254286l 0.419935, -0.254002l 0.419935, -0.253718l 0.419935, -0.253434l 0.419935, -0.25315l 0.419935,
 -0.252866l 0.419935, -0.252582l 0.419935, -0.252297l 0.419935, -0.252013l 0.419935, -0.251729l 0.419935, -0.251445l 0.419935, -0.251161l 0.419935, -0.250877l 0.419935, -0.250593l 0.419935, -0.250309l 0.419935, -0.250025l 0.419935, -0.249741l
 0.419935, -0.249457l 0.419935, -0.249173l 0.419935, -0.248888l 0.419935, -0.248604l 0.419935, -0.24832l 0.419935, -0.248036l 0.419935, -0.247752l 0.419935, -0.247468l 0.419935, -0.247184l 0.419935, -0.2469l 0.419935, -0.246616l 0.419935, -0.246332l
 0.419935, -0.246048l 0.419935, -0.245764l 0.419935, -0.24548l 0.419935, -0.245195l 0.419935, -0.244911l 0.419935, -0.244627l 0.419935, -0.244343l 0.419935, -0.244059l 0.419935, -0.243775l 0.419935, -0.243491l 0.419935, -0.243207l 0.419935,
 -0.242923l 0.419935, -0.242639l 0.419935, -0.242355l 0.419935, -0.242071" fill="none" stroke="#ff0066" stroke-width="3"/>
<path d="M149.309,315.509l 0.419935, -0.241786l 0.419935, -0.241502l 0.419935, -0.241218l 0.419935, -0.240934l 0.419935, -0.24065l 0.419935, -0.240366l 0.419935, -0.240082l 0.419935, -0.239798l 0.419935, -0.239514l 0.419935, -0.23923l 0.419935,
 -0.238946l 0.419935, -0.238662l 0.419935, -0.238377l 0.419935, -0.238093l 0.419935, -0.237809l 0.419935, -0.237525l 0.419935, -0.237241l 0.419935, -0.236957l 0.419935, -0.236673l 0.419935, -0.236389l 0.419935, -0.236105l 0.419935, -0.235821l
 0.419935, -0.235537l 0.419935, -0.235253l 0.419935, -0.234969l 0.419935, -0.234684l 0.419935, -0.2344l 0.419935, -0.234116l 0.419935, -0.233832l 0.419935, -0.233548l 0.419935, -0.233264l 0.419935, -0.23298l 0.419935, -0.232696l 0.419935, -0.232412l
 0.419935, -0.232128l 0.419935, -0.231844l 0.419935, -0.23156l 0.419935, -0.231275l 0.419935, -0.230991l 0.419935, -0.230707l 0.419935, -0.230423l 0.419935, -0.230139l 0.419935, -0.229855l 0.419935, -0.229571l 0.419935, -0.229287l 0.419935,
 -0.229003l 0.419935, -0.228719l 0.419935, -0.228435l 0.419935, -0.228151" fill="none" stroke="#ff0066" stroke-width="3"/>
<path d="M169.886,303.996l 0.419935, -0.227867l 0.419935, -0.227582l 0.419935, -0.227298l 0.419935, -0.227014l 0.419935, -0.22673l 0.419935, -0.226446l 0.419935, -0.226162l 0.419935, -0.225878l 0.419935, -0.225594l 0.419935, -0.22531l 0.419935,
 -0.225026l 0.419935, -0.224742l 0.419935, -0.224458l 0.419935, -0.224173l 0.419935, -0.223889l 0.419935, -0.223605l 0.419935, -0.223321l 0.419935, -0.223037l 0.419935, -0.222753l 0.419935, -0.222469l 0.419935, -0.222185l 0.419935, -0.221901l
 0.419935, -0.221617l 0.419935, -0.221333l 0.419935, -0.221049l 0.419935, -0.220765l 0.419935, -0.22048l 0.419935, -0.220196l 0.419935, -0.219912l 0.419935, -0.219628l 0.419935, -0.219344l 0.419935, -0.21906l 0.419935, -0.218776l 0.419935, -0.218492l
 0.419935, -0.218208l 0.419935, -0.217924l 0.419935, -0.21764l 0.419935, -0.217356l 0.419935, -0.217071l 0.419935, -0.216787l 0.419935, -0.216503l 0.419935, -0.216219l 0.419935, -0.215935l 0.419935, -0.215651l 0.419935, -0.215367l 0.419935,
 -0.215083l 0.419935, -0.214799l 0.419935, -0.214515l 0.419935, -0.214231" fill="none" stroke="#ff0066" stroke-width="3"/>
<path d="M190.462,293.165l 0.419935, -0.213947l 0.419935, -0.213663l 0.419935, -0.213378l 0.419935, -0.213094l 0.419935, -0.21281l 0.419935, -0.212526l 0.419935, -0.212242l 0.419935, -0.211958l 0.419935, -0.211674l 0.419935, -0.21139l 0.419935,
 -0.211106l 0.419935, -0.210822l 0.419935, -0.210538l 0.419935, -0.210254l 0.419935, -0.209969l 0.419935, -0.209685l 0.419935, -0.209401l 0.419935, -0.209117l 0.419935, -0.208833l 0.419935, -0.208549l 0.419935, -0.208265l 0.419935, -0.207981l
 0.419935, -0.207697l 0.419935, -0.207413l 0.419935, -0.207129l 0.419935, -0.206845l 0.419935, -0.20656l 0.419935, -0.206276l 0.419935, -0.205992l 0.419935, -0.205708l 0.419935, -0.205424l 0.419935, -0.20514l 0.419935, -0.204856l 0.419935, -0.204572l
 0.419935, -0.204288l 0.419935, -0.204004l 0.419935, -0.20372l 0.419935, -0.203436l 0.419935, -0.203152l 0.419935, -0.202867l 0.419935, -0.202583l 0.419935, -0.202299l 0.419935, -0.202015l 0.419935, -0.201731l 0.419935, -0.201447l 0.419935,
 -0.201163l 0.419935, -0.200879l 0.419935, -0.200595l 0.419935, -0.200311" fill="none" stroke="#ff0066" stroke-width="3"/>
<path d="M211.039,283.015l 0.419935, -0.200027l 0.419935, -0.199743l 0.419935, -0.199458l 0.419935, -0.199174l 0.419935, -0.19889l 0.419935, -0.198606l 0.419935, -0.198322l 0.419935, -0.198038l 0.419935, -0.197754l 0.419935, -0.19747l 0.419935,
 -0.197186l 0.419935, -0.196902l 0.419935, -0.196618l 0.419935, -0.196334l 0.419935, -0.19605l 0.419935, -0.195765l 0.419935, -0.195481l 0.419935, -0.195197l 0.419935, -0.194913l 0.419935, -0.194629l 0.419935, -0.194345l 0.419935, -0.194061l
 0.419935, -0.193777l 0.419935, -0.193493l 0.419935, -0.193209l 0.419935, -0.192925l 0.419935, -0.192641l 0.419935, -0.192356l 0.419935, -0.192072l 0.419935, -0.191788l 0.419935, -0.191504l 0.419935, -0.19122l 0.419935, -0.190936l 0.419935,
 -0.190652l 0.419935, -0.190368l 0.419935, -0.190084l 0.419935, -0.1898l 0.419935, -0.189516l 0.419935, -0.189232l 0.419935, -0.188948l 0.419935, -0.188663l 0.419935, -0.188379l 0.419935, -0.188095l 0.419935, -0.187811l 0.419935, -0.187527l 0.419935,
 -0.187243l 0.419935, -0.186959l 0.419935, -0.186675l 0.419935, -0.186391" fill="none" stroke="#ff0066" stroke-width="3"/>
<path d="M231.616,273.548l 0.419935, -0.186107l 0.419935, -0.185823l 0.419935, -0.185539l 0.419935, -0.185254l 0.419935, -0.18497l 0.419935, -0.184686l 0.419935, -0.184402l 0.419935, -0.184118l 0.419935, -0.183834l 0.419935, -0.18355l 0.419935,
 -0.183266l 0.419935, -0.182982l 0.419935, -0.182698l 0.419935, -0.182414l 0.419935, -0.18213l 0.419935, -0.181846l 0.419935, -0.181561l 0.419935, -0.181277l 0.419935, -0.180993l 0.419935, -0.180709l 0.419935, -0.180425l 0.419935, -0.180141l
 0.419935, -0.179857l 0.419935, -0.179573l 0.419935, -0.179289l 0.419935, -0.179005l 0.419935, -0.178721l 0.419935, -0.178437l 0.419935, -0.178152l 0.419935, -0.177868l 0.419935, -0.177584l 0.419935, -0.1773l 0.419935, -0.177016l 0.419935, -0.176732l
 0.419935, -0.176448l 0.419935, -0.176164l 0.419935, -0.17588l 0.419935, -0.175596l 0.419935, -0.175312l 0.419935, -0.175028l 0.419935, -0.174743l 0.419935, -0.174459l 0.419935, -0.174175l 0.419935, -0.173891l 0.419935, -0.173607l 0.419935,
 -0.173323l 0.419935, -0.173039l 0.419935, -0.172755l 0.419935, -0.172471" fill="none" stroke="#ff0066" stroke-width="3"/>
<path d="M252.193,264.763l 0.419935, -0.172187l 0.419935, -0.171903l 0.419935, -0.171619l 0.419935, -0.171335l 0.419935, -0.17105l 0.419935, -0.170766l 0.419935, -0.170482l 0.419935, -0.170198l 0.419935, -0.169914l 0.419935, -0.16963l 0.419935,
 -0.169346l 0.419935, -0.169062l 0.419935, -0.168778l 0.419935, -0.168494l 0.419935, -0.16821l 0.419935, -0.167926l 0.419935, -0.167641l 0.419935, -0.167357l 0.419935, -0.167073l 0.419935, -0.166789l 0.419935, -0.166505l 0.419935, -0.166221l
 0.419935, -0.165937l 0.419935, -0.165653l 0.419935, -0.165369l 0.419935, -0.165085l 0.419935, -0.164801l 0.419935, -0.164517l 0.419935, -0.164233l 0.419935, -0.163948l 0.419935, -0.163664l 0.419935, -0.16338l 0.419935, -0.163096l 0.419935,
 -0.162812l 0.419935, -0.162528l 0.419935, -0.162244l 0.419935, -0.16196l 0.419935, -0.161676l 0.419935, -0.161392l 0.419935, -0.161108l 0.419935, -0.160824l 0.419935, -0.160539l 0.419935, -0.160255l 0.419935, -0.159971l 0.419935, -0.159687l
 0.419935, -0.159403l 0.419935, -0.159119l 0.419935, -0.158835l 0.419935, -0.158551" fill="none" stroke="#ff0066" stroke-width="3"/>
<path d="M272.77,256.66l 0.419935, -0.158267l 0.419935, -0.157983l 0.419935, -0.157699l 0.419935, -0.157415l 0.419935, -0.157131l 0.419935, -0.156846l 0.419935, -0.156562l 0.419935, -0.156278l 0.419935, -0.155994l 0.419935, -0.15571l 0.419935,
 -0.155426l 0.419935, -0.155142l 0.419935, -0.154858l 0.419935, -0.154574l 0.419935, -0.15429l 0.419935, -0.154006l 0.419935, -0.153722l 0.419935, -0.153437l 0.419935, -0.153153l 0.419935, -0.152869l 0.419935, -0.152585l 0.419935, -0.152301l
 0.419935, -0.152017l 0.419935, -0.151733l 0.419935, -0.151449l 0.419935, -0.151165l 0.419935, -0.150881l 0.419935, -0.150597l 0.419935, -0.150313l 0.419935, -0.150028l 0.419935, -0.149744l 0.419935, -0.14946l 0.419935, -0.149176l 0.419935,
 -0.148892l 0.419935, -0.148608l 0.419935, -0.148324l 0.419935, -0.14804l 0.419935, -0.147756l 0.419935, -0.147472l 0.419935, -0.147188l 0.419935, -0.146904l 0.419935, -0.14662l 0.419935, -0.146335l 0.419935, -0.146051l 0.419935, -0.145767l 0.419935,
 -0.145483l 0.419935, -0.145199l 0.419935, -0.144915l 0.419935, -0.144631" fill="none" stroke="#ff0066" stroke-width="3"/>
<path d="M293.346,249.239l 0.419935, -0.144347l 0.419935, -0.144063l 0.419935, -0.143779l 0.419935, -0.143495l 0.419935, -0.143211l 0.419935, -0.142926l 0.419935, -0.142642l 0.419935, -0.142358l 0.419935, -0.142074l 0.419935, -0.14179l 0.419935,
 -0.141506l 0.419935, -0.141222l 0.419935, -0.140938l 0.419935, -0.140654l 0.419935, -0.14037l 0.419935, -0.140086l 0.419935, -0.139802l 0.419935, -0.139518l 0.419935, -0.139233l 0.419935, -0.138949l 0.419935, -0.138665l 0.419935, -0.138381l
 0.419935, -0.138097l 0.419935, -0.137813l 0.419935, -0.137529l 0.419935, -0.137245l 0.419935, -0.136961l 0.419935, -0.136677l 0.419935, -0.136393l 0.419935, -0.136109l 0.419935, -0.135824l 0.419935, -0.13554l 0.419935, -0.135256l 0.419935,
 -0.134972l 0.419935, -0.134688l 0.419935, -0.134404l 0.419935, -0.13412l 0.419935, -0.133836l 0.419935, -0.133552l 0.419935, -0.133268l 0.419935, -0.132984l 0.419935, -0.1327l 0.419935, -0.132416l 0.419935, -0.132131l 0.419935, -0.131847l 0.419935,
 -0.131563l 0.419935, -0.131279l 0.419935, -0.130995l 0.419935, -0.130711" fill="none" stroke="#ff0066" stroke-width="3"/>
<path d="M313.923,242.5l 0.419935, -0.130427l 0.419935, -0.130143l 0.419935, -0.129859l 0.419935, -0.129575l 0.419935, -0.129291l 0.419935, -0.129007l 0.419935, -0.128722l 0.419935, -0.128438l 0.419935, -0.128154l 0.419935, -0.12787l 0.419935,
 -0.127586l 0.419935, -0.127302l 0.419935, -0.127018l 0.419935, -0.126734l 0.419935, -0.12645l 0.419935, -0.126166l 0.419935, -0.125882l 0.419935, -0.125598l 0.419935, -0.125314l 0.419935, -0.125029l 0.419935, -0.124745l 0.419935, -0.124461l
 0.419935, -0.124177l 0.419935, -0.123893l 0.419935, -0.123609l 0.419935, -0.123325l 0.419935, -0.123041l 0.419935, -0.122757l 0.419935, -0.122473l 0.419935, -0.122189l 0.419935, -0.121905l 0.419935, -0.12162l 0.419935, -0.121336l 0.419935,
 -0.121052l 0.419935, -0.120768l 0.419935, -0.120484l 0.419935, -0.1202l 0.419935, -0.119916l 0.419935, -0.119632l 0.419935, -0.119348l 0.419935, -0.119064l 0.419935, -0.11878l 0.419935, -0.118496l 0.419935, -0.118211l 0.419935, -0.117927l 0.419935,
 -0.117643l 0.419935, -0.117359l 0.419935, -0.117075l 0.419935, -0.116791" fill="none" stroke="#ff0066" stroke-width="3"/>
<path d="M334.5,236.443l 0.419935, -0.116507l 0.419935, -0.116223l 0.419935, -0.115939l 0.419935, -0.115655l 0.419935, -0.115371l 0.419935, -0.115087l 0.419935, -0.114803l 0.419935, -0.114518l 0.419935, -0.114234l 0.419935, -0.11395l 0.419935,
 -0.113666l 0.419935, -0.113382l 0.419935, -0.113098l 0.419935, -0.112814l 0.419935, -0.11253l 0.419935, -0.112246l 0.419935, -0.111962l 0.419935, -0.111678l 0.419935, -0.111394l 0.419935, -0.111109l 0.419935, -0.110825l 0.419935, -0.110541l
 0.419935, -0.110257l 0.419935, -0.109973l 0.419935, -0.109689l 0.419935, -0.109405l 0.419935, -0.109121l 0.419935, -0.108837l 0.419935, -0.108553l 0.419935, -0.108269l 0.419935, -0.107985l 0.419935, -0.107701l 0.419935, -0.107416l 0.419935,
 -0.107132l 0.419935, -0.106848l 0.419935, -0.106564l 0.419935, -0.10628l 0.419935, -0.105996l 0.419935, -0.105712l 0.419935, -0.105428l 0.419935, -0.105144l 0.419935, -0.10486l 0.419935, -0.104576l 0.419935, -0.104292l 0.419935, -0.104007l 0.419935,
 -0.103723l 0.419935, -0.103439l 0.419935, -0.103155l 0.419935, -0.102871" fill="none" stroke="#ff0066" stroke-width="3"/>
<path d="M355.077,231.068l 0.419935, -0.102587l 0.419935, -0.102303l 0.419935, -0.102019l 0.419935, -0.101735l 0.419935, -0.101451l 0.419935, -0.101167l 0.419935, -0.100883l 0.419935, -0.100599l 0.419935, -0.100314l 0.419935, -0.10003l 0.419935,
 -0.0997463l 0.419935, -0.0994622l 0.419935, -0.0991781l 0.419935, -0.098894l 0.419935, -0.0986099l 0.419935, -0.0983259l 0.419935, -0.0980418l 0.419935, -0.0977577l 0.419935, -0.0974736l 0.419935, -0.0971895l 0.419935, -0.0969055l 0.419935,
 -0.0966214l 0.419935, -0.0963373l 0.419935, -0.0960532l 0.419935, -0.0957691l 0.419935, -0.0954851l 0.419935, -0.095201l 0.419935, -0.0949169l 0.419935, -0.0946328l 0.419935, -0.0943487l 0.419935, -0.0940647l 0.419935, -0.0937806l 0.419935,
 -0.0934965l 0.419935, -0.0932124l 0.419935, -0.0929283l 0.419935, -0.0926443l 0.419935, -0.0923602l 0.419935, -0.0920761l 0.419935, -0.091792l 0.419935, -0.0915079l 0.419935, -0.0912239l 0.419935, -0.0909398l 0.419935, -0.0906557l 0.419935,
 -0.0903716l 0.419935, -0.0900875l 0.419935, -0.0898034l 0.419935, -0.0895194l 0.419935, -0.0892353l 0.419935, -0.0889512" fill="none" stroke="#ff0066" stroke-width="3"/>
<path d="M375.654,226.376l 0.419935, -0.0886671l 0.419935, -0.088383l 0.419935, -0.088099l 0.419935, -0.0878149l 0.419935, -0.0875308l 0.419935, -0.0872467l 0.419935, -0.0869626l 0.419935, -0.0866786l 0.419935, -0.0863945l 0.419935, -0.0861104l
 0.419935, -0.0858263l 0.419935, -0.0855422l 0.419935, -0.0852582l 0.419935, -0.0849741l 0.419935, -0.08469l 0.419935, -0.0844059l 0.419935, -0.0841218l 0.419935, -0.0838378l 0.419935, -0.0835537l 0.419935, -0.0832696l 0.419935, -0.0829855l 0.419935,
 -0.0827014l 0.419935, -0.0824174l 0.419935, -0.0821333l 0.419935, -0.0818492l 0.419935, -0.0815651l 0.419935, -0.081281l 0.419935, -0.080997l 0.419935, -0.0807129l 0.419935, -0.0804288l 0.419935, -0.0801447l 0.419935, -0.0798606l 0.419935,
 -0.0795766l 0.419935, -0.0792925l 0.419935, -0.0790084l 0.419935, -0.0787243l 0.419935, -0.0784402l 0.419935, -0.0781562l 0.419935, -0.0778721l 0.419935, -0.077588l 0.419935, -0.0773039l 0.419935, -0.0770198l 0.419935, -0.0767358l 0.419935,
 -0.0764517l 0.419935, -0.0761676l 0.419935, -0.0758835l 0.419935, -0.0755994l 0.419935, -0.0753153l 0.419935, -0.0750313" fill="none" stroke="#ff0066" stroke-width="3"/>
<path d="M396.23,222.365l 0.419935, -0.0747472l 0.419935, -0.0744631l 0.419935, -0.074179l 0.419935, -0.0738949l 0.419935, -0.0736109l 0.419935, -0.0733268l 0.419935, -0.0730427l 0.419935, -0.0727586l 0.419935, -0.0724745l 0.419935, -0.0721905l
 0.419935, -0.0719064l 0.419935, -0.0716223l 0.419935, -0.0713382l 0.419935, -0.0710541l 0.419935, -0.0707701l 0.419935, -0.070486l 0.419935, -0.0702019l 0.419935, -0.0699178l 0.419935, -0.0696337l 0.419935, -0.0693497l 0.419935, -0.0690656l
 0.419935, -0.0687815l 0.419935, -0.0684974l 0.419935, -0.0682133l 0.419935, -0.0679293l 0.419935, -0.0676452l 0.419935, -0.0673611l 0.419935, -0.067077l 0.419935, -0.0667929l 0.419935, -0.0665089l 0.419935, -0.0662248l 0.419935, -0.0659407l
 0.419935, -0.0656566l 0.419935, -0.0653725l 0.419935, -0.0650885l 0.419935, -0.0648044l 0.419935, -0.0645203l 0.419935, -0.0642362l 0.419935, -0.0639521l 0.419935, -0.0636681l 0.419935, -0.063384l 0.419935, -0.0630999l 0.419935, -0.0628158l
 0.419935, -0.0625317l 0.419935, -0.0622477l 0.419935, -0.0619636l 0.419935, -0.0616795l 0.419935, -0.0613954l 0.419935, -0.0611113" fill="none" stroke="#ff0066" stroke-width="3"/>
<path d="M416.807,219.037l 0.419935, -0.0608273l 0.419935, -0.0605432l 0.419935, -0.0602591l 0.419935, -0.059975l 0.419935, -0.0596909l 0.419935, -0.0594069l 0.419935, -0.0591228l 0.419935, -0.0588387l 0.419935, -0.0585546l 0.419935, -0.0582705l
 0.419935, -0.0579864l 0.419935, -0.0577024l 0.419935, -0.0574183l 0.419935, -0.0571342l 0.419935, -0.0568501l 0.419935, -0.056566l 0.419935, -0.056282l 0.419935, -0.0559979l 0.419935, -0.0557138l 0.419935, -0.0554297l 0.419935, -0.0551456l 0.419935,
 -0.0548616l 0.419935, -0.0545775l 0.419935, -0.0542934l 0.419935, -0.0540093l 0.419935, -0.0537252l 0.419935, -0.0534412l 0.419935, -0.0531571l 0.419935, -0.052873l 0.419935, -0.0525889l 0.419935, -0.0523048l 0.419935, -0.0520208l 0.419935,
 -0.0517367l 0.419935, -0.0514526l 0.419935, -0.0511685l 0.419935, -0.0508844l 0.419935, -0.0506004l 0.419935, -0.0503163l 0.419935, -0.0500322l 0.419935, -0.0497481l 0.419935, -0.049464l 0.419935, -0.04918l 0.419935, -0.0488959l 0.419935,
 -0.0486118l 0.419935, -0.0483277l 0.419935, -0.0480436l 0.419935, -0.0477596l 0.419935, -0.0474755l 0.419935, -0.0471914" fill="none" stroke="#ff0066" stroke-width="3"/>
<path d="M437.384,216.39l 0.419935, -0.0469073l 0.419935, -0.0466232l 0.419935, -0.0463392l 0.419935, -0.0460551l 0.419935, -0.045771l 0.419935, -0.0454869l 0.419935, -0.0452028l 0.419935, -0.0449187l 0.419935, -0.0446347l 0.419935, -0.0443506l
 0.419935, -0.0440665l 0.419935, -0.0437824l 0.419935, -0.0434983l 0.419935, -0.0432143l 0.419935, -0.0429302l 0.419935, -0.0426461l 0.419935, -0.042362l 0.419935, -0.0420779l 0.419935, -0.0417939l 0.419935, -0.0415098l 0.419935, -0.0412257l
 0.419935, -0.0409416l 0.419935, -0.0406575l 0.419935, -0.0403735l 0.419935, -0.0400894l 0.419935, -0.0398053l 0.419935, -0.0395212l 0.419935, -0.0392371l 0.419935, -0.0389531l 0.419935, -0.038669l 0.419935, -0.0383849l 0.419935, -0.0381008l
 0.419935, -0.0378167l 0.419935, -0.0375327l 0.419935, -0.0372486l 0.419935, -0.0369645l 0.419935, -0.0366804l 0.419935, -0.0363963l 0.419935, -0.0361123l 0.419935, -0.0358282l 0.419935, -0.0355441l 0.419935, -0.03526l 0.419935, -0.0349759l 0.419935,
 -0.0346919l 0.419935, -0.0344078l 0.419935, -0.0341237l 0.419935, -0.0338396l 0.419935, -0.0335555l 0.419935, -0.0332715" fill="none" stroke="#ff0066" stroke-width="3"/>
<path d="M457.961,214.426l 0.419935, -0.0329874l 0.419935, -0.0327033l 0.419935, -0.0324192l 0.419935, -0.0321351l 0.419935, -0.0318511l 0.419935, -0.031567l 0.419935, -0.0312829l 0.419935, -0.0309988l 0.419935, -0.0307147l 0.419935, -0.0304307l
 0.419935, -0.0301466l 0.419935, -0.0298625l 0.419935, -0.0295784l 0.419935, -0.0292943l 0.419935, -0.0290102l 0.419935, -0.0287262l 0.419935, -0.0284421l 0.419935, -0.028158l 0.419935, -0.0278739l 0.419935, -0.0275898l 0.419935, -0.0273058l
 0.419935, -0.0270217l 0.419935, -0.0267376l 0.419935, -0.0264535l 0.419935, -0.0261694l 0.419935, -0.0258854l 0.419935, -0.0256013l 0.419935, -0.0253172l 0.419935, -0.0250331l 0.419935, -0.024749l 0.419935, -0.024465l 0.419935, -0.0241809l 0.419935,
 -0.0238968l 0.419935, -0.0236127l 0.419935, -0.0233286l 0.419935, -0.0230446l 0.419935, -0.0227605l 0.419935, -0.0224764l 0.419935, -0.0221923l 0.419935, -0.0219082l 0.419935, -0.0216242l 0.419935, -0.0213401l 0.419935, -0.021056l 0.419935,
 -0.0207719l 0.419935, -0.0204878l 0.419935, -0.0202038l 0.419935, -0.0199197l 0.419935, -0.0196356l 0.419935, -0.0193515" fill="none" stroke="#ff0066" stroke-width="3"/>
<path d="M478.538,213.143l 0.419935, -0.0190674l 0.419935, -0.0187834l 0.419935, -0.0184993l 0.419935, -0.0182152l 0.419935, -0.0179311l 0.419935, -0.017647l 0.419935, -0.017363l 0.419935, -0.0170789l 0.419935, -0.0167948l 0.419935, -0.0165107l
 0.419935, -0.0162266l 0.419935, -0.0159426l 0.419935, -0.0156585l 0.419935, -0.0153744l 0.419935, -0.0150903l 0.419935, -0.0148062l 0.419935, -0.0145222l 0.419935, -0.0142381l 0.419935, -0.013954l 0.419935, -0.0136699l 0.419935, -0.0133858l
 0.419935, -0.0131017l 0.419935, -0.0128177l 0.419935, -0.0125336l 0.419935, -0.0122495l 0.419935, -0.0119654l 0.419935, -0.0116813l 0.419935, -0.0113973l 0.419935, -0.0111132l 0.419935, -0.0108291l 0.419935, -0.010545l 0.419935, -0.0102609l
 0.419935, -0.00997686l 0.419935, -0.00969278l 0.419935, -0.0094087l 0.419935, -0.00912462l 0.419935, -0.00884054l 0.419935, -0.00855646l 0.419935, -0.00827238l 0.419935, -0.0079883l 0.419935, -0.00770422l 0.419935, -0.00742014l 0.419935,
 -0.00713606l 0.419935, -0.00685198l 0.419935, -0.0065679l 0.419935, -0.00628382l 0.419935, -0.00599974l 0.419935, -0.00571566l 0.419935, -0.00543158" fill="none" stroke="#ff0066" stroke-width="3"/>
<path d="M499.114,212.543l 0.419935, -0.0051475l 0.419935, -0.00486342l 0.419935, -0.00457934l 0.419935, -0.00429526l 0.419935, -0.00401118l 0.419935, -0.00372709l 0.419935, -0.00344301l 0.419935, -0.00315893l 0.419935, -0.00287485l 0.419935,
 -0.00259077l 0.419935, -0.00230669l 0.419935, -0.00202261l 0.419935, -0.00173853l 0.419935, -0.00145445l 0.419935, -0.00117037l 0.419935, -0.000886291l 0.419935, -0.000602211l 0.419935, -0.00031813l 0.419935, -3.40501e-05l 0.419935, 0.00025003l
 0.419935, 0.000534111l 0.419935, 0.000818191l 0.419935, 0.00110227l 0.419935, 0.00138635l 0.419935, 0.00167043l 0.419935, 0.00195451l 0.419935, 0.00223859l 0.419935, 0.00252267l 0.419935, 0.00280675l 0.419935, 0.00309083l 0.419935, 0.00337491l
 0.419935, 0.003659l 0.419935, 0.00394308l 0.419935, 0.00422716l 0.419935, 0.00451124l 0.419935, 0.00479532l 0.419935, 0.0050794l 0.419935, 0.00536348l 0.419935, 0.00564756l 0.419935, 0.00593164l 0.419935, 0.00621572l 0.419935, 0.0064998l 0.419935,
 0.00678388l 0.419935, 0.00706796l 0.419935, 0.00735204l 0.419935, 0.00763612l 0.419935, 0.0079202l 0.419935, 0.00820428l 0.419935, 0.00848836" fill="none" stroke="#ff0066" stroke-width="3"/>
<path d="M519.691,212.625l 0.419935, 0.00877244l 0.419935, 0.00905652l 0.419935, 0.0093406l 0.419935, 0.00962468l 0.419935, 0.00990876l 0.419935, 0.0101928l 0.419935, 0.0104769l 0.419935, 0.010761l 0.419935, 0.0110451l 0.419935, 0.0113292l 0.419935,
 0.0116132l 0.419935, 0.0118973l 0.419935, 0.0121814l 0.419935, 0.0124655l 0.419935, 0.0127496l 0.419935, 0.0130336l 0.419935, 0.0133177l 0.419935, 0.0136018l 0.419935, 0.0138859l 0.419935, 0.01417l 0.419935, 0.014454l 0.419935, 0.0147381l 0.419935,
 0.0150222l 0.419935, 0.0153063l 0.419935, 0.0155904l 0.419935, 0.0158745l 0.419935, 0.0161585l 0.419935, 0.0164426l 0.419935, 0.0167267l 0.419935, 0.0170108l 0.419935, 0.0172949l 0.419935, 0.0175789l 0.419935, 0.017863l 0.419935, 0.0181471l
 0.419935, 0.0184312l 0.419935, 0.0187153l 0.419935, 0.0189993l 0.419935, 0.0192834l 0.419935, 0.0195675l 0.419935, 0.0198516l 0.419935, 0.0201357l 0.419935, 0.0204197l 0.419935, 0.0207038l 0.419935, 0.0209879l 0.419935, 0.021272l 0.419935,
 0.0215561l 0.419935, 0.0218401l 0.419935, 0.0221242l 0.419935, 0.0224083" fill="none" stroke="#ff0066" stroke-width="3"/>
<path d="M540.268,213.389l 0.419935, 0.0226924l 0.419935, 0.0229765l 0.419935, 0.0232605l 0.419935, 0.0235446l 0.419935, 0.0238287l 0.419935, 0.0241128l 0.419935, 0.0243969l 0.419935, 0.0246809l 0.419935, 0.024965l 0.419935, 0.0252491l 0.419935,
 0.0255332l 0.419935, 0.0258173l 0.419935, 0.0261013l 0.419935, 0.0263854l 0.419935, 0.0266695l 0.419935, 0.0269536l 0.419935, 0.0272377l 0.419935, 0.0275217l 0.419935, 0.0278058" fill="none" stroke="#ff0066" stroke-width="3"/>
<path d="M248.503,21.4167h 179.972" fill="none" stroke="#999999" stroke-width="7"/>
<text xml:space="preserve" x="360.607" y="50.7193" fill="black" font-size="16.0105" font-family="Helvetica"> with EMC</text>
<text xml:space="preserve" x="352.717" y="50.7193" fill="black" font-size="16.0105" font-family="Times">&#0947;</text>
<text xml:space="preserve" x="344.828" y="50.7193" fill="black" font-size="16.0105" font-family="Times">&#0947;</text>
<text xml:space="preserve" x="336.938" y="50.7193" fill="black" font-size="16.0105" font-family="Times">&#0947;</text>
<text xml:space="preserve" x="331.866" y="50.7193" fill="black" font-size="16.0105" font-family="Helvetica"> </text>
<text xml:space="preserve" x="316.65" y="50.7193" fill="black" font-size="16.0105" font-family="Times">&#8594;</text>
<text xml:space="preserve" x="311.578" y="50.7193" fill="black" font-size="16.0105" font-family="Helvetica"> </text>
<text xml:space="preserve" x="303.689" y="50.7193" fill="black" font-size="16.0105" font-family="Times">&#0947;</text>
<text xml:space="preserve" x="298.053" y="45.0838" fill="black" font-size="10.8403" font-family="Helvetica">0</text>
<text xml:space="preserve" x="289.6" y="50.7193" fill="black" font-size="16.0105" font-family="Times">&#0960;</text>
<text xml:space="preserve" x="284.528" y="50.7193" fill="black" font-size="16.0105" font-family="Helvetica"> </text>
<text xml:space="preserve" x="269.312" y="50.7193" fill="black" font-size="16.0105" font-family="Times">&#8594;</text>
<text xml:space="preserve" x="264.24" y="50.7193" fill="black" font-size="16.0105" font-family="Helvetica"> </text>
<text xml:space="preserve" x="252.969" y="50.7193" fill="black" font-size="16.0105" font-family="Times">&#0969;</text>
<text xml:space="preserve" x="128.989" y="50.7193" fill="black" font-size="16.0105" font-family="Helvetica"> = 13 TeV (EG1), </text>
<text xml:space="preserve" x="120.536" y="50.7193" fill="black" font-size="16.0105" font-family="Helvetica" font-style="oblique">s</text>
<path d="M114.9,41.7025l 1.69064, 9.58031" fill="none" stroke="black" stroke-width="2"/>
<path d="M116.591,51.2829l 2.25419, -14.0887" fill="none" stroke="black"/>
<path d="M118.845,37.1942h 10.1439" fill="none" stroke="black"/>
<text xml:space="preserve" x="89.5406" y="50.7193" fill="black" font-size="16.0105" font-family="Helvetica">pp </text>
<text xml:space="preserve" x="89.5406" y="85.6593" fill="black" font-size="16.0105" font-family="Helvetica">ALICE work in progress</text>
<text xml:space="preserve" x="214.085" y="120.599" fill="black" font-size="16.0105" font-family="Helvetica">) &lt; 28.0</text>
<text xml:space="preserve" x="205.068" y="120.599" fill="black" font-size="16.0105" font-family="Helvetica" font-style="oblique">c</text>
<text xml:space="preserve" x="154.912" y="120.599" fill="black" font-size="16.0105" font-family="Helvetica"> /(GeV/</text>
<text xml:space="preserve" x="148.15" y="128.489" fill="black" font-size="10.8403" font-family="Helvetica">T</text>
<text xml:space="preserve" x="138.569" y="120.599" fill="black" font-size="16.0105" font-family="Helvetica" font-style="oblique">p</text>
<text xml:space="preserve" x="133.497" y="120.599" fill="black" font-size="16.0105" font-family="Helvetica"> </text>
<text xml:space="preserve" x="125.044" y="120.599" fill="black" font-size="16.0105" font-family="Times">&#8804;</text>
<text xml:space="preserve" x="89.5406" y="120.599" fill="black" font-size="16.0105" font-family="Helvetica">24.0 </text>
<rect x="312.311" y="69.1755" width="198.425" height="113.448" fill="white"/>
<text xml:space="preserve" x="361.734" y="85.0957" fill="black" font-size="16.0105" font-family="Helvetica">ratio</text>
<path d="M319.752,80.5203h 34.7244" fill="none" stroke="black" stroke-width="2"/>
<g fill="black">
<circle cx="337.114" cy="80.5203" r="6.76257"/>
</g>
<text xml:space="preserve" x="361.734" y="108.201" fill="black" font-size="16.0105" font-family="Helvetica">peak range</text>
<path d="M319.752,103.21h 34.7244" fill="none" stroke="#333333" stroke-width="2"/>
<g stroke="#333333" stroke-width="2" fill="none">
<circle cx="337.114" cy="103.21" r="5.63548"/>
</g>
<text xml:space="preserve" x="361.734" y="130.743" fill="black" font-size="16.0105" font-family="Helvetica">background pol1</text>
<path d="M319.752,125.899h 34.7244" fill="none" stroke="#33cccc" stroke-width="3"/>
<text xml:space="preserve" x="361.734" y="153.285" fill="black" font-size="16.0105" font-family="Helvetica">background pol2</text>
<path d="M319.752,148.589h 34.7244" fill="none" stroke="#ff0066" stroke-width="3"/>
<text xml:space="preserve" x="361.734" y="175.827" fill="black" font-size="16.0105" font-family="Helvetica">param. range</text>
<path d="M319.752,171.279h 34.7244" fill="none" stroke="#999999" stroke-width="7"/></svg>
