<?xml version="1.0" standalone="no"?>
<svg width="567.429" height="553.904" viewBox="0 0 567.429 553.904" xmlns="http://www.w3.org/2000/svg" shape-rendering="crispEdges">
<title>
MC/EG1/OmegaRotPS/SameEventToBackgroundRatio_09.svg
</title>
<desc>
Creator: ROOT Version 6.20/08
CreationDate: Mon Mar 29 21:31:17 2021</desc>
<defs>
</defs>
<rect x="0.5" y="0" width="566.929" height="553.404" fill="white"/>
<rect x="68.5315" y="16.6021" width="484.724" height="481.461" fill="white"/>
<rect x="68.5315" y="16.6021" width="484.724" height="481.461" fill="none" stroke="black"/>
<rect x="68.5315" y="16.6021" width="484.724" height="481.461" fill="white"/>
<rect x="68.5315" y="16.6021" width="484.724" height="481.461" fill="none" stroke="black"/>
<g fill="black">
<circle cx="114.124" cy="496.54" r="6.76257"/>
</g>
<g fill="black">
<circle cx="118.924" cy="458.155" r="6.76257"/>
</g>
<g fill="black">
<circle cx="123.723" cy="391.644" r="6.76257"/>
</g>
<g fill="black">
<circle cx="128.522" cy="340.915" r="6.76257"/>
</g>
<g fill="black">
<circle cx="133.321" cy="360.348" r="6.76257"/>
</g>
<g fill="black">
<circle cx="138.121" cy="298.187" r="6.76257"/>
</g>
<g fill="black">
<circle cx="142.92" cy="227.041" r="6.76257"/>
</g>
<g fill="black">
<circle cx="147.719" cy="243.634" r="6.76257"/>
</g>
<g fill="black">
<circle cx="152.518" cy="218.202" r="6.76257"/>
</g>
<g fill="black">
<circle cx="157.318" cy="208.165" r="6.76257"/>
</g>
<g fill="black">
<circle cx="162.117" cy="202.356" r="6.76257"/>
</g>
<g fill="black">
<circle cx="166.916" cy="197.15" r="6.76257"/>
</g>
<g fill="black">
<circle cx="171.715" cy="208.424" r="6.76257"/>
</g>
<g fill="black">
<circle cx="176.515" cy="211.916" r="6.76257"/>
</g>
<g fill="black">
<circle cx="181.314" cy="222.592" r="6.76257"/>
</g>
<g fill="black">
<circle cx="186.113" cy="229.655" r="6.76257"/>
</g>
<g fill="black">
<circle cx="190.912" cy="240.28" r="6.76257"/>
</g>
<g fill="black">
<circle cx="195.712" cy="250.46" r="6.76257"/>
</g>
<g fill="black">
<circle cx="200.511" cy="252.658" r="6.76257"/>
</g>
<g fill="black">
<circle cx="205.31" cy="257.952" r="6.76257"/>
</g>
<g fill="black">
<circle cx="210.109" cy="259.397" r="6.76257"/>
</g>
<g fill="black">
<circle cx="214.909" cy="264.239" r="6.76257"/>
</g>
<g fill="black">
<circle cx="219.708" cy="263.236" r="6.76257"/>
</g>
<g fill="black">
<circle cx="224.507" cy="264.292" r="6.76257"/>
</g>
<g fill="black">
<circle cx="229.306" cy="266.46" r="6.76257"/>
</g>
<g fill="black">
<circle cx="234.106" cy="266.531" r="6.76257"/>
</g>
<g fill="black">
<circle cx="238.905" cy="264.838" r="6.76257"/>
</g>
<g fill="black">
<circle cx="243.704" cy="260.519" r="6.76257"/>
</g>
<g fill="black">
<circle cx="248.503" cy="265.782" r="6.76257"/>
</g>
<g fill="black">
<circle cx="253.303" cy="265.167" r="6.76257"/>
</g>
<g fill="black">
<circle cx="258.102" cy="264.43" r="6.76257"/>
</g>
<g fill="black">
<circle cx="262.901" cy="268.348" r="6.76257"/>
</g>
<g fill="black">
<circle cx="267.7" cy="272.374" r="6.76257"/>
</g>
<g fill="black">
<circle cx="272.5" cy="264.227" r="6.76257"/>
</g>
<g fill="black">
<circle cx="277.299" cy="268.327" r="6.76257"/>
</g>
<g fill="black">
<circle cx="339.689" cy="275.863" r="6.76257"/>
</g>
<g fill="black">
<circle cx="344.488" cy="277.94" r="6.76257"/>
</g>
<g fill="black">
<circle cx="349.288" cy="278.887" r="6.76257"/>
</g>
<g fill="black">
<circle cx="354.087" cy="277.742" r="6.76257"/>
</g>
<g fill="black">
<circle cx="358.886" cy="278.69" r="6.76257"/>
</g>
<g fill="black">
<circle cx="363.685" cy="280.353" r="6.76257"/>
</g>
<g fill="black">
<circle cx="368.485" cy="275.613" r="6.76257"/>
</g>
<g fill="black">
<circle cx="373.284" cy="275.107" r="6.76257"/>
</g>
<g fill="black">
<circle cx="378.083" cy="274.746" r="6.76257"/>
</g>
<g fill="black">
<circle cx="382.882" cy="272.915" r="6.76257"/>
</g>
<g fill="black">
<circle cx="387.682" cy="268.463" r="6.76257"/>
</g>
<g fill="black">
<circle cx="392.481" cy="276.92" r="6.76257"/>
</g>
<g fill="black">
<circle cx="397.28" cy="275.807" r="6.76257"/>
</g>
<g fill="black">
<circle cx="402.079" cy="274.599" r="6.76257"/>
</g>
<g fill="black">
<circle cx="406.879" cy="274.188" r="6.76257"/>
</g>
<g fill="black">
<circle cx="411.678" cy="269.919" r="6.76257"/>
</g>
<g fill="black">
<circle cx="416.477" cy="270.997" r="6.76257"/>
</g>
<g fill="black">
<circle cx="421.276" cy="272.683" r="6.76257"/>
</g>
<g fill="black">
<circle cx="426.076" cy="270.397" r="6.76257"/>
</g>
<g fill="black">
<circle cx="430.875" cy="269.495" r="6.76257"/>
</g>
<g fill="black">
<circle cx="435.674" cy="269.902" r="6.76257"/>
</g>
<g fill="black">
<circle cx="440.473" cy="265.778" r="6.76257"/>
</g>
<g fill="black">
<circle cx="445.273" cy="267.358" r="6.76257"/>
</g>
<g fill="black">
<circle cx="450.072" cy="261.895" r="6.76257"/>
</g>
<g fill="black">
<circle cx="454.871" cy="265.3" r="6.76257"/>
</g>
<g fill="black">
<circle cx="459.671" cy="265.681" r="6.76257"/>
</g>
<g fill="black">
<circle cx="464.47" cy="264.445" r="6.76257"/>
</g>
<g fill="black">
<circle cx="469.269" cy="258.386" r="6.76257"/>
</g>
<g fill="black">
<circle cx="474.068" cy="265.33" r="6.76257"/>
</g>
<g fill="black">
<circle cx="478.867" cy="255.526" r="6.76257"/>
</g>
<g fill="black">
<circle cx="483.667" cy="260.048" r="6.76257"/>
</g>
<g fill="black">
<circle cx="488.466" cy="258.668" r="6.76257"/>
</g>
<g fill="black">
<circle cx="493.265" cy="263.448" r="6.76257"/>
</g>
<g fill="black">
<circle cx="498.065" cy="262.212" r="6.76257"/>
</g>
<g fill="black">
<circle cx="502.864" cy="267.88" r="6.76257"/>
</g>
<g fill="black">
<circle cx="507.663" cy="252.731" r="6.76257"/>
</g>
<g fill="black">
<circle cx="512.462" cy="250.248" r="6.76257"/>
</g>
<g fill="black">
<circle cx="517.262" cy="257.977" r="6.76257"/>
</g>
<g fill="black">
<circle cx="522.061" cy="255.301" r="6.76257"/>
</g>
<g fill="black">
<circle cx="526.86" cy="259.337" r="6.76257"/>
</g>
<g fill="black">
<circle cx="531.659" cy="242.729" r="6.76257"/>
</g>
<g fill="black">
<circle cx="536.458" cy="245.085" r="6.76257"/>
</g>
<g fill="black">
<circle cx="541.258" cy="250.323" r="6.76257"/>
</g>
<g fill="black">
<circle cx="546.057" cy="248.508" r="6.76257"/>
</g>
<path d="M68.5315,498.064h 484.724" fill="none" stroke="black"/>
<path d="M68.5315,483.869v 14.1948" fill="none" stroke="black"/>
<path d="M83.5292,490.966v 7.09741" fill="none" stroke="black"/>
<path d="M98.5268,490.966v 7.09741" fill="none" stroke="black"/>
<path d="M113.524,490.966v 7.09741" fill="none" stroke="black"/>
<path d="M128.522,483.869v 14.1948" fill="none" stroke="black"/>
<path d="M143.52,490.966v 7.09741" fill="none" stroke="black"/>
<path d="M158.517,490.966v 7.09741" fill="none" stroke="black"/>
<path d="M173.515,490.966v 7.09741" fill="none" stroke="black"/>
<path d="M188.513,483.869v 14.1948" fill="none" stroke="black"/>
<path d="M203.51,490.966v 7.09741" fill="none" stroke="black"/>
<path d="M218.508,490.966v 7.09741" fill="none" stroke="black"/>
<path d="M233.506,490.966v 7.09741" fill="none" stroke="black"/>
<path d="M248.503,483.869v 14.1948" fill="none" stroke="black"/>
<path d="M263.501,490.966v 7.09741" fill="none" stroke="black"/>
<path d="M278.499,490.966v 7.09741" fill="none" stroke="black"/>
<path d="M293.496,490.966v 7.09741" fill="none" stroke="black"/>
<path d="M308.494,483.869v 14.1948" fill="none" stroke="black"/>
<path d="M323.492,490.966v 7.09741" fill="none" stroke="black"/>
<path d="M338.489,490.966v 7.09741" fill="none" stroke="black"/>
<path d="M353.487,490.966v 7.09741" fill="none" stroke="black"/>
<path d="M368.485,483.869v 14.1948" fill="none" stroke="black"/>
<path d="M383.482,490.966v 7.09741" fill="none" stroke="black"/>
<path d="M398.48,490.966v 7.09741" fill="none" stroke="black"/>
<path d="M413.478,490.966v 7.09741" fill="none" stroke="black"/>
<path d="M428.475,483.869v 14.1948" fill="none" stroke="black"/>
<path d="M443.473,490.966v 7.09741" fill="none" stroke="black"/>
<path d="M458.471,490.966v 7.09741" fill="none" stroke="black"/>
<path d="M473.468,490.966v 7.09741" fill="none" stroke="black"/>
<path d="M488.466,483.869v 14.1948" fill="none" stroke="black"/>
<path d="M503.464,490.966v 7.09741" fill="none" stroke="black"/>
<path d="M518.461,490.966v 7.09741" fill="none" stroke="black"/>
<path d="M533.459,490.966v 7.09741" fill="none" stroke="black"/>
<path d="M548.457,483.869v 14.1948" fill="none" stroke="black"/>
<path d="M548.457,483.869v 14.1948" fill="none" stroke="black"/>
<text xml:space="preserve" x="63.6174" y="513.956" fill="black" font-size="16.0105" font-family="Helvetica">0</text>
<text xml:space="preserve" x="117.718" y="513.956" fill="black" font-size="16.0105" font-family="Helvetica">0.2</text>
<text xml:space="preserve" x="177.454" y="513.956" fill="black" font-size="16.0105" font-family="Helvetica">0.4</text>
<text xml:space="preserve" x="237.754" y="513.956" fill="black" font-size="16.0105" font-family="Helvetica">0.6</text>
<text xml:space="preserve" x="297.49" y="513.956" fill="black" font-size="16.0105" font-family="Helvetica">0.8</text>
<text xml:space="preserve" x="365.115" y="513.956" fill="black" font-size="16.0105" font-family="Helvetica">1</text>
<text xml:space="preserve" x="417.525" y="513.956" fill="black" font-size="16.0105" font-family="Helvetica">1.2</text>
<text xml:space="preserve" x="477.261" y="513.956" fill="black" font-size="16.0105" font-family="Helvetica">1.4</text>
<text xml:space="preserve" x="537.561" y="513.956" fill="black" font-size="16.0105" font-family="Helvetica">1.6</text>
<text xml:space="preserve" x="548.268" y="537.625" fill="black" font-size="16.0105" font-family="Helvetica">)</text>
<text xml:space="preserve" x="542.633" y="532.553" fill="black" font-size="10.8403" font-family="Helvetica">2</text>
<text xml:space="preserve" x="533.616" y="537.625" fill="black" font-size="16.0105" font-family="Helvetica" font-style="oblique">c</text>
<text xml:space="preserve" x="487.405" y="537.625" fill="black" font-size="16.0105" font-family="Helvetica"> (GeV/</text>
<text xml:space="preserve" x="473.317" y="542.697" fill="black" font-size="10.8403" font-family="Helvetica">inv</text>
<text xml:space="preserve" x="459.792" y="537.625" fill="black" font-size="16.0105" font-family="Helvetica" font-style="oblique">m</text>
<path d="M68.5315,16.6021h 484.724" fill="none" stroke="black"/>
<path d="M68.5315,30.7969v -14.1948" fill="none" stroke="black"/>
<path d="M83.5292,23.6995v -7.09741" fill="none" stroke="black"/>
<path d="M98.5268,23.6995v -7.09741" fill="none" stroke="black"/>
<path d="M113.524,23.6995v -7.09741" fill="none" stroke="black"/>
<path d="M128.522,30.7969v -14.1948" fill="none" stroke="black"/>
<path d="M143.52,23.6995v -7.09741" fill="none" stroke="black"/>
<path d="M158.517,23.6995v -7.09741" fill="none" stroke="black"/>
<path d="M173.515,23.6995v -7.09741" fill="none" stroke="black"/>
<path d="M188.513,30.7969v -14.1948" fill="none" stroke="black"/>
<path d="M203.51,23.6995v -7.09741" fill="none" stroke="black"/>
<path d="M218.508,23.6995v -7.09741" fill="none" stroke="black"/>
<path d="M233.506,23.6995v -7.09741" fill="none" stroke="black"/>
<path d="M248.503,30.7969v -14.1948" fill="none" stroke="black"/>
<path d="M263.501,23.6995v -7.09741" fill="none" stroke="black"/>
<path d="M278.499,23.6995v -7.09741" fill="none" stroke="black"/>
<path d="M293.496,23.6995v -7.09741" fill="none" stroke="black"/>
<path d="M308.494,30.7969v -14.1948" fill="none" stroke="black"/>
<path d="M323.492,23.6995v -7.09741" fill="none" stroke="black"/>
<path d="M338.489,23.6995v -7.09741" fill="none" stroke="black"/>
<path d="M353.487,23.6995v -7.09741" fill="none" stroke="black"/>
<path d="M368.485,30.7969v -14.1948" fill="none" stroke="black"/>
<path d="M383.482,23.6995v -7.09741" fill="none" stroke="black"/>
<path d="M398.48,23.6995v -7.09741" fill="none" stroke="black"/>
<path d="M413.478,23.6995v -7.09741" fill="none" stroke="black"/>
<path d="M428.475,30.7969v -14.1948" fill="none" stroke="black"/>
<path d="M443.473,23.6995v -7.09741" fill="none" stroke="black"/>
<path d="M458.471,23.6995v -7.09741" fill="none" stroke="black"/>
<path d="M473.468,23.6995v -7.09741" fill="none" stroke="black"/>
<path d="M488.466,30.7969v -14.1948" fill="none" stroke="black"/>
<path d="M503.464,23.6995v -7.09741" fill="none" stroke="black"/>
<path d="M518.461,23.6995v -7.09741" fill="none" stroke="black"/>
<path d="M533.459,23.6995v -7.09741" fill="none" stroke="black"/>
<path d="M548.457,30.7969v -14.1948" fill="none" stroke="black"/>
<path d="M548.457,30.7969v -14.1948" fill="none" stroke="black"/>
<path d="M68.5315,498.064v -481.461" fill="none" stroke="black"/>
<path d="M83.3283,498.064h -14.7969" fill="none" stroke="black"/>
<path d="M75.9299,480.442h -7.39843" fill="none" stroke="black"/>
<path d="M75.9299,462.82h -7.39843" fill="none" stroke="black"/>
<path d="M75.9299,445.199h -7.39843" fill="none" stroke="black"/>
<path d="M83.3283,427.577h -14.7969" fill="none" stroke="black"/>
<path d="M75.9299,409.955h -7.39843" fill="none" stroke="black"/>
<path d="M75.9299,392.334h -7.39843" fill="none" stroke="black"/>
<path d="M75.9299,374.712h -7.39843" fill="none" stroke="black"/>
<path d="M83.3283,357.09h -14.7969" fill="none" stroke="black"/>
<path d="M75.9299,339.468h -7.39843" fill="none" stroke="black"/>
<path d="M75.9299,321.847h -7.39843" fill="none" stroke="black"/>
<path d="M75.9299,304.225h -7.39843" fill="none" stroke="black"/>
<path d="M83.3283,286.603h -14.7969" fill="none" stroke="black"/>
<path d="M75.9299,268.982h -7.39843" fill="none" stroke="black"/>
<path d="M75.9299,251.36h -7.39843" fill="none" stroke="black"/>
<path d="M75.9299,233.738h -7.39843" fill="none" stroke="black"/>
<path d="M83.3283,216.117h -14.7969" fill="none" stroke="black"/>
<path d="M75.9299,198.495h -7.39843" fill="none" stroke="black"/>
<path d="M75.9299,180.873h -7.39843" fill="none" stroke="black"/>
<path d="M75.9299,163.252h -7.39843" fill="none" stroke="black"/>
<path d="M83.3283,145.63h -14.7969" fill="none" stroke="black"/>
<path d="M75.9299,128.008h -7.39843" fill="none" stroke="black"/>
<path d="M75.9299,110.387h -7.39843" fill="none" stroke="black"/>
<path d="M75.9299,92.765h -7.39843" fill="none" stroke="black"/>
<path d="M83.3283,75.1433h -14.7969" fill="none" stroke="black"/>
<path d="M83.3283,75.1433h -14.7969" fill="none" stroke="black"/>
<path d="M75.9299,57.5216h -7.39843" fill="none" stroke="black"/>
<path d="M75.9299,39.8999h -7.39843" fill="none" stroke="black"/>
<path d="M75.9299,22.2783h -7.39843" fill="none" stroke="black"/>
<text xml:space="preserve" x="56.8548" y="503.248" fill="black" font-size="16.0105" font-family="Helvetica">0</text>
<text xml:space="preserve" x="43.8932" y="432.805" fill="black" font-size="16.0105" font-family="Helvetica">0.2</text>
<text xml:space="preserve" x="43.8932" y="362.361" fill="black" font-size="16.0105" font-family="Helvetica">0.4</text>
<text xml:space="preserve" x="43.8932" y="291.918" fill="black" font-size="16.0105" font-family="Helvetica">0.6</text>
<text xml:space="preserve" x="43.8932" y="221.474" fill="black" font-size="16.0105" font-family="Helvetica">0.8</text>
<text xml:space="preserve" x="59.6725" y="151.594" fill="black" font-size="16.0105" font-family="Helvetica">1</text>
<text xml:space="preserve" x="43.8932" y="81.1509" fill="black" font-size="16.0105" font-family="Helvetica">1.2</text>
<g transform="rotate(-90,38.2577,98.0573)">
<text xml:space="preserve" x="38.2577" y="98.0573" fill="black" font-size="16.0105" font-family="Helvetica">background</text>
</g>
<g transform="rotate(-90,21.9148,98.0573)">
<text xml:space="preserve" x="21.9148" y="98.0573" fill="black" font-size="16.0105" font-family="Helvetica">same event</text>
</g>
<path d="M24.169,98.0573l 0.563548, -81.7144" fill="none" stroke="black" stroke-width="2"/>
<path d="M553.256,498.064v -481.461" fill="none" stroke="black"/>
<path d="M538.459,498.064h 14.7969" fill="none" stroke="black"/>
<path d="M545.857,480.442h 7.39843" fill="none" stroke="black"/>
<path d="M545.857,462.82h 7.39843" fill="none" stroke="black"/>
<path d="M545.857,445.199h 7.39843" fill="none" stroke="black"/>
<path d="M538.459,427.577h 14.7969" fill="none" stroke="black"/>
<path d="M545.857,409.955h 7.39843" fill="none" stroke="black"/>
<path d="M545.857,392.334h 7.39843" fill="none" stroke="black"/>
<path d="M545.857,374.712h 7.39843" fill="none" stroke="black"/>
<path d="M538.459,357.09h 14.7969" fill="none" stroke="black"/>
<path d="M545.857,339.468h 7.39843" fill="none" stroke="black"/>
<path d="M545.857,321.847h 7.39843" fill="none" stroke="black"/>
<path d="M545.857,304.225h 7.39843" fill="none" stroke="black"/>
<path d="M538.459,286.603h 14.7969" fill="none" stroke="black"/>
<path d="M545.857,268.982h 7.39843" fill="none" stroke="black"/>
<path d="M545.857,251.36h 7.39843" fill="none" stroke="black"/>
<path d="M545.857,233.738h 7.39843" fill="none" stroke="black"/>
<path d="M538.459,216.117h 14.7969" fill="none" stroke="black"/>
<path d="M545.857,198.495h 7.39843" fill="none" stroke="black"/>
<path d="M545.857,180.873h 7.39843" fill="none" stroke="black"/>
<path d="M545.857,163.252h 7.39843" fill="none" stroke="black"/>
<path d="M538.459,145.63h 14.7969" fill="none" stroke="black"/>
<path d="M545.857,128.008h 7.39843" fill="none" stroke="black"/>
<path d="M545.857,110.387h 7.39843" fill="none" stroke="black"/>
<path d="M545.857,92.765h 7.39843" fill="none" stroke="black"/>
<path d="M538.459,75.1433h 14.7969" fill="none" stroke="black"/>
<path d="M538.459,75.1433h 14.7969" fill="none" stroke="black"/>
<path d="M545.857,57.5216h 7.39843" fill="none" stroke="black"/>
<path d="M545.857,39.8999h 7.39843" fill="none" stroke="black"/>
<path d="M545.857,22.2783h 7.39843" fill="none" stroke="black"/>
<g stroke="#333333" stroke-width="2" fill="none">
<circle cx="282.098" cy="269.994" r="5.63548"/>
</g>
<g stroke="#333333" stroke-width="2" fill="none">
<circle cx="286.897" cy="269.375" r="5.63548"/>
</g>
<g stroke="#333333" stroke-width="2" fill="none">
<circle cx="291.697" cy="267.13" r="5.63548"/>
</g>
<g stroke="#333333" stroke-width="2" fill="none">
<circle cx="296.496" cy="263.931" r="5.63548"/>
</g>
<g stroke="#333333" stroke-width="2" fill="none">
<circle cx="301.295" cy="264.753" r="5.63548"/>
</g>
<g stroke="#333333" stroke-width="2" fill="none">
<circle cx="306.094" cy="265.636" r="5.63548"/>
</g>
<g stroke="#333333" stroke-width="2" fill="none">
<circle cx="310.894" cy="261.276" r="5.63548"/>
</g>
<g stroke="#333333" stroke-width="2" fill="none">
<circle cx="315.693" cy="270.936" r="5.63548"/>
</g>
<g stroke="#333333" stroke-width="2" fill="none">
<circle cx="320.492" cy="273.126" r="5.63548"/>
</g>
<g stroke="#333333" stroke-width="2" fill="none">
<circle cx="325.291" cy="277.069" r="5.63548"/>
</g>
<g stroke="#333333" stroke-width="2" fill="none">
<circle cx="330.091" cy="277.9" r="5.63548"/>
</g>
<g stroke="#333333" stroke-width="2" fill="none">
<circle cx="334.89" cy="275.292" r="5.63548"/>
</g>
<path d="M98.7518,265.589l 0.44993, 0.00624554l 0.44993, 0.00624554l 0.44993, 0.00624554l 0.44993, 0.00624554l 0.44993, 0.00624554l 0.44993, 0.00624554l 0.44993, 0.00624554l 0.44993, 0.00624554l 0.44993, 0.00624554l 0.44993, 0.00624554l 0.44993,
 0.00624554l 0.44993, 0.00624554l 0.44993, 0.00624554l 0.44993, 0.00624554l 0.44993, 0.00624554l 0.44993, 0.00624554l 0.44993, 0.00624554l 0.44993, 0.00624554l 0.44993, 0.00624554l 0.44993, 0.00624554l 0.44993, 0.00624554l 0.44993, 0.00624554l
 0.44993, 0.00624554l 0.44993, 0.00624554l 0.44993, 0.00624554l 0.44993, 0.00624554l 0.44993, 0.00624554l 0.44993, 0.00624554l 0.44993, 0.00624554l 0.44993, 0.00624554l 0.44993, 0.00624554l 0.44993, 0.00624554l 0.44993, 0.00624554l 0.44993,
 0.00624554l 0.44993, 0.00624554l 0.44993, 0.00624554l 0.44993, 0.00624554l 0.44993, 0.00624554l 0.44993, 0.00624554l 0.44993, 0.00624554l 0.44993, 0.00624554l 0.44993, 0.00624554l 0.44993, 0.00624554l 0.44993, 0.00624554l 0.44993, 0.00624554l
 0.44993, 0.00624554l 0.44993, 0.00624554l 0.44993, 0.00624554l 0.44993, 0.00624554" fill="none" stroke="#33cccc" stroke-width="3"/>
<path d="M120.798,265.895l 0.44993, 0.00624554l 0.44993, 0.00624554l 0.44993, 0.00624554l 0.44993, 0.00624554l 0.44993, 0.00624554l 0.44993, 0.00624554l 0.44993, 0.00624554l 0.44993, 0.00624554l 0.44993, 0.00624554l 0.44993, 0.00624554l 0.44993,
 0.00624554l 0.44993, 0.00624554l 0.44993, 0.00624554l 0.44993, 0.00624554l 0.44993, 0.00624554l 0.44993, 0.00624554l 0.44993, 0.00624554l 0.44993, 0.00624554l 0.44993, 0.00624554l 0.44993, 0.00624554l 0.44993, 0.00624554l 0.44993, 0.00624554l
 0.44993, 0.00624554l 0.44993, 0.00624554l 0.44993, 0.00624554l 0.44993, 0.00624554l 0.44993, 0.00624554l 0.44993, 0.00624554l 0.44993, 0.00624554l 0.44993, 0.00624554l 0.44993, 0.00624554l 0.44993, 0.00624554l 0.44993, 0.00624554l 0.44993,
 0.00624554l 0.44993, 0.00624554l 0.44993, 0.00624554l 0.44993, 0.00624554l 0.44993, 0.00624554l 0.44993, 0.00624554l 0.44993, 0.00624554l 0.44993, 0.00624554l 0.44993, 0.00624554l 0.44993, 0.00624554l 0.44993, 0.00624554l 0.44993, 0.00624554l
 0.44993, 0.00624554l 0.44993, 0.00624554l 0.44993, 0.00624554l 0.44993, 0.00624554" fill="none" stroke="#33cccc" stroke-width="3"/>
<path d="M142.845,266.201l 0.44993, 0.00624554l 0.44993, 0.00624554l 0.44993, 0.00624554l 0.44993, 0.00624554l 0.44993, 0.00624554l 0.44993, 0.00624554l 0.44993, 0.00624554l 0.44993, 0.00624554l 0.44993, 0.00624554l 0.44993, 0.00624554l 0.44993,
 0.00624554l 0.44993, 0.00624554l 0.44993, 0.00624554l 0.44993, 0.00624554l 0.44993, 0.00624554l 0.44993, 0.00624554l 0.44993, 0.00624554l 0.44993, 0.00624554l 0.44993, 0.00624554l 0.44993, 0.00624554l 0.44993, 0.00624554l 0.44993, 0.00624554l
 0.44993, 0.00624554l 0.44993, 0.00624554l 0.44993, 0.00624554l 0.44993, 0.00624554l 0.44993, 0.00624554l 0.44993, 0.00624554l 0.44993, 0.00624554l 0.44993, 0.00624554l 0.44993, 0.00624554l 0.44993, 0.00624554l 0.44993, 0.00624554l 0.44993,
 0.00624554l 0.44993, 0.00624554l 0.44993, 0.00624554l 0.44993, 0.00624554l 0.44993, 0.00624554l 0.44993, 0.00624554l 0.44993, 0.00624554l 0.44993, 0.00624554l 0.44993, 0.00624554l 0.44993, 0.00624554l 0.44993, 0.00624554l 0.44993, 0.00624554l
 0.44993, 0.00624554l 0.44993, 0.00624554l 0.44993, 0.00624554l 0.44993, 0.00624554" fill="none" stroke="#33cccc" stroke-width="3"/>
<path d="M164.891,266.507l 0.44993, 0.00624554l 0.44993, 0.00624554l 0.44993, 0.00624554l 0.44993, 0.00624554l 0.44993, 0.00624554l 0.44993, 0.00624554l 0.44993, 0.00624554l 0.44993, 0.00624554l 0.44993, 0.00624554l 0.44993, 0.00624554l 0.44993,
 0.00624554l 0.44993, 0.00624554l 0.44993, 0.00624554l 0.44993, 0.00624554l 0.44993, 0.00624554l 0.44993, 0.00624554l 0.44993, 0.00624554l 0.44993, 0.00624554l 0.44993, 0.00624554l 0.44993, 0.00624554l 0.44993, 0.00624554l 0.44993, 0.00624554l
 0.44993, 0.00624554l 0.44993, 0.00624554l 0.44993, 0.00624554l 0.44993, 0.00624554l 0.44993, 0.00624554l 0.44993, 0.00624554l 0.44993, 0.00624554l 0.44993, 0.00624554l 0.44993, 0.00624554l 0.44993, 0.00624554l 0.44993, 0.00624554l 0.44993,
 0.00624554l 0.44993, 0.00624554l 0.44993, 0.00624554l 0.44993, 0.00624554l 0.44993, 0.00624554l 0.44993, 0.00624554l 0.44993, 0.00624554l 0.44993, 0.00624554l 0.44993, 0.00624554l 0.44993, 0.00624554l 0.44993, 0.00624554l 0.44993, 0.00624554l
 0.44993, 0.00624554l 0.44993, 0.00624554l 0.44993, 0.00624554l 0.44993, 0.00624554" fill="none" stroke="#33cccc" stroke-width="3"/>
<path d="M186.938,266.813l 0.44993, 0.00624554l 0.44993, 0.00624554l 0.44993, 0.00624554l 0.44993, 0.00624554l 0.44993, 0.00624554l 0.44993, 0.00624554l 0.44993, 0.00624554l 0.44993, 0.00624554l 0.44993, 0.00624554l 0.44993, 0.00624554l 0.44993,
 0.00624554l 0.44993, 0.00624554l 0.44993, 0.00624554l 0.44993, 0.00624554l 0.44993, 0.00624554l 0.44993, 0.00624554l 0.44993, 0.00624554l 0.44993, 0.00624554l 0.44993, 0.00624554l 0.44993, 0.00624554l 0.44993, 0.00624554l 0.44993, 0.00624554l
 0.44993, 0.00624554l 0.44993, 0.00624554l 0.44993, 0.00624554l 0.44993, 0.00624554l 0.44993, 0.00624554l 0.44993, 0.00624554l 0.44993, 0.00624554l 0.44993, 0.00624554l 0.44993, 0.00624554l 0.44993, 0.00624554l 0.44993, 0.00624554l 0.44993,
 0.00624554l 0.44993, 0.00624554l 0.44993, 0.00624554l 0.44993, 0.00624554l 0.44993, 0.00624554l 0.44993, 0.00624554l 0.44993, 0.00624554l 0.44993, 0.00624554l 0.44993, 0.00624554l 0.44993, 0.00624554l 0.44993, 0.00624554l 0.44993, 0.00624554l
 0.44993, 0.00624554l 0.44993, 0.00624554l 0.44993, 0.00624554l 0.44993, 0.00624554" fill="none" stroke="#33cccc" stroke-width="3"/>
<path d="M208.985,267.119l 0.44993, 0.00624554l 0.44993, 0.00624554l 0.44993, 0.00624554l 0.44993, 0.00624554l 0.44993, 0.00624554l 0.44993, 0.00624554l 0.44993, 0.00624554l 0.44993, 0.00624554l 0.44993, 0.00624554l 0.44993, 0.00624554l 0.44993,
 0.00624554l 0.44993, 0.00624554l 0.44993, 0.00624554l 0.44993, 0.00624554l 0.44993, 0.00624554l 0.44993, 0.00624554l 0.44993, 0.00624554l 0.44993, 0.00624554l 0.44993, 0.00624554l 0.44993, 0.00624554l 0.44993, 0.00624554l 0.44993, 0.00624554l
 0.44993, 0.00624554l 0.44993, 0.00624554l 0.44993, 0.00624554l 0.44993, 0.00624554l 0.44993, 0.00624554l 0.44993, 0.00624554l 0.44993, 0.00624554l 0.44993, 0.00624554l 0.44993, 0.00624554l 0.44993, 0.00624554l 0.44993, 0.00624554l 0.44993,
 0.00624554l 0.44993, 0.00624554l 0.44993, 0.00624554l 0.44993, 0.00624554l 0.44993, 0.00624554l 0.44993, 0.00624554l 0.44993, 0.00624554l 0.44993, 0.00624554l 0.44993, 0.00624554l 0.44993, 0.00624554l 0.44993, 0.00624554l 0.44993, 0.00624554l
 0.44993, 0.00624554l 0.44993, 0.00624554l 0.44993, 0.00624554l 0.44993, 0.00624554" fill="none" stroke="#33cccc" stroke-width="3"/>
<path d="M231.031,267.425l 0.44993, 0.00624554l 0.44993, 0.00624554l 0.44993, 0.00624554l 0.44993, 0.00624554l 0.44993, 0.00624554l 0.44993, 0.00624554l 0.44993, 0.00624554l 0.44993, 0.00624554l 0.44993, 0.00624554l 0.44993, 0.00624554l 0.44993,
 0.00624554l 0.44993, 0.00624554l 0.44993, 0.00624554l 0.44993, 0.00624554l 0.44993, 0.00624554l 0.44993, 0.00624554l 0.44993, 0.00624554l 0.44993, 0.00624554l 0.44993, 0.00624554l 0.44993, 0.00624554l 0.44993, 0.00624554l 0.44993, 0.00624554l
 0.44993, 0.00624554l 0.44993, 0.00624554l 0.44993, 0.00624554l 0.44993, 0.00624554l 0.44993, 0.00624554l 0.44993, 0.00624554l 0.44993, 0.00624554l 0.44993, 0.00624554l 0.44993, 0.00624554l 0.44993, 0.00624554l 0.44993, 0.00624554l 0.44993,
 0.00624554l 0.44993, 0.00624554l 0.44993, 0.00624554l 0.44993, 0.00624554l 0.44993, 0.00624554l 0.44993, 0.00624554l 0.44993, 0.00624554l 0.44993, 0.00624554l 0.44993, 0.00624554l 0.44993, 0.00624554l 0.44993, 0.00624554l 0.44993, 0.00624554l
 0.44993, 0.00624554l 0.44993, 0.00624554l 0.44993, 0.00624554l 0.44993, 0.00624554" fill="none" stroke="#33cccc" stroke-width="3"/>
<path d="M253.078,267.731l 0.44993, 0.00624554l 0.44993, 0.00624554l 0.44993, 0.00624554l 0.44993, 0.00624554l 0.44993, 0.00624554l 0.44993, 0.00624554l 0.44993, 0.00624554l 0.44993, 0.00624554l 0.44993, 0.00624554l 0.44993, 0.00624554l 0.44993,
 0.00624554l 0.44993, 0.00624554l 0.44993, 0.00624554l 0.44993, 0.00624554l 0.44993, 0.00624554l 0.44993, 0.00624554l 0.44993, 0.00624554l 0.44993, 0.00624554l 0.44993, 0.00624554l 0.44993, 0.00624554l 0.44993, 0.00624554l 0.44993, 0.00624554l
 0.44993, 0.00624554l 0.44993, 0.00624554l 0.44993, 0.00624554l 0.44993, 0.00624554l 0.44993, 0.00624554l 0.44993, 0.00624554l 0.44993, 0.00624554l 0.44993, 0.00624554l 0.44993, 0.00624554l 0.44993, 0.00624554l 0.44993, 0.00624554l 0.44993,
 0.00624554l 0.44993, 0.00624554l 0.44993, 0.00624554l 0.44993, 0.00624554l 0.44993, 0.00624554l 0.44993, 0.00624554l 0.44993, 0.00624554l 0.44993, 0.00624554l 0.44993, 0.00624554l 0.44993, 0.00624554l 0.44993, 0.00624554l 0.44993, 0.00624554l
 0.44993, 0.00624554l 0.44993, 0.00624554l 0.44993, 0.00624554l 0.44993, 0.00624554" fill="none" stroke="#33cccc" stroke-width="3"/>
<path d="M275.124,268.037l 0.44993, 0.00624554l 0.44993, 0.00624554l 0.44993, 0.00624554l 0.44993, 0.00624554l 0.44993, 0.00624554l 0.44993, 0.00624554l 0.44993, 0.00624554l 0.44993, 0.00624554l 0.44993, 0.00624554l 0.44993, 0.00624554l 0.44993,
 0.00624554l 0.44993, 0.00624554l 0.44993, 0.00624554l 0.44993, 0.00624554l 0.44993, 0.00624554l 0.44993, 0.00624554l 0.44993, 0.00624554l 0.44993, 0.00624554l 0.44993, 0.00624554l 0.44993, 0.00624554l 0.44993, 0.00624554l 0.44993, 0.00624554l
 0.44993, 0.00624554l 0.44993, 0.00624554l 0.44993, 0.00624554l 0.44993, 0.00624554l 0.44993, 0.00624554l 0.44993, 0.00624554l 0.44993, 0.00624554l 0.44993, 0.00624554l 0.44993, 0.00624554l 0.44993, 0.00624554l 0.44993, 0.00624554l 0.44993,
 0.00624554l 0.44993, 0.00624554l 0.44993, 0.00624554l 0.44993, 0.00624554l 0.44993, 0.00624554l 0.44993, 0.00624554l 0.44993, 0.00624554l 0.44993, 0.00624554l 0.44993, 0.00624554l 0.44993, 0.00624554l 0.44993, 0.00624554l 0.44993, 0.00624554l
 0.44993, 0.00624554l 0.44993, 0.00624554l 0.44993, 0.00624554l 0.44993, 0.00624554" fill="none" stroke="#33cccc" stroke-width="3"/>
<path d="M297.171,268.343l 0.44993, 0.00624554l 0.44993, 0.00624554l 0.44993, 0.00624554l 0.44993, 0.00624554l 0.44993, 0.00624554l 0.44993, 0.00624554l 0.44993, 0.00624554l 0.44993, 0.00624554l 0.44993, 0.00624554l 0.44993, 0.00624554l 0.44993,
 0.00624554l 0.44993, 0.00624554l 0.44993, 0.00624554l 0.44993, 0.00624554l 0.44993, 0.00624554l 0.44993, 0.00624554l 0.44993, 0.00624554l 0.44993, 0.00624554l 0.44993, 0.00624554l 0.44993, 0.00624554l 0.44993, 0.00624554l 0.44993, 0.00624554l
 0.44993, 0.00624554l 0.44993, 0.00624554l 0.44993, 0.00624554l 0.44993, 0.00624554l 0.44993, 0.00624554l 0.44993, 0.00624554l 0.44993, 0.00624554l 0.44993, 0.00624554l 0.44993, 0.00624554l 0.44993, 0.00624554l 0.44993, 0.00624554l 0.44993,
 0.00624554l 0.44993, 0.00624554l 0.44993, 0.00624554l 0.44993, 0.00624554l 0.44993, 0.00624554l 0.44993, 0.00624554l 0.44993, 0.00624554l 0.44993, 0.00624554l 0.44993, 0.00624554l 0.44993, 0.00624554l 0.44993, 0.00624554l 0.44993, 0.00624554l
 0.44993, 0.00624554l 0.44993, 0.00624554l 0.44993, 0.00624554l 0.44993, 0.00624554" fill="none" stroke="#33cccc" stroke-width="3"/>
<path d="M319.217,268.649l 0.44993, 0.00624554l 0.44993, 0.00624554l 0.44993, 0.00624554l 0.44993, 0.00624554l 0.44993, 0.00624554l 0.44993, 0.00624554l 0.44993, 0.00624554l 0.44993, 0.00624554l 0.44993, 0.00624554l 0.44993, 0.00624554l 0.44993,
 0.00624554l 0.44993, 0.00624554l 0.44993, 0.00624554l 0.44993, 0.00624554l 0.44993, 0.00624554l 0.44993, 0.00624554l 0.44993, 0.00624554l 0.44993, 0.00624554l 0.44993, 0.00624554l 0.44993, 0.00624554l 0.44993, 0.00624554l 0.44993, 0.00624554l
 0.44993, 0.00624554l 0.44993, 0.00624554l 0.44993, 0.00624554l 0.44993, 0.00624554l 0.44993, 0.00624554l 0.44993, 0.00624554l 0.44993, 0.00624554l 0.44993, 0.00624554l 0.44993, 0.00624554l 0.44993, 0.00624554l 0.44993, 0.00624554l 0.44993,
 0.00624554l 0.44993, 0.00624554l 0.44993, 0.00624554l 0.44993, 0.00624554l 0.44993, 0.00624554l 0.44993, 0.00624554l 0.44993, 0.00624554l 0.44993, 0.00624554l 0.44993, 0.00624554l 0.44993, 0.00624554l 0.44993, 0.00624554l 0.44993, 0.00624554l
 0.44993, 0.00624554l 0.44993, 0.00624554l 0.44993, 0.00624554l 0.44993, 0.00624554" fill="none" stroke="#33cccc" stroke-width="3"/>
<path d="M341.264,268.955l 0.44993, 0.00624554l 0.44993, 0.00624554l 0.44993, 0.00624554l 0.44993, 0.00624554l 0.44993, 0.00624554l 0.44993, 0.00624554l 0.44993, 0.00624554l 0.44993, 0.00624554l 0.44993, 0.00624554l 0.44993, 0.00624554l 0.44993,
 0.00624554l 0.44993, 0.00624554l 0.44993, 0.00624554l 0.44993, 0.00624554l 0.44993, 0.00624554l 0.44993, 0.00624554l 0.44993, 0.00624554l 0.44993, 0.00624554l 0.44993, 0.00624554l 0.44993, 0.00624554l 0.44993, 0.00624554l 0.44993, 0.00624554l
 0.44993, 0.00624554l 0.44993, 0.00624554l 0.44993, 0.00624554l 0.44993, 0.00624554l 0.44993, 0.00624554l 0.44993, 0.00624554l 0.44993, 0.00624554l 0.44993, 0.00624554l 0.44993, 0.00624554l 0.44993, 0.00624554l 0.44993, 0.00624554l 0.44993,
 0.00624554l 0.44993, 0.00624554l 0.44993, 0.00624554l 0.44993, 0.00624554l 0.44993, 0.00624554l 0.44993, 0.00624554l 0.44993, 0.00624554l 0.44993, 0.00624554l 0.44993, 0.00624554l 0.44993, 0.00624554l 0.44993, 0.00624554l 0.44993, 0.00624554l
 0.44993, 0.00624554l 0.44993, 0.00624554l 0.44993, 0.00624554l 0.44993, 0.00624554" fill="none" stroke="#33cccc" stroke-width="3"/>
<path d="M363.311,269.261l 0.44993, 0.00624554l 0.44993, 0.00624554l 0.44993, 0.00624554l 0.44993, 0.00624554l 0.44993, 0.00624554l 0.44993, 0.00624554l 0.44993, 0.00624554l 0.44993, 0.00624554l 0.44993, 0.00624554l 0.44993, 0.00624554l 0.44993,
 0.00624554l 0.44993, 0.00624554l 0.44993, 0.00624554l 0.44993, 0.00624554l 0.44993, 0.00624554l 0.44993, 0.00624554l 0.44993, 0.00624554l 0.44993, 0.00624554l 0.44993, 0.00624554l 0.44993, 0.00624554l 0.44993, 0.00624554l 0.44993, 0.00624554l
 0.44993, 0.00624554l 0.44993, 0.00624554l 0.44993, 0.00624554l 0.44993, 0.00624554l 0.44993, 0.00624554l 0.44993, 0.00624554l 0.44993, 0.00624554l 0.44993, 0.00624554l 0.44993, 0.00624554l 0.44993, 0.00624554l 0.44993, 0.00624554l 0.44993,
 0.00624554l 0.44993, 0.00624554l 0.44993, 0.00624554l 0.44993, 0.00624554l 0.44993, 0.00624554l 0.44993, 0.00624554l 0.44993, 0.00624554l 0.44993, 0.00624554l 0.44993, 0.00624554l 0.44993, 0.00624554l 0.44993, 0.00624554l 0.44993, 0.00624554l
 0.44993, 0.00624554l 0.44993, 0.00624554l 0.44993, 0.00624554l 0.44993, 0.00624554" fill="none" stroke="#33cccc" stroke-width="3"/>
<path d="M385.357,269.567l 0.44993, 0.00624554l 0.44993, 0.00624554l 0.44993, 0.00624554l 0.44993, 0.00624554l 0.44993, 0.00624554l 0.44993, 0.00624554l 0.44993, 0.00624554l 0.44993, 0.00624554l 0.44993, 0.00624554l 0.44993, 0.00624554l 0.44993,
 0.00624554l 0.44993, 0.00624554l 0.44993, 0.00624554l 0.44993, 0.00624554l 0.44993, 0.00624554l 0.44993, 0.00624554l 0.44993, 0.00624554l 0.44993, 0.00624554l 0.44993, 0.00624554l 0.44993, 0.00624554l 0.44993, 0.00624554l 0.44993, 0.00624554l
 0.44993, 0.00624554l 0.44993, 0.00624554l 0.44993, 0.00624554l 0.44993, 0.00624554l 0.44993, 0.00624554l 0.44993, 0.00624554l 0.44993, 0.00624554l 0.44993, 0.00624554l 0.44993, 0.00624554l 0.44993, 0.00624554l 0.44993, 0.00624554l 0.44993,
 0.00624554l 0.44993, 0.00624554l 0.44993, 0.00624554l 0.44993, 0.00624554l 0.44993, 0.00624554l 0.44993, 0.00624554l 0.44993, 0.00624554l 0.44993, 0.00624554l 0.44993, 0.00624554l 0.44993, 0.00624554l 0.44993, 0.00624554l 0.44993, 0.00624554l
 0.44993, 0.00624554l 0.44993, 0.00624554l 0.44993, 0.00624554l 0.44993, 0.00624554" fill="none" stroke="#33cccc" stroke-width="3"/>
<path d="M407.404,269.873l 0.44993, 0.00624554l 0.44993, 0.00624554l 0.44993, 0.00624554l 0.44993, 0.00624554l 0.44993, 0.00624554l 0.44993, 0.00624554l 0.44993, 0.00624554l 0.44993, 0.00624554l 0.44993, 0.00624554l 0.44993, 0.00624554l 0.44993,
 0.00624554l 0.44993, 0.00624554l 0.44993, 0.00624554l 0.44993, 0.00624554l 0.44993, 0.00624554l 0.44993, 0.00624554l 0.44993, 0.00624554l 0.44993, 0.00624554l 0.44993, 0.00624554l 0.44993, 0.00624554l 0.44993, 0.00624554l 0.44993, 0.00624554l
 0.44993, 0.00624554l 0.44993, 0.00624554l 0.44993, 0.00624554l 0.44993, 0.00624554l 0.44993, 0.00624554l 0.44993, 0.00624554l 0.44993, 0.00624554l 0.44993, 0.00624554l 0.44993, 0.00624554l 0.44993, 0.00624554l 0.44993, 0.00624554l 0.44993,
 0.00624554l 0.44993, 0.00624554l 0.44993, 0.00624554l 0.44993, 0.00624554l 0.44993, 0.00624554l 0.44993, 0.00624554l 0.44993, 0.00624554l 0.44993, 0.00624554l 0.44993, 0.00624554l 0.44993, 0.00624554l 0.44993, 0.00624554l 0.44993, 0.00624554l
 0.44993, 0.00624554l 0.44993, 0.00624554l 0.44993, 0.00624554l 0.44993, 0.00624554" fill="none" stroke="#33cccc" stroke-width="3"/>
<path d="M429.45,270.179l 0.44993, 0.00624554l 0.44993, 0.00624554l 0.44993, 0.00624554l 0.44993, 0.00624554l 0.44993, 0.00624554l 0.44993, 0.00624554l 0.44993, 0.00624554l 0.44993, 0.00624554l 0.44993, 0.00624554l 0.44993, 0.00624554l 0.44993,
 0.00624554l 0.44993, 0.00624554l 0.44993, 0.00624554l 0.44993, 0.00624554l 0.44993, 0.00624554l 0.44993, 0.00624554l 0.44993, 0.00624554l 0.44993, 0.00624554l 0.44993, 0.00624554l 0.44993, 0.00624554l 0.44993, 0.00624554l 0.44993, 0.00624554l
 0.44993, 0.00624554l 0.44993, 0.00624554l 0.44993, 0.00624554l 0.44993, 0.00624554l 0.44993, 0.00624554l 0.44993, 0.00624554l 0.44993, 0.00624554l 0.44993, 0.00624554l 0.44993, 0.00624554l 0.44993, 0.00624554l 0.44993, 0.00624554l 0.44993,
 0.00624554l 0.44993, 0.00624554l 0.44993, 0.00624554l 0.44993, 0.00624554l 0.44993, 0.00624554l 0.44993, 0.00624554l 0.44993, 0.00624554l 0.44993, 0.00624554l 0.44993, 0.00624554l 0.44993, 0.00624554l 0.44993, 0.00624554l 0.44993, 0.00624554l
 0.44993, 0.00624554l 0.44993, 0.00624554l 0.44993, 0.00624554l 0.44993, 0.00624554" fill="none" stroke="#33cccc" stroke-width="3"/>
<path d="M451.497,270.485l 0.44993, 0.00624554l 0.44993, 0.00624554l 0.44993, 0.00624554l 0.44993, 0.00624554l 0.44993, 0.00624554l 0.44993, 0.00624554l 0.44993, 0.00624554l 0.44993, 0.00624554l 0.44993, 0.00624554l 0.44993, 0.00624554l 0.44993,
 0.00624554l 0.44993, 0.00624554l 0.44993, 0.00624554l 0.44993, 0.00624554l 0.44993, 0.00624554l 0.44993, 0.00624554l 0.44993, 0.00624554l 0.44993, 0.00624554l 0.44993, 0.00624554l 0.44993, 0.00624554l 0.44993, 0.00624554l 0.44993, 0.00624554l
 0.44993, 0.00624554l 0.44993, 0.00624554l 0.44993, 0.00624554l 0.44993, 0.00624554l 0.44993, 0.00624554l 0.44993, 0.00624554l 0.44993, 0.00624554l 0.44993, 0.00624554l 0.44993, 0.00624554l 0.44993, 0.00624554l 0.44993, 0.00624554l 0.44993,
 0.00624554l 0.44993, 0.00624554l 0.44993, 0.00624554l 0.44993, 0.00624554l 0.44993, 0.00624554l 0.44993, 0.00624554l 0.44993, 0.00624554l 0.44993, 0.00624554l 0.44993, 0.00624554l 0.44993, 0.00624554l 0.44993, 0.00624554l 0.44993, 0.00624554l
 0.44993, 0.00624554l 0.44993, 0.00624554l 0.44993, 0.00624554l 0.44993, 0.00624554" fill="none" stroke="#33cccc" stroke-width="3"/>
<path d="M473.543,270.791l 0.44993, 0.00624554l 0.44993, 0.00624554l 0.44993, 0.00624554l 0.44993, 0.00624554l 0.44993, 0.00624554l 0.44993, 0.00624554l 0.44993, 0.00624554l 0.44993, 0.00624554l 0.44993, 0.00624554l 0.44993, 0.00624554l 0.44993,
 0.00624554l 0.44993, 0.00624554l 0.44993, 0.00624554l 0.44993, 0.00624554l 0.44993, 0.00624554l 0.44993, 0.00624554l 0.44993, 0.00624554l 0.44993, 0.00624554l 0.44993, 0.00624554l 0.44993, 0.00624554l 0.44993, 0.00624554l 0.44993, 0.00624554l
 0.44993, 0.00624554l 0.44993, 0.00624554l 0.44993, 0.00624554l 0.44993, 0.00624554l 0.44993, 0.00624554l 0.44993, 0.00624554l 0.44993, 0.00624554l 0.44993, 0.00624554l 0.44993, 0.00624554l 0.44993, 0.00624554l 0.44993, 0.00624554l 0.44993,
 0.00624554l 0.44993, 0.00624554l 0.44993, 0.00624554l 0.44993, 0.00624554l 0.44993, 0.00624554l 0.44993, 0.00624554l 0.44993, 0.00624554l 0.44993, 0.00624554l 0.44993, 0.00624554l 0.44993, 0.00624554l 0.44993, 0.00624554l 0.44993, 0.00624554l
 0.44993, 0.00624554l 0.44993, 0.00624554l 0.44993, 0.00624554l 0.44993, 0.00624554" fill="none" stroke="#33cccc" stroke-width="3"/>
<path d="M495.59,271.097l 0.44993, 0.00624554l 0.44993, 0.00624554l 0.44993, 0.00624554l 0.44993, 0.00624554l 0.44993, 0.00624554l 0.44993, 0.00624554l 0.44993, 0.00624554l 0.44993, 0.00624554l 0.44993, 0.00624554l 0.44993, 0.00624554l 0.44993,
 0.00624554l 0.44993, 0.00624554l 0.44993, 0.00624554l 0.44993, 0.00624554l 0.44993, 0.00624554l 0.44993, 0.00624554l 0.44993, 0.00624554l 0.44993, 0.00624554l 0.44993, 0.00624554l 0.44993, 0.00624554l 0.44993, 0.00624554l 0.44993, 0.00624554l
 0.44993, 0.00624554l 0.44993, 0.00624554l 0.44993, 0.00624554l 0.44993, 0.00624554l 0.44993, 0.00624554l 0.44993, 0.00624554l 0.44993, 0.00624554l 0.44993, 0.00624554l 0.44993, 0.00624554l 0.44993, 0.00624554l 0.44993, 0.00624554l 0.44993,
 0.00624554l 0.44993, 0.00624554l 0.44993, 0.00624554l 0.44993, 0.00624554l 0.44993, 0.00624554l 0.44993, 0.00624554l 0.44993, 0.00624554l 0.44993, 0.00624554l 0.44993, 0.00624554l 0.44993, 0.00624554l 0.44993, 0.00624554l 0.44993, 0.00624554l
 0.44993, 0.00624554l 0.44993, 0.00624554l 0.44993, 0.00624554l 0.44993, 0.00624554" fill="none" stroke="#33cccc" stroke-width="3"/>
<path d="M517.636,271.403l 0.44993, 0.00624554l 0.44993, 0.00624554l 0.44993, 0.00624554l 0.44993, 0.00624554l 0.44993, 0.00624554l 0.44993, 0.00624554l 0.44993, 0.00624554l 0.44993, 0.00624554l 0.44993, 0.00624554l 0.44993, 0.00624554l 0.44993,
 0.00624554l 0.44993, 0.00624554l 0.44993, 0.00624554l 0.44993, 0.00624554l 0.44993, 0.00624554l 0.44993, 0.00624554l 0.44993, 0.00624554l 0.44993, 0.00624554l 0.44993, 0.00624554l 0.44993, 0.00624554l 0.44993, 0.00624554l 0.44993, 0.00624554l
 0.44993, 0.00624554l 0.44993, 0.00624554l 0.44993, 0.00624554l 0.44993, 0.00624554l 0.44993, 0.00624554l 0.44993, 0.00624554l 0.44993, 0.00624554l 0.44993, 0.00624554l 0.44993, 0.00624554l 0.44993, 0.00624554l 0.44993, 0.00624554l 0.44993,
 0.00624554l 0.44993, 0.00624554l 0.44993, 0.00624554l 0.44993, 0.00624554l 0.44993, 0.00624554l 0.44993, 0.00624554l 0.44993, 0.00624554l 0.44993, 0.00624554l 0.44993, 0.00624554l 0.44993, 0.00624554l 0.44993, 0.00624554l 0.44993, 0.00624554l
 0.44993, 0.00624554l 0.44993, 0.00624554l 0.44993, 0.00624554l 0.44993, 0.00624554" fill="none" stroke="#33cccc" stroke-width="3"/>
<path d="M539.683,271.709l 0.44993, 0.00624554l 0.44993, 0.00624554l 0.44993, 0.00624554l 0.44993, 0.00624554l 0.44993, 0.00624554l 0.44993, 0.00624554l 0.44993, 0.00624554l 0.44993, 0.00624554l 0.44993, 0.00624554l 0.44993, 0.00624554l 0.44993,
 0.00624554l 0.44993, 0.00624554l 0.44993, 0.00624554l 0.44993, 0.00624554l 0.44993, 0.00624554l 0.44993, 0.00624554l 0.44993, 0.00624554l 0.44993, 0.00624554l 0.44993, 0.00624554" fill="none" stroke="#33cccc" stroke-width="3"/>
<path d="M98.7518,217.75l 0.44993, 0.208716l 0.44993, 0.208339l 0.44993, 0.207963l 0.44993, 0.207587l 0.44993, 0.20721l 0.44993, 0.206834l 0.44993, 0.206458l 0.44993, 0.206081l 0.44993, 0.205705l 0.44993, 0.205328l 0.44993, 0.204952l 0.44993,
 0.204576l 0.44993, 0.204199l 0.44993, 0.203823l 0.44993, 0.203447l 0.44993, 0.20307l 0.44993, 0.202694l 0.44993, 0.202317l 0.44993, 0.201941l 0.44993, 0.201565l 0.44993, 0.201188l 0.44993, 0.200812l 0.44993, 0.200436l 0.44993, 0.200059l 0.44993,
 0.199683l 0.44993, 0.199306l 0.44993, 0.19893l 0.44993, 0.198554l 0.44993, 0.198177l 0.44993, 0.197801l 0.44993, 0.197425l 0.44993, 0.197048l 0.44993, 0.196672l 0.44993, 0.196295l 0.44993, 0.195919l 0.44993, 0.195543l 0.44993, 0.195166l 0.44993,
 0.19479l 0.44993, 0.194414l 0.44993, 0.194037l 0.44993, 0.193661l 0.44993, 0.193284l 0.44993, 0.192908l 0.44993, 0.192532l 0.44993, 0.192155l 0.44993, 0.191779l 0.44993, 0.191403l 0.44993, 0.191026l 0.44993, 0.19065" fill="none" stroke="#ff0066"
 stroke-width="3"/>
<path d="M120.798,227.534l 0.44993, 0.190273l 0.44993, 0.189897l 0.44993, 0.189521l 0.44993, 0.189144l 0.44993, 0.188768l 0.44993, 0.188392l 0.44993, 0.188015l 0.44993, 0.187639l 0.44993, 0.187262l 0.44993, 0.186886l 0.44993, 0.18651l 0.44993,
 0.186133l 0.44993, 0.185757l 0.44993, 0.185381l 0.44993, 0.185004l 0.44993, 0.184628l 0.44993, 0.184251l 0.44993, 0.183875l 0.44993, 0.183499l 0.44993, 0.183122l 0.44993, 0.182746l 0.44993, 0.18237l 0.44993, 0.181993l 0.44993, 0.181617l 0.44993,
 0.18124l 0.44993, 0.180864l 0.44993, 0.180488l 0.44993, 0.180111l 0.44993, 0.179735l 0.44993, 0.179359l 0.44993, 0.178982l 0.44993, 0.178606l 0.44993, 0.178229l 0.44993, 0.177853l 0.44993, 0.177477l 0.44993, 0.1771l 0.44993, 0.176724l 0.44993,
 0.176348l 0.44993, 0.175971l 0.44993, 0.175595l 0.44993, 0.175218l 0.44993, 0.174842l 0.44993, 0.174466l 0.44993, 0.174089l 0.44993, 0.173713l 0.44993, 0.173337l 0.44993, 0.17296l 0.44993, 0.172584l 0.44993, 0.172207" fill="none" stroke="#ff0066"
 stroke-width="3"/>
<path d="M142.845,236.415l 0.44993, 0.171831l 0.44993, 0.171455l 0.44993, 0.171078l 0.44993, 0.170702l 0.44993, 0.170326l 0.44993, 0.169949l 0.44993, 0.169573l 0.44993, 0.169196l 0.44993, 0.16882l 0.44993, 0.168444l 0.44993, 0.168067l 0.44993,
 0.167691l 0.44993, 0.167315l 0.44993, 0.166938l 0.44993, 0.166562l 0.44993, 0.166185l 0.44993, 0.165809l 0.44993, 0.165433l 0.44993, 0.165056l 0.44993, 0.16468l 0.44993, 0.164304l 0.44993, 0.163927l 0.44993, 0.163551l 0.44993, 0.163174l 0.44993,
 0.162798l 0.44993, 0.162422l 0.44993, 0.162045l 0.44993, 0.161669l 0.44993, 0.161293l 0.44993, 0.160916l 0.44993, 0.16054l 0.44993, 0.160163l 0.44993, 0.159787l 0.44993, 0.159411l 0.44993, 0.159034l 0.44993, 0.158658l 0.44993, 0.158282l 0.44993,
 0.157905l 0.44993, 0.157529l 0.44993, 0.157152l 0.44993, 0.156776l 0.44993, 0.1564l 0.44993, 0.156023l 0.44993, 0.155647l 0.44993, 0.155271l 0.44993, 0.154894l 0.44993, 0.154518l 0.44993, 0.154141l 0.44993, 0.153765" fill="none" stroke="#ff0066"
 stroke-width="3"/>
<path d="M164.891,244.392l 0.44993, 0.153389l 0.44993, 0.153012l 0.44993, 0.152636l 0.44993, 0.15226l 0.44993, 0.151883l 0.44993, 0.151507l 0.44993, 0.15113l 0.44993, 0.150754l 0.44993, 0.150378l 0.44993, 0.150001l 0.44993, 0.149625l 0.44993,
 0.149249l 0.44993, 0.148872l 0.44993, 0.148496l 0.44993, 0.148119l 0.44993, 0.147743l 0.44993, 0.147367l 0.44993, 0.14699l 0.44993, 0.146614l 0.44993, 0.146238l 0.44993, 0.145861l 0.44993, 0.145485l 0.44993, 0.145108l 0.44993, 0.144732l 0.44993,
 0.144356l 0.44993, 0.143979l 0.44993, 0.143603l 0.44993, 0.143227l 0.44993, 0.14285l 0.44993, 0.142474l 0.44993, 0.142097l 0.44993, 0.141721l 0.44993, 0.141345l 0.44993, 0.140968l 0.44993, 0.140592l 0.44993, 0.140216l 0.44993, 0.139839l 0.44993,
 0.139463l 0.44993, 0.139086l 0.44993, 0.13871l 0.44993, 0.138334l 0.44993, 0.137957l 0.44993, 0.137581l 0.44993, 0.137205l 0.44993, 0.136828l 0.44993, 0.136452l 0.44993, 0.136075l 0.44993, 0.135699l 0.44993, 0.135323" fill="none" stroke="#ff0066"
 stroke-width="3"/>
<path d="M186.938,251.466l 0.44993, 0.134946l 0.44993, 0.13457l 0.44993, 0.134194l 0.44993, 0.133817l 0.44993, 0.133441l 0.44993, 0.133064l 0.44993, 0.132688l 0.44993, 0.132312l 0.44993, 0.131935l 0.44993, 0.131559l 0.44993, 0.131183l 0.44993,
 0.130806l 0.44993, 0.13043l 0.44993, 0.130053l 0.44993, 0.129677l 0.44993, 0.129301l 0.44993, 0.128924l 0.44993, 0.128548l 0.44993, 0.128172l 0.44993, 0.127795l 0.44993, 0.127419l 0.44993, 0.127042l 0.44993, 0.126666l 0.44993, 0.12629l 0.44993,
 0.125913l 0.44993, 0.125537l 0.44993, 0.125161l 0.44993, 0.124784l 0.44993, 0.124408l 0.44993, 0.124031l 0.44993, 0.123655l 0.44993, 0.123279l 0.44993, 0.122902l 0.44993, 0.122526l 0.44993, 0.12215l 0.44993, 0.121773l 0.44993, 0.121397l 0.44993,
 0.12102l 0.44993, 0.120644l 0.44993, 0.120268l 0.44993, 0.119891l 0.44993, 0.119515l 0.44993, 0.119139l 0.44993, 0.118762l 0.44993, 0.118386l 0.44993, 0.118009l 0.44993, 0.117633l 0.44993, 0.117257l 0.44993, 0.11688" fill="none" stroke="#ff0066"
 stroke-width="3"/>
<path d="M208.985,257.635l 0.44993, 0.116504l 0.44993, 0.116128l 0.44993, 0.115751l 0.44993, 0.115375l 0.44993, 0.114998l 0.44993, 0.114622l 0.44993, 0.114246l 0.44993, 0.113869l 0.44993, 0.113493l 0.44993, 0.113117l 0.44993, 0.11274l 0.44993,
 0.112364l 0.44993, 0.111987l 0.44993, 0.111611l 0.44993, 0.111235l 0.44993, 0.110858l 0.44993, 0.110482l 0.44993, 0.110106l 0.44993, 0.109729l 0.44993, 0.109353l 0.44993, 0.108976l 0.44993, 0.1086l 0.44993, 0.108224l 0.44993, 0.107847l 0.44993,
 0.107471l 0.44993, 0.107095l 0.44993, 0.106718l 0.44993, 0.106342l 0.44993, 0.105965l 0.44993, 0.105589l 0.44993, 0.105213l 0.44993, 0.104836l 0.44993, 0.10446l 0.44993, 0.104084l 0.44993, 0.103707l 0.44993, 0.103331l 0.44993, 0.102954l 0.44993,
 0.102578l 0.44993, 0.102202l 0.44993, 0.101825l 0.44993, 0.101449l 0.44993, 0.101073l 0.44993, 0.100696l 0.44993, 0.10032l 0.44993, 0.0999434l 0.44993, 0.0995671l 0.44993, 0.0991907l 0.44993, 0.0988143l 0.44993, 0.0984379" fill="none"
 stroke="#ff0066" stroke-width="3"/>
<path d="M231.031,262.901l 0.44993, 0.0980616l 0.44993, 0.0976852l 0.44993, 0.0973088l 0.44993, 0.0969324l 0.44993, 0.0965561l 0.44993, 0.0961797l 0.44993, 0.0958033l 0.44993, 0.0954269l 0.44993, 0.0950506l 0.44993, 0.0946742l 0.44993, 0.0942978l
 0.44993, 0.0939214l 0.44993, 0.0935451l 0.44993, 0.0931687l 0.44993, 0.0927923l 0.44993, 0.0924159l 0.44993, 0.0920396l 0.44993, 0.0916632l 0.44993, 0.0912868l 0.44993, 0.0909104l 0.44993, 0.0905341l 0.44993, 0.0901577l 0.44993, 0.0897813l 0.44993,
 0.0894049l 0.44993, 0.0890286l 0.44993, 0.0886522l 0.44993, 0.0882758l 0.44993, 0.0878994l 0.44993, 0.0875231l 0.44993, 0.0871467l 0.44993, 0.0867703l 0.44993, 0.0863939l 0.44993, 0.0860176l 0.44993, 0.0856412l 0.44993, 0.0852648l 0.44993,
 0.0848884l 0.44993, 0.0845121l 0.44993, 0.0841357l 0.44993, 0.0837593l 0.44993, 0.0833829l 0.44993, 0.0830066l 0.44993, 0.0826302l 0.44993, 0.0822538l 0.44993, 0.0818774l 0.44993, 0.0815011l 0.44993, 0.0811247l 0.44993, 0.0807483l 0.44993,
 0.0803719l 0.44993, 0.0799956" fill="none" stroke="#ff0066" stroke-width="3"/>
<path d="M253.078,267.264l 0.44993, 0.0796192l 0.44993, 0.0792428l 0.44993, 0.0788664l 0.44993, 0.0784901l 0.44993, 0.0781137l 0.44993, 0.0777373l 0.44993, 0.0773609l 0.44993, 0.0769846l 0.44993, 0.0766082l 0.44993, 0.0762318l 0.44993, 0.0758554l
 0.44993, 0.0754791l 0.44993, 0.0751027l 0.44993, 0.0747263l 0.44993, 0.0743499l 0.44993, 0.0739736l 0.44993, 0.0735972l 0.44993, 0.0732208l 0.44993, 0.0728444l 0.44993, 0.0724681l 0.44993, 0.0720917l 0.44993, 0.0717153l 0.44993, 0.0713389l 0.44993,
 0.0709626l 0.44993, 0.0705862l 0.44993, 0.0702098l 0.44993, 0.0698334l 0.44993, 0.0694571l 0.44993, 0.0690807l 0.44993, 0.0687043l 0.44993, 0.0683279l 0.44993, 0.0679516l 0.44993, 0.0675752l 0.44993, 0.0671988l 0.44993, 0.0668224l 0.44993,
 0.0664461l 0.44993, 0.0660697l 0.44993, 0.0656933l 0.44993, 0.0653169l 0.44993, 0.0649406l 0.44993, 0.0645642l 0.44993, 0.0641878l 0.44993, 0.0638114l 0.44993, 0.0634351l 0.44993, 0.0630587l 0.44993, 0.0626823l 0.44993, 0.0623059l 0.44993,
 0.0619296l 0.44993, 0.0615532" fill="none" stroke="#ff0066" stroke-width="3"/>
<path d="M275.124,270.723l 0.44993, 0.0611768l 0.44993, 0.0608004l 0.44993, 0.0604241l 0.44993, 0.0600477l 0.44993, 0.0596713l 0.44993, 0.0592949l 0.44993, 0.0589186l 0.44993, 0.0585422l 0.44993, 0.0581658l 0.44993, 0.0577894l 0.44993, 0.0574131l
 0.44993, 0.0570367l 0.44993, 0.0566603l 0.44993, 0.0562839l 0.44993, 0.0559076l 0.44993, 0.0555312l 0.44993, 0.0551548l 0.44993, 0.0547784l 0.44993, 0.0544021l 0.44993, 0.0540257l 0.44993, 0.0536493l 0.44993, 0.0532729l 0.44993, 0.0528966l 0.44993,
 0.0525202l 0.44993, 0.0521438l 0.44993, 0.0517674l 0.44993, 0.0513911l 0.44993, 0.0510147l 0.44993, 0.0506383l 0.44993, 0.0502619l 0.44993, 0.0498856l 0.44993, 0.0495092l 0.44993, 0.0491328l 0.44993, 0.0487564l 0.44993, 0.0483801l 0.44993,
 0.0480037l 0.44993, 0.0476273l 0.44993, 0.0472509l 0.44993, 0.0468746l 0.44993, 0.0464982l 0.44993, 0.0461218l 0.44993, 0.0457454l 0.44993, 0.0453691l 0.44993, 0.0449927l 0.44993, 0.0446163l 0.44993, 0.0442399l 0.44993, 0.0438636l 0.44993,
 0.0434872l 0.44993, 0.0431108" fill="none" stroke="#ff0066" stroke-width="3"/>
<path d="M297.171,273.278l 0.44993, 0.0427344l 0.44993, 0.0423581l 0.44993, 0.0419817l 0.44993, 0.0416053l 0.44993, 0.0412289l 0.44993, 0.0408526l 0.44993, 0.0404762l 0.44993, 0.0400998l 0.44993, 0.0397234l 0.44993, 0.0393471l 0.44993, 0.0389707l
 0.44993, 0.0385943l 0.44993, 0.0382179l 0.44993, 0.0378416l 0.44993, 0.0374652l 0.44993, 0.0370888l 0.44993, 0.0367124l 0.44993, 0.0363361l 0.44993, 0.0359597l 0.44993, 0.0355833l 0.44993, 0.0352069l 0.44993, 0.0348306l 0.44993, 0.0344542l 0.44993,
 0.0340778l 0.44993, 0.0337014l 0.44993, 0.0333251l 0.44993, 0.0329487l 0.44993, 0.0325723l 0.44993, 0.0321959l 0.44993, 0.0318196l 0.44993, 0.0314432l 0.44993, 0.0310668l 0.44993, 0.0306904l 0.44993, 0.0303141l 0.44993, 0.0299377l 0.44993,
 0.0295613l 0.44993, 0.0291849l 0.44993, 0.0288086l 0.44993, 0.0284322l 0.44993, 0.0280558l 0.44993, 0.0276794l 0.44993, 0.0273031l 0.44993, 0.0269267l 0.44993, 0.0265503l 0.44993, 0.0261739l 0.44993, 0.0257976l 0.44993, 0.0254212l 0.44993,
 0.0250448l 0.44993, 0.0246684" fill="none" stroke="#ff0066" stroke-width="3"/>
<path d="M319.217,274.929l 0.44993, 0.0242921l 0.44993, 0.0239157l 0.44993, 0.0235393l 0.44993, 0.0231629l 0.44993, 0.0227866l 0.44993, 0.0224102l 0.44993, 0.0220338l 0.44993, 0.0216574l 0.44993, 0.0212811l 0.44993, 0.0209047l 0.44993, 0.0205283l
 0.44993, 0.0201519l 0.44993, 0.0197756l 0.44993, 0.0193992l 0.44993, 0.0190228l 0.44993, 0.0186464l 0.44993, 0.0182701l 0.44993, 0.0178937l 0.44993, 0.0175173l 0.44993, 0.0171409l 0.44993, 0.0167646l 0.44993, 0.0163882l 0.44993, 0.0160118l 0.44993,
 0.0156354l 0.44993, 0.0152591l 0.44993, 0.0148827l 0.44993, 0.0145063l 0.44993, 0.01413l 0.44993, 0.0137536l 0.44993, 0.0133772l 0.44993, 0.0130008l 0.44993, 0.0126245l 0.44993, 0.0122481l 0.44993, 0.0118717l 0.44993, 0.0114953l 0.44993, 0.011119l
 0.44993, 0.0107426l 0.44993, 0.0103662l 0.44993, 0.00998983l 0.44993, 0.00961345l 0.44993, 0.00923708l 0.44993, 0.0088607l 0.44993, 0.00848433l 0.44993, 0.00810795l 0.44993, 0.00773158l 0.44993, 0.0073552l 0.44993, 0.00697883l 0.44993, 0.00660245l
 0.44993, 0.00622608" fill="none" stroke="#ff0066" stroke-width="3"/>
<path d="M341.264,275.677l 0.44993, 0.0058497l 0.44993, 0.00547333l 0.44993, 0.00509695l 0.44993, 0.00472058l 0.44993, 0.0043442l 0.44993, 0.00396783l 0.44993, 0.00359145l 0.44993, 0.00321508l 0.44993, 0.0028387l 0.44993, 0.00246233l 0.44993,
 0.00208595l 0.44993, 0.00170958l 0.44993, 0.0013332l 0.44993, 0.000956829l 0.44993, 0.000580454l 0.44993, 0.000204079l 0.44993, -0.000172296l 0.44993, -0.000548671l 0.44993, -0.000925046l 0.44993, -0.00130142l 0.44993, -0.0016778l 0.44993,
 -0.00205417l 0.44993, -0.00243055l 0.44993, -0.00280692l 0.44993, -0.0031833l 0.44993, -0.00355967l 0.44993, -0.00393604l 0.44993, -0.00431242l 0.44993, -0.00468879l 0.44993, -0.00506517l 0.44993, -0.00544154l 0.44993, -0.00581792l 0.44993,
 -0.00619429l 0.44993, -0.00657067l 0.44993, -0.00694704l 0.44993, -0.00732342l 0.44993, -0.00769979l 0.44993, -0.00807617l 0.44993, -0.00845254l 0.44993, -0.00882892l 0.44993, -0.00920529l 0.44993, -0.00958167l 0.44993, -0.00995804l 0.44993,
 -0.0103344l 0.44993, -0.0107108l 0.44993, -0.0110872l 0.44993, -0.0114635l 0.44993, -0.0118399l 0.44993, -0.0122163" fill="none" stroke="#ff0066" stroke-width="3"/>
<path d="M363.311,275.521l 0.44993, -0.0125927l 0.44993, -0.012969l 0.44993, -0.0133454l 0.44993, -0.0137218l 0.44993, -0.0140982l 0.44993, -0.0144745l 0.44993, -0.0148509l 0.44993, -0.0152273l 0.44993, -0.0156037l 0.44993, -0.01598l 0.44993,
 -0.0163564l 0.44993, -0.0167328l 0.44993, -0.0171092l 0.44993, -0.0174855l 0.44993, -0.0178619l 0.44993, -0.0182383l 0.44993, -0.0186147l 0.44993, -0.018991l 0.44993, -0.0193674l 0.44993, -0.0197438l 0.44993, -0.0201202l 0.44993, -0.0204965l
 0.44993, -0.0208729l 0.44993, -0.0212493l 0.44993, -0.0216257l 0.44993, -0.022002l 0.44993, -0.0223784l 0.44993, -0.0227548l 0.44993, -0.0231312l 0.44993, -0.0235075l 0.44993, -0.0238839l 0.44993, -0.0242603l 0.44993, -0.0246367l 0.44993, -0.025013l
 0.44993, -0.0253894l 0.44993, -0.0257658l 0.44993, -0.0261422l 0.44993, -0.0265185l 0.44993, -0.0268949l 0.44993, -0.0272713l 0.44993, -0.0276477l 0.44993, -0.028024l 0.44993, -0.0284004l 0.44993, -0.0287768l 0.44993, -0.0291532l 0.44993,
 -0.0295295l 0.44993, -0.0299059l 0.44993, -0.0302823l 0.44993, -0.0306587" fill="none" stroke="#ff0066" stroke-width="3"/>
<path d="M385.357,274.461l 0.44993, -0.031035l 0.44993, -0.0314114l 0.44993, -0.0317878l 0.44993, -0.0321642l 0.44993, -0.0325405l 0.44993, -0.0329169l 0.44993, -0.0332933l 0.44993, -0.0336697l 0.44993, -0.034046l 0.44993, -0.0344224l 0.44993,
 -0.0347988l 0.44993, -0.0351752l 0.44993, -0.0355515l 0.44993, -0.0359279l 0.44993, -0.0363043l 0.44993, -0.0366807l 0.44993, -0.037057l 0.44993, -0.0374334l 0.44993, -0.0378098l 0.44993, -0.0381862l 0.44993, -0.0385625l 0.44993, -0.0389389l
 0.44993, -0.0393153l 0.44993, -0.0396917l 0.44993, -0.040068l 0.44993, -0.0404444l 0.44993, -0.0408208l 0.44993, -0.0411972l 0.44993, -0.0415735l 0.44993, -0.0419499l 0.44993, -0.0423263l 0.44993, -0.0427027l 0.44993, -0.043079l 0.44993, -0.0434554l
 0.44993, -0.0438318l 0.44993, -0.0442082l 0.44993, -0.0445845l 0.44993, -0.0449609l 0.44993, -0.0453373l 0.44993, -0.0457137l 0.44993, -0.04609l 0.44993, -0.0464664l 0.44993, -0.0468428l 0.44993, -0.0472192l 0.44993, -0.0475955l 0.44993, -0.0479719l
 0.44993, -0.0483483l 0.44993, -0.0487247l 0.44993, -0.049101" fill="none" stroke="#ff0066" stroke-width="3"/>
<path d="M407.404,272.498l 0.44993, -0.0494774l 0.44993, -0.0498538l 0.44993, -0.0502302l 0.44993, -0.0506065l 0.44993, -0.0509829l 0.44993, -0.0513593l 0.44993, -0.0517357l 0.44993, -0.052112l 0.44993, -0.0524884l 0.44993, -0.0528648l 0.44993,
 -0.0532412l 0.44993, -0.0536175l 0.44993, -0.0539939l 0.44993, -0.0543703l 0.44993, -0.0547467l 0.44993, -0.055123l 0.44993, -0.0554994l 0.44993, -0.0558758l 0.44993, -0.0562522l 0.44993, -0.0566285l 0.44993, -0.0570049l 0.44993, -0.0573813l
 0.44993, -0.0577577l 0.44993, -0.058134l 0.44993, -0.0585104l 0.44993, -0.0588868l 0.44993, -0.0592632l 0.44993, -0.0596395l 0.44993, -0.0600159l 0.44993, -0.0603923l 0.44993, -0.0607687l 0.44993, -0.061145l 0.44993, -0.0615214l 0.44993, -0.0618978l
 0.44993, -0.0622742l 0.44993, -0.0626505l 0.44993, -0.0630269l 0.44993, -0.0634033l 0.44993, -0.0637797l 0.44993, -0.064156l 0.44993, -0.0645324l 0.44993, -0.0649088l 0.44993, -0.0652852l 0.44993, -0.0656615l 0.44993, -0.0660379l 0.44993,
 -0.0664143l 0.44993, -0.0667907l 0.44993, -0.067167l 0.44993, -0.0675434" fill="none" stroke="#ff0066" stroke-width="3"/>
<path d="M429.45,269.631l 0.44993, -0.0679198l 0.44993, -0.0682962l 0.44993, -0.0686725l 0.44993, -0.0690489l 0.44993, -0.0694253l 0.44993, -0.0698017l 0.44993, -0.070178l 0.44993, -0.0705544l 0.44993, -0.0709308l 0.44993, -0.0713072l 0.44993,
 -0.0716835l 0.44993, -0.0720599l 0.44993, -0.0724363l 0.44993, -0.0728127l 0.44993, -0.073189l 0.44993, -0.0735654l 0.44993, -0.0739418l 0.44993, -0.0743182l 0.44993, -0.0746945l 0.44993, -0.0750709l 0.44993, -0.0754473l 0.44993, -0.0758236l
 0.44993, -0.0762l 0.44993, -0.0765764l 0.44993, -0.0769528l 0.44993, -0.0773292l 0.44993, -0.0777055l 0.44993, -0.0780819l 0.44993, -0.0784583l 0.44993, -0.0788347l 0.44993, -0.079211l 0.44993, -0.0795874l 0.44993, -0.0799638l 0.44993, -0.0803402l
 0.44993, -0.0807165l 0.44993, -0.0810929l 0.44993, -0.0814693l 0.44993, -0.0818456l 0.44993, -0.082222l 0.44993, -0.0825984l 0.44993, -0.0829748l 0.44993, -0.0833512l 0.44993, -0.0837275l 0.44993, -0.0841039l 0.44993, -0.0844803l 0.44993,
 -0.0848567l 0.44993, -0.085233l 0.44993, -0.0856094l 0.44993, -0.0859858" fill="none" stroke="#ff0066" stroke-width="3"/>
<path d="M451.497,265.86l 0.44993, -0.0863621l 0.44993, -0.0867385l 0.44993, -0.0871149l 0.44993, -0.0874913l 0.44993, -0.0878676l 0.44993, -0.088244l 0.44993, -0.0886204l 0.44993, -0.0889968l 0.44993, -0.0893731l 0.44993, -0.0897495l 0.44993,
 -0.0901259l 0.44993, -0.0905023l 0.44993, -0.0908787l 0.44993, -0.091255l 0.44993, -0.0916314l 0.44993, -0.0920078l 0.44993, -0.0923841l 0.44993, -0.0927605l 0.44993, -0.0931369l 0.44993, -0.0935133l 0.44993, -0.0938896l 0.44993, -0.094266l 0.44993,
 -0.0946424l 0.44993, -0.0950188l 0.44993, -0.0953951l 0.44993, -0.0957715l 0.44993, -0.0961479l 0.44993, -0.0965243l 0.44993, -0.0969006l 0.44993, -0.097277l 0.44993, -0.0976534l 0.44993, -0.0980298l 0.44993, -0.0984061l 0.44993, -0.0987825l
 0.44993, -0.0991589l 0.44993, -0.0995353l 0.44993, -0.0999116l 0.44993, -0.100288l 0.44993, -0.100664l 0.44993, -0.101041l 0.44993, -0.101417l 0.44993, -0.101794l 0.44993, -0.10217l 0.44993, -0.102546l 0.44993, -0.102923l 0.44993, -0.103299l
 0.44993, -0.103675l 0.44993, -0.104052l 0.44993, -0.104428" fill="none" stroke="#ff0066" stroke-width="3"/>
<path d="M473.543,261.186l 0.44993, -0.104805l 0.44993, -0.105181l 0.44993, -0.105557l 0.44993, -0.105934l 0.44993, -0.10631l 0.44993, -0.106686l 0.44993, -0.107063l 0.44993, -0.107439l 0.44993, -0.107816l 0.44993, -0.108192l 0.44993, -0.108568l
 0.44993, -0.108945l 0.44993, -0.109321l 0.44993, -0.109697l 0.44993, -0.110074l 0.44993, -0.11045l 0.44993, -0.110827l 0.44993, -0.111203l 0.44993, -0.111579l 0.44993, -0.111956l 0.44993, -0.112332l 0.44993, -0.112708l 0.44993, -0.113085l 0.44993,
 -0.113461l 0.44993, -0.113838l 0.44993, -0.114214l 0.44993, -0.11459l 0.44993, -0.114967l 0.44993, -0.115343l 0.44993, -0.115719l 0.44993, -0.116096l 0.44993, -0.116472l 0.44993, -0.116849l 0.44993, -0.117225l 0.44993, -0.117601l 0.44993, -0.117978l
 0.44993, -0.118354l 0.44993, -0.11873l 0.44993, -0.119107l 0.44993, -0.119483l 0.44993, -0.11986l 0.44993, -0.120236l 0.44993, -0.120612l 0.44993, -0.120989l 0.44993, -0.121365l 0.44993, -0.121741l 0.44993, -0.122118l 0.44993, -0.122494l 0.44993,
 -0.122871" fill="none" stroke="#ff0066" stroke-width="3"/>
<path d="M495.59,255.608l 0.44993, -0.123247l 0.44993, -0.123623l 0.44993, -0.124l 0.44993, -0.124376l 0.44993, -0.124752l 0.44993, -0.125129l 0.44993, -0.125505l 0.44993, -0.125882l 0.44993, -0.126258l 0.44993, -0.126634l 0.44993, -0.127011l
 0.44993, -0.127387l 0.44993, -0.127763l 0.44993, -0.12814l 0.44993, -0.128516l 0.44993, -0.128893l 0.44993, -0.129269l 0.44993, -0.129645l 0.44993, -0.130022l 0.44993, -0.130398l 0.44993, -0.130774l 0.44993, -0.131151l 0.44993, -0.131527l 0.44993,
 -0.131904l 0.44993, -0.13228l 0.44993, -0.132656l 0.44993, -0.133033l 0.44993, -0.133409l 0.44993, -0.133785l 0.44993, -0.134162l 0.44993, -0.134538l 0.44993, -0.134915l 0.44993, -0.135291l 0.44993, -0.135667l 0.44993, -0.136044l 0.44993, -0.13642l
 0.44993, -0.136796l 0.44993, -0.137173l 0.44993, -0.137549l 0.44993, -0.137926l 0.44993, -0.138302l 0.44993, -0.138678l 0.44993, -0.139055l 0.44993, -0.139431l 0.44993, -0.139807l 0.44993, -0.140184l 0.44993, -0.14056l 0.44993, -0.140937l 0.44993,
 -0.141313" fill="none" stroke="#ff0066" stroke-width="3"/>
<path d="M517.636,249.126l 0.44993, -0.141689l 0.44993, -0.142066l 0.44993, -0.142442l 0.44993, -0.142818l 0.44993, -0.143195l 0.44993, -0.143571l 0.44993, -0.143948l 0.44993, -0.144324l 0.44993, -0.1447l 0.44993, -0.145077l 0.44993, -0.145453l
 0.44993, -0.145829l 0.44993, -0.146206l 0.44993, -0.146582l 0.44993, -0.146959l 0.44993, -0.147335l 0.44993, -0.147711l 0.44993, -0.148088l 0.44993, -0.148464l 0.44993, -0.14884l 0.44993, -0.149217l 0.44993, -0.149593l 0.44993, -0.14997l 0.44993,
 -0.150346l 0.44993, -0.150722l 0.44993, -0.151099l 0.44993, -0.151475l 0.44993, -0.151851l 0.44993, -0.152228l 0.44993, -0.152604l 0.44993, -0.152981l 0.44993, -0.153357l 0.44993, -0.153733l 0.44993, -0.15411l 0.44993, -0.154486l 0.44993, -0.154862l
 0.44993, -0.155239l 0.44993, -0.155615l 0.44993, -0.155992l 0.44993, -0.156368l 0.44993, -0.156744l 0.44993, -0.157121l 0.44993, -0.157497l 0.44993, -0.157873l 0.44993, -0.15825l 0.44993, -0.158626l 0.44993, -0.159003l 0.44993, -0.159379l 0.44993,
 -0.159755" fill="none" stroke="#ff0066" stroke-width="3"/>
<path d="M539.683,241.741l 0.44993, -0.160132l 0.44993, -0.160508l 0.44993, -0.160884l 0.44993, -0.161261l 0.44993, -0.161637l 0.44993, -0.162014l 0.44993, -0.16239l 0.44993, -0.162766l 0.44993, -0.163143l 0.44993, -0.163519l 0.44993, -0.163895l
 0.44993, -0.164272l 0.44993, -0.164648l 0.44993, -0.165025l 0.44993, -0.165401l 0.44993, -0.165777l 0.44993, -0.166154l 0.44993, -0.16653l 0.44993, -0.166906" fill="none" stroke="#ff0066" stroke-width="3"/>
<path d="M218.508,21.4167h 269.958" fill="none" stroke="#999999" stroke-width="7"/>
<text xml:space="preserve" x="360.607" y="50.7193" fill="black" font-size="16.0105" font-family="Helvetica"> with EMC</text>
<text xml:space="preserve" x="352.717" y="50.7193" fill="black" font-size="16.0105" font-family="Times">&#0947;</text>
<text xml:space="preserve" x="344.828" y="50.7193" fill="black" font-size="16.0105" font-family="Times">&#0947;</text>
<text xml:space="preserve" x="336.938" y="50.7193" fill="black" font-size="16.0105" font-family="Times">&#0947;</text>
<text xml:space="preserve" x="331.866" y="50.7193" fill="black" font-size="16.0105" font-family="Helvetica"> </text>
<text xml:space="preserve" x="316.65" y="50.7193" fill="black" font-size="16.0105" font-family="Times">&#8594;</text>
<text xml:space="preserve" x="311.578" y="50.7193" fill="black" font-size="16.0105" font-family="Helvetica"> </text>
<text xml:space="preserve" x="303.689" y="50.7193" fill="black" font-size="16.0105" font-family="Times">&#0947;</text>
<text xml:space="preserve" x="298.053" y="45.0838" fill="black" font-size="10.8403" font-family="Helvetica">0</text>
<text xml:space="preserve" x="289.6" y="50.7193" fill="black" font-size="16.0105" font-family="Times">&#0960;</text>
<text xml:space="preserve" x="284.528" y="50.7193" fill="black" font-size="16.0105" font-family="Helvetica"> </text>
<text xml:space="preserve" x="269.312" y="50.7193" fill="black" font-size="16.0105" font-family="Times">&#8594;</text>
<text xml:space="preserve" x="264.24" y="50.7193" fill="black" font-size="16.0105" font-family="Helvetica"> </text>
<text xml:space="preserve" x="252.969" y="50.7193" fill="black" font-size="16.0105" font-family="Times">&#0969;</text>
<text xml:space="preserve" x="128.989" y="50.7193" fill="black" font-size="16.0105" font-family="Helvetica"> = 13 TeV (EG1), </text>
<text xml:space="preserve" x="120.536" y="50.7193" fill="black" font-size="16.0105" font-family="Helvetica" font-style="oblique">s</text>
<path d="M114.9,41.7025l 1.69064, 9.58031" fill="none" stroke="black" stroke-width="2"/>
<path d="M116.591,51.2829l 2.25419, -14.0887" fill="none" stroke="black"/>
<path d="M118.845,37.1942h 10.1439" fill="none" stroke="black"/>
<text xml:space="preserve" x="89.5406" y="50.7193" fill="black" font-size="16.0105" font-family="Helvetica">pp </text>
<text xml:space="preserve" x="89.5406" y="85.6593" fill="black" font-size="16.0105" font-family="Helvetica">ALICE work in progress</text>
<text xml:space="preserve" x="214.085" y="120.599" fill="black" font-size="16.0105" font-family="Helvetica">) &lt; 20.0</text>
<text xml:space="preserve" x="205.068" y="120.599" fill="black" font-size="16.0105" font-family="Helvetica" font-style="oblique">c</text>
<text xml:space="preserve" x="154.912" y="120.599" fill="black" font-size="16.0105" font-family="Helvetica"> /(GeV/</text>
<text xml:space="preserve" x="148.15" y="128.489" fill="black" font-size="10.8403" font-family="Helvetica">T</text>
<text xml:space="preserve" x="138.569" y="120.599" fill="black" font-size="16.0105" font-family="Helvetica" font-style="oblique">p</text>
<text xml:space="preserve" x="133.497" y="120.599" fill="black" font-size="16.0105" font-family="Helvetica"> </text>
<text xml:space="preserve" x="125.044" y="120.599" fill="black" font-size="16.0105" font-family="Times">&#8804;</text>
<text xml:space="preserve" x="89.5406" y="120.599" fill="black" font-size="16.0105" font-family="Helvetica">18.0 </text>
<rect x="312.311" y="69.1755" width="198.425" height="113.448" fill="white"/>
<text xml:space="preserve" x="361.734" y="85.0957" fill="black" font-size="16.0105" font-family="Helvetica">ratio</text>
<path d="M319.752,80.5203h 34.7244" fill="none" stroke="black" stroke-width="2"/>
<g fill="black">
<circle cx="337.114" cy="80.5203" r="6.76257"/>
</g>
<text xml:space="preserve" x="361.734" y="108.201" fill="black" font-size="16.0105" font-family="Helvetica">peak range</text>
<path d="M319.752,103.21h 34.7244" fill="none" stroke="#333333" stroke-width="2"/>
<g stroke="#333333" stroke-width="2" fill="none">
<circle cx="337.114" cy="103.21" r="5.63548"/>
</g>
<text xml:space="preserve" x="361.734" y="130.743" fill="black" font-size="16.0105" font-family="Helvetica">background pol1</text>
<path d="M319.752,125.899h 34.7244" fill="none" stroke="#33cccc" stroke-width="3"/>
<text xml:space="preserve" x="361.734" y="153.285" fill="black" font-size="16.0105" font-family="Helvetica">background pol2</text>
<path d="M319.752,148.589h 34.7244" fill="none" stroke="#ff0066" stroke-width="3"/>
<text xml:space="preserve" x="361.734" y="175.827" fill="black" font-size="16.0105" font-family="Helvetica">param. range</text>
<path d="M319.752,171.279h 34.7244" fill="none" stroke="#999999" stroke-width="7"/></svg>
