<?xml version="1.0" standalone="no"?>
<svg width="567.429" height="553.904" viewBox="0 0 567.429 553.904" xmlns="http://www.w3.org/2000/svg" shape-rendering="crispEdges">
<title>
Data/EG1/OmegaTGPSWOPS/SameEventToBackgroundRatio_06.svg
</title>
<desc>
Creator: ROOT Version 6.20/08
CreationDate: Mon Mar 29 18:49:58 2021</desc>
<defs>
</defs>
<rect x="0.5" y="0" width="566.929" height="553.404" fill="white"/>
<rect x="68.5315" y="16.6021" width="484.724" height="481.461" fill="white"/>
<rect x="68.5315" y="16.6021" width="484.724" height="481.461" fill="none" stroke="black"/>
<rect x="68.5315" y="16.6021" width="484.724" height="481.461" fill="white"/>
<rect x="68.5315" y="16.6021" width="484.724" height="481.461" fill="none" stroke="black"/>
<g fill="black">
<circle cx="109.325" cy="498.003" r="6.76257"/>
</g>
<g fill="black">
<circle cx="114.124" cy="486.446" r="6.76257"/>
</g>
<g fill="black">
<circle cx="118.924" cy="457.878" r="6.76257"/>
</g>
<g fill="black">
<circle cx="123.723" cy="482.701" r="6.76257"/>
</g>
<g fill="black">
<circle cx="128.522" cy="471.837" r="6.76257"/>
</g>
<g fill="black">
<circle cx="133.321" cy="423.317" r="6.76257"/>
</g>
<g fill="black">
<circle cx="138.121" cy="410.845" r="6.76257"/>
</g>
<g fill="black">
<circle cx="142.92" cy="405.33" r="6.76257"/>
</g>
<g fill="black">
<circle cx="147.719" cy="401.827" r="6.76257"/>
</g>
<g fill="black">
<circle cx="152.518" cy="399.092" r="6.76257"/>
</g>
<g fill="black">
<circle cx="157.318" cy="397.152" r="6.76257"/>
</g>
<g fill="black">
<circle cx="162.117" cy="395.813" r="6.76257"/>
</g>
<g fill="black">
<circle cx="166.916" cy="394.805" r="6.76257"/>
</g>
<g fill="black">
<circle cx="171.715" cy="394.045" r="6.76257"/>
</g>
<g fill="black">
<circle cx="176.515" cy="393.332" r="6.76257"/>
</g>
<g fill="black">
<circle cx="181.314" cy="392.828" r="6.76257"/>
</g>
<g fill="black">
<circle cx="186.113" cy="391.819" r="6.76257"/>
</g>
<g fill="black">
<circle cx="190.912" cy="389.746" r="6.76257"/>
</g>
<g fill="black">
<circle cx="195.712" cy="388.869" r="6.76257"/>
</g>
<g fill="black">
<circle cx="200.511" cy="388.25" r="6.76257"/>
</g>
<g fill="black">
<circle cx="205.31" cy="387.384" r="6.76257"/>
</g>
<g fill="black">
<circle cx="210.109" cy="386.549" r="6.76257"/>
</g>
<g fill="black">
<circle cx="214.909" cy="384.827" r="6.76257"/>
</g>
<g fill="black">
<circle cx="219.708" cy="382.678" r="6.76257"/>
</g>
<g fill="black">
<circle cx="224.507" cy="380.277" r="6.76257"/>
</g>
<g fill="black">
<circle cx="229.306" cy="377.316" r="6.76257"/>
</g>
<g fill="black">
<circle cx="234.106" cy="373.751" r="6.76257"/>
</g>
<g fill="black">
<circle cx="238.905" cy="370.01" r="6.76257"/>
</g>
<g fill="black">
<circle cx="243.704" cy="367.174" r="6.76257"/>
</g>
<g fill="black">
<circle cx="248.503" cy="363.952" r="6.76257"/>
</g>
<g fill="black">
<circle cx="253.303" cy="361.564" r="6.76257"/>
</g>
<g fill="black">
<circle cx="258.102" cy="358.642" r="6.76257"/>
</g>
<g fill="black">
<circle cx="262.901" cy="356.055" r="6.76257"/>
</g>
<g fill="black">
<circle cx="267.7" cy="352.817" r="6.76257"/>
</g>
<g fill="black">
<circle cx="272.5" cy="349.666" r="6.76257"/>
</g>
<g fill="black">
<circle cx="277.299" cy="345.681" r="6.76257"/>
</g>
<g fill="black">
<circle cx="339.689" cy="308.14" r="6.76257"/>
</g>
<g fill="black">
<circle cx="344.488" cy="305.073" r="6.76257"/>
</g>
<g fill="black">
<circle cx="349.288" cy="302.928" r="6.76257"/>
</g>
<g fill="black">
<circle cx="354.087" cy="301.413" r="6.76257"/>
</g>
<g fill="black">
<circle cx="358.886" cy="296.982" r="6.76257"/>
</g>
<g fill="black">
<circle cx="363.685" cy="294.808" r="6.76257"/>
</g>
<g fill="black">
<circle cx="368.485" cy="292.803" r="6.76257"/>
</g>
<g fill="black">
<circle cx="373.284" cy="290.297" r="6.76257"/>
</g>
<g fill="black">
<circle cx="378.083" cy="286.867" r="6.76257"/>
</g>
<g fill="black">
<circle cx="382.882" cy="284.587" r="6.76257"/>
</g>
<g fill="black">
<circle cx="387.682" cy="281.265" r="6.76257"/>
</g>
<g fill="black">
<circle cx="392.481" cy="278.959" r="6.76257"/>
</g>
<g fill="black">
<circle cx="397.28" cy="274.63" r="6.76257"/>
</g>
<g fill="black">
<circle cx="402.079" cy="271.079" r="6.76257"/>
</g>
<g fill="black">
<circle cx="406.879" cy="268.48" r="6.76257"/>
</g>
<g fill="black">
<circle cx="411.678" cy="267.016" r="6.76257"/>
</g>
<g fill="black">
<circle cx="416.477" cy="263.546" r="6.76257"/>
</g>
<g fill="black">
<circle cx="421.276" cy="261.338" r="6.76257"/>
</g>
<g fill="black">
<circle cx="426.076" cy="256.902" r="6.76257"/>
</g>
<g fill="black">
<circle cx="430.875" cy="256.507" r="6.76257"/>
</g>
<g fill="black">
<circle cx="435.674" cy="253.99" r="6.76257"/>
</g>
<g fill="black">
<circle cx="440.473" cy="253.288" r="6.76257"/>
</g>
<g fill="black">
<circle cx="445.273" cy="249.301" r="6.76257"/>
</g>
<g fill="black">
<circle cx="450.072" cy="246.583" r="6.76257"/>
</g>
<g fill="black">
<circle cx="454.871" cy="246.572" r="6.76257"/>
</g>
<g fill="black">
<circle cx="459.671" cy="241.464" r="6.76257"/>
</g>
<g fill="black">
<circle cx="464.47" cy="241.763" r="6.76257"/>
</g>
<g fill="black">
<circle cx="469.269" cy="236.224" r="6.76257"/>
</g>
<g fill="black">
<circle cx="474.068" cy="232.382" r="6.76257"/>
</g>
<g fill="black">
<circle cx="478.867" cy="233.07" r="6.76257"/>
</g>
<g fill="black">
<circle cx="483.667" cy="232.167" r="6.76257"/>
</g>
<g fill="black">
<circle cx="488.466" cy="228.756" r="6.76257"/>
</g>
<g fill="black">
<circle cx="493.265" cy="226.157" r="6.76257"/>
</g>
<g fill="black">
<circle cx="498.065" cy="221.318" r="6.76257"/>
</g>
<g fill="black">
<circle cx="502.864" cy="220.872" r="6.76257"/>
</g>
<g fill="black">
<circle cx="507.663" cy="217.224" r="6.76257"/>
</g>
<g fill="black">
<circle cx="512.462" cy="219.108" r="6.76257"/>
</g>
<g fill="black">
<circle cx="517.262" cy="213.792" r="6.76257"/>
</g>
<g fill="black">
<circle cx="522.061" cy="212.073" r="6.76257"/>
</g>
<g fill="black">
<circle cx="526.86" cy="206.148" r="6.76257"/>
</g>
<g fill="black">
<circle cx="531.659" cy="207.432" r="6.76257"/>
</g>
<g fill="black">
<circle cx="536.458" cy="203.707" r="6.76257"/>
</g>
<g fill="black">
<circle cx="541.258" cy="198.012" r="6.76257"/>
</g>
<g fill="black">
<circle cx="546.057" cy="197.15" r="6.76257"/>
</g>
<path d="M68.5315,498.064h 484.724" fill="none" stroke="black"/>
<path d="M68.5315,483.869v 14.1948" fill="none" stroke="black"/>
<path d="M83.5292,490.966v 7.09741" fill="none" stroke="black"/>
<path d="M98.5268,490.966v 7.09741" fill="none" stroke="black"/>
<path d="M113.524,490.966v 7.09741" fill="none" stroke="black"/>
<path d="M128.522,483.869v 14.1948" fill="none" stroke="black"/>
<path d="M143.52,490.966v 7.09741" fill="none" stroke="black"/>
<path d="M158.517,490.966v 7.09741" fill="none" stroke="black"/>
<path d="M173.515,490.966v 7.09741" fill="none" stroke="black"/>
<path d="M188.513,483.869v 14.1948" fill="none" stroke="black"/>
<path d="M203.51,490.966v 7.09741" fill="none" stroke="black"/>
<path d="M218.508,490.966v 7.09741" fill="none" stroke="black"/>
<path d="M233.506,490.966v 7.09741" fill="none" stroke="black"/>
<path d="M248.503,483.869v 14.1948" fill="none" stroke="black"/>
<path d="M263.501,490.966v 7.09741" fill="none" stroke="black"/>
<path d="M278.499,490.966v 7.09741" fill="none" stroke="black"/>
<path d="M293.496,490.966v 7.09741" fill="none" stroke="black"/>
<path d="M308.494,483.869v 14.1948" fill="none" stroke="black"/>
<path d="M323.492,490.966v 7.09741" fill="none" stroke="black"/>
<path d="M338.489,490.966v 7.09741" fill="none" stroke="black"/>
<path d="M353.487,490.966v 7.09741" fill="none" stroke="black"/>
<path d="M368.485,483.869v 14.1948" fill="none" stroke="black"/>
<path d="M383.482,490.966v 7.09741" fill="none" stroke="black"/>
<path d="M398.48,490.966v 7.09741" fill="none" stroke="black"/>
<path d="M413.478,490.966v 7.09741" fill="none" stroke="black"/>
<path d="M428.475,483.869v 14.1948" fill="none" stroke="black"/>
<path d="M443.473,490.966v 7.09741" fill="none" stroke="black"/>
<path d="M458.471,490.966v 7.09741" fill="none" stroke="black"/>
<path d="M473.468,490.966v 7.09741" fill="none" stroke="black"/>
<path d="M488.466,483.869v 14.1948" fill="none" stroke="black"/>
<path d="M503.464,490.966v 7.09741" fill="none" stroke="black"/>
<path d="M518.461,490.966v 7.09741" fill="none" stroke="black"/>
<path d="M533.459,490.966v 7.09741" fill="none" stroke="black"/>
<path d="M548.457,483.869v 14.1948" fill="none" stroke="black"/>
<path d="M548.457,483.869v 14.1948" fill="none" stroke="black"/>
<text xml:space="preserve" x="63.6174" y="513.956" fill="black" font-size="16.0105" font-family="Helvetica">0</text>
<text xml:space="preserve" x="117.718" y="513.956" fill="black" font-size="16.0105" font-family="Helvetica">0.2</text>
<text xml:space="preserve" x="177.454" y="513.956" fill="black" font-size="16.0105" font-family="Helvetica">0.4</text>
<text xml:space="preserve" x="237.754" y="513.956" fill="black" font-size="16.0105" font-family="Helvetica">0.6</text>
<text xml:space="preserve" x="297.49" y="513.956" fill="black" font-size="16.0105" font-family="Helvetica">0.8</text>
<text xml:space="preserve" x="365.115" y="513.956" fill="black" font-size="16.0105" font-family="Helvetica">1</text>
<text xml:space="preserve" x="417.525" y="513.956" fill="black" font-size="16.0105" font-family="Helvetica">1.2</text>
<text xml:space="preserve" x="477.261" y="513.956" fill="black" font-size="16.0105" font-family="Helvetica">1.4</text>
<text xml:space="preserve" x="537.561" y="513.956" fill="black" font-size="16.0105" font-family="Helvetica">1.6</text>
<text xml:space="preserve" x="548.268" y="537.625" fill="black" font-size="16.0105" font-family="Helvetica">)</text>
<text xml:space="preserve" x="542.633" y="532.553" fill="black" font-size="10.8403" font-family="Helvetica">2</text>
<text xml:space="preserve" x="533.616" y="537.625" fill="black" font-size="16.0105" font-family="Helvetica" font-style="oblique">c</text>
<text xml:space="preserve" x="487.405" y="537.625" fill="black" font-size="16.0105" font-family="Helvetica"> (GeV/</text>
<text xml:space="preserve" x="473.317" y="542.697" fill="black" font-size="10.8403" font-family="Helvetica">inv</text>
<text xml:space="preserve" x="459.792" y="537.625" fill="black" font-size="16.0105" font-family="Helvetica" font-style="oblique">m</text>
<path d="M68.5315,16.6021h 484.724" fill="none" stroke="black"/>
<path d="M68.5315,30.7969v -14.1948" fill="none" stroke="black"/>
<path d="M83.5292,23.6995v -7.09741" fill="none" stroke="black"/>
<path d="M98.5268,23.6995v -7.09741" fill="none" stroke="black"/>
<path d="M113.524,23.6995v -7.09741" fill="none" stroke="black"/>
<path d="M128.522,30.7969v -14.1948" fill="none" stroke="black"/>
<path d="M143.52,23.6995v -7.09741" fill="none" stroke="black"/>
<path d="M158.517,23.6995v -7.09741" fill="none" stroke="black"/>
<path d="M173.515,23.6995v -7.09741" fill="none" stroke="black"/>
<path d="M188.513,30.7969v -14.1948" fill="none" stroke="black"/>
<path d="M203.51,23.6995v -7.09741" fill="none" stroke="black"/>
<path d="M218.508,23.6995v -7.09741" fill="none" stroke="black"/>
<path d="M233.506,23.6995v -7.09741" fill="none" stroke="black"/>
<path d="M248.503,30.7969v -14.1948" fill="none" stroke="black"/>
<path d="M263.501,23.6995v -7.09741" fill="none" stroke="black"/>
<path d="M278.499,23.6995v -7.09741" fill="none" stroke="black"/>
<path d="M293.496,23.6995v -7.09741" fill="none" stroke="black"/>
<path d="M308.494,30.7969v -14.1948" fill="none" stroke="black"/>
<path d="M323.492,23.6995v -7.09741" fill="none" stroke="black"/>
<path d="M338.489,23.6995v -7.09741" fill="none" stroke="black"/>
<path d="M353.487,23.6995v -7.09741" fill="none" stroke="black"/>
<path d="M368.485,30.7969v -14.1948" fill="none" stroke="black"/>
<path d="M383.482,23.6995v -7.09741" fill="none" stroke="black"/>
<path d="M398.48,23.6995v -7.09741" fill="none" stroke="black"/>
<path d="M413.478,23.6995v -7.09741" fill="none" stroke="black"/>
<path d="M428.475,30.7969v -14.1948" fill="none" stroke="black"/>
<path d="M443.473,23.6995v -7.09741" fill="none" stroke="black"/>
<path d="M458.471,23.6995v -7.09741" fill="none" stroke="black"/>
<path d="M473.468,23.6995v -7.09741" fill="none" stroke="black"/>
<path d="M488.466,30.7969v -14.1948" fill="none" stroke="black"/>
<path d="M503.464,23.6995v -7.09741" fill="none" stroke="black"/>
<path d="M518.461,23.6995v -7.09741" fill="none" stroke="black"/>
<path d="M533.459,23.6995v -7.09741" fill="none" stroke="black"/>
<path d="M548.457,30.7969v -14.1948" fill="none" stroke="black"/>
<path d="M548.457,30.7969v -14.1948" fill="none" stroke="black"/>
<path d="M68.5315,498.064v -481.461" fill="none" stroke="black"/>
<path d="M83.3283,498.064h -14.7969" fill="none" stroke="black"/>
<path d="M75.9299,482.019h -7.39843" fill="none" stroke="black"/>
<path d="M75.9299,465.974h -7.39843" fill="none" stroke="black"/>
<path d="M75.9299,449.929h -7.39843" fill="none" stroke="black"/>
<path d="M83.3283,433.884h -14.7969" fill="none" stroke="black"/>
<path d="M75.9299,417.839h -7.39843" fill="none" stroke="black"/>
<path d="M75.9299,401.794h -7.39843" fill="none" stroke="black"/>
<path d="M75.9299,385.749h -7.39843" fill="none" stroke="black"/>
<path d="M83.3283,369.704h -14.7969" fill="none" stroke="black"/>
<path d="M75.9299,353.659h -7.39843" fill="none" stroke="black"/>
<path d="M75.9299,337.614h -7.39843" fill="none" stroke="black"/>
<path d="M75.9299,321.569h -7.39843" fill="none" stroke="black"/>
<path d="M83.3283,305.524h -14.7969" fill="none" stroke="black"/>
<path d="M75.9299,289.479h -7.39843" fill="none" stroke="black"/>
<path d="M75.9299,273.434h -7.39843" fill="none" stroke="black"/>
<path d="M75.9299,257.389h -7.39843" fill="none" stroke="black"/>
<path d="M83.3283,241.344h -14.7969" fill="none" stroke="black"/>
<path d="M75.9299,225.299h -7.39843" fill="none" stroke="black"/>
<path d="M75.9299,209.254h -7.39843" fill="none" stroke="black"/>
<path d="M75.9299,193.209h -7.39843" fill="none" stroke="black"/>
<path d="M83.3283,177.164h -14.7969" fill="none" stroke="black"/>
<path d="M75.9299,161.118h -7.39843" fill="none" stroke="black"/>
<path d="M75.9299,145.074h -7.39843" fill="none" stroke="black"/>
<path d="M75.9299,129.028h -7.39843" fill="none" stroke="black"/>
<path d="M83.3283,112.983h -14.7969" fill="none" stroke="black"/>
<path d="M75.9299,96.9385h -7.39843" fill="none" stroke="black"/>
<path d="M75.9299,80.8935h -7.39843" fill="none" stroke="black"/>
<path d="M75.9299,64.8485h -7.39843" fill="none" stroke="black"/>
<path d="M83.3283,48.8035h -14.7969" fill="none" stroke="black"/>
<path d="M83.3283,48.8035h -14.7969" fill="none" stroke="black"/>
<path d="M75.9299,32.7585h -7.39843" fill="none" stroke="black"/>
<path d="M75.9299,16.7135h -7.39843" fill="none" stroke="black"/>
<text xml:space="preserve" x="56.8548" y="503.248" fill="black" font-size="16.0105" font-family="Helvetica">0</text>
<text xml:space="preserve" x="34.8764" y="439.004" fill="black" font-size="16.0105" font-family="Helvetica">0.02</text>
<text xml:space="preserve" x="34.8764" y="375.323" fill="black" font-size="16.0105" font-family="Helvetica">0.04</text>
<text xml:space="preserve" x="34.8764" y="311.078" fill="black" font-size="16.0105" font-family="Helvetica">0.06</text>
<text xml:space="preserve" x="34.8764" y="246.834" fill="black" font-size="16.0105" font-family="Helvetica">0.08</text>
<text xml:space="preserve" x="46.1474" y="182.59" fill="black" font-size="16.0105" font-family="Helvetica">0.1</text>
<text xml:space="preserve" x="34.8764" y="118.345" fill="black" font-size="16.0105" font-family="Helvetica">0.12</text>
<text xml:space="preserve" x="34.8764" y="54.1006" fill="black" font-size="16.0105" font-family="Helvetica">0.14</text>
<g transform="rotate(-90,38.2577,98.0573)">
<text xml:space="preserve" x="38.2577" y="98.0573" fill="black" font-size="16.0105" font-family="Helvetica">background</text>
</g>
<g transform="rotate(-90,21.9148,98.0573)">
<text xml:space="preserve" x="21.9148" y="98.0573" fill="black" font-size="16.0105" font-family="Helvetica">same event</text>
</g>
<path d="M24.169,98.0573l 0.563548, -81.7144" fill="none" stroke="black" stroke-width="2"/>
<path d="M553.256,498.064v -481.461" fill="none" stroke="black"/>
<path d="M538.459,498.064h 14.7969" fill="none" stroke="black"/>
<path d="M545.857,482.019h 7.39843" fill="none" stroke="black"/>
<path d="M545.857,465.974h 7.39843" fill="none" stroke="black"/>
<path d="M545.857,449.929h 7.39843" fill="none" stroke="black"/>
<path d="M538.459,433.884h 14.7969" fill="none" stroke="black"/>
<path d="M545.857,417.839h 7.39843" fill="none" stroke="black"/>
<path d="M545.857,401.794h 7.39843" fill="none" stroke="black"/>
<path d="M545.857,385.749h 7.39843" fill="none" stroke="black"/>
<path d="M538.459,369.704h 14.7969" fill="none" stroke="black"/>
<path d="M545.857,353.659h 7.39843" fill="none" stroke="black"/>
<path d="M545.857,337.614h 7.39843" fill="none" stroke="black"/>
<path d="M545.857,321.569h 7.39843" fill="none" stroke="black"/>
<path d="M538.459,305.524h 14.7969" fill="none" stroke="black"/>
<path d="M545.857,289.479h 7.39843" fill="none" stroke="black"/>
<path d="M545.857,273.434h 7.39843" fill="none" stroke="black"/>
<path d="M545.857,257.389h 7.39843" fill="none" stroke="black"/>
<path d="M538.459,241.344h 14.7969" fill="none" stroke="black"/>
<path d="M545.857,225.299h 7.39843" fill="none" stroke="black"/>
<path d="M545.857,209.254h 7.39843" fill="none" stroke="black"/>
<path d="M545.857,193.209h 7.39843" fill="none" stroke="black"/>
<path d="M538.459,177.164h 14.7969" fill="none" stroke="black"/>
<path d="M545.857,161.118h 7.39843" fill="none" stroke="black"/>
<path d="M545.857,145.074h 7.39843" fill="none" stroke="black"/>
<path d="M545.857,129.028h 7.39843" fill="none" stroke="black"/>
<path d="M538.459,112.983h 14.7969" fill="none" stroke="black"/>
<path d="M545.857,96.9385h 7.39843" fill="none" stroke="black"/>
<path d="M545.857,80.8935h 7.39843" fill="none" stroke="black"/>
<path d="M545.857,64.8485h 7.39843" fill="none" stroke="black"/>
<path d="M538.459,48.8035h 14.7969" fill="none" stroke="black"/>
<path d="M538.459,48.8035h 14.7969" fill="none" stroke="black"/>
<path d="M545.857,32.7585h 7.39843" fill="none" stroke="black"/>
<path d="M545.857,16.7135h 7.39843" fill="none" stroke="black"/>
<g stroke="#333333" stroke-width="2" fill="none">
<circle cx="282.098" cy="342.917" r="5.63548"/>
</g>
<g stroke="#333333" stroke-width="2" fill="none">
<circle cx="286.897" cy="338.797" r="5.63548"/>
</g>
<g stroke="#333333" stroke-width="2" fill="none">
<circle cx="291.697" cy="335.324" r="5.63548"/>
</g>
<g stroke="#333333" stroke-width="2" fill="none">
<circle cx="296.496" cy="331.197" r="5.63548"/>
</g>
<g stroke="#333333" stroke-width="2" fill="none">
<circle cx="301.295" cy="328.8" r="5.63548"/>
</g>
<g stroke="#333333" stroke-width="2" fill="none">
<circle cx="306.094" cy="324.143" r="5.63548"/>
</g>
<g stroke="#333333" stroke-width="2" fill="none">
<circle cx="310.894" cy="322.547" r="5.63548"/>
</g>
<g stroke="#333333" stroke-width="2" fill="none">
<circle cx="315.693" cy="321.416" r="5.63548"/>
</g>
<g stroke="#333333" stroke-width="2" fill="none">
<circle cx="320.492" cy="319.651" r="5.63548"/>
</g>
<g stroke="#333333" stroke-width="2" fill="none">
<circle cx="325.291" cy="316.284" r="5.63548"/>
</g>
<g stroke="#333333" stroke-width="2" fill="none">
<circle cx="330.091" cy="313.486" r="5.63548"/>
</g>
<g stroke="#333333" stroke-width="2" fill="none">
<circle cx="334.89" cy="310.481" r="5.63548"/>
</g>
<path d="M128.732,435.998l 0.419935, -0.251997l 0.419935, -0.251997l 0.419935, -0.251997l 0.419935, -0.251997l 0.419935, -0.251997l 0.419935, -0.251997l 0.419935, -0.251997l 0.419935, -0.251997l 0.419935, -0.251997l 0.419935, -0.251997l 0.419935,
 -0.251997l 0.419935, -0.251997l 0.419935, -0.251997l 0.419935, -0.251997l 0.419935, -0.251997l 0.419935, -0.251997l 0.419935, -0.251997l 0.419935, -0.251997l 0.419935, -0.251997l 0.419935, -0.251997l 0.419935, -0.251997l 0.419935, -0.251997l
 0.419935, -0.251997l 0.419935, -0.251997l 0.419935, -0.251997l 0.419935, -0.251997l 0.419935, -0.251997l 0.419935, -0.251997l 0.419935, -0.251997l 0.419935, -0.251997l 0.419935, -0.251997l 0.419935, -0.251997l 0.419935, -0.251997l 0.419935,
 -0.251997l 0.419935, -0.251997l 0.419935, -0.251997l 0.419935, -0.251997l 0.419935, -0.251997l 0.419935, -0.251997l 0.419935, -0.251997l 0.419935, -0.251997l 0.419935, -0.251997l 0.419935, -0.251997l 0.419935, -0.251997l 0.419935, -0.251997l
 0.419935, -0.251997l 0.419935, -0.251997l 0.419935, -0.251997l 0.419935, -0.251997" fill="none" stroke="#33cccc" stroke-width="3"/>
<path d="M149.309,423.65l 0.419935, -0.251997l 0.419935, -0.251997l 0.419935, -0.251997l 0.419935, -0.251997l 0.419935, -0.251997l 0.419935, -0.251997l 0.419935, -0.251997l 0.419935, -0.251997l 0.419935, -0.251997l 0.419935, -0.251997l 0.419935,
 -0.251997l 0.419935, -0.251997l 0.419935, -0.251997l 0.419935, -0.251997l 0.419935, -0.251997l 0.419935, -0.251997l 0.419935, -0.251997l 0.419935, -0.251997l 0.419935, -0.251997l 0.419935, -0.251997l 0.419935, -0.251997l 0.419935, -0.251997l
 0.419935, -0.251997l 0.419935, -0.251997l 0.419935, -0.251997l 0.419935, -0.251997l 0.419935, -0.251997l 0.419935, -0.251997l 0.419935, -0.251997l 0.419935, -0.251997l 0.419935, -0.251997l 0.419935, -0.251997l 0.419935, -0.251997l 0.419935,
 -0.251997l 0.419935, -0.251997l 0.419935, -0.251997l 0.419935, -0.251997l 0.419935, -0.251997l 0.419935, -0.251997l 0.419935, -0.251997l 0.419935, -0.251997l 0.419935, -0.251997l 0.419935, -0.251997l 0.419935, -0.251997l 0.419935, -0.251997l
 0.419935, -0.251997l 0.419935, -0.251997l 0.419935, -0.251997l 0.419935, -0.251997" fill="none" stroke="#33cccc" stroke-width="3"/>
<path d="M169.886,411.303l 0.419935, -0.251997l 0.419935, -0.251997l 0.419935, -0.251997l 0.419935, -0.251997l 0.419935, -0.251997l 0.419935, -0.251997l 0.419935, -0.251997l 0.419935, -0.251997l 0.419935, -0.251997l 0.419935, -0.251997l 0.419935,
 -0.251997l 0.419935, -0.251997l 0.419935, -0.251997l 0.419935, -0.251997l 0.419935, -0.251997l 0.419935, -0.251997l 0.419935, -0.251997l 0.419935, -0.251997l 0.419935, -0.251997l 0.419935, -0.251997l 0.419935, -0.251997l 0.419935, -0.251997l
 0.419935, -0.251997l 0.419935, -0.251997l 0.419935, -0.251997l 0.419935, -0.251997l 0.419935, -0.251997l 0.419935, -0.251997l 0.419935, -0.251997l 0.419935, -0.251997l 0.419935, -0.251997l 0.419935, -0.251997l 0.419935, -0.251997l 0.419935,
 -0.251997l 0.419935, -0.251997l 0.419935, -0.251997l 0.419935, -0.251997l 0.419935, -0.251997l 0.419935, -0.251997l 0.419935, -0.251997l 0.419935, -0.251997l 0.419935, -0.251997l 0.419935, -0.251997l 0.419935, -0.251997l 0.419935, -0.251997l
 0.419935, -0.251997l 0.419935, -0.251997l 0.419935, -0.251997l 0.419935, -0.251997" fill="none" stroke="#33cccc" stroke-width="3"/>
<path d="M190.462,398.955l 0.419935, -0.251997l 0.419935, -0.251997l 0.419935, -0.251997l 0.419935, -0.251997l 0.419935, -0.251997l 0.419935, -0.251997l 0.419935, -0.251997l 0.419935, -0.251997l 0.419935, -0.251997l 0.419935, -0.251997l 0.419935,
 -0.251997l 0.419935, -0.251997l 0.419935, -0.251997l 0.419935, -0.251997l 0.419935, -0.251997l 0.419935, -0.251997l 0.419935, -0.251997l 0.419935, -0.251997l 0.419935, -0.251997l 0.419935, -0.251997l 0.419935, -0.251997l 0.419935, -0.251997l
 0.419935, -0.251997l 0.419935, -0.251997l 0.419935, -0.251997l 0.419935, -0.251997l 0.419935, -0.251997l 0.419935, -0.251997l 0.419935, -0.251997l 0.419935, -0.251997l 0.419935, -0.251997l 0.419935, -0.251997l 0.419935, -0.251997l 0.419935,
 -0.251997l 0.419935, -0.251997l 0.419935, -0.251997l 0.419935, -0.251997l 0.419935, -0.251997l 0.419935, -0.251997l 0.419935, -0.251997l 0.419935, -0.251997l 0.419935, -0.251997l 0.419935, -0.251997l 0.419935, -0.251997l 0.419935, -0.251997l
 0.419935, -0.251997l 0.419935, -0.251997l 0.419935, -0.251997l 0.419935, -0.251997" fill="none" stroke="#33cccc" stroke-width="3"/>
<path d="M211.039,386.607l 0.419935, -0.251997l 0.419935, -0.251997l 0.419935, -0.251997l 0.419935, -0.251997l 0.419935, -0.251997l 0.419935, -0.251997l 0.419935, -0.251997l 0.419935, -0.251997l 0.419935, -0.251997l 0.419935, -0.251997l 0.419935,
 -0.251997l 0.419935, -0.251997l 0.419935, -0.251997l 0.419935, -0.251997l 0.419935, -0.251997l 0.419935, -0.251997l 0.419935, -0.251997l 0.419935, -0.251997l 0.419935, -0.251997l 0.419935, -0.251997l 0.419935, -0.251997l 0.419935, -0.251997l
 0.419935, -0.251997l 0.419935, -0.251997l 0.419935, -0.251997l 0.419935, -0.251997l 0.419935, -0.251997l 0.419935, -0.251997l 0.419935, -0.251997l 0.419935, -0.251997l 0.419935, -0.251997l 0.419935, -0.251997l 0.419935, -0.251997l 0.419935,
 -0.251997l 0.419935, -0.251997l 0.419935, -0.251997l 0.419935, -0.251997l 0.419935, -0.251997l 0.419935, -0.251997l 0.419935, -0.251997l 0.419935, -0.251997l 0.419935, -0.251997l 0.419935, -0.251997l 0.419935, -0.251997l 0.419935, -0.251997l
 0.419935, -0.251997l 0.419935, -0.251997l 0.419935, -0.251997l 0.419935, -0.251997" fill="none" stroke="#33cccc" stroke-width="3"/>
<path d="M231.616,374.259l 0.419935, -0.251997l 0.419935, -0.251997l 0.419935, -0.251997l 0.419935, -0.251997l 0.419935, -0.251997l 0.419935, -0.251997l 0.419935, -0.251997l 0.419935, -0.251997l 0.419935, -0.251997l 0.419935, -0.251997l 0.419935,
 -0.251997l 0.419935, -0.251997l 0.419935, -0.251997l 0.419935, -0.251997l 0.419935, -0.251997l 0.419935, -0.251997l 0.419935, -0.251997l 0.419935, -0.251997l 0.419935, -0.251997l 0.419935, -0.251997l 0.419935, -0.251997l 0.419935, -0.251997l
 0.419935, -0.251997l 0.419935, -0.251997l 0.419935, -0.251997l 0.419935, -0.251997l 0.419935, -0.251997l 0.419935, -0.251997l 0.419935, -0.251997l 0.419935, -0.251997l 0.419935, -0.251997l 0.419935, -0.251997l 0.419935, -0.251997l 0.419935,
 -0.251997l 0.419935, -0.251997l 0.419935, -0.251997l 0.419935, -0.251997l 0.419935, -0.251997l 0.419935, -0.251997l 0.419935, -0.251997l 0.419935, -0.251997l 0.419935, -0.251997l 0.419935, -0.251997l 0.419935, -0.251997l 0.419935, -0.251997l
 0.419935, -0.251997l 0.419935, -0.251997l 0.419935, -0.251997l 0.419935, -0.251997" fill="none" stroke="#33cccc" stroke-width="3"/>
<path d="M252.193,361.911l 0.419935, -0.251997l 0.419935, -0.251997l 0.419935, -0.251997l 0.419935, -0.251997l 0.419935, -0.251997l 0.419935, -0.251997l 0.419935, -0.251997l 0.419935, -0.251997l 0.419935, -0.251997l 0.419935, -0.251997l 0.419935,
 -0.251997l 0.419935, -0.251997l 0.419935, -0.251997l 0.419935, -0.251997l 0.419935, -0.251997l 0.419935, -0.251997l 0.419935, -0.251997l 0.419935, -0.251997l 0.419935, -0.251997l 0.419935, -0.251997l 0.419935, -0.251997l 0.419935, -0.251997l
 0.419935, -0.251997l 0.419935, -0.251997l 0.419935, -0.251997l 0.419935, -0.251997l 0.419935, -0.251997l 0.419935, -0.251997l 0.419935, -0.251997l 0.419935, -0.251997l 0.419935, -0.251997l 0.419935, -0.251997l 0.419935, -0.251997l 0.419935,
 -0.251997l 0.419935, -0.251997l 0.419935, -0.251997l 0.419935, -0.251997l 0.419935, -0.251997l 0.419935, -0.251997l 0.419935, -0.251997l 0.419935, -0.251997l 0.419935, -0.251997l 0.419935, -0.251997l 0.419935, -0.251997l 0.419935, -0.251997l
 0.419935, -0.251997l 0.419935, -0.251997l 0.419935, -0.251997l 0.419935, -0.251997" fill="none" stroke="#33cccc" stroke-width="3"/>
<path d="M272.77,349.563l 0.419935, -0.251997l 0.419935, -0.251997l 0.419935, -0.251997l 0.419935, -0.251997l 0.419935, -0.251997l 0.419935, -0.251997l 0.419935, -0.251997l 0.419935, -0.251997l 0.419935, -0.251997l 0.419935, -0.251997l 0.419935,
 -0.251997l 0.419935, -0.251997l 0.419935, -0.251997l 0.419935, -0.251997l 0.419935, -0.251997l 0.419935, -0.251997l 0.419935, -0.251997l 0.419935, -0.251997l 0.419935, -0.251997l 0.419935, -0.251997l 0.419935, -0.251997l 0.419935, -0.251997l
 0.419935, -0.251997l 0.419935, -0.251997l 0.419935, -0.251997l 0.419935, -0.251997l 0.419935, -0.251997l 0.419935, -0.251997l 0.419935, -0.251997l 0.419935, -0.251997l 0.419935, -0.251997l 0.419935, -0.251997l 0.419935, -0.251997l 0.419935,
 -0.251997l 0.419935, -0.251997l 0.419935, -0.251997l 0.419935, -0.251997l 0.419935, -0.251997l 0.419935, -0.251997l 0.419935, -0.251997l 0.419935, -0.251997l 0.419935, -0.251997l 0.419935, -0.251997l 0.419935, -0.251997l 0.419935, -0.251997l
 0.419935, -0.251997l 0.419935, -0.251997l 0.419935, -0.251997l 0.419935, -0.251997" fill="none" stroke="#33cccc" stroke-width="3"/>
<path d="M293.346,337.215l 0.419935, -0.251997l 0.419935, -0.251997l 0.419935, -0.251997l 0.419935, -0.251997l 0.419935, -0.251997l 0.419935, -0.251997l 0.419935, -0.251997l 0.419935, -0.251997l 0.419935, -0.251997l 0.419935, -0.251997l 0.419935,
 -0.251997l 0.419935, -0.251997l 0.419935, -0.251997l 0.419935, -0.251997l 0.419935, -0.251997l 0.419935, -0.251997l 0.419935, -0.251997l 0.419935, -0.251997l 0.419935, -0.251997l 0.419935, -0.251997l 0.419935, -0.251997l 0.419935, -0.251997l
 0.419935, -0.251997l 0.419935, -0.251997l 0.419935, -0.251997l 0.419935, -0.251997l 0.419935, -0.251997l 0.419935, -0.251997l 0.419935, -0.251997l 0.419935, -0.251997l 0.419935, -0.251997l 0.419935, -0.251997l 0.419935, -0.251997l 0.419935,
 -0.251997l 0.419935, -0.251997l 0.419935, -0.251997l 0.419935, -0.251997l 0.419935, -0.251997l 0.419935, -0.251997l 0.419935, -0.251997l 0.419935, -0.251997l 0.419935, -0.251997l 0.419935, -0.251997l 0.419935, -0.251997l 0.419935, -0.251997l
 0.419935, -0.251997l 0.419935, -0.251997l 0.419935, -0.251997l 0.419935, -0.251997" fill="none" stroke="#33cccc" stroke-width="3"/>
<path d="M313.923,324.868l 0.419935, -0.251997l 0.419935, -0.251997l 0.419935, -0.251997l 0.419935, -0.251997l 0.419935, -0.251997l 0.419935, -0.251997l 0.419935, -0.251997l 0.419935, -0.251997l 0.419935, -0.251997l 0.419935, -0.251997l 0.419935,
 -0.251997l 0.419935, -0.251997l 0.419935, -0.251997l 0.419935, -0.251997l 0.419935, -0.251997l 0.419935, -0.251997l 0.419935, -0.251997l 0.419935, -0.251997l 0.419935, -0.251997l 0.419935, -0.251997l 0.419935, -0.251997l 0.419935, -0.251997l
 0.419935, -0.251997l 0.419935, -0.251997l 0.419935, -0.251997l 0.419935, -0.251997l 0.419935, -0.251997l 0.419935, -0.251997l 0.419935, -0.251997l 0.419935, -0.251997l 0.419935, -0.251997l 0.419935, -0.251997l 0.419935, -0.251997l 0.419935,
 -0.251997l 0.419935, -0.251997l 0.419935, -0.251997l 0.419935, -0.251997l 0.419935, -0.251997l 0.419935, -0.251997l 0.419935, -0.251997l 0.419935, -0.251997l 0.419935, -0.251997l 0.419935, -0.251997l 0.419935, -0.251997l 0.419935, -0.251997l
 0.419935, -0.251997l 0.419935, -0.251997l 0.419935, -0.251997l 0.419935, -0.251997" fill="none" stroke="#33cccc" stroke-width="3"/>
<path d="M334.5,312.52l 0.419935, -0.251997l 0.419935, -0.251997l 0.419935, -0.251997l 0.419935, -0.251997l 0.419935, -0.251997l 0.419935, -0.251997l 0.419935, -0.251997l 0.419935, -0.251997l 0.419935, -0.251997l 0.419935, -0.251997l 0.419935,
 -0.251997l 0.419935, -0.251997l 0.419935, -0.251997l 0.419935, -0.251997l 0.419935, -0.251997l 0.419935, -0.251997l 0.419935, -0.251997l 0.419935, -0.251997l 0.419935, -0.251997l 0.419935, -0.251997l 0.419935, -0.251997l 0.419935, -0.251997l
 0.419935, -0.251997l 0.419935, -0.251997l 0.419935, -0.251997l 0.419935, -0.251997l 0.419935, -0.251997l 0.419935, -0.251997l 0.419935, -0.251997l 0.419935, -0.251997l 0.419935, -0.251997l 0.419935, -0.251997l 0.419935, -0.251997l 0.419935,
 -0.251997l 0.419935, -0.251997l 0.419935, -0.251997l 0.419935, -0.251997l 0.419935, -0.251997l 0.419935, -0.251997l 0.419935, -0.251997l 0.419935, -0.251997l 0.419935, -0.251997l 0.419935, -0.251997l 0.419935, -0.251997l 0.419935, -0.251997l
 0.419935, -0.251997l 0.419935, -0.251997l 0.419935, -0.251997l 0.419935, -0.251997" fill="none" stroke="#33cccc" stroke-width="3"/>
<path d="M355.077,300.172l 0.419935, -0.251997l 0.419935, -0.251997l 0.419935, -0.251997l 0.419935, -0.251997l 0.419935, -0.251997l 0.419935, -0.251997l 0.419935, -0.251997l 0.419935, -0.251997l 0.419935, -0.251997l 0.419935, -0.251997l 0.419935,
 -0.251997l 0.419935, -0.251997l 0.419935, -0.251997l 0.419935, -0.251997l 0.419935, -0.251997l 0.419935, -0.251997l 0.419935, -0.251997l 0.419935, -0.251997l 0.419935, -0.251997l 0.419935, -0.251997l 0.419935, -0.251997l 0.419935, -0.251997l
 0.419935, -0.251997l 0.419935, -0.251997l 0.419935, -0.251997l 0.419935, -0.251997l 0.419935, -0.251997l 0.419935, -0.251997l 0.419935, -0.251997l 0.419935, -0.251997l 0.419935, -0.251997l 0.419935, -0.251997l 0.419935, -0.251997l 0.419935,
 -0.251997l 0.419935, -0.251997l 0.419935, -0.251997l 0.419935, -0.251997l 0.419935, -0.251997l 0.419935, -0.251997l 0.419935, -0.251997l 0.419935, -0.251997l 0.419935, -0.251997l 0.419935, -0.251997l 0.419935, -0.251997l 0.419935, -0.251997l
 0.419935, -0.251997l 0.419935, -0.251997l 0.419935, -0.251997l 0.419935, -0.251997" fill="none" stroke="#33cccc" stroke-width="3"/>
<path d="M375.654,287.824l 0.419935, -0.251997l 0.419935, -0.251997l 0.419935, -0.251997l 0.419935, -0.251997l 0.419935, -0.251997l 0.419935, -0.251997l 0.419935, -0.251997l 0.419935, -0.251997l 0.419935, -0.251997l 0.419935, -0.251997l 0.419935,
 -0.251997l 0.419935, -0.251997l 0.419935, -0.251997l 0.419935, -0.251997l 0.419935, -0.251997l 0.419935, -0.251997l 0.419935, -0.251997l 0.419935, -0.251997l 0.419935, -0.251997l 0.419935, -0.251997l 0.419935, -0.251997l 0.419935, -0.251997l
 0.419935, -0.251997l 0.419935, -0.251997l 0.419935, -0.251997l 0.419935, -0.251997l 0.419935, -0.251997l 0.419935, -0.251997l 0.419935, -0.251997l 0.419935, -0.251997l 0.419935, -0.251997l 0.419935, -0.251997l 0.419935, -0.251997l 0.419935,
 -0.251997l 0.419935, -0.251997l 0.419935, -0.251997l 0.419935, -0.251997l 0.419935, -0.251997l 0.419935, -0.251997l 0.419935, -0.251997l 0.419935, -0.251997l 0.419935, -0.251997l 0.419935, -0.251997l 0.419935, -0.251997l 0.419935, -0.251997l
 0.419935, -0.251997l 0.419935, -0.251997l 0.419935, -0.251997l 0.419935, -0.251997" fill="none" stroke="#33cccc" stroke-width="3"/>
<path d="M396.23,275.476l 0.419935, -0.251997l 0.419935, -0.251997l 0.419935, -0.251997l 0.419935, -0.251997l 0.419935, -0.251997l 0.419935, -0.251997l 0.419935, -0.251997l 0.419935, -0.251997l 0.419935, -0.251997l 0.419935, -0.251997l 0.419935,
 -0.251997l 0.419935, -0.251997l 0.419935, -0.251997l 0.419935, -0.251997l 0.419935, -0.251997l 0.419935, -0.251997l 0.419935, -0.251997l 0.419935, -0.251997l 0.419935, -0.251997l 0.419935, -0.251997l 0.419935, -0.251997l 0.419935, -0.251997l
 0.419935, -0.251997l 0.419935, -0.251997l 0.419935, -0.251997l 0.419935, -0.251997l 0.419935, -0.251997l 0.419935, -0.251997l 0.419935, -0.251997l 0.419935, -0.251997l 0.419935, -0.251997l 0.419935, -0.251997l 0.419935, -0.251997l 0.419935,
 -0.251997l 0.419935, -0.251997l 0.419935, -0.251997l 0.419935, -0.251997l 0.419935, -0.251997l 0.419935, -0.251997l 0.419935, -0.251997l 0.419935, -0.251997l 0.419935, -0.251997l 0.419935, -0.251997l 0.419935, -0.251997l 0.419935, -0.251997l
 0.419935, -0.251997l 0.419935, -0.251997l 0.419935, -0.251997l 0.419935, -0.251997" fill="none" stroke="#33cccc" stroke-width="3"/>
<path d="M416.807,263.128l 0.419935, -0.251997l 0.419935, -0.251997l 0.419935, -0.251997l 0.419935, -0.251997l 0.419935, -0.251997l 0.419935, -0.251997l 0.419935, -0.251997l 0.419935, -0.251997l 0.419935, -0.251997l 0.419935, -0.251997l 0.419935,
 -0.251997l 0.419935, -0.251997l 0.419935, -0.251997l 0.419935, -0.251997l 0.419935, -0.251997l 0.419935, -0.251997l 0.419935, -0.251997l 0.419935, -0.251997l 0.419935, -0.251997l 0.419935, -0.251997l 0.419935, -0.251997l 0.419935, -0.251997l
 0.419935, -0.251997l 0.419935, -0.251997l 0.419935, -0.251997l 0.419935, -0.251997l 0.419935, -0.251997l 0.419935, -0.251997l 0.419935, -0.251997l 0.419935, -0.251997l 0.419935, -0.251997l 0.419935, -0.251997l 0.419935, -0.251997l 0.419935,
 -0.251997l 0.419935, -0.251997l 0.419935, -0.251997l 0.419935, -0.251997l 0.419935, -0.251997l 0.419935, -0.251997l 0.419935, -0.251997l 0.419935, -0.251997l 0.419935, -0.251997l 0.419935, -0.251997l 0.419935, -0.251997l 0.419935, -0.251997l
 0.419935, -0.251997l 0.419935, -0.251997l 0.419935, -0.251997l 0.419935, -0.251997" fill="none" stroke="#33cccc" stroke-width="3"/>
<path d="M437.384,250.781l 0.419935, -0.251997l 0.419935, -0.251997l 0.419935, -0.251997l 0.419935, -0.251997l 0.419935, -0.251997l 0.419935, -0.251997l 0.419935, -0.251997l 0.419935, -0.251997l 0.419935, -0.251997l 0.419935, -0.251997l 0.419935,
 -0.251997l 0.419935, -0.251997l 0.419935, -0.251997l 0.419935, -0.251997l 0.419935, -0.251997l 0.419935, -0.251997l 0.419935, -0.251997l 0.419935, -0.251997l 0.419935, -0.251997l 0.419935, -0.251997l 0.419935, -0.251997l 0.419935, -0.251997l
 0.419935, -0.251997l 0.419935, -0.251997l 0.419935, -0.251997l 0.419935, -0.251997l 0.419935, -0.251997l 0.419935, -0.251997l 0.419935, -0.251997l 0.419935, -0.251997l 0.419935, -0.251997l 0.419935, -0.251997l 0.419935, -0.251997l 0.419935,
 -0.251997l 0.419935, -0.251997l 0.419935, -0.251997l 0.419935, -0.251997l 0.419935, -0.251997l 0.419935, -0.251997l 0.419935, -0.251997l 0.419935, -0.251997l 0.419935, -0.251997l 0.419935, -0.251997l 0.419935, -0.251997l 0.419935, -0.251997l
 0.419935, -0.251997l 0.419935, -0.251997l 0.419935, -0.251997l 0.419935, -0.251997" fill="none" stroke="#33cccc" stroke-width="3"/>
<path d="M457.961,238.433l 0.419935, -0.251997l 0.419935, -0.251997l 0.419935, -0.251997l 0.419935, -0.251997l 0.419935, -0.251997l 0.419935, -0.251997l 0.419935, -0.251997l 0.419935, -0.251997l 0.419935, -0.251997l 0.419935, -0.251997l 0.419935,
 -0.251997l 0.419935, -0.251997l 0.419935, -0.251997l 0.419935, -0.251997l 0.419935, -0.251997l 0.419935, -0.251997l 0.419935, -0.251997l 0.419935, -0.251997l 0.419935, -0.251997l 0.419935, -0.251997l 0.419935, -0.251997l 0.419935, -0.251997l
 0.419935, -0.251997l 0.419935, -0.251997l 0.419935, -0.251997l 0.419935, -0.251997l 0.419935, -0.251997l 0.419935, -0.251997l 0.419935, -0.251997l 0.419935, -0.251997l 0.419935, -0.251997l 0.419935, -0.251997l 0.419935, -0.251997l 0.419935,
 -0.251997l 0.419935, -0.251997l 0.419935, -0.251997l 0.419935, -0.251997l 0.419935, -0.251997l 0.419935, -0.251997l 0.419935, -0.251997l 0.419935, -0.251997l 0.419935, -0.251997l 0.419935, -0.251997l 0.419935, -0.251997l 0.419935, -0.251997l
 0.419935, -0.251997l 0.419935, -0.251997l 0.419935, -0.251997l 0.419935, -0.251997" fill="none" stroke="#33cccc" stroke-width="3"/>
<path d="M478.538,226.085l 0.419935, -0.251997l 0.419935, -0.251997l 0.419935, -0.251997l 0.419935, -0.251997l 0.419935, -0.251997l 0.419935, -0.251997l 0.419935, -0.251997l 0.419935, -0.251997l 0.419935, -0.251997l 0.419935, -0.251997l 0.419935,
 -0.251997l 0.419935, -0.251997l 0.419935, -0.251997l 0.419935, -0.251997l 0.419935, -0.251997l 0.419935, -0.251997l 0.419935, -0.251997l 0.419935, -0.251997l 0.419935, -0.251997l 0.419935, -0.251997l 0.419935, -0.251997l 0.419935, -0.251997l
 0.419935, -0.251997l 0.419935, -0.251997l 0.419935, -0.251997l 0.419935, -0.251997l 0.419935, -0.251997l 0.419935, -0.251997l 0.419935, -0.251997l 0.419935, -0.251997l 0.419935, -0.251997l 0.419935, -0.251997l 0.419935, -0.251997l 0.419935,
 -0.251997l 0.419935, -0.251997l 0.419935, -0.251997l 0.419935, -0.251997l 0.419935, -0.251997l 0.419935, -0.251997l 0.419935, -0.251997l 0.419935, -0.251997l 0.419935, -0.251997l 0.419935, -0.251997l 0.419935, -0.251997l 0.419935, -0.251997l
 0.419935, -0.251997l 0.419935, -0.251997l 0.419935, -0.251997l 0.419935, -0.251997" fill="none" stroke="#33cccc" stroke-width="3"/>
<path d="M499.114,213.737l 0.419935, -0.251997l 0.419935, -0.251997l 0.419935, -0.251997l 0.419935, -0.251997l 0.419935, -0.251997l 0.419935, -0.251997l 0.419935, -0.251997l 0.419935, -0.251997l 0.419935, -0.251997l 0.419935, -0.251997l 0.419935,
 -0.251997l 0.419935, -0.251997l 0.419935, -0.251997l 0.419935, -0.251997l 0.419935, -0.251997l 0.419935, -0.251997l 0.419935, -0.251997l 0.419935, -0.251997l 0.419935, -0.251997l 0.419935, -0.251997l 0.419935, -0.251997l 0.419935, -0.251997l
 0.419935, -0.251997l 0.419935, -0.251997l 0.419935, -0.251997l 0.419935, -0.251997l 0.419935, -0.251997l 0.419935, -0.251997l 0.419935, -0.251997l 0.419935, -0.251997l 0.419935, -0.251997l 0.419935, -0.251997l 0.419935, -0.251997l 0.419935,
 -0.251997l 0.419935, -0.251997l 0.419935, -0.251997l 0.419935, -0.251997l 0.419935, -0.251997l 0.419935, -0.251997l 0.419935, -0.251997l 0.419935, -0.251997l 0.419935, -0.251997l 0.419935, -0.251997l 0.419935, -0.251997l 0.419935, -0.251997l
 0.419935, -0.251997l 0.419935, -0.251997l 0.419935, -0.251997l 0.419935, -0.251997" fill="none" stroke="#33cccc" stroke-width="3"/>
<path d="M519.691,201.389l 0.419935, -0.251997l 0.419935, -0.251997l 0.419935, -0.251997l 0.419935, -0.251997l 0.419935, -0.251997l 0.419935, -0.251997l 0.419935, -0.251997l 0.419935, -0.251997l 0.419935, -0.251997l 0.419935, -0.251997l 0.419935,
 -0.251997l 0.419935, -0.251997l 0.419935, -0.251997l 0.419935, -0.251997l 0.419935, -0.251997l 0.419935, -0.251997l 0.419935, -0.251997l 0.419935, -0.251997l 0.419935, -0.251997l 0.419935, -0.251997l 0.419935, -0.251997l 0.419935, -0.251997l
 0.419935, -0.251997l 0.419935, -0.251997l 0.419935, -0.251997l 0.419935, -0.251997l 0.419935, -0.251997l 0.419935, -0.251997l 0.419935, -0.251997l 0.419935, -0.251997l 0.419935, -0.251997l 0.419935, -0.251997l 0.419935, -0.251997l 0.419935,
 -0.251997l 0.419935, -0.251997l 0.419935, -0.251997l 0.419935, -0.251997l 0.419935, -0.251997l 0.419935, -0.251997l 0.419935, -0.251997l 0.419935, -0.251997l 0.419935, -0.251997l 0.419935, -0.251997l 0.419935, -0.251997l 0.419935, -0.251997l
 0.419935, -0.251997l 0.419935, -0.251997l 0.419935, -0.251997l 0.419935, -0.251997" fill="none" stroke="#33cccc" stroke-width="3"/>
<path d="M540.268,189.041l 0.419935, -0.251997l 0.419935, -0.251997l 0.419935, -0.251997l 0.419935, -0.251997l 0.419935, -0.251997l 0.419935, -0.251997l 0.419935, -0.251997l 0.419935, -0.251997l 0.419935, -0.251997l 0.419935, -0.251997l 0.419935,
 -0.251997l 0.419935, -0.251997l 0.419935, -0.251997l 0.419935, -0.251997l 0.419935, -0.251997l 0.419935, -0.251997l 0.419935, -0.251997l 0.419935, -0.251997l 0.419935, -0.251997" fill="none" stroke="#33cccc" stroke-width="3"/>
<path d="M128.732,439.839l 0.419935, -0.27028l 0.419935, -0.270241l 0.419935, -0.270202l 0.419935, -0.270162l 0.419935, -0.270123l 0.419935, -0.270084l 0.419935, -0.270044l 0.419935, -0.270005l 0.419935, -0.269966l 0.419935, -0.269926l 0.419935,
 -0.269887l 0.419935, -0.269847l 0.419935, -0.269808l 0.419935, -0.269769l 0.419935, -0.269729l 0.419935, -0.26969l 0.419935, -0.269651l 0.419935, -0.269611l 0.419935, -0.269572l 0.419935, -0.269533l 0.419935, -0.269493l 0.419935, -0.269454l
 0.419935, -0.269414l 0.419935, -0.269375l 0.419935, -0.269336l 0.419935, -0.269296l 0.419935, -0.269257l 0.419935, -0.269218l 0.419935, -0.269178l 0.419935, -0.269139l 0.419935, -0.2691l 0.419935, -0.26906l 0.419935, -0.269021l 0.419935, -0.268981l
 0.419935, -0.268942l 0.419935, -0.268903l 0.419935, -0.268863l 0.419935, -0.268824l 0.419935, -0.268785l 0.419935, -0.268745l 0.419935, -0.268706l 0.419935, -0.268667l 0.419935, -0.268627l 0.419935, -0.268588l 0.419935, -0.268549l 0.419935,
 -0.268509l 0.419935, -0.26847l 0.419935, -0.26843l 0.419935, -0.268391" fill="none" stroke="#ff0066" stroke-width="3"/>
<path d="M149.309,426.641l 0.419935, -0.268352l 0.419935, -0.268312l 0.419935, -0.268273l 0.419935, -0.268234l 0.419935, -0.268194l 0.419935, -0.268155l 0.419935, -0.268116l 0.419935, -0.268076l 0.419935, -0.268037l 0.419935, -0.267997l 0.419935,
 -0.267958l 0.419935, -0.267919l 0.419935, -0.267879l 0.419935, -0.26784l 0.419935, -0.267801l 0.419935, -0.267761l 0.419935, -0.267722l 0.419935, -0.267683l 0.419935, -0.267643l 0.419935, -0.267604l 0.419935, -0.267565l 0.419935, -0.267525l
 0.419935, -0.267486l 0.419935, -0.267446l 0.419935, -0.267407l 0.419935, -0.267368l 0.419935, -0.267328l 0.419935, -0.267289l 0.419935, -0.26725l 0.419935, -0.26721l 0.419935, -0.267171l 0.419935, -0.267132l 0.419935, -0.267092l 0.419935, -0.267053l
 0.419935, -0.267013l 0.419935, -0.266974l 0.419935, -0.266935l 0.419935, -0.266895l 0.419935, -0.266856l 0.419935, -0.266817l 0.419935, -0.266777l 0.419935, -0.266738l 0.419935, -0.266699l 0.419935, -0.266659l 0.419935, -0.26662l 0.419935, -0.26658l
 0.419935, -0.266541l 0.419935, -0.266502l 0.419935, -0.266462" fill="none" stroke="#ff0066" stroke-width="3"/>
<path d="M169.886,413.538l 0.419935, -0.266423l 0.419935, -0.266384l 0.419935, -0.266344l 0.419935, -0.266305l 0.419935, -0.266266l 0.419935, -0.266226l 0.419935, -0.266187l 0.419935, -0.266147l 0.419935, -0.266108l 0.419935, -0.266069l 0.419935,
 -0.266029l 0.419935, -0.26599l 0.419935, -0.265951l 0.419935, -0.265911l 0.419935, -0.265872l 0.419935, -0.265833l 0.419935, -0.265793l 0.419935, -0.265754l 0.419935, -0.265715l 0.419935, -0.265675l 0.419935, -0.265636l 0.419935, -0.265596l
 0.419935, -0.265557l 0.419935, -0.265518l 0.419935, -0.265478l 0.419935, -0.265439l 0.419935, -0.2654l 0.419935, -0.26536l 0.419935, -0.265321l 0.419935, -0.265282l 0.419935, -0.265242l 0.419935, -0.265203l 0.419935, -0.265163l 0.419935, -0.265124l
 0.419935, -0.265085l 0.419935, -0.265045l 0.419935, -0.265006l 0.419935, -0.264967l 0.419935, -0.264927l 0.419935, -0.264888l 0.419935, -0.264849l 0.419935, -0.264809l 0.419935, -0.26477l 0.419935, -0.26473l 0.419935, -0.264691l 0.419935, -0.264652l
 0.419935, -0.264612l 0.419935, -0.264573l 0.419935, -0.264534" fill="none" stroke="#ff0066" stroke-width="3"/>
<path d="M190.462,400.53l 0.419935, -0.264494l 0.419935, -0.264455l 0.419935, -0.264416l 0.419935, -0.264376l 0.419935, -0.264337l 0.419935, -0.264298l 0.419935, -0.264258l 0.419935, -0.264219l 0.419935, -0.264179l 0.419935, -0.26414l 0.419935,
 -0.264101l 0.419935, -0.264061l 0.419935, -0.264022l 0.419935, -0.263983l 0.419935, -0.263943l 0.419935, -0.263904l 0.419935, -0.263865l 0.419935, -0.263825l 0.419935, -0.263786l 0.419935, -0.263746l 0.419935, -0.263707l 0.419935, -0.263668l
 0.419935, -0.263628l 0.419935, -0.263589l 0.419935, -0.26355l 0.419935, -0.26351l 0.419935, -0.263471l 0.419935, -0.263432l 0.419935, -0.263392l 0.419935, -0.263353l 0.419935, -0.263313l 0.419935, -0.263274l 0.419935, -0.263235l 0.419935, -0.263195l
 0.419935, -0.263156l 0.419935, -0.263117l 0.419935, -0.263077l 0.419935, -0.263038l 0.419935, -0.262999l 0.419935, -0.262959l 0.419935, -0.26292l 0.419935, -0.262881l 0.419935, -0.262841l 0.419935, -0.262802l 0.419935, -0.262762l 0.419935,
 -0.262723l 0.419935, -0.262684l 0.419935, -0.262644l 0.419935, -0.262605" fill="none" stroke="#ff0066" stroke-width="3"/>
<path d="M211.039,387.616l 0.419935, -0.262566l 0.419935, -0.262526l 0.419935, -0.262487l 0.419935, -0.262448l 0.419935, -0.262408l 0.419935, -0.262369l 0.419935, -0.262329l 0.419935, -0.26229l 0.419935, -0.262251l 0.419935, -0.262211l 0.419935,
 -0.262172l 0.419935, -0.262133l 0.419935, -0.262093l 0.419935, -0.262054l 0.419935, -0.262015l 0.419935, -0.261975l 0.419935, -0.261936l 0.419935, -0.261896l 0.419935, -0.261857l 0.419935, -0.261818l 0.419935, -0.261778l 0.419935, -0.261739l
 0.419935, -0.2617l 0.419935, -0.26166l 0.419935, -0.261621l 0.419935, -0.261582l 0.419935, -0.261542l 0.419935, -0.261503l 0.419935, -0.261463l 0.419935, -0.261424l 0.419935, -0.261385l 0.419935, -0.261345l 0.419935, -0.261306l 0.419935, -0.261267l
 0.419935, -0.261227l 0.419935, -0.261188l 0.419935, -0.261149l 0.419935, -0.261109l 0.419935, -0.26107l 0.419935, -0.261031l 0.419935, -0.260991l 0.419935, -0.260952l 0.419935, -0.260912l 0.419935, -0.260873l 0.419935, -0.260834l 0.419935,
 -0.260794l 0.419935, -0.260755l 0.419935, -0.260716l 0.419935, -0.260676" fill="none" stroke="#ff0066" stroke-width="3"/>
<path d="M231.616,374.796l 0.419935, -0.260637l 0.419935, -0.260598l 0.419935, -0.260558l 0.419935, -0.260519l 0.419935, -0.260479l 0.419935, -0.26044l 0.419935, -0.260401l 0.419935, -0.260361l 0.419935, -0.260322l 0.419935, -0.260283l 0.419935,
 -0.260243l 0.419935, -0.260204l 0.419935, -0.260165l 0.419935, -0.260125l 0.419935, -0.260086l 0.419935, -0.260046l 0.419935, -0.260007l 0.419935, -0.259968l 0.419935, -0.259928l 0.419935, -0.259889l 0.419935, -0.25985l 0.419935, -0.25981l 0.419935,
 -0.259771l 0.419935, -0.259732l 0.419935, -0.259692l 0.419935, -0.259653l 0.419935, -0.259614l 0.419935, -0.259574l 0.419935, -0.259535l 0.419935, -0.259495l 0.419935, -0.259456l 0.419935, -0.259417l 0.419935, -0.259377l 0.419935, -0.259338l
 0.419935, -0.259299l 0.419935, -0.259259l 0.419935, -0.25922l 0.419935, -0.259181l 0.419935, -0.259141l 0.419935, -0.259102l 0.419935, -0.259062l 0.419935, -0.259023l 0.419935, -0.258984l 0.419935, -0.258944l 0.419935, -0.258905l 0.419935,
 -0.258866l 0.419935, -0.258826l 0.419935, -0.258787l 0.419935, -0.258748" fill="none" stroke="#ff0066" stroke-width="3"/>
<path d="M252.193,362.071l 0.419935, -0.258708l 0.419935, -0.258669l 0.419935, -0.258629l 0.419935, -0.25859l 0.419935, -0.258551l 0.419935, -0.258511l 0.419935, -0.258472l 0.419935, -0.258433l 0.419935, -0.258393l 0.419935, -0.258354l 0.419935,
 -0.258315l 0.419935, -0.258275l 0.419935, -0.258236l 0.419935, -0.258197l 0.419935, -0.258157l 0.419935, -0.258118l 0.419935, -0.258078l 0.419935, -0.258039l 0.419935, -0.258l 0.419935, -0.25796l 0.419935, -0.257921l 0.419935, -0.257882l 0.419935,
 -0.257842l 0.419935, -0.257803l 0.419935, -0.257764l 0.419935, -0.257724l 0.419935, -0.257685l 0.419935, -0.257645l 0.419935, -0.257606l 0.419935, -0.257567l 0.419935, -0.257527l 0.419935, -0.257488l 0.419935, -0.257449l 0.419935, -0.257409l
 0.419935, -0.25737l 0.419935, -0.257331l 0.419935, -0.257291l 0.419935, -0.257252l 0.419935, -0.257212l 0.419935, -0.257173l 0.419935, -0.257134l 0.419935, -0.257094l 0.419935, -0.257055l 0.419935, -0.257016l 0.419935, -0.256976l 0.419935,
 -0.256937l 0.419935, -0.256898l 0.419935, -0.256858l 0.419935, -0.256819" fill="none" stroke="#ff0066" stroke-width="3"/>
<path d="M272.77,349.441l 0.419935, -0.256779l 0.419935, -0.25674l 0.419935, -0.256701l 0.419935, -0.256661l 0.419935, -0.256622l 0.419935, -0.256583l 0.419935, -0.256543l 0.419935, -0.256504l 0.419935, -0.256465l 0.419935, -0.256425l 0.419935,
 -0.256386l 0.419935, -0.256347l 0.419935, -0.256307l 0.419935, -0.256268l 0.419935, -0.256228l 0.419935, -0.256189l 0.419935, -0.25615l 0.419935, -0.25611l 0.419935, -0.256071l 0.419935, -0.256032l 0.419935, -0.255992l 0.419935, -0.255953l 0.419935,
 -0.255914l 0.419935, -0.255874l 0.419935, -0.255835l 0.419935, -0.255795l 0.419935, -0.255756l 0.419935, -0.255717l 0.419935, -0.255677l 0.419935, -0.255638l 0.419935, -0.255599l 0.419935, -0.255559l 0.419935, -0.25552l 0.419935, -0.255481l
 0.419935, -0.255441l 0.419935, -0.255402l 0.419935, -0.255362l 0.419935, -0.255323l 0.419935, -0.255284l 0.419935, -0.255244l 0.419935, -0.255205l 0.419935, -0.255166l 0.419935, -0.255126l 0.419935, -0.255087l 0.419935, -0.255048l 0.419935,
 -0.255008l 0.419935, -0.254969l 0.419935, -0.25493l 0.419935, -0.25489" fill="none" stroke="#ff0066" stroke-width="3"/>
<path d="M293.346,336.905l 0.419935, -0.254851l 0.419935, -0.254811l 0.419935, -0.254772l 0.419935, -0.254733l 0.419935, -0.254693l 0.419935, -0.254654l 0.419935, -0.254615l 0.419935, -0.254575l 0.419935, -0.254536l 0.419935, -0.254497l 0.419935,
 -0.254457l 0.419935, -0.254418l 0.419935, -0.254378l 0.419935, -0.254339l 0.419935, -0.2543l 0.419935, -0.25426l 0.419935, -0.254221l 0.419935, -0.254182l 0.419935, -0.254142l 0.419935, -0.254103l 0.419935, -0.254064l 0.419935, -0.254024l 0.419935,
 -0.253985l 0.419935, -0.253945l 0.419935, -0.253906l 0.419935, -0.253867l 0.419935, -0.253827l 0.419935, -0.253788l 0.419935, -0.253749l 0.419935, -0.253709l 0.419935, -0.25367l 0.419935, -0.253631l 0.419935, -0.253591l 0.419935, -0.253552l
 0.419935, -0.253513l 0.419935, -0.253473l 0.419935, -0.253434l 0.419935, -0.253394l 0.419935, -0.253355l 0.419935, -0.253316l 0.419935, -0.253276l 0.419935, -0.253237l 0.419935, -0.253198l 0.419935, -0.253158l 0.419935, -0.253119l 0.419935,
 -0.25308l 0.419935, -0.25304l 0.419935, -0.253001l 0.419935, -0.252961" fill="none" stroke="#ff0066" stroke-width="3"/>
<path d="M313.923,324.464l 0.419935, -0.252922l 0.419935, -0.252883l 0.419935, -0.252843l 0.419935, -0.252804l 0.419935, -0.252765l 0.419935, -0.252725l 0.419935, -0.252686l 0.419935, -0.252647l 0.419935, -0.252607l 0.419935, -0.252568l 0.419935,
 -0.252528l 0.419935, -0.252489l 0.419935, -0.25245l 0.419935, -0.25241l 0.419935, -0.252371l 0.419935, -0.252332l 0.419935, -0.252292l 0.419935, -0.252253l 0.419935, -0.252214l 0.419935, -0.252174l 0.419935, -0.252135l 0.419935, -0.252095l 0.419935,
 -0.252056l 0.419935, -0.252017l 0.419935, -0.251977l 0.419935, -0.251938l 0.419935, -0.251899l 0.419935, -0.251859l 0.419935, -0.25182l 0.419935, -0.251781l 0.419935, -0.251741l 0.419935, -0.251702l 0.419935, -0.251663l 0.419935, -0.251623l
 0.419935, -0.251584l 0.419935, -0.251544l 0.419935, -0.251505l 0.419935, -0.251466l 0.419935, -0.251426l 0.419935, -0.251387l 0.419935, -0.251348l 0.419935, -0.251308l 0.419935, -0.251269l 0.419935, -0.25123l 0.419935, -0.25119l 0.419935, -0.251151l
 0.419935, -0.251111l 0.419935, -0.251072l 0.419935, -0.251033" fill="none" stroke="#ff0066" stroke-width="3"/>
<path d="M334.5,312.117l 0.419935, -0.250993l 0.419935, -0.250954l 0.419935, -0.250915l 0.419935, -0.250875l 0.419935, -0.250836l 0.419935, -0.250797l 0.419935, -0.250757l 0.419935, -0.250718l 0.419935, -0.250678l 0.419935, -0.250639l 0.419935,
 -0.2506l 0.419935, -0.25056l 0.419935, -0.250521l 0.419935, -0.250482l 0.419935, -0.250442l 0.419935, -0.250403l 0.419935, -0.250364l 0.419935, -0.250324l 0.419935, -0.250285l 0.419935, -0.250246l 0.419935, -0.250206l 0.419935, -0.250167l 0.419935,
 -0.250127l 0.419935, -0.250088l 0.419935, -0.250049l 0.419935, -0.250009l 0.419935, -0.24997l 0.419935, -0.249931l 0.419935, -0.249891l 0.419935, -0.249852l 0.419935, -0.249813l 0.419935, -0.249773l 0.419935, -0.249734l 0.419935, -0.249694l
 0.419935, -0.249655l 0.419935, -0.249616l 0.419935, -0.249576l 0.419935, -0.249537l 0.419935, -0.249498l 0.419935, -0.249458l 0.419935, -0.249419l 0.419935, -0.24938l 0.419935, -0.24934l 0.419935, -0.249301l 0.419935, -0.249261l 0.419935, -0.249222l
 0.419935, -0.249183l 0.419935, -0.249143l 0.419935, -0.249104" fill="none" stroke="#ff0066" stroke-width="3"/>
<path d="M355.077,299.864l 0.419935, -0.249065l 0.419935, -0.249025l 0.419935, -0.248986l 0.419935, -0.248947l 0.419935, -0.248907l 0.419935, -0.248868l 0.419935, -0.248829l 0.419935, -0.248789l 0.419935, -0.24875l 0.419935, -0.24871l 0.419935,
 -0.248671l 0.419935, -0.248632l 0.419935, -0.248592l 0.419935, -0.248553l 0.419935, -0.248514l 0.419935, -0.248474l 0.419935, -0.248435l 0.419935, -0.248396l 0.419935, -0.248356l 0.419935, -0.248317l 0.419935, -0.248277l 0.419935, -0.248238l
 0.419935, -0.248199l 0.419935, -0.248159l 0.419935, -0.24812l 0.419935, -0.248081l 0.419935, -0.248041l 0.419935, -0.248002l 0.419935, -0.247963l 0.419935, -0.247923l 0.419935, -0.247884l 0.419935, -0.247844l 0.419935, -0.247805l 0.419935,
 -0.247766l 0.419935, -0.247726l 0.419935, -0.247687l 0.419935, -0.247648l 0.419935, -0.247608l 0.419935, -0.247569l 0.419935, -0.24753l 0.419935, -0.24749l 0.419935, -0.247451l 0.419935, -0.247411l 0.419935, -0.247372l 0.419935, -0.247333l 0.419935,
 -0.247293l 0.419935, -0.247254l 0.419935, -0.247215l 0.419935, -0.247175" fill="none" stroke="#ff0066" stroke-width="3"/>
<path d="M375.654,287.707l 0.419935, -0.247136l 0.419935, -0.247097l 0.419935, -0.247057l 0.419935, -0.247018l 0.419935, -0.246979l 0.419935, -0.246939l 0.419935, -0.2469l 0.419935, -0.24686l 0.419935, -0.246821l 0.419935, -0.246782l 0.419935,
 -0.246742l 0.419935, -0.246703l 0.419935, -0.246664l 0.419935, -0.246624l 0.419935, -0.246585l 0.419935, -0.246546l 0.419935, -0.246506l 0.419935, -0.246467l 0.419935, -0.246427l 0.419935, -0.246388l 0.419935, -0.246349l 0.419935, -0.246309l
 0.419935, -0.24627l 0.419935, -0.246231l 0.419935, -0.246191l 0.419935, -0.246152l 0.419935, -0.246113l 0.419935, -0.246073l 0.419935, -0.246034l 0.419935, -0.245994l 0.419935, -0.245955l 0.419935, -0.245916l 0.419935, -0.245876l 0.419935,
 -0.245837l 0.419935, -0.245798l 0.419935, -0.245758l 0.419935, -0.245719l 0.419935, -0.24568l 0.419935, -0.24564l 0.419935, -0.245601l 0.419935, -0.245562l 0.419935, -0.245522l 0.419935, -0.245483l 0.419935, -0.245443l 0.419935, -0.245404l 0.419935,
 -0.245365l 0.419935, -0.245325l 0.419935, -0.245286l 0.419935, -0.245247" fill="none" stroke="#ff0066" stroke-width="3"/>
<path d="M396.23,275.643l 0.419935, -0.245207l 0.419935, -0.245168l 0.419935, -0.245129l 0.419935, -0.245089l 0.419935, -0.24505l 0.419935, -0.24501l 0.419935, -0.244971l 0.419935, -0.244932l 0.419935, -0.244892l 0.419935, -0.244853l 0.419935,
 -0.244814l 0.419935, -0.244774l 0.419935, -0.244735l 0.419935, -0.244696l 0.419935, -0.244656l 0.419935, -0.244617l 0.419935, -0.244577l 0.419935, -0.244538l 0.419935, -0.244499l 0.419935, -0.244459l 0.419935, -0.24442l 0.419935, -0.244381l
 0.419935, -0.244341l 0.419935, -0.244302l 0.419935, -0.244263l 0.419935, -0.244223l 0.419935, -0.244184l 0.419935, -0.244145l 0.419935, -0.244105l 0.419935, -0.244066l 0.419935, -0.244026l 0.419935, -0.243987l 0.419935, -0.243948l 0.419935,
 -0.243908l 0.419935, -0.243869l 0.419935, -0.24383l 0.419935, -0.24379l 0.419935, -0.243751l 0.419935, -0.243712l 0.419935, -0.243672l 0.419935, -0.243633l 0.419935, -0.243593l 0.419935, -0.243554l 0.419935, -0.243515l 0.419935, -0.243475l 0.419935,
 -0.243436l 0.419935, -0.243397l 0.419935, -0.243357l 0.419935, -0.243318" fill="none" stroke="#ff0066" stroke-width="3"/>
<path d="M416.807,263.674l 0.419935, -0.243279l 0.419935, -0.243239l 0.419935, -0.2432l 0.419935, -0.24316l 0.419935, -0.243121l 0.419935, -0.243082l 0.419935, -0.243042l 0.419935, -0.243003l 0.419935, -0.242964l 0.419935, -0.242924l 0.419935,
 -0.242885l 0.419935, -0.242846l 0.419935, -0.242806l 0.419935, -0.242767l 0.419935, -0.242728l 0.419935, -0.242688l 0.419935, -0.242649l 0.419935, -0.242609l 0.419935, -0.24257l 0.419935, -0.242531l 0.419935, -0.242491l 0.419935, -0.242452l
 0.419935, -0.242413l 0.419935, -0.242373l 0.419935, -0.242334l 0.419935, -0.242295l 0.419935, -0.242255l 0.419935, -0.242216l 0.419935, -0.242176l 0.419935, -0.242137l 0.419935, -0.242098l 0.419935, -0.242058l 0.419935, -0.242019l 0.419935,
 -0.24198l 0.419935, -0.24194l 0.419935, -0.241901l 0.419935, -0.241862l 0.419935, -0.241822l 0.419935, -0.241783l 0.419935, -0.241743l 0.419935, -0.241704l 0.419935, -0.241665l 0.419935, -0.241625l 0.419935, -0.241586l 0.419935, -0.241547l 0.419935,
 -0.241507l 0.419935, -0.241468l 0.419935, -0.241429l 0.419935, -0.241389" fill="none" stroke="#ff0066" stroke-width="3"/>
<path d="M437.384,251.8l 0.419935, -0.24135l 0.419935, -0.24131l 0.419935, -0.241271l 0.419935, -0.241232l 0.419935, -0.241192l 0.419935, -0.241153l 0.419935, -0.241114l 0.419935, -0.241074l 0.419935, -0.241035l 0.419935, -0.240996l 0.419935,
 -0.240956l 0.419935, -0.240917l 0.419935, -0.240878l 0.419935, -0.240838l 0.419935, -0.240799l 0.419935, -0.240759l 0.419935, -0.24072l 0.419935, -0.240681l 0.419935, -0.240641l 0.419935, -0.240602l 0.419935, -0.240563l 0.419935, -0.240523l
 0.419935, -0.240484l 0.419935, -0.240445l 0.419935, -0.240405l 0.419935, -0.240366l 0.419935, -0.240326l 0.419935, -0.240287l 0.419935, -0.240248l 0.419935, -0.240208l 0.419935, -0.240169l 0.419935, -0.24013l 0.419935, -0.24009l 0.419935, -0.240051l
 0.419935, -0.240012l 0.419935, -0.239972l 0.419935, -0.239933l 0.419935, -0.239893l 0.419935, -0.239854l 0.419935, -0.239815l 0.419935, -0.239775l 0.419935, -0.239736l 0.419935, -0.239697l 0.419935, -0.239657l 0.419935, -0.239618l 0.419935,
 -0.239579l 0.419935, -0.239539l 0.419935, -0.2395l 0.419935, -0.239461" fill="none" stroke="#ff0066" stroke-width="3"/>
<path d="M457.961,240.02l 0.419935, -0.239421l 0.419935, -0.239382l 0.419935, -0.239342l 0.419935, -0.239303l 0.419935, -0.239264l 0.419935, -0.239224l 0.419935, -0.239185l 0.419935, -0.239146l 0.419935, -0.239106l 0.419935, -0.239067l 0.419935,
 -0.239028l 0.419935, -0.238988l 0.419935, -0.238949l 0.419935, -0.238909l 0.419935, -0.23887l 0.419935, -0.238831l 0.419935, -0.238791l 0.419935, -0.238752l 0.419935, -0.238713l 0.419935, -0.238673l 0.419935, -0.238634l 0.419935, -0.238595l
 0.419935, -0.238555l 0.419935, -0.238516l 0.419935, -0.238476l 0.419935, -0.238437l 0.419935, -0.238398l 0.419935, -0.238358l 0.419935, -0.238319l 0.419935, -0.23828l 0.419935, -0.23824l 0.419935, -0.238201l 0.419935, -0.238162l 0.419935, -0.238122l
 0.419935, -0.238083l 0.419935, -0.238044l 0.419935, -0.238004l 0.419935, -0.237965l 0.419935, -0.237925l 0.419935, -0.237886l 0.419935, -0.237847l 0.419935, -0.237807l 0.419935, -0.237768l 0.419935, -0.237729l 0.419935, -0.237689l 0.419935,
 -0.23765l 0.419935, -0.237611l 0.419935, -0.237571l 0.419935, -0.237532" fill="none" stroke="#ff0066" stroke-width="3"/>
<path d="M478.538,228.335l 0.419935, -0.237492l 0.419935, -0.237453l 0.419935, -0.237414l 0.419935, -0.237374l 0.419935, -0.237335l 0.419935, -0.237296l 0.419935, -0.237256l 0.419935, -0.237217l 0.419935, -0.237178l 0.419935, -0.237138l 0.419935,
 -0.237099l 0.419935, -0.237059l 0.419935, -0.23702l 0.419935, -0.236981l 0.419935, -0.236941l 0.419935, -0.236902l 0.419935, -0.236863l 0.419935, -0.236823l 0.419935, -0.236784l 0.419935, -0.236745l 0.419935, -0.236705l 0.419935, -0.236666l
 0.419935, -0.236626l 0.419935, -0.236587l 0.419935, -0.236548l 0.419935, -0.236508l 0.419935, -0.236469l 0.419935, -0.23643l 0.419935, -0.23639l 0.419935, -0.236351l 0.419935, -0.236312l 0.419935, -0.236272l 0.419935, -0.236233l 0.419935, -0.236194l
 0.419935, -0.236154l 0.419935, -0.236115l 0.419935, -0.236075l 0.419935, -0.236036l 0.419935, -0.235997l 0.419935, -0.235957l 0.419935, -0.235918l 0.419935, -0.235879l 0.419935, -0.235839l 0.419935, -0.2358l 0.419935, -0.235761l 0.419935, -0.235721l
 0.419935, -0.235682l 0.419935, -0.235642l 0.419935, -0.235603" fill="none" stroke="#ff0066" stroke-width="3"/>
<path d="M499.114,216.744l 0.419935, -0.235564l 0.419935, -0.235524l 0.419935, -0.235485l 0.419935, -0.235446l 0.419935, -0.235406l 0.419935, -0.235367l 0.419935, -0.235328l 0.419935, -0.235288l 0.419935, -0.235249l 0.419935, -0.235209l 0.419935,
 -0.23517l 0.419935, -0.235131l 0.419935, -0.235091l 0.419935, -0.235052l 0.419935, -0.235013l 0.419935, -0.234973l 0.419935, -0.234934l 0.419935, -0.234895l 0.419935, -0.234855l 0.419935, -0.234816l 0.419935, -0.234777l 0.419935, -0.234737l
 0.419935, -0.234698l 0.419935, -0.234658l 0.419935, -0.234619l 0.419935, -0.23458l 0.419935, -0.23454l 0.419935, -0.234501l 0.419935, -0.234462l 0.419935, -0.234422l 0.419935, -0.234383l 0.419935, -0.234344l 0.419935, -0.234304l 0.419935, -0.234265l
 0.419935, -0.234225l 0.419935, -0.234186l 0.419935, -0.234147l 0.419935, -0.234107l 0.419935, -0.234068l 0.419935, -0.234029l 0.419935, -0.233989l 0.419935, -0.23395l 0.419935, -0.233911l 0.419935, -0.233871l 0.419935, -0.233832l 0.419935,
 -0.233792l 0.419935, -0.233753l 0.419935, -0.233714l 0.419935, -0.233674" fill="none" stroke="#ff0066" stroke-width="3"/>
<path d="M519.691,205.248l 0.419935, -0.233635l 0.419935, -0.233596l 0.419935, -0.233556l 0.419935, -0.233517l 0.419935, -0.233478l 0.419935, -0.233438l 0.419935, -0.233399l 0.419935, -0.23336l 0.419935, -0.23332l 0.419935, -0.233281l 0.419935,
 -0.233241l 0.419935, -0.233202l 0.419935, -0.233163l 0.419935, -0.233123l 0.419935, -0.233084l 0.419935, -0.233045l 0.419935, -0.233005l 0.419935, -0.232966l 0.419935, -0.232927l 0.419935, -0.232887l 0.419935, -0.232848l 0.419935, -0.232808l
 0.419935, -0.232769l 0.419935, -0.23273l 0.419935, -0.23269l 0.419935, -0.232651l 0.419935, -0.232612l 0.419935, -0.232572l 0.419935, -0.232533l 0.419935, -0.232494l 0.419935, -0.232454l 0.419935, -0.232415l 0.419935, -0.232375l 0.419935, -0.232336l
 0.419935, -0.232297l 0.419935, -0.232257l 0.419935, -0.232218l 0.419935, -0.232179l 0.419935, -0.232139l 0.419935, -0.2321l 0.419935, -0.232061l 0.419935, -0.232021l 0.419935, -0.231982l 0.419935, -0.231943l 0.419935, -0.231903l 0.419935, -0.231864l
 0.419935, -0.231824l 0.419935, -0.231785l 0.419935, -0.231746" fill="none" stroke="#ff0066" stroke-width="3"/>
<path d="M540.268,193.846l 0.419935, -0.231706l 0.419935, -0.231667l 0.419935, -0.231628l 0.419935, -0.231588l 0.419935, -0.231549l 0.419935, -0.23151l 0.419935, -0.23147l 0.419935, -0.231431l 0.419935, -0.231391l 0.419935, -0.231352l 0.419935,
 -0.231313l 0.419935, -0.231273l 0.419935, -0.231234l 0.419935, -0.231195l 0.419935, -0.231155l 0.419935, -0.231116l 0.419935, -0.231077l 0.419935, -0.231037l 0.419935, -0.230998" fill="none" stroke="#ff0066" stroke-width="3"/>
<path d="M248.503,21.4167h 179.972" fill="none" stroke="#999999" stroke-width="7"/>
<text xml:space="preserve" x="360.607" y="50.7193" fill="black" font-size="16.0105" font-family="Helvetica"> with EMC</text>
<text xml:space="preserve" x="352.717" y="50.7193" fill="black" font-size="16.0105" font-family="Times">&#0947;</text>
<text xml:space="preserve" x="344.828" y="50.7193" fill="black" font-size="16.0105" font-family="Times">&#0947;</text>
<text xml:space="preserve" x="336.938" y="50.7193" fill="black" font-size="16.0105" font-family="Times">&#0947;</text>
<text xml:space="preserve" x="331.866" y="50.7193" fill="black" font-size="16.0105" font-family="Helvetica"> </text>
<text xml:space="preserve" x="316.65" y="50.7193" fill="black" font-size="16.0105" font-family="Times">&#8594;</text>
<text xml:space="preserve" x="311.578" y="50.7193" fill="black" font-size="16.0105" font-family="Helvetica"> </text>
<text xml:space="preserve" x="303.689" y="50.7193" fill="black" font-size="16.0105" font-family="Times">&#0947;</text>
<text xml:space="preserve" x="298.053" y="45.0838" fill="black" font-size="10.8403" font-family="Helvetica">0</text>
<text xml:space="preserve" x="289.6" y="50.7193" fill="black" font-size="16.0105" font-family="Times">&#0960;</text>
<text xml:space="preserve" x="284.528" y="50.7193" fill="black" font-size="16.0105" font-family="Helvetica"> </text>
<text xml:space="preserve" x="269.312" y="50.7193" fill="black" font-size="16.0105" font-family="Times">&#8594;</text>
<text xml:space="preserve" x="264.24" y="50.7193" fill="black" font-size="16.0105" font-family="Helvetica"> </text>
<text xml:space="preserve" x="252.969" y="50.7193" fill="black" font-size="16.0105" font-family="Times">&#0969;</text>
<text xml:space="preserve" x="128.989" y="50.7193" fill="black" font-size="16.0105" font-family="Helvetica"> = 13 TeV (EG1), </text>
<text xml:space="preserve" x="120.536" y="50.7193" fill="black" font-size="16.0105" font-family="Helvetica" font-style="oblique">s</text>
<path d="M114.9,41.7025l 1.69064, 9.58031" fill="none" stroke="black" stroke-width="2"/>
<path d="M116.591,51.2829l 2.25419, -14.0887" fill="none" stroke="black"/>
<path d="M118.845,37.1942h 10.1439" fill="none" stroke="black"/>
<text xml:space="preserve" x="89.5406" y="50.7193" fill="black" font-size="16.0105" font-family="Helvetica">pp </text>
<text xml:space="preserve" x="89.5406" y="85.6593" fill="black" font-size="16.0105" font-family="Helvetica">ALICE work in progress</text>
<text xml:space="preserve" x="214.085" y="120.599" fill="black" font-size="16.0105" font-family="Helvetica">) &lt; 14.0</text>
<text xml:space="preserve" x="205.068" y="120.599" fill="black" font-size="16.0105" font-family="Helvetica" font-style="oblique">c</text>
<text xml:space="preserve" x="154.912" y="120.599" fill="black" font-size="16.0105" font-family="Helvetica"> /(GeV/</text>
<text xml:space="preserve" x="148.15" y="128.489" fill="black" font-size="10.8403" font-family="Helvetica">T</text>
<text xml:space="preserve" x="138.569" y="120.599" fill="black" font-size="16.0105" font-family="Helvetica" font-style="oblique">p</text>
<text xml:space="preserve" x="133.497" y="120.599" fill="black" font-size="16.0105" font-family="Helvetica"> </text>
<text xml:space="preserve" x="125.044" y="120.599" fill="black" font-size="16.0105" font-family="Times">&#8804;</text>
<text xml:space="preserve" x="89.5406" y="120.599" fill="black" font-size="16.0105" font-family="Helvetica">12.0 </text>
<rect x="312.311" y="69.1755" width="198.425" height="113.448" fill="white"/>
<text xml:space="preserve" x="361.734" y="85.0957" fill="black" font-size="16.0105" font-family="Helvetica">ratio</text>
<path d="M319.752,80.5203h 34.7244" fill="none" stroke="black" stroke-width="2"/>
<g fill="black">
<circle cx="337.114" cy="80.5203" r="6.76257"/>
</g>
<text xml:space="preserve" x="361.734" y="108.201" fill="black" font-size="16.0105" font-family="Helvetica">peak range</text>
<path d="M319.752,103.21h 34.7244" fill="none" stroke="#333333" stroke-width="2"/>
<g stroke="#333333" stroke-width="2" fill="none">
<circle cx="337.114" cy="103.21" r="5.63548"/>
</g>
<text xml:space="preserve" x="361.734" y="130.743" fill="black" font-size="16.0105" font-family="Helvetica">background pol1</text>
<path d="M319.752,125.899h 34.7244" fill="none" stroke="#33cccc" stroke-width="3"/>
<text xml:space="preserve" x="361.734" y="153.285" fill="black" font-size="16.0105" font-family="Helvetica">background pol2</text>
<path d="M319.752,148.589h 34.7244" fill="none" stroke="#ff0066" stroke-width="3"/>
<text xml:space="preserve" x="361.734" y="175.827" fill="black" font-size="16.0105" font-family="Helvetica">param. range</text>
<path d="M319.752,171.279h 34.7244" fill="none" stroke="#999999" stroke-width="7"/></svg>
