<?xml version="1.0" standalone="no"?>
<svg width="567.429" height="553.904" viewBox="0 0 567.429 553.904" xmlns="http://www.w3.org/2000/svg" shape-rendering="crispEdges">
<title>
MC/EG1/Pi0RotPS/SignalAndBackgroundFit_04.svg
</title>
<desc>
Creator: ROOT Version 6.20/08
CreationDate: Wed Mar 10 16:17:22 2021</desc>
<defs>
</defs>
<rect x="0.5" y="0" width="566.929" height="553.404" fill="white"/>
<rect x="57.1929" y="16.6021" width="496.063" height="481.461" fill="white"/>
<rect x="57.1929" y="16.6021" width="496.063" height="481.461" fill="none" stroke="black"/>
<rect x="57.1929" y="16.6021" width="496.063" height="481.461" fill="white"/>
<rect x="57.1929" y="16.6021" width="496.063" height="481.461" fill="none" stroke="black"/>
<g fill="black">
<circle cx="108.764" cy="497.764" r="6.76257"/>
</g>
<g fill="black">
<circle cx="113.675" cy="497.566" r="6.76257"/>
</g>
<g fill="black">
<circle cx="118.587" cy="497.033" r="6.76257"/>
</g>
<g fill="black">
<circle cx="123.498" cy="493.631" r="6.76257"/>
</g>
<g fill="black">
<circle cx="128.41" cy="489.864" r="6.76257"/>
</g>
<g fill="black">
<circle cx="133.321" cy="487.041" r="6.76257"/>
</g>
<g fill="black">
<circle cx="138.233" cy="454.807" r="6.76257"/>
</g>
<g fill="black">
<circle cx="143.144" cy="423.475" r="6.76257"/>
</g>
<g fill="black">
<circle cx="148.056" cy="407.138" r="6.76257"/>
</g>
<g fill="black">
<circle cx="152.967" cy="396.832" r="6.76257"/>
</g>
<g fill="black">
<circle cx="157.879" cy="387.142" r="6.76257"/>
</g>
<g fill="black">
<circle cx="162.79" cy="371.216" r="6.76257"/>
</g>
<g fill="black">
<circle cx="167.702" cy="354.71" r="6.76257"/>
</g>
<g fill="black">
<circle cx="172.614" cy="347.499" r="6.76257"/>
</g>
<g fill="black">
<circle cx="177.525" cy="333.034" r="6.76257"/>
</g>
<g fill="black">
<circle cx="182.437" cy="327.009" r="6.76257"/>
</g>
<g fill="black">
<circle cx="187.348" cy="309.742" r="6.76257"/>
</g>
<g fill="black">
<circle cx="192.26" cy="305.991" r="6.76257"/>
</g>
<g fill="black">
<circle cx="197.171" cy="297.264" r="6.76257"/>
</g>
<g fill="black">
<circle cx="202.083" cy="295.5" r="6.76257"/>
</g>
<g fill="black">
<circle cx="206.994" cy="287.246" r="6.76257"/>
</g>
<g fill="black">
<circle cx="211.906" cy="277.572" r="6.76257"/>
</g>
<g fill="black">
<circle cx="216.817" cy="269.424" r="6.76257"/>
</g>
<g fill="black">
<circle cx="221.729" cy="264.452" r="6.76257"/>
</g>
<g fill="black">
<circle cx="226.64" cy="253.311" r="6.76257"/>
</g>
<g fill="black">
<circle cx="231.552" cy="256.07" r="6.76257"/>
</g>
<g fill="black">
<circle cx="236.463" cy="248.585" r="6.76257"/>
</g>
<g fill="black">
<circle cx="241.375" cy="239.054" r="6.76257"/>
</g>
<g fill="black">
<circle cx="246.286" cy="230.973" r="6.76257"/>
</g>
<g fill="black">
<circle cx="251.198" cy="230.585" r="6.76257"/>
</g>
<g fill="black">
<circle cx="256.109" cy="241.711" r="6.76257"/>
</g>
<g fill="black">
<circle cx="261.021" cy="234.628" r="6.76257"/>
</g>
<g fill="black">
<circle cx="265.932" cy="232.524" r="6.76257"/>
</g>
<g fill="black">
<circle cx="270.844" cy="237.129" r="6.76257"/>
</g>
<g fill="black">
<circle cx="275.755" cy="245.275" r="6.76257"/>
</g>
<g fill="black">
<circle cx="280.667" cy="239.72" r="6.76257"/>
</g>
<g fill="black">
<circle cx="285.578" cy="234.575" r="6.76257"/>
</g>
<g fill="black">
<circle cx="290.49" cy="239.091" r="6.76257"/>
</g>
<g fill="black">
<circle cx="295.401" cy="231.248" r="6.76257"/>
</g>
<g fill="black">
<circle cx="300.313" cy="238.802" r="6.76257"/>
</g>
<g fill="black">
<circle cx="305.224" cy="236.573" r="6.76257"/>
</g>
<g fill="black">
<circle cx="310.136" cy="248.691" r="6.76257"/>
</g>
<g fill="black">
<circle cx="315.047" cy="261.198" r="6.76257"/>
</g>
<g fill="black">
<circle cx="319.959" cy="260.854" r="6.76257"/>
</g>
<g fill="black">
<circle cx="324.87" cy="264.415" r="6.76257"/>
</g>
<g fill="black">
<circle cx="329.782" cy="269.552" r="6.76257"/>
</g>
<g fill="black">
<circle cx="334.694" cy="273.069" r="6.76257"/>
</g>
<g fill="black">
<circle cx="339.605" cy="279.728" r="6.76257"/>
</g>
<g fill="black">
<circle cx="344.517" cy="285.228" r="6.76257"/>
</g>
<g fill="black">
<circle cx="349.428" cy="287.077" r="6.76257"/>
</g>
<g fill="black">
<circle cx="354.34" cy="293.715" r="6.76257"/>
</g>
<g fill="black">
<circle cx="359.251" cy="299.394" r="6.76257"/>
</g>
<g fill="black">
<circle cx="364.163" cy="297.845" r="6.76257"/>
</g>
<g fill="black">
<circle cx="369.074" cy="302.762" r="6.76257"/>
</g>
<g fill="black">
<circle cx="373.986" cy="306.368" r="6.76257"/>
</g>
<g fill="black">
<circle cx="378.897" cy="315.959" r="6.76257"/>
</g>
<g fill="black">
<circle cx="383.809" cy="313.139" r="6.76257"/>
</g>
<g fill="black">
<circle cx="388.72" cy="314.16" r="6.76257"/>
</g>
<g fill="black">
<circle cx="393.632" cy="323.081" r="6.76257"/>
</g>
<g fill="black">
<circle cx="398.543" cy="327.422" r="6.76257"/>
</g>
<g fill="black">
<circle cx="403.455" cy="334.479" r="6.76257"/>
</g>
<g fill="black">
<circle cx="408.366" cy="331.184" r="6.76257"/>
</g>
<g fill="black">
<circle cx="413.278" cy="339.095" r="6.76257"/>
</g>
<g fill="black">
<circle cx="418.189" cy="344.777" r="6.76257"/>
</g>
<g fill="black">
<circle cx="423.101" cy="348.775" r="6.76257"/>
</g>
<g fill="black">
<circle cx="428.012" cy="352.196" r="6.76257"/>
</g>
<g fill="black">
<circle cx="432.924" cy="350.716" r="6.76257"/>
</g>
<g fill="black">
<circle cx="437.835" cy="356.938" r="6.76257"/>
</g>
<g fill="black">
<circle cx="442.747" cy="359.664" r="6.76257"/>
</g>
<g fill="black">
<circle cx="447.658" cy="370.275" r="6.76257"/>
</g>
<g fill="black">
<circle cx="452.57" cy="369.37" r="6.76257"/>
</g>
<g fill="black">
<circle cx="457.481" cy="369.989" r="6.76257"/>
</g>
<g fill="black">
<circle cx="462.393" cy="375.025" r="6.76257"/>
</g>
<g fill="black">
<circle cx="467.304" cy="376.649" r="6.76257"/>
</g>
<g fill="black">
<circle cx="472.216" cy="382.676" r="6.76257"/>
</g>
<g fill="black">
<circle cx="477.127" cy="386.387" r="6.76257"/>
</g>
<g fill="black">
<circle cx="482.039" cy="390.125" r="6.76257"/>
</g>
<g fill="black">
<circle cx="486.95" cy="392.291" r="6.76257"/>
</g>
<g fill="black">
<circle cx="491.862" cy="396.243" r="6.76257"/>
</g>
<g fill="black">
<circle cx="496.773" cy="398.979" r="6.76257"/>
</g>
<g fill="black">
<circle cx="501.685" cy="403.122" r="6.76257"/>
</g>
<g fill="black">
<circle cx="506.597" cy="402.636" r="6.76257"/>
</g>
<g fill="black">
<circle cx="511.508" cy="402.384" r="6.76257"/>
</g>
<g fill="black">
<circle cx="516.42" cy="408.013" r="6.76257"/>
</g>
<g fill="black">
<circle cx="521.331" cy="406.943" r="6.76257"/>
</g>
<g fill="black">
<circle cx="526.243" cy="413.477" r="6.76257"/>
</g>
<g fill="black">
<circle cx="531.154" cy="416.333" r="6.76257"/>
</g>
<g fill="black">
<circle cx="536.066" cy="414.534" r="6.76257"/>
</g>
<g fill="black">
<circle cx="540.977" cy="419.709" r="6.76257"/>
</g>
<g fill="black">
<circle cx="545.889" cy="419.376" r="6.76257"/>
</g>
<path d="M57.1929,498.064h 496.063" fill="none" stroke="black"/>
<path d="M57.1929,483.537v 14.5269" fill="none" stroke="black"/>
<path d="M72.5414,490.8v 7.26343" fill="none" stroke="black"/>
<path d="M87.8899,490.8v 7.26343" fill="none" stroke="black"/>
<path d="M103.238,490.8v 7.26343" fill="none" stroke="black"/>
<path d="M118.587,483.537v 14.5269" fill="none" stroke="black"/>
<path d="M133.935,490.8v 7.26343" fill="none" stroke="black"/>
<path d="M149.284,490.8v 7.26343" fill="none" stroke="black"/>
<path d="M164.632,490.8v 7.26343" fill="none" stroke="black"/>
<path d="M179.981,483.537v 14.5269" fill="none" stroke="black"/>
<path d="M195.329,490.8v 7.26343" fill="none" stroke="black"/>
<path d="M210.678,490.8v 7.26343" fill="none" stroke="black"/>
<path d="M226.026,490.8v 7.26343" fill="none" stroke="black"/>
<path d="M241.375,483.537v 14.5269" fill="none" stroke="black"/>
<path d="M256.723,490.8v 7.26343" fill="none" stroke="black"/>
<path d="M272.072,490.8v 7.26343" fill="none" stroke="black"/>
<path d="M287.42,490.8v 7.26343" fill="none" stroke="black"/>
<path d="M302.769,483.537v 14.5269" fill="none" stroke="black"/>
<path d="M318.117,490.8v 7.26343" fill="none" stroke="black"/>
<path d="M333.466,490.8v 7.26343" fill="none" stroke="black"/>
<path d="M348.814,490.8v 7.26343" fill="none" stroke="black"/>
<path d="M364.163,483.537v 14.5269" fill="none" stroke="black"/>
<path d="M379.511,490.8v 7.26343" fill="none" stroke="black"/>
<path d="M394.86,490.8v 7.26343" fill="none" stroke="black"/>
<path d="M410.208,490.8v 7.26343" fill="none" stroke="black"/>
<path d="M425.557,483.537v 14.5269" fill="none" stroke="black"/>
<path d="M440.905,490.8v 7.26343" fill="none" stroke="black"/>
<path d="M456.253,490.8v 7.26343" fill="none" stroke="black"/>
<path d="M471.602,490.8v 7.26343" fill="none" stroke="black"/>
<path d="M486.95,483.537v 14.5269" fill="none" stroke="black"/>
<path d="M502.299,490.8v 7.26343" fill="none" stroke="black"/>
<path d="M517.647,490.8v 7.26343" fill="none" stroke="black"/>
<path d="M532.996,490.8v 7.26343" fill="none" stroke="black"/>
<path d="M548.344,483.537v 14.5269" fill="none" stroke="black"/>
<path d="M548.344,483.537v 14.5269" fill="none" stroke="black"/>
<text xml:space="preserve" x="52.3464" y="513.956" fill="black" font-size="16.0105" font-family="Helvetica">0</text>
<text xml:space="preserve" x="107.574" y="513.956" fill="black" font-size="16.0105" font-family="Helvetica">0.2</text>
<text xml:space="preserve" x="169.001" y="513.956" fill="black" font-size="16.0105" font-family="Helvetica">0.4</text>
<text xml:space="preserve" x="230.428" y="513.956" fill="black" font-size="16.0105" font-family="Helvetica">0.6</text>
<text xml:space="preserve" x="291.854" y="513.956" fill="black" font-size="16.0105" font-family="Helvetica">0.8</text>
<text xml:space="preserve" x="361.171" y="513.956" fill="black" font-size="16.0105" font-family="Helvetica">1</text>
<text xml:space="preserve" x="414.708" y="513.956" fill="black" font-size="16.0105" font-family="Helvetica">1.2</text>
<text xml:space="preserve" x="476.134" y="513.956" fill="black" font-size="16.0105" font-family="Helvetica">1.4</text>
<text xml:space="preserve" x="537.561" y="513.956" fill="black" font-size="16.0105" font-family="Helvetica">1.6</text>
<text xml:space="preserve" x="548.268" y="537.625" fill="black" font-size="16.0105" font-family="Helvetica">)</text>
<text xml:space="preserve" x="542.633" y="532.553" fill="black" font-size="10.8403" font-family="Helvetica">2</text>
<text xml:space="preserve" x="533.616" y="537.625" fill="black" font-size="16.0105" font-family="Helvetica" font-style="oblique">c</text>
<text xml:space="preserve" x="487.405" y="537.625" fill="black" font-size="16.0105" font-family="Helvetica"> (GeV/</text>
<text xml:space="preserve" x="473.317" y="542.697" fill="black" font-size="10.8403" font-family="Helvetica">inv</text>
<text xml:space="preserve" x="459.792" y="537.625" fill="black" font-size="16.0105" font-family="Helvetica" font-style="oblique">m</text>
<path d="M57.1929,16.6021h 496.063" fill="none" stroke="black"/>
<path d="M57.1929,31.129v -14.5269" fill="none" stroke="black"/>
<path d="M72.5414,23.8655v -7.26343" fill="none" stroke="black"/>
<path d="M87.8899,23.8655v -7.26343" fill="none" stroke="black"/>
<path d="M103.238,23.8655v -7.26343" fill="none" stroke="black"/>
<path d="M118.587,31.129v -14.5269" fill="none" stroke="black"/>
<path d="M133.935,23.8655v -7.26343" fill="none" stroke="black"/>
<path d="M149.284,23.8655v -7.26343" fill="none" stroke="black"/>
<path d="M164.632,23.8655v -7.26343" fill="none" stroke="black"/>
<path d="M179.981,31.129v -14.5269" fill="none" stroke="black"/>
<path d="M195.329,23.8655v -7.26343" fill="none" stroke="black"/>
<path d="M210.678,23.8655v -7.26343" fill="none" stroke="black"/>
<path d="M226.026,23.8655v -7.26343" fill="none" stroke="black"/>
<path d="M241.375,31.129v -14.5269" fill="none" stroke="black"/>
<path d="M256.723,23.8655v -7.26343" fill="none" stroke="black"/>
<path d="M272.072,23.8655v -7.26343" fill="none" stroke="black"/>
<path d="M287.42,23.8655v -7.26343" fill="none" stroke="black"/>
<path d="M302.769,31.129v -14.5269" fill="none" stroke="black"/>
<path d="M318.117,23.8655v -7.26343" fill="none" stroke="black"/>
<path d="M333.466,23.8655v -7.26343" fill="none" stroke="black"/>
<path d="M348.814,23.8655v -7.26343" fill="none" stroke="black"/>
<path d="M364.163,31.129v -14.5269" fill="none" stroke="black"/>
<path d="M379.511,23.8655v -7.26343" fill="none" stroke="black"/>
<path d="M394.86,23.8655v -7.26343" fill="none" stroke="black"/>
<path d="M410.208,23.8655v -7.26343" fill="none" stroke="black"/>
<path d="M425.557,31.129v -14.5269" fill="none" stroke="black"/>
<path d="M440.905,23.8655v -7.26343" fill="none" stroke="black"/>
<path d="M456.253,23.8655v -7.26343" fill="none" stroke="black"/>
<path d="M471.602,23.8655v -7.26343" fill="none" stroke="black"/>
<path d="M486.95,31.129v -14.5269" fill="none" stroke="black"/>
<path d="M502.299,23.8655v -7.26343" fill="none" stroke="black"/>
<path d="M517.647,23.8655v -7.26343" fill="none" stroke="black"/>
<path d="M532.996,23.8655v -7.26343" fill="none" stroke="black"/>
<path d="M548.344,31.129v -14.5269" fill="none" stroke="black"/>
<path d="M548.344,31.129v -14.5269" fill="none" stroke="black"/>
<path d="M57.1929,498.064v -481.461" fill="none" stroke="black"/>
<path d="M71.9898,498.064h -14.7969" fill="none" stroke="black"/>
<path d="M64.5913,484.159h -7.39843" fill="none" stroke="black"/>
<path d="M64.5913,470.255h -7.39843" fill="none" stroke="black"/>
<path d="M64.5913,456.351h -7.39843" fill="none" stroke="black"/>
<path d="M64.5913,442.447h -7.39843" fill="none" stroke="black"/>
<path d="M71.9898,428.543h -14.7969" fill="none" stroke="black"/>
<path d="M64.5913,414.639h -7.39843" fill="none" stroke="black"/>
<path d="M64.5913,400.734h -7.39843" fill="none" stroke="black"/>
<path d="M64.5913,386.83h -7.39843" fill="none" stroke="black"/>
<path d="M64.5913,372.926h -7.39843" fill="none" stroke="black"/>
<path d="M71.9898,359.022h -14.7969" fill="none" stroke="black"/>
<path d="M64.5913,345.118h -7.39843" fill="none" stroke="black"/>
<path d="M64.5913,331.214h -7.39843" fill="none" stroke="black"/>
<path d="M64.5913,317.309h -7.39843" fill="none" stroke="black"/>
<path d="M64.5913,303.405h -7.39843" fill="none" stroke="black"/>
<path d="M71.9898,289.501h -14.7969" fill="none" stroke="black"/>
<path d="M64.5913,275.597h -7.39843" fill="none" stroke="black"/>
<path d="M64.5913,261.693h -7.39843" fill="none" stroke="black"/>
<path d="M64.5913,247.789h -7.39843" fill="none" stroke="black"/>
<path d="M64.5913,233.884h -7.39843" fill="none" stroke="black"/>
<path d="M71.9898,219.98h -14.7969" fill="none" stroke="black"/>
<path d="M64.5913,206.076h -7.39843" fill="none" stroke="black"/>
<path d="M64.5913,192.172h -7.39843" fill="none" stroke="black"/>
<path d="M64.5913,178.268h -7.39843" fill="none" stroke="black"/>
<path d="M64.5913,164.364h -7.39843" fill="none" stroke="black"/>
<path d="M71.9898,150.459h -14.7969" fill="none" stroke="black"/>
<path d="M64.5913,136.555h -7.39843" fill="none" stroke="black"/>
<path d="M64.5913,122.651h -7.39843" fill="none" stroke="black"/>
<path d="M64.5913,108.747h -7.39843" fill="none" stroke="black"/>
<path d="M64.5913,94.8428h -7.39843" fill="none" stroke="black"/>
<path d="M71.9898,80.9387h -14.7969" fill="none" stroke="black"/>
<path d="M71.9898,80.9387h -14.7969" fill="none" stroke="black"/>
<path d="M64.5913,67.0345h -7.39843" fill="none" stroke="black"/>
<path d="M64.5913,53.1303h -7.39843" fill="none" stroke="black"/>
<path d="M64.5913,39.2262h -7.39843" fill="none" stroke="black"/>
<path d="M64.5913,25.322h -7.39843" fill="none" stroke="black"/>
<text xml:space="preserve" x="45.5838" y="503.248" fill="black" font-size="16.0105" font-family="Helvetica">0</text>
<text xml:space="preserve" x="48.4016" y="434.495" fill="black" font-size="16.0105" font-family="Helvetica">1</text>
<text xml:space="preserve" x="45.5838" y="365.179" fill="black" font-size="16.0105" font-family="Helvetica">2</text>
<text xml:space="preserve" x="45.5838" y="294.736" fill="black" font-size="16.0105" font-family="Helvetica">3</text>
<text xml:space="preserve" x="45.5838" y="225.983" fill="black" font-size="16.0105" font-family="Helvetica">4</text>
<text xml:space="preserve" x="45.5838" y="155.539" fill="black" font-size="16.0105" font-family="Helvetica">5</text>
<text xml:space="preserve" x="45.5838" y="86.2228" fill="black" font-size="16.0105" font-family="Helvetica">6</text>
<g transform="rotate(-90,22.4784,21.9784)">
<text xml:space="preserve" x="22.4784" y="21.9784" fill="black" font-size="10.8403" font-family="Times">&#0947;</text>
</g>
<g transform="rotate(-90,18.5335,25.9232)">
<text xml:space="preserve" x="18.5335" y="25.9232" fill="black" font-size="7.39355" font-family="Helvetica">0</text>
</g>
<g transform="rotate(-90,22.4784,32.1222)">
<text xml:space="preserve" x="22.4784" y="32.1222" fill="black" font-size="10.8403" font-family="Times">&#0960;</text>
</g>
<g transform="rotate(-90,17.4064,45.0838)">
<text xml:space="preserve" x="17.4064" y="45.0838" fill="black" font-size="16.0105" font-family="Helvetica" font-style="oblique">N</text>
</g>
<path d="M553.256,498.064v -481.461" fill="none" stroke="black"/>
<path d="M538.459,498.064h 14.7969" fill="none" stroke="black"/>
<path d="M545.857,484.159h 7.39843" fill="none" stroke="black"/>
<path d="M545.857,470.255h 7.39843" fill="none" stroke="black"/>
<path d="M545.857,456.351h 7.39843" fill="none" stroke="black"/>
<path d="M545.857,442.447h 7.39843" fill="none" stroke="black"/>
<path d="M538.459,428.543h 14.7969" fill="none" stroke="black"/>
<path d="M545.857,414.639h 7.39843" fill="none" stroke="black"/>
<path d="M545.857,400.734h 7.39843" fill="none" stroke="black"/>
<path d="M545.857,386.83h 7.39843" fill="none" stroke="black"/>
<path d="M545.857,372.926h 7.39843" fill="none" stroke="black"/>
<path d="M538.459,359.022h 14.7969" fill="none" stroke="black"/>
<path d="M545.857,345.118h 7.39843" fill="none" stroke="black"/>
<path d="M545.857,331.214h 7.39843" fill="none" stroke="black"/>
<path d="M545.857,317.309h 7.39843" fill="none" stroke="black"/>
<path d="M545.857,303.405h 7.39843" fill="none" stroke="black"/>
<path d="M538.459,289.501h 14.7969" fill="none" stroke="black"/>
<path d="M545.857,275.597h 7.39843" fill="none" stroke="black"/>
<path d="M545.857,261.693h 7.39843" fill="none" stroke="black"/>
<path d="M545.857,247.789h 7.39843" fill="none" stroke="black"/>
<path d="M545.857,233.884h 7.39843" fill="none" stroke="black"/>
<path d="M538.459,219.98h 14.7969" fill="none" stroke="black"/>
<path d="M545.857,206.076h 7.39843" fill="none" stroke="black"/>
<path d="M545.857,192.172h 7.39843" fill="none" stroke="black"/>
<path d="M545.857,178.268h 7.39843" fill="none" stroke="black"/>
<path d="M545.857,164.364h 7.39843" fill="none" stroke="black"/>
<path d="M538.459,150.459h 14.7969" fill="none" stroke="black"/>
<path d="M545.857,136.555h 7.39843" fill="none" stroke="black"/>
<path d="M545.857,122.651h 7.39843" fill="none" stroke="black"/>
<path d="M545.857,108.747h 7.39843" fill="none" stroke="black"/>
<path d="M545.857,94.8428h 7.39843" fill="none" stroke="black"/>
<path d="M538.459,80.9387h 14.7969" fill="none" stroke="black"/>
<path d="M538.459,80.9387h 14.7969" fill="none" stroke="black"/>
<path d="M545.857,67.0345h 7.39843" fill="none" stroke="black"/>
<path d="M545.857,53.1303h 7.39843" fill="none" stroke="black"/>
<path d="M545.857,39.2262h 7.39843" fill="none" stroke="black"/>
<path d="M545.857,25.322h 7.39843" fill="none" stroke="black"/>
<g stroke="#33cccc" stroke-width="2" fill="none">
<rect x="93.3053" y="487.591" width="11.271" height="11.271"/>
</g>
<g stroke="#33cccc" stroke-width="2" fill="none">
<rect x="98.2168" y="467.508" width="11.271" height="11.271"/>
</g>
<g stroke="#33cccc" stroke-width="2" fill="none">
<rect x="103.128" y="462.066" width="11.271" height="11.271"/>
</g>
<g stroke="#33cccc" stroke-width="2" fill="none">
<rect x="108.04" y="466.461" width="11.271" height="11.271"/>
</g>
<g stroke="#33cccc" stroke-width="2" fill="none">
<rect x="112.951" y="471.527" width="11.271" height="11.271"/>
</g>
<g stroke="#33cccc" stroke-width="2" fill="none">
<rect x="117.863" y="473.861" width="11.271" height="11.271"/>
</g>
<g stroke="#33cccc" stroke-width="2" fill="none">
<rect x="122.774" y="472.299" width="11.271" height="11.271"/>
</g>
<g stroke="#33cccc" stroke-width="2" fill="none">
<rect x="127.686" y="464.957" width="11.271" height="11.271"/>
</g>
<g stroke="#33cccc" stroke-width="2" fill="none">
<rect x="132.597" y="434.689" width="11.271" height="11.271"/>
</g>
<g stroke="#33cccc" stroke-width="2" fill="none">
<rect x="137.509" y="398.811" width="11.271" height="11.271"/>
</g>
<g stroke="#33cccc" stroke-width="2" fill="none">
<rect x="142.42" y="386.375" width="11.271" height="11.271"/>
</g>
<g stroke="#33cccc" stroke-width="2" fill="none">
<rect x="147.332" y="375.061" width="11.271" height="11.271"/>
</g>
<g stroke="#33cccc" stroke-width="2" fill="none">
<rect x="152.243" y="364.94" width="11.271" height="11.271"/>
</g>
<g stroke="#33cccc" stroke-width="2" fill="none">
<rect x="157.155" y="360.042" width="11.271" height="11.271"/>
</g>
<g stroke="#33cccc" stroke-width="2" fill="none">
<rect x="162.067" y="349.814" width="11.271" height="11.271"/>
</g>
<g stroke="#33cccc" stroke-width="2" fill="none">
<rect x="166.978" y="338.246" width="11.271" height="11.271"/>
</g>
<g stroke="#33cccc" stroke-width="2" fill="none">
<rect x="171.89" y="328.935" width="11.271" height="11.271"/>
</g>
<g stroke="#33cccc" stroke-width="2" fill="none">
<rect x="176.801" y="319.554" width="11.271" height="11.271"/>
</g>
<g stroke="#33cccc" stroke-width="2" fill="none">
<rect x="181.713" y="307.878" width="11.271" height="11.271"/>
</g>
<g stroke="#33cccc" stroke-width="2" fill="none">
<rect x="186.624" y="298.394" width="11.271" height="11.271"/>
</g>
<g stroke="#33cccc" stroke-width="2" fill="none">
<rect x="191.536" y="290.022" width="11.271" height="11.271"/>
</g>
<g stroke="#33cccc" stroke-width="2" fill="none">
<rect x="196.447" y="278.644" width="11.271" height="11.271"/>
</g>
<g stroke="#33cccc" stroke-width="2" fill="none">
<rect x="201.359" y="272.203" width="11.271" height="11.271"/>
</g>
<g stroke="#33cccc" stroke-width="2" fill="none">
<rect x="206.27" y="262.165" width="11.271" height="11.271"/>
</g>
<g stroke="#33cccc" stroke-width="2" fill="none">
<rect x="211.182" y="256.812" width="11.271" height="11.271"/>
</g>
<g stroke="#33cccc" stroke-width="2" fill="none">
<rect x="216.093" y="250.324" width="11.271" height="11.271"/>
</g>
<g stroke="#33cccc" stroke-width="2" fill="none">
<rect x="221.005" y="246.291" width="11.271" height="11.271"/>
</g>
<g stroke="#33cccc" stroke-width="2" fill="none">
<rect x="225.916" y="247.149" width="11.271" height="11.271"/>
</g>
<g stroke="#33cccc" stroke-width="2" fill="none">
<rect x="230.828" y="240.987" width="11.271" height="11.271"/>
</g>
<g stroke="#33cccc" stroke-width="2" fill="none">
<rect x="235.739" y="237.861" width="11.271" height="11.271"/>
</g>
<g stroke="#33cccc" stroke-width="2" fill="none">
<rect x="240.651" y="235.321" width="11.271" height="11.271"/>
</g>
<g stroke="#33cccc" stroke-width="2" fill="none">
<rect x="245.562" y="232.232" width="11.271" height="11.271"/>
</g>
<g stroke="#33cccc" stroke-width="2" fill="none">
<rect x="250.474" y="234.188" width="11.271" height="11.271"/>
</g>
<g stroke="#33cccc" stroke-width="2" fill="none">
<rect x="255.385" y="232.796" width="11.271" height="11.271"/>
</g>
<g stroke="#33cccc" stroke-width="2" fill="none">
<rect x="260.297" y="234.431" width="11.271" height="11.271"/>
</g>
<g stroke="#33cccc" stroke-width="2" fill="none">
<rect x="265.208" y="232.16" width="11.271" height="11.271"/>
</g>
<g stroke="#33cccc" stroke-width="2" fill="none">
<rect x="270.12" y="235.925" width="11.271" height="11.271"/>
</g>
<g stroke="#33cccc" stroke-width="2" fill="none">
<rect x="275.031" y="236.91" width="11.271" height="11.271"/>
</g>
<g stroke="#33cccc" stroke-width="2" fill="none">
<rect x="279.943" y="238.97" width="11.271" height="11.271"/>
</g>
<g stroke="#33cccc" stroke-width="2" fill="none">
<rect x="284.854" y="238.631" width="11.271" height="11.271"/>
</g>
<g stroke="#33cccc" stroke-width="2" fill="none">
<rect x="289.766" y="240.173" width="11.271" height="11.271"/>
</g>
<g stroke="#33cccc" stroke-width="2" fill="none">
<rect x="294.677" y="243.824" width="11.271" height="11.271"/>
</g>
<g stroke="#33cccc" stroke-width="2" fill="none">
<rect x="299.589" y="247.202" width="11.271" height="11.271"/>
</g>
<g stroke="#33cccc" stroke-width="2" fill="none">
<rect x="304.5" y="248.728" width="11.271" height="11.271"/>
</g>
<g stroke="#33cccc" stroke-width="2" fill="none">
<rect x="309.412" y="252.679" width="11.271" height="11.271"/>
</g>
<g stroke="#33cccc" stroke-width="2" fill="none">
<rect x="314.323" y="256.377" width="11.271" height="11.271"/>
</g>
<g stroke="#33cccc" stroke-width="2" fill="none">
<rect x="319.235" y="258.272" width="11.271" height="11.271"/>
</g>
<g stroke="#33cccc" stroke-width="2" fill="none">
<rect x="324.147" y="261.277" width="11.271" height="11.271"/>
</g>
<g stroke="#33cccc" stroke-width="2" fill="none">
<rect x="329.058" y="266.648" width="11.271" height="11.271"/>
</g>
<g stroke="#33cccc" stroke-width="2" fill="none">
<rect x="333.97" y="268.491" width="11.271" height="11.271"/>
</g>
<g stroke="#33cccc" stroke-width="2" fill="none">
<rect x="338.881" y="272.875" width="11.271" height="11.271"/>
</g>
<g stroke="#33cccc" stroke-width="2" fill="none">
<rect x="343.793" y="277.266" width="11.271" height="11.271"/>
</g>
<g stroke="#33cccc" stroke-width="2" fill="none">
<rect x="348.704" y="280.884" width="11.271" height="11.271"/>
</g>
<g stroke="#33cccc" stroke-width="2" fill="none">
<rect x="353.616" y="287.169" width="11.271" height="11.271"/>
</g>
<g stroke="#33cccc" stroke-width="2" fill="none">
<rect x="358.527" y="291.257" width="11.271" height="11.271"/>
</g>
<g stroke="#33cccc" stroke-width="2" fill="none">
<rect x="363.439" y="294.235" width="11.271" height="11.271"/>
</g>
<g stroke="#33cccc" stroke-width="2" fill="none">
<rect x="368.35" y="298.132" width="11.271" height="11.271"/>
</g>
<g stroke="#33cccc" stroke-width="2" fill="none">
<rect x="373.262" y="303.624" width="11.271" height="11.271"/>
</g>
<g stroke="#33cccc" stroke-width="2" fill="none">
<rect x="378.173" y="306.869" width="11.271" height="11.271"/>
</g>
<g stroke="#33cccc" stroke-width="2" fill="none">
<rect x="383.085" y="310.59" width="11.271" height="11.271"/>
</g>
<g stroke="#33cccc" stroke-width="2" fill="none">
<rect x="387.996" y="315.715" width="11.271" height="11.271"/>
</g>
<g stroke="#33cccc" stroke-width="2" fill="none">
<rect x="392.908" y="319.375" width="11.271" height="11.271"/>
</g>
<g stroke="#33cccc" stroke-width="2" fill="none">
<rect x="397.819" y="326.206" width="11.271" height="11.271"/>
</g>
<g stroke="#33cccc" stroke-width="2" fill="none">
<rect x="402.731" y="329.406" width="11.271" height="11.271"/>
</g>
<g stroke="#33cccc" stroke-width="2" fill="none">
<rect x="407.642" y="333.46" width="11.271" height="11.271"/>
</g>
<g stroke="#33cccc" stroke-width="2" fill="none">
<rect x="412.554" y="337.303" width="11.271" height="11.271"/>
</g>
<g stroke="#33cccc" stroke-width="2" fill="none">
<rect x="417.465" y="341.215" width="11.271" height="11.271"/>
</g>
<g stroke="#33cccc" stroke-width="2" fill="none">
<rect x="422.377" y="345.841" width="11.271" height="11.271"/>
</g>
<g stroke="#33cccc" stroke-width="2" fill="none">
<rect x="427.288" y="351.115" width="11.271" height="11.271"/>
</g>
<g stroke="#33cccc" stroke-width="2" fill="none">
<rect x="432.2" y="352.784" width="11.271" height="11.271"/>
</g>
<g stroke="#33cccc" stroke-width="2" fill="none">
<rect x="437.111" y="357.597" width="11.271" height="11.271"/>
</g>
<g stroke="#33cccc" stroke-width="2" fill="none">
<rect x="442.023" y="362.267" width="11.271" height="11.271"/>
</g>
<g stroke="#33cccc" stroke-width="2" fill="none">
<rect x="446.934" y="364.387" width="11.271" height="11.271"/>
</g>
<g stroke="#33cccc" stroke-width="2" fill="none">
<rect x="451.846" y="369.321" width="11.271" height="11.271"/>
</g>
<g stroke="#33cccc" stroke-width="2" fill="none">
<rect x="456.757" y="371.143" width="11.271" height="11.271"/>
</g>
<g stroke="#33cccc" stroke-width="2" fill="none">
<rect x="461.669" y="376.452" width="11.271" height="11.271"/>
</g>
<g stroke="#33cccc" stroke-width="2" fill="none">
<rect x="466.58" y="378.811" width="11.271" height="11.271"/>
</g>
<g stroke="#33cccc" stroke-width="2" fill="none">
<rect x="471.492" y="383.133" width="11.271" height="11.271"/>
</g>
<g stroke="#33cccc" stroke-width="2" fill="none">
<rect x="476.403" y="385.61" width="11.271" height="11.271"/>
</g>
<g stroke="#33cccc" stroke-width="2" fill="none">
<rect x="481.315" y="387.985" width="11.271" height="11.271"/>
</g>
<g stroke="#33cccc" stroke-width="2" fill="none">
<rect x="486.227" y="392.534" width="11.271" height="11.271"/>
</g>
<g stroke="#33cccc" stroke-width="2" fill="none">
<rect x="491.138" y="395.468" width="11.271" height="11.271"/>
</g>
<g stroke="#33cccc" stroke-width="2" fill="none">
<rect x="496.05" y="396.865" width="11.271" height="11.271"/>
</g>
<g stroke="#33cccc" stroke-width="2" fill="none">
<rect x="500.961" y="398.561" width="11.271" height="11.271"/>
</g>
<g stroke="#33cccc" stroke-width="2" fill="none">
<rect x="505.873" y="402.63" width="11.271" height="11.271"/>
</g>
<g stroke="#33cccc" stroke-width="2" fill="none">
<rect x="510.784" y="405.121" width="11.271" height="11.271"/>
</g>
<g stroke="#33cccc" stroke-width="2" fill="none">
<rect x="515.696" y="406.946" width="11.271" height="11.271"/>
</g>
<g stroke="#33cccc" stroke-width="2" fill="none">
<rect x="520.607" y="409.03" width="11.271" height="11.271"/>
</g>
<g stroke="#33cccc" stroke-width="2" fill="none">
<rect x="525.519" y="412.3" width="11.271" height="11.271"/>
</g>
<g stroke="#33cccc" stroke-width="2" fill="none">
<rect x="530.43" y="414.237" width="11.271" height="11.271"/>
</g>
<g stroke="#33cccc" stroke-width="2" fill="none">
<rect x="535.342" y="416.131" width="11.271" height="11.271"/>
</g>
<g stroke="#33cccc" stroke-width="2" fill="none">
<rect x="540.253" y="418.764" width="11.271" height="11.271"/>
</g>
<g stroke="#ff0066" stroke-width="2" fill="none">
<circle cx="98.9408" cy="492.677" r="5.63548"/>
</g>
<g stroke="#ff0066" stroke-width="2" fill="none">
<circle cx="103.852" cy="470.424" r="5.63548"/>
</g>
<g stroke="#ff0066" stroke-width="2" fill="none">
<circle cx="108.764" cy="464.521" r="5.63548"/>
</g>
<g stroke="#ff0066" stroke-width="2" fill="none">
<circle cx="113.675" cy="469.489" r="5.63548"/>
</g>
<g stroke="#ff0066" stroke-width="2" fill="none">
<circle cx="118.587" cy="475.153" r="5.63548"/>
</g>
<g stroke="#ff0066" stroke-width="2" fill="none">
<circle cx="123.498" cy="477.79" r="5.63548"/>
</g>
<g stroke="#ff0066" stroke-width="2" fill="none">
<circle cx="128.41" cy="476.167" r="5.63548"/>
</g>
<g stroke="#ff0066" stroke-width="2" fill="none">
<circle cx="133.321" cy="468.292" r="5.63548"/>
</g>
<g stroke="#ff0066" stroke-width="2" fill="none">
<circle cx="138.233" cy="435.721" r="5.63548"/>
</g>
<g stroke="#ff0066" stroke-width="2" fill="none">
<circle cx="143.144" cy="397.35" r="5.63548"/>
</g>
<g stroke="#ff0066" stroke-width="2" fill="none">
<circle cx="148.056" cy="384.38" r="5.63548"/>
</g>
<g stroke="#ff0066" stroke-width="2" fill="none">
<circle cx="152.967" cy="372.698" r="5.63548"/>
</g>
<g stroke="#ff0066" stroke-width="2" fill="none">
<circle cx="157.879" cy="362.361" r="5.63548"/>
</g>
<g stroke="#ff0066" stroke-width="2" fill="none">
<circle cx="162.79" cy="357.631" r="5.63548"/>
</g>
<g stroke="#ff0066" stroke-width="2" fill="none">
<circle cx="167.702" cy="347.291" r="5.63548"/>
</g>
<g stroke="#ff0066" stroke-width="2" fill="none">
<circle cx="172.614" cy="335.601" r="5.63548"/>
</g>
<g stroke="#ff0066" stroke-width="2" fill="none">
<circle cx="177.525" cy="326.351" r="5.63548"/>
</g>
<g stroke="#ff0066" stroke-width="2" fill="none">
<circle cx="182.437" cy="317.078" r="5.63548"/>
</g>
<g stroke="#ff0066" stroke-width="2" fill="none">
<circle cx="187.348" cy="305.458" r="5.63548"/>
</g>
<g stroke="#ff0066" stroke-width="2" fill="none">
<circle cx="192.26" cy="296.18" r="5.63548"/>
</g>
<g stroke="#ff0066" stroke-width="2" fill="none">
<circle cx="197.171" cy="288.101" r="5.63548"/>
</g>
<g stroke="#ff0066" stroke-width="2" fill="none">
<circle cx="202.083" cy="276.949" r="5.63548"/>
</g>
<g stroke="#ff0066" stroke-width="2" fill="none">
<circle cx="206.994" cy="270.939" r="5.63548"/>
</g>
<g stroke="#ff0066" stroke-width="2" fill="none">
<circle cx="211.906" cy="261.25" r="5.63548"/>
</g>
<g stroke="#ff0066" stroke-width="2" fill="none">
<circle cx="216.817" cy="256.404" r="5.63548"/>
</g>
<g stroke="#ff0066" stroke-width="2" fill="none">
<circle cx="221.729" cy="250.407" r="5.63548"/>
</g>
<g stroke="#ff0066" stroke-width="2" fill="none">
<circle cx="226.64" cy="246.929" r="5.63548"/>
</g>
<g stroke="#ff0066" stroke-width="2" fill="none">
<circle cx="231.552" cy="248.428" r="5.63548"/>
</g>
<g stroke="#ff0066" stroke-width="2" fill="none">
<circle cx="236.463" cy="242.775" r="5.63548"/>
</g>
<g stroke="#ff0066" stroke-width="2" fill="none">
<circle cx="241.375" cy="240.205" r="5.63548"/>
</g>
<g stroke="#ff0066" stroke-width="2" fill="none">
<circle cx="246.286" cy="238.219" r="5.63548"/>
</g>
<g stroke="#ff0066" stroke-width="2" fill="none">
<circle cx="251.198" cy="235.668" r="5.63548"/>
</g>
<g stroke="#ff0066" stroke-width="2" fill="none">
<circle cx="256.109" cy="238.183" r="5.63548"/>
</g>
<g stroke="#ff0066" stroke-width="2" fill="none">
<circle cx="261.021" cy="237.304" r="5.63548"/>
</g>
<g stroke="#ff0066" stroke-width="2" fill="none">
<circle cx="265.932" cy="239.441" r="5.63548"/>
</g>
<g stroke="#ff0066" stroke-width="2" fill="none">
<circle cx="270.844" cy="237.639" r="5.63548"/>
</g>
<g stroke="#ff0066" stroke-width="2" fill="none">
<circle cx="275.755" cy="241.848" r="5.63548"/>
</g>
<g stroke="#ff0066" stroke-width="2" fill="none">
<circle cx="280.667" cy="243.249" r="5.63548"/>
</g>
<g stroke="#ff0066" stroke-width="2" fill="none">
<circle cx="285.578" cy="245.691" r="5.63548"/>
</g>
<g stroke="#ff0066" stroke-width="2" fill="none">
<circle cx="290.49" cy="245.717" r="5.63548"/>
</g>
<g stroke="#ff0066" stroke-width="2" fill="none">
<circle cx="295.401" cy="247.586" r="5.63548"/>
</g>
<g stroke="#ff0066" stroke-width="2" fill="none">
<circle cx="300.313" cy="251.517" r="5.63548"/>
</g>
<g stroke="#ff0066" stroke-width="2" fill="none">
<circle cx="305.224" cy="255.142" r="5.63548"/>
</g>
<g stroke="#ff0066" stroke-width="2" fill="none">
<circle cx="310.136" cy="256.902" r="5.63548"/>
</g>
<g stroke="#ff0066" stroke-width="2" fill="none">
<circle cx="315.047" cy="261.031" r="5.63548"/>
</g>
<g stroke="#ff0066" stroke-width="2" fill="none">
<circle cx="319.959" cy="264.878" r="5.63548"/>
</g>
<g stroke="#ff0066" stroke-width="2" fill="none">
<circle cx="324.87" cy="266.913" r="5.63548"/>
</g>
<g stroke="#ff0066" stroke-width="2" fill="none">
<circle cx="329.782" cy="270.015" r="5.63548"/>
</g>
<g stroke="#ff0066" stroke-width="2" fill="none">
<circle cx="334.694" cy="275.42" r="5.63548"/>
</g>
<g stroke="#ff0066" stroke-width="2" fill="none">
<circle cx="339.605" cy="277.318" r="5.63548"/>
</g>
<g stroke="#ff0066" stroke-width="2" fill="none">
<circle cx="344.517" cy="281.693" r="5.63548"/>
</g>
<g stroke="#ff0066" stroke-width="2" fill="none">
<circle cx="349.428" cy="286.048" r="5.63548"/>
</g>
<g stroke="#ff0066" stroke-width="2" fill="none">
<circle cx="354.34" cy="289.615" r="5.63548"/>
</g>
<g stroke="#ff0066" stroke-width="2" fill="none">
<circle cx="359.251" cy="295.784" r="5.63548"/>
</g>
<g stroke="#ff0066" stroke-width="2" fill="none">
<circle cx="364.163" cy="299.766" r="5.63548"/>
</g>
<g stroke="#ff0066" stroke-width="2" fill="none">
<circle cx="369.074" cy="302.631" r="5.63548"/>
</g>
<g stroke="#ff0066" stroke-width="2" fill="none">
<circle cx="373.986" cy="306.379" r="5.63548"/>
</g>
<g stroke="#ff0066" stroke-width="2" fill="none">
<circle cx="378.897" cy="311.681" r="5.63548"/>
</g>
<g stroke="#ff0066" stroke-width="2" fill="none">
<circle cx="383.809" cy="314.748" r="5.63548"/>
</g>
<g stroke="#ff0066" stroke-width="2" fill="none">
<circle cx="388.72" cy="318.265" r="5.63548"/>
</g>
<g stroke="#ff0066" stroke-width="2" fill="none">
<circle cx="393.632" cy="323.155" r="5.63548"/>
</g>
<g stroke="#ff0066" stroke-width="2" fill="none">
<circle cx="398.543" cy="326.58" r="5.63548"/>
</g>
<g stroke="#ff0066" stroke-width="2" fill="none">
<circle cx="403.455" cy="333.137" r="5.63548"/>
</g>
<g stroke="#ff0066" stroke-width="2" fill="none">
<circle cx="408.366" cy="336.081" r="5.63548"/>
</g>
<g stroke="#ff0066" stroke-width="2" fill="none">
<circle cx="413.278" cy="339.861" r="5.63548"/>
</g>
<g stroke="#ff0066" stroke-width="2" fill="none">
<circle cx="418.189" cy="343.422" r="5.63548"/>
</g>
<g stroke="#ff0066" stroke-width="2" fill="none">
<circle cx="423.101" cy="347.043" r="5.63548"/>
</g>
<g stroke="#ff0066" stroke-width="2" fill="none">
<circle cx="428.012" cy="351.37" r="5.63548"/>
</g>
<g stroke="#ff0066" stroke-width="2" fill="none">
<circle cx="432.924" cy="356.345" r="5.63548"/>
</g>
<g stroke="#ff0066" stroke-width="2" fill="none">
<circle cx="437.835" cy="357.698" r="5.63548"/>
</g>
<g stroke="#ff0066" stroke-width="2" fill="none">
<circle cx="442.747" cy="362.205" r="5.63548"/>
</g>
<g stroke="#ff0066" stroke-width="2" fill="none">
<circle cx="447.658" cy="366.571" r="5.63548"/>
</g>
<g stroke="#ff0066" stroke-width="2" fill="none">
<circle cx="452.57" cy="368.358" r="5.63548"/>
</g>
<g stroke="#ff0066" stroke-width="2" fill="none">
<circle cx="457.481" cy="372.996" r="5.63548"/>
</g>
<g stroke="#ff0066" stroke-width="2" fill="none">
<circle cx="462.393" cy="374.472" r="5.63548"/>
</g>
<g stroke="#ff0066" stroke-width="2" fill="none">
<circle cx="467.304" cy="379.504" r="5.63548"/>
</g>
<g stroke="#ff0066" stroke-width="2" fill="none">
<circle cx="472.216" cy="381.526" r="5.63548"/>
</g>
<g stroke="#ff0066" stroke-width="2" fill="none">
<circle cx="477.127" cy="385.565" r="5.63548"/>
</g>
<g stroke="#ff0066" stroke-width="2" fill="none">
<circle cx="482.039" cy="387.711" r="5.63548"/>
</g>
<g stroke="#ff0066" stroke-width="2" fill="none">
<circle cx="486.95" cy="389.751" r="5.63548"/>
</g>
<g stroke="#ff0066" stroke-width="2" fill="none">
<circle cx="491.862" cy="394.056" r="5.63548"/>
</g>
<g stroke="#ff0066" stroke-width="2" fill="none">
<circle cx="496.773" cy="396.692" r="5.63548"/>
</g>
<g stroke="#ff0066" stroke-width="2" fill="none">
<circle cx="501.685" cy="397.722" r="5.63548"/>
</g>
<g stroke="#ff0066" stroke-width="2" fill="none">
<circle cx="506.597" cy="399.062" r="5.63548"/>
</g>
<g stroke="#ff0066" stroke-width="2" fill="none">
<circle cx="511.508" cy="402.914" r="5.63548"/>
</g>
<g stroke="#ff0066" stroke-width="2" fill="none">
<circle cx="516.42" cy="405.11" r="5.63548"/>
</g>
<g stroke="#ff0066" stroke-width="2" fill="none">
<circle cx="521.331" cy="406.6" r="5.63548"/>
</g>
<g stroke="#ff0066" stroke-width="2" fill="none">
<circle cx="526.243" cy="408.373" r="5.63548"/>
</g>
<g stroke="#ff0066" stroke-width="2" fill="none">
<circle cx="531.154" cy="411.434" r="5.63548"/>
</g>
<g stroke="#ff0066" stroke-width="2" fill="none">
<circle cx="536.066" cy="413.066" r="5.63548"/>
</g>
<g stroke="#ff0066" stroke-width="2" fill="none">
<circle cx="540.977" cy="414.659" r="5.63548"/>
</g>
<g stroke="#ff0066" stroke-width="2" fill="none">
<circle cx="545.889" cy="417.07" r="5.63548"/>
</g>
<text xml:space="preserve" x="360.607" y="50.7193" fill="black" font-size="16.0105" font-family="Helvetica"> with EMC</text>
<text xml:space="preserve" x="352.717" y="50.7193" fill="black" font-size="16.0105" font-family="Times">&#0947;</text>
<text xml:space="preserve" x="344.828" y="50.7193" fill="black" font-size="16.0105" font-family="Times">&#0947;</text>
<text xml:space="preserve" x="336.938" y="50.7193" fill="black" font-size="16.0105" font-family="Times">&#0947;</text>
<text xml:space="preserve" x="331.866" y="50.7193" fill="black" font-size="16.0105" font-family="Helvetica"> </text>
<text xml:space="preserve" x="316.65" y="50.7193" fill="black" font-size="16.0105" font-family="Times">&#8594;</text>
<text xml:space="preserve" x="311.578" y="50.7193" fill="black" font-size="16.0105" font-family="Helvetica"> </text>
<text xml:space="preserve" x="303.689" y="50.7193" fill="black" font-size="16.0105" font-family="Times">&#0947;</text>
<text xml:space="preserve" x="298.053" y="45.0838" fill="black" font-size="10.8403" font-family="Helvetica">0</text>
<text xml:space="preserve" x="289.6" y="50.7193" fill="black" font-size="16.0105" font-family="Times">&#0960;</text>
<text xml:space="preserve" x="284.528" y="50.7193" fill="black" font-size="16.0105" font-family="Helvetica"> </text>
<text xml:space="preserve" x="269.312" y="50.7193" fill="black" font-size="16.0105" font-family="Times">&#8594;</text>
<text xml:space="preserve" x="264.24" y="50.7193" fill="black" font-size="16.0105" font-family="Helvetica"> </text>
<text xml:space="preserve" x="252.969" y="50.7193" fill="black" font-size="16.0105" font-family="Times">&#0969;</text>
<text xml:space="preserve" x="128.989" y="50.7193" fill="black" font-size="16.0105" font-family="Helvetica"> = 13 TeV (EG1), </text>
<text xml:space="preserve" x="120.536" y="50.7193" fill="black" font-size="16.0105" font-family="Helvetica" font-style="oblique">s</text>
<path d="M114.9,41.7025l 1.69064, 9.58031" fill="none" stroke="black" stroke-width="2"/>
<path d="M116.591,51.2829l 2.25419, -14.0887" fill="none" stroke="black"/>
<path d="M118.845,37.1942h 10.1439" fill="none" stroke="black"/>
<text xml:space="preserve" x="89.5406" y="50.7193" fill="black" font-size="16.0105" font-family="Helvetica">pp </text>
<text xml:space="preserve" x="89.5406" y="85.6593" fill="black" font-size="16.0105" font-family="Helvetica">ALICE work in progress</text>
<text xml:space="preserve" x="214.085" y="120.599" fill="black" font-size="16.0105" font-family="Helvetica">) &lt; 28.0</text>
<text xml:space="preserve" x="205.068" y="120.599" fill="black" font-size="16.0105" font-family="Helvetica" font-style="oblique">c</text>
<text xml:space="preserve" x="154.912" y="120.599" fill="black" font-size="16.0105" font-family="Helvetica"> /(GeV/</text>
<text xml:space="preserve" x="148.15" y="128.489" fill="black" font-size="10.8403" font-family="Helvetica">T</text>
<text xml:space="preserve" x="138.569" y="120.599" fill="black" font-size="16.0105" font-family="Helvetica" font-style="oblique">p</text>
<text xml:space="preserve" x="133.497" y="120.599" fill="black" font-size="16.0105" font-family="Helvetica"> </text>
<text xml:space="preserve" x="125.044" y="120.599" fill="black" font-size="16.0105" font-family="Times">&#8804;</text>
<text xml:space="preserve" x="89.5406" y="120.599" fill="black" font-size="16.0105" font-family="Helvetica">24.0 </text>
<rect x="312.311" y="69.1755" width="198.425" height="113.448" fill="white"/>
<text xml:space="preserve" x="361.734" y="93.5489" fill="black" font-size="16.0105" font-family="Helvetica">same event</text>
<path d="M319.752,88.0835h 34.7244" fill="none" stroke="black" stroke-width="2"/>
<g fill="black">
<circle cx="337.114" cy="88.0835" r="6.76257"/>
</g>
<text xml:space="preserve" x="361.734" y="130.18" fill="black" font-size="16.0105" font-family="Helvetica">background pol1</text>
<path d="M319.752,125.899h 34.7244" fill="none" stroke="#33cccc" stroke-width="2"/>
<g stroke="#33cccc" stroke-width="2" fill="none">
<rect x="331.479" y="120.264" width="11.271" height="11.271"/>
</g>
<text xml:space="preserve" x="361.734" y="167.937" fill="black" font-size="16.0105" font-family="Helvetica">background pol2</text>
<path d="M319.752,163.715h 34.7244" fill="none" stroke="#ff0066" stroke-width="2"/>
<g stroke="#ff0066" stroke-width="2" fill="none">
<circle cx="337.114" cy="163.715" r="5.63548"/>
</g></svg>
