<?xml version="1.0" standalone="no"?>
<svg width="567.429" height="553.904" viewBox="0 0 567.429 553.904" xmlns="http://www.w3.org/2000/svg" shape-rendering="crispEdges">
<title>
MC/EG1/OmegaRotWOPS/SameEventToBackgroundRatio_05.svg
</title>
<desc>
Creator: ROOT Version 6.20/08
CreationDate: Mon Mar 29 21:28:54 2021</desc>
<defs>
</defs>
<rect x="0.5" y="0" width="566.929" height="553.404" fill="white"/>
<rect x="68.5315" y="16.6021" width="484.724" height="481.461" fill="white"/>
<rect x="68.5315" y="16.6021" width="484.724" height="481.461" fill="none" stroke="black"/>
<rect x="68.5315" y="16.6021" width="484.724" height="481.461" fill="white"/>
<rect x="68.5315" y="16.6021" width="484.724" height="481.461" fill="none" stroke="black"/>
<g fill="black">
<circle cx="109.325" cy="497.603" r="6.76257"/>
</g>
<g fill="black">
<circle cx="114.124" cy="433.2" r="6.76257"/>
</g>
<g fill="black">
<circle cx="118.924" cy="283.497" r="6.76257"/>
</g>
<g fill="black">
<circle cx="123.723" cy="449.301" r="6.76257"/>
</g>
<g fill="black">
<circle cx="128.522" cy="414.715" r="6.76257"/>
</g>
<g fill="black">
<circle cx="133.321" cy="247.541" r="6.76257"/>
</g>
<g fill="black">
<circle cx="138.121" cy="273.065" r="6.76257"/>
</g>
<g fill="black">
<circle cx="142.92" cy="289.477" r="6.76257"/>
</g>
<g fill="black">
<circle cx="147.719" cy="301.048" r="6.76257"/>
</g>
<g fill="black">
<circle cx="152.518" cy="312.063" r="6.76257"/>
</g>
<g fill="black">
<circle cx="157.318" cy="320.631" r="6.76257"/>
</g>
<g fill="black">
<circle cx="162.117" cy="326.371" r="6.76257"/>
</g>
<g fill="black">
<circle cx="166.916" cy="332.024" r="6.76257"/>
</g>
<g fill="black">
<circle cx="171.715" cy="335.138" r="6.76257"/>
</g>
<g fill="black">
<circle cx="176.515" cy="336.87" r="6.76257"/>
</g>
<g fill="black">
<circle cx="181.314" cy="339.423" r="6.76257"/>
</g>
<g fill="black">
<circle cx="186.113" cy="340.152" r="6.76257"/>
</g>
<g fill="black">
<circle cx="190.912" cy="341.703" r="6.76257"/>
</g>
<g fill="black">
<circle cx="195.712" cy="341.869" r="6.76257"/>
</g>
<g fill="black">
<circle cx="200.511" cy="343.272" r="6.76257"/>
</g>
<g fill="black">
<circle cx="205.31" cy="344.555" r="6.76257"/>
</g>
<g fill="black">
<circle cx="210.109" cy="343.194" r="6.76257"/>
</g>
<g fill="black">
<circle cx="214.909" cy="342.158" r="6.76257"/>
</g>
<g fill="black">
<circle cx="219.708" cy="341.868" r="6.76257"/>
</g>
<g fill="black">
<circle cx="224.507" cy="341.537" r="6.76257"/>
</g>
<g fill="black">
<circle cx="229.306" cy="340.515" r="6.76257"/>
</g>
<g fill="black">
<circle cx="234.106" cy="339.339" r="6.76257"/>
</g>
<g fill="black">
<circle cx="238.905" cy="336.697" r="6.76257"/>
</g>
<g fill="black">
<circle cx="243.704" cy="336.264" r="6.76257"/>
</g>
<g fill="black">
<circle cx="248.503" cy="334.928" r="6.76257"/>
</g>
<g fill="black">
<circle cx="253.303" cy="332.559" r="6.76257"/>
</g>
<g fill="black">
<circle cx="258.102" cy="331.958" r="6.76257"/>
</g>
<g fill="black">
<circle cx="262.901" cy="330.832" r="6.76257"/>
</g>
<g fill="black">
<circle cx="267.7" cy="328.682" r="6.76257"/>
</g>
<g fill="black">
<circle cx="272.5" cy="324.529" r="6.76257"/>
</g>
<g fill="black">
<circle cx="277.299" cy="323.734" r="6.76257"/>
</g>
<g fill="black">
<circle cx="339.689" cy="295.889" r="6.76257"/>
</g>
<g fill="black">
<circle cx="344.488" cy="290.553" r="6.76257"/>
</g>
<g fill="black">
<circle cx="349.288" cy="290.032" r="6.76257"/>
</g>
<g fill="black">
<circle cx="354.087" cy="286.966" r="6.76257"/>
</g>
<g fill="black">
<circle cx="358.886" cy="281.566" r="6.76257"/>
</g>
<g fill="black">
<circle cx="363.685" cy="278.825" r="6.76257"/>
</g>
<g fill="black">
<circle cx="368.485" cy="276.489" r="6.76257"/>
</g>
<g fill="black">
<circle cx="373.284" cy="275.991" r="6.76257"/>
</g>
<g fill="black">
<circle cx="378.083" cy="275.778" r="6.76257"/>
</g>
<g fill="black">
<circle cx="382.882" cy="269.069" r="6.76257"/>
</g>
<g fill="black">
<circle cx="387.682" cy="270.431" r="6.76257"/>
</g>
<g fill="black">
<circle cx="392.481" cy="265.759" r="6.76257"/>
</g>
<g fill="black">
<circle cx="397.28" cy="265.193" r="6.76257"/>
</g>
<g fill="black">
<circle cx="402.079" cy="259.954" r="6.76257"/>
</g>
<g fill="black">
<circle cx="406.879" cy="257.254" r="6.76257"/>
</g>
<g fill="black">
<circle cx="411.678" cy="254.474" r="6.76257"/>
</g>
<g fill="black">
<circle cx="416.477" cy="252.324" r="6.76257"/>
</g>
<g fill="black">
<circle cx="421.276" cy="249.044" r="6.76257"/>
</g>
<g fill="black">
<circle cx="426.076" cy="248.811" r="6.76257"/>
</g>
<g fill="black">
<circle cx="430.875" cy="245.784" r="6.76257"/>
</g>
<g fill="black">
<circle cx="435.674" cy="241.405" r="6.76257"/>
</g>
<g fill="black">
<circle cx="440.473" cy="241.159" r="6.76257"/>
</g>
<g fill="black">
<circle cx="445.273" cy="238.33" r="6.76257"/>
</g>
<g fill="black">
<circle cx="450.072" cy="239.131" r="6.76257"/>
</g>
<g fill="black">
<circle cx="454.871" cy="231.777" r="6.76257"/>
</g>
<g fill="black">
<circle cx="459.671" cy="234.391" r="6.76257"/>
</g>
<g fill="black">
<circle cx="464.47" cy="230.002" r="6.76257"/>
</g>
<g fill="black">
<circle cx="469.269" cy="228.948" r="6.76257"/>
</g>
<g fill="black">
<circle cx="474.068" cy="224.633" r="6.76257"/>
</g>
<g fill="black">
<circle cx="478.867" cy="227.046" r="6.76257"/>
</g>
<g fill="black">
<circle cx="483.667" cy="216.59" r="6.76257"/>
</g>
<g fill="black">
<circle cx="488.466" cy="216.449" r="6.76257"/>
</g>
<g fill="black">
<circle cx="493.265" cy="215.194" r="6.76257"/>
</g>
<g fill="black">
<circle cx="498.065" cy="211.416" r="6.76257"/>
</g>
<g fill="black">
<circle cx="502.864" cy="215.391" r="6.76257"/>
</g>
<g fill="black">
<circle cx="507.663" cy="213.02" r="6.76257"/>
</g>
<g fill="black">
<circle cx="512.462" cy="211.209" r="6.76257"/>
</g>
<g fill="black">
<circle cx="517.262" cy="208.108" r="6.76257"/>
</g>
<g fill="black">
<circle cx="522.061" cy="203.504" r="6.76257"/>
</g>
<g fill="black">
<circle cx="526.86" cy="202.949" r="6.76257"/>
</g>
<g fill="black">
<circle cx="531.659" cy="200.609" r="6.76257"/>
</g>
<g fill="black">
<circle cx="536.458" cy="198.665" r="6.76257"/>
</g>
<g fill="black">
<circle cx="541.258" cy="197.15" r="6.76257"/>
</g>
<g fill="black">
<circle cx="546.057" cy="198.833" r="6.76257"/>
</g>
<path d="M68.5315,498.064h 484.724" fill="none" stroke="black"/>
<path d="M68.5315,483.869v 14.1948" fill="none" stroke="black"/>
<path d="M83.5292,490.966v 7.09741" fill="none" stroke="black"/>
<path d="M98.5268,490.966v 7.09741" fill="none" stroke="black"/>
<path d="M113.524,490.966v 7.09741" fill="none" stroke="black"/>
<path d="M128.522,483.869v 14.1948" fill="none" stroke="black"/>
<path d="M143.52,490.966v 7.09741" fill="none" stroke="black"/>
<path d="M158.517,490.966v 7.09741" fill="none" stroke="black"/>
<path d="M173.515,490.966v 7.09741" fill="none" stroke="black"/>
<path d="M188.513,483.869v 14.1948" fill="none" stroke="black"/>
<path d="M203.51,490.966v 7.09741" fill="none" stroke="black"/>
<path d="M218.508,490.966v 7.09741" fill="none" stroke="black"/>
<path d="M233.506,490.966v 7.09741" fill="none" stroke="black"/>
<path d="M248.503,483.869v 14.1948" fill="none" stroke="black"/>
<path d="M263.501,490.966v 7.09741" fill="none" stroke="black"/>
<path d="M278.499,490.966v 7.09741" fill="none" stroke="black"/>
<path d="M293.496,490.966v 7.09741" fill="none" stroke="black"/>
<path d="M308.494,483.869v 14.1948" fill="none" stroke="black"/>
<path d="M323.492,490.966v 7.09741" fill="none" stroke="black"/>
<path d="M338.489,490.966v 7.09741" fill="none" stroke="black"/>
<path d="M353.487,490.966v 7.09741" fill="none" stroke="black"/>
<path d="M368.485,483.869v 14.1948" fill="none" stroke="black"/>
<path d="M383.482,490.966v 7.09741" fill="none" stroke="black"/>
<path d="M398.48,490.966v 7.09741" fill="none" stroke="black"/>
<path d="M413.478,490.966v 7.09741" fill="none" stroke="black"/>
<path d="M428.475,483.869v 14.1948" fill="none" stroke="black"/>
<path d="M443.473,490.966v 7.09741" fill="none" stroke="black"/>
<path d="M458.471,490.966v 7.09741" fill="none" stroke="black"/>
<path d="M473.468,490.966v 7.09741" fill="none" stroke="black"/>
<path d="M488.466,483.869v 14.1948" fill="none" stroke="black"/>
<path d="M503.464,490.966v 7.09741" fill="none" stroke="black"/>
<path d="M518.461,490.966v 7.09741" fill="none" stroke="black"/>
<path d="M533.459,490.966v 7.09741" fill="none" stroke="black"/>
<path d="M548.457,483.869v 14.1948" fill="none" stroke="black"/>
<path d="M548.457,483.869v 14.1948" fill="none" stroke="black"/>
<text xml:space="preserve" x="63.6174" y="513.956" fill="black" font-size="16.0105" font-family="Helvetica">0</text>
<text xml:space="preserve" x="117.718" y="513.956" fill="black" font-size="16.0105" font-family="Helvetica">0.2</text>
<text xml:space="preserve" x="177.454" y="513.956" fill="black" font-size="16.0105" font-family="Helvetica">0.4</text>
<text xml:space="preserve" x="237.754" y="513.956" fill="black" font-size="16.0105" font-family="Helvetica">0.6</text>
<text xml:space="preserve" x="297.49" y="513.956" fill="black" font-size="16.0105" font-family="Helvetica">0.8</text>
<text xml:space="preserve" x="365.115" y="513.956" fill="black" font-size="16.0105" font-family="Helvetica">1</text>
<text xml:space="preserve" x="417.525" y="513.956" fill="black" font-size="16.0105" font-family="Helvetica">1.2</text>
<text xml:space="preserve" x="477.261" y="513.956" fill="black" font-size="16.0105" font-family="Helvetica">1.4</text>
<text xml:space="preserve" x="537.561" y="513.956" fill="black" font-size="16.0105" font-family="Helvetica">1.6</text>
<text xml:space="preserve" x="548.268" y="537.625" fill="black" font-size="16.0105" font-family="Helvetica">)</text>
<text xml:space="preserve" x="542.633" y="532.553" fill="black" font-size="10.8403" font-family="Helvetica">2</text>
<text xml:space="preserve" x="533.616" y="537.625" fill="black" font-size="16.0105" font-family="Helvetica" font-style="oblique">c</text>
<text xml:space="preserve" x="487.405" y="537.625" fill="black" font-size="16.0105" font-family="Helvetica"> (GeV/</text>
<text xml:space="preserve" x="473.317" y="542.697" fill="black" font-size="10.8403" font-family="Helvetica">inv</text>
<text xml:space="preserve" x="459.792" y="537.625" fill="black" font-size="16.0105" font-family="Helvetica" font-style="oblique">m</text>
<path d="M68.5315,16.6021h 484.724" fill="none" stroke="black"/>
<path d="M68.5315,30.7969v -14.1948" fill="none" stroke="black"/>
<path d="M83.5292,23.6995v -7.09741" fill="none" stroke="black"/>
<path d="M98.5268,23.6995v -7.09741" fill="none" stroke="black"/>
<path d="M113.524,23.6995v -7.09741" fill="none" stroke="black"/>
<path d="M128.522,30.7969v -14.1948" fill="none" stroke="black"/>
<path d="M143.52,23.6995v -7.09741" fill="none" stroke="black"/>
<path d="M158.517,23.6995v -7.09741" fill="none" stroke="black"/>
<path d="M173.515,23.6995v -7.09741" fill="none" stroke="black"/>
<path d="M188.513,30.7969v -14.1948" fill="none" stroke="black"/>
<path d="M203.51,23.6995v -7.09741" fill="none" stroke="black"/>
<path d="M218.508,23.6995v -7.09741" fill="none" stroke="black"/>
<path d="M233.506,23.6995v -7.09741" fill="none" stroke="black"/>
<path d="M248.503,30.7969v -14.1948" fill="none" stroke="black"/>
<path d="M263.501,23.6995v -7.09741" fill="none" stroke="black"/>
<path d="M278.499,23.6995v -7.09741" fill="none" stroke="black"/>
<path d="M293.496,23.6995v -7.09741" fill="none" stroke="black"/>
<path d="M308.494,30.7969v -14.1948" fill="none" stroke="black"/>
<path d="M323.492,23.6995v -7.09741" fill="none" stroke="black"/>
<path d="M338.489,23.6995v -7.09741" fill="none" stroke="black"/>
<path d="M353.487,23.6995v -7.09741" fill="none" stroke="black"/>
<path d="M368.485,30.7969v -14.1948" fill="none" stroke="black"/>
<path d="M383.482,23.6995v -7.09741" fill="none" stroke="black"/>
<path d="M398.48,23.6995v -7.09741" fill="none" stroke="black"/>
<path d="M413.478,23.6995v -7.09741" fill="none" stroke="black"/>
<path d="M428.475,30.7969v -14.1948" fill="none" stroke="black"/>
<path d="M443.473,23.6995v -7.09741" fill="none" stroke="black"/>
<path d="M458.471,23.6995v -7.09741" fill="none" stroke="black"/>
<path d="M473.468,23.6995v -7.09741" fill="none" stroke="black"/>
<path d="M488.466,30.7969v -14.1948" fill="none" stroke="black"/>
<path d="M503.464,23.6995v -7.09741" fill="none" stroke="black"/>
<path d="M518.461,23.6995v -7.09741" fill="none" stroke="black"/>
<path d="M533.459,23.6995v -7.09741" fill="none" stroke="black"/>
<path d="M548.457,30.7969v -14.1948" fill="none" stroke="black"/>
<path d="M548.457,30.7969v -14.1948" fill="none" stroke="black"/>
<path d="M68.5315,498.064v -481.461" fill="none" stroke="black"/>
<path d="M83.3283,498.064h -14.7969" fill="none" stroke="black"/>
<path d="M75.9299,483.37h -7.39843" fill="none" stroke="black"/>
<path d="M75.9299,468.676h -7.39843" fill="none" stroke="black"/>
<path d="M75.9299,453.982h -7.39843" fill="none" stroke="black"/>
<path d="M75.9299,439.288h -7.39843" fill="none" stroke="black"/>
<path d="M83.3283,424.594h -14.7969" fill="none" stroke="black"/>
<path d="M75.9299,409.9h -7.39843" fill="none" stroke="black"/>
<path d="M75.9299,395.206h -7.39843" fill="none" stroke="black"/>
<path d="M75.9299,380.512h -7.39843" fill="none" stroke="black"/>
<path d="M75.9299,365.818h -7.39843" fill="none" stroke="black"/>
<path d="M83.3283,351.124h -14.7969" fill="none" stroke="black"/>
<path d="M75.9299,336.43h -7.39843" fill="none" stroke="black"/>
<path d="M75.9299,321.736h -7.39843" fill="none" stroke="black"/>
<path d="M75.9299,307.042h -7.39843" fill="none" stroke="black"/>
<path d="M75.9299,292.348h -7.39843" fill="none" stroke="black"/>
<path d="M83.3283,277.655h -14.7969" fill="none" stroke="black"/>
<path d="M75.9299,262.961h -7.39843" fill="none" stroke="black"/>
<path d="M75.9299,248.267h -7.39843" fill="none" stroke="black"/>
<path d="M75.9299,233.573h -7.39843" fill="none" stroke="black"/>
<path d="M75.9299,218.879h -7.39843" fill="none" stroke="black"/>
<path d="M83.3283,204.185h -14.7969" fill="none" stroke="black"/>
<path d="M75.9299,189.491h -7.39843" fill="none" stroke="black"/>
<path d="M75.9299,174.797h -7.39843" fill="none" stroke="black"/>
<path d="M75.9299,160.103h -7.39843" fill="none" stroke="black"/>
<path d="M75.9299,145.409h -7.39843" fill="none" stroke="black"/>
<path d="M83.3283,130.715h -14.7969" fill="none" stroke="black"/>
<path d="M75.9299,116.021h -7.39843" fill="none" stroke="black"/>
<path d="M75.9299,101.327h -7.39843" fill="none" stroke="black"/>
<path d="M75.9299,86.6333h -7.39843" fill="none" stroke="black"/>
<path d="M75.9299,71.9394h -7.39843" fill="none" stroke="black"/>
<path d="M83.3283,57.2455h -14.7969" fill="none" stroke="black"/>
<path d="M83.3283,57.2455h -14.7969" fill="none" stroke="black"/>
<path d="M75.9299,42.5515h -7.39843" fill="none" stroke="black"/>
<path d="M75.9299,27.8576h -7.39843" fill="none" stroke="black"/>
<text xml:space="preserve" x="56.8548" y="503.248" fill="black" font-size="16.0105" font-family="Helvetica">0</text>
<text xml:space="preserve" x="46.1474" y="429.987" fill="black" font-size="16.0105" font-family="Helvetica">0.1</text>
<text xml:space="preserve" x="43.8932" y="356.726" fill="black" font-size="16.0105" font-family="Helvetica">0.2</text>
<text xml:space="preserve" x="43.8932" y="282.901" fill="black" font-size="16.0105" font-family="Helvetica">0.3</text>
<text xml:space="preserve" x="43.8932" y="209.64" fill="black" font-size="16.0105" font-family="Helvetica">0.4</text>
<text xml:space="preserve" x="43.8932" y="135.815" fill="black" font-size="16.0105" font-family="Helvetica">0.5</text>
<text xml:space="preserve" x="43.8932" y="62.5538" fill="black" font-size="16.0105" font-family="Helvetica">0.6</text>
<g transform="rotate(-90,38.2577,98.0573)">
<text xml:space="preserve" x="38.2577" y="98.0573" fill="black" font-size="16.0105" font-family="Helvetica">background</text>
</g>
<g transform="rotate(-90,21.9148,98.0573)">
<text xml:space="preserve" x="21.9148" y="98.0573" fill="black" font-size="16.0105" font-family="Helvetica">same event</text>
</g>
<path d="M24.169,98.0573l 0.563548, -81.7144" fill="none" stroke="black" stroke-width="2"/>
<path d="M553.256,498.064v -481.461" fill="none" stroke="black"/>
<path d="M538.459,498.064h 14.7969" fill="none" stroke="black"/>
<path d="M545.857,483.37h 7.39843" fill="none" stroke="black"/>
<path d="M545.857,468.676h 7.39843" fill="none" stroke="black"/>
<path d="M545.857,453.982h 7.39843" fill="none" stroke="black"/>
<path d="M545.857,439.288h 7.39843" fill="none" stroke="black"/>
<path d="M538.459,424.594h 14.7969" fill="none" stroke="black"/>
<path d="M545.857,409.9h 7.39843" fill="none" stroke="black"/>
<path d="M545.857,395.206h 7.39843" fill="none" stroke="black"/>
<path d="M545.857,380.512h 7.39843" fill="none" stroke="black"/>
<path d="M545.857,365.818h 7.39843" fill="none" stroke="black"/>
<path d="M538.459,351.124h 14.7969" fill="none" stroke="black"/>
<path d="M545.857,336.43h 7.39843" fill="none" stroke="black"/>
<path d="M545.857,321.736h 7.39843" fill="none" stroke="black"/>
<path d="M545.857,307.042h 7.39843" fill="none" stroke="black"/>
<path d="M545.857,292.348h 7.39843" fill="none" stroke="black"/>
<path d="M538.459,277.655h 14.7969" fill="none" stroke="black"/>
<path d="M545.857,262.961h 7.39843" fill="none" stroke="black"/>
<path d="M545.857,248.267h 7.39843" fill="none" stroke="black"/>
<path d="M545.857,233.573h 7.39843" fill="none" stroke="black"/>
<path d="M545.857,218.879h 7.39843" fill="none" stroke="black"/>
<path d="M538.459,204.185h 14.7969" fill="none" stroke="black"/>
<path d="M545.857,189.491h 7.39843" fill="none" stroke="black"/>
<path d="M545.857,174.797h 7.39843" fill="none" stroke="black"/>
<path d="M545.857,160.103h 7.39843" fill="none" stroke="black"/>
<path d="M545.857,145.409h 7.39843" fill="none" stroke="black"/>
<path d="M538.459,130.715h 14.7969" fill="none" stroke="black"/>
<path d="M545.857,116.021h 7.39843" fill="none" stroke="black"/>
<path d="M545.857,101.327h 7.39843" fill="none" stroke="black"/>
<path d="M545.857,86.6333h 7.39843" fill="none" stroke="black"/>
<path d="M545.857,71.9394h 7.39843" fill="none" stroke="black"/>
<path d="M538.459,57.2455h 14.7969" fill="none" stroke="black"/>
<path d="M538.459,57.2455h 14.7969" fill="none" stroke="black"/>
<path d="M545.857,42.5515h 7.39843" fill="none" stroke="black"/>
<path d="M545.857,27.8576h 7.39843" fill="none" stroke="black"/>
<g stroke="#333333" stroke-width="2" fill="none">
<circle cx="282.098" cy="321.307" r="5.63548"/>
</g>
<g stroke="#333333" stroke-width="2" fill="none">
<circle cx="286.897" cy="320.31" r="5.63548"/>
</g>
<g stroke="#333333" stroke-width="2" fill="none">
<circle cx="291.697" cy="315.921" r="5.63548"/>
</g>
<g stroke="#333333" stroke-width="2" fill="none">
<circle cx="296.496" cy="312.147" r="5.63548"/>
</g>
<g stroke="#333333" stroke-width="2" fill="none">
<circle cx="301.295" cy="312.263" r="5.63548"/>
</g>
<g stroke="#333333" stroke-width="2" fill="none">
<circle cx="306.094" cy="308.486" r="5.63548"/>
</g>
<g stroke="#333333" stroke-width="2" fill="none">
<circle cx="310.894" cy="306.25" r="5.63548"/>
</g>
<g stroke="#333333" stroke-width="2" fill="none">
<circle cx="315.693" cy="304.955" r="5.63548"/>
</g>
<g stroke="#333333" stroke-width="2" fill="none">
<circle cx="320.492" cy="302.239" r="5.63548"/>
</g>
<g stroke="#333333" stroke-width="2" fill="none">
<circle cx="325.291" cy="302.567" r="5.63548"/>
</g>
<g stroke="#333333" stroke-width="2" fill="none">
<circle cx="330.091" cy="298.953" r="5.63548"/>
</g>
<g stroke="#333333" stroke-width="2" fill="none">
<circle cx="334.89" cy="296.332" r="5.63548"/>
</g>
<path d="M98.7518,410.631l 0.44993, -0.221779l 0.44993, -0.221779l 0.44993, -0.221779l 0.44993, -0.221779l 0.44993, -0.221779l 0.44993, -0.221779l 0.44993, -0.221779l 0.44993, -0.221779l 0.44993, -0.221779l 0.44993, -0.221779l 0.44993, -0.221779l
 0.44993, -0.221779l 0.44993, -0.221779l 0.44993, -0.221779l 0.44993, -0.221779l 0.44993, -0.221779l 0.44993, -0.221779l 0.44993, -0.221779l 0.44993, -0.221779l 0.44993, -0.221779l 0.44993, -0.221779l 0.44993, -0.221779l 0.44993, -0.221779l 0.44993,
 -0.221779l 0.44993, -0.221779l 0.44993, -0.221779l 0.44993, -0.221779l 0.44993, -0.221779l 0.44993, -0.221779l 0.44993, -0.221779l 0.44993, -0.221779l 0.44993, -0.221779l 0.44993, -0.221779l 0.44993, -0.221779l 0.44993, -0.221779l 0.44993,
 -0.221779l 0.44993, -0.221779l 0.44993, -0.221779l 0.44993, -0.221779l 0.44993, -0.221779l 0.44993, -0.221779l 0.44993, -0.221779l 0.44993, -0.221779l 0.44993, -0.221779l 0.44993, -0.221779l 0.44993, -0.221779l 0.44993, -0.221779l 0.44993,
 -0.221779l 0.44993, -0.221779" fill="none" stroke="#33cccc" stroke-width="3"/>
<path d="M120.798,399.764l 0.44993, -0.221779l 0.44993, -0.221779l 0.44993, -0.221779l 0.44993, -0.221779l 0.44993, -0.221779l 0.44993, -0.221779l 0.44993, -0.221779l 0.44993, -0.221779l 0.44993, -0.221779l 0.44993, -0.221779l 0.44993, -0.221779l
 0.44993, -0.221779l 0.44993, -0.221779l 0.44993, -0.221779l 0.44993, -0.221779l 0.44993, -0.221779l 0.44993, -0.221779l 0.44993, -0.221779l 0.44993, -0.221779l 0.44993, -0.221779l 0.44993, -0.221779l 0.44993, -0.221779l 0.44993, -0.221779l 0.44993,
 -0.221779l 0.44993, -0.221779l 0.44993, -0.221779l 0.44993, -0.221779l 0.44993, -0.221779l 0.44993, -0.221779l 0.44993, -0.221779l 0.44993, -0.221779l 0.44993, -0.221779l 0.44993, -0.221779l 0.44993, -0.221779l 0.44993, -0.221779l 0.44993,
 -0.221779l 0.44993, -0.221779l 0.44993, -0.221779l 0.44993, -0.221779l 0.44993, -0.221779l 0.44993, -0.221779l 0.44993, -0.221779l 0.44993, -0.221779l 0.44993, -0.221779l 0.44993, -0.221779l 0.44993, -0.221779l 0.44993, -0.221779l 0.44993,
 -0.221779l 0.44993, -0.221779" fill="none" stroke="#33cccc" stroke-width="3"/>
<path d="M142.845,388.897l 0.44993, -0.221779l 0.44993, -0.221779l 0.44993, -0.221779l 0.44993, -0.221779l 0.44993, -0.221779l 0.44993, -0.221779l 0.44993, -0.221779l 0.44993, -0.221779l 0.44993, -0.221779l 0.44993, -0.221779l 0.44993, -0.221779l
 0.44993, -0.221779l 0.44993, -0.221779l 0.44993, -0.221779l 0.44993, -0.221779l 0.44993, -0.221779l 0.44993, -0.221779l 0.44993, -0.221779l 0.44993, -0.221779l 0.44993, -0.221779l 0.44993, -0.221779l 0.44993, -0.221779l 0.44993, -0.221779l 0.44993,
 -0.221779l 0.44993, -0.221779l 0.44993, -0.221779l 0.44993, -0.221779l 0.44993, -0.221779l 0.44993, -0.221779l 0.44993, -0.221779l 0.44993, -0.221779l 0.44993, -0.221779l 0.44993, -0.221779l 0.44993, -0.221779l 0.44993, -0.221779l 0.44993,
 -0.221779l 0.44993, -0.221779l 0.44993, -0.221779l 0.44993, -0.221779l 0.44993, -0.221779l 0.44993, -0.221779l 0.44993, -0.221779l 0.44993, -0.221779l 0.44993, -0.221779l 0.44993, -0.221779l 0.44993, -0.221779l 0.44993, -0.221779l 0.44993,
 -0.221779l 0.44993, -0.221779" fill="none" stroke="#33cccc" stroke-width="3"/>
<path d="M164.891,378.03l 0.44993, -0.221779l 0.44993, -0.221779l 0.44993, -0.221779l 0.44993, -0.221779l 0.44993, -0.221779l 0.44993, -0.221779l 0.44993, -0.221779l 0.44993, -0.221779l 0.44993, -0.221779l 0.44993, -0.221779l 0.44993, -0.221779l
 0.44993, -0.221779l 0.44993, -0.221779l 0.44993, -0.221779l 0.44993, -0.221779l 0.44993, -0.221779l 0.44993, -0.221779l 0.44993, -0.221779l 0.44993, -0.221779l 0.44993, -0.221779l 0.44993, -0.221779l 0.44993, -0.221779l 0.44993, -0.221779l 0.44993,
 -0.221779l 0.44993, -0.221779l 0.44993, -0.221779l 0.44993, -0.221779l 0.44993, -0.221779l 0.44993, -0.221779l 0.44993, -0.221779l 0.44993, -0.221779l 0.44993, -0.221779l 0.44993, -0.221779l 0.44993, -0.221779l 0.44993, -0.221779l 0.44993,
 -0.221779l 0.44993, -0.221779l 0.44993, -0.221779l 0.44993, -0.221779l 0.44993, -0.221779l 0.44993, -0.221779l 0.44993, -0.221779l 0.44993, -0.221779l 0.44993, -0.221779l 0.44993, -0.221779l 0.44993, -0.221779l 0.44993, -0.221779l 0.44993,
 -0.221779l 0.44993, -0.221779" fill="none" stroke="#33cccc" stroke-width="3"/>
<path d="M186.938,367.163l 0.44993, -0.221779l 0.44993, -0.221779l 0.44993, -0.221779l 0.44993, -0.221779l 0.44993, -0.221779l 0.44993, -0.221779l 0.44993, -0.221779l 0.44993, -0.221779l 0.44993, -0.221779l 0.44993, -0.221779l 0.44993, -0.221779l
 0.44993, -0.221779l 0.44993, -0.221779l 0.44993, -0.221779l 0.44993, -0.221779l 0.44993, -0.221779l 0.44993, -0.221779l 0.44993, -0.221779l 0.44993, -0.221779l 0.44993, -0.221779l 0.44993, -0.221779l 0.44993, -0.221779l 0.44993, -0.221779l 0.44993,
 -0.221779l 0.44993, -0.221779l 0.44993, -0.221779l 0.44993, -0.221779l 0.44993, -0.221779l 0.44993, -0.221779l 0.44993, -0.221779l 0.44993, -0.221779l 0.44993, -0.221779l 0.44993, -0.221779l 0.44993, -0.221779l 0.44993, -0.221779l 0.44993,
 -0.221779l 0.44993, -0.221779l 0.44993, -0.221779l 0.44993, -0.221779l 0.44993, -0.221779l 0.44993, -0.221779l 0.44993, -0.221779l 0.44993, -0.221779l 0.44993, -0.221779l 0.44993, -0.221779l 0.44993, -0.221779l 0.44993, -0.221779l 0.44993,
 -0.221779l 0.44993, -0.221779" fill="none" stroke="#33cccc" stroke-width="3"/>
<path d="M208.985,356.296l 0.44993, -0.221779l 0.44993, -0.221779l 0.44993, -0.221779l 0.44993, -0.221779l 0.44993, -0.221779l 0.44993, -0.221779l 0.44993, -0.221779l 0.44993, -0.221779l 0.44993, -0.221779l 0.44993, -0.221779l 0.44993, -0.221779l
 0.44993, -0.221779l 0.44993, -0.221779l 0.44993, -0.221779l 0.44993, -0.221779l 0.44993, -0.221779l 0.44993, -0.221779l 0.44993, -0.221779l 0.44993, -0.221779l 0.44993, -0.221779l 0.44993, -0.221779l 0.44993, -0.221779l 0.44993, -0.221779l 0.44993,
 -0.221779l 0.44993, -0.221779l 0.44993, -0.221779l 0.44993, -0.221779l 0.44993, -0.221779l 0.44993, -0.221779l 0.44993, -0.221779l 0.44993, -0.221779l 0.44993, -0.221779l 0.44993, -0.221779l 0.44993, -0.221779l 0.44993, -0.221779l 0.44993,
 -0.221779l 0.44993, -0.221779l 0.44993, -0.221779l 0.44993, -0.221779l 0.44993, -0.221779l 0.44993, -0.221779l 0.44993, -0.221779l 0.44993, -0.221779l 0.44993, -0.221779l 0.44993, -0.221779l 0.44993, -0.221779l 0.44993, -0.221779l 0.44993,
 -0.221779l 0.44993, -0.221779" fill="none" stroke="#33cccc" stroke-width="3"/>
<path d="M231.031,345.428l 0.44993, -0.221779l 0.44993, -0.221779l 0.44993, -0.221779l 0.44993, -0.221779l 0.44993, -0.221779l 0.44993, -0.221779l 0.44993, -0.221779l 0.44993, -0.221779l 0.44993, -0.221779l 0.44993, -0.221779l 0.44993, -0.221779l
 0.44993, -0.221779l 0.44993, -0.221779l 0.44993, -0.221779l 0.44993, -0.221779l 0.44993, -0.221779l 0.44993, -0.221779l 0.44993, -0.221779l 0.44993, -0.221779l 0.44993, -0.221779l 0.44993, -0.221779l 0.44993, -0.221779l 0.44993, -0.221779l 0.44993,
 -0.221779l 0.44993, -0.221779l 0.44993, -0.221779l 0.44993, -0.221779l 0.44993, -0.221779l 0.44993, -0.221779l 0.44993, -0.221779l 0.44993, -0.221779l 0.44993, -0.221779l 0.44993, -0.221779l 0.44993, -0.221779l 0.44993, -0.221779l 0.44993,
 -0.221779l 0.44993, -0.221779l 0.44993, -0.221779l 0.44993, -0.221779l 0.44993, -0.221779l 0.44993, -0.221779l 0.44993, -0.221779l 0.44993, -0.221779l 0.44993, -0.221779l 0.44993, -0.221779l 0.44993, -0.221779l 0.44993, -0.221779l 0.44993,
 -0.221779l 0.44993, -0.221779" fill="none" stroke="#33cccc" stroke-width="3"/>
<path d="M253.078,334.561l 0.44993, -0.221779l 0.44993, -0.221779l 0.44993, -0.221779l 0.44993, -0.221779l 0.44993, -0.221779l 0.44993, -0.221779l 0.44993, -0.221779l 0.44993, -0.221779l 0.44993, -0.221779l 0.44993, -0.221779l 0.44993, -0.221779l
 0.44993, -0.221779l 0.44993, -0.221779l 0.44993, -0.221779l 0.44993, -0.221779l 0.44993, -0.221779l 0.44993, -0.221779l 0.44993, -0.221779l 0.44993, -0.221779l 0.44993, -0.221779l 0.44993, -0.221779l 0.44993, -0.221779l 0.44993, -0.221779l 0.44993,
 -0.221779l 0.44993, -0.221779l 0.44993, -0.221779l 0.44993, -0.221779l 0.44993, -0.221779l 0.44993, -0.221779l 0.44993, -0.221779l 0.44993, -0.221779l 0.44993, -0.221779l 0.44993, -0.221779l 0.44993, -0.221779l 0.44993, -0.221779l 0.44993,
 -0.221779l 0.44993, -0.221779l 0.44993, -0.221779l 0.44993, -0.221779l 0.44993, -0.221779l 0.44993, -0.221779l 0.44993, -0.221779l 0.44993, -0.221779l 0.44993, -0.221779l 0.44993, -0.221779l 0.44993, -0.221779l 0.44993, -0.221779l 0.44993,
 -0.221779l 0.44993, -0.221779" fill="none" stroke="#33cccc" stroke-width="3"/>
<path d="M275.124,323.694l 0.44993, -0.221779l 0.44993, -0.221779l 0.44993, -0.221779l 0.44993, -0.221779l 0.44993, -0.221779l 0.44993, -0.221779l 0.44993, -0.221779l 0.44993, -0.221779l 0.44993, -0.221779l 0.44993, -0.221779l 0.44993, -0.221779l
 0.44993, -0.221779l 0.44993, -0.221779l 0.44993, -0.221779l 0.44993, -0.221779l 0.44993, -0.221779l 0.44993, -0.221779l 0.44993, -0.221779l 0.44993, -0.221779l 0.44993, -0.221779l 0.44993, -0.221779l 0.44993, -0.221779l 0.44993, -0.221779l 0.44993,
 -0.221779l 0.44993, -0.221779l 0.44993, -0.221779l 0.44993, -0.221779l 0.44993, -0.221779l 0.44993, -0.221779l 0.44993, -0.221779l 0.44993, -0.221779l 0.44993, -0.221779l 0.44993, -0.221779l 0.44993, -0.221779l 0.44993, -0.221779l 0.44993,
 -0.221779l 0.44993, -0.221779l 0.44993, -0.221779l 0.44993, -0.221779l 0.44993, -0.221779l 0.44993, -0.221779l 0.44993, -0.221779l 0.44993, -0.221779l 0.44993, -0.221779l 0.44993, -0.221779l 0.44993, -0.221779l 0.44993, -0.221779l 0.44993,
 -0.221779l 0.44993, -0.221779" fill="none" stroke="#33cccc" stroke-width="3"/>
<path d="M297.171,312.827l 0.44993, -0.221779l 0.44993, -0.221779l 0.44993, -0.221779l 0.44993, -0.221779l 0.44993, -0.221779l 0.44993, -0.221779l 0.44993, -0.221779l 0.44993, -0.221779l 0.44993, -0.221779l 0.44993, -0.221779l 0.44993, -0.221779l
 0.44993, -0.221779l 0.44993, -0.221779l 0.44993, -0.221779l 0.44993, -0.221779l 0.44993, -0.221779l 0.44993, -0.221779l 0.44993, -0.221779l 0.44993, -0.221779l 0.44993, -0.221779l 0.44993, -0.221779l 0.44993, -0.221779l 0.44993, -0.221779l 0.44993,
 -0.221779l 0.44993, -0.221779l 0.44993, -0.221779l 0.44993, -0.221779l 0.44993, -0.221779l 0.44993, -0.221779l 0.44993, -0.221779l 0.44993, -0.221779l 0.44993, -0.221779l 0.44993, -0.221779l 0.44993, -0.221779l 0.44993, -0.221779l 0.44993,
 -0.221779l 0.44993, -0.221779l 0.44993, -0.221779l 0.44993, -0.221779l 0.44993, -0.221779l 0.44993, -0.221779l 0.44993, -0.221779l 0.44993, -0.221779l 0.44993, -0.221779l 0.44993, -0.221779l 0.44993, -0.221779l 0.44993, -0.221779l 0.44993,
 -0.221779l 0.44993, -0.221779" fill="none" stroke="#33cccc" stroke-width="3"/>
<path d="M319.217,301.96l 0.44993, -0.221779l 0.44993, -0.221779l 0.44993, -0.221779l 0.44993, -0.221779l 0.44993, -0.221779l 0.44993, -0.221779l 0.44993, -0.221779l 0.44993, -0.221779l 0.44993, -0.221779l 0.44993, -0.221779l 0.44993, -0.221779l
 0.44993, -0.221779l 0.44993, -0.221779l 0.44993, -0.221779l 0.44993, -0.221779l 0.44993, -0.221779l 0.44993, -0.221779l 0.44993, -0.221779l 0.44993, -0.221779l 0.44993, -0.221779l 0.44993, -0.221779l 0.44993, -0.221779l 0.44993, -0.221779l 0.44993,
 -0.221779l 0.44993, -0.221779l 0.44993, -0.221779l 0.44993, -0.221779l 0.44993, -0.221779l 0.44993, -0.221779l 0.44993, -0.221779l 0.44993, -0.221779l 0.44993, -0.221779l 0.44993, -0.221779l 0.44993, -0.221779l 0.44993, -0.221779l 0.44993,
 -0.221779l 0.44993, -0.221779l 0.44993, -0.221779l 0.44993, -0.221779l 0.44993, -0.221779l 0.44993, -0.221779l 0.44993, -0.221779l 0.44993, -0.221779l 0.44993, -0.221779l 0.44993, -0.221779l 0.44993, -0.221779l 0.44993, -0.221779l 0.44993,
 -0.221779l 0.44993, -0.221779" fill="none" stroke="#33cccc" stroke-width="3"/>
<path d="M341.264,291.093l 0.44993, -0.221779l 0.44993, -0.221779l 0.44993, -0.221779l 0.44993, -0.221779l 0.44993, -0.221779l 0.44993, -0.221779l 0.44993, -0.221779l 0.44993, -0.221779l 0.44993, -0.221779l 0.44993, -0.221779l 0.44993, -0.221779l
 0.44993, -0.221779l 0.44993, -0.221779l 0.44993, -0.221779l 0.44993, -0.221779l 0.44993, -0.221779l 0.44993, -0.221779l 0.44993, -0.221779l 0.44993, -0.221779l 0.44993, -0.221779l 0.44993, -0.221779l 0.44993, -0.221779l 0.44993, -0.221779l 0.44993,
 -0.221779l 0.44993, -0.221779l 0.44993, -0.221779l 0.44993, -0.221779l 0.44993, -0.221779l 0.44993, -0.221779l 0.44993, -0.221779l 0.44993, -0.221779l 0.44993, -0.221779l 0.44993, -0.221779l 0.44993, -0.221779l 0.44993, -0.221779l 0.44993,
 -0.221779l 0.44993, -0.221779l 0.44993, -0.221779l 0.44993, -0.221779l 0.44993, -0.221779l 0.44993, -0.221779l 0.44993, -0.221779l 0.44993, -0.221779l 0.44993, -0.221779l 0.44993, -0.221779l 0.44993, -0.221779l 0.44993, -0.221779l 0.44993,
 -0.221779l 0.44993, -0.221779" fill="none" stroke="#33cccc" stroke-width="3"/>
<path d="M363.311,280.225l 0.44993, -0.221779l 0.44993, -0.221779l 0.44993, -0.221779l 0.44993, -0.221779l 0.44993, -0.221779l 0.44993, -0.221779l 0.44993, -0.221779l 0.44993, -0.221779l 0.44993, -0.221779l 0.44993, -0.221779l 0.44993, -0.221779l
 0.44993, -0.221779l 0.44993, -0.221779l 0.44993, -0.221779l 0.44993, -0.221779l 0.44993, -0.221779l 0.44993, -0.221779l 0.44993, -0.221779l 0.44993, -0.221779l 0.44993, -0.221779l 0.44993, -0.221779l 0.44993, -0.221779l 0.44993, -0.221779l 0.44993,
 -0.221779l 0.44993, -0.221779l 0.44993, -0.221779l 0.44993, -0.221779l 0.44993, -0.221779l 0.44993, -0.221779l 0.44993, -0.221779l 0.44993, -0.221779l 0.44993, -0.221779l 0.44993, -0.221779l 0.44993, -0.221779l 0.44993, -0.221779l 0.44993,
 -0.221779l 0.44993, -0.221779l 0.44993, -0.221779l 0.44993, -0.221779l 0.44993, -0.221779l 0.44993, -0.221779l 0.44993, -0.221779l 0.44993, -0.221779l 0.44993, -0.221779l 0.44993, -0.221779l 0.44993, -0.221779l 0.44993, -0.221779l 0.44993,
 -0.221779l 0.44993, -0.221779" fill="none" stroke="#33cccc" stroke-width="3"/>
<path d="M385.357,269.358l 0.44993, -0.221779l 0.44993, -0.221779l 0.44993, -0.221779l 0.44993, -0.221779l 0.44993, -0.221779l 0.44993, -0.221779l 0.44993, -0.221779l 0.44993, -0.221779l 0.44993, -0.221779l 0.44993, -0.221779l 0.44993, -0.221779l
 0.44993, -0.221779l 0.44993, -0.221779l 0.44993, -0.221779l 0.44993, -0.221779l 0.44993, -0.221779l 0.44993, -0.221779l 0.44993, -0.221779l 0.44993, -0.221779l 0.44993, -0.221779l 0.44993, -0.221779l 0.44993, -0.221779l 0.44993, -0.221779l 0.44993,
 -0.221779l 0.44993, -0.221779l 0.44993, -0.221779l 0.44993, -0.221779l 0.44993, -0.221779l 0.44993, -0.221779l 0.44993, -0.221779l 0.44993, -0.221779l 0.44993, -0.221779l 0.44993, -0.221779l 0.44993, -0.221779l 0.44993, -0.221779l 0.44993,
 -0.221779l 0.44993, -0.221779l 0.44993, -0.221779l 0.44993, -0.221779l 0.44993, -0.221779l 0.44993, -0.221779l 0.44993, -0.221779l 0.44993, -0.221779l 0.44993, -0.221779l 0.44993, -0.221779l 0.44993, -0.221779l 0.44993, -0.221779l 0.44993,
 -0.221779l 0.44993, -0.221779" fill="none" stroke="#33cccc" stroke-width="3"/>
<path d="M407.404,258.491l 0.44993, -0.221779l 0.44993, -0.221779l 0.44993, -0.221779l 0.44993, -0.221779l 0.44993, -0.221779l 0.44993, -0.221779l 0.44993, -0.221779l 0.44993, -0.221779l 0.44993, -0.221779l 0.44993, -0.221779l 0.44993, -0.221779l
 0.44993, -0.221779l 0.44993, -0.221779l 0.44993, -0.221779l 0.44993, -0.221779l 0.44993, -0.221779l 0.44993, -0.221779l 0.44993, -0.221779l 0.44993, -0.221779l 0.44993, -0.221779l 0.44993, -0.221779l 0.44993, -0.221779l 0.44993, -0.221779l 0.44993,
 -0.221779l 0.44993, -0.221779l 0.44993, -0.221779l 0.44993, -0.221779l 0.44993, -0.221779l 0.44993, -0.221779l 0.44993, -0.221779l 0.44993, -0.221779l 0.44993, -0.221779l 0.44993, -0.221779l 0.44993, -0.221779l 0.44993, -0.221779l 0.44993,
 -0.221779l 0.44993, -0.221779l 0.44993, -0.221779l 0.44993, -0.221779l 0.44993, -0.221779l 0.44993, -0.221779l 0.44993, -0.221779l 0.44993, -0.221779l 0.44993, -0.221779l 0.44993, -0.221779l 0.44993, -0.221779l 0.44993, -0.221779l 0.44993,
 -0.221779l 0.44993, -0.221779" fill="none" stroke="#33cccc" stroke-width="3"/>
<path d="M429.45,247.624l 0.44993, -0.221779l 0.44993, -0.221779l 0.44993, -0.221779l 0.44993, -0.221779l 0.44993, -0.221779l 0.44993, -0.221779l 0.44993, -0.221779l 0.44993, -0.221779l 0.44993, -0.221779l 0.44993, -0.221779l 0.44993, -0.221779l
 0.44993, -0.221779l 0.44993, -0.221779l 0.44993, -0.221779l 0.44993, -0.221779l 0.44993, -0.221779l 0.44993, -0.221779l 0.44993, -0.221779l 0.44993, -0.221779l 0.44993, -0.221779l 0.44993, -0.221779l 0.44993, -0.221779l 0.44993, -0.221779l 0.44993,
 -0.221779l 0.44993, -0.221779l 0.44993, -0.221779l 0.44993, -0.221779l 0.44993, -0.221779l 0.44993, -0.221779l 0.44993, -0.221779l 0.44993, -0.221779l 0.44993, -0.221779l 0.44993, -0.221779l 0.44993, -0.221779l 0.44993, -0.221779l 0.44993,
 -0.221779l 0.44993, -0.221779l 0.44993, -0.221779l 0.44993, -0.221779l 0.44993, -0.221779l 0.44993, -0.221779l 0.44993, -0.221779l 0.44993, -0.221779l 0.44993, -0.221779l 0.44993, -0.221779l 0.44993, -0.221779l 0.44993, -0.221779l 0.44993,
 -0.221779l 0.44993, -0.221779" fill="none" stroke="#33cccc" stroke-width="3"/>
<path d="M451.497,236.757l 0.44993, -0.221779l 0.44993, -0.221779l 0.44993, -0.221779l 0.44993, -0.221779l 0.44993, -0.221779l 0.44993, -0.221779l 0.44993, -0.221779l 0.44993, -0.221779l 0.44993, -0.221779l 0.44993, -0.221779l 0.44993, -0.221779l
 0.44993, -0.221779l 0.44993, -0.221779l 0.44993, -0.221779l 0.44993, -0.221779l 0.44993, -0.221779l 0.44993, -0.221779l 0.44993, -0.221779l 0.44993, -0.221779l 0.44993, -0.221779l 0.44993, -0.221779l 0.44993, -0.221779l 0.44993, -0.221779l 0.44993,
 -0.221779l 0.44993, -0.221779l 0.44993, -0.221779l 0.44993, -0.221779l 0.44993, -0.221779l 0.44993, -0.221779l 0.44993, -0.221779l 0.44993, -0.221779l 0.44993, -0.221779l 0.44993, -0.221779l 0.44993, -0.221779l 0.44993, -0.221779l 0.44993,
 -0.221779l 0.44993, -0.221779l 0.44993, -0.221779l 0.44993, -0.221779l 0.44993, -0.221779l 0.44993, -0.221779l 0.44993, -0.221779l 0.44993, -0.221779l 0.44993, -0.221779l 0.44993, -0.221779l 0.44993, -0.221779l 0.44993, -0.221779l 0.44993,
 -0.221779l 0.44993, -0.221779" fill="none" stroke="#33cccc" stroke-width="3"/>
<path d="M473.543,225.89l 0.44993, -0.221779l 0.44993, -0.221779l 0.44993, -0.221779l 0.44993, -0.221779l 0.44993, -0.221779l 0.44993, -0.221779l 0.44993, -0.221779l 0.44993, -0.221779l 0.44993, -0.221779l 0.44993, -0.221779l 0.44993, -0.221779l
 0.44993, -0.221779l 0.44993, -0.221779l 0.44993, -0.221779l 0.44993, -0.221779l 0.44993, -0.221779l 0.44993, -0.221779l 0.44993, -0.221779l 0.44993, -0.221779l 0.44993, -0.221779l 0.44993, -0.221779l 0.44993, -0.221779l 0.44993, -0.221779l 0.44993,
 -0.221779l 0.44993, -0.221779l 0.44993, -0.221779l 0.44993, -0.221779l 0.44993, -0.221779l 0.44993, -0.221779l 0.44993, -0.221779l 0.44993, -0.221779l 0.44993, -0.221779l 0.44993, -0.221779l 0.44993, -0.221779l 0.44993, -0.221779l 0.44993,
 -0.221779l 0.44993, -0.221779l 0.44993, -0.221779l 0.44993, -0.221779l 0.44993, -0.221779l 0.44993, -0.221779l 0.44993, -0.221779l 0.44993, -0.221779l 0.44993, -0.221779l 0.44993, -0.221779l 0.44993, -0.221779l 0.44993, -0.221779l 0.44993,
 -0.221779l 0.44993, -0.221779" fill="none" stroke="#33cccc" stroke-width="3"/>
<path d="M495.59,215.022l 0.44993, -0.221779l 0.44993, -0.221779l 0.44993, -0.221779l 0.44993, -0.221779l 0.44993, -0.221779l 0.44993, -0.221779l 0.44993, -0.221779l 0.44993, -0.221779l 0.44993, -0.221779l 0.44993, -0.221779l 0.44993, -0.221779l
 0.44993, -0.221779l 0.44993, -0.221779l 0.44993, -0.221779l 0.44993, -0.221779l 0.44993, -0.221779l 0.44993, -0.221779l 0.44993, -0.221779l 0.44993, -0.221779l 0.44993, -0.221779l 0.44993, -0.221779l 0.44993, -0.221779l 0.44993, -0.221779l 0.44993,
 -0.221779l 0.44993, -0.221779l 0.44993, -0.221779l 0.44993, -0.221779l 0.44993, -0.221779l 0.44993, -0.221779l 0.44993, -0.221779l 0.44993, -0.221779l 0.44993, -0.221779l 0.44993, -0.221779l 0.44993, -0.221779l 0.44993, -0.221779l 0.44993,
 -0.221779l 0.44993, -0.221779l 0.44993, -0.221779l 0.44993, -0.221779l 0.44993, -0.221779l 0.44993, -0.221779l 0.44993, -0.221779l 0.44993, -0.221779l 0.44993, -0.221779l 0.44993, -0.221779l 0.44993, -0.221779l 0.44993, -0.221779l 0.44993,
 -0.221779l 0.44993, -0.221779" fill="none" stroke="#33cccc" stroke-width="3"/>
<path d="M517.636,204.155l 0.44993, -0.221779l 0.44993, -0.221779l 0.44993, -0.221779l 0.44993, -0.221779l 0.44993, -0.221779l 0.44993, -0.221779l 0.44993, -0.221779l 0.44993, -0.221779l 0.44993, -0.221779l 0.44993, -0.221779l 0.44993, -0.221779l
 0.44993, -0.221779l 0.44993, -0.221779l 0.44993, -0.221779l 0.44993, -0.221779l 0.44993, -0.221779l 0.44993, -0.221779l 0.44993, -0.221779l 0.44993, -0.221779l 0.44993, -0.221779l 0.44993, -0.221779l 0.44993, -0.221779l 0.44993, -0.221779l 0.44993,
 -0.221779l 0.44993, -0.221779l 0.44993, -0.221779l 0.44993, -0.221779l 0.44993, -0.221779l 0.44993, -0.221779l 0.44993, -0.221779l 0.44993, -0.221779l 0.44993, -0.221779l 0.44993, -0.221779l 0.44993, -0.221779l 0.44993, -0.221779l 0.44993,
 -0.221779l 0.44993, -0.221779l 0.44993, -0.221779l 0.44993, -0.221779l 0.44993, -0.221779l 0.44993, -0.221779l 0.44993, -0.221779l 0.44993, -0.221779l 0.44993, -0.221779l 0.44993, -0.221779l 0.44993, -0.221779l 0.44993, -0.221779l 0.44993,
 -0.221779l 0.44993, -0.221779" fill="none" stroke="#33cccc" stroke-width="3"/>
<path d="M539.683,193.288l 0.44993, -0.221779l 0.44993, -0.221779l 0.44993, -0.221779l 0.44993, -0.221779l 0.44993, -0.221779l 0.44993, -0.221779l 0.44993, -0.221779l 0.44993, -0.221779l 0.44993, -0.221779l 0.44993, -0.221779l 0.44993, -0.221779l
 0.44993, -0.221779l 0.44993, -0.221779l 0.44993, -0.221779l 0.44993, -0.221779l 0.44993, -0.221779l 0.44993, -0.221779l 0.44993, -0.221779l 0.44993, -0.221779" fill="none" stroke="#33cccc" stroke-width="3"/>
<path d="M98.7518,401.182l 0.44993, -0.18375l 0.44993, -0.18382l 0.44993, -0.183889l 0.44993, -0.183959l 0.44993, -0.184028l 0.44993, -0.184098l 0.44993, -0.184168l 0.44993, -0.184237l 0.44993, -0.184307l 0.44993, -0.184376l 0.44993, -0.184446l
 0.44993, -0.184515l 0.44993, -0.184585l 0.44993, -0.184655l 0.44993, -0.184724l 0.44993, -0.184794l 0.44993, -0.184863l 0.44993, -0.184933l 0.44993, -0.185002l 0.44993, -0.185072l 0.44993, -0.185141l 0.44993, -0.185211l 0.44993, -0.185281l 0.44993,
 -0.18535l 0.44993, -0.18542l 0.44993, -0.185489l 0.44993, -0.185559l 0.44993, -0.185628l 0.44993, -0.185698l 0.44993, -0.185768l 0.44993, -0.185837l 0.44993, -0.185907l 0.44993, -0.185976l 0.44993, -0.186046l 0.44993, -0.186115l 0.44993, -0.186185l
 0.44993, -0.186255l 0.44993, -0.186324l 0.44993, -0.186394l 0.44993, -0.186463l 0.44993, -0.186533l 0.44993, -0.186602l 0.44993, -0.186672l 0.44993, -0.186741l 0.44993, -0.186811l 0.44993, -0.186881l 0.44993, -0.18695l 0.44993, -0.18702l 0.44993,
 -0.187089" fill="none" stroke="#ff0066" stroke-width="3"/>
<path d="M120.798,392.096l 0.44993, -0.187159l 0.44993, -0.187228l 0.44993, -0.187298l 0.44993, -0.187368l 0.44993, -0.187437l 0.44993, -0.187507l 0.44993, -0.187576l 0.44993, -0.187646l 0.44993, -0.187715l 0.44993, -0.187785l 0.44993, -0.187854l
 0.44993, -0.187924l 0.44993, -0.187994l 0.44993, -0.188063l 0.44993, -0.188133l 0.44993, -0.188202l 0.44993, -0.188272l 0.44993, -0.188341l 0.44993, -0.188411l 0.44993, -0.188481l 0.44993, -0.18855l 0.44993, -0.18862l 0.44993, -0.188689l 0.44993,
 -0.188759l 0.44993, -0.188828l 0.44993, -0.188898l 0.44993, -0.188968l 0.44993, -0.189037l 0.44993, -0.189107l 0.44993, -0.189176l 0.44993, -0.189246l 0.44993, -0.189315l 0.44993, -0.189385l 0.44993, -0.189454l 0.44993, -0.189524l 0.44993,
 -0.189594l 0.44993, -0.189663l 0.44993, -0.189733l 0.44993, -0.189802l 0.44993, -0.189872l 0.44993, -0.189941l 0.44993, -0.190011l 0.44993, -0.190081l 0.44993, -0.19015l 0.44993, -0.19022l 0.44993, -0.190289l 0.44993, -0.190359l 0.44993, -0.190428l
 0.44993, -0.190498" fill="none" stroke="#ff0066" stroke-width="3"/>
<path d="M142.845,382.844l 0.44993, -0.190567l 0.44993, -0.190637l 0.44993, -0.190707l 0.44993, -0.190776l 0.44993, -0.190846l 0.44993, -0.190915l 0.44993, -0.190985l 0.44993, -0.191054l 0.44993, -0.191124l 0.44993, -0.191194l 0.44993, -0.191263l
 0.44993, -0.191333l 0.44993, -0.191402l 0.44993, -0.191472l 0.44993, -0.191541l 0.44993, -0.191611l 0.44993, -0.191681l 0.44993, -0.19175l 0.44993, -0.19182l 0.44993, -0.191889l 0.44993, -0.191959l 0.44993, -0.192028l 0.44993, -0.192098l 0.44993,
 -0.192167l 0.44993, -0.192237l 0.44993, -0.192307l 0.44993, -0.192376l 0.44993, -0.192446l 0.44993, -0.192515l 0.44993, -0.192585l 0.44993, -0.192654l 0.44993, -0.192724l 0.44993, -0.192794l 0.44993, -0.192863l 0.44993, -0.192933l 0.44993,
 -0.193002l 0.44993, -0.193072l 0.44993, -0.193141l 0.44993, -0.193211l 0.44993, -0.193281l 0.44993, -0.19335l 0.44993, -0.19342l 0.44993, -0.193489l 0.44993, -0.193559l 0.44993, -0.193628l 0.44993, -0.193698l 0.44993, -0.193767l 0.44993, -0.193837l
 0.44993, -0.193907" fill="none" stroke="#ff0066" stroke-width="3"/>
<path d="M164.891,373.424l 0.44993, -0.193976l 0.44993, -0.194046l 0.44993, -0.194115l 0.44993, -0.194185l 0.44993, -0.194254l 0.44993, -0.194324l 0.44993, -0.194394l 0.44993, -0.194463l 0.44993, -0.194533l 0.44993, -0.194602l 0.44993, -0.194672l
 0.44993, -0.194741l 0.44993, -0.194811l 0.44993, -0.19488l 0.44993, -0.19495l 0.44993, -0.19502l 0.44993, -0.195089l 0.44993, -0.195159l 0.44993, -0.195228l 0.44993, -0.195298l 0.44993, -0.195367l 0.44993, -0.195437l 0.44993, -0.195507l 0.44993,
 -0.195576l 0.44993, -0.195646l 0.44993, -0.195715l 0.44993, -0.195785l 0.44993, -0.195854l 0.44993, -0.195924l 0.44993, -0.195994l 0.44993, -0.196063l 0.44993, -0.196133l 0.44993, -0.196202l 0.44993, -0.196272l 0.44993, -0.196341l 0.44993,
 -0.196411l 0.44993, -0.19648l 0.44993, -0.19655l 0.44993, -0.19662l 0.44993, -0.196689l 0.44993, -0.196759l 0.44993, -0.196828l 0.44993, -0.196898l 0.44993, -0.196967l 0.44993, -0.197037l 0.44993, -0.197107l 0.44993, -0.197176l 0.44993, -0.197246l
 0.44993, -0.197315" fill="none" stroke="#ff0066" stroke-width="3"/>
<path d="M186.938,363.837l 0.44993, -0.197385l 0.44993, -0.197454l 0.44993, -0.197524l 0.44993, -0.197593l 0.44993, -0.197663l 0.44993, -0.197733l 0.44993, -0.197802l 0.44993, -0.197872l 0.44993, -0.197941l 0.44993, -0.198011l 0.44993, -0.19808l
 0.44993, -0.19815l 0.44993, -0.19822l 0.44993, -0.198289l 0.44993, -0.198359l 0.44993, -0.198428l 0.44993, -0.198498l 0.44993, -0.198567l 0.44993, -0.198637l 0.44993, -0.198707l 0.44993, -0.198776l 0.44993, -0.198846l 0.44993, -0.198915l 0.44993,
 -0.198985l 0.44993, -0.199054l 0.44993, -0.199124l 0.44993, -0.199193l 0.44993, -0.199263l 0.44993, -0.199333l 0.44993, -0.199402l 0.44993, -0.199472l 0.44993, -0.199541l 0.44993, -0.199611l 0.44993, -0.19968l 0.44993, -0.19975l 0.44993, -0.19982l
 0.44993, -0.199889l 0.44993, -0.199959l 0.44993, -0.200028l 0.44993, -0.200098l 0.44993, -0.200167l 0.44993, -0.200237l 0.44993, -0.200306l 0.44993, -0.200376l 0.44993, -0.200446l 0.44993, -0.200515l 0.44993, -0.200585l 0.44993, -0.200654l 0.44993,
 -0.200724" fill="none" stroke="#ff0066" stroke-width="3"/>
<path d="M208.985,354.084l 0.44993, -0.200793l 0.44993, -0.200863l 0.44993, -0.200933l 0.44993, -0.201002l 0.44993, -0.201072l 0.44993, -0.201141l 0.44993, -0.201211l 0.44993, -0.20128l 0.44993, -0.20135l 0.44993, -0.20142l 0.44993, -0.201489l
 0.44993, -0.201559l 0.44993, -0.201628l 0.44993, -0.201698l 0.44993, -0.201767l 0.44993, -0.201837l 0.44993, -0.201906l 0.44993, -0.201976l 0.44993, -0.202046l 0.44993, -0.202115l 0.44993, -0.202185l 0.44993, -0.202254l 0.44993, -0.202324l 0.44993,
 -0.202393l 0.44993, -0.202463l 0.44993, -0.202533l 0.44993, -0.202602l 0.44993, -0.202672l 0.44993, -0.202741l 0.44993, -0.202811l 0.44993, -0.20288l 0.44993, -0.20295l 0.44993, -0.203019l 0.44993, -0.203089l 0.44993, -0.203159l 0.44993, -0.203228l
 0.44993, -0.203298l 0.44993, -0.203367l 0.44993, -0.203437l 0.44993, -0.203506l 0.44993, -0.203576l 0.44993, -0.203646l 0.44993, -0.203715l 0.44993, -0.203785l 0.44993, -0.203854l 0.44993, -0.203924l 0.44993, -0.203993l 0.44993, -0.204063l 0.44993,
 -0.204133" fill="none" stroke="#ff0066" stroke-width="3"/>
<path d="M231.031,344.163l 0.44993, -0.204202l 0.44993, -0.204272l 0.44993, -0.204341l 0.44993, -0.204411l 0.44993, -0.20448l 0.44993, -0.20455l 0.44993, -0.204619l 0.44993, -0.204689l 0.44993, -0.204759l 0.44993, -0.204828l 0.44993, -0.204898l
 0.44993, -0.204967l 0.44993, -0.205037l 0.44993, -0.205106l 0.44993, -0.205176l 0.44993, -0.205246l 0.44993, -0.205315l 0.44993, -0.205385l 0.44993, -0.205454l 0.44993, -0.205524l 0.44993, -0.205593l 0.44993, -0.205663l 0.44993, -0.205733l 0.44993,
 -0.205802l 0.44993, -0.205872l 0.44993, -0.205941l 0.44993, -0.206011l 0.44993, -0.20608l 0.44993, -0.20615l 0.44993, -0.206219l 0.44993, -0.206289l 0.44993, -0.206359l 0.44993, -0.206428l 0.44993, -0.206498l 0.44993, -0.206567l 0.44993, -0.206637l
 0.44993, -0.206706l 0.44993, -0.206776l 0.44993, -0.206846l 0.44993, -0.206915l 0.44993, -0.206985l 0.44993, -0.207054l 0.44993, -0.207124l 0.44993, -0.207193l 0.44993, -0.207263l 0.44993, -0.207332l 0.44993, -0.207402l 0.44993, -0.207472l 0.44993,
 -0.207541" fill="none" stroke="#ff0066" stroke-width="3"/>
<path d="M253.078,334.075l 0.44993, -0.207611l 0.44993, -0.20768l 0.44993, -0.20775l 0.44993, -0.207819l 0.44993, -0.207889l 0.44993, -0.207959l 0.44993, -0.208028l 0.44993, -0.208098l 0.44993, -0.208167l 0.44993, -0.208237l 0.44993, -0.208306l
 0.44993, -0.208376l 0.44993, -0.208446l 0.44993, -0.208515l 0.44993, -0.208585l 0.44993, -0.208654l 0.44993, -0.208724l 0.44993, -0.208793l 0.44993, -0.208863l 0.44993, -0.208932l 0.44993, -0.209002l 0.44993, -0.209072l 0.44993, -0.209141l 0.44993,
 -0.209211l 0.44993, -0.20928l 0.44993, -0.20935l 0.44993, -0.209419l 0.44993, -0.209489l 0.44993, -0.209559l 0.44993, -0.209628l 0.44993, -0.209698l 0.44993, -0.209767l 0.44993, -0.209837l 0.44993, -0.209906l 0.44993, -0.209976l 0.44993, -0.210045l
 0.44993, -0.210115l 0.44993, -0.210185l 0.44993, -0.210254l 0.44993, -0.210324l 0.44993, -0.210393l 0.44993, -0.210463l 0.44993, -0.210532l 0.44993, -0.210602l 0.44993, -0.210672l 0.44993, -0.210741l 0.44993, -0.210811l 0.44993, -0.21088l 0.44993,
 -0.21095" fill="none" stroke="#ff0066" stroke-width="3"/>
<path d="M275.124,323.821l 0.44993, -0.211019l 0.44993, -0.211089l 0.44993, -0.211159l 0.44993, -0.211228l 0.44993, -0.211298l 0.44993, -0.211367l 0.44993, -0.211437l 0.44993, -0.211506l 0.44993, -0.211576l 0.44993, -0.211645l 0.44993, -0.211715l
 0.44993, -0.211785l 0.44993, -0.211854l 0.44993, -0.211924l 0.44993, -0.211993l 0.44993, -0.212063l 0.44993, -0.212132l 0.44993, -0.212202l 0.44993, -0.212272l 0.44993, -0.212341l 0.44993, -0.212411l 0.44993, -0.21248l 0.44993, -0.21255l 0.44993,
 -0.212619l 0.44993, -0.212689l 0.44993, -0.212758l 0.44993, -0.212828l 0.44993, -0.212898l 0.44993, -0.212967l 0.44993, -0.213037l 0.44993, -0.213106l 0.44993, -0.213176l 0.44993, -0.213245l 0.44993, -0.213315l 0.44993, -0.213385l 0.44993,
 -0.213454l 0.44993, -0.213524l 0.44993, -0.213593l 0.44993, -0.213663l 0.44993, -0.213732l 0.44993, -0.213802l 0.44993, -0.213872l 0.44993, -0.213941l 0.44993, -0.214011l 0.44993, -0.21408l 0.44993, -0.21415l 0.44993, -0.214219l 0.44993, -0.214289l
 0.44993, -0.214358" fill="none" stroke="#ff0066" stroke-width="3"/>
<path d="M297.171,313.399l 0.44993, -0.214428l 0.44993, -0.214498l 0.44993, -0.214567l 0.44993, -0.214637l 0.44993, -0.214706l 0.44993, -0.214776l 0.44993, -0.214845l 0.44993, -0.214915l 0.44993, -0.214985l 0.44993, -0.215054l 0.44993, -0.215124l
 0.44993, -0.215193l 0.44993, -0.215263l 0.44993, -0.215332l 0.44993, -0.215402l 0.44993, -0.215472l 0.44993, -0.215541l 0.44993, -0.215611l 0.44993, -0.21568l 0.44993, -0.21575l 0.44993, -0.215819l 0.44993, -0.215889l 0.44993, -0.215958l 0.44993,
 -0.216028l 0.44993, -0.216098l 0.44993, -0.216167l 0.44993, -0.216237l 0.44993, -0.216306l 0.44993, -0.216376l 0.44993, -0.216445l 0.44993, -0.216515l 0.44993, -0.216585l 0.44993, -0.216654l 0.44993, -0.216724l 0.44993, -0.216793l 0.44993,
 -0.216863l 0.44993, -0.216932l 0.44993, -0.217002l 0.44993, -0.217071l 0.44993, -0.217141l 0.44993, -0.217211l 0.44993, -0.21728l 0.44993, -0.21735l 0.44993, -0.217419l 0.44993, -0.217489l 0.44993, -0.217558l 0.44993, -0.217628l 0.44993, -0.217698l
 0.44993, -0.217767" fill="none" stroke="#ff0066" stroke-width="3"/>
<path d="M319.217,302.81l 0.44993, -0.217837l 0.44993, -0.217906l 0.44993, -0.217976l 0.44993, -0.218045l 0.44993, -0.218115l 0.44993, -0.218185l 0.44993, -0.218254l 0.44993, -0.218324l 0.44993, -0.218393l 0.44993, -0.218463l 0.44993, -0.218532l
 0.44993, -0.218602l 0.44993, -0.218671l 0.44993, -0.218741l 0.44993, -0.218811l 0.44993, -0.21888l 0.44993, -0.21895l 0.44993, -0.219019l 0.44993, -0.219089l 0.44993, -0.219158l 0.44993, -0.219228l 0.44993, -0.219298l 0.44993, -0.219367l 0.44993,
 -0.219437l 0.44993, -0.219506l 0.44993, -0.219576l 0.44993, -0.219645l 0.44993, -0.219715l 0.44993, -0.219784l 0.44993, -0.219854l 0.44993, -0.219924l 0.44993, -0.219993l 0.44993, -0.220063l 0.44993, -0.220132l 0.44993, -0.220202l 0.44993,
 -0.220271l 0.44993, -0.220341l 0.44993, -0.220411l 0.44993, -0.22048l 0.44993, -0.22055l 0.44993, -0.220619l 0.44993, -0.220689l 0.44993, -0.220758l 0.44993, -0.220828l 0.44993, -0.220898l 0.44993, -0.220967l 0.44993, -0.221037l 0.44993, -0.221106l
 0.44993, -0.221176" fill="none" stroke="#ff0066" stroke-width="3"/>
<path d="M341.264,292.054l 0.44993, -0.221245l 0.44993, -0.221315l 0.44993, -0.221384l 0.44993, -0.221454l 0.44993, -0.221524l 0.44993, -0.221593l 0.44993, -0.221663l 0.44993, -0.221732l 0.44993, -0.221802l 0.44993, -0.221871l 0.44993, -0.221941l
 0.44993, -0.222011l 0.44993, -0.22208l 0.44993, -0.22215l 0.44993, -0.222219l 0.44993, -0.222289l 0.44993, -0.222358l 0.44993, -0.222428l 0.44993, -0.222497l 0.44993, -0.222567l 0.44993, -0.222637l 0.44993, -0.222706l 0.44993, -0.222776l 0.44993,
 -0.222845l 0.44993, -0.222915l 0.44993, -0.222984l 0.44993, -0.223054l 0.44993, -0.223124l 0.44993, -0.223193l 0.44993, -0.223263l 0.44993, -0.223332l 0.44993, -0.223402l 0.44993, -0.223471l 0.44993, -0.223541l 0.44993, -0.223611l 0.44993, -0.22368l
 0.44993, -0.22375l 0.44993, -0.223819l 0.44993, -0.223889l 0.44993, -0.223958l 0.44993, -0.224028l 0.44993, -0.224097l 0.44993, -0.224167l 0.44993, -0.224237l 0.44993, -0.224306l 0.44993, -0.224376l 0.44993, -0.224445l 0.44993, -0.224515l 0.44993,
 -0.224584" fill="none" stroke="#ff0066" stroke-width="3"/>
<path d="M363.311,281.131l 0.44993, -0.224654l 0.44993, -0.224724l 0.44993, -0.224793l 0.44993, -0.224863l 0.44993, -0.224932l 0.44993, -0.225002l 0.44993, -0.225071l 0.44993, -0.225141l 0.44993, -0.225211l 0.44993, -0.22528l 0.44993, -0.22535l
 0.44993, -0.225419l 0.44993, -0.225489l 0.44993, -0.225558l 0.44993, -0.225628l 0.44993, -0.225697l 0.44993, -0.225767l 0.44993, -0.225837l 0.44993, -0.225906l 0.44993, -0.225976l 0.44993, -0.226045l 0.44993, -0.226115l 0.44993, -0.226184l 0.44993,
 -0.226254l 0.44993, -0.226324l 0.44993, -0.226393l 0.44993, -0.226463l 0.44993, -0.226532l 0.44993, -0.226602l 0.44993, -0.226671l 0.44993, -0.226741l 0.44993, -0.22681l 0.44993, -0.22688l 0.44993, -0.22695l 0.44993, -0.227019l 0.44993, -0.227089l
 0.44993, -0.227158l 0.44993, -0.227228l 0.44993, -0.227297l 0.44993, -0.227367l 0.44993, -0.227437l 0.44993, -0.227506l 0.44993, -0.227576l 0.44993, -0.227645l 0.44993, -0.227715l 0.44993, -0.227784l 0.44993, -0.227854l 0.44993, -0.227924l 0.44993,
 -0.227993" fill="none" stroke="#ff0066" stroke-width="3"/>
<path d="M385.357,270.042l 0.44993, -0.228063l 0.44993, -0.228132l 0.44993, -0.228202l 0.44993, -0.228271l 0.44993, -0.228341l 0.44993, -0.22841l 0.44993, -0.22848l 0.44993, -0.22855l 0.44993, -0.228619l 0.44993, -0.228689l 0.44993, -0.228758l
 0.44993, -0.228828l 0.44993, -0.228897l 0.44993, -0.228967l 0.44993, -0.229037l 0.44993, -0.229106l 0.44993, -0.229176l 0.44993, -0.229245l 0.44993, -0.229315l 0.44993, -0.229384l 0.44993, -0.229454l 0.44993, -0.229523l 0.44993, -0.229593l 0.44993,
 -0.229663l 0.44993, -0.229732l 0.44993, -0.229802l 0.44993, -0.229871l 0.44993, -0.229941l 0.44993, -0.23001l 0.44993, -0.23008l 0.44993, -0.23015l 0.44993, -0.230219l 0.44993, -0.230289l 0.44993, -0.230358l 0.44993, -0.230428l 0.44993, -0.230497l
 0.44993, -0.230567l 0.44993, -0.230637l 0.44993, -0.230706l 0.44993, -0.230776l 0.44993, -0.230845l 0.44993, -0.230915l 0.44993, -0.230984l 0.44993, -0.231054l 0.44993, -0.231123l 0.44993, -0.231193l 0.44993, -0.231263l 0.44993, -0.231332l 0.44993,
 -0.231402" fill="none" stroke="#ff0066" stroke-width="3"/>
<path d="M407.404,258.785l 0.44993, -0.231471l 0.44993, -0.231541l 0.44993, -0.23161l 0.44993, -0.23168l 0.44993, -0.23175l 0.44993, -0.231819l 0.44993, -0.231889l 0.44993, -0.231958l 0.44993, -0.232028l 0.44993, -0.232097l 0.44993, -0.232167l
 0.44993, -0.232236l 0.44993, -0.232306l 0.44993, -0.232376l 0.44993, -0.232445l 0.44993, -0.232515l 0.44993, -0.232584l 0.44993, -0.232654l 0.44993, -0.232723l 0.44993, -0.232793l 0.44993, -0.232863l 0.44993, -0.232932l 0.44993, -0.233002l 0.44993,
 -0.233071l 0.44993, -0.233141l 0.44993, -0.23321l 0.44993, -0.23328l 0.44993, -0.23335l 0.44993, -0.233419l 0.44993, -0.233489l 0.44993, -0.233558l 0.44993, -0.233628l 0.44993, -0.233697l 0.44993, -0.233767l 0.44993, -0.233836l 0.44993, -0.233906l
 0.44993, -0.233976l 0.44993, -0.234045l 0.44993, -0.234115l 0.44993, -0.234184l 0.44993, -0.234254l 0.44993, -0.234323l 0.44993, -0.234393l 0.44993, -0.234463l 0.44993, -0.234532l 0.44993, -0.234602l 0.44993, -0.234671l 0.44993, -0.234741l 0.44993,
 -0.23481" fill="none" stroke="#ff0066" stroke-width="3"/>
<path d="M429.45,247.361l 0.44993, -0.23488l 0.44993, -0.234949l 0.44993, -0.235019l 0.44993, -0.235089l 0.44993, -0.235158l 0.44993, -0.235228l 0.44993, -0.235297l 0.44993, -0.235367l 0.44993, -0.235436l 0.44993, -0.235506l 0.44993, -0.235576l
 0.44993, -0.235645l 0.44993, -0.235715l 0.44993, -0.235784l 0.44993, -0.235854l 0.44993, -0.235923l 0.44993, -0.235993l 0.44993, -0.236063l 0.44993, -0.236132l 0.44993, -0.236202l 0.44993, -0.236271l 0.44993, -0.236341l 0.44993, -0.23641l 0.44993,
 -0.23648l 0.44993, -0.236549l 0.44993, -0.236619l 0.44993, -0.236689l 0.44993, -0.236758l 0.44993, -0.236828l 0.44993, -0.236897l 0.44993, -0.236967l 0.44993, -0.237036l 0.44993, -0.237106l 0.44993, -0.237176l 0.44993, -0.237245l 0.44993, -0.237315l
 0.44993, -0.237384l 0.44993, -0.237454l 0.44993, -0.237523l 0.44993, -0.237593l 0.44993, -0.237663l 0.44993, -0.237732l 0.44993, -0.237802l 0.44993, -0.237871l 0.44993, -0.237941l 0.44993, -0.23801l 0.44993, -0.23808l 0.44993, -0.238149l 0.44993,
 -0.238219" fill="none" stroke="#ff0066" stroke-width="3"/>
<path d="M451.497,235.77l 0.44993, -0.238289l 0.44993, -0.238358l 0.44993, -0.238428l 0.44993, -0.238497l 0.44993, -0.238567l 0.44993, -0.238636l 0.44993, -0.238706l 0.44993, -0.238776l 0.44993, -0.238845l 0.44993, -0.238915l 0.44993, -0.238984l
 0.44993, -0.239054l 0.44993, -0.239123l 0.44993, -0.239193l 0.44993, -0.239262l 0.44993, -0.239332l 0.44993, -0.239402l 0.44993, -0.239471l 0.44993, -0.239541l 0.44993, -0.23961l 0.44993, -0.23968l 0.44993, -0.239749l 0.44993, -0.239819l 0.44993,
 -0.239889l 0.44993, -0.239958l 0.44993, -0.240028l 0.44993, -0.240097l 0.44993, -0.240167l 0.44993, -0.240236l 0.44993, -0.240306l 0.44993, -0.240376l 0.44993, -0.240445l 0.44993, -0.240515l 0.44993, -0.240584l 0.44993, -0.240654l 0.44993,
 -0.240723l 0.44993, -0.240793l 0.44993, -0.240862l 0.44993, -0.240932l 0.44993, -0.241002l 0.44993, -0.241071l 0.44993, -0.241141l 0.44993, -0.24121l 0.44993, -0.24128l 0.44993, -0.241349l 0.44993, -0.241419l 0.44993, -0.241489l 0.44993, -0.241558l
 0.44993, -0.241628" fill="none" stroke="#ff0066" stroke-width="3"/>
<path d="M473.543,224.012l 0.44993, -0.241697l 0.44993, -0.241767l 0.44993, -0.241836l 0.44993, -0.241906l 0.44993, -0.241975l 0.44993, -0.242045l 0.44993, -0.242115l 0.44993, -0.242184l 0.44993, -0.242254l 0.44993, -0.242323l 0.44993, -0.242393l
 0.44993, -0.242462l 0.44993, -0.242532l 0.44993, -0.242602l 0.44993, -0.242671l 0.44993, -0.242741l 0.44993, -0.24281l 0.44993, -0.24288l 0.44993, -0.242949l 0.44993, -0.243019l 0.44993, -0.243089l 0.44993, -0.243158l 0.44993, -0.243228l 0.44993,
 -0.243297l 0.44993, -0.243367l 0.44993, -0.243436l 0.44993, -0.243506l 0.44993, -0.243575l 0.44993, -0.243645l 0.44993, -0.243715l 0.44993, -0.243784l 0.44993, -0.243854l 0.44993, -0.243923l 0.44993, -0.243993l 0.44993, -0.244062l 0.44993,
 -0.244132l 0.44993, -0.244202l 0.44993, -0.244271l 0.44993, -0.244341l 0.44993, -0.24441l 0.44993, -0.24448l 0.44993, -0.244549l 0.44993, -0.244619l 0.44993, -0.244688l 0.44993, -0.244758l 0.44993, -0.244828l 0.44993, -0.244897l 0.44993, -0.244967l
 0.44993, -0.245036" fill="none" stroke="#ff0066" stroke-width="3"/>
<path d="M495.59,212.087l 0.44993, -0.245106l 0.44993, -0.245175l 0.44993, -0.245245l 0.44993, -0.245315l 0.44993, -0.245384l 0.44993, -0.245454l 0.44993, -0.245523l 0.44993, -0.245593l 0.44993, -0.245662l 0.44993, -0.245732l 0.44993, -0.245802l
 0.44993, -0.245871l 0.44993, -0.245941l 0.44993, -0.24601l 0.44993, -0.24608l 0.44993, -0.246149l 0.44993, -0.246219l 0.44993, -0.246288l 0.44993, -0.246358l 0.44993, -0.246428l 0.44993, -0.246497l 0.44993, -0.246567l 0.44993, -0.246636l 0.44993,
 -0.246706l 0.44993, -0.246775l 0.44993, -0.246845l 0.44993, -0.246915l 0.44993, -0.246984l 0.44993, -0.247054l 0.44993, -0.247123l 0.44993, -0.247193l 0.44993, -0.247262l 0.44993, -0.247332l 0.44993, -0.247402l 0.44993, -0.247471l 0.44993,
 -0.247541l 0.44993, -0.24761l 0.44993, -0.24768l 0.44993, -0.247749l 0.44993, -0.247819l 0.44993, -0.247888l 0.44993, -0.247958l 0.44993, -0.248028l 0.44993, -0.248097l 0.44993, -0.248167l 0.44993, -0.248236l 0.44993, -0.248306l 0.44993, -0.248375l
 0.44993, -0.248445" fill="none" stroke="#ff0066" stroke-width="3"/>
<path d="M517.636,199.995l 0.44993, -0.248515l 0.44993, -0.248584l 0.44993, -0.248654l 0.44993, -0.248723l 0.44993, -0.248793l 0.44993, -0.248862l 0.44993, -0.248932l 0.44993, -0.249001l 0.44993, -0.249071l 0.44993, -0.249141l 0.44993, -0.24921l
 0.44993, -0.24928l 0.44993, -0.249349l 0.44993, -0.249419l 0.44993, -0.249488l 0.44993, -0.249558l 0.44993, -0.249628l 0.44993, -0.249697l 0.44993, -0.249767l 0.44993, -0.249836l 0.44993, -0.249906l 0.44993, -0.249975l 0.44993, -0.250045l 0.44993,
 -0.250115l 0.44993, -0.250184l 0.44993, -0.250254l 0.44993, -0.250323l 0.44993, -0.250393l 0.44993, -0.250462l 0.44993, -0.250532l 0.44993, -0.250601l 0.44993, -0.250671l 0.44993, -0.250741l 0.44993, -0.25081l 0.44993, -0.25088l 0.44993, -0.250949l
 0.44993, -0.251019l 0.44993, -0.251088l 0.44993, -0.251158l 0.44993, -0.251228l 0.44993, -0.251297l 0.44993, -0.251367l 0.44993, -0.251436l 0.44993, -0.251506l 0.44993, -0.251575l 0.44993, -0.251645l 0.44993, -0.251714l 0.44993, -0.251784l 0.44993,
 -0.251854" fill="none" stroke="#ff0066" stroke-width="3"/>
<path d="M539.683,187.736l 0.44993, -0.251923l 0.44993, -0.251993l 0.44993, -0.252062l 0.44993, -0.252132l 0.44993, -0.252201l 0.44993, -0.252271l 0.44993, -0.252341l 0.44993, -0.25241l 0.44993, -0.25248l 0.44993, -0.252549l 0.44993, -0.252619l
 0.44993, -0.252688l 0.44993, -0.252758l 0.44993, -0.252828l 0.44993, -0.252897l 0.44993, -0.252967l 0.44993, -0.253036l 0.44993, -0.253106l 0.44993, -0.253175" fill="none" stroke="#ff0066" stroke-width="3"/>
<path d="M248.503,21.4167h 239.963" fill="none" stroke="#999999" stroke-width="7"/>
<text xml:space="preserve" x="360.607" y="50.7193" fill="black" font-size="16.0105" font-family="Helvetica"> with EMC</text>
<text xml:space="preserve" x="352.717" y="50.7193" fill="black" font-size="16.0105" font-family="Times">&#0947;</text>
<text xml:space="preserve" x="344.828" y="50.7193" fill="black" font-size="16.0105" font-family="Times">&#0947;</text>
<text xml:space="preserve" x="336.938" y="50.7193" fill="black" font-size="16.0105" font-family="Times">&#0947;</text>
<text xml:space="preserve" x="331.866" y="50.7193" fill="black" font-size="16.0105" font-family="Helvetica"> </text>
<text xml:space="preserve" x="316.65" y="50.7193" fill="black" font-size="16.0105" font-family="Times">&#8594;</text>
<text xml:space="preserve" x="311.578" y="50.7193" fill="black" font-size="16.0105" font-family="Helvetica"> </text>
<text xml:space="preserve" x="303.689" y="50.7193" fill="black" font-size="16.0105" font-family="Times">&#0947;</text>
<text xml:space="preserve" x="298.053" y="45.0838" fill="black" font-size="10.8403" font-family="Helvetica">0</text>
<text xml:space="preserve" x="289.6" y="50.7193" fill="black" font-size="16.0105" font-family="Times">&#0960;</text>
<text xml:space="preserve" x="284.528" y="50.7193" fill="black" font-size="16.0105" font-family="Helvetica"> </text>
<text xml:space="preserve" x="269.312" y="50.7193" fill="black" font-size="16.0105" font-family="Times">&#8594;</text>
<text xml:space="preserve" x="264.24" y="50.7193" fill="black" font-size="16.0105" font-family="Helvetica"> </text>
<text xml:space="preserve" x="252.969" y="50.7193" fill="black" font-size="16.0105" font-family="Times">&#0969;</text>
<text xml:space="preserve" x="128.989" y="50.7193" fill="black" font-size="16.0105" font-family="Helvetica"> = 13 TeV (EG1), </text>
<text xml:space="preserve" x="120.536" y="50.7193" fill="black" font-size="16.0105" font-family="Helvetica" font-style="oblique">s</text>
<path d="M114.9,41.7025l 1.69064, 9.58031" fill="none" stroke="black" stroke-width="2"/>
<path d="M116.591,51.2829l 2.25419, -14.0887" fill="none" stroke="black"/>
<path d="M118.845,37.1942h 10.1439" fill="none" stroke="black"/>
<text xml:space="preserve" x="89.5406" y="50.7193" fill="black" font-size="16.0105" font-family="Helvetica">pp </text>
<text xml:space="preserve" x="89.5406" y="85.6593" fill="black" font-size="16.0105" font-family="Helvetica">ALICE work in progress</text>
<text xml:space="preserve" x="214.085" y="120.599" fill="black" font-size="16.0105" font-family="Helvetica">) &lt; 12.0</text>
<text xml:space="preserve" x="205.068" y="120.599" fill="black" font-size="16.0105" font-family="Helvetica" font-style="oblique">c</text>
<text xml:space="preserve" x="154.912" y="120.599" fill="black" font-size="16.0105" font-family="Helvetica"> /(GeV/</text>
<text xml:space="preserve" x="148.15" y="128.489" fill="black" font-size="10.8403" font-family="Helvetica">T</text>
<text xml:space="preserve" x="138.569" y="120.599" fill="black" font-size="16.0105" font-family="Helvetica" font-style="oblique">p</text>
<text xml:space="preserve" x="133.497" y="120.599" fill="black" font-size="16.0105" font-family="Helvetica"> </text>
<text xml:space="preserve" x="125.044" y="120.599" fill="black" font-size="16.0105" font-family="Times">&#8804;</text>
<text xml:space="preserve" x="89.5406" y="120.599" fill="black" font-size="16.0105" font-family="Helvetica">10.0 </text>
<rect x="312.311" y="69.1755" width="198.425" height="113.448" fill="white"/>
<text xml:space="preserve" x="361.734" y="85.0957" fill="black" font-size="16.0105" font-family="Helvetica">ratio</text>
<path d="M319.752,80.5203h 34.7244" fill="none" stroke="black" stroke-width="2"/>
<g fill="black">
<circle cx="337.114" cy="80.5203" r="6.76257"/>
</g>
<text xml:space="preserve" x="361.734" y="108.201" fill="black" font-size="16.0105" font-family="Helvetica">peak range</text>
<path d="M319.752,103.21h 34.7244" fill="none" stroke="#333333" stroke-width="2"/>
<g stroke="#333333" stroke-width="2" fill="none">
<circle cx="337.114" cy="103.21" r="5.63548"/>
</g>
<text xml:space="preserve" x="361.734" y="130.743" fill="black" font-size="16.0105" font-family="Helvetica">background pol1</text>
<path d="M319.752,125.899h 34.7244" fill="none" stroke="#33cccc" stroke-width="3"/>
<text xml:space="preserve" x="361.734" y="153.285" fill="black" font-size="16.0105" font-family="Helvetica">background pol2</text>
<path d="M319.752,148.589h 34.7244" fill="none" stroke="#ff0066" stroke-width="3"/>
<text xml:space="preserve" x="361.734" y="175.827" fill="black" font-size="16.0105" font-family="Helvetica">param. range</text>
<path d="M319.752,171.279h 34.7244" fill="none" stroke="#999999" stroke-width="7"/></svg>
