<?xml version="1.0" standalone="no"?>
<svg width="567.429" height="553.904" viewBox="0 0 567.429 553.904" xmlns="http://www.w3.org/2000/svg" shape-rendering="crispEdges">
<title>
MC/EG1/OmegaRotWOPS/SameEventToBackgroundRatio_07.svg
</title>
<desc>
Creator: ROOT Version 6.20/08
CreationDate: Mon Mar 29 21:28:55 2021</desc>
<defs>
</defs>
<rect x="0.5" y="0" width="566.929" height="553.404" fill="white"/>
<rect x="68.5315" y="16.6021" width="484.724" height="481.461" fill="white"/>
<rect x="68.5315" y="16.6021" width="484.724" height="481.461" fill="none" stroke="black"/>
<rect x="68.5315" y="16.6021" width="484.724" height="481.461" fill="white"/>
<rect x="68.5315" y="16.6021" width="484.724" height="481.461" fill="none" stroke="black"/>
<g fill="black">
<circle cx="114.124" cy="490.063" r="6.76257"/>
</g>
<g fill="black">
<circle cx="118.924" cy="415.408" r="6.76257"/>
</g>
<g fill="black">
<circle cx="123.723" cy="472.674" r="6.76257"/>
</g>
<g fill="black">
<circle cx="128.522" cy="442.394" r="6.76257"/>
</g>
<g fill="black">
<circle cx="133.321" cy="290.536" r="6.76257"/>
</g>
<g fill="black">
<circle cx="138.121" cy="235.971" r="6.76257"/>
</g>
<g fill="black">
<circle cx="142.92" cy="241.686" r="6.76257"/>
</g>
<g fill="black">
<circle cx="147.719" cy="251.218" r="6.76257"/>
</g>
<g fill="black">
<circle cx="152.518" cy="265.684" r="6.76257"/>
</g>
<g fill="black">
<circle cx="157.318" cy="275.704" r="6.76257"/>
</g>
<g fill="black">
<circle cx="162.117" cy="281.925" r="6.76257"/>
</g>
<g fill="black">
<circle cx="166.916" cy="291.116" r="6.76257"/>
</g>
<g fill="black">
<circle cx="171.715" cy="297.546" r="6.76257"/>
</g>
<g fill="black">
<circle cx="176.515" cy="302.11" r="6.76257"/>
</g>
<g fill="black">
<circle cx="181.314" cy="309.616" r="6.76257"/>
</g>
<g fill="black">
<circle cx="186.113" cy="312.898" r="6.76257"/>
</g>
<g fill="black">
<circle cx="190.912" cy="314.99" r="6.76257"/>
</g>
<g fill="black">
<circle cx="195.712" cy="317.922" r="6.76257"/>
</g>
<g fill="black">
<circle cx="200.511" cy="319.398" r="6.76257"/>
</g>
<g fill="black">
<circle cx="205.31" cy="318.871" r="6.76257"/>
</g>
<g fill="black">
<circle cx="210.109" cy="320.059" r="6.76257"/>
</g>
<g fill="black">
<circle cx="214.909" cy="321.166" r="6.76257"/>
</g>
<g fill="black">
<circle cx="219.708" cy="318.958" r="6.76257"/>
</g>
<g fill="black">
<circle cx="224.507" cy="319.548" r="6.76257"/>
</g>
<g fill="black">
<circle cx="229.306" cy="318.459" r="6.76257"/>
</g>
<g fill="black">
<circle cx="234.106" cy="317.673" r="6.76257"/>
</g>
<g fill="black">
<circle cx="238.905" cy="315.385" r="6.76257"/>
</g>
<g fill="black">
<circle cx="243.704" cy="313.313" r="6.76257"/>
</g>
<g fill="black">
<circle cx="248.503" cy="312.694" r="6.76257"/>
</g>
<g fill="black">
<circle cx="253.303" cy="310.454" r="6.76257"/>
</g>
<g fill="black">
<circle cx="258.102" cy="311.638" r="6.76257"/>
</g>
<g fill="black">
<circle cx="262.901" cy="308.994" r="6.76257"/>
</g>
<g fill="black">
<circle cx="267.7" cy="308.18" r="6.76257"/>
</g>
<g fill="black">
<circle cx="272.5" cy="308.004" r="6.76257"/>
</g>
<g fill="black">
<circle cx="277.299" cy="305.783" r="6.76257"/>
</g>
<g fill="black">
<circle cx="339.689" cy="282.726" r="6.76257"/>
</g>
<g fill="black">
<circle cx="344.488" cy="280.121" r="6.76257"/>
</g>
<g fill="black">
<circle cx="349.288" cy="279.384" r="6.76257"/>
</g>
<g fill="black">
<circle cx="354.087" cy="272.417" r="6.76257"/>
</g>
<g fill="black">
<circle cx="358.886" cy="273.047" r="6.76257"/>
</g>
<g fill="black">
<circle cx="363.685" cy="269.84" r="6.76257"/>
</g>
<g fill="black">
<circle cx="368.485" cy="268.404" r="6.76257"/>
</g>
<g fill="black">
<circle cx="373.284" cy="266.128" r="6.76257"/>
</g>
<g fill="black">
<circle cx="378.083" cy="261.949" r="6.76257"/>
</g>
<g fill="black">
<circle cx="382.882" cy="263.326" r="6.76257"/>
</g>
<g fill="black">
<circle cx="387.682" cy="258.725" r="6.76257"/>
</g>
<g fill="black">
<circle cx="392.481" cy="258.119" r="6.76257"/>
</g>
<g fill="black">
<circle cx="397.28" cy="256.456" r="6.76257"/>
</g>
<g fill="black">
<circle cx="402.079" cy="254.994" r="6.76257"/>
</g>
<g fill="black">
<circle cx="406.879" cy="255.512" r="6.76257"/>
</g>
<g fill="black">
<circle cx="411.678" cy="248.929" r="6.76257"/>
</g>
<g fill="black">
<circle cx="416.477" cy="247.182" r="6.76257"/>
</g>
<g fill="black">
<circle cx="421.276" cy="245.778" r="6.76257"/>
</g>
<g fill="black">
<circle cx="426.076" cy="243.996" r="6.76257"/>
</g>
<g fill="black">
<circle cx="430.875" cy="239.114" r="6.76257"/>
</g>
<g fill="black">
<circle cx="435.674" cy="238.98" r="6.76257"/>
</g>
<g fill="black">
<circle cx="440.473" cy="237.601" r="6.76257"/>
</g>
<g fill="black">
<circle cx="445.273" cy="235.904" r="6.76257"/>
</g>
<g fill="black">
<circle cx="450.072" cy="233.777" r="6.76257"/>
</g>
<g fill="black">
<circle cx="454.871" cy="234.963" r="6.76257"/>
</g>
<g fill="black">
<circle cx="459.671" cy="227.008" r="6.76257"/>
</g>
<g fill="black">
<circle cx="464.47" cy="227.86" r="6.76257"/>
</g>
<g fill="black">
<circle cx="469.269" cy="225.156" r="6.76257"/>
</g>
<g fill="black">
<circle cx="474.068" cy="217.934" r="6.76257"/>
</g>
<g fill="black">
<circle cx="478.867" cy="217.489" r="6.76257"/>
</g>
<g fill="black">
<circle cx="483.667" cy="212.365" r="6.76257"/>
</g>
<g fill="black">
<circle cx="488.466" cy="217.091" r="6.76257"/>
</g>
<g fill="black">
<circle cx="493.265" cy="219.882" r="6.76257"/>
</g>
<g fill="black">
<circle cx="498.065" cy="212.908" r="6.76257"/>
</g>
<g fill="black">
<circle cx="502.864" cy="211.717" r="6.76257"/>
</g>
<g fill="black">
<circle cx="507.663" cy="206.779" r="6.76257"/>
</g>
<g fill="black">
<circle cx="512.462" cy="202.529" r="6.76257"/>
</g>
<g fill="black">
<circle cx="517.262" cy="199.778" r="6.76257"/>
</g>
<g fill="black">
<circle cx="522.061" cy="199.21" r="6.76257"/>
</g>
<g fill="black">
<circle cx="526.86" cy="205.356" r="6.76257"/>
</g>
<g fill="black">
<circle cx="531.659" cy="203.065" r="6.76257"/>
</g>
<g fill="black">
<circle cx="536.458" cy="197.15" r="6.76257"/>
</g>
<g fill="black">
<circle cx="541.258" cy="199.706" r="6.76257"/>
</g>
<g fill="black">
<circle cx="546.057" cy="199.219" r="6.76257"/>
</g>
<path d="M68.5315,498.064h 484.724" fill="none" stroke="black"/>
<path d="M68.5315,483.869v 14.1948" fill="none" stroke="black"/>
<path d="M83.5292,490.966v 7.09741" fill="none" stroke="black"/>
<path d="M98.5268,490.966v 7.09741" fill="none" stroke="black"/>
<path d="M113.524,490.966v 7.09741" fill="none" stroke="black"/>
<path d="M128.522,483.869v 14.1948" fill="none" stroke="black"/>
<path d="M143.52,490.966v 7.09741" fill="none" stroke="black"/>
<path d="M158.517,490.966v 7.09741" fill="none" stroke="black"/>
<path d="M173.515,490.966v 7.09741" fill="none" stroke="black"/>
<path d="M188.513,483.869v 14.1948" fill="none" stroke="black"/>
<path d="M203.51,490.966v 7.09741" fill="none" stroke="black"/>
<path d="M218.508,490.966v 7.09741" fill="none" stroke="black"/>
<path d="M233.506,490.966v 7.09741" fill="none" stroke="black"/>
<path d="M248.503,483.869v 14.1948" fill="none" stroke="black"/>
<path d="M263.501,490.966v 7.09741" fill="none" stroke="black"/>
<path d="M278.499,490.966v 7.09741" fill="none" stroke="black"/>
<path d="M293.496,490.966v 7.09741" fill="none" stroke="black"/>
<path d="M308.494,483.869v 14.1948" fill="none" stroke="black"/>
<path d="M323.492,490.966v 7.09741" fill="none" stroke="black"/>
<path d="M338.489,490.966v 7.09741" fill="none" stroke="black"/>
<path d="M353.487,490.966v 7.09741" fill="none" stroke="black"/>
<path d="M368.485,483.869v 14.1948" fill="none" stroke="black"/>
<path d="M383.482,490.966v 7.09741" fill="none" stroke="black"/>
<path d="M398.48,490.966v 7.09741" fill="none" stroke="black"/>
<path d="M413.478,490.966v 7.09741" fill="none" stroke="black"/>
<path d="M428.475,483.869v 14.1948" fill="none" stroke="black"/>
<path d="M443.473,490.966v 7.09741" fill="none" stroke="black"/>
<path d="M458.471,490.966v 7.09741" fill="none" stroke="black"/>
<path d="M473.468,490.966v 7.09741" fill="none" stroke="black"/>
<path d="M488.466,483.869v 14.1948" fill="none" stroke="black"/>
<path d="M503.464,490.966v 7.09741" fill="none" stroke="black"/>
<path d="M518.461,490.966v 7.09741" fill="none" stroke="black"/>
<path d="M533.459,490.966v 7.09741" fill="none" stroke="black"/>
<path d="M548.457,483.869v 14.1948" fill="none" stroke="black"/>
<path d="M548.457,483.869v 14.1948" fill="none" stroke="black"/>
<text xml:space="preserve" x="63.6174" y="513.956" fill="black" font-size="16.0105" font-family="Helvetica">0</text>
<text xml:space="preserve" x="117.718" y="513.956" fill="black" font-size="16.0105" font-family="Helvetica">0.2</text>
<text xml:space="preserve" x="177.454" y="513.956" fill="black" font-size="16.0105" font-family="Helvetica">0.4</text>
<text xml:space="preserve" x="237.754" y="513.956" fill="black" font-size="16.0105" font-family="Helvetica">0.6</text>
<text xml:space="preserve" x="297.49" y="513.956" fill="black" font-size="16.0105" font-family="Helvetica">0.8</text>
<text xml:space="preserve" x="365.115" y="513.956" fill="black" font-size="16.0105" font-family="Helvetica">1</text>
<text xml:space="preserve" x="417.525" y="513.956" fill="black" font-size="16.0105" font-family="Helvetica">1.2</text>
<text xml:space="preserve" x="477.261" y="513.956" fill="black" font-size="16.0105" font-family="Helvetica">1.4</text>
<text xml:space="preserve" x="537.561" y="513.956" fill="black" font-size="16.0105" font-family="Helvetica">1.6</text>
<text xml:space="preserve" x="548.268" y="537.625" fill="black" font-size="16.0105" font-family="Helvetica">)</text>
<text xml:space="preserve" x="542.633" y="532.553" fill="black" font-size="10.8403" font-family="Helvetica">2</text>
<text xml:space="preserve" x="533.616" y="537.625" fill="black" font-size="16.0105" font-family="Helvetica" font-style="oblique">c</text>
<text xml:space="preserve" x="487.405" y="537.625" fill="black" font-size="16.0105" font-family="Helvetica"> (GeV/</text>
<text xml:space="preserve" x="473.317" y="542.697" fill="black" font-size="10.8403" font-family="Helvetica">inv</text>
<text xml:space="preserve" x="459.792" y="537.625" fill="black" font-size="16.0105" font-family="Helvetica" font-style="oblique">m</text>
<path d="M68.5315,16.6021h 484.724" fill="none" stroke="black"/>
<path d="M68.5315,30.7969v -14.1948" fill="none" stroke="black"/>
<path d="M83.5292,23.6995v -7.09741" fill="none" stroke="black"/>
<path d="M98.5268,23.6995v -7.09741" fill="none" stroke="black"/>
<path d="M113.524,23.6995v -7.09741" fill="none" stroke="black"/>
<path d="M128.522,30.7969v -14.1948" fill="none" stroke="black"/>
<path d="M143.52,23.6995v -7.09741" fill="none" stroke="black"/>
<path d="M158.517,23.6995v -7.09741" fill="none" stroke="black"/>
<path d="M173.515,23.6995v -7.09741" fill="none" stroke="black"/>
<path d="M188.513,30.7969v -14.1948" fill="none" stroke="black"/>
<path d="M203.51,23.6995v -7.09741" fill="none" stroke="black"/>
<path d="M218.508,23.6995v -7.09741" fill="none" stroke="black"/>
<path d="M233.506,23.6995v -7.09741" fill="none" stroke="black"/>
<path d="M248.503,30.7969v -14.1948" fill="none" stroke="black"/>
<path d="M263.501,23.6995v -7.09741" fill="none" stroke="black"/>
<path d="M278.499,23.6995v -7.09741" fill="none" stroke="black"/>
<path d="M293.496,23.6995v -7.09741" fill="none" stroke="black"/>
<path d="M308.494,30.7969v -14.1948" fill="none" stroke="black"/>
<path d="M323.492,23.6995v -7.09741" fill="none" stroke="black"/>
<path d="M338.489,23.6995v -7.09741" fill="none" stroke="black"/>
<path d="M353.487,23.6995v -7.09741" fill="none" stroke="black"/>
<path d="M368.485,30.7969v -14.1948" fill="none" stroke="black"/>
<path d="M383.482,23.6995v -7.09741" fill="none" stroke="black"/>
<path d="M398.48,23.6995v -7.09741" fill="none" stroke="black"/>
<path d="M413.478,23.6995v -7.09741" fill="none" stroke="black"/>
<path d="M428.475,30.7969v -14.1948" fill="none" stroke="black"/>
<path d="M443.473,23.6995v -7.09741" fill="none" stroke="black"/>
<path d="M458.471,23.6995v -7.09741" fill="none" stroke="black"/>
<path d="M473.468,23.6995v -7.09741" fill="none" stroke="black"/>
<path d="M488.466,30.7969v -14.1948" fill="none" stroke="black"/>
<path d="M503.464,23.6995v -7.09741" fill="none" stroke="black"/>
<path d="M518.461,23.6995v -7.09741" fill="none" stroke="black"/>
<path d="M533.459,23.6995v -7.09741" fill="none" stroke="black"/>
<path d="M548.457,30.7969v -14.1948" fill="none" stroke="black"/>
<path d="M548.457,30.7969v -14.1948" fill="none" stroke="black"/>
<path d="M68.5315,498.064v -481.461" fill="none" stroke="black"/>
<path d="M83.3283,498.064h -14.7969" fill="none" stroke="black"/>
<path d="M75.9299,485.991h -7.39843" fill="none" stroke="black"/>
<path d="M75.9299,473.918h -7.39843" fill="none" stroke="black"/>
<path d="M75.9299,461.846h -7.39843" fill="none" stroke="black"/>
<path d="M75.9299,449.773h -7.39843" fill="none" stroke="black"/>
<path d="M83.3283,437.7h -14.7969" fill="none" stroke="black"/>
<path d="M75.9299,425.628h -7.39843" fill="none" stroke="black"/>
<path d="M75.9299,413.555h -7.39843" fill="none" stroke="black"/>
<path d="M75.9299,401.482h -7.39843" fill="none" stroke="black"/>
<path d="M75.9299,389.409h -7.39843" fill="none" stroke="black"/>
<path d="M83.3283,377.337h -14.7969" fill="none" stroke="black"/>
<path d="M75.9299,365.264h -7.39843" fill="none" stroke="black"/>
<path d="M75.9299,353.191h -7.39843" fill="none" stroke="black"/>
<path d="M75.9299,341.119h -7.39843" fill="none" stroke="black"/>
<path d="M75.9299,329.046h -7.39843" fill="none" stroke="black"/>
<path d="M83.3283,316.973h -14.7969" fill="none" stroke="black"/>
<path d="M75.9299,304.901h -7.39843" fill="none" stroke="black"/>
<path d="M75.9299,292.828h -7.39843" fill="none" stroke="black"/>
<path d="M75.9299,280.755h -7.39843" fill="none" stroke="black"/>
<path d="M75.9299,268.683h -7.39843" fill="none" stroke="black"/>
<path d="M83.3283,256.61h -14.7969" fill="none" stroke="black"/>
<path d="M75.9299,244.537h -7.39843" fill="none" stroke="black"/>
<path d="M75.9299,232.465h -7.39843" fill="none" stroke="black"/>
<path d="M75.9299,220.392h -7.39843" fill="none" stroke="black"/>
<path d="M75.9299,208.319h -7.39843" fill="none" stroke="black"/>
<path d="M83.3283,196.247h -14.7969" fill="none" stroke="black"/>
<path d="M75.9299,184.174h -7.39843" fill="none" stroke="black"/>
<path d="M75.9299,172.101h -7.39843" fill="none" stroke="black"/>
<path d="M75.9299,160.028h -7.39843" fill="none" stroke="black"/>
<path d="M75.9299,147.956h -7.39843" fill="none" stroke="black"/>
<path d="M83.3283,135.883h -14.7969" fill="none" stroke="black"/>
<path d="M75.9299,123.81h -7.39843" fill="none" stroke="black"/>
<path d="M75.9299,111.738h -7.39843" fill="none" stroke="black"/>
<path d="M75.9299,99.665h -7.39843" fill="none" stroke="black"/>
<path d="M75.9299,87.5924h -7.39843" fill="none" stroke="black"/>
<path d="M83.3283,75.5197h -14.7969" fill="none" stroke="black"/>
<path d="M83.3283,75.5197h -14.7969" fill="none" stroke="black"/>
<path d="M75.9299,63.447h -7.39843" fill="none" stroke="black"/>
<path d="M75.9299,51.3743h -7.39843" fill="none" stroke="black"/>
<path d="M75.9299,39.3016h -7.39843" fill="none" stroke="black"/>
<path d="M75.9299,27.2289h -7.39843" fill="none" stroke="black"/>
<text xml:space="preserve" x="56.8548" y="503.248" fill="black" font-size="16.0105" font-family="Helvetica">0</text>
<text xml:space="preserve" x="46.1474" y="442.949" fill="black" font-size="16.0105" font-family="Helvetica">0.1</text>
<text xml:space="preserve" x="43.8932" y="382.649" fill="black" font-size="16.0105" font-family="Helvetica">0.2</text>
<text xml:space="preserve" x="43.8932" y="322.349" fill="black" font-size="16.0105" font-family="Helvetica">0.3</text>
<text xml:space="preserve" x="43.8932" y="262.05" fill="black" font-size="16.0105" font-family="Helvetica">0.4</text>
<text xml:space="preserve" x="43.8932" y="201.75" fill="black" font-size="16.0105" font-family="Helvetica">0.5</text>
<text xml:space="preserve" x="43.8932" y="141.451" fill="black" font-size="16.0105" font-family="Helvetica">0.6</text>
<text xml:space="preserve" x="43.8932" y="81.1509" fill="black" font-size="16.0105" font-family="Helvetica">0.7</text>
<g transform="rotate(-90,38.2577,98.0573)">
<text xml:space="preserve" x="38.2577" y="98.0573" fill="black" font-size="16.0105" font-family="Helvetica">background</text>
</g>
<g transform="rotate(-90,21.9148,98.0573)">
<text xml:space="preserve" x="21.9148" y="98.0573" fill="black" font-size="16.0105" font-family="Helvetica">same event</text>
</g>
<path d="M24.169,98.0573l 0.563548, -81.7144" fill="none" stroke="black" stroke-width="2"/>
<path d="M553.256,498.064v -481.461" fill="none" stroke="black"/>
<path d="M538.459,498.064h 14.7969" fill="none" stroke="black"/>
<path d="M545.857,485.991h 7.39843" fill="none" stroke="black"/>
<path d="M545.857,473.918h 7.39843" fill="none" stroke="black"/>
<path d="M545.857,461.846h 7.39843" fill="none" stroke="black"/>
<path d="M545.857,449.773h 7.39843" fill="none" stroke="black"/>
<path d="M538.459,437.7h 14.7969" fill="none" stroke="black"/>
<path d="M545.857,425.628h 7.39843" fill="none" stroke="black"/>
<path d="M545.857,413.555h 7.39843" fill="none" stroke="black"/>
<path d="M545.857,401.482h 7.39843" fill="none" stroke="black"/>
<path d="M545.857,389.409h 7.39843" fill="none" stroke="black"/>
<path d="M538.459,377.337h 14.7969" fill="none" stroke="black"/>
<path d="M545.857,365.264h 7.39843" fill="none" stroke="black"/>
<path d="M545.857,353.191h 7.39843" fill="none" stroke="black"/>
<path d="M545.857,341.119h 7.39843" fill="none" stroke="black"/>
<path d="M545.857,329.046h 7.39843" fill="none" stroke="black"/>
<path d="M538.459,316.973h 14.7969" fill="none" stroke="black"/>
<path d="M545.857,304.901h 7.39843" fill="none" stroke="black"/>
<path d="M545.857,292.828h 7.39843" fill="none" stroke="black"/>
<path d="M545.857,280.755h 7.39843" fill="none" stroke="black"/>
<path d="M545.857,268.683h 7.39843" fill="none" stroke="black"/>
<path d="M538.459,256.61h 14.7969" fill="none" stroke="black"/>
<path d="M545.857,244.537h 7.39843" fill="none" stroke="black"/>
<path d="M545.857,232.465h 7.39843" fill="none" stroke="black"/>
<path d="M545.857,220.392h 7.39843" fill="none" stroke="black"/>
<path d="M545.857,208.319h 7.39843" fill="none" stroke="black"/>
<path d="M538.459,196.247h 14.7969" fill="none" stroke="black"/>
<path d="M545.857,184.174h 7.39843" fill="none" stroke="black"/>
<path d="M545.857,172.101h 7.39843" fill="none" stroke="black"/>
<path d="M545.857,160.028h 7.39843" fill="none" stroke="black"/>
<path d="M545.857,147.956h 7.39843" fill="none" stroke="black"/>
<path d="M538.459,135.883h 14.7969" fill="none" stroke="black"/>
<path d="M545.857,123.81h 7.39843" fill="none" stroke="black"/>
<path d="M545.857,111.738h 7.39843" fill="none" stroke="black"/>
<path d="M545.857,99.665h 7.39843" fill="none" stroke="black"/>
<path d="M545.857,87.5924h 7.39843" fill="none" stroke="black"/>
<path d="M538.459,75.5197h 14.7969" fill="none" stroke="black"/>
<path d="M538.459,75.5197h 14.7969" fill="none" stroke="black"/>
<path d="M545.857,63.447h 7.39843" fill="none" stroke="black"/>
<path d="M545.857,51.3743h 7.39843" fill="none" stroke="black"/>
<path d="M545.857,39.3016h 7.39843" fill="none" stroke="black"/>
<path d="M545.857,27.2289h 7.39843" fill="none" stroke="black"/>
<g stroke="#333333" stroke-width="2" fill="none">
<circle cx="282.098" cy="302.552" r="5.63548"/>
</g>
<g stroke="#333333" stroke-width="2" fill="none">
<circle cx="286.897" cy="300.713" r="5.63548"/>
</g>
<g stroke="#333333" stroke-width="2" fill="none">
<circle cx="291.697" cy="296.928" r="5.63548"/>
</g>
<g stroke="#333333" stroke-width="2" fill="none">
<circle cx="296.496" cy="294.211" r="5.63548"/>
</g>
<g stroke="#333333" stroke-width="2" fill="none">
<circle cx="301.295" cy="291.91" r="5.63548"/>
</g>
<g stroke="#333333" stroke-width="2" fill="none">
<circle cx="306.094" cy="289.385" r="5.63548"/>
</g>
<g stroke="#333333" stroke-width="2" fill="none">
<circle cx="310.894" cy="292.343" r="5.63548"/>
</g>
<g stroke="#333333" stroke-width="2" fill="none">
<circle cx="315.693" cy="291.139" r="5.63548"/>
</g>
<g stroke="#333333" stroke-width="2" fill="none">
<circle cx="320.492" cy="287.627" r="5.63548"/>
</g>
<g stroke="#333333" stroke-width="2" fill="none">
<circle cx="325.291" cy="287.249" r="5.63548"/>
</g>
<g stroke="#333333" stroke-width="2" fill="none">
<circle cx="330.091" cy="285.71" r="5.63548"/>
</g>
<g stroke="#333333" stroke-width="2" fill="none">
<circle cx="334.89" cy="286.305" r="5.63548"/>
</g>
<path d="M98.7518,376.349l 0.44993, -0.182113l 0.44993, -0.182113l 0.44993, -0.182113l 0.44993, -0.182113l 0.44993, -0.182113l 0.44993, -0.182113l 0.44993, -0.182113l 0.44993, -0.182113l 0.44993, -0.182113l 0.44993, -0.182113l 0.44993, -0.182113l
 0.44993, -0.182113l 0.44993, -0.182113l 0.44993, -0.182113l 0.44993, -0.182113l 0.44993, -0.182113l 0.44993, -0.182113l 0.44993, -0.182113l 0.44993, -0.182113l 0.44993, -0.182113l 0.44993, -0.182113l 0.44993, -0.182113l 0.44993, -0.182113l 0.44993,
 -0.182113l 0.44993, -0.182113l 0.44993, -0.182113l 0.44993, -0.182113l 0.44993, -0.182113l 0.44993, -0.182113l 0.44993, -0.182113l 0.44993, -0.182113l 0.44993, -0.182113l 0.44993, -0.182113l 0.44993, -0.182113l 0.44993, -0.182113l 0.44993,
 -0.182113l 0.44993, -0.182113l 0.44993, -0.182113l 0.44993, -0.182113l 0.44993, -0.182113l 0.44993, -0.182113l 0.44993, -0.182113l 0.44993, -0.182113l 0.44993, -0.182113l 0.44993, -0.182113l 0.44993, -0.182113l 0.44993, -0.182113l 0.44993,
 -0.182113l 0.44993, -0.182113" fill="none" stroke="#33cccc" stroke-width="3"/>
<path d="M120.798,367.425l 0.44993, -0.182113l 0.44993, -0.182113l 0.44993, -0.182113l 0.44993, -0.182113l 0.44993, -0.182113l 0.44993, -0.182113l 0.44993, -0.182113l 0.44993, -0.182113l 0.44993, -0.182113l 0.44993, -0.182113l 0.44993, -0.182113l
 0.44993, -0.182113l 0.44993, -0.182113l 0.44993, -0.182113l 0.44993, -0.182113l 0.44993, -0.182113l 0.44993, -0.182113l 0.44993, -0.182113l 0.44993, -0.182113l 0.44993, -0.182113l 0.44993, -0.182113l 0.44993, -0.182113l 0.44993, -0.182113l 0.44993,
 -0.182113l 0.44993, -0.182113l 0.44993, -0.182113l 0.44993, -0.182113l 0.44993, -0.182113l 0.44993, -0.182113l 0.44993, -0.182113l 0.44993, -0.182113l 0.44993, -0.182113l 0.44993, -0.182113l 0.44993, -0.182113l 0.44993, -0.182113l 0.44993,
 -0.182113l 0.44993, -0.182113l 0.44993, -0.182113l 0.44993, -0.182113l 0.44993, -0.182113l 0.44993, -0.182113l 0.44993, -0.182113l 0.44993, -0.182113l 0.44993, -0.182113l 0.44993, -0.182113l 0.44993, -0.182113l 0.44993, -0.182113l 0.44993,
 -0.182113l 0.44993, -0.182113" fill="none" stroke="#33cccc" stroke-width="3"/>
<path d="M142.845,358.502l 0.44993, -0.182113l 0.44993, -0.182113l 0.44993, -0.182113l 0.44993, -0.182113l 0.44993, -0.182113l 0.44993, -0.182113l 0.44993, -0.182113l 0.44993, -0.182113l 0.44993, -0.182113l 0.44993, -0.182113l 0.44993, -0.182113l
 0.44993, -0.182113l 0.44993, -0.182113l 0.44993, -0.182113l 0.44993, -0.182113l 0.44993, -0.182113l 0.44993, -0.182113l 0.44993, -0.182113l 0.44993, -0.182113l 0.44993, -0.182113l 0.44993, -0.182113l 0.44993, -0.182113l 0.44993, -0.182113l 0.44993,
 -0.182113l 0.44993, -0.182113l 0.44993, -0.182113l 0.44993, -0.182113l 0.44993, -0.182113l 0.44993, -0.182113l 0.44993, -0.182113l 0.44993, -0.182113l 0.44993, -0.182113l 0.44993, -0.182113l 0.44993, -0.182113l 0.44993, -0.182113l 0.44993,
 -0.182113l 0.44993, -0.182113l 0.44993, -0.182113l 0.44993, -0.182113l 0.44993, -0.182113l 0.44993, -0.182113l 0.44993, -0.182113l 0.44993, -0.182113l 0.44993, -0.182113l 0.44993, -0.182113l 0.44993, -0.182113l 0.44993, -0.182113l 0.44993,
 -0.182113l 0.44993, -0.182113" fill="none" stroke="#33cccc" stroke-width="3"/>
<path d="M164.891,349.578l 0.44993, -0.182113l 0.44993, -0.182113l 0.44993, -0.182113l 0.44993, -0.182113l 0.44993, -0.182113l 0.44993, -0.182113l 0.44993, -0.182113l 0.44993, -0.182113l 0.44993, -0.182113l 0.44993, -0.182113l 0.44993, -0.182113l
 0.44993, -0.182113l 0.44993, -0.182113l 0.44993, -0.182113l 0.44993, -0.182113l 0.44993, -0.182113l 0.44993, -0.182113l 0.44993, -0.182113l 0.44993, -0.182113l 0.44993, -0.182113l 0.44993, -0.182113l 0.44993, -0.182113l 0.44993, -0.182113l 0.44993,
 -0.182113l 0.44993, -0.182113l 0.44993, -0.182113l 0.44993, -0.182113l 0.44993, -0.182113l 0.44993, -0.182113l 0.44993, -0.182113l 0.44993, -0.182113l 0.44993, -0.182113l 0.44993, -0.182113l 0.44993, -0.182113l 0.44993, -0.182113l 0.44993,
 -0.182113l 0.44993, -0.182113l 0.44993, -0.182113l 0.44993, -0.182113l 0.44993, -0.182113l 0.44993, -0.182113l 0.44993, -0.182113l 0.44993, -0.182113l 0.44993, -0.182113l 0.44993, -0.182113l 0.44993, -0.182113l 0.44993, -0.182113l 0.44993,
 -0.182113l 0.44993, -0.182113" fill="none" stroke="#33cccc" stroke-width="3"/>
<path d="M186.938,340.655l 0.44993, -0.182113l 0.44993, -0.182113l 0.44993, -0.182113l 0.44993, -0.182113l 0.44993, -0.182113l 0.44993, -0.182113l 0.44993, -0.182113l 0.44993, -0.182113l 0.44993, -0.182113l 0.44993, -0.182113l 0.44993, -0.182113l
 0.44993, -0.182113l 0.44993, -0.182113l 0.44993, -0.182113l 0.44993, -0.182113l 0.44993, -0.182113l 0.44993, -0.182113l 0.44993, -0.182113l 0.44993, -0.182113l 0.44993, -0.182113l 0.44993, -0.182113l 0.44993, -0.182113l 0.44993, -0.182113l 0.44993,
 -0.182113l 0.44993, -0.182113l 0.44993, -0.182113l 0.44993, -0.182113l 0.44993, -0.182113l 0.44993, -0.182113l 0.44993, -0.182113l 0.44993, -0.182113l 0.44993, -0.182113l 0.44993, -0.182113l 0.44993, -0.182113l 0.44993, -0.182113l 0.44993,
 -0.182113l 0.44993, -0.182113l 0.44993, -0.182113l 0.44993, -0.182113l 0.44993, -0.182113l 0.44993, -0.182113l 0.44993, -0.182113l 0.44993, -0.182113l 0.44993, -0.182113l 0.44993, -0.182113l 0.44993, -0.182113l 0.44993, -0.182113l 0.44993,
 -0.182113l 0.44993, -0.182113" fill="none" stroke="#33cccc" stroke-width="3"/>
<path d="M208.985,331.731l 0.44993, -0.182113l 0.44993, -0.182113l 0.44993, -0.182113l 0.44993, -0.182113l 0.44993, -0.182113l 0.44993, -0.182113l 0.44993, -0.182113l 0.44993, -0.182113l 0.44993, -0.182113l 0.44993, -0.182113l 0.44993, -0.182113l
 0.44993, -0.182113l 0.44993, -0.182113l 0.44993, -0.182113l 0.44993, -0.182113l 0.44993, -0.182113l 0.44993, -0.182113l 0.44993, -0.182113l 0.44993, -0.182113l 0.44993, -0.182113l 0.44993, -0.182113l 0.44993, -0.182113l 0.44993, -0.182113l 0.44993,
 -0.182113l 0.44993, -0.182113l 0.44993, -0.182113l 0.44993, -0.182113l 0.44993, -0.182113l 0.44993, -0.182113l 0.44993, -0.182113l 0.44993, -0.182113l 0.44993, -0.182113l 0.44993, -0.182113l 0.44993, -0.182113l 0.44993, -0.182113l 0.44993,
 -0.182113l 0.44993, -0.182113l 0.44993, -0.182113l 0.44993, -0.182113l 0.44993, -0.182113l 0.44993, -0.182113l 0.44993, -0.182113l 0.44993, -0.182113l 0.44993, -0.182113l 0.44993, -0.182113l 0.44993, -0.182113l 0.44993, -0.182113l 0.44993,
 -0.182113l 0.44993, -0.182113" fill="none" stroke="#33cccc" stroke-width="3"/>
<path d="M231.031,322.808l 0.44993, -0.182113l 0.44993, -0.182113l 0.44993, -0.182113l 0.44993, -0.182113l 0.44993, -0.182113l 0.44993, -0.182113l 0.44993, -0.182113l 0.44993, -0.182113l 0.44993, -0.182113l 0.44993, -0.182113l 0.44993, -0.182113l
 0.44993, -0.182113l 0.44993, -0.182113l 0.44993, -0.182113l 0.44993, -0.182113l 0.44993, -0.182113l 0.44993, -0.182113l 0.44993, -0.182113l 0.44993, -0.182113l 0.44993, -0.182113l 0.44993, -0.182113l 0.44993, -0.182113l 0.44993, -0.182113l 0.44993,
 -0.182113l 0.44993, -0.182113l 0.44993, -0.182113l 0.44993, -0.182113l 0.44993, -0.182113l 0.44993, -0.182113l 0.44993, -0.182113l 0.44993, -0.182113l 0.44993, -0.182113l 0.44993, -0.182113l 0.44993, -0.182113l 0.44993, -0.182113l 0.44993,
 -0.182113l 0.44993, -0.182113l 0.44993, -0.182113l 0.44993, -0.182113l 0.44993, -0.182113l 0.44993, -0.182113l 0.44993, -0.182113l 0.44993, -0.182113l 0.44993, -0.182113l 0.44993, -0.182113l 0.44993, -0.182113l 0.44993, -0.182113l 0.44993,
 -0.182113l 0.44993, -0.182113" fill="none" stroke="#33cccc" stroke-width="3"/>
<path d="M253.078,313.884l 0.44993, -0.182113l 0.44993, -0.182113l 0.44993, -0.182113l 0.44993, -0.182113l 0.44993, -0.182113l 0.44993, -0.182113l 0.44993, -0.182113l 0.44993, -0.182113l 0.44993, -0.182113l 0.44993, -0.182113l 0.44993, -0.182113l
 0.44993, -0.182113l 0.44993, -0.182113l 0.44993, -0.182113l 0.44993, -0.182113l 0.44993, -0.182113l 0.44993, -0.182113l 0.44993, -0.182113l 0.44993, -0.182113l 0.44993, -0.182113l 0.44993, -0.182113l 0.44993, -0.182113l 0.44993, -0.182113l 0.44993,
 -0.182113l 0.44993, -0.182113l 0.44993, -0.182113l 0.44993, -0.182113l 0.44993, -0.182113l 0.44993, -0.182113l 0.44993, -0.182113l 0.44993, -0.182113l 0.44993, -0.182113l 0.44993, -0.182113l 0.44993, -0.182113l 0.44993, -0.182113l 0.44993,
 -0.182113l 0.44993, -0.182113l 0.44993, -0.182113l 0.44993, -0.182113l 0.44993, -0.182113l 0.44993, -0.182113l 0.44993, -0.182113l 0.44993, -0.182113l 0.44993, -0.182113l 0.44993, -0.182113l 0.44993, -0.182113l 0.44993, -0.182113l 0.44993,
 -0.182113l 0.44993, -0.182113" fill="none" stroke="#33cccc" stroke-width="3"/>
<path d="M275.124,304.96l 0.44993, -0.182113l 0.44993, -0.182113l 0.44993, -0.182113l 0.44993, -0.182113l 0.44993, -0.182113l 0.44993, -0.182113l 0.44993, -0.182113l 0.44993, -0.182113l 0.44993, -0.182113l 0.44993, -0.182113l 0.44993, -0.182113l
 0.44993, -0.182113l 0.44993, -0.182113l 0.44993, -0.182113l 0.44993, -0.182113l 0.44993, -0.182113l 0.44993, -0.182113l 0.44993, -0.182113l 0.44993, -0.182113l 0.44993, -0.182113l 0.44993, -0.182113l 0.44993, -0.182113l 0.44993, -0.182113l 0.44993,
 -0.182113l 0.44993, -0.182113l 0.44993, -0.182113l 0.44993, -0.182113l 0.44993, -0.182113l 0.44993, -0.182113l 0.44993, -0.182113l 0.44993, -0.182113l 0.44993, -0.182113l 0.44993, -0.182113l 0.44993, -0.182113l 0.44993, -0.182113l 0.44993,
 -0.182113l 0.44993, -0.182113l 0.44993, -0.182113l 0.44993, -0.182113l 0.44993, -0.182113l 0.44993, -0.182113l 0.44993, -0.182113l 0.44993, -0.182113l 0.44993, -0.182113l 0.44993, -0.182113l 0.44993, -0.182113l 0.44993, -0.182113l 0.44993,
 -0.182113l 0.44993, -0.182113" fill="none" stroke="#33cccc" stroke-width="3"/>
<path d="M297.171,296.037l 0.44993, -0.182113l 0.44993, -0.182113l 0.44993, -0.182113l 0.44993, -0.182113l 0.44993, -0.182113l 0.44993, -0.182113l 0.44993, -0.182113l 0.44993, -0.182113l 0.44993, -0.182113l 0.44993, -0.182113l 0.44993, -0.182113l
 0.44993, -0.182113l 0.44993, -0.182113l 0.44993, -0.182113l 0.44993, -0.182113l 0.44993, -0.182113l 0.44993, -0.182113l 0.44993, -0.182113l 0.44993, -0.182113l 0.44993, -0.182113l 0.44993, -0.182113l 0.44993, -0.182113l 0.44993, -0.182113l 0.44993,
 -0.182113l 0.44993, -0.182113l 0.44993, -0.182113l 0.44993, -0.182113l 0.44993, -0.182113l 0.44993, -0.182113l 0.44993, -0.182113l 0.44993, -0.182113l 0.44993, -0.182113l 0.44993, -0.182113l 0.44993, -0.182113l 0.44993, -0.182113l 0.44993,
 -0.182113l 0.44993, -0.182113l 0.44993, -0.182113l 0.44993, -0.182113l 0.44993, -0.182113l 0.44993, -0.182113l 0.44993, -0.182113l 0.44993, -0.182113l 0.44993, -0.182113l 0.44993, -0.182113l 0.44993, -0.182113l 0.44993, -0.182113l 0.44993,
 -0.182113l 0.44993, -0.182113" fill="none" stroke="#33cccc" stroke-width="3"/>
<path d="M319.217,287.113l 0.44993, -0.182113l 0.44993, -0.182113l 0.44993, -0.182113l 0.44993, -0.182113l 0.44993, -0.182113l 0.44993, -0.182113l 0.44993, -0.182113l 0.44993, -0.182113l 0.44993, -0.182113l 0.44993, -0.182113l 0.44993, -0.182113l
 0.44993, -0.182113l 0.44993, -0.182113l 0.44993, -0.182113l 0.44993, -0.182113l 0.44993, -0.182113l 0.44993, -0.182113l 0.44993, -0.182113l 0.44993, -0.182113l 0.44993, -0.182113l 0.44993, -0.182113l 0.44993, -0.182113l 0.44993, -0.182113l 0.44993,
 -0.182113l 0.44993, -0.182113l 0.44993, -0.182113l 0.44993, -0.182113l 0.44993, -0.182113l 0.44993, -0.182113l 0.44993, -0.182113l 0.44993, -0.182113l 0.44993, -0.182113l 0.44993, -0.182113l 0.44993, -0.182113l 0.44993, -0.182113l 0.44993,
 -0.182113l 0.44993, -0.182113l 0.44993, -0.182113l 0.44993, -0.182113l 0.44993, -0.182113l 0.44993, -0.182113l 0.44993, -0.182113l 0.44993, -0.182113l 0.44993, -0.182113l 0.44993, -0.182113l 0.44993, -0.182113l 0.44993, -0.182113l 0.44993,
 -0.182113l 0.44993, -0.182113" fill="none" stroke="#33cccc" stroke-width="3"/>
<path d="M341.264,278.19l 0.44993, -0.182113l 0.44993, -0.182113l 0.44993, -0.182113l 0.44993, -0.182113l 0.44993, -0.182113l 0.44993, -0.182113l 0.44993, -0.182113l 0.44993, -0.182113l 0.44993, -0.182113l 0.44993, -0.182113l 0.44993, -0.182113l
 0.44993, -0.182113l 0.44993, -0.182113l 0.44993, -0.182113l 0.44993, -0.182113l 0.44993, -0.182113l 0.44993, -0.182113l 0.44993, -0.182113l 0.44993, -0.182113l 0.44993, -0.182113l 0.44993, -0.182113l 0.44993, -0.182113l 0.44993, -0.182113l 0.44993,
 -0.182113l 0.44993, -0.182113l 0.44993, -0.182113l 0.44993, -0.182113l 0.44993, -0.182113l 0.44993, -0.182113l 0.44993, -0.182113l 0.44993, -0.182113l 0.44993, -0.182113l 0.44993, -0.182113l 0.44993, -0.182113l 0.44993, -0.182113l 0.44993,
 -0.182113l 0.44993, -0.182113l 0.44993, -0.182113l 0.44993, -0.182113l 0.44993, -0.182113l 0.44993, -0.182113l 0.44993, -0.182113l 0.44993, -0.182113l 0.44993, -0.182113l 0.44993, -0.182113l 0.44993, -0.182113l 0.44993, -0.182113l 0.44993,
 -0.182113l 0.44993, -0.182113" fill="none" stroke="#33cccc" stroke-width="3"/>
<path d="M363.311,269.266l 0.44993, -0.182113l 0.44993, -0.182113l 0.44993, -0.182113l 0.44993, -0.182113l 0.44993, -0.182113l 0.44993, -0.182113l 0.44993, -0.182113l 0.44993, -0.182113l 0.44993, -0.182113l 0.44993, -0.182113l 0.44993, -0.182113l
 0.44993, -0.182113l 0.44993, -0.182113l 0.44993, -0.182113l 0.44993, -0.182113l 0.44993, -0.182113l 0.44993, -0.182113l 0.44993, -0.182113l 0.44993, -0.182113l 0.44993, -0.182113l 0.44993, -0.182113l 0.44993, -0.182113l 0.44993, -0.182113l 0.44993,
 -0.182113l 0.44993, -0.182113l 0.44993, -0.182113l 0.44993, -0.182113l 0.44993, -0.182113l 0.44993, -0.182113l 0.44993, -0.182113l 0.44993, -0.182113l 0.44993, -0.182113l 0.44993, -0.182113l 0.44993, -0.182113l 0.44993, -0.182113l 0.44993,
 -0.182113l 0.44993, -0.182113l 0.44993, -0.182113l 0.44993, -0.182113l 0.44993, -0.182113l 0.44993, -0.182113l 0.44993, -0.182113l 0.44993, -0.182113l 0.44993, -0.182113l 0.44993, -0.182113l 0.44993, -0.182113l 0.44993, -0.182113l 0.44993,
 -0.182113l 0.44993, -0.182113" fill="none" stroke="#33cccc" stroke-width="3"/>
<path d="M385.357,260.343l 0.44993, -0.182113l 0.44993, -0.182113l 0.44993, -0.182113l 0.44993, -0.182113l 0.44993, -0.182113l 0.44993, -0.182113l 0.44993, -0.182113l 0.44993, -0.182113l 0.44993, -0.182113l 0.44993, -0.182113l 0.44993, -0.182113l
 0.44993, -0.182113l 0.44993, -0.182113l 0.44993, -0.182113l 0.44993, -0.182113l 0.44993, -0.182113l 0.44993, -0.182113l 0.44993, -0.182113l 0.44993, -0.182113l 0.44993, -0.182113l 0.44993, -0.182113l 0.44993, -0.182113l 0.44993, -0.182113l 0.44993,
 -0.182113l 0.44993, -0.182113l 0.44993, -0.182113l 0.44993, -0.182113l 0.44993, -0.182113l 0.44993, -0.182113l 0.44993, -0.182113l 0.44993, -0.182113l 0.44993, -0.182113l 0.44993, -0.182113l 0.44993, -0.182113l 0.44993, -0.182113l 0.44993,
 -0.182113l 0.44993, -0.182113l 0.44993, -0.182113l 0.44993, -0.182113l 0.44993, -0.182113l 0.44993, -0.182113l 0.44993, -0.182113l 0.44993, -0.182113l 0.44993, -0.182113l 0.44993, -0.182113l 0.44993, -0.182113l 0.44993, -0.182113l 0.44993,
 -0.182113l 0.44993, -0.182113" fill="none" stroke="#33cccc" stroke-width="3"/>
<path d="M407.404,251.419l 0.44993, -0.182113l 0.44993, -0.182113l 0.44993, -0.182113l 0.44993, -0.182113l 0.44993, -0.182113l 0.44993, -0.182113l 0.44993, -0.182113l 0.44993, -0.182113l 0.44993, -0.182113l 0.44993, -0.182113l 0.44993, -0.182113l
 0.44993, -0.182113l 0.44993, -0.182113l 0.44993, -0.182113l 0.44993, -0.182113l 0.44993, -0.182113l 0.44993, -0.182113l 0.44993, -0.182113l 0.44993, -0.182113l 0.44993, -0.182113l 0.44993, -0.182113l 0.44993, -0.182113l 0.44993, -0.182113l 0.44993,
 -0.182113l 0.44993, -0.182113l 0.44993, -0.182113l 0.44993, -0.182113l 0.44993, -0.182113l 0.44993, -0.182113l 0.44993, -0.182113l 0.44993, -0.182113l 0.44993, -0.182113l 0.44993, -0.182113l 0.44993, -0.182113l 0.44993, -0.182113l 0.44993,
 -0.182113l 0.44993, -0.182113l 0.44993, -0.182113l 0.44993, -0.182113l 0.44993, -0.182113l 0.44993, -0.182113l 0.44993, -0.182113l 0.44993, -0.182113l 0.44993, -0.182113l 0.44993, -0.182113l 0.44993, -0.182113l 0.44993, -0.182113l 0.44993,
 -0.182113l 0.44993, -0.182113" fill="none" stroke="#33cccc" stroke-width="3"/>
<path d="M429.45,242.496l 0.44993, -0.182113l 0.44993, -0.182113l 0.44993, -0.182113l 0.44993, -0.182113l 0.44993, -0.182113l 0.44993, -0.182113l 0.44993, -0.182113l 0.44993, -0.182113l 0.44993, -0.182113l 0.44993, -0.182113l 0.44993, -0.182113l
 0.44993, -0.182113l 0.44993, -0.182113l 0.44993, -0.182113l 0.44993, -0.182113l 0.44993, -0.182113l 0.44993, -0.182113l 0.44993, -0.182113l 0.44993, -0.182113l 0.44993, -0.182113l 0.44993, -0.182113l 0.44993, -0.182113l 0.44993, -0.182113l 0.44993,
 -0.182113l 0.44993, -0.182113l 0.44993, -0.182113l 0.44993, -0.182113l 0.44993, -0.182113l 0.44993, -0.182113l 0.44993, -0.182113l 0.44993, -0.182113l 0.44993, -0.182113l 0.44993, -0.182113l 0.44993, -0.182113l 0.44993, -0.182113l 0.44993,
 -0.182113l 0.44993, -0.182113l 0.44993, -0.182113l 0.44993, -0.182113l 0.44993, -0.182113l 0.44993, -0.182113l 0.44993, -0.182113l 0.44993, -0.182113l 0.44993, -0.182113l 0.44993, -0.182113l 0.44993, -0.182113l 0.44993, -0.182113l 0.44993,
 -0.182113l 0.44993, -0.182113" fill="none" stroke="#33cccc" stroke-width="3"/>
<path d="M451.497,233.572l 0.44993, -0.182113l 0.44993, -0.182113l 0.44993, -0.182113l 0.44993, -0.182113l 0.44993, -0.182113l 0.44993, -0.182113l 0.44993, -0.182113l 0.44993, -0.182113l 0.44993, -0.182113l 0.44993, -0.182113l 0.44993, -0.182113l
 0.44993, -0.182113l 0.44993, -0.182113l 0.44993, -0.182113l 0.44993, -0.182113l 0.44993, -0.182113l 0.44993, -0.182113l 0.44993, -0.182113l 0.44993, -0.182113l 0.44993, -0.182113l 0.44993, -0.182113l 0.44993, -0.182113l 0.44993, -0.182113l 0.44993,
 -0.182113l 0.44993, -0.182113l 0.44993, -0.182113l 0.44993, -0.182113l 0.44993, -0.182113l 0.44993, -0.182113l 0.44993, -0.182113l 0.44993, -0.182113l 0.44993, -0.182113l 0.44993, -0.182113l 0.44993, -0.182113l 0.44993, -0.182113l 0.44993,
 -0.182113l 0.44993, -0.182113l 0.44993, -0.182113l 0.44993, -0.182113l 0.44993, -0.182113l 0.44993, -0.182113l 0.44993, -0.182113l 0.44993, -0.182113l 0.44993, -0.182113l 0.44993, -0.182113l 0.44993, -0.182113l 0.44993, -0.182113l 0.44993,
 -0.182113l 0.44993, -0.182113" fill="none" stroke="#33cccc" stroke-width="3"/>
<path d="M473.543,224.649l 0.44993, -0.182113l 0.44993, -0.182113l 0.44993, -0.182113l 0.44993, -0.182113l 0.44993, -0.182113l 0.44993, -0.182113l 0.44993, -0.182113l 0.44993, -0.182113l 0.44993, -0.182113l 0.44993, -0.182113l 0.44993, -0.182113l
 0.44993, -0.182113l 0.44993, -0.182113l 0.44993, -0.182113l 0.44993, -0.182113l 0.44993, -0.182113l 0.44993, -0.182113l 0.44993, -0.182113l 0.44993, -0.182113l 0.44993, -0.182113l 0.44993, -0.182113l 0.44993, -0.182113l 0.44993, -0.182113l 0.44993,
 -0.182113l 0.44993, -0.182113l 0.44993, -0.182113l 0.44993, -0.182113l 0.44993, -0.182113l 0.44993, -0.182113l 0.44993, -0.182113l 0.44993, -0.182113l 0.44993, -0.182113l 0.44993, -0.182113l 0.44993, -0.182113l 0.44993, -0.182113l 0.44993,
 -0.182113l 0.44993, -0.182113l 0.44993, -0.182113l 0.44993, -0.182113l 0.44993, -0.182113l 0.44993, -0.182113l 0.44993, -0.182113l 0.44993, -0.182113l 0.44993, -0.182113l 0.44993, -0.182113l 0.44993, -0.182113l 0.44993, -0.182113l 0.44993,
 -0.182113l 0.44993, -0.182113" fill="none" stroke="#33cccc" stroke-width="3"/>
<path d="M495.59,215.725l 0.44993, -0.182113l 0.44993, -0.182113l 0.44993, -0.182113l 0.44993, -0.182113l 0.44993, -0.182113l 0.44993, -0.182113l 0.44993, -0.182113l 0.44993, -0.182113l 0.44993, -0.182113l 0.44993, -0.182113l 0.44993, -0.182113l
 0.44993, -0.182113l 0.44993, -0.182113l 0.44993, -0.182113l 0.44993, -0.182113l 0.44993, -0.182113l 0.44993, -0.182113l 0.44993, -0.182113l 0.44993, -0.182113l 0.44993, -0.182113l 0.44993, -0.182113l 0.44993, -0.182113l 0.44993, -0.182113l 0.44993,
 -0.182113l 0.44993, -0.182113l 0.44993, -0.182113l 0.44993, -0.182113l 0.44993, -0.182113l 0.44993, -0.182113l 0.44993, -0.182113l 0.44993, -0.182113l 0.44993, -0.182113l 0.44993, -0.182113l 0.44993, -0.182113l 0.44993, -0.182113l 0.44993,
 -0.182113l 0.44993, -0.182113l 0.44993, -0.182113l 0.44993, -0.182113l 0.44993, -0.182113l 0.44993, -0.182113l 0.44993, -0.182113l 0.44993, -0.182113l 0.44993, -0.182113l 0.44993, -0.182113l 0.44993, -0.182113l 0.44993, -0.182113l 0.44993,
 -0.182113l 0.44993, -0.182113" fill="none" stroke="#33cccc" stroke-width="3"/>
<path d="M517.636,206.802l 0.44993, -0.182113l 0.44993, -0.182113l 0.44993, -0.182113l 0.44993, -0.182113l 0.44993, -0.182113l 0.44993, -0.182113l 0.44993, -0.182113l 0.44993, -0.182113l 0.44993, -0.182113l 0.44993, -0.182113l 0.44993, -0.182113l
 0.44993, -0.182113l 0.44993, -0.182113l 0.44993, -0.182113l 0.44993, -0.182113l 0.44993, -0.182113l 0.44993, -0.182113l 0.44993, -0.182113l 0.44993, -0.182113l 0.44993, -0.182113l 0.44993, -0.182113l 0.44993, -0.182113l 0.44993, -0.182113l 0.44993,
 -0.182113l 0.44993, -0.182113l 0.44993, -0.182113l 0.44993, -0.182113l 0.44993, -0.182113l 0.44993, -0.182113l 0.44993, -0.182113l 0.44993, -0.182113l 0.44993, -0.182113l 0.44993, -0.182113l 0.44993, -0.182113l 0.44993, -0.182113l 0.44993,
 -0.182113l 0.44993, -0.182113l 0.44993, -0.182113l 0.44993, -0.182113l 0.44993, -0.182113l 0.44993, -0.182113l 0.44993, -0.182113l 0.44993, -0.182113l 0.44993, -0.182113l 0.44993, -0.182113l 0.44993, -0.182113l 0.44993, -0.182113l 0.44993,
 -0.182113l 0.44993, -0.182113" fill="none" stroke="#33cccc" stroke-width="3"/>
<path d="M539.683,197.878l 0.44993, -0.182113l 0.44993, -0.182113l 0.44993, -0.182113l 0.44993, -0.182113l 0.44993, -0.182113l 0.44993, -0.182113l 0.44993, -0.182113l 0.44993, -0.182113l 0.44993, -0.182113l 0.44993, -0.182113l 0.44993, -0.182113l
 0.44993, -0.182113l 0.44993, -0.182113l 0.44993, -0.182113l 0.44993, -0.182113l 0.44993, -0.182113l 0.44993, -0.182113l 0.44993, -0.182113l 0.44993, -0.182113" fill="none" stroke="#33cccc" stroke-width="3"/>
<path d="M98.7518,354.023l 0.44993, -0.0937894l 0.44993, -0.0939488l 0.44993, -0.0941082l 0.44993, -0.0942676l 0.44993, -0.094427l 0.44993, -0.0945865l 0.44993, -0.0947459l 0.44993, -0.0949053l 0.44993, -0.0950648l 0.44993, -0.0952242l 0.44993,
 -0.0953836l 0.44993, -0.095543l 0.44993, -0.0957024l 0.44993, -0.0958619l 0.44993, -0.0960213l 0.44993, -0.0961807l 0.44993, -0.0963401l 0.44993, -0.0964996l 0.44993, -0.096659l 0.44993, -0.0968184l 0.44993, -0.0969778l 0.44993, -0.0971373l 0.44993,
 -0.0972967l 0.44993, -0.0974561l 0.44993, -0.0976155l 0.44993, -0.097775l 0.44993, -0.0979344l 0.44993, -0.0980938l 0.44993, -0.0982532l 0.44993, -0.0984127l 0.44993, -0.0985721l 0.44993, -0.0987315l 0.44993, -0.0988909l 0.44993, -0.0990504l
 0.44993, -0.0992098l 0.44993, -0.0993692l 0.44993, -0.0995286l 0.44993, -0.0996881l 0.44993, -0.0998475l 0.44993, -0.100007l 0.44993, -0.100166l 0.44993, -0.100326l 0.44993, -0.100485l 0.44993, -0.100645l 0.44993, -0.100804l 0.44993, -0.100963l
 0.44993, -0.101123l 0.44993, -0.101282l 0.44993, -0.101442" fill="none" stroke="#ff0066" stroke-width="3"/>
<path d="M120.798,349.24l 0.44993, -0.101601l 0.44993, -0.101761l 0.44993, -0.10192l 0.44993, -0.102079l 0.44993, -0.102239l 0.44993, -0.102398l 0.44993, -0.102558l 0.44993, -0.102717l 0.44993, -0.102877l 0.44993, -0.103036l 0.44993, -0.103195l
 0.44993, -0.103355l 0.44993, -0.103514l 0.44993, -0.103674l 0.44993, -0.103833l 0.44993, -0.103993l 0.44993, -0.104152l 0.44993, -0.104311l 0.44993, -0.104471l 0.44993, -0.10463l 0.44993, -0.10479l 0.44993, -0.104949l 0.44993, -0.105108l 0.44993,
 -0.105268l 0.44993, -0.105427l 0.44993, -0.105587l 0.44993, -0.105746l 0.44993, -0.105906l 0.44993, -0.106065l 0.44993, -0.106224l 0.44993, -0.106384l 0.44993, -0.106543l 0.44993, -0.106703l 0.44993, -0.106862l 0.44993, -0.107022l 0.44993,
 -0.107181l 0.44993, -0.10734l 0.44993, -0.1075l 0.44993, -0.107659l 0.44993, -0.107819l 0.44993, -0.107978l 0.44993, -0.108138l 0.44993, -0.108297l 0.44993, -0.108456l 0.44993, -0.108616l 0.44993, -0.108775l 0.44993, -0.108935l 0.44993, -0.109094l
 0.44993, -0.109254" fill="none" stroke="#ff0066" stroke-width="3"/>
<path d="M142.845,344.074l 0.44993, -0.109413l 0.44993, -0.109572l 0.44993, -0.109732l 0.44993, -0.109891l 0.44993, -0.110051l 0.44993, -0.11021l 0.44993, -0.11037l 0.44993, -0.110529l 0.44993, -0.110688l 0.44993, -0.110848l 0.44993, -0.111007l
 0.44993, -0.111167l 0.44993, -0.111326l 0.44993, -0.111485l 0.44993, -0.111645l 0.44993, -0.111804l 0.44993, -0.111964l 0.44993, -0.112123l 0.44993, -0.112283l 0.44993, -0.112442l 0.44993, -0.112601l 0.44993, -0.112761l 0.44993, -0.11292l 0.44993,
 -0.11308l 0.44993, -0.113239l 0.44993, -0.113399l 0.44993, -0.113558l 0.44993, -0.113717l 0.44993, -0.113877l 0.44993, -0.114036l 0.44993, -0.114196l 0.44993, -0.114355l 0.44993, -0.114515l 0.44993, -0.114674l 0.44993, -0.114833l 0.44993, -0.114993l
 0.44993, -0.115152l 0.44993, -0.115312l 0.44993, -0.115471l 0.44993, -0.115631l 0.44993, -0.11579l 0.44993, -0.115949l 0.44993, -0.116109l 0.44993, -0.116268l 0.44993, -0.116428l 0.44993, -0.116587l 0.44993, -0.116747l 0.44993, -0.116906l 0.44993,
 -0.117065" fill="none" stroke="#ff0066" stroke-width="3"/>
<path d="M164.891,338.525l 0.44993, -0.117225l 0.44993, -0.117384l 0.44993, -0.117544l 0.44993, -0.117703l 0.44993, -0.117862l 0.44993, -0.118022l 0.44993, -0.118181l 0.44993, -0.118341l 0.44993, -0.1185l 0.44993, -0.11866l 0.44993, -0.118819l
 0.44993, -0.118978l 0.44993, -0.119138l 0.44993, -0.119297l 0.44993, -0.119457l 0.44993, -0.119616l 0.44993, -0.119776l 0.44993, -0.119935l 0.44993, -0.120094l 0.44993, -0.120254l 0.44993, -0.120413l 0.44993, -0.120573l 0.44993, -0.120732l 0.44993,
 -0.120892l 0.44993, -0.121051l 0.44993, -0.12121l 0.44993, -0.12137l 0.44993, -0.121529l 0.44993, -0.121689l 0.44993, -0.121848l 0.44993, -0.122008l 0.44993, -0.122167l 0.44993, -0.122326l 0.44993, -0.122486l 0.44993, -0.122645l 0.44993, -0.122805l
 0.44993, -0.122964l 0.44993, -0.123123l 0.44993, -0.123283l 0.44993, -0.123442l 0.44993, -0.123602l 0.44993, -0.123761l 0.44993, -0.123921l 0.44993, -0.12408l 0.44993, -0.124239l 0.44993, -0.124399l 0.44993, -0.124558l 0.44993, -0.124718l 0.44993,
 -0.124877" fill="none" stroke="#ff0066" stroke-width="3"/>
<path d="M186.938,332.593l 0.44993, -0.125037l 0.44993, -0.125196l 0.44993, -0.125355l 0.44993, -0.125515l 0.44993, -0.125674l 0.44993, -0.125834l 0.44993, -0.125993l 0.44993, -0.126153l 0.44993, -0.126312l 0.44993, -0.126471l 0.44993, -0.126631l
 0.44993, -0.12679l 0.44993, -0.12695l 0.44993, -0.127109l 0.44993, -0.127269l 0.44993, -0.127428l 0.44993, -0.127587l 0.44993, -0.127747l 0.44993, -0.127906l 0.44993, -0.128066l 0.44993, -0.128225l 0.44993, -0.128385l 0.44993, -0.128544l 0.44993,
 -0.128703l 0.44993, -0.128863l 0.44993, -0.129022l 0.44993, -0.129182l 0.44993, -0.129341l 0.44993, -0.1295l 0.44993, -0.12966l 0.44993, -0.129819l 0.44993, -0.129979l 0.44993, -0.130138l 0.44993, -0.130298l 0.44993, -0.130457l 0.44993, -0.130616l
 0.44993, -0.130776l 0.44993, -0.130935l 0.44993, -0.131095l 0.44993, -0.131254l 0.44993, -0.131414l 0.44993, -0.131573l 0.44993, -0.131732l 0.44993, -0.131892l 0.44993, -0.132051l 0.44993, -0.132211l 0.44993, -0.13237l 0.44993, -0.13253l 0.44993,
 -0.132689" fill="none" stroke="#ff0066" stroke-width="3"/>
<path d="M208.985,326.279l 0.44993, -0.132848l 0.44993, -0.133008l 0.44993, -0.133167l 0.44993, -0.133327l 0.44993, -0.133486l 0.44993, -0.133646l 0.44993, -0.133805l 0.44993, -0.133964l 0.44993, -0.134124l 0.44993, -0.134283l 0.44993, -0.134443l
 0.44993, -0.134602l 0.44993, -0.134761l 0.44993, -0.134921l 0.44993, -0.13508l 0.44993, -0.13524l 0.44993, -0.135399l 0.44993, -0.135559l 0.44993, -0.135718l 0.44993, -0.135877l 0.44993, -0.136037l 0.44993, -0.136196l 0.44993, -0.136356l 0.44993,
 -0.136515l 0.44993, -0.136675l 0.44993, -0.136834l 0.44993, -0.136993l 0.44993, -0.137153l 0.44993, -0.137312l 0.44993, -0.137472l 0.44993, -0.137631l 0.44993, -0.137791l 0.44993, -0.13795l 0.44993, -0.138109l 0.44993, -0.138269l 0.44993, -0.138428l
 0.44993, -0.138588l 0.44993, -0.138747l 0.44993, -0.138907l 0.44993, -0.139066l 0.44993, -0.139225l 0.44993, -0.139385l 0.44993, -0.139544l 0.44993, -0.139704l 0.44993, -0.139863l 0.44993, -0.140023l 0.44993, -0.140182l 0.44993, -0.140341l 0.44993,
 -0.140501" fill="none" stroke="#ff0066" stroke-width="3"/>
<path d="M231.031,319.582l 0.44993, -0.14066l 0.44993, -0.14082l 0.44993, -0.140979l 0.44993, -0.141138l 0.44993, -0.141298l 0.44993, -0.141457l 0.44993, -0.141617l 0.44993, -0.141776l 0.44993, -0.141936l 0.44993, -0.142095l 0.44993, -0.142254l
 0.44993, -0.142414l 0.44993, -0.142573l 0.44993, -0.142733l 0.44993, -0.142892l 0.44993, -0.143052l 0.44993, -0.143211l 0.44993, -0.14337l 0.44993, -0.14353l 0.44993, -0.143689l 0.44993, -0.143849l 0.44993, -0.144008l 0.44993, -0.144168l 0.44993,
 -0.144327l 0.44993, -0.144486l 0.44993, -0.144646l 0.44993, -0.144805l 0.44993, -0.144965l 0.44993, -0.145124l 0.44993, -0.145284l 0.44993, -0.145443l 0.44993, -0.145602l 0.44993, -0.145762l 0.44993, -0.145921l 0.44993, -0.146081l 0.44993, -0.14624l
 0.44993, -0.146399l 0.44993, -0.146559l 0.44993, -0.146718l 0.44993, -0.146878l 0.44993, -0.147037l 0.44993, -0.147197l 0.44993, -0.147356l 0.44993, -0.147515l 0.44993, -0.147675l 0.44993, -0.147834l 0.44993, -0.147994l 0.44993, -0.148153l 0.44993,
 -0.148313" fill="none" stroke="#ff0066" stroke-width="3"/>
<path d="M253.078,312.502l 0.44993, -0.148472l 0.44993, -0.148631l 0.44993, -0.148791l 0.44993, -0.14895l 0.44993, -0.14911l 0.44993, -0.149269l 0.44993, -0.149429l 0.44993, -0.149588l 0.44993, -0.149747l 0.44993, -0.149907l 0.44993, -0.150066l
 0.44993, -0.150226l 0.44993, -0.150385l 0.44993, -0.150545l 0.44993, -0.150704l 0.44993, -0.150863l 0.44993, -0.151023l 0.44993, -0.151182l 0.44993, -0.151342l 0.44993, -0.151501l 0.44993, -0.151661l 0.44993, -0.15182l 0.44993, -0.151979l 0.44993,
 -0.152139l 0.44993, -0.152298l 0.44993, -0.152458l 0.44993, -0.152617l 0.44993, -0.152776l 0.44993, -0.152936l 0.44993, -0.153095l 0.44993, -0.153255l 0.44993, -0.153414l 0.44993, -0.153574l 0.44993, -0.153733l 0.44993, -0.153892l 0.44993,
 -0.154052l 0.44993, -0.154211l 0.44993, -0.154371l 0.44993, -0.15453l 0.44993, -0.15469l 0.44993, -0.154849l 0.44993, -0.155008l 0.44993, -0.155168l 0.44993, -0.155327l 0.44993, -0.155487l 0.44993, -0.155646l 0.44993, -0.155806l 0.44993, -0.155965l
 0.44993, -0.156124" fill="none" stroke="#ff0066" stroke-width="3"/>
<path d="M275.124,305.04l 0.44993, -0.156284l 0.44993, -0.156443l 0.44993, -0.156603l 0.44993, -0.156762l 0.44993, -0.156922l 0.44993, -0.157081l 0.44993, -0.15724l 0.44993, -0.1574l 0.44993, -0.157559l 0.44993, -0.157719l 0.44993, -0.157878l
 0.44993, -0.158037l 0.44993, -0.158197l 0.44993, -0.158356l 0.44993, -0.158516l 0.44993, -0.158675l 0.44993, -0.158835l 0.44993, -0.158994l 0.44993, -0.159153l 0.44993, -0.159313l 0.44993, -0.159472l 0.44993, -0.159632l 0.44993, -0.159791l 0.44993,
 -0.159951l 0.44993, -0.16011l 0.44993, -0.160269l 0.44993, -0.160429l 0.44993, -0.160588l 0.44993, -0.160748l 0.44993, -0.160907l 0.44993, -0.161067l 0.44993, -0.161226l 0.44993, -0.161385l 0.44993, -0.161545l 0.44993, -0.161704l 0.44993, -0.161864l
 0.44993, -0.162023l 0.44993, -0.162183l 0.44993, -0.162342l 0.44993, -0.162501l 0.44993, -0.162661l 0.44993, -0.16282l 0.44993, -0.16298l 0.44993, -0.163139l 0.44993, -0.163298l 0.44993, -0.163458l 0.44993, -0.163617l 0.44993, -0.163777l 0.44993,
 -0.163936" fill="none" stroke="#ff0066" stroke-width="3"/>
<path d="M297.171,297.194l 0.44993, -0.164096l 0.44993, -0.164255l 0.44993, -0.164414l 0.44993, -0.164574l 0.44993, -0.164733l 0.44993, -0.164893l 0.44993, -0.165052l 0.44993, -0.165212l 0.44993, -0.165371l 0.44993, -0.16553l 0.44993, -0.16569l
 0.44993, -0.165849l 0.44993, -0.166009l 0.44993, -0.166168l 0.44993, -0.166328l 0.44993, -0.166487l 0.44993, -0.166646l 0.44993, -0.166806l 0.44993, -0.166965l 0.44993, -0.167125l 0.44993, -0.167284l 0.44993, -0.167444l 0.44993, -0.167603l 0.44993,
 -0.167762l 0.44993, -0.167922l 0.44993, -0.168081l 0.44993, -0.168241l 0.44993, -0.1684l 0.44993, -0.16856l 0.44993, -0.168719l 0.44993, -0.168878l 0.44993, -0.169038l 0.44993, -0.169197l 0.44993, -0.169357l 0.44993, -0.169516l 0.44993, -0.169675l
 0.44993, -0.169835l 0.44993, -0.169994l 0.44993, -0.170154l 0.44993, -0.170313l 0.44993, -0.170473l 0.44993, -0.170632l 0.44993, -0.170791l 0.44993, -0.170951l 0.44993, -0.17111l 0.44993, -0.17127l 0.44993, -0.171429l 0.44993, -0.171589l 0.44993,
 -0.171748" fill="none" stroke="#ff0066" stroke-width="3"/>
<path d="M319.217,288.966l 0.44993, -0.171907l 0.44993, -0.172067l 0.44993, -0.172226l 0.44993, -0.172386l 0.44993, -0.172545l 0.44993, -0.172705l 0.44993, -0.172864l 0.44993, -0.173023l 0.44993, -0.173183l 0.44993, -0.173342l 0.44993, -0.173502l
 0.44993, -0.173661l 0.44993, -0.173821l 0.44993, -0.17398l 0.44993, -0.174139l 0.44993, -0.174299l 0.44993, -0.174458l 0.44993, -0.174618l 0.44993, -0.174777l 0.44993, -0.174936l 0.44993, -0.175096l 0.44993, -0.175255l 0.44993, -0.175415l 0.44993,
 -0.175574l 0.44993, -0.175734l 0.44993, -0.175893l 0.44993, -0.176052l 0.44993, -0.176212l 0.44993, -0.176371l 0.44993, -0.176531l 0.44993, -0.17669l 0.44993, -0.17685l 0.44993, -0.177009l 0.44993, -0.177168l 0.44993, -0.177328l 0.44993, -0.177487l
 0.44993, -0.177647l 0.44993, -0.177806l 0.44993, -0.177966l 0.44993, -0.178125l 0.44993, -0.178284l 0.44993, -0.178444l 0.44993, -0.178603l 0.44993, -0.178763l 0.44993, -0.178922l 0.44993, -0.179082l 0.44993, -0.179241l 0.44993, -0.1794l 0.44993,
 -0.17956" fill="none" stroke="#ff0066" stroke-width="3"/>
<path d="M341.264,280.355l 0.44993, -0.179719l 0.44993, -0.179879l 0.44993, -0.180038l 0.44993, -0.180198l 0.44993, -0.180357l 0.44993, -0.180516l 0.44993, -0.180676l 0.44993, -0.180835l 0.44993, -0.180995l 0.44993, -0.181154l 0.44993, -0.181313l
 0.44993, -0.181473l 0.44993, -0.181632l 0.44993, -0.181792l 0.44993, -0.181951l 0.44993, -0.182111l 0.44993, -0.18227l 0.44993, -0.182429l 0.44993, -0.182589l 0.44993, -0.182748l 0.44993, -0.182908l 0.44993, -0.183067l 0.44993, -0.183227l 0.44993,
 -0.183386l 0.44993, -0.183545l 0.44993, -0.183705l 0.44993, -0.183864l 0.44993, -0.184024l 0.44993, -0.184183l 0.44993, -0.184343l 0.44993, -0.184502l 0.44993, -0.184661l 0.44993, -0.184821l 0.44993, -0.18498l 0.44993, -0.18514l 0.44993, -0.185299l
 0.44993, -0.185459l 0.44993, -0.185618l 0.44993, -0.185777l 0.44993, -0.185937l 0.44993, -0.186096l 0.44993, -0.186256l 0.44993, -0.186415l 0.44993, -0.186574l 0.44993, -0.186734l 0.44993, -0.186893l 0.44993, -0.187053l 0.44993, -0.187212l 0.44993,
 -0.187372" fill="none" stroke="#ff0066" stroke-width="3"/>
<path d="M363.311,271.361l 0.44993, -0.187531l 0.44993, -0.18769l 0.44993, -0.18785l 0.44993, -0.188009l 0.44993, -0.188169l 0.44993, -0.188328l 0.44993, -0.188488l 0.44993, -0.188647l 0.44993, -0.188806l 0.44993, -0.188966l 0.44993, -0.189125l
 0.44993, -0.189285l 0.44993, -0.189444l 0.44993, -0.189604l 0.44993, -0.189763l 0.44993, -0.189922l 0.44993, -0.190082l 0.44993, -0.190241l 0.44993, -0.190401l 0.44993, -0.19056l 0.44993, -0.19072l 0.44993, -0.190879l 0.44993, -0.191038l 0.44993,
 -0.191198l 0.44993, -0.191357l 0.44993, -0.191517l 0.44993, -0.191676l 0.44993, -0.191836l 0.44993, -0.191995l 0.44993, -0.192154l 0.44993, -0.192314l 0.44993, -0.192473l 0.44993, -0.192633l 0.44993, -0.192792l 0.44993, -0.192951l 0.44993,
 -0.193111l 0.44993, -0.19327l 0.44993, -0.19343l 0.44993, -0.193589l 0.44993, -0.193749l 0.44993, -0.193908l 0.44993, -0.194067l 0.44993, -0.194227l 0.44993, -0.194386l 0.44993, -0.194546l 0.44993, -0.194705l 0.44993, -0.194865l 0.44993, -0.195024l
 0.44993, -0.195183" fill="none" stroke="#ff0066" stroke-width="3"/>
<path d="M385.357,261.985l 0.44993, -0.195343l 0.44993, -0.195502l 0.44993, -0.195662l 0.44993, -0.195821l 0.44993, -0.195981l 0.44993, -0.19614l 0.44993, -0.196299l 0.44993, -0.196459l 0.44993, -0.196618l 0.44993, -0.196778l 0.44993, -0.196937l
 0.44993, -0.197097l 0.44993, -0.197256l 0.44993, -0.197415l 0.44993, -0.197575l 0.44993, -0.197734l 0.44993, -0.197894l 0.44993, -0.198053l 0.44993, -0.198212l 0.44993, -0.198372l 0.44993, -0.198531l 0.44993, -0.198691l 0.44993, -0.19885l 0.44993,
 -0.19901l 0.44993, -0.199169l 0.44993, -0.199328l 0.44993, -0.199488l 0.44993, -0.199647l 0.44993, -0.199807l 0.44993, -0.199966l 0.44993, -0.200126l 0.44993, -0.200285l 0.44993, -0.200444l 0.44993, -0.200604l 0.44993, -0.200763l 0.44993, -0.200923l
 0.44993, -0.201082l 0.44993, -0.201242l 0.44993, -0.201401l 0.44993, -0.20156l 0.44993, -0.20172l 0.44993, -0.201879l 0.44993, -0.202039l 0.44993, -0.202198l 0.44993, -0.202358l 0.44993, -0.202517l 0.44993, -0.202676l 0.44993, -0.202836l 0.44993,
 -0.202995" fill="none" stroke="#ff0066" stroke-width="3"/>
<path d="M407.404,252.226l 0.44993, -0.203155l 0.44993, -0.203314l 0.44993, -0.203474l 0.44993, -0.203633l 0.44993, -0.203792l 0.44993, -0.203952l 0.44993, -0.204111l 0.44993, -0.204271l 0.44993, -0.20443l 0.44993, -0.204589l 0.44993, -0.204749l
 0.44993, -0.204908l 0.44993, -0.205068l 0.44993, -0.205227l 0.44993, -0.205387l 0.44993, -0.205546l 0.44993, -0.205705l 0.44993, -0.205865l 0.44993, -0.206024l 0.44993, -0.206184l 0.44993, -0.206343l 0.44993, -0.206503l 0.44993, -0.206662l 0.44993,
 -0.206821l 0.44993, -0.206981l 0.44993, -0.20714l 0.44993, -0.2073l 0.44993, -0.207459l 0.44993, -0.207619l 0.44993, -0.207778l 0.44993, -0.207937l 0.44993, -0.208097l 0.44993, -0.208256l 0.44993, -0.208416l 0.44993, -0.208575l 0.44993, -0.208735l
 0.44993, -0.208894l 0.44993, -0.209053l 0.44993, -0.209213l 0.44993, -0.209372l 0.44993, -0.209532l 0.44993, -0.209691l 0.44993, -0.20985l 0.44993, -0.21001l 0.44993, -0.210169l 0.44993, -0.210329l 0.44993, -0.210488l 0.44993, -0.210648l 0.44993,
 -0.210807" fill="none" stroke="#ff0066" stroke-width="3"/>
<path d="M429.45,242.084l 0.44993, -0.210966l 0.44993, -0.211126l 0.44993, -0.211285l 0.44993, -0.211445l 0.44993, -0.211604l 0.44993, -0.211764l 0.44993, -0.211923l 0.44993, -0.212082l 0.44993, -0.212242l 0.44993, -0.212401l 0.44993, -0.212561l
 0.44993, -0.21272l 0.44993, -0.21288l 0.44993, -0.213039l 0.44993, -0.213198l 0.44993, -0.213358l 0.44993, -0.213517l 0.44993, -0.213677l 0.44993, -0.213836l 0.44993, -0.213996l 0.44993, -0.214155l 0.44993, -0.214314l 0.44993, -0.214474l 0.44993,
 -0.214633l 0.44993, -0.214793l 0.44993, -0.214952l 0.44993, -0.215111l 0.44993, -0.215271l 0.44993, -0.21543l 0.44993, -0.21559l 0.44993, -0.215749l 0.44993, -0.215909l 0.44993, -0.216068l 0.44993, -0.216227l 0.44993, -0.216387l 0.44993, -0.216546l
 0.44993, -0.216706l 0.44993, -0.216865l 0.44993, -0.217025l 0.44993, -0.217184l 0.44993, -0.217343l 0.44993, -0.217503l 0.44993, -0.217662l 0.44993, -0.217822l 0.44993, -0.217981l 0.44993, -0.218141l 0.44993, -0.2183l 0.44993, -0.218459l 0.44993,
 -0.218619" fill="none" stroke="#ff0066" stroke-width="3"/>
<path d="M451.497,231.559l 0.44993, -0.218778l 0.44993, -0.218938l 0.44993, -0.219097l 0.44993, -0.219257l 0.44993, -0.219416l 0.44993, -0.219575l 0.44993, -0.219735l 0.44993, -0.219894l 0.44993, -0.220054l 0.44993, -0.220213l 0.44993, -0.220373l
 0.44993, -0.220532l 0.44993, -0.220691l 0.44993, -0.220851l 0.44993, -0.22101l 0.44993, -0.22117l 0.44993, -0.221329l 0.44993, -0.221488l 0.44993, -0.221648l 0.44993, -0.221807l 0.44993, -0.221967l 0.44993, -0.222126l 0.44993, -0.222286l 0.44993,
 -0.222445l 0.44993, -0.222604l 0.44993, -0.222764l 0.44993, -0.222923l 0.44993, -0.223083l 0.44993, -0.223242l 0.44993, -0.223402l 0.44993, -0.223561l 0.44993, -0.22372l 0.44993, -0.22388l 0.44993, -0.224039l 0.44993, -0.224199l 0.44993, -0.224358l
 0.44993, -0.224518l 0.44993, -0.224677l 0.44993, -0.224836l 0.44993, -0.224996l 0.44993, -0.225155l 0.44993, -0.225315l 0.44993, -0.225474l 0.44993, -0.225634l 0.44993, -0.225793l 0.44993, -0.225952l 0.44993, -0.226112l 0.44993, -0.226271l 0.44993,
 -0.226431" fill="none" stroke="#ff0066" stroke-width="3"/>
<path d="M473.543,220.651l 0.44993, -0.22659l 0.44993, -0.226749l 0.44993, -0.226909l 0.44993, -0.227068l 0.44993, -0.227228l 0.44993, -0.227387l 0.44993, -0.227547l 0.44993, -0.227706l 0.44993, -0.227865l 0.44993, -0.228025l 0.44993, -0.228184l
 0.44993, -0.228344l 0.44993, -0.228503l 0.44993, -0.228663l 0.44993, -0.228822l 0.44993, -0.228981l 0.44993, -0.229141l 0.44993, -0.2293l 0.44993, -0.22946l 0.44993, -0.229619l 0.44993, -0.229779l 0.44993, -0.229938l 0.44993, -0.230097l 0.44993,
 -0.230257l 0.44993, -0.230416l 0.44993, -0.230576l 0.44993, -0.230735l 0.44993, -0.230895l 0.44993, -0.231054l 0.44993, -0.231213l 0.44993, -0.231373l 0.44993, -0.231532l 0.44993, -0.231692l 0.44993, -0.231851l 0.44993, -0.232011l 0.44993, -0.23217l
 0.44993, -0.232329l 0.44993, -0.232489l 0.44993, -0.232648l 0.44993, -0.232808l 0.44993, -0.232967l 0.44993, -0.233126l 0.44993, -0.233286l 0.44993, -0.233445l 0.44993, -0.233605l 0.44993, -0.233764l 0.44993, -0.233924l 0.44993, -0.234083l 0.44993,
 -0.234242" fill="none" stroke="#ff0066" stroke-width="3"/>
<path d="M495.59,209.361l 0.44993, -0.234402l 0.44993, -0.234561l 0.44993, -0.234721l 0.44993, -0.23488l 0.44993, -0.23504l 0.44993, -0.235199l 0.44993, -0.235358l 0.44993, -0.235518l 0.44993, -0.235677l 0.44993, -0.235837l 0.44993, -0.235996l
 0.44993, -0.236156l 0.44993, -0.236315l 0.44993, -0.236474l 0.44993, -0.236634l 0.44993, -0.236793l 0.44993, -0.236953l 0.44993, -0.237112l 0.44993, -0.237272l 0.44993, -0.237431l 0.44993, -0.23759l 0.44993, -0.23775l 0.44993, -0.237909l 0.44993,
 -0.238069l 0.44993, -0.238228l 0.44993, -0.238387l 0.44993, -0.238547l 0.44993, -0.238706l 0.44993, -0.238866l 0.44993, -0.239025l 0.44993, -0.239185l 0.44993, -0.239344l 0.44993, -0.239503l 0.44993, -0.239663l 0.44993, -0.239822l 0.44993,
 -0.239982l 0.44993, -0.240141l 0.44993, -0.240301l 0.44993, -0.24046l 0.44993, -0.240619l 0.44993, -0.240779l 0.44993, -0.240938l 0.44993, -0.241098l 0.44993, -0.241257l 0.44993, -0.241417l 0.44993, -0.241576l 0.44993, -0.241735l 0.44993, -0.241895l
 0.44993, -0.242054" fill="none" stroke="#ff0066" stroke-width="3"/>
<path d="M517.636,197.688l 0.44993, -0.242214l 0.44993, -0.242373l 0.44993, -0.242533l 0.44993, -0.242692l 0.44993, -0.242851l 0.44993, -0.243011l 0.44993, -0.24317l 0.44993, -0.24333l 0.44993, -0.243489l 0.44993, -0.243649l 0.44993, -0.243808l
 0.44993, -0.243967l 0.44993, -0.244127l 0.44993, -0.244286l 0.44993, -0.244446l 0.44993, -0.244605l 0.44993, -0.244764l 0.44993, -0.244924l 0.44993, -0.245083l 0.44993, -0.245243l 0.44993, -0.245402l 0.44993, -0.245562l 0.44993, -0.245721l 0.44993,
 -0.24588l 0.44993, -0.24604l 0.44993, -0.246199l 0.44993, -0.246359l 0.44993, -0.246518l 0.44993, -0.246678l 0.44993, -0.246837l 0.44993, -0.246996l 0.44993, -0.247156l 0.44993, -0.247315l 0.44993, -0.247475l 0.44993, -0.247634l 0.44993, -0.247794l
 0.44993, -0.247953l 0.44993, -0.248112l 0.44993, -0.248272l 0.44993, -0.248431l 0.44993, -0.248591l 0.44993, -0.24875l 0.44993, -0.24891l 0.44993, -0.249069l 0.44993, -0.249228l 0.44993, -0.249388l 0.44993, -0.249547l 0.44993, -0.249707l 0.44993,
 -0.249866" fill="none" stroke="#ff0066" stroke-width="3"/>
<path d="M539.683,185.632l 0.44993, -0.250025l 0.44993, -0.250185l 0.44993, -0.250344l 0.44993, -0.250504l 0.44993, -0.250663l 0.44993, -0.250823l 0.44993, -0.250982l 0.44993, -0.251141l 0.44993, -0.251301l 0.44993, -0.25146l 0.44993, -0.25162l
 0.44993, -0.251779l 0.44993, -0.251939l 0.44993, -0.252098l 0.44993, -0.252257l 0.44993, -0.252417l 0.44993, -0.252576l 0.44993, -0.252736l 0.44993, -0.252895" fill="none" stroke="#ff0066" stroke-width="3"/>
<path d="M248.503,21.4167h 239.963" fill="none" stroke="#999999" stroke-width="7"/>
<text xml:space="preserve" x="360.607" y="50.7193" fill="black" font-size="16.0105" font-family="Helvetica"> with EMC</text>
<text xml:space="preserve" x="352.717" y="50.7193" fill="black" font-size="16.0105" font-family="Times">&#0947;</text>
<text xml:space="preserve" x="344.828" y="50.7193" fill="black" font-size="16.0105" font-family="Times">&#0947;</text>
<text xml:space="preserve" x="336.938" y="50.7193" fill="black" font-size="16.0105" font-family="Times">&#0947;</text>
<text xml:space="preserve" x="331.866" y="50.7193" fill="black" font-size="16.0105" font-family="Helvetica"> </text>
<text xml:space="preserve" x="316.65" y="50.7193" fill="black" font-size="16.0105" font-family="Times">&#8594;</text>
<text xml:space="preserve" x="311.578" y="50.7193" fill="black" font-size="16.0105" font-family="Helvetica"> </text>
<text xml:space="preserve" x="303.689" y="50.7193" fill="black" font-size="16.0105" font-family="Times">&#0947;</text>
<text xml:space="preserve" x="298.053" y="45.0838" fill="black" font-size="10.8403" font-family="Helvetica">0</text>
<text xml:space="preserve" x="289.6" y="50.7193" fill="black" font-size="16.0105" font-family="Times">&#0960;</text>
<text xml:space="preserve" x="284.528" y="50.7193" fill="black" font-size="16.0105" font-family="Helvetica"> </text>
<text xml:space="preserve" x="269.312" y="50.7193" fill="black" font-size="16.0105" font-family="Times">&#8594;</text>
<text xml:space="preserve" x="264.24" y="50.7193" fill="black" font-size="16.0105" font-family="Helvetica"> </text>
<text xml:space="preserve" x="252.969" y="50.7193" fill="black" font-size="16.0105" font-family="Times">&#0969;</text>
<text xml:space="preserve" x="128.989" y="50.7193" fill="black" font-size="16.0105" font-family="Helvetica"> = 13 TeV (EG1), </text>
<text xml:space="preserve" x="120.536" y="50.7193" fill="black" font-size="16.0105" font-family="Helvetica" font-style="oblique">s</text>
<path d="M114.9,41.7025l 1.69064, 9.58031" fill="none" stroke="black" stroke-width="2"/>
<path d="M116.591,51.2829l 2.25419, -14.0887" fill="none" stroke="black"/>
<path d="M118.845,37.1942h 10.1439" fill="none" stroke="black"/>
<text xml:space="preserve" x="89.5406" y="50.7193" fill="black" font-size="16.0105" font-family="Helvetica">pp </text>
<text xml:space="preserve" x="89.5406" y="85.6593" fill="black" font-size="16.0105" font-family="Helvetica">ALICE work in progress</text>
<text xml:space="preserve" x="214.085" y="120.599" fill="black" font-size="16.0105" font-family="Helvetica">) &lt; 16.0</text>
<text xml:space="preserve" x="205.068" y="120.599" fill="black" font-size="16.0105" font-family="Helvetica" font-style="oblique">c</text>
<text xml:space="preserve" x="154.912" y="120.599" fill="black" font-size="16.0105" font-family="Helvetica"> /(GeV/</text>
<text xml:space="preserve" x="148.15" y="128.489" fill="black" font-size="10.8403" font-family="Helvetica">T</text>
<text xml:space="preserve" x="138.569" y="120.599" fill="black" font-size="16.0105" font-family="Helvetica" font-style="oblique">p</text>
<text xml:space="preserve" x="133.497" y="120.599" fill="black" font-size="16.0105" font-family="Helvetica"> </text>
<text xml:space="preserve" x="125.044" y="120.599" fill="black" font-size="16.0105" font-family="Times">&#8804;</text>
<text xml:space="preserve" x="89.5406" y="120.599" fill="black" font-size="16.0105" font-family="Helvetica">14.0 </text>
<rect x="312.311" y="69.1755" width="198.425" height="113.448" fill="white"/>
<text xml:space="preserve" x="361.734" y="85.0957" fill="black" font-size="16.0105" font-family="Helvetica">ratio</text>
<path d="M319.752,80.5203h 34.7244" fill="none" stroke="black" stroke-width="2"/>
<g fill="black">
<circle cx="337.114" cy="80.5203" r="6.76257"/>
</g>
<text xml:space="preserve" x="361.734" y="108.201" fill="black" font-size="16.0105" font-family="Helvetica">peak range</text>
<path d="M319.752,103.21h 34.7244" fill="none" stroke="#333333" stroke-width="2"/>
<g stroke="#333333" stroke-width="2" fill="none">
<circle cx="337.114" cy="103.21" r="5.63548"/>
</g>
<text xml:space="preserve" x="361.734" y="130.743" fill="black" font-size="16.0105" font-family="Helvetica">background pol1</text>
<path d="M319.752,125.899h 34.7244" fill="none" stroke="#33cccc" stroke-width="3"/>
<text xml:space="preserve" x="361.734" y="153.285" fill="black" font-size="16.0105" font-family="Helvetica">background pol2</text>
<path d="M319.752,148.589h 34.7244" fill="none" stroke="#ff0066" stroke-width="3"/>
<text xml:space="preserve" x="361.734" y="175.827" fill="black" font-size="16.0105" font-family="Helvetica">param. range</text>
<path d="M319.752,171.279h 34.7244" fill="none" stroke="#999999" stroke-width="7"/></svg>
