<?xml version="1.0" standalone="no"?>
<svg width="567.429" height="553.904" viewBox="0 0 567.429 553.904" xmlns="http://www.w3.org/2000/svg" shape-rendering="crispEdges">
<title>
MC/EG1/OmegaRotPS/SameEventToBackgroundRatio_06.svg
</title>
<desc>
Creator: ROOT Version 6.20/08
CreationDate: Mon Mar 29 18:49:58 2021</desc>
<defs>
</defs>
<rect x="0.5" y="0" width="566.929" height="553.404" fill="white"/>
<rect x="68.5315" y="16.6021" width="484.724" height="481.461" fill="white"/>
<rect x="68.5315" y="16.6021" width="484.724" height="481.461" fill="none" stroke="black"/>
<rect x="68.5315" y="16.6021" width="484.724" height="481.461" fill="white"/>
<rect x="68.5315" y="16.6021" width="484.724" height="481.461" fill="none" stroke="black"/>
<g fill="black">
<circle cx="109.325" cy="497.969" r="6.76257"/>
</g>
<g fill="black">
<circle cx="114.124" cy="472.944" r="6.76257"/>
</g>
<g fill="black">
<circle cx="118.924" cy="350.994" r="6.76257"/>
</g>
<g fill="black">
<circle cx="123.723" cy="230.583" r="6.76257"/>
</g>
<g fill="black">
<circle cx="128.522" cy="197.15" r="6.76257"/>
</g>
<g fill="black">
<circle cx="133.321" cy="328.665" r="6.76257"/>
</g>
<g fill="black">
<circle cx="138.121" cy="299.468" r="6.76257"/>
</g>
<g fill="black">
<circle cx="142.92" cy="314.575" r="6.76257"/>
</g>
<g fill="black">
<circle cx="147.719" cy="325.073" r="6.76257"/>
</g>
<g fill="black">
<circle cx="152.518" cy="326.699" r="6.76257"/>
</g>
<g fill="black">
<circle cx="157.318" cy="335.46" r="6.76257"/>
</g>
<g fill="black">
<circle cx="162.117" cy="344.51" r="6.76257"/>
</g>
<g fill="black">
<circle cx="166.916" cy="349.491" r="6.76257"/>
</g>
<g fill="black">
<circle cx="171.715" cy="355.496" r="6.76257"/>
</g>
<g fill="black">
<circle cx="176.515" cy="358.508" r="6.76257"/>
</g>
<g fill="black">
<circle cx="181.314" cy="362.248" r="6.76257"/>
</g>
<g fill="black">
<circle cx="186.113" cy="363.562" r="6.76257"/>
</g>
<g fill="black">
<circle cx="190.912" cy="367.247" r="6.76257"/>
</g>
<g fill="black">
<circle cx="195.712" cy="367.226" r="6.76257"/>
</g>
<g fill="black">
<circle cx="200.511" cy="368.11" r="6.76257"/>
</g>
<g fill="black">
<circle cx="205.31" cy="368.464" r="6.76257"/>
</g>
<g fill="black">
<circle cx="210.109" cy="369.197" r="6.76257"/>
</g>
<g fill="black">
<circle cx="214.909" cy="368.501" r="6.76257"/>
</g>
<g fill="black">
<circle cx="219.708" cy="369.929" r="6.76257"/>
</g>
<g fill="black">
<circle cx="224.507" cy="369.532" r="6.76257"/>
</g>
<g fill="black">
<circle cx="229.306" cy="369.302" r="6.76257"/>
</g>
<g fill="black">
<circle cx="234.106" cy="369.464" r="6.76257"/>
</g>
<g fill="black">
<circle cx="238.905" cy="367.814" r="6.76257"/>
</g>
<g fill="black">
<circle cx="243.704" cy="366.934" r="6.76257"/>
</g>
<g fill="black">
<circle cx="248.503" cy="366.178" r="6.76257"/>
</g>
<g fill="black">
<circle cx="253.303" cy="367.248" r="6.76257"/>
</g>
<g fill="black">
<circle cx="258.102" cy="367.567" r="6.76257"/>
</g>
<g fill="black">
<circle cx="262.901" cy="366.943" r="6.76257"/>
</g>
<g fill="black">
<circle cx="267.7" cy="366.573" r="6.76257"/>
</g>
<g fill="black">
<circle cx="272.5" cy="366.392" r="6.76257"/>
</g>
<g fill="black">
<circle cx="277.299" cy="365.58" r="6.76257"/>
</g>
<g fill="black">
<circle cx="339.689" cy="359.224" r="6.76257"/>
</g>
<g fill="black">
<circle cx="344.488" cy="357.698" r="6.76257"/>
</g>
<g fill="black">
<circle cx="349.288" cy="355.285" r="6.76257"/>
</g>
<g fill="black">
<circle cx="354.087" cy="358.047" r="6.76257"/>
</g>
<g fill="black">
<circle cx="358.886" cy="355.694" r="6.76257"/>
</g>
<g fill="black">
<circle cx="363.685" cy="354.046" r="6.76257"/>
</g>
<g fill="black">
<circle cx="368.485" cy="353.636" r="6.76257"/>
</g>
<g fill="black">
<circle cx="373.284" cy="351.733" r="6.76257"/>
</g>
<g fill="black">
<circle cx="378.083" cy="349.479" r="6.76257"/>
</g>
<g fill="black">
<circle cx="382.882" cy="349.807" r="6.76257"/>
</g>
<g fill="black">
<circle cx="387.682" cy="348.392" r="6.76257"/>
</g>
<g fill="black">
<circle cx="392.481" cy="345.393" r="6.76257"/>
</g>
<g fill="black">
<circle cx="397.28" cy="346.91" r="6.76257"/>
</g>
<g fill="black">
<circle cx="402.079" cy="346.672" r="6.76257"/>
</g>
<g fill="black">
<circle cx="406.879" cy="345.642" r="6.76257"/>
</g>
<g fill="black">
<circle cx="411.678" cy="344.087" r="6.76257"/>
</g>
<g fill="black">
<circle cx="416.477" cy="341.533" r="6.76257"/>
</g>
<g fill="black">
<circle cx="421.276" cy="339.501" r="6.76257"/>
</g>
<g fill="black">
<circle cx="426.076" cy="339.972" r="6.76257"/>
</g>
<g fill="black">
<circle cx="430.875" cy="337.72" r="6.76257"/>
</g>
<g fill="black">
<circle cx="435.674" cy="338.021" r="6.76257"/>
</g>
<g fill="black">
<circle cx="440.473" cy="337.164" r="6.76257"/>
</g>
<g fill="black">
<circle cx="445.273" cy="334.98" r="6.76257"/>
</g>
<g fill="black">
<circle cx="450.072" cy="331.739" r="6.76257"/>
</g>
<g fill="black">
<circle cx="454.871" cy="336.096" r="6.76257"/>
</g>
<g fill="black">
<circle cx="459.671" cy="331.481" r="6.76257"/>
</g>
<g fill="black">
<circle cx="464.47" cy="327.938" r="6.76257"/>
</g>
<g fill="black">
<circle cx="469.269" cy="328.091" r="6.76257"/>
</g>
<g fill="black">
<circle cx="474.068" cy="327.016" r="6.76257"/>
</g>
<g fill="black">
<circle cx="478.867" cy="326.611" r="6.76257"/>
</g>
<g fill="black">
<circle cx="483.667" cy="326.367" r="6.76257"/>
</g>
<g fill="black">
<circle cx="488.466" cy="321.513" r="6.76257"/>
</g>
<g fill="black">
<circle cx="493.265" cy="321.298" r="6.76257"/>
</g>
<g fill="black">
<circle cx="498.065" cy="319.021" r="6.76257"/>
</g>
<g fill="black">
<circle cx="502.864" cy="318.989" r="6.76257"/>
</g>
<g fill="black">
<circle cx="507.663" cy="318.721" r="6.76257"/>
</g>
<g fill="black">
<circle cx="512.462" cy="317.026" r="6.76257"/>
</g>
<g fill="black">
<circle cx="517.262" cy="313.924" r="6.76257"/>
</g>
<g fill="black">
<circle cx="522.061" cy="312.291" r="6.76257"/>
</g>
<g fill="black">
<circle cx="526.86" cy="309.241" r="6.76257"/>
</g>
<g fill="black">
<circle cx="531.659" cy="309.8" r="6.76257"/>
</g>
<g fill="black">
<circle cx="536.458" cy="309.307" r="6.76257"/>
</g>
<g fill="black">
<circle cx="541.258" cy="306.855" r="6.76257"/>
</g>
<g fill="black">
<circle cx="546.057" cy="307.418" r="6.76257"/>
</g>
<path d="M68.5315,498.064h 484.724" fill="none" stroke="black"/>
<path d="M68.5315,483.869v 14.1948" fill="none" stroke="black"/>
<path d="M83.5292,490.966v 7.09741" fill="none" stroke="black"/>
<path d="M98.5268,490.966v 7.09741" fill="none" stroke="black"/>
<path d="M113.524,490.966v 7.09741" fill="none" stroke="black"/>
<path d="M128.522,483.869v 14.1948" fill="none" stroke="black"/>
<path d="M143.52,490.966v 7.09741" fill="none" stroke="black"/>
<path d="M158.517,490.966v 7.09741" fill="none" stroke="black"/>
<path d="M173.515,490.966v 7.09741" fill="none" stroke="black"/>
<path d="M188.513,483.869v 14.1948" fill="none" stroke="black"/>
<path d="M203.51,490.966v 7.09741" fill="none" stroke="black"/>
<path d="M218.508,490.966v 7.09741" fill="none" stroke="black"/>
<path d="M233.506,490.966v 7.09741" fill="none" stroke="black"/>
<path d="M248.503,483.869v 14.1948" fill="none" stroke="black"/>
<path d="M263.501,490.966v 7.09741" fill="none" stroke="black"/>
<path d="M278.499,490.966v 7.09741" fill="none" stroke="black"/>
<path d="M293.496,490.966v 7.09741" fill="none" stroke="black"/>
<path d="M308.494,483.869v 14.1948" fill="none" stroke="black"/>
<path d="M323.492,490.966v 7.09741" fill="none" stroke="black"/>
<path d="M338.489,490.966v 7.09741" fill="none" stroke="black"/>
<path d="M353.487,490.966v 7.09741" fill="none" stroke="black"/>
<path d="M368.485,483.869v 14.1948" fill="none" stroke="black"/>
<path d="M383.482,490.966v 7.09741" fill="none" stroke="black"/>
<path d="M398.48,490.966v 7.09741" fill="none" stroke="black"/>
<path d="M413.478,490.966v 7.09741" fill="none" stroke="black"/>
<path d="M428.475,483.869v 14.1948" fill="none" stroke="black"/>
<path d="M443.473,490.966v 7.09741" fill="none" stroke="black"/>
<path d="M458.471,490.966v 7.09741" fill="none" stroke="black"/>
<path d="M473.468,490.966v 7.09741" fill="none" stroke="black"/>
<path d="M488.466,483.869v 14.1948" fill="none" stroke="black"/>
<path d="M503.464,490.966v 7.09741" fill="none" stroke="black"/>
<path d="M518.461,490.966v 7.09741" fill="none" stroke="black"/>
<path d="M533.459,490.966v 7.09741" fill="none" stroke="black"/>
<path d="M548.457,483.869v 14.1948" fill="none" stroke="black"/>
<path d="M548.457,483.869v 14.1948" fill="none" stroke="black"/>
<text xml:space="preserve" x="63.6174" y="513.956" fill="black" font-size="16.0105" font-family="Helvetica">0</text>
<text xml:space="preserve" x="117.718" y="513.956" fill="black" font-size="16.0105" font-family="Helvetica">0.2</text>
<text xml:space="preserve" x="177.454" y="513.956" fill="black" font-size="16.0105" font-family="Helvetica">0.4</text>
<text xml:space="preserve" x="237.754" y="513.956" fill="black" font-size="16.0105" font-family="Helvetica">0.6</text>
<text xml:space="preserve" x="297.49" y="513.956" fill="black" font-size="16.0105" font-family="Helvetica">0.8</text>
<text xml:space="preserve" x="365.115" y="513.956" fill="black" font-size="16.0105" font-family="Helvetica">1</text>
<text xml:space="preserve" x="417.525" y="513.956" fill="black" font-size="16.0105" font-family="Helvetica">1.2</text>
<text xml:space="preserve" x="477.261" y="513.956" fill="black" font-size="16.0105" font-family="Helvetica">1.4</text>
<text xml:space="preserve" x="537.561" y="513.956" fill="black" font-size="16.0105" font-family="Helvetica">1.6</text>
<text xml:space="preserve" x="548.268" y="537.625" fill="black" font-size="16.0105" font-family="Helvetica">)</text>
<text xml:space="preserve" x="542.633" y="532.553" fill="black" font-size="10.8403" font-family="Helvetica">2</text>
<text xml:space="preserve" x="533.616" y="537.625" fill="black" font-size="16.0105" font-family="Helvetica" font-style="oblique">c</text>
<text xml:space="preserve" x="487.405" y="537.625" fill="black" font-size="16.0105" font-family="Helvetica"> (GeV/</text>
<text xml:space="preserve" x="473.317" y="542.697" fill="black" font-size="10.8403" font-family="Helvetica">inv</text>
<text xml:space="preserve" x="459.792" y="537.625" fill="black" font-size="16.0105" font-family="Helvetica" font-style="oblique">m</text>
<path d="M68.5315,16.6021h 484.724" fill="none" stroke="black"/>
<path d="M68.5315,30.7969v -14.1948" fill="none" stroke="black"/>
<path d="M83.5292,23.6995v -7.09741" fill="none" stroke="black"/>
<path d="M98.5268,23.6995v -7.09741" fill="none" stroke="black"/>
<path d="M113.524,23.6995v -7.09741" fill="none" stroke="black"/>
<path d="M128.522,30.7969v -14.1948" fill="none" stroke="black"/>
<path d="M143.52,23.6995v -7.09741" fill="none" stroke="black"/>
<path d="M158.517,23.6995v -7.09741" fill="none" stroke="black"/>
<path d="M173.515,23.6995v -7.09741" fill="none" stroke="black"/>
<path d="M188.513,30.7969v -14.1948" fill="none" stroke="black"/>
<path d="M203.51,23.6995v -7.09741" fill="none" stroke="black"/>
<path d="M218.508,23.6995v -7.09741" fill="none" stroke="black"/>
<path d="M233.506,23.6995v -7.09741" fill="none" stroke="black"/>
<path d="M248.503,30.7969v -14.1948" fill="none" stroke="black"/>
<path d="M263.501,23.6995v -7.09741" fill="none" stroke="black"/>
<path d="M278.499,23.6995v -7.09741" fill="none" stroke="black"/>
<path d="M293.496,23.6995v -7.09741" fill="none" stroke="black"/>
<path d="M308.494,30.7969v -14.1948" fill="none" stroke="black"/>
<path d="M323.492,23.6995v -7.09741" fill="none" stroke="black"/>
<path d="M338.489,23.6995v -7.09741" fill="none" stroke="black"/>
<path d="M353.487,23.6995v -7.09741" fill="none" stroke="black"/>
<path d="M368.485,30.7969v -14.1948" fill="none" stroke="black"/>
<path d="M383.482,23.6995v -7.09741" fill="none" stroke="black"/>
<path d="M398.48,23.6995v -7.09741" fill="none" stroke="black"/>
<path d="M413.478,23.6995v -7.09741" fill="none" stroke="black"/>
<path d="M428.475,30.7969v -14.1948" fill="none" stroke="black"/>
<path d="M443.473,23.6995v -7.09741" fill="none" stroke="black"/>
<path d="M458.471,23.6995v -7.09741" fill="none" stroke="black"/>
<path d="M473.468,23.6995v -7.09741" fill="none" stroke="black"/>
<path d="M488.466,30.7969v -14.1948" fill="none" stroke="black"/>
<path d="M503.464,23.6995v -7.09741" fill="none" stroke="black"/>
<path d="M518.461,23.6995v -7.09741" fill="none" stroke="black"/>
<path d="M533.459,23.6995v -7.09741" fill="none" stroke="black"/>
<path d="M548.457,30.7969v -14.1948" fill="none" stroke="black"/>
<path d="M548.457,30.7969v -14.1948" fill="none" stroke="black"/>
<path d="M68.5315,498.064v -481.461" fill="none" stroke="black"/>
<path d="M83.3283,498.064h -14.7969" fill="none" stroke="black"/>
<path d="M75.9299,488.037h -7.39843" fill="none" stroke="black"/>
<path d="M75.9299,478.011h -7.39843" fill="none" stroke="black"/>
<path d="M75.9299,467.985h -7.39843" fill="none" stroke="black"/>
<path d="M83.3283,457.959h -14.7969" fill="none" stroke="black"/>
<path d="M75.9299,447.932h -7.39843" fill="none" stroke="black"/>
<path d="M75.9299,437.906h -7.39843" fill="none" stroke="black"/>
<path d="M75.9299,427.88h -7.39843" fill="none" stroke="black"/>
<path d="M83.3283,417.854h -14.7969" fill="none" stroke="black"/>
<path d="M75.9299,407.827h -7.39843" fill="none" stroke="black"/>
<path d="M75.9299,397.801h -7.39843" fill="none" stroke="black"/>
<path d="M75.9299,387.775h -7.39843" fill="none" stroke="black"/>
<path d="M83.3283,377.749h -14.7969" fill="none" stroke="black"/>
<path d="M75.9299,367.722h -7.39843" fill="none" stroke="black"/>
<path d="M75.9299,357.696h -7.39843" fill="none" stroke="black"/>
<path d="M75.9299,347.67h -7.39843" fill="none" stroke="black"/>
<path d="M83.3283,337.643h -14.7969" fill="none" stroke="black"/>
<path d="M75.9299,327.617h -7.39843" fill="none" stroke="black"/>
<path d="M75.9299,317.591h -7.39843" fill="none" stroke="black"/>
<path d="M75.9299,307.565h -7.39843" fill="none" stroke="black"/>
<path d="M83.3283,297.538h -14.7969" fill="none" stroke="black"/>
<path d="M75.9299,287.512h -7.39843" fill="none" stroke="black"/>
<path d="M75.9299,277.486h -7.39843" fill="none" stroke="black"/>
<path d="M75.9299,267.46h -7.39843" fill="none" stroke="black"/>
<path d="M83.3283,257.433h -14.7969" fill="none" stroke="black"/>
<path d="M75.9299,247.407h -7.39843" fill="none" stroke="black"/>
<path d="M75.9299,237.381h -7.39843" fill="none" stroke="black"/>
<path d="M75.9299,227.355h -7.39843" fill="none" stroke="black"/>
<path d="M83.3283,217.328h -14.7969" fill="none" stroke="black"/>
<path d="M75.9299,207.302h -7.39843" fill="none" stroke="black"/>
<path d="M75.9299,197.276h -7.39843" fill="none" stroke="black"/>
<path d="M75.9299,187.25h -7.39843" fill="none" stroke="black"/>
<path d="M83.3283,177.223h -14.7969" fill="none" stroke="black"/>
<path d="M75.9299,167.197h -7.39843" fill="none" stroke="black"/>
<path d="M75.9299,157.171h -7.39843" fill="none" stroke="black"/>
<path d="M75.9299,147.145h -7.39843" fill="none" stroke="black"/>
<path d="M83.3283,137.118h -14.7969" fill="none" stroke="black"/>
<path d="M75.9299,127.092h -7.39843" fill="none" stroke="black"/>
<path d="M75.9299,117.066h -7.39843" fill="none" stroke="black"/>
<path d="M75.9299,107.04h -7.39843" fill="none" stroke="black"/>
<path d="M83.3283,97.0133h -14.7969" fill="none" stroke="black"/>
<path d="M75.9299,86.9871h -7.39843" fill="none" stroke="black"/>
<path d="M75.9299,76.9608h -7.39843" fill="none" stroke="black"/>
<path d="M75.9299,66.9346h -7.39843" fill="none" stroke="black"/>
<path d="M83.3283,56.9083h -14.7969" fill="none" stroke="black"/>
<path d="M75.9299,46.882h -7.39843" fill="none" stroke="black"/>
<path d="M75.9299,36.8558h -7.39843" fill="none" stroke="black"/>
<path d="M75.9299,26.8295h -7.39843" fill="none" stroke="black"/>
<path d="M83.3283,16.8033h -14.7969" fill="none" stroke="black"/>
<path d="M83.3283,16.8033h -14.7969" fill="none" stroke="black"/>
<text xml:space="preserve" x="56.8548" y="503.248" fill="black" font-size="16.0105" font-family="Helvetica">0</text>
<text xml:space="preserve" x="43.8932" y="463.236" fill="black" font-size="16.0105" font-family="Helvetica">0.2</text>
<text xml:space="preserve" x="43.8932" y="423.224" fill="black" font-size="16.0105" font-family="Helvetica">0.4</text>
<text xml:space="preserve" x="43.8932" y="383.213" fill="black" font-size="16.0105" font-family="Helvetica">0.6</text>
<text xml:space="preserve" x="43.8932" y="343.201" fill="black" font-size="16.0105" font-family="Helvetica">0.8</text>
<text xml:space="preserve" x="59.6725" y="303.189" fill="black" font-size="16.0105" font-family="Helvetica">1</text>
<text xml:space="preserve" x="43.8932" y="263.177" fill="black" font-size="16.0105" font-family="Helvetica">1.2</text>
<text xml:space="preserve" x="43.8932" y="223.165" fill="black" font-size="16.0105" font-family="Helvetica">1.4</text>
<text xml:space="preserve" x="43.8932" y="182.59" fill="black" font-size="16.0105" font-family="Helvetica">1.6</text>
<text xml:space="preserve" x="43.8932" y="142.578" fill="black" font-size="16.0105" font-family="Helvetica">1.8</text>
<text xml:space="preserve" x="56.8548" y="103.129" fill="black" font-size="16.0105" font-family="Helvetica">2</text>
<text xml:space="preserve" x="43.8932" y="62.5538" fill="black" font-size="16.0105" font-family="Helvetica">2.2</text>
<text xml:space="preserve" x="43.8932" y="22.5419" fill="black" font-size="16.0105" font-family="Helvetica">2.4</text>
<g transform="rotate(-90,38.2577,98.0573)">
<text xml:space="preserve" x="38.2577" y="98.0573" fill="black" font-size="16.0105" font-family="Helvetica">background</text>
</g>
<g transform="rotate(-90,21.9148,98.0573)">
<text xml:space="preserve" x="21.9148" y="98.0573" fill="black" font-size="16.0105" font-family="Helvetica">same event</text>
</g>
<path d="M24.169,98.0573l 0.563548, -81.7144" fill="none" stroke="black" stroke-width="2"/>
<path d="M553.256,498.064v -481.461" fill="none" stroke="black"/>
<path d="M538.459,498.064h 14.7969" fill="none" stroke="black"/>
<path d="M545.857,488.037h 7.39843" fill="none" stroke="black"/>
<path d="M545.857,478.011h 7.39843" fill="none" stroke="black"/>
<path d="M545.857,467.985h 7.39843" fill="none" stroke="black"/>
<path d="M538.459,457.959h 14.7969" fill="none" stroke="black"/>
<path d="M545.857,447.932h 7.39843" fill="none" stroke="black"/>
<path d="M545.857,437.906h 7.39843" fill="none" stroke="black"/>
<path d="M545.857,427.88h 7.39843" fill="none" stroke="black"/>
<path d="M538.459,417.854h 14.7969" fill="none" stroke="black"/>
<path d="M545.857,407.827h 7.39843" fill="none" stroke="black"/>
<path d="M545.857,397.801h 7.39843" fill="none" stroke="black"/>
<path d="M545.857,387.775h 7.39843" fill="none" stroke="black"/>
<path d="M538.459,377.749h 14.7969" fill="none" stroke="black"/>
<path d="M545.857,367.722h 7.39843" fill="none" stroke="black"/>
<path d="M545.857,357.696h 7.39843" fill="none" stroke="black"/>
<path d="M545.857,347.67h 7.39843" fill="none" stroke="black"/>
<path d="M538.459,337.643h 14.7969" fill="none" stroke="black"/>
<path d="M545.857,327.617h 7.39843" fill="none" stroke="black"/>
<path d="M545.857,317.591h 7.39843" fill="none" stroke="black"/>
<path d="M545.857,307.565h 7.39843" fill="none" stroke="black"/>
<path d="M538.459,297.538h 14.7969" fill="none" stroke="black"/>
<path d="M545.857,287.512h 7.39843" fill="none" stroke="black"/>
<path d="M545.857,277.486h 7.39843" fill="none" stroke="black"/>
<path d="M545.857,267.46h 7.39843" fill="none" stroke="black"/>
<path d="M538.459,257.433h 14.7969" fill="none" stroke="black"/>
<path d="M545.857,247.407h 7.39843" fill="none" stroke="black"/>
<path d="M545.857,237.381h 7.39843" fill="none" stroke="black"/>
<path d="M545.857,227.355h 7.39843" fill="none" stroke="black"/>
<path d="M538.459,217.328h 14.7969" fill="none" stroke="black"/>
<path d="M545.857,207.302h 7.39843" fill="none" stroke="black"/>
<path d="M545.857,197.276h 7.39843" fill="none" stroke="black"/>
<path d="M545.857,187.25h 7.39843" fill="none" stroke="black"/>
<path d="M538.459,177.223h 14.7969" fill="none" stroke="black"/>
<path d="M545.857,167.197h 7.39843" fill="none" stroke="black"/>
<path d="M545.857,157.171h 7.39843" fill="none" stroke="black"/>
<path d="M545.857,147.145h 7.39843" fill="none" stroke="black"/>
<path d="M538.459,137.118h 14.7969" fill="none" stroke="black"/>
<path d="M545.857,127.092h 7.39843" fill="none" stroke="black"/>
<path d="M545.857,117.066h 7.39843" fill="none" stroke="black"/>
<path d="M545.857,107.04h 7.39843" fill="none" stroke="black"/>
<path d="M538.459,97.0133h 14.7969" fill="none" stroke="black"/>
<path d="M545.857,86.9871h 7.39843" fill="none" stroke="black"/>
<path d="M545.857,76.9608h 7.39843" fill="none" stroke="black"/>
<path d="M545.857,66.9346h 7.39843" fill="none" stroke="black"/>
<path d="M538.459,56.9083h 14.7969" fill="none" stroke="black"/>
<path d="M545.857,46.882h 7.39843" fill="none" stroke="black"/>
<path d="M545.857,36.8558h 7.39843" fill="none" stroke="black"/>
<path d="M545.857,26.8295h 7.39843" fill="none" stroke="black"/>
<path d="M538.459,16.8033h 14.7969" fill="none" stroke="black"/>
<path d="M538.459,16.8033h 14.7969" fill="none" stroke="black"/>
<g stroke="#333333" stroke-width="2" fill="none">
<circle cx="282.098" cy="365.302" r="5.63548"/>
</g>
<g stroke="#333333" stroke-width="2" fill="none">
<circle cx="286.897" cy="364.992" r="5.63548"/>
</g>
<g stroke="#333333" stroke-width="2" fill="none">
<circle cx="291.697" cy="364.132" r="5.63548"/>
</g>
<g stroke="#333333" stroke-width="2" fill="none">
<circle cx="296.496" cy="361.985" r="5.63548"/>
</g>
<g stroke="#333333" stroke-width="2" fill="none">
<circle cx="301.295" cy="360.786" r="5.63548"/>
</g>
<g stroke="#333333" stroke-width="2" fill="none">
<circle cx="306.094" cy="362.14" r="5.63548"/>
</g>
<g stroke="#333333" stroke-width="2" fill="none">
<circle cx="310.894" cy="361.228" r="5.63548"/>
</g>
<g stroke="#333333" stroke-width="2" fill="none">
<circle cx="315.693" cy="360.744" r="5.63548"/>
</g>
<g stroke="#333333" stroke-width="2" fill="none">
<circle cx="320.492" cy="361.891" r="5.63548"/>
</g>
<g stroke="#333333" stroke-width="2" fill="none">
<circle cx="325.291" cy="359.973" r="5.63548"/>
</g>
<g stroke="#333333" stroke-width="2" fill="none">
<circle cx="330.091" cy="359.496" r="5.63548"/>
</g>
<g stroke="#333333" stroke-width="2" fill="none">
<circle cx="334.89" cy="359.22" r="5.63548"/>
</g>
<path d="M128.732,388.109l 0.419935, -0.0641198l 0.419935, -0.0641198l 0.419935, -0.0641198l 0.419935, -0.0641198l 0.419935, -0.0641198l 0.419935, -0.0641198l 0.419935, -0.0641198l 0.419935, -0.0641198l 0.419935, -0.0641198l 0.419935, -0.0641198l
 0.419935, -0.0641198l 0.419935, -0.0641198l 0.419935, -0.0641198l 0.419935, -0.0641198l 0.419935, -0.0641198l 0.419935, -0.0641198l 0.419935, -0.0641198l 0.419935, -0.0641198l 0.419935, -0.0641198l 0.419935, -0.0641198l 0.419935, -0.0641198l
 0.419935, -0.0641198l 0.419935, -0.0641198l 0.419935, -0.0641198l 0.419935, -0.0641198l 0.419935, -0.0641198l 0.419935, -0.0641198l 0.419935, -0.0641198l 0.419935, -0.0641198l 0.419935, -0.0641198l 0.419935, -0.0641198l 0.419935, -0.0641198l
 0.419935, -0.0641198l 0.419935, -0.0641198l 0.419935, -0.0641198l 0.419935, -0.0641198l 0.419935, -0.0641198l 0.419935, -0.0641198l 0.419935, -0.0641198l 0.419935, -0.0641198l 0.419935, -0.0641198l 0.419935, -0.0641198l 0.419935, -0.0641198l
 0.419935, -0.0641198l 0.419935, -0.0641198l 0.419935, -0.0641198l 0.419935, -0.0641198l 0.419935, -0.0641198l 0.419935, -0.0641198" fill="none" stroke="#33cccc" stroke-width="3"/>
<path d="M149.309,384.967l 0.419935, -0.0641198l 0.419935, -0.0641198l 0.419935, -0.0641198l 0.419935, -0.0641198l 0.419935, -0.0641198l 0.419935, -0.0641198l 0.419935, -0.0641198l 0.419935, -0.0641198l 0.419935, -0.0641198l 0.419935, -0.0641198l
 0.419935, -0.0641198l 0.419935, -0.0641198l 0.419935, -0.0641198l 0.419935, -0.0641198l 0.419935, -0.0641198l 0.419935, -0.0641198l 0.419935, -0.0641198l 0.419935, -0.0641198l 0.419935, -0.0641198l 0.419935, -0.0641198l 0.419935, -0.0641198l
 0.419935, -0.0641198l 0.419935, -0.0641198l 0.419935, -0.0641198l 0.419935, -0.0641198l 0.419935, -0.0641198l 0.419935, -0.0641198l 0.419935, -0.0641198l 0.419935, -0.0641198l 0.419935, -0.0641198l 0.419935, -0.0641198l 0.419935, -0.0641198l
 0.419935, -0.0641198l 0.419935, -0.0641198l 0.419935, -0.0641198l 0.419935, -0.0641198l 0.419935, -0.0641198l 0.419935, -0.0641198l 0.419935, -0.0641198l 0.419935, -0.0641198l 0.419935, -0.0641198l 0.419935, -0.0641198l 0.419935, -0.0641198l
 0.419935, -0.0641198l 0.419935, -0.0641198l 0.419935, -0.0641198l 0.419935, -0.0641198l 0.419935, -0.0641198l 0.419935, -0.0641198" fill="none" stroke="#33cccc" stroke-width="3"/>
<path d="M169.886,381.825l 0.419935, -0.0641198l 0.419935, -0.0641198l 0.419935, -0.0641198l 0.419935, -0.0641198l 0.419935, -0.0641198l 0.419935, -0.0641198l 0.419935, -0.0641198l 0.419935, -0.0641198l 0.419935, -0.0641198l 0.419935, -0.0641198l
 0.419935, -0.0641198l 0.419935, -0.0641198l 0.419935, -0.0641198l 0.419935, -0.0641198l 0.419935, -0.0641198l 0.419935, -0.0641198l 0.419935, -0.0641198l 0.419935, -0.0641198l 0.419935, -0.0641198l 0.419935, -0.0641198l 0.419935, -0.0641198l
 0.419935, -0.0641198l 0.419935, -0.0641198l 0.419935, -0.0641198l 0.419935, -0.0641198l 0.419935, -0.0641198l 0.419935, -0.0641198l 0.419935, -0.0641198l 0.419935, -0.0641198l 0.419935, -0.0641198l 0.419935, -0.0641198l 0.419935, -0.0641198l
 0.419935, -0.0641198l 0.419935, -0.0641198l 0.419935, -0.0641198l 0.419935, -0.0641198l 0.419935, -0.0641198l 0.419935, -0.0641198l 0.419935, -0.0641198l 0.419935, -0.0641198l 0.419935, -0.0641198l 0.419935, -0.0641198l 0.419935, -0.0641198l
 0.419935, -0.0641198l 0.419935, -0.0641198l 0.419935, -0.0641198l 0.419935, -0.0641198l 0.419935, -0.0641198l 0.419935, -0.0641198" fill="none" stroke="#33cccc" stroke-width="3"/>
<path d="M190.462,378.684l 0.419935, -0.0641198l 0.419935, -0.0641198l 0.419935, -0.0641198l 0.419935, -0.0641198l 0.419935, -0.0641198l 0.419935, -0.0641198l 0.419935, -0.0641198l 0.419935, -0.0641198l 0.419935, -0.0641198l 0.419935, -0.0641198l
 0.419935, -0.0641198l 0.419935, -0.0641198l 0.419935, -0.0641198l 0.419935, -0.0641198l 0.419935, -0.0641198l 0.419935, -0.0641198l 0.419935, -0.0641198l 0.419935, -0.0641198l 0.419935, -0.0641198l 0.419935, -0.0641198l 0.419935, -0.0641198l
 0.419935, -0.0641198l 0.419935, -0.0641198l 0.419935, -0.0641198l 0.419935, -0.0641198l 0.419935, -0.0641198l 0.419935, -0.0641198l 0.419935, -0.0641198l 0.419935, -0.0641198l 0.419935, -0.0641198l 0.419935, -0.0641198l 0.419935, -0.0641198l
 0.419935, -0.0641198l 0.419935, -0.0641198l 0.419935, -0.0641198l 0.419935, -0.0641198l 0.419935, -0.0641198l 0.419935, -0.0641198l 0.419935, -0.0641198l 0.419935, -0.0641198l 0.419935, -0.0641198l 0.419935, -0.0641198l 0.419935, -0.0641198l
 0.419935, -0.0641198l 0.419935, -0.0641198l 0.419935, -0.0641198l 0.419935, -0.0641198l 0.419935, -0.0641198l 0.419935, -0.0641198" fill="none" stroke="#33cccc" stroke-width="3"/>
<path d="M211.039,375.542l 0.419935, -0.0641198l 0.419935, -0.0641198l 0.419935, -0.0641198l 0.419935, -0.0641198l 0.419935, -0.0641198l 0.419935, -0.0641198l 0.419935, -0.0641198l 0.419935, -0.0641198l 0.419935, -0.0641198l 0.419935, -0.0641198l
 0.419935, -0.0641198l 0.419935, -0.0641198l 0.419935, -0.0641198l 0.419935, -0.0641198l 0.419935, -0.0641198l 0.419935, -0.0641198l 0.419935, -0.0641198l 0.419935, -0.0641198l 0.419935, -0.0641198l 0.419935, -0.0641198l 0.419935, -0.0641198l
 0.419935, -0.0641198l 0.419935, -0.0641198l 0.419935, -0.0641198l 0.419935, -0.0641198l 0.419935, -0.0641198l 0.419935, -0.0641198l 0.419935, -0.0641198l 0.419935, -0.0641198l 0.419935, -0.0641198l 0.419935, -0.0641198l 0.419935, -0.0641198l
 0.419935, -0.0641198l 0.419935, -0.0641198l 0.419935, -0.0641198l 0.419935, -0.0641198l 0.419935, -0.0641198l 0.419935, -0.0641198l 0.419935, -0.0641198l 0.419935, -0.0641198l 0.419935, -0.0641198l 0.419935, -0.0641198l 0.419935, -0.0641198l
 0.419935, -0.0641198l 0.419935, -0.0641198l 0.419935, -0.0641198l 0.419935, -0.0641198l 0.419935, -0.0641198l 0.419935, -0.0641198" fill="none" stroke="#33cccc" stroke-width="3"/>
<path d="M231.616,372.4l 0.419935, -0.0641198l 0.419935, -0.0641198l 0.419935, -0.0641198l 0.419935, -0.0641198l 0.419935, -0.0641198l 0.419935, -0.0641198l 0.419935, -0.0641198l 0.419935, -0.0641198l 0.419935, -0.0641198l 0.419935, -0.0641198l
 0.419935, -0.0641198l 0.419935, -0.0641198l 0.419935, -0.0641198l 0.419935, -0.0641198l 0.419935, -0.0641198l 0.419935, -0.0641198l 0.419935, -0.0641198l 0.419935, -0.0641198l 0.419935, -0.0641198l 0.419935, -0.0641198l 0.419935, -0.0641198l
 0.419935, -0.0641198l 0.419935, -0.0641198l 0.419935, -0.0641198l 0.419935, -0.0641198l 0.419935, -0.0641198l 0.419935, -0.0641198l 0.419935, -0.0641198l 0.419935, -0.0641198l 0.419935, -0.0641198l 0.419935, -0.0641198l 0.419935, -0.0641198l
 0.419935, -0.0641198l 0.419935, -0.0641198l 0.419935, -0.0641198l 0.419935, -0.0641198l 0.419935, -0.0641198l 0.419935, -0.0641198l 0.419935, -0.0641198l 0.419935, -0.0641198l 0.419935, -0.0641198l 0.419935, -0.0641198l 0.419935, -0.0641198l
 0.419935, -0.0641198l 0.419935, -0.0641198l 0.419935, -0.0641198l 0.419935, -0.0641198l 0.419935, -0.0641198l 0.419935, -0.0641198" fill="none" stroke="#33cccc" stroke-width="3"/>
<path d="M252.193,369.258l 0.419935, -0.0641198l 0.419935, -0.0641198l 0.419935, -0.0641198l 0.419935, -0.0641198l 0.419935, -0.0641198l 0.419935, -0.0641198l 0.419935, -0.0641198l 0.419935, -0.0641198l 0.419935, -0.0641198l 0.419935, -0.0641198l
 0.419935, -0.0641198l 0.419935, -0.0641198l 0.419935, -0.0641198l 0.419935, -0.0641198l 0.419935, -0.0641198l 0.419935, -0.0641198l 0.419935, -0.0641198l 0.419935, -0.0641198l 0.419935, -0.0641198l 0.419935, -0.0641198l 0.419935, -0.0641198l
 0.419935, -0.0641198l 0.419935, -0.0641198l 0.419935, -0.0641198l 0.419935, -0.0641198l 0.419935, -0.0641198l 0.419935, -0.0641198l 0.419935, -0.0641198l 0.419935, -0.0641198l 0.419935, -0.0641198l 0.419935, -0.0641198l 0.419935, -0.0641198l
 0.419935, -0.0641198l 0.419935, -0.0641198l 0.419935, -0.0641198l 0.419935, -0.0641198l 0.419935, -0.0641198l 0.419935, -0.0641198l 0.419935, -0.0641198l 0.419935, -0.0641198l 0.419935, -0.0641198l 0.419935, -0.0641198l 0.419935, -0.0641198l
 0.419935, -0.0641198l 0.419935, -0.0641198l 0.419935, -0.0641198l 0.419935, -0.0641198l 0.419935, -0.0641198l 0.419935, -0.0641198" fill="none" stroke="#33cccc" stroke-width="3"/>
<path d="M272.77,366.116l 0.419935, -0.0641198l 0.419935, -0.0641198l 0.419935, -0.0641198l 0.419935, -0.0641198l 0.419935, -0.0641198l 0.419935, -0.0641198l 0.419935, -0.0641198l 0.419935, -0.0641198l 0.419935, -0.0641198l 0.419935, -0.0641198l
 0.419935, -0.0641198l 0.419935, -0.0641198l 0.419935, -0.0641198l 0.419935, -0.0641198l 0.419935, -0.0641198l 0.419935, -0.0641198l 0.419935, -0.0641198l 0.419935, -0.0641198l 0.419935, -0.0641198l 0.419935, -0.0641198l 0.419935, -0.0641198l
 0.419935, -0.0641198l 0.419935, -0.0641198l 0.419935, -0.0641198l 0.419935, -0.0641198l 0.419935, -0.0641198l 0.419935, -0.0641198l 0.419935, -0.0641198l 0.419935, -0.0641198l 0.419935, -0.0641198l 0.419935, -0.0641198l 0.419935, -0.0641198l
 0.419935, -0.0641198l 0.419935, -0.0641198l 0.419935, -0.0641198l 0.419935, -0.0641198l 0.419935, -0.0641198l 0.419935, -0.0641198l 0.419935, -0.0641198l 0.419935, -0.0641198l 0.419935, -0.0641198l 0.419935, -0.0641198l 0.419935, -0.0641198l
 0.419935, -0.0641198l 0.419935, -0.0641198l 0.419935, -0.0641198l 0.419935, -0.0641198l 0.419935, -0.0641198l 0.419935, -0.0641198" fill="none" stroke="#33cccc" stroke-width="3"/>
<path d="M293.346,362.974l 0.419935, -0.0641198l 0.419935, -0.0641198l 0.419935, -0.0641198l 0.419935, -0.0641198l 0.419935, -0.0641198l 0.419935, -0.0641198l 0.419935, -0.0641198l 0.419935, -0.0641198l 0.419935, -0.0641198l 0.419935, -0.0641198l
 0.419935, -0.0641198l 0.419935, -0.0641198l 0.419935, -0.0641198l 0.419935, -0.0641198l 0.419935, -0.0641198l 0.419935, -0.0641198l 0.419935, -0.0641198l 0.419935, -0.0641198l 0.419935, -0.0641198l 0.419935, -0.0641198l 0.419935, -0.0641198l
 0.419935, -0.0641198l 0.419935, -0.0641198l 0.419935, -0.0641198l 0.419935, -0.0641198l 0.419935, -0.0641198l 0.419935, -0.0641198l 0.419935, -0.0641198l 0.419935, -0.0641198l 0.419935, -0.0641198l 0.419935, -0.0641198l 0.419935, -0.0641198l
 0.419935, -0.0641198l 0.419935, -0.0641198l 0.419935, -0.0641198l 0.419935, -0.0641198l 0.419935, -0.0641198l 0.419935, -0.0641198l 0.419935, -0.0641198l 0.419935, -0.0641198l 0.419935, -0.0641198l 0.419935, -0.0641198l 0.419935, -0.0641198l
 0.419935, -0.0641198l 0.419935, -0.0641198l 0.419935, -0.0641198l 0.419935, -0.0641198l 0.419935, -0.0641198l 0.419935, -0.0641198" fill="none" stroke="#33cccc" stroke-width="3"/>
<path d="M313.923,359.832l 0.419935, -0.0641198l 0.419935, -0.0641198l 0.419935, -0.0641198l 0.419935, -0.0641198l 0.419935, -0.0641198l 0.419935, -0.0641198l 0.419935, -0.0641198l 0.419935, -0.0641198l 0.419935, -0.0641198l 0.419935, -0.0641198l
 0.419935, -0.0641198l 0.419935, -0.0641198l 0.419935, -0.0641198l 0.419935, -0.0641198l 0.419935, -0.0641198l 0.419935, -0.0641198l 0.419935, -0.0641198l 0.419935, -0.0641198l 0.419935, -0.0641198l 0.419935, -0.0641198l 0.419935, -0.0641198l
 0.419935, -0.0641198l 0.419935, -0.0641198l 0.419935, -0.0641198l 0.419935, -0.0641198l 0.419935, -0.0641198l 0.419935, -0.0641198l 0.419935, -0.0641198l 0.419935, -0.0641198l 0.419935, -0.0641198l 0.419935, -0.0641198l 0.419935, -0.0641198l
 0.419935, -0.0641198l 0.419935, -0.0641198l 0.419935, -0.0641198l 0.419935, -0.0641198l 0.419935, -0.0641198l 0.419935, -0.0641198l 0.419935, -0.0641198l 0.419935, -0.0641198l 0.419935, -0.0641198l 0.419935, -0.0641198l 0.419935, -0.0641198l
 0.419935, -0.0641198l 0.419935, -0.0641198l 0.419935, -0.0641198l 0.419935, -0.0641198l 0.419935, -0.0641198l 0.419935, -0.0641198" fill="none" stroke="#33cccc" stroke-width="3"/>
<path d="M334.5,356.691l 0.419935, -0.0641198l 0.419935, -0.0641198l 0.419935, -0.0641198l 0.419935, -0.0641198l 0.419935, -0.0641198l 0.419935, -0.0641198l 0.419935, -0.0641198l 0.419935, -0.0641198l 0.419935, -0.0641198l 0.419935, -0.0641198l
 0.419935, -0.0641198l 0.419935, -0.0641198l 0.419935, -0.0641198l 0.419935, -0.0641198l 0.419935, -0.0641198l 0.419935, -0.0641198l 0.419935, -0.0641198l 0.419935, -0.0641198l 0.419935, -0.0641198l 0.419935, -0.0641198l 0.419935, -0.0641198l
 0.419935, -0.0641198l 0.419935, -0.0641198l 0.419935, -0.0641198l 0.419935, -0.0641198l 0.419935, -0.0641198l 0.419935, -0.0641198l 0.419935, -0.0641198l 0.419935, -0.0641198l 0.419935, -0.0641198l 0.419935, -0.0641198l 0.419935, -0.0641198l
 0.419935, -0.0641198l 0.419935, -0.0641198l 0.419935, -0.0641198l 0.419935, -0.0641198l 0.419935, -0.0641198l 0.419935, -0.0641198l 0.419935, -0.0641198l 0.419935, -0.0641198l 0.419935, -0.0641198l 0.419935, -0.0641198l 0.419935, -0.0641198l
 0.419935, -0.0641198l 0.419935, -0.0641198l 0.419935, -0.0641198l 0.419935, -0.0641198l 0.419935, -0.0641198l 0.419935, -0.0641198" fill="none" stroke="#33cccc" stroke-width="3"/>
<path d="M355.077,353.549l 0.419935, -0.0641198l 0.419935, -0.0641198l 0.419935, -0.0641198l 0.419935, -0.0641198l 0.419935, -0.0641198l 0.419935, -0.0641198l 0.419935, -0.0641198l 0.419935, -0.0641198l 0.419935, -0.0641198l 0.419935, -0.0641198l
 0.419935, -0.0641198l 0.419935, -0.0641198l 0.419935, -0.0641198l 0.419935, -0.0641198l 0.419935, -0.0641198l 0.419935, -0.0641198l 0.419935, -0.0641198l 0.419935, -0.0641198l 0.419935, -0.0641198l 0.419935, -0.0641198l 0.419935, -0.0641198l
 0.419935, -0.0641198l 0.419935, -0.0641198l 0.419935, -0.0641198l 0.419935, -0.0641198l 0.419935, -0.0641198l 0.419935, -0.0641198l 0.419935, -0.0641198l 0.419935, -0.0641198l 0.419935, -0.0641198l 0.419935, -0.0641198l 0.419935, -0.0641198l
 0.419935, -0.0641198l 0.419935, -0.0641198l 0.419935, -0.0641198l 0.419935, -0.0641198l 0.419935, -0.0641198l 0.419935, -0.0641198l 0.419935, -0.0641198l 0.419935, -0.0641198l 0.419935, -0.0641198l 0.419935, -0.0641198l 0.419935, -0.0641198l
 0.419935, -0.0641198l 0.419935, -0.0641198l 0.419935, -0.0641198l 0.419935, -0.0641198l 0.419935, -0.0641198l 0.419935, -0.0641198" fill="none" stroke="#33cccc" stroke-width="3"/>
<path d="M375.654,350.407l 0.419935, -0.0641198l 0.419935, -0.0641198l 0.419935, -0.0641198l 0.419935, -0.0641198l 0.419935, -0.0641198l 0.419935, -0.0641198l 0.419935, -0.0641198l 0.419935, -0.0641198l 0.419935, -0.0641198l 0.419935, -0.0641198l
 0.419935, -0.0641198l 0.419935, -0.0641198l 0.419935, -0.0641198l 0.419935, -0.0641198l 0.419935, -0.0641198l 0.419935, -0.0641198l 0.419935, -0.0641198l 0.419935, -0.0641198l 0.419935, -0.0641198l 0.419935, -0.0641198l 0.419935, -0.0641198l
 0.419935, -0.0641198l 0.419935, -0.0641198l 0.419935, -0.0641198l 0.419935, -0.0641198l 0.419935, -0.0641198l 0.419935, -0.0641198l 0.419935, -0.0641198l 0.419935, -0.0641198l 0.419935, -0.0641198l 0.419935, -0.0641198l 0.419935, -0.0641198l
 0.419935, -0.0641198l 0.419935, -0.0641198l 0.419935, -0.0641198l 0.419935, -0.0641198l 0.419935, -0.0641198l 0.419935, -0.0641198l 0.419935, -0.0641198l 0.419935, -0.0641198l 0.419935, -0.0641198l 0.419935, -0.0641198l 0.419935, -0.0641198l
 0.419935, -0.0641198l 0.419935, -0.0641198l 0.419935, -0.0641198l 0.419935, -0.0641198l 0.419935, -0.0641198l 0.419935, -0.0641198" fill="none" stroke="#33cccc" stroke-width="3"/>
<path d="M396.23,347.265l 0.419935, -0.0641198l 0.419935, -0.0641198l 0.419935, -0.0641198l 0.419935, -0.0641198l 0.419935, -0.0641198l 0.419935, -0.0641198l 0.419935, -0.0641198l 0.419935, -0.0641198l 0.419935, -0.0641198l 0.419935, -0.0641198l
 0.419935, -0.0641198l 0.419935, -0.0641198l 0.419935, -0.0641198l 0.419935, -0.0641198l 0.419935, -0.0641198l 0.419935, -0.0641198l 0.419935, -0.0641198l 0.419935, -0.0641198l 0.419935, -0.0641198l 0.419935, -0.0641198l 0.419935, -0.0641198l
 0.419935, -0.0641198l 0.419935, -0.0641198l 0.419935, -0.0641198l 0.419935, -0.0641198l 0.419935, -0.0641198l 0.419935, -0.0641198l 0.419935, -0.0641198l 0.419935, -0.0641198l 0.419935, -0.0641198l 0.419935, -0.0641198l 0.419935, -0.0641198l
 0.419935, -0.0641198l 0.419935, -0.0641198l 0.419935, -0.0641198l 0.419935, -0.0641198l 0.419935, -0.0641198l 0.419935, -0.0641198l 0.419935, -0.0641198l 0.419935, -0.0641198l 0.419935, -0.0641198l 0.419935, -0.0641198l 0.419935, -0.0641198l
 0.419935, -0.0641198l 0.419935, -0.0641198l 0.419935, -0.0641198l 0.419935, -0.0641198l 0.419935, -0.0641198l 0.419935, -0.0641198" fill="none" stroke="#33cccc" stroke-width="3"/>
<path d="M416.807,344.123l 0.419935, -0.0641198l 0.419935, -0.0641198l 0.419935, -0.0641198l 0.419935, -0.0641198l 0.419935, -0.0641198l 0.419935, -0.0641198l 0.419935, -0.0641198l 0.419935, -0.0641198l 0.419935, -0.0641198l 0.419935, -0.0641198l
 0.419935, -0.0641198l 0.419935, -0.0641198l 0.419935, -0.0641198l 0.419935, -0.0641198l 0.419935, -0.0641198l 0.419935, -0.0641198l 0.419935, -0.0641198l 0.419935, -0.0641198l 0.419935, -0.0641198l 0.419935, -0.0641198l 0.419935, -0.0641198l
 0.419935, -0.0641198l 0.419935, -0.0641198l 0.419935, -0.0641198l 0.419935, -0.0641198l 0.419935, -0.0641198l 0.419935, -0.0641198l 0.419935, -0.0641198l 0.419935, -0.0641198l 0.419935, -0.0641198l 0.419935, -0.0641198l 0.419935, -0.0641198l
 0.419935, -0.0641198l 0.419935, -0.0641198l 0.419935, -0.0641198l 0.419935, -0.0641198l 0.419935, -0.0641198l 0.419935, -0.0641198l 0.419935, -0.0641198l 0.419935, -0.0641198l 0.419935, -0.0641198l 0.419935, -0.0641198l 0.419935, -0.0641198l
 0.419935, -0.0641198l 0.419935, -0.0641198l 0.419935, -0.0641198l 0.419935, -0.0641198l 0.419935, -0.0641198l 0.419935, -0.0641198" fill="none" stroke="#33cccc" stroke-width="3"/>
<path d="M437.384,340.981l 0.419935, -0.0641198l 0.419935, -0.0641198l 0.419935, -0.0641198l 0.419935, -0.0641198l 0.419935, -0.0641198l 0.419935, -0.0641198l 0.419935, -0.0641198l 0.419935, -0.0641198l 0.419935, -0.0641198l 0.419935, -0.0641198l
 0.419935, -0.0641198l 0.419935, -0.0641198l 0.419935, -0.0641198l 0.419935, -0.0641198l 0.419935, -0.0641198l 0.419935, -0.0641198l 0.419935, -0.0641198l 0.419935, -0.0641198l 0.419935, -0.0641198l 0.419935, -0.0641198l 0.419935, -0.0641198l
 0.419935, -0.0641198l 0.419935, -0.0641198l 0.419935, -0.0641198l 0.419935, -0.0641198l 0.419935, -0.0641198l 0.419935, -0.0641198l 0.419935, -0.0641198l 0.419935, -0.0641198l 0.419935, -0.0641198l 0.419935, -0.0641198l 0.419935, -0.0641198l
 0.419935, -0.0641198l 0.419935, -0.0641198l 0.419935, -0.0641198l 0.419935, -0.0641198l 0.419935, -0.0641198l 0.419935, -0.0641198l 0.419935, -0.0641198l 0.419935, -0.0641198l 0.419935, -0.0641198l 0.419935, -0.0641198l 0.419935, -0.0641198l
 0.419935, -0.0641198l 0.419935, -0.0641198l 0.419935, -0.0641198l 0.419935, -0.0641198l 0.419935, -0.0641198l 0.419935, -0.0641198" fill="none" stroke="#33cccc" stroke-width="3"/>
<path d="M457.961,337.839l 0.419935, -0.0641198l 0.419935, -0.0641198l 0.419935, -0.0641198l 0.419935, -0.0641198l 0.419935, -0.0641198l 0.419935, -0.0641198l 0.419935, -0.0641198l 0.419935, -0.0641198l 0.419935, -0.0641198l 0.419935, -0.0641198l
 0.419935, -0.0641198l 0.419935, -0.0641198l 0.419935, -0.0641198l 0.419935, -0.0641198l 0.419935, -0.0641198l 0.419935, -0.0641198l 0.419935, -0.0641198l 0.419935, -0.0641198l 0.419935, -0.0641198l 0.419935, -0.0641198l 0.419935, -0.0641198l
 0.419935, -0.0641198l 0.419935, -0.0641198l 0.419935, -0.0641198l 0.419935, -0.0641198l 0.419935, -0.0641198l 0.419935, -0.0641198l 0.419935, -0.0641198l 0.419935, -0.0641198l 0.419935, -0.0641198l 0.419935, -0.0641198l 0.419935, -0.0641198l
 0.419935, -0.0641198l 0.419935, -0.0641198l 0.419935, -0.0641198l 0.419935, -0.0641198l 0.419935, -0.0641198l 0.419935, -0.0641198l 0.419935, -0.0641198l 0.419935, -0.0641198l 0.419935, -0.0641198l 0.419935, -0.0641198l 0.419935, -0.0641198l
 0.419935, -0.0641198l 0.419935, -0.0641198l 0.419935, -0.0641198l 0.419935, -0.0641198l 0.419935, -0.0641198l 0.419935, -0.0641198" fill="none" stroke="#33cccc" stroke-width="3"/>
<path d="M478.538,334.697l 0.419935, -0.0641198l 0.419935, -0.0641198l 0.419935, -0.0641198l 0.419935, -0.0641198l 0.419935, -0.0641198l 0.419935, -0.0641198l 0.419935, -0.0641198l 0.419935, -0.0641198l 0.419935, -0.0641198l 0.419935, -0.0641198l
 0.419935, -0.0641198l 0.419935, -0.0641198l 0.419935, -0.0641198l 0.419935, -0.0641198l 0.419935, -0.0641198l 0.419935, -0.0641198l 0.419935, -0.0641198l 0.419935, -0.0641198l 0.419935, -0.0641198l 0.419935, -0.0641198l 0.419935, -0.0641198l
 0.419935, -0.0641198l 0.419935, -0.0641198l 0.419935, -0.0641198l 0.419935, -0.0641198l 0.419935, -0.0641198l 0.419935, -0.0641198l 0.419935, -0.0641198l 0.419935, -0.0641198l 0.419935, -0.0641198l 0.419935, -0.0641198l 0.419935, -0.0641198l
 0.419935, -0.0641198l 0.419935, -0.0641198l 0.419935, -0.0641198l 0.419935, -0.0641198l 0.419935, -0.0641198l 0.419935, -0.0641198l 0.419935, -0.0641198l 0.419935, -0.0641198l 0.419935, -0.0641198l 0.419935, -0.0641198l 0.419935, -0.0641198l
 0.419935, -0.0641198l 0.419935, -0.0641198l 0.419935, -0.0641198l 0.419935, -0.0641198l 0.419935, -0.0641198l 0.419935, -0.0641198" fill="none" stroke="#33cccc" stroke-width="3"/>
<path d="M499.114,331.556l 0.419935, -0.0641198l 0.419935, -0.0641198l 0.419935, -0.0641198l 0.419935, -0.0641198l 0.419935, -0.0641198l 0.419935, -0.0641198l 0.419935, -0.0641198l 0.419935, -0.0641198l 0.419935, -0.0641198l 0.419935, -0.0641198l
 0.419935, -0.0641198l 0.419935, -0.0641198l 0.419935, -0.0641198l 0.419935, -0.0641198l 0.419935, -0.0641198l 0.419935, -0.0641198l 0.419935, -0.0641198l 0.419935, -0.0641198l 0.419935, -0.0641198l 0.419935, -0.0641198l 0.419935, -0.0641198l
 0.419935, -0.0641198l 0.419935, -0.0641198l 0.419935, -0.0641198l 0.419935, -0.0641198l 0.419935, -0.0641198l 0.419935, -0.0641198l 0.419935, -0.0641198l 0.419935, -0.0641198l 0.419935, -0.0641198l 0.419935, -0.0641198l 0.419935, -0.0641198l
 0.419935, -0.0641198l 0.419935, -0.0641198l 0.419935, -0.0641198l 0.419935, -0.0641198l 0.419935, -0.0641198l 0.419935, -0.0641198l 0.419935, -0.0641198l 0.419935, -0.0641198l 0.419935, -0.0641198l 0.419935, -0.0641198l 0.419935, -0.0641198l
 0.419935, -0.0641198l 0.419935, -0.0641198l 0.419935, -0.0641198l 0.419935, -0.0641198l 0.419935, -0.0641198l 0.419935, -0.0641198" fill="none" stroke="#33cccc" stroke-width="3"/>
<path d="M519.691,328.414l 0.419935, -0.0641198l 0.419935, -0.0641198l 0.419935, -0.0641198l 0.419935, -0.0641198l 0.419935, -0.0641198l 0.419935, -0.0641198l 0.419935, -0.0641198l 0.419935, -0.0641198l 0.419935, -0.0641198l 0.419935, -0.0641198l
 0.419935, -0.0641198l 0.419935, -0.0641198l 0.419935, -0.0641198l 0.419935, -0.0641198l 0.419935, -0.0641198l 0.419935, -0.0641198l 0.419935, -0.0641198l 0.419935, -0.0641198l 0.419935, -0.0641198l 0.419935, -0.0641198l 0.419935, -0.0641198l
 0.419935, -0.0641198l 0.419935, -0.0641198l 0.419935, -0.0641198l 0.419935, -0.0641198l 0.419935, -0.0641198l 0.419935, -0.0641198l 0.419935, -0.0641198l 0.419935, -0.0641198l 0.419935, -0.0641198l 0.419935, -0.0641198l 0.419935, -0.0641198l
 0.419935, -0.0641198l 0.419935, -0.0641198l 0.419935, -0.0641198l 0.419935, -0.0641198l 0.419935, -0.0641198l 0.419935, -0.0641198l 0.419935, -0.0641198l 0.419935, -0.0641198l 0.419935, -0.0641198l 0.419935, -0.0641198l 0.419935, -0.0641198l
 0.419935, -0.0641198l 0.419935, -0.0641198l 0.419935, -0.0641198l 0.419935, -0.0641198l 0.419935, -0.0641198l 0.419935, -0.0641198" fill="none" stroke="#33cccc" stroke-width="3"/>
<path d="M540.268,325.272l 0.419935, -0.0641198l 0.419935, -0.0641198l 0.419935, -0.0641198l 0.419935, -0.0641198l 0.419935, -0.0641198l 0.419935, -0.0641198l 0.419935, -0.0641198l 0.419935, -0.0641198l 0.419935, -0.0641198l 0.419935, -0.0641198l
 0.419935, -0.0641198l 0.419935, -0.0641198l 0.419935, -0.0641198l 0.419935, -0.0641198l 0.419935, -0.0641198l 0.419935, -0.0641198l 0.419935, -0.0641198l 0.419935, -0.0641198l 0.419935, -0.0641198" fill="none" stroke="#33cccc" stroke-width="3"/>
<path d="M128.732,367.537l 0.419935, 0.0270712l 0.419935, 0.0268847l 0.419935, 0.0266982l 0.419935, 0.0265118l 0.419935, 0.0263253l 0.419935, 0.0261388l 0.419935, 0.0259523l 0.419935, 0.0257659l 0.419935, 0.0255794l 0.419935, 0.0253929l 0.419935,
 0.0252065l 0.419935, 0.02502l 0.419935, 0.0248335l 0.419935, 0.024647l 0.419935, 0.0244606l 0.419935, 0.0242741l 0.419935, 0.0240876l 0.419935, 0.0239011l 0.419935, 0.0237147l 0.419935, 0.0235282l 0.419935, 0.0233417l 0.419935, 0.0231553l 0.419935,
 0.0229688l 0.419935, 0.0227823l 0.419935, 0.0225958l 0.419935, 0.0224094l 0.419935, 0.0222229l 0.419935, 0.0220364l 0.419935, 0.02185l 0.419935, 0.0216635l 0.419935, 0.021477l 0.419935, 0.0212905l 0.419935, 0.0211041l 0.419935, 0.0209176l 0.419935,
 0.0207311l 0.419935, 0.0205446l 0.419935, 0.0203582l 0.419935, 0.0201717l 0.419935, 0.0199852l 0.419935, 0.0197988l 0.419935, 0.0196123l 0.419935, 0.0194258l 0.419935, 0.0192393l 0.419935, 0.0190529l 0.419935, 0.0188664l 0.419935, 0.0186799l
 0.419935, 0.0184934l 0.419935, 0.018307l 0.419935, 0.0181205" fill="none" stroke="#ff0066" stroke-width="3"/>
<path d="M149.309,368.644l 0.419935, 0.017934l 0.419935, 0.0177476l 0.419935, 0.0175611l 0.419935, 0.0173746l 0.419935, 0.0171881l 0.419935, 0.0170017l 0.419935, 0.0168152l 0.419935, 0.0166287l 0.419935, 0.0164423l 0.419935, 0.0162558l 0.419935,
 0.0160693l 0.419935, 0.0158828l 0.419935, 0.0156964l 0.419935, 0.0155099l 0.419935, 0.0153234l 0.419935, 0.0151369l 0.419935, 0.0149505l 0.419935, 0.014764l 0.419935, 0.0145775l 0.419935, 0.0143911l 0.419935, 0.0142046l 0.419935, 0.0140181l
 0.419935, 0.0138316l 0.419935, 0.0136452l 0.419935, 0.0134587l 0.419935, 0.0132722l 0.419935, 0.0130857l 0.419935, 0.0128993l 0.419935, 0.0127128l 0.419935, 0.0125263l 0.419935, 0.0123399l 0.419935, 0.0121534l 0.419935, 0.0119669l 0.419935,
 0.0117804l 0.419935, 0.011594l 0.419935, 0.0114075l 0.419935, 0.011221l 0.419935, 0.0110345l 0.419935, 0.0108481l 0.419935, 0.0106616l 0.419935, 0.0104751l 0.419935, 0.0102887l 0.419935, 0.0101022l 0.419935, 0.00991571l 0.419935, 0.00972924l
 0.419935, 0.00954277l 0.419935, 0.0093563l 0.419935, 0.00916982l 0.419935, 0.00898335" fill="none" stroke="#ff0066" stroke-width="3"/>
<path d="M169.886,369.304l 0.419935, 0.00879688l 0.419935, 0.00861041l 0.419935, 0.00842393l 0.419935, 0.00823746l 0.419935, 0.00805099l 0.419935, 0.00786452l 0.419935, 0.00767804l 0.419935, 0.00749157l 0.419935, 0.0073051l 0.419935, 0.00711863l
 0.419935, 0.00693215l 0.419935, 0.00674568l 0.419935, 0.00655921l 0.419935, 0.00637274l 0.419935, 0.00618626l 0.419935, 0.00599979l 0.419935, 0.00581332l 0.419935, 0.00562685l 0.419935, 0.00544037l 0.419935, 0.0052539l 0.419935, 0.00506743l
 0.419935, 0.00488096l 0.419935, 0.00469448l 0.419935, 0.00450801l 0.419935, 0.00432154l 0.419935, 0.00413507l 0.419935, 0.00394859l 0.419935, 0.00376212l 0.419935, 0.00357565l 0.419935, 0.00338918l 0.419935, 0.0032027l 0.419935, 0.00301623l
 0.419935, 0.00282976l 0.419935, 0.00264329l 0.419935, 0.00245681l 0.419935, 0.00227034l 0.419935, 0.00208387l 0.419935, 0.0018974l 0.419935, 0.00171092l 0.419935, 0.00152445l 0.419935, 0.00133798l 0.419935, 0.00115151l 0.419935, 0.000965033l
 0.419935, 0.000778561l 0.419935, 0.000592088l 0.419935, 0.000405616l 0.419935, 0.000219143l 0.419935, 3.26707e-05l 0.419935, -0.000153802" fill="none" stroke="#ff0066" stroke-width="3"/>
<path d="M190.462,369.516l 0.419935, -0.000340274l 0.419935, -0.000526747l 0.419935, -0.000713219l 0.419935, -0.000899692l 0.419935, -0.00108616l 0.419935, -0.00127264l 0.419935, -0.00145911l 0.419935, -0.00164558l 0.419935, -0.00183205l 0.419935,
 -0.00201853l 0.419935, -0.002205l 0.419935, -0.00239147l 0.419935, -0.00257794l 0.419935, -0.00276442l 0.419935, -0.00295089l 0.419935, -0.00313736l 0.419935, -0.00332383l 0.419935, -0.00351031l 0.419935, -0.00369678l 0.419935, -0.00388325l
 0.419935, -0.00406972l 0.419935, -0.0042562l 0.419935, -0.00444267l 0.419935, -0.00462914l 0.419935, -0.00481561l 0.419935, -0.00500209l 0.419935, -0.00518856l 0.419935, -0.00537503l 0.419935, -0.0055615l 0.419935, -0.00574798l 0.419935,
 -0.00593445l 0.419935, -0.00612092l 0.419935, -0.00630739l 0.419935, -0.00649387l 0.419935, -0.00668034l 0.419935, -0.00686681l 0.419935, -0.00705328l 0.419935, -0.00723976l 0.419935, -0.00742623l 0.419935, -0.0076127l 0.419935, -0.00779917l
 0.419935, -0.00798565l 0.419935, -0.00817212l 0.419935, -0.00835859l 0.419935, -0.00854506l 0.419935, -0.00873154l 0.419935, -0.00891801l 0.419935, -0.00910448l 0.419935, -0.00929095" fill="none" stroke="#ff0066" stroke-width="3"/>
<path d="M211.039,369.28l 0.419935, -0.00947743l 0.419935, -0.0096639l 0.419935, -0.00985037l 0.419935, -0.0100368l 0.419935, -0.0102233l 0.419935, -0.0104098l 0.419935, -0.0105963l 0.419935, -0.0107827l 0.419935, -0.0109692l 0.419935, -0.0111557l
 0.419935, -0.0113422l 0.419935, -0.0115286l 0.419935, -0.0117151l 0.419935, -0.0119016l 0.419935, -0.012088l 0.419935, -0.0122745l 0.419935, -0.012461l 0.419935, -0.0126475l 0.419935, -0.0128339l 0.419935, -0.0130204l 0.419935, -0.0132069l 0.419935,
 -0.0133933l 0.419935, -0.0135798l 0.419935, -0.0137663l 0.419935, -0.0139528l 0.419935, -0.0141392l 0.419935, -0.0143257l 0.419935, -0.0145122l 0.419935, -0.0146987l 0.419935, -0.0148851l 0.419935, -0.0150716l 0.419935, -0.0152581l 0.419935,
 -0.0154445l 0.419935, -0.015631l 0.419935, -0.0158175l 0.419935, -0.016004l 0.419935, -0.0161904l 0.419935, -0.0163769l 0.419935, -0.0165634l 0.419935, -0.0167499l 0.419935, -0.0169363l 0.419935, -0.0171228l 0.419935, -0.0173093l 0.419935,
 -0.0174957l 0.419935, -0.0176822l 0.419935, -0.0178687l 0.419935, -0.0180552l 0.419935, -0.0182416l 0.419935, -0.0184281" fill="none" stroke="#ff0066" stroke-width="3"/>
<path d="M231.616,368.596l 0.419935, -0.0186146l 0.419935, -0.0188011l 0.419935, -0.0189875l 0.419935, -0.019174l 0.419935, -0.0193605l 0.419935, -0.0195469l 0.419935, -0.0197334l 0.419935, -0.0199199l 0.419935, -0.0201064l 0.419935, -0.0202928l
 0.419935, -0.0204793l 0.419935, -0.0206658l 0.419935, -0.0208522l 0.419935, -0.0210387l 0.419935, -0.0212252l 0.419935, -0.0214117l 0.419935, -0.0215981l 0.419935, -0.0217846l 0.419935, -0.0219711l 0.419935, -0.0221576l 0.419935, -0.022344l
 0.419935, -0.0225305l 0.419935, -0.022717l 0.419935, -0.0229034l 0.419935, -0.0230899l 0.419935, -0.0232764l 0.419935, -0.0234629l 0.419935, -0.0236493l 0.419935, -0.0238358l 0.419935, -0.0240223l 0.419935, -0.0242088l 0.419935, -0.0243952l
 0.419935, -0.0245817l 0.419935, -0.0247682l 0.419935, -0.0249546l 0.419935, -0.0251411l 0.419935, -0.0253276l 0.419935, -0.0255141l 0.419935, -0.0257005l 0.419935, -0.025887l 0.419935, -0.0260735l 0.419935, -0.02626l 0.419935, -0.0264464l 0.419935,
 -0.0266329l 0.419935, -0.0268194l 0.419935, -0.0270058l 0.419935, -0.0271923l 0.419935, -0.0273788l 0.419935, -0.0275653" fill="none" stroke="#ff0066" stroke-width="3"/>
<path d="M252.193,367.464l 0.419935, -0.0277517l 0.419935, -0.0279382l 0.419935, -0.0281247l 0.419935, -0.0283111l 0.419935, -0.0284976l 0.419935, -0.0286841l 0.419935, -0.0288706l 0.419935, -0.029057l 0.419935, -0.0292435l 0.419935, -0.02943l
 0.419935, -0.0296165l 0.419935, -0.0298029l 0.419935, -0.0299894l 0.419935, -0.0301759l 0.419935, -0.0303623l 0.419935, -0.0305488l 0.419935, -0.0307353l 0.419935, -0.0309218l 0.419935, -0.0311082l 0.419935, -0.0312947l 0.419935, -0.0314812l
 0.419935, -0.0316677l 0.419935, -0.0318541l 0.419935, -0.0320406l 0.419935, -0.0322271l 0.419935, -0.0324135l 0.419935, -0.0326l 0.419935, -0.0327865l 0.419935, -0.032973l 0.419935, -0.0331594l 0.419935, -0.0333459l 0.419935, -0.0335324l 0.419935,
 -0.0337189l 0.419935, -0.0339053l 0.419935, -0.0340918l 0.419935, -0.0342783l 0.419935, -0.0344647l 0.419935, -0.0346512l 0.419935, -0.0348377l 0.419935, -0.0350242l 0.419935, -0.0352106l 0.419935, -0.0353971l 0.419935, -0.0355836l 0.419935,
 -0.03577l 0.419935, -0.0359565l 0.419935, -0.036143l 0.419935, -0.0363295l 0.419935, -0.0365159l 0.419935, -0.0367024" fill="none" stroke="#ff0066" stroke-width="3"/>
<path d="M272.77,365.885l 0.419935, -0.0368889l 0.419935, -0.0370754l 0.419935, -0.0372618l 0.419935, -0.0374483l 0.419935, -0.0376348l 0.419935, -0.0378212l 0.419935, -0.0380077l 0.419935, -0.0381942l 0.419935, -0.0383807l 0.419935, -0.0385671l
 0.419935, -0.0387536l 0.419935, -0.0389401l 0.419935, -0.0391266l 0.419935, -0.039313l 0.419935, -0.0394995l 0.419935, -0.039686l 0.419935, -0.0398724l 0.419935, -0.0400589l 0.419935, -0.0402454l 0.419935, -0.0404319l 0.419935, -0.0406183l 0.419935,
 -0.0408048l 0.419935, -0.0409913l 0.419935, -0.0411777l 0.419935, -0.0413642l 0.419935, -0.0415507l 0.419935, -0.0417372l 0.419935, -0.0419236l 0.419935, -0.0421101l 0.419935, -0.0422966l 0.419935, -0.0424831l 0.419935, -0.0426695l 0.419935,
 -0.042856l 0.419935, -0.0430425l 0.419935, -0.0432289l 0.419935, -0.0434154l 0.419935, -0.0436019l 0.419935, -0.0437884l 0.419935, -0.0439748l 0.419935, -0.0441613l 0.419935, -0.0443478l 0.419935, -0.0445343l 0.419935, -0.0447207l 0.419935,
 -0.0449072l 0.419935, -0.0450937l 0.419935, -0.0452801l 0.419935, -0.0454666l 0.419935, -0.0456531l 0.419935, -0.0458396" fill="none" stroke="#ff0066" stroke-width="3"/>
<path d="M293.346,363.858l 0.419935, -0.046026l 0.419935, -0.0462125l 0.419935, -0.046399l 0.419935, -0.0465855l 0.419935, -0.0467719l 0.419935, -0.0469584l 0.419935, -0.0471449l 0.419935, -0.0473313l 0.419935, -0.0475178l 0.419935, -0.0477043l
 0.419935, -0.0478908l 0.419935, -0.0480772l 0.419935, -0.0482637l 0.419935, -0.0484502l 0.419935, -0.0486366l 0.419935, -0.0488231l 0.419935, -0.0490096l 0.419935, -0.0491961l 0.419935, -0.0493825l 0.419935, -0.049569l 0.419935, -0.0497555l
 0.419935, -0.049942l 0.419935, -0.0501284l 0.419935, -0.0503149l 0.419935, -0.0505014l 0.419935, -0.0506878l 0.419935, -0.0508743l 0.419935, -0.0510608l 0.419935, -0.0512473l 0.419935, -0.0514337l 0.419935, -0.0516202l 0.419935, -0.0518067l
 0.419935, -0.0519932l 0.419935, -0.0521796l 0.419935, -0.0523661l 0.419935, -0.0525526l 0.419935, -0.052739l 0.419935, -0.0529255l 0.419935, -0.053112l 0.419935, -0.0532985l 0.419935, -0.0534849l 0.419935, -0.0536714l 0.419935, -0.0538579l 0.419935,
 -0.0540444l 0.419935, -0.0542308l 0.419935, -0.0544173l 0.419935, -0.0546038l 0.419935, -0.0547902l 0.419935, -0.0549767" fill="none" stroke="#ff0066" stroke-width="3"/>
<path d="M313.923,361.384l 0.419935, -0.0551632l 0.419935, -0.0553497l 0.419935, -0.0555361l 0.419935, -0.0557226l 0.419935, -0.0559091l 0.419935, -0.0560955l 0.419935, -0.056282l 0.419935, -0.0564685l 0.419935, -0.056655l 0.419935, -0.0568414l
 0.419935, -0.0570279l 0.419935, -0.0572144l 0.419935, -0.0574009l 0.419935, -0.0575873l 0.419935, -0.0577738l 0.419935, -0.0579603l 0.419935, -0.0581467l 0.419935, -0.0583332l 0.419935, -0.0585197l 0.419935, -0.0587062l 0.419935, -0.0588926l
 0.419935, -0.0590791l 0.419935, -0.0592656l 0.419935, -0.0594521l 0.419935, -0.0596385l 0.419935, -0.059825l 0.419935, -0.0600115l 0.419935, -0.0601979l 0.419935, -0.0603844l 0.419935, -0.0605709l 0.419935, -0.0607574l 0.419935, -0.0609438l
 0.419935, -0.0611303l 0.419935, -0.0613168l 0.419935, -0.0615033l 0.419935, -0.0616897l 0.419935, -0.0618762l 0.419935, -0.0620627l 0.419935, -0.0622491l 0.419935, -0.0624356l 0.419935, -0.0626221l 0.419935, -0.0628086l 0.419935, -0.062995l
 0.419935, -0.0631815l 0.419935, -0.063368l 0.419935, -0.0635545l 0.419935, -0.0637409l 0.419935, -0.0639274l 0.419935, -0.0641139" fill="none" stroke="#ff0066" stroke-width="3"/>
<path d="M334.5,358.462l 0.419935, -0.0643003l 0.419935, -0.0644868l 0.419935, -0.0646733l 0.419935, -0.0648598l 0.419935, -0.0650462l 0.419935, -0.0652327l 0.419935, -0.0654192l 0.419935, -0.0656056l 0.419935, -0.0657921l 0.419935, -0.0659786l
 0.419935, -0.0661651l 0.419935, -0.0663515l 0.419935, -0.066538l 0.419935, -0.0667245l 0.419935, -0.066911l 0.419935, -0.0670974l 0.419935, -0.0672839l 0.419935, -0.0674704l 0.419935, -0.0676568l 0.419935, -0.0678433l 0.419935, -0.0680298l 0.419935,
 -0.0682163l 0.419935, -0.0684027l 0.419935, -0.0685892l 0.419935, -0.0687757l 0.419935, -0.0689621l 0.419935, -0.0691486l 0.419935, -0.0693351l 0.419935, -0.0695216l 0.419935, -0.069708l 0.419935, -0.0698945l 0.419935, -0.070081l 0.419935,
 -0.0702675l 0.419935, -0.0704539l 0.419935, -0.0706404l 0.419935, -0.0708269l 0.419935, -0.0710133l 0.419935, -0.0711998l 0.419935, -0.0713863l 0.419935, -0.0715728l 0.419935, -0.0717592l 0.419935, -0.0719457l 0.419935, -0.0721322l 0.419935,
 -0.0723187l 0.419935, -0.0725051l 0.419935, -0.0726916l 0.419935, -0.0728781l 0.419935, -0.0730645l 0.419935, -0.073251" fill="none" stroke="#ff0066" stroke-width="3"/>
<path d="M355.077,355.092l 0.419935, -0.0734375l 0.419935, -0.073624l 0.419935, -0.0738104l 0.419935, -0.0739969l 0.419935, -0.0741834l 0.419935, -0.0743699l 0.419935, -0.0745563l 0.419935, -0.0747428l 0.419935, -0.0749293l 0.419935, -0.0751157l
 0.419935, -0.0753022l 0.419935, -0.0754887l 0.419935, -0.0756752l 0.419935, -0.0758616l 0.419935, -0.0760481l 0.419935, -0.0762346l 0.419935, -0.0764211l 0.419935, -0.0766075l 0.419935, -0.076794l 0.419935, -0.0769805l 0.419935, -0.0771669l
 0.419935, -0.0773534l 0.419935, -0.0775399l 0.419935, -0.0777264l 0.419935, -0.0779128l 0.419935, -0.0780993l 0.419935, -0.0782858l 0.419935, -0.0784722l 0.419935, -0.0786587l 0.419935, -0.0788452l 0.419935, -0.0790317l 0.419935, -0.0792181l
 0.419935, -0.0794046l 0.419935, -0.0795911l 0.419935, -0.0797776l 0.419935, -0.079964l 0.419935, -0.0801505l 0.419935, -0.080337l 0.419935, -0.0805234l 0.419935, -0.0807099l 0.419935, -0.0808964l 0.419935, -0.0810829l 0.419935, -0.0812693l 0.419935,
 -0.0814558l 0.419935, -0.0816423l 0.419935, -0.0818288l 0.419935, -0.0820152l 0.419935, -0.0822017l 0.419935, -0.0823882" fill="none" stroke="#ff0066" stroke-width="3"/>
<path d="M375.654,351.274l 0.419935, -0.0825746l 0.419935, -0.0827611l 0.419935, -0.0829476l 0.419935, -0.0831341l 0.419935, -0.0833205l 0.419935, -0.083507l 0.419935, -0.0836935l 0.419935, -0.0838799l 0.419935, -0.0840664l 0.419935, -0.0842529l
 0.419935, -0.0844394l 0.419935, -0.0846258l 0.419935, -0.0848123l 0.419935, -0.0849988l 0.419935, -0.0851853l 0.419935, -0.0853717l 0.419935, -0.0855582l 0.419935, -0.0857447l 0.419935, -0.0859311l 0.419935, -0.0861176l 0.419935, -0.0863041l
 0.419935, -0.0864906l 0.419935, -0.086677l 0.419935, -0.0868635l 0.419935, -0.08705l 0.419935, -0.0872365l 0.419935, -0.0874229l 0.419935, -0.0876094l 0.419935, -0.0877959l 0.419935, -0.0879823l 0.419935, -0.0881688l 0.419935, -0.0883553l 0.419935,
 -0.0885418l 0.419935, -0.0887282l 0.419935, -0.0889147l 0.419935, -0.0891012l 0.419935, -0.0892877l 0.419935, -0.0894741l 0.419935, -0.0896606l 0.419935, -0.0898471l 0.419935, -0.0900335l 0.419935, -0.09022l 0.419935, -0.0904065l 0.419935,
 -0.090593l 0.419935, -0.0907794l 0.419935, -0.0909659l 0.419935, -0.0911524l 0.419935, -0.0913389l 0.419935, -0.0915253" fill="none" stroke="#ff0066" stroke-width="3"/>
<path d="M396.23,347.008l 0.419935, -0.0917118l 0.419935, -0.0918983l 0.419935, -0.0920847l 0.419935, -0.0922712l 0.419935, -0.0924577l 0.419935, -0.0926442l 0.419935, -0.0928306l 0.419935, -0.0930171l 0.419935, -0.0932036l 0.419935, -0.09339l
 0.419935, -0.0935765l 0.419935, -0.093763l 0.419935, -0.0939495l 0.419935, -0.0941359l 0.419935, -0.0943224l 0.419935, -0.0945089l 0.419935, -0.0946954l 0.419935, -0.0948818l 0.419935, -0.0950683l 0.419935, -0.0952548l 0.419935, -0.0954412l
 0.419935, -0.0956277l 0.419935, -0.0958142l 0.419935, -0.0960007l 0.419935, -0.0961871l 0.419935, -0.0963736l 0.419935, -0.0965601l 0.419935, -0.0967465l 0.419935, -0.096933l 0.419935, -0.0971195l 0.419935, -0.097306l 0.419935, -0.0974924l 0.419935,
 -0.0976789l 0.419935, -0.0978654l 0.419935, -0.0980519l 0.419935, -0.0982383l 0.419935, -0.0984248l 0.419935, -0.0986113l 0.419935, -0.0987977l 0.419935, -0.0989842l 0.419935, -0.0991707l 0.419935, -0.0993572l 0.419935, -0.0995436l 0.419935,
 -0.0997301l 0.419935, -0.0999166l 0.419935, -0.100103l 0.419935, -0.10029l 0.419935, -0.100476l 0.419935, -0.100662" fill="none" stroke="#ff0066" stroke-width="3"/>
<path d="M416.807,342.295l 0.419935, -0.100849l 0.419935, -0.101035l 0.419935, -0.101222l 0.419935, -0.101408l 0.419935, -0.101595l 0.419935, -0.101781l 0.419935, -0.101968l 0.419935, -0.102154l 0.419935, -0.102341l 0.419935, -0.102527l 0.419935,
 -0.102714l 0.419935, -0.1029l 0.419935, -0.103087l 0.419935, -0.103273l 0.419935, -0.10346l 0.419935, -0.103646l 0.419935, -0.103833l 0.419935, -0.104019l 0.419935, -0.104205l 0.419935, -0.104392l 0.419935, -0.104578l 0.419935, -0.104765l 0.419935,
 -0.104951l 0.419935, -0.105138l 0.419935, -0.105324l 0.419935, -0.105511l 0.419935, -0.105697l 0.419935, -0.105884l 0.419935, -0.10607l 0.419935, -0.106257l 0.419935, -0.106443l 0.419935, -0.10663l 0.419935, -0.106816l 0.419935, -0.107003l 0.419935,
 -0.107189l 0.419935, -0.107375l 0.419935, -0.107562l 0.419935, -0.107748l 0.419935, -0.107935l 0.419935, -0.108121l 0.419935, -0.108308l 0.419935, -0.108494l 0.419935, -0.108681l 0.419935, -0.108867l 0.419935, -0.109054l 0.419935, -0.10924l
 0.419935, -0.109427l 0.419935, -0.109613l 0.419935, -0.1098" fill="none" stroke="#ff0066" stroke-width="3"/>
<path d="M437.384,337.134l 0.419935, -0.109986l 0.419935, -0.110173l 0.419935, -0.110359l 0.419935, -0.110546l 0.419935, -0.110732l 0.419935, -0.110918l 0.419935, -0.111105l 0.419935, -0.111291l 0.419935, -0.111478l 0.419935, -0.111664l 0.419935,
 -0.111851l 0.419935, -0.112037l 0.419935, -0.112224l 0.419935, -0.11241l 0.419935, -0.112597l 0.419935, -0.112783l 0.419935, -0.11297l 0.419935, -0.113156l 0.419935, -0.113343l 0.419935, -0.113529l 0.419935, -0.113716l 0.419935, -0.113902l 0.419935,
 -0.114088l 0.419935, -0.114275l 0.419935, -0.114461l 0.419935, -0.114648l 0.419935, -0.114834l 0.419935, -0.115021l 0.419935, -0.115207l 0.419935, -0.115394l 0.419935, -0.11558l 0.419935, -0.115767l 0.419935, -0.115953l 0.419935, -0.11614l 0.419935,
 -0.116326l 0.419935, -0.116513l 0.419935, -0.116699l 0.419935, -0.116886l 0.419935, -0.117072l 0.419935, -0.117259l 0.419935, -0.117445l 0.419935, -0.117631l 0.419935, -0.117818l 0.419935, -0.118004l 0.419935, -0.118191l 0.419935, -0.118377l
 0.419935, -0.118564l 0.419935, -0.11875l 0.419935, -0.118937" fill="none" stroke="#ff0066" stroke-width="3"/>
<path d="M457.961,331.526l 0.419935, -0.119123l 0.419935, -0.11931l 0.419935, -0.119496l 0.419935, -0.119683l 0.419935, -0.119869l 0.419935, -0.120056l 0.419935, -0.120242l 0.419935, -0.120429l 0.419935, -0.120615l 0.419935, -0.120802l 0.419935,
 -0.120988l 0.419935, -0.121174l 0.419935, -0.121361l 0.419935, -0.121547l 0.419935, -0.121734l 0.419935, -0.12192l 0.419935, -0.122107l 0.419935, -0.122293l 0.419935, -0.12248l 0.419935, -0.122666l 0.419935, -0.122853l 0.419935, -0.123039l 0.419935,
 -0.123226l 0.419935, -0.123412l 0.419935, -0.123599l 0.419935, -0.123785l 0.419935, -0.123972l 0.419935, -0.124158l 0.419935, -0.124344l 0.419935, -0.124531l 0.419935, -0.124717l 0.419935, -0.124904l 0.419935, -0.12509l 0.419935, -0.125277l
 0.419935, -0.125463l 0.419935, -0.12565l 0.419935, -0.125836l 0.419935, -0.126023l 0.419935, -0.126209l 0.419935, -0.126396l 0.419935, -0.126582l 0.419935, -0.126769l 0.419935, -0.126955l 0.419935, -0.127142l 0.419935, -0.127328l 0.419935,
 -0.127515l 0.419935, -0.127701l 0.419935, -0.127887l 0.419935, -0.128074" fill="none" stroke="#ff0066" stroke-width="3"/>
<path d="M478.538,325.469l 0.419935, -0.12826l 0.419935, -0.128447l 0.419935, -0.128633l 0.419935, -0.12882l 0.419935, -0.129006l 0.419935, -0.129193l 0.419935, -0.129379l 0.419935, -0.129566l 0.419935, -0.129752l 0.419935, -0.129939l 0.419935,
 -0.130125l 0.419935, -0.130312l 0.419935, -0.130498l 0.419935, -0.130685l 0.419935, -0.130871l 0.419935, -0.131057l 0.419935, -0.131244l 0.419935, -0.13143l 0.419935, -0.131617l 0.419935, -0.131803l 0.419935, -0.13199l 0.419935, -0.132176l 0.419935,
 -0.132363l 0.419935, -0.132549l 0.419935, -0.132736l 0.419935, -0.132922l 0.419935, -0.133109l 0.419935, -0.133295l 0.419935, -0.133482l 0.419935, -0.133668l 0.419935, -0.133855l 0.419935, -0.134041l 0.419935, -0.134228l 0.419935, -0.134414l
 0.419935, -0.1346l 0.419935, -0.134787l 0.419935, -0.134973l 0.419935, -0.13516l 0.419935, -0.135346l 0.419935, -0.135533l 0.419935, -0.135719l 0.419935, -0.135906l 0.419935, -0.136092l 0.419935, -0.136279l 0.419935, -0.136465l 0.419935, -0.136652l
 0.419935, -0.136838l 0.419935, -0.137025l 0.419935, -0.137211" fill="none" stroke="#ff0066" stroke-width="3"/>
<path d="M499.114,318.965l 0.419935, -0.137398l 0.419935, -0.137584l 0.419935, -0.137771l 0.419935, -0.137957l 0.419935, -0.138143l 0.419935, -0.13833l 0.419935, -0.138516l 0.419935, -0.138703l 0.419935, -0.138889l 0.419935, -0.139076l 0.419935,
 -0.139262l 0.419935, -0.139449l 0.419935, -0.139635l 0.419935, -0.139822l 0.419935, -0.140008l 0.419935, -0.140195l 0.419935, -0.140381l 0.419935, -0.140568l 0.419935, -0.140754l 0.419935, -0.140941l 0.419935, -0.141127l 0.419935, -0.141313l
 0.419935, -0.1415l 0.419935, -0.141686l 0.419935, -0.141873l 0.419935, -0.142059l 0.419935, -0.142246l 0.419935, -0.142432l 0.419935, -0.142619l 0.419935, -0.142805l 0.419935, -0.142992l 0.419935, -0.143178l 0.419935, -0.143365l 0.419935, -0.143551l
 0.419935, -0.143738l 0.419935, -0.143924l 0.419935, -0.144111l 0.419935, -0.144297l 0.419935, -0.144484l 0.419935, -0.14467l 0.419935, -0.144856l 0.419935, -0.145043l 0.419935, -0.145229l 0.419935, -0.145416l 0.419935, -0.145602l 0.419935,
 -0.145789l 0.419935, -0.145975l 0.419935, -0.146162l 0.419935, -0.146348" fill="none" stroke="#ff0066" stroke-width="3"/>
<path d="M519.691,312.014l 0.419935, -0.146535l 0.419935, -0.146721l 0.419935, -0.146908l 0.419935, -0.147094l 0.419935, -0.147281l 0.419935, -0.147467l 0.419935, -0.147654l 0.419935, -0.14784l 0.419935, -0.148026l 0.419935, -0.148213l 0.419935,
 -0.148399l 0.419935, -0.148586l 0.419935, -0.148772l 0.419935, -0.148959l 0.419935, -0.149145l 0.419935, -0.149332l 0.419935, -0.149518l 0.419935, -0.149705l 0.419935, -0.149891l 0.419935, -0.150078l 0.419935, -0.150264l 0.419935, -0.150451l
 0.419935, -0.150637l 0.419935, -0.150824l 0.419935, -0.15101l 0.419935, -0.151197l 0.419935, -0.151383l 0.419935, -0.151569l 0.419935, -0.151756l 0.419935, -0.151942l 0.419935, -0.152129l 0.419935, -0.152315l 0.419935, -0.152502l 0.419935,
 -0.152688l 0.419935, -0.152875l 0.419935, -0.153061l 0.419935, -0.153248l 0.419935, -0.153434l 0.419935, -0.153621l 0.419935, -0.153807l 0.419935, -0.153994l 0.419935, -0.15418l 0.419935, -0.154367l 0.419935, -0.154553l 0.419935, -0.154739l
 0.419935, -0.154926l 0.419935, -0.155112l 0.419935, -0.155299l 0.419935, -0.155485" fill="none" stroke="#ff0066" stroke-width="3"/>
<path d="M540.268,304.614l 0.419935, -0.155672l 0.419935, -0.155858l 0.419935, -0.156045l 0.419935, -0.156231l 0.419935, -0.156418l 0.419935, -0.156604l 0.419935, -0.156791l 0.419935, -0.156977l 0.419935, -0.157164l 0.419935, -0.15735l 0.419935,
 -0.157537l 0.419935, -0.157723l 0.419935, -0.15791l 0.419935, -0.158096l 0.419935, -0.158282l 0.419935, -0.158469l 0.419935, -0.158655l 0.419935, -0.158842l 0.419935, -0.159028" fill="none" stroke="#ff0066" stroke-width="3"/>
<path d="M248.503,21.4167h 179.972" fill="none" stroke="#999999" stroke-width="7"/>
<text xml:space="preserve" x="360.607" y="50.7193" fill="black" font-size="16.0105" font-family="Helvetica"> with EMC</text>
<text xml:space="preserve" x="352.717" y="50.7193" fill="black" font-size="16.0105" font-family="Times">&#0947;</text>
<text xml:space="preserve" x="344.828" y="50.7193" fill="black" font-size="16.0105" font-family="Times">&#0947;</text>
<text xml:space="preserve" x="336.938" y="50.7193" fill="black" font-size="16.0105" font-family="Times">&#0947;</text>
<text xml:space="preserve" x="331.866" y="50.7193" fill="black" font-size="16.0105" font-family="Helvetica"> </text>
<text xml:space="preserve" x="316.65" y="50.7193" fill="black" font-size="16.0105" font-family="Times">&#8594;</text>
<text xml:space="preserve" x="311.578" y="50.7193" fill="black" font-size="16.0105" font-family="Helvetica"> </text>
<text xml:space="preserve" x="303.689" y="50.7193" fill="black" font-size="16.0105" font-family="Times">&#0947;</text>
<text xml:space="preserve" x="298.053" y="45.0838" fill="black" font-size="10.8403" font-family="Helvetica">0</text>
<text xml:space="preserve" x="289.6" y="50.7193" fill="black" font-size="16.0105" font-family="Times">&#0960;</text>
<text xml:space="preserve" x="284.528" y="50.7193" fill="black" font-size="16.0105" font-family="Helvetica"> </text>
<text xml:space="preserve" x="269.312" y="50.7193" fill="black" font-size="16.0105" font-family="Times">&#8594;</text>
<text xml:space="preserve" x="264.24" y="50.7193" fill="black" font-size="16.0105" font-family="Helvetica"> </text>
<text xml:space="preserve" x="252.969" y="50.7193" fill="black" font-size="16.0105" font-family="Times">&#0969;</text>
<text xml:space="preserve" x="128.989" y="50.7193" fill="black" font-size="16.0105" font-family="Helvetica"> = 13 TeV (EG1), </text>
<text xml:space="preserve" x="120.536" y="50.7193" fill="black" font-size="16.0105" font-family="Helvetica" font-style="oblique">s</text>
<path d="M114.9,41.7025l 1.69064, 9.58031" fill="none" stroke="black" stroke-width="2"/>
<path d="M116.591,51.2829l 2.25419, -14.0887" fill="none" stroke="black"/>
<path d="M118.845,37.1942h 10.1439" fill="none" stroke="black"/>
<text xml:space="preserve" x="89.5406" y="50.7193" fill="black" font-size="16.0105" font-family="Helvetica">pp </text>
<text xml:space="preserve" x="89.5406" y="85.6593" fill="black" font-size="16.0105" font-family="Helvetica">ALICE work in progress</text>
<text xml:space="preserve" x="214.085" y="120.599" fill="black" font-size="16.0105" font-family="Helvetica">) &lt; 14.0</text>
<text xml:space="preserve" x="205.068" y="120.599" fill="black" font-size="16.0105" font-family="Helvetica" font-style="oblique">c</text>
<text xml:space="preserve" x="154.912" y="120.599" fill="black" font-size="16.0105" font-family="Helvetica"> /(GeV/</text>
<text xml:space="preserve" x="148.15" y="128.489" fill="black" font-size="10.8403" font-family="Helvetica">T</text>
<text xml:space="preserve" x="138.569" y="120.599" fill="black" font-size="16.0105" font-family="Helvetica" font-style="oblique">p</text>
<text xml:space="preserve" x="133.497" y="120.599" fill="black" font-size="16.0105" font-family="Helvetica"> </text>
<text xml:space="preserve" x="125.044" y="120.599" fill="black" font-size="16.0105" font-family="Times">&#8804;</text>
<text xml:space="preserve" x="89.5406" y="120.599" fill="black" font-size="16.0105" font-family="Helvetica">12.0 </text>
<rect x="312.311" y="69.1755" width="198.425" height="113.448" fill="white"/>
<text xml:space="preserve" x="361.734" y="85.0957" fill="black" font-size="16.0105" font-family="Helvetica">ratio</text>
<path d="M319.752,80.5203h 34.7244" fill="none" stroke="black" stroke-width="2"/>
<g fill="black">
<circle cx="337.114" cy="80.5203" r="6.76257"/>
</g>
<text xml:space="preserve" x="361.734" y="108.201" fill="black" font-size="16.0105" font-family="Helvetica">peak range</text>
<path d="M319.752,103.21h 34.7244" fill="none" stroke="#333333" stroke-width="2"/>
<g stroke="#333333" stroke-width="2" fill="none">
<circle cx="337.114" cy="103.21" r="5.63548"/>
</g>
<text xml:space="preserve" x="361.734" y="130.743" fill="black" font-size="16.0105" font-family="Helvetica">background pol1</text>
<path d="M319.752,125.899h 34.7244" fill="none" stroke="#33cccc" stroke-width="3"/>
<text xml:space="preserve" x="361.734" y="153.285" fill="black" font-size="16.0105" font-family="Helvetica">background pol2</text>
<path d="M319.752,148.589h 34.7244" fill="none" stroke="#ff0066" stroke-width="3"/>
<text xml:space="preserve" x="361.734" y="175.827" fill="black" font-size="16.0105" font-family="Helvetica">param. range</text>
<path d="M319.752,171.279h 34.7244" fill="none" stroke="#999999" stroke-width="7"/></svg>
