<?xml version="1.0" standalone="no"?>
<svg width="567.429" height="553.904" viewBox="0 0 567.429 553.904" xmlns="http://www.w3.org/2000/svg" shape-rendering="crispEdges">
<title>
MC/EG1/OmegaRotPS/SameEventAndBackgroundBeforeScaling_08.svg
</title>
<desc>
Creator: ROOT Version 6.20/08
CreationDate: Mon Mar 29 18:49:59 2021</desc>
<defs>
</defs>
<rect x="0.5" y="0" width="566.929" height="553.404" fill="white"/>
<rect x="57.1929" y="16.6021" width="496.063" height="481.461" fill="white"/>
<rect x="57.1929" y="16.6021" width="496.063" height="481.461" fill="none" stroke="black"/>
<rect x="57.1929" y="16.6021" width="496.063" height="481.461" fill="white"/>
<rect x="57.1929" y="16.6021" width="496.063" height="481.461" fill="none" stroke="black"/>
<g fill="#993333">
<rect x="94.4324" y="489.784" width="9.01677" height="9.01677"/>
</g>
<g fill="#993333">
<rect x="99.3439" y="461.177" width="9.01677" height="9.01677"/>
</g>
<g fill="#993333">
<rect x="104.255" y="442.064" width="9.01677" height="9.01677"/>
</g>
<g fill="#993333">
<rect x="109.167" y="451.175" width="9.01677" height="9.01677"/>
</g>
<g fill="#993333">
<rect x="114.078" y="475.203" width="9.01677" height="9.01677"/>
</g>
<g fill="#993333">
<rect x="118.99" y="479.898" width="9.01677" height="9.01677"/>
</g>
<g fill="#993333">
<rect x="123.901" y="436.729" width="9.01677" height="9.01677"/>
</g>
<g fill="#993333">
<rect x="128.813" y="404.705" width="9.01677" height="9.01677"/>
</g>
<g fill="#993333">
<rect x="133.725" y="401.696" width="9.01677" height="9.01677"/>
</g>
<g fill="#993333">
<rect x="138.636" y="388.467" width="9.01677" height="9.01677"/>
</g>
<g fill="#993333">
<rect x="143.548" y="371.674" width="9.01677" height="9.01677"/>
</g>
<g fill="#993333">
<rect x="148.459" y="356.895" width="9.01677" height="9.01677"/>
</g>
<g fill="#993333">
<rect x="153.371" y="340.837" width="9.01677" height="9.01677"/>
</g>
<g fill="#993333">
<rect x="158.282" y="326.718" width="9.01677" height="9.01677"/>
</g>
<g fill="#993333">
<rect x="163.194" y="311.013" width="9.01677" height="9.01677"/>
</g>
<g fill="#993333">
<rect x="168.105" y="300.361" width="9.01677" height="9.01677"/>
</g>
<g fill="#993333">
<rect x="173.017" y="284.565" width="9.01677" height="9.01677"/>
</g>
<g fill="#993333">
<rect x="177.928" y="274.444" width="9.01677" height="9.01677"/>
</g>
<g fill="#993333">
<rect x="182.84" y="262.644" width="9.01677" height="9.01677"/>
</g>
<g fill="#993333">
<rect x="187.751" y="255.71" width="9.01677" height="9.01677"/>
</g>
<g fill="#993333">
<rect x="192.663" y="253.082" width="9.01677" height="9.01677"/>
</g>
<g fill="#993333">
<rect x="197.574" y="245.389" width="9.01677" height="9.01677"/>
</g>
<g fill="#993333">
<rect x="202.486" y="242.691" width="9.01677" height="9.01677"/>
</g>
<g fill="#993333">
<rect x="207.397" y="238.741" width="9.01677" height="9.01677"/>
</g>
<g fill="#993333">
<rect x="212.309" y="237.051" width="9.01677" height="9.01677"/>
</g>
<g fill="#993333">
<rect x="217.22" y="232.849" width="9.01677" height="9.01677"/>
</g>
<g fill="#993333">
<rect x="222.132" y="229.768" width="9.01677" height="9.01677"/>
</g>
<g fill="#993333">
<rect x="227.043" y="227.816" width="9.01677" height="9.01677"/>
</g>
<g fill="#993333">
<rect x="231.955" y="228.63" width="9.01677" height="9.01677"/>
</g>
<g fill="#993333">
<rect x="236.866" y="226.077" width="9.01677" height="9.01677"/>
</g>
<g fill="#993333">
<rect x="241.778" y="229.151" width="9.01677" height="9.01677"/>
</g>
<g fill="#993333">
<rect x="246.689" y="229.842" width="9.01677" height="9.01677"/>
</g>
<g fill="#993333">
<rect x="251.601" y="230.665" width="9.01677" height="9.01677"/>
</g>
<g fill="#993333">
<rect x="256.512" y="234.863" width="9.01677" height="9.01677"/>
</g>
<g fill="#993333">
<rect x="261.424" y="235.458" width="9.01677" height="9.01677"/>
</g>
<g fill="#993333">
<rect x="266.335" y="238.393" width="9.01677" height="9.01677"/>
</g>
<g fill="#993333">
<rect x="271.247" y="241.529" width="9.01677" height="9.01677"/>
</g>
<g fill="#993333">
<rect x="276.158" y="244.891" width="9.01677" height="9.01677"/>
</g>
<g fill="#993333">
<rect x="281.07" y="250.452" width="9.01677" height="9.01677"/>
</g>
<g fill="#993333">
<rect x="285.981" y="253.909" width="9.01677" height="9.01677"/>
</g>
<g fill="#993333">
<rect x="290.893" y="258.949" width="9.01677" height="9.01677"/>
</g>
<g fill="#993333">
<rect x="295.805" y="262.208" width="9.01677" height="9.01677"/>
</g>
<g fill="#993333">
<rect x="300.716" y="268.648" width="9.01677" height="9.01677"/>
</g>
<g fill="#993333">
<rect x="305.628" y="271.79" width="9.01677" height="9.01677"/>
</g>
<g fill="#993333">
<rect x="310.539" y="278.442" width="9.01677" height="9.01677"/>
</g>
<g fill="#993333">
<rect x="315.451" y="282.14" width="9.01677" height="9.01677"/>
</g>
<g fill="#993333">
<rect x="320.362" y="286.556" width="9.01677" height="9.01677"/>
</g>
<g fill="#993333">
<rect x="325.274" y="292.946" width="9.01677" height="9.01677"/>
</g>
<g fill="#993333">
<rect x="330.185" y="298.989" width="9.01677" height="9.01677"/>
</g>
<g fill="#993333">
<rect x="335.097" y="303.663" width="9.01677" height="9.01677"/>
</g>
<g fill="#993333">
<rect x="340.008" y="310.77" width="9.01677" height="9.01677"/>
</g>
<g fill="#993333">
<rect x="344.92" y="313.561" width="9.01677" height="9.01677"/>
</g>
<g fill="#993333">
<rect x="349.831" y="319.821" width="9.01677" height="9.01677"/>
</g>
<g fill="#993333">
<rect x="354.743" y="323.88" width="9.01677" height="9.01677"/>
</g>
<g fill="#993333">
<rect x="359.654" y="330.066" width="9.01677" height="9.01677"/>
</g>
<g fill="#993333">
<rect x="364.566" y="334.256" width="9.01677" height="9.01677"/>
</g>
<g fill="#993333">
<rect x="369.477" y="338.958" width="9.01677" height="9.01677"/>
</g>
<g fill="#993333">
<rect x="374.389" y="344.66" width="9.01677" height="9.01677"/>
</g>
<g fill="#993333">
<rect x="379.3" y="349.283" width="9.01677" height="9.01677"/>
</g>
<g fill="#993333">
<rect x="384.212" y="352.048" width="9.01677" height="9.01677"/>
</g>
<g fill="#993333">
<rect x="389.123" y="357.945" width="9.01677" height="9.01677"/>
</g>
<g fill="#993333">
<rect x="394.035" y="361.515" width="9.01677" height="9.01677"/>
</g>
<g fill="#993333">
<rect x="398.946" y="366.383" width="9.01677" height="9.01677"/>
</g>
<g fill="#993333">
<rect x="403.858" y="371.468" width="9.01677" height="9.01677"/>
</g>
<g fill="#993333">
<rect x="408.769" y="374.515" width="9.01677" height="9.01677"/>
</g>
<g fill="#993333">
<rect x="413.681" y="377.961" width="9.01677" height="9.01677"/>
</g>
<g fill="#993333">
<rect x="418.592" y="382.317" width="9.01677" height="9.01677"/>
</g>
<g fill="#993333">
<rect x="423.504" y="385.489" width="9.01677" height="9.01677"/>
</g>
<g fill="#993333">
<rect x="428.415" y="388.74" width="9.01677" height="9.01677"/>
</g>
<g fill="#993333">
<rect x="433.327" y="392.239" width="9.01677" height="9.01677"/>
</g>
<g fill="#993333">
<rect x="438.238" y="396.023" width="9.01677" height="9.01677"/>
</g>
<g fill="#993333">
<rect x="443.15" y="399.451" width="9.01677" height="9.01677"/>
</g>
<g fill="#993333">
<rect x="448.061" y="402.439" width="9.01677" height="9.01677"/>
</g>
<g fill="#993333">
<rect x="452.973" y="404.588" width="9.01677" height="9.01677"/>
</g>
<g fill="#993333">
<rect x="457.884" y="408.351" width="9.01677" height="9.01677"/>
</g>
<g fill="#993333">
<rect x="462.796" y="411.117" width="9.01677" height="9.01677"/>
</g>
<g fill="#993333">
<rect x="467.708" y="413.66" width="9.01677" height="9.01677"/>
</g>
<g fill="#993333">
<rect x="472.619" y="416.132" width="9.01677" height="9.01677"/>
</g>
<g fill="#993333">
<rect x="477.531" y="419.36" width="9.01677" height="9.01677"/>
</g>
<g fill="#993333">
<rect x="482.442" y="421.368" width="9.01677" height="9.01677"/>
</g>
<g fill="#993333">
<rect x="487.354" y="424.182" width="9.01677" height="9.01677"/>
</g>
<g fill="#993333">
<rect x="492.265" y="426.44" width="9.01677" height="9.01677"/>
</g>
<g fill="#993333">
<rect x="497.177" y="428.212" width="9.01677" height="9.01677"/>
</g>
<g fill="#993333">
<rect x="502.088" y="430.558" width="9.01677" height="9.01677"/>
</g>
<g fill="#993333">
<rect x="507" y="431.951" width="9.01677" height="9.01677"/>
</g>
<g fill="#993333">
<rect x="511.911" y="433.99" width="9.01677" height="9.01677"/>
</g>
<g fill="#993333">
<rect x="516.823" y="435.737" width="9.01677" height="9.01677"/>
</g>
<g fill="#993333">
<rect x="521.734" y="438.44" width="9.01677" height="9.01677"/>
</g>
<g fill="#993333">
<rect x="526.646" y="438.876" width="9.01677" height="9.01677"/>
</g>
<g fill="#993333">
<rect x="531.557" y="441.568" width="9.01677" height="9.01677"/>
</g>
<g fill="#993333">
<rect x="536.469" y="442.81" width="9.01677" height="9.01677"/>
</g>
<g fill="#993333">
<rect x="541.38" y="444.188" width="9.01677" height="9.01677"/>
</g>
<path d="M57.1929,498.064h 496.063" fill="none" stroke="black"/>
<path d="M57.1929,483.537v 14.5269" fill="none" stroke="black"/>
<path d="M72.5414,490.8v 7.26343" fill="none" stroke="black"/>
<path d="M87.8899,490.8v 7.26343" fill="none" stroke="black"/>
<path d="M103.238,490.8v 7.26343" fill="none" stroke="black"/>
<path d="M118.587,483.537v 14.5269" fill="none" stroke="black"/>
<path d="M133.935,490.8v 7.26343" fill="none" stroke="black"/>
<path d="M149.284,490.8v 7.26343" fill="none" stroke="black"/>
<path d="M164.632,490.8v 7.26343" fill="none" stroke="black"/>
<path d="M179.981,483.537v 14.5269" fill="none" stroke="black"/>
<path d="M195.329,490.8v 7.26343" fill="none" stroke="black"/>
<path d="M210.678,490.8v 7.26343" fill="none" stroke="black"/>
<path d="M226.026,490.8v 7.26343" fill="none" stroke="black"/>
<path d="M241.375,483.537v 14.5269" fill="none" stroke="black"/>
<path d="M256.723,490.8v 7.26343" fill="none" stroke="black"/>
<path d="M272.072,490.8v 7.26343" fill="none" stroke="black"/>
<path d="M287.42,490.8v 7.26343" fill="none" stroke="black"/>
<path d="M302.769,483.537v 14.5269" fill="none" stroke="black"/>
<path d="M318.117,490.8v 7.26343" fill="none" stroke="black"/>
<path d="M333.466,490.8v 7.26343" fill="none" stroke="black"/>
<path d="M348.814,490.8v 7.26343" fill="none" stroke="black"/>
<path d="M364.163,483.537v 14.5269" fill="none" stroke="black"/>
<path d="M379.511,490.8v 7.26343" fill="none" stroke="black"/>
<path d="M394.86,490.8v 7.26343" fill="none" stroke="black"/>
<path d="M410.208,490.8v 7.26343" fill="none" stroke="black"/>
<path d="M425.557,483.537v 14.5269" fill="none" stroke="black"/>
<path d="M440.905,490.8v 7.26343" fill="none" stroke="black"/>
<path d="M456.253,490.8v 7.26343" fill="none" stroke="black"/>
<path d="M471.602,490.8v 7.26343" fill="none" stroke="black"/>
<path d="M486.95,483.537v 14.5269" fill="none" stroke="black"/>
<path d="M502.299,490.8v 7.26343" fill="none" stroke="black"/>
<path d="M517.647,490.8v 7.26343" fill="none" stroke="black"/>
<path d="M532.996,490.8v 7.26343" fill="none" stroke="black"/>
<path d="M548.344,483.537v 14.5269" fill="none" stroke="black"/>
<path d="M548.344,483.537v 14.5269" fill="none" stroke="black"/>
<text xml:space="preserve" x="52.3464" y="513.956" fill="black" font-size="16.0105" font-family="Helvetica">0</text>
<text xml:space="preserve" x="107.574" y="513.956" fill="black" font-size="16.0105" font-family="Helvetica">0.2</text>
<text xml:space="preserve" x="169.001" y="513.956" fill="black" font-size="16.0105" font-family="Helvetica">0.4</text>
<text xml:space="preserve" x="230.428" y="513.956" fill="black" font-size="16.0105" font-family="Helvetica">0.6</text>
<text xml:space="preserve" x="291.854" y="513.956" fill="black" font-size="16.0105" font-family="Helvetica">0.8</text>
<text xml:space="preserve" x="361.171" y="513.956" fill="black" font-size="16.0105" font-family="Helvetica">1</text>
<text xml:space="preserve" x="414.708" y="513.956" fill="black" font-size="16.0105" font-family="Helvetica">1.2</text>
<text xml:space="preserve" x="476.134" y="513.956" fill="black" font-size="16.0105" font-family="Helvetica">1.4</text>
<text xml:space="preserve" x="537.561" y="513.956" fill="black" font-size="16.0105" font-family="Helvetica">1.6</text>
<text xml:space="preserve" x="548.268" y="537.625" fill="black" font-size="16.0105" font-family="Helvetica">)</text>
<text xml:space="preserve" x="542.633" y="532.553" fill="black" font-size="10.8403" font-family="Helvetica">2</text>
<text xml:space="preserve" x="533.616" y="537.625" fill="black" font-size="16.0105" font-family="Helvetica" font-style="oblique">c</text>
<text xml:space="preserve" x="487.405" y="537.625" fill="black" font-size="16.0105" font-family="Helvetica"> (GeV/</text>
<text xml:space="preserve" x="473.317" y="542.697" fill="black" font-size="10.8403" font-family="Helvetica">inv</text>
<text xml:space="preserve" x="459.792" y="537.625" fill="black" font-size="16.0105" font-family="Helvetica" font-style="oblique">m</text>
<path d="M57.1929,16.6021h 496.063" fill="none" stroke="black"/>
<path d="M57.1929,31.129v -14.5269" fill="none" stroke="black"/>
<path d="M72.5414,23.8655v -7.26343" fill="none" stroke="black"/>
<path d="M87.8899,23.8655v -7.26343" fill="none" stroke="black"/>
<path d="M103.238,23.8655v -7.26343" fill="none" stroke="black"/>
<path d="M118.587,31.129v -14.5269" fill="none" stroke="black"/>
<path d="M133.935,23.8655v -7.26343" fill="none" stroke="black"/>
<path d="M149.284,23.8655v -7.26343" fill="none" stroke="black"/>
<path d="M164.632,23.8655v -7.26343" fill="none" stroke="black"/>
<path d="M179.981,31.129v -14.5269" fill="none" stroke="black"/>
<path d="M195.329,23.8655v -7.26343" fill="none" stroke="black"/>
<path d="M210.678,23.8655v -7.26343" fill="none" stroke="black"/>
<path d="M226.026,23.8655v -7.26343" fill="none" stroke="black"/>
<path d="M241.375,31.129v -14.5269" fill="none" stroke="black"/>
<path d="M256.723,23.8655v -7.26343" fill="none" stroke="black"/>
<path d="M272.072,23.8655v -7.26343" fill="none" stroke="black"/>
<path d="M287.42,23.8655v -7.26343" fill="none" stroke="black"/>
<path d="M302.769,31.129v -14.5269" fill="none" stroke="black"/>
<path d="M318.117,23.8655v -7.26343" fill="none" stroke="black"/>
<path d="M333.466,23.8655v -7.26343" fill="none" stroke="black"/>
<path d="M348.814,23.8655v -7.26343" fill="none" stroke="black"/>
<path d="M364.163,31.129v -14.5269" fill="none" stroke="black"/>
<path d="M379.511,23.8655v -7.26343" fill="none" stroke="black"/>
<path d="M394.86,23.8655v -7.26343" fill="none" stroke="black"/>
<path d="M410.208,23.8655v -7.26343" fill="none" stroke="black"/>
<path d="M425.557,31.129v -14.5269" fill="none" stroke="black"/>
<path d="M440.905,23.8655v -7.26343" fill="none" stroke="black"/>
<path d="M456.253,23.8655v -7.26343" fill="none" stroke="black"/>
<path d="M471.602,23.8655v -7.26343" fill="none" stroke="black"/>
<path d="M486.95,31.129v -14.5269" fill="none" stroke="black"/>
<path d="M502.299,23.8655v -7.26343" fill="none" stroke="black"/>
<path d="M517.647,23.8655v -7.26343" fill="none" stroke="black"/>
<path d="M532.996,23.8655v -7.26343" fill="none" stroke="black"/>
<path d="M548.344,31.129v -14.5269" fill="none" stroke="black"/>
<path d="M548.344,31.129v -14.5269" fill="none" stroke="black"/>
<path d="M57.1929,498.064v -481.461" fill="none" stroke="black"/>
<path d="M71.9898,498.064h -14.7969" fill="none" stroke="black"/>
<path d="M64.5913,484.859h -7.39843" fill="none" stroke="black"/>
<path d="M64.5913,471.655h -7.39843" fill="none" stroke="black"/>
<path d="M64.5913,458.451h -7.39843" fill="none" stroke="black"/>
<path d="M64.5913,445.247h -7.39843" fill="none" stroke="black"/>
<path d="M71.9898,432.043h -14.7969" fill="none" stroke="black"/>
<path d="M64.5913,418.839h -7.39843" fill="none" stroke="black"/>
<path d="M64.5913,405.634h -7.39843" fill="none" stroke="black"/>
<path d="M64.5913,392.43h -7.39843" fill="none" stroke="black"/>
<path d="M64.5913,379.226h -7.39843" fill="none" stroke="black"/>
<path d="M71.9898,366.022h -14.7969" fill="none" stroke="black"/>
<path d="M64.5913,352.818h -7.39843" fill="none" stroke="black"/>
<path d="M64.5913,339.613h -7.39843" fill="none" stroke="black"/>
<path d="M64.5913,326.409h -7.39843" fill="none" stroke="black"/>
<path d="M64.5913,313.205h -7.39843" fill="none" stroke="black"/>
<path d="M71.9898,300.001h -14.7969" fill="none" stroke="black"/>
<path d="M64.5913,286.797h -7.39843" fill="none" stroke="black"/>
<path d="M64.5913,273.593h -7.39843" fill="none" stroke="black"/>
<path d="M64.5913,260.388h -7.39843" fill="none" stroke="black"/>
<path d="M64.5913,247.184h -7.39843" fill="none" stroke="black"/>
<path d="M71.9898,233.98h -14.7969" fill="none" stroke="black"/>
<path d="M64.5913,220.776h -7.39843" fill="none" stroke="black"/>
<path d="M64.5913,207.572h -7.39843" fill="none" stroke="black"/>
<path d="M64.5913,194.368h -7.39843" fill="none" stroke="black"/>
<path d="M64.5913,181.163h -7.39843" fill="none" stroke="black"/>
<path d="M71.9898,167.959h -14.7969" fill="none" stroke="black"/>
<path d="M64.5913,154.755h -7.39843" fill="none" stroke="black"/>
<path d="M64.5913,141.551h -7.39843" fill="none" stroke="black"/>
<path d="M64.5913,128.347h -7.39843" fill="none" stroke="black"/>
<path d="M64.5913,115.143h -7.39843" fill="none" stroke="black"/>
<path d="M71.9898,101.938h -14.7969" fill="none" stroke="black"/>
<path d="M64.5913,88.7342h -7.39843" fill="none" stroke="black"/>
<path d="M64.5913,75.53h -7.39843" fill="none" stroke="black"/>
<path d="M64.5913,62.3258h -7.39843" fill="none" stroke="black"/>
<path d="M64.5913,49.1217h -7.39843" fill="none" stroke="black"/>
<path d="M71.9898,35.9175h -14.7969" fill="none" stroke="black"/>
<path d="M71.9898,35.9175h -14.7969" fill="none" stroke="black"/>
<path d="M64.5913,22.7133h -7.39843" fill="none" stroke="black"/>
<text xml:space="preserve" x="45.5838" y="503.248" fill="black" font-size="16.0105" font-family="Helvetica">0</text>
<text xml:space="preserve" x="37.1306" y="437.313" fill="black" font-size="16.0105" font-family="Helvetica">10</text>
<text xml:space="preserve" x="37.1306" y="371.378" fill="black" font-size="16.0105" font-family="Helvetica">20</text>
<text xml:space="preserve" x="37.1306" y="305.443" fill="black" font-size="16.0105" font-family="Helvetica">30</text>
<text xml:space="preserve" x="37.1306" y="239.508" fill="black" font-size="16.0105" font-family="Helvetica">40</text>
<text xml:space="preserve" x="37.1306" y="173.573" fill="black" font-size="16.0105" font-family="Helvetica">50</text>
<text xml:space="preserve" x="37.1306" y="107.074" fill="black" font-size="16.0105" font-family="Helvetica">60</text>
<text xml:space="preserve" x="37.1306" y="41.139" fill="black" font-size="16.0105" font-family="Helvetica">70</text>
<g transform="rotate(-90,22.4784,21.9784)">
<text xml:space="preserve" x="22.4784" y="21.9784" fill="black" font-size="10.8403" font-family="Times">&#0947;</text>
</g>
<g transform="rotate(-90,18.5335,25.9232)">
<text xml:space="preserve" x="18.5335" y="25.9232" fill="black" font-size="7.39355" font-family="Helvetica">0</text>
</g>
<g transform="rotate(-90,22.4784,32.1222)">
<text xml:space="preserve" x="22.4784" y="32.1222" fill="black" font-size="10.8403" font-family="Times">&#0960;</text>
</g>
<g transform="rotate(-90,17.4064,45.0838)">
<text xml:space="preserve" x="17.4064" y="45.0838" fill="black" font-size="16.0105" font-family="Helvetica" font-style="oblique">N</text>
</g>
<path d="M553.256,498.064v -481.461" fill="none" stroke="black"/>
<path d="M538.459,498.064h 14.7969" fill="none" stroke="black"/>
<path d="M545.857,484.859h 7.39843" fill="none" stroke="black"/>
<path d="M545.857,471.655h 7.39843" fill="none" stroke="black"/>
<path d="M545.857,458.451h 7.39843" fill="none" stroke="black"/>
<path d="M545.857,445.247h 7.39843" fill="none" stroke="black"/>
<path d="M538.459,432.043h 14.7969" fill="none" stroke="black"/>
<path d="M545.857,418.839h 7.39843" fill="none" stroke="black"/>
<path d="M545.857,405.634h 7.39843" fill="none" stroke="black"/>
<path d="M545.857,392.43h 7.39843" fill="none" stroke="black"/>
<path d="M545.857,379.226h 7.39843" fill="none" stroke="black"/>
<path d="M538.459,366.022h 14.7969" fill="none" stroke="black"/>
<path d="M545.857,352.818h 7.39843" fill="none" stroke="black"/>
<path d="M545.857,339.613h 7.39843" fill="none" stroke="black"/>
<path d="M545.857,326.409h 7.39843" fill="none" stroke="black"/>
<path d="M545.857,313.205h 7.39843" fill="none" stroke="black"/>
<path d="M538.459,300.001h 14.7969" fill="none" stroke="black"/>
<path d="M545.857,286.797h 7.39843" fill="none" stroke="black"/>
<path d="M545.857,273.593h 7.39843" fill="none" stroke="black"/>
<path d="M545.857,260.388h 7.39843" fill="none" stroke="black"/>
<path d="M545.857,247.184h 7.39843" fill="none" stroke="black"/>
<path d="M538.459,233.98h 14.7969" fill="none" stroke="black"/>
<path d="M545.857,220.776h 7.39843" fill="none" stroke="black"/>
<path d="M545.857,207.572h 7.39843" fill="none" stroke="black"/>
<path d="M545.857,194.368h 7.39843" fill="none" stroke="black"/>
<path d="M545.857,181.163h 7.39843" fill="none" stroke="black"/>
<path d="M538.459,167.959h 14.7969" fill="none" stroke="black"/>
<path d="M545.857,154.755h 7.39843" fill="none" stroke="black"/>
<path d="M545.857,141.551h 7.39843" fill="none" stroke="black"/>
<path d="M545.857,128.347h 7.39843" fill="none" stroke="black"/>
<path d="M545.857,115.143h 7.39843" fill="none" stroke="black"/>
<path d="M538.459,101.938h 14.7969" fill="none" stroke="black"/>
<path d="M545.857,88.7342h 7.39843" fill="none" stroke="black"/>
<path d="M545.857,75.53h 7.39843" fill="none" stroke="black"/>
<path d="M545.857,62.3258h 7.39843" fill="none" stroke="black"/>
<path d="M545.857,49.1217h 7.39843" fill="none" stroke="black"/>
<path d="M538.459,35.9175h 14.7969" fill="none" stroke="black"/>
<path d="M538.459,35.9175h 14.7969" fill="none" stroke="black"/>
<path d="M545.857,22.7133h 7.39843" fill="none" stroke="black"/>
<g fill="black">
<circle cx="103.852" cy="497.594" r="4.50838"/>
</g>
<g fill="black">
<circle cx="108.764" cy="486.997" r="4.50838"/>
</g>
<g fill="black">
<circle cx="113.675" cy="473.886" r="4.50838"/>
</g>
<g fill="black">
<circle cx="118.587" cy="484.24" r="4.50838"/>
</g>
<g fill="black">
<circle cx="123.498" cy="492.376" r="4.50838"/>
</g>
<g fill="black">
<circle cx="128.41" cy="454.662" r="4.50838"/>
</g>
<g fill="black">
<circle cx="133.321" cy="420.692" r="4.50838"/>
</g>
<g fill="black">
<circle cx="138.233" cy="423.844" r="4.50838"/>
</g>
<g fill="black">
<circle cx="143.144" cy="406.186" r="4.50838"/>
</g>
<g fill="black">
<circle cx="148.056" cy="389.52" r="4.50838"/>
</g>
<g fill="black">
<circle cx="152.967" cy="376.873" r="4.50838"/>
</g>
<g fill="black">
<circle cx="157.879" cy="367.534" r="4.50838"/>
</g>
<g fill="black">
<circle cx="162.79" cy="359.66" r="4.50838"/>
</g>
<g fill="black">
<circle cx="167.702" cy="350.606" r="4.50838"/>
</g>
<g fill="black">
<circle cx="172.614" cy="345.016" r="4.50838"/>
</g>
<g fill="black">
<circle cx="177.525" cy="341.103" r="4.50838"/>
</g>
<g fill="black">
<circle cx="182.437" cy="335.263" r="4.50838"/>
</g>
<g fill="black">
<circle cx="187.348" cy="333.316" r="4.50838"/>
</g>
<g fill="black">
<circle cx="192.26" cy="329.827" r="4.50838"/>
</g>
<g fill="black">
<circle cx="197.171" cy="327.508" r="4.50838"/>
</g>
<g fill="black">
<circle cx="202.083" cy="324.85" r="4.50838"/>
</g>
<g fill="black">
<circle cx="206.994" cy="326.351" r="4.50838"/>
</g>
<g fill="black">
<circle cx="211.906" cy="323.983" r="4.50838"/>
</g>
<g fill="black">
<circle cx="216.817" cy="320.5" r="4.50838"/>
</g>
<g fill="black">
<circle cx="221.729" cy="320.278" r="4.50838"/>
</g>
<g fill="black">
<circle cx="226.64" cy="319.995" r="4.50838"/>
</g>
<g fill="black">
<circle cx="231.552" cy="318.228" r="4.50838"/>
</g>
<g fill="black">
<circle cx="236.463" cy="315.792" r="4.50838"/>
</g>
<g fill="black">
<circle cx="241.375" cy="314.578" r="4.50838"/>
</g>
<g fill="black">
<circle cx="246.286" cy="316.516" r="4.50838"/>
</g>
<g fill="black">
<circle cx="251.198" cy="318.333" r="4.50838"/>
</g>
<g fill="black">
<circle cx="256.109" cy="319.195" r="4.50838"/>
</g>
<g fill="black">
<circle cx="261.021" cy="319.775" r="4.50838"/>
</g>
<g fill="black">
<circle cx="265.932" cy="325.427" r="4.50838"/>
</g>
<g fill="black">
<circle cx="270.844" cy="324.559" r="4.50838"/>
</g>
<g fill="black">
<circle cx="275.755" cy="327.699" r="4.50838"/>
</g>
<g fill="black">
<circle cx="280.667" cy="330.668" r="4.50838"/>
</g>
<g fill="black">
<circle cx="285.578" cy="329.385" r="4.50838"/>
</g>
<g fill="black">
<circle cx="290.49" cy="331.471" r="4.50838"/>
</g>
<g fill="black">
<circle cx="295.401" cy="333.152" r="4.50838"/>
</g>
<g fill="black">
<circle cx="300.313" cy="337.521" r="4.50838"/>
</g>
<g fill="black">
<circle cx="305.224" cy="342.384" r="4.50838"/>
</g>
<g fill="black">
<circle cx="310.136" cy="347.031" r="4.50838"/>
</g>
<g fill="black">
<circle cx="315.047" cy="352.664" r="4.50838"/>
</g>
<g fill="black">
<circle cx="319.959" cy="355.265" r="4.50838"/>
</g>
<g fill="black">
<circle cx="324.87" cy="358.113" r="4.50838"/>
</g>
<g fill="black">
<circle cx="329.782" cy="362.578" r="4.50838"/>
</g>
<g fill="black">
<circle cx="334.694" cy="365.326" r="4.50838"/>
</g>
<g fill="black">
<circle cx="339.605" cy="369.691" r="4.50838"/>
</g>
<g fill="black">
<circle cx="344.517" cy="373.126" r="4.50838"/>
</g>
<g fill="black">
<circle cx="349.428" cy="376.377" r="4.50838"/>
</g>
<g fill="black">
<circle cx="354.34" cy="380.757" r="4.50838"/>
</g>
<g fill="black">
<circle cx="359.251" cy="383.229" r="4.50838"/>
</g>
<g fill="black">
<circle cx="364.163" cy="385.455" r="4.50838"/>
</g>
<g fill="black">
<circle cx="369.074" cy="389.441" r="4.50838"/>
</g>
<g fill="black">
<circle cx="373.986" cy="391.029" r="4.50838"/>
</g>
<g fill="black">
<circle cx="378.897" cy="394.379" r="4.50838"/>
</g>
<g fill="black">
<circle cx="383.809" cy="398.28" r="4.50838"/>
</g>
<g fill="black">
<circle cx="388.72" cy="400.18" r="4.50838"/>
</g>
<g fill="black">
<circle cx="393.632" cy="404.064" r="4.50838"/>
</g>
<g fill="black">
<circle cx="398.543" cy="405.476" r="4.50838"/>
</g>
<g fill="black">
<circle cx="403.455" cy="408.219" r="4.50838"/>
</g>
<g fill="black">
<circle cx="408.366" cy="410.775" r="4.50838"/>
</g>
<g fill="black">
<circle cx="413.278" cy="414.101" r="4.50838"/>
</g>
<g fill="black">
<circle cx="418.189" cy="416.289" r="4.50838"/>
</g>
<g fill="black">
<circle cx="423.101" cy="418.666" r="4.50838"/>
</g>
<g fill="black">
<circle cx="428.012" cy="420.693" r="4.50838"/>
</g>
<g fill="black">
<circle cx="432.924" cy="422.333" r="4.50838"/>
</g>
<g fill="black">
<circle cx="437.835" cy="424.955" r="4.50838"/>
</g>
<g fill="black">
<circle cx="442.747" cy="427.045" r="4.50838"/>
</g>
<g fill="black">
<circle cx="447.658" cy="429.116" r="4.50838"/>
</g>
<g fill="black">
<circle cx="452.57" cy="432.559" r="4.50838"/>
</g>
<g fill="black">
<circle cx="457.481" cy="434.17" r="4.50838"/>
</g>
<g fill="black">
<circle cx="462.393" cy="435.986" r="4.50838"/>
</g>
<g fill="black">
<circle cx="467.304" cy="437.218" r="4.50838"/>
</g>
<g fill="black">
<circle cx="472.216" cy="439.13" r="4.50838"/>
</g>
<g fill="black">
<circle cx="477.127" cy="440.725" r="4.50838"/>
</g>
<g fill="black">
<circle cx="482.039" cy="442.202" r="4.50838"/>
</g>
<g fill="black">
<circle cx="486.95" cy="445.037" r="4.50838"/>
</g>
<g fill="black">
<circle cx="491.862" cy="445.728" r="4.50838"/>
</g>
<g fill="black">
<circle cx="496.773" cy="447.112" r="4.50838"/>
</g>
<g fill="black">
<circle cx="501.685" cy="447.563" r="4.50838"/>
</g>
<g fill="black">
<circle cx="506.597" cy="449.351" r="4.50838"/>
</g>
<g fill="black">
<circle cx="511.508" cy="450.481" r="4.50838"/>
</g>
<g fill="black">
<circle cx="516.42" cy="452.639" r="4.50838"/>
</g>
<g fill="black">
<circle cx="521.331" cy="453.481" r="4.50838"/>
</g>
<g fill="black">
<circle cx="526.243" cy="455.382" r="4.50838"/>
</g>
<g fill="black">
<circle cx="531.154" cy="455.968" r="4.50838"/>
</g>
<g fill="black">
<circle cx="536.066" cy="456.347" r="4.50838"/>
</g>
<g fill="black">
<circle cx="540.977" cy="458.619" r="4.50838"/>
</g>
<g fill="black">
<circle cx="545.889" cy="460.043" r="4.50838"/>
</g>
<text xml:space="preserve" x="360.607" y="50.7193" fill="black" font-size="16.0105" font-family="Helvetica"> with EMC</text>
<text xml:space="preserve" x="352.717" y="50.7193" fill="black" font-size="16.0105" font-family="Times">&#0947;</text>
<text xml:space="preserve" x="344.828" y="50.7193" fill="black" font-size="16.0105" font-family="Times">&#0947;</text>
<text xml:space="preserve" x="336.938" y="50.7193" fill="black" font-size="16.0105" font-family="Times">&#0947;</text>
<text xml:space="preserve" x="331.866" y="50.7193" fill="black" font-size="16.0105" font-family="Helvetica"> </text>
<text xml:space="preserve" x="316.65" y="50.7193" fill="black" font-size="16.0105" font-family="Times">&#8594;</text>
<text xml:space="preserve" x="311.578" y="50.7193" fill="black" font-size="16.0105" font-family="Helvetica"> </text>
<text xml:space="preserve" x="303.689" y="50.7193" fill="black" font-size="16.0105" font-family="Times">&#0947;</text>
<text xml:space="preserve" x="298.053" y="45.0838" fill="black" font-size="10.8403" font-family="Helvetica">0</text>
<text xml:space="preserve" x="289.6" y="50.7193" fill="black" font-size="16.0105" font-family="Times">&#0960;</text>
<text xml:space="preserve" x="284.528" y="50.7193" fill="black" font-size="16.0105" font-family="Helvetica"> </text>
<text xml:space="preserve" x="269.312" y="50.7193" fill="black" font-size="16.0105" font-family="Times">&#8594;</text>
<text xml:space="preserve" x="264.24" y="50.7193" fill="black" font-size="16.0105" font-family="Helvetica"> </text>
<text xml:space="preserve" x="252.969" y="50.7193" fill="black" font-size="16.0105" font-family="Times">&#0969;</text>
<text xml:space="preserve" x="128.989" y="50.7193" fill="black" font-size="16.0105" font-family="Helvetica"> = 13 TeV (EG1), </text>
<text xml:space="preserve" x="120.536" y="50.7193" fill="black" font-size="16.0105" font-family="Helvetica" font-style="oblique">s</text>
<path d="M114.9,41.7025l 1.69064, 9.58031" fill="none" stroke="black" stroke-width="2"/>
<path d="M116.591,51.2829l 2.25419, -14.0887" fill="none" stroke="black"/>
<path d="M118.845,37.1942h 10.1439" fill="none" stroke="black"/>
<text xml:space="preserve" x="89.5406" y="50.7193" fill="black" font-size="16.0105" font-family="Helvetica">pp </text>
<text xml:space="preserve" x="89.5406" y="85.6593" fill="black" font-size="16.0105" font-family="Helvetica">ALICE work in progress</text>
<text xml:space="preserve" x="214.085" y="120.599" fill="black" font-size="16.0105" font-family="Helvetica">) &lt; 18.0</text>
<text xml:space="preserve" x="205.068" y="120.599" fill="black" font-size="16.0105" font-family="Helvetica" font-style="oblique">c</text>
<text xml:space="preserve" x="154.912" y="120.599" fill="black" font-size="16.0105" font-family="Helvetica"> /(GeV/</text>
<text xml:space="preserve" x="148.15" y="128.489" fill="black" font-size="10.8403" font-family="Helvetica">T</text>
<text xml:space="preserve" x="138.569" y="120.599" fill="black" font-size="16.0105" font-family="Helvetica" font-style="oblique">p</text>
<text xml:space="preserve" x="133.497" y="120.599" fill="black" font-size="16.0105" font-family="Helvetica"> </text>
<text xml:space="preserve" x="125.044" y="120.599" fill="black" font-size="16.0105" font-family="Times">&#8804;</text>
<text xml:space="preserve" x="89.5406" y="120.599" fill="black" font-size="16.0105" font-family="Helvetica">16.0 </text>
<text xml:space="preserve" x="134.624" y="158.357" fill="black" font-size="16.0105" font-family="Helvetica">background</text>
<path d="M92.9803,152.186h 34.7244" fill="none" stroke="#993333" stroke-width="2"/>
<g fill="#993333">
<rect x="105.834" y="147.678" width="9.01677" height="9.01677"/>
</g>
<text xml:space="preserve" x="134.624" y="185.971" fill="black" font-size="16.0105" font-family="Helvetica">same event</text>
<path d="M92.9803,179.856h 34.7244" fill="none" stroke="black" stroke-width="2"/>
<g fill="black">
<circle cx="110.343" cy="179.856" r="4.50838"/>
</g></svg>
