<?xml version="1.0" standalone="no"?>
<svg width="567.429" height="553.904" viewBox="0 0 567.429 553.904" xmlns="http://www.w3.org/2000/svg" shape-rendering="crispEdges">
<title>
MC/EG1/OmegaTGPSPlusWOPS/Peaks_03.svg
</title>
<desc>
Creator: ROOT Version 6.20/08
CreationDate: Mon Mar 29 21:31:14 2021</desc>
<defs>
</defs>
<rect x="0.5" y="0" width="566.929" height="553.404" fill="white"/>
<rect x="57.1929" y="16.6021" width="496.063" height="481.461" fill="white"/>
<rect x="57.1929" y="16.6021" width="496.063" height="481.461" fill="none" stroke="black"/>
<rect x="57.1929" y="16.6021" width="496.063" height="481.461" fill="white"/>
<rect x="57.1929" y="16.6021" width="496.063" height="481.461" fill="none" stroke="black"/>
<g fill="black">
<circle cx="62.0563" cy="390.425" r="6.76257"/>
</g>
<g fill="black">
<circle cx="71.783" cy="391.318" r="6.76257"/>
</g>
<g fill="black">
<circle cx="81.5097" cy="401.511" r="6.76257"/>
</g>
<g fill="black">
<circle cx="91.2365" cy="390.974" r="6.76257"/>
</g>
<g fill="black">
<circle cx="100.963" cy="393.985" r="6.76257"/>
</g>
<g fill="black">
<circle cx="110.69" cy="392.954" r="6.76257"/>
</g>
<g fill="black">
<circle cx="120.417" cy="397.557" r="6.76257"/>
</g>
<g fill="black">
<circle cx="130.143" cy="398.802" r="6.76257"/>
</g>
<g fill="black">
<circle cx="139.87" cy="390.067" r="6.76257"/>
</g>
<g fill="black">
<circle cx="149.597" cy="391.978" r="6.76257"/>
</g>
<g fill="black">
<circle cx="159.324" cy="385.534" r="6.76257"/>
</g>
<g fill="black">
<circle cx="169.05" cy="386.312" r="6.76257"/>
</g>
<g fill="black">
<circle cx="178.777" cy="386.114" r="6.76257"/>
</g>
<g fill="black">
<circle cx="188.504" cy="376.788" r="6.76257"/>
</g>
<g fill="black">
<circle cx="198.23" cy="379.686" r="6.76257"/>
</g>
<g fill="black">
<circle cx="207.957" cy="376.626" r="6.76257"/>
</g>
<g fill="black">
<circle cx="217.684" cy="371.533" r="6.76257"/>
</g>
<g fill="black">
<circle cx="227.411" cy="344.358" r="6.76257"/>
</g>
<g fill="black">
<circle cx="237.137" cy="335.248" r="6.76257"/>
</g>
<g fill="black">
<circle cx="246.864" cy="316.594" r="6.76257"/>
</g>
<path d="M256.591,291.753v -1.29218" fill="none" stroke="black" stroke-width="2"/>
<path d="M256.591,276.936v -1.29218" fill="none" stroke="black" stroke-width="2"/>
<g fill="black">
<circle cx="256.591" cy="283.699" r="6.76257"/>
</g>
<path d="M266.318,268.438v -1.87855" fill="none" stroke="black" stroke-width="2"/>
<path d="M266.318,253.034v -1.87855" fill="none" stroke="black" stroke-width="2"/>
<g fill="black">
<circle cx="266.318" cy="259.797" r="6.76257"/>
</g>
<path d="M276.044,265.922v -1.82691" fill="none" stroke="black" stroke-width="2"/>
<path d="M276.044,250.57v -1.82691" fill="none" stroke="black" stroke-width="2"/>
<g fill="black">
<circle cx="276.044" cy="257.333" r="6.76257"/>
</g>
<path d="M285.771,284.112v -1.3322" fill="none" stroke="black" stroke-width="2"/>
<path d="M285.771,269.255v -1.3322" fill="none" stroke="black" stroke-width="2"/>
<g fill="black">
<circle cx="285.771" cy="276.017" r="6.76257"/>
</g>
<path d="M295.498,319.38v -0.00336829" fill="none" stroke="black" stroke-width="2"/>
<path d="M295.498,305.851v -0.00336829" fill="none" stroke="black" stroke-width="2"/>
<g fill="black">
<circle cx="295.498" cy="312.614" r="6.76257"/>
</g>
<g fill="black">
<circle cx="305.224" cy="349.376" r="6.76257"/>
</g>
<g fill="black">
<circle cx="314.951" cy="381.296" r="6.76257"/>
</g>
<g fill="black">
<circle cx="324.678" cy="387.968" r="6.76257"/>
</g>
<g fill="black">
<circle cx="334.405" cy="402.879" r="6.76257"/>
</g>
<g fill="black">
<circle cx="344.131" cy="408.531" r="6.76257"/>
</g>
<g fill="black">
<circle cx="353.858" cy="410.189" r="6.76257"/>
</g>
<g fill="black">
<circle cx="363.585" cy="410.09" r="6.76257"/>
</g>
<g fill="black">
<circle cx="373.311" cy="411.984" r="6.76257"/>
</g>
<g fill="black">
<circle cx="383.038" cy="415.153" r="6.76257"/>
</g>
<g fill="black">
<circle cx="392.765" cy="414.98" r="6.76257"/>
</g>
<g fill="black">
<circle cx="402.492" cy="415.359" r="6.76257"/>
</g>
<g fill="black">
<circle cx="412.218" cy="415.756" r="6.76257"/>
</g>
<g fill="black">
<circle cx="421.945" cy="416.698" r="6.76257"/>
</g>
<g fill="black">
<circle cx="431.672" cy="416.128" r="6.76257"/>
</g>
<g fill="black">
<circle cx="441.399" cy="417.306" r="6.76257"/>
</g>
<g fill="black">
<circle cx="451.125" cy="415.747" r="6.76257"/>
</g>
<g fill="black">
<circle cx="460.852" cy="414.834" r="6.76257"/>
</g>
<g fill="black">
<circle cx="470.579" cy="416.453" r="6.76257"/>
</g>
<g fill="black">
<circle cx="480.305" cy="416.888" r="6.76257"/>
</g>
<g fill="black">
<circle cx="490.032" cy="417.306" r="6.76257"/>
</g>
<g fill="black">
<circle cx="509.486" cy="417.384" r="6.76257"/>
</g>
<g fill="black">
<circle cx="519.212" cy="417.354" r="6.76257"/>
</g>
<path d="M57.1929,498.064h 496.063" fill="none" stroke="black"/>
<path d="M57.1929,483.537v 14.5269" fill="none" stroke="black"/>
<path d="M69.3513,490.8v 7.26343" fill="none" stroke="black"/>
<path d="M81.5097,490.8v 7.26343" fill="none" stroke="black"/>
<path d="M93.6681,490.8v 7.26343" fill="none" stroke="black"/>
<path d="M105.827,490.8v 7.26343" fill="none" stroke="black"/>
<path d="M117.985,483.537v 14.5269" fill="none" stroke="black"/>
<path d="M130.143,490.8v 7.26343" fill="none" stroke="black"/>
<path d="M142.302,490.8v 7.26343" fill="none" stroke="black"/>
<path d="M154.46,490.8v 7.26343" fill="none" stroke="black"/>
<path d="M166.619,490.8v 7.26343" fill="none" stroke="black"/>
<path d="M178.777,483.537v 14.5269" fill="none" stroke="black"/>
<path d="M190.935,490.8v 7.26343" fill="none" stroke="black"/>
<path d="M203.094,490.8v 7.26343" fill="none" stroke="black"/>
<path d="M215.252,490.8v 7.26343" fill="none" stroke="black"/>
<path d="M227.411,490.8v 7.26343" fill="none" stroke="black"/>
<path d="M239.569,483.537v 14.5269" fill="none" stroke="black"/>
<path d="M251.727,490.8v 7.26343" fill="none" stroke="black"/>
<path d="M263.886,490.8v 7.26343" fill="none" stroke="black"/>
<path d="M276.044,490.8v 7.26343" fill="none" stroke="black"/>
<path d="M288.203,490.8v 7.26343" fill="none" stroke="black"/>
<path d="M300.361,483.537v 14.5269" fill="none" stroke="black"/>
<path d="M312.519,490.8v 7.26343" fill="none" stroke="black"/>
<path d="M324.678,490.8v 7.26343" fill="none" stroke="black"/>
<path d="M336.836,490.8v 7.26343" fill="none" stroke="black"/>
<path d="M348.995,490.8v 7.26343" fill="none" stroke="black"/>
<path d="M361.153,483.537v 14.5269" fill="none" stroke="black"/>
<path d="M373.311,490.8v 7.26343" fill="none" stroke="black"/>
<path d="M385.47,490.8v 7.26343" fill="none" stroke="black"/>
<path d="M397.628,490.8v 7.26343" fill="none" stroke="black"/>
<path d="M409.787,490.8v 7.26343" fill="none" stroke="black"/>
<path d="M421.945,483.537v 14.5269" fill="none" stroke="black"/>
<path d="M434.104,490.8v 7.26343" fill="none" stroke="black"/>
<path d="M446.262,490.8v 7.26343" fill="none" stroke="black"/>
<path d="M458.42,490.8v 7.26343" fill="none" stroke="black"/>
<path d="M470.579,490.8v 7.26343" fill="none" stroke="black"/>
<path d="M482.737,483.537v 14.5269" fill="none" stroke="black"/>
<path d="M494.896,490.8v 7.26343" fill="none" stroke="black"/>
<path d="M507.054,490.8v 7.26343" fill="none" stroke="black"/>
<path d="M519.212,490.8v 7.26343" fill="none" stroke="black"/>
<path d="M531.371,490.8v 7.26343" fill="none" stroke="black"/>
<path d="M543.529,483.537v 14.5269" fill="none" stroke="black"/>
<path d="M543.529,483.537v 14.5269" fill="none" stroke="black"/>
<text xml:space="preserve" x="46.1474" y="513.956" fill="black" font-size="16.0105" font-family="Helvetica">0.4</text>
<text xml:space="preserve" x="107.011" y="513.956" fill="black" font-size="16.0105" font-family="Helvetica">0.5</text>
<text xml:space="preserve" x="167.874" y="513.956" fill="black" font-size="16.0105" font-family="Helvetica">0.6</text>
<text xml:space="preserve" x="228.737" y="513.956" fill="black" font-size="16.0105" font-family="Helvetica">0.7</text>
<text xml:space="preserve" x="289.6" y="513.956" fill="black" font-size="16.0105" font-family="Helvetica">0.8</text>
<text xml:space="preserve" x="349.9" y="513.956" fill="black" font-size="16.0105" font-family="Helvetica">0.9</text>
<text xml:space="preserve" x="418.652" y="513.956" fill="black" font-size="16.0105" font-family="Helvetica">1</text>
<text xml:space="preserve" x="472.753" y="513.956" fill="black" font-size="16.0105" font-family="Helvetica">1.1</text>
<text xml:space="preserve" x="532.489" y="513.956" fill="black" font-size="16.0105" font-family="Helvetica">1.2</text>
<text xml:space="preserve" x="548.268" y="537.625" fill="black" font-size="16.0105" font-family="Helvetica">)</text>
<text xml:space="preserve" x="542.633" y="532.553" fill="black" font-size="10.8403" font-family="Helvetica">2</text>
<text xml:space="preserve" x="533.616" y="537.625" fill="black" font-size="16.0105" font-family="Helvetica" font-style="oblique">c</text>
<text xml:space="preserve" x="487.405" y="537.625" fill="black" font-size="16.0105" font-family="Helvetica"> (GeV/</text>
<text xml:space="preserve" x="473.317" y="542.697" fill="black" font-size="10.8403" font-family="Helvetica">inv</text>
<text xml:space="preserve" x="459.792" y="537.625" fill="black" font-size="16.0105" font-family="Helvetica" font-style="oblique">m</text>
<path d="M57.1929,16.6021h 496.063" fill="none" stroke="black"/>
<path d="M57.1929,31.129v -14.5269" fill="none" stroke="black"/>
<path d="M69.3513,23.8655v -7.26343" fill="none" stroke="black"/>
<path d="M81.5097,23.8655v -7.26343" fill="none" stroke="black"/>
<path d="M93.6681,23.8655v -7.26343" fill="none" stroke="black"/>
<path d="M105.827,23.8655v -7.26343" fill="none" stroke="black"/>
<path d="M117.985,31.129v -14.5269" fill="none" stroke="black"/>
<path d="M130.143,23.8655v -7.26343" fill="none" stroke="black"/>
<path d="M142.302,23.8655v -7.26343" fill="none" stroke="black"/>
<path d="M154.46,23.8655v -7.26343" fill="none" stroke="black"/>
<path d="M166.619,23.8655v -7.26343" fill="none" stroke="black"/>
<path d="M178.777,31.129v -14.5269" fill="none" stroke="black"/>
<path d="M190.935,23.8655v -7.26343" fill="none" stroke="black"/>
<path d="M203.094,23.8655v -7.26343" fill="none" stroke="black"/>
<path d="M215.252,23.8655v -7.26343" fill="none" stroke="black"/>
<path d="M227.411,23.8655v -7.26343" fill="none" stroke="black"/>
<path d="M239.569,31.129v -14.5269" fill="none" stroke="black"/>
<path d="M251.727,23.8655v -7.26343" fill="none" stroke="black"/>
<path d="M263.886,23.8655v -7.26343" fill="none" stroke="black"/>
<path d="M276.044,23.8655v -7.26343" fill="none" stroke="black"/>
<path d="M288.203,23.8655v -7.26343" fill="none" stroke="black"/>
<path d="M300.361,31.129v -14.5269" fill="none" stroke="black"/>
<path d="M312.519,23.8655v -7.26343" fill="none" stroke="black"/>
<path d="M324.678,23.8655v -7.26343" fill="none" stroke="black"/>
<path d="M336.836,23.8655v -7.26343" fill="none" stroke="black"/>
<path d="M348.995,23.8655v -7.26343" fill="none" stroke="black"/>
<path d="M361.153,31.129v -14.5269" fill="none" stroke="black"/>
<path d="M373.311,23.8655v -7.26343" fill="none" stroke="black"/>
<path d="M385.47,23.8655v -7.26343" fill="none" stroke="black"/>
<path d="M397.628,23.8655v -7.26343" fill="none" stroke="black"/>
<path d="M409.787,23.8655v -7.26343" fill="none" stroke="black"/>
<path d="M421.945,31.129v -14.5269" fill="none" stroke="black"/>
<path d="M434.104,23.8655v -7.26343" fill="none" stroke="black"/>
<path d="M446.262,23.8655v -7.26343" fill="none" stroke="black"/>
<path d="M458.42,23.8655v -7.26343" fill="none" stroke="black"/>
<path d="M470.579,23.8655v -7.26343" fill="none" stroke="black"/>
<path d="M482.737,31.129v -14.5269" fill="none" stroke="black"/>
<path d="M494.896,23.8655v -7.26343" fill="none" stroke="black"/>
<path d="M507.054,23.8655v -7.26343" fill="none" stroke="black"/>
<path d="M519.212,23.8655v -7.26343" fill="none" stroke="black"/>
<path d="M531.371,23.8655v -7.26343" fill="none" stroke="black"/>
<path d="M543.529,31.129v -14.5269" fill="none" stroke="black"/>
<path d="M543.529,31.129v -14.5269" fill="none" stroke="black"/>
<path d="M57.1929,498.064v -481.461" fill="none" stroke="black"/>
<path d="M71.9898,417.82h -14.7969" fill="none" stroke="black"/>
<path d="M64.5913,394.273h -7.39843" fill="none" stroke="black"/>
<path d="M64.5913,370.726h -7.39843" fill="none" stroke="black"/>
<path d="M64.5913,347.179h -7.39843" fill="none" stroke="black"/>
<path d="M71.9898,323.632h -14.7969" fill="none" stroke="black"/>
<path d="M64.5913,300.085h -7.39843" fill="none" stroke="black"/>
<path d="M64.5913,276.538h -7.39843" fill="none" stroke="black"/>
<path d="M64.5913,252.991h -7.39843" fill="none" stroke="black"/>
<path d="M71.9898,229.444h -14.7969" fill="none" stroke="black"/>
<path d="M64.5913,205.897h -7.39843" fill="none" stroke="black"/>
<path d="M64.5913,182.35h -7.39843" fill="none" stroke="black"/>
<path d="M64.5913,158.803h -7.39843" fill="none" stroke="black"/>
<path d="M71.9898,135.256h -14.7969" fill="none" stroke="black"/>
<path d="M64.5913,111.709h -7.39843" fill="none" stroke="black"/>
<path d="M64.5913,88.1621h -7.39843" fill="none" stroke="black"/>
<path d="M64.5913,64.6151h -7.39843" fill="none" stroke="black"/>
<path d="M71.9898,41.0681h -14.7969" fill="none" stroke="black"/>
<path d="M71.9898,417.82h -14.7969" fill="none" stroke="black"/>
<path d="M64.5913,441.367h -7.39843" fill="none" stroke="black"/>
<path d="M64.5913,464.914h -7.39843" fill="none" stroke="black"/>
<path d="M64.5913,488.461h -7.39843" fill="none" stroke="black"/>
<path d="M71.9898,41.0681h -14.7969" fill="none" stroke="black"/>
<path d="M64.5913,17.5211h -7.39843" fill="none" stroke="black"/>
<text xml:space="preserve" x="45.5838" y="423.224" fill="black" font-size="16.0105" font-family="Helvetica">0</text>
<text xml:space="preserve" x="32.6222" y="329.112" fill="black" font-size="16.0105" font-family="Helvetica">0.2</text>
<text xml:space="preserve" x="32.6222" y="234.999" fill="black" font-size="16.0105" font-family="Helvetica">0.4</text>
<text xml:space="preserve" x="32.6222" y="140.887" fill="black" font-size="16.0105" font-family="Helvetica">0.6</text>
<text xml:space="preserve" x="32.6222" y="46.2109" fill="black" font-size="16.0105" font-family="Helvetica">0.8</text>
<g transform="rotate(-90,22.4784,21.9784)">
<text xml:space="preserve" x="22.4784" y="21.9784" fill="black" font-size="10.8403" font-family="Times">&#0947;</text>
</g>
<g transform="rotate(-90,18.5335,25.9232)">
<text xml:space="preserve" x="18.5335" y="25.9232" fill="black" font-size="7.39355" font-family="Helvetica">0</text>
</g>
<g transform="rotate(-90,22.4784,32.1222)">
<text xml:space="preserve" x="22.4784" y="32.1222" fill="black" font-size="10.8403" font-family="Times">&#0960;</text>
</g>
<g transform="rotate(-90,17.4064,45.0838)">
<text xml:space="preserve" x="17.4064" y="45.0838" fill="black" font-size="16.0105" font-family="Helvetica" font-style="oblique">N</text>
</g>
<path d="M553.256,498.064v -481.461" fill="none" stroke="black"/>
<path d="M538.459,417.82h 14.7969" fill="none" stroke="black"/>
<path d="M545.857,394.273h 7.39843" fill="none" stroke="black"/>
<path d="M545.857,370.726h 7.39843" fill="none" stroke="black"/>
<path d="M545.857,347.179h 7.39843" fill="none" stroke="black"/>
<path d="M538.459,323.632h 14.7969" fill="none" stroke="black"/>
<path d="M545.857,300.085h 7.39843" fill="none" stroke="black"/>
<path d="M545.857,276.538h 7.39843" fill="none" stroke="black"/>
<path d="M545.857,252.991h 7.39843" fill="none" stroke="black"/>
<path d="M538.459,229.444h 14.7969" fill="none" stroke="black"/>
<path d="M545.857,205.897h 7.39843" fill="none" stroke="black"/>
<path d="M545.857,182.35h 7.39843" fill="none" stroke="black"/>
<path d="M545.857,158.803h 7.39843" fill="none" stroke="black"/>
<path d="M538.459,135.256h 14.7969" fill="none" stroke="black"/>
<path d="M545.857,111.709h 7.39843" fill="none" stroke="black"/>
<path d="M545.857,88.1621h 7.39843" fill="none" stroke="black"/>
<path d="M545.857,64.6151h 7.39843" fill="none" stroke="black"/>
<path d="M538.459,41.0681h 14.7969" fill="none" stroke="black"/>
<path d="M538.459,417.82h 14.7969" fill="none" stroke="black"/>
<path d="M545.857,441.367h 7.39843" fill="none" stroke="black"/>
<path d="M545.857,464.914h 7.39843" fill="none" stroke="black"/>
<path d="M545.857,488.461h 7.39843" fill="none" stroke="black"/>
<path d="M538.459,41.0681h 14.7969" fill="none" stroke="black"/>
<path d="M545.857,17.5211h 7.39843" fill="none" stroke="black"/>
<path d="M81.5097,236.717v -151.446" fill="none" stroke="#33cccc" stroke-width="2"/>
<path d="M81.5097,76.254v -59.6519" fill="none" stroke="#33cccc" stroke-width="2"/>
<path d="M76.6464,80.7624h 0.35498" fill="none" stroke="#33cccc" stroke-width="2"/>
<path d="M86.0181,80.7624h 0.35498" fill="none" stroke="#33cccc" stroke-width="2"/>
<g stroke="#33cccc" stroke-width="2" fill="none">
<rect x="77.0013" y="76.254" width="9.01677" height="9.01677"/>
</g>
<path d="M91.2365,498.064v -110.217" fill="none" stroke="#33cccc" stroke-width="2"/>
<path d="M91.2365,378.83v -148.491" fill="none" stroke="#33cccc" stroke-width="2"/>
<path d="M86.3731,383.338h 0.35498" fill="none" stroke="#33cccc" stroke-width="2"/>
<path d="M95.7448,383.338h 0.35498" fill="none" stroke="#33cccc" stroke-width="2"/>
<g stroke="#33cccc" stroke-width="2" fill="none">
<rect x="86.7281" y="378.83" width="9.01677" height="9.01677"/>
</g>
<path d="M100.963,498.064v -89.8258" fill="none" stroke="#33cccc" stroke-width="2"/>
<path d="M100.963,399.221v -145.103" fill="none" stroke="#33cccc" stroke-width="2"/>
<path d="M96.0998,403.729h 0.35498" fill="none" stroke="#33cccc" stroke-width="2"/>
<path d="M105.472,403.729h 0.35498" fill="none" stroke="#33cccc" stroke-width="2"/>
<g stroke="#33cccc" stroke-width="2" fill="none">
<rect x="96.4548" y="399.221" width="9.01677" height="9.01677"/>
</g>
<path d="M139.87,498.064v -6.96634" fill="none" stroke="#33cccc" stroke-width="2"/>
<path d="M139.87,482.081v -132.924" fill="none" stroke="#33cccc" stroke-width="2"/>
<path d="M135.007,486.589h 0.35498" fill="none" stroke="#33cccc" stroke-width="2"/>
<path d="M144.378,486.589h 0.35498" fill="none" stroke="#33cccc" stroke-width="2"/>
<g stroke="#33cccc" stroke-width="2" fill="none">
<rect x="135.362" y="482.081" width="9.01677" height="9.01677"/>
</g>
<path d="M169.05,498.064v -10.6775" fill="none" stroke="#33cccc" stroke-width="2"/>
<path d="M169.05,478.369v -124.007" fill="none" stroke="#33cccc" stroke-width="2"/>
<path d="M164.187,482.878h 0.35498" fill="none" stroke="#33cccc" stroke-width="2"/>
<path d="M173.559,482.878h 0.35498" fill="none" stroke="#33cccc" stroke-width="2"/>
<g stroke="#33cccc" stroke-width="2" fill="none">
<rect x="164.542" y="478.369" width="9.01677" height="9.01677"/>
</g>
<path d="M178.777,498.064v -54.7875" fill="none" stroke="#33cccc" stroke-width="2"/>
<path d="M178.777,434.259v -121.395" fill="none" stroke="#33cccc" stroke-width="2"/>
<path d="M173.914,438.768h 0.35498" fill="none" stroke="#33cccc" stroke-width="2"/>
<path d="M183.285,438.768h 0.35498" fill="none" stroke="#33cccc" stroke-width="2"/>
<g stroke="#33cccc" stroke-width="2" fill="none">
<rect x="174.269" y="434.259" width="9.01677" height="9.01677"/>
</g>
<path d="M188.504,367.924v -118.84" fill="none" stroke="#33cccc" stroke-width="2"/>
<path d="M188.504,240.067v -118.84" fill="none" stroke="#33cccc" stroke-width="2"/>
<path d="M183.64,244.576h 0.35498" fill="none" stroke="#33cccc" stroke-width="2"/>
<path d="M193.012,244.576h 0.35498" fill="none" stroke="#33cccc" stroke-width="2"/>
<g stroke="#33cccc" stroke-width="2" fill="none">
<rect x="183.995" y="240.067" width="9.01677" height="9.01677"/>
</g>
<path d="M198.23,498.064v -74.8447" fill="none" stroke="#33cccc" stroke-width="2"/>
<path d="M198.23,414.202v -116.067" fill="none" stroke="#33cccc" stroke-width="2"/>
<path d="M193.367,418.711h 0.35498" fill="none" stroke="#33cccc" stroke-width="2"/>
<path d="M202.739,418.711h 0.35498" fill="none" stroke="#33cccc" stroke-width="2"/>
<g stroke="#33cccc" stroke-width="2" fill="none">
<rect x="193.722" y="414.202" width="9.01677" height="9.01677"/>
</g>
<path d="M217.684,498.064v -97.752" fill="none" stroke="#33cccc" stroke-width="2"/>
<path d="M217.684,391.295v -110.529" fill="none" stroke="#33cccc" stroke-width="2"/>
<path d="M212.821,395.803h 0.35498" fill="none" stroke="#33cccc" stroke-width="2"/>
<path d="M222.192,395.803h 0.35498" fill="none" stroke="#33cccc" stroke-width="2"/>
<g stroke="#33cccc" stroke-width="2" fill="none">
<rect x="213.176" y="391.295" width="9.01677" height="9.01677"/>
</g>
<path d="M227.411,498.064v -67.8409" fill="none" stroke="#33cccc" stroke-width="2"/>
<path d="M227.411,421.206v -107.897" fill="none" stroke="#33cccc" stroke-width="2"/>
<path d="M222.547,425.714h 0.35498" fill="none" stroke="#33cccc" stroke-width="2"/>
<path d="M231.919,425.714h 0.35498" fill="none" stroke="#33cccc" stroke-width="2"/>
<g stroke="#33cccc" stroke-width="2" fill="none">
<rect x="222.902" y="421.206" width="9.01677" height="9.01677"/>
</g>
<path d="M237.137,498.064v -44.0476" fill="none" stroke="#33cccc" stroke-width="2"/>
<path d="M237.137,444.999v -105.422" fill="none" stroke="#33cccc" stroke-width="2"/>
<path d="M232.274,449.508h 0.35498" fill="none" stroke="#33cccc" stroke-width="2"/>
<path d="M241.646,449.508h 0.35498" fill="none" stroke="#33cccc" stroke-width="2"/>
<g stroke="#33cccc" stroke-width="2" fill="none">
<rect x="232.629" y="444.999" width="9.01677" height="9.01677"/>
</g>
<path d="M246.864,489.251v -103.11" fill="none" stroke="#33cccc" stroke-width="2"/>
<path d="M242.001,493.759h 0.35498" fill="none" stroke="#33cccc" stroke-width="2"/>
<path d="M251.372,493.759h 0.35498" fill="none" stroke="#33cccc" stroke-width="2"/>
<g stroke="#33cccc" stroke-width="2" fill="none">
<rect x="242.356" y="489.251" width="9.01677" height="9.01677"/>
</g>
<path d="M256.591,498.064v -98.8309" fill="none" stroke="#33cccc" stroke-width="2"/>
<path d="M256.591,390.216v -100.513" fill="none" stroke="#33cccc" stroke-width="2"/>
<path d="M251.727,394.724h 0.35498" fill="none" stroke="#33cccc" stroke-width="2"/>
<path d="M261.099,394.724h 0.35498" fill="none" stroke="#33cccc" stroke-width="2"/>
<g stroke="#33cccc" stroke-width="2" fill="none">
<rect x="252.082" y="390.216" width="9.01677" height="9.01677"/>
</g>
<path d="M266.318,498.064v -7.27951" fill="none" stroke="#33cccc" stroke-width="2"/>
<path d="M266.318,481.767v -98.0571" fill="none" stroke="#33cccc" stroke-width="2"/>
<path d="M261.454,486.276h 0.35498" fill="none" stroke="#33cccc" stroke-width="2"/>
<path d="M270.826,486.276h 0.35498" fill="none" stroke="#33cccc" stroke-width="2"/>
<g stroke="#33cccc" stroke-width="2" fill="none">
<rect x="261.809" y="481.767" width="9.01677" height="9.01677"/>
</g>
<path d="M276.044,498.064v -0.117748" fill="none" stroke="#33cccc" stroke-width="2"/>
<path d="M276.044,488.929v -95.842" fill="none" stroke="#33cccc" stroke-width="2"/>
<path d="M271.181,493.437h 0.35498" fill="none" stroke="#33cccc" stroke-width="2"/>
<path d="M280.553,493.437h 0.35498" fill="none" stroke="#33cccc" stroke-width="2"/>
<g stroke="#33cccc" stroke-width="2" fill="none">
<rect x="271.536" y="488.929" width="9.01677" height="9.01677"/>
</g>
<path d="M441.399,498.064v -31.3103" fill="none" stroke="#33cccc" stroke-width="2"/>
<path d="M441.399,457.737v -65.9191" fill="none" stroke="#33cccc" stroke-width="2"/>
<path d="M436.535,462.245h 0.35498" fill="none" stroke="#33cccc" stroke-width="2"/>
<path d="M445.907,462.245h 0.35498" fill="none" stroke="#33cccc" stroke-width="2"/>
<g stroke="#33cccc" stroke-width="2" fill="none">
<rect x="436.89" y="457.737" width="9.01677" height="9.01677"/>
</g>
<path d="M460.852,498.064v -21.6024" fill="none" stroke="#33cccc" stroke-width="2"/>
<path d="M460.852,467.444v -63.5257" fill="none" stroke="#33cccc" stroke-width="2"/>
<path d="M455.989,471.953h 0.35498" fill="none" stroke="#33cccc" stroke-width="2"/>
<path d="M465.36,471.953h 0.35498" fill="none" stroke="#33cccc" stroke-width="2"/>
<g stroke="#33cccc" stroke-width="2" fill="none">
<rect x="456.344" y="467.444" width="9.01677" height="9.01677"/>
</g>
<path d="M470.579,498.064v -41.1492" fill="none" stroke="#33cccc" stroke-width="2"/>
<path d="M470.579,447.898v -62.3264" fill="none" stroke="#33cccc" stroke-width="2"/>
<path d="M465.715,452.406h 0.35498" fill="none" stroke="#33cccc" stroke-width="2"/>
<path d="M475.087,452.406h 0.35498" fill="none" stroke="#33cccc" stroke-width="2"/>
<g stroke="#33cccc" stroke-width="2" fill="none">
<rect x="466.07" y="447.898" width="9.01677" height="9.01677"/>
</g>
<path d="M499.759,498.064v -20.0266" fill="none" stroke="#33cccc" stroke-width="2"/>
<path d="M499.759,469.02v -58.7712" fill="none" stroke="#33cccc" stroke-width="2"/>
<path d="M494.896,473.529h 0.35498" fill="none" stroke="#33cccc" stroke-width="2"/>
<path d="M504.267,473.529h 0.35498" fill="none" stroke="#33cccc" stroke-width="2"/>
<g stroke="#33cccc" stroke-width="2" fill="none">
<rect x="495.251" y="469.02" width="9.01677" height="9.01677"/>
</g>
<path d="M509.486,498.064v -44.1932" fill="none" stroke="#33cccc" stroke-width="2"/>
<path d="M509.486,444.854v -57.4995" fill="none" stroke="#33cccc" stroke-width="2"/>
<path d="M504.622,449.362h 0.35498" fill="none" stroke="#33cccc" stroke-width="2"/>
<path d="M513.994,449.362h 0.35498" fill="none" stroke="#33cccc" stroke-width="2"/>
<g stroke="#33cccc" stroke-width="2" fill="none">
<rect x="504.977" y="444.854" width="9.01677" height="9.01677"/>
</g>
<path d="M519.212,493.417v -56.1348" fill="none" stroke="#33cccc" stroke-width="2"/>
<path d="M519.212,428.265v -56.1348" fill="none" stroke="#33cccc" stroke-width="2"/>
<path d="M514.349,432.773h 0.35498" fill="none" stroke="#33cccc" stroke-width="2"/>
<path d="M523.721,432.773h 0.35498" fill="none" stroke="#33cccc" stroke-width="2"/>
<g stroke="#33cccc" stroke-width="2" fill="none">
<rect x="514.704" y="428.265" width="9.01677" height="9.01677"/>
</g>
<path d="M528.939,421.501v -55.3164" fill="none" stroke="#33cccc" stroke-width="2"/>
<path d="M528.939,357.167v -55.3164" fill="none" stroke="#33cccc" stroke-width="2"/>
<path d="M524.076,361.676h 0.35498" fill="none" stroke="#33cccc" stroke-width="2"/>
<path d="M533.447,361.676h 0.35498" fill="none" stroke="#33cccc" stroke-width="2"/>
<g stroke="#33cccc" stroke-width="2" fill="none">
<rect x="524.431" y="357.167" width="9.01677" height="9.01677"/>
</g>
<path d="M538.666,356.026v -54.7792" fill="none" stroke="#33cccc" stroke-width="2"/>
<path d="M538.666,292.23v -54.7792" fill="none" stroke="#33cccc" stroke-width="2"/>
<path d="M533.802,296.738h 0.35498" fill="none" stroke="#33cccc" stroke-width="2"/>
<path d="M543.174,296.738h 0.35498" fill="none" stroke="#33cccc" stroke-width="2"/>
<g stroke="#33cccc" stroke-width="2" fill="none">
<rect x="534.157" y="292.23" width="9.01677" height="9.01677"/>
</g>
<path d="M548.393,498.064v -47.463" fill="none" stroke="#33cccc" stroke-width="2"/>
<path d="M548.393,441.584v -53.3466" fill="none" stroke="#33cccc" stroke-width="2"/>
<path d="M543.529,446.092h 0.35498" fill="none" stroke="#33cccc" stroke-width="2"/>
<path d="M552.901,446.092h 0.35498" fill="none" stroke="#33cccc" stroke-width="2"/>
<g stroke="#33cccc" stroke-width="2" fill="none">
<rect x="543.884" y="441.584" width="9.01677" height="9.01677"/>
</g>
<path d="M62.0563,498.064v -91.1756" fill="none" stroke="#ff0066" stroke-width="2"/>
<path d="M62.0563,406.888v -162.692" fill="none" stroke="#ff0066" stroke-width="2"/>
<path d="M57.1929,406.888h 4.86336" fill="none" stroke="#ff0066" stroke-width="2"/>
<path d="M62.0563,406.888h 4.86336" fill="none" stroke="#ff0066" stroke-width="2"/>
<g stroke="#ff0066" stroke-width="2" fill="none">
<line x1="61.0563" y1="406.888" x2="62.0563" y2="406.888"/>
</g>
<path d="M71.783,362.085v -159.629" fill="none" stroke="#ff0066" stroke-width="2"/>
<path d="M71.783,202.456v -159.629" fill="none" stroke="#ff0066" stroke-width="2"/>
<path d="M66.9196,202.456h 4.86336" fill="none" stroke="#ff0066" stroke-width="2"/>
<path d="M71.783,202.456h 4.86336" fill="none" stroke="#ff0066" stroke-width="2"/>
<g stroke="#ff0066" stroke-width="2" fill="none">
<line x1="70.783" y1="202.456" x2="71.783" y2="202.456"/>
</g>
<path d="M81.5097,498.064v -89.0357" fill="none" stroke="#ff0066" stroke-width="2"/>
<path d="M81.5097,409.028v -156.019" fill="none" stroke="#ff0066" stroke-width="2"/>
<path d="M76.6464,409.028h 4.86336" fill="none" stroke="#ff0066" stroke-width="2"/>
<path d="M81.5097,409.028h 4.86336" fill="none" stroke="#ff0066" stroke-width="2"/>
<g stroke="#ff0066" stroke-width="2" fill="none">
<line x1="80.5097" y1="409.028" x2="81.5097" y2="409.028"/>
</g>
<path d="M139.87,498.064v -106.661" fill="none" stroke="#ff0066" stroke-width="2"/>
<path d="M139.87,391.403v -137.409" fill="none" stroke="#ff0066" stroke-width="2"/>
<path d="M135.007,391.403h 4.86336" fill="none" stroke="#ff0066" stroke-width="2"/>
<path d="M139.87,391.403h 4.86336" fill="none" stroke="#ff0066" stroke-width="2"/>
<g stroke="#ff0066" stroke-width="2" fill="none">
<line x1="138.87" y1="391.403" x2="139.87" y2="391.403"/>
</g>
<path d="M159.324,478.765v -131.434" fill="none" stroke="#ff0066" stroke-width="2"/>
<path d="M159.324,347.33v -131.434" fill="none" stroke="#ff0066" stroke-width="2"/>
<path d="M154.46,347.33h 4.86336" fill="none" stroke="#ff0066" stroke-width="2"/>
<path d="M159.324,347.33h 4.86336" fill="none" stroke="#ff0066" stroke-width="2"/>
<g stroke="#ff0066" stroke-width="2" fill="none">
<line x1="158.324" y1="347.33" x2="159.324" y2="347.33"/>
</g>
<path d="M169.05,407.947v -128.459" fill="none" stroke="#ff0066" stroke-width="2"/>
<path d="M169.05,279.488v -128.459" fill="none" stroke="#ff0066" stroke-width="2"/>
<path d="M164.187,279.488h 4.86336" fill="none" stroke="#ff0066" stroke-width="2"/>
<path d="M169.05,279.488h 4.86336" fill="none" stroke="#ff0066" stroke-width="2"/>
<g stroke="#ff0066" stroke-width="2" fill="none">
<line x1="168.05" y1="279.488" x2="169.05" y2="279.488"/>
</g>
<path d="M178.777,336.273v -125.837" fill="none" stroke="#ff0066" stroke-width="2"/>
<path d="M178.777,210.437v -125.837" fill="none" stroke="#ff0066" stroke-width="2"/>
<path d="M173.914,210.437h 4.86336" fill="none" stroke="#ff0066" stroke-width="2"/>
<path d="M178.777,210.437h 4.86336" fill="none" stroke="#ff0066" stroke-width="2"/>
<g stroke="#ff0066" stroke-width="2" fill="none">
<line x1="177.777" y1="210.437" x2="178.777" y2="210.437"/>
</g>
<path d="M198.23,275.7v -120.493" fill="none" stroke="#ff0066" stroke-width="2"/>
<path d="M198.23,155.206v -120.493" fill="none" stroke="#ff0066" stroke-width="2"/>
<path d="M193.367,155.206h 4.86336" fill="none" stroke="#ff0066" stroke-width="2"/>
<path d="M198.23,155.206h 4.86336" fill="none" stroke="#ff0066" stroke-width="2"/>
<g stroke="#ff0066" stroke-width="2" fill="none">
<line x1="197.23" y1="155.206" x2="198.23" y2="155.206"/>
</g>
<path d="M207.957,356.729v -117.418" fill="none" stroke="#ff0066" stroke-width="2"/>
<path d="M207.957,239.311v -117.418" fill="none" stroke="#ff0066" stroke-width="2"/>
<path d="M203.094,239.311h 4.86336" fill="none" stroke="#ff0066" stroke-width="2"/>
<path d="M207.957,239.311h 4.86336" fill="none" stroke="#ff0066" stroke-width="2"/>
<g stroke="#ff0066" stroke-width="2" fill="none">
<line x1="206.957" y1="239.311" x2="207.957" y2="239.311"/>
</g>
<path d="M217.684,228.4v -114.945" fill="none" stroke="#ff0066" stroke-width="2"/>
<path d="M217.684,113.455v -96.853" fill="none" stroke="#ff0066" stroke-width="2"/>
<path d="M212.821,113.455h 4.86336" fill="none" stroke="#ff0066" stroke-width="2"/>
<path d="M217.684,113.455h 4.86336" fill="none" stroke="#ff0066" stroke-width="2"/>
<g stroke="#ff0066" stroke-width="2" fill="none">
<line x1="216.684" y1="113.455" x2="217.684" y2="113.455"/>
</g>
<path d="M227.411,250.729v -112.307" fill="none" stroke="#ff0066" stroke-width="2"/>
<path d="M227.411,138.422v -112.307" fill="none" stroke="#ff0066" stroke-width="2"/>
<path d="M222.547,138.422h 4.86336" fill="none" stroke="#ff0066" stroke-width="2"/>
<path d="M227.411,138.422h 4.86336" fill="none" stroke="#ff0066" stroke-width="2"/>
<g stroke="#ff0066" stroke-width="2" fill="none">
<line x1="226.411" y1="138.422" x2="227.411" y2="138.422"/>
</g>
<path d="M237.137,269.651v -109.826" fill="none" stroke="#ff0066" stroke-width="2"/>
<path d="M237.137,159.825v -109.826" fill="none" stroke="#ff0066" stroke-width="2"/>
<path d="M232.274,159.825h 4.86336" fill="none" stroke="#ff0066" stroke-width="2"/>
<path d="M237.137,159.825h 4.86336" fill="none" stroke="#ff0066" stroke-width="2"/>
<g stroke="#ff0066" stroke-width="2" fill="none">
<line x1="236.137" y1="159.825" x2="237.137" y2="159.825"/>
</g>
<path d="M246.864,312.486v -107.509" fill="none" stroke="#ff0066" stroke-width="2"/>
<path d="M246.864,204.977v -107.509" fill="none" stroke="#ff0066" stroke-width="2"/>
<path d="M242.001,204.977h 4.86336" fill="none" stroke="#ff0066" stroke-width="2"/>
<path d="M246.864,204.977h 4.86336" fill="none" stroke="#ff0066" stroke-width="2"/>
<g stroke="#ff0066" stroke-width="2" fill="none">
<line x1="245.864" y1="204.977" x2="246.864" y2="204.977"/>
</g>
<path d="M256.591,213.441v -104.915" fill="none" stroke="#ff0066" stroke-width="2"/>
<path d="M256.591,108.527v -91.9244" fill="none" stroke="#ff0066" stroke-width="2"/>
<path d="M251.727,108.527h 4.86336" fill="none" stroke="#ff0066" stroke-width="2"/>
<path d="M256.591,108.527h 4.86336" fill="none" stroke="#ff0066" stroke-width="2"/>
<g stroke="#ff0066" stroke-width="2" fill="none">
<line x1="255.591" y1="108.527" x2="256.591" y2="108.527"/>
</g>
<path d="M266.318,306.876v -102.456" fill="none" stroke="#ff0066" stroke-width="2"/>
<path d="M266.318,204.42v -102.456" fill="none" stroke="#ff0066" stroke-width="2"/>
<path d="M261.454,204.42h 4.86336" fill="none" stroke="#ff0066" stroke-width="2"/>
<path d="M266.318,204.42h 4.86336" fill="none" stroke="#ff0066" stroke-width="2"/>
<g stroke="#ff0066" stroke-width="2" fill="none">
<line x1="265.318" y1="204.42" x2="266.318" y2="204.42"/>
</g>
<path d="M276.044,317.619v -100.24" fill="none" stroke="#ff0066" stroke-width="2"/>
<path d="M276.044,217.38v -100.24" fill="none" stroke="#ff0066" stroke-width="2"/>
<path d="M271.181,217.38h 4.86336" fill="none" stroke="#ff0066" stroke-width="2"/>
<path d="M276.044,217.38h 4.86336" fill="none" stroke="#ff0066" stroke-width="2"/>
<g stroke="#ff0066" stroke-width="2" fill="none">
<line x1="275.044" y1="217.38" x2="276.044" y2="217.38"/>
</g>
<path d="M285.771,455.581v -98.0376" fill="none" stroke="#ff0066" stroke-width="2"/>
<path d="M285.771,357.544v -98.0376" fill="none" stroke="#ff0066" stroke-width="2"/>
<path d="M280.908,357.544h 4.86336" fill="none" stroke="#ff0066" stroke-width="2"/>
<path d="M285.771,357.544h 4.86336" fill="none" stroke="#ff0066" stroke-width="2"/>
<g stroke="#ff0066" stroke-width="2" fill="none">
<line x1="284.771" y1="357.544" x2="285.771" y2="357.544"/>
</g>
<path d="M295.498,420.403v -95.9044" fill="none" stroke="#ff0066" stroke-width="2"/>
<path d="M295.498,324.499v -95.9044" fill="none" stroke="#ff0066" stroke-width="2"/>
<path d="M290.634,324.499h 4.86336" fill="none" stroke="#ff0066" stroke-width="2"/>
<path d="M295.498,324.499h 4.86336" fill="none" stroke="#ff0066" stroke-width="2"/>
<g stroke="#ff0066" stroke-width="2" fill="none">
<line x1="294.498" y1="324.499" x2="295.498" y2="324.499"/>
</g>
<path d="M305.224,377.214v -94.0325" fill="none" stroke="#ff0066" stroke-width="2"/>
<path d="M305.224,283.181v -94.0325" fill="none" stroke="#ff0066" stroke-width="2"/>
<path d="M300.361,283.181h 4.86336" fill="none" stroke="#ff0066" stroke-width="2"/>
<path d="M305.224,283.181h 4.86336" fill="none" stroke="#ff0066" stroke-width="2"/>
<g stroke="#ff0066" stroke-width="2" fill="none">
<line x1="304.224" y1="283.181" x2="305.224" y2="283.181"/>
</g>
<path d="M314.951,453.273v -91.5712" fill="none" stroke="#ff0066" stroke-width="2"/>
<path d="M314.951,361.702v -91.5712" fill="none" stroke="#ff0066" stroke-width="2"/>
<path d="M310.088,361.702h 4.86336" fill="none" stroke="#ff0066" stroke-width="2"/>
<path d="M314.951,361.702h 4.86336" fill="none" stroke="#ff0066" stroke-width="2"/>
<g stroke="#ff0066" stroke-width="2" fill="none">
<line x1="313.951" y1="361.702" x2="314.951" y2="361.702"/>
</g>
<path d="M334.405,498.064v -44.1022" fill="none" stroke="#ff0066" stroke-width="2"/>
<path d="M334.405,453.961v -87.5369" fill="none" stroke="#ff0066" stroke-width="2"/>
<path d="M329.541,453.961h 4.86336" fill="none" stroke="#ff0066" stroke-width="2"/>
<path d="M334.405,453.961h 4.86336" fill="none" stroke="#ff0066" stroke-width="2"/>
<g stroke="#ff0066" stroke-width="2" fill="none">
<line x1="333.405" y1="453.961" x2="334.405" y2="453.961"/>
</g>
<path d="M344.131,498.064v -43.4752" fill="none" stroke="#ff0066" stroke-width="2"/>
<path d="M344.131,454.588v -85.7983" fill="none" stroke="#ff0066" stroke-width="2"/>
<path d="M339.268,454.588h 4.86336" fill="none" stroke="#ff0066" stroke-width="2"/>
<path d="M344.131,454.588h 4.86336" fill="none" stroke="#ff0066" stroke-width="2"/>
<g stroke="#ff0066" stroke-width="2" fill="none">
<line x1="343.131" y1="454.588" x2="344.131" y2="454.588"/>
</g>
<path d="M412.218,498.064v -6.81505" fill="none" stroke="#ff0066" stroke-width="2"/>
<path d="M412.218,491.249v -74.3118" fill="none" stroke="#ff0066" stroke-width="2"/>
<path d="M407.355,491.249h 4.86336" fill="none" stroke="#ff0066" stroke-width="2"/>
<path d="M412.218,491.249h 4.86336" fill="none" stroke="#ff0066" stroke-width="2"/>
<g stroke="#ff0066" stroke-width="2" fill="none">
<line x1="411.218" y1="491.249" x2="412.218" y2="491.249"/>
</g>
<path d="M431.672,490.44v -71.8387" fill="none" stroke="#ff0066" stroke-width="2"/>
<path d="M431.672,418.601v -71.8387" fill="none" stroke="#ff0066" stroke-width="2"/>
<path d="M426.808,418.601h 4.86336" fill="none" stroke="#ff0066" stroke-width="2"/>
<path d="M431.672,418.601h 4.86336" fill="none" stroke="#ff0066" stroke-width="2"/>
<g stroke="#ff0066" stroke-width="2" fill="none">
<line x1="430.672" y1="418.601" x2="431.672" y2="418.601"/>
</g>
<path d="M441.399,456.39v -70.3788" fill="none" stroke="#ff0066" stroke-width="2"/>
<path d="M441.399,386.011v -70.3788" fill="none" stroke="#ff0066" stroke-width="2"/>
<path d="M436.535,386.011h 4.86336" fill="none" stroke="#ff0066" stroke-width="2"/>
<path d="M441.399,386.011h 4.86336" fill="none" stroke="#ff0066" stroke-width="2"/>
<g stroke="#ff0066" stroke-width="2" fill="none">
<line x1="440.399" y1="386.011" x2="441.399" y2="386.011"/>
</g>
<path d="M451.125,498.064v -9.59629" fill="none" stroke="#ff0066" stroke-width="2"/>
<path d="M451.125,488.467v -69.2468" fill="none" stroke="#ff0066" stroke-width="2"/>
<path d="M446.262,488.467h 4.86336" fill="none" stroke="#ff0066" stroke-width="2"/>
<path d="M451.125,488.467h 4.86336" fill="none" stroke="#ff0066" stroke-width="2"/>
<g stroke="#ff0066" stroke-width="2" fill="none">
<line x1="450.125" y1="488.467" x2="451.125" y2="488.467"/>
</g>
<path d="M460.852,488.883v -67.9993" fill="none" stroke="#ff0066" stroke-width="2"/>
<path d="M460.852,420.884v -67.9993" fill="none" stroke="#ff0066" stroke-width="2"/>
<path d="M455.989,420.884h 4.86336" fill="none" stroke="#ff0066" stroke-width="2"/>
<path d="M460.852,420.884h 4.86336" fill="none" stroke="#ff0066" stroke-width="2"/>
<g stroke="#ff0066" stroke-width="2" fill="none">
<line x1="459.852" y1="420.884" x2="460.852" y2="420.884"/>
</g>
<path d="M470.579,480.819v -66.8075" fill="none" stroke="#ff0066" stroke-width="2"/>
<path d="M470.579,414.011v -66.8075" fill="none" stroke="#ff0066" stroke-width="2"/>
<path d="M465.715,414.011h 4.86336" fill="none" stroke="#ff0066" stroke-width="2"/>
<path d="M470.579,414.011h 4.86336" fill="none" stroke="#ff0066" stroke-width="2"/>
<g stroke="#ff0066" stroke-width="2" fill="none">
<line x1="469.579" y1="414.011" x2="470.579" y2="414.011"/>
</g>
<path d="M480.305,498.064v -4.94663" fill="none" stroke="#ff0066" stroke-width="2"/>
<path d="M480.305,493.117v -65.337" fill="none" stroke="#ff0066" stroke-width="2"/>
<path d="M475.442,493.117h 4.86336" fill="none" stroke="#ff0066" stroke-width="2"/>
<path d="M480.305,493.117h 4.86336" fill="none" stroke="#ff0066" stroke-width="2"/>
<g stroke="#ff0066" stroke-width="2" fill="none">
<line x1="479.305" y1="493.117" x2="480.305" y2="493.117"/>
</g>
<path d="M499.759,498.064v -26.473" fill="none" stroke="#ff0066" stroke-width="2"/>
<path d="M499.759,471.591v -63.2781" fill="none" stroke="#ff0066" stroke-width="2"/>
<path d="M494.896,471.591h 4.86336" fill="none" stroke="#ff0066" stroke-width="2"/>
<path d="M499.759,471.591h 4.86336" fill="none" stroke="#ff0066" stroke-width="2"/>
<g stroke="#ff0066" stroke-width="2" fill="none">
<line x1="498.759" y1="471.591" x2="499.759" y2="471.591"/>
</g>
<path d="M509.486,498.064v -38.8568" fill="none" stroke="#ff0066" stroke-width="2"/>
<path d="M509.486,459.207v -62.0157" fill="none" stroke="#ff0066" stroke-width="2"/>
<path d="M504.622,459.207h 4.86336" fill="none" stroke="#ff0066" stroke-width="2"/>
<path d="M509.486,459.207h 4.86336" fill="none" stroke="#ff0066" stroke-width="2"/>
<g stroke="#ff0066" stroke-width="2" fill="none">
<line x1="508.486" y1="459.207" x2="509.486" y2="459.207"/>
</g>
<path d="M519.212,498.064v -43.8843" fill="none" stroke="#ff0066" stroke-width="2"/>
<path d="M519.212,454.179v -60.6599" fill="none" stroke="#ff0066" stroke-width="2"/>
<path d="M514.349,454.179h 4.86336" fill="none" stroke="#ff0066" stroke-width="2"/>
<path d="M519.212,454.179h 4.86336" fill="none" stroke="#ff0066" stroke-width="2"/>
<g stroke="#ff0066" stroke-width="2" fill="none">
<line x1="518.212" y1="454.179" x2="519.212" y2="454.179"/>
</g>
<path d="M528.939,454.266v -59.8512" fill="none" stroke="#ff0066" stroke-width="2"/>
<path d="M528.939,394.415v -59.8512" fill="none" stroke="#ff0066" stroke-width="2"/>
<path d="M524.076,394.415h 4.86336" fill="none" stroke="#ff0066" stroke-width="2"/>
<path d="M528.939,394.415h 4.86336" fill="none" stroke="#ff0066" stroke-width="2"/>
<g stroke="#ff0066" stroke-width="2" fill="none">
<line x1="527.939" y1="394.415" x2="528.939" y2="394.415"/>
</g>
<path d="M538.666,399.946v -59.323" fill="none" stroke="#ff0066" stroke-width="2"/>
<path d="M538.666,340.623v -59.323" fill="none" stroke="#ff0066" stroke-width="2"/>
<path d="M533.802,340.623h 4.86336" fill="none" stroke="#ff0066" stroke-width="2"/>
<path d="M538.666,340.623h 4.86336" fill="none" stroke="#ff0066" stroke-width="2"/>
<g stroke="#ff0066" stroke-width="2" fill="none">
<line x1="537.666" y1="340.623" x2="538.666" y2="340.623"/>
</g>
<text xml:space="preserve" x="360.607" y="50.7193" fill="black" font-size="16.0105" font-family="Helvetica"> with EMC</text>
<text xml:space="preserve" x="352.717" y="50.7193" fill="black" font-size="16.0105" font-family="Times">&#0947;</text>
<text xml:space="preserve" x="344.828" y="50.7193" fill="black" font-size="16.0105" font-family="Times">&#0947;</text>
<text xml:space="preserve" x="336.938" y="50.7193" fill="black" font-size="16.0105" font-family="Times">&#0947;</text>
<text xml:space="preserve" x="331.866" y="50.7193" fill="black" font-size="16.0105" font-family="Helvetica"> </text>
<text xml:space="preserve" x="316.65" y="50.7193" fill="black" font-size="16.0105" font-family="Times">&#8594;</text>
<text xml:space="preserve" x="311.578" y="50.7193" fill="black" font-size="16.0105" font-family="Helvetica"> </text>
<text xml:space="preserve" x="303.689" y="50.7193" fill="black" font-size="16.0105" font-family="Times">&#0947;</text>
<text xml:space="preserve" x="298.053" y="45.0838" fill="black" font-size="10.8403" font-family="Helvetica">0</text>
<text xml:space="preserve" x="289.6" y="50.7193" fill="black" font-size="16.0105" font-family="Times">&#0960;</text>
<text xml:space="preserve" x="284.528" y="50.7193" fill="black" font-size="16.0105" font-family="Helvetica"> </text>
<text xml:space="preserve" x="269.312" y="50.7193" fill="black" font-size="16.0105" font-family="Times">&#8594;</text>
<text xml:space="preserve" x="264.24" y="50.7193" fill="black" font-size="16.0105" font-family="Helvetica"> </text>
<text xml:space="preserve" x="252.969" y="50.7193" fill="black" font-size="16.0105" font-family="Times">&#0969;</text>
<text xml:space="preserve" x="128.989" y="50.7193" fill="black" font-size="16.0105" font-family="Helvetica"> = 13 TeV (EG1), </text>
<text xml:space="preserve" x="120.536" y="50.7193" fill="black" font-size="16.0105" font-family="Helvetica" font-style="oblique">s</text>
<path d="M114.9,41.7025l 1.69064, 9.58031" fill="none" stroke="black" stroke-width="2"/>
<path d="M116.591,51.2829l 2.25419, -14.0887" fill="none" stroke="black"/>
<path d="M118.845,37.1942h 10.1439" fill="none" stroke="black"/>
<text xml:space="preserve" x="89.5406" y="50.7193" fill="black" font-size="16.0105" font-family="Helvetica">pp </text>
<text xml:space="preserve" x="89.5406" y="85.6593" fill="black" font-size="16.0105" font-family="Helvetica">ALICE work in progress</text>
<text xml:space="preserve" x="205.068" y="120.599" fill="black" font-size="16.0105" font-family="Helvetica">) &lt; 8.0</text>
<text xml:space="preserve" x="196.051" y="120.599" fill="black" font-size="16.0105" font-family="Helvetica" font-style="oblique">c</text>
<text xml:space="preserve" x="145.895" y="120.599" fill="black" font-size="16.0105" font-family="Helvetica"> /(GeV/</text>
<text xml:space="preserve" x="139.133" y="128.489" fill="black" font-size="10.8403" font-family="Helvetica">T</text>
<text xml:space="preserve" x="129.552" y="120.599" fill="black" font-size="16.0105" font-family="Helvetica" font-style="oblique">p</text>
<text xml:space="preserve" x="124.481" y="120.599" fill="black" font-size="16.0105" font-family="Helvetica"> </text>
<text xml:space="preserve" x="116.027" y="120.599" fill="black" font-size="16.0105" font-family="Times">&#8804;</text>
<text xml:space="preserve" x="89.5406" y="120.599" fill="black" font-size="16.0105" font-family="Helvetica">6.0 </text>
<rect x="312.311" y="69.1755" width="198.425" height="113.448" fill="white"/>
<text xml:space="preserve" x="361.734" y="92.4219" fill="black" font-size="16.0105" font-family="Helvetica">true signal</text>
<path d="M319.752,88.0835h 34.7244" fill="none" stroke="black" stroke-width="2"/>
<g fill="black">
<circle cx="337.114" cy="88.0835" r="6.76257"/>
</g>
<text xml:space="preserve" x="361.734" y="130.18" fill="black" font-size="16.0105" font-family="Helvetica">extracted signal pol1</text>
<path d="M319.752,125.899h 34.7244" fill="none" stroke="#33cccc" stroke-width="2"/>
<g stroke="#33cccc" stroke-width="2" fill="none">
<rect x="332.606" y="121.391" width="9.01677" height="9.01677"/>
</g>
<text xml:space="preserve" x="361.734" y="167.937" fill="black" font-size="16.0105" font-family="Helvetica">extracted signal pol2</text>
<path d="M319.752,163.715h 34.7244" fill="none" stroke="#ff0066" stroke-width="2"/>
<g stroke="#ff0066" stroke-width="2" fill="none">
<line x1="336.114" y1="163.715" x2="337.114" y2="163.715"/>
</g></svg>
