<?xml version="1.0" standalone="no"?>
<svg width="567.429" height="553.904" viewBox="0 0 567.429 553.904" xmlns="http://www.w3.org/2000/svg" shape-rendering="crispEdges">
<title>
MC/EG1/OmegaTGPSPlusWOPS/Peaks_02.svg
</title>
<desc>
Creator: ROOT Version 6.20/08
CreationDate: Mon Mar 29 21:31:14 2021</desc>
<defs>
</defs>
<rect x="0.5" y="0" width="566.929" height="553.404" fill="white"/>
<rect x="57.1929" y="16.6021" width="496.063" height="481.461" fill="white"/>
<rect x="57.1929" y="16.6021" width="496.063" height="481.461" fill="none" stroke="black"/>
<rect x="57.1929" y="16.6021" width="496.063" height="481.461" fill="white"/>
<rect x="57.1929" y="16.6021" width="496.063" height="481.461" fill="none" stroke="black"/>
<g fill="black">
<circle cx="62.0563" cy="392.991" r="6.76257"/>
</g>
<g fill="black">
<circle cx="71.783" cy="384.766" r="6.76257"/>
</g>
<g fill="black">
<circle cx="81.5097" cy="386.381" r="6.76257"/>
</g>
<g fill="black">
<circle cx="91.2365" cy="390.028" r="6.76257"/>
</g>
<g fill="black">
<circle cx="100.963" cy="390.97" r="6.76257"/>
</g>
<g fill="black">
<circle cx="110.69" cy="388.068" r="6.76257"/>
</g>
<g fill="black">
<circle cx="120.417" cy="394.988" r="6.76257"/>
</g>
<g fill="black">
<circle cx="130.143" cy="386.477" r="6.76257"/>
</g>
<g fill="black">
<circle cx="139.87" cy="390.845" r="6.76257"/>
</g>
<g fill="black">
<circle cx="149.597" cy="388.627" r="6.76257"/>
</g>
<g fill="black">
<circle cx="159.324" cy="380.544" r="6.76257"/>
</g>
<g fill="black">
<circle cx="169.05" cy="378.219" r="6.76257"/>
</g>
<g fill="black">
<circle cx="178.777" cy="380.934" r="6.76257"/>
</g>
<g fill="black">
<circle cx="188.504" cy="372.035" r="6.76257"/>
</g>
<g fill="black">
<circle cx="198.23" cy="369.282" r="6.76257"/>
</g>
<g fill="black">
<circle cx="207.957" cy="368.165" r="6.76257"/>
</g>
<g fill="black">
<circle cx="217.684" cy="362.952" r="6.76257"/>
</g>
<g fill="black">
<circle cx="227.411" cy="349.284" r="6.76257"/>
</g>
<path d="M237.137,341.42v -0.459945" fill="none" stroke="black" stroke-width="2"/>
<path d="M237.137,327.435v -0.459945" fill="none" stroke="black" stroke-width="2"/>
<g fill="black">
<circle cx="237.137" cy="334.197" r="6.76257"/>
</g>
<path d="M246.864,313.367v -1.25028" fill="none" stroke="black" stroke-width="2"/>
<path d="M246.864,298.592v -1.25028" fill="none" stroke="black" stroke-width="2"/>
<g fill="black">
<circle cx="246.864" cy="305.354" r="6.76257"/>
</g>
<path d="M256.591,267.462v -3.36653" fill="none" stroke="black" stroke-width="2"/>
<path d="M256.591,250.57v -3.36653" fill="none" stroke="black" stroke-width="2"/>
<g fill="black">
<circle cx="256.591" cy="257.333" r="6.76257"/>
</g>
<path d="M266.318,292.73v -2.47626" fill="none" stroke="black" stroke-width="2"/>
<path d="M266.318,276.729v -2.47626" fill="none" stroke="black" stroke-width="2"/>
<g fill="black">
<circle cx="266.318" cy="283.491" r="6.76257"/>
</g>
<path d="M276.044,298.977v -2.06076" fill="none" stroke="black" stroke-width="2"/>
<path d="M276.044,283.391v -2.06076" fill="none" stroke="black" stroke-width="2"/>
<g fill="black">
<circle cx="276.044" cy="290.154" r="6.76257"/>
</g>
<path d="M285.771,308.306v -1.97573" fill="none" stroke="black" stroke-width="2"/>
<path d="M285.771,292.805v -1.97573" fill="none" stroke="black" stroke-width="2"/>
<g fill="black">
<circle cx="285.771" cy="299.568" r="6.76257"/>
</g>
<path d="M295.498,322.573v -1.51728" fill="none" stroke="black" stroke-width="2"/>
<path d="M295.498,307.53v -1.51728" fill="none" stroke="black" stroke-width="2"/>
<g fill="black">
<circle cx="295.498" cy="314.293" r="6.76257"/>
</g>
<g fill="black">
<circle cx="305.224" cy="345.563" r="6.76257"/>
</g>
<g fill="black">
<circle cx="314.951" cy="377.038" r="6.76257"/>
</g>
<g fill="black">
<circle cx="324.678" cy="391.937" r="6.76257"/>
</g>
<g fill="black">
<circle cx="334.405" cy="405.956" r="6.76257"/>
</g>
<g fill="black">
<circle cx="344.131" cy="408.134" r="6.76257"/>
</g>
<g fill="black">
<circle cx="353.858" cy="409.161" r="6.76257"/>
</g>
<g fill="black">
<circle cx="363.585" cy="412.278" r="6.76257"/>
</g>
<g fill="black">
<circle cx="373.311" cy="412.234" r="6.76257"/>
</g>
<g fill="black">
<circle cx="383.038" cy="412.323" r="6.76257"/>
</g>
<g fill="black">
<circle cx="392.765" cy="414.042" r="6.76257"/>
</g>
<g fill="black">
<circle cx="402.492" cy="416.31" r="6.76257"/>
</g>
<g fill="black">
<circle cx="412.218" cy="416.512" r="6.76257"/>
</g>
<g fill="black">
<circle cx="421.945" cy="415.846" r="6.76257"/>
</g>
<g fill="black">
<circle cx="431.672" cy="416.119" r="6.76257"/>
</g>
<g fill="black">
<circle cx="441.399" cy="415.901" r="6.76257"/>
</g>
<g fill="black">
<circle cx="451.125" cy="416.766" r="6.76257"/>
</g>
<g fill="black">
<circle cx="460.852" cy="417.195" r="6.76257"/>
</g>
<g fill="black">
<circle cx="470.579" cy="416.399" r="6.76257"/>
</g>
<g fill="black">
<circle cx="490.032" cy="417.518" r="6.76257"/>
</g>
<g fill="black">
<circle cx="509.486" cy="417.518" r="6.76257"/>
</g>
<g fill="black">
<circle cx="519.212" cy="416.893" r="6.76257"/>
</g>
<g fill="black">
<circle cx="528.939" cy="415.712" r="6.76257"/>
</g>
<path d="M57.1929,498.064h 496.063" fill="none" stroke="black"/>
<path d="M57.1929,483.537v 14.5269" fill="none" stroke="black"/>
<path d="M69.3513,490.8v 7.26343" fill="none" stroke="black"/>
<path d="M81.5097,490.8v 7.26343" fill="none" stroke="black"/>
<path d="M93.6681,490.8v 7.26343" fill="none" stroke="black"/>
<path d="M105.827,490.8v 7.26343" fill="none" stroke="black"/>
<path d="M117.985,483.537v 14.5269" fill="none" stroke="black"/>
<path d="M130.143,490.8v 7.26343" fill="none" stroke="black"/>
<path d="M142.302,490.8v 7.26343" fill="none" stroke="black"/>
<path d="M154.46,490.8v 7.26343" fill="none" stroke="black"/>
<path d="M166.619,490.8v 7.26343" fill="none" stroke="black"/>
<path d="M178.777,483.537v 14.5269" fill="none" stroke="black"/>
<path d="M190.935,490.8v 7.26343" fill="none" stroke="black"/>
<path d="M203.094,490.8v 7.26343" fill="none" stroke="black"/>
<path d="M215.252,490.8v 7.26343" fill="none" stroke="black"/>
<path d="M227.411,490.8v 7.26343" fill="none" stroke="black"/>
<path d="M239.569,483.537v 14.5269" fill="none" stroke="black"/>
<path d="M251.727,490.8v 7.26343" fill="none" stroke="black"/>
<path d="M263.886,490.8v 7.26343" fill="none" stroke="black"/>
<path d="M276.044,490.8v 7.26343" fill="none" stroke="black"/>
<path d="M288.203,490.8v 7.26343" fill="none" stroke="black"/>
<path d="M300.361,483.537v 14.5269" fill="none" stroke="black"/>
<path d="M312.519,490.8v 7.26343" fill="none" stroke="black"/>
<path d="M324.678,490.8v 7.26343" fill="none" stroke="black"/>
<path d="M336.836,490.8v 7.26343" fill="none" stroke="black"/>
<path d="M348.995,490.8v 7.26343" fill="none" stroke="black"/>
<path d="M361.153,483.537v 14.5269" fill="none" stroke="black"/>
<path d="M373.311,490.8v 7.26343" fill="none" stroke="black"/>
<path d="M385.47,490.8v 7.26343" fill="none" stroke="black"/>
<path d="M397.628,490.8v 7.26343" fill="none" stroke="black"/>
<path d="M409.787,490.8v 7.26343" fill="none" stroke="black"/>
<path d="M421.945,483.537v 14.5269" fill="none" stroke="black"/>
<path d="M434.104,490.8v 7.26343" fill="none" stroke="black"/>
<path d="M446.262,490.8v 7.26343" fill="none" stroke="black"/>
<path d="M458.42,490.8v 7.26343" fill="none" stroke="black"/>
<path d="M470.579,490.8v 7.26343" fill="none" stroke="black"/>
<path d="M482.737,483.537v 14.5269" fill="none" stroke="black"/>
<path d="M494.896,490.8v 7.26343" fill="none" stroke="black"/>
<path d="M507.054,490.8v 7.26343" fill="none" stroke="black"/>
<path d="M519.212,490.8v 7.26343" fill="none" stroke="black"/>
<path d="M531.371,490.8v 7.26343" fill="none" stroke="black"/>
<path d="M543.529,483.537v 14.5269" fill="none" stroke="black"/>
<path d="M543.529,483.537v 14.5269" fill="none" stroke="black"/>
<text xml:space="preserve" x="46.1474" y="513.956" fill="black" font-size="16.0105" font-family="Helvetica">0.4</text>
<text xml:space="preserve" x="107.011" y="513.956" fill="black" font-size="16.0105" font-family="Helvetica">0.5</text>
<text xml:space="preserve" x="167.874" y="513.956" fill="black" font-size="16.0105" font-family="Helvetica">0.6</text>
<text xml:space="preserve" x="228.737" y="513.956" fill="black" font-size="16.0105" font-family="Helvetica">0.7</text>
<text xml:space="preserve" x="289.6" y="513.956" fill="black" font-size="16.0105" font-family="Helvetica">0.8</text>
<text xml:space="preserve" x="349.9" y="513.956" fill="black" font-size="16.0105" font-family="Helvetica">0.9</text>
<text xml:space="preserve" x="418.652" y="513.956" fill="black" font-size="16.0105" font-family="Helvetica">1</text>
<text xml:space="preserve" x="472.753" y="513.956" fill="black" font-size="16.0105" font-family="Helvetica">1.1</text>
<text xml:space="preserve" x="532.489" y="513.956" fill="black" font-size="16.0105" font-family="Helvetica">1.2</text>
<text xml:space="preserve" x="548.268" y="537.625" fill="black" font-size="16.0105" font-family="Helvetica">)</text>
<text xml:space="preserve" x="542.633" y="532.553" fill="black" font-size="10.8403" font-family="Helvetica">2</text>
<text xml:space="preserve" x="533.616" y="537.625" fill="black" font-size="16.0105" font-family="Helvetica" font-style="oblique">c</text>
<text xml:space="preserve" x="487.405" y="537.625" fill="black" font-size="16.0105" font-family="Helvetica"> (GeV/</text>
<text xml:space="preserve" x="473.317" y="542.697" fill="black" font-size="10.8403" font-family="Helvetica">inv</text>
<text xml:space="preserve" x="459.792" y="537.625" fill="black" font-size="16.0105" font-family="Helvetica" font-style="oblique">m</text>
<path d="M57.1929,16.6021h 496.063" fill="none" stroke="black"/>
<path d="M57.1929,31.129v -14.5269" fill="none" stroke="black"/>
<path d="M69.3513,23.8655v -7.26343" fill="none" stroke="black"/>
<path d="M81.5097,23.8655v -7.26343" fill="none" stroke="black"/>
<path d="M93.6681,23.8655v -7.26343" fill="none" stroke="black"/>
<path d="M105.827,23.8655v -7.26343" fill="none" stroke="black"/>
<path d="M117.985,31.129v -14.5269" fill="none" stroke="black"/>
<path d="M130.143,23.8655v -7.26343" fill="none" stroke="black"/>
<path d="M142.302,23.8655v -7.26343" fill="none" stroke="black"/>
<path d="M154.46,23.8655v -7.26343" fill="none" stroke="black"/>
<path d="M166.619,23.8655v -7.26343" fill="none" stroke="black"/>
<path d="M178.777,31.129v -14.5269" fill="none" stroke="black"/>
<path d="M190.935,23.8655v -7.26343" fill="none" stroke="black"/>
<path d="M203.094,23.8655v -7.26343" fill="none" stroke="black"/>
<path d="M215.252,23.8655v -7.26343" fill="none" stroke="black"/>
<path d="M227.411,23.8655v -7.26343" fill="none" stroke="black"/>
<path d="M239.569,31.129v -14.5269" fill="none" stroke="black"/>
<path d="M251.727,23.8655v -7.26343" fill="none" stroke="black"/>
<path d="M263.886,23.8655v -7.26343" fill="none" stroke="black"/>
<path d="M276.044,23.8655v -7.26343" fill="none" stroke="black"/>
<path d="M288.203,23.8655v -7.26343" fill="none" stroke="black"/>
<path d="M300.361,31.129v -14.5269" fill="none" stroke="black"/>
<path d="M312.519,23.8655v -7.26343" fill="none" stroke="black"/>
<path d="M324.678,23.8655v -7.26343" fill="none" stroke="black"/>
<path d="M336.836,23.8655v -7.26343" fill="none" stroke="black"/>
<path d="M348.995,23.8655v -7.26343" fill="none" stroke="black"/>
<path d="M361.153,31.129v -14.5269" fill="none" stroke="black"/>
<path d="M373.311,23.8655v -7.26343" fill="none" stroke="black"/>
<path d="M385.47,23.8655v -7.26343" fill="none" stroke="black"/>
<path d="M397.628,23.8655v -7.26343" fill="none" stroke="black"/>
<path d="M409.787,23.8655v -7.26343" fill="none" stroke="black"/>
<path d="M421.945,31.129v -14.5269" fill="none" stroke="black"/>
<path d="M434.104,23.8655v -7.26343" fill="none" stroke="black"/>
<path d="M446.262,23.8655v -7.26343" fill="none" stroke="black"/>
<path d="M458.42,23.8655v -7.26343" fill="none" stroke="black"/>
<path d="M470.579,23.8655v -7.26343" fill="none" stroke="black"/>
<path d="M482.737,31.129v -14.5269" fill="none" stroke="black"/>
<path d="M494.896,23.8655v -7.26343" fill="none" stroke="black"/>
<path d="M507.054,23.8655v -7.26343" fill="none" stroke="black"/>
<path d="M519.212,23.8655v -7.26343" fill="none" stroke="black"/>
<path d="M531.371,23.8655v -7.26343" fill="none" stroke="black"/>
<path d="M543.529,31.129v -14.5269" fill="none" stroke="black"/>
<path d="M543.529,31.129v -14.5269" fill="none" stroke="black"/>
<path d="M57.1929,498.064v -481.461" fill="none" stroke="black"/>
<path d="M71.9898,478.832h -14.7969" fill="none" stroke="black"/>
<path d="M64.5913,466.63h -7.39843" fill="none" stroke="black"/>
<path d="M64.5913,454.427h -7.39843" fill="none" stroke="black"/>
<path d="M64.5913,442.225h -7.39843" fill="none" stroke="black"/>
<path d="M64.5913,430.023h -7.39843" fill="none" stroke="black"/>
<path d="M71.9898,417.82h -14.7969" fill="none" stroke="black"/>
<path d="M64.5913,405.618h -7.39843" fill="none" stroke="black"/>
<path d="M64.5913,393.415h -7.39843" fill="none" stroke="black"/>
<path d="M64.5913,381.213h -7.39843" fill="none" stroke="black"/>
<path d="M64.5913,369.01h -7.39843" fill="none" stroke="black"/>
<path d="M71.9898,356.808h -14.7969" fill="none" stroke="black"/>
<path d="M64.5913,344.605h -7.39843" fill="none" stroke="black"/>
<path d="M64.5913,332.403h -7.39843" fill="none" stroke="black"/>
<path d="M64.5913,320.2h -7.39843" fill="none" stroke="black"/>
<path d="M64.5913,307.998h -7.39843" fill="none" stroke="black"/>
<path d="M71.9898,295.795h -14.7969" fill="none" stroke="black"/>
<path d="M64.5913,283.593h -7.39843" fill="none" stroke="black"/>
<path d="M64.5913,271.39h -7.39843" fill="none" stroke="black"/>
<path d="M64.5913,259.188h -7.39843" fill="none" stroke="black"/>
<path d="M64.5913,246.985h -7.39843" fill="none" stroke="black"/>
<path d="M71.9898,234.783h -14.7969" fill="none" stroke="black"/>
<path d="M64.5913,222.58h -7.39843" fill="none" stroke="black"/>
<path d="M64.5913,210.378h -7.39843" fill="none" stroke="black"/>
<path d="M64.5913,198.175h -7.39843" fill="none" stroke="black"/>
<path d="M64.5913,185.973h -7.39843" fill="none" stroke="black"/>
<path d="M71.9898,173.77h -14.7969" fill="none" stroke="black"/>
<path d="M64.5913,161.568h -7.39843" fill="none" stroke="black"/>
<path d="M64.5913,149.365h -7.39843" fill="none" stroke="black"/>
<path d="M64.5913,137.163h -7.39843" fill="none" stroke="black"/>
<path d="M64.5913,124.96h -7.39843" fill="none" stroke="black"/>
<path d="M71.9898,112.758h -14.7969" fill="none" stroke="black"/>
<path d="M64.5913,100.555h -7.39843" fill="none" stroke="black"/>
<path d="M64.5913,88.3529h -7.39843" fill="none" stroke="black"/>
<path d="M64.5913,76.1504h -7.39843" fill="none" stroke="black"/>
<path d="M64.5913,63.9479h -7.39843" fill="none" stroke="black"/>
<path d="M71.9898,51.7454h -14.7969" fill="none" stroke="black"/>
<path d="M71.9898,478.832h -14.7969" fill="none" stroke="black"/>
<path d="M64.5913,491.035h -7.39843" fill="none" stroke="black"/>
<path d="M71.9898,51.7454h -14.7969" fill="none" stroke="black"/>
<path d="M64.5913,39.5429h -7.39843" fill="none" stroke="black"/>
<path d="M64.5913,27.3404h -7.39843" fill="none" stroke="black"/>
<text xml:space="preserve" x="34.8764" y="484.088" fill="black" font-size="16.0105" font-family="Helvetica">0.1</text>
<text xml:space="preserve" x="26.4232" y="484.088" fill="black" font-size="16.0105" font-family="Times">&#8722;</text>
<text xml:space="preserve" x="45.5838" y="423.224" fill="black" font-size="16.0105" font-family="Helvetica">0</text>
<text xml:space="preserve" x="34.8764" y="362.361" fill="black" font-size="16.0105" font-family="Helvetica">0.1</text>
<text xml:space="preserve" x="32.6222" y="300.935" fill="black" font-size="16.0105" font-family="Helvetica">0.2</text>
<text xml:space="preserve" x="32.6222" y="240.071" fill="black" font-size="16.0105" font-family="Helvetica">0.3</text>
<text xml:space="preserve" x="32.6222" y="179.208" fill="black" font-size="16.0105" font-family="Helvetica">0.4</text>
<text xml:space="preserve" x="32.6222" y="118.345" fill="black" font-size="16.0105" font-family="Helvetica">0.5</text>
<text xml:space="preserve" x="32.6222" y="56.9183" fill="black" font-size="16.0105" font-family="Helvetica">0.6</text>
<g transform="rotate(-90,22.4784,21.9784)">
<text xml:space="preserve" x="22.4784" y="21.9784" fill="black" font-size="10.8403" font-family="Times">&#0947;</text>
</g>
<g transform="rotate(-90,18.5335,25.9232)">
<text xml:space="preserve" x="18.5335" y="25.9232" fill="black" font-size="7.39355" font-family="Helvetica">0</text>
</g>
<g transform="rotate(-90,22.4784,32.1222)">
<text xml:space="preserve" x="22.4784" y="32.1222" fill="black" font-size="10.8403" font-family="Times">&#0960;</text>
</g>
<g transform="rotate(-90,17.4064,45.0838)">
<text xml:space="preserve" x="17.4064" y="45.0838" fill="black" font-size="16.0105" font-family="Helvetica" font-style="oblique">N</text>
</g>
<path d="M553.256,498.064v -481.461" fill="none" stroke="black"/>
<path d="M538.459,478.832h 14.7969" fill="none" stroke="black"/>
<path d="M545.857,466.63h 7.39843" fill="none" stroke="black"/>
<path d="M545.857,454.427h 7.39843" fill="none" stroke="black"/>
<path d="M545.857,442.225h 7.39843" fill="none" stroke="black"/>
<path d="M545.857,430.023h 7.39843" fill="none" stroke="black"/>
<path d="M538.459,417.82h 14.7969" fill="none" stroke="black"/>
<path d="M545.857,405.618h 7.39843" fill="none" stroke="black"/>
<path d="M545.857,393.415h 7.39843" fill="none" stroke="black"/>
<path d="M545.857,381.213h 7.39843" fill="none" stroke="black"/>
<path d="M545.857,369.01h 7.39843" fill="none" stroke="black"/>
<path d="M538.459,356.808h 14.7969" fill="none" stroke="black"/>
<path d="M545.857,344.605h 7.39843" fill="none" stroke="black"/>
<path d="M545.857,332.403h 7.39843" fill="none" stroke="black"/>
<path d="M545.857,320.2h 7.39843" fill="none" stroke="black"/>
<path d="M545.857,307.998h 7.39843" fill="none" stroke="black"/>
<path d="M538.459,295.795h 14.7969" fill="none" stroke="black"/>
<path d="M545.857,283.593h 7.39843" fill="none" stroke="black"/>
<path d="M545.857,271.39h 7.39843" fill="none" stroke="black"/>
<path d="M545.857,259.188h 7.39843" fill="none" stroke="black"/>
<path d="M545.857,246.985h 7.39843" fill="none" stroke="black"/>
<path d="M538.459,234.783h 14.7969" fill="none" stroke="black"/>
<path d="M545.857,222.58h 7.39843" fill="none" stroke="black"/>
<path d="M545.857,210.378h 7.39843" fill="none" stroke="black"/>
<path d="M545.857,198.175h 7.39843" fill="none" stroke="black"/>
<path d="M545.857,185.973h 7.39843" fill="none" stroke="black"/>
<path d="M538.459,173.77h 14.7969" fill="none" stroke="black"/>
<path d="M545.857,161.568h 7.39843" fill="none" stroke="black"/>
<path d="M545.857,149.365h 7.39843" fill="none" stroke="black"/>
<path d="M545.857,137.163h 7.39843" fill="none" stroke="black"/>
<path d="M545.857,124.96h 7.39843" fill="none" stroke="black"/>
<path d="M538.459,112.758h 14.7969" fill="none" stroke="black"/>
<path d="M545.857,100.555h 7.39843" fill="none" stroke="black"/>
<path d="M545.857,88.3529h 7.39843" fill="none" stroke="black"/>
<path d="M545.857,76.1504h 7.39843" fill="none" stroke="black"/>
<path d="M545.857,63.9479h 7.39843" fill="none" stroke="black"/>
<path d="M538.459,51.7454h 14.7969" fill="none" stroke="black"/>
<path d="M538.459,478.832h 14.7969" fill="none" stroke="black"/>
<path d="M545.857,491.035h 7.39843" fill="none" stroke="black"/>
<path d="M538.459,51.7454h 14.7969" fill="none" stroke="black"/>
<path d="M545.857,39.5429h 7.39843" fill="none" stroke="black"/>
<path d="M545.857,27.3404h 7.39843" fill="none" stroke="black"/>
<path d="M499.759,498.064v -44.0041" fill="none" stroke="#33cccc" stroke-width="2"/>
<path d="M499.759,445.043v -91.7555" fill="none" stroke="#33cccc" stroke-width="2"/>
<path d="M494.896,449.551h 0.35498" fill="none" stroke="#33cccc" stroke-width="2"/>
<path d="M504.267,449.551h 0.35498" fill="none" stroke="#33cccc" stroke-width="2"/>
<g stroke="#33cccc" stroke-width="2" fill="none">
<rect x="495.251" y="445.043" width="9.01677" height="9.01677"/>
</g>
<path d="M519.212,498.064v -13.476" fill="none" stroke="#33cccc" stroke-width="2"/>
<path d="M519.212,475.571v -88.2298" fill="none" stroke="#33cccc" stroke-width="2"/>
<path d="M514.349,480.079h 0.35498" fill="none" stroke="#33cccc" stroke-width="2"/>
<path d="M523.721,480.079h 0.35498" fill="none" stroke="#33cccc" stroke-width="2"/>
<g stroke="#33cccc" stroke-width="2" fill="none">
<rect x="514.704" y="475.571" width="9.01677" height="9.01677"/>
</g>
<path d="M528.939,453.66v -87.1519" fill="none" stroke="#33cccc" stroke-width="2"/>
<path d="M528.939,357.491v -87.1519" fill="none" stroke="#33cccc" stroke-width="2"/>
<path d="M524.076,361.999h 0.35498" fill="none" stroke="#33cccc" stroke-width="2"/>
<path d="M533.447,361.999h 0.35498" fill="none" stroke="#33cccc" stroke-width="2"/>
<g stroke="#33cccc" stroke-width="2" fill="none">
<rect x="524.431" y="357.491" width="9.01677" height="9.01677"/>
</g>
<path d="M538.666,236.221v -86.2331" fill="none" stroke="#33cccc" stroke-width="2"/>
<path d="M538.666,140.971v -86.2331" fill="none" stroke="#33cccc" stroke-width="2"/>
<path d="M533.802,145.479h 0.35498" fill="none" stroke="#33cccc" stroke-width="2"/>
<path d="M543.174,145.479h 0.35498" fill="none" stroke="#33cccc" stroke-width="2"/>
<g stroke="#33cccc" stroke-width="2" fill="none">
<rect x="534.157" y="140.971" width="9.01677" height="9.01677"/>
</g>
<path d="M548.393,306.642v -84.8294" fill="none" stroke="#33cccc" stroke-width="2"/>
<path d="M548.393,212.796v -84.8294" fill="none" stroke="#33cccc" stroke-width="2"/>
<path d="M543.529,217.304h 0.35498" fill="none" stroke="#33cccc" stroke-width="2"/>
<path d="M552.901,217.304h 0.35498" fill="none" stroke="#33cccc" stroke-width="2"/>
<g stroke="#33cccc" stroke-width="2" fill="none">
<rect x="543.884" y="212.796" width="9.01677" height="9.01677"/>
</g>
<path d="M62.0563,498.064v -101.296" fill="none" stroke="#ff0066" stroke-width="2"/>
<path d="M62.0563,396.768v -253.597" fill="none" stroke="#ff0066" stroke-width="2"/>
<path d="M57.1929,396.768h 4.86336" fill="none" stroke="#ff0066" stroke-width="2"/>
<path d="M62.0563,396.768h 4.86336" fill="none" stroke="#ff0066" stroke-width="2"/>
<g stroke="#ff0066" stroke-width="2" fill="none">
<line x1="61.0563" y1="396.768" x2="62.0563" y2="396.768"/>
</g>
<path d="M149.597,289.979v -201.158" fill="none" stroke="#ff0066" stroke-width="2"/>
<path d="M149.597,88.8204v -72.2183" fill="none" stroke="#ff0066" stroke-width="2"/>
<path d="M144.733,88.8204h 4.86336" fill="none" stroke="#ff0066" stroke-width="2"/>
<path d="M149.597,88.8204h 4.86336" fill="none" stroke="#ff0066" stroke-width="2"/>
<g stroke="#ff0066" stroke-width="2" fill="none">
<line x1="148.597" y1="88.8204" x2="149.597" y2="88.8204"/>
</g>
<path d="M159.324,498.064v -84.4499" fill="none" stroke="#ff0066" stroke-width="2"/>
<path d="M159.324,413.614v -195.709" fill="none" stroke="#ff0066" stroke-width="2"/>
<path d="M154.46,413.614h 4.86336" fill="none" stroke="#ff0066" stroke-width="2"/>
<path d="M159.324,413.614h 4.86336" fill="none" stroke="#ff0066" stroke-width="2"/>
<g stroke="#ff0066" stroke-width="2" fill="none">
<line x1="158.324" y1="413.614" x2="159.324" y2="413.614"/>
</g>
<path d="M169.05,498.064v -162.043" fill="none" stroke="#ff0066" stroke-width="2"/>
<path d="M169.05,336.021v -190.921" fill="none" stroke="#ff0066" stroke-width="2"/>
<path d="M164.187,336.021h 4.86336" fill="none" stroke="#ff0066" stroke-width="2"/>
<path d="M169.05,336.021h 4.86336" fill="none" stroke="#ff0066" stroke-width="2"/>
<g stroke="#ff0066" stroke-width="2" fill="none">
<line x1="168.05" y1="336.021" x2="169.05" y2="336.021"/>
</g>
<path d="M178.777,360.609v -186.083" fill="none" stroke="#ff0066" stroke-width="2"/>
<path d="M178.777,174.527v -157.925" fill="none" stroke="#ff0066" stroke-width="2"/>
<path d="M173.914,174.527h 4.86336" fill="none" stroke="#ff0066" stroke-width="2"/>
<path d="M178.777,174.527h 4.86336" fill="none" stroke="#ff0066" stroke-width="2"/>
<g stroke="#ff0066" stroke-width="2" fill="none">
<line x1="177.777" y1="174.527" x2="178.777" y2="174.527"/>
</g>
<path d="M314.951,316.66v -135.2" fill="none" stroke="#ff0066" stroke-width="2"/>
<path d="M314.951,181.461v -135.2" fill="none" stroke="#ff0066" stroke-width="2"/>
<path d="M310.088,181.461h 4.86336" fill="none" stroke="#ff0066" stroke-width="2"/>
<path d="M314.951,181.461h 4.86336" fill="none" stroke="#ff0066" stroke-width="2"/>
<g stroke="#ff0066" stroke-width="2" fill="none">
<line x1="313.951" y1="181.461" x2="314.951" y2="181.461"/>
</g>
<path d="M324.678,198.161v -132.397" fill="none" stroke="#ff0066" stroke-width="2"/>
<path d="M324.678,65.7638v -49.1617" fill="none" stroke="#ff0066" stroke-width="2"/>
<path d="M319.814,65.7638h 4.86336" fill="none" stroke="#ff0066" stroke-width="2"/>
<path d="M324.678,65.7638h 4.86336" fill="none" stroke="#ff0066" stroke-width="2"/>
<g stroke="#ff0066" stroke-width="2" fill="none">
<line x1="323.678" y1="65.7638" x2="324.678" y2="65.7638"/>
</g>
<path d="M334.405,204.666v -129.728" fill="none" stroke="#ff0066" stroke-width="2"/>
<path d="M334.405,74.9376v -58.3354" fill="none" stroke="#ff0066" stroke-width="2"/>
<path d="M329.541,74.9376h 4.86336" fill="none" stroke="#ff0066" stroke-width="2"/>
<path d="M334.405,74.9376h 4.86336" fill="none" stroke="#ff0066" stroke-width="2"/>
<g stroke="#ff0066" stroke-width="2" fill="none">
<line x1="333.405" y1="74.9376" x2="334.405" y2="74.9376"/>
</g>
<path d="M344.131,413.349v -127.174" fill="none" stroke="#ff0066" stroke-width="2"/>
<path d="M344.131,286.175v -127.174" fill="none" stroke="#ff0066" stroke-width="2"/>
<path d="M339.268,286.175h 4.86336" fill="none" stroke="#ff0066" stroke-width="2"/>
<path d="M344.131,286.175h 4.86336" fill="none" stroke="#ff0066" stroke-width="2"/>
<g stroke="#ff0066" stroke-width="2" fill="none">
<line x1="343.131" y1="286.175" x2="344.131" y2="286.175"/>
</g>
<path d="M353.858,399.882v -124.251" fill="none" stroke="#ff0066" stroke-width="2"/>
<path d="M353.858,275.631v -124.251" fill="none" stroke="#ff0066" stroke-width="2"/>
<path d="M348.995,275.631h 4.86336" fill="none" stroke="#ff0066" stroke-width="2"/>
<path d="M353.858,275.631h 4.86336" fill="none" stroke="#ff0066" stroke-width="2"/>
<g stroke="#ff0066" stroke-width="2" fill="none">
<line x1="352.858" y1="275.631" x2="353.858" y2="275.631"/>
</g>
<path d="M363.585,498.064v -121.486" fill="none" stroke="#ff0066" stroke-width="2"/>
<path d="M363.585,376.578v -122.171" fill="none" stroke="#ff0066" stroke-width="2"/>
<path d="M358.721,376.578h 4.86336" fill="none" stroke="#ff0066" stroke-width="2"/>
<path d="M363.585,376.578h 4.86336" fill="none" stroke="#ff0066" stroke-width="2"/>
<g stroke="#ff0066" stroke-width="2" fill="none">
<line x1="362.585" y1="376.578" x2="363.585" y2="376.578"/>
</g>
<path d="M373.311,486.282v -119.678" fill="none" stroke="#ff0066" stroke-width="2"/>
<path d="M373.311,366.604v -119.678" fill="none" stroke="#ff0066" stroke-width="2"/>
<path d="M368.448,366.604h 4.86336" fill="none" stroke="#ff0066" stroke-width="2"/>
<path d="M373.311,366.604h 4.86336" fill="none" stroke="#ff0066" stroke-width="2"/>
<g stroke="#ff0066" stroke-width="2" fill="none">
<line x1="372.311" y1="366.604" x2="373.311" y2="366.604"/>
</g>
<path d="M383.038,498.064v -69.7999" fill="none" stroke="#ff0066" stroke-width="2"/>
<path d="M383.038,428.264v -117.603" fill="none" stroke="#ff0066" stroke-width="2"/>
<path d="M378.175,428.264h 4.86336" fill="none" stroke="#ff0066" stroke-width="2"/>
<path d="M383.038,428.264h 4.86336" fill="none" stroke="#ff0066" stroke-width="2"/>
<g stroke="#ff0066" stroke-width="2" fill="none">
<line x1="382.038" y1="428.264" x2="383.038" y2="428.264"/>
</g>
<path d="M392.765,392.85v -115.692" fill="none" stroke="#ff0066" stroke-width="2"/>
<path d="M392.765,277.158v -115.692" fill="none" stroke="#ff0066" stroke-width="2"/>
<path d="M387.902,277.158h 4.86336" fill="none" stroke="#ff0066" stroke-width="2"/>
<path d="M392.765,277.158h 4.86336" fill="none" stroke="#ff0066" stroke-width="2"/>
<g stroke="#ff0066" stroke-width="2" fill="none">
<line x1="391.765" y1="277.158" x2="392.765" y2="277.158"/>
</g>
<path d="M402.492,498.064v -93.5874" fill="none" stroke="#ff0066" stroke-width="2"/>
<path d="M402.492,404.476v -112.947" fill="none" stroke="#ff0066" stroke-width="2"/>
<path d="M397.628,404.476h 4.86336" fill="none" stroke="#ff0066" stroke-width="2"/>
<path d="M402.492,404.476h 4.86336" fill="none" stroke="#ff0066" stroke-width="2"/>
<g stroke="#ff0066" stroke-width="2" fill="none">
<line x1="401.492" y1="404.476" x2="402.492" y2="404.476"/>
</g>
<path d="M460.852,498.064v -53.9436" fill="none" stroke="#ff0066" stroke-width="2"/>
<path d="M460.852,444.12v -101.692" fill="none" stroke="#ff0066" stroke-width="2"/>
<path d="M455.989,444.12h 4.86336" fill="none" stroke="#ff0066" stroke-width="2"/>
<path d="M460.852,444.12h 4.86336" fill="none" stroke="#ff0066" stroke-width="2"/>
<g stroke="#ff0066" stroke-width="2" fill="none">
<line x1="459.852" y1="444.12" x2="460.852" y2="444.12"/>
</g>
<path d="M499.759,498.064v -3.08975" fill="none" stroke="#ff0066" stroke-width="2"/>
<path d="M499.759,494.974v -96.302" fill="none" stroke="#ff0066" stroke-width="2"/>
<path d="M494.896,494.974h 4.86336" fill="none" stroke="#ff0066" stroke-width="2"/>
<path d="M499.759,494.974h 4.86336" fill="none" stroke="#ff0066" stroke-width="2"/>
<g stroke="#ff0066" stroke-width="2" fill="none">
<line x1="498.759" y1="494.974" x2="499.759" y2="494.974"/>
</g>
<path d="M538.666,445.749v -90.9287" fill="none" stroke="#ff0066" stroke-width="2"/>
<path d="M538.666,354.82v -90.9287" fill="none" stroke="#ff0066" stroke-width="2"/>
<path d="M533.802,354.82h 4.86336" fill="none" stroke="#ff0066" stroke-width="2"/>
<path d="M538.666,354.82h 4.86336" fill="none" stroke="#ff0066" stroke-width="2"/>
<g stroke="#ff0066" stroke-width="2" fill="none">
<line x1="537.666" y1="354.82" x2="538.666" y2="354.82"/>
</g>
<path d="M548.393,498.064v -31.4992" fill="none" stroke="#ff0066" stroke-width="2"/>
<path d="M548.393,466.564v -89.5621" fill="none" stroke="#ff0066" stroke-width="2"/>
<path d="M543.529,466.564h 4.86336" fill="none" stroke="#ff0066" stroke-width="2"/>
<path d="M548.393,466.564h 4.86336" fill="none" stroke="#ff0066" stroke-width="2"/>
<g stroke="#ff0066" stroke-width="2" fill="none">
<line x1="547.393" y1="466.564" x2="548.393" y2="466.564"/>
</g>
<text xml:space="preserve" x="360.607" y="50.7193" fill="black" font-size="16.0105" font-family="Helvetica"> with EMC</text>
<text xml:space="preserve" x="352.717" y="50.7193" fill="black" font-size="16.0105" font-family="Times">&#0947;</text>
<text xml:space="preserve" x="344.828" y="50.7193" fill="black" font-size="16.0105" font-family="Times">&#0947;</text>
<text xml:space="preserve" x="336.938" y="50.7193" fill="black" font-size="16.0105" font-family="Times">&#0947;</text>
<text xml:space="preserve" x="331.866" y="50.7193" fill="black" font-size="16.0105" font-family="Helvetica"> </text>
<text xml:space="preserve" x="316.65" y="50.7193" fill="black" font-size="16.0105" font-family="Times">&#8594;</text>
<text xml:space="preserve" x="311.578" y="50.7193" fill="black" font-size="16.0105" font-family="Helvetica"> </text>
<text xml:space="preserve" x="303.689" y="50.7193" fill="black" font-size="16.0105" font-family="Times">&#0947;</text>
<text xml:space="preserve" x="298.053" y="45.0838" fill="black" font-size="10.8403" font-family="Helvetica">0</text>
<text xml:space="preserve" x="289.6" y="50.7193" fill="black" font-size="16.0105" font-family="Times">&#0960;</text>
<text xml:space="preserve" x="284.528" y="50.7193" fill="black" font-size="16.0105" font-family="Helvetica"> </text>
<text xml:space="preserve" x="269.312" y="50.7193" fill="black" font-size="16.0105" font-family="Times">&#8594;</text>
<text xml:space="preserve" x="264.24" y="50.7193" fill="black" font-size="16.0105" font-family="Helvetica"> </text>
<text xml:space="preserve" x="252.969" y="50.7193" fill="black" font-size="16.0105" font-family="Times">&#0969;</text>
<text xml:space="preserve" x="128.989" y="50.7193" fill="black" font-size="16.0105" font-family="Helvetica"> = 13 TeV (EG1), </text>
<text xml:space="preserve" x="120.536" y="50.7193" fill="black" font-size="16.0105" font-family="Helvetica" font-style="oblique">s</text>
<path d="M114.9,41.7025l 1.69064, 9.58031" fill="none" stroke="black" stroke-width="2"/>
<path d="M116.591,51.2829l 2.25419, -14.0887" fill="none" stroke="black"/>
<path d="M118.845,37.1942h 10.1439" fill="none" stroke="black"/>
<text xml:space="preserve" x="89.5406" y="50.7193" fill="black" font-size="16.0105" font-family="Helvetica">pp </text>
<text xml:space="preserve" x="89.5406" y="85.6593" fill="black" font-size="16.0105" font-family="Helvetica">ALICE work in progress</text>
<text xml:space="preserve" x="205.068" y="120.599" fill="black" font-size="16.0105" font-family="Helvetica">) &lt; 6.0</text>
<text xml:space="preserve" x="196.051" y="120.599" fill="black" font-size="16.0105" font-family="Helvetica" font-style="oblique">c</text>
<text xml:space="preserve" x="145.895" y="120.599" fill="black" font-size="16.0105" font-family="Helvetica"> /(GeV/</text>
<text xml:space="preserve" x="139.133" y="128.489" fill="black" font-size="10.8403" font-family="Helvetica">T</text>
<text xml:space="preserve" x="129.552" y="120.599" fill="black" font-size="16.0105" font-family="Helvetica" font-style="oblique">p</text>
<text xml:space="preserve" x="124.481" y="120.599" fill="black" font-size="16.0105" font-family="Helvetica"> </text>
<text xml:space="preserve" x="116.027" y="120.599" fill="black" font-size="16.0105" font-family="Times">&#8804;</text>
<text xml:space="preserve" x="89.5406" y="120.599" fill="black" font-size="16.0105" font-family="Helvetica">4.0 </text>
<rect x="312.311" y="69.1755" width="198.425" height="113.448" fill="white"/>
<text xml:space="preserve" x="361.734" y="92.4219" fill="black" font-size="16.0105" font-family="Helvetica">true signal</text>
<path d="M319.752,88.0835h 34.7244" fill="none" stroke="black" stroke-width="2"/>
<g fill="black">
<circle cx="337.114" cy="88.0835" r="6.76257"/>
</g>
<text xml:space="preserve" x="361.734" y="130.18" fill="black" font-size="16.0105" font-family="Helvetica">extracted signal pol1</text>
<path d="M319.752,125.899h 34.7244" fill="none" stroke="#33cccc" stroke-width="2"/>
<g stroke="#33cccc" stroke-width="2" fill="none">
<rect x="332.606" y="121.391" width="9.01677" height="9.01677"/>
</g>
<text xml:space="preserve" x="361.734" y="167.937" fill="black" font-size="16.0105" font-family="Helvetica">extracted signal pol2</text>
<path d="M319.752,163.715h 34.7244" fill="none" stroke="#ff0066" stroke-width="2"/>
<g stroke="#ff0066" stroke-width="2" fill="none">
<line x1="336.114" y1="163.715" x2="337.114" y2="163.715"/>
</g></svg>
