<?xml version="1.0" standalone="no"?>
<svg width="567.429" height="553.904" viewBox="0 0 567.429 553.904" xmlns="http://www.w3.org/2000/svg" shape-rendering="crispEdges">
<title>
MC/MB1/OmegaRotPS/SameEventAndBackgroundBeforeScaling_03.svg
</title>
<desc>
Creator: ROOT Version 6.20/08
CreationDate: Mon Mar 29 21:28:58 2021</desc>
<defs>
</defs>
<rect x="0.5" y="0" width="566.929" height="553.404" fill="white"/>
<rect x="57.1929" y="16.6021" width="496.063" height="481.461" fill="white"/>
<rect x="57.1929" y="16.6021" width="496.063" height="481.461" fill="none" stroke="black"/>
<rect x="57.1929" y="16.6021" width="496.063" height="481.461" fill="white"/>
<rect x="57.1929" y="16.6021" width="496.063" height="481.461" fill="none" stroke="black"/>
<g fill="#993333">
<rect x="94.4324" y="493.068" width="9.01677" height="9.01677"/>
</g>
<g fill="#993333">
<rect x="99.3439" y="451.373" width="9.01677" height="9.01677"/>
</g>
<g fill="#993333">
<rect x="104.255" y="393.459" width="9.01677" height="9.01677"/>
</g>
<g fill="#993333">
<rect x="109.167" y="403.953" width="9.01677" height="9.01677"/>
</g>
<g fill="#993333">
<rect x="114.078" y="456.866" width="9.01677" height="9.01677"/>
</g>
<g fill="#993333">
<rect x="118.99" y="411.4" width="9.01677" height="9.01677"/>
</g>
<g fill="#993333">
<rect x="123.901" y="332.167" width="9.01677" height="9.01677"/>
</g>
<g fill="#993333">
<rect x="128.813" y="323.087" width="9.01677" height="9.01677"/>
</g>
<g fill="#993333">
<rect x="133.725" y="309.396" width="9.01677" height="9.01677"/>
</g>
<g fill="#993333">
<rect x="138.636" y="284.905" width="9.01677" height="9.01677"/>
</g>
<g fill="#993333">
<rect x="143.548" y="265.752" width="9.01677" height="9.01677"/>
</g>
<g fill="#993333">
<rect x="148.459" y="252.916" width="9.01677" height="9.01677"/>
</g>
<g fill="#993333">
<rect x="153.371" y="242.674" width="9.01677" height="9.01677"/>
</g>
<g fill="#993333">
<rect x="158.282" y="236.009" width="9.01677" height="9.01677"/>
</g>
<g fill="#993333">
<rect x="163.194" y="230.976" width="9.01677" height="9.01677"/>
</g>
<g fill="#993333">
<rect x="168.105" y="228.679" width="9.01677" height="9.01677"/>
</g>
<g fill="#993333">
<rect x="173.017" y="226.194" width="9.01677" height="9.01677"/>
</g>
<g fill="#993333">
<rect x="177.928" y="226.077" width="9.01677" height="9.01677"/>
</g>
<g fill="#993333">
<rect x="182.84" y="227.063" width="9.01677" height="9.01677"/>
</g>
<g fill="#993333">
<rect x="187.751" y="228.72" width="9.01677" height="9.01677"/>
</g>
<g fill="#993333">
<rect x="192.663" y="230.714" width="9.01677" height="9.01677"/>
</g>
<g fill="#993333">
<rect x="197.574" y="233.775" width="9.01677" height="9.01677"/>
</g>
<g fill="#993333">
<rect x="202.486" y="237.879" width="9.01677" height="9.01677"/>
</g>
<g fill="#993333">
<rect x="207.397" y="242.242" width="9.01677" height="9.01677"/>
</g>
<g fill="#993333">
<rect x="212.309" y="247.411" width="9.01677" height="9.01677"/>
</g>
<g fill="#993333">
<rect x="217.22" y="253.581" width="9.01677" height="9.01677"/>
</g>
<g fill="#993333">
<rect x="222.132" y="259.793" width="9.01677" height="9.01677"/>
</g>
<g fill="#993333">
<rect x="227.043" y="266.503" width="9.01677" height="9.01677"/>
</g>
<g fill="#993333">
<rect x="231.955" y="274.205" width="9.01677" height="9.01677"/>
</g>
<g fill="#993333">
<rect x="236.866" y="281.1" width="9.01677" height="9.01677"/>
</g>
<g fill="#993333">
<rect x="241.778" y="289.206" width="9.01677" height="9.01677"/>
</g>
<g fill="#993333">
<rect x="246.689" y="297.065" width="9.01677" height="9.01677"/>
</g>
<g fill="#993333">
<rect x="251.601" y="305.057" width="9.01677" height="9.01677"/>
</g>
<g fill="#993333">
<rect x="256.512" y="313.999" width="9.01677" height="9.01677"/>
</g>
<g fill="#993333">
<rect x="261.424" y="321.571" width="9.01677" height="9.01677"/>
</g>
<g fill="#993333">
<rect x="266.335" y="328.684" width="9.01677" height="9.01677"/>
</g>
<g fill="#993333">
<rect x="271.247" y="335.728" width="9.01677" height="9.01677"/>
</g>
<g fill="#993333">
<rect x="276.158" y="343.256" width="9.01677" height="9.01677"/>
</g>
<g fill="#993333">
<rect x="281.07" y="349.996" width="9.01677" height="9.01677"/>
</g>
<g fill="#993333">
<rect x="285.981" y="356.368" width="9.01677" height="9.01677"/>
</g>
<g fill="#993333">
<rect x="290.893" y="362.67" width="9.01677" height="9.01677"/>
</g>
<g fill="#993333">
<rect x="295.805" y="368.829" width="9.01677" height="9.01677"/>
</g>
<g fill="#993333">
<rect x="300.716" y="374.279" width="9.01677" height="9.01677"/>
</g>
<g fill="#993333">
<rect x="305.628" y="379.578" width="9.01677" height="9.01677"/>
</g>
<g fill="#993333">
<rect x="310.539" y="385.089" width="9.01677" height="9.01677"/>
</g>
<g fill="#993333">
<rect x="315.451" y="389.948" width="9.01677" height="9.01677"/>
</g>
<g fill="#993333">
<rect x="320.362" y="394.555" width="9.01677" height="9.01677"/>
</g>
<g fill="#993333">
<rect x="325.274" y="398.888" width="9.01677" height="9.01677"/>
</g>
<g fill="#993333">
<rect x="330.185" y="403.157" width="9.01677" height="9.01677"/>
</g>
<g fill="#993333">
<rect x="335.097" y="407.177" width="9.01677" height="9.01677"/>
</g>
<g fill="#993333">
<rect x="340.008" y="410.997" width="9.01677" height="9.01677"/>
</g>
<g fill="#993333">
<rect x="344.92" y="414.957" width="9.01677" height="9.01677"/>
</g>
<g fill="#993333">
<rect x="349.831" y="418.178" width="9.01677" height="9.01677"/>
</g>
<g fill="#993333">
<rect x="354.743" y="421.359" width="9.01677" height="9.01677"/>
</g>
<g fill="#993333">
<rect x="359.654" y="424.336" width="9.01677" height="9.01677"/>
</g>
<g fill="#993333">
<rect x="364.566" y="427.001" width="9.01677" height="9.01677"/>
</g>
<g fill="#993333">
<rect x="369.477" y="430.4" width="9.01677" height="9.01677"/>
</g>
<g fill="#993333">
<rect x="374.389" y="432.78" width="9.01677" height="9.01677"/>
</g>
<g fill="#993333">
<rect x="379.3" y="435.085" width="9.01677" height="9.01677"/>
</g>
<g fill="#993333">
<rect x="384.212" y="437.28" width="9.01677" height="9.01677"/>
</g>
<g fill="#993333">
<rect x="389.123" y="439.541" width="9.01677" height="9.01677"/>
</g>
<g fill="#993333">
<rect x="394.035" y="441.997" width="9.01677" height="9.01677"/>
</g>
<g fill="#993333">
<rect x="398.946" y="443.629" width="9.01677" height="9.01677"/>
</g>
<g fill="#993333">
<rect x="403.858" y="446.077" width="9.01677" height="9.01677"/>
</g>
<g fill="#993333">
<rect x="408.769" y="447.832" width="9.01677" height="9.01677"/>
</g>
<g fill="#993333">
<rect x="413.681" y="449.837" width="9.01677" height="9.01677"/>
</g>
<g fill="#993333">
<rect x="418.592" y="451.41" width="9.01677" height="9.01677"/>
</g>
<g fill="#993333">
<rect x="423.504" y="452.994" width="9.01677" height="9.01677"/>
</g>
<g fill="#993333">
<rect x="428.415" y="454.215" width="9.01677" height="9.01677"/>
</g>
<g fill="#993333">
<rect x="433.327" y="456.07" width="9.01677" height="9.01677"/>
</g>
<g fill="#993333">
<rect x="438.238" y="457.246" width="9.01677" height="9.01677"/>
</g>
<g fill="#993333">
<rect x="443.15" y="458.633" width="9.01677" height="9.01677"/>
</g>
<g fill="#993333">
<rect x="448.061" y="460.025" width="9.01677" height="9.01677"/>
</g>
<g fill="#993333">
<rect x="452.973" y="460.796" width="9.01677" height="9.01677"/>
</g>
<g fill="#993333">
<rect x="457.884" y="462.13" width="9.01677" height="9.01677"/>
</g>
<g fill="#993333">
<rect x="462.796" y="463.156" width="9.01677" height="9.01677"/>
</g>
<g fill="#993333">
<rect x="467.708" y="464.296" width="9.01677" height="9.01677"/>
</g>
<g fill="#993333">
<rect x="472.619" y="465.216" width="9.01677" height="9.01677"/>
</g>
<g fill="#993333">
<rect x="477.531" y="466.213" width="9.01677" height="9.01677"/>
</g>
<g fill="#993333">
<rect x="482.442" y="466.937" width="9.01677" height="9.01677"/>
</g>
<g fill="#993333">
<rect x="487.354" y="467.82" width="9.01677" height="9.01677"/>
</g>
<g fill="#993333">
<rect x="492.265" y="468.774" width="9.01677" height="9.01677"/>
</g>
<g fill="#993333">
<rect x="497.177" y="469.51" width="9.01677" height="9.01677"/>
</g>
<g fill="#993333">
<rect x="502.088" y="470.172" width="9.01677" height="9.01677"/>
</g>
<g fill="#993333">
<rect x="507" y="470.799" width="9.01677" height="9.01677"/>
</g>
<g fill="#993333">
<rect x="511.911" y="471.488" width="9.01677" height="9.01677"/>
</g>
<g fill="#993333">
<rect x="516.823" y="472.149" width="9.01677" height="9.01677"/>
</g>
<g fill="#993333">
<rect x="521.734" y="472.567" width="9.01677" height="9.01677"/>
</g>
<g fill="#993333">
<rect x="526.646" y="473.229" width="9.01677" height="9.01677"/>
</g>
<g fill="#993333">
<rect x="531.557" y="473.953" width="9.01677" height="9.01677"/>
</g>
<g fill="#993333">
<rect x="536.469" y="474.357" width="9.01677" height="9.01677"/>
</g>
<g fill="#993333">
<rect x="541.38" y="474.857" width="9.01677" height="9.01677"/>
</g>
<path d="M57.1929,498.064h 496.063" fill="none" stroke="black"/>
<path d="M57.1929,483.537v 14.5269" fill="none" stroke="black"/>
<path d="M72.5414,490.8v 7.26343" fill="none" stroke="black"/>
<path d="M87.8899,490.8v 7.26343" fill="none" stroke="black"/>
<path d="M103.238,490.8v 7.26343" fill="none" stroke="black"/>
<path d="M118.587,483.537v 14.5269" fill="none" stroke="black"/>
<path d="M133.935,490.8v 7.26343" fill="none" stroke="black"/>
<path d="M149.284,490.8v 7.26343" fill="none" stroke="black"/>
<path d="M164.632,490.8v 7.26343" fill="none" stroke="black"/>
<path d="M179.981,483.537v 14.5269" fill="none" stroke="black"/>
<path d="M195.329,490.8v 7.26343" fill="none" stroke="black"/>
<path d="M210.678,490.8v 7.26343" fill="none" stroke="black"/>
<path d="M226.026,490.8v 7.26343" fill="none" stroke="black"/>
<path d="M241.375,483.537v 14.5269" fill="none" stroke="black"/>
<path d="M256.723,490.8v 7.26343" fill="none" stroke="black"/>
<path d="M272.072,490.8v 7.26343" fill="none" stroke="black"/>
<path d="M287.42,490.8v 7.26343" fill="none" stroke="black"/>
<path d="M302.769,483.537v 14.5269" fill="none" stroke="black"/>
<path d="M318.117,490.8v 7.26343" fill="none" stroke="black"/>
<path d="M333.466,490.8v 7.26343" fill="none" stroke="black"/>
<path d="M348.814,490.8v 7.26343" fill="none" stroke="black"/>
<path d="M364.163,483.537v 14.5269" fill="none" stroke="black"/>
<path d="M379.511,490.8v 7.26343" fill="none" stroke="black"/>
<path d="M394.86,490.8v 7.26343" fill="none" stroke="black"/>
<path d="M410.208,490.8v 7.26343" fill="none" stroke="black"/>
<path d="M425.557,483.537v 14.5269" fill="none" stroke="black"/>
<path d="M440.905,490.8v 7.26343" fill="none" stroke="black"/>
<path d="M456.253,490.8v 7.26343" fill="none" stroke="black"/>
<path d="M471.602,490.8v 7.26343" fill="none" stroke="black"/>
<path d="M486.95,483.537v 14.5269" fill="none" stroke="black"/>
<path d="M502.299,490.8v 7.26343" fill="none" stroke="black"/>
<path d="M517.647,490.8v 7.26343" fill="none" stroke="black"/>
<path d="M532.996,490.8v 7.26343" fill="none" stroke="black"/>
<path d="M548.344,483.537v 14.5269" fill="none" stroke="black"/>
<path d="M548.344,483.537v 14.5269" fill="none" stroke="black"/>
<text xml:space="preserve" x="52.3464" y="513.956" fill="black" font-size="16.0105" font-family="Helvetica">0</text>
<text xml:space="preserve" x="107.574" y="513.956" fill="black" font-size="16.0105" font-family="Helvetica">0.2</text>
<text xml:space="preserve" x="169.001" y="513.956" fill="black" font-size="16.0105" font-family="Helvetica">0.4</text>
<text xml:space="preserve" x="230.428" y="513.956" fill="black" font-size="16.0105" font-family="Helvetica">0.6</text>
<text xml:space="preserve" x="291.854" y="513.956" fill="black" font-size="16.0105" font-family="Helvetica">0.8</text>
<text xml:space="preserve" x="361.171" y="513.956" fill="black" font-size="16.0105" font-family="Helvetica">1</text>
<text xml:space="preserve" x="414.708" y="513.956" fill="black" font-size="16.0105" font-family="Helvetica">1.2</text>
<text xml:space="preserve" x="476.134" y="513.956" fill="black" font-size="16.0105" font-family="Helvetica">1.4</text>
<text xml:space="preserve" x="537.561" y="513.956" fill="black" font-size="16.0105" font-family="Helvetica">1.6</text>
<text xml:space="preserve" x="548.268" y="537.625" fill="black" font-size="16.0105" font-family="Helvetica">)</text>
<text xml:space="preserve" x="542.633" y="532.553" fill="black" font-size="10.8403" font-family="Helvetica">2</text>
<text xml:space="preserve" x="533.616" y="537.625" fill="black" font-size="16.0105" font-family="Helvetica" font-style="oblique">c</text>
<text xml:space="preserve" x="487.405" y="537.625" fill="black" font-size="16.0105" font-family="Helvetica"> (GeV/</text>
<text xml:space="preserve" x="473.317" y="542.697" fill="black" font-size="10.8403" font-family="Helvetica">inv</text>
<text xml:space="preserve" x="459.792" y="537.625" fill="black" font-size="16.0105" font-family="Helvetica" font-style="oblique">m</text>
<path d="M57.1929,16.6021h 496.063" fill="none" stroke="black"/>
<path d="M57.1929,31.129v -14.5269" fill="none" stroke="black"/>
<path d="M72.5414,23.8655v -7.26343" fill="none" stroke="black"/>
<path d="M87.8899,23.8655v -7.26343" fill="none" stroke="black"/>
<path d="M103.238,23.8655v -7.26343" fill="none" stroke="black"/>
<path d="M118.587,31.129v -14.5269" fill="none" stroke="black"/>
<path d="M133.935,23.8655v -7.26343" fill="none" stroke="black"/>
<path d="M149.284,23.8655v -7.26343" fill="none" stroke="black"/>
<path d="M164.632,23.8655v -7.26343" fill="none" stroke="black"/>
<path d="M179.981,31.129v -14.5269" fill="none" stroke="black"/>
<path d="M195.329,23.8655v -7.26343" fill="none" stroke="black"/>
<path d="M210.678,23.8655v -7.26343" fill="none" stroke="black"/>
<path d="M226.026,23.8655v -7.26343" fill="none" stroke="black"/>
<path d="M241.375,31.129v -14.5269" fill="none" stroke="black"/>
<path d="M256.723,23.8655v -7.26343" fill="none" stroke="black"/>
<path d="M272.072,23.8655v -7.26343" fill="none" stroke="black"/>
<path d="M287.42,23.8655v -7.26343" fill="none" stroke="black"/>
<path d="M302.769,31.129v -14.5269" fill="none" stroke="black"/>
<path d="M318.117,23.8655v -7.26343" fill="none" stroke="black"/>
<path d="M333.466,23.8655v -7.26343" fill="none" stroke="black"/>
<path d="M348.814,23.8655v -7.26343" fill="none" stroke="black"/>
<path d="M364.163,31.129v -14.5269" fill="none" stroke="black"/>
<path d="M379.511,23.8655v -7.26343" fill="none" stroke="black"/>
<path d="M394.86,23.8655v -7.26343" fill="none" stroke="black"/>
<path d="M410.208,23.8655v -7.26343" fill="none" stroke="black"/>
<path d="M425.557,31.129v -14.5269" fill="none" stroke="black"/>
<path d="M440.905,23.8655v -7.26343" fill="none" stroke="black"/>
<path d="M456.253,23.8655v -7.26343" fill="none" stroke="black"/>
<path d="M471.602,23.8655v -7.26343" fill="none" stroke="black"/>
<path d="M486.95,31.129v -14.5269" fill="none" stroke="black"/>
<path d="M502.299,23.8655v -7.26343" fill="none" stroke="black"/>
<path d="M517.647,23.8655v -7.26343" fill="none" stroke="black"/>
<path d="M532.996,23.8655v -7.26343" fill="none" stroke="black"/>
<path d="M548.344,31.129v -14.5269" fill="none" stroke="black"/>
<path d="M548.344,31.129v -14.5269" fill="none" stroke="black"/>
<path d="M57.1929,498.064v -481.461" fill="none" stroke="black"/>
<path d="M71.9898,498.064h -14.7969" fill="none" stroke="black"/>
<path d="M64.5913,484.437h -7.39843" fill="none" stroke="black"/>
<path d="M64.5913,470.811h -7.39843" fill="none" stroke="black"/>
<path d="M64.5913,457.184h -7.39843" fill="none" stroke="black"/>
<path d="M64.5913,443.557h -7.39843" fill="none" stroke="black"/>
<path d="M71.9898,429.931h -14.7969" fill="none" stroke="black"/>
<path d="M64.5913,416.304h -7.39843" fill="none" stroke="black"/>
<path d="M64.5913,402.678h -7.39843" fill="none" stroke="black"/>
<path d="M64.5913,389.051h -7.39843" fill="none" stroke="black"/>
<path d="M64.5913,375.425h -7.39843" fill="none" stroke="black"/>
<path d="M71.9898,361.798h -14.7969" fill="none" stroke="black"/>
<path d="M64.5913,348.172h -7.39843" fill="none" stroke="black"/>
<path d="M64.5913,334.545h -7.39843" fill="none" stroke="black"/>
<path d="M64.5913,320.919h -7.39843" fill="none" stroke="black"/>
<path d="M64.5913,307.292h -7.39843" fill="none" stroke="black"/>
<path d="M71.9898,293.665h -14.7969" fill="none" stroke="black"/>
<path d="M64.5913,280.039h -7.39843" fill="none" stroke="black"/>
<path d="M64.5913,266.412h -7.39843" fill="none" stroke="black"/>
<path d="M64.5913,252.786h -7.39843" fill="none" stroke="black"/>
<path d="M64.5913,239.159h -7.39843" fill="none" stroke="black"/>
<path d="M71.9898,225.533h -14.7969" fill="none" stroke="black"/>
<path d="M64.5913,211.906h -7.39843" fill="none" stroke="black"/>
<path d="M64.5913,198.28h -7.39843" fill="none" stroke="black"/>
<path d="M64.5913,184.653h -7.39843" fill="none" stroke="black"/>
<path d="M64.5913,171.027h -7.39843" fill="none" stroke="black"/>
<path d="M71.9898,157.4h -14.7969" fill="none" stroke="black"/>
<path d="M64.5913,143.773h -7.39843" fill="none" stroke="black"/>
<path d="M64.5913,130.147h -7.39843" fill="none" stroke="black"/>
<path d="M64.5913,116.52h -7.39843" fill="none" stroke="black"/>
<path d="M64.5913,102.894h -7.39843" fill="none" stroke="black"/>
<path d="M71.9898,89.2673h -14.7969" fill="none" stroke="black"/>
<path d="M64.5913,75.6408h -7.39843" fill="none" stroke="black"/>
<path d="M64.5913,62.0143h -7.39843" fill="none" stroke="black"/>
<path d="M64.5913,48.3877h -7.39843" fill="none" stroke="black"/>
<path d="M64.5913,34.7612h -7.39843" fill="none" stroke="black"/>
<path d="M71.9898,21.1346h -14.7969" fill="none" stroke="black"/>
<path d="M71.9898,21.1346h -14.7969" fill="none" stroke="black"/>
<text xml:space="preserve" x="45.5838" y="503.248" fill="black" font-size="16.0105" font-family="Helvetica">0</text>
<text xml:space="preserve" x="28.1138" y="435.059" fill="black" font-size="16.0105" font-family="Helvetica">100</text>
<text xml:space="preserve" x="28.1138" y="367.433" fill="black" font-size="16.0105" font-family="Helvetica">200</text>
<text xml:space="preserve" x="28.1138" y="299.244" fill="black" font-size="16.0105" font-family="Helvetica">300</text>
<text xml:space="preserve" x="28.1138" y="231.055" fill="black" font-size="16.0105" font-family="Helvetica">400</text>
<text xml:space="preserve" x="28.1138" y="162.865" fill="black" font-size="16.0105" font-family="Helvetica">500</text>
<text xml:space="preserve" x="28.1138" y="94.676" fill="black" font-size="16.0105" font-family="Helvetica">600</text>
<text xml:space="preserve" x="28.1138" y="26.4867" fill="black" font-size="16.0105" font-family="Helvetica">700</text>
<g transform="rotate(-90,22.4784,21.9784)">
<text xml:space="preserve" x="22.4784" y="21.9784" fill="black" font-size="10.8403" font-family="Times">&#0947;</text>
</g>
<g transform="rotate(-90,18.5335,25.9232)">
<text xml:space="preserve" x="18.5335" y="25.9232" fill="black" font-size="7.39355" font-family="Helvetica">0</text>
</g>
<g transform="rotate(-90,22.4784,32.1222)">
<text xml:space="preserve" x="22.4784" y="32.1222" fill="black" font-size="10.8403" font-family="Times">&#0960;</text>
</g>
<g transform="rotate(-90,17.4064,45.0838)">
<text xml:space="preserve" x="17.4064" y="45.0838" fill="black" font-size="16.0105" font-family="Helvetica" font-style="oblique">N</text>
</g>
<path d="M553.256,498.064v -481.461" fill="none" stroke="black"/>
<path d="M538.459,498.064h 14.7969" fill="none" stroke="black"/>
<path d="M545.857,484.437h 7.39843" fill="none" stroke="black"/>
<path d="M545.857,470.811h 7.39843" fill="none" stroke="black"/>
<path d="M545.857,457.184h 7.39843" fill="none" stroke="black"/>
<path d="M545.857,443.557h 7.39843" fill="none" stroke="black"/>
<path d="M538.459,429.931h 14.7969" fill="none" stroke="black"/>
<path d="M545.857,416.304h 7.39843" fill="none" stroke="black"/>
<path d="M545.857,402.678h 7.39843" fill="none" stroke="black"/>
<path d="M545.857,389.051h 7.39843" fill="none" stroke="black"/>
<path d="M545.857,375.425h 7.39843" fill="none" stroke="black"/>
<path d="M538.459,361.798h 14.7969" fill="none" stroke="black"/>
<path d="M545.857,348.172h 7.39843" fill="none" stroke="black"/>
<path d="M545.857,334.545h 7.39843" fill="none" stroke="black"/>
<path d="M545.857,320.919h 7.39843" fill="none" stroke="black"/>
<path d="M545.857,307.292h 7.39843" fill="none" stroke="black"/>
<path d="M538.459,293.665h 14.7969" fill="none" stroke="black"/>
<path d="M545.857,280.039h 7.39843" fill="none" stroke="black"/>
<path d="M545.857,266.412h 7.39843" fill="none" stroke="black"/>
<path d="M545.857,252.786h 7.39843" fill="none" stroke="black"/>
<path d="M545.857,239.159h 7.39843" fill="none" stroke="black"/>
<path d="M538.459,225.533h 14.7969" fill="none" stroke="black"/>
<path d="M545.857,211.906h 7.39843" fill="none" stroke="black"/>
<path d="M545.857,198.28h 7.39843" fill="none" stroke="black"/>
<path d="M545.857,184.653h 7.39843" fill="none" stroke="black"/>
<path d="M545.857,171.027h 7.39843" fill="none" stroke="black"/>
<path d="M538.459,157.4h 14.7969" fill="none" stroke="black"/>
<path d="M545.857,143.773h 7.39843" fill="none" stroke="black"/>
<path d="M545.857,130.147h 7.39843" fill="none" stroke="black"/>
<path d="M545.857,116.52h 7.39843" fill="none" stroke="black"/>
<path d="M545.857,102.894h 7.39843" fill="none" stroke="black"/>
<path d="M538.459,89.2673h 14.7969" fill="none" stroke="black"/>
<path d="M545.857,75.6408h 7.39843" fill="none" stroke="black"/>
<path d="M545.857,62.0143h 7.39843" fill="none" stroke="black"/>
<path d="M545.857,48.3877h 7.39843" fill="none" stroke="black"/>
<path d="M545.857,34.7612h 7.39843" fill="none" stroke="black"/>
<path d="M538.459,21.1346h 14.7969" fill="none" stroke="black"/>
<path d="M538.459,21.1346h 14.7969" fill="none" stroke="black"/>
<g fill="black">
<circle cx="98.9408" cy="498.017" r="4.50838"/>
</g>
<g fill="black">
<circle cx="103.852" cy="475.343" r="4.50838"/>
</g>
<g fill="black">
<circle cx="108.764" cy="434.752" r="4.50838"/>
</g>
<g fill="black">
<circle cx="113.675" cy="438.427" r="4.50838"/>
</g>
<g fill="black">
<circle cx="118.587" cy="476.977" r="4.50838"/>
</g>
<g fill="black">
<circle cx="123.498" cy="460.358" r="4.50838"/>
</g>
<g fill="black">
<circle cx="128.41" cy="424.193" r="4.50838"/>
</g>
<g fill="black">
<circle cx="133.321" cy="423.123" r="4.50838"/>
</g>
<g fill="black">
<circle cx="138.233" cy="420.013" r="4.50838"/>
</g>
<g fill="black">
<circle cx="143.144" cy="412.205" r="4.50838"/>
</g>
<g fill="black">
<circle cx="148.056" cy="407.096" r="4.50838"/>
</g>
<g fill="black">
<circle cx="152.967" cy="404.395" r="4.50838"/>
</g>
<g fill="black">
<circle cx="157.879" cy="402.129" r="4.50838"/>
</g>
<g fill="black">
<circle cx="162.79" cy="400.87" r="4.50838"/>
</g>
<g fill="black">
<circle cx="167.702" cy="400.572" r="4.50838"/>
</g>
<g fill="black">
<circle cx="172.614" cy="399.699" r="4.50838"/>
</g>
<g fill="black">
<circle cx="177.525" cy="400.681" r="4.50838"/>
</g>
<g fill="black">
<circle cx="182.437" cy="401.13" r="4.50838"/>
</g>
<g fill="black">
<circle cx="187.348" cy="401.919" r="4.50838"/>
</g>
<g fill="black">
<circle cx="192.26" cy="403.483" r="4.50838"/>
</g>
<g fill="black">
<circle cx="197.171" cy="404.653" r="4.50838"/>
</g>
<g fill="black">
<circle cx="202.083" cy="406.423" r="4.50838"/>
</g>
<g fill="black">
<circle cx="206.994" cy="408.498" r="4.50838"/>
</g>
<g fill="black">
<circle cx="211.906" cy="410.059" r="4.50838"/>
</g>
<g fill="black">
<circle cx="216.817" cy="412.213" r="4.50838"/>
</g>
<g fill="black">
<circle cx="221.729" cy="413.968" r="4.50838"/>
</g>
<g fill="black">
<circle cx="226.64" cy="415.793" r="4.50838"/>
</g>
<g fill="black">
<circle cx="231.552" cy="417.574" r="4.50838"/>
</g>
<g fill="black">
<circle cx="236.463" cy="420.025" r="4.50838"/>
</g>
<g fill="black">
<circle cx="241.375" cy="422.427" r="4.50838"/>
</g>
<g fill="black">
<circle cx="246.286" cy="424.564" r="4.50838"/>
</g>
<g fill="black">
<circle cx="251.198" cy="427.448" r="4.50838"/>
</g>
<g fill="black">
<circle cx="256.109" cy="430.314" r="4.50838"/>
</g>
<g fill="black">
<circle cx="261.021" cy="432.922" r="4.50838"/>
</g>
<g fill="black">
<circle cx="265.932" cy="435.144" r="4.50838"/>
</g>
<g fill="black">
<circle cx="270.844" cy="437.874" r="4.50838"/>
</g>
<g fill="black">
<circle cx="275.755" cy="440.406" r="4.50838"/>
</g>
<g fill="black">
<circle cx="280.667" cy="442.51" r="4.50838"/>
</g>
<g fill="black">
<circle cx="285.578" cy="444.893" r="4.50838"/>
</g>
<g fill="black">
<circle cx="290.49" cy="447.083" r="4.50838"/>
</g>
<g fill="black">
<circle cx="295.401" cy="449.281" r="4.50838"/>
</g>
<g fill="black">
<circle cx="300.313" cy="451.06" r="4.50838"/>
</g>
<g fill="black">
<circle cx="305.224" cy="453.329" r="4.50838"/>
</g>
<g fill="black">
<circle cx="310.136" cy="454.988" r="4.50838"/>
</g>
<g fill="black">
<circle cx="315.047" cy="457.041" r="4.50838"/>
</g>
<g fill="black">
<circle cx="319.959" cy="458.573" r="4.50838"/>
</g>
<g fill="black">
<circle cx="324.87" cy="460.346" r="4.50838"/>
</g>
<g fill="black">
<circle cx="329.782" cy="461.8" r="4.50838"/>
</g>
<g fill="black">
<circle cx="334.694" cy="463.476" r="4.50838"/>
</g>
<g fill="black">
<circle cx="339.605" cy="464.567" r="4.50838"/>
</g>
<g fill="black">
<circle cx="344.517" cy="465.907" r="4.50838"/>
</g>
<g fill="black">
<circle cx="349.428" cy="467.065" r="4.50838"/>
</g>
<g fill="black">
<circle cx="354.34" cy="468.01" r="4.50838"/>
</g>
<g fill="black">
<circle cx="359.251" cy="469.226" r="4.50838"/>
</g>
<g fill="black">
<circle cx="364.163" cy="470.373" r="4.50838"/>
</g>
<g fill="black">
<circle cx="369.074" cy="471.168" r="4.50838"/>
</g>
<g fill="black">
<circle cx="373.986" cy="472.137" r="4.50838"/>
</g>
<g fill="black">
<circle cx="378.897" cy="473.123" r="4.50838"/>
</g>
<g fill="black">
<circle cx="383.809" cy="473.768" r="4.50838"/>
</g>
<g fill="black">
<circle cx="388.72" cy="474.789" r="4.50838"/>
</g>
<g fill="black">
<circle cx="393.632" cy="475.561" r="4.50838"/>
</g>
<g fill="black">
<circle cx="398.543" cy="476.547" r="4.50838"/>
</g>
<g fill="black">
<circle cx="403.455" cy="477.114" r="4.50838"/>
</g>
<g fill="black">
<circle cx="408.366" cy="477.8" r="4.50838"/>
</g>
<g fill="black">
<circle cx="413.278" cy="478.392" r="4.50838"/>
</g>
<g fill="black">
<circle cx="418.189" cy="479.112" r="4.50838"/>
</g>
<g fill="black">
<circle cx="423.101" cy="479.636" r="4.50838"/>
</g>
<g fill="black">
<circle cx="428.012" cy="480.336" r="4.50838"/>
</g>
<g fill="black">
<circle cx="432.924" cy="480.738" r="4.50838"/>
</g>
<g fill="black">
<circle cx="437.835" cy="481.281" r="4.50838"/>
</g>
<g fill="black">
<circle cx="442.747" cy="481.816" r="4.50838"/>
</g>
<g fill="black">
<circle cx="447.658" cy="482.329" r="4.50838"/>
</g>
<g fill="black">
<circle cx="452.57" cy="482.628" r="4.50838"/>
</g>
<g fill="black">
<circle cx="457.481" cy="483.091" r="4.50838"/>
</g>
<g fill="black">
<circle cx="462.393" cy="483.512" r="4.50838"/>
</g>
<g fill="black">
<circle cx="467.304" cy="483.961" r="4.50838"/>
</g>
<g fill="black">
<circle cx="472.216" cy="484.373" r="4.50838"/>
</g>
<g fill="black">
<circle cx="477.127" cy="484.777" r="4.50838"/>
</g>
<g fill="black">
<circle cx="482.039" cy="485.116" r="4.50838"/>
</g>
<g fill="black">
<circle cx="486.95" cy="485.371" r="4.50838"/>
</g>
<g fill="black">
<circle cx="491.862" cy="485.736" r="4.50838"/>
</g>
<g fill="black">
<circle cx="496.773" cy="485.99" r="4.50838"/>
</g>
<g fill="black">
<circle cx="501.685" cy="486.215" r="4.50838"/>
</g>
<g fill="black">
<circle cx="506.597" cy="486.521" r="4.50838"/>
</g>
<g fill="black">
<circle cx="511.508" cy="486.865" r="4.50838"/>
</g>
<g fill="black">
<circle cx="516.42" cy="486.899" r="4.50838"/>
</g>
<g fill="black">
<circle cx="521.331" cy="487.195" r="4.50838"/>
</g>
<g fill="black">
<circle cx="526.243" cy="487.501" r="4.50838"/>
</g>
<g fill="black">
<circle cx="531.154" cy="487.56" r="4.50838"/>
</g>
<g fill="black">
<circle cx="536.066" cy="487.97" r="4.50838"/>
</g>
<g fill="black">
<circle cx="540.977" cy="488.062" r="4.50838"/>
</g>
<g fill="black">
<circle cx="545.889" cy="488.328" r="4.50838"/>
</g>
<text xml:space="preserve" x="361.171" y="50.7193" fill="black" font-size="16.0105" font-family="Helvetica"> with EMC</text>
<text xml:space="preserve" x="353.281" y="50.7193" fill="black" font-size="16.0105" font-family="Times">&#0947;</text>
<text xml:space="preserve" x="345.391" y="50.7193" fill="black" font-size="16.0105" font-family="Times">&#0947;</text>
<text xml:space="preserve" x="337.502" y="50.7193" fill="black" font-size="16.0105" font-family="Times">&#0947;</text>
<text xml:space="preserve" x="332.43" y="50.7193" fill="black" font-size="16.0105" font-family="Helvetica"> </text>
<text xml:space="preserve" x="317.214" y="50.7193" fill="black" font-size="16.0105" font-family="Times">&#8594;</text>
<text xml:space="preserve" x="312.142" y="50.7193" fill="black" font-size="16.0105" font-family="Helvetica"> </text>
<text xml:space="preserve" x="304.252" y="50.7193" fill="black" font-size="16.0105" font-family="Times">&#0947;</text>
<text xml:space="preserve" x="298.617" y="45.0838" fill="black" font-size="10.8403" font-family="Helvetica">0</text>
<text xml:space="preserve" x="290.164" y="50.7193" fill="black" font-size="16.0105" font-family="Times">&#0960;</text>
<text xml:space="preserve" x="285.092" y="50.7193" fill="black" font-size="16.0105" font-family="Helvetica"> </text>
<text xml:space="preserve" x="269.876" y="50.7193" fill="black" font-size="16.0105" font-family="Times">&#8594;</text>
<text xml:space="preserve" x="264.804" y="50.7193" fill="black" font-size="16.0105" font-family="Helvetica"> </text>
<text xml:space="preserve" x="253.533" y="50.7193" fill="black" font-size="16.0105" font-family="Times">&#0969;</text>
<text xml:space="preserve" x="128.989" y="50.7193" fill="black" font-size="16.0105" font-family="Helvetica"> = 13 TeV (MB1), </text>
<text xml:space="preserve" x="120.536" y="50.7193" fill="black" font-size="16.0105" font-family="Helvetica" font-style="oblique">s</text>
<path d="M114.9,41.7025l 1.69064, 9.58031" fill="none" stroke="black" stroke-width="2"/>
<path d="M116.591,51.2829l 2.25419, -14.0887" fill="none" stroke="black"/>
<path d="M118.845,37.1942h 10.1439" fill="none" stroke="black"/>
<text xml:space="preserve" x="89.5406" y="50.7193" fill="black" font-size="16.0105" font-family="Helvetica">pp </text>
<text xml:space="preserve" x="89.5406" y="85.6593" fill="black" font-size="16.0105" font-family="Helvetica">ALICE work in progress</text>
<text xml:space="preserve" x="205.068" y="120.599" fill="black" font-size="16.0105" font-family="Helvetica">) &lt; 8.0</text>
<text xml:space="preserve" x="196.051" y="120.599" fill="black" font-size="16.0105" font-family="Helvetica" font-style="oblique">c</text>
<text xml:space="preserve" x="145.895" y="120.599" fill="black" font-size="16.0105" font-family="Helvetica"> /(GeV/</text>
<text xml:space="preserve" x="139.133" y="128.489" fill="black" font-size="10.8403" font-family="Helvetica">T</text>
<text xml:space="preserve" x="129.552" y="120.599" fill="black" font-size="16.0105" font-family="Helvetica" font-style="oblique">p</text>
<text xml:space="preserve" x="124.481" y="120.599" fill="black" font-size="16.0105" font-family="Helvetica"> </text>
<text xml:space="preserve" x="116.027" y="120.599" fill="black" font-size="16.0105" font-family="Times">&#8804;</text>
<text xml:space="preserve" x="89.5406" y="120.599" fill="black" font-size="16.0105" font-family="Helvetica">6.0 </text>
<text xml:space="preserve" x="134.624" y="158.357" fill="black" font-size="16.0105" font-family="Helvetica">background</text>
<path d="M92.9803,152.186h 34.7244" fill="none" stroke="#993333" stroke-width="2"/>
<g fill="#993333">
<rect x="105.834" y="147.678" width="9.01677" height="9.01677"/>
</g>
<text xml:space="preserve" x="134.624" y="185.971" fill="black" font-size="16.0105" font-family="Helvetica">same event</text>
<path d="M92.9803,179.856h 34.7244" fill="none" stroke="black" stroke-width="2"/>
<g fill="black">
<circle cx="110.343" cy="179.856" r="4.50838"/>
</g></svg>
