<?xml version="1.0" standalone="no"?>
<svg width="567.429" height="553.904" viewBox="0 0 567.429 553.904" xmlns="http://www.w3.org/2000/svg" shape-rendering="crispEdges">
<title>
Data/EG1/OmegaTGPSPlusPSNCell/Peaks_12.svg
</title>
<desc>
Creator: ROOT Version 6.20/08
CreationDate: Mon Mar 29 21:31:19 2021</desc>
<defs>
</defs>
<rect x="0.5" y="0" width="566.929" height="553.404" fill="white"/>
<rect x="57.1929" y="16.6021" width="496.063" height="481.461" fill="white"/>
<rect x="57.1929" y="16.6021" width="496.063" height="481.461" fill="none" stroke="black"/>
<rect x="57.1929" y="16.6021" width="496.063" height="481.461" fill="white"/>
<rect x="57.1929" y="16.6021" width="496.063" height="481.461" fill="none" stroke="black"/>
<path d="M67.9769,463.588v -15.338" fill="none" stroke="#33cccc" stroke-width="2"/>
<path d="M67.9769,439.233v -15.338" fill="none" stroke="#33cccc" stroke-width="2"/>
<path d="M57.1929,443.742h 6.2756" fill="none" stroke="#33cccc" stroke-width="2"/>
<path d="M72.4853,443.742h 6.2756" fill="none" stroke="#33cccc" stroke-width="2"/>
<g stroke="#33cccc" stroke-width="2" fill="none">
<rect x="63.4685" y="439.233" width="9.01677" height="9.01677"/>
</g>
<path d="M89.5448,418.535v -15.6749" fill="none" stroke="#33cccc" stroke-width="2"/>
<path d="M89.5448,393.844v -15.6749" fill="none" stroke="#33cccc" stroke-width="2"/>
<path d="M78.7609,398.352h 6.2756" fill="none" stroke="#33cccc" stroke-width="2"/>
<path d="M94.0532,398.352h 6.2756" fill="none" stroke="#33cccc" stroke-width="2"/>
<g stroke="#33cccc" stroke-width="2" fill="none">
<rect x="85.0365" y="393.844" width="9.01677" height="9.01677"/>
</g>
<path d="M111.113,287.267v -16.2667" fill="none" stroke="#33cccc" stroke-width="2"/>
<path d="M111.113,261.984v -16.2667" fill="none" stroke="#33cccc" stroke-width="2"/>
<path d="M100.329,266.492h 6.2756" fill="none" stroke="#33cccc" stroke-width="2"/>
<path d="M115.621,266.492h 6.2756" fill="none" stroke="#33cccc" stroke-width="2"/>
<g stroke="#33cccc" stroke-width="2" fill="none">
<rect x="106.604" y="261.984" width="9.01677" height="9.01677"/>
</g>
<path d="M132.681,251.65v -16.2917" fill="none" stroke="#33cccc" stroke-width="2"/>
<path d="M132.681,226.341v -16.2917" fill="none" stroke="#33cccc" stroke-width="2"/>
<path d="M121.897,230.85h 6.2756" fill="none" stroke="#33cccc" stroke-width="2"/>
<path d="M137.189,230.85h 6.2756" fill="none" stroke="#33cccc" stroke-width="2"/>
<g stroke="#33cccc" stroke-width="2" fill="none">
<rect x="128.172" y="226.341" width="9.01677" height="9.01677"/>
</g>
<path d="M154.249,187.602v -16.3238" fill="none" stroke="#33cccc" stroke-width="2"/>
<path d="M154.249,162.261v -16.3238" fill="none" stroke="#33cccc" stroke-width="2"/>
<path d="M143.465,166.77h 6.2756" fill="none" stroke="#33cccc" stroke-width="2"/>
<path d="M158.757,166.77h 6.2756" fill="none" stroke="#33cccc" stroke-width="2"/>
<g stroke="#33cccc" stroke-width="2" fill="none">
<rect x="149.74" y="162.261" width="9.01677" height="9.01677"/>
</g>
<path d="M175.817,206.032v -16.2307" fill="none" stroke="#33cccc" stroke-width="2"/>
<path d="M175.817,180.784v -16.2307" fill="none" stroke="#33cccc" stroke-width="2"/>
<path d="M165.033,185.293h 6.2756" fill="none" stroke="#33cccc" stroke-width="2"/>
<path d="M180.325,185.293h 6.2756" fill="none" stroke="#33cccc" stroke-width="2"/>
<g stroke="#33cccc" stroke-width="2" fill="none">
<rect x="171.308" y="180.784" width="9.01677" height="9.01677"/>
</g>
<path d="M197.385,197.478v -16.0527" fill="none" stroke="#33cccc" stroke-width="2"/>
<path d="M197.385,172.409v -16.0527" fill="none" stroke="#33cccc" stroke-width="2"/>
<path d="M186.601,176.917h 6.2756" fill="none" stroke="#33cccc" stroke-width="2"/>
<path d="M201.893,176.917h 6.2756" fill="none" stroke="#33cccc" stroke-width="2"/>
<g stroke="#33cccc" stroke-width="2" fill="none">
<rect x="192.876" y="172.409" width="9.01677" height="9.01677"/>
</g>
<path d="M218.953,201.37v -15.918" fill="none" stroke="#33cccc" stroke-width="2"/>
<path d="M218.953,176.435v -15.918" fill="none" stroke="#33cccc" stroke-width="2"/>
<path d="M208.169,180.944h 6.2756" fill="none" stroke="#33cccc" stroke-width="2"/>
<path d="M223.461,180.944h 6.2756" fill="none" stroke="#33cccc" stroke-width="2"/>
<g stroke="#33cccc" stroke-width="2" fill="none">
<rect x="214.444" y="176.435" width="9.01677" height="9.01677"/>
</g>
<path d="M240.521,194.519v -15.6456" fill="none" stroke="#33cccc" stroke-width="2"/>
<path d="M240.521,169.856v -15.6456" fill="none" stroke="#33cccc" stroke-width="2"/>
<path d="M229.737,174.365h 6.2756" fill="none" stroke="#33cccc" stroke-width="2"/>
<path d="M245.029,174.365h 6.2756" fill="none" stroke="#33cccc" stroke-width="2"/>
<g stroke="#33cccc" stroke-width="2" fill="none">
<rect x="236.012" y="169.856" width="9.01677" height="9.01677"/>
</g>
<path d="M262.089,155.745v -15.4363" fill="none" stroke="#33cccc" stroke-width="2"/>
<path d="M262.089,131.291v -15.4363" fill="none" stroke="#33cccc" stroke-width="2"/>
<path d="M251.305,135.8h 6.2756" fill="none" stroke="#33cccc" stroke-width="2"/>
<path d="M266.597,135.8h 6.2756" fill="none" stroke="#33cccc" stroke-width="2"/>
<g stroke="#33cccc" stroke-width="2" fill="none">
<rect x="257.58" y="131.291" width="9.01677" height="9.01677"/>
</g>
<path d="M283.656,177.505v -15.1438" fill="none" stroke="#33cccc" stroke-width="2"/>
<path d="M283.656,153.344v -15.1438" fill="none" stroke="#33cccc" stroke-width="2"/>
<path d="M272.872,157.853h 6.2756" fill="none" stroke="#33cccc" stroke-width="2"/>
<path d="M288.165,157.853h 6.2756" fill="none" stroke="#33cccc" stroke-width="2"/>
<g stroke="#33cccc" stroke-width="2" fill="none">
<rect x="279.148" y="153.344" width="9.01677" height="9.01677"/>
</g>
<path d="M305.224,154.015v -14.9717" fill="none" stroke="#33cccc" stroke-width="2"/>
<path d="M305.224,130.027v -14.9717" fill="none" stroke="#33cccc" stroke-width="2"/>
<path d="M294.44,134.535h 6.2756" fill="none" stroke="#33cccc" stroke-width="2"/>
<path d="M309.733,134.535h 6.2756" fill="none" stroke="#33cccc" stroke-width="2"/>
<g stroke="#33cccc" stroke-width="2" fill="none">
<rect x="300.716" y="130.027" width="9.01677" height="9.01677"/>
</g>
<path d="M326.792,117.338v -14.7592" fill="none" stroke="#33cccc" stroke-width="2"/>
<path d="M326.792,93.5621v -14.7592" fill="none" stroke="#33cccc" stroke-width="2"/>
<path d="M316.008,98.0705h 6.2756" fill="none" stroke="#33cccc" stroke-width="2"/>
<path d="M331.301,98.0705h 6.2756" fill="none" stroke="#33cccc" stroke-width="2"/>
<g stroke="#33cccc" stroke-width="2" fill="none">
<rect x="322.284" y="93.5621" width="9.01677" height="9.01677"/>
</g>
<path d="M348.36,209.27v -14.2257" fill="none" stroke="#33cccc" stroke-width="2"/>
<path d="M348.36,186.028v -14.2257" fill="none" stroke="#33cccc" stroke-width="2"/>
<path d="M337.576,190.536h 6.2756" fill="none" stroke="#33cccc" stroke-width="2"/>
<path d="M352.869,190.536h 6.2756" fill="none" stroke="#33cccc" stroke-width="2"/>
<g stroke="#33cccc" stroke-width="2" fill="none">
<rect x="343.852" y="186.028" width="9.01677" height="9.01677"/>
</g>
<path d="M369.928,161.022v -13.9987" fill="none" stroke="#33cccc" stroke-width="2"/>
<path d="M369.928,138.007v -13.9987" fill="none" stroke="#33cccc" stroke-width="2"/>
<path d="M359.144,142.515h 6.2756" fill="none" stroke="#33cccc" stroke-width="2"/>
<path d="M374.437,142.515h 6.2756" fill="none" stroke="#33cccc" stroke-width="2"/>
<g stroke="#33cccc" stroke-width="2" fill="none">
<rect x="365.42" y="138.007" width="9.01677" height="9.01677"/>
</g>
<path d="M391.496,172.531v -13.7049" fill="none" stroke="#33cccc" stroke-width="2"/>
<path d="M391.496,149.81v -13.7049" fill="none" stroke="#33cccc" stroke-width="2"/>
<path d="M380.712,154.318h 6.2756" fill="none" stroke="#33cccc" stroke-width="2"/>
<path d="M396.005,154.318h 6.2756" fill="none" stroke="#33cccc" stroke-width="2"/>
<g stroke="#33cccc" stroke-width="2" fill="none">
<rect x="386.988" y="149.81" width="9.01677" height="9.01677"/>
</g>
<path d="M413.064,192.136v -13.3775" fill="none" stroke="#33cccc" stroke-width="2"/>
<path d="M413.064,169.741v -13.3775" fill="none" stroke="#33cccc" stroke-width="2"/>
<path d="M402.28,174.25h 6.2756" fill="none" stroke="#33cccc" stroke-width="2"/>
<path d="M417.573,174.25h 6.2756" fill="none" stroke="#33cccc" stroke-width="2"/>
<g stroke="#33cccc" stroke-width="2" fill="none">
<rect x="408.556" y="169.741" width="9.01677" height="9.01677"/>
</g>
<path d="M434.632,197.85v -12.7947" fill="none" stroke="#33cccc" stroke-width="2"/>
<path d="M434.632,176.038v -12.7947" fill="none" stroke="#33cccc" stroke-width="2"/>
<path d="M423.848,180.547h 6.2756" fill="none" stroke="#33cccc" stroke-width="2"/>
<path d="M439.141,180.547h 6.2756" fill="none" stroke="#33cccc" stroke-width="2"/>
<g stroke="#33cccc" stroke-width="2" fill="none">
<rect x="430.124" y="176.038" width="9.01677" height="9.01677"/>
</g>
<path d="M456.2,204.028v -12.7581" fill="none" stroke="#33cccc" stroke-width="2"/>
<path d="M456.2,182.253v -12.7581" fill="none" stroke="#33cccc" stroke-width="2"/>
<path d="M445.416,186.762h 6.2756" fill="none" stroke="#33cccc" stroke-width="2"/>
<path d="M460.708,186.762h 6.2756" fill="none" stroke="#33cccc" stroke-width="2"/>
<g stroke="#33cccc" stroke-width="2" fill="none">
<rect x="451.692" y="182.253" width="9.01677" height="9.01677"/>
</g>
<path d="M477.768,175.497v -12.5117" fill="none" stroke="#33cccc" stroke-width="2"/>
<path d="M477.768,153.969v -12.5117" fill="none" stroke="#33cccc" stroke-width="2"/>
<path d="M466.984,158.477h 6.2756" fill="none" stroke="#33cccc" stroke-width="2"/>
<path d="M482.276,158.477h 6.2756" fill="none" stroke="#33cccc" stroke-width="2"/>
<g stroke="#33cccc" stroke-width="2" fill="none">
<rect x="473.26" y="153.969" width="9.01677" height="9.01677"/>
</g>
<path d="M499.336,227.623v -12.004" fill="none" stroke="#33cccc" stroke-width="2"/>
<path d="M499.336,206.603v -12.004" fill="none" stroke="#33cccc" stroke-width="2"/>
<path d="M488.552,211.111h 6.2756" fill="none" stroke="#33cccc" stroke-width="2"/>
<path d="M503.844,211.111h 6.2756" fill="none" stroke="#33cccc" stroke-width="2"/>
<g stroke="#33cccc" stroke-width="2" fill="none">
<rect x="494.828" y="206.603" width="9.01677" height="9.01677"/>
</g>
<path d="M520.904,174.128v -11.801" fill="none" stroke="#33cccc" stroke-width="2"/>
<path d="M520.904,153.31v -11.801" fill="none" stroke="#33cccc" stroke-width="2"/>
<path d="M510.12,157.819h 6.2756" fill="none" stroke="#33cccc" stroke-width="2"/>
<path d="M525.412,157.819h 6.2756" fill="none" stroke="#33cccc" stroke-width="2"/>
<g stroke="#33cccc" stroke-width="2" fill="none">
<rect x="516.396" y="153.31" width="9.01677" height="9.01677"/>
</g>
<path d="M542.472,146.664v -11.6209" fill="none" stroke="#33cccc" stroke-width="2"/>
<path d="M542.472,126.026v -11.6209" fill="none" stroke="#33cccc" stroke-width="2"/>
<path d="M531.688,130.534h 6.2756" fill="none" stroke="#33cccc" stroke-width="2"/>
<path d="M546.98,130.534h 6.2756" fill="none" stroke="#33cccc" stroke-width="2"/>
<g stroke="#33cccc" stroke-width="2" fill="none">
<rect x="537.964" y="126.026" width="9.01677" height="9.01677"/>
</g>
<path d="M57.1929,498.064h 496.063" fill="none" stroke="black"/>
<path d="M70.6729,483.537v 14.5269" fill="none" stroke="black"/>
<path d="M84.1529,490.8v 7.26343" fill="none" stroke="black"/>
<path d="M97.6328,490.8v 7.26343" fill="none" stroke="black"/>
<path d="M111.113,490.8v 7.26343" fill="none" stroke="black"/>
<path d="M124.593,490.8v 7.26343" fill="none" stroke="black"/>
<path d="M138.073,483.537v 14.5269" fill="none" stroke="black"/>
<path d="M151.553,490.8v 7.26343" fill="none" stroke="black"/>
<path d="M165.033,490.8v 7.26343" fill="none" stroke="black"/>
<path d="M178.513,490.8v 7.26343" fill="none" stroke="black"/>
<path d="M191.993,490.8v 7.26343" fill="none" stroke="black"/>
<path d="M205.473,483.537v 14.5269" fill="none" stroke="black"/>
<path d="M218.953,490.8v 7.26343" fill="none" stroke="black"/>
<path d="M232.433,490.8v 7.26343" fill="none" stroke="black"/>
<path d="M245.913,490.8v 7.26343" fill="none" stroke="black"/>
<path d="M259.393,490.8v 7.26343" fill="none" stroke="black"/>
<path d="M272.872,483.537v 14.5269" fill="none" stroke="black"/>
<path d="M286.352,490.8v 7.26343" fill="none" stroke="black"/>
<path d="M299.832,490.8v 7.26343" fill="none" stroke="black"/>
<path d="M313.312,490.8v 7.26343" fill="none" stroke="black"/>
<path d="M326.792,490.8v 7.26343" fill="none" stroke="black"/>
<path d="M340.272,483.537v 14.5269" fill="none" stroke="black"/>
<path d="M353.752,490.8v 7.26343" fill="none" stroke="black"/>
<path d="M367.232,490.8v 7.26343" fill="none" stroke="black"/>
<path d="M380.712,490.8v 7.26343" fill="none" stroke="black"/>
<path d="M394.192,490.8v 7.26343" fill="none" stroke="black"/>
<path d="M407.672,483.537v 14.5269" fill="none" stroke="black"/>
<path d="M421.152,490.8v 7.26343" fill="none" stroke="black"/>
<path d="M434.632,490.8v 7.26343" fill="none" stroke="black"/>
<path d="M448.112,490.8v 7.26343" fill="none" stroke="black"/>
<path d="M461.592,490.8v 7.26343" fill="none" stroke="black"/>
<path d="M475.072,483.537v 14.5269" fill="none" stroke="black"/>
<path d="M488.552,490.8v 7.26343" fill="none" stroke="black"/>
<path d="M502.032,490.8v 7.26343" fill="none" stroke="black"/>
<path d="M515.512,490.8v 7.26343" fill="none" stroke="black"/>
<path d="M528.992,490.8v 7.26343" fill="none" stroke="black"/>
<path d="M542.472,483.537v 14.5269" fill="none" stroke="black"/>
<path d="M70.6729,483.537v 14.5269" fill="none" stroke="black"/>
<path d="M57.1929,490.8v 7.26343" fill="none" stroke="black"/>
<path d="M542.472,483.537v 14.5269" fill="none" stroke="black"/>
<text xml:space="preserve" x="59.6725" y="513.956" fill="black" font-size="16.0105" font-family="Helvetica">0.5</text>
<text xml:space="preserve" x="127.298" y="513.956" fill="black" font-size="16.0105" font-family="Helvetica">0.6</text>
<text xml:space="preserve" x="194.36" y="513.956" fill="black" font-size="16.0105" font-family="Helvetica">0.7</text>
<text xml:space="preserve" x="261.986" y="513.956" fill="black" font-size="16.0105" font-family="Helvetica">0.8</text>
<text xml:space="preserve" x="329.048" y="513.956" fill="black" font-size="16.0105" font-family="Helvetica">0.9</text>
<text xml:space="preserve" x="404.564" y="513.956" fill="black" font-size="16.0105" font-family="Helvetica">1</text>
<text xml:space="preserve" x="465.427" y="513.956" fill="black" font-size="16.0105" font-family="Helvetica">1.1</text>
<text xml:space="preserve" x="531.362" y="513.956" fill="black" font-size="16.0105" font-family="Helvetica">1.2</text>
<text xml:space="preserve" x="548.268" y="537.625" fill="black" font-size="16.0105" font-family="Helvetica">)</text>
<text xml:space="preserve" x="542.633" y="532.553" fill="black" font-size="10.8403" font-family="Helvetica">2</text>
<text xml:space="preserve" x="533.616" y="537.625" fill="black" font-size="16.0105" font-family="Helvetica" font-style="oblique">c</text>
<text xml:space="preserve" x="487.405" y="537.625" fill="black" font-size="16.0105" font-family="Helvetica"> (GeV/</text>
<text xml:space="preserve" x="473.317" y="542.697" fill="black" font-size="10.8403" font-family="Helvetica">inv</text>
<text xml:space="preserve" x="459.792" y="537.625" fill="black" font-size="16.0105" font-family="Helvetica" font-style="oblique">m</text>
<path d="M57.1929,16.6021h 496.063" fill="none" stroke="black"/>
<path d="M70.6729,31.129v -14.5269" fill="none" stroke="black"/>
<path d="M84.1529,23.8655v -7.26343" fill="none" stroke="black"/>
<path d="M97.6328,23.8655v -7.26343" fill="none" stroke="black"/>
<path d="M111.113,23.8655v -7.26343" fill="none" stroke="black"/>
<path d="M124.593,23.8655v -7.26343" fill="none" stroke="black"/>
<path d="M138.073,31.129v -14.5269" fill="none" stroke="black"/>
<path d="M151.553,23.8655v -7.26343" fill="none" stroke="black"/>
<path d="M165.033,23.8655v -7.26343" fill="none" stroke="black"/>
<path d="M178.513,23.8655v -7.26343" fill="none" stroke="black"/>
<path d="M191.993,23.8655v -7.26343" fill="none" stroke="black"/>
<path d="M205.473,31.129v -14.5269" fill="none" stroke="black"/>
<path d="M218.953,23.8655v -7.26343" fill="none" stroke="black"/>
<path d="M232.433,23.8655v -7.26343" fill="none" stroke="black"/>
<path d="M245.913,23.8655v -7.26343" fill="none" stroke="black"/>
<path d="M259.393,23.8655v -7.26343" fill="none" stroke="black"/>
<path d="M272.872,31.129v -14.5269" fill="none" stroke="black"/>
<path d="M286.352,23.8655v -7.26343" fill="none" stroke="black"/>
<path d="M299.832,23.8655v -7.26343" fill="none" stroke="black"/>
<path d="M313.312,23.8655v -7.26343" fill="none" stroke="black"/>
<path d="M326.792,23.8655v -7.26343" fill="none" stroke="black"/>
<path d="M340.272,31.129v -14.5269" fill="none" stroke="black"/>
<path d="M353.752,23.8655v -7.26343" fill="none" stroke="black"/>
<path d="M367.232,23.8655v -7.26343" fill="none" stroke="black"/>
<path d="M380.712,23.8655v -7.26343" fill="none" stroke="black"/>
<path d="M394.192,23.8655v -7.26343" fill="none" stroke="black"/>
<path d="M407.672,31.129v -14.5269" fill="none" stroke="black"/>
<path d="M421.152,23.8655v -7.26343" fill="none" stroke="black"/>
<path d="M434.632,23.8655v -7.26343" fill="none" stroke="black"/>
<path d="M448.112,23.8655v -7.26343" fill="none" stroke="black"/>
<path d="M461.592,23.8655v -7.26343" fill="none" stroke="black"/>
<path d="M475.072,31.129v -14.5269" fill="none" stroke="black"/>
<path d="M488.552,23.8655v -7.26343" fill="none" stroke="black"/>
<path d="M502.032,23.8655v -7.26343" fill="none" stroke="black"/>
<path d="M515.512,23.8655v -7.26343" fill="none" stroke="black"/>
<path d="M528.992,23.8655v -7.26343" fill="none" stroke="black"/>
<path d="M542.472,31.129v -14.5269" fill="none" stroke="black"/>
<path d="M70.6729,31.129v -14.5269" fill="none" stroke="black"/>
<path d="M57.1929,23.8655v -7.26343" fill="none" stroke="black"/>
<path d="M542.472,31.129v -14.5269" fill="none" stroke="black"/>
<path d="M57.1929,498.064v -481.461" fill="none" stroke="black"/>
<path d="M71.9898,430.297h -14.7969" fill="none" stroke="black"/>
<path d="M64.5913,413.086h -7.39843" fill="none" stroke="black"/>
<path d="M64.5913,395.875h -7.39843" fill="none" stroke="black"/>
<path d="M64.5913,378.664h -7.39843" fill="none" stroke="black"/>
<path d="M64.5913,361.453h -7.39843" fill="none" stroke="black"/>
<path d="M71.9898,344.242h -14.7969" fill="none" stroke="black"/>
<path d="M64.5913,327.031h -7.39843" fill="none" stroke="black"/>
<path d="M64.5913,309.82h -7.39843" fill="none" stroke="black"/>
<path d="M64.5913,292.609h -7.39843" fill="none" stroke="black"/>
<path d="M64.5913,275.398h -7.39843" fill="none" stroke="black"/>
<path d="M71.9898,258.187h -14.7969" fill="none" stroke="black"/>
<path d="M64.5913,240.976h -7.39843" fill="none" stroke="black"/>
<path d="M64.5913,223.765h -7.39843" fill="none" stroke="black"/>
<path d="M64.5913,206.554h -7.39843" fill="none" stroke="black"/>
<path d="M64.5913,189.344h -7.39843" fill="none" stroke="black"/>
<path d="M71.9898,172.133h -14.7969" fill="none" stroke="black"/>
<path d="M64.5913,154.922h -7.39843" fill="none" stroke="black"/>
<path d="M64.5913,137.711h -7.39843" fill="none" stroke="black"/>
<path d="M64.5913,120.5h -7.39843" fill="none" stroke="black"/>
<path d="M64.5913,103.289h -7.39843" fill="none" stroke="black"/>
<path d="M71.9898,86.0778h -14.7969" fill="none" stroke="black"/>
<path d="M71.9898,430.297h -14.7969" fill="none" stroke="black"/>
<path d="M64.5913,447.508h -7.39843" fill="none" stroke="black"/>
<path d="M64.5913,464.719h -7.39843" fill="none" stroke="black"/>
<path d="M64.5913,481.93h -7.39843" fill="none" stroke="black"/>
<path d="M71.9898,86.0778h -14.7969" fill="none" stroke="black"/>
<path d="M64.5913,68.8668h -7.39843" fill="none" stroke="black"/>
<path d="M64.5913,51.6559h -7.39843" fill="none" stroke="black"/>
<path d="M64.5913,34.4449h -7.39843" fill="none" stroke="black"/>
<path d="M64.5913,17.234h -7.39843" fill="none" stroke="black"/>
<text xml:space="preserve" x="32.6222" y="435.622" fill="black" font-size="16.0105" font-family="Helvetica">1.5</text>
<text xml:space="preserve" x="24.169" y="435.622" fill="black" font-size="16.0105" font-family="Times">&#8722;</text>
<text xml:space="preserve" x="48.4016" y="349.963" fill="black" font-size="16.0105" font-family="Helvetica">1</text>
<text xml:space="preserve" x="39.9483" y="349.963" fill="black" font-size="16.0105" font-family="Times">&#8722;</text>
<text xml:space="preserve" x="32.6222" y="263.74" fill="black" font-size="16.0105" font-family="Helvetica">0.5</text>
<text xml:space="preserve" x="24.169" y="263.74" fill="black" font-size="16.0105" font-family="Times">&#8722;</text>
<text xml:space="preserve" x="45.5838" y="177.518" fill="black" font-size="16.0105" font-family="Helvetica">0</text>
<text xml:space="preserve" x="32.6222" y="91.2948" fill="black" font-size="16.0105" font-family="Helvetica">0.5</text>
<text xml:space="preserve" x="82.2144" y="7.32612" fill="black" font-size="10.8403" font-family="Helvetica">3</text>
<text xml:space="preserve" x="65.308" y="14.6522" fill="black" font-size="16.0105" font-family="Helvetica">10</text>
<text xml:space="preserve" x="56.8548" y="14.6522" fill="black" font-size="16.0105" font-family="Times">&#0215;</text>
<g transform="rotate(-90,22.4784,21.9784)">
<text xml:space="preserve" x="22.4784" y="21.9784" fill="black" font-size="10.8403" font-family="Times">&#0947;</text>
</g>
<g transform="rotate(-90,18.5335,25.9232)">
<text xml:space="preserve" x="18.5335" y="25.9232" fill="black" font-size="7.39355" font-family="Helvetica">0</text>
</g>
<g transform="rotate(-90,22.4784,32.1222)">
<text xml:space="preserve" x="22.4784" y="32.1222" fill="black" font-size="10.8403" font-family="Times">&#0960;</text>
</g>
<g transform="rotate(-90,17.4064,45.0838)">
<text xml:space="preserve" x="17.4064" y="45.0838" fill="black" font-size="16.0105" font-family="Helvetica" font-style="oblique">N</text>
</g>
<path d="M553.256,498.064v -481.461" fill="none" stroke="black"/>
<path d="M538.459,430.297h 14.7969" fill="none" stroke="black"/>
<path d="M545.857,413.086h 7.39843" fill="none" stroke="black"/>
<path d="M545.857,395.875h 7.39843" fill="none" stroke="black"/>
<path d="M545.857,378.664h 7.39843" fill="none" stroke="black"/>
<path d="M545.857,361.453h 7.39843" fill="none" stroke="black"/>
<path d="M538.459,344.242h 14.7969" fill="none" stroke="black"/>
<path d="M545.857,327.031h 7.39843" fill="none" stroke="black"/>
<path d="M545.857,309.82h 7.39843" fill="none" stroke="black"/>
<path d="M545.857,292.609h 7.39843" fill="none" stroke="black"/>
<path d="M545.857,275.398h 7.39843" fill="none" stroke="black"/>
<path d="M538.459,258.187h 14.7969" fill="none" stroke="black"/>
<path d="M545.857,240.976h 7.39843" fill="none" stroke="black"/>
<path d="M545.857,223.765h 7.39843" fill="none" stroke="black"/>
<path d="M545.857,206.554h 7.39843" fill="none" stroke="black"/>
<path d="M545.857,189.344h 7.39843" fill="none" stroke="black"/>
<path d="M538.459,172.133h 14.7969" fill="none" stroke="black"/>
<path d="M545.857,154.922h 7.39843" fill="none" stroke="black"/>
<path d="M545.857,137.711h 7.39843" fill="none" stroke="black"/>
<path d="M545.857,120.5h 7.39843" fill="none" stroke="black"/>
<path d="M545.857,103.289h 7.39843" fill="none" stroke="black"/>
<path d="M538.459,86.0778h 14.7969" fill="none" stroke="black"/>
<path d="M538.459,430.297h 14.7969" fill="none" stroke="black"/>
<path d="M545.857,447.508h 7.39843" fill="none" stroke="black"/>
<path d="M545.857,464.719h 7.39843" fill="none" stroke="black"/>
<path d="M545.857,481.93h 7.39843" fill="none" stroke="black"/>
<path d="M538.459,86.0778h 14.7969" fill="none" stroke="black"/>
<path d="M545.857,68.8668h 7.39843" fill="none" stroke="black"/>
<path d="M545.857,51.6559h 7.39843" fill="none" stroke="black"/>
<path d="M545.857,34.4449h 7.39843" fill="none" stroke="black"/>
<path d="M545.857,17.234h 7.39843" fill="none" stroke="black"/>
<path d="M67.9769,442.219v -15.3059" fill="none" stroke="#ff0066" stroke-width="2"/>
<path d="M67.9769,417.897v -15.3059" fill="none" stroke="#ff0066" stroke-width="2"/>
<path d="M57.1929,422.405h 6.2756" fill="none" stroke="#ff0066" stroke-width="2"/>
<path d="M72.4853,422.405h 6.2756" fill="none" stroke="#ff0066" stroke-width="2"/>
<g stroke="#ff0066" stroke-width="2" fill="none">
<circle cx="67.9769" cy="422.405" r="4.50838"/>
</g>
<path d="M89.5448,400.875v -15.6486" fill="none" stroke="#ff0066" stroke-width="2"/>
<path d="M89.5448,376.209v -15.6486" fill="none" stroke="#ff0066" stroke-width="2"/>
<path d="M78.7609,380.718h 6.2756" fill="none" stroke="#ff0066" stroke-width="2"/>
<path d="M94.0532,380.718h 6.2756" fill="none" stroke="#ff0066" stroke-width="2"/>
<g stroke="#ff0066" stroke-width="2" fill="none">
<circle cx="89.5448" cy="380.718" r="4.50838"/>
</g>
<path d="M111.113,273.221v -16.246" fill="none" stroke="#ff0066" stroke-width="2"/>
<path d="M111.113,247.958v -16.246" fill="none" stroke="#ff0066" stroke-width="2"/>
<path d="M100.329,252.466h 6.2756" fill="none" stroke="#ff0066" stroke-width="2"/>
<path d="M115.621,252.466h 6.2756" fill="none" stroke="#ff0066" stroke-width="2"/>
<g stroke="#ff0066" stroke-width="2" fill="none">
<circle cx="111.113" cy="252.466" r="4.50838"/>
</g>
<path d="M132.681,240.999v -16.2765" fill="none" stroke="#ff0066" stroke-width="2"/>
<path d="M132.681,215.706v -16.2765" fill="none" stroke="#ff0066" stroke-width="2"/>
<path d="M121.897,220.214h 6.2756" fill="none" stroke="#ff0066" stroke-width="2"/>
<path d="M137.189,220.214h 6.2756" fill="none" stroke="#ff0066" stroke-width="2"/>
<g stroke="#ff0066" stroke-width="2" fill="none">
<circle cx="132.681" cy="220.214" r="4.50838"/>
</g>
<path d="M154.249,180.057v -16.3138" fill="none" stroke="#ff0066" stroke-width="2"/>
<path d="M154.249,154.726v -16.3138" fill="none" stroke="#ff0066" stroke-width="2"/>
<path d="M143.465,159.234h 6.2756" fill="none" stroke="#ff0066" stroke-width="2"/>
<path d="M158.757,159.234h 6.2756" fill="none" stroke="#ff0066" stroke-width="2"/>
<g stroke="#ff0066" stroke-width="2" fill="none">
<circle cx="154.249" cy="159.234" r="4.50838"/>
</g>
<path d="M175.817,201.213v -16.2238" fill="none" stroke="#ff0066" stroke-width="2"/>
<path d="M175.817,175.972v -16.2238" fill="none" stroke="#ff0066" stroke-width="2"/>
<path d="M165.033,180.481h 6.2756" fill="none" stroke="#ff0066" stroke-width="2"/>
<path d="M180.325,180.481h 6.2756" fill="none" stroke="#ff0066" stroke-width="2"/>
<g stroke="#ff0066" stroke-width="2" fill="none">
<circle cx="175.817" cy="180.481" r="4.50838"/>
</g>
<path d="M197.385,195.062v -16.0492" fill="none" stroke="#ff0066" stroke-width="2"/>
<path d="M197.385,169.996v -16.0492" fill="none" stroke="#ff0066" stroke-width="2"/>
<path d="M186.601,174.504h 6.2756" fill="none" stroke="#ff0066" stroke-width="2"/>
<path d="M201.893,174.504h 6.2756" fill="none" stroke="#ff0066" stroke-width="2"/>
<g stroke="#ff0066" stroke-width="2" fill="none">
<circle cx="197.385" cy="174.504" r="4.50838"/>
</g>
<path d="M218.953,200.998v -15.9174" fill="none" stroke="#ff0066" stroke-width="2"/>
<path d="M218.953,176.064v -15.9174" fill="none" stroke="#ff0066" stroke-width="2"/>
<path d="M208.169,180.572h 6.2756" fill="none" stroke="#ff0066" stroke-width="2"/>
<path d="M223.461,180.572h 6.2756" fill="none" stroke="#ff0066" stroke-width="2"/>
<g stroke="#ff0066" stroke-width="2" fill="none">
<circle cx="218.953" cy="180.572" r="4.50838"/>
</g>
<path d="M240.521,195.84v -15.6476" fill="none" stroke="#ff0066" stroke-width="2"/>
<path d="M240.521,171.175v -15.6476" fill="none" stroke="#ff0066" stroke-width="2"/>
<path d="M229.737,175.684h 6.2756" fill="none" stroke="#ff0066" stroke-width="2"/>
<path d="M245.029,175.684h 6.2756" fill="none" stroke="#ff0066" stroke-width="2"/>
<g stroke="#ff0066" stroke-width="2" fill="none">
<circle cx="240.521" cy="175.684" r="4.50838"/>
</g>
<path d="M262.089,158.412v -15.4402" fill="none" stroke="#ff0066" stroke-width="2"/>
<path d="M262.089,133.955v -15.4402" fill="none" stroke="#ff0066" stroke-width="2"/>
<path d="M251.305,138.464h 6.2756" fill="none" stroke="#ff0066" stroke-width="2"/>
<path d="M266.597,138.464h 6.2756" fill="none" stroke="#ff0066" stroke-width="2"/>
<g stroke="#ff0066" stroke-width="2" fill="none">
<circle cx="262.089" cy="138.464" r="4.50838"/>
</g>
<path d="M283.656,181.227v -15.1496" fill="none" stroke="#ff0066" stroke-width="2"/>
<path d="M283.656,157.061v -15.1496" fill="none" stroke="#ff0066" stroke-width="2"/>
<path d="M272.872,161.569h 6.2756" fill="none" stroke="#ff0066" stroke-width="2"/>
<path d="M288.165,161.569h 6.2756" fill="none" stroke="#ff0066" stroke-width="2"/>
<g stroke="#ff0066" stroke-width="2" fill="none">
<circle cx="283.656" cy="161.569" r="4.50838"/>
</g>
<path d="M305.224,158.486v -14.9789" fill="none" stroke="#ff0066" stroke-width="2"/>
<path d="M305.224,134.49v -14.9789" fill="none" stroke="#ff0066" stroke-width="2"/>
<path d="M294.44,138.998h 6.2756" fill="none" stroke="#ff0066" stroke-width="2"/>
<path d="M309.733,138.998h 6.2756" fill="none" stroke="#ff0066" stroke-width="2"/>
<g stroke="#ff0066" stroke-width="2" fill="none">
<circle cx="305.224" cy="138.998" r="4.50838"/>
</g>
<path d="M326.792,122.253v -14.7672" fill="none" stroke="#ff0066" stroke-width="2"/>
<path d="M326.792,98.4695v -14.7672" fill="none" stroke="#ff0066" stroke-width="2"/>
<path d="M316.008,102.978h 6.2756" fill="none" stroke="#ff0066" stroke-width="2"/>
<path d="M331.301,102.978h 6.2756" fill="none" stroke="#ff0066" stroke-width="2"/>
<g stroke="#ff0066" stroke-width="2" fill="none">
<circle cx="326.792" cy="102.978" r="4.50838"/>
</g>
<path d="M348.36,214.467v -14.2352" fill="none" stroke="#ff0066" stroke-width="2"/>
<path d="M348.36,191.215v -14.2352" fill="none" stroke="#ff0066" stroke-width="2"/>
<path d="M337.576,195.723h 6.2756" fill="none" stroke="#ff0066" stroke-width="2"/>
<path d="M352.869,195.723h 6.2756" fill="none" stroke="#ff0066" stroke-width="2"/>
<g stroke="#ff0066" stroke-width="2" fill="none">
<circle cx="348.36" cy="195.723" r="4.50838"/>
</g>
<path d="M369.928,166.223v -14.0077" fill="none" stroke="#ff0066" stroke-width="2"/>
<path d="M369.928,143.198v -14.0077" fill="none" stroke="#ff0066" stroke-width="2"/>
<path d="M359.144,147.707h 6.2756" fill="none" stroke="#ff0066" stroke-width="2"/>
<path d="M374.437,147.707h 6.2756" fill="none" stroke="#ff0066" stroke-width="2"/>
<g stroke="#ff0066" stroke-width="2" fill="none">
<circle cx="369.928" cy="147.707" r="4.50838"/>
</g>
<path d="M391.496,177.576v -13.7141" fill="none" stroke="#ff0066" stroke-width="2"/>
<path d="M391.496,154.845v -13.7141" fill="none" stroke="#ff0066" stroke-width="2"/>
<path d="M380.712,159.353h 6.2756" fill="none" stroke="#ff0066" stroke-width="2"/>
<path d="M396.005,159.353h 6.2756" fill="none" stroke="#ff0066" stroke-width="2"/>
<g stroke="#ff0066" stroke-width="2" fill="none">
<circle cx="391.496" cy="159.353" r="4.50838"/>
</g>
<path d="M413.064,196.834v -13.3869" fill="none" stroke="#ff0066" stroke-width="2"/>
<path d="M413.064,174.43v -13.3869" fill="none" stroke="#ff0066" stroke-width="2"/>
<path d="M402.28,178.939h 6.2756" fill="none" stroke="#ff0066" stroke-width="2"/>
<path d="M417.573,178.939h 6.2756" fill="none" stroke="#ff0066" stroke-width="2"/>
<g stroke="#ff0066" stroke-width="2" fill="none">
<circle cx="413.064" cy="178.939" r="4.50838"/>
</g>
<path d="M434.632,202.033v -12.8024" fill="none" stroke="#ff0066" stroke-width="2"/>
<path d="M434.632,180.213v -12.8024" fill="none" stroke="#ff0066" stroke-width="2"/>
<path d="M423.848,184.722h 6.2756" fill="none" stroke="#ff0066" stroke-width="2"/>
<path d="M439.141,184.722h 6.2756" fill="none" stroke="#ff0066" stroke-width="2"/>
<g stroke="#ff0066" stroke-width="2" fill="none">
<circle cx="434.632" cy="184.722" r="4.50838"/>
</g>
<path d="M456.2,207.652v -12.7658" fill="none" stroke="#ff0066" stroke-width="2"/>
<path d="M456.2,185.869v -12.7658" fill="none" stroke="#ff0066" stroke-width="2"/>
<path d="M445.416,190.377h 6.2756" fill="none" stroke="#ff0066" stroke-width="2"/>
<path d="M460.708,190.377h 6.2756" fill="none" stroke="#ff0066" stroke-width="2"/>
<g stroke="#ff0066" stroke-width="2" fill="none">
<circle cx="456.2" cy="190.377" r="4.50838"/>
</g>
<path d="M477.768,178.389v -12.5177" fill="none" stroke="#ff0066" stroke-width="2"/>
<path d="M477.768,156.854v -12.5177" fill="none" stroke="#ff0066" stroke-width="2"/>
<path d="M466.984,161.363h 6.2756" fill="none" stroke="#ff0066" stroke-width="2"/>
<path d="M482.276,161.363h 6.2756" fill="none" stroke="#ff0066" stroke-width="2"/>
<g stroke="#ff0066" stroke-width="2" fill="none">
<circle cx="477.768" cy="161.363" r="4.50838"/>
</g>
<path d="M499.336,229.701v -12.0087" fill="none" stroke="#ff0066" stroke-width="2"/>
<path d="M499.336,208.675v -12.0087" fill="none" stroke="#ff0066" stroke-width="2"/>
<path d="M488.552,213.184h 6.2756" fill="none" stroke="#ff0066" stroke-width="2"/>
<path d="M503.844,213.184h 6.2756" fill="none" stroke="#ff0066" stroke-width="2"/>
<g stroke="#ff0066" stroke-width="2" fill="none">
<circle cx="499.336" cy="213.184" r="4.50838"/>
</g>
<path d="M520.904,175.305v -11.8035" fill="none" stroke="#ff0066" stroke-width="2"/>
<path d="M520.904,154.484v -11.8035" fill="none" stroke="#ff0066" stroke-width="2"/>
<path d="M510.12,158.993h 6.2756" fill="none" stroke="#ff0066" stroke-width="2"/>
<path d="M525.412,158.993h 6.2756" fill="none" stroke="#ff0066" stroke-width="2"/>
<g stroke="#ff0066" stroke-width="2" fill="none">
<circle cx="520.904" cy="158.993" r="4.50838"/>
</g>
<path d="M542.472,146.898v -11.6214" fill="none" stroke="#ff0066" stroke-width="2"/>
<path d="M542.472,126.26v -11.6214" fill="none" stroke="#ff0066" stroke-width="2"/>
<path d="M531.688,130.769h 6.2756" fill="none" stroke="#ff0066" stroke-width="2"/>
<path d="M546.98,130.769h 6.2756" fill="none" stroke="#ff0066" stroke-width="2"/>
<g stroke="#ff0066" stroke-width="2" fill="none">
<circle cx="542.472" cy="130.769" r="4.50838"/>
</g>
<text xml:space="preserve" x="360.607" y="50.7193" fill="black" font-size="16.0105" font-family="Helvetica"> with EMC</text>
<text xml:space="preserve" x="352.717" y="50.7193" fill="black" font-size="16.0105" font-family="Times">&#0947;</text>
<text xml:space="preserve" x="344.828" y="50.7193" fill="black" font-size="16.0105" font-family="Times">&#0947;</text>
<text xml:space="preserve" x="336.938" y="50.7193" fill="black" font-size="16.0105" font-family="Times">&#0947;</text>
<text xml:space="preserve" x="331.866" y="50.7193" fill="black" font-size="16.0105" font-family="Helvetica"> </text>
<text xml:space="preserve" x="316.65" y="50.7193" fill="black" font-size="16.0105" font-family="Times">&#8594;</text>
<text xml:space="preserve" x="311.578" y="50.7193" fill="black" font-size="16.0105" font-family="Helvetica"> </text>
<text xml:space="preserve" x="303.689" y="50.7193" fill="black" font-size="16.0105" font-family="Times">&#0947;</text>
<text xml:space="preserve" x="298.053" y="45.0838" fill="black" font-size="10.8403" font-family="Helvetica">0</text>
<text xml:space="preserve" x="289.6" y="50.7193" fill="black" font-size="16.0105" font-family="Times">&#0960;</text>
<text xml:space="preserve" x="284.528" y="50.7193" fill="black" font-size="16.0105" font-family="Helvetica"> </text>
<text xml:space="preserve" x="269.312" y="50.7193" fill="black" font-size="16.0105" font-family="Times">&#8594;</text>
<text xml:space="preserve" x="264.24" y="50.7193" fill="black" font-size="16.0105" font-family="Helvetica"> </text>
<text xml:space="preserve" x="252.969" y="50.7193" fill="black" font-size="16.0105" font-family="Times">&#0969;</text>
<text xml:space="preserve" x="128.989" y="50.7193" fill="black" font-size="16.0105" font-family="Helvetica"> = 13 TeV (EG1), </text>
<text xml:space="preserve" x="120.536" y="50.7193" fill="black" font-size="16.0105" font-family="Helvetica" font-style="oblique">s</text>
<path d="M114.9,41.7025l 1.69064, 9.58031" fill="none" stroke="black" stroke-width="2"/>
<path d="M116.591,51.2829l 2.25419, -14.0887" fill="none" stroke="black"/>
<path d="M118.845,37.1942h 10.1439" fill="none" stroke="black"/>
<text xml:space="preserve" x="89.5406" y="50.7193" fill="black" font-size="16.0105" font-family="Helvetica">pp </text>
<text xml:space="preserve" x="89.5406" y="85.6593" fill="black" font-size="16.0105" font-family="Helvetica">ALICE work in progress</text>
<text xml:space="preserve" x="214.085" y="120.599" fill="black" font-size="16.0105" font-family="Helvetica">) &lt; 32.0</text>
<text xml:space="preserve" x="205.068" y="120.599" fill="black" font-size="16.0105" font-family="Helvetica" font-style="oblique">c</text>
<text xml:space="preserve" x="154.912" y="120.599" fill="black" font-size="16.0105" font-family="Helvetica"> /(GeV/</text>
<text xml:space="preserve" x="148.15" y="128.489" fill="black" font-size="10.8403" font-family="Helvetica">T</text>
<text xml:space="preserve" x="138.569" y="120.599" fill="black" font-size="16.0105" font-family="Helvetica" font-style="oblique">p</text>
<text xml:space="preserve" x="133.497" y="120.599" fill="black" font-size="16.0105" font-family="Helvetica"> </text>
<text xml:space="preserve" x="125.044" y="120.599" fill="black" font-size="16.0105" font-family="Times">&#8804;</text>
<text xml:space="preserve" x="89.5406" y="120.599" fill="black" font-size="16.0105" font-family="Helvetica">28.0 </text>
<rect x="312.311" y="55.3404" width="198.425" height="55.3404" fill="white"/>
<text xml:space="preserve" x="361.734" y="74.9519" fill="black" font-size="16.0105" font-family="Helvetica">extracted signal pol1</text>
<path d="M319.752,69.1755h 34.7244" fill="none" stroke="#33cccc" stroke-width="2"/>
<g stroke="#33cccc" stroke-width="2" fill="none">
<rect x="332.606" y="64.6671" width="9.01677" height="9.01677"/>
</g>
<text xml:space="preserve" x="361.734" y="102.566" fill="black" font-size="16.0105" font-family="Helvetica">extracted signal pol2</text>
<path d="M319.752,96.8457h 34.7244" fill="none" stroke="#ff0066" stroke-width="2"/>
<g stroke="#ff0066" stroke-width="2" fill="none">
<circle cx="337.114" cy="96.8457" r="4.50838"/>
</g></svg>
