<?xml version="1.0" standalone="no"?>
<svg width="567.429" height="553.904" viewBox="0 0 567.429 553.904" xmlns="http://www.w3.org/2000/svg" shape-rendering="crispEdges">
<title>
Data/EG1/OmegaTGPSPlusPSNCell/SameEventToBackgroundRatio_06.svg
</title>
<desc>
Creator: ROOT Version 6.20/08
CreationDate: Mon Mar 29 21:31:15 2021</desc>
<defs>
</defs>
<rect x="0.5" y="0" width="566.929" height="553.404" fill="white"/>
<rect x="68.5315" y="16.6021" width="484.724" height="481.461" fill="white"/>
<rect x="68.5315" y="16.6021" width="484.724" height="481.461" fill="none" stroke="black"/>
<rect x="68.5315" y="16.6021" width="484.724" height="481.461" fill="white"/>
<rect x="68.5315" y="16.6021" width="484.724" height="481.461" fill="none" stroke="black"/>
<g fill="black">
<circle cx="109.325" cy="471.22" r="6.76257"/>
</g>
<g fill="black">
<circle cx="114.124" cy="333.477" r="6.76257"/>
</g>
<g fill="black">
<circle cx="118.924" cy="262.546" r="6.76257"/>
</g>
<g fill="black">
<circle cx="123.723" cy="219.29" r="6.76257"/>
</g>
<g fill="black">
<circle cx="128.522" cy="264.571" r="6.76257"/>
</g>
<g fill="black">
<circle cx="133.321" cy="339.639" r="6.76257"/>
</g>
<g fill="black">
<circle cx="138.121" cy="279.173" r="6.76257"/>
</g>
<g fill="black">
<circle cx="142.92" cy="282.438" r="6.76257"/>
</g>
<g fill="black">
<circle cx="147.719" cy="274.411" r="6.76257"/>
</g>
<g fill="black">
<circle cx="152.518" cy="262.308" r="6.76257"/>
</g>
<g fill="black">
<circle cx="157.318" cy="263.707" r="6.76257"/>
</g>
<g fill="black">
<circle cx="162.117" cy="267.271" r="6.76257"/>
</g>
<g fill="black">
<circle cx="166.916" cy="271.391" r="6.76257"/>
</g>
<g fill="black">
<circle cx="171.715" cy="275.455" r="6.76257"/>
</g>
<g fill="black">
<circle cx="176.515" cy="278.536" r="6.76257"/>
</g>
<g fill="black">
<circle cx="181.314" cy="282.266" r="6.76257"/>
</g>
<g fill="black">
<circle cx="186.113" cy="282.804" r="6.76257"/>
</g>
<g fill="black">
<circle cx="190.912" cy="283.71" r="6.76257"/>
</g>
<g fill="black">
<circle cx="195.712" cy="285.16" r="6.76257"/>
</g>
<g fill="black">
<circle cx="200.511" cy="287.131" r="6.76257"/>
</g>
<g fill="black">
<circle cx="205.31" cy="289.483" r="6.76257"/>
</g>
<g fill="black">
<circle cx="210.109" cy="291.941" r="6.76257"/>
</g>
<g fill="black">
<circle cx="214.909" cy="290.541" r="6.76257"/>
</g>
<g fill="black">
<circle cx="219.708" cy="289.787" r="6.76257"/>
</g>
<g fill="black">
<circle cx="224.507" cy="288.816" r="6.76257"/>
</g>
<g fill="black">
<circle cx="229.306" cy="285.563" r="6.76257"/>
</g>
<g fill="black">
<circle cx="234.106" cy="282.859" r="6.76257"/>
</g>
<g fill="black">
<circle cx="238.905" cy="281.49" r="6.76257"/>
</g>
<g fill="black">
<circle cx="243.704" cy="276.371" r="6.76257"/>
</g>
<g fill="black">
<circle cx="248.503" cy="274.846" r="6.76257"/>
</g>
<g fill="black">
<circle cx="253.303" cy="273.871" r="6.76257"/>
</g>
<g fill="black">
<circle cx="258.102" cy="272.639" r="6.76257"/>
</g>
<g fill="black">
<circle cx="262.901" cy="271.274" r="6.76257"/>
</g>
<g fill="black">
<circle cx="267.7" cy="269.698" r="6.76257"/>
</g>
<g fill="black">
<circle cx="272.5" cy="267.55" r="6.76257"/>
</g>
<g fill="black">
<circle cx="277.299" cy="265.645" r="6.76257"/>
</g>
<g fill="black">
<circle cx="339.689" cy="251.815" r="6.76257"/>
</g>
<g fill="black">
<circle cx="344.488" cy="251.827" r="6.76257"/>
</g>
<g fill="black">
<circle cx="349.288" cy="250.456" r="6.76257"/>
</g>
<g fill="black">
<circle cx="354.087" cy="249.394" r="6.76257"/>
</g>
<g fill="black">
<circle cx="358.886" cy="247.521" r="6.76257"/>
</g>
<g fill="black">
<circle cx="363.685" cy="246.759" r="6.76257"/>
</g>
<g fill="black">
<circle cx="368.485" cy="246.429" r="6.76257"/>
</g>
<g fill="black">
<circle cx="373.284" cy="245.89" r="6.76257"/>
</g>
<g fill="black">
<circle cx="378.083" cy="245.891" r="6.76257"/>
</g>
<g fill="black">
<circle cx="382.882" cy="242.936" r="6.76257"/>
</g>
<g fill="black">
<circle cx="387.682" cy="241.752" r="6.76257"/>
</g>
<g fill="black">
<circle cx="392.481" cy="241.453" r="6.76257"/>
</g>
<g fill="black">
<circle cx="397.28" cy="236.547" r="6.76257"/>
</g>
<g fill="black">
<circle cx="402.079" cy="236.21" r="6.76257"/>
</g>
<g fill="black">
<circle cx="406.879" cy="234.765" r="6.76257"/>
</g>
<g fill="black">
<circle cx="411.678" cy="233.021" r="6.76257"/>
</g>
<g fill="black">
<circle cx="416.477" cy="233.915" r="6.76257"/>
</g>
<g fill="black">
<circle cx="421.276" cy="230.622" r="6.76257"/>
</g>
<g fill="black">
<circle cx="426.076" cy="228.44" r="6.76257"/>
</g>
<g fill="black">
<circle cx="430.875" cy="229.737" r="6.76257"/>
</g>
<g fill="black">
<circle cx="435.674" cy="227.119" r="6.76257"/>
</g>
<g fill="black">
<circle cx="440.473" cy="228.171" r="6.76257"/>
</g>
<g fill="black">
<circle cx="445.273" cy="224.768" r="6.76257"/>
</g>
<g fill="black">
<circle cx="450.072" cy="223.736" r="6.76257"/>
</g>
<g fill="black">
<circle cx="454.871" cy="222.524" r="6.76257"/>
</g>
<g fill="black">
<circle cx="459.671" cy="220.103" r="6.76257"/>
</g>
<g fill="black">
<circle cx="464.47" cy="222.236" r="6.76257"/>
</g>
<g fill="black">
<circle cx="469.269" cy="217.051" r="6.76257"/>
</g>
<g fill="black">
<circle cx="474.068" cy="217.129" r="6.76257"/>
</g>
<g fill="black">
<circle cx="478.867" cy="216.915" r="6.76257"/>
</g>
<g fill="black">
<circle cx="483.667" cy="217.185" r="6.76257"/>
</g>
<g fill="black">
<circle cx="488.466" cy="213.094" r="6.76257"/>
</g>
<g fill="black">
<circle cx="493.265" cy="213.267" r="6.76257"/>
</g>
<g fill="black">
<circle cx="498.065" cy="210.018" r="6.76257"/>
</g>
<g fill="black">
<circle cx="502.864" cy="210.286" r="6.76257"/>
</g>
<g fill="black">
<circle cx="507.663" cy="206.978" r="6.76257"/>
</g>
<g fill="black">
<circle cx="512.462" cy="209.412" r="6.76257"/>
</g>
<g fill="black">
<circle cx="517.262" cy="205.726" r="6.76257"/>
</g>
<g fill="black">
<circle cx="522.061" cy="205.785" r="6.76257"/>
</g>
<g fill="black">
<circle cx="526.86" cy="201.656" r="6.76257"/>
</g>
<g fill="black">
<circle cx="531.659" cy="202.042" r="6.76257"/>
</g>
<g fill="black">
<circle cx="536.458" cy="200.078" r="6.76257"/>
</g>
<g fill="black">
<circle cx="541.258" cy="197.192" r="6.76257"/>
</g>
<g fill="black">
<circle cx="546.057" cy="197.15" r="6.76257"/>
</g>
<path d="M68.5315,498.064h 484.724" fill="none" stroke="black"/>
<path d="M68.5315,483.869v 14.1948" fill="none" stroke="black"/>
<path d="M83.5292,490.966v 7.09741" fill="none" stroke="black"/>
<path d="M98.5268,490.966v 7.09741" fill="none" stroke="black"/>
<path d="M113.524,490.966v 7.09741" fill="none" stroke="black"/>
<path d="M128.522,483.869v 14.1948" fill="none" stroke="black"/>
<path d="M143.52,490.966v 7.09741" fill="none" stroke="black"/>
<path d="M158.517,490.966v 7.09741" fill="none" stroke="black"/>
<path d="M173.515,490.966v 7.09741" fill="none" stroke="black"/>
<path d="M188.513,483.869v 14.1948" fill="none" stroke="black"/>
<path d="M203.51,490.966v 7.09741" fill="none" stroke="black"/>
<path d="M218.508,490.966v 7.09741" fill="none" stroke="black"/>
<path d="M233.506,490.966v 7.09741" fill="none" stroke="black"/>
<path d="M248.503,483.869v 14.1948" fill="none" stroke="black"/>
<path d="M263.501,490.966v 7.09741" fill="none" stroke="black"/>
<path d="M278.499,490.966v 7.09741" fill="none" stroke="black"/>
<path d="M293.496,490.966v 7.09741" fill="none" stroke="black"/>
<path d="M308.494,483.869v 14.1948" fill="none" stroke="black"/>
<path d="M323.492,490.966v 7.09741" fill="none" stroke="black"/>
<path d="M338.489,490.966v 7.09741" fill="none" stroke="black"/>
<path d="M353.487,490.966v 7.09741" fill="none" stroke="black"/>
<path d="M368.485,483.869v 14.1948" fill="none" stroke="black"/>
<path d="M383.482,490.966v 7.09741" fill="none" stroke="black"/>
<path d="M398.48,490.966v 7.09741" fill="none" stroke="black"/>
<path d="M413.478,490.966v 7.09741" fill="none" stroke="black"/>
<path d="M428.475,483.869v 14.1948" fill="none" stroke="black"/>
<path d="M443.473,490.966v 7.09741" fill="none" stroke="black"/>
<path d="M458.471,490.966v 7.09741" fill="none" stroke="black"/>
<path d="M473.468,490.966v 7.09741" fill="none" stroke="black"/>
<path d="M488.466,483.869v 14.1948" fill="none" stroke="black"/>
<path d="M503.464,490.966v 7.09741" fill="none" stroke="black"/>
<path d="M518.461,490.966v 7.09741" fill="none" stroke="black"/>
<path d="M533.459,490.966v 7.09741" fill="none" stroke="black"/>
<path d="M548.457,483.869v 14.1948" fill="none" stroke="black"/>
<path d="M548.457,483.869v 14.1948" fill="none" stroke="black"/>
<text xml:space="preserve" x="63.6174" y="513.956" fill="black" font-size="16.0105" font-family="Helvetica">0</text>
<text xml:space="preserve" x="117.718" y="513.956" fill="black" font-size="16.0105" font-family="Helvetica">0.2</text>
<text xml:space="preserve" x="177.454" y="513.956" fill="black" font-size="16.0105" font-family="Helvetica">0.4</text>
<text xml:space="preserve" x="237.754" y="513.956" fill="black" font-size="16.0105" font-family="Helvetica">0.6</text>
<text xml:space="preserve" x="297.49" y="513.956" fill="black" font-size="16.0105" font-family="Helvetica">0.8</text>
<text xml:space="preserve" x="365.115" y="513.956" fill="black" font-size="16.0105" font-family="Helvetica">1</text>
<text xml:space="preserve" x="417.525" y="513.956" fill="black" font-size="16.0105" font-family="Helvetica">1.2</text>
<text xml:space="preserve" x="477.261" y="513.956" fill="black" font-size="16.0105" font-family="Helvetica">1.4</text>
<text xml:space="preserve" x="537.561" y="513.956" fill="black" font-size="16.0105" font-family="Helvetica">1.6</text>
<text xml:space="preserve" x="548.268" y="537.625" fill="black" font-size="16.0105" font-family="Helvetica">)</text>
<text xml:space="preserve" x="542.633" y="532.553" fill="black" font-size="10.8403" font-family="Helvetica">2</text>
<text xml:space="preserve" x="533.616" y="537.625" fill="black" font-size="16.0105" font-family="Helvetica" font-style="oblique">c</text>
<text xml:space="preserve" x="487.405" y="537.625" fill="black" font-size="16.0105" font-family="Helvetica"> (GeV/</text>
<text xml:space="preserve" x="473.317" y="542.697" fill="black" font-size="10.8403" font-family="Helvetica">inv</text>
<text xml:space="preserve" x="459.792" y="537.625" fill="black" font-size="16.0105" font-family="Helvetica" font-style="oblique">m</text>
<path d="M68.5315,16.6021h 484.724" fill="none" stroke="black"/>
<path d="M68.5315,30.7969v -14.1948" fill="none" stroke="black"/>
<path d="M83.5292,23.6995v -7.09741" fill="none" stroke="black"/>
<path d="M98.5268,23.6995v -7.09741" fill="none" stroke="black"/>
<path d="M113.524,23.6995v -7.09741" fill="none" stroke="black"/>
<path d="M128.522,30.7969v -14.1948" fill="none" stroke="black"/>
<path d="M143.52,23.6995v -7.09741" fill="none" stroke="black"/>
<path d="M158.517,23.6995v -7.09741" fill="none" stroke="black"/>
<path d="M173.515,23.6995v -7.09741" fill="none" stroke="black"/>
<path d="M188.513,30.7969v -14.1948" fill="none" stroke="black"/>
<path d="M203.51,23.6995v -7.09741" fill="none" stroke="black"/>
<path d="M218.508,23.6995v -7.09741" fill="none" stroke="black"/>
<path d="M233.506,23.6995v -7.09741" fill="none" stroke="black"/>
<path d="M248.503,30.7969v -14.1948" fill="none" stroke="black"/>
<path d="M263.501,23.6995v -7.09741" fill="none" stroke="black"/>
<path d="M278.499,23.6995v -7.09741" fill="none" stroke="black"/>
<path d="M293.496,23.6995v -7.09741" fill="none" stroke="black"/>
<path d="M308.494,30.7969v -14.1948" fill="none" stroke="black"/>
<path d="M323.492,23.6995v -7.09741" fill="none" stroke="black"/>
<path d="M338.489,23.6995v -7.09741" fill="none" stroke="black"/>
<path d="M353.487,23.6995v -7.09741" fill="none" stroke="black"/>
<path d="M368.485,30.7969v -14.1948" fill="none" stroke="black"/>
<path d="M383.482,23.6995v -7.09741" fill="none" stroke="black"/>
<path d="M398.48,23.6995v -7.09741" fill="none" stroke="black"/>
<path d="M413.478,23.6995v -7.09741" fill="none" stroke="black"/>
<path d="M428.475,30.7969v -14.1948" fill="none" stroke="black"/>
<path d="M443.473,23.6995v -7.09741" fill="none" stroke="black"/>
<path d="M458.471,23.6995v -7.09741" fill="none" stroke="black"/>
<path d="M473.468,23.6995v -7.09741" fill="none" stroke="black"/>
<path d="M488.466,30.7969v -14.1948" fill="none" stroke="black"/>
<path d="M503.464,23.6995v -7.09741" fill="none" stroke="black"/>
<path d="M518.461,23.6995v -7.09741" fill="none" stroke="black"/>
<path d="M533.459,23.6995v -7.09741" fill="none" stroke="black"/>
<path d="M548.457,30.7969v -14.1948" fill="none" stroke="black"/>
<path d="M548.457,30.7969v -14.1948" fill="none" stroke="black"/>
<path d="M68.5315,498.064v -481.461" fill="none" stroke="black"/>
<path d="M83.3283,498.064h -14.7969" fill="none" stroke="black"/>
<path d="M75.9299,487.629h -7.39843" fill="none" stroke="black"/>
<path d="M75.9299,477.194h -7.39843" fill="none" stroke="black"/>
<path d="M75.9299,466.76h -7.39843" fill="none" stroke="black"/>
<path d="M75.9299,456.325h -7.39843" fill="none" stroke="black"/>
<path d="M83.3283,445.89h -14.7969" fill="none" stroke="black"/>
<path d="M75.9299,435.455h -7.39843" fill="none" stroke="black"/>
<path d="M75.9299,425.021h -7.39843" fill="none" stroke="black"/>
<path d="M75.9299,414.586h -7.39843" fill="none" stroke="black"/>
<path d="M75.9299,404.151h -7.39843" fill="none" stroke="black"/>
<path d="M83.3283,393.717h -14.7969" fill="none" stroke="black"/>
<path d="M75.9299,383.282h -7.39843" fill="none" stroke="black"/>
<path d="M75.9299,372.847h -7.39843" fill="none" stroke="black"/>
<path d="M75.9299,362.413h -7.39843" fill="none" stroke="black"/>
<path d="M75.9299,351.978h -7.39843" fill="none" stroke="black"/>
<path d="M83.3283,341.543h -14.7969" fill="none" stroke="black"/>
<path d="M75.9299,331.108h -7.39843" fill="none" stroke="black"/>
<path d="M75.9299,320.674h -7.39843" fill="none" stroke="black"/>
<path d="M75.9299,310.239h -7.39843" fill="none" stroke="black"/>
<path d="M75.9299,299.804h -7.39843" fill="none" stroke="black"/>
<path d="M83.3283,289.37h -14.7969" fill="none" stroke="black"/>
<path d="M75.9299,278.935h -7.39843" fill="none" stroke="black"/>
<path d="M75.9299,268.5h -7.39843" fill="none" stroke="black"/>
<path d="M75.9299,258.066h -7.39843" fill="none" stroke="black"/>
<path d="M75.9299,247.631h -7.39843" fill="none" stroke="black"/>
<path d="M83.3283,237.196h -14.7969" fill="none" stroke="black"/>
<path d="M75.9299,226.761h -7.39843" fill="none" stroke="black"/>
<path d="M75.9299,216.327h -7.39843" fill="none" stroke="black"/>
<path d="M75.9299,205.892h -7.39843" fill="none" stroke="black"/>
<path d="M75.9299,195.457h -7.39843" fill="none" stroke="black"/>
<path d="M83.3283,185.023h -14.7969" fill="none" stroke="black"/>
<path d="M75.9299,174.588h -7.39843" fill="none" stroke="black"/>
<path d="M75.9299,164.153h -7.39843" fill="none" stroke="black"/>
<path d="M75.9299,153.719h -7.39843" fill="none" stroke="black"/>
<path d="M75.9299,143.284h -7.39843" fill="none" stroke="black"/>
<path d="M83.3283,132.849h -14.7969" fill="none" stroke="black"/>
<path d="M75.9299,122.414h -7.39843" fill="none" stroke="black"/>
<path d="M75.9299,111.98h -7.39843" fill="none" stroke="black"/>
<path d="M75.9299,101.545h -7.39843" fill="none" stroke="black"/>
<path d="M75.9299,91.1104h -7.39843" fill="none" stroke="black"/>
<path d="M83.3283,80.6757h -14.7969" fill="none" stroke="black"/>
<path d="M75.9299,70.241h -7.39843" fill="none" stroke="black"/>
<path d="M75.9299,59.8063h -7.39843" fill="none" stroke="black"/>
<path d="M75.9299,49.3716h -7.39843" fill="none" stroke="black"/>
<path d="M75.9299,38.9369h -7.39843" fill="none" stroke="black"/>
<path d="M83.3283,28.5022h -14.7969" fill="none" stroke="black"/>
<path d="M83.3283,28.5022h -14.7969" fill="none" stroke="black"/>
<path d="M75.9299,18.0675h -7.39843" fill="none" stroke="black"/>
<text xml:space="preserve" x="56.8548" y="503.248" fill="black" font-size="16.0105" font-family="Helvetica">0</text>
<text xml:space="preserve" x="48.4016" y="451.402" fill="black" font-size="16.0105" font-family="Helvetica">10</text>
<text xml:space="preserve" x="48.4016" y="398.992" fill="black" font-size="16.0105" font-family="Helvetica">20</text>
<text xml:space="preserve" x="48.4016" y="347.145" fill="black" font-size="16.0105" font-family="Helvetica">30</text>
<text xml:space="preserve" x="48.4016" y="294.736" fill="black" font-size="16.0105" font-family="Helvetica">40</text>
<text xml:space="preserve" x="48.4016" y="242.326" fill="black" font-size="16.0105" font-family="Helvetica">50</text>
<text xml:space="preserve" x="48.4016" y="190.479" fill="black" font-size="16.0105" font-family="Helvetica">60</text>
<text xml:space="preserve" x="48.4016" y="138.069" fill="black" font-size="16.0105" font-family="Helvetica">70</text>
<text xml:space="preserve" x="48.4016" y="86.2228" fill="black" font-size="16.0105" font-family="Helvetica">80</text>
<text xml:space="preserve" x="48.4016" y="33.8129" fill="black" font-size="16.0105" font-family="Helvetica">90</text>
<text xml:space="preserve" x="99.1209" y="7.32612" fill="black" font-size="10.8403" font-family="Helvetica">3</text>
<text xml:space="preserve" x="93.4854" y="7.32612" fill="black" font-size="10.8403" font-family="Times">&#8722;</text>
<text xml:space="preserve" x="76.579" y="14.6522" fill="black" font-size="16.0105" font-family="Helvetica">10</text>
<text xml:space="preserve" x="68.1257" y="14.6522" fill="black" font-size="16.0105" font-family="Times">&#0215;</text>
<g transform="rotate(-90,38.2577,98.0573)">
<text xml:space="preserve" x="38.2577" y="98.0573" fill="black" font-size="16.0105" font-family="Helvetica">background</text>
</g>
<g transform="rotate(-90,21.9148,98.0573)">
<text xml:space="preserve" x="21.9148" y="98.0573" fill="black" font-size="16.0105" font-family="Helvetica">same event</text>
</g>
<path d="M24.169,98.0573l 0.563548, -81.7144" fill="none" stroke="black" stroke-width="2"/>
<path d="M553.256,498.064v -481.461" fill="none" stroke="black"/>
<path d="M538.459,498.064h 14.7969" fill="none" stroke="black"/>
<path d="M545.857,487.629h 7.39843" fill="none" stroke="black"/>
<path d="M545.857,477.194h 7.39843" fill="none" stroke="black"/>
<path d="M545.857,466.76h 7.39843" fill="none" stroke="black"/>
<path d="M545.857,456.325h 7.39843" fill="none" stroke="black"/>
<path d="M538.459,445.89h 14.7969" fill="none" stroke="black"/>
<path d="M545.857,435.455h 7.39843" fill="none" stroke="black"/>
<path d="M545.857,425.021h 7.39843" fill="none" stroke="black"/>
<path d="M545.857,414.586h 7.39843" fill="none" stroke="black"/>
<path d="M545.857,404.151h 7.39843" fill="none" stroke="black"/>
<path d="M538.459,393.717h 14.7969" fill="none" stroke="black"/>
<path d="M545.857,383.282h 7.39843" fill="none" stroke="black"/>
<path d="M545.857,372.847h 7.39843" fill="none" stroke="black"/>
<path d="M545.857,362.413h 7.39843" fill="none" stroke="black"/>
<path d="M545.857,351.978h 7.39843" fill="none" stroke="black"/>
<path d="M538.459,341.543h 14.7969" fill="none" stroke="black"/>
<path d="M545.857,331.108h 7.39843" fill="none" stroke="black"/>
<path d="M545.857,320.674h 7.39843" fill="none" stroke="black"/>
<path d="M545.857,310.239h 7.39843" fill="none" stroke="black"/>
<path d="M545.857,299.804h 7.39843" fill="none" stroke="black"/>
<path d="M538.459,289.37h 14.7969" fill="none" stroke="black"/>
<path d="M545.857,278.935h 7.39843" fill="none" stroke="black"/>
<path d="M545.857,268.5h 7.39843" fill="none" stroke="black"/>
<path d="M545.857,258.066h 7.39843" fill="none" stroke="black"/>
<path d="M545.857,247.631h 7.39843" fill="none" stroke="black"/>
<path d="M538.459,237.196h 14.7969" fill="none" stroke="black"/>
<path d="M545.857,226.761h 7.39843" fill="none" stroke="black"/>
<path d="M545.857,216.327h 7.39843" fill="none" stroke="black"/>
<path d="M545.857,205.892h 7.39843" fill="none" stroke="black"/>
<path d="M545.857,195.457h 7.39843" fill="none" stroke="black"/>
<path d="M538.459,185.023h 14.7969" fill="none" stroke="black"/>
<path d="M545.857,174.588h 7.39843" fill="none" stroke="black"/>
<path d="M545.857,164.153h 7.39843" fill="none" stroke="black"/>
<path d="M545.857,153.719h 7.39843" fill="none" stroke="black"/>
<path d="M545.857,143.284h 7.39843" fill="none" stroke="black"/>
<path d="M538.459,132.849h 14.7969" fill="none" stroke="black"/>
<path d="M545.857,122.414h 7.39843" fill="none" stroke="black"/>
<path d="M545.857,111.98h 7.39843" fill="none" stroke="black"/>
<path d="M545.857,101.545h 7.39843" fill="none" stroke="black"/>
<path d="M545.857,91.1104h 7.39843" fill="none" stroke="black"/>
<path d="M538.459,80.6757h 14.7969" fill="none" stroke="black"/>
<path d="M545.857,70.241h 7.39843" fill="none" stroke="black"/>
<path d="M545.857,59.8063h 7.39843" fill="none" stroke="black"/>
<path d="M545.857,49.3716h 7.39843" fill="none" stroke="black"/>
<path d="M545.857,38.9369h 7.39843" fill="none" stroke="black"/>
<path d="M538.459,28.5022h 14.7969" fill="none" stroke="black"/>
<path d="M538.459,28.5022h 14.7969" fill="none" stroke="black"/>
<path d="M545.857,18.0675h 7.39843" fill="none" stroke="black"/>
<g stroke="#333333" stroke-width="2" fill="none">
<circle cx="282.098" cy="264.51" r="5.63548"/>
</g>
<g stroke="#333333" stroke-width="2" fill="none">
<circle cx="286.897" cy="261.646" r="5.63548"/>
</g>
<g stroke="#333333" stroke-width="2" fill="none">
<circle cx="291.697" cy="259.399" r="5.63548"/>
</g>
<g stroke="#333333" stroke-width="2" fill="none">
<circle cx="296.496" cy="255.681" r="5.63548"/>
</g>
<g stroke="#333333" stroke-width="2" fill="none">
<circle cx="301.295" cy="254.612" r="5.63548"/>
</g>
<g stroke="#333333" stroke-width="2" fill="none">
<circle cx="306.094" cy="253.197" r="5.63548"/>
</g>
<g stroke="#333333" stroke-width="2" fill="none">
<circle cx="310.894" cy="254.426" r="5.63548"/>
</g>
<g stroke="#333333" stroke-width="2" fill="none">
<circle cx="315.693" cy="253.692" r="5.63548"/>
</g>
<g stroke="#333333" stroke-width="2" fill="none">
<circle cx="320.492" cy="255.588" r="5.63548"/>
</g>
<g stroke="#333333" stroke-width="2" fill="none">
<circle cx="325.291" cy="254.768" r="5.63548"/>
</g>
<g stroke="#333333" stroke-width="2" fill="none">
<circle cx="330.091" cy="253.576" r="5.63548"/>
</g>
<g stroke="#333333" stroke-width="2" fill="none">
<circle cx="334.89" cy="252.489" r="5.63548"/>
</g>
<path d="M98.7518,318.502l 0.44993, -0.121884l 0.44993, -0.121884l 0.44993, -0.121884l 0.44993, -0.121884l 0.44993, -0.121884l 0.44993, -0.121884l 0.44993, -0.121884l 0.44993, -0.121884l 0.44993, -0.121884l 0.44993, -0.121884l 0.44993, -0.121884l
 0.44993, -0.121884l 0.44993, -0.121884l 0.44993, -0.121884l 0.44993, -0.121884l 0.44993, -0.121884l 0.44993, -0.121884l 0.44993, -0.121884l 0.44993, -0.121884l 0.44993, -0.121884l 0.44993, -0.121884l 0.44993, -0.121884l 0.44993, -0.121884l 0.44993,
 -0.121884l 0.44993, -0.121884l 0.44993, -0.121884l 0.44993, -0.121884l 0.44993, -0.121884l 0.44993, -0.121884l 0.44993, -0.121884l 0.44993, -0.121884l 0.44993, -0.121884l 0.44993, -0.121884l 0.44993, -0.121884l 0.44993, -0.121884l 0.44993,
 -0.121884l 0.44993, -0.121884l 0.44993, -0.121884l 0.44993, -0.121884l 0.44993, -0.121884l 0.44993, -0.121884l 0.44993, -0.121884l 0.44993, -0.121884l 0.44993, -0.121884l 0.44993, -0.121884l 0.44993, -0.121884l 0.44993, -0.121884l 0.44993,
 -0.121884l 0.44993, -0.121884" fill="none" stroke="#33cccc" stroke-width="3"/>
<path d="M120.798,312.53l 0.44993, -0.121884l 0.44993, -0.121884l 0.44993, -0.121884l 0.44993, -0.121884l 0.44993, -0.121884l 0.44993, -0.121884l 0.44993, -0.121884l 0.44993, -0.121884l 0.44993, -0.121884l 0.44993, -0.121884l 0.44993, -0.121884l
 0.44993, -0.121884l 0.44993, -0.121884l 0.44993, -0.121884l 0.44993, -0.121884l 0.44993, -0.121884l 0.44993, -0.121884l 0.44993, -0.121884l 0.44993, -0.121884l 0.44993, -0.121884l 0.44993, -0.121884l 0.44993, -0.121884l 0.44993, -0.121884l 0.44993,
 -0.121884l 0.44993, -0.121884l 0.44993, -0.121884l 0.44993, -0.121884l 0.44993, -0.121884l 0.44993, -0.121884l 0.44993, -0.121884l 0.44993, -0.121884l 0.44993, -0.121884l 0.44993, -0.121884l 0.44993, -0.121884l 0.44993, -0.121884l 0.44993,
 -0.121884l 0.44993, -0.121884l 0.44993, -0.121884l 0.44993, -0.121884l 0.44993, -0.121884l 0.44993, -0.121884l 0.44993, -0.121884l 0.44993, -0.121884l 0.44993, -0.121884l 0.44993, -0.121884l 0.44993, -0.121884l 0.44993, -0.121884l 0.44993,
 -0.121884l 0.44993, -0.121884" fill="none" stroke="#33cccc" stroke-width="3"/>
<path d="M142.845,306.558l 0.44993, -0.121884l 0.44993, -0.121884l 0.44993, -0.121884l 0.44993, -0.121884l 0.44993, -0.121884l 0.44993, -0.121884l 0.44993, -0.121884l 0.44993, -0.121884l 0.44993, -0.121884l 0.44993, -0.121884l 0.44993, -0.121884l
 0.44993, -0.121884l 0.44993, -0.121884l 0.44993, -0.121884l 0.44993, -0.121884l 0.44993, -0.121884l 0.44993, -0.121884l 0.44993, -0.121884l 0.44993, -0.121884l 0.44993, -0.121884l 0.44993, -0.121884l 0.44993, -0.121884l 0.44993, -0.121884l 0.44993,
 -0.121884l 0.44993, -0.121884l 0.44993, -0.121884l 0.44993, -0.121884l 0.44993, -0.121884l 0.44993, -0.121884l 0.44993, -0.121884l 0.44993, -0.121884l 0.44993, -0.121884l 0.44993, -0.121884l 0.44993, -0.121884l 0.44993, -0.121884l 0.44993,
 -0.121884l 0.44993, -0.121884l 0.44993, -0.121884l 0.44993, -0.121884l 0.44993, -0.121884l 0.44993, -0.121884l 0.44993, -0.121884l 0.44993, -0.121884l 0.44993, -0.121884l 0.44993, -0.121884l 0.44993, -0.121884l 0.44993, -0.121884l 0.44993,
 -0.121884l 0.44993, -0.121884" fill="none" stroke="#33cccc" stroke-width="3"/>
<path d="M164.891,300.586l 0.44993, -0.121884l 0.44993, -0.121884l 0.44993, -0.121884l 0.44993, -0.121884l 0.44993, -0.121884l 0.44993, -0.121884l 0.44993, -0.121884l 0.44993, -0.121884l 0.44993, -0.121884l 0.44993, -0.121884l 0.44993, -0.121884l
 0.44993, -0.121884l 0.44993, -0.121884l 0.44993, -0.121884l 0.44993, -0.121884l 0.44993, -0.121884l 0.44993, -0.121884l 0.44993, -0.121884l 0.44993, -0.121884l 0.44993, -0.121884l 0.44993, -0.121884l 0.44993, -0.121884l 0.44993, -0.121884l 0.44993,
 -0.121884l 0.44993, -0.121884l 0.44993, -0.121884l 0.44993, -0.121884l 0.44993, -0.121884l 0.44993, -0.121884l 0.44993, -0.121884l 0.44993, -0.121884l 0.44993, -0.121884l 0.44993, -0.121884l 0.44993, -0.121884l 0.44993, -0.121884l 0.44993,
 -0.121884l 0.44993, -0.121884l 0.44993, -0.121884l 0.44993, -0.121884l 0.44993, -0.121884l 0.44993, -0.121884l 0.44993, -0.121884l 0.44993, -0.121884l 0.44993, -0.121884l 0.44993, -0.121884l 0.44993, -0.121884l 0.44993, -0.121884l 0.44993,
 -0.121884l 0.44993, -0.121884" fill="none" stroke="#33cccc" stroke-width="3"/>
<path d="M186.938,294.613l 0.44993, -0.121884l 0.44993, -0.121884l 0.44993, -0.121884l 0.44993, -0.121884l 0.44993, -0.121884l 0.44993, -0.121884l 0.44993, -0.121884l 0.44993, -0.121884l 0.44993, -0.121884l 0.44993, -0.121884l 0.44993, -0.121884l
 0.44993, -0.121884l 0.44993, -0.121884l 0.44993, -0.121884l 0.44993, -0.121884l 0.44993, -0.121884l 0.44993, -0.121884l 0.44993, -0.121884l 0.44993, -0.121884l 0.44993, -0.121884l 0.44993, -0.121884l 0.44993, -0.121884l 0.44993, -0.121884l 0.44993,
 -0.121884l 0.44993, -0.121884l 0.44993, -0.121884l 0.44993, -0.121884l 0.44993, -0.121884l 0.44993, -0.121884l 0.44993, -0.121884l 0.44993, -0.121884l 0.44993, -0.121884l 0.44993, -0.121884l 0.44993, -0.121884l 0.44993, -0.121884l 0.44993,
 -0.121884l 0.44993, -0.121884l 0.44993, -0.121884l 0.44993, -0.121884l 0.44993, -0.121884l 0.44993, -0.121884l 0.44993, -0.121884l 0.44993, -0.121884l 0.44993, -0.121884l 0.44993, -0.121884l 0.44993, -0.121884l 0.44993, -0.121884l 0.44993,
 -0.121884l 0.44993, -0.121884" fill="none" stroke="#33cccc" stroke-width="3"/>
<path d="M208.985,288.641l 0.44993, -0.121884l 0.44993, -0.121884l 0.44993, -0.121884l 0.44993, -0.121884l 0.44993, -0.121884l 0.44993, -0.121884l 0.44993, -0.121884l 0.44993, -0.121884l 0.44993, -0.121884l 0.44993, -0.121884l 0.44993, -0.121884l
 0.44993, -0.121884l 0.44993, -0.121884l 0.44993, -0.121884l 0.44993, -0.121884l 0.44993, -0.121884l 0.44993, -0.121884l 0.44993, -0.121884l 0.44993, -0.121884l 0.44993, -0.121884l 0.44993, -0.121884l 0.44993, -0.121884l 0.44993, -0.121884l 0.44993,
 -0.121884l 0.44993, -0.121884l 0.44993, -0.121884l 0.44993, -0.121884l 0.44993, -0.121884l 0.44993, -0.121884l 0.44993, -0.121884l 0.44993, -0.121884l 0.44993, -0.121884l 0.44993, -0.121884l 0.44993, -0.121884l 0.44993, -0.121884l 0.44993,
 -0.121884l 0.44993, -0.121884l 0.44993, -0.121884l 0.44993, -0.121884l 0.44993, -0.121884l 0.44993, -0.121884l 0.44993, -0.121884l 0.44993, -0.121884l 0.44993, -0.121884l 0.44993, -0.121884l 0.44993, -0.121884l 0.44993, -0.121884l 0.44993,
 -0.121884l 0.44993, -0.121884" fill="none" stroke="#33cccc" stroke-width="3"/>
<path d="M231.031,282.669l 0.44993, -0.121884l 0.44993, -0.121884l 0.44993, -0.121884l 0.44993, -0.121884l 0.44993, -0.121884l 0.44993, -0.121884l 0.44993, -0.121884l 0.44993, -0.121884l 0.44993, -0.121884l 0.44993, -0.121884l 0.44993, -0.121884l
 0.44993, -0.121884l 0.44993, -0.121884l 0.44993, -0.121884l 0.44993, -0.121884l 0.44993, -0.121884l 0.44993, -0.121884l 0.44993, -0.121884l 0.44993, -0.121884l 0.44993, -0.121884l 0.44993, -0.121884l 0.44993, -0.121884l 0.44993, -0.121884l 0.44993,
 -0.121884l 0.44993, -0.121884l 0.44993, -0.121884l 0.44993, -0.121884l 0.44993, -0.121884l 0.44993, -0.121884l 0.44993, -0.121884l 0.44993, -0.121884l 0.44993, -0.121884l 0.44993, -0.121884l 0.44993, -0.121884l 0.44993, -0.121884l 0.44993,
 -0.121884l 0.44993, -0.121884l 0.44993, -0.121884l 0.44993, -0.121884l 0.44993, -0.121884l 0.44993, -0.121884l 0.44993, -0.121884l 0.44993, -0.121884l 0.44993, -0.121884l 0.44993, -0.121884l 0.44993, -0.121884l 0.44993, -0.121884l 0.44993,
 -0.121884l 0.44993, -0.121884" fill="none" stroke="#33cccc" stroke-width="3"/>
<path d="M253.078,276.696l 0.44993, -0.121884l 0.44993, -0.121884l 0.44993, -0.121884l 0.44993, -0.121884l 0.44993, -0.121884l 0.44993, -0.121884l 0.44993, -0.121884l 0.44993, -0.121884l 0.44993, -0.121884l 0.44993, -0.121884l 0.44993, -0.121884l
 0.44993, -0.121884l 0.44993, -0.121884l 0.44993, -0.121884l 0.44993, -0.121884l 0.44993, -0.121884l 0.44993, -0.121884l 0.44993, -0.121884l 0.44993, -0.121884l 0.44993, -0.121884l 0.44993, -0.121884l 0.44993, -0.121884l 0.44993, -0.121884l 0.44993,
 -0.121884l 0.44993, -0.121884l 0.44993, -0.121884l 0.44993, -0.121884l 0.44993, -0.121884l 0.44993, -0.121884l 0.44993, -0.121884l 0.44993, -0.121884l 0.44993, -0.121884l 0.44993, -0.121884l 0.44993, -0.121884l 0.44993, -0.121884l 0.44993,
 -0.121884l 0.44993, -0.121884l 0.44993, -0.121884l 0.44993, -0.121884l 0.44993, -0.121884l 0.44993, -0.121884l 0.44993, -0.121884l 0.44993, -0.121884l 0.44993, -0.121884l 0.44993, -0.121884l 0.44993, -0.121884l 0.44993, -0.121884l 0.44993,
 -0.121884l 0.44993, -0.121884" fill="none" stroke="#33cccc" stroke-width="3"/>
<path d="M275.124,270.724l 0.44993, -0.121884l 0.44993, -0.121884l 0.44993, -0.121884l 0.44993, -0.121884l 0.44993, -0.121884l 0.44993, -0.121884l 0.44993, -0.121884l 0.44993, -0.121884l 0.44993, -0.121884l 0.44993, -0.121884l 0.44993, -0.121884l
 0.44993, -0.121884l 0.44993, -0.121884l 0.44993, -0.121884l 0.44993, -0.121884l 0.44993, -0.121884l 0.44993, -0.121884l 0.44993, -0.121884l 0.44993, -0.121884l 0.44993, -0.121884l 0.44993, -0.121884l 0.44993, -0.121884l 0.44993, -0.121884l 0.44993,
 -0.121884l 0.44993, -0.121884l 0.44993, -0.121884l 0.44993, -0.121884l 0.44993, -0.121884l 0.44993, -0.121884l 0.44993, -0.121884l 0.44993, -0.121884l 0.44993, -0.121884l 0.44993, -0.121884l 0.44993, -0.121884l 0.44993, -0.121884l 0.44993,
 -0.121884l 0.44993, -0.121884l 0.44993, -0.121884l 0.44993, -0.121884l 0.44993, -0.121884l 0.44993, -0.121884l 0.44993, -0.121884l 0.44993, -0.121884l 0.44993, -0.121884l 0.44993, -0.121884l 0.44993, -0.121884l 0.44993, -0.121884l 0.44993,
 -0.121884l 0.44993, -0.121884" fill="none" stroke="#33cccc" stroke-width="3"/>
<path d="M297.171,264.752l 0.44993, -0.121884l 0.44993, -0.121884l 0.44993, -0.121884l 0.44993, -0.121884l 0.44993, -0.121884l 0.44993, -0.121884l 0.44993, -0.121884l 0.44993, -0.121884l 0.44993, -0.121884l 0.44993, -0.121884l 0.44993, -0.121884l
 0.44993, -0.121884l 0.44993, -0.121884l 0.44993, -0.121884l 0.44993, -0.121884l 0.44993, -0.121884l 0.44993, -0.121884l 0.44993, -0.121884l 0.44993, -0.121884l 0.44993, -0.121884l 0.44993, -0.121884l 0.44993, -0.121884l 0.44993, -0.121884l 0.44993,
 -0.121884l 0.44993, -0.121884l 0.44993, -0.121884l 0.44993, -0.121884l 0.44993, -0.121884l 0.44993, -0.121884l 0.44993, -0.121884l 0.44993, -0.121884l 0.44993, -0.121884l 0.44993, -0.121884l 0.44993, -0.121884l 0.44993, -0.121884l 0.44993,
 -0.121884l 0.44993, -0.121884l 0.44993, -0.121884l 0.44993, -0.121884l 0.44993, -0.121884l 0.44993, -0.121884l 0.44993, -0.121884l 0.44993, -0.121884l 0.44993, -0.121884l 0.44993, -0.121884l 0.44993, -0.121884l 0.44993, -0.121884l 0.44993,
 -0.121884l 0.44993, -0.121884" fill="none" stroke="#33cccc" stroke-width="3"/>
<path d="M319.217,258.779l 0.44993, -0.121884l 0.44993, -0.121884l 0.44993, -0.121884l 0.44993, -0.121884l 0.44993, -0.121884l 0.44993, -0.121884l 0.44993, -0.121884l 0.44993, -0.121884l 0.44993, -0.121884l 0.44993, -0.121884l 0.44993, -0.121884l
 0.44993, -0.121884l 0.44993, -0.121884l 0.44993, -0.121884l 0.44993, -0.121884l 0.44993, -0.121884l 0.44993, -0.121884l 0.44993, -0.121884l 0.44993, -0.121884l 0.44993, -0.121884l 0.44993, -0.121884l 0.44993, -0.121884l 0.44993, -0.121884l 0.44993,
 -0.121884l 0.44993, -0.121884l 0.44993, -0.121884l 0.44993, -0.121884l 0.44993, -0.121884l 0.44993, -0.121884l 0.44993, -0.121884l 0.44993, -0.121884l 0.44993, -0.121884l 0.44993, -0.121884l 0.44993, -0.121884l 0.44993, -0.121884l 0.44993,
 -0.121884l 0.44993, -0.121884l 0.44993, -0.121884l 0.44993, -0.121884l 0.44993, -0.121884l 0.44993, -0.121884l 0.44993, -0.121884l 0.44993, -0.121884l 0.44993, -0.121884l 0.44993, -0.121884l 0.44993, -0.121884l 0.44993, -0.121884l 0.44993,
 -0.121884l 0.44993, -0.121884" fill="none" stroke="#33cccc" stroke-width="3"/>
<path d="M341.264,252.807l 0.44993, -0.121884l 0.44993, -0.121884l 0.44993, -0.121884l 0.44993, -0.121884l 0.44993, -0.121884l 0.44993, -0.121884l 0.44993, -0.121884l 0.44993, -0.121884l 0.44993, -0.121884l 0.44993, -0.121884l 0.44993, -0.121884l
 0.44993, -0.121884l 0.44993, -0.121884l 0.44993, -0.121884l 0.44993, -0.121884l 0.44993, -0.121884l 0.44993, -0.121884l 0.44993, -0.121884l 0.44993, -0.121884l 0.44993, -0.121884l 0.44993, -0.121884l 0.44993, -0.121884l 0.44993, -0.121884l 0.44993,
 -0.121884l 0.44993, -0.121884l 0.44993, -0.121884l 0.44993, -0.121884l 0.44993, -0.121884l 0.44993, -0.121884l 0.44993, -0.121884l 0.44993, -0.121884l 0.44993, -0.121884l 0.44993, -0.121884l 0.44993, -0.121884l 0.44993, -0.121884l 0.44993,
 -0.121884l 0.44993, -0.121884l 0.44993, -0.121884l 0.44993, -0.121884l 0.44993, -0.121884l 0.44993, -0.121884l 0.44993, -0.121884l 0.44993, -0.121884l 0.44993, -0.121884l 0.44993, -0.121884l 0.44993, -0.121884l 0.44993, -0.121884l 0.44993,
 -0.121884l 0.44993, -0.121884" fill="none" stroke="#33cccc" stroke-width="3"/>
<path d="M363.311,246.835l 0.44993, -0.121884l 0.44993, -0.121884l 0.44993, -0.121884l 0.44993, -0.121884l 0.44993, -0.121884l 0.44993, -0.121884l 0.44993, -0.121884l 0.44993, -0.121884l 0.44993, -0.121884l 0.44993, -0.121884l 0.44993, -0.121884l
 0.44993, -0.121884l 0.44993, -0.121884l 0.44993, -0.121884l 0.44993, -0.121884l 0.44993, -0.121884l 0.44993, -0.121884l 0.44993, -0.121884l 0.44993, -0.121884l 0.44993, -0.121884l 0.44993, -0.121884l 0.44993, -0.121884l 0.44993, -0.121884l 0.44993,
 -0.121884l 0.44993, -0.121884l 0.44993, -0.121884l 0.44993, -0.121884l 0.44993, -0.121884l 0.44993, -0.121884l 0.44993, -0.121884l 0.44993, -0.121884l 0.44993, -0.121884l 0.44993, -0.121884l 0.44993, -0.121884l 0.44993, -0.121884l 0.44993,
 -0.121884l 0.44993, -0.121884l 0.44993, -0.121884l 0.44993, -0.121884l 0.44993, -0.121884l 0.44993, -0.121884l 0.44993, -0.121884l 0.44993, -0.121884l 0.44993, -0.121884l 0.44993, -0.121884l 0.44993, -0.121884l 0.44993, -0.121884l 0.44993,
 -0.121884l 0.44993, -0.121884" fill="none" stroke="#33cccc" stroke-width="3"/>
<path d="M385.357,240.862l 0.44993, -0.121884l 0.44993, -0.121884l 0.44993, -0.121884l 0.44993, -0.121884l 0.44993, -0.121884l 0.44993, -0.121884l 0.44993, -0.121884l 0.44993, -0.121884l 0.44993, -0.121884l 0.44993, -0.121884l 0.44993, -0.121884l
 0.44993, -0.121884l 0.44993, -0.121884l 0.44993, -0.121884l 0.44993, -0.121884l 0.44993, -0.121884l 0.44993, -0.121884l 0.44993, -0.121884l 0.44993, -0.121884l 0.44993, -0.121884l 0.44993, -0.121884l 0.44993, -0.121884l 0.44993, -0.121884l 0.44993,
 -0.121884l 0.44993, -0.121884l 0.44993, -0.121884l 0.44993, -0.121884l 0.44993, -0.121884l 0.44993, -0.121884l 0.44993, -0.121884l 0.44993, -0.121884l 0.44993, -0.121884l 0.44993, -0.121884l 0.44993, -0.121884l 0.44993, -0.121884l 0.44993,
 -0.121884l 0.44993, -0.121884l 0.44993, -0.121884l 0.44993, -0.121884l 0.44993, -0.121884l 0.44993, -0.121884l 0.44993, -0.121884l 0.44993, -0.121884l 0.44993, -0.121884l 0.44993, -0.121884l 0.44993, -0.121884l 0.44993, -0.121884l 0.44993,
 -0.121884l 0.44993, -0.121884" fill="none" stroke="#33cccc" stroke-width="3"/>
<path d="M407.404,234.89l 0.44993, -0.121884l 0.44993, -0.121884l 0.44993, -0.121884l 0.44993, -0.121884l 0.44993, -0.121884l 0.44993, -0.121884l 0.44993, -0.121884l 0.44993, -0.121884l 0.44993, -0.121884l 0.44993, -0.121884l 0.44993, -0.121884l
 0.44993, -0.121884l 0.44993, -0.121884l 0.44993, -0.121884l 0.44993, -0.121884l 0.44993, -0.121884l 0.44993, -0.121884l 0.44993, -0.121884l 0.44993, -0.121884l 0.44993, -0.121884l 0.44993, -0.121884l 0.44993, -0.121884l 0.44993, -0.121884l 0.44993,
 -0.121884l 0.44993, -0.121884l 0.44993, -0.121884l 0.44993, -0.121884l 0.44993, -0.121884l 0.44993, -0.121884l 0.44993, -0.121884l 0.44993, -0.121884l 0.44993, -0.121884l 0.44993, -0.121884l 0.44993, -0.121884l 0.44993, -0.121884l 0.44993,
 -0.121884l 0.44993, -0.121884l 0.44993, -0.121884l 0.44993, -0.121884l 0.44993, -0.121884l 0.44993, -0.121884l 0.44993, -0.121884l 0.44993, -0.121884l 0.44993, -0.121884l 0.44993, -0.121884l 0.44993, -0.121884l 0.44993, -0.121884l 0.44993,
 -0.121884l 0.44993, -0.121884" fill="none" stroke="#33cccc" stroke-width="3"/>
<path d="M429.45,228.918l 0.44993, -0.121884l 0.44993, -0.121884l 0.44993, -0.121884l 0.44993, -0.121884l 0.44993, -0.121884l 0.44993, -0.121884l 0.44993, -0.121884l 0.44993, -0.121884l 0.44993, -0.121884l 0.44993, -0.121884l 0.44993, -0.121884l
 0.44993, -0.121884l 0.44993, -0.121884l 0.44993, -0.121884l 0.44993, -0.121884l 0.44993, -0.121884l 0.44993, -0.121884l 0.44993, -0.121884l 0.44993, -0.121884l 0.44993, -0.121884l 0.44993, -0.121884l 0.44993, -0.121884l 0.44993, -0.121884l 0.44993,
 -0.121884l 0.44993, -0.121884l 0.44993, -0.121884l 0.44993, -0.121884l 0.44993, -0.121884l 0.44993, -0.121884l 0.44993, -0.121884l 0.44993, -0.121884l 0.44993, -0.121884l 0.44993, -0.121884l 0.44993, -0.121884l 0.44993, -0.121884l 0.44993,
 -0.121884l 0.44993, -0.121884l 0.44993, -0.121884l 0.44993, -0.121884l 0.44993, -0.121884l 0.44993, -0.121884l 0.44993, -0.121884l 0.44993, -0.121884l 0.44993, -0.121884l 0.44993, -0.121884l 0.44993, -0.121884l 0.44993, -0.121884l 0.44993,
 -0.121884l 0.44993, -0.121884" fill="none" stroke="#33cccc" stroke-width="3"/>
<path d="M451.497,222.946l 0.44993, -0.121884l 0.44993, -0.121884l 0.44993, -0.121884l 0.44993, -0.121884l 0.44993, -0.121884l 0.44993, -0.121884l 0.44993, -0.121884l 0.44993, -0.121884l 0.44993, -0.121884l 0.44993, -0.121884l 0.44993, -0.121884l
 0.44993, -0.121884l 0.44993, -0.121884l 0.44993, -0.121884l 0.44993, -0.121884l 0.44993, -0.121884l 0.44993, -0.121884l 0.44993, -0.121884l 0.44993, -0.121884l 0.44993, -0.121884l 0.44993, -0.121884l 0.44993, -0.121884l 0.44993, -0.121884l 0.44993,
 -0.121884l 0.44993, -0.121884l 0.44993, -0.121884l 0.44993, -0.121884l 0.44993, -0.121884l 0.44993, -0.121884l 0.44993, -0.121884l 0.44993, -0.121884l 0.44993, -0.121884l 0.44993, -0.121884l 0.44993, -0.121884l 0.44993, -0.121884l 0.44993,
 -0.121884l 0.44993, -0.121884l 0.44993, -0.121884l 0.44993, -0.121884l 0.44993, -0.121884l 0.44993, -0.121884l 0.44993, -0.121884l 0.44993, -0.121884l 0.44993, -0.121884l 0.44993, -0.121884l 0.44993, -0.121884l 0.44993, -0.121884l 0.44993,
 -0.121884l 0.44993, -0.121884" fill="none" stroke="#33cccc" stroke-width="3"/>
<path d="M473.543,216.973l 0.44993, -0.121884l 0.44993, -0.121884l 0.44993, -0.121884l 0.44993, -0.121884l 0.44993, -0.121884l 0.44993, -0.121884l 0.44993, -0.121884l 0.44993, -0.121884l 0.44993, -0.121884l 0.44993, -0.121884l 0.44993, -0.121884l
 0.44993, -0.121884l 0.44993, -0.121884l 0.44993, -0.121884l 0.44993, -0.121884l 0.44993, -0.121884l 0.44993, -0.121884l 0.44993, -0.121884l 0.44993, -0.121884l 0.44993, -0.121884l 0.44993, -0.121884l 0.44993, -0.121884l 0.44993, -0.121884l 0.44993,
 -0.121884l 0.44993, -0.121884l 0.44993, -0.121884l 0.44993, -0.121884l 0.44993, -0.121884l 0.44993, -0.121884l 0.44993, -0.121884l 0.44993, -0.121884l 0.44993, -0.121884l 0.44993, -0.121884l 0.44993, -0.121884l 0.44993, -0.121884l 0.44993,
 -0.121884l 0.44993, -0.121884l 0.44993, -0.121884l 0.44993, -0.121884l 0.44993, -0.121884l 0.44993, -0.121884l 0.44993, -0.121884l 0.44993, -0.121884l 0.44993, -0.121884l 0.44993, -0.121884l 0.44993, -0.121884l 0.44993, -0.121884l 0.44993,
 -0.121884l 0.44993, -0.121884" fill="none" stroke="#33cccc" stroke-width="3"/>
<path d="M495.59,211.001l 0.44993, -0.121884l 0.44993, -0.121884l 0.44993, -0.121884l 0.44993, -0.121884l 0.44993, -0.121884l 0.44993, -0.121884l 0.44993, -0.121884l 0.44993, -0.121884l 0.44993, -0.121884l 0.44993, -0.121884l 0.44993, -0.121884l
 0.44993, -0.121884l 0.44993, -0.121884l 0.44993, -0.121884l 0.44993, -0.121884l 0.44993, -0.121884l 0.44993, -0.121884l 0.44993, -0.121884l 0.44993, -0.121884l 0.44993, -0.121884l 0.44993, -0.121884l 0.44993, -0.121884l 0.44993, -0.121884l 0.44993,
 -0.121884l 0.44993, -0.121884l 0.44993, -0.121884l 0.44993, -0.121884l 0.44993, -0.121884l 0.44993, -0.121884l 0.44993, -0.121884l 0.44993, -0.121884l 0.44993, -0.121884l 0.44993, -0.121884l 0.44993, -0.121884l 0.44993, -0.121884l 0.44993,
 -0.121884l 0.44993, -0.121884l 0.44993, -0.121884l 0.44993, -0.121884l 0.44993, -0.121884l 0.44993, -0.121884l 0.44993, -0.121884l 0.44993, -0.121884l 0.44993, -0.121884l 0.44993, -0.121884l 0.44993, -0.121884l 0.44993, -0.121884l 0.44993,
 -0.121884l 0.44993, -0.121884" fill="none" stroke="#33cccc" stroke-width="3"/>
<path d="M517.636,205.029l 0.44993, -0.121884l 0.44993, -0.121884l 0.44993, -0.121884l 0.44993, -0.121884l 0.44993, -0.121884l 0.44993, -0.121884l 0.44993, -0.121884l 0.44993, -0.121884l 0.44993, -0.121884l 0.44993, -0.121884l 0.44993, -0.121884l
 0.44993, -0.121884l 0.44993, -0.121884l 0.44993, -0.121884l 0.44993, -0.121884l 0.44993, -0.121884l 0.44993, -0.121884l 0.44993, -0.121884l 0.44993, -0.121884l 0.44993, -0.121884l 0.44993, -0.121884l 0.44993, -0.121884l 0.44993, -0.121884l 0.44993,
 -0.121884l 0.44993, -0.121884l 0.44993, -0.121884l 0.44993, -0.121884l 0.44993, -0.121884l 0.44993, -0.121884l 0.44993, -0.121884l 0.44993, -0.121884l 0.44993, -0.121884l 0.44993, -0.121884l 0.44993, -0.121884l 0.44993, -0.121884l 0.44993,
 -0.121884l 0.44993, -0.121884l 0.44993, -0.121884l 0.44993, -0.121884l 0.44993, -0.121884l 0.44993, -0.121884l 0.44993, -0.121884l 0.44993, -0.121884l 0.44993, -0.121884l 0.44993, -0.121884l 0.44993, -0.121884l 0.44993, -0.121884l 0.44993,
 -0.121884l 0.44993, -0.121884" fill="none" stroke="#33cccc" stroke-width="3"/>
<path d="M539.683,199.056l 0.44993, -0.121884l 0.44993, -0.121884l 0.44993, -0.121884l 0.44993, -0.121884l 0.44993, -0.121884l 0.44993, -0.121884l 0.44993, -0.121884l 0.44993, -0.121884l 0.44993, -0.121884l 0.44993, -0.121884l 0.44993, -0.121884l
 0.44993, -0.121884l 0.44993, -0.121884l 0.44993, -0.121884l 0.44993, -0.121884l 0.44993, -0.121884l 0.44993, -0.121884l 0.44993, -0.121884l 0.44993, -0.121884" fill="none" stroke="#33cccc" stroke-width="3"/>
<path d="M98.7518,325.841l 0.44993, -0.156788l 0.44993, -0.156718l 0.44993, -0.156648l 0.44993, -0.156577l 0.44993, -0.156507l 0.44993, -0.156437l 0.44993, -0.156367l 0.44993, -0.156297l 0.44993, -0.156227l 0.44993, -0.156157l 0.44993, -0.156086l
 0.44993, -0.156016l 0.44993, -0.155946l 0.44993, -0.155876l 0.44993, -0.155806l 0.44993, -0.155736l 0.44993, -0.155666l 0.44993, -0.155595l 0.44993, -0.155525l 0.44993, -0.155455l 0.44993, -0.155385l 0.44993, -0.155315l 0.44993, -0.155245l 0.44993,
 -0.155175l 0.44993, -0.155104l 0.44993, -0.155034l 0.44993, -0.154964l 0.44993, -0.154894l 0.44993, -0.154824l 0.44993, -0.154754l 0.44993, -0.154684l 0.44993, -0.154614l 0.44993, -0.154543l 0.44993, -0.154473l 0.44993, -0.154403l 0.44993,
 -0.154333l 0.44993, -0.154263l 0.44993, -0.154193l 0.44993, -0.154123l 0.44993, -0.154052l 0.44993, -0.153982l 0.44993, -0.153912l 0.44993, -0.153842l 0.44993, -0.153772l 0.44993, -0.153702l 0.44993, -0.153632l 0.44993, -0.153561l 0.44993,
 -0.153491l 0.44993, -0.153421" fill="none" stroke="#ff0066" stroke-width="3"/>
<path d="M120.798,318.241l 0.44993, -0.153351l 0.44993, -0.153281l 0.44993, -0.153211l 0.44993, -0.153141l 0.44993, -0.15307l 0.44993, -0.153l 0.44993, -0.15293l 0.44993, -0.15286l 0.44993, -0.15279l 0.44993, -0.15272l 0.44993, -0.15265l 0.44993,
 -0.152579l 0.44993, -0.152509l 0.44993, -0.152439l 0.44993, -0.152369l 0.44993, -0.152299l 0.44993, -0.152229l 0.44993, -0.152159l 0.44993, -0.152088l 0.44993, -0.152018l 0.44993, -0.151948l 0.44993, -0.151878l 0.44993, -0.151808l 0.44993,
 -0.151738l 0.44993, -0.151668l 0.44993, -0.151597l 0.44993, -0.151527l 0.44993, -0.151457l 0.44993, -0.151387l 0.44993, -0.151317l 0.44993, -0.151247l 0.44993, -0.151177l 0.44993, -0.151106l 0.44993, -0.151036l 0.44993, -0.150966l 0.44993,
 -0.150896l 0.44993, -0.150826l 0.44993, -0.150756l 0.44993, -0.150686l 0.44993, -0.150616l 0.44993, -0.150545l 0.44993, -0.150475l 0.44993, -0.150405l 0.44993, -0.150335l 0.44993, -0.150265l 0.44993, -0.150195l 0.44993, -0.150125l 0.44993,
 -0.150054l 0.44993, -0.149984" fill="none" stroke="#ff0066" stroke-width="3"/>
<path d="M142.845,310.809l 0.44993, -0.149914l 0.44993, -0.149844l 0.44993, -0.149774l 0.44993, -0.149704l 0.44993, -0.149634l 0.44993, -0.149563l 0.44993, -0.149493l 0.44993, -0.149423l 0.44993, -0.149353l 0.44993, -0.149283l 0.44993, -0.149213l
 0.44993, -0.149143l 0.44993, -0.149072l 0.44993, -0.149002l 0.44993, -0.148932l 0.44993, -0.148862l 0.44993, -0.148792l 0.44993, -0.148722l 0.44993, -0.148652l 0.44993, -0.148581l 0.44993, -0.148511l 0.44993, -0.148441l 0.44993, -0.148371l 0.44993,
 -0.148301l 0.44993, -0.148231l 0.44993, -0.148161l 0.44993, -0.14809l 0.44993, -0.14802l 0.44993, -0.14795l 0.44993, -0.14788l 0.44993, -0.14781l 0.44993, -0.14774l 0.44993, -0.14767l 0.44993, -0.147599l 0.44993, -0.147529l 0.44993, -0.147459l
 0.44993, -0.147389l 0.44993, -0.147319l 0.44993, -0.147249l 0.44993, -0.147179l 0.44993, -0.147108l 0.44993, -0.147038l 0.44993, -0.146968l 0.44993, -0.146898l 0.44993, -0.146828l 0.44993, -0.146758l 0.44993, -0.146688l 0.44993, -0.146618l 0.44993,
 -0.146547" fill="none" stroke="#ff0066" stroke-width="3"/>
<path d="M164.891,303.546l 0.44993, -0.146477l 0.44993, -0.146407l 0.44993, -0.146337l 0.44993, -0.146267l 0.44993, -0.146197l 0.44993, -0.146127l 0.44993, -0.146056l 0.44993, -0.145986l 0.44993, -0.145916l 0.44993, -0.145846l 0.44993, -0.145776l
 0.44993, -0.145706l 0.44993, -0.145636l 0.44993, -0.145565l 0.44993, -0.145495l 0.44993, -0.145425l 0.44993, -0.145355l 0.44993, -0.145285l 0.44993, -0.145215l 0.44993, -0.145145l 0.44993, -0.145074l 0.44993, -0.145004l 0.44993, -0.144934l 0.44993,
 -0.144864l 0.44993, -0.144794l 0.44993, -0.144724l 0.44993, -0.144654l 0.44993, -0.144583l 0.44993, -0.144513l 0.44993, -0.144443l 0.44993, -0.144373l 0.44993, -0.144303l 0.44993, -0.144233l 0.44993, -0.144163l 0.44993, -0.144092l 0.44993,
 -0.144022l 0.44993, -0.143952l 0.44993, -0.143882l 0.44993, -0.143812l 0.44993, -0.143742l 0.44993, -0.143672l 0.44993, -0.143601l 0.44993, -0.143531l 0.44993, -0.143461l 0.44993, -0.143391l 0.44993, -0.143321l 0.44993, -0.143251l 0.44993,
 -0.143181l 0.44993, -0.14311" fill="none" stroke="#ff0066" stroke-width="3"/>
<path d="M186.938,296.451l 0.44993, -0.14304l 0.44993, -0.14297l 0.44993, -0.1429l 0.44993, -0.14283l 0.44993, -0.14276l 0.44993, -0.14269l 0.44993, -0.14262l 0.44993, -0.142549l 0.44993, -0.142479l 0.44993, -0.142409l 0.44993, -0.142339l 0.44993,
 -0.142269l 0.44993, -0.142199l 0.44993, -0.142129l 0.44993, -0.142058l 0.44993, -0.141988l 0.44993, -0.141918l 0.44993, -0.141848l 0.44993, -0.141778l 0.44993, -0.141708l 0.44993, -0.141638l 0.44993, -0.141567l 0.44993, -0.141497l 0.44993,
 -0.141427l 0.44993, -0.141357l 0.44993, -0.141287l 0.44993, -0.141217l 0.44993, -0.141147l 0.44993, -0.141076l 0.44993, -0.141006l 0.44993, -0.140936l 0.44993, -0.140866l 0.44993, -0.140796l 0.44993, -0.140726l 0.44993, -0.140656l 0.44993,
 -0.140585l 0.44993, -0.140515l 0.44993, -0.140445l 0.44993, -0.140375l 0.44993, -0.140305l 0.44993, -0.140235l 0.44993, -0.140165l 0.44993, -0.140094l 0.44993, -0.140024l 0.44993, -0.139954l 0.44993, -0.139884l 0.44993, -0.139814l 0.44993,
 -0.139744l 0.44993, -0.139674" fill="none" stroke="#ff0066" stroke-width="3"/>
<path d="M208.985,289.525l 0.44993, -0.139603l 0.44993, -0.139533l 0.44993, -0.139463l 0.44993, -0.139393l 0.44993, -0.139323l 0.44993, -0.139253l 0.44993, -0.139183l 0.44993, -0.139113l 0.44993, -0.139042l 0.44993, -0.138972l 0.44993, -0.138902l
 0.44993, -0.138832l 0.44993, -0.138762l 0.44993, -0.138692l 0.44993, -0.138622l 0.44993, -0.138551l 0.44993, -0.138481l 0.44993, -0.138411l 0.44993, -0.138341l 0.44993, -0.138271l 0.44993, -0.138201l 0.44993, -0.138131l 0.44993, -0.13806l 0.44993,
 -0.13799l 0.44993, -0.13792l 0.44993, -0.13785l 0.44993, -0.13778l 0.44993, -0.13771l 0.44993, -0.13764l 0.44993, -0.137569l 0.44993, -0.137499l 0.44993, -0.137429l 0.44993, -0.137359l 0.44993, -0.137289l 0.44993, -0.137219l 0.44993, -0.137149l
 0.44993, -0.137078l 0.44993, -0.137008l 0.44993, -0.136938l 0.44993, -0.136868l 0.44993, -0.136798l 0.44993, -0.136728l 0.44993, -0.136658l 0.44993, -0.136587l 0.44993, -0.136517l 0.44993, -0.136447l 0.44993, -0.136377l 0.44993, -0.136307l 0.44993,
 -0.136237" fill="none" stroke="#ff0066" stroke-width="3"/>
<path d="M231.031,282.766l 0.44993, -0.136167l 0.44993, -0.136096l 0.44993, -0.136026l 0.44993, -0.135956l 0.44993, -0.135886l 0.44993, -0.135816l 0.44993, -0.135746l 0.44993, -0.135676l 0.44993, -0.135605l 0.44993, -0.135535l 0.44993, -0.135465l
 0.44993, -0.135395l 0.44993, -0.135325l 0.44993, -0.135255l 0.44993, -0.135185l 0.44993, -0.135115l 0.44993, -0.135044l 0.44993, -0.134974l 0.44993, -0.134904l 0.44993, -0.134834l 0.44993, -0.134764l 0.44993, -0.134694l 0.44993, -0.134624l 0.44993,
 -0.134553l 0.44993, -0.134483l 0.44993, -0.134413l 0.44993, -0.134343l 0.44993, -0.134273l 0.44993, -0.134203l 0.44993, -0.134133l 0.44993, -0.134062l 0.44993, -0.133992l 0.44993, -0.133922l 0.44993, -0.133852l 0.44993, -0.133782l 0.44993,
 -0.133712l 0.44993, -0.133642l 0.44993, -0.133571l 0.44993, -0.133501l 0.44993, -0.133431l 0.44993, -0.133361l 0.44993, -0.133291l 0.44993, -0.133221l 0.44993, -0.133151l 0.44993, -0.13308l 0.44993, -0.13301l 0.44993, -0.13294l 0.44993, -0.13287l
 0.44993, -0.1328" fill="none" stroke="#ff0066" stroke-width="3"/>
<path d="M253.078,276.177l 0.44993, -0.13273l 0.44993, -0.13266l 0.44993, -0.132589l 0.44993, -0.132519l 0.44993, -0.132449l 0.44993, -0.132379l 0.44993, -0.132309l 0.44993, -0.132239l 0.44993, -0.132169l 0.44993, -0.132098l 0.44993, -0.132028l
 0.44993, -0.131958l 0.44993, -0.131888l 0.44993, -0.131818l 0.44993, -0.131748l 0.44993, -0.131678l 0.44993, -0.131607l 0.44993, -0.131537l 0.44993, -0.131467l 0.44993, -0.131397l 0.44993, -0.131327l 0.44993, -0.131257l 0.44993, -0.131187l 0.44993,
 -0.131117l 0.44993, -0.131046l 0.44993, -0.130976l 0.44993, -0.130906l 0.44993, -0.130836l 0.44993, -0.130766l 0.44993, -0.130696l 0.44993, -0.130626l 0.44993, -0.130555l 0.44993, -0.130485l 0.44993, -0.130415l 0.44993, -0.130345l 0.44993,
 -0.130275l 0.44993, -0.130205l 0.44993, -0.130135l 0.44993, -0.130064l 0.44993, -0.129994l 0.44993, -0.129924l 0.44993, -0.129854l 0.44993, -0.129784l 0.44993, -0.129714l 0.44993, -0.129644l 0.44993, -0.129573l 0.44993, -0.129503l 0.44993,
 -0.129433l 0.44993, -0.129363" fill="none" stroke="#ff0066" stroke-width="3"/>
<path d="M275.124,269.756l 0.44993, -0.129293l 0.44993, -0.129223l 0.44993, -0.129153l 0.44993, -0.129082l 0.44993, -0.129012l 0.44993, -0.128942l 0.44993, -0.128872l 0.44993, -0.128802l 0.44993, -0.128732l 0.44993, -0.128662l 0.44993, -0.128591l
 0.44993, -0.128521l 0.44993, -0.128451l 0.44993, -0.128381l 0.44993, -0.128311l 0.44993, -0.128241l 0.44993, -0.128171l 0.44993, -0.1281l 0.44993, -0.12803l 0.44993, -0.12796l 0.44993, -0.12789l 0.44993, -0.12782l 0.44993, -0.12775l 0.44993,
 -0.12768l 0.44993, -0.127609l 0.44993, -0.127539l 0.44993, -0.127469l 0.44993, -0.127399l 0.44993, -0.127329l 0.44993, -0.127259l 0.44993, -0.127189l 0.44993, -0.127119l 0.44993, -0.127048l 0.44993, -0.126978l 0.44993, -0.126908l 0.44993, -0.126838l
 0.44993, -0.126768l 0.44993, -0.126698l 0.44993, -0.126628l 0.44993, -0.126557l 0.44993, -0.126487l 0.44993, -0.126417l 0.44993, -0.126347l 0.44993, -0.126277l 0.44993, -0.126207l 0.44993, -0.126137l 0.44993, -0.126066l 0.44993, -0.125996l 0.44993,
 -0.125926" fill="none" stroke="#ff0066" stroke-width="3"/>
<path d="M297.171,263.503l 0.44993, -0.125856l 0.44993, -0.125786l 0.44993, -0.125716l 0.44993, -0.125646l 0.44993, -0.125575l 0.44993, -0.125505l 0.44993, -0.125435l 0.44993, -0.125365l 0.44993, -0.125295l 0.44993, -0.125225l 0.44993, -0.125155l
 0.44993, -0.125084l 0.44993, -0.125014l 0.44993, -0.124944l 0.44993, -0.124874l 0.44993, -0.124804l 0.44993, -0.124734l 0.44993, -0.124664l 0.44993, -0.124593l 0.44993, -0.124523l 0.44993, -0.124453l 0.44993, -0.124383l 0.44993, -0.124313l 0.44993,
 -0.124243l 0.44993, -0.124173l 0.44993, -0.124102l 0.44993, -0.124032l 0.44993, -0.123962l 0.44993, -0.123892l 0.44993, -0.123822l 0.44993, -0.123752l 0.44993, -0.123682l 0.44993, -0.123612l 0.44993, -0.123541l 0.44993, -0.123471l 0.44993,
 -0.123401l 0.44993, -0.123331l 0.44993, -0.123261l 0.44993, -0.123191l 0.44993, -0.123121l 0.44993, -0.12305l 0.44993, -0.12298l 0.44993, -0.12291l 0.44993, -0.12284l 0.44993, -0.12277l 0.44993, -0.1227l 0.44993, -0.12263l 0.44993, -0.122559l
 0.44993, -0.122489" fill="none" stroke="#ff0066" stroke-width="3"/>
<path d="M319.217,257.418l 0.44993, -0.122419l 0.44993, -0.122349l 0.44993, -0.122279l 0.44993, -0.122209l 0.44993, -0.122139l 0.44993, -0.122068l 0.44993, -0.121998l 0.44993, -0.121928l 0.44993, -0.121858l 0.44993, -0.121788l 0.44993, -0.121718l
 0.44993, -0.121648l 0.44993, -0.121577l 0.44993, -0.121507l 0.44993, -0.121437l 0.44993, -0.121367l 0.44993, -0.121297l 0.44993, -0.121227l 0.44993, -0.121157l 0.44993, -0.121086l 0.44993, -0.121016l 0.44993, -0.120946l 0.44993, -0.120876l 0.44993,
 -0.120806l 0.44993, -0.120736l 0.44993, -0.120666l 0.44993, -0.120595l 0.44993, -0.120525l 0.44993, -0.120455l 0.44993, -0.120385l 0.44993, -0.120315l 0.44993, -0.120245l 0.44993, -0.120175l 0.44993, -0.120104l 0.44993, -0.120034l 0.44993,
 -0.119964l 0.44993, -0.119894l 0.44993, -0.119824l 0.44993, -0.119754l 0.44993, -0.119684l 0.44993, -0.119613l 0.44993, -0.119543l 0.44993, -0.119473l 0.44993, -0.119403l 0.44993, -0.119333l 0.44993, -0.119263l 0.44993, -0.119193l 0.44993,
 -0.119123l 0.44993, -0.119052" fill="none" stroke="#ff0066" stroke-width="3"/>
<path d="M341.264,251.502l 0.44993, -0.118982l 0.44993, -0.118912l 0.44993, -0.118842l 0.44993, -0.118772l 0.44993, -0.118702l 0.44993, -0.118632l 0.44993, -0.118561l 0.44993, -0.118491l 0.44993, -0.118421l 0.44993, -0.118351l 0.44993, -0.118281l
 0.44993, -0.118211l 0.44993, -0.118141l 0.44993, -0.11807l 0.44993, -0.118l 0.44993, -0.11793l 0.44993, -0.11786l 0.44993, -0.11779l 0.44993, -0.11772l 0.44993, -0.11765l 0.44993, -0.117579l 0.44993, -0.117509l 0.44993, -0.117439l 0.44993,
 -0.117369l 0.44993, -0.117299l 0.44993, -0.117229l 0.44993, -0.117159l 0.44993, -0.117088l 0.44993, -0.117018l 0.44993, -0.116948l 0.44993, -0.116878l 0.44993, -0.116808l 0.44993, -0.116738l 0.44993, -0.116668l 0.44993, -0.116597l 0.44993,
 -0.116527l 0.44993, -0.116457l 0.44993, -0.116387l 0.44993, -0.116317l 0.44993, -0.116247l 0.44993, -0.116177l 0.44993, -0.116106l 0.44993, -0.116036l 0.44993, -0.115966l 0.44993, -0.115896l 0.44993, -0.115826l 0.44993, -0.115756l 0.44993,
 -0.115686l 0.44993, -0.115616" fill="none" stroke="#ff0066" stroke-width="3"/>
<path d="M363.311,245.755l 0.44993, -0.115545l 0.44993, -0.115475l 0.44993, -0.115405l 0.44993, -0.115335l 0.44993, -0.115265l 0.44993, -0.115195l 0.44993, -0.115125l 0.44993, -0.115054l 0.44993, -0.114984l 0.44993, -0.114914l 0.44993, -0.114844l
 0.44993, -0.114774l 0.44993, -0.114704l 0.44993, -0.114634l 0.44993, -0.114563l 0.44993, -0.114493l 0.44993, -0.114423l 0.44993, -0.114353l 0.44993, -0.114283l 0.44993, -0.114213l 0.44993, -0.114143l 0.44993, -0.114072l 0.44993, -0.114002l 0.44993,
 -0.113932l 0.44993, -0.113862l 0.44993, -0.113792l 0.44993, -0.113722l 0.44993, -0.113652l 0.44993, -0.113581l 0.44993, -0.113511l 0.44993, -0.113441l 0.44993, -0.113371l 0.44993, -0.113301l 0.44993, -0.113231l 0.44993, -0.113161l 0.44993, -0.11309l
 0.44993, -0.11302l 0.44993, -0.11295l 0.44993, -0.11288l 0.44993, -0.11281l 0.44993, -0.11274l 0.44993, -0.11267l 0.44993, -0.112599l 0.44993, -0.112529l 0.44993, -0.112459l 0.44993, -0.112389l 0.44993, -0.112319l 0.44993, -0.112249l 0.44993,
 -0.112179" fill="none" stroke="#ff0066" stroke-width="3"/>
<path d="M385.357,240.175l 0.44993, -0.112108l 0.44993, -0.112038l 0.44993, -0.111968l 0.44993, -0.111898l 0.44993, -0.111828l 0.44993, -0.111758l 0.44993, -0.111688l 0.44993, -0.111618l 0.44993, -0.111547l 0.44993, -0.111477l 0.44993, -0.111407l
 0.44993, -0.111337l 0.44993, -0.111267l 0.44993, -0.111197l 0.44993, -0.111127l 0.44993, -0.111056l 0.44993, -0.110986l 0.44993, -0.110916l 0.44993, -0.110846l 0.44993, -0.110776l 0.44993, -0.110706l 0.44993, -0.110636l 0.44993, -0.110565l 0.44993,
 -0.110495l 0.44993, -0.110425l 0.44993, -0.110355l 0.44993, -0.110285l 0.44993, -0.110215l 0.44993, -0.110145l 0.44993, -0.110074l 0.44993, -0.110004l 0.44993, -0.109934l 0.44993, -0.109864l 0.44993, -0.109794l 0.44993, -0.109724l 0.44993,
 -0.109654l 0.44993, -0.109583l 0.44993, -0.109513l 0.44993, -0.109443l 0.44993, -0.109373l 0.44993, -0.109303l 0.44993, -0.109233l 0.44993, -0.109163l 0.44993, -0.109092l 0.44993, -0.109022l 0.44993, -0.108952l 0.44993, -0.108882l 0.44993,
 -0.108812l 0.44993, -0.108742" fill="none" stroke="#ff0066" stroke-width="3"/>
<path d="M407.404,234.764l 0.44993, -0.108672l 0.44993, -0.108601l 0.44993, -0.108531l 0.44993, -0.108461l 0.44993, -0.108391l 0.44993, -0.108321l 0.44993, -0.108251l 0.44993, -0.108181l 0.44993, -0.10811l 0.44993, -0.10804l 0.44993, -0.10797l
 0.44993, -0.1079l 0.44993, -0.10783l 0.44993, -0.10776l 0.44993, -0.10769l 0.44993, -0.10762l 0.44993, -0.107549l 0.44993, -0.107479l 0.44993, -0.107409l 0.44993, -0.107339l 0.44993, -0.107269l 0.44993, -0.107199l 0.44993, -0.107129l 0.44993,
 -0.107058l 0.44993, -0.106988l 0.44993, -0.106918l 0.44993, -0.106848l 0.44993, -0.106778l 0.44993, -0.106708l 0.44993, -0.106638l 0.44993, -0.106567l 0.44993, -0.106497l 0.44993, -0.106427l 0.44993, -0.106357l 0.44993, -0.106287l 0.44993,
 -0.106217l 0.44993, -0.106147l 0.44993, -0.106076l 0.44993, -0.106006l 0.44993, -0.105936l 0.44993, -0.105866l 0.44993, -0.105796l 0.44993, -0.105726l 0.44993, -0.105656l 0.44993, -0.105585l 0.44993, -0.105515l 0.44993, -0.105445l 0.44993,
 -0.105375l 0.44993, -0.105305" fill="none" stroke="#ff0066" stroke-width="3"/>
<path d="M429.45,229.522l 0.44993, -0.105235l 0.44993, -0.105165l 0.44993, -0.105094l 0.44993, -0.105024l 0.44993, -0.104954l 0.44993, -0.104884l 0.44993, -0.104814l 0.44993, -0.104744l 0.44993, -0.104674l 0.44993, -0.104603l 0.44993, -0.104533l
 0.44993, -0.104463l 0.44993, -0.104393l 0.44993, -0.104323l 0.44993, -0.104253l 0.44993, -0.104183l 0.44993, -0.104112l 0.44993, -0.104042l 0.44993, -0.103972l 0.44993, -0.103902l 0.44993, -0.103832l 0.44993, -0.103762l 0.44993, -0.103692l 0.44993,
 -0.103622l 0.44993, -0.103551l 0.44993, -0.103481l 0.44993, -0.103411l 0.44993, -0.103341l 0.44993, -0.103271l 0.44993, -0.103201l 0.44993, -0.103131l 0.44993, -0.10306l 0.44993, -0.10299l 0.44993, -0.10292l 0.44993, -0.10285l 0.44993, -0.10278l
 0.44993, -0.10271l 0.44993, -0.10264l 0.44993, -0.102569l 0.44993, -0.102499l 0.44993, -0.102429l 0.44993, -0.102359l 0.44993, -0.102289l 0.44993, -0.102219l 0.44993, -0.102149l 0.44993, -0.102078l 0.44993, -0.102008l 0.44993, -0.101938l 0.44993,
 -0.101868" fill="none" stroke="#ff0066" stroke-width="3"/>
<path d="M451.497,224.448l 0.44993, -0.101798l 0.44993, -0.101728l 0.44993, -0.101658l 0.44993, -0.101587l 0.44993, -0.101517l 0.44993, -0.101447l 0.44993, -0.101377l 0.44993, -0.101307l 0.44993, -0.101237l 0.44993, -0.101167l 0.44993, -0.101096l
 0.44993, -0.101026l 0.44993, -0.100956l 0.44993, -0.100886l 0.44993, -0.100816l 0.44993, -0.100746l 0.44993, -0.100676l 0.44993, -0.100605l 0.44993, -0.100535l 0.44993, -0.100465l 0.44993, -0.100395l 0.44993, -0.100325l 0.44993, -0.100255l 0.44993,
 -0.100185l 0.44993, -0.100115l 0.44993, -0.100044l 0.44993, -0.0999742l 0.44993, -0.0999041l 0.44993, -0.0998339l 0.44993, -0.0997638l 0.44993, -0.0996937l 0.44993, -0.0996235l 0.44993, -0.0995534l 0.44993, -0.0994832l 0.44993, -0.0994131l 0.44993,
 -0.099343l 0.44993, -0.0992728l 0.44993, -0.0992027l 0.44993, -0.0991325l 0.44993, -0.0990624l 0.44993, -0.0989923l 0.44993, -0.0989221l 0.44993, -0.098852l 0.44993, -0.0987818l 0.44993, -0.0987117l 0.44993, -0.0986416l 0.44993, -0.0985714l 0.44993,
 -0.0985013l 0.44993, -0.0984311" fill="none" stroke="#ff0066" stroke-width="3"/>
<path d="M473.543,219.542l 0.44993, -0.098361l 0.44993, -0.0982909l 0.44993, -0.0982207l 0.44993, -0.0981506l 0.44993, -0.0980804l 0.44993, -0.0980103l 0.44993, -0.0979402l 0.44993, -0.09787l 0.44993, -0.0977999l 0.44993, -0.0977297l 0.44993,
 -0.0976596l 0.44993, -0.0975894l 0.44993, -0.0975193l 0.44993, -0.0974492l 0.44993, -0.097379l 0.44993, -0.0973089l 0.44993, -0.0972387l 0.44993, -0.0971686l 0.44993, -0.0970985l 0.44993, -0.0970283l 0.44993, -0.0969582l 0.44993, -0.0968881l
 0.44993, -0.0968179l 0.44993, -0.0967478l 0.44993, -0.0966776l 0.44993, -0.0966075l 0.44993, -0.0965373l 0.44993, -0.0964672l 0.44993, -0.0963971l 0.44993, -0.0963269l 0.44993, -0.0962568l 0.44993, -0.0961866l 0.44993, -0.0961165l 0.44993,
 -0.0960464l 0.44993, -0.0959762l 0.44993, -0.0959061l 0.44993, -0.0958359l 0.44993, -0.0957658l 0.44993, -0.0956957l 0.44993, -0.0956255l 0.44993, -0.0955554l 0.44993, -0.0954852l 0.44993, -0.0954151l 0.44993, -0.095345l 0.44993, -0.0952748l
 0.44993, -0.0952047l 0.44993, -0.0951345l 0.44993, -0.0950644l 0.44993, -0.0949943" fill="none" stroke="#ff0066" stroke-width="3"/>
<path d="M495.59,214.805l 0.44993, -0.0949241l 0.44993, -0.094854l 0.44993, -0.0947838l 0.44993, -0.0947137l 0.44993, -0.0946436l 0.44993, -0.0945734l 0.44993, -0.0945033l 0.44993, -0.0944331l 0.44993, -0.094363l 0.44993, -0.0942929l 0.44993,
 -0.0942227l 0.44993, -0.0941526l 0.44993, -0.0940824l 0.44993, -0.0940123l 0.44993, -0.0939422l 0.44993, -0.093872l 0.44993, -0.0938019l 0.44993, -0.0937317l 0.44993, -0.0936616l 0.44993, -0.0935915l 0.44993, -0.0935213l 0.44993, -0.0934512l
 0.44993, -0.093381l 0.44993, -0.0933109l 0.44993, -0.0932408l 0.44993, -0.0931706l 0.44993, -0.0931005l 0.44993, -0.0930303l 0.44993, -0.0929602l 0.44993, -0.0928901l 0.44993, -0.0928199l 0.44993, -0.0927498l 0.44993, -0.0926796l 0.44993,
 -0.0926095l 0.44993, -0.0925393l 0.44993, -0.0924692l 0.44993, -0.0923991l 0.44993, -0.0923289l 0.44993, -0.0922588l 0.44993, -0.0921886l 0.44993, -0.0921185l 0.44993, -0.0920484l 0.44993, -0.0919782l 0.44993, -0.0919081l 0.44993, -0.0918379l
 0.44993, -0.0917678l 0.44993, -0.0916977l 0.44993, -0.0916275l 0.44993, -0.0915574" fill="none" stroke="#ff0066" stroke-width="3"/>
<path d="M517.636,210.236l 0.44993, -0.0914872l 0.44993, -0.0914171l 0.44993, -0.091347l 0.44993, -0.0912768l 0.44993, -0.0912067l 0.44993, -0.0911365l 0.44993, -0.0910664l 0.44993, -0.0909963l 0.44993, -0.0909261l 0.44993, -0.090856l 0.44993,
 -0.0907858l 0.44993, -0.0907157l 0.44993, -0.0906456l 0.44993, -0.0905754l 0.44993, -0.0905053l 0.44993, -0.0904351l 0.44993, -0.090365l 0.44993, -0.0902949l 0.44993, -0.0902247l 0.44993, -0.0901546l 0.44993, -0.0900844l 0.44993, -0.0900143l
 0.44993, -0.0899442l 0.44993, -0.089874l 0.44993, -0.0898039l 0.44993, -0.0897337l 0.44993, -0.0896636l 0.44993, -0.0895935l 0.44993, -0.0895233l 0.44993, -0.0894532l 0.44993, -0.089383l 0.44993, -0.0893129l 0.44993, -0.0892428l 0.44993, -0.0891726l
 0.44993, -0.0891025l 0.44993, -0.0890323l 0.44993, -0.0889622l 0.44993, -0.0888921l 0.44993, -0.0888219l 0.44993, -0.0887518l 0.44993, -0.0886816l 0.44993, -0.0886115l 0.44993, -0.0885414l 0.44993, -0.0884712l 0.44993, -0.0884011l 0.44993,
 -0.0883309l 0.44993, -0.0882608l 0.44993, -0.0881907l 0.44993, -0.0881205" fill="none" stroke="#ff0066" stroke-width="3"/>
<path d="M539.683,205.836l 0.44993, -0.0880504l 0.44993, -0.0879802l 0.44993, -0.0879101l 0.44993, -0.0878399l 0.44993, -0.0877698l 0.44993, -0.0876997l 0.44993, -0.0876295l 0.44993, -0.0875594l 0.44993, -0.0874892l 0.44993, -0.0874191l 0.44993,
 -0.087349l 0.44993, -0.0872788l 0.44993, -0.0872087l 0.44993, -0.0871385l 0.44993, -0.0870684l 0.44993, -0.0869983l 0.44993, -0.0869281l 0.44993, -0.086858l 0.44993, -0.0867878" fill="none" stroke="#ff0066" stroke-width="3"/>
<path d="M200.511,21.4167h 287.955" fill="none" stroke="#999999" stroke-width="7"/>
<text xml:space="preserve" x="360.607" y="50.7193" fill="black" font-size="16.0105" font-family="Helvetica"> with EMC</text>
<text xml:space="preserve" x="352.717" y="50.7193" fill="black" font-size="16.0105" font-family="Times">&#0947;</text>
<text xml:space="preserve" x="344.828" y="50.7193" fill="black" font-size="16.0105" font-family="Times">&#0947;</text>
<text xml:space="preserve" x="336.938" y="50.7193" fill="black" font-size="16.0105" font-family="Times">&#0947;</text>
<text xml:space="preserve" x="331.866" y="50.7193" fill="black" font-size="16.0105" font-family="Helvetica"> </text>
<text xml:space="preserve" x="316.65" y="50.7193" fill="black" font-size="16.0105" font-family="Times">&#8594;</text>
<text xml:space="preserve" x="311.578" y="50.7193" fill="black" font-size="16.0105" font-family="Helvetica"> </text>
<text xml:space="preserve" x="303.689" y="50.7193" fill="black" font-size="16.0105" font-family="Times">&#0947;</text>
<text xml:space="preserve" x="298.053" y="45.0838" fill="black" font-size="10.8403" font-family="Helvetica">0</text>
<text xml:space="preserve" x="289.6" y="50.7193" fill="black" font-size="16.0105" font-family="Times">&#0960;</text>
<text xml:space="preserve" x="284.528" y="50.7193" fill="black" font-size="16.0105" font-family="Helvetica"> </text>
<text xml:space="preserve" x="269.312" y="50.7193" fill="black" font-size="16.0105" font-family="Times">&#8594;</text>
<text xml:space="preserve" x="264.24" y="50.7193" fill="black" font-size="16.0105" font-family="Helvetica"> </text>
<text xml:space="preserve" x="252.969" y="50.7193" fill="black" font-size="16.0105" font-family="Times">&#0969;</text>
<text xml:space="preserve" x="128.989" y="50.7193" fill="black" font-size="16.0105" font-family="Helvetica"> = 13 TeV (EG1), </text>
<text xml:space="preserve" x="120.536" y="50.7193" fill="black" font-size="16.0105" font-family="Helvetica" font-style="oblique">s</text>
<path d="M114.9,41.7025l 1.69064, 9.58031" fill="none" stroke="black" stroke-width="2"/>
<path d="M116.591,51.2829l 2.25419, -14.0887" fill="none" stroke="black"/>
<path d="M118.845,37.1942h 10.1439" fill="none" stroke="black"/>
<text xml:space="preserve" x="89.5406" y="50.7193" fill="black" font-size="16.0105" font-family="Helvetica">pp </text>
<text xml:space="preserve" x="89.5406" y="85.6593" fill="black" font-size="16.0105" font-family="Helvetica">ALICE work in progress</text>
<text xml:space="preserve" x="214.085" y="120.599" fill="black" font-size="16.0105" font-family="Helvetica">) &lt; 14.0</text>
<text xml:space="preserve" x="205.068" y="120.599" fill="black" font-size="16.0105" font-family="Helvetica" font-style="oblique">c</text>
<text xml:space="preserve" x="154.912" y="120.599" fill="black" font-size="16.0105" font-family="Helvetica"> /(GeV/</text>
<text xml:space="preserve" x="148.15" y="128.489" fill="black" font-size="10.8403" font-family="Helvetica">T</text>
<text xml:space="preserve" x="138.569" y="120.599" fill="black" font-size="16.0105" font-family="Helvetica" font-style="oblique">p</text>
<text xml:space="preserve" x="133.497" y="120.599" fill="black" font-size="16.0105" font-family="Helvetica"> </text>
<text xml:space="preserve" x="125.044" y="120.599" fill="black" font-size="16.0105" font-family="Times">&#8804;</text>
<text xml:space="preserve" x="89.5406" y="120.599" fill="black" font-size="16.0105" font-family="Helvetica">12.0 </text>
<rect x="312.311" y="69.1755" width="198.425" height="113.448" fill="white"/>
<text xml:space="preserve" x="361.734" y="85.0957" fill="black" font-size="16.0105" font-family="Helvetica">ratio</text>
<path d="M319.752,80.5203h 34.7244" fill="none" stroke="black" stroke-width="2"/>
<g fill="black">
<circle cx="337.114" cy="80.5203" r="6.76257"/>
</g>
<text xml:space="preserve" x="361.734" y="108.201" fill="black" font-size="16.0105" font-family="Helvetica">peak range</text>
<path d="M319.752,103.21h 34.7244" fill="none" stroke="#333333" stroke-width="2"/>
<g stroke="#333333" stroke-width="2" fill="none">
<circle cx="337.114" cy="103.21" r="5.63548"/>
</g>
<text xml:space="preserve" x="361.734" y="130.743" fill="black" font-size="16.0105" font-family="Helvetica">background pol1</text>
<path d="M319.752,125.899h 34.7244" fill="none" stroke="#33cccc" stroke-width="3"/>
<text xml:space="preserve" x="361.734" y="153.285" fill="black" font-size="16.0105" font-family="Helvetica">background pol2</text>
<path d="M319.752,148.589h 34.7244" fill="none" stroke="#ff0066" stroke-width="3"/>
<text xml:space="preserve" x="361.734" y="175.827" fill="black" font-size="16.0105" font-family="Helvetica">param. range</text>
<path d="M319.752,171.279h 34.7244" fill="none" stroke="#999999" stroke-width="7"/></svg>
