<?xml version="1.0" standalone="no"?>
<svg width="567.429" height="553.904" viewBox="0 0 567.429 553.904" xmlns="http://www.w3.org/2000/svg" shape-rendering="crispEdges">
<title>
Data/EG1/OmegaTGPSPlusPSNCell/SameEventToBackgroundRatio_04.svg
</title>
<desc>
Creator: ROOT Version 6.20/08
CreationDate: Mon Mar 29 21:31:14 2021</desc>
<defs>
</defs>
<rect x="0.5" y="0" width="566.929" height="553.404" fill="white"/>
<rect x="68.5315" y="16.6021" width="484.724" height="481.461" fill="white"/>
<rect x="68.5315" y="16.6021" width="484.724" height="481.461" fill="none" stroke="black"/>
<rect x="68.5315" y="16.6021" width="484.724" height="481.461" fill="white"/>
<rect x="68.5315" y="16.6021" width="484.724" height="481.461" fill="none" stroke="black"/>
<g fill="black">
<circle cx="109.325" cy="296.398" r="6.76257"/>
</g>
<g fill="black">
<circle cx="114.124" cy="197.15" r="6.76257"/>
</g>
<g fill="black">
<circle cx="118.924" cy="214.855" r="6.76257"/>
</g>
<g fill="black">
<circle cx="123.723" cy="231.343" r="6.76257"/>
</g>
<g fill="black">
<circle cx="128.522" cy="280.539" r="6.76257"/>
</g>
<g fill="black">
<circle cx="133.321" cy="359.016" r="6.76257"/>
</g>
<g fill="black">
<circle cx="138.121" cy="351.238" r="6.76257"/>
</g>
<g fill="black">
<circle cx="142.92" cy="356.936" r="6.76257"/>
</g>
<g fill="black">
<circle cx="147.719" cy="354.738" r="6.76257"/>
</g>
<g fill="black">
<circle cx="152.518" cy="353.656" r="6.76257"/>
</g>
<g fill="black">
<circle cx="157.318" cy="356.812" r="6.76257"/>
</g>
<g fill="black">
<circle cx="162.117" cy="359.805" r="6.76257"/>
</g>
<g fill="black">
<circle cx="166.916" cy="361.567" r="6.76257"/>
</g>
<g fill="black">
<circle cx="171.715" cy="363.927" r="6.76257"/>
</g>
<g fill="black">
<circle cx="176.515" cy="366.545" r="6.76257"/>
</g>
<g fill="black">
<circle cx="181.314" cy="367.207" r="6.76257"/>
</g>
<g fill="black">
<circle cx="186.113" cy="369.15" r="6.76257"/>
</g>
<g fill="black">
<circle cx="190.912" cy="369.948" r="6.76257"/>
</g>
<g fill="black">
<circle cx="195.712" cy="370.979" r="6.76257"/>
</g>
<g fill="black">
<circle cx="200.511" cy="371.183" r="6.76257"/>
</g>
<g fill="black">
<circle cx="205.31" cy="372.392" r="6.76257"/>
</g>
<g fill="black">
<circle cx="210.109" cy="371.893" r="6.76257"/>
</g>
<g fill="black">
<circle cx="214.909" cy="372.897" r="6.76257"/>
</g>
<g fill="black">
<circle cx="219.708" cy="372.972" r="6.76257"/>
</g>
<g fill="black">
<circle cx="224.507" cy="373.149" r="6.76257"/>
</g>
<g fill="black">
<circle cx="229.306" cy="372.599" r="6.76257"/>
</g>
<g fill="black">
<circle cx="234.106" cy="371.952" r="6.76257"/>
</g>
<g fill="black">
<circle cx="238.905" cy="371.511" r="6.76257"/>
</g>
<g fill="black">
<circle cx="243.704" cy="370.523" r="6.76257"/>
</g>
<g fill="black">
<circle cx="248.503" cy="370.21" r="6.76257"/>
</g>
<g fill="black">
<circle cx="253.303" cy="369.761" r="6.76257"/>
</g>
<g fill="black">
<circle cx="258.102" cy="369.476" r="6.76257"/>
</g>
<g fill="black">
<circle cx="262.901" cy="368.287" r="6.76257"/>
</g>
<g fill="black">
<circle cx="267.7" cy="368.119" r="6.76257"/>
</g>
<g fill="black">
<circle cx="272.5" cy="368.355" r="6.76257"/>
</g>
<g fill="black">
<circle cx="277.299" cy="366.993" r="6.76257"/>
</g>
<g fill="black">
<circle cx="339.689" cy="358.985" r="6.76257"/>
</g>
<g fill="black">
<circle cx="344.488" cy="358.475" r="6.76257"/>
</g>
<g fill="black">
<circle cx="349.288" cy="357.907" r="6.76257"/>
</g>
<g fill="black">
<circle cx="354.087" cy="356.397" r="6.76257"/>
</g>
<g fill="black">
<circle cx="358.886" cy="355.382" r="6.76257"/>
</g>
<g fill="black">
<circle cx="363.685" cy="355.196" r="6.76257"/>
</g>
<g fill="black">
<circle cx="368.485" cy="353.759" r="6.76257"/>
</g>
<g fill="black">
<circle cx="373.284" cy="353.055" r="6.76257"/>
</g>
<g fill="black">
<circle cx="378.083" cy="352.201" r="6.76257"/>
</g>
<g fill="black">
<circle cx="382.882" cy="351.976" r="6.76257"/>
</g>
<g fill="black">
<circle cx="387.682" cy="349.517" r="6.76257"/>
</g>
<g fill="black">
<circle cx="392.481" cy="350.07" r="6.76257"/>
</g>
<g fill="black">
<circle cx="397.28" cy="348.136" r="6.76257"/>
</g>
<g fill="black">
<circle cx="402.079" cy="348.408" r="6.76257"/>
</g>
<g fill="black">
<circle cx="406.879" cy="345.12" r="6.76257"/>
</g>
<g fill="black">
<circle cx="411.678" cy="346.464" r="6.76257"/>
</g>
<g fill="black">
<circle cx="416.477" cy="345.479" r="6.76257"/>
</g>
<g fill="black">
<circle cx="421.276" cy="343.777" r="6.76257"/>
</g>
<g fill="black">
<circle cx="426.076" cy="343.715" r="6.76257"/>
</g>
<g fill="black">
<circle cx="430.875" cy="341.477" r="6.76257"/>
</g>
<g fill="black">
<circle cx="435.674" cy="340.819" r="6.76257"/>
</g>
<g fill="black">
<circle cx="440.473" cy="340.043" r="6.76257"/>
</g>
<g fill="black">
<circle cx="445.273" cy="338.66" r="6.76257"/>
</g>
<g fill="black">
<circle cx="450.072" cy="337.35" r="6.76257"/>
</g>
<g fill="black">
<circle cx="454.871" cy="337.889" r="6.76257"/>
</g>
<g fill="black">
<circle cx="459.671" cy="336.384" r="6.76257"/>
</g>
<g fill="black">
<circle cx="464.47" cy="336.588" r="6.76257"/>
</g>
<g fill="black">
<circle cx="469.269" cy="335.107" r="6.76257"/>
</g>
<g fill="black">
<circle cx="474.068" cy="332.206" r="6.76257"/>
</g>
<g fill="black">
<circle cx="478.867" cy="332.791" r="6.76257"/>
</g>
<g fill="black">
<circle cx="483.667" cy="329.684" r="6.76257"/>
</g>
<g fill="black">
<circle cx="488.466" cy="330.047" r="6.76257"/>
</g>
<g fill="black">
<circle cx="493.265" cy="328.623" r="6.76257"/>
</g>
<g fill="black">
<circle cx="498.065" cy="328.669" r="6.76257"/>
</g>
<g fill="black">
<circle cx="502.864" cy="326.175" r="6.76257"/>
</g>
<g fill="black">
<circle cx="507.663" cy="325.089" r="6.76257"/>
</g>
<g fill="black">
<circle cx="512.462" cy="324.206" r="6.76257"/>
</g>
<g fill="black">
<circle cx="517.262" cy="323.565" r="6.76257"/>
</g>
<g fill="black">
<circle cx="522.061" cy="320.695" r="6.76257"/>
</g>
<g fill="black">
<circle cx="526.86" cy="318.656" r="6.76257"/>
</g>
<g fill="black">
<circle cx="531.659" cy="317.887" r="6.76257"/>
</g>
<g fill="black">
<circle cx="536.458" cy="319.467" r="6.76257"/>
</g>
<g fill="black">
<circle cx="541.258" cy="317.262" r="6.76257"/>
</g>
<g fill="black">
<circle cx="546.057" cy="313.28" r="6.76257"/>
</g>
<path d="M68.5315,498.064h 484.724" fill="none" stroke="black"/>
<path d="M68.5315,483.869v 14.1948" fill="none" stroke="black"/>
<path d="M83.5292,490.966v 7.09741" fill="none" stroke="black"/>
<path d="M98.5268,490.966v 7.09741" fill="none" stroke="black"/>
<path d="M113.524,490.966v 7.09741" fill="none" stroke="black"/>
<path d="M128.522,483.869v 14.1948" fill="none" stroke="black"/>
<path d="M143.52,490.966v 7.09741" fill="none" stroke="black"/>
<path d="M158.517,490.966v 7.09741" fill="none" stroke="black"/>
<path d="M173.515,490.966v 7.09741" fill="none" stroke="black"/>
<path d="M188.513,483.869v 14.1948" fill="none" stroke="black"/>
<path d="M203.51,490.966v 7.09741" fill="none" stroke="black"/>
<path d="M218.508,490.966v 7.09741" fill="none" stroke="black"/>
<path d="M233.506,490.966v 7.09741" fill="none" stroke="black"/>
<path d="M248.503,483.869v 14.1948" fill="none" stroke="black"/>
<path d="M263.501,490.966v 7.09741" fill="none" stroke="black"/>
<path d="M278.499,490.966v 7.09741" fill="none" stroke="black"/>
<path d="M293.496,490.966v 7.09741" fill="none" stroke="black"/>
<path d="M308.494,483.869v 14.1948" fill="none" stroke="black"/>
<path d="M323.492,490.966v 7.09741" fill="none" stroke="black"/>
<path d="M338.489,490.966v 7.09741" fill="none" stroke="black"/>
<path d="M353.487,490.966v 7.09741" fill="none" stroke="black"/>
<path d="M368.485,483.869v 14.1948" fill="none" stroke="black"/>
<path d="M383.482,490.966v 7.09741" fill="none" stroke="black"/>
<path d="M398.48,490.966v 7.09741" fill="none" stroke="black"/>
<path d="M413.478,490.966v 7.09741" fill="none" stroke="black"/>
<path d="M428.475,483.869v 14.1948" fill="none" stroke="black"/>
<path d="M443.473,490.966v 7.09741" fill="none" stroke="black"/>
<path d="M458.471,490.966v 7.09741" fill="none" stroke="black"/>
<path d="M473.468,490.966v 7.09741" fill="none" stroke="black"/>
<path d="M488.466,483.869v 14.1948" fill="none" stroke="black"/>
<path d="M503.464,490.966v 7.09741" fill="none" stroke="black"/>
<path d="M518.461,490.966v 7.09741" fill="none" stroke="black"/>
<path d="M533.459,490.966v 7.09741" fill="none" stroke="black"/>
<path d="M548.457,483.869v 14.1948" fill="none" stroke="black"/>
<path d="M548.457,483.869v 14.1948" fill="none" stroke="black"/>
<text xml:space="preserve" x="63.6174" y="513.956" fill="black" font-size="16.0105" font-family="Helvetica">0</text>
<text xml:space="preserve" x="117.718" y="513.956" fill="black" font-size="16.0105" font-family="Helvetica">0.2</text>
<text xml:space="preserve" x="177.454" y="513.956" fill="black" font-size="16.0105" font-family="Helvetica">0.4</text>
<text xml:space="preserve" x="237.754" y="513.956" fill="black" font-size="16.0105" font-family="Helvetica">0.6</text>
<text xml:space="preserve" x="297.49" y="513.956" fill="black" font-size="16.0105" font-family="Helvetica">0.8</text>
<text xml:space="preserve" x="365.115" y="513.956" fill="black" font-size="16.0105" font-family="Helvetica">1</text>
<text xml:space="preserve" x="417.525" y="513.956" fill="black" font-size="16.0105" font-family="Helvetica">1.2</text>
<text xml:space="preserve" x="477.261" y="513.956" fill="black" font-size="16.0105" font-family="Helvetica">1.4</text>
<text xml:space="preserve" x="537.561" y="513.956" fill="black" font-size="16.0105" font-family="Helvetica">1.6</text>
<text xml:space="preserve" x="548.268" y="537.625" fill="black" font-size="16.0105" font-family="Helvetica">)</text>
<text xml:space="preserve" x="542.633" y="532.553" fill="black" font-size="10.8403" font-family="Helvetica">2</text>
<text xml:space="preserve" x="533.616" y="537.625" fill="black" font-size="16.0105" font-family="Helvetica" font-style="oblique">c</text>
<text xml:space="preserve" x="487.405" y="537.625" fill="black" font-size="16.0105" font-family="Helvetica"> (GeV/</text>
<text xml:space="preserve" x="473.317" y="542.697" fill="black" font-size="10.8403" font-family="Helvetica">inv</text>
<text xml:space="preserve" x="459.792" y="537.625" fill="black" font-size="16.0105" font-family="Helvetica" font-style="oblique">m</text>
<path d="M68.5315,16.6021h 484.724" fill="none" stroke="black"/>
<path d="M68.5315,30.7969v -14.1948" fill="none" stroke="black"/>
<path d="M83.5292,23.6995v -7.09741" fill="none" stroke="black"/>
<path d="M98.5268,23.6995v -7.09741" fill="none" stroke="black"/>
<path d="M113.524,23.6995v -7.09741" fill="none" stroke="black"/>
<path d="M128.522,30.7969v -14.1948" fill="none" stroke="black"/>
<path d="M143.52,23.6995v -7.09741" fill="none" stroke="black"/>
<path d="M158.517,23.6995v -7.09741" fill="none" stroke="black"/>
<path d="M173.515,23.6995v -7.09741" fill="none" stroke="black"/>
<path d="M188.513,30.7969v -14.1948" fill="none" stroke="black"/>
<path d="M203.51,23.6995v -7.09741" fill="none" stroke="black"/>
<path d="M218.508,23.6995v -7.09741" fill="none" stroke="black"/>
<path d="M233.506,23.6995v -7.09741" fill="none" stroke="black"/>
<path d="M248.503,30.7969v -14.1948" fill="none" stroke="black"/>
<path d="M263.501,23.6995v -7.09741" fill="none" stroke="black"/>
<path d="M278.499,23.6995v -7.09741" fill="none" stroke="black"/>
<path d="M293.496,23.6995v -7.09741" fill="none" stroke="black"/>
<path d="M308.494,30.7969v -14.1948" fill="none" stroke="black"/>
<path d="M323.492,23.6995v -7.09741" fill="none" stroke="black"/>
<path d="M338.489,23.6995v -7.09741" fill="none" stroke="black"/>
<path d="M353.487,23.6995v -7.09741" fill="none" stroke="black"/>
<path d="M368.485,30.7969v -14.1948" fill="none" stroke="black"/>
<path d="M383.482,23.6995v -7.09741" fill="none" stroke="black"/>
<path d="M398.48,23.6995v -7.09741" fill="none" stroke="black"/>
<path d="M413.478,23.6995v -7.09741" fill="none" stroke="black"/>
<path d="M428.475,30.7969v -14.1948" fill="none" stroke="black"/>
<path d="M443.473,23.6995v -7.09741" fill="none" stroke="black"/>
<path d="M458.471,23.6995v -7.09741" fill="none" stroke="black"/>
<path d="M473.468,23.6995v -7.09741" fill="none" stroke="black"/>
<path d="M488.466,30.7969v -14.1948" fill="none" stroke="black"/>
<path d="M503.464,23.6995v -7.09741" fill="none" stroke="black"/>
<path d="M518.461,23.6995v -7.09741" fill="none" stroke="black"/>
<path d="M533.459,23.6995v -7.09741" fill="none" stroke="black"/>
<path d="M548.457,30.7969v -14.1948" fill="none" stroke="black"/>
<path d="M548.457,30.7969v -14.1948" fill="none" stroke="black"/>
<path d="M68.5315,498.064v -481.461" fill="none" stroke="black"/>
<path d="M83.3283,498.064h -14.7969" fill="none" stroke="black"/>
<path d="M75.9299,475.129h -7.39843" fill="none" stroke="black"/>
<path d="M75.9299,452.195h -7.39843" fill="none" stroke="black"/>
<path d="M75.9299,429.261h -7.39843" fill="none" stroke="black"/>
<path d="M83.3283,406.327h -14.7969" fill="none" stroke="black"/>
<path d="M75.9299,383.393h -7.39843" fill="none" stroke="black"/>
<path d="M75.9299,360.458h -7.39843" fill="none" stroke="black"/>
<path d="M75.9299,337.524h -7.39843" fill="none" stroke="black"/>
<path d="M83.3283,314.59h -14.7969" fill="none" stroke="black"/>
<path d="M75.9299,291.656h -7.39843" fill="none" stroke="black"/>
<path d="M75.9299,268.722h -7.39843" fill="none" stroke="black"/>
<path d="M75.9299,245.788h -7.39843" fill="none" stroke="black"/>
<path d="M83.3283,222.853h -14.7969" fill="none" stroke="black"/>
<path d="M75.9299,199.919h -7.39843" fill="none" stroke="black"/>
<path d="M75.9299,176.985h -7.39843" fill="none" stroke="black"/>
<path d="M75.9299,154.051h -7.39843" fill="none" stroke="black"/>
<path d="M83.3283,131.117h -14.7969" fill="none" stroke="black"/>
<path d="M75.9299,108.182h -7.39843" fill="none" stroke="black"/>
<path d="M75.9299,85.2482h -7.39843" fill="none" stroke="black"/>
<path d="M75.9299,62.314h -7.39843" fill="none" stroke="black"/>
<path d="M83.3283,39.3798h -14.7969" fill="none" stroke="black"/>
<path d="M83.3283,39.3798h -14.7969" fill="none" stroke="black"/>
<text xml:space="preserve" x="56.8548" y="503.248" fill="black" font-size="16.0105" font-family="Helvetica">0</text>
<text xml:space="preserve" x="34.8764" y="411.953" fill="black" font-size="16.0105" font-family="Helvetica">0.02</text>
<text xml:space="preserve" x="34.8764" y="320.095" fill="black" font-size="16.0105" font-family="Helvetica">0.04</text>
<text xml:space="preserve" x="34.8764" y="228.237" fill="black" font-size="16.0105" font-family="Helvetica">0.06</text>
<text xml:space="preserve" x="34.8764" y="136.379" fill="black" font-size="16.0105" font-family="Helvetica">0.08</text>
<text xml:space="preserve" x="46.1474" y="44.5203" fill="black" font-size="16.0105" font-family="Helvetica">0.1</text>
<g transform="rotate(-90,38.2577,98.0573)">
<text xml:space="preserve" x="38.2577" y="98.0573" fill="black" font-size="16.0105" font-family="Helvetica">background</text>
</g>
<g transform="rotate(-90,21.9148,98.0573)">
<text xml:space="preserve" x="21.9148" y="98.0573" fill="black" font-size="16.0105" font-family="Helvetica">same event</text>
</g>
<path d="M24.169,98.0573l 0.563548, -81.7144" fill="none" stroke="black" stroke-width="2"/>
<path d="M553.256,498.064v -481.461" fill="none" stroke="black"/>
<path d="M538.459,498.064h 14.7969" fill="none" stroke="black"/>
<path d="M545.857,475.129h 7.39843" fill="none" stroke="black"/>
<path d="M545.857,452.195h 7.39843" fill="none" stroke="black"/>
<path d="M545.857,429.261h 7.39843" fill="none" stroke="black"/>
<path d="M538.459,406.327h 14.7969" fill="none" stroke="black"/>
<path d="M545.857,383.393h 7.39843" fill="none" stroke="black"/>
<path d="M545.857,360.458h 7.39843" fill="none" stroke="black"/>
<path d="M545.857,337.524h 7.39843" fill="none" stroke="black"/>
<path d="M538.459,314.59h 14.7969" fill="none" stroke="black"/>
<path d="M545.857,291.656h 7.39843" fill="none" stroke="black"/>
<path d="M545.857,268.722h 7.39843" fill="none" stroke="black"/>
<path d="M545.857,245.788h 7.39843" fill="none" stroke="black"/>
<path d="M538.459,222.853h 14.7969" fill="none" stroke="black"/>
<path d="M545.857,199.919h 7.39843" fill="none" stroke="black"/>
<path d="M545.857,176.985h 7.39843" fill="none" stroke="black"/>
<path d="M545.857,154.051h 7.39843" fill="none" stroke="black"/>
<path d="M538.459,131.117h 14.7969" fill="none" stroke="black"/>
<path d="M545.857,108.182h 7.39843" fill="none" stroke="black"/>
<path d="M545.857,85.2482h 7.39843" fill="none" stroke="black"/>
<path d="M545.857,62.314h 7.39843" fill="none" stroke="black"/>
<path d="M538.459,39.3798h 14.7969" fill="none" stroke="black"/>
<path d="M538.459,39.3798h 14.7969" fill="none" stroke="black"/>
<g stroke="#333333" stroke-width="2" fill="none">
<circle cx="282.098" cy="365.522" r="5.63548"/>
</g>
<g stroke="#333333" stroke-width="2" fill="none">
<circle cx="286.897" cy="365.689" r="5.63548"/>
</g>
<g stroke="#333333" stroke-width="2" fill="none">
<circle cx="291.697" cy="364.811" r="5.63548"/>
</g>
<g stroke="#333333" stroke-width="2" fill="none">
<circle cx="296.496" cy="363.42" r="5.63548"/>
</g>
<g stroke="#333333" stroke-width="2" fill="none">
<circle cx="301.295" cy="363.199" r="5.63548"/>
</g>
<g stroke="#333333" stroke-width="2" fill="none">
<circle cx="306.094" cy="362.565" r="5.63548"/>
</g>
<g stroke="#333333" stroke-width="2" fill="none">
<circle cx="310.894" cy="362.79" r="5.63548"/>
</g>
<g stroke="#333333" stroke-width="2" fill="none">
<circle cx="315.693" cy="362.349" r="5.63548"/>
</g>
<g stroke="#333333" stroke-width="2" fill="none">
<circle cx="320.492" cy="361.427" r="5.63548"/>
</g>
<g stroke="#333333" stroke-width="2" fill="none">
<circle cx="325.291" cy="360.817" r="5.63548"/>
</g>
<g stroke="#333333" stroke-width="2" fill="none">
<circle cx="330.091" cy="360.586" r="5.63548"/>
</g>
<g stroke="#333333" stroke-width="2" fill="none">
<circle cx="334.89" cy="359.2" r="5.63548"/>
</g>
<path d="M98.7518,388.036l 0.44993, -0.0591965l 0.44993, -0.0591965l 0.44993, -0.0591965l 0.44993, -0.0591965l 0.44993, -0.0591965l 0.44993, -0.0591965l 0.44993, -0.0591965l 0.44993, -0.0591965l 0.44993, -0.0591965l 0.44993, -0.0591965l 0.44993,
 -0.0591965l 0.44993, -0.0591965l 0.44993, -0.0591965l 0.44993, -0.0591965l 0.44993, -0.0591965l 0.44993, -0.0591965l 0.44993, -0.0591965l 0.44993, -0.0591965l 0.44993, -0.0591965l 0.44993, -0.0591965l 0.44993, -0.0591965l 0.44993, -0.0591965l
 0.44993, -0.0591965l 0.44993, -0.0591965l 0.44993, -0.0591965l 0.44993, -0.0591965l 0.44993, -0.0591965l 0.44993, -0.0591965l 0.44993, -0.0591965l 0.44993, -0.0591965l 0.44993, -0.0591965l 0.44993, -0.0591965l 0.44993, -0.0591965l 0.44993,
 -0.0591965l 0.44993, -0.0591965l 0.44993, -0.0591965l 0.44993, -0.0591965l 0.44993, -0.0591965l 0.44993, -0.0591965l 0.44993, -0.0591965l 0.44993, -0.0591965l 0.44993, -0.0591965l 0.44993, -0.0591965l 0.44993, -0.0591965l 0.44993, -0.0591965l
 0.44993, -0.0591965l 0.44993, -0.0591965l 0.44993, -0.0591965l 0.44993, -0.0591965" fill="none" stroke="#33cccc" stroke-width="3"/>
<path d="M120.798,385.135l 0.44993, -0.0591965l 0.44993, -0.0591965l 0.44993, -0.0591965l 0.44993, -0.0591965l 0.44993, -0.0591965l 0.44993, -0.0591965l 0.44993, -0.0591965l 0.44993, -0.0591965l 0.44993, -0.0591965l 0.44993, -0.0591965l 0.44993,
 -0.0591965l 0.44993, -0.0591965l 0.44993, -0.0591965l 0.44993, -0.0591965l 0.44993, -0.0591965l 0.44993, -0.0591965l 0.44993, -0.0591965l 0.44993, -0.0591965l 0.44993, -0.0591965l 0.44993, -0.0591965l 0.44993, -0.0591965l 0.44993, -0.0591965l
 0.44993, -0.0591965l 0.44993, -0.0591965l 0.44993, -0.0591965l 0.44993, -0.0591965l 0.44993, -0.0591965l 0.44993, -0.0591965l 0.44993, -0.0591965l 0.44993, -0.0591965l 0.44993, -0.0591965l 0.44993, -0.0591965l 0.44993, -0.0591965l 0.44993,
 -0.0591965l 0.44993, -0.0591965l 0.44993, -0.0591965l 0.44993, -0.0591965l 0.44993, -0.0591965l 0.44993, -0.0591965l 0.44993, -0.0591965l 0.44993, -0.0591965l 0.44993, -0.0591965l 0.44993, -0.0591965l 0.44993, -0.0591965l 0.44993, -0.0591965l
 0.44993, -0.0591965l 0.44993, -0.0591965l 0.44993, -0.0591965l 0.44993, -0.0591965" fill="none" stroke="#33cccc" stroke-width="3"/>
<path d="M142.845,382.234l 0.44993, -0.0591965l 0.44993, -0.0591965l 0.44993, -0.0591965l 0.44993, -0.0591965l 0.44993, -0.0591965l 0.44993, -0.0591965l 0.44993, -0.0591965l 0.44993, -0.0591965l 0.44993, -0.0591965l 0.44993, -0.0591965l 0.44993,
 -0.0591965l 0.44993, -0.0591965l 0.44993, -0.0591965l 0.44993, -0.0591965l 0.44993, -0.0591965l 0.44993, -0.0591965l 0.44993, -0.0591965l 0.44993, -0.0591965l 0.44993, -0.0591965l 0.44993, -0.0591965l 0.44993, -0.0591965l 0.44993, -0.0591965l
 0.44993, -0.0591965l 0.44993, -0.0591965l 0.44993, -0.0591965l 0.44993, -0.0591965l 0.44993, -0.0591965l 0.44993, -0.0591965l 0.44993, -0.0591965l 0.44993, -0.0591965l 0.44993, -0.0591965l 0.44993, -0.0591965l 0.44993, -0.0591965l 0.44993,
 -0.0591965l 0.44993, -0.0591965l 0.44993, -0.0591965l 0.44993, -0.0591965l 0.44993, -0.0591965l 0.44993, -0.0591965l 0.44993, -0.0591965l 0.44993, -0.0591965l 0.44993, -0.0591965l 0.44993, -0.0591965l 0.44993, -0.0591965l 0.44993, -0.0591965l
 0.44993, -0.0591965l 0.44993, -0.0591965l 0.44993, -0.0591965l 0.44993, -0.0591965" fill="none" stroke="#33cccc" stroke-width="3"/>
<path d="M164.891,379.334l 0.44993, -0.0591965l 0.44993, -0.0591965l 0.44993, -0.0591965l 0.44993, -0.0591965l 0.44993, -0.0591965l 0.44993, -0.0591965l 0.44993, -0.0591965l 0.44993, -0.0591965l 0.44993, -0.0591965l 0.44993, -0.0591965l 0.44993,
 -0.0591965l 0.44993, -0.0591965l 0.44993, -0.0591965l 0.44993, -0.0591965l 0.44993, -0.0591965l 0.44993, -0.0591965l 0.44993, -0.0591965l 0.44993, -0.0591965l 0.44993, -0.0591965l 0.44993, -0.0591965l 0.44993, -0.0591965l 0.44993, -0.0591965l
 0.44993, -0.0591965l 0.44993, -0.0591965l 0.44993, -0.0591965l 0.44993, -0.0591965l 0.44993, -0.0591965l 0.44993, -0.0591965l 0.44993, -0.0591965l 0.44993, -0.0591965l 0.44993, -0.0591965l 0.44993, -0.0591965l 0.44993, -0.0591965l 0.44993,
 -0.0591965l 0.44993, -0.0591965l 0.44993, -0.0591965l 0.44993, -0.0591965l 0.44993, -0.0591965l 0.44993, -0.0591965l 0.44993, -0.0591965l 0.44993, -0.0591965l 0.44993, -0.0591965l 0.44993, -0.0591965l 0.44993, -0.0591965l 0.44993, -0.0591965l
 0.44993, -0.0591965l 0.44993, -0.0591965l 0.44993, -0.0591965l 0.44993, -0.0591965" fill="none" stroke="#33cccc" stroke-width="3"/>
<path d="M186.938,376.433l 0.44993, -0.0591965l 0.44993, -0.0591965l 0.44993, -0.0591965l 0.44993, -0.0591965l 0.44993, -0.0591965l 0.44993, -0.0591965l 0.44993, -0.0591965l 0.44993, -0.0591965l 0.44993, -0.0591965l 0.44993, -0.0591965l 0.44993,
 -0.0591965l 0.44993, -0.0591965l 0.44993, -0.0591965l 0.44993, -0.0591965l 0.44993, -0.0591965l 0.44993, -0.0591965l 0.44993, -0.0591965l 0.44993, -0.0591965l 0.44993, -0.0591965l 0.44993, -0.0591965l 0.44993, -0.0591965l 0.44993, -0.0591965l
 0.44993, -0.0591965l 0.44993, -0.0591965l 0.44993, -0.0591965l 0.44993, -0.0591965l 0.44993, -0.0591965l 0.44993, -0.0591965l 0.44993, -0.0591965l 0.44993, -0.0591965l 0.44993, -0.0591965l 0.44993, -0.0591965l 0.44993, -0.0591965l 0.44993,
 -0.0591965l 0.44993, -0.0591965l 0.44993, -0.0591965l 0.44993, -0.0591965l 0.44993, -0.0591965l 0.44993, -0.0591965l 0.44993, -0.0591965l 0.44993, -0.0591965l 0.44993, -0.0591965l 0.44993, -0.0591965l 0.44993, -0.0591965l 0.44993, -0.0591965l
 0.44993, -0.0591965l 0.44993, -0.0591965l 0.44993, -0.0591965l 0.44993, -0.0591965" fill="none" stroke="#33cccc" stroke-width="3"/>
<path d="M208.985,373.532l 0.44993, -0.0591965l 0.44993, -0.0591965l 0.44993, -0.0591965l 0.44993, -0.0591965l 0.44993, -0.0591965l 0.44993, -0.0591965l 0.44993, -0.0591965l 0.44993, -0.0591965l 0.44993, -0.0591965l 0.44993, -0.0591965l 0.44993,
 -0.0591965l 0.44993, -0.0591965l 0.44993, -0.0591965l 0.44993, -0.0591965l 0.44993, -0.0591965l 0.44993, -0.0591965l 0.44993, -0.0591965l 0.44993, -0.0591965l 0.44993, -0.0591965l 0.44993, -0.0591965l 0.44993, -0.0591965l 0.44993, -0.0591965l
 0.44993, -0.0591965l 0.44993, -0.0591965l 0.44993, -0.0591965l 0.44993, -0.0591965l 0.44993, -0.0591965l 0.44993, -0.0591965l 0.44993, -0.0591965l 0.44993, -0.0591965l 0.44993, -0.0591965l 0.44993, -0.0591965l 0.44993, -0.0591965l 0.44993,
 -0.0591965l 0.44993, -0.0591965l 0.44993, -0.0591965l 0.44993, -0.0591965l 0.44993, -0.0591965l 0.44993, -0.0591965l 0.44993, -0.0591965l 0.44993, -0.0591965l 0.44993, -0.0591965l 0.44993, -0.0591965l 0.44993, -0.0591965l 0.44993, -0.0591965l
 0.44993, -0.0591965l 0.44993, -0.0591965l 0.44993, -0.0591965l 0.44993, -0.0591965" fill="none" stroke="#33cccc" stroke-width="3"/>
<path d="M231.031,370.632l 0.44993, -0.0591965l 0.44993, -0.0591965l 0.44993, -0.0591965l 0.44993, -0.0591965l 0.44993, -0.0591965l 0.44993, -0.0591965l 0.44993, -0.0591965l 0.44993, -0.0591965l 0.44993, -0.0591965l 0.44993, -0.0591965l 0.44993,
 -0.0591965l 0.44993, -0.0591965l 0.44993, -0.0591965l 0.44993, -0.0591965l 0.44993, -0.0591965l 0.44993, -0.0591965l 0.44993, -0.0591965l 0.44993, -0.0591965l 0.44993, -0.0591965l 0.44993, -0.0591965l 0.44993, -0.0591965l 0.44993, -0.0591965l
 0.44993, -0.0591965l 0.44993, -0.0591965l 0.44993, -0.0591965l 0.44993, -0.0591965l 0.44993, -0.0591965l 0.44993, -0.0591965l 0.44993, -0.0591965l 0.44993, -0.0591965l 0.44993, -0.0591965l 0.44993, -0.0591965l 0.44993, -0.0591965l 0.44993,
 -0.0591965l 0.44993, -0.0591965l 0.44993, -0.0591965l 0.44993, -0.0591965l 0.44993, -0.0591965l 0.44993, -0.0591965l 0.44993, -0.0591965l 0.44993, -0.0591965l 0.44993, -0.0591965l 0.44993, -0.0591965l 0.44993, -0.0591965l 0.44993, -0.0591965l
 0.44993, -0.0591965l 0.44993, -0.0591965l 0.44993, -0.0591965l 0.44993, -0.0591965" fill="none" stroke="#33cccc" stroke-width="3"/>
<path d="M253.078,367.731l 0.44993, -0.0591965l 0.44993, -0.0591965l 0.44993, -0.0591965l 0.44993, -0.0591965l 0.44993, -0.0591965l 0.44993, -0.0591965l 0.44993, -0.0591965l 0.44993, -0.0591965l 0.44993, -0.0591965l 0.44993, -0.0591965l 0.44993,
 -0.0591965l 0.44993, -0.0591965l 0.44993, -0.0591965l 0.44993, -0.0591965l 0.44993, -0.0591965l 0.44993, -0.0591965l 0.44993, -0.0591965l 0.44993, -0.0591965l 0.44993, -0.0591965l 0.44993, -0.0591965l 0.44993, -0.0591965l 0.44993, -0.0591965l
 0.44993, -0.0591965l 0.44993, -0.0591965l 0.44993, -0.0591965l 0.44993, -0.0591965l 0.44993, -0.0591965l 0.44993, -0.0591965l 0.44993, -0.0591965l 0.44993, -0.0591965l 0.44993, -0.0591965l 0.44993, -0.0591965l 0.44993, -0.0591965l 0.44993,
 -0.0591965l 0.44993, -0.0591965l 0.44993, -0.0591965l 0.44993, -0.0591965l 0.44993, -0.0591965l 0.44993, -0.0591965l 0.44993, -0.0591965l 0.44993, -0.0591965l 0.44993, -0.0591965l 0.44993, -0.0591965l 0.44993, -0.0591965l 0.44993, -0.0591965l
 0.44993, -0.0591965l 0.44993, -0.0591965l 0.44993, -0.0591965l 0.44993, -0.0591965" fill="none" stroke="#33cccc" stroke-width="3"/>
<path d="M275.124,364.831l 0.44993, -0.0591965l 0.44993, -0.0591965l 0.44993, -0.0591965l 0.44993, -0.0591965l 0.44993, -0.0591965l 0.44993, -0.0591965l 0.44993, -0.0591965l 0.44993, -0.0591965l 0.44993, -0.0591965l 0.44993, -0.0591965l 0.44993,
 -0.0591965l 0.44993, -0.0591965l 0.44993, -0.0591965l 0.44993, -0.0591965l 0.44993, -0.0591965l 0.44993, -0.0591965l 0.44993, -0.0591965l 0.44993, -0.0591965l 0.44993, -0.0591965l 0.44993, -0.0591965l 0.44993, -0.0591965l 0.44993, -0.0591965l
 0.44993, -0.0591965l 0.44993, -0.0591965l 0.44993, -0.0591965l 0.44993, -0.0591965l 0.44993, -0.0591965l 0.44993, -0.0591965l 0.44993, -0.0591965l 0.44993, -0.0591965l 0.44993, -0.0591965l 0.44993, -0.0591965l 0.44993, -0.0591965l 0.44993,
 -0.0591965l 0.44993, -0.0591965l 0.44993, -0.0591965l 0.44993, -0.0591965l 0.44993, -0.0591965l 0.44993, -0.0591965l 0.44993, -0.0591965l 0.44993, -0.0591965l 0.44993, -0.0591965l 0.44993, -0.0591965l 0.44993, -0.0591965l 0.44993, -0.0591965l
 0.44993, -0.0591965l 0.44993, -0.0591965l 0.44993, -0.0591965l 0.44993, -0.0591965" fill="none" stroke="#33cccc" stroke-width="3"/>
<path d="M297.171,361.93l 0.44993, -0.0591965l 0.44993, -0.0591965l 0.44993, -0.0591965l 0.44993, -0.0591965l 0.44993, -0.0591965l 0.44993, -0.0591965l 0.44993, -0.0591965l 0.44993, -0.0591965l 0.44993, -0.0591965l 0.44993, -0.0591965l 0.44993,
 -0.0591965l 0.44993, -0.0591965l 0.44993, -0.0591965l 0.44993, -0.0591965l 0.44993, -0.0591965l 0.44993, -0.0591965l 0.44993, -0.0591965l 0.44993, -0.0591965l 0.44993, -0.0591965l 0.44993, -0.0591965l 0.44993, -0.0591965l 0.44993, -0.0591965l
 0.44993, -0.0591965l 0.44993, -0.0591965l 0.44993, -0.0591965l 0.44993, -0.0591965l 0.44993, -0.0591965l 0.44993, -0.0591965l 0.44993, -0.0591965l 0.44993, -0.0591965l 0.44993, -0.0591965l 0.44993, -0.0591965l 0.44993, -0.0591965l 0.44993,
 -0.0591965l 0.44993, -0.0591965l 0.44993, -0.0591965l 0.44993, -0.0591965l 0.44993, -0.0591965l 0.44993, -0.0591965l 0.44993, -0.0591965l 0.44993, -0.0591965l 0.44993, -0.0591965l 0.44993, -0.0591965l 0.44993, -0.0591965l 0.44993, -0.0591965l
 0.44993, -0.0591965l 0.44993, -0.0591965l 0.44993, -0.0591965l 0.44993, -0.0591965" fill="none" stroke="#33cccc" stroke-width="3"/>
<path d="M319.217,359.029l 0.44993, -0.0591965l 0.44993, -0.0591965l 0.44993, -0.0591965l 0.44993, -0.0591965l 0.44993, -0.0591965l 0.44993, -0.0591965l 0.44993, -0.0591965l 0.44993, -0.0591965l 0.44993, -0.0591965l 0.44993, -0.0591965l 0.44993,
 -0.0591965l 0.44993, -0.0591965l 0.44993, -0.0591965l 0.44993, -0.0591965l 0.44993, -0.0591965l 0.44993, -0.0591965l 0.44993, -0.0591965l 0.44993, -0.0591965l 0.44993, -0.0591965l 0.44993, -0.0591965l 0.44993, -0.0591965l 0.44993, -0.0591965l
 0.44993, -0.0591965l 0.44993, -0.0591965l 0.44993, -0.0591965l 0.44993, -0.0591965l 0.44993, -0.0591965l 0.44993, -0.0591965l 0.44993, -0.0591965l 0.44993, -0.0591965l 0.44993, -0.0591965l 0.44993, -0.0591965l 0.44993, -0.0591965l 0.44993,
 -0.0591965l 0.44993, -0.0591965l 0.44993, -0.0591965l 0.44993, -0.0591965l 0.44993, -0.0591965l 0.44993, -0.0591965l 0.44993, -0.0591965l 0.44993, -0.0591965l 0.44993, -0.0591965l 0.44993, -0.0591965l 0.44993, -0.0591965l 0.44993, -0.0591965l
 0.44993, -0.0591965l 0.44993, -0.0591965l 0.44993, -0.0591965l 0.44993, -0.0591965" fill="none" stroke="#33cccc" stroke-width="3"/>
<path d="M341.264,356.129l 0.44993, -0.0591965l 0.44993, -0.0591965l 0.44993, -0.0591965l 0.44993, -0.0591965l 0.44993, -0.0591965l 0.44993, -0.0591965l 0.44993, -0.0591965l 0.44993, -0.0591965l 0.44993, -0.0591965l 0.44993, -0.0591965l 0.44993,
 -0.0591965l 0.44993, -0.0591965l 0.44993, -0.0591965l 0.44993, -0.0591965l 0.44993, -0.0591965l 0.44993, -0.0591965l 0.44993, -0.0591965l 0.44993, -0.0591965l 0.44993, -0.0591965l 0.44993, -0.0591965l 0.44993, -0.0591965l 0.44993, -0.0591965l
 0.44993, -0.0591965l 0.44993, -0.0591965l 0.44993, -0.0591965l 0.44993, -0.0591965l 0.44993, -0.0591965l 0.44993, -0.0591965l 0.44993, -0.0591965l 0.44993, -0.0591965l 0.44993, -0.0591965l 0.44993, -0.0591965l 0.44993, -0.0591965l 0.44993,
 -0.0591965l 0.44993, -0.0591965l 0.44993, -0.0591965l 0.44993, -0.0591965l 0.44993, -0.0591965l 0.44993, -0.0591965l 0.44993, -0.0591965l 0.44993, -0.0591965l 0.44993, -0.0591965l 0.44993, -0.0591965l 0.44993, -0.0591965l 0.44993, -0.0591965l
 0.44993, -0.0591965l 0.44993, -0.0591965l 0.44993, -0.0591965l 0.44993, -0.0591965" fill="none" stroke="#33cccc" stroke-width="3"/>
<path d="M363.311,353.228l 0.44993, -0.0591965l 0.44993, -0.0591965l 0.44993, -0.0591965l 0.44993, -0.0591965l 0.44993, -0.0591965l 0.44993, -0.0591965l 0.44993, -0.0591965l 0.44993, -0.0591965l 0.44993, -0.0591965l 0.44993, -0.0591965l 0.44993,
 -0.0591965l 0.44993, -0.0591965l 0.44993, -0.0591965l 0.44993, -0.0591965l 0.44993, -0.0591965l 0.44993, -0.0591965l 0.44993, -0.0591965l 0.44993, -0.0591965l 0.44993, -0.0591965l 0.44993, -0.0591965l 0.44993, -0.0591965l 0.44993, -0.0591965l
 0.44993, -0.0591965l 0.44993, -0.0591965l 0.44993, -0.0591965l 0.44993, -0.0591965l 0.44993, -0.0591965l 0.44993, -0.0591965l 0.44993, -0.0591965l 0.44993, -0.0591965l 0.44993, -0.0591965l 0.44993, -0.0591965l 0.44993, -0.0591965l 0.44993,
 -0.0591965l 0.44993, -0.0591965l 0.44993, -0.0591965l 0.44993, -0.0591965l 0.44993, -0.0591965l 0.44993, -0.0591965l 0.44993, -0.0591965l 0.44993, -0.0591965l 0.44993, -0.0591965l 0.44993, -0.0591965l 0.44993, -0.0591965l 0.44993, -0.0591965l
 0.44993, -0.0591965l 0.44993, -0.0591965l 0.44993, -0.0591965l 0.44993, -0.0591965" fill="none" stroke="#33cccc" stroke-width="3"/>
<path d="M385.357,350.327l 0.44993, -0.0591965l 0.44993, -0.0591965l 0.44993, -0.0591965l 0.44993, -0.0591965l 0.44993, -0.0591965l 0.44993, -0.0591965l 0.44993, -0.0591965l 0.44993, -0.0591965l 0.44993, -0.0591965l 0.44993, -0.0591965l 0.44993,
 -0.0591965l 0.44993, -0.0591965l 0.44993, -0.0591965l 0.44993, -0.0591965l 0.44993, -0.0591965l 0.44993, -0.0591965l 0.44993, -0.0591965l 0.44993, -0.0591965l 0.44993, -0.0591965l 0.44993, -0.0591965l 0.44993, -0.0591965l 0.44993, -0.0591965l
 0.44993, -0.0591965l 0.44993, -0.0591965l 0.44993, -0.0591965l 0.44993, -0.0591965l 0.44993, -0.0591965l 0.44993, -0.0591965l 0.44993, -0.0591965l 0.44993, -0.0591965l 0.44993, -0.0591965l 0.44993, -0.0591965l 0.44993, -0.0591965l 0.44993,
 -0.0591965l 0.44993, -0.0591965l 0.44993, -0.0591965l 0.44993, -0.0591965l 0.44993, -0.0591965l 0.44993, -0.0591965l 0.44993, -0.0591965l 0.44993, -0.0591965l 0.44993, -0.0591965l 0.44993, -0.0591965l 0.44993, -0.0591965l 0.44993, -0.0591965l
 0.44993, -0.0591965l 0.44993, -0.0591965l 0.44993, -0.0591965l 0.44993, -0.0591965" fill="none" stroke="#33cccc" stroke-width="3"/>
<path d="M407.404,347.427l 0.44993, -0.0591965l 0.44993, -0.0591965l 0.44993, -0.0591965l 0.44993, -0.0591965l 0.44993, -0.0591965l 0.44993, -0.0591965l 0.44993, -0.0591965l 0.44993, -0.0591965l 0.44993, -0.0591965l 0.44993, -0.0591965l 0.44993,
 -0.0591965l 0.44993, -0.0591965l 0.44993, -0.0591965l 0.44993, -0.0591965l 0.44993, -0.0591965l 0.44993, -0.0591965l 0.44993, -0.0591965l 0.44993, -0.0591965l 0.44993, -0.0591965l 0.44993, -0.0591965l 0.44993, -0.0591965l 0.44993, -0.0591965l
 0.44993, -0.0591965l 0.44993, -0.0591965l 0.44993, -0.0591965l 0.44993, -0.0591965l 0.44993, -0.0591965l 0.44993, -0.0591965l 0.44993, -0.0591965l 0.44993, -0.0591965l 0.44993, -0.0591965l 0.44993, -0.0591965l 0.44993, -0.0591965l 0.44993,
 -0.0591965l 0.44993, -0.0591965l 0.44993, -0.0591965l 0.44993, -0.0591965l 0.44993, -0.0591965l 0.44993, -0.0591965l 0.44993, -0.0591965l 0.44993, -0.0591965l 0.44993, -0.0591965l 0.44993, -0.0591965l 0.44993, -0.0591965l 0.44993, -0.0591965l
 0.44993, -0.0591965l 0.44993, -0.0591965l 0.44993, -0.0591965l 0.44993, -0.0591965" fill="none" stroke="#33cccc" stroke-width="3"/>
<path d="M429.45,344.526l 0.44993, -0.0591965l 0.44993, -0.0591965l 0.44993, -0.0591965l 0.44993, -0.0591965l 0.44993, -0.0591965l 0.44993, -0.0591965l 0.44993, -0.0591965l 0.44993, -0.0591965l 0.44993, -0.0591965l 0.44993, -0.0591965l 0.44993,
 -0.0591965l 0.44993, -0.0591965l 0.44993, -0.0591965l 0.44993, -0.0591965l 0.44993, -0.0591965l 0.44993, -0.0591965l 0.44993, -0.0591965l 0.44993, -0.0591965l 0.44993, -0.0591965l 0.44993, -0.0591965l 0.44993, -0.0591965l 0.44993, -0.0591965l
 0.44993, -0.0591965l 0.44993, -0.0591965l 0.44993, -0.0591965l 0.44993, -0.0591965l 0.44993, -0.0591965l 0.44993, -0.0591965l 0.44993, -0.0591965l 0.44993, -0.0591965l 0.44993, -0.0591965l 0.44993, -0.0591965l 0.44993, -0.0591965l 0.44993,
 -0.0591965l 0.44993, -0.0591965l 0.44993, -0.0591965l 0.44993, -0.0591965l 0.44993, -0.0591965l 0.44993, -0.0591965l 0.44993, -0.0591965l 0.44993, -0.0591965l 0.44993, -0.0591965l 0.44993, -0.0591965l 0.44993, -0.0591965l 0.44993, -0.0591965l
 0.44993, -0.0591965l 0.44993, -0.0591965l 0.44993, -0.0591965l 0.44993, -0.0591965" fill="none" stroke="#33cccc" stroke-width="3"/>
<path d="M451.497,341.625l 0.44993, -0.0591965l 0.44993, -0.0591965l 0.44993, -0.0591965l 0.44993, -0.0591965l 0.44993, -0.0591965l 0.44993, -0.0591965l 0.44993, -0.0591965l 0.44993, -0.0591965l 0.44993, -0.0591965l 0.44993, -0.0591965l 0.44993,
 -0.0591965l 0.44993, -0.0591965l 0.44993, -0.0591965l 0.44993, -0.0591965l 0.44993, -0.0591965l 0.44993, -0.0591965l 0.44993, -0.0591965l 0.44993, -0.0591965l 0.44993, -0.0591965l 0.44993, -0.0591965l 0.44993, -0.0591965l 0.44993, -0.0591965l
 0.44993, -0.0591965l 0.44993, -0.0591965l 0.44993, -0.0591965l 0.44993, -0.0591965l 0.44993, -0.0591965l 0.44993, -0.0591965l 0.44993, -0.0591965l 0.44993, -0.0591965l 0.44993, -0.0591965l 0.44993, -0.0591965l 0.44993, -0.0591965l 0.44993,
 -0.0591965l 0.44993, -0.0591965l 0.44993, -0.0591965l 0.44993, -0.0591965l 0.44993, -0.0591965l 0.44993, -0.0591965l 0.44993, -0.0591965l 0.44993, -0.0591965l 0.44993, -0.0591965l 0.44993, -0.0591965l 0.44993, -0.0591965l 0.44993, -0.0591965l
 0.44993, -0.0591965l 0.44993, -0.0591965l 0.44993, -0.0591965l 0.44993, -0.0591965" fill="none" stroke="#33cccc" stroke-width="3"/>
<path d="M473.543,338.725l 0.44993, -0.0591965l 0.44993, -0.0591965l 0.44993, -0.0591965l 0.44993, -0.0591965l 0.44993, -0.0591965l 0.44993, -0.0591965l 0.44993, -0.0591965l 0.44993, -0.0591965l 0.44993, -0.0591965l 0.44993, -0.0591965l 0.44993,
 -0.0591965l 0.44993, -0.0591965l 0.44993, -0.0591965l 0.44993, -0.0591965l 0.44993, -0.0591965l 0.44993, -0.0591965l 0.44993, -0.0591965l 0.44993, -0.0591965l 0.44993, -0.0591965l 0.44993, -0.0591965l 0.44993, -0.0591965l 0.44993, -0.0591965l
 0.44993, -0.0591965l 0.44993, -0.0591965l 0.44993, -0.0591965l 0.44993, -0.0591965l 0.44993, -0.0591965l 0.44993, -0.0591965l 0.44993, -0.0591965l 0.44993, -0.0591965l 0.44993, -0.0591965l 0.44993, -0.0591965l 0.44993, -0.0591965l 0.44993,
 -0.0591965l 0.44993, -0.0591965l 0.44993, -0.0591965l 0.44993, -0.0591965l 0.44993, -0.0591965l 0.44993, -0.0591965l 0.44993, -0.0591965l 0.44993, -0.0591965l 0.44993, -0.0591965l 0.44993, -0.0591965l 0.44993, -0.0591965l 0.44993, -0.0591965l
 0.44993, -0.0591965l 0.44993, -0.0591965l 0.44993, -0.0591965l 0.44993, -0.0591965" fill="none" stroke="#33cccc" stroke-width="3"/>
<path d="M495.59,335.824l 0.44993, -0.0591965l 0.44993, -0.0591965l 0.44993, -0.0591965l 0.44993, -0.0591965l 0.44993, -0.0591965l 0.44993, -0.0591965l 0.44993, -0.0591965l 0.44993, -0.0591965l 0.44993, -0.0591965l 0.44993, -0.0591965l 0.44993,
 -0.0591965l 0.44993, -0.0591965l 0.44993, -0.0591965l 0.44993, -0.0591965l 0.44993, -0.0591965l 0.44993, -0.0591965l 0.44993, -0.0591965l 0.44993, -0.0591965l 0.44993, -0.0591965l 0.44993, -0.0591965l 0.44993, -0.0591965l 0.44993, -0.0591965l
 0.44993, -0.0591965l 0.44993, -0.0591965l 0.44993, -0.0591965l 0.44993, -0.0591965l 0.44993, -0.0591965l 0.44993, -0.0591965l 0.44993, -0.0591965l 0.44993, -0.0591965l 0.44993, -0.0591965l 0.44993, -0.0591965l 0.44993, -0.0591965l 0.44993,
 -0.0591965l 0.44993, -0.0591965l 0.44993, -0.0591965l 0.44993, -0.0591965l 0.44993, -0.0591965l 0.44993, -0.0591965l 0.44993, -0.0591965l 0.44993, -0.0591965l 0.44993, -0.0591965l 0.44993, -0.0591965l 0.44993, -0.0591965l 0.44993, -0.0591965l
 0.44993, -0.0591965l 0.44993, -0.0591965l 0.44993, -0.0591965l 0.44993, -0.0591965" fill="none" stroke="#33cccc" stroke-width="3"/>
<path d="M517.636,332.924l 0.44993, -0.0591965l 0.44993, -0.0591965l 0.44993, -0.0591965l 0.44993, -0.0591965l 0.44993, -0.0591965l 0.44993, -0.0591965l 0.44993, -0.0591965l 0.44993, -0.0591965l 0.44993, -0.0591965l 0.44993, -0.0591965l 0.44993,
 -0.0591965l 0.44993, -0.0591965l 0.44993, -0.0591965l 0.44993, -0.0591965l 0.44993, -0.0591965l 0.44993, -0.0591965l 0.44993, -0.0591965l 0.44993, -0.0591965l 0.44993, -0.0591965l 0.44993, -0.0591965l 0.44993, -0.0591965l 0.44993, -0.0591965l
 0.44993, -0.0591965l 0.44993, -0.0591965l 0.44993, -0.0591965l 0.44993, -0.0591965l 0.44993, -0.0591965l 0.44993, -0.0591965l 0.44993, -0.0591965l 0.44993, -0.0591965l 0.44993, -0.0591965l 0.44993, -0.0591965l 0.44993, -0.0591965l 0.44993,
 -0.0591965l 0.44993, -0.0591965l 0.44993, -0.0591965l 0.44993, -0.0591965l 0.44993, -0.0591965l 0.44993, -0.0591965l 0.44993, -0.0591965l 0.44993, -0.0591965l 0.44993, -0.0591965l 0.44993, -0.0591965l 0.44993, -0.0591965l 0.44993, -0.0591965l
 0.44993, -0.0591965l 0.44993, -0.0591965l 0.44993, -0.0591965l 0.44993, -0.0591965" fill="none" stroke="#33cccc" stroke-width="3"/>
<path d="M539.683,330.023l 0.44993, -0.0591965l 0.44993, -0.0591965l 0.44993, -0.0591965l 0.44993, -0.0591965l 0.44993, -0.0591965l 0.44993, -0.0591965l 0.44993, -0.0591965l 0.44993, -0.0591965l 0.44993, -0.0591965l 0.44993, -0.0591965l 0.44993,
 -0.0591965l 0.44993, -0.0591965l 0.44993, -0.0591965l 0.44993, -0.0591965l 0.44993, -0.0591965l 0.44993, -0.0591965l 0.44993, -0.0591965l 0.44993, -0.0591965l 0.44993, -0.0591965" fill="none" stroke="#33cccc" stroke-width="3"/>
<path d="M98.7518,370.744l 0.44993, 0.0270929l 0.44993, 0.0269143l 0.44993, 0.0267357l 0.44993, 0.0265571l 0.44993, 0.0263785l 0.44993, 0.0261999l 0.44993, 0.0260213l 0.44993, 0.0258427l 0.44993, 0.0256641l 0.44993, 0.0254855l 0.44993, 0.0253069l
 0.44993, 0.0251283l 0.44993, 0.0249497l 0.44993, 0.0247711l 0.44993, 0.0245925l 0.44993, 0.0244139l 0.44993, 0.0242353l 0.44993, 0.0240567l 0.44993, 0.0238781l 0.44993, 0.0236995l 0.44993, 0.0235209l 0.44993, 0.0233423l 0.44993, 0.0231637l 0.44993,
 0.0229851l 0.44993, 0.0228065l 0.44993, 0.0226279l 0.44993, 0.0224493l 0.44993, 0.0222707l 0.44993, 0.0220921l 0.44993, 0.0219135l 0.44993, 0.0217349l 0.44993, 0.0215563l 0.44993, 0.0213777l 0.44993, 0.0211991l 0.44993, 0.0210205l 0.44993,
 0.0208419l 0.44993, 0.0206633l 0.44993, 0.0204847l 0.44993, 0.0203061l 0.44993, 0.0201275l 0.44993, 0.0199489l 0.44993, 0.0197703l 0.44993, 0.0195917l 0.44993, 0.0194131l 0.44993, 0.0192345l 0.44993, 0.0190559l 0.44993, 0.0188773l 0.44993,
 0.0186987l 0.44993, 0.0185201" fill="none" stroke="#ff0066" stroke-width="3"/>
<path d="M120.798,371.862l 0.44993, 0.0183416l 0.44993, 0.018163l 0.44993, 0.0179844l 0.44993, 0.0178058l 0.44993, 0.0176272l 0.44993, 0.0174486l 0.44993, 0.01727l 0.44993, 0.0170914l 0.44993, 0.0169128l 0.44993, 0.0167342l 0.44993, 0.0165556l
 0.44993, 0.016377l 0.44993, 0.0161984l 0.44993, 0.0160198l 0.44993, 0.0158412l 0.44993, 0.0156626l 0.44993, 0.015484l 0.44993, 0.0153054l 0.44993, 0.0151268l 0.44993, 0.0149482l 0.44993, 0.0147696l 0.44993, 0.014591l 0.44993, 0.0144124l 0.44993,
 0.0142338l 0.44993, 0.0140552l 0.44993, 0.0138766l 0.44993, 0.013698l 0.44993, 0.0135194l 0.44993, 0.0133408l 0.44993, 0.0131622l 0.44993, 0.0129836l 0.44993, 0.012805l 0.44993, 0.0126264l 0.44993, 0.0124478l 0.44993, 0.0122692l 0.44993, 0.0120906l
 0.44993, 0.011912l 0.44993, 0.0117334l 0.44993, 0.0115548l 0.44993, 0.0113762l 0.44993, 0.0111976l 0.44993, 0.011019l 0.44993, 0.0108404l 0.44993, 0.0106618l 0.44993, 0.0104832l 0.44993, 0.0103046l 0.44993, 0.010126l 0.44993, 0.00994743l 0.44993,
 0.00976884" fill="none" stroke="#ff0066" stroke-width="3"/>
<path d="M142.845,372.551l 0.44993, 0.00959024l 0.44993, 0.00941164l 0.44993, 0.00923304l 0.44993, 0.00905444l 0.44993, 0.00887585l 0.44993, 0.00869725l 0.44993, 0.00851865l 0.44993, 0.00834005l 0.44993, 0.00816145l 0.44993, 0.00798285l 0.44993,
 0.00780426l 0.44993, 0.00762566l 0.44993, 0.00744706l 0.44993, 0.00726846l 0.44993, 0.00708986l 0.44993, 0.00691127l 0.44993, 0.00673267l 0.44993, 0.00655407l 0.44993, 0.00637547l 0.44993, 0.00619687l 0.44993, 0.00601827l 0.44993, 0.00583968l
 0.44993, 0.00566108l 0.44993, 0.00548248l 0.44993, 0.00530388l 0.44993, 0.00512528l 0.44993, 0.00494668l 0.44993, 0.00476809l 0.44993, 0.00458949l 0.44993, 0.00441089l 0.44993, 0.00423229l 0.44993, 0.00405369l 0.44993, 0.0038751l 0.44993, 0.0036965l
 0.44993, 0.0035179l 0.44993, 0.0033393l 0.44993, 0.0031607l 0.44993, 0.0029821l 0.44993, 0.00280351l 0.44993, 0.00262491l 0.44993, 0.00244631l 0.44993, 0.00226771l 0.44993, 0.00208911l 0.44993, 0.00191052l 0.44993, 0.00173192l 0.44993, 0.00155332l
 0.44993, 0.00137472l 0.44993, 0.00119612l 0.44993, 0.00101752" fill="none" stroke="#ff0066" stroke-width="3"/>
<path d="M164.891,372.811l 0.44993, 0.000838926l 0.44993, 0.000660328l 0.44993, 0.00048173l 0.44993, 0.000303132l 0.44993, 0.000124533l 0.44993, -5.40648e-05l 0.44993, -0.000232663l 0.44993, -0.000411261l 0.44993, -0.000589859l 0.44993, -0.000768458l
 0.44993, -0.000947056l 0.44993, -0.00112565l 0.44993, -0.00130425l 0.44993, -0.00148285l 0.44993, -0.00166145l 0.44993, -0.00184005l 0.44993, -0.00201865l 0.44993, -0.00219724l 0.44993, -0.00237584l 0.44993, -0.00255444l 0.44993, -0.00273304l
 0.44993, -0.00291164l 0.44993, -0.00309023l 0.44993, -0.00326883l 0.44993, -0.00344743l 0.44993, -0.00362603l 0.44993, -0.00380463l 0.44993, -0.00398323l 0.44993, -0.00416182l 0.44993, -0.00434042l 0.44993, -0.00451902l 0.44993, -0.00469762l
 0.44993, -0.00487622l 0.44993, -0.00505481l 0.44993, -0.00523341l 0.44993, -0.00541201l 0.44993, -0.00559061l 0.44993, -0.00576921l 0.44993, -0.00594781l 0.44993, -0.0061264l 0.44993, -0.006305l 0.44993, -0.0064836l 0.44993, -0.0066622l 0.44993,
 -0.0068408l 0.44993, -0.0070194l 0.44993, -0.00719799l 0.44993, -0.00737659l 0.44993, -0.00755519l 0.44993, -0.00773379" fill="none" stroke="#ff0066" stroke-width="3"/>
<path d="M186.938,372.642l 0.44993, -0.00791239l 0.44993, -0.00809098l 0.44993, -0.00826958l 0.44993, -0.00844818l 0.44993, -0.00862678l 0.44993, -0.00880538l 0.44993, -0.00898398l 0.44993, -0.00916257l 0.44993, -0.00934117l 0.44993, -0.00951977l
 0.44993, -0.00969837l 0.44993, -0.00987697l 0.44993, -0.0100556l 0.44993, -0.0102342l 0.44993, -0.0104128l 0.44993, -0.0105914l 0.44993, -0.01077l 0.44993, -0.0109486l 0.44993, -0.0111272l 0.44993, -0.0113058l 0.44993, -0.0114844l 0.44993,
 -0.0116629l 0.44993, -0.0118415l 0.44993, -0.0120201l 0.44993, -0.0121987l 0.44993, -0.0123773l 0.44993, -0.0125559l 0.44993, -0.0127345l 0.44993, -0.0129131l 0.44993, -0.0130917l 0.44993, -0.0132703l 0.44993, -0.0134489l 0.44993, -0.0136275l
 0.44993, -0.0138061l 0.44993, -0.0139847l 0.44993, -0.0141633l 0.44993, -0.0143419l 0.44993, -0.0145205l 0.44993, -0.0146991l 0.44993, -0.0148777l 0.44993, -0.0150563l 0.44993, -0.0152349l 0.44993, -0.0154135l 0.44993, -0.0155921l 0.44993,
 -0.0157707l 0.44993, -0.0159493l 0.44993, -0.0161279l 0.44993, -0.0163065l 0.44993, -0.0164851" fill="none" stroke="#ff0066" stroke-width="3"/>
<path d="M208.985,372.044l 0.44993, -0.0166637l 0.44993, -0.0168423l 0.44993, -0.0170209l 0.44993, -0.0171995l 0.44993, -0.0173781l 0.44993, -0.0175567l 0.44993, -0.0177353l 0.44993, -0.0179139l 0.44993, -0.0180925l 0.44993, -0.0182711l 0.44993,
 -0.0184497l 0.44993, -0.0186283l 0.44993, -0.0188069l 0.44993, -0.0189855l 0.44993, -0.0191641l 0.44993, -0.0193427l 0.44993, -0.0195213l 0.44993, -0.0196999l 0.44993, -0.0198785l 0.44993, -0.0200571l 0.44993, -0.0202357l 0.44993, -0.0204143l
 0.44993, -0.0205929l 0.44993, -0.0207715l 0.44993, -0.0209501l 0.44993, -0.0211287l 0.44993, -0.0213073l 0.44993, -0.0214859l 0.44993, -0.0216644l 0.44993, -0.021843l 0.44993, -0.0220216l 0.44993, -0.0222002l 0.44993, -0.0223788l 0.44993,
 -0.0225574l 0.44993, -0.022736l 0.44993, -0.0229146l 0.44993, -0.0230932l 0.44993, -0.0232718l 0.44993, -0.0234504l 0.44993, -0.023629l 0.44993, -0.0238076l 0.44993, -0.0239862l 0.44993, -0.0241648l 0.44993, -0.0243434l 0.44993, -0.024522l 0.44993,
 -0.0247006l 0.44993, -0.0248792l 0.44993, -0.0250578l 0.44993, -0.0252364" fill="none" stroke="#ff0066" stroke-width="3"/>
<path d="M231.031,371.017l 0.44993, -0.025415l 0.44993, -0.0255936l 0.44993, -0.0257722l 0.44993, -0.0259508l 0.44993, -0.0261294l 0.44993, -0.026308l 0.44993, -0.0264866l 0.44993, -0.0266652l 0.44993, -0.0268438l 0.44993, -0.0270224l 0.44993,
 -0.027201l 0.44993, -0.0273796l 0.44993, -0.0275582l 0.44993, -0.0277368l 0.44993, -0.0279154l 0.44993, -0.028094l 0.44993, -0.0282726l 0.44993, -0.0284512l 0.44993, -0.0286298l 0.44993, -0.0288084l 0.44993, -0.028987l 0.44993, -0.0291656l 0.44993,
 -0.0293442l 0.44993, -0.0295228l 0.44993, -0.0297014l 0.44993, -0.02988l 0.44993, -0.0300586l 0.44993, -0.0302372l 0.44993, -0.0304158l 0.44993, -0.0305944l 0.44993, -0.030773l 0.44993, -0.0309516l 0.44993, -0.0311302l 0.44993, -0.0313088l 0.44993,
 -0.0314873l 0.44993, -0.0316659l 0.44993, -0.0318445l 0.44993, -0.0320231l 0.44993, -0.0322017l 0.44993, -0.0323803l 0.44993, -0.0325589l 0.44993, -0.0327375l 0.44993, -0.0329161l 0.44993, -0.0330947l 0.44993, -0.0332733l 0.44993, -0.0334519l
 0.44993, -0.0336305l 0.44993, -0.0338091l 0.44993, -0.0339877" fill="none" stroke="#ff0066" stroke-width="3"/>
<path d="M253.078,369.562l 0.44993, -0.0341663l 0.44993, -0.0343449l 0.44993, -0.0345235l 0.44993, -0.0347021l 0.44993, -0.0348807l 0.44993, -0.0350593l 0.44993, -0.0352379l 0.44993, -0.0354165l 0.44993, -0.0355951l 0.44993, -0.0357737l 0.44993,
 -0.0359523l 0.44993, -0.0361309l 0.44993, -0.0363095l 0.44993, -0.0364881l 0.44993, -0.0366667l 0.44993, -0.0368453l 0.44993, -0.0370239l 0.44993, -0.0372025l 0.44993, -0.0373811l 0.44993, -0.0375597l 0.44993, -0.0377383l 0.44993, -0.0379169l
 0.44993, -0.0380955l 0.44993, -0.0382741l 0.44993, -0.0384527l 0.44993, -0.0386313l 0.44993, -0.0388099l 0.44993, -0.0389885l 0.44993, -0.0391671l 0.44993, -0.0393457l 0.44993, -0.0395243l 0.44993, -0.0397029l 0.44993, -0.0398815l 0.44993,
 -0.0400601l 0.44993, -0.0402387l 0.44993, -0.0404173l 0.44993, -0.0405959l 0.44993, -0.0407745l 0.44993, -0.0409531l 0.44993, -0.0411317l 0.44993, -0.0413103l 0.44993, -0.0414888l 0.44993, -0.0416674l 0.44993, -0.041846l 0.44993, -0.0420246l
 0.44993, -0.0422032l 0.44993, -0.0423818l 0.44993, -0.0425604l 0.44993, -0.042739" fill="none" stroke="#ff0066" stroke-width="3"/>
<path d="M275.124,367.678l 0.44993, -0.0429176l 0.44993, -0.0430962l 0.44993, -0.0432748l 0.44993, -0.0434534l 0.44993, -0.043632l 0.44993, -0.0438106l 0.44993, -0.0439892l 0.44993, -0.0441678l 0.44993, -0.0443464l 0.44993, -0.044525l 0.44993,
 -0.0447036l 0.44993, -0.0448822l 0.44993, -0.0450608l 0.44993, -0.0452394l 0.44993, -0.045418l 0.44993, -0.0455966l 0.44993, -0.0457752l 0.44993, -0.0459538l 0.44993, -0.0461324l 0.44993, -0.046311l 0.44993, -0.0464896l 0.44993, -0.0466682l 0.44993,
 -0.0468468l 0.44993, -0.0470254l 0.44993, -0.047204l 0.44993, -0.0473826l 0.44993, -0.0475612l 0.44993, -0.0477398l 0.44993, -0.0479184l 0.44993, -0.048097l 0.44993, -0.0482756l 0.44993, -0.0484542l 0.44993, -0.0486328l 0.44993, -0.0488114l 0.44993,
 -0.04899l 0.44993, -0.0491686l 0.44993, -0.0493472l 0.44993, -0.0495258l 0.44993, -0.0497044l 0.44993, -0.049883l 0.44993, -0.0500616l 0.44993, -0.0502402l 0.44993, -0.0504188l 0.44993, -0.0505974l 0.44993, -0.050776l 0.44993, -0.0509546l 0.44993,
 -0.0511332l 0.44993, -0.0513117l 0.44993, -0.0514903" fill="none" stroke="#ff0066" stroke-width="3"/>
<path d="M297.171,365.365l 0.44993, -0.0516689l 0.44993, -0.0518475l 0.44993, -0.0520261l 0.44993, -0.0522047l 0.44993, -0.0523833l 0.44993, -0.0525619l 0.44993, -0.0527405l 0.44993, -0.0529191l 0.44993, -0.0530977l 0.44993, -0.0532763l 0.44993,
 -0.0534549l 0.44993, -0.0536335l 0.44993, -0.0538121l 0.44993, -0.0539907l 0.44993, -0.0541693l 0.44993, -0.0543479l 0.44993, -0.0545265l 0.44993, -0.0547051l 0.44993, -0.0548837l 0.44993, -0.0550623l 0.44993, -0.0552409l 0.44993, -0.0554195l
 0.44993, -0.0555981l 0.44993, -0.0557767l 0.44993, -0.0559553l 0.44993, -0.0561339l 0.44993, -0.0563125l 0.44993, -0.0564911l 0.44993, -0.0566697l 0.44993, -0.0568483l 0.44993, -0.0570269l 0.44993, -0.0572055l 0.44993, -0.0573841l 0.44993,
 -0.0575627l 0.44993, -0.0577413l 0.44993, -0.0579199l 0.44993, -0.0580985l 0.44993, -0.0582771l 0.44993, -0.0584557l 0.44993, -0.0586343l 0.44993, -0.0588129l 0.44993, -0.0589915l 0.44993, -0.0591701l 0.44993, -0.0593487l 0.44993, -0.0595273l
 0.44993, -0.0597059l 0.44993, -0.0598845l 0.44993, -0.0600631l 0.44993, -0.0602417" fill="none" stroke="#ff0066" stroke-width="3"/>
<path d="M319.217,362.623l 0.44993, -0.0604203l 0.44993, -0.0605989l 0.44993, -0.0607775l 0.44993, -0.0609561l 0.44993, -0.0611347l 0.44993, -0.0613132l 0.44993, -0.0614918l 0.44993, -0.0616704l 0.44993, -0.061849l 0.44993, -0.0620276l 0.44993,
 -0.0622062l 0.44993, -0.0623848l 0.44993, -0.0625634l 0.44993, -0.062742l 0.44993, -0.0629206l 0.44993, -0.0630992l 0.44993, -0.0632778l 0.44993, -0.0634564l 0.44993, -0.063635l 0.44993, -0.0638136l 0.44993, -0.0639922l 0.44993, -0.0641708l 0.44993,
 -0.0643494l 0.44993, -0.064528l 0.44993, -0.0647066l 0.44993, -0.0648852l 0.44993, -0.0650638l 0.44993, -0.0652424l 0.44993, -0.065421l 0.44993, -0.0655996l 0.44993, -0.0657782l 0.44993, -0.0659568l 0.44993, -0.0661354l 0.44993, -0.066314l 0.44993,
 -0.0664926l 0.44993, -0.0666712l 0.44993, -0.0668498l 0.44993, -0.0670284l 0.44993, -0.067207l 0.44993, -0.0673856l 0.44993, -0.0675642l 0.44993, -0.0677428l 0.44993, -0.0679214l 0.44993, -0.0681l 0.44993, -0.0682786l 0.44993, -0.0684572l 0.44993,
 -0.0686358l 0.44993, -0.0688144l 0.44993, -0.068993" fill="none" stroke="#ff0066" stroke-width="3"/>
<path d="M341.264,359.452l 0.44993, -0.0691716l 0.44993, -0.0693502l 0.44993, -0.0695288l 0.44993, -0.0697074l 0.44993, -0.069886l 0.44993, -0.0700646l 0.44993, -0.0702432l 0.44993, -0.0704218l 0.44993, -0.0706004l 0.44993, -0.070779l 0.44993,
 -0.0709576l 0.44993, -0.0711362l 0.44993, -0.0713148l 0.44993, -0.0714933l 0.44993, -0.0716719l 0.44993, -0.0718505l 0.44993, -0.0720291l 0.44993, -0.0722077l 0.44993, -0.0723863l 0.44993, -0.0725649l 0.44993, -0.0727435l 0.44993, -0.0729221l
 0.44993, -0.0731007l 0.44993, -0.0732793l 0.44993, -0.0734579l 0.44993, -0.0736365l 0.44993, -0.0738151l 0.44993, -0.0739937l 0.44993, -0.0741723l 0.44993, -0.0743509l 0.44993, -0.0745295l 0.44993, -0.0747081l 0.44993, -0.0748867l 0.44993,
 -0.0750653l 0.44993, -0.0752439l 0.44993, -0.0754225l 0.44993, -0.0756011l 0.44993, -0.0757797l 0.44993, -0.0759583l 0.44993, -0.0761369l 0.44993, -0.0763155l 0.44993, -0.0764941l 0.44993, -0.0766727l 0.44993, -0.0768513l 0.44993, -0.0770299l
 0.44993, -0.0772085l 0.44993, -0.0773871l 0.44993, -0.0775657l 0.44993, -0.0777443" fill="none" stroke="#ff0066" stroke-width="3"/>
<path d="M363.311,355.853l 0.44993, -0.0779229l 0.44993, -0.0781015l 0.44993, -0.0782801l 0.44993, -0.0784587l 0.44993, -0.0786373l 0.44993, -0.0788159l 0.44993, -0.0789945l 0.44993, -0.0791731l 0.44993, -0.0793517l 0.44993, -0.0795303l 0.44993,
 -0.0797089l 0.44993, -0.0798875l 0.44993, -0.0800661l 0.44993, -0.0802447l 0.44993, -0.0804233l 0.44993, -0.0806019l 0.44993, -0.0807805l 0.44993, -0.0809591l 0.44993, -0.0811376l 0.44993, -0.0813162l 0.44993, -0.0814948l 0.44993, -0.0816734l
 0.44993, -0.081852l 0.44993, -0.0820306l 0.44993, -0.0822092l 0.44993, -0.0823878l 0.44993, -0.0825664l 0.44993, -0.082745l 0.44993, -0.0829236l 0.44993, -0.0831022l 0.44993, -0.0832808l 0.44993, -0.0834594l 0.44993, -0.083638l 0.44993, -0.0838166l
 0.44993, -0.0839952l 0.44993, -0.0841738l 0.44993, -0.0843524l 0.44993, -0.084531l 0.44993, -0.0847096l 0.44993, -0.0848882l 0.44993, -0.0850668l 0.44993, -0.0852454l 0.44993, -0.085424l 0.44993, -0.0856026l 0.44993, -0.0857812l 0.44993, -0.0859598l
 0.44993, -0.0861384l 0.44993, -0.086317l 0.44993, -0.0864956" fill="none" stroke="#ff0066" stroke-width="3"/>
<path d="M385.357,351.825l 0.44993, -0.0866742l 0.44993, -0.0868528l 0.44993, -0.0870314l 0.44993, -0.08721l 0.44993, -0.0873886l 0.44993, -0.0875672l 0.44993, -0.0877458l 0.44993, -0.0879244l 0.44993, -0.088103l 0.44993, -0.0882816l 0.44993,
 -0.0884602l 0.44993, -0.0886388l 0.44993, -0.0888174l 0.44993, -0.088996l 0.44993, -0.0891746l 0.44993, -0.0893532l 0.44993, -0.0895318l 0.44993, -0.0897104l 0.44993, -0.089889l 0.44993, -0.0900676l 0.44993, -0.0902462l 0.44993, -0.0904248l 0.44993,
 -0.0906034l 0.44993, -0.090782l 0.44993, -0.0909606l 0.44993, -0.0911392l 0.44993, -0.0913178l 0.44993, -0.0914963l 0.44993, -0.0916749l 0.44993, -0.0918535l 0.44993, -0.0920321l 0.44993, -0.0922107l 0.44993, -0.0923893l 0.44993, -0.0925679l
 0.44993, -0.0927465l 0.44993, -0.0929251l 0.44993, -0.0931037l 0.44993, -0.0932823l 0.44993, -0.0934609l 0.44993, -0.0936395l 0.44993, -0.0938181l 0.44993, -0.0939967l 0.44993, -0.0941753l 0.44993, -0.0943539l 0.44993, -0.0945325l 0.44993,
 -0.0947111l 0.44993, -0.0948897l 0.44993, -0.0950683l 0.44993, -0.0952469" fill="none" stroke="#ff0066" stroke-width="3"/>
<path d="M407.404,347.368l 0.44993, -0.0954255l 0.44993, -0.0956041l 0.44993, -0.0957827l 0.44993, -0.0959613l 0.44993, -0.0961399l 0.44993, -0.0963185l 0.44993, -0.0964971l 0.44993, -0.0966757l 0.44993, -0.0968543l 0.44993, -0.0970329l 0.44993,
 -0.0972115l 0.44993, -0.0973901l 0.44993, -0.0975687l 0.44993, -0.0977473l 0.44993, -0.0979259l 0.44993, -0.0981045l 0.44993, -0.0982831l 0.44993, -0.0984617l 0.44993, -0.0986403l 0.44993, -0.0988189l 0.44993, -0.0989975l 0.44993, -0.0991761l
 0.44993, -0.0993547l 0.44993, -0.0995333l 0.44993, -0.0997119l 0.44993, -0.0998905l 0.44993, -0.100069l 0.44993, -0.100248l 0.44993, -0.100426l 0.44993, -0.100605l 0.44993, -0.100783l 0.44993, -0.100962l 0.44993, -0.101141l 0.44993, -0.101319l
 0.44993, -0.101498l 0.44993, -0.101676l 0.44993, -0.101855l 0.44993, -0.102034l 0.44993, -0.102212l 0.44993, -0.102391l 0.44993, -0.102569l 0.44993, -0.102748l 0.44993, -0.102927l 0.44993, -0.103105l 0.44993, -0.103284l 0.44993, -0.103462l 0.44993,
 -0.103641l 0.44993, -0.10382l 0.44993, -0.103998" fill="none" stroke="#ff0066" stroke-width="3"/>
<path d="M429.45,342.482l 0.44993, -0.104177l 0.44993, -0.104355l 0.44993, -0.104534l 0.44993, -0.104713l 0.44993, -0.104891l 0.44993, -0.10507l 0.44993, -0.105248l 0.44993, -0.105427l 0.44993, -0.105606l 0.44993, -0.105784l 0.44993, -0.105963l
 0.44993, -0.106141l 0.44993, -0.10632l 0.44993, -0.106499l 0.44993, -0.106677l 0.44993, -0.106856l 0.44993, -0.107034l 0.44993, -0.107213l 0.44993, -0.107392l 0.44993, -0.10757l 0.44993, -0.107749l 0.44993, -0.107927l 0.44993, -0.108106l 0.44993,
 -0.108285l 0.44993, -0.108463l 0.44993, -0.108642l 0.44993, -0.10882l 0.44993, -0.108999l 0.44993, -0.109178l 0.44993, -0.109356l 0.44993, -0.109535l 0.44993, -0.109713l 0.44993, -0.109892l 0.44993, -0.110071l 0.44993, -0.110249l 0.44993, -0.110428l
 0.44993, -0.110606l 0.44993, -0.110785l 0.44993, -0.110964l 0.44993, -0.111142l 0.44993, -0.111321l 0.44993, -0.111499l 0.44993, -0.111678l 0.44993, -0.111857l 0.44993, -0.112035l 0.44993, -0.112214l 0.44993, -0.112392l 0.44993, -0.112571l 0.44993,
 -0.11275" fill="none" stroke="#ff0066" stroke-width="3"/>
<path d="M451.497,337.167l 0.44993, -0.112928l 0.44993, -0.113107l 0.44993, -0.113285l 0.44993, -0.113464l 0.44993, -0.113643l 0.44993, -0.113821l 0.44993, -0.114l 0.44993, -0.114178l 0.44993, -0.114357l 0.44993, -0.114536l 0.44993, -0.114714l
 0.44993, -0.114893l 0.44993, -0.115071l 0.44993, -0.11525l 0.44993, -0.115429l 0.44993, -0.115607l 0.44993, -0.115786l 0.44993, -0.115964l 0.44993, -0.116143l 0.44993, -0.116321l 0.44993, -0.1165l 0.44993, -0.116679l 0.44993, -0.116857l 0.44993,
 -0.117036l 0.44993, -0.117214l 0.44993, -0.117393l 0.44993, -0.117572l 0.44993, -0.11775l 0.44993, -0.117929l 0.44993, -0.118107l 0.44993, -0.118286l 0.44993, -0.118465l 0.44993, -0.118643l 0.44993, -0.118822l 0.44993, -0.119l 0.44993, -0.119179l
 0.44993, -0.119358l 0.44993, -0.119536l 0.44993, -0.119715l 0.44993, -0.119893l 0.44993, -0.120072l 0.44993, -0.120251l 0.44993, -0.120429l 0.44993, -0.120608l 0.44993, -0.120786l 0.44993, -0.120965l 0.44993, -0.121144l 0.44993, -0.121322l 0.44993,
 -0.121501" fill="none" stroke="#ff0066" stroke-width="3"/>
<path d="M473.543,331.424l 0.44993, -0.121679l 0.44993, -0.121858l 0.44993, -0.122037l 0.44993, -0.122215l 0.44993, -0.122394l 0.44993, -0.122572l 0.44993, -0.122751l 0.44993, -0.12293l 0.44993, -0.123108l 0.44993, -0.123287l 0.44993, -0.123465l
 0.44993, -0.123644l 0.44993, -0.123823l 0.44993, -0.124001l 0.44993, -0.12418l 0.44993, -0.124358l 0.44993, -0.124537l 0.44993, -0.124716l 0.44993, -0.124894l 0.44993, -0.125073l 0.44993, -0.125251l 0.44993, -0.12543l 0.44993, -0.125609l 0.44993,
 -0.125787l 0.44993, -0.125966l 0.44993, -0.126144l 0.44993, -0.126323l 0.44993, -0.126502l 0.44993, -0.12668l 0.44993, -0.126859l 0.44993, -0.127037l 0.44993, -0.127216l 0.44993, -0.127395l 0.44993, -0.127573l 0.44993, -0.127752l 0.44993, -0.12793l
 0.44993, -0.128109l 0.44993, -0.128288l 0.44993, -0.128466l 0.44993, -0.128645l 0.44993, -0.128823l 0.44993, -0.129002l 0.44993, -0.129181l 0.44993, -0.129359l 0.44993, -0.129538l 0.44993, -0.129716l 0.44993, -0.129895l 0.44993, -0.130074l 0.44993,
 -0.130252" fill="none" stroke="#ff0066" stroke-width="3"/>
<path d="M495.59,325.251l 0.44993, -0.130431l 0.44993, -0.130609l 0.44993, -0.130788l 0.44993, -0.130967l 0.44993, -0.131145l 0.44993, -0.131324l 0.44993, -0.131502l 0.44993, -0.131681l 0.44993, -0.13186l 0.44993, -0.132038l 0.44993, -0.132217l
 0.44993, -0.132395l 0.44993, -0.132574l 0.44993, -0.132753l 0.44993, -0.132931l 0.44993, -0.13311l 0.44993, -0.133288l 0.44993, -0.133467l 0.44993, -0.133646l 0.44993, -0.133824l 0.44993, -0.134003l 0.44993, -0.134181l 0.44993, -0.13436l 0.44993,
 -0.134539l 0.44993, -0.134717l 0.44993, -0.134896l 0.44993, -0.135074l 0.44993, -0.135253l 0.44993, -0.135432l 0.44993, -0.13561l 0.44993, -0.135789l 0.44993, -0.135967l 0.44993, -0.136146l 0.44993, -0.136324l 0.44993, -0.136503l 0.44993, -0.136682l
 0.44993, -0.13686l 0.44993, -0.137039l 0.44993, -0.137217l 0.44993, -0.137396l 0.44993, -0.137575l 0.44993, -0.137753l 0.44993, -0.137932l 0.44993, -0.13811l 0.44993, -0.138289l 0.44993, -0.138468l 0.44993, -0.138646l 0.44993, -0.138825l 0.44993,
 -0.139003" fill="none" stroke="#ff0066" stroke-width="3"/>
<path d="M517.636,318.65l 0.44993, -0.139182l 0.44993, -0.139361l 0.44993, -0.139539l 0.44993, -0.139718l 0.44993, -0.139896l 0.44993, -0.140075l 0.44993, -0.140254l 0.44993, -0.140432l 0.44993, -0.140611l 0.44993, -0.140789l 0.44993, -0.140968l
 0.44993, -0.141147l 0.44993, -0.141325l 0.44993, -0.141504l 0.44993, -0.141682l 0.44993, -0.141861l 0.44993, -0.14204l 0.44993, -0.142218l 0.44993, -0.142397l 0.44993, -0.142575l 0.44993, -0.142754l 0.44993, -0.142933l 0.44993, -0.143111l 0.44993,
 -0.14329l 0.44993, -0.143468l 0.44993, -0.143647l 0.44993, -0.143826l 0.44993, -0.144004l 0.44993, -0.144183l 0.44993, -0.144361l 0.44993, -0.14454l 0.44993, -0.144719l 0.44993, -0.144897l 0.44993, -0.145076l 0.44993, -0.145254l 0.44993, -0.145433l
 0.44993, -0.145612l 0.44993, -0.14579l 0.44993, -0.145969l 0.44993, -0.146147l 0.44993, -0.146326l 0.44993, -0.146505l 0.44993, -0.146683l 0.44993, -0.146862l 0.44993, -0.14704l 0.44993, -0.147219l 0.44993, -0.147398l 0.44993, -0.147576l 0.44993,
 -0.147755" fill="none" stroke="#ff0066" stroke-width="3"/>
<path d="M539.683,311.62l 0.44993, -0.147933l 0.44993, -0.148112l 0.44993, -0.148291l 0.44993, -0.148469l 0.44993, -0.148648l 0.44993, -0.148826l 0.44993, -0.149005l 0.44993, -0.149184l 0.44993, -0.149362l 0.44993, -0.149541l 0.44993, -0.149719l
 0.44993, -0.149898l 0.44993, -0.150077l 0.44993, -0.150255l 0.44993, -0.150434l 0.44993, -0.150612l 0.44993, -0.150791l 0.44993, -0.15097l 0.44993, -0.151148" fill="none" stroke="#ff0066" stroke-width="3"/>
<path d="M188.513,21.4167h 299.953" fill="none" stroke="#999999" stroke-width="7"/>
<text xml:space="preserve" x="360.607" y="50.7193" fill="black" font-size="16.0105" font-family="Helvetica"> with EMC</text>
<text xml:space="preserve" x="352.717" y="50.7193" fill="black" font-size="16.0105" font-family="Times">&#0947;</text>
<text xml:space="preserve" x="344.828" y="50.7193" fill="black" font-size="16.0105" font-family="Times">&#0947;</text>
<text xml:space="preserve" x="336.938" y="50.7193" fill="black" font-size="16.0105" font-family="Times">&#0947;</text>
<text xml:space="preserve" x="331.866" y="50.7193" fill="black" font-size="16.0105" font-family="Helvetica"> </text>
<text xml:space="preserve" x="316.65" y="50.7193" fill="black" font-size="16.0105" font-family="Times">&#8594;</text>
<text xml:space="preserve" x="311.578" y="50.7193" fill="black" font-size="16.0105" font-family="Helvetica"> </text>
<text xml:space="preserve" x="303.689" y="50.7193" fill="black" font-size="16.0105" font-family="Times">&#0947;</text>
<text xml:space="preserve" x="298.053" y="45.0838" fill="black" font-size="10.8403" font-family="Helvetica">0</text>
<text xml:space="preserve" x="289.6" y="50.7193" fill="black" font-size="16.0105" font-family="Times">&#0960;</text>
<text xml:space="preserve" x="284.528" y="50.7193" fill="black" font-size="16.0105" font-family="Helvetica"> </text>
<text xml:space="preserve" x="269.312" y="50.7193" fill="black" font-size="16.0105" font-family="Times">&#8594;</text>
<text xml:space="preserve" x="264.24" y="50.7193" fill="black" font-size="16.0105" font-family="Helvetica"> </text>
<text xml:space="preserve" x="252.969" y="50.7193" fill="black" font-size="16.0105" font-family="Times">&#0969;</text>
<text xml:space="preserve" x="128.989" y="50.7193" fill="black" font-size="16.0105" font-family="Helvetica"> = 13 TeV (EG1), </text>
<text xml:space="preserve" x="120.536" y="50.7193" fill="black" font-size="16.0105" font-family="Helvetica" font-style="oblique">s</text>
<path d="M114.9,41.7025l 1.69064, 9.58031" fill="none" stroke="black" stroke-width="2"/>
<path d="M116.591,51.2829l 2.25419, -14.0887" fill="none" stroke="black"/>
<path d="M118.845,37.1942h 10.1439" fill="none" stroke="black"/>
<text xml:space="preserve" x="89.5406" y="50.7193" fill="black" font-size="16.0105" font-family="Helvetica">pp </text>
<text xml:space="preserve" x="89.5406" y="85.6593" fill="black" font-size="16.0105" font-family="Helvetica">ALICE work in progress</text>
<text xml:space="preserve" x="205.068" y="120.599" fill="black" font-size="16.0105" font-family="Helvetica">) &lt; 10.0</text>
<text xml:space="preserve" x="196.051" y="120.599" fill="black" font-size="16.0105" font-family="Helvetica" font-style="oblique">c</text>
<text xml:space="preserve" x="145.895" y="120.599" fill="black" font-size="16.0105" font-family="Helvetica"> /(GeV/</text>
<text xml:space="preserve" x="139.133" y="128.489" fill="black" font-size="10.8403" font-family="Helvetica">T</text>
<text xml:space="preserve" x="129.552" y="120.599" fill="black" font-size="16.0105" font-family="Helvetica" font-style="oblique">p</text>
<text xml:space="preserve" x="124.481" y="120.599" fill="black" font-size="16.0105" font-family="Helvetica"> </text>
<text xml:space="preserve" x="116.027" y="120.599" fill="black" font-size="16.0105" font-family="Times">&#8804;</text>
<text xml:space="preserve" x="89.5406" y="120.599" fill="black" font-size="16.0105" font-family="Helvetica">8.0 </text>
<rect x="312.311" y="69.1755" width="198.425" height="113.448" fill="white"/>
<text xml:space="preserve" x="361.734" y="85.0957" fill="black" font-size="16.0105" font-family="Helvetica">ratio</text>
<path d="M319.752,80.5203h 34.7244" fill="none" stroke="black" stroke-width="2"/>
<g fill="black">
<circle cx="337.114" cy="80.5203" r="6.76257"/>
</g>
<text xml:space="preserve" x="361.734" y="108.201" fill="black" font-size="16.0105" font-family="Helvetica">peak range</text>
<path d="M319.752,103.21h 34.7244" fill="none" stroke="#333333" stroke-width="2"/>
<g stroke="#333333" stroke-width="2" fill="none">
<circle cx="337.114" cy="103.21" r="5.63548"/>
</g>
<text xml:space="preserve" x="361.734" y="130.743" fill="black" font-size="16.0105" font-family="Helvetica">background pol1</text>
<path d="M319.752,125.899h 34.7244" fill="none" stroke="#33cccc" stroke-width="3"/>
<text xml:space="preserve" x="361.734" y="153.285" fill="black" font-size="16.0105" font-family="Helvetica">background pol2</text>
<path d="M319.752,148.589h 34.7244" fill="none" stroke="#ff0066" stroke-width="3"/>
<text xml:space="preserve" x="361.734" y="175.827" fill="black" font-size="16.0105" font-family="Helvetica">param. range</text>
<path d="M319.752,171.279h 34.7244" fill="none" stroke="#999999" stroke-width="7"/></svg>
