<?xml version="1.0" standalone="no"?>
<svg width="567.429" height="553.904" viewBox="0 0 567.429 553.904" xmlns="http://www.w3.org/2000/svg" shape-rendering="crispEdges">
<title>
Data/EG1/OmegaTGPSPlusPSNCell/SameEventToBackgroundRatio_11.svg
</title>
<desc>
Creator: ROOT Version 6.20/08
CreationDate: Mon Mar 29 21:31:18 2021</desc>
<defs>
</defs>
<rect x="0.5" y="0" width="566.929" height="553.404" fill="white"/>
<rect x="68.5315" y="16.6021" width="484.724" height="481.461" fill="white"/>
<rect x="68.5315" y="16.6021" width="484.724" height="481.461" fill="none" stroke="black"/>
<rect x="68.5315" y="16.6021" width="484.724" height="481.461" fill="white"/>
<rect x="68.5315" y="16.6021" width="484.724" height="481.461" fill="none" stroke="black"/>
<g fill="black">
<circle cx="114.124" cy="487.578" r="6.76257"/>
</g>
<g fill="black">
<circle cx="118.924" cy="461.449" r="6.76257"/>
</g>
<g fill="black">
<circle cx="123.723" cy="477.966" r="6.76257"/>
</g>
<g fill="black">
<circle cx="128.522" cy="482.645" r="6.76257"/>
</g>
<g fill="black">
<circle cx="133.321" cy="483.889" r="6.76257"/>
</g>
<g fill="black">
<circle cx="138.121" cy="483.482" r="6.76257"/>
</g>
<g fill="black">
<circle cx="142.92" cy="474.339" r="6.76257"/>
</g>
<g fill="black">
<circle cx="147.719" cy="422.969" r="6.76257"/>
</g>
<g fill="black">
<circle cx="152.518" cy="370.843" r="6.76257"/>
</g>
<g fill="black">
<circle cx="157.318" cy="361.133" r="6.76257"/>
</g>
<g fill="black">
<circle cx="162.117" cy="350.892" r="6.76257"/>
</g>
<g fill="black">
<circle cx="166.916" cy="347.066" r="6.76257"/>
</g>
<g fill="black">
<circle cx="171.715" cy="334.766" r="6.76257"/>
</g>
<g fill="black">
<circle cx="176.515" cy="325.386" r="6.76257"/>
</g>
<g fill="black">
<circle cx="181.314" cy="315.366" r="6.76257"/>
</g>
<g fill="black">
<circle cx="186.113" cy="308.526" r="6.76257"/>
</g>
<g fill="black">
<circle cx="190.912" cy="300.88" r="6.76257"/>
</g>
<g fill="black">
<circle cx="195.712" cy="293.946" r="6.76257"/>
</g>
<g fill="black">
<circle cx="200.511" cy="289.349" r="6.76257"/>
</g>
<g fill="black">
<circle cx="205.31" cy="282.519" r="6.76257"/>
</g>
<g fill="black">
<circle cx="210.109" cy="285.166" r="6.76257"/>
</g>
<g fill="black">
<circle cx="214.909" cy="283.897" r="6.76257"/>
</g>
<g fill="black">
<circle cx="219.708" cy="284.074" r="6.76257"/>
</g>
<g fill="black">
<circle cx="224.507" cy="279.214" r="6.76257"/>
</g>
<g fill="black">
<circle cx="229.306" cy="278.283" r="6.76257"/>
</g>
<g fill="black">
<circle cx="234.106" cy="280.146" r="6.76257"/>
</g>
<g fill="black">
<circle cx="238.905" cy="268.793" r="6.76257"/>
</g>
<g fill="black">
<circle cx="243.704" cy="269.925" r="6.76257"/>
</g>
<g fill="black">
<circle cx="248.503" cy="267.321" r="6.76257"/>
</g>
<g fill="black">
<circle cx="253.303" cy="261.987" r="6.76257"/>
</g>
<g fill="black">
<circle cx="258.102" cy="260.749" r="6.76257"/>
</g>
<g fill="black">
<circle cx="262.901" cy="261.962" r="6.76257"/>
</g>
<g fill="black">
<circle cx="267.7" cy="259.537" r="6.76257"/>
</g>
<g fill="black">
<circle cx="272.5" cy="259.596" r="6.76257"/>
</g>
<g fill="black">
<circle cx="277.299" cy="254.472" r="6.76257"/>
</g>
<g fill="black">
<circle cx="339.689" cy="227.002" r="6.76257"/>
</g>
<g fill="black">
<circle cx="344.488" cy="237.382" r="6.76257"/>
</g>
<g fill="black">
<circle cx="349.288" cy="227.438" r="6.76257"/>
</g>
<g fill="black">
<circle cx="354.087" cy="228.134" r="6.76257"/>
</g>
<g fill="black">
<circle cx="358.886" cy="229.379" r="6.76257"/>
</g>
<g fill="black">
<circle cx="363.685" cy="227.575" r="6.76257"/>
</g>
<g fill="black">
<circle cx="368.485" cy="228.782" r="6.76257"/>
</g>
<g fill="black">
<circle cx="373.284" cy="232.908" r="6.76257"/>
</g>
<g fill="black">
<circle cx="378.083" cy="228.012" r="6.76257"/>
</g>
<g fill="black">
<circle cx="382.882" cy="226.858" r="6.76257"/>
</g>
<g fill="black">
<circle cx="387.682" cy="225.556" r="6.76257"/>
</g>
<g fill="black">
<circle cx="392.481" cy="225.509" r="6.76257"/>
</g>
<g fill="black">
<circle cx="397.28" cy="225.973" r="6.76257"/>
</g>
<g fill="black">
<circle cx="402.079" cy="223.219" r="6.76257"/>
</g>
<g fill="black">
<circle cx="406.879" cy="224" r="6.76257"/>
</g>
<g fill="black">
<circle cx="411.678" cy="219.179" r="6.76257"/>
</g>
<g fill="black">
<circle cx="416.477" cy="214.8" r="6.76257"/>
</g>
<g fill="black">
<circle cx="421.276" cy="216.623" r="6.76257"/>
</g>
<g fill="black">
<circle cx="426.076" cy="211.98" r="6.76257"/>
</g>
<g fill="black">
<circle cx="430.875" cy="210.549" r="6.76257"/>
</g>
<g fill="black">
<circle cx="435.674" cy="219.075" r="6.76257"/>
</g>
<g fill="black">
<circle cx="440.473" cy="214.978" r="6.76257"/>
</g>
<g fill="black">
<circle cx="445.273" cy="211.849" r="6.76257"/>
</g>
<g fill="black">
<circle cx="450.072" cy="209.494" r="6.76257"/>
</g>
<g fill="black">
<circle cx="454.871" cy="203.849" r="6.76257"/>
</g>
<g fill="black">
<circle cx="459.671" cy="209.162" r="6.76257"/>
</g>
<g fill="black">
<circle cx="464.47" cy="206.954" r="6.76257"/>
</g>
<g fill="black">
<circle cx="469.269" cy="212.62" r="6.76257"/>
</g>
<g fill="black">
<circle cx="474.068" cy="205.456" r="6.76257"/>
</g>
<g fill="black">
<circle cx="478.867" cy="213.442" r="6.76257"/>
</g>
<g fill="black">
<circle cx="483.667" cy="210.556" r="6.76257"/>
</g>
<g fill="black">
<circle cx="488.466" cy="201.346" r="6.76257"/>
</g>
<g fill="black">
<circle cx="493.265" cy="209.124" r="6.76257"/>
</g>
<g fill="black">
<circle cx="498.065" cy="205.96" r="6.76257"/>
</g>
<g fill="black">
<circle cx="502.864" cy="205.725" r="6.76257"/>
</g>
<g fill="black">
<circle cx="507.663" cy="215.045" r="6.76257"/>
</g>
<g fill="black">
<circle cx="512.462" cy="206.053" r="6.76257"/>
</g>
<g fill="black">
<circle cx="517.262" cy="213.402" r="6.76257"/>
</g>
<g fill="black">
<circle cx="522.061" cy="206.436" r="6.76257"/>
</g>
<g fill="black">
<circle cx="526.86" cy="202.734" r="6.76257"/>
</g>
<g fill="black">
<circle cx="531.659" cy="197.15" r="6.76257"/>
</g>
<g fill="black">
<circle cx="536.458" cy="199.103" r="6.76257"/>
</g>
<g fill="black">
<circle cx="541.258" cy="216.289" r="6.76257"/>
</g>
<g fill="black">
<circle cx="546.057" cy="205.617" r="6.76257"/>
</g>
<path d="M68.5315,498.064h 484.724" fill="none" stroke="black"/>
<path d="M68.5315,483.869v 14.1948" fill="none" stroke="black"/>
<path d="M83.5292,490.966v 7.09741" fill="none" stroke="black"/>
<path d="M98.5268,490.966v 7.09741" fill="none" stroke="black"/>
<path d="M113.524,490.966v 7.09741" fill="none" stroke="black"/>
<path d="M128.522,483.869v 14.1948" fill="none" stroke="black"/>
<path d="M143.52,490.966v 7.09741" fill="none" stroke="black"/>
<path d="M158.517,490.966v 7.09741" fill="none" stroke="black"/>
<path d="M173.515,490.966v 7.09741" fill="none" stroke="black"/>
<path d="M188.513,483.869v 14.1948" fill="none" stroke="black"/>
<path d="M203.51,490.966v 7.09741" fill="none" stroke="black"/>
<path d="M218.508,490.966v 7.09741" fill="none" stroke="black"/>
<path d="M233.506,490.966v 7.09741" fill="none" stroke="black"/>
<path d="M248.503,483.869v 14.1948" fill="none" stroke="black"/>
<path d="M263.501,490.966v 7.09741" fill="none" stroke="black"/>
<path d="M278.499,490.966v 7.09741" fill="none" stroke="black"/>
<path d="M293.496,490.966v 7.09741" fill="none" stroke="black"/>
<path d="M308.494,483.869v 14.1948" fill="none" stroke="black"/>
<path d="M323.492,490.966v 7.09741" fill="none" stroke="black"/>
<path d="M338.489,490.966v 7.09741" fill="none" stroke="black"/>
<path d="M353.487,490.966v 7.09741" fill="none" stroke="black"/>
<path d="M368.485,483.869v 14.1948" fill="none" stroke="black"/>
<path d="M383.482,490.966v 7.09741" fill="none" stroke="black"/>
<path d="M398.48,490.966v 7.09741" fill="none" stroke="black"/>
<path d="M413.478,490.966v 7.09741" fill="none" stroke="black"/>
<path d="M428.475,483.869v 14.1948" fill="none" stroke="black"/>
<path d="M443.473,490.966v 7.09741" fill="none" stroke="black"/>
<path d="M458.471,490.966v 7.09741" fill="none" stroke="black"/>
<path d="M473.468,490.966v 7.09741" fill="none" stroke="black"/>
<path d="M488.466,483.869v 14.1948" fill="none" stroke="black"/>
<path d="M503.464,490.966v 7.09741" fill="none" stroke="black"/>
<path d="M518.461,490.966v 7.09741" fill="none" stroke="black"/>
<path d="M533.459,490.966v 7.09741" fill="none" stroke="black"/>
<path d="M548.457,483.869v 14.1948" fill="none" stroke="black"/>
<path d="M548.457,483.869v 14.1948" fill="none" stroke="black"/>
<text xml:space="preserve" x="63.6174" y="513.956" fill="black" font-size="16.0105" font-family="Helvetica">0</text>
<text xml:space="preserve" x="117.718" y="513.956" fill="black" font-size="16.0105" font-family="Helvetica">0.2</text>
<text xml:space="preserve" x="177.454" y="513.956" fill="black" font-size="16.0105" font-family="Helvetica">0.4</text>
<text xml:space="preserve" x="237.754" y="513.956" fill="black" font-size="16.0105" font-family="Helvetica">0.6</text>
<text xml:space="preserve" x="297.49" y="513.956" fill="black" font-size="16.0105" font-family="Helvetica">0.8</text>
<text xml:space="preserve" x="365.115" y="513.956" fill="black" font-size="16.0105" font-family="Helvetica">1</text>
<text xml:space="preserve" x="417.525" y="513.956" fill="black" font-size="16.0105" font-family="Helvetica">1.2</text>
<text xml:space="preserve" x="477.261" y="513.956" fill="black" font-size="16.0105" font-family="Helvetica">1.4</text>
<text xml:space="preserve" x="537.561" y="513.956" fill="black" font-size="16.0105" font-family="Helvetica">1.6</text>
<text xml:space="preserve" x="548.268" y="537.625" fill="black" font-size="16.0105" font-family="Helvetica">)</text>
<text xml:space="preserve" x="542.633" y="532.553" fill="black" font-size="10.8403" font-family="Helvetica">2</text>
<text xml:space="preserve" x="533.616" y="537.625" fill="black" font-size="16.0105" font-family="Helvetica" font-style="oblique">c</text>
<text xml:space="preserve" x="487.405" y="537.625" fill="black" font-size="16.0105" font-family="Helvetica"> (GeV/</text>
<text xml:space="preserve" x="473.317" y="542.697" fill="black" font-size="10.8403" font-family="Helvetica">inv</text>
<text xml:space="preserve" x="459.792" y="537.625" fill="black" font-size="16.0105" font-family="Helvetica" font-style="oblique">m</text>
<path d="M68.5315,16.6021h 484.724" fill="none" stroke="black"/>
<path d="M68.5315,30.7969v -14.1948" fill="none" stroke="black"/>
<path d="M83.5292,23.6995v -7.09741" fill="none" stroke="black"/>
<path d="M98.5268,23.6995v -7.09741" fill="none" stroke="black"/>
<path d="M113.524,23.6995v -7.09741" fill="none" stroke="black"/>
<path d="M128.522,30.7969v -14.1948" fill="none" stroke="black"/>
<path d="M143.52,23.6995v -7.09741" fill="none" stroke="black"/>
<path d="M158.517,23.6995v -7.09741" fill="none" stroke="black"/>
<path d="M173.515,23.6995v -7.09741" fill="none" stroke="black"/>
<path d="M188.513,30.7969v -14.1948" fill="none" stroke="black"/>
<path d="M203.51,23.6995v -7.09741" fill="none" stroke="black"/>
<path d="M218.508,23.6995v -7.09741" fill="none" stroke="black"/>
<path d="M233.506,23.6995v -7.09741" fill="none" stroke="black"/>
<path d="M248.503,30.7969v -14.1948" fill="none" stroke="black"/>
<path d="M263.501,23.6995v -7.09741" fill="none" stroke="black"/>
<path d="M278.499,23.6995v -7.09741" fill="none" stroke="black"/>
<path d="M293.496,23.6995v -7.09741" fill="none" stroke="black"/>
<path d="M308.494,30.7969v -14.1948" fill="none" stroke="black"/>
<path d="M323.492,23.6995v -7.09741" fill="none" stroke="black"/>
<path d="M338.489,23.6995v -7.09741" fill="none" stroke="black"/>
<path d="M353.487,23.6995v -7.09741" fill="none" stroke="black"/>
<path d="M368.485,30.7969v -14.1948" fill="none" stroke="black"/>
<path d="M383.482,23.6995v -7.09741" fill="none" stroke="black"/>
<path d="M398.48,23.6995v -7.09741" fill="none" stroke="black"/>
<path d="M413.478,23.6995v -7.09741" fill="none" stroke="black"/>
<path d="M428.475,30.7969v -14.1948" fill="none" stroke="black"/>
<path d="M443.473,23.6995v -7.09741" fill="none" stroke="black"/>
<path d="M458.471,23.6995v -7.09741" fill="none" stroke="black"/>
<path d="M473.468,23.6995v -7.09741" fill="none" stroke="black"/>
<path d="M488.466,30.7969v -14.1948" fill="none" stroke="black"/>
<path d="M503.464,23.6995v -7.09741" fill="none" stroke="black"/>
<path d="M518.461,23.6995v -7.09741" fill="none" stroke="black"/>
<path d="M533.459,23.6995v -7.09741" fill="none" stroke="black"/>
<path d="M548.457,30.7969v -14.1948" fill="none" stroke="black"/>
<path d="M548.457,30.7969v -14.1948" fill="none" stroke="black"/>
<path d="M68.5315,498.064v -481.461" fill="none" stroke="black"/>
<path d="M83.3283,498.064h -14.7969" fill="none" stroke="black"/>
<path d="M75.9299,480.105h -7.39843" fill="none" stroke="black"/>
<path d="M75.9299,462.147h -7.39843" fill="none" stroke="black"/>
<path d="M75.9299,444.189h -7.39843" fill="none" stroke="black"/>
<path d="M75.9299,426.23h -7.39843" fill="none" stroke="black"/>
<path d="M83.3283,408.272h -14.7969" fill="none" stroke="black"/>
<path d="M75.9299,390.314h -7.39843" fill="none" stroke="black"/>
<path d="M75.9299,372.355h -7.39843" fill="none" stroke="black"/>
<path d="M75.9299,354.397h -7.39843" fill="none" stroke="black"/>
<path d="M75.9299,336.439h -7.39843" fill="none" stroke="black"/>
<path d="M83.3283,318.48h -14.7969" fill="none" stroke="black"/>
<path d="M75.9299,300.522h -7.39843" fill="none" stroke="black"/>
<path d="M75.9299,282.564h -7.39843" fill="none" stroke="black"/>
<path d="M75.9299,264.605h -7.39843" fill="none" stroke="black"/>
<path d="M75.9299,246.647h -7.39843" fill="none" stroke="black"/>
<path d="M83.3283,228.689h -14.7969" fill="none" stroke="black"/>
<path d="M75.9299,210.73h -7.39843" fill="none" stroke="black"/>
<path d="M75.9299,192.772h -7.39843" fill="none" stroke="black"/>
<path d="M75.9299,174.814h -7.39843" fill="none" stroke="black"/>
<path d="M75.9299,156.855h -7.39843" fill="none" stroke="black"/>
<path d="M83.3283,138.897h -14.7969" fill="none" stroke="black"/>
<path d="M75.9299,120.939h -7.39843" fill="none" stroke="black"/>
<path d="M75.9299,102.98h -7.39843" fill="none" stroke="black"/>
<path d="M75.9299,85.0221h -7.39843" fill="none" stroke="black"/>
<path d="M75.9299,67.0637h -7.39843" fill="none" stroke="black"/>
<path d="M83.3283,49.1054h -14.7969" fill="none" stroke="black"/>
<path d="M83.3283,49.1054h -14.7969" fill="none" stroke="black"/>
<path d="M75.9299,31.1471h -7.39843" fill="none" stroke="black"/>
<text xml:space="preserve" x="56.8548" y="503.248" fill="black" font-size="16.0105" font-family="Helvetica">0</text>
<text xml:space="preserve" x="48.4016" y="413.644" fill="black" font-size="16.0105" font-family="Helvetica">10</text>
<text xml:space="preserve" x="48.4016" y="324.04" fill="black" font-size="16.0105" font-family="Helvetica">20</text>
<text xml:space="preserve" x="48.4016" y="233.872" fill="black" font-size="16.0105" font-family="Helvetica">30</text>
<text xml:space="preserve" x="48.4016" y="144.268" fill="black" font-size="16.0105" font-family="Helvetica">40</text>
<text xml:space="preserve" x="48.4016" y="54.6641" fill="black" font-size="16.0105" font-family="Helvetica">50</text>
<text xml:space="preserve" x="99.1209" y="7.32612" fill="black" font-size="10.8403" font-family="Helvetica">3</text>
<text xml:space="preserve" x="93.4854" y="7.32612" fill="black" font-size="10.8403" font-family="Times">&#8722;</text>
<text xml:space="preserve" x="76.579" y="14.6522" fill="black" font-size="16.0105" font-family="Helvetica">10</text>
<text xml:space="preserve" x="68.1257" y="14.6522" fill="black" font-size="16.0105" font-family="Times">&#0215;</text>
<g transform="rotate(-90,38.2577,98.0573)">
<text xml:space="preserve" x="38.2577" y="98.0573" fill="black" font-size="16.0105" font-family="Helvetica">background</text>
</g>
<g transform="rotate(-90,21.9148,98.0573)">
<text xml:space="preserve" x="21.9148" y="98.0573" fill="black" font-size="16.0105" font-family="Helvetica">same event</text>
</g>
<path d="M24.169,98.0573l 0.563548, -81.7144" fill="none" stroke="black" stroke-width="2"/>
<path d="M553.256,498.064v -481.461" fill="none" stroke="black"/>
<path d="M538.459,498.064h 14.7969" fill="none" stroke="black"/>
<path d="M545.857,480.105h 7.39843" fill="none" stroke="black"/>
<path d="M545.857,462.147h 7.39843" fill="none" stroke="black"/>
<path d="M545.857,444.189h 7.39843" fill="none" stroke="black"/>
<path d="M545.857,426.23h 7.39843" fill="none" stroke="black"/>
<path d="M538.459,408.272h 14.7969" fill="none" stroke="black"/>
<path d="M545.857,390.314h 7.39843" fill="none" stroke="black"/>
<path d="M545.857,372.355h 7.39843" fill="none" stroke="black"/>
<path d="M545.857,354.397h 7.39843" fill="none" stroke="black"/>
<path d="M545.857,336.439h 7.39843" fill="none" stroke="black"/>
<path d="M538.459,318.48h 14.7969" fill="none" stroke="black"/>
<path d="M545.857,300.522h 7.39843" fill="none" stroke="black"/>
<path d="M545.857,282.564h 7.39843" fill="none" stroke="black"/>
<path d="M545.857,264.605h 7.39843" fill="none" stroke="black"/>
<path d="M545.857,246.647h 7.39843" fill="none" stroke="black"/>
<path d="M538.459,228.689h 14.7969" fill="none" stroke="black"/>
<path d="M545.857,210.73h 7.39843" fill="none" stroke="black"/>
<path d="M545.857,192.772h 7.39843" fill="none" stroke="black"/>
<path d="M545.857,174.814h 7.39843" fill="none" stroke="black"/>
<path d="M545.857,156.855h 7.39843" fill="none" stroke="black"/>
<path d="M538.459,138.897h 14.7969" fill="none" stroke="black"/>
<path d="M545.857,120.939h 7.39843" fill="none" stroke="black"/>
<path d="M545.857,102.98h 7.39843" fill="none" stroke="black"/>
<path d="M545.857,85.0221h 7.39843" fill="none" stroke="black"/>
<path d="M545.857,67.0637h 7.39843" fill="none" stroke="black"/>
<path d="M538.459,49.1054h 14.7969" fill="none" stroke="black"/>
<path d="M538.459,49.1054h 14.7969" fill="none" stroke="black"/>
<path d="M545.857,31.1471h 7.39843" fill="none" stroke="black"/>
<g stroke="#333333" stroke-width="2" fill="none">
<circle cx="282.098" cy="252.57" r="5.63548"/>
</g>
<g stroke="#333333" stroke-width="2" fill="none">
<circle cx="286.897" cy="247.975" r="5.63548"/>
</g>
<g stroke="#333333" stroke-width="2" fill="none">
<circle cx="291.697" cy="247.674" r="5.63548"/>
</g>
<g stroke="#333333" stroke-width="2" fill="none">
<circle cx="296.496" cy="242.23" r="5.63548"/>
</g>
<g stroke="#333333" stroke-width="2" fill="none">
<circle cx="301.295" cy="238.121" r="5.63548"/>
</g>
<g stroke="#333333" stroke-width="2" fill="none">
<circle cx="306.094" cy="236.992" r="5.63548"/>
</g>
<g stroke="#333333" stroke-width="2" fill="none">
<circle cx="310.894" cy="234.23" r="5.63548"/>
</g>
<g stroke="#333333" stroke-width="2" fill="none">
<circle cx="315.693" cy="239.879" r="5.63548"/>
</g>
<g stroke="#333333" stroke-width="2" fill="none">
<circle cx="320.492" cy="241.805" r="5.63548"/>
</g>
<g stroke="#333333" stroke-width="2" fill="none">
<circle cx="325.291" cy="239.89" r="5.63548"/>
</g>
<g stroke="#333333" stroke-width="2" fill="none">
<circle cx="330.091" cy="230.386" r="5.63548"/>
</g>
<g stroke="#333333" stroke-width="2" fill="none">
<circle cx="334.89" cy="231.905" r="5.63548"/>
</g>
<path d="M98.7518,304.769l 0.44993, -0.122391l 0.44993, -0.122391l 0.44993, -0.122391l 0.44993, -0.122391l 0.44993, -0.122391l 0.44993, -0.122391l 0.44993, -0.122391l 0.44993, -0.122391l 0.44993, -0.122391l 0.44993, -0.122391l 0.44993, -0.122391l
 0.44993, -0.122391l 0.44993, -0.122391l 0.44993, -0.122391l 0.44993, -0.122391l 0.44993, -0.122391l 0.44993, -0.122391l 0.44993, -0.122391l 0.44993, -0.122391l 0.44993, -0.122391l 0.44993, -0.122391l 0.44993, -0.122391l 0.44993, -0.122391l 0.44993,
 -0.122391l 0.44993, -0.122391l 0.44993, -0.122391l 0.44993, -0.122391l 0.44993, -0.122391l 0.44993, -0.122391l 0.44993, -0.122391l 0.44993, -0.122391l 0.44993, -0.122391l 0.44993, -0.122391l 0.44993, -0.122391l 0.44993, -0.122391l 0.44993,
 -0.122391l 0.44993, -0.122391l 0.44993, -0.122391l 0.44993, -0.122391l 0.44993, -0.122391l 0.44993, -0.122391l 0.44993, -0.122391l 0.44993, -0.122391l 0.44993, -0.122391l 0.44993, -0.122391l 0.44993, -0.122391l 0.44993, -0.122391l 0.44993,
 -0.122391l 0.44993, -0.122391" fill="none" stroke="#33cccc" stroke-width="3"/>
<path d="M120.798,298.772l 0.44993, -0.122391l 0.44993, -0.122391l 0.44993, -0.122391l 0.44993, -0.122391l 0.44993, -0.122391l 0.44993, -0.122391l 0.44993, -0.122391l 0.44993, -0.122391l 0.44993, -0.122391l 0.44993, -0.122391l 0.44993, -0.122391l
 0.44993, -0.122391l 0.44993, -0.122391l 0.44993, -0.122391l 0.44993, -0.122391l 0.44993, -0.122391l 0.44993, -0.122391l 0.44993, -0.122391l 0.44993, -0.122391l 0.44993, -0.122391l 0.44993, -0.122391l 0.44993, -0.122391l 0.44993, -0.122391l 0.44993,
 -0.122391l 0.44993, -0.122391l 0.44993, -0.122391l 0.44993, -0.122391l 0.44993, -0.122391l 0.44993, -0.122391l 0.44993, -0.122391l 0.44993, -0.122391l 0.44993, -0.122391l 0.44993, -0.122391l 0.44993, -0.122391l 0.44993, -0.122391l 0.44993,
 -0.122391l 0.44993, -0.122391l 0.44993, -0.122391l 0.44993, -0.122391l 0.44993, -0.122391l 0.44993, -0.122391l 0.44993, -0.122391l 0.44993, -0.122391l 0.44993, -0.122391l 0.44993, -0.122391l 0.44993, -0.122391l 0.44993, -0.122391l 0.44993,
 -0.122391l 0.44993, -0.122391" fill="none" stroke="#33cccc" stroke-width="3"/>
<path d="M142.845,292.774l 0.44993, -0.122391l 0.44993, -0.122391l 0.44993, -0.122391l 0.44993, -0.122391l 0.44993, -0.122391l 0.44993, -0.122391l 0.44993, -0.122391l 0.44993, -0.122391l 0.44993, -0.122391l 0.44993, -0.122391l 0.44993, -0.122391l
 0.44993, -0.122391l 0.44993, -0.122391l 0.44993, -0.122391l 0.44993, -0.122391l 0.44993, -0.122391l 0.44993, -0.122391l 0.44993, -0.122391l 0.44993, -0.122391l 0.44993, -0.122391l 0.44993, -0.122391l 0.44993, -0.122391l 0.44993, -0.122391l 0.44993,
 -0.122391l 0.44993, -0.122391l 0.44993, -0.122391l 0.44993, -0.122391l 0.44993, -0.122391l 0.44993, -0.122391l 0.44993, -0.122391l 0.44993, -0.122391l 0.44993, -0.122391l 0.44993, -0.122391l 0.44993, -0.122391l 0.44993, -0.122391l 0.44993,
 -0.122391l 0.44993, -0.122391l 0.44993, -0.122391l 0.44993, -0.122391l 0.44993, -0.122391l 0.44993, -0.122391l 0.44993, -0.122391l 0.44993, -0.122391l 0.44993, -0.122391l 0.44993, -0.122391l 0.44993, -0.122391l 0.44993, -0.122391l 0.44993,
 -0.122391l 0.44993, -0.122391" fill="none" stroke="#33cccc" stroke-width="3"/>
<path d="M164.891,286.777l 0.44993, -0.122391l 0.44993, -0.122391l 0.44993, -0.122391l 0.44993, -0.122391l 0.44993, -0.122391l 0.44993, -0.122391l 0.44993, -0.122391l 0.44993, -0.122391l 0.44993, -0.122391l 0.44993, -0.122391l 0.44993, -0.122391l
 0.44993, -0.122391l 0.44993, -0.122391l 0.44993, -0.122391l 0.44993, -0.122391l 0.44993, -0.122391l 0.44993, -0.122391l 0.44993, -0.122391l 0.44993, -0.122391l 0.44993, -0.122391l 0.44993, -0.122391l 0.44993, -0.122391l 0.44993, -0.122391l 0.44993,
 -0.122391l 0.44993, -0.122391l 0.44993, -0.122391l 0.44993, -0.122391l 0.44993, -0.122391l 0.44993, -0.122391l 0.44993, -0.122391l 0.44993, -0.122391l 0.44993, -0.122391l 0.44993, -0.122391l 0.44993, -0.122391l 0.44993, -0.122391l 0.44993,
 -0.122391l 0.44993, -0.122391l 0.44993, -0.122391l 0.44993, -0.122391l 0.44993, -0.122391l 0.44993, -0.122391l 0.44993, -0.122391l 0.44993, -0.122391l 0.44993, -0.122391l 0.44993, -0.122391l 0.44993, -0.122391l 0.44993, -0.122391l 0.44993,
 -0.122391l 0.44993, -0.122391" fill="none" stroke="#33cccc" stroke-width="3"/>
<path d="M186.938,280.78l 0.44993, -0.122391l 0.44993, -0.122391l 0.44993, -0.122391l 0.44993, -0.122391l 0.44993, -0.122391l 0.44993, -0.122391l 0.44993, -0.122391l 0.44993, -0.122391l 0.44993, -0.122391l 0.44993, -0.122391l 0.44993, -0.122391l
 0.44993, -0.122391l 0.44993, -0.122391l 0.44993, -0.122391l 0.44993, -0.122391l 0.44993, -0.122391l 0.44993, -0.122391l 0.44993, -0.122391l 0.44993, -0.122391l 0.44993, -0.122391l 0.44993, -0.122391l 0.44993, -0.122391l 0.44993, -0.122391l 0.44993,
 -0.122391l 0.44993, -0.122391l 0.44993, -0.122391l 0.44993, -0.122391l 0.44993, -0.122391l 0.44993, -0.122391l 0.44993, -0.122391l 0.44993, -0.122391l 0.44993, -0.122391l 0.44993, -0.122391l 0.44993, -0.122391l 0.44993, -0.122391l 0.44993,
 -0.122391l 0.44993, -0.122391l 0.44993, -0.122391l 0.44993, -0.122391l 0.44993, -0.122391l 0.44993, -0.122391l 0.44993, -0.122391l 0.44993, -0.122391l 0.44993, -0.122391l 0.44993, -0.122391l 0.44993, -0.122391l 0.44993, -0.122391l 0.44993,
 -0.122391l 0.44993, -0.122391" fill="none" stroke="#33cccc" stroke-width="3"/>
<path d="M208.985,274.783l 0.44993, -0.122391l 0.44993, -0.122391l 0.44993, -0.122391l 0.44993, -0.122391l 0.44993, -0.122391l 0.44993, -0.122391l 0.44993, -0.122391l 0.44993, -0.122391l 0.44993, -0.122391l 0.44993, -0.122391l 0.44993, -0.122391l
 0.44993, -0.122391l 0.44993, -0.122391l 0.44993, -0.122391l 0.44993, -0.122391l 0.44993, -0.122391l 0.44993, -0.122391l 0.44993, -0.122391l 0.44993, -0.122391l 0.44993, -0.122391l 0.44993, -0.122391l 0.44993, -0.122391l 0.44993, -0.122391l 0.44993,
 -0.122391l 0.44993, -0.122391l 0.44993, -0.122391l 0.44993, -0.122391l 0.44993, -0.122391l 0.44993, -0.122391l 0.44993, -0.122391l 0.44993, -0.122391l 0.44993, -0.122391l 0.44993, -0.122391l 0.44993, -0.122391l 0.44993, -0.122391l 0.44993,
 -0.122391l 0.44993, -0.122391l 0.44993, -0.122391l 0.44993, -0.122391l 0.44993, -0.122391l 0.44993, -0.122391l 0.44993, -0.122391l 0.44993, -0.122391l 0.44993, -0.122391l 0.44993, -0.122391l 0.44993, -0.122391l 0.44993, -0.122391l 0.44993,
 -0.122391l 0.44993, -0.122391" fill="none" stroke="#33cccc" stroke-width="3"/>
<path d="M231.031,268.786l 0.44993, -0.122391l 0.44993, -0.122391l 0.44993, -0.122391l 0.44993, -0.122391l 0.44993, -0.122391l 0.44993, -0.122391l 0.44993, -0.122391l 0.44993, -0.122391l 0.44993, -0.122391l 0.44993, -0.122391l 0.44993, -0.122391l
 0.44993, -0.122391l 0.44993, -0.122391l 0.44993, -0.122391l 0.44993, -0.122391l 0.44993, -0.122391l 0.44993, -0.122391l 0.44993, -0.122391l 0.44993, -0.122391l 0.44993, -0.122391l 0.44993, -0.122391l 0.44993, -0.122391l 0.44993, -0.122391l 0.44993,
 -0.122391l 0.44993, -0.122391l 0.44993, -0.122391l 0.44993, -0.122391l 0.44993, -0.122391l 0.44993, -0.122391l 0.44993, -0.122391l 0.44993, -0.122391l 0.44993, -0.122391l 0.44993, -0.122391l 0.44993, -0.122391l 0.44993, -0.122391l 0.44993,
 -0.122391l 0.44993, -0.122391l 0.44993, -0.122391l 0.44993, -0.122391l 0.44993, -0.122391l 0.44993, -0.122391l 0.44993, -0.122391l 0.44993, -0.122391l 0.44993, -0.122391l 0.44993, -0.122391l 0.44993, -0.122391l 0.44993, -0.122391l 0.44993,
 -0.122391l 0.44993, -0.122391" fill="none" stroke="#33cccc" stroke-width="3"/>
<path d="M253.078,262.789l 0.44993, -0.122391l 0.44993, -0.122391l 0.44993, -0.122391l 0.44993, -0.122391l 0.44993, -0.122391l 0.44993, -0.122391l 0.44993, -0.122391l 0.44993, -0.122391l 0.44993, -0.122391l 0.44993, -0.122391l 0.44993, -0.122391l
 0.44993, -0.122391l 0.44993, -0.122391l 0.44993, -0.122391l 0.44993, -0.122391l 0.44993, -0.122391l 0.44993, -0.122391l 0.44993, -0.122391l 0.44993, -0.122391l 0.44993, -0.122391l 0.44993, -0.122391l 0.44993, -0.122391l 0.44993, -0.122391l 0.44993,
 -0.122391l 0.44993, -0.122391l 0.44993, -0.122391l 0.44993, -0.122391l 0.44993, -0.122391l 0.44993, -0.122391l 0.44993, -0.122391l 0.44993, -0.122391l 0.44993, -0.122391l 0.44993, -0.122391l 0.44993, -0.122391l 0.44993, -0.122391l 0.44993,
 -0.122391l 0.44993, -0.122391l 0.44993, -0.122391l 0.44993, -0.122391l 0.44993, -0.122391l 0.44993, -0.122391l 0.44993, -0.122391l 0.44993, -0.122391l 0.44993, -0.122391l 0.44993, -0.122391l 0.44993, -0.122391l 0.44993, -0.122391l 0.44993,
 -0.122391l 0.44993, -0.122391" fill="none" stroke="#33cccc" stroke-width="3"/>
<path d="M275.124,256.791l 0.44993, -0.122391l 0.44993, -0.122391l 0.44993, -0.122391l 0.44993, -0.122391l 0.44993, -0.122391l 0.44993, -0.122391l 0.44993, -0.122391l 0.44993, -0.122391l 0.44993, -0.122391l 0.44993, -0.122391l 0.44993, -0.122391l
 0.44993, -0.122391l 0.44993, -0.122391l 0.44993, -0.122391l 0.44993, -0.122391l 0.44993, -0.122391l 0.44993, -0.122391l 0.44993, -0.122391l 0.44993, -0.122391l 0.44993, -0.122391l 0.44993, -0.122391l 0.44993, -0.122391l 0.44993, -0.122391l 0.44993,
 -0.122391l 0.44993, -0.122391l 0.44993, -0.122391l 0.44993, -0.122391l 0.44993, -0.122391l 0.44993, -0.122391l 0.44993, -0.122391l 0.44993, -0.122391l 0.44993, -0.122391l 0.44993, -0.122391l 0.44993, -0.122391l 0.44993, -0.122391l 0.44993,
 -0.122391l 0.44993, -0.122391l 0.44993, -0.122391l 0.44993, -0.122391l 0.44993, -0.122391l 0.44993, -0.122391l 0.44993, -0.122391l 0.44993, -0.122391l 0.44993, -0.122391l 0.44993, -0.122391l 0.44993, -0.122391l 0.44993, -0.122391l 0.44993,
 -0.122391l 0.44993, -0.122391" fill="none" stroke="#33cccc" stroke-width="3"/>
<path d="M297.171,250.794l 0.44993, -0.122391l 0.44993, -0.122391l 0.44993, -0.122391l 0.44993, -0.122391l 0.44993, -0.122391l 0.44993, -0.122391l 0.44993, -0.122391l 0.44993, -0.122391l 0.44993, -0.122391l 0.44993, -0.122391l 0.44993, -0.122391l
 0.44993, -0.122391l 0.44993, -0.122391l 0.44993, -0.122391l 0.44993, -0.122391l 0.44993, -0.122391l 0.44993, -0.122391l 0.44993, -0.122391l 0.44993, -0.122391l 0.44993, -0.122391l 0.44993, -0.122391l 0.44993, -0.122391l 0.44993, -0.122391l 0.44993,
 -0.122391l 0.44993, -0.122391l 0.44993, -0.122391l 0.44993, -0.122391l 0.44993, -0.122391l 0.44993, -0.122391l 0.44993, -0.122391l 0.44993, -0.122391l 0.44993, -0.122391l 0.44993, -0.122391l 0.44993, -0.122391l 0.44993, -0.122391l 0.44993,
 -0.122391l 0.44993, -0.122391l 0.44993, -0.122391l 0.44993, -0.122391l 0.44993, -0.122391l 0.44993, -0.122391l 0.44993, -0.122391l 0.44993, -0.122391l 0.44993, -0.122391l 0.44993, -0.122391l 0.44993, -0.122391l 0.44993, -0.122391l 0.44993,
 -0.122391l 0.44993, -0.122391" fill="none" stroke="#33cccc" stroke-width="3"/>
<path d="M319.217,244.797l 0.44993, -0.122391l 0.44993, -0.122391l 0.44993, -0.122391l 0.44993, -0.122391l 0.44993, -0.122391l 0.44993, -0.122391l 0.44993, -0.122391l 0.44993, -0.122391l 0.44993, -0.122391l 0.44993, -0.122391l 0.44993, -0.122391l
 0.44993, -0.122391l 0.44993, -0.122391l 0.44993, -0.122391l 0.44993, -0.122391l 0.44993, -0.122391l 0.44993, -0.122391l 0.44993, -0.122391l 0.44993, -0.122391l 0.44993, -0.122391l 0.44993, -0.122391l 0.44993, -0.122391l 0.44993, -0.122391l 0.44993,
 -0.122391l 0.44993, -0.122391l 0.44993, -0.122391l 0.44993, -0.122391l 0.44993, -0.122391l 0.44993, -0.122391l 0.44993, -0.122391l 0.44993, -0.122391l 0.44993, -0.122391l 0.44993, -0.122391l 0.44993, -0.122391l 0.44993, -0.122391l 0.44993,
 -0.122391l 0.44993, -0.122391l 0.44993, -0.122391l 0.44993, -0.122391l 0.44993, -0.122391l 0.44993, -0.122391l 0.44993, -0.122391l 0.44993, -0.122391l 0.44993, -0.122391l 0.44993, -0.122391l 0.44993, -0.122391l 0.44993, -0.122391l 0.44993,
 -0.122391l 0.44993, -0.122391" fill="none" stroke="#33cccc" stroke-width="3"/>
<path d="M341.264,238.8l 0.44993, -0.122391l 0.44993, -0.122391l 0.44993, -0.122391l 0.44993, -0.122391l 0.44993, -0.122391l 0.44993, -0.122391l 0.44993, -0.122391l 0.44993, -0.122391l 0.44993, -0.122391l 0.44993, -0.122391l 0.44993, -0.122391l
 0.44993, -0.122391l 0.44993, -0.122391l 0.44993, -0.122391l 0.44993, -0.122391l 0.44993, -0.122391l 0.44993, -0.122391l 0.44993, -0.122391l 0.44993, -0.122391l 0.44993, -0.122391l 0.44993, -0.122391l 0.44993, -0.122391l 0.44993, -0.122391l 0.44993,
 -0.122391l 0.44993, -0.122391l 0.44993, -0.122391l 0.44993, -0.122391l 0.44993, -0.122391l 0.44993, -0.122391l 0.44993, -0.122391l 0.44993, -0.122391l 0.44993, -0.122391l 0.44993, -0.122391l 0.44993, -0.122391l 0.44993, -0.122391l 0.44993,
 -0.122391l 0.44993, -0.122391l 0.44993, -0.122391l 0.44993, -0.122391l 0.44993, -0.122391l 0.44993, -0.122391l 0.44993, -0.122391l 0.44993, -0.122391l 0.44993, -0.122391l 0.44993, -0.122391l 0.44993, -0.122391l 0.44993, -0.122391l 0.44993,
 -0.122391l 0.44993, -0.122391" fill="none" stroke="#33cccc" stroke-width="3"/>
<path d="M363.311,232.803l 0.44993, -0.122391l 0.44993, -0.122391l 0.44993, -0.122391l 0.44993, -0.122391l 0.44993, -0.122391l 0.44993, -0.122391l 0.44993, -0.122391l 0.44993, -0.122391l 0.44993, -0.122391l 0.44993, -0.122391l 0.44993, -0.122391l
 0.44993, -0.122391l 0.44993, -0.122391l 0.44993, -0.122391l 0.44993, -0.122391l 0.44993, -0.122391l 0.44993, -0.122391l 0.44993, -0.122391l 0.44993, -0.122391l 0.44993, -0.122391l 0.44993, -0.122391l 0.44993, -0.122391l 0.44993, -0.122391l 0.44993,
 -0.122391l 0.44993, -0.122391l 0.44993, -0.122391l 0.44993, -0.122391l 0.44993, -0.122391l 0.44993, -0.122391l 0.44993, -0.122391l 0.44993, -0.122391l 0.44993, -0.122391l 0.44993, -0.122391l 0.44993, -0.122391l 0.44993, -0.122391l 0.44993,
 -0.122391l 0.44993, -0.122391l 0.44993, -0.122391l 0.44993, -0.122391l 0.44993, -0.122391l 0.44993, -0.122391l 0.44993, -0.122391l 0.44993, -0.122391l 0.44993, -0.122391l 0.44993, -0.122391l 0.44993, -0.122391l 0.44993, -0.122391l 0.44993,
 -0.122391l 0.44993, -0.122391" fill="none" stroke="#33cccc" stroke-width="3"/>
<path d="M385.357,226.806l 0.44993, -0.122391l 0.44993, -0.122391l 0.44993, -0.122391l 0.44993, -0.122391l 0.44993, -0.122391l 0.44993, -0.122391l 0.44993, -0.122391l 0.44993, -0.122391l 0.44993, -0.122391l 0.44993, -0.122391l 0.44993, -0.122391l
 0.44993, -0.122391l 0.44993, -0.122391l 0.44993, -0.122391l 0.44993, -0.122391l 0.44993, -0.122391l 0.44993, -0.122391l 0.44993, -0.122391l 0.44993, -0.122391l 0.44993, -0.122391l 0.44993, -0.122391l 0.44993, -0.122391l 0.44993, -0.122391l 0.44993,
 -0.122391l 0.44993, -0.122391l 0.44993, -0.122391l 0.44993, -0.122391l 0.44993, -0.122391l 0.44993, -0.122391l 0.44993, -0.122391l 0.44993, -0.122391l 0.44993, -0.122391l 0.44993, -0.122391l 0.44993, -0.122391l 0.44993, -0.122391l 0.44993,
 -0.122391l 0.44993, -0.122391l 0.44993, -0.122391l 0.44993, -0.122391l 0.44993, -0.122391l 0.44993, -0.122391l 0.44993, -0.122391l 0.44993, -0.122391l 0.44993, -0.122391l 0.44993, -0.122391l 0.44993, -0.122391l 0.44993, -0.122391l 0.44993,
 -0.122391l 0.44993, -0.122391" fill="none" stroke="#33cccc" stroke-width="3"/>
<path d="M407.404,220.808l 0.44993, -0.122391l 0.44993, -0.122391l 0.44993, -0.122391l 0.44993, -0.122391l 0.44993, -0.122391l 0.44993, -0.122391l 0.44993, -0.122391l 0.44993, -0.122391l 0.44993, -0.122391l 0.44993, -0.122391l 0.44993, -0.122391l
 0.44993, -0.122391l 0.44993, -0.122391l 0.44993, -0.122391l 0.44993, -0.122391l 0.44993, -0.122391l 0.44993, -0.122391l 0.44993, -0.122391l 0.44993, -0.122391l 0.44993, -0.122391l 0.44993, -0.122391l 0.44993, -0.122391l 0.44993, -0.122391l 0.44993,
 -0.122391l 0.44993, -0.122391l 0.44993, -0.122391l 0.44993, -0.122391l 0.44993, -0.122391l 0.44993, -0.122391l 0.44993, -0.122391l 0.44993, -0.122391l 0.44993, -0.122391l 0.44993, -0.122391l 0.44993, -0.122391l 0.44993, -0.122391l 0.44993,
 -0.122391l 0.44993, -0.122391l 0.44993, -0.122391l 0.44993, -0.122391l 0.44993, -0.122391l 0.44993, -0.122391l 0.44993, -0.122391l 0.44993, -0.122391l 0.44993, -0.122391l 0.44993, -0.122391l 0.44993, -0.122391l 0.44993, -0.122391l 0.44993,
 -0.122391l 0.44993, -0.122391" fill="none" stroke="#33cccc" stroke-width="3"/>
<path d="M429.45,214.811l 0.44993, -0.122391l 0.44993, -0.122391l 0.44993, -0.122391l 0.44993, -0.122391l 0.44993, -0.122391l 0.44993, -0.122391l 0.44993, -0.122391l 0.44993, -0.122391l 0.44993, -0.122391l 0.44993, -0.122391l 0.44993, -0.122391l
 0.44993, -0.122391l 0.44993, -0.122391l 0.44993, -0.122391l 0.44993, -0.122391l 0.44993, -0.122391l 0.44993, -0.122391l 0.44993, -0.122391l 0.44993, -0.122391l 0.44993, -0.122391l 0.44993, -0.122391l 0.44993, -0.122391l 0.44993, -0.122391l 0.44993,
 -0.122391l 0.44993, -0.122391l 0.44993, -0.122391l 0.44993, -0.122391l 0.44993, -0.122391l 0.44993, -0.122391l 0.44993, -0.122391l 0.44993, -0.122391l 0.44993, -0.122391l 0.44993, -0.122391l 0.44993, -0.122391l 0.44993, -0.122391l 0.44993,
 -0.122391l 0.44993, -0.122391l 0.44993, -0.122391l 0.44993, -0.122391l 0.44993, -0.122391l 0.44993, -0.122391l 0.44993, -0.122391l 0.44993, -0.122391l 0.44993, -0.122391l 0.44993, -0.122391l 0.44993, -0.122391l 0.44993, -0.122391l 0.44993,
 -0.122391l 0.44993, -0.122391" fill="none" stroke="#33cccc" stroke-width="3"/>
<path d="M451.497,208.814l 0.44993, -0.122391l 0.44993, -0.122391l 0.44993, -0.122391l 0.44993, -0.122391l 0.44993, -0.122391l 0.44993, -0.122391l 0.44993, -0.122391l 0.44993, -0.122391l 0.44993, -0.122391l 0.44993, -0.122391l 0.44993, -0.122391l
 0.44993, -0.122391l 0.44993, -0.122391l 0.44993, -0.122391l 0.44993, -0.122391l 0.44993, -0.122391l 0.44993, -0.122391l 0.44993, -0.122391l 0.44993, -0.122391l 0.44993, -0.122391l 0.44993, -0.122391l 0.44993, -0.122391l 0.44993, -0.122391l 0.44993,
 -0.122391l 0.44993, -0.122391l 0.44993, -0.122391l 0.44993, -0.122391l 0.44993, -0.122391l 0.44993, -0.122391l 0.44993, -0.122391l 0.44993, -0.122391l 0.44993, -0.122391l 0.44993, -0.122391l 0.44993, -0.122391l 0.44993, -0.122391l 0.44993,
 -0.122391l 0.44993, -0.122391l 0.44993, -0.122391l 0.44993, -0.122391l 0.44993, -0.122391l 0.44993, -0.122391l 0.44993, -0.122391l 0.44993, -0.122391l 0.44993, -0.122391l 0.44993, -0.122391l 0.44993, -0.122391l 0.44993, -0.122391l 0.44993,
 -0.122391l 0.44993, -0.122391" fill="none" stroke="#33cccc" stroke-width="3"/>
<path d="M473.543,202.817l 0.44993, -0.122391l 0.44993, -0.122391l 0.44993, -0.122391l 0.44993, -0.122391l 0.44993, -0.122391l 0.44993, -0.122391l 0.44993, -0.122391l 0.44993, -0.122391l 0.44993, -0.122391l 0.44993, -0.122391l 0.44993, -0.122391l
 0.44993, -0.122391l 0.44993, -0.122391l 0.44993, -0.122391l 0.44993, -0.122391l 0.44993, -0.122391l 0.44993, -0.122391l 0.44993, -0.122391l 0.44993, -0.122391l 0.44993, -0.122391l 0.44993, -0.122391l 0.44993, -0.122391l 0.44993, -0.122391l 0.44993,
 -0.122391l 0.44993, -0.122391l 0.44993, -0.122391l 0.44993, -0.122391l 0.44993, -0.122391l 0.44993, -0.122391l 0.44993, -0.122391l 0.44993, -0.122391l 0.44993, -0.122391l 0.44993, -0.122391l 0.44993, -0.122391l 0.44993, -0.122391l 0.44993,
 -0.122391l 0.44993, -0.122391l 0.44993, -0.122391l 0.44993, -0.122391l 0.44993, -0.122391l 0.44993, -0.122391l 0.44993, -0.122391l 0.44993, -0.122391l 0.44993, -0.122391l 0.44993, -0.122391l 0.44993, -0.122391l 0.44993, -0.122391l 0.44993,
 -0.122391l 0.44993, -0.122391" fill="none" stroke="#33cccc" stroke-width="3"/>
<path d="M495.59,196.82l 0.44993, -0.122391l 0.44993, -0.122391l 0.44993, -0.122391l 0.44993, -0.122391l 0.44993, -0.122391l 0.44993, -0.122391l 0.44993, -0.122391l 0.44993, -0.122391l 0.44993, -0.122391l 0.44993, -0.122391l 0.44993, -0.122391l
 0.44993, -0.122391l 0.44993, -0.122391l 0.44993, -0.122391l 0.44993, -0.122391l 0.44993, -0.122391l 0.44993, -0.122391l 0.44993, -0.122391l 0.44993, -0.122391l 0.44993, -0.122391l 0.44993, -0.122391l 0.44993, -0.122391l 0.44993, -0.122391l 0.44993,
 -0.122391l 0.44993, -0.122391l 0.44993, -0.122391l 0.44993, -0.122391l 0.44993, -0.122391l 0.44993, -0.122391l 0.44993, -0.122391l 0.44993, -0.122391l 0.44993, -0.122391l 0.44993, -0.122391l 0.44993, -0.122391l 0.44993, -0.122391l 0.44993,
 -0.122391l 0.44993, -0.122391l 0.44993, -0.122391l 0.44993, -0.122391l 0.44993, -0.122391l 0.44993, -0.122391l 0.44993, -0.122391l 0.44993, -0.122391l 0.44993, -0.122391l 0.44993, -0.122391l 0.44993, -0.122391l 0.44993, -0.122391l 0.44993,
 -0.122391l 0.44993, -0.122391" fill="none" stroke="#33cccc" stroke-width="3"/>
<path d="M517.636,190.823l 0.44993, -0.122391l 0.44993, -0.122391l 0.44993, -0.122391l 0.44993, -0.122391l 0.44993, -0.122391l 0.44993, -0.122391l 0.44993, -0.122391l 0.44993, -0.122391l 0.44993, -0.122391l 0.44993, -0.122391l 0.44993, -0.122391l
 0.44993, -0.122391l 0.44993, -0.122391l 0.44993, -0.122391l 0.44993, -0.122391l 0.44993, -0.122391l 0.44993, -0.122391l 0.44993, -0.122391l 0.44993, -0.122391l 0.44993, -0.122391l 0.44993, -0.122391l 0.44993, -0.122391l 0.44993, -0.122391l 0.44993,
 -0.122391l 0.44993, -0.122391l 0.44993, -0.122391l 0.44993, -0.122391l 0.44993, -0.122391l 0.44993, -0.122391l 0.44993, -0.122391l 0.44993, -0.122391l 0.44993, -0.122391l 0.44993, -0.122391l 0.44993, -0.122391l 0.44993, -0.122391l 0.44993,
 -0.122391l 0.44993, -0.122391l 0.44993, -0.122391l 0.44993, -0.122391l 0.44993, -0.122391l 0.44993, -0.122391l 0.44993, -0.122391l 0.44993, -0.122391l 0.44993, -0.122391l 0.44993, -0.122391l 0.44993, -0.122391l 0.44993, -0.122391l 0.44993,
 -0.122391l 0.44993, -0.122391" fill="none" stroke="#33cccc" stroke-width="3"/>
<path d="M539.683,184.825l 0.44993, -0.122391l 0.44993, -0.122391l 0.44993, -0.122391l 0.44993, -0.122391l 0.44993, -0.122391l 0.44993, -0.122391l 0.44993, -0.122391l 0.44993, -0.122391l 0.44993, -0.122391l 0.44993, -0.122391l 0.44993, -0.122391l
 0.44993, -0.122391l 0.44993, -0.122391l 0.44993, -0.122391l 0.44993, -0.122391l 0.44993, -0.122391l 0.44993, -0.122391l 0.44993, -0.122391l 0.44993, -0.122391" fill="none" stroke="#33cccc" stroke-width="3"/>
<path d="M98.7518,338.37l 0.44993, -0.258155l 0.44993, -0.257907l 0.44993, -0.25766l 0.44993, -0.257412l 0.44993, -0.257164l 0.44993, -0.256917l 0.44993, -0.256669l 0.44993, -0.256422l 0.44993, -0.256174l 0.44993, -0.255926l 0.44993, -0.255679l
 0.44993, -0.255431l 0.44993, -0.255184l 0.44993, -0.254936l 0.44993, -0.254688l 0.44993, -0.254441l 0.44993, -0.254193l 0.44993, -0.253946l 0.44993, -0.253698l 0.44993, -0.25345l 0.44993, -0.253203l 0.44993, -0.252955l 0.44993, -0.252708l 0.44993,
 -0.25246l 0.44993, -0.252212l 0.44993, -0.251965l 0.44993, -0.251717l 0.44993, -0.25147l 0.44993, -0.251222l 0.44993, -0.250974l 0.44993, -0.250727l 0.44993, -0.250479l 0.44993, -0.250232l 0.44993, -0.249984l 0.44993, -0.249736l 0.44993, -0.249489l
 0.44993, -0.249241l 0.44993, -0.248994l 0.44993, -0.248746l 0.44993, -0.248498l 0.44993, -0.248251l 0.44993, -0.248003l 0.44993, -0.247756l 0.44993, -0.247508l 0.44993, -0.24726l 0.44993, -0.247013l 0.44993, -0.246765l 0.44993, -0.246518l 0.44993,
 -0.24627" fill="none" stroke="#ff0066" stroke-width="3"/>
<path d="M120.798,326.012l 0.44993, -0.246023l 0.44993, -0.245775l 0.44993, -0.245527l 0.44993, -0.24528l 0.44993, -0.245032l 0.44993, -0.244785l 0.44993, -0.244537l 0.44993, -0.244289l 0.44993, -0.244042l 0.44993, -0.243794l 0.44993, -0.243547l
 0.44993, -0.243299l 0.44993, -0.243051l 0.44993, -0.242804l 0.44993, -0.242556l 0.44993, -0.242309l 0.44993, -0.242061l 0.44993, -0.241813l 0.44993, -0.241566l 0.44993, -0.241318l 0.44993, -0.241071l 0.44993, -0.240823l 0.44993, -0.240575l 0.44993,
 -0.240328l 0.44993, -0.24008l 0.44993, -0.239833l 0.44993, -0.239585l 0.44993, -0.239337l 0.44993, -0.23909l 0.44993, -0.238842l 0.44993, -0.238595l 0.44993, -0.238347l 0.44993, -0.238099l 0.44993, -0.237852l 0.44993, -0.237604l 0.44993, -0.237357l
 0.44993, -0.237109l 0.44993, -0.236861l 0.44993, -0.236614l 0.44993, -0.236366l 0.44993, -0.236119l 0.44993, -0.235871l 0.44993, -0.235623l 0.44993, -0.235376l 0.44993, -0.235128l 0.44993, -0.234881l 0.44993, -0.234633l 0.44993, -0.234385l 0.44993,
 -0.234138" fill="none" stroke="#ff0066" stroke-width="3"/>
<path d="M142.845,314.248l 0.44993, -0.23389l 0.44993, -0.233643l 0.44993, -0.233395l 0.44993, -0.233147l 0.44993, -0.2329l 0.44993, -0.232652l 0.44993, -0.232405l 0.44993, -0.232157l 0.44993, -0.231909l 0.44993, -0.231662l 0.44993, -0.231414l
 0.44993, -0.231167l 0.44993, -0.230919l 0.44993, -0.230672l 0.44993, -0.230424l 0.44993, -0.230176l 0.44993, -0.229929l 0.44993, -0.229681l 0.44993, -0.229434l 0.44993, -0.229186l 0.44993, -0.228938l 0.44993, -0.228691l 0.44993, -0.228443l 0.44993,
 -0.228196l 0.44993, -0.227948l 0.44993, -0.2277l 0.44993, -0.227453l 0.44993, -0.227205l 0.44993, -0.226958l 0.44993, -0.22671l 0.44993, -0.226462l 0.44993, -0.226215l 0.44993, -0.225967l 0.44993, -0.22572l 0.44993, -0.225472l 0.44993, -0.225224l
 0.44993, -0.224977l 0.44993, -0.224729l 0.44993, -0.224482l 0.44993, -0.224234l 0.44993, -0.223986l 0.44993, -0.223739l 0.44993, -0.223491l 0.44993, -0.223244l 0.44993, -0.222996l 0.44993, -0.222748l 0.44993, -0.222501l 0.44993, -0.222253l 0.44993,
 -0.222006" fill="none" stroke="#ff0066" stroke-width="3"/>
<path d="M164.891,303.078l 0.44993, -0.221758l 0.44993, -0.22151l 0.44993, -0.221263l 0.44993, -0.221015l 0.44993, -0.220768l 0.44993, -0.22052l 0.44993, -0.220272l 0.44993, -0.220025l 0.44993, -0.219777l 0.44993, -0.21953l 0.44993, -0.219282l
 0.44993, -0.219034l 0.44993, -0.218787l 0.44993, -0.218539l 0.44993, -0.218292l 0.44993, -0.218044l 0.44993, -0.217796l 0.44993, -0.217549l 0.44993, -0.217301l 0.44993, -0.217054l 0.44993, -0.216806l 0.44993, -0.216559l 0.44993, -0.216311l 0.44993,
 -0.216063l 0.44993, -0.215816l 0.44993, -0.215568l 0.44993, -0.215321l 0.44993, -0.215073l 0.44993, -0.214825l 0.44993, -0.214578l 0.44993, -0.21433l 0.44993, -0.214083l 0.44993, -0.213835l 0.44993, -0.213587l 0.44993, -0.21334l 0.44993, -0.213092l
 0.44993, -0.212845l 0.44993, -0.212597l 0.44993, -0.212349l 0.44993, -0.212102l 0.44993, -0.211854l 0.44993, -0.211607l 0.44993, -0.211359l 0.44993, -0.211111l 0.44993, -0.210864l 0.44993, -0.210616l 0.44993, -0.210369l 0.44993, -0.210121l 0.44993,
 -0.209873" fill="none" stroke="#ff0066" stroke-width="3"/>
<path d="M186.938,292.503l 0.44993, -0.209626l 0.44993, -0.209378l 0.44993, -0.209131l 0.44993, -0.208883l 0.44993, -0.208635l 0.44993, -0.208388l 0.44993, -0.20814l 0.44993, -0.207893l 0.44993, -0.207645l 0.44993, -0.207397l 0.44993, -0.20715l
 0.44993, -0.206902l 0.44993, -0.206655l 0.44993, -0.206407l 0.44993, -0.206159l 0.44993, -0.205912l 0.44993, -0.205664l 0.44993, -0.205417l 0.44993, -0.205169l 0.44993, -0.204921l 0.44993, -0.204674l 0.44993, -0.204426l 0.44993, -0.204179l 0.44993,
 -0.203931l 0.44993, -0.203683l 0.44993, -0.203436l 0.44993, -0.203188l 0.44993, -0.202941l 0.44993, -0.202693l 0.44993, -0.202446l 0.44993, -0.202198l 0.44993, -0.20195l 0.44993, -0.201703l 0.44993, -0.201455l 0.44993, -0.201208l 0.44993, -0.20096l
 0.44993, -0.200712l 0.44993, -0.200465l 0.44993, -0.200217l 0.44993, -0.19997l 0.44993, -0.199722l 0.44993, -0.199474l 0.44993, -0.199227l 0.44993, -0.198979l 0.44993, -0.198732l 0.44993, -0.198484l 0.44993, -0.198236l 0.44993, -0.197989l 0.44993,
 -0.197741" fill="none" stroke="#ff0066" stroke-width="3"/>
<path d="M208.985,282.523l 0.44993, -0.197494l 0.44993, -0.197246l 0.44993, -0.196998l 0.44993, -0.196751l 0.44993, -0.196503l 0.44993, -0.196256l 0.44993, -0.196008l 0.44993, -0.19576l 0.44993, -0.195513l 0.44993, -0.195265l 0.44993, -0.195018l
 0.44993, -0.19477l 0.44993, -0.194522l 0.44993, -0.194275l 0.44993, -0.194027l 0.44993, -0.19378l 0.44993, -0.193532l 0.44993, -0.193284l 0.44993, -0.193037l 0.44993, -0.192789l 0.44993, -0.192542l 0.44993, -0.192294l 0.44993, -0.192046l 0.44993,
 -0.191799l 0.44993, -0.191551l 0.44993, -0.191304l 0.44993, -0.191056l 0.44993, -0.190808l 0.44993, -0.190561l 0.44993, -0.190313l 0.44993, -0.190066l 0.44993, -0.189818l 0.44993, -0.18957l 0.44993, -0.189323l 0.44993, -0.189075l 0.44993, -0.188828l
 0.44993, -0.18858l 0.44993, -0.188332l 0.44993, -0.188085l 0.44993, -0.187837l 0.44993, -0.18759l 0.44993, -0.187342l 0.44993, -0.187095l 0.44993, -0.186847l 0.44993, -0.186599l 0.44993, -0.186352l 0.44993, -0.186104l 0.44993, -0.185857l 0.44993,
 -0.185609" fill="none" stroke="#ff0066" stroke-width="3"/>
<path d="M231.031,273.137l 0.44993, -0.185361l 0.44993, -0.185114l 0.44993, -0.184866l 0.44993, -0.184619l 0.44993, -0.184371l 0.44993, -0.184123l 0.44993, -0.183876l 0.44993, -0.183628l 0.44993, -0.183381l 0.44993, -0.183133l 0.44993, -0.182885l
 0.44993, -0.182638l 0.44993, -0.18239l 0.44993, -0.182143l 0.44993, -0.181895l 0.44993, -0.181647l 0.44993, -0.1814l 0.44993, -0.181152l 0.44993, -0.180905l 0.44993, -0.180657l 0.44993, -0.180409l 0.44993, -0.180162l 0.44993, -0.179914l 0.44993,
 -0.179667l 0.44993, -0.179419l 0.44993, -0.179171l 0.44993, -0.178924l 0.44993, -0.178676l 0.44993, -0.178429l 0.44993, -0.178181l 0.44993, -0.177933l 0.44993, -0.177686l 0.44993, -0.177438l 0.44993, -0.177191l 0.44993, -0.176943l 0.44993,
 -0.176695l 0.44993, -0.176448l 0.44993, -0.1762l 0.44993, -0.175953l 0.44993, -0.175705l 0.44993, -0.175457l 0.44993, -0.17521l 0.44993, -0.174962l 0.44993, -0.174715l 0.44993, -0.174467l 0.44993, -0.174219l 0.44993, -0.173972l 0.44993, -0.173724l
 0.44993, -0.173477" fill="none" stroke="#ff0066" stroke-width="3"/>
<path d="M253.078,264.345l 0.44993, -0.173229l 0.44993, -0.172982l 0.44993, -0.172734l 0.44993, -0.172486l 0.44993, -0.172239l 0.44993, -0.171991l 0.44993, -0.171744l 0.44993, -0.171496l 0.44993, -0.171248l 0.44993, -0.171001l 0.44993, -0.170753l
 0.44993, -0.170506l 0.44993, -0.170258l 0.44993, -0.17001l 0.44993, -0.169763l 0.44993, -0.169515l 0.44993, -0.169268l 0.44993, -0.16902l 0.44993, -0.168772l 0.44993, -0.168525l 0.44993, -0.168277l 0.44993, -0.16803l 0.44993, -0.167782l 0.44993,
 -0.167534l 0.44993, -0.167287l 0.44993, -0.167039l 0.44993, -0.166792l 0.44993, -0.166544l 0.44993, -0.166296l 0.44993, -0.166049l 0.44993, -0.165801l 0.44993, -0.165554l 0.44993, -0.165306l 0.44993, -0.165058l 0.44993, -0.164811l 0.44993,
 -0.164563l 0.44993, -0.164316l 0.44993, -0.164068l 0.44993, -0.16382l 0.44993, -0.163573l 0.44993, -0.163325l 0.44993, -0.163078l 0.44993, -0.16283l 0.44993, -0.162582l 0.44993, -0.162335l 0.44993, -0.162087l 0.44993, -0.16184l 0.44993, -0.161592l
 0.44993, -0.161344" fill="none" stroke="#ff0066" stroke-width="3"/>
<path d="M275.124,256.148l 0.44993, -0.161097l 0.44993, -0.160849l 0.44993, -0.160602l 0.44993, -0.160354l 0.44993, -0.160106l 0.44993, -0.159859l 0.44993, -0.159611l 0.44993, -0.159364l 0.44993, -0.159116l 0.44993, -0.158868l 0.44993, -0.158621l
 0.44993, -0.158373l 0.44993, -0.158126l 0.44993, -0.157878l 0.44993, -0.157631l 0.44993, -0.157383l 0.44993, -0.157135l 0.44993, -0.156888l 0.44993, -0.15664l 0.44993, -0.156393l 0.44993, -0.156145l 0.44993, -0.155897l 0.44993, -0.15565l 0.44993,
 -0.155402l 0.44993, -0.155155l 0.44993, -0.154907l 0.44993, -0.154659l 0.44993, -0.154412l 0.44993, -0.154164l 0.44993, -0.153917l 0.44993, -0.153669l 0.44993, -0.153421l 0.44993, -0.153174l 0.44993, -0.152926l 0.44993, -0.152679l 0.44993,
 -0.152431l 0.44993, -0.152183l 0.44993, -0.151936l 0.44993, -0.151688l 0.44993, -0.151441l 0.44993, -0.151193l 0.44993, -0.150945l 0.44993, -0.150698l 0.44993, -0.15045l 0.44993, -0.150203l 0.44993, -0.149955l 0.44993, -0.149707l 0.44993, -0.14946l
 0.44993, -0.149212" fill="none" stroke="#ff0066" stroke-width="3"/>
<path d="M297.171,248.546l 0.44993, -0.148965l 0.44993, -0.148717l 0.44993, -0.148469l 0.44993, -0.148222l 0.44993, -0.147974l 0.44993, -0.147727l 0.44993, -0.147479l 0.44993, -0.147231l 0.44993, -0.146984l 0.44993, -0.146736l 0.44993, -0.146489l
 0.44993, -0.146241l 0.44993, -0.145993l 0.44993, -0.145746l 0.44993, -0.145498l 0.44993, -0.145251l 0.44993, -0.145003l 0.44993, -0.144755l 0.44993, -0.144508l 0.44993, -0.14426l 0.44993, -0.144013l 0.44993, -0.143765l 0.44993, -0.143518l 0.44993,
 -0.14327l 0.44993, -0.143022l 0.44993, -0.142775l 0.44993, -0.142527l 0.44993, -0.14228l 0.44993, -0.142032l 0.44993, -0.141784l 0.44993, -0.141537l 0.44993, -0.141289l 0.44993, -0.141042l 0.44993, -0.140794l 0.44993, -0.140546l 0.44993, -0.140299l
 0.44993, -0.140051l 0.44993, -0.139804l 0.44993, -0.139556l 0.44993, -0.139308l 0.44993, -0.139061l 0.44993, -0.138813l 0.44993, -0.138566l 0.44993, -0.138318l 0.44993, -0.13807l 0.44993, -0.137823l 0.44993, -0.137575l 0.44993, -0.137328l 0.44993,
 -0.13708" fill="none" stroke="#ff0066" stroke-width="3"/>
<path d="M319.217,241.537l 0.44993, -0.136832l 0.44993, -0.136585l 0.44993, -0.136337l 0.44993, -0.13609l 0.44993, -0.135842l 0.44993, -0.135594l 0.44993, -0.135347l 0.44993, -0.135099l 0.44993, -0.134852l 0.44993, -0.134604l 0.44993, -0.134356l
 0.44993, -0.134109l 0.44993, -0.133861l 0.44993, -0.133614l 0.44993, -0.133366l 0.44993, -0.133118l 0.44993, -0.132871l 0.44993, -0.132623l 0.44993, -0.132376l 0.44993, -0.132128l 0.44993, -0.13188l 0.44993, -0.131633l 0.44993, -0.131385l 0.44993,
 -0.131138l 0.44993, -0.13089l 0.44993, -0.130642l 0.44993, -0.130395l 0.44993, -0.130147l 0.44993, -0.1299l 0.44993, -0.129652l 0.44993, -0.129405l 0.44993, -0.129157l 0.44993, -0.128909l 0.44993, -0.128662l 0.44993, -0.128414l 0.44993, -0.128167l
 0.44993, -0.127919l 0.44993, -0.127671l 0.44993, -0.127424l 0.44993, -0.127176l 0.44993, -0.126929l 0.44993, -0.126681l 0.44993, -0.126433l 0.44993, -0.126186l 0.44993, -0.125938l 0.44993, -0.125691l 0.44993, -0.125443l 0.44993, -0.125195l 0.44993,
 -0.124948" fill="none" stroke="#ff0066" stroke-width="3"/>
<path d="M341.264,235.124l 0.44993, -0.1247l 0.44993, -0.124453l 0.44993, -0.124205l 0.44993, -0.123957l 0.44993, -0.12371l 0.44993, -0.123462l 0.44993, -0.123215l 0.44993, -0.122967l 0.44993, -0.122719l 0.44993, -0.122472l 0.44993, -0.122224l
 0.44993, -0.121977l 0.44993, -0.121729l 0.44993, -0.121481l 0.44993, -0.121234l 0.44993, -0.120986l 0.44993, -0.120739l 0.44993, -0.120491l 0.44993, -0.120243l 0.44993, -0.119996l 0.44993, -0.119748l 0.44993, -0.119501l 0.44993, -0.119253l 0.44993,
 -0.119005l 0.44993, -0.118758l 0.44993, -0.11851l 0.44993, -0.118263l 0.44993, -0.118015l 0.44993, -0.117767l 0.44993, -0.11752l 0.44993, -0.117272l 0.44993, -0.117025l 0.44993, -0.116777l 0.44993, -0.116529l 0.44993, -0.116282l 0.44993, -0.116034l
 0.44993, -0.115787l 0.44993, -0.115539l 0.44993, -0.115291l 0.44993, -0.115044l 0.44993, -0.114796l 0.44993, -0.114549l 0.44993, -0.114301l 0.44993, -0.114054l 0.44993, -0.113806l 0.44993, -0.113558l 0.44993, -0.113311l 0.44993, -0.113063l 0.44993,
 -0.112816" fill="none" stroke="#ff0066" stroke-width="3"/>
<path d="M363.311,229.305l 0.44993, -0.112568l 0.44993, -0.11232l 0.44993, -0.112073l 0.44993, -0.111825l 0.44993, -0.111578l 0.44993, -0.11133l 0.44993, -0.111082l 0.44993, -0.110835l 0.44993, -0.110587l 0.44993, -0.11034l 0.44993, -0.110092l
 0.44993, -0.109844l 0.44993, -0.109597l 0.44993, -0.109349l 0.44993, -0.109102l 0.44993, -0.108854l 0.44993, -0.108606l 0.44993, -0.108359l 0.44993, -0.108111l 0.44993, -0.107864l 0.44993, -0.107616l 0.44993, -0.107368l 0.44993, -0.107121l 0.44993,
 -0.106873l 0.44993, -0.106626l 0.44993, -0.106378l 0.44993, -0.10613l 0.44993, -0.105883l 0.44993, -0.105635l 0.44993, -0.105388l 0.44993, -0.10514l 0.44993, -0.104892l 0.44993, -0.104645l 0.44993, -0.104397l 0.44993, -0.10415l 0.44993, -0.103902l
 0.44993, -0.103654l 0.44993, -0.103407l 0.44993, -0.103159l 0.44993, -0.102912l 0.44993, -0.102664l 0.44993, -0.102416l 0.44993, -0.102169l 0.44993, -0.101921l 0.44993, -0.101674l 0.44993, -0.101426l 0.44993, -0.101178l 0.44993, -0.100931l 0.44993,
 -0.100683" fill="none" stroke="#ff0066" stroke-width="3"/>
<path d="M385.357,224.08l 0.44993, -0.100436l 0.44993, -0.100188l 0.44993, -0.0999405l 0.44993, -0.0996929l 0.44993, -0.0994453l 0.44993, -0.0991977l 0.44993, -0.0989501l 0.44993, -0.0987025l 0.44993, -0.0984549l 0.44993, -0.0982073l 0.44993,
 -0.0979597l 0.44993, -0.0977121l 0.44993, -0.0974645l 0.44993, -0.0972169l 0.44993, -0.0969693l 0.44993, -0.0967217l 0.44993, -0.0964741l 0.44993, -0.0962266l 0.44993, -0.095979l 0.44993, -0.0957314l 0.44993, -0.0954838l 0.44993, -0.0952362l
 0.44993, -0.0949886l 0.44993, -0.094741l 0.44993, -0.0944934l 0.44993, -0.0942458l 0.44993, -0.0939982l 0.44993, -0.0937506l 0.44993, -0.093503l 0.44993, -0.0932554l 0.44993, -0.0930078l 0.44993, -0.0927602l 0.44993, -0.0925126l 0.44993, -0.092265l
 0.44993, -0.0920174l 0.44993, -0.0917698l 0.44993, -0.0915222l 0.44993, -0.0912746l 0.44993, -0.091027l 0.44993, -0.0907794l 0.44993, -0.0905318l 0.44993, -0.0902842l 0.44993, -0.0900366l 0.44993, -0.089789l 0.44993, -0.0895414l 0.44993, -0.0892938l
 0.44993, -0.0890462l 0.44993, -0.0887987l 0.44993, -0.0885511" fill="none" stroke="#ff0066" stroke-width="3"/>
<path d="M407.404,219.45l 0.44993, -0.0883035l 0.44993, -0.0880559l 0.44993, -0.0878083l 0.44993, -0.0875607l 0.44993, -0.0873131l 0.44993, -0.0870655l 0.44993, -0.0868179l 0.44993, -0.0865703l 0.44993, -0.0863227l 0.44993, -0.0860751l 0.44993,
 -0.0858275l 0.44993, -0.0855799l 0.44993, -0.0853323l 0.44993, -0.0850847l 0.44993, -0.0848371l 0.44993, -0.0845895l 0.44993, -0.0843419l 0.44993, -0.0840943l 0.44993, -0.0838467l 0.44993, -0.0835991l 0.44993, -0.0833515l 0.44993, -0.0831039l
 0.44993, -0.0828563l 0.44993, -0.0826087l 0.44993, -0.0823611l 0.44993, -0.0821135l 0.44993, -0.081866l 0.44993, -0.0816184l 0.44993, -0.0813708l 0.44993, -0.0811232l 0.44993, -0.0808756l 0.44993, -0.080628l 0.44993, -0.0803804l 0.44993, -0.0801328l
 0.44993, -0.0798852l 0.44993, -0.0796376l 0.44993, -0.07939l 0.44993, -0.0791424l 0.44993, -0.0788948l 0.44993, -0.0786472l 0.44993, -0.0783996l 0.44993, -0.078152l 0.44993, -0.0779044l 0.44993, -0.0776568l 0.44993, -0.0774092l 0.44993, -0.0771616l
 0.44993, -0.076914l 0.44993, -0.0766664l 0.44993, -0.0764188" fill="none" stroke="#ff0066" stroke-width="3"/>
<path d="M429.45,215.414l 0.44993, -0.0761712l 0.44993, -0.0759236l 0.44993, -0.075676l 0.44993, -0.0754284l 0.44993, -0.0751808l 0.44993, -0.0749332l 0.44993, -0.0746856l 0.44993, -0.0744381l 0.44993, -0.0741905l 0.44993, -0.0739429l 0.44993,
 -0.0736953l 0.44993, -0.0734477l 0.44993, -0.0732001l 0.44993, -0.0729525l 0.44993, -0.0727049l 0.44993, -0.0724573l 0.44993, -0.0722097l 0.44993, -0.0719621l 0.44993, -0.0717145l 0.44993, -0.0714669l 0.44993, -0.0712193l 0.44993, -0.0709717l
 0.44993, -0.0707241l 0.44993, -0.0704765l 0.44993, -0.0702289l 0.44993, -0.0699813l 0.44993, -0.0697337l 0.44993, -0.0694861l 0.44993, -0.0692385l 0.44993, -0.0689909l 0.44993, -0.0687433l 0.44993, -0.0684957l 0.44993, -0.0682481l 0.44993,
 -0.0680005l 0.44993, -0.0677529l 0.44993, -0.0675053l 0.44993, -0.0672577l 0.44993, -0.0670101l 0.44993, -0.0667626l 0.44993, -0.066515l 0.44993, -0.0662674l 0.44993, -0.0660198l 0.44993, -0.0657722l 0.44993, -0.0655246l 0.44993, -0.065277l 0.44993,
 -0.0650294l 0.44993, -0.0647818l 0.44993, -0.0645342l 0.44993, -0.0642866" fill="none" stroke="#ff0066" stroke-width="3"/>
<path d="M451.497,211.973l 0.44993, -0.064039l 0.44993, -0.0637914l 0.44993, -0.0635438l 0.44993, -0.0632962l 0.44993, -0.0630486l 0.44993, -0.062801l 0.44993, -0.0625534l 0.44993, -0.0623058l 0.44993, -0.0620582l 0.44993, -0.0618106l 0.44993,
 -0.061563l 0.44993, -0.0613154l 0.44993, -0.0610678l 0.44993, -0.0608202l 0.44993, -0.0605726l 0.44993, -0.060325l 0.44993, -0.0600774l 0.44993, -0.0598298l 0.44993, -0.0595823l 0.44993, -0.0593347l 0.44993, -0.0590871l 0.44993, -0.0588395l 0.44993,
 -0.0585919l 0.44993, -0.0583443l 0.44993, -0.0580967l 0.44993, -0.0578491l 0.44993, -0.0576015l 0.44993, -0.0573539l 0.44993, -0.0571063l 0.44993, -0.0568587l 0.44993, -0.0566111l 0.44993, -0.0563635l 0.44993, -0.0561159l 0.44993, -0.0558683l
 0.44993, -0.0556207l 0.44993, -0.0553731l 0.44993, -0.0551255l 0.44993, -0.0548779l 0.44993, -0.0546303l 0.44993, -0.0543827l 0.44993, -0.0541351l 0.44993, -0.0538875l 0.44993, -0.0536399l 0.44993, -0.0533923l 0.44993, -0.0531447l 0.44993,
 -0.0528971l 0.44993, -0.0526495l 0.44993, -0.052402l 0.44993, -0.0521544" fill="none" stroke="#ff0066" stroke-width="3"/>
<path d="M473.543,209.126l 0.44993, -0.0519068l 0.44993, -0.0516592l 0.44993, -0.0514116l 0.44993, -0.051164l 0.44993, -0.0509164l 0.44993, -0.0506688l 0.44993, -0.0504212l 0.44993, -0.0501736l 0.44993, -0.049926l 0.44993, -0.0496784l 0.44993,
 -0.0494308l 0.44993, -0.0491832l 0.44993, -0.0489356l 0.44993, -0.048688l 0.44993, -0.0484404l 0.44993, -0.0481928l 0.44993, -0.0479452l 0.44993, -0.0476976l 0.44993, -0.04745l 0.44993, -0.0472024l 0.44993, -0.0469548l 0.44993, -0.0467072l 0.44993,
 -0.0464596l 0.44993, -0.046212l 0.44993, -0.0459644l 0.44993, -0.0457168l 0.44993, -0.0454692l 0.44993, -0.0452216l 0.44993, -0.0449741l 0.44993, -0.0447265l 0.44993, -0.0444789l 0.44993, -0.0442313l 0.44993, -0.0439837l 0.44993, -0.0437361l
 0.44993, -0.0434885l 0.44993, -0.0432409l 0.44993, -0.0429933l 0.44993, -0.0427457l 0.44993, -0.0424981l 0.44993, -0.0422505l 0.44993, -0.0420029l 0.44993, -0.0417553l 0.44993, -0.0415077l 0.44993, -0.0412601l 0.44993, -0.0410125l 0.44993,
 -0.0407649l 0.44993, -0.0405173l 0.44993, -0.0402697l 0.44993, -0.0400221" fill="none" stroke="#ff0066" stroke-width="3"/>
<path d="M495.59,206.874l 0.44993, -0.0397745l 0.44993, -0.0395269l 0.44993, -0.0392793l 0.44993, -0.0390317l 0.44993, -0.0387841l 0.44993, -0.0385365l 0.44993, -0.0382889l 0.44993, -0.0380413l 0.44993, -0.0377938l 0.44993, -0.0375462l 0.44993,
 -0.0372986l 0.44993, -0.037051l 0.44993, -0.0368034l 0.44993, -0.0365558l 0.44993, -0.0363082l 0.44993, -0.0360606l 0.44993, -0.035813l 0.44993, -0.0355654l 0.44993, -0.0353178l 0.44993, -0.0350702l 0.44993, -0.0348226l 0.44993, -0.034575l 0.44993,
 -0.0343274l 0.44993, -0.0340798l 0.44993, -0.0338322l 0.44993, -0.0335846l 0.44993, -0.033337l 0.44993, -0.0330894l 0.44993, -0.0328418l 0.44993, -0.0325942l 0.44993, -0.0323466l 0.44993, -0.032099l 0.44993, -0.0318514l 0.44993, -0.0316038l 0.44993,
 -0.0313562l 0.44993, -0.0311086l 0.44993, -0.030861l 0.44993, -0.0306135l 0.44993, -0.0303659l 0.44993, -0.0301183l 0.44993, -0.0298707l 0.44993, -0.0296231l 0.44993, -0.0293755l 0.44993, -0.0291279l 0.44993, -0.0288803l 0.44993, -0.0286327l
 0.44993, -0.0283851l 0.44993, -0.0281375l 0.44993, -0.0278899" fill="none" stroke="#ff0066" stroke-width="3"/>
<path d="M517.636,205.216l 0.44993, -0.0276423l 0.44993, -0.0273947l 0.44993, -0.0271471l 0.44993, -0.0268995l 0.44993, -0.0266519l 0.44993, -0.0264043l 0.44993, -0.0261567l 0.44993, -0.0259091l 0.44993, -0.0256615l 0.44993, -0.0254139l 0.44993,
 -0.0251663l 0.44993, -0.0249187l 0.44993, -0.0246711l 0.44993, -0.0244235l 0.44993, -0.0241759l 0.44993, -0.0239283l 0.44993, -0.0236807l 0.44993, -0.0234331l 0.44993, -0.0231856l 0.44993, -0.022938l 0.44993, -0.0226904l 0.44993, -0.0224428l
 0.44993, -0.0221952l 0.44993, -0.0219476l 0.44993, -0.0217l 0.44993, -0.0214524l 0.44993, -0.0212048l 0.44993, -0.0209572l 0.44993, -0.0207096l 0.44993, -0.020462l 0.44993, -0.0202144l 0.44993, -0.0199668l 0.44993, -0.0197192l 0.44993, -0.0194716l
 0.44993, -0.019224l 0.44993, -0.0189764l 0.44993, -0.0187288l 0.44993, -0.0184812l 0.44993, -0.0182336l 0.44993, -0.017986l 0.44993, -0.0177384l 0.44993, -0.0174908l 0.44993, -0.0172432l 0.44993, -0.0169956l 0.44993, -0.016748l 0.44993, -0.0165004l
 0.44993, -0.0162528l 0.44993, -0.0160052l 0.44993, -0.0157577" fill="none" stroke="#ff0066" stroke-width="3"/>
<path d="M539.683,204.153l 0.44993, -0.0155101l 0.44993, -0.0152625l 0.44993, -0.0150149l 0.44993, -0.0147673l 0.44993, -0.0145197l 0.44993, -0.0142721l 0.44993, -0.0140245l 0.44993, -0.0137769l 0.44993, -0.0135293l 0.44993, -0.0132817l 0.44993,
 -0.0130341l 0.44993, -0.0127865l 0.44993, -0.0125389l 0.44993, -0.0122913l 0.44993, -0.0120437l 0.44993, -0.0117961l 0.44993, -0.0115485l 0.44993, -0.0113009l 0.44993, -0.0110533" fill="none" stroke="#ff0066" stroke-width="3"/>
<path d="M236.505,21.4167h 251.961" fill="none" stroke="#999999" stroke-width="7"/>
<text xml:space="preserve" x="360.607" y="50.7193" fill="black" font-size="16.0105" font-family="Helvetica"> with EMC</text>
<text xml:space="preserve" x="352.717" y="50.7193" fill="black" font-size="16.0105" font-family="Times">&#0947;</text>
<text xml:space="preserve" x="344.828" y="50.7193" fill="black" font-size="16.0105" font-family="Times">&#0947;</text>
<text xml:space="preserve" x="336.938" y="50.7193" fill="black" font-size="16.0105" font-family="Times">&#0947;</text>
<text xml:space="preserve" x="331.866" y="50.7193" fill="black" font-size="16.0105" font-family="Helvetica"> </text>
<text xml:space="preserve" x="316.65" y="50.7193" fill="black" font-size="16.0105" font-family="Times">&#8594;</text>
<text xml:space="preserve" x="311.578" y="50.7193" fill="black" font-size="16.0105" font-family="Helvetica"> </text>
<text xml:space="preserve" x="303.689" y="50.7193" fill="black" font-size="16.0105" font-family="Times">&#0947;</text>
<text xml:space="preserve" x="298.053" y="45.0838" fill="black" font-size="10.8403" font-family="Helvetica">0</text>
<text xml:space="preserve" x="289.6" y="50.7193" fill="black" font-size="16.0105" font-family="Times">&#0960;</text>
<text xml:space="preserve" x="284.528" y="50.7193" fill="black" font-size="16.0105" font-family="Helvetica"> </text>
<text xml:space="preserve" x="269.312" y="50.7193" fill="black" font-size="16.0105" font-family="Times">&#8594;</text>
<text xml:space="preserve" x="264.24" y="50.7193" fill="black" font-size="16.0105" font-family="Helvetica"> </text>
<text xml:space="preserve" x="252.969" y="50.7193" fill="black" font-size="16.0105" font-family="Times">&#0969;</text>
<text xml:space="preserve" x="128.989" y="50.7193" fill="black" font-size="16.0105" font-family="Helvetica"> = 13 TeV (EG1), </text>
<text xml:space="preserve" x="120.536" y="50.7193" fill="black" font-size="16.0105" font-family="Helvetica" font-style="oblique">s</text>
<path d="M114.9,41.7025l 1.69064, 9.58031" fill="none" stroke="black" stroke-width="2"/>
<path d="M116.591,51.2829l 2.25419, -14.0887" fill="none" stroke="black"/>
<path d="M118.845,37.1942h 10.1439" fill="none" stroke="black"/>
<text xml:space="preserve" x="89.5406" y="50.7193" fill="black" font-size="16.0105" font-family="Helvetica">pp </text>
<text xml:space="preserve" x="89.5406" y="85.6593" fill="black" font-size="16.0105" font-family="Helvetica">ALICE work in progress</text>
<text xml:space="preserve" x="214.085" y="120.599" fill="black" font-size="16.0105" font-family="Helvetica">) &lt; 28.0</text>
<text xml:space="preserve" x="205.068" y="120.599" fill="black" font-size="16.0105" font-family="Helvetica" font-style="oblique">c</text>
<text xml:space="preserve" x="154.912" y="120.599" fill="black" font-size="16.0105" font-family="Helvetica"> /(GeV/</text>
<text xml:space="preserve" x="148.15" y="128.489" fill="black" font-size="10.8403" font-family="Helvetica">T</text>
<text xml:space="preserve" x="138.569" y="120.599" fill="black" font-size="16.0105" font-family="Helvetica" font-style="oblique">p</text>
<text xml:space="preserve" x="133.497" y="120.599" fill="black" font-size="16.0105" font-family="Helvetica"> </text>
<text xml:space="preserve" x="125.044" y="120.599" fill="black" font-size="16.0105" font-family="Times">&#8804;</text>
<text xml:space="preserve" x="89.5406" y="120.599" fill="black" font-size="16.0105" font-family="Helvetica">24.0 </text>
<rect x="312.311" y="69.1755" width="198.425" height="113.448" fill="white"/>
<text xml:space="preserve" x="361.734" y="85.0957" fill="black" font-size="16.0105" font-family="Helvetica">ratio</text>
<path d="M319.752,80.5203h 34.7244" fill="none" stroke="black" stroke-width="2"/>
<g fill="black">
<circle cx="337.114" cy="80.5203" r="6.76257"/>
</g>
<text xml:space="preserve" x="361.734" y="108.201" fill="black" font-size="16.0105" font-family="Helvetica">peak range</text>
<path d="M319.752,103.21h 34.7244" fill="none" stroke="#333333" stroke-width="2"/>
<g stroke="#333333" stroke-width="2" fill="none">
<circle cx="337.114" cy="103.21" r="5.63548"/>
</g>
<text xml:space="preserve" x="361.734" y="130.743" fill="black" font-size="16.0105" font-family="Helvetica">background pol1</text>
<path d="M319.752,125.899h 34.7244" fill="none" stroke="#33cccc" stroke-width="3"/>
<text xml:space="preserve" x="361.734" y="153.285" fill="black" font-size="16.0105" font-family="Helvetica">background pol2</text>
<path d="M319.752,148.589h 34.7244" fill="none" stroke="#ff0066" stroke-width="3"/>
<text xml:space="preserve" x="361.734" y="175.827" fill="black" font-size="16.0105" font-family="Helvetica">param. range</text>
<path d="M319.752,171.279h 34.7244" fill="none" stroke="#999999" stroke-width="7"/></svg>
