<?xml version="1.0" standalone="no"?>
<svg width="567.429" height="553.904" viewBox="0 0 567.429 553.904" xmlns="http://www.w3.org/2000/svg" shape-rendering="crispEdges">
<title>
MC/EG1/Pi0RotPS/SameEventAndBackgroundBeforeScaling_08.svg
</title>
<desc>
Creator: ROOT Version 6.20/08
CreationDate: Mon Mar 29 18:49:59 2021</desc>
<defs>
</defs>
<rect x="0.5" y="0" width="566.929" height="553.404" fill="white"/>
<rect x="57.1929" y="16.6021" width="496.063" height="481.461" fill="white"/>
<rect x="57.1929" y="16.6021" width="496.063" height="481.461" fill="none" stroke="black"/>
<rect x="57.1929" y="16.6021" width="496.063" height="481.461" fill="white"/>
<rect x="57.1929" y="16.6021" width="496.063" height="481.461" fill="none" stroke="black"/>
<g fill="#993333">
<rect x="94.4324" y="489.637" width="9.01677" height="9.01677"/>
</g>
<g fill="#993333">
<rect x="99.3439" y="461.14" width="9.01677" height="9.01677"/>
</g>
<g fill="#993333">
<rect x="104.255" y="439.97" width="9.01677" height="9.01677"/>
</g>
<g fill="#993333">
<rect x="109.167" y="446.78" width="9.01677" height="9.01677"/>
</g>
<g fill="#993333">
<rect x="114.078" y="472.008" width="9.01677" height="9.01677"/>
</g>
<g fill="#993333">
<rect x="118.99" y="477.484" width="9.01677" height="9.01677"/>
</g>
<g fill="#993333">
<rect x="123.901" y="431.25" width="9.01677" height="9.01677"/>
</g>
<g fill="#993333">
<rect x="128.813" y="394.757" width="9.01677" height="9.01677"/>
</g>
<g fill="#993333">
<rect x="133.725" y="390.113" width="9.01677" height="9.01677"/>
</g>
<g fill="#993333">
<rect x="138.636" y="376.738" width="9.01677" height="9.01677"/>
</g>
<g fill="#993333">
<rect x="143.548" y="358.254" width="9.01677" height="9.01677"/>
</g>
<g fill="#993333">
<rect x="148.459" y="341.134" width="9.01677" height="9.01677"/>
</g>
<g fill="#993333">
<rect x="153.371" y="325.466" width="9.01677" height="9.01677"/>
</g>
<g fill="#993333">
<rect x="158.282" y="310.958" width="9.01677" height="9.01677"/>
</g>
<g fill="#993333">
<rect x="163.194" y="297.685" width="9.01677" height="9.01677"/>
</g>
<g fill="#993333">
<rect x="168.105" y="282.834" width="9.01677" height="9.01677"/>
</g>
<g fill="#993333">
<rect x="173.017" y="273.898" width="9.01677" height="9.01677"/>
</g>
<g fill="#993333">
<rect x="177.928" y="261.804" width="9.01677" height="9.01677"/>
</g>
<g fill="#993333">
<rect x="182.84" y="255.233" width="9.01677" height="9.01677"/>
</g>
<g fill="#993333">
<rect x="187.751" y="249.305" width="9.01677" height="9.01677"/>
</g>
<g fill="#993333">
<rect x="192.663" y="243.586" width="9.01677" height="9.01677"/>
</g>
<g fill="#993333">
<rect x="197.574" y="239.69" width="9.01677" height="9.01677"/>
</g>
<g fill="#993333">
<rect x="202.486" y="237.263" width="9.01677" height="9.01677"/>
</g>
<g fill="#993333">
<rect x="207.397" y="235.52" width="9.01677" height="9.01677"/>
</g>
<g fill="#993333">
<rect x="212.309" y="232.704" width="9.01677" height="9.01677"/>
</g>
<g fill="#993333">
<rect x="217.22" y="231.862" width="9.01677" height="9.01677"/>
</g>
<g fill="#993333">
<rect x="222.132" y="228.567" width="9.01677" height="9.01677"/>
</g>
<g fill="#993333">
<rect x="227.043" y="227.807" width="9.01677" height="9.01677"/>
</g>
<g fill="#993333">
<rect x="231.955" y="227.075" width="9.01677" height="9.01677"/>
</g>
<g fill="#993333">
<rect x="236.866" y="226.077" width="9.01677" height="9.01677"/>
</g>
<g fill="#993333">
<rect x="241.778" y="227.52" width="9.01677" height="9.01677"/>
</g>
<g fill="#993333">
<rect x="246.689" y="229.97" width="9.01677" height="9.01677"/>
</g>
<g fill="#993333">
<rect x="251.601" y="231.425" width="9.01677" height="9.01677"/>
</g>
<g fill="#993333">
<rect x="256.512" y="234.953" width="9.01677" height="9.01677"/>
</g>
<g fill="#993333">
<rect x="261.424" y="236.697" width="9.01677" height="9.01677"/>
</g>
<g fill="#993333">
<rect x="266.335" y="239.891" width="9.01677" height="9.01677"/>
</g>
<g fill="#993333">
<rect x="271.247" y="243.169" width="9.01677" height="9.01677"/>
</g>
<g fill="#993333">
<rect x="276.158" y="246.587" width="9.01677" height="9.01677"/>
</g>
<g fill="#993333">
<rect x="281.07" y="249.743" width="9.01677" height="9.01677"/>
</g>
<g fill="#993333">
<rect x="285.981" y="254.359" width="9.01677" height="9.01677"/>
</g>
<g fill="#993333">
<rect x="290.893" y="258.807" width="9.01677" height="9.01677"/>
</g>
<g fill="#993333">
<rect x="295.805" y="262.52" width="9.01677" height="9.01677"/>
</g>
<g fill="#993333">
<rect x="300.716" y="266.618" width="9.01677" height="9.01677"/>
</g>
<g fill="#993333">
<rect x="305.628" y="271.125" width="9.01677" height="9.01677"/>
</g>
<g fill="#993333">
<rect x="310.539" y="276.339" width="9.01677" height="9.01677"/>
</g>
<g fill="#993333">
<rect x="315.451" y="281.12" width="9.01677" height="9.01677"/>
</g>
<g fill="#993333">
<rect x="320.362" y="284.632" width="9.01677" height="9.01677"/>
</g>
<g fill="#993333">
<rect x="325.274" y="290.228" width="9.01677" height="9.01677"/>
</g>
<g fill="#993333">
<rect x="330.185" y="294.996" width="9.01677" height="9.01677"/>
</g>
<g fill="#993333">
<rect x="335.097" y="299.284" width="9.01677" height="9.01677"/>
</g>
<g fill="#993333">
<rect x="340.008" y="303.999" width="9.01677" height="9.01677"/>
</g>
<g fill="#993333">
<rect x="344.92" y="309.904" width="9.01677" height="9.01677"/>
</g>
<g fill="#993333">
<rect x="349.831" y="314.292" width="9.01677" height="9.01677"/>
</g>
<g fill="#993333">
<rect x="354.743" y="318.822" width="9.01677" height="9.01677"/>
</g>
<g fill="#993333">
<rect x="359.654" y="323.224" width="9.01677" height="9.01677"/>
</g>
<g fill="#993333">
<rect x="364.566" y="327.996" width="9.01677" height="9.01677"/>
</g>
<g fill="#993333">
<rect x="369.477" y="332.069" width="9.01677" height="9.01677"/>
</g>
<g fill="#993333">
<rect x="374.389" y="336.945" width="9.01677" height="9.01677"/>
</g>
<g fill="#993333">
<rect x="379.3" y="341.342" width="9.01677" height="9.01677"/>
</g>
<g fill="#993333">
<rect x="384.212" y="344.775" width="9.01677" height="9.01677"/>
</g>
<g fill="#993333">
<rect x="389.123" y="348.383" width="9.01677" height="9.01677"/>
</g>
<g fill="#993333">
<rect x="394.035" y="353.56" width="9.01677" height="9.01677"/>
</g>
<g fill="#993333">
<rect x="398.946" y="356.88" width="9.01677" height="9.01677"/>
</g>
<g fill="#993333">
<rect x="403.858" y="361.169" width="9.01677" height="9.01677"/>
</g>
<g fill="#993333">
<rect x="408.769" y="364.492" width="9.01677" height="9.01677"/>
</g>
<g fill="#993333">
<rect x="413.681" y="367.774" width="9.01677" height="9.01677"/>
</g>
<g fill="#993333">
<rect x="418.592" y="371.418" width="9.01677" height="9.01677"/>
</g>
<g fill="#993333">
<rect x="423.504" y="374.759" width="9.01677" height="9.01677"/>
</g>
<g fill="#993333">
<rect x="428.415" y="377.986" width="9.01677" height="9.01677"/>
</g>
<g fill="#993333">
<rect x="433.327" y="380.952" width="9.01677" height="9.01677"/>
</g>
<g fill="#993333">
<rect x="438.238" y="384.503" width="9.01677" height="9.01677"/>
</g>
<g fill="#993333">
<rect x="443.15" y="387.532" width="9.01677" height="9.01677"/>
</g>
<g fill="#993333">
<rect x="448.061" y="390.166" width="9.01677" height="9.01677"/>
</g>
<g fill="#993333">
<rect x="452.973" y="392.584" width="9.01677" height="9.01677"/>
</g>
<g fill="#993333">
<rect x="457.884" y="395.545" width="9.01677" height="9.01677"/>
</g>
<g fill="#993333">
<rect x="462.796" y="397.97" width="9.01677" height="9.01677"/>
</g>
<g fill="#993333">
<rect x="467.708" y="400.13" width="9.01677" height="9.01677"/>
</g>
<g fill="#993333">
<rect x="472.619" y="403.311" width="9.01677" height="9.01677"/>
</g>
<g fill="#993333">
<rect x="477.531" y="405.728" width="9.01677" height="9.01677"/>
</g>
<g fill="#993333">
<rect x="482.442" y="408.007" width="9.01677" height="9.01677"/>
</g>
<g fill="#993333">
<rect x="487.354" y="409.54" width="9.01677" height="9.01677"/>
</g>
<g fill="#993333">
<rect x="492.265" y="412.232" width="9.01677" height="9.01677"/>
</g>
<g fill="#993333">
<rect x="497.177" y="413.979" width="9.01677" height="9.01677"/>
</g>
<g fill="#993333">
<rect x="502.088" y="416.16" width="9.01677" height="9.01677"/>
</g>
<g fill="#993333">
<rect x="507" y="417.794" width="9.01677" height="9.01677"/>
</g>
<g fill="#993333">
<rect x="511.911" y="419.804" width="9.01677" height="9.01677"/>
</g>
<g fill="#993333">
<rect x="516.823" y="421.59" width="9.01677" height="9.01677"/>
</g>
<g fill="#993333">
<rect x="521.734" y="423.827" width="9.01677" height="9.01677"/>
</g>
<g fill="#993333">
<rect x="526.646" y="424.754" width="9.01677" height="9.01677"/>
</g>
<g fill="#993333">
<rect x="531.557" y="426.984" width="9.01677" height="9.01677"/>
</g>
<g fill="#993333">
<rect x="536.469" y="427.566" width="9.01677" height="9.01677"/>
</g>
<g fill="#993333">
<rect x="541.38" y="429.634" width="9.01677" height="9.01677"/>
</g>
<path d="M57.1929,498.064h 496.063" fill="none" stroke="black"/>
<path d="M57.1929,483.537v 14.5269" fill="none" stroke="black"/>
<path d="M72.5414,490.8v 7.26343" fill="none" stroke="black"/>
<path d="M87.8899,490.8v 7.26343" fill="none" stroke="black"/>
<path d="M103.238,490.8v 7.26343" fill="none" stroke="black"/>
<path d="M118.587,483.537v 14.5269" fill="none" stroke="black"/>
<path d="M133.935,490.8v 7.26343" fill="none" stroke="black"/>
<path d="M149.284,490.8v 7.26343" fill="none" stroke="black"/>
<path d="M164.632,490.8v 7.26343" fill="none" stroke="black"/>
<path d="M179.981,483.537v 14.5269" fill="none" stroke="black"/>
<path d="M195.329,490.8v 7.26343" fill="none" stroke="black"/>
<path d="M210.678,490.8v 7.26343" fill="none" stroke="black"/>
<path d="M226.026,490.8v 7.26343" fill="none" stroke="black"/>
<path d="M241.375,483.537v 14.5269" fill="none" stroke="black"/>
<path d="M256.723,490.8v 7.26343" fill="none" stroke="black"/>
<path d="M272.072,490.8v 7.26343" fill="none" stroke="black"/>
<path d="M287.42,490.8v 7.26343" fill="none" stroke="black"/>
<path d="M302.769,483.537v 14.5269" fill="none" stroke="black"/>
<path d="M318.117,490.8v 7.26343" fill="none" stroke="black"/>
<path d="M333.466,490.8v 7.26343" fill="none" stroke="black"/>
<path d="M348.814,490.8v 7.26343" fill="none" stroke="black"/>
<path d="M364.163,483.537v 14.5269" fill="none" stroke="black"/>
<path d="M379.511,490.8v 7.26343" fill="none" stroke="black"/>
<path d="M394.86,490.8v 7.26343" fill="none" stroke="black"/>
<path d="M410.208,490.8v 7.26343" fill="none" stroke="black"/>
<path d="M425.557,483.537v 14.5269" fill="none" stroke="black"/>
<path d="M440.905,490.8v 7.26343" fill="none" stroke="black"/>
<path d="M456.253,490.8v 7.26343" fill="none" stroke="black"/>
<path d="M471.602,490.8v 7.26343" fill="none" stroke="black"/>
<path d="M486.95,483.537v 14.5269" fill="none" stroke="black"/>
<path d="M502.299,490.8v 7.26343" fill="none" stroke="black"/>
<path d="M517.647,490.8v 7.26343" fill="none" stroke="black"/>
<path d="M532.996,490.8v 7.26343" fill="none" stroke="black"/>
<path d="M548.344,483.537v 14.5269" fill="none" stroke="black"/>
<path d="M548.344,483.537v 14.5269" fill="none" stroke="black"/>
<text xml:space="preserve" x="52.3464" y="513.956" fill="black" font-size="16.0105" font-family="Helvetica">0</text>
<text xml:space="preserve" x="107.574" y="513.956" fill="black" font-size="16.0105" font-family="Helvetica">0.2</text>
<text xml:space="preserve" x="169.001" y="513.956" fill="black" font-size="16.0105" font-family="Helvetica">0.4</text>
<text xml:space="preserve" x="230.428" y="513.956" fill="black" font-size="16.0105" font-family="Helvetica">0.6</text>
<text xml:space="preserve" x="291.854" y="513.956" fill="black" font-size="16.0105" font-family="Helvetica">0.8</text>
<text xml:space="preserve" x="361.171" y="513.956" fill="black" font-size="16.0105" font-family="Helvetica">1</text>
<text xml:space="preserve" x="414.708" y="513.956" fill="black" font-size="16.0105" font-family="Helvetica">1.2</text>
<text xml:space="preserve" x="476.134" y="513.956" fill="black" font-size="16.0105" font-family="Helvetica">1.4</text>
<text xml:space="preserve" x="537.561" y="513.956" fill="black" font-size="16.0105" font-family="Helvetica">1.6</text>
<text xml:space="preserve" x="548.268" y="537.625" fill="black" font-size="16.0105" font-family="Helvetica">)</text>
<text xml:space="preserve" x="542.633" y="532.553" fill="black" font-size="10.8403" font-family="Helvetica">2</text>
<text xml:space="preserve" x="533.616" y="537.625" fill="black" font-size="16.0105" font-family="Helvetica" font-style="oblique">c</text>
<text xml:space="preserve" x="487.405" y="537.625" fill="black" font-size="16.0105" font-family="Helvetica"> (GeV/</text>
<text xml:space="preserve" x="473.317" y="542.697" fill="black" font-size="10.8403" font-family="Helvetica">inv</text>
<text xml:space="preserve" x="459.792" y="537.625" fill="black" font-size="16.0105" font-family="Helvetica" font-style="oblique">m</text>
<path d="M57.1929,16.6021h 496.063" fill="none" stroke="black"/>
<path d="M57.1929,31.129v -14.5269" fill="none" stroke="black"/>
<path d="M72.5414,23.8655v -7.26343" fill="none" stroke="black"/>
<path d="M87.8899,23.8655v -7.26343" fill="none" stroke="black"/>
<path d="M103.238,23.8655v -7.26343" fill="none" stroke="black"/>
<path d="M118.587,31.129v -14.5269" fill="none" stroke="black"/>
<path d="M133.935,23.8655v -7.26343" fill="none" stroke="black"/>
<path d="M149.284,23.8655v -7.26343" fill="none" stroke="black"/>
<path d="M164.632,23.8655v -7.26343" fill="none" stroke="black"/>
<path d="M179.981,31.129v -14.5269" fill="none" stroke="black"/>
<path d="M195.329,23.8655v -7.26343" fill="none" stroke="black"/>
<path d="M210.678,23.8655v -7.26343" fill="none" stroke="black"/>
<path d="M226.026,23.8655v -7.26343" fill="none" stroke="black"/>
<path d="M241.375,31.129v -14.5269" fill="none" stroke="black"/>
<path d="M256.723,23.8655v -7.26343" fill="none" stroke="black"/>
<path d="M272.072,23.8655v -7.26343" fill="none" stroke="black"/>
<path d="M287.42,23.8655v -7.26343" fill="none" stroke="black"/>
<path d="M302.769,31.129v -14.5269" fill="none" stroke="black"/>
<path d="M318.117,23.8655v -7.26343" fill="none" stroke="black"/>
<path d="M333.466,23.8655v -7.26343" fill="none" stroke="black"/>
<path d="M348.814,23.8655v -7.26343" fill="none" stroke="black"/>
<path d="M364.163,31.129v -14.5269" fill="none" stroke="black"/>
<path d="M379.511,23.8655v -7.26343" fill="none" stroke="black"/>
<path d="M394.86,23.8655v -7.26343" fill="none" stroke="black"/>
<path d="M410.208,23.8655v -7.26343" fill="none" stroke="black"/>
<path d="M425.557,31.129v -14.5269" fill="none" stroke="black"/>
<path d="M440.905,23.8655v -7.26343" fill="none" stroke="black"/>
<path d="M456.253,23.8655v -7.26343" fill="none" stroke="black"/>
<path d="M471.602,23.8655v -7.26343" fill="none" stroke="black"/>
<path d="M486.95,31.129v -14.5269" fill="none" stroke="black"/>
<path d="M502.299,23.8655v -7.26343" fill="none" stroke="black"/>
<path d="M517.647,23.8655v -7.26343" fill="none" stroke="black"/>
<path d="M532.996,23.8655v -7.26343" fill="none" stroke="black"/>
<path d="M548.344,31.129v -14.5269" fill="none" stroke="black"/>
<path d="M548.344,31.129v -14.5269" fill="none" stroke="black"/>
<path d="M57.1929,498.064v -481.461" fill="none" stroke="black"/>
<path d="M71.9898,498.064h -14.7969" fill="none" stroke="black"/>
<path d="M64.5913,482.858h -7.39843" fill="none" stroke="black"/>
<path d="M64.5913,467.652h -7.39843" fill="none" stroke="black"/>
<path d="M64.5913,452.447h -7.39843" fill="none" stroke="black"/>
<path d="M64.5913,437.241h -7.39843" fill="none" stroke="black"/>
<path d="M71.9898,422.035h -14.7969" fill="none" stroke="black"/>
<path d="M64.5913,406.83h -7.39843" fill="none" stroke="black"/>
<path d="M64.5913,391.624h -7.39843" fill="none" stroke="black"/>
<path d="M64.5913,376.418h -7.39843" fill="none" stroke="black"/>
<path d="M64.5913,361.213h -7.39843" fill="none" stroke="black"/>
<path d="M71.9898,346.007h -14.7969" fill="none" stroke="black"/>
<path d="M64.5913,330.801h -7.39843" fill="none" stroke="black"/>
<path d="M64.5913,315.596h -7.39843" fill="none" stroke="black"/>
<path d="M64.5913,300.39h -7.39843" fill="none" stroke="black"/>
<path d="M64.5913,285.184h -7.39843" fill="none" stroke="black"/>
<path d="M71.9898,269.979h -14.7969" fill="none" stroke="black"/>
<path d="M64.5913,254.773h -7.39843" fill="none" stroke="black"/>
<path d="M64.5913,239.567h -7.39843" fill="none" stroke="black"/>
<path d="M64.5913,224.362h -7.39843" fill="none" stroke="black"/>
<path d="M64.5913,209.156h -7.39843" fill="none" stroke="black"/>
<path d="M71.9898,193.95h -14.7969" fill="none" stroke="black"/>
<path d="M64.5913,178.745h -7.39843" fill="none" stroke="black"/>
<path d="M64.5913,163.539h -7.39843" fill="none" stroke="black"/>
<path d="M64.5913,148.333h -7.39843" fill="none" stroke="black"/>
<path d="M64.5913,133.128h -7.39843" fill="none" stroke="black"/>
<path d="M71.9898,117.922h -14.7969" fill="none" stroke="black"/>
<path d="M64.5913,102.716h -7.39843" fill="none" stroke="black"/>
<path d="M64.5913,87.5108h -7.39843" fill="none" stroke="black"/>
<path d="M64.5913,72.3052h -7.39843" fill="none" stroke="black"/>
<path d="M64.5913,57.0995h -7.39843" fill="none" stroke="black"/>
<path d="M71.9898,41.8939h -14.7969" fill="none" stroke="black"/>
<path d="M71.9898,41.8939h -14.7969" fill="none" stroke="black"/>
<path d="M64.5913,26.6882h -7.39843" fill="none" stroke="black"/>
<text xml:space="preserve" x="45.5838" y="503.248" fill="black" font-size="16.0105" font-family="Helvetica">0</text>
<text xml:space="preserve" x="37.1306" y="427.169" fill="black" font-size="16.0105" font-family="Helvetica">50</text>
<text xml:space="preserve" x="28.1138" y="351.09" fill="black" font-size="16.0105" font-family="Helvetica">100</text>
<text xml:space="preserve" x="28.1138" y="275.575" fill="black" font-size="16.0105" font-family="Helvetica">150</text>
<text xml:space="preserve" x="28.1138" y="199.496" fill="black" font-size="16.0105" font-family="Helvetica">200</text>
<text xml:space="preserve" x="28.1138" y="123.417" fill="black" font-size="16.0105" font-family="Helvetica">250</text>
<text xml:space="preserve" x="28.1138" y="47.338" fill="black" font-size="16.0105" font-family="Helvetica">300</text>
<g transform="rotate(-90,22.4784,21.9784)">
<text xml:space="preserve" x="22.4784" y="21.9784" fill="black" font-size="10.8403" font-family="Times">&#0947;</text>
</g>
<g transform="rotate(-90,18.5335,25.9232)">
<text xml:space="preserve" x="18.5335" y="25.9232" fill="black" font-size="7.39355" font-family="Helvetica">0</text>
</g>
<g transform="rotate(-90,22.4784,32.1222)">
<text xml:space="preserve" x="22.4784" y="32.1222" fill="black" font-size="10.8403" font-family="Times">&#0960;</text>
</g>
<g transform="rotate(-90,17.4064,45.0838)">
<text xml:space="preserve" x="17.4064" y="45.0838" fill="black" font-size="16.0105" font-family="Helvetica" font-style="oblique">N</text>
</g>
<path d="M553.256,498.064v -481.461" fill="none" stroke="black"/>
<path d="M538.459,498.064h 14.7969" fill="none" stroke="black"/>
<path d="M545.857,482.858h 7.39843" fill="none" stroke="black"/>
<path d="M545.857,467.652h 7.39843" fill="none" stroke="black"/>
<path d="M545.857,452.447h 7.39843" fill="none" stroke="black"/>
<path d="M545.857,437.241h 7.39843" fill="none" stroke="black"/>
<path d="M538.459,422.035h 14.7969" fill="none" stroke="black"/>
<path d="M545.857,406.83h 7.39843" fill="none" stroke="black"/>
<path d="M545.857,391.624h 7.39843" fill="none" stroke="black"/>
<path d="M545.857,376.418h 7.39843" fill="none" stroke="black"/>
<path d="M545.857,361.213h 7.39843" fill="none" stroke="black"/>
<path d="M538.459,346.007h 14.7969" fill="none" stroke="black"/>
<path d="M545.857,330.801h 7.39843" fill="none" stroke="black"/>
<path d="M545.857,315.596h 7.39843" fill="none" stroke="black"/>
<path d="M545.857,300.39h 7.39843" fill="none" stroke="black"/>
<path d="M545.857,285.184h 7.39843" fill="none" stroke="black"/>
<path d="M538.459,269.979h 14.7969" fill="none" stroke="black"/>
<path d="M545.857,254.773h 7.39843" fill="none" stroke="black"/>
<path d="M545.857,239.567h 7.39843" fill="none" stroke="black"/>
<path d="M545.857,224.362h 7.39843" fill="none" stroke="black"/>
<path d="M545.857,209.156h 7.39843" fill="none" stroke="black"/>
<path d="M538.459,193.95h 14.7969" fill="none" stroke="black"/>
<path d="M545.857,178.745h 7.39843" fill="none" stroke="black"/>
<path d="M545.857,163.539h 7.39843" fill="none" stroke="black"/>
<path d="M545.857,148.333h 7.39843" fill="none" stroke="black"/>
<path d="M545.857,133.128h 7.39843" fill="none" stroke="black"/>
<path d="M538.459,117.922h 14.7969" fill="none" stroke="black"/>
<path d="M545.857,102.716h 7.39843" fill="none" stroke="black"/>
<path d="M545.857,87.5108h 7.39843" fill="none" stroke="black"/>
<path d="M545.857,72.3052h 7.39843" fill="none" stroke="black"/>
<path d="M545.857,57.0995h 7.39843" fill="none" stroke="black"/>
<path d="M538.459,41.8939h 14.7969" fill="none" stroke="black"/>
<path d="M538.459,41.8939h 14.7969" fill="none" stroke="black"/>
<path d="M545.857,26.6882h 7.39843" fill="none" stroke="black"/>
<g fill="black">
<circle cx="103.852" cy="497.956" r="4.50838"/>
</g>
<g fill="black">
<circle cx="108.764" cy="495.515" r="4.50838"/>
</g>
<g fill="black">
<circle cx="113.675" cy="492.495" r="4.50838"/>
</g>
<g fill="black">
<circle cx="118.587" cy="494.88" r="4.50838"/>
</g>
<g fill="black">
<circle cx="123.498" cy="496.754" r="4.50838"/>
</g>
<g fill="black">
<circle cx="128.41" cy="488.068" r="4.50838"/>
</g>
<g fill="black">
<circle cx="133.321" cy="480.244" r="4.50838"/>
</g>
<g fill="black">
<circle cx="138.233" cy="480.97" r="4.50838"/>
</g>
<g fill="black">
<circle cx="143.144" cy="476.903" r="4.50838"/>
</g>
<g fill="black">
<circle cx="148.056" cy="473.064" r="4.50838"/>
</g>
<g fill="black">
<circle cx="152.967" cy="470.151" r="4.50838"/>
</g>
<g fill="black">
<circle cx="157.879" cy="468.001" r="4.50838"/>
</g>
<g fill="black">
<circle cx="162.79" cy="466.187" r="4.50838"/>
</g>
<g fill="black">
<circle cx="167.702" cy="464.102" r="4.50838"/>
</g>
<g fill="black">
<circle cx="172.614" cy="462.814" r="4.50838"/>
</g>
<g fill="black">
<circle cx="177.525" cy="461.913" r="4.50838"/>
</g>
<g fill="black">
<circle cx="182.437" cy="460.568" r="4.50838"/>
</g>
<g fill="black">
<circle cx="187.348" cy="460.12" r="4.50838"/>
</g>
<g fill="black">
<circle cx="192.26" cy="459.316" r="4.50838"/>
</g>
<g fill="black">
<circle cx="197.171" cy="458.782" r="4.50838"/>
</g>
<g fill="black">
<circle cx="202.083" cy="458.17" r="4.50838"/>
</g>
<g fill="black">
<circle cx="206.994" cy="458.515" r="4.50838"/>
</g>
<g fill="black">
<circle cx="211.906" cy="457.97" r="4.50838"/>
</g>
<g fill="black">
<circle cx="216.817" cy="457.168" r="4.50838"/>
</g>
<g fill="black">
<circle cx="221.729" cy="457.117" r="4.50838"/>
</g>
<g fill="black">
<circle cx="226.64" cy="457.051" r="4.50838"/>
</g>
<g fill="black">
<circle cx="231.552" cy="456.645" r="4.50838"/>
</g>
<g fill="black">
<circle cx="236.463" cy="456.083" r="4.50838"/>
</g>
<g fill="black">
<circle cx="241.375" cy="455.804" r="4.50838"/>
</g>
<g fill="black">
<circle cx="246.286" cy="456.25" r="4.50838"/>
</g>
<g fill="black">
<circle cx="251.198" cy="456.669" r="4.50838"/>
</g>
<g fill="black">
<circle cx="256.109" cy="456.867" r="4.50838"/>
</g>
<g fill="black">
<circle cx="261.021" cy="457.001" r="4.50838"/>
</g>
<g fill="black">
<circle cx="265.932" cy="458.303" r="4.50838"/>
</g>
<g fill="black">
<circle cx="270.844" cy="458.103" r="4.50838"/>
</g>
<g fill="black">
<circle cx="275.755" cy="458.826" r="4.50838"/>
</g>
<g fill="black">
<circle cx="280.667" cy="459.51" r="4.50838"/>
</g>
<g fill="black">
<circle cx="285.578" cy="459.214" r="4.50838"/>
</g>
<g fill="black">
<circle cx="290.49" cy="459.695" r="4.50838"/>
</g>
<g fill="black">
<circle cx="295.401" cy="460.082" r="4.50838"/>
</g>
<g fill="black">
<circle cx="300.313" cy="461.088" r="4.50838"/>
</g>
<g fill="black">
<circle cx="305.224" cy="462.208" r="4.50838"/>
</g>
<g fill="black">
<circle cx="310.136" cy="463.278" r="4.50838"/>
</g>
<g fill="black">
<circle cx="315.047" cy="464.576" r="4.50838"/>
</g>
<g fill="black">
<circle cx="319.959" cy="465.175" r="4.50838"/>
</g>
<g fill="black">
<circle cx="324.87" cy="465.831" r="4.50838"/>
</g>
<g fill="black">
<circle cx="329.782" cy="466.859" r="4.50838"/>
</g>
<g fill="black">
<circle cx="334.694" cy="467.492" r="4.50838"/>
</g>
<g fill="black">
<circle cx="339.605" cy="468.497" r="4.50838"/>
</g>
<g fill="black">
<circle cx="344.517" cy="469.288" r="4.50838"/>
</g>
<g fill="black">
<circle cx="349.428" cy="470.037" r="4.50838"/>
</g>
<g fill="black">
<circle cx="354.34" cy="471.046" r="4.50838"/>
</g>
<g fill="black">
<circle cx="359.251" cy="471.615" r="4.50838"/>
</g>
<g fill="black">
<circle cx="364.163" cy="472.128" r="4.50838"/>
</g>
<g fill="black">
<circle cx="369.074" cy="473.046" r="4.50838"/>
</g>
<g fill="black">
<circle cx="373.986" cy="473.412" r="4.50838"/>
</g>
<g fill="black">
<circle cx="378.897" cy="474.184" r="4.50838"/>
</g>
<g fill="black">
<circle cx="383.809" cy="475.082" r="4.50838"/>
</g>
<g fill="black">
<circle cx="388.72" cy="475.52" r="4.50838"/>
</g>
<g fill="black">
<circle cx="393.632" cy="476.414" r="4.50838"/>
</g>
<g fill="black">
<circle cx="398.543" cy="476.739" r="4.50838"/>
</g>
<g fill="black">
<circle cx="403.455" cy="477.371" r="4.50838"/>
</g>
<g fill="black">
<circle cx="408.366" cy="477.96" r="4.50838"/>
</g>
<g fill="black">
<circle cx="413.278" cy="478.726" r="4.50838"/>
</g>
<g fill="black">
<circle cx="418.189" cy="479.23" r="4.50838"/>
</g>
<g fill="black">
<circle cx="423.101" cy="479.777" r="4.50838"/>
</g>
<g fill="black">
<circle cx="428.012" cy="480.244" r="4.50838"/>
</g>
<g fill="black">
<circle cx="432.924" cy="480.622" r="4.50838"/>
</g>
<g fill="black">
<circle cx="437.835" cy="481.226" r="4.50838"/>
</g>
<g fill="black">
<circle cx="442.747" cy="481.707" r="4.50838"/>
</g>
<g fill="black">
<circle cx="447.658" cy="482.184" r="4.50838"/>
</g>
<g fill="black">
<circle cx="452.57" cy="482.977" r="4.50838"/>
</g>
<g fill="black">
<circle cx="457.481" cy="483.348" r="4.50838"/>
</g>
<g fill="black">
<circle cx="462.393" cy="483.766" r="4.50838"/>
</g>
<g fill="black">
<circle cx="467.304" cy="484.05" r="4.50838"/>
</g>
<g fill="black">
<circle cx="472.216" cy="484.49" r="4.50838"/>
</g>
<g fill="black">
<circle cx="477.127" cy="484.858" r="4.50838"/>
</g>
<g fill="black">
<circle cx="482.039" cy="485.198" r="4.50838"/>
</g>
<g fill="black">
<circle cx="486.95" cy="485.851" r="4.50838"/>
</g>
<g fill="black">
<circle cx="491.862" cy="486.01" r="4.50838"/>
</g>
<g fill="black">
<circle cx="496.773" cy="486.329" r="4.50838"/>
</g>
<g fill="black">
<circle cx="501.685" cy="486.433" r="4.50838"/>
</g>
<g fill="black">
<circle cx="506.597" cy="486.844" r="4.50838"/>
</g>
<g fill="black">
<circle cx="511.508" cy="487.105" r="4.50838"/>
</g>
<g fill="black">
<circle cx="516.42" cy="487.602" r="4.50838"/>
</g>
<g fill="black">
<circle cx="521.331" cy="487.795" r="4.50838"/>
</g>
<g fill="black">
<circle cx="526.243" cy="488.233" r="4.50838"/>
</g>
<g fill="black">
<circle cx="531.154" cy="488.368" r="4.50838"/>
</g>
<g fill="black">
<circle cx="536.066" cy="488.456" r="4.50838"/>
</g>
<g fill="black">
<circle cx="540.977" cy="488.979" r="4.50838"/>
</g>
<g fill="black">
<circle cx="545.889" cy="489.307" r="4.50838"/>
</g>
<text xml:space="preserve" x="360.607" y="50.7193" fill="black" font-size="16.0105" font-family="Helvetica"> with EMC</text>
<text xml:space="preserve" x="352.717" y="50.7193" fill="black" font-size="16.0105" font-family="Times">&#0947;</text>
<text xml:space="preserve" x="344.828" y="50.7193" fill="black" font-size="16.0105" font-family="Times">&#0947;</text>
<text xml:space="preserve" x="336.938" y="50.7193" fill="black" font-size="16.0105" font-family="Times">&#0947;</text>
<text xml:space="preserve" x="331.866" y="50.7193" fill="black" font-size="16.0105" font-family="Helvetica"> </text>
<text xml:space="preserve" x="316.65" y="50.7193" fill="black" font-size="16.0105" font-family="Times">&#8594;</text>
<text xml:space="preserve" x="311.578" y="50.7193" fill="black" font-size="16.0105" font-family="Helvetica"> </text>
<text xml:space="preserve" x="303.689" y="50.7193" fill="black" font-size="16.0105" font-family="Times">&#0947;</text>
<text xml:space="preserve" x="298.053" y="45.0838" fill="black" font-size="10.8403" font-family="Helvetica">0</text>
<text xml:space="preserve" x="289.6" y="50.7193" fill="black" font-size="16.0105" font-family="Times">&#0960;</text>
<text xml:space="preserve" x="284.528" y="50.7193" fill="black" font-size="16.0105" font-family="Helvetica"> </text>
<text xml:space="preserve" x="269.312" y="50.7193" fill="black" font-size="16.0105" font-family="Times">&#8594;</text>
<text xml:space="preserve" x="264.24" y="50.7193" fill="black" font-size="16.0105" font-family="Helvetica"> </text>
<text xml:space="preserve" x="252.969" y="50.7193" fill="black" font-size="16.0105" font-family="Times">&#0969;</text>
<text xml:space="preserve" x="128.989" y="50.7193" fill="black" font-size="16.0105" font-family="Helvetica"> = 13 TeV (EG1), </text>
<text xml:space="preserve" x="120.536" y="50.7193" fill="black" font-size="16.0105" font-family="Helvetica" font-style="oblique">s</text>
<path d="M114.9,41.7025l 1.69064, 9.58031" fill="none" stroke="black" stroke-width="2"/>
<path d="M116.591,51.2829l 2.25419, -14.0887" fill="none" stroke="black"/>
<path d="M118.845,37.1942h 10.1439" fill="none" stroke="black"/>
<text xml:space="preserve" x="89.5406" y="50.7193" fill="black" font-size="16.0105" font-family="Helvetica">pp </text>
<text xml:space="preserve" x="89.5406" y="85.6593" fill="black" font-size="16.0105" font-family="Helvetica">ALICE work in progress</text>
<text xml:space="preserve" x="214.085" y="120.599" fill="black" font-size="16.0105" font-family="Helvetica">) &lt; 18.0</text>
<text xml:space="preserve" x="205.068" y="120.599" fill="black" font-size="16.0105" font-family="Helvetica" font-style="oblique">c</text>
<text xml:space="preserve" x="154.912" y="120.599" fill="black" font-size="16.0105" font-family="Helvetica"> /(GeV/</text>
<text xml:space="preserve" x="148.15" y="128.489" fill="black" font-size="10.8403" font-family="Helvetica">T</text>
<text xml:space="preserve" x="138.569" y="120.599" fill="black" font-size="16.0105" font-family="Helvetica" font-style="oblique">p</text>
<text xml:space="preserve" x="133.497" y="120.599" fill="black" font-size="16.0105" font-family="Helvetica"> </text>
<text xml:space="preserve" x="125.044" y="120.599" fill="black" font-size="16.0105" font-family="Times">&#8804;</text>
<text xml:space="preserve" x="89.5406" y="120.599" fill="black" font-size="16.0105" font-family="Helvetica">16.0 </text>
<text xml:space="preserve" x="134.624" y="158.357" fill="black" font-size="16.0105" font-family="Helvetica">background</text>
<path d="M92.9803,152.186h 34.7244" fill="none" stroke="#993333" stroke-width="2"/>
<g fill="#993333">
<rect x="105.834" y="147.678" width="9.01677" height="9.01677"/>
</g>
<text xml:space="preserve" x="134.624" y="185.971" fill="black" font-size="16.0105" font-family="Helvetica">same event</text>
<path d="M92.9803,179.856h 34.7244" fill="none" stroke="black" stroke-width="2"/>
<g fill="black">
<circle cx="110.343" cy="179.856" r="4.50838"/>
</g></svg>
