<?xml version="1.0" standalone="no"?>
<svg width="567.429" height="553.904" viewBox="0 0 567.429 553.904" xmlns="http://www.w3.org/2000/svg" shape-rendering="crispEdges">
<title>
MC/EG1/OmegaTGPSWOPS/SameEventToBackgroundRatio_02.svg
</title>
<desc>
Creator: ROOT Version 6.20/08
CreationDate: Mon Mar 29 21:31:14 2021</desc>
<defs>
</defs>
<rect x="0.5" y="0" width="566.929" height="553.404" fill="white"/>
<rect x="68.5315" y="16.6021" width="484.724" height="481.461" fill="white"/>
<rect x="68.5315" y="16.6021" width="484.724" height="481.461" fill="none" stroke="black"/>
<rect x="68.5315" y="16.6021" width="484.724" height="481.461" fill="white"/>
<rect x="68.5315" y="16.6021" width="484.724" height="481.461" fill="none" stroke="black"/>
<path d="M109.325,445.509v -5.6748" fill="none" stroke="black" stroke-width="2"/>
<path d="M109.325,426.309v -5.6748" fill="none" stroke="black" stroke-width="2"/>
<g fill="black">
<circle cx="109.325" cy="433.072" r="6.76257"/>
</g>
<g fill="black">
<circle cx="114.124" cy="384.196" r="6.76257"/>
</g>
<g fill="black">
<circle cx="118.924" cy="392.164" r="6.76257"/>
</g>
<g fill="black">
<circle cx="123.723" cy="465.143" r="6.76257"/>
</g>
<g fill="black">
<circle cx="128.522" cy="438.688" r="6.76257"/>
</g>
<g fill="black">
<circle cx="133.321" cy="391.286" r="6.76257"/>
</g>
<g fill="black">
<circle cx="138.121" cy="386.874" r="6.76257"/>
</g>
<g fill="black">
<circle cx="142.92" cy="381.335" r="6.76257"/>
</g>
<g fill="black">
<circle cx="147.719" cy="376.868" r="6.76257"/>
</g>
<g fill="black">
<circle cx="152.518" cy="372.642" r="6.76257"/>
</g>
<g fill="black">
<circle cx="157.318" cy="368.87" r="6.76257"/>
</g>
<g fill="black">
<circle cx="162.117" cy="364.683" r="6.76257"/>
</g>
<g fill="black">
<circle cx="166.916" cy="360.784" r="6.76257"/>
</g>
<g fill="black">
<circle cx="171.715" cy="356.894" r="6.76257"/>
</g>
<g fill="black">
<circle cx="176.515" cy="352.759" r="6.76257"/>
</g>
<g fill="black">
<circle cx="181.314" cy="349.099" r="6.76257"/>
</g>
<g fill="black">
<circle cx="186.113" cy="345.238" r="6.76257"/>
</g>
<g fill="black">
<circle cx="190.912" cy="341.217" r="6.76257"/>
</g>
<g fill="black">
<circle cx="195.712" cy="337.254" r="6.76257"/>
</g>
<g fill="black">
<circle cx="200.511" cy="333.881" r="6.76257"/>
</g>
<g fill="black">
<circle cx="205.31" cy="329.862" r="6.76257"/>
</g>
<g fill="black">
<circle cx="210.109" cy="325.859" r="6.76257"/>
</g>
<g fill="black">
<circle cx="214.909" cy="321.83" r="6.76257"/>
</g>
<g fill="black">
<circle cx="219.708" cy="318.399" r="6.76257"/>
</g>
<g fill="black">
<circle cx="224.507" cy="314.739" r="6.76257"/>
</g>
<g fill="black">
<circle cx="229.306" cy="310.948" r="6.76257"/>
</g>
<g fill="black">
<circle cx="234.106" cy="306.357" r="6.76257"/>
</g>
<g fill="black">
<circle cx="238.905" cy="303.858" r="6.76257"/>
</g>
<g fill="black">
<circle cx="243.704" cy="300.55" r="6.76257"/>
</g>
<g fill="black">
<circle cx="248.503" cy="297.817" r="6.76257"/>
</g>
<g fill="black">
<circle cx="253.303" cy="293.719" r="6.76257"/>
</g>
<g fill="black">
<circle cx="258.102" cy="291.397" r="6.76257"/>
</g>
<g fill="black">
<circle cx="262.901" cy="288.214" r="6.76257"/>
</g>
<g fill="black">
<circle cx="267.7" cy="285.01" r="6.76257"/>
</g>
<g fill="black">
<circle cx="272.5" cy="282.912" r="6.76257"/>
</g>
<g fill="black">
<circle cx="277.299" cy="280.35" r="6.76257"/>
</g>
<g fill="black">
<circle cx="339.689" cy="256.766" r="6.76257"/>
</g>
<g fill="black">
<circle cx="344.488" cy="254.353" r="6.76257"/>
</g>
<g fill="black">
<circle cx="349.288" cy="253.262" r="6.76257"/>
</g>
<g fill="black">
<circle cx="354.087" cy="250.457" r="6.76257"/>
</g>
<g fill="black">
<circle cx="358.886" cy="249.63" r="6.76257"/>
</g>
<g fill="black">
<circle cx="363.685" cy="251.426" r="6.76257"/>
</g>
<g fill="black">
<circle cx="368.485" cy="249.491" r="6.76257"/>
</g>
<g fill="black">
<circle cx="373.284" cy="246.236" r="6.76257"/>
</g>
<g fill="black">
<circle cx="378.083" cy="244.92" r="6.76257"/>
</g>
<g fill="black">
<circle cx="382.882" cy="245.487" r="6.76257"/>
</g>
<g fill="black">
<circle cx="387.682" cy="240.592" r="6.76257"/>
</g>
<g fill="black">
<circle cx="392.481" cy="241.713" r="6.76257"/>
</g>
<g fill="black">
<circle cx="397.28" cy="241.578" r="6.76257"/>
</g>
<g fill="black">
<circle cx="402.079" cy="240.598" r="6.76257"/>
</g>
<g fill="black">
<circle cx="406.879" cy="235.384" r="6.76257"/>
</g>
<g fill="black">
<circle cx="411.678" cy="236.915" r="6.76257"/>
</g>
<g fill="black">
<circle cx="416.477" cy="235.446" r="6.76257"/>
</g>
<g fill="black">
<circle cx="421.276" cy="232.701" r="6.76257"/>
</g>
<g fill="black">
<circle cx="426.076" cy="230.423" r="6.76257"/>
</g>
<g fill="black">
<circle cx="430.875" cy="231.185" r="6.76257"/>
</g>
<g fill="black">
<circle cx="435.674" cy="230.189" r="6.76257"/>
</g>
<g fill="black">
<circle cx="440.473" cy="226.236" r="6.76257"/>
</g>
<g fill="black">
<circle cx="445.273" cy="226.488" r="6.76257"/>
</g>
<g fill="black">
<circle cx="450.072" cy="224.169" r="6.76257"/>
</g>
<g fill="black">
<circle cx="454.871" cy="222.039" r="6.76257"/>
</g>
<g fill="black">
<circle cx="459.671" cy="223.623" r="6.76257"/>
</g>
<g fill="black">
<circle cx="464.47" cy="221.628" r="6.76257"/>
</g>
<g fill="black">
<circle cx="469.269" cy="220.207" r="6.76257"/>
</g>
<g fill="black">
<circle cx="474.068" cy="221.869" r="6.76257"/>
</g>
<g fill="black">
<circle cx="478.867" cy="218.96" r="6.76257"/>
</g>
<g fill="black">
<circle cx="483.667" cy="216.214" r="6.76257"/>
</g>
<g fill="black">
<circle cx="488.466" cy="218.719" r="6.76257"/>
</g>
<g fill="black">
<circle cx="493.265" cy="209.448" r="6.76257"/>
</g>
<g fill="black">
<circle cx="498.065" cy="210.985" r="6.76257"/>
</g>
<g fill="black">
<circle cx="502.864" cy="212.154" r="6.76257"/>
</g>
<g fill="black">
<circle cx="507.663" cy="208.643" r="6.76257"/>
</g>
<g fill="black">
<circle cx="512.462" cy="207.957" r="6.76257"/>
</g>
<g fill="black">
<circle cx="517.262" cy="205.832" r="6.76257"/>
</g>
<g fill="black">
<circle cx="522.061" cy="208.39" r="6.76257"/>
</g>
<g fill="black">
<circle cx="526.86" cy="204.632" r="6.76257"/>
</g>
<g fill="black">
<circle cx="531.659" cy="206.588" r="6.76257"/>
</g>
<g fill="black">
<circle cx="536.458" cy="204.494" r="6.76257"/>
</g>
<g fill="black">
<circle cx="541.258" cy="199.877" r="6.76257"/>
</g>
<g fill="black">
<circle cx="546.057" cy="197.15" r="6.76257"/>
</g>
<path d="M68.5315,498.064h 484.724" fill="none" stroke="black"/>
<path d="M68.5315,483.869v 14.1948" fill="none" stroke="black"/>
<path d="M83.5292,490.966v 7.09741" fill="none" stroke="black"/>
<path d="M98.5268,490.966v 7.09741" fill="none" stroke="black"/>
<path d="M113.524,490.966v 7.09741" fill="none" stroke="black"/>
<path d="M128.522,483.869v 14.1948" fill="none" stroke="black"/>
<path d="M143.52,490.966v 7.09741" fill="none" stroke="black"/>
<path d="M158.517,490.966v 7.09741" fill="none" stroke="black"/>
<path d="M173.515,490.966v 7.09741" fill="none" stroke="black"/>
<path d="M188.513,483.869v 14.1948" fill="none" stroke="black"/>
<path d="M203.51,490.966v 7.09741" fill="none" stroke="black"/>
<path d="M218.508,490.966v 7.09741" fill="none" stroke="black"/>
<path d="M233.506,490.966v 7.09741" fill="none" stroke="black"/>
<path d="M248.503,483.869v 14.1948" fill="none" stroke="black"/>
<path d="M263.501,490.966v 7.09741" fill="none" stroke="black"/>
<path d="M278.499,490.966v 7.09741" fill="none" stroke="black"/>
<path d="M293.496,490.966v 7.09741" fill="none" stroke="black"/>
<path d="M308.494,483.869v 14.1948" fill="none" stroke="black"/>
<path d="M323.492,490.966v 7.09741" fill="none" stroke="black"/>
<path d="M338.489,490.966v 7.09741" fill="none" stroke="black"/>
<path d="M353.487,490.966v 7.09741" fill="none" stroke="black"/>
<path d="M368.485,483.869v 14.1948" fill="none" stroke="black"/>
<path d="M383.482,490.966v 7.09741" fill="none" stroke="black"/>
<path d="M398.48,490.966v 7.09741" fill="none" stroke="black"/>
<path d="M413.478,490.966v 7.09741" fill="none" stroke="black"/>
<path d="M428.475,483.869v 14.1948" fill="none" stroke="black"/>
<path d="M443.473,490.966v 7.09741" fill="none" stroke="black"/>
<path d="M458.471,490.966v 7.09741" fill="none" stroke="black"/>
<path d="M473.468,490.966v 7.09741" fill="none" stroke="black"/>
<path d="M488.466,483.869v 14.1948" fill="none" stroke="black"/>
<path d="M503.464,490.966v 7.09741" fill="none" stroke="black"/>
<path d="M518.461,490.966v 7.09741" fill="none" stroke="black"/>
<path d="M533.459,490.966v 7.09741" fill="none" stroke="black"/>
<path d="M548.457,483.869v 14.1948" fill="none" stroke="black"/>
<path d="M548.457,483.869v 14.1948" fill="none" stroke="black"/>
<text xml:space="preserve" x="63.6174" y="513.956" fill="black" font-size="16.0105" font-family="Helvetica">0</text>
<text xml:space="preserve" x="117.718" y="513.956" fill="black" font-size="16.0105" font-family="Helvetica">0.2</text>
<text xml:space="preserve" x="177.454" y="513.956" fill="black" font-size="16.0105" font-family="Helvetica">0.4</text>
<text xml:space="preserve" x="237.754" y="513.956" fill="black" font-size="16.0105" font-family="Helvetica">0.6</text>
<text xml:space="preserve" x="297.49" y="513.956" fill="black" font-size="16.0105" font-family="Helvetica">0.8</text>
<text xml:space="preserve" x="365.115" y="513.956" fill="black" font-size="16.0105" font-family="Helvetica">1</text>
<text xml:space="preserve" x="417.525" y="513.956" fill="black" font-size="16.0105" font-family="Helvetica">1.2</text>
<text xml:space="preserve" x="477.261" y="513.956" fill="black" font-size="16.0105" font-family="Helvetica">1.4</text>
<text xml:space="preserve" x="537.561" y="513.956" fill="black" font-size="16.0105" font-family="Helvetica">1.6</text>
<text xml:space="preserve" x="548.268" y="537.625" fill="black" font-size="16.0105" font-family="Helvetica">)</text>
<text xml:space="preserve" x="542.633" y="532.553" fill="black" font-size="10.8403" font-family="Helvetica">2</text>
<text xml:space="preserve" x="533.616" y="537.625" fill="black" font-size="16.0105" font-family="Helvetica" font-style="oblique">c</text>
<text xml:space="preserve" x="487.405" y="537.625" fill="black" font-size="16.0105" font-family="Helvetica"> (GeV/</text>
<text xml:space="preserve" x="473.317" y="542.697" fill="black" font-size="10.8403" font-family="Helvetica">inv</text>
<text xml:space="preserve" x="459.792" y="537.625" fill="black" font-size="16.0105" font-family="Helvetica" font-style="oblique">m</text>
<path d="M68.5315,16.6021h 484.724" fill="none" stroke="black"/>
<path d="M68.5315,30.7969v -14.1948" fill="none" stroke="black"/>
<path d="M83.5292,23.6995v -7.09741" fill="none" stroke="black"/>
<path d="M98.5268,23.6995v -7.09741" fill="none" stroke="black"/>
<path d="M113.524,23.6995v -7.09741" fill="none" stroke="black"/>
<path d="M128.522,30.7969v -14.1948" fill="none" stroke="black"/>
<path d="M143.52,23.6995v -7.09741" fill="none" stroke="black"/>
<path d="M158.517,23.6995v -7.09741" fill="none" stroke="black"/>
<path d="M173.515,23.6995v -7.09741" fill="none" stroke="black"/>
<path d="M188.513,30.7969v -14.1948" fill="none" stroke="black"/>
<path d="M203.51,23.6995v -7.09741" fill="none" stroke="black"/>
<path d="M218.508,23.6995v -7.09741" fill="none" stroke="black"/>
<path d="M233.506,23.6995v -7.09741" fill="none" stroke="black"/>
<path d="M248.503,30.7969v -14.1948" fill="none" stroke="black"/>
<path d="M263.501,23.6995v -7.09741" fill="none" stroke="black"/>
<path d="M278.499,23.6995v -7.09741" fill="none" stroke="black"/>
<path d="M293.496,23.6995v -7.09741" fill="none" stroke="black"/>
<path d="M308.494,30.7969v -14.1948" fill="none" stroke="black"/>
<path d="M323.492,23.6995v -7.09741" fill="none" stroke="black"/>
<path d="M338.489,23.6995v -7.09741" fill="none" stroke="black"/>
<path d="M353.487,23.6995v -7.09741" fill="none" stroke="black"/>
<path d="M368.485,30.7969v -14.1948" fill="none" stroke="black"/>
<path d="M383.482,23.6995v -7.09741" fill="none" stroke="black"/>
<path d="M398.48,23.6995v -7.09741" fill="none" stroke="black"/>
<path d="M413.478,23.6995v -7.09741" fill="none" stroke="black"/>
<path d="M428.475,30.7969v -14.1948" fill="none" stroke="black"/>
<path d="M443.473,23.6995v -7.09741" fill="none" stroke="black"/>
<path d="M458.471,23.6995v -7.09741" fill="none" stroke="black"/>
<path d="M473.468,23.6995v -7.09741" fill="none" stroke="black"/>
<path d="M488.466,30.7969v -14.1948" fill="none" stroke="black"/>
<path d="M503.464,23.6995v -7.09741" fill="none" stroke="black"/>
<path d="M518.461,23.6995v -7.09741" fill="none" stroke="black"/>
<path d="M533.459,23.6995v -7.09741" fill="none" stroke="black"/>
<path d="M548.457,30.7969v -14.1948" fill="none" stroke="black"/>
<path d="M548.457,30.7969v -14.1948" fill="none" stroke="black"/>
<path d="M68.5315,498.064v -481.461" fill="none" stroke="black"/>
<path d="M83.3283,498.064h -14.7969" fill="none" stroke="black"/>
<path d="M75.9299,486.176h -7.39843" fill="none" stroke="black"/>
<path d="M75.9299,474.289h -7.39843" fill="none" stroke="black"/>
<path d="M75.9299,462.402h -7.39843" fill="none" stroke="black"/>
<path d="M75.9299,450.515h -7.39843" fill="none" stroke="black"/>
<path d="M83.3283,438.628h -14.7969" fill="none" stroke="black"/>
<path d="M75.9299,426.74h -7.39843" fill="none" stroke="black"/>
<path d="M75.9299,414.853h -7.39843" fill="none" stroke="black"/>
<path d="M75.9299,402.966h -7.39843" fill="none" stroke="black"/>
<path d="M75.9299,391.079h -7.39843" fill="none" stroke="black"/>
<path d="M83.3283,379.192h -14.7969" fill="none" stroke="black"/>
<path d="M75.9299,367.304h -7.39843" fill="none" stroke="black"/>
<path d="M75.9299,355.417h -7.39843" fill="none" stroke="black"/>
<path d="M75.9299,343.53h -7.39843" fill="none" stroke="black"/>
<path d="M75.9299,331.643h -7.39843" fill="none" stroke="black"/>
<path d="M83.3283,319.755h -14.7969" fill="none" stroke="black"/>
<path d="M75.9299,307.868h -7.39843" fill="none" stroke="black"/>
<path d="M75.9299,295.981h -7.39843" fill="none" stroke="black"/>
<path d="M75.9299,284.094h -7.39843" fill="none" stroke="black"/>
<path d="M75.9299,272.207h -7.39843" fill="none" stroke="black"/>
<path d="M83.3283,260.319h -14.7969" fill="none" stroke="black"/>
<path d="M75.9299,248.432h -7.39843" fill="none" stroke="black"/>
<path d="M75.9299,236.545h -7.39843" fill="none" stroke="black"/>
<path d="M75.9299,224.658h -7.39843" fill="none" stroke="black"/>
<path d="M75.9299,212.771h -7.39843" fill="none" stroke="black"/>
<path d="M83.3283,200.883h -14.7969" fill="none" stroke="black"/>
<path d="M75.9299,188.996h -7.39843" fill="none" stroke="black"/>
<path d="M75.9299,177.109h -7.39843" fill="none" stroke="black"/>
<path d="M75.9299,165.222h -7.39843" fill="none" stroke="black"/>
<path d="M75.9299,153.335h -7.39843" fill="none" stroke="black"/>
<path d="M83.3283,141.447h -14.7969" fill="none" stroke="black"/>
<path d="M75.9299,129.56h -7.39843" fill="none" stroke="black"/>
<path d="M75.9299,117.673h -7.39843" fill="none" stroke="black"/>
<path d="M75.9299,105.786h -7.39843" fill="none" stroke="black"/>
<path d="M75.9299,93.8985h -7.39843" fill="none" stroke="black"/>
<path d="M83.3283,82.0113h -14.7969" fill="none" stroke="black"/>
<path d="M75.9299,70.1241h -7.39843" fill="none" stroke="black"/>
<path d="M75.9299,58.2369h -7.39843" fill="none" stroke="black"/>
<path d="M75.9299,46.3497h -7.39843" fill="none" stroke="black"/>
<path d="M75.9299,34.4625h -7.39843" fill="none" stroke="black"/>
<path d="M83.3283,22.5753h -14.7969" fill="none" stroke="black"/>
<path d="M83.3283,22.5753h -14.7969" fill="none" stroke="black"/>
<text xml:space="preserve" x="56.8548" y="503.248" fill="black" font-size="16.0105" font-family="Helvetica">0</text>
<text xml:space="preserve" x="48.4016" y="444.076" fill="black" font-size="16.0105" font-family="Helvetica">10</text>
<text xml:space="preserve" x="48.4016" y="384.34" fill="black" font-size="16.0105" font-family="Helvetica">20</text>
<text xml:space="preserve" x="48.4016" y="325.167" fill="black" font-size="16.0105" font-family="Helvetica">30</text>
<text xml:space="preserve" x="48.4016" y="265.431" fill="black" font-size="16.0105" font-family="Helvetica">40</text>
<text xml:space="preserve" x="48.4016" y="206.259" fill="black" font-size="16.0105" font-family="Helvetica">50</text>
<text xml:space="preserve" x="48.4016" y="146.522" fill="black" font-size="16.0105" font-family="Helvetica">60</text>
<text xml:space="preserve" x="48.4016" y="87.3499" fill="black" font-size="16.0105" font-family="Helvetica">70</text>
<text xml:space="preserve" x="48.4016" y="28.1774" fill="black" font-size="16.0105" font-family="Helvetica">80</text>
<text xml:space="preserve" x="99.1209" y="7.32612" fill="black" font-size="10.8403" font-family="Helvetica">3</text>
<text xml:space="preserve" x="93.4854" y="7.32612" fill="black" font-size="10.8403" font-family="Times">&#8722;</text>
<text xml:space="preserve" x="76.579" y="14.6522" fill="black" font-size="16.0105" font-family="Helvetica">10</text>
<text xml:space="preserve" x="68.1257" y="14.6522" fill="black" font-size="16.0105" font-family="Times">&#0215;</text>
<g transform="rotate(-90,38.2577,98.0573)">
<text xml:space="preserve" x="38.2577" y="98.0573" fill="black" font-size="16.0105" font-family="Helvetica">background</text>
</g>
<g transform="rotate(-90,21.9148,98.0573)">
<text xml:space="preserve" x="21.9148" y="98.0573" fill="black" font-size="16.0105" font-family="Helvetica">same event</text>
</g>
<path d="M24.169,98.0573l 0.563548, -81.7144" fill="none" stroke="black" stroke-width="2"/>
<path d="M553.256,498.064v -481.461" fill="none" stroke="black"/>
<path d="M538.459,498.064h 14.7969" fill="none" stroke="black"/>
<path d="M545.857,486.176h 7.39843" fill="none" stroke="black"/>
<path d="M545.857,474.289h 7.39843" fill="none" stroke="black"/>
<path d="M545.857,462.402h 7.39843" fill="none" stroke="black"/>
<path d="M545.857,450.515h 7.39843" fill="none" stroke="black"/>
<path d="M538.459,438.628h 14.7969" fill="none" stroke="black"/>
<path d="M545.857,426.74h 7.39843" fill="none" stroke="black"/>
<path d="M545.857,414.853h 7.39843" fill="none" stroke="black"/>
<path d="M545.857,402.966h 7.39843" fill="none" stroke="black"/>
<path d="M545.857,391.079h 7.39843" fill="none" stroke="black"/>
<path d="M538.459,379.192h 14.7969" fill="none" stroke="black"/>
<path d="M545.857,367.304h 7.39843" fill="none" stroke="black"/>
<path d="M545.857,355.417h 7.39843" fill="none" stroke="black"/>
<path d="M545.857,343.53h 7.39843" fill="none" stroke="black"/>
<path d="M545.857,331.643h 7.39843" fill="none" stroke="black"/>
<path d="M538.459,319.755h 14.7969" fill="none" stroke="black"/>
<path d="M545.857,307.868h 7.39843" fill="none" stroke="black"/>
<path d="M545.857,295.981h 7.39843" fill="none" stroke="black"/>
<path d="M545.857,284.094h 7.39843" fill="none" stroke="black"/>
<path d="M545.857,272.207h 7.39843" fill="none" stroke="black"/>
<path d="M538.459,260.319h 14.7969" fill="none" stroke="black"/>
<path d="M545.857,248.432h 7.39843" fill="none" stroke="black"/>
<path d="M545.857,236.545h 7.39843" fill="none" stroke="black"/>
<path d="M545.857,224.658h 7.39843" fill="none" stroke="black"/>
<path d="M545.857,212.771h 7.39843" fill="none" stroke="black"/>
<path d="M538.459,200.883h 14.7969" fill="none" stroke="black"/>
<path d="M545.857,188.996h 7.39843" fill="none" stroke="black"/>
<path d="M545.857,177.109h 7.39843" fill="none" stroke="black"/>
<path d="M545.857,165.222h 7.39843" fill="none" stroke="black"/>
<path d="M545.857,153.335h 7.39843" fill="none" stroke="black"/>
<path d="M538.459,141.447h 14.7969" fill="none" stroke="black"/>
<path d="M545.857,129.56h 7.39843" fill="none" stroke="black"/>
<path d="M545.857,117.673h 7.39843" fill="none" stroke="black"/>
<path d="M545.857,105.786h 7.39843" fill="none" stroke="black"/>
<path d="M545.857,93.8985h 7.39843" fill="none" stroke="black"/>
<path d="M538.459,82.0113h 14.7969" fill="none" stroke="black"/>
<path d="M545.857,70.1241h 7.39843" fill="none" stroke="black"/>
<path d="M545.857,58.2369h 7.39843" fill="none" stroke="black"/>
<path d="M545.857,46.3497h 7.39843" fill="none" stroke="black"/>
<path d="M545.857,34.4625h 7.39843" fill="none" stroke="black"/>
<path d="M538.459,22.5753h 14.7969" fill="none" stroke="black"/>
<path d="M538.459,22.5753h 14.7969" fill="none" stroke="black"/>
<g stroke="#333333" stroke-width="2" fill="none">
<circle cx="282.098" cy="277.117" r="5.63548"/>
</g>
<g stroke="#333333" stroke-width="2" fill="none">
<circle cx="286.897" cy="275.122" r="5.63548"/>
</g>
<g stroke="#333333" stroke-width="2" fill="none">
<circle cx="291.697" cy="273.271" r="5.63548"/>
</g>
<g stroke="#333333" stroke-width="2" fill="none">
<circle cx="296.496" cy="271.786" r="5.63548"/>
</g>
<g stroke="#333333" stroke-width="2" fill="none">
<circle cx="301.295" cy="270.07" r="5.63548"/>
</g>
<g stroke="#333333" stroke-width="2" fill="none">
<circle cx="306.094" cy="266.985" r="5.63548"/>
</g>
<g stroke="#333333" stroke-width="2" fill="none">
<circle cx="310.894" cy="266.209" r="5.63548"/>
</g>
<g stroke="#333333" stroke-width="2" fill="none">
<circle cx="315.693" cy="264.965" r="5.63548"/>
</g>
<g stroke="#333333" stroke-width="2" fill="none">
<circle cx="320.492" cy="262.688" r="5.63548"/>
</g>
<g stroke="#333333" stroke-width="2" fill="none">
<circle cx="325.291" cy="260.699" r="5.63548"/>
</g>
<g stroke="#333333" stroke-width="2" fill="none">
<circle cx="330.091" cy="259.891" r="5.63548"/>
</g>
<g stroke="#333333" stroke-width="2" fill="none">
<circle cx="334.89" cy="257.944" r="5.63548"/>
</g>
<path d="M98.7518,383.494l 0.44993, -0.226018l 0.44993, -0.226018l 0.44993, -0.226018l 0.44993, -0.226018l 0.44993, -0.226018l 0.44993, -0.226018l 0.44993, -0.226018l 0.44993, -0.226018l 0.44993, -0.226018l 0.44993, -0.226018l 0.44993, -0.226018l
 0.44993, -0.226018l 0.44993, -0.226018l 0.44993, -0.226018l 0.44993, -0.226018l 0.44993, -0.226018l 0.44993, -0.226018l 0.44993, -0.226018l 0.44993, -0.226018l 0.44993, -0.226018l 0.44993, -0.226018l 0.44993, -0.226018l 0.44993, -0.226018l 0.44993,
 -0.226018l 0.44993, -0.226018l 0.44993, -0.226018l 0.44993, -0.226018l 0.44993, -0.226018l 0.44993, -0.226018l 0.44993, -0.226018l 0.44993, -0.226018l 0.44993, -0.226018l 0.44993, -0.226018l 0.44993, -0.226018l 0.44993, -0.226018l 0.44993,
 -0.226018l 0.44993, -0.226018l 0.44993, -0.226018l 0.44993, -0.226018l 0.44993, -0.226018l 0.44993, -0.226018l 0.44993, -0.226018l 0.44993, -0.226018l 0.44993, -0.226018l 0.44993, -0.226018l 0.44993, -0.226018l 0.44993, -0.226018l 0.44993,
 -0.226018l 0.44993, -0.226018" fill="none" stroke="#33cccc" stroke-width="3"/>
<path d="M120.798,372.419l 0.44993, -0.226018l 0.44993, -0.226018l 0.44993, -0.226018l 0.44993, -0.226018l 0.44993, -0.226018l 0.44993, -0.226018l 0.44993, -0.226018l 0.44993, -0.226018l 0.44993, -0.226018l 0.44993, -0.226018l 0.44993, -0.226018l
 0.44993, -0.226018l 0.44993, -0.226018l 0.44993, -0.226018l 0.44993, -0.226018l 0.44993, -0.226018l 0.44993, -0.226018l 0.44993, -0.226018l 0.44993, -0.226018l 0.44993, -0.226018l 0.44993, -0.226018l 0.44993, -0.226018l 0.44993, -0.226018l 0.44993,
 -0.226018l 0.44993, -0.226018l 0.44993, -0.226018l 0.44993, -0.226018l 0.44993, -0.226018l 0.44993, -0.226018l 0.44993, -0.226018l 0.44993, -0.226018l 0.44993, -0.226018l 0.44993, -0.226018l 0.44993, -0.226018l 0.44993, -0.226018l 0.44993,
 -0.226018l 0.44993, -0.226018l 0.44993, -0.226018l 0.44993, -0.226018l 0.44993, -0.226018l 0.44993, -0.226018l 0.44993, -0.226018l 0.44993, -0.226018l 0.44993, -0.226018l 0.44993, -0.226018l 0.44993, -0.226018l 0.44993, -0.226018l 0.44993,
 -0.226018l 0.44993, -0.226018" fill="none" stroke="#33cccc" stroke-width="3"/>
<path d="M142.845,361.345l 0.44993, -0.226018l 0.44993, -0.226018l 0.44993, -0.226018l 0.44993, -0.226018l 0.44993, -0.226018l 0.44993, -0.226018l 0.44993, -0.226018l 0.44993, -0.226018l 0.44993, -0.226018l 0.44993, -0.226018l 0.44993, -0.226018l
 0.44993, -0.226018l 0.44993, -0.226018l 0.44993, -0.226018l 0.44993, -0.226018l 0.44993, -0.226018l 0.44993, -0.226018l 0.44993, -0.226018l 0.44993, -0.226018l 0.44993, -0.226018l 0.44993, -0.226018l 0.44993, -0.226018l 0.44993, -0.226018l 0.44993,
 -0.226018l 0.44993, -0.226018l 0.44993, -0.226018l 0.44993, -0.226018l 0.44993, -0.226018l 0.44993, -0.226018l 0.44993, -0.226018l 0.44993, -0.226018l 0.44993, -0.226018l 0.44993, -0.226018l 0.44993, -0.226018l 0.44993, -0.226018l 0.44993,
 -0.226018l 0.44993, -0.226018l 0.44993, -0.226018l 0.44993, -0.226018l 0.44993, -0.226018l 0.44993, -0.226018l 0.44993, -0.226018l 0.44993, -0.226018l 0.44993, -0.226018l 0.44993, -0.226018l 0.44993, -0.226018l 0.44993, -0.226018l 0.44993,
 -0.226018l 0.44993, -0.226018" fill="none" stroke="#33cccc" stroke-width="3"/>
<path d="M164.891,350.27l 0.44993, -0.226018l 0.44993, -0.226018l 0.44993, -0.226018l 0.44993, -0.226018l 0.44993, -0.226018l 0.44993, -0.226018l 0.44993, -0.226018l 0.44993, -0.226018l 0.44993, -0.226018l 0.44993, -0.226018l 0.44993, -0.226018l
 0.44993, -0.226018l 0.44993, -0.226018l 0.44993, -0.226018l 0.44993, -0.226018l 0.44993, -0.226018l 0.44993, -0.226018l 0.44993, -0.226018l 0.44993, -0.226018l 0.44993, -0.226018l 0.44993, -0.226018l 0.44993, -0.226018l 0.44993, -0.226018l 0.44993,
 -0.226018l 0.44993, -0.226018l 0.44993, -0.226018l 0.44993, -0.226018l 0.44993, -0.226018l 0.44993, -0.226018l 0.44993, -0.226018l 0.44993, -0.226018l 0.44993, -0.226018l 0.44993, -0.226018l 0.44993, -0.226018l 0.44993, -0.226018l 0.44993,
 -0.226018l 0.44993, -0.226018l 0.44993, -0.226018l 0.44993, -0.226018l 0.44993, -0.226018l 0.44993, -0.226018l 0.44993, -0.226018l 0.44993, -0.226018l 0.44993, -0.226018l 0.44993, -0.226018l 0.44993, -0.226018l 0.44993, -0.226018l 0.44993,
 -0.226018l 0.44993, -0.226018" fill="none" stroke="#33cccc" stroke-width="3"/>
<path d="M186.938,339.195l 0.44993, -0.226018l 0.44993, -0.226018l 0.44993, -0.226018l 0.44993, -0.226018l 0.44993, -0.226018l 0.44993, -0.226018l 0.44993, -0.226018l 0.44993, -0.226018l 0.44993, -0.226018l 0.44993, -0.226018l 0.44993, -0.226018l
 0.44993, -0.226018l 0.44993, -0.226018l 0.44993, -0.226018l 0.44993, -0.226018l 0.44993, -0.226018l 0.44993, -0.226018l 0.44993, -0.226018l 0.44993, -0.226018l 0.44993, -0.226018l 0.44993, -0.226018l 0.44993, -0.226018l 0.44993, -0.226018l 0.44993,
 -0.226018l 0.44993, -0.226018l 0.44993, -0.226018l 0.44993, -0.226018l 0.44993, -0.226018l 0.44993, -0.226018l 0.44993, -0.226018l 0.44993, -0.226018l 0.44993, -0.226018l 0.44993, -0.226018l 0.44993, -0.226018l 0.44993, -0.226018l 0.44993,
 -0.226018l 0.44993, -0.226018l 0.44993, -0.226018l 0.44993, -0.226018l 0.44993, -0.226018l 0.44993, -0.226018l 0.44993, -0.226018l 0.44993, -0.226018l 0.44993, -0.226018l 0.44993, -0.226018l 0.44993, -0.226018l 0.44993, -0.226018l 0.44993,
 -0.226018l 0.44993, -0.226018" fill="none" stroke="#33cccc" stroke-width="3"/>
<path d="M208.985,328.12l 0.44993, -0.226018l 0.44993, -0.226018l 0.44993, -0.226018l 0.44993, -0.226018l 0.44993, -0.226018l 0.44993, -0.226018l 0.44993, -0.226018l 0.44993, -0.226018l 0.44993, -0.226018l 0.44993, -0.226018l 0.44993, -0.226018l
 0.44993, -0.226018l 0.44993, -0.226018l 0.44993, -0.226018l 0.44993, -0.226018l 0.44993, -0.226018l 0.44993, -0.226018l 0.44993, -0.226018l 0.44993, -0.226018l 0.44993, -0.226018l 0.44993, -0.226018l 0.44993, -0.226018l 0.44993, -0.226018l 0.44993,
 -0.226018l 0.44993, -0.226018l 0.44993, -0.226018l 0.44993, -0.226018l 0.44993, -0.226018l 0.44993, -0.226018l 0.44993, -0.226018l 0.44993, -0.226018l 0.44993, -0.226018l 0.44993, -0.226018l 0.44993, -0.226018l 0.44993, -0.226018l 0.44993,
 -0.226018l 0.44993, -0.226018l 0.44993, -0.226018l 0.44993, -0.226018l 0.44993, -0.226018l 0.44993, -0.226018l 0.44993, -0.226018l 0.44993, -0.226018l 0.44993, -0.226018l 0.44993, -0.226018l 0.44993, -0.226018l 0.44993, -0.226018l 0.44993,
 -0.226018l 0.44993, -0.226018" fill="none" stroke="#33cccc" stroke-width="3"/>
<path d="M231.031,317.045l 0.44993, -0.226018l 0.44993, -0.226018l 0.44993, -0.226018l 0.44993, -0.226018l 0.44993, -0.226018l 0.44993, -0.226018l 0.44993, -0.226018l 0.44993, -0.226018l 0.44993, -0.226018l 0.44993, -0.226018l 0.44993, -0.226018l
 0.44993, -0.226018l 0.44993, -0.226018l 0.44993, -0.226018l 0.44993, -0.226018l 0.44993, -0.226018l 0.44993, -0.226018l 0.44993, -0.226018l 0.44993, -0.226018l 0.44993, -0.226018l 0.44993, -0.226018l 0.44993, -0.226018l 0.44993, -0.226018l 0.44993,
 -0.226018l 0.44993, -0.226018l 0.44993, -0.226018l 0.44993, -0.226018l 0.44993, -0.226018l 0.44993, -0.226018l 0.44993, -0.226018l 0.44993, -0.226018l 0.44993, -0.226018l 0.44993, -0.226018l 0.44993, -0.226018l 0.44993, -0.226018l 0.44993,
 -0.226018l 0.44993, -0.226018l 0.44993, -0.226018l 0.44993, -0.226018l 0.44993, -0.226018l 0.44993, -0.226018l 0.44993, -0.226018l 0.44993, -0.226018l 0.44993, -0.226018l 0.44993, -0.226018l 0.44993, -0.226018l 0.44993, -0.226018l 0.44993,
 -0.226018l 0.44993, -0.226018" fill="none" stroke="#33cccc" stroke-width="3"/>
<path d="M253.078,305.97l 0.44993, -0.226018l 0.44993, -0.226018l 0.44993, -0.226018l 0.44993, -0.226018l 0.44993, -0.226018l 0.44993, -0.226018l 0.44993, -0.226018l 0.44993, -0.226018l 0.44993, -0.226018l 0.44993, -0.226018l 0.44993, -0.226018l
 0.44993, -0.226018l 0.44993, -0.226018l 0.44993, -0.226018l 0.44993, -0.226018l 0.44993, -0.226018l 0.44993, -0.226018l 0.44993, -0.226018l 0.44993, -0.226018l 0.44993, -0.226018l 0.44993, -0.226018l 0.44993, -0.226018l 0.44993, -0.226018l 0.44993,
 -0.226018l 0.44993, -0.226018l 0.44993, -0.226018l 0.44993, -0.226018l 0.44993, -0.226018l 0.44993, -0.226018l 0.44993, -0.226018l 0.44993, -0.226018l 0.44993, -0.226018l 0.44993, -0.226018l 0.44993, -0.226018l 0.44993, -0.226018l 0.44993,
 -0.226018l 0.44993, -0.226018l 0.44993, -0.226018l 0.44993, -0.226018l 0.44993, -0.226018l 0.44993, -0.226018l 0.44993, -0.226018l 0.44993, -0.226018l 0.44993, -0.226018l 0.44993, -0.226018l 0.44993, -0.226018l 0.44993, -0.226018l 0.44993,
 -0.226018l 0.44993, -0.226018" fill="none" stroke="#33cccc" stroke-width="3"/>
<path d="M275.124,294.895l 0.44993, -0.226018l 0.44993, -0.226018l 0.44993, -0.226018l 0.44993, -0.226018l 0.44993, -0.226018l 0.44993, -0.226018l 0.44993, -0.226018l 0.44993, -0.226018l 0.44993, -0.226018l 0.44993, -0.226018l 0.44993, -0.226018l
 0.44993, -0.226018l 0.44993, -0.226018l 0.44993, -0.226018l 0.44993, -0.226018l 0.44993, -0.226018l 0.44993, -0.226018l 0.44993, -0.226018l 0.44993, -0.226018l 0.44993, -0.226018l 0.44993, -0.226018l 0.44993, -0.226018l 0.44993, -0.226018l 0.44993,
 -0.226018l 0.44993, -0.226018l 0.44993, -0.226018l 0.44993, -0.226018l 0.44993, -0.226018l 0.44993, -0.226018l 0.44993, -0.226018l 0.44993, -0.226018l 0.44993, -0.226018l 0.44993, -0.226018l 0.44993, -0.226018l 0.44993, -0.226018l 0.44993,
 -0.226018l 0.44993, -0.226018l 0.44993, -0.226018l 0.44993, -0.226018l 0.44993, -0.226018l 0.44993, -0.226018l 0.44993, -0.226018l 0.44993, -0.226018l 0.44993, -0.226018l 0.44993, -0.226018l 0.44993, -0.226018l 0.44993, -0.226018l 0.44993,
 -0.226018l 0.44993, -0.226018" fill="none" stroke="#33cccc" stroke-width="3"/>
<path d="M297.171,283.82l 0.44993, -0.226018l 0.44993, -0.226018l 0.44993, -0.226018l 0.44993, -0.226018l 0.44993, -0.226018l 0.44993, -0.226018l 0.44993, -0.226018l 0.44993, -0.226018l 0.44993, -0.226018l 0.44993, -0.226018l 0.44993, -0.226018l
 0.44993, -0.226018l 0.44993, -0.226018l 0.44993, -0.226018l 0.44993, -0.226018l 0.44993, -0.226018l 0.44993, -0.226018l 0.44993, -0.226018l 0.44993, -0.226018l 0.44993, -0.226018l 0.44993, -0.226018l 0.44993, -0.226018l 0.44993, -0.226018l 0.44993,
 -0.226018l 0.44993, -0.226018l 0.44993, -0.226018l 0.44993, -0.226018l 0.44993, -0.226018l 0.44993, -0.226018l 0.44993, -0.226018l 0.44993, -0.226018l 0.44993, -0.226018l 0.44993, -0.226018l 0.44993, -0.226018l 0.44993, -0.226018l 0.44993,
 -0.226018l 0.44993, -0.226018l 0.44993, -0.226018l 0.44993, -0.226018l 0.44993, -0.226018l 0.44993, -0.226018l 0.44993, -0.226018l 0.44993, -0.226018l 0.44993, -0.226018l 0.44993, -0.226018l 0.44993, -0.226018l 0.44993, -0.226018l 0.44993,
 -0.226018l 0.44993, -0.226018" fill="none" stroke="#33cccc" stroke-width="3"/>
<path d="M319.217,272.745l 0.44993, -0.226018l 0.44993, -0.226018l 0.44993, -0.226018l 0.44993, -0.226018l 0.44993, -0.226018l 0.44993, -0.226018l 0.44993, -0.226018l 0.44993, -0.226018l 0.44993, -0.226018l 0.44993, -0.226018l 0.44993, -0.226018l
 0.44993, -0.226018l 0.44993, -0.226018l 0.44993, -0.226018l 0.44993, -0.226018l 0.44993, -0.226018l 0.44993, -0.226018l 0.44993, -0.226018l 0.44993, -0.226018l 0.44993, -0.226018l 0.44993, -0.226018l 0.44993, -0.226018l 0.44993, -0.226018l 0.44993,
 -0.226018l 0.44993, -0.226018l 0.44993, -0.226018l 0.44993, -0.226018l 0.44993, -0.226018l 0.44993, -0.226018l 0.44993, -0.226018l 0.44993, -0.226018l 0.44993, -0.226018l 0.44993, -0.226018l 0.44993, -0.226018l 0.44993, -0.226018l 0.44993,
 -0.226018l 0.44993, -0.226018l 0.44993, -0.226018l 0.44993, -0.226018l 0.44993, -0.226018l 0.44993, -0.226018l 0.44993, -0.226018l 0.44993, -0.226018l 0.44993, -0.226018l 0.44993, -0.226018l 0.44993, -0.226018l 0.44993, -0.226018l 0.44993,
 -0.226018l 0.44993, -0.226018" fill="none" stroke="#33cccc" stroke-width="3"/>
<path d="M341.264,261.67l 0.44993, -0.226018l 0.44993, -0.226018l 0.44993, -0.226018l 0.44993, -0.226018l 0.44993, -0.226018l 0.44993, -0.226018l 0.44993, -0.226018l 0.44993, -0.226018l 0.44993, -0.226018l 0.44993, -0.226018l 0.44993, -0.226018l
 0.44993, -0.226018l 0.44993, -0.226018l 0.44993, -0.226018l 0.44993, -0.226018l 0.44993, -0.226018l 0.44993, -0.226018l 0.44993, -0.226018l 0.44993, -0.226018l 0.44993, -0.226018l 0.44993, -0.226018l 0.44993, -0.226018l 0.44993, -0.226018l 0.44993,
 -0.226018l 0.44993, -0.226018l 0.44993, -0.226018l 0.44993, -0.226018l 0.44993, -0.226018l 0.44993, -0.226018l 0.44993, -0.226018l 0.44993, -0.226018l 0.44993, -0.226018l 0.44993, -0.226018l 0.44993, -0.226018l 0.44993, -0.226018l 0.44993,
 -0.226018l 0.44993, -0.226018l 0.44993, -0.226018l 0.44993, -0.226018l 0.44993, -0.226018l 0.44993, -0.226018l 0.44993, -0.226018l 0.44993, -0.226018l 0.44993, -0.226018l 0.44993, -0.226018l 0.44993, -0.226018l 0.44993, -0.226018l 0.44993,
 -0.226018l 0.44993, -0.226018" fill="none" stroke="#33cccc" stroke-width="3"/>
<path d="M363.311,250.596l 0.44993, -0.226018l 0.44993, -0.226018l 0.44993, -0.226018l 0.44993, -0.226018l 0.44993, -0.226018l 0.44993, -0.226018l 0.44993, -0.226018l 0.44993, -0.226018l 0.44993, -0.226018l 0.44993, -0.226018l 0.44993, -0.226018l
 0.44993, -0.226018l 0.44993, -0.226018l 0.44993, -0.226018l 0.44993, -0.226018l 0.44993, -0.226018l 0.44993, -0.226018l 0.44993, -0.226018l 0.44993, -0.226018l 0.44993, -0.226018l 0.44993, -0.226018l 0.44993, -0.226018l 0.44993, -0.226018l 0.44993,
 -0.226018l 0.44993, -0.226018l 0.44993, -0.226018l 0.44993, -0.226018l 0.44993, -0.226018l 0.44993, -0.226018l 0.44993, -0.226018l 0.44993, -0.226018l 0.44993, -0.226018l 0.44993, -0.226018l 0.44993, -0.226018l 0.44993, -0.226018l 0.44993,
 -0.226018l 0.44993, -0.226018l 0.44993, -0.226018l 0.44993, -0.226018l 0.44993, -0.226018l 0.44993, -0.226018l 0.44993, -0.226018l 0.44993, -0.226018l 0.44993, -0.226018l 0.44993, -0.226018l 0.44993, -0.226018l 0.44993, -0.226018l 0.44993,
 -0.226018l 0.44993, -0.226018" fill="none" stroke="#33cccc" stroke-width="3"/>
<path d="M385.357,239.521l 0.44993, -0.226018l 0.44993, -0.226018l 0.44993, -0.226018l 0.44993, -0.226018l 0.44993, -0.226018l 0.44993, -0.226018l 0.44993, -0.226018l 0.44993, -0.226018l 0.44993, -0.226018l 0.44993, -0.226018l 0.44993, -0.226018l
 0.44993, -0.226018l 0.44993, -0.226018l 0.44993, -0.226018l 0.44993, -0.226018l 0.44993, -0.226018l 0.44993, -0.226018l 0.44993, -0.226018l 0.44993, -0.226018l 0.44993, -0.226018l 0.44993, -0.226018l 0.44993, -0.226018l 0.44993, -0.226018l 0.44993,
 -0.226018l 0.44993, -0.226018l 0.44993, -0.226018l 0.44993, -0.226018l 0.44993, -0.226018l 0.44993, -0.226018l 0.44993, -0.226018l 0.44993, -0.226018l 0.44993, -0.226018l 0.44993, -0.226018l 0.44993, -0.226018l 0.44993, -0.226018l 0.44993,
 -0.226018l 0.44993, -0.226018l 0.44993, -0.226018l 0.44993, -0.226018l 0.44993, -0.226018l 0.44993, -0.226018l 0.44993, -0.226018l 0.44993, -0.226018l 0.44993, -0.226018l 0.44993, -0.226018l 0.44993, -0.226018l 0.44993, -0.226018l 0.44993,
 -0.226018l 0.44993, -0.226018" fill="none" stroke="#33cccc" stroke-width="3"/>
<path d="M407.404,228.446l 0.44993, -0.226018l 0.44993, -0.226018l 0.44993, -0.226018l 0.44993, -0.226018l 0.44993, -0.226018l 0.44993, -0.226018l 0.44993, -0.226018l 0.44993, -0.226018l 0.44993, -0.226018l 0.44993, -0.226018l 0.44993, -0.226018l
 0.44993, -0.226018l 0.44993, -0.226018l 0.44993, -0.226018l 0.44993, -0.226018l 0.44993, -0.226018l 0.44993, -0.226018l 0.44993, -0.226018l 0.44993, -0.226018l 0.44993, -0.226018l 0.44993, -0.226018l 0.44993, -0.226018l 0.44993, -0.226018l 0.44993,
 -0.226018l 0.44993, -0.226018l 0.44993, -0.226018l 0.44993, -0.226018l 0.44993, -0.226018l 0.44993, -0.226018l 0.44993, -0.226018l 0.44993, -0.226018l 0.44993, -0.226018l 0.44993, -0.226018l 0.44993, -0.226018l 0.44993, -0.226018l 0.44993,
 -0.226018l 0.44993, -0.226018l 0.44993, -0.226018l 0.44993, -0.226018l 0.44993, -0.226018l 0.44993, -0.226018l 0.44993, -0.226018l 0.44993, -0.226018l 0.44993, -0.226018l 0.44993, -0.226018l 0.44993, -0.226018l 0.44993, -0.226018l 0.44993,
 -0.226018l 0.44993, -0.226018" fill="none" stroke="#33cccc" stroke-width="3"/>
<path d="M429.45,217.371l 0.44993, -0.226018l 0.44993, -0.226018l 0.44993, -0.226018l 0.44993, -0.226018l 0.44993, -0.226018l 0.44993, -0.226018l 0.44993, -0.226018l 0.44993, -0.226018l 0.44993, -0.226018l 0.44993, -0.226018l 0.44993, -0.226018l
 0.44993, -0.226018l 0.44993, -0.226018l 0.44993, -0.226018l 0.44993, -0.226018l 0.44993, -0.226018l 0.44993, -0.226018l 0.44993, -0.226018l 0.44993, -0.226018l 0.44993, -0.226018l 0.44993, -0.226018l 0.44993, -0.226018l 0.44993, -0.226018l 0.44993,
 -0.226018l 0.44993, -0.226018l 0.44993, -0.226018l 0.44993, -0.226018l 0.44993, -0.226018l 0.44993, -0.226018l 0.44993, -0.226018l 0.44993, -0.226018l 0.44993, -0.226018l 0.44993, -0.226018l 0.44993, -0.226018l 0.44993, -0.226018l 0.44993,
 -0.226018l 0.44993, -0.226018l 0.44993, -0.226018l 0.44993, -0.226018l 0.44993, -0.226018l 0.44993, -0.226018l 0.44993, -0.226018l 0.44993, -0.226018l 0.44993, -0.226018l 0.44993, -0.226018l 0.44993, -0.226018l 0.44993, -0.226018l 0.44993,
 -0.226018l 0.44993, -0.226018" fill="none" stroke="#33cccc" stroke-width="3"/>
<path d="M451.497,206.296l 0.44993, -0.226018l 0.44993, -0.226018l 0.44993, -0.226018l 0.44993, -0.226018l 0.44993, -0.226018l 0.44993, -0.226018l 0.44993, -0.226018l 0.44993, -0.226018l 0.44993, -0.226018l 0.44993, -0.226018l 0.44993, -0.226018l
 0.44993, -0.226018l 0.44993, -0.226018l 0.44993, -0.226018l 0.44993, -0.226018l 0.44993, -0.226018l 0.44993, -0.226018l 0.44993, -0.226018l 0.44993, -0.226018l 0.44993, -0.226018l 0.44993, -0.226018l 0.44993, -0.226018l 0.44993, -0.226018l 0.44993,
 -0.226018l 0.44993, -0.226018l 0.44993, -0.226018l 0.44993, -0.226018l 0.44993, -0.226018l 0.44993, -0.226018l 0.44993, -0.226018l 0.44993, -0.226018l 0.44993, -0.226018l 0.44993, -0.226018l 0.44993, -0.226018l 0.44993, -0.226018l 0.44993,
 -0.226018l 0.44993, -0.226018l 0.44993, -0.226018l 0.44993, -0.226018l 0.44993, -0.226018l 0.44993, -0.226018l 0.44993, -0.226018l 0.44993, -0.226018l 0.44993, -0.226018l 0.44993, -0.226018l 0.44993, -0.226018l 0.44993, -0.226018l 0.44993,
 -0.226018l 0.44993, -0.226018" fill="none" stroke="#33cccc" stroke-width="3"/>
<path d="M473.543,195.221l 0.44993, -0.226018l 0.44993, -0.226018l 0.44993, -0.226018l 0.44993, -0.226018l 0.44993, -0.226018l 0.44993, -0.226018l 0.44993, -0.226018l 0.44993, -0.226018l 0.44993, -0.226018l 0.44993, -0.226018l 0.44993, -0.226018l
 0.44993, -0.226018l 0.44993, -0.226018l 0.44993, -0.226018l 0.44993, -0.226018l 0.44993, -0.226018l 0.44993, -0.226018l 0.44993, -0.226018l 0.44993, -0.226018l 0.44993, -0.226018l 0.44993, -0.226018l 0.44993, -0.226018l 0.44993, -0.226018l 0.44993,
 -0.226018l 0.44993, -0.226018l 0.44993, -0.226018l 0.44993, -0.226018l 0.44993, -0.226018l 0.44993, -0.226018l 0.44993, -0.226018l 0.44993, -0.226018l 0.44993, -0.226018l 0.44993, -0.226018l 0.44993, -0.226018l 0.44993, -0.226018l 0.44993,
 -0.226018l 0.44993, -0.226018l 0.44993, -0.226018l 0.44993, -0.226018l 0.44993, -0.226018l 0.44993, -0.226018l 0.44993, -0.226018l 0.44993, -0.226018l 0.44993, -0.226018l 0.44993, -0.226018l 0.44993, -0.226018l 0.44993, -0.226018l 0.44993,
 -0.226018l 0.44993, -0.226018" fill="none" stroke="#33cccc" stroke-width="3"/>
<path d="M495.59,184.146l 0.44993, -0.226018l 0.44993, -0.226018l 0.44993, -0.226018l 0.44993, -0.226018l 0.44993, -0.226018l 0.44993, -0.226018l 0.44993, -0.226018l 0.44993, -0.226018l 0.44993, -0.226018l 0.44993, -0.226018l 0.44993, -0.226018l
 0.44993, -0.226018l 0.44993, -0.226018l 0.44993, -0.226018l 0.44993, -0.226018l 0.44993, -0.226018l 0.44993, -0.226018l 0.44993, -0.226018l 0.44993, -0.226018l 0.44993, -0.226018l 0.44993, -0.226018l 0.44993, -0.226018l 0.44993, -0.226018l 0.44993,
 -0.226018l 0.44993, -0.226018l 0.44993, -0.226018l 0.44993, -0.226018l 0.44993, -0.226018l 0.44993, -0.226018l 0.44993, -0.226018l 0.44993, -0.226018l 0.44993, -0.226018l 0.44993, -0.226018l 0.44993, -0.226018l 0.44993, -0.226018l 0.44993,
 -0.226018l 0.44993, -0.226018l 0.44993, -0.226018l 0.44993, -0.226018l 0.44993, -0.226018l 0.44993, -0.226018l 0.44993, -0.226018l 0.44993, -0.226018l 0.44993, -0.226018l 0.44993, -0.226018l 0.44993, -0.226018l 0.44993, -0.226018l 0.44993,
 -0.226018l 0.44993, -0.226018" fill="none" stroke="#33cccc" stroke-width="3"/>
<path d="M517.636,173.071l 0.44993, -0.226018l 0.44993, -0.226018l 0.44993, -0.226018l 0.44993, -0.226018l 0.44993, -0.226018l 0.44993, -0.226018l 0.44993, -0.226018l 0.44993, -0.226018l 0.44993, -0.226018l 0.44993, -0.226018l 0.44993, -0.226018l
 0.44993, -0.226018l 0.44993, -0.226018l 0.44993, -0.226018l 0.44993, -0.226018l 0.44993, -0.226018l 0.44993, -0.226018l 0.44993, -0.226018l 0.44993, -0.226018l 0.44993, -0.226018l 0.44993, -0.226018l 0.44993, -0.226018l 0.44993, -0.226018l 0.44993,
 -0.226018l 0.44993, -0.226018l 0.44993, -0.226018l 0.44993, -0.226018l 0.44993, -0.226018l 0.44993, -0.226018l 0.44993, -0.226018l 0.44993, -0.226018l 0.44993, -0.226018l 0.44993, -0.226018l 0.44993, -0.226018l 0.44993, -0.226018l 0.44993,
 -0.226018l 0.44993, -0.226018l 0.44993, -0.226018l 0.44993, -0.226018l 0.44993, -0.226018l 0.44993, -0.226018l 0.44993, -0.226018l 0.44993, -0.226018l 0.44993, -0.226018l 0.44993, -0.226018l 0.44993, -0.226018l 0.44993, -0.226018l 0.44993,
 -0.226018l 0.44993, -0.226018" fill="none" stroke="#33cccc" stroke-width="3"/>
<path d="M539.683,161.996l 0.44993, -0.226018l 0.44993, -0.226018l 0.44993, -0.226018l 0.44993, -0.226018l 0.44993, -0.226018l 0.44993, -0.226018l 0.44993, -0.226018l 0.44993, -0.226018l 0.44993, -0.226018l 0.44993, -0.226018l 0.44993, -0.226018l
 0.44993, -0.226018l 0.44993, -0.226018l 0.44993, -0.226018l 0.44993, -0.226018l 0.44993, -0.226018l 0.44993, -0.226018l 0.44993, -0.226018l 0.44993, -0.226018" fill="none" stroke="#33cccc" stroke-width="3"/>
<path d="M98.7518,426.963l 0.44993, -0.480252l 0.44993, -0.479673l 0.44993, -0.479093l 0.44993, -0.478513l 0.44993, -0.477934l 0.44993, -0.477354l 0.44993, -0.476774l 0.44993, -0.476195l 0.44993, -0.475615l 0.44993, -0.475035l 0.44993, -0.474456l
 0.44993, -0.473876l 0.44993, -0.473296l 0.44993, -0.472717l 0.44993, -0.472137l 0.44993, -0.471557l 0.44993, -0.470977l 0.44993, -0.470398l 0.44993, -0.469818l 0.44993, -0.469238l 0.44993, -0.468659l 0.44993, -0.468079l 0.44993, -0.467499l 0.44993,
 -0.46692l 0.44993, -0.46634l 0.44993, -0.46576l 0.44993, -0.465181l 0.44993, -0.464601l 0.44993, -0.464021l 0.44993, -0.463442l 0.44993, -0.462862l 0.44993, -0.462282l 0.44993, -0.461702l 0.44993, -0.461123l 0.44993, -0.460543l 0.44993, -0.459963l
 0.44993, -0.459384l 0.44993, -0.458804l 0.44993, -0.458224l 0.44993, -0.457645l 0.44993, -0.457065l 0.44993, -0.456485l 0.44993, -0.455906l 0.44993, -0.455326l 0.44993, -0.454746l 0.44993, -0.454167l 0.44993, -0.453587l 0.44993, -0.453007l 0.44993,
 -0.452428" fill="none" stroke="#ff0066" stroke-width="3"/>
<path d="M120.798,404.113l 0.44993, -0.451848l 0.44993, -0.451268l 0.44993, -0.450688l 0.44993, -0.450109l 0.44993, -0.449529l 0.44993, -0.448949l 0.44993, -0.44837l 0.44993, -0.44779l 0.44993, -0.44721l 0.44993, -0.446631l 0.44993, -0.446051l
 0.44993, -0.445471l 0.44993, -0.444892l 0.44993, -0.444312l 0.44993, -0.443732l 0.44993, -0.443153l 0.44993, -0.442573l 0.44993, -0.441993l 0.44993, -0.441414l 0.44993, -0.440834l 0.44993, -0.440254l 0.44993, -0.439674l 0.44993, -0.439095l 0.44993,
 -0.438515l 0.44993, -0.437935l 0.44993, -0.437356l 0.44993, -0.436776l 0.44993, -0.436196l 0.44993, -0.435617l 0.44993, -0.435037l 0.44993, -0.434457l 0.44993, -0.433878l 0.44993, -0.433298l 0.44993, -0.432718l 0.44993, -0.432139l 0.44993,
 -0.431559l 0.44993, -0.430979l 0.44993, -0.4304l 0.44993, -0.42982l 0.44993, -0.42924l 0.44993, -0.42866l 0.44993, -0.428081l 0.44993, -0.427501l 0.44993, -0.426921l 0.44993, -0.426342l 0.44993, -0.425762l 0.44993, -0.425182l 0.44993, -0.424603l
 0.44993, -0.424023" fill="none" stroke="#ff0066" stroke-width="3"/>
<path d="M142.845,382.654l 0.44993, -0.423443l 0.44993, -0.422864l 0.44993, -0.422284l 0.44993, -0.421704l 0.44993, -0.421125l 0.44993, -0.420545l 0.44993, -0.419965l 0.44993, -0.419386l 0.44993, -0.418806l 0.44993, -0.418226l 0.44993, -0.417646l
 0.44993, -0.417067l 0.44993, -0.416487l 0.44993, -0.415907l 0.44993, -0.415328l 0.44993, -0.414748l 0.44993, -0.414168l 0.44993, -0.413589l 0.44993, -0.413009l 0.44993, -0.412429l 0.44993, -0.41185l 0.44993, -0.41127l 0.44993, -0.41069l 0.44993,
 -0.410111l 0.44993, -0.409531l 0.44993, -0.408951l 0.44993, -0.408372l 0.44993, -0.407792l 0.44993, -0.407212l 0.44993, -0.406632l 0.44993, -0.406053l 0.44993, -0.405473l 0.44993, -0.404893l 0.44993, -0.404314l 0.44993, -0.403734l 0.44993,
 -0.403154l 0.44993, -0.402575l 0.44993, -0.401995l 0.44993, -0.401415l 0.44993, -0.400836l 0.44993, -0.400256l 0.44993, -0.399676l 0.44993, -0.399097l 0.44993, -0.398517l 0.44993, -0.397937l 0.44993, -0.397357l 0.44993, -0.396778l 0.44993,
 -0.396198l 0.44993, -0.395618" fill="none" stroke="#ff0066" stroke-width="3"/>
<path d="M164.891,362.587l 0.44993, -0.395039l 0.44993, -0.394459l 0.44993, -0.393879l 0.44993, -0.3933l 0.44993, -0.39272l 0.44993, -0.39214l 0.44993, -0.391561l 0.44993, -0.390981l 0.44993, -0.390401l 0.44993, -0.389822l 0.44993, -0.389242l
 0.44993, -0.388662l 0.44993, -0.388083l 0.44993, -0.387503l 0.44993, -0.386923l 0.44993, -0.386343l 0.44993, -0.385764l 0.44993, -0.385184l 0.44993, -0.384604l 0.44993, -0.384025l 0.44993, -0.383445l 0.44993, -0.382865l 0.44993, -0.382286l 0.44993,
 -0.381706l 0.44993, -0.381126l 0.44993, -0.380547l 0.44993, -0.379967l 0.44993, -0.379387l 0.44993, -0.378808l 0.44993, -0.378228l 0.44993, -0.377648l 0.44993, -0.377069l 0.44993, -0.376489l 0.44993, -0.375909l 0.44993, -0.375329l 0.44993, -0.37475l
 0.44993, -0.37417l 0.44993, -0.37359l 0.44993, -0.373011l 0.44993, -0.372431l 0.44993, -0.371851l 0.44993, -0.371272l 0.44993, -0.370692l 0.44993, -0.370112l 0.44993, -0.369533l 0.44993, -0.368953l 0.44993, -0.368373l 0.44993, -0.367794l 0.44993,
 -0.367214" fill="none" stroke="#ff0066" stroke-width="3"/>
<path d="M186.938,343.912l 0.44993, -0.366634l 0.44993, -0.366055l 0.44993, -0.365475l 0.44993, -0.364895l 0.44993, -0.364315l 0.44993, -0.363736l 0.44993, -0.363156l 0.44993, -0.362576l 0.44993, -0.361997l 0.44993, -0.361417l 0.44993, -0.360837l
 0.44993, -0.360258l 0.44993, -0.359678l 0.44993, -0.359098l 0.44993, -0.358519l 0.44993, -0.357939l 0.44993, -0.357359l 0.44993, -0.35678l 0.44993, -0.3562l 0.44993, -0.35562l 0.44993, -0.355041l 0.44993, -0.354461l 0.44993, -0.353881l 0.44993,
 -0.353301l 0.44993, -0.352722l 0.44993, -0.352142l 0.44993, -0.351562l 0.44993, -0.350983l 0.44993, -0.350403l 0.44993, -0.349823l 0.44993, -0.349244l 0.44993, -0.348664l 0.44993, -0.348084l 0.44993, -0.347505l 0.44993, -0.346925l 0.44993,
 -0.346345l 0.44993, -0.345766l 0.44993, -0.345186l 0.44993, -0.344606l 0.44993, -0.344027l 0.44993, -0.343447l 0.44993, -0.342867l 0.44993, -0.342287l 0.44993, -0.341708l 0.44993, -0.341128l 0.44993, -0.340548l 0.44993, -0.339969l 0.44993,
 -0.339389l 0.44993, -0.338809" fill="none" stroke="#ff0066" stroke-width="3"/>
<path d="M208.985,326.628l 0.44993, -0.33823l 0.44993, -0.33765l 0.44993, -0.33707l 0.44993, -0.336491l 0.44993, -0.335911l 0.44993, -0.335331l 0.44993, -0.334752l 0.44993, -0.334172l 0.44993, -0.333592l 0.44993, -0.333012l 0.44993, -0.332433l
 0.44993, -0.331853l 0.44993, -0.331273l 0.44993, -0.330694l 0.44993, -0.330114l 0.44993, -0.329534l 0.44993, -0.328955l 0.44993, -0.328375l 0.44993, -0.327795l 0.44993, -0.327216l 0.44993, -0.326636l 0.44993, -0.326056l 0.44993, -0.325477l 0.44993,
 -0.324897l 0.44993, -0.324317l 0.44993, -0.323738l 0.44993, -0.323158l 0.44993, -0.322578l 0.44993, -0.321998l 0.44993, -0.321419l 0.44993, -0.320839l 0.44993, -0.320259l 0.44993, -0.31968l 0.44993, -0.3191l 0.44993, -0.31852l 0.44993, -0.317941l
 0.44993, -0.317361l 0.44993, -0.316781l 0.44993, -0.316202l 0.44993, -0.315622l 0.44993, -0.315042l 0.44993, -0.314463l 0.44993, -0.313883l 0.44993, -0.313303l 0.44993, -0.312724l 0.44993, -0.312144l 0.44993, -0.311564l 0.44993, -0.310984l 0.44993,
 -0.310405" fill="none" stroke="#ff0066" stroke-width="3"/>
<path d="M231.031,310.737l 0.44993, -0.309825l 0.44993, -0.309245l 0.44993, -0.308666l 0.44993, -0.308086l 0.44993, -0.307506l 0.44993, -0.306927l 0.44993, -0.306347l 0.44993, -0.305767l 0.44993, -0.305188l 0.44993, -0.304608l 0.44993, -0.304028l
 0.44993, -0.303449l 0.44993, -0.302869l 0.44993, -0.302289l 0.44993, -0.30171l 0.44993, -0.30113l 0.44993, -0.30055l 0.44993, -0.29997l 0.44993, -0.299391l 0.44993, -0.298811l 0.44993, -0.298231l 0.44993, -0.297652l 0.44993, -0.297072l 0.44993,
 -0.296492l 0.44993, -0.295913l 0.44993, -0.295333l 0.44993, -0.294753l 0.44993, -0.294174l 0.44993, -0.293594l 0.44993, -0.293014l 0.44993, -0.292435l 0.44993, -0.291855l 0.44993, -0.291275l 0.44993, -0.290696l 0.44993, -0.290116l 0.44993,
 -0.289536l 0.44993, -0.288956l 0.44993, -0.288377l 0.44993, -0.287797l 0.44993, -0.287217l 0.44993, -0.286638l 0.44993, -0.286058l 0.44993, -0.285478l 0.44993, -0.284899l 0.44993, -0.284319l 0.44993, -0.283739l 0.44993, -0.28316l 0.44993, -0.28258l
 0.44993, -0.282" fill="none" stroke="#ff0066" stroke-width="3"/>
<path d="M253.078,296.237l 0.44993, -0.281421l 0.44993, -0.280841l 0.44993, -0.280261l 0.44993, -0.279682l 0.44993, -0.279102l 0.44993, -0.278522l 0.44993, -0.277942l 0.44993, -0.277363l 0.44993, -0.276783l 0.44993, -0.276203l 0.44993, -0.275624l
 0.44993, -0.275044l 0.44993, -0.274464l 0.44993, -0.273885l 0.44993, -0.273305l 0.44993, -0.272725l 0.44993, -0.272146l 0.44993, -0.271566l 0.44993, -0.270986l 0.44993, -0.270407l 0.44993, -0.269827l 0.44993, -0.269247l 0.44993, -0.268667l 0.44993,
 -0.268088l 0.44993, -0.267508l 0.44993, -0.266928l 0.44993, -0.266349l 0.44993, -0.265769l 0.44993, -0.265189l 0.44993, -0.26461l 0.44993, -0.26403l 0.44993, -0.26345l 0.44993, -0.262871l 0.44993, -0.262291l 0.44993, -0.261711l 0.44993, -0.261132l
 0.44993, -0.260552l 0.44993, -0.259972l 0.44993, -0.259393l 0.44993, -0.258813l 0.44993, -0.258233l 0.44993, -0.257654l 0.44993, -0.257074l 0.44993, -0.256494l 0.44993, -0.255914l 0.44993, -0.255335l 0.44993, -0.254755l 0.44993, -0.254175l 0.44993,
 -0.253596" fill="none" stroke="#ff0066" stroke-width="3"/>
<path d="M275.124,283.129l 0.44993, -0.253016l 0.44993, -0.252436l 0.44993, -0.251857l 0.44993, -0.251277l 0.44993, -0.250697l 0.44993, -0.250118l 0.44993, -0.249538l 0.44993, -0.248958l 0.44993, -0.248379l 0.44993, -0.247799l 0.44993, -0.247219l
 0.44993, -0.246639l 0.44993, -0.24606l 0.44993, -0.24548l 0.44993, -0.2449l 0.44993, -0.244321l 0.44993, -0.243741l 0.44993, -0.243161l 0.44993, -0.242582l 0.44993, -0.242002l 0.44993, -0.241422l 0.44993, -0.240843l 0.44993, -0.240263l 0.44993,
 -0.239683l 0.44993, -0.239104l 0.44993, -0.238524l 0.44993, -0.237944l 0.44993, -0.237365l 0.44993, -0.236785l 0.44993, -0.236205l 0.44993, -0.235625l 0.44993, -0.235046l 0.44993, -0.234466l 0.44993, -0.233886l 0.44993, -0.233307l 0.44993,
 -0.232727l 0.44993, -0.232147l 0.44993, -0.231568l 0.44993, -0.230988l 0.44993, -0.230408l 0.44993, -0.229829l 0.44993, -0.229249l 0.44993, -0.228669l 0.44993, -0.22809l 0.44993, -0.22751l 0.44993, -0.22693l 0.44993, -0.226351l 0.44993, -0.225771l
 0.44993, -0.225191" fill="none" stroke="#ff0066" stroke-width="3"/>
<path d="M297.171,271.413l 0.44993, -0.224611l 0.44993, -0.224032l 0.44993, -0.223452l 0.44993, -0.222872l 0.44993, -0.222293l 0.44993, -0.221713l 0.44993, -0.221133l 0.44993, -0.220554l 0.44993, -0.219974l 0.44993, -0.219394l 0.44993, -0.218815l
 0.44993, -0.218235l 0.44993, -0.217655l 0.44993, -0.217076l 0.44993, -0.216496l 0.44993, -0.215916l 0.44993, -0.215337l 0.44993, -0.214757l 0.44993, -0.214177l 0.44993, -0.213597l 0.44993, -0.213018l 0.44993, -0.212438l 0.44993, -0.211858l 0.44993,
 -0.211279l 0.44993, -0.210699l 0.44993, -0.210119l 0.44993, -0.20954l 0.44993, -0.20896l 0.44993, -0.20838l 0.44993, -0.207801l 0.44993, -0.207221l 0.44993, -0.206641l 0.44993, -0.206062l 0.44993, -0.205482l 0.44993, -0.204902l 0.44993, -0.204323l
 0.44993, -0.203743l 0.44993, -0.203163l 0.44993, -0.202583l 0.44993, -0.202004l 0.44993, -0.201424l 0.44993, -0.200844l 0.44993, -0.200265l 0.44993, -0.199685l 0.44993, -0.199105l 0.44993, -0.198526l 0.44993, -0.197946l 0.44993, -0.197366l 0.44993,
 -0.196787" fill="none" stroke="#ff0066" stroke-width="3"/>
<path d="M319.217,261.089l 0.44993, -0.196207l 0.44993, -0.195627l 0.44993, -0.195048l 0.44993, -0.194468l 0.44993, -0.193888l 0.44993, -0.193309l 0.44993, -0.192729l 0.44993, -0.192149l 0.44993, -0.191569l 0.44993, -0.19099l 0.44993, -0.19041l
 0.44993, -0.18983l 0.44993, -0.189251l 0.44993, -0.188671l 0.44993, -0.188091l 0.44993, -0.187512l 0.44993, -0.186932l 0.44993, -0.186352l 0.44993, -0.185773l 0.44993, -0.185193l 0.44993, -0.184613l 0.44993, -0.184034l 0.44993, -0.183454l 0.44993,
 -0.182874l 0.44993, -0.182294l 0.44993, -0.181715l 0.44993, -0.181135l 0.44993, -0.180555l 0.44993, -0.179976l 0.44993, -0.179396l 0.44993, -0.178816l 0.44993, -0.178237l 0.44993, -0.177657l 0.44993, -0.177077l 0.44993, -0.176498l 0.44993,
 -0.175918l 0.44993, -0.175338l 0.44993, -0.174759l 0.44993, -0.174179l 0.44993, -0.173599l 0.44993, -0.17302l 0.44993, -0.17244l 0.44993, -0.17186l 0.44993, -0.17128l 0.44993, -0.170701l 0.44993, -0.170121l 0.44993, -0.169541l 0.44993, -0.168962l
 0.44993, -0.168382" fill="none" stroke="#ff0066" stroke-width="3"/>
<path d="M341.264,252.156l 0.44993, -0.167802l 0.44993, -0.167223l 0.44993, -0.166643l 0.44993, -0.166063l 0.44993, -0.165484l 0.44993, -0.164904l 0.44993, -0.164324l 0.44993, -0.163745l 0.44993, -0.163165l 0.44993, -0.162585l 0.44993, -0.162006l
 0.44993, -0.161426l 0.44993, -0.160846l 0.44993, -0.160266l 0.44993, -0.159687l 0.44993, -0.159107l 0.44993, -0.158527l 0.44993, -0.157948l 0.44993, -0.157368l 0.44993, -0.156788l 0.44993, -0.156209l 0.44993, -0.155629l 0.44993, -0.155049l 0.44993,
 -0.15447l 0.44993, -0.15389l 0.44993, -0.15331l 0.44993, -0.152731l 0.44993, -0.152151l 0.44993, -0.151571l 0.44993, -0.150992l 0.44993, -0.150412l 0.44993, -0.149832l 0.44993, -0.149252l 0.44993, -0.148673l 0.44993, -0.148093l 0.44993, -0.147513l
 0.44993, -0.146934l 0.44993, -0.146354l 0.44993, -0.145774l 0.44993, -0.145195l 0.44993, -0.144615l 0.44993, -0.144035l 0.44993, -0.143456l 0.44993, -0.142876l 0.44993, -0.142296l 0.44993, -0.141717l 0.44993, -0.141137l 0.44993, -0.140557l 0.44993,
 -0.139978" fill="none" stroke="#ff0066" stroke-width="3"/>
<path d="M363.311,244.616l 0.44993, -0.139398l 0.44993, -0.138818l 0.44993, -0.138238l 0.44993, -0.137659l 0.44993, -0.137079l 0.44993, -0.136499l 0.44993, -0.13592l 0.44993, -0.13534l 0.44993, -0.13476l 0.44993, -0.134181l 0.44993, -0.133601l
 0.44993, -0.133021l 0.44993, -0.132442l 0.44993, -0.131862l 0.44993, -0.131282l 0.44993, -0.130703l 0.44993, -0.130123l 0.44993, -0.129543l 0.44993, -0.128964l 0.44993, -0.128384l 0.44993, -0.127804l 0.44993, -0.127224l 0.44993, -0.126645l 0.44993,
 -0.126065l 0.44993, -0.125485l 0.44993, -0.124906l 0.44993, -0.124326l 0.44993, -0.123746l 0.44993, -0.123167l 0.44993, -0.122587l 0.44993, -0.122007l 0.44993, -0.121428l 0.44993, -0.120848l 0.44993, -0.120268l 0.44993, -0.119689l 0.44993,
 -0.119109l 0.44993, -0.118529l 0.44993, -0.117949l 0.44993, -0.11737l 0.44993, -0.11679l 0.44993, -0.11621l 0.44993, -0.115631l 0.44993, -0.115051l 0.44993, -0.114471l 0.44993, -0.113892l 0.44993, -0.113312l 0.44993, -0.112732l 0.44993, -0.112153l
 0.44993, -0.111573" fill="none" stroke="#ff0066" stroke-width="3"/>
<path d="M385.357,238.467l 0.44993, -0.110993l 0.44993, -0.110414l 0.44993, -0.109834l 0.44993, -0.109254l 0.44993, -0.108675l 0.44993, -0.108095l 0.44993, -0.107515l 0.44993, -0.106935l 0.44993, -0.106356l 0.44993, -0.105776l 0.44993, -0.105196l
 0.44993, -0.104617l 0.44993, -0.104037l 0.44993, -0.103457l 0.44993, -0.102878l 0.44993, -0.102298l 0.44993, -0.101718l 0.44993, -0.101139l 0.44993, -0.100559l 0.44993, -0.0999793l 0.44993, -0.0993996l 0.44993, -0.0988199l 0.44993, -0.0982402l
 0.44993, -0.0976605l 0.44993, -0.0970808l 0.44993, -0.0965012l 0.44993, -0.0959215l 0.44993, -0.0953418l 0.44993, -0.0947621l 0.44993, -0.0941824l 0.44993, -0.0936027l 0.44993, -0.0930231l 0.44993, -0.0924434l 0.44993, -0.0918637l 0.44993,
 -0.091284l 0.44993, -0.0907043l 0.44993, -0.0901246l 0.44993, -0.0895449l 0.44993, -0.0889653l 0.44993, -0.0883856l 0.44993, -0.0878059l 0.44993, -0.0872262l 0.44993, -0.0866465l 0.44993, -0.0860668l 0.44993, -0.0854871l 0.44993, -0.0849075l
 0.44993, -0.0843278l 0.44993, -0.0837481l 0.44993, -0.0831684" fill="none" stroke="#ff0066" stroke-width="3"/>
<path d="M407.404,233.71l 0.44993, -0.0825887l 0.44993, -0.082009l 0.44993, -0.0814294l 0.44993, -0.0808497l 0.44993, -0.08027l 0.44993, -0.0796903l 0.44993, -0.0791106l 0.44993, -0.0785309l 0.44993, -0.0779513l 0.44993, -0.0773716l 0.44993,
 -0.0767919l 0.44993, -0.0762122l 0.44993, -0.0756325l 0.44993, -0.0750528l 0.44993, -0.0744731l 0.44993, -0.0738935l 0.44993, -0.0733138l 0.44993, -0.0727341l 0.44993, -0.0721544l 0.44993, -0.0715747l 0.44993, -0.070995l 0.44993, -0.0704153l
 0.44993, -0.0698357l 0.44993, -0.069256l 0.44993, -0.0686763l 0.44993, -0.0680966l 0.44993, -0.0675169l 0.44993, -0.0669372l 0.44993, -0.0663576l 0.44993, -0.0657779l 0.44993, -0.0651982l 0.44993, -0.0646185l 0.44993, -0.0640388l 0.44993,
 -0.0634591l 0.44993, -0.0628795l 0.44993, -0.0622998l 0.44993, -0.0617201l 0.44993, -0.0611404l 0.44993, -0.0605607l 0.44993, -0.059981l 0.44993, -0.0594013l 0.44993, -0.0588217l 0.44993, -0.058242l 0.44993, -0.0576623l 0.44993, -0.0570826l 0.44993,
 -0.0565029l 0.44993, -0.0559232l 0.44993, -0.0553435l 0.44993, -0.0547639" fill="none" stroke="#ff0066" stroke-width="3"/>
<path d="M429.45,230.345l 0.44993, -0.0541842l 0.44993, -0.0536045l 0.44993, -0.0530248l 0.44993, -0.0524451l 0.44993, -0.0518654l 0.44993, -0.0512858l 0.44993, -0.0507061l 0.44993, -0.0501264l 0.44993, -0.0495467l 0.44993, -0.048967l 0.44993,
 -0.0483873l 0.44993, -0.0478076l 0.44993, -0.047228l 0.44993, -0.0466483l 0.44993, -0.0460686l 0.44993, -0.0454889l 0.44993, -0.0449092l 0.44993, -0.0443295l 0.44993, -0.0437499l 0.44993, -0.0431702l 0.44993, -0.0425905l 0.44993, -0.0420108l
 0.44993, -0.0414311l 0.44993, -0.0408514l 0.44993, -0.0402717l 0.44993, -0.0396921l 0.44993, -0.0391124l 0.44993, -0.0385327l 0.44993, -0.037953l 0.44993, -0.0373733l 0.44993, -0.0367936l 0.44993, -0.036214l 0.44993, -0.0356343l 0.44993, -0.0350546l
 0.44993, -0.0344749l 0.44993, -0.0338952l 0.44993, -0.0333155l 0.44993, -0.0327358l 0.44993, -0.0321562l 0.44993, -0.0315765l 0.44993, -0.0309968l 0.44993, -0.0304171l 0.44993, -0.0298374l 0.44993, -0.0292577l 0.44993, -0.0286781l 0.44993,
 -0.0280984l 0.44993, -0.0275187l 0.44993, -0.026939l 0.44993, -0.0263593" fill="none" stroke="#ff0066" stroke-width="3"/>
<path d="M451.497,228.372l 0.44993, -0.0257796l 0.44993, -0.0251999l 0.44993, -0.0246203l 0.44993, -0.0240406l 0.44993, -0.0234609l 0.44993, -0.0228812l 0.44993, -0.0223015l 0.44993, -0.0217218l 0.44993, -0.0211422l 0.44993, -0.0205625l 0.44993,
 -0.0199828l 0.44993, -0.0194031l 0.44993, -0.0188234l 0.44993, -0.0182437l 0.44993, -0.017664l 0.44993, -0.0170844l 0.44993, -0.0165047l 0.44993, -0.015925l 0.44993, -0.0153453l 0.44993, -0.0147656l 0.44993, -0.0141859l 0.44993, -0.0136063l 0.44993,
 -0.0130266l 0.44993, -0.0124469l 0.44993, -0.0118672l 0.44993, -0.0112875l 0.44993, -0.0107078l 0.44993, -0.0101281l 0.44993, -0.00954846l 0.44993, -0.00896878l 0.44993, -0.00838909l 0.44993, -0.00780941l 0.44993, -0.00722972l 0.44993, -0.00665004l
 0.44993, -0.00607035l 0.44993, -0.00549067l 0.44993, -0.00491098l 0.44993, -0.0043313l 0.44993, -0.00375161l 0.44993, -0.00317193l 0.44993, -0.00259224l 0.44993, -0.00201256l 0.44993, -0.00143288l 0.44993, -0.000853191l 0.44993, -0.000273506l
 0.44993, 0.000306178l 0.44993, 0.000885863l 0.44993, 0.00146555l 0.44993, 0.00204523" fill="none" stroke="#ff0066" stroke-width="3"/>
<path d="M473.543,227.79l 0.44993, 0.00262492l 0.44993, 0.0032046l 0.44993, 0.00378429l 0.44993, 0.00436397l 0.44993, 0.00494366l 0.44993, 0.00552334l 0.44993, 0.00610302l 0.44993, 0.00668271l 0.44993, 0.00726239l 0.44993, 0.00784208l 0.44993,
 0.00842176l 0.44993, 0.00900145l 0.44993, 0.00958113l 0.44993, 0.0101608l 0.44993, 0.0107405l 0.44993, 0.0113202l 0.44993, 0.0118999l 0.44993, 0.0124796l 0.44993, 0.0130592l 0.44993, 0.0136389l 0.44993, 0.0142186l 0.44993, 0.0147983l 0.44993,
 0.015378l 0.44993, 0.0159577l 0.44993, 0.0165373l 0.44993, 0.017117l 0.44993, 0.0176967l 0.44993, 0.0182764l 0.44993, 0.0188561l 0.44993, 0.0194358l 0.44993, 0.0200155l 0.44993, 0.0205951l 0.44993, 0.0211748l 0.44993, 0.0217545l 0.44993, 0.0223342l
 0.44993, 0.0229139l 0.44993, 0.0234936l 0.44993, 0.0240732l 0.44993, 0.0246529l 0.44993, 0.0252326l 0.44993, 0.0258123l 0.44993, 0.026392l 0.44993, 0.0269717l 0.44993, 0.0275514l 0.44993, 0.028131l 0.44993, 0.0287107l 0.44993, 0.0292904l 0.44993,
 0.0298701l 0.44993, 0.0304498" fill="none" stroke="#ff0066" stroke-width="3"/>
<path d="M495.59,228.6l 0.44993, 0.0310295l 0.44993, 0.0316092l 0.44993, 0.0321888l 0.44993, 0.0327685l 0.44993, 0.0333482l 0.44993, 0.0339279l 0.44993, 0.0345076l 0.44993, 0.0350873l 0.44993, 0.0356669l 0.44993, 0.0362466l 0.44993, 0.0368263l
 0.44993, 0.037406l 0.44993, 0.0379857l 0.44993, 0.0385654l 0.44993, 0.039145l 0.44993, 0.0397247l 0.44993, 0.0403044l 0.44993, 0.0408841l 0.44993, 0.0414638l 0.44993, 0.0420435l 0.44993, 0.0426232l 0.44993, 0.0432028l 0.44993, 0.0437825l 0.44993,
 0.0443622l 0.44993, 0.0449419l 0.44993, 0.0455216l 0.44993, 0.0461013l 0.44993, 0.0466809l 0.44993, 0.0472606l 0.44993, 0.0478403l 0.44993, 0.04842l 0.44993, 0.0489997l 0.44993, 0.0495794l 0.44993, 0.0501591l 0.44993, 0.0507387l 0.44993, 0.0513184l
 0.44993, 0.0518981l 0.44993, 0.0524778l 0.44993, 0.0530575l 0.44993, 0.0536372l 0.44993, 0.0542169l 0.44993, 0.0547965l 0.44993, 0.0553762l 0.44993, 0.0559559l 0.44993, 0.0565356l 0.44993, 0.0571153l 0.44993, 0.057695l 0.44993, 0.0582746l 0.44993,
 0.0588543" fill="none" stroke="#ff0066" stroke-width="3"/>
<path d="M517.636,230.803l 0.44993, 0.059434l 0.44993, 0.0600137l 0.44993, 0.0605934l 0.44993, 0.0611731l 0.44993, 0.0617528l 0.44993, 0.0623324l 0.44993, 0.0629121l 0.44993, 0.0634918l 0.44993, 0.0640715l 0.44993, 0.0646512l 0.44993, 0.0652309l
 0.44993, 0.0658105l 0.44993, 0.0663902l 0.44993, 0.0669699l 0.44993, 0.0675496l 0.44993, 0.0681293l 0.44993, 0.068709l 0.44993, 0.0692887l 0.44993, 0.0698683l 0.44993, 0.070448l 0.44993, 0.0710277l 0.44993, 0.0716074l 0.44993, 0.0721871l 0.44993,
 0.0727668l 0.44993, 0.0733464l 0.44993, 0.0739261l 0.44993, 0.0745058l 0.44993, 0.0750855l 0.44993, 0.0756652l 0.44993, 0.0762449l 0.44993, 0.0768246l 0.44993, 0.0774042l 0.44993, 0.0779839l 0.44993, 0.0785636l 0.44993, 0.0791433l 0.44993, 0.079723l
 0.44993, 0.0803027l 0.44993, 0.0808823l 0.44993, 0.081462l 0.44993, 0.0820417l 0.44993, 0.0826214l 0.44993, 0.0832011l 0.44993, 0.0837808l 0.44993, 0.0843605l 0.44993, 0.0849401l 0.44993, 0.0855198l 0.44993, 0.0860995l 0.44993, 0.0866792l 0.44993,
 0.0872589" fill="none" stroke="#ff0066" stroke-width="3"/>
<path d="M539.683,234.397l 0.44993, 0.0878386l 0.44993, 0.0884182l 0.44993, 0.0889979l 0.44993, 0.0895776l 0.44993, 0.0901573l 0.44993, 0.090737l 0.44993, 0.0913167l 0.44993, 0.0918964l 0.44993, 0.092476l 0.44993, 0.0930557l 0.44993, 0.0936354l
 0.44993, 0.0942151l 0.44993, 0.0947948l 0.44993, 0.0953745l 0.44993, 0.0959541l 0.44993, 0.0965338l 0.44993, 0.0971135l 0.44993, 0.0976932l 0.44993, 0.0982729" fill="none" stroke="#ff0066" stroke-width="3"/>
<path d="M176.515,21.4167h 311.951" fill="none" stroke="#999999" stroke-width="7"/>
<text xml:space="preserve" x="360.607" y="50.7193" fill="black" font-size="16.0105" font-family="Helvetica"> with EMC</text>
<text xml:space="preserve" x="352.717" y="50.7193" fill="black" font-size="16.0105" font-family="Times">&#0947;</text>
<text xml:space="preserve" x="344.828" y="50.7193" fill="black" font-size="16.0105" font-family="Times">&#0947;</text>
<text xml:space="preserve" x="336.938" y="50.7193" fill="black" font-size="16.0105" font-family="Times">&#0947;</text>
<text xml:space="preserve" x="331.866" y="50.7193" fill="black" font-size="16.0105" font-family="Helvetica"> </text>
<text xml:space="preserve" x="316.65" y="50.7193" fill="black" font-size="16.0105" font-family="Times">&#8594;</text>
<text xml:space="preserve" x="311.578" y="50.7193" fill="black" font-size="16.0105" font-family="Helvetica"> </text>
<text xml:space="preserve" x="303.689" y="50.7193" fill="black" font-size="16.0105" font-family="Times">&#0947;</text>
<text xml:space="preserve" x="298.053" y="45.0838" fill="black" font-size="10.8403" font-family="Helvetica">0</text>
<text xml:space="preserve" x="289.6" y="50.7193" fill="black" font-size="16.0105" font-family="Times">&#0960;</text>
<text xml:space="preserve" x="284.528" y="50.7193" fill="black" font-size="16.0105" font-family="Helvetica"> </text>
<text xml:space="preserve" x="269.312" y="50.7193" fill="black" font-size="16.0105" font-family="Times">&#8594;</text>
<text xml:space="preserve" x="264.24" y="50.7193" fill="black" font-size="16.0105" font-family="Helvetica"> </text>
<text xml:space="preserve" x="252.969" y="50.7193" fill="black" font-size="16.0105" font-family="Times">&#0969;</text>
<text xml:space="preserve" x="128.989" y="50.7193" fill="black" font-size="16.0105" font-family="Helvetica"> = 13 TeV (EG1), </text>
<text xml:space="preserve" x="120.536" y="50.7193" fill="black" font-size="16.0105" font-family="Helvetica" font-style="oblique">s</text>
<path d="M114.9,41.7025l 1.69064, 9.58031" fill="none" stroke="black" stroke-width="2"/>
<path d="M116.591,51.2829l 2.25419, -14.0887" fill="none" stroke="black"/>
<path d="M118.845,37.1942h 10.1439" fill="none" stroke="black"/>
<text xml:space="preserve" x="89.5406" y="50.7193" fill="black" font-size="16.0105" font-family="Helvetica">pp </text>
<text xml:space="preserve" x="89.5406" y="85.6593" fill="black" font-size="16.0105" font-family="Helvetica">ALICE work in progress</text>
<text xml:space="preserve" x="205.068" y="120.599" fill="black" font-size="16.0105" font-family="Helvetica">) &lt; 6.0</text>
<text xml:space="preserve" x="196.051" y="120.599" fill="black" font-size="16.0105" font-family="Helvetica" font-style="oblique">c</text>
<text xml:space="preserve" x="145.895" y="120.599" fill="black" font-size="16.0105" font-family="Helvetica"> /(GeV/</text>
<text xml:space="preserve" x="139.133" y="128.489" fill="black" font-size="10.8403" font-family="Helvetica">T</text>
<text xml:space="preserve" x="129.552" y="120.599" fill="black" font-size="16.0105" font-family="Helvetica" font-style="oblique">p</text>
<text xml:space="preserve" x="124.481" y="120.599" fill="black" font-size="16.0105" font-family="Helvetica"> </text>
<text xml:space="preserve" x="116.027" y="120.599" fill="black" font-size="16.0105" font-family="Times">&#8804;</text>
<text xml:space="preserve" x="89.5406" y="120.599" fill="black" font-size="16.0105" font-family="Helvetica">4.0 </text>
<rect x="312.311" y="69.1755" width="198.425" height="113.448" fill="white"/>
<text xml:space="preserve" x="361.734" y="85.0957" fill="black" font-size="16.0105" font-family="Helvetica">ratio</text>
<path d="M319.752,80.5203h 34.7244" fill="none" stroke="black" stroke-width="2"/>
<g fill="black">
<circle cx="337.114" cy="80.5203" r="6.76257"/>
</g>
<text xml:space="preserve" x="361.734" y="108.201" fill="black" font-size="16.0105" font-family="Helvetica">peak range</text>
<path d="M319.752,103.21h 34.7244" fill="none" stroke="#333333" stroke-width="2"/>
<g stroke="#333333" stroke-width="2" fill="none">
<circle cx="337.114" cy="103.21" r="5.63548"/>
</g>
<text xml:space="preserve" x="361.734" y="130.743" fill="black" font-size="16.0105" font-family="Helvetica">background pol1</text>
<path d="M319.752,125.899h 34.7244" fill="none" stroke="#33cccc" stroke-width="3"/>
<text xml:space="preserve" x="361.734" y="153.285" fill="black" font-size="16.0105" font-family="Helvetica">background pol2</text>
<path d="M319.752,148.589h 34.7244" fill="none" stroke="#ff0066" stroke-width="3"/>
<text xml:space="preserve" x="361.734" y="175.827" fill="black" font-size="16.0105" font-family="Helvetica">param. range</text>
<path d="M319.752,171.279h 34.7244" fill="none" stroke="#999999" stroke-width="7"/></svg>
