<?xml version="1.0" standalone="no"?>
<svg width="567.429" height="553.904" viewBox="0 0 567.429 553.904" xmlns="http://www.w3.org/2000/svg" shape-rendering="crispEdges">
<title>
Data/EG1/OmegaTGPSPlusPS/SameEventToBackgroundRatio_03.svg
</title>
<desc>
Creator: ROOT Version 6.20/08
CreationDate: Mon Mar 29 21:28:53 2021</desc>
<defs>
</defs>
<rect x="0.5" y="0" width="566.929" height="553.404" fill="white"/>
<rect x="68.5315" y="16.6021" width="484.724" height="481.461" fill="white"/>
<rect x="68.5315" y="16.6021" width="484.724" height="481.461" fill="none" stroke="black"/>
<rect x="68.5315" y="16.6021" width="484.724" height="481.461" fill="white"/>
<rect x="68.5315" y="16.6021" width="484.724" height="481.461" fill="none" stroke="black"/>
<g fill="black">
<circle cx="109.325" cy="452.971" r="6.76257"/>
</g>
<g fill="black">
<circle cx="114.124" cy="254.683" r="6.76257"/>
</g>
<g fill="black">
<circle cx="118.924" cy="217.746" r="6.76257"/>
</g>
<g fill="black">
<circle cx="123.723" cy="197.15" r="6.76257"/>
</g>
<g fill="black">
<circle cx="128.522" cy="241.451" r="6.76257"/>
</g>
<g fill="black">
<circle cx="133.321" cy="283.038" r="6.76257"/>
</g>
<g fill="black">
<circle cx="138.121" cy="269.426" r="6.76257"/>
</g>
<g fill="black">
<circle cx="142.92" cy="273.037" r="6.76257"/>
</g>
<g fill="black">
<circle cx="147.719" cy="269.537" r="6.76257"/>
</g>
<g fill="black">
<circle cx="152.518" cy="269.251" r="6.76257"/>
</g>
<g fill="black">
<circle cx="157.318" cy="270.763" r="6.76257"/>
</g>
<g fill="black">
<circle cx="162.117" cy="272.489" r="6.76257"/>
</g>
<g fill="black">
<circle cx="166.916" cy="275.322" r="6.76257"/>
</g>
<g fill="black">
<circle cx="171.715" cy="276.943" r="6.76257"/>
</g>
<g fill="black">
<circle cx="176.515" cy="278.796" r="6.76257"/>
</g>
<g fill="black">
<circle cx="181.314" cy="280.654" r="6.76257"/>
</g>
<g fill="black">
<circle cx="186.113" cy="279.422" r="6.76257"/>
</g>
<g fill="black">
<circle cx="190.912" cy="281.12" r="6.76257"/>
</g>
<g fill="black">
<circle cx="195.712" cy="281.187" r="6.76257"/>
</g>
<g fill="black">
<circle cx="200.511" cy="283.006" r="6.76257"/>
</g>
<g fill="black">
<circle cx="205.31" cy="283.427" r="6.76257"/>
</g>
<g fill="black">
<circle cx="210.109" cy="284.086" r="6.76257"/>
</g>
<g fill="black">
<circle cx="214.909" cy="284.562" r="6.76257"/>
</g>
<g fill="black">
<circle cx="219.708" cy="285.463" r="6.76257"/>
</g>
<g fill="black">
<circle cx="224.507" cy="285.085" r="6.76257"/>
</g>
<g fill="black">
<circle cx="229.306" cy="284.6" r="6.76257"/>
</g>
<g fill="black">
<circle cx="234.106" cy="283.578" r="6.76257"/>
</g>
<g fill="black">
<circle cx="238.905" cy="283.942" r="6.76257"/>
</g>
<g fill="black">
<circle cx="243.704" cy="282.916" r="6.76257"/>
</g>
<g fill="black">
<circle cx="248.503" cy="283.015" r="6.76257"/>
</g>
<g fill="black">
<circle cx="253.303" cy="283.554" r="6.76257"/>
</g>
<g fill="black">
<circle cx="258.102" cy="283.576" r="6.76257"/>
</g>
<g fill="black">
<circle cx="262.901" cy="282.476" r="6.76257"/>
</g>
<g fill="black">
<circle cx="267.7" cy="282.582" r="6.76257"/>
</g>
<g fill="black">
<circle cx="272.5" cy="283.509" r="6.76257"/>
</g>
<g fill="black">
<circle cx="277.299" cy="281.835" r="6.76257"/>
</g>
<g fill="black">
<circle cx="339.689" cy="280.877" r="6.76257"/>
</g>
<g fill="black">
<circle cx="344.488" cy="279.817" r="6.76257"/>
</g>
<g fill="black">
<circle cx="349.288" cy="277.2" r="6.76257"/>
</g>
<g fill="black">
<circle cx="354.087" cy="277.159" r="6.76257"/>
</g>
<g fill="black">
<circle cx="358.886" cy="275.62" r="6.76257"/>
</g>
<g fill="black">
<circle cx="363.685" cy="277.392" r="6.76257"/>
</g>
<g fill="black">
<circle cx="368.485" cy="274.563" r="6.76257"/>
</g>
<g fill="black">
<circle cx="373.284" cy="272.764" r="6.76257"/>
</g>
<g fill="black">
<circle cx="378.083" cy="275.223" r="6.76257"/>
</g>
<g fill="black">
<circle cx="382.882" cy="272.383" r="6.76257"/>
</g>
<g fill="black">
<circle cx="387.682" cy="272.055" r="6.76257"/>
</g>
<g fill="black">
<circle cx="392.481" cy="269.568" r="6.76257"/>
</g>
<g fill="black">
<circle cx="397.28" cy="269.316" r="6.76257"/>
</g>
<g fill="black">
<circle cx="402.079" cy="265.346" r="6.76257"/>
</g>
<g fill="black">
<circle cx="406.879" cy="264.595" r="6.76257"/>
</g>
<g fill="black">
<circle cx="411.678" cy="266.202" r="6.76257"/>
</g>
<g fill="black">
<circle cx="416.477" cy="264.93" r="6.76257"/>
</g>
<g fill="black">
<circle cx="421.276" cy="261.91" r="6.76257"/>
</g>
<g fill="black">
<circle cx="426.076" cy="264.392" r="6.76257"/>
</g>
<g fill="black">
<circle cx="430.875" cy="261.593" r="6.76257"/>
</g>
<g fill="black">
<circle cx="435.674" cy="260.086" r="6.76257"/>
</g>
<g fill="black">
<circle cx="440.473" cy="258.834" r="6.76257"/>
</g>
<g fill="black">
<circle cx="445.273" cy="256.363" r="6.76257"/>
</g>
<g fill="black">
<circle cx="450.072" cy="254.583" r="6.76257"/>
</g>
<g fill="black">
<circle cx="454.871" cy="255.822" r="6.76257"/>
</g>
<g fill="black">
<circle cx="459.671" cy="252.552" r="6.76257"/>
</g>
<g fill="black">
<circle cx="464.47" cy="249.508" r="6.76257"/>
</g>
<g fill="black">
<circle cx="469.269" cy="251.456" r="6.76257"/>
</g>
<g fill="black">
<circle cx="474.068" cy="246.743" r="6.76257"/>
</g>
<g fill="black">
<circle cx="478.867" cy="243.231" r="6.76257"/>
</g>
<g fill="black">
<circle cx="483.667" cy="243.206" r="6.76257"/>
</g>
<g fill="black">
<circle cx="488.466" cy="245.882" r="6.76257"/>
</g>
<g fill="black">
<circle cx="493.265" cy="238.761" r="6.76257"/>
</g>
<g fill="black">
<circle cx="498.065" cy="237.706" r="6.76257"/>
</g>
<g fill="black">
<circle cx="502.864" cy="241.367" r="6.76257"/>
</g>
<g fill="black">
<circle cx="507.663" cy="234.897" r="6.76257"/>
</g>
<g fill="black">
<circle cx="512.462" cy="235.39" r="6.76257"/>
</g>
<g fill="black">
<circle cx="517.262" cy="232.359" r="6.76257"/>
</g>
<g fill="black">
<circle cx="522.061" cy="231.271" r="6.76257"/>
</g>
<g fill="black">
<circle cx="526.86" cy="231.59" r="6.76257"/>
</g>
<g fill="black">
<circle cx="531.659" cy="225.566" r="6.76257"/>
</g>
<g fill="black">
<circle cx="536.458" cy="221.704" r="6.76257"/>
</g>
<g fill="black">
<circle cx="541.258" cy="222.4" r="6.76257"/>
</g>
<g fill="black">
<circle cx="546.057" cy="222.458" r="6.76257"/>
</g>
<path d="M68.5315,498.064h 484.724" fill="none" stroke="black"/>
<path d="M68.5315,483.869v 14.1948" fill="none" stroke="black"/>
<path d="M83.5292,490.966v 7.09741" fill="none" stroke="black"/>
<path d="M98.5268,490.966v 7.09741" fill="none" stroke="black"/>
<path d="M113.524,490.966v 7.09741" fill="none" stroke="black"/>
<path d="M128.522,483.869v 14.1948" fill="none" stroke="black"/>
<path d="M143.52,490.966v 7.09741" fill="none" stroke="black"/>
<path d="M158.517,490.966v 7.09741" fill="none" stroke="black"/>
<path d="M173.515,490.966v 7.09741" fill="none" stroke="black"/>
<path d="M188.513,483.869v 14.1948" fill="none" stroke="black"/>
<path d="M203.51,490.966v 7.09741" fill="none" stroke="black"/>
<path d="M218.508,490.966v 7.09741" fill="none" stroke="black"/>
<path d="M233.506,490.966v 7.09741" fill="none" stroke="black"/>
<path d="M248.503,483.869v 14.1948" fill="none" stroke="black"/>
<path d="M263.501,490.966v 7.09741" fill="none" stroke="black"/>
<path d="M278.499,490.966v 7.09741" fill="none" stroke="black"/>
<path d="M293.496,490.966v 7.09741" fill="none" stroke="black"/>
<path d="M308.494,483.869v 14.1948" fill="none" stroke="black"/>
<path d="M323.492,490.966v 7.09741" fill="none" stroke="black"/>
<path d="M338.489,490.966v 7.09741" fill="none" stroke="black"/>
<path d="M353.487,490.966v 7.09741" fill="none" stroke="black"/>
<path d="M368.485,483.869v 14.1948" fill="none" stroke="black"/>
<path d="M383.482,490.966v 7.09741" fill="none" stroke="black"/>
<path d="M398.48,490.966v 7.09741" fill="none" stroke="black"/>
<path d="M413.478,490.966v 7.09741" fill="none" stroke="black"/>
<path d="M428.475,483.869v 14.1948" fill="none" stroke="black"/>
<path d="M443.473,490.966v 7.09741" fill="none" stroke="black"/>
<path d="M458.471,490.966v 7.09741" fill="none" stroke="black"/>
<path d="M473.468,490.966v 7.09741" fill="none" stroke="black"/>
<path d="M488.466,483.869v 14.1948" fill="none" stroke="black"/>
<path d="M503.464,490.966v 7.09741" fill="none" stroke="black"/>
<path d="M518.461,490.966v 7.09741" fill="none" stroke="black"/>
<path d="M533.459,490.966v 7.09741" fill="none" stroke="black"/>
<path d="M548.457,483.869v 14.1948" fill="none" stroke="black"/>
<path d="M548.457,483.869v 14.1948" fill="none" stroke="black"/>
<text xml:space="preserve" x="63.6174" y="513.956" fill="black" font-size="16.0105" font-family="Helvetica">0</text>
<text xml:space="preserve" x="117.718" y="513.956" fill="black" font-size="16.0105" font-family="Helvetica">0.2</text>
<text xml:space="preserve" x="177.454" y="513.956" fill="black" font-size="16.0105" font-family="Helvetica">0.4</text>
<text xml:space="preserve" x="237.754" y="513.956" fill="black" font-size="16.0105" font-family="Helvetica">0.6</text>
<text xml:space="preserve" x="297.49" y="513.956" fill="black" font-size="16.0105" font-family="Helvetica">0.8</text>
<text xml:space="preserve" x="365.115" y="513.956" fill="black" font-size="16.0105" font-family="Helvetica">1</text>
<text xml:space="preserve" x="417.525" y="513.956" fill="black" font-size="16.0105" font-family="Helvetica">1.2</text>
<text xml:space="preserve" x="477.261" y="513.956" fill="black" font-size="16.0105" font-family="Helvetica">1.4</text>
<text xml:space="preserve" x="537.561" y="513.956" fill="black" font-size="16.0105" font-family="Helvetica">1.6</text>
<text xml:space="preserve" x="548.268" y="537.625" fill="black" font-size="16.0105" font-family="Helvetica">)</text>
<text xml:space="preserve" x="542.633" y="532.553" fill="black" font-size="10.8403" font-family="Helvetica">2</text>
<text xml:space="preserve" x="533.616" y="537.625" fill="black" font-size="16.0105" font-family="Helvetica" font-style="oblique">c</text>
<text xml:space="preserve" x="487.405" y="537.625" fill="black" font-size="16.0105" font-family="Helvetica"> (GeV/</text>
<text xml:space="preserve" x="473.317" y="542.697" fill="black" font-size="10.8403" font-family="Helvetica">inv</text>
<text xml:space="preserve" x="459.792" y="537.625" fill="black" font-size="16.0105" font-family="Helvetica" font-style="oblique">m</text>
<path d="M68.5315,16.6021h 484.724" fill="none" stroke="black"/>
<path d="M68.5315,30.7969v -14.1948" fill="none" stroke="black"/>
<path d="M83.5292,23.6995v -7.09741" fill="none" stroke="black"/>
<path d="M98.5268,23.6995v -7.09741" fill="none" stroke="black"/>
<path d="M113.524,23.6995v -7.09741" fill="none" stroke="black"/>
<path d="M128.522,30.7969v -14.1948" fill="none" stroke="black"/>
<path d="M143.52,23.6995v -7.09741" fill="none" stroke="black"/>
<path d="M158.517,23.6995v -7.09741" fill="none" stroke="black"/>
<path d="M173.515,23.6995v -7.09741" fill="none" stroke="black"/>
<path d="M188.513,30.7969v -14.1948" fill="none" stroke="black"/>
<path d="M203.51,23.6995v -7.09741" fill="none" stroke="black"/>
<path d="M218.508,23.6995v -7.09741" fill="none" stroke="black"/>
<path d="M233.506,23.6995v -7.09741" fill="none" stroke="black"/>
<path d="M248.503,30.7969v -14.1948" fill="none" stroke="black"/>
<path d="M263.501,23.6995v -7.09741" fill="none" stroke="black"/>
<path d="M278.499,23.6995v -7.09741" fill="none" stroke="black"/>
<path d="M293.496,23.6995v -7.09741" fill="none" stroke="black"/>
<path d="M308.494,30.7969v -14.1948" fill="none" stroke="black"/>
<path d="M323.492,23.6995v -7.09741" fill="none" stroke="black"/>
<path d="M338.489,23.6995v -7.09741" fill="none" stroke="black"/>
<path d="M353.487,23.6995v -7.09741" fill="none" stroke="black"/>
<path d="M368.485,30.7969v -14.1948" fill="none" stroke="black"/>
<path d="M383.482,23.6995v -7.09741" fill="none" stroke="black"/>
<path d="M398.48,23.6995v -7.09741" fill="none" stroke="black"/>
<path d="M413.478,23.6995v -7.09741" fill="none" stroke="black"/>
<path d="M428.475,30.7969v -14.1948" fill="none" stroke="black"/>
<path d="M443.473,23.6995v -7.09741" fill="none" stroke="black"/>
<path d="M458.471,23.6995v -7.09741" fill="none" stroke="black"/>
<path d="M473.468,23.6995v -7.09741" fill="none" stroke="black"/>
<path d="M488.466,30.7969v -14.1948" fill="none" stroke="black"/>
<path d="M503.464,23.6995v -7.09741" fill="none" stroke="black"/>
<path d="M518.461,23.6995v -7.09741" fill="none" stroke="black"/>
<path d="M533.459,23.6995v -7.09741" fill="none" stroke="black"/>
<path d="M548.457,30.7969v -14.1948" fill="none" stroke="black"/>
<path d="M548.457,30.7969v -14.1948" fill="none" stroke="black"/>
<path d="M68.5315,498.064v -481.461" fill="none" stroke="black"/>
<path d="M83.3283,498.064h -14.7969" fill="none" stroke="black"/>
<path d="M75.9299,484.623h -7.39843" fill="none" stroke="black"/>
<path d="M75.9299,471.183h -7.39843" fill="none" stroke="black"/>
<path d="M75.9299,457.742h -7.39843" fill="none" stroke="black"/>
<path d="M75.9299,444.302h -7.39843" fill="none" stroke="black"/>
<path d="M83.3283,430.861h -14.7969" fill="none" stroke="black"/>
<path d="M75.9299,417.421h -7.39843" fill="none" stroke="black"/>
<path d="M75.9299,403.98h -7.39843" fill="none" stroke="black"/>
<path d="M75.9299,390.539h -7.39843" fill="none" stroke="black"/>
<path d="M75.9299,377.099h -7.39843" fill="none" stroke="black"/>
<path d="M83.3283,363.658h -14.7969" fill="none" stroke="black"/>
<path d="M75.9299,350.218h -7.39843" fill="none" stroke="black"/>
<path d="M75.9299,336.777h -7.39843" fill="none" stroke="black"/>
<path d="M75.9299,323.337h -7.39843" fill="none" stroke="black"/>
<path d="M75.9299,309.896h -7.39843" fill="none" stroke="black"/>
<path d="M83.3283,296.456h -14.7969" fill="none" stroke="black"/>
<path d="M75.9299,283.015h -7.39843" fill="none" stroke="black"/>
<path d="M75.9299,269.575h -7.39843" fill="none" stroke="black"/>
<path d="M75.9299,256.134h -7.39843" fill="none" stroke="black"/>
<path d="M75.9299,242.694h -7.39843" fill="none" stroke="black"/>
<path d="M83.3283,229.253h -14.7969" fill="none" stroke="black"/>
<path d="M75.9299,215.813h -7.39843" fill="none" stroke="black"/>
<path d="M75.9299,202.372h -7.39843" fill="none" stroke="black"/>
<path d="M75.9299,188.932h -7.39843" fill="none" stroke="black"/>
<path d="M75.9299,175.491h -7.39843" fill="none" stroke="black"/>
<path d="M83.3283,162.051h -14.7969" fill="none" stroke="black"/>
<path d="M75.9299,148.61h -7.39843" fill="none" stroke="black"/>
<path d="M75.9299,135.17h -7.39843" fill="none" stroke="black"/>
<path d="M75.9299,121.729h -7.39843" fill="none" stroke="black"/>
<path d="M75.9299,108.289h -7.39843" fill="none" stroke="black"/>
<path d="M83.3283,94.8481h -14.7969" fill="none" stroke="black"/>
<path d="M75.9299,81.4076h -7.39843" fill="none" stroke="black"/>
<path d="M75.9299,67.9671h -7.39843" fill="none" stroke="black"/>
<path d="M75.9299,54.5266h -7.39843" fill="none" stroke="black"/>
<path d="M75.9299,41.0861h -7.39843" fill="none" stroke="black"/>
<path d="M83.3283,27.6456h -14.7969" fill="none" stroke="black"/>
<path d="M83.3283,27.6456h -14.7969" fill="none" stroke="black"/>
<text xml:space="preserve" x="56.8548" y="503.248" fill="black" font-size="16.0105" font-family="Helvetica">0</text>
<text xml:space="preserve" x="48.4016" y="436.186" fill="black" font-size="16.0105" font-family="Helvetica">10</text>
<text xml:space="preserve" x="48.4016" y="369.124" fill="black" font-size="16.0105" font-family="Helvetica">20</text>
<text xml:space="preserve" x="48.4016" y="302.062" fill="black" font-size="16.0105" font-family="Helvetica">30</text>
<text xml:space="preserve" x="48.4016" y="234.436" fill="black" font-size="16.0105" font-family="Helvetica">40</text>
<text xml:space="preserve" x="48.4016" y="167.374" fill="black" font-size="16.0105" font-family="Helvetica">50</text>
<text xml:space="preserve" x="48.4016" y="100.312" fill="black" font-size="16.0105" font-family="Helvetica">60</text>
<text xml:space="preserve" x="48.4016" y="33.2493" fill="black" font-size="16.0105" font-family="Helvetica">70</text>
<text xml:space="preserve" x="99.1209" y="7.32612" fill="black" font-size="10.8403" font-family="Helvetica">3</text>
<text xml:space="preserve" x="93.4854" y="7.32612" fill="black" font-size="10.8403" font-family="Times">&#8722;</text>
<text xml:space="preserve" x="76.579" y="14.6522" fill="black" font-size="16.0105" font-family="Helvetica">10</text>
<text xml:space="preserve" x="68.1257" y="14.6522" fill="black" font-size="16.0105" font-family="Times">&#0215;</text>
<g transform="rotate(-90,38.2577,98.0573)">
<text xml:space="preserve" x="38.2577" y="98.0573" fill="black" font-size="16.0105" font-family="Helvetica">background</text>
</g>
<g transform="rotate(-90,21.9148,98.0573)">
<text xml:space="preserve" x="21.9148" y="98.0573" fill="black" font-size="16.0105" font-family="Helvetica">same event</text>
</g>
<path d="M24.169,98.0573l 0.563548, -81.7144" fill="none" stroke="black" stroke-width="2"/>
<path d="M553.256,498.064v -481.461" fill="none" stroke="black"/>
<path d="M538.459,498.064h 14.7969" fill="none" stroke="black"/>
<path d="M545.857,484.623h 7.39843" fill="none" stroke="black"/>
<path d="M545.857,471.183h 7.39843" fill="none" stroke="black"/>
<path d="M545.857,457.742h 7.39843" fill="none" stroke="black"/>
<path d="M545.857,444.302h 7.39843" fill="none" stroke="black"/>
<path d="M538.459,430.861h 14.7969" fill="none" stroke="black"/>
<path d="M545.857,417.421h 7.39843" fill="none" stroke="black"/>
<path d="M545.857,403.98h 7.39843" fill="none" stroke="black"/>
<path d="M545.857,390.539h 7.39843" fill="none" stroke="black"/>
<path d="M545.857,377.099h 7.39843" fill="none" stroke="black"/>
<path d="M538.459,363.658h 14.7969" fill="none" stroke="black"/>
<path d="M545.857,350.218h 7.39843" fill="none" stroke="black"/>
<path d="M545.857,336.777h 7.39843" fill="none" stroke="black"/>
<path d="M545.857,323.337h 7.39843" fill="none" stroke="black"/>
<path d="M545.857,309.896h 7.39843" fill="none" stroke="black"/>
<path d="M538.459,296.456h 14.7969" fill="none" stroke="black"/>
<path d="M545.857,283.015h 7.39843" fill="none" stroke="black"/>
<path d="M545.857,269.575h 7.39843" fill="none" stroke="black"/>
<path d="M545.857,256.134h 7.39843" fill="none" stroke="black"/>
<path d="M545.857,242.694h 7.39843" fill="none" stroke="black"/>
<path d="M538.459,229.253h 14.7969" fill="none" stroke="black"/>
<path d="M545.857,215.813h 7.39843" fill="none" stroke="black"/>
<path d="M545.857,202.372h 7.39843" fill="none" stroke="black"/>
<path d="M545.857,188.932h 7.39843" fill="none" stroke="black"/>
<path d="M545.857,175.491h 7.39843" fill="none" stroke="black"/>
<path d="M538.459,162.051h 14.7969" fill="none" stroke="black"/>
<path d="M545.857,148.61h 7.39843" fill="none" stroke="black"/>
<path d="M545.857,135.17h 7.39843" fill="none" stroke="black"/>
<path d="M545.857,121.729h 7.39843" fill="none" stroke="black"/>
<path d="M545.857,108.289h 7.39843" fill="none" stroke="black"/>
<path d="M538.459,94.8481h 14.7969" fill="none" stroke="black"/>
<path d="M545.857,81.4076h 7.39843" fill="none" stroke="black"/>
<path d="M545.857,67.9671h 7.39843" fill="none" stroke="black"/>
<path d="M545.857,54.5266h 7.39843" fill="none" stroke="black"/>
<path d="M545.857,41.0861h 7.39843" fill="none" stroke="black"/>
<path d="M538.459,27.6456h 14.7969" fill="none" stroke="black"/>
<path d="M538.459,27.6456h 14.7969" fill="none" stroke="black"/>
<g stroke="#333333" stroke-width="2" fill="none">
<circle cx="282.098" cy="282.177" r="5.63548"/>
</g>
<g stroke="#333333" stroke-width="2" fill="none">
<circle cx="286.897" cy="282.008" r="5.63548"/>
</g>
<g stroke="#333333" stroke-width="2" fill="none">
<circle cx="291.697" cy="281.563" r="5.63548"/>
</g>
<g stroke="#333333" stroke-width="2" fill="none">
<circle cx="296.496" cy="281.475" r="5.63548"/>
</g>
<g stroke="#333333" stroke-width="2" fill="none">
<circle cx="301.295" cy="280.13" r="5.63548"/>
</g>
<g stroke="#333333" stroke-width="2" fill="none">
<circle cx="306.094" cy="280.988" r="5.63548"/>
</g>
<g stroke="#333333" stroke-width="2" fill="none">
<circle cx="310.894" cy="279.842" r="5.63548"/>
</g>
<g stroke="#333333" stroke-width="2" fill="none">
<circle cx="315.693" cy="280.16" r="5.63548"/>
</g>
<g stroke="#333333" stroke-width="2" fill="none">
<circle cx="320.492" cy="282.704" r="5.63548"/>
</g>
<g stroke="#333333" stroke-width="2" fill="none">
<circle cx="325.291" cy="280.691" r="5.63548"/>
</g>
<g stroke="#333333" stroke-width="2" fill="none">
<circle cx="330.091" cy="280.805" r="5.63548"/>
</g>
<g stroke="#333333" stroke-width="2" fill="none">
<circle cx="334.89" cy="278.53" r="5.63548"/>
</g>
<path d="M98.7518,306.258l 0.44993, -0.0597254l 0.44993, -0.0597254l 0.44993, -0.0597254l 0.44993, -0.0597254l 0.44993, -0.0597254l 0.44993, -0.0597254l 0.44993, -0.0597254l 0.44993, -0.0597254l 0.44993, -0.0597254l 0.44993, -0.0597254l 0.44993,
 -0.0597254l 0.44993, -0.0597254l 0.44993, -0.0597254l 0.44993, -0.0597254l 0.44993, -0.0597254l 0.44993, -0.0597254l 0.44993, -0.0597254l 0.44993, -0.0597254l 0.44993, -0.0597254l 0.44993, -0.0597254l 0.44993, -0.0597254l 0.44993, -0.0597254l
 0.44993, -0.0597254l 0.44993, -0.0597254l 0.44993, -0.0597254l 0.44993, -0.0597254l 0.44993, -0.0597254l 0.44993, -0.0597254l 0.44993, -0.0597254l 0.44993, -0.0597254l 0.44993, -0.0597254l 0.44993, -0.0597254l 0.44993, -0.0597254l 0.44993,
 -0.0597254l 0.44993, -0.0597254l 0.44993, -0.0597254l 0.44993, -0.0597254l 0.44993, -0.0597254l 0.44993, -0.0597254l 0.44993, -0.0597254l 0.44993, -0.0597254l 0.44993, -0.0597254l 0.44993, -0.0597254l 0.44993, -0.0597254l 0.44993, -0.0597254l
 0.44993, -0.0597254l 0.44993, -0.0597254l 0.44993, -0.0597254l 0.44993, -0.0597254" fill="none" stroke="#33cccc" stroke-width="3"/>
<path d="M120.798,303.332l 0.44993, -0.0597254l 0.44993, -0.0597254l 0.44993, -0.0597254l 0.44993, -0.0597254l 0.44993, -0.0597254l 0.44993, -0.0597254l 0.44993, -0.0597254l 0.44993, -0.0597254l 0.44993, -0.0597254l 0.44993, -0.0597254l 0.44993,
 -0.0597254l 0.44993, -0.0597254l 0.44993, -0.0597254l 0.44993, -0.0597254l 0.44993, -0.0597254l 0.44993, -0.0597254l 0.44993, -0.0597254l 0.44993, -0.0597254l 0.44993, -0.0597254l 0.44993, -0.0597254l 0.44993, -0.0597254l 0.44993, -0.0597254l
 0.44993, -0.0597254l 0.44993, -0.0597254l 0.44993, -0.0597254l 0.44993, -0.0597254l 0.44993, -0.0597254l 0.44993, -0.0597254l 0.44993, -0.0597254l 0.44993, -0.0597254l 0.44993, -0.0597254l 0.44993, -0.0597254l 0.44993, -0.0597254l 0.44993,
 -0.0597254l 0.44993, -0.0597254l 0.44993, -0.0597254l 0.44993, -0.0597254l 0.44993, -0.0597254l 0.44993, -0.0597254l 0.44993, -0.0597254l 0.44993, -0.0597254l 0.44993, -0.0597254l 0.44993, -0.0597254l 0.44993, -0.0597254l 0.44993, -0.0597254l
 0.44993, -0.0597254l 0.44993, -0.0597254l 0.44993, -0.0597254l 0.44993, -0.0597254" fill="none" stroke="#33cccc" stroke-width="3"/>
<path d="M142.845,300.405l 0.44993, -0.0597254l 0.44993, -0.0597254l 0.44993, -0.0597254l 0.44993, -0.0597254l 0.44993, -0.0597254l 0.44993, -0.0597254l 0.44993, -0.0597254l 0.44993, -0.0597254l 0.44993, -0.0597254l 0.44993, -0.0597254l 0.44993,
 -0.0597254l 0.44993, -0.0597254l 0.44993, -0.0597254l 0.44993, -0.0597254l 0.44993, -0.0597254l 0.44993, -0.0597254l 0.44993, -0.0597254l 0.44993, -0.0597254l 0.44993, -0.0597254l 0.44993, -0.0597254l 0.44993, -0.0597254l 0.44993, -0.0597254l
 0.44993, -0.0597254l 0.44993, -0.0597254l 0.44993, -0.0597254l 0.44993, -0.0597254l 0.44993, -0.0597254l 0.44993, -0.0597254l 0.44993, -0.0597254l 0.44993, -0.0597254l 0.44993, -0.0597254l 0.44993, -0.0597254l 0.44993, -0.0597254l 0.44993,
 -0.0597254l 0.44993, -0.0597254l 0.44993, -0.0597254l 0.44993, -0.0597254l 0.44993, -0.0597254l 0.44993, -0.0597254l 0.44993, -0.0597254l 0.44993, -0.0597254l 0.44993, -0.0597254l 0.44993, -0.0597254l 0.44993, -0.0597254l 0.44993, -0.0597254l
 0.44993, -0.0597254l 0.44993, -0.0597254l 0.44993, -0.0597254l 0.44993, -0.0597254" fill="none" stroke="#33cccc" stroke-width="3"/>
<path d="M164.891,297.479l 0.44993, -0.0597254l 0.44993, -0.0597254l 0.44993, -0.0597254l 0.44993, -0.0597254l 0.44993, -0.0597254l 0.44993, -0.0597254l 0.44993, -0.0597254l 0.44993, -0.0597254l 0.44993, -0.0597254l 0.44993, -0.0597254l 0.44993,
 -0.0597254l 0.44993, -0.0597254l 0.44993, -0.0597254l 0.44993, -0.0597254l 0.44993, -0.0597254l 0.44993, -0.0597254l 0.44993, -0.0597254l 0.44993, -0.0597254l 0.44993, -0.0597254l 0.44993, -0.0597254l 0.44993, -0.0597254l 0.44993, -0.0597254l
 0.44993, -0.0597254l 0.44993, -0.0597254l 0.44993, -0.0597254l 0.44993, -0.0597254l 0.44993, -0.0597254l 0.44993, -0.0597254l 0.44993, -0.0597254l 0.44993, -0.0597254l 0.44993, -0.0597254l 0.44993, -0.0597254l 0.44993, -0.0597254l 0.44993,
 -0.0597254l 0.44993, -0.0597254l 0.44993, -0.0597254l 0.44993, -0.0597254l 0.44993, -0.0597254l 0.44993, -0.0597254l 0.44993, -0.0597254l 0.44993, -0.0597254l 0.44993, -0.0597254l 0.44993, -0.0597254l 0.44993, -0.0597254l 0.44993, -0.0597254l
 0.44993, -0.0597254l 0.44993, -0.0597254l 0.44993, -0.0597254l 0.44993, -0.0597254" fill="none" stroke="#33cccc" stroke-width="3"/>
<path d="M186.938,294.552l 0.44993, -0.0597254l 0.44993, -0.0597254l 0.44993, -0.0597254l 0.44993, -0.0597254l 0.44993, -0.0597254l 0.44993, -0.0597254l 0.44993, -0.0597254l 0.44993, -0.0597254l 0.44993, -0.0597254l 0.44993, -0.0597254l 0.44993,
 -0.0597254l 0.44993, -0.0597254l 0.44993, -0.0597254l 0.44993, -0.0597254l 0.44993, -0.0597254l 0.44993, -0.0597254l 0.44993, -0.0597254l 0.44993, -0.0597254l 0.44993, -0.0597254l 0.44993, -0.0597254l 0.44993, -0.0597254l 0.44993, -0.0597254l
 0.44993, -0.0597254l 0.44993, -0.0597254l 0.44993, -0.0597254l 0.44993, -0.0597254l 0.44993, -0.0597254l 0.44993, -0.0597254l 0.44993, -0.0597254l 0.44993, -0.0597254l 0.44993, -0.0597254l 0.44993, -0.0597254l 0.44993, -0.0597254l 0.44993,
 -0.0597254l 0.44993, -0.0597254l 0.44993, -0.0597254l 0.44993, -0.0597254l 0.44993, -0.0597254l 0.44993, -0.0597254l 0.44993, -0.0597254l 0.44993, -0.0597254l 0.44993, -0.0597254l 0.44993, -0.0597254l 0.44993, -0.0597254l 0.44993, -0.0597254l
 0.44993, -0.0597254l 0.44993, -0.0597254l 0.44993, -0.0597254l 0.44993, -0.0597254" fill="none" stroke="#33cccc" stroke-width="3"/>
<path d="M208.985,291.626l 0.44993, -0.0597254l 0.44993, -0.0597254l 0.44993, -0.0597254l 0.44993, -0.0597254l 0.44993, -0.0597254l 0.44993, -0.0597254l 0.44993, -0.0597254l 0.44993, -0.0597254l 0.44993, -0.0597254l 0.44993, -0.0597254l 0.44993,
 -0.0597254l 0.44993, -0.0597254l 0.44993, -0.0597254l 0.44993, -0.0597254l 0.44993, -0.0597254l 0.44993, -0.0597254l 0.44993, -0.0597254l 0.44993, -0.0597254l 0.44993, -0.0597254l 0.44993, -0.0597254l 0.44993, -0.0597254l 0.44993, -0.0597254l
 0.44993, -0.0597254l 0.44993, -0.0597254l 0.44993, -0.0597254l 0.44993, -0.0597254l 0.44993, -0.0597254l 0.44993, -0.0597254l 0.44993, -0.0597254l 0.44993, -0.0597254l 0.44993, -0.0597254l 0.44993, -0.0597254l 0.44993, -0.0597254l 0.44993,
 -0.0597254l 0.44993, -0.0597254l 0.44993, -0.0597254l 0.44993, -0.0597254l 0.44993, -0.0597254l 0.44993, -0.0597254l 0.44993, -0.0597254l 0.44993, -0.0597254l 0.44993, -0.0597254l 0.44993, -0.0597254l 0.44993, -0.0597254l 0.44993, -0.0597254l
 0.44993, -0.0597254l 0.44993, -0.0597254l 0.44993, -0.0597254l 0.44993, -0.0597254" fill="none" stroke="#33cccc" stroke-width="3"/>
<path d="M231.031,288.699l 0.44993, -0.0597254l 0.44993, -0.0597254l 0.44993, -0.0597254l 0.44993, -0.0597254l 0.44993, -0.0597254l 0.44993, -0.0597254l 0.44993, -0.0597254l 0.44993, -0.0597254l 0.44993, -0.0597254l 0.44993, -0.0597254l 0.44993,
 -0.0597254l 0.44993, -0.0597254l 0.44993, -0.0597254l 0.44993, -0.0597254l 0.44993, -0.0597254l 0.44993, -0.0597254l 0.44993, -0.0597254l 0.44993, -0.0597254l 0.44993, -0.0597254l 0.44993, -0.0597254l 0.44993, -0.0597254l 0.44993, -0.0597254l
 0.44993, -0.0597254l 0.44993, -0.0597254l 0.44993, -0.0597254l 0.44993, -0.0597254l 0.44993, -0.0597254l 0.44993, -0.0597254l 0.44993, -0.0597254l 0.44993, -0.0597254l 0.44993, -0.0597254l 0.44993, -0.0597254l 0.44993, -0.0597254l 0.44993,
 -0.0597254l 0.44993, -0.0597254l 0.44993, -0.0597254l 0.44993, -0.0597254l 0.44993, -0.0597254l 0.44993, -0.0597254l 0.44993, -0.0597254l 0.44993, -0.0597254l 0.44993, -0.0597254l 0.44993, -0.0597254l 0.44993, -0.0597254l 0.44993, -0.0597254l
 0.44993, -0.0597254l 0.44993, -0.0597254l 0.44993, -0.0597254l 0.44993, -0.0597254" fill="none" stroke="#33cccc" stroke-width="3"/>
<path d="M253.078,285.772l 0.44993, -0.0597254l 0.44993, -0.0597254l 0.44993, -0.0597254l 0.44993, -0.0597254l 0.44993, -0.0597254l 0.44993, -0.0597254l 0.44993, -0.0597254l 0.44993, -0.0597254l 0.44993, -0.0597254l 0.44993, -0.0597254l 0.44993,
 -0.0597254l 0.44993, -0.0597254l 0.44993, -0.0597254l 0.44993, -0.0597254l 0.44993, -0.0597254l 0.44993, -0.0597254l 0.44993, -0.0597254l 0.44993, -0.0597254l 0.44993, -0.0597254l 0.44993, -0.0597254l 0.44993, -0.0597254l 0.44993, -0.0597254l
 0.44993, -0.0597254l 0.44993, -0.0597254l 0.44993, -0.0597254l 0.44993, -0.0597254l 0.44993, -0.0597254l 0.44993, -0.0597254l 0.44993, -0.0597254l 0.44993, -0.0597254l 0.44993, -0.0597254l 0.44993, -0.0597254l 0.44993, -0.0597254l 0.44993,
 -0.0597254l 0.44993, -0.0597254l 0.44993, -0.0597254l 0.44993, -0.0597254l 0.44993, -0.0597254l 0.44993, -0.0597254l 0.44993, -0.0597254l 0.44993, -0.0597254l 0.44993, -0.0597254l 0.44993, -0.0597254l 0.44993, -0.0597254l 0.44993, -0.0597254l
 0.44993, -0.0597254l 0.44993, -0.0597254l 0.44993, -0.0597254l 0.44993, -0.0597254" fill="none" stroke="#33cccc" stroke-width="3"/>
<path d="M275.124,282.846l 0.44993, -0.0597254l 0.44993, -0.0597254l 0.44993, -0.0597254l 0.44993, -0.0597254l 0.44993, -0.0597254l 0.44993, -0.0597254l 0.44993, -0.0597254l 0.44993, -0.0597254l 0.44993, -0.0597254l 0.44993, -0.0597254l 0.44993,
 -0.0597254l 0.44993, -0.0597254l 0.44993, -0.0597254l 0.44993, -0.0597254l 0.44993, -0.0597254l 0.44993, -0.0597254l 0.44993, -0.0597254l 0.44993, -0.0597254l 0.44993, -0.0597254l 0.44993, -0.0597254l 0.44993, -0.0597254l 0.44993, -0.0597254l
 0.44993, -0.0597254l 0.44993, -0.0597254l 0.44993, -0.0597254l 0.44993, -0.0597254l 0.44993, -0.0597254l 0.44993, -0.0597254l 0.44993, -0.0597254l 0.44993, -0.0597254l 0.44993, -0.0597254l 0.44993, -0.0597254l 0.44993, -0.0597254l 0.44993,
 -0.0597254l 0.44993, -0.0597254l 0.44993, -0.0597254l 0.44993, -0.0597254l 0.44993, -0.0597254l 0.44993, -0.0597254l 0.44993, -0.0597254l 0.44993, -0.0597254l 0.44993, -0.0597254l 0.44993, -0.0597254l 0.44993, -0.0597254l 0.44993, -0.0597254l
 0.44993, -0.0597254l 0.44993, -0.0597254l 0.44993, -0.0597254l 0.44993, -0.0597254" fill="none" stroke="#33cccc" stroke-width="3"/>
<path d="M297.171,279.919l 0.44993, -0.0597254l 0.44993, -0.0597254l 0.44993, -0.0597254l 0.44993, -0.0597254l 0.44993, -0.0597254l 0.44993, -0.0597254l 0.44993, -0.0597254l 0.44993, -0.0597254l 0.44993, -0.0597254l 0.44993, -0.0597254l 0.44993,
 -0.0597254l 0.44993, -0.0597254l 0.44993, -0.0597254l 0.44993, -0.0597254l 0.44993, -0.0597254l 0.44993, -0.0597254l 0.44993, -0.0597254l 0.44993, -0.0597254l 0.44993, -0.0597254l 0.44993, -0.0597254l 0.44993, -0.0597254l 0.44993, -0.0597254l
 0.44993, -0.0597254l 0.44993, -0.0597254l 0.44993, -0.0597254l 0.44993, -0.0597254l 0.44993, -0.0597254l 0.44993, -0.0597254l 0.44993, -0.0597254l 0.44993, -0.0597254l 0.44993, -0.0597254l 0.44993, -0.0597254l 0.44993, -0.0597254l 0.44993,
 -0.0597254l 0.44993, -0.0597254l 0.44993, -0.0597254l 0.44993, -0.0597254l 0.44993, -0.0597254l 0.44993, -0.0597254l 0.44993, -0.0597254l 0.44993, -0.0597254l 0.44993, -0.0597254l 0.44993, -0.0597254l 0.44993, -0.0597254l 0.44993, -0.0597254l
 0.44993, -0.0597254l 0.44993, -0.0597254l 0.44993, -0.0597254l 0.44993, -0.0597254" fill="none" stroke="#33cccc" stroke-width="3"/>
<path d="M319.217,276.993l 0.44993, -0.0597254l 0.44993, -0.0597254l 0.44993, -0.0597254l 0.44993, -0.0597254l 0.44993, -0.0597254l 0.44993, -0.0597254l 0.44993, -0.0597254l 0.44993, -0.0597254l 0.44993, -0.0597254l 0.44993, -0.0597254l 0.44993,
 -0.0597254l 0.44993, -0.0597254l 0.44993, -0.0597254l 0.44993, -0.0597254l 0.44993, -0.0597254l 0.44993, -0.0597254l 0.44993, -0.0597254l 0.44993, -0.0597254l 0.44993, -0.0597254l 0.44993, -0.0597254l 0.44993, -0.0597254l 0.44993, -0.0597254l
 0.44993, -0.0597254l 0.44993, -0.0597254l 0.44993, -0.0597254l 0.44993, -0.0597254l 0.44993, -0.0597254l 0.44993, -0.0597254l 0.44993, -0.0597254l 0.44993, -0.0597254l 0.44993, -0.0597254l 0.44993, -0.0597254l 0.44993, -0.0597254l 0.44993,
 -0.0597254l 0.44993, -0.0597254l 0.44993, -0.0597254l 0.44993, -0.0597254l 0.44993, -0.0597254l 0.44993, -0.0597254l 0.44993, -0.0597254l 0.44993, -0.0597254l 0.44993, -0.0597254l 0.44993, -0.0597254l 0.44993, -0.0597254l 0.44993, -0.0597254l
 0.44993, -0.0597254l 0.44993, -0.0597254l 0.44993, -0.0597254l 0.44993, -0.0597254" fill="none" stroke="#33cccc" stroke-width="3"/>
<path d="M341.264,274.066l 0.44993, -0.0597254l 0.44993, -0.0597254l 0.44993, -0.0597254l 0.44993, -0.0597254l 0.44993, -0.0597254l 0.44993, -0.0597254l 0.44993, -0.0597254l 0.44993, -0.0597254l 0.44993, -0.0597254l 0.44993, -0.0597254l 0.44993,
 -0.0597254l 0.44993, -0.0597254l 0.44993, -0.0597254l 0.44993, -0.0597254l 0.44993, -0.0597254l 0.44993, -0.0597254l 0.44993, -0.0597254l 0.44993, -0.0597254l 0.44993, -0.0597254l 0.44993, -0.0597254l 0.44993, -0.0597254l 0.44993, -0.0597254l
 0.44993, -0.0597254l 0.44993, -0.0597254l 0.44993, -0.0597254l 0.44993, -0.0597254l 0.44993, -0.0597254l 0.44993, -0.0597254l 0.44993, -0.0597254l 0.44993, -0.0597254l 0.44993, -0.0597254l 0.44993, -0.0597254l 0.44993, -0.0597254l 0.44993,
 -0.0597254l 0.44993, -0.0597254l 0.44993, -0.0597254l 0.44993, -0.0597254l 0.44993, -0.0597254l 0.44993, -0.0597254l 0.44993, -0.0597254l 0.44993, -0.0597254l 0.44993, -0.0597254l 0.44993, -0.0597254l 0.44993, -0.0597254l 0.44993, -0.0597254l
 0.44993, -0.0597254l 0.44993, -0.0597254l 0.44993, -0.0597254l 0.44993, -0.0597254" fill="none" stroke="#33cccc" stroke-width="3"/>
<path d="M363.311,271.14l 0.44993, -0.0597254l 0.44993, -0.0597254l 0.44993, -0.0597254l 0.44993, -0.0597254l 0.44993, -0.0597254l 0.44993, -0.0597254l 0.44993, -0.0597254l 0.44993, -0.0597254l 0.44993, -0.0597254l 0.44993, -0.0597254l 0.44993,
 -0.0597254l 0.44993, -0.0597254l 0.44993, -0.0597254l 0.44993, -0.0597254l 0.44993, -0.0597254l 0.44993, -0.0597254l 0.44993, -0.0597254l 0.44993, -0.0597254l 0.44993, -0.0597254l 0.44993, -0.0597254l 0.44993, -0.0597254l 0.44993, -0.0597254l
 0.44993, -0.0597254l 0.44993, -0.0597254l 0.44993, -0.0597254l 0.44993, -0.0597254l 0.44993, -0.0597254l 0.44993, -0.0597254l 0.44993, -0.0597254l 0.44993, -0.0597254l 0.44993, -0.0597254l 0.44993, -0.0597254l 0.44993, -0.0597254l 0.44993,
 -0.0597254l 0.44993, -0.0597254l 0.44993, -0.0597254l 0.44993, -0.0597254l 0.44993, -0.0597254l 0.44993, -0.0597254l 0.44993, -0.0597254l 0.44993, -0.0597254l 0.44993, -0.0597254l 0.44993, -0.0597254l 0.44993, -0.0597254l 0.44993, -0.0597254l
 0.44993, -0.0597254l 0.44993, -0.0597254l 0.44993, -0.0597254l 0.44993, -0.0597254" fill="none" stroke="#33cccc" stroke-width="3"/>
<path d="M385.357,268.213l 0.44993, -0.0597254l 0.44993, -0.0597254l 0.44993, -0.0597254l 0.44993, -0.0597254l 0.44993, -0.0597254l 0.44993, -0.0597254l 0.44993, -0.0597254l 0.44993, -0.0597254l 0.44993, -0.0597254l 0.44993, -0.0597254l 0.44993,
 -0.0597254l 0.44993, -0.0597254l 0.44993, -0.0597254l 0.44993, -0.0597254l 0.44993, -0.0597254l 0.44993, -0.0597254l 0.44993, -0.0597254l 0.44993, -0.0597254l 0.44993, -0.0597254l 0.44993, -0.0597254l 0.44993, -0.0597254l 0.44993, -0.0597254l
 0.44993, -0.0597254l 0.44993, -0.0597254l 0.44993, -0.0597254l 0.44993, -0.0597254l 0.44993, -0.0597254l 0.44993, -0.0597254l 0.44993, -0.0597254l 0.44993, -0.0597254l 0.44993, -0.0597254l 0.44993, -0.0597254l 0.44993, -0.0597254l 0.44993,
 -0.0597254l 0.44993, -0.0597254l 0.44993, -0.0597254l 0.44993, -0.0597254l 0.44993, -0.0597254l 0.44993, -0.0597254l 0.44993, -0.0597254l 0.44993, -0.0597254l 0.44993, -0.0597254l 0.44993, -0.0597254l 0.44993, -0.0597254l 0.44993, -0.0597254l
 0.44993, -0.0597254l 0.44993, -0.0597254l 0.44993, -0.0597254l 0.44993, -0.0597254" fill="none" stroke="#33cccc" stroke-width="3"/>
<path d="M407.404,265.287l 0.44993, -0.0597254l 0.44993, -0.0597254l 0.44993, -0.0597254l 0.44993, -0.0597254l 0.44993, -0.0597254l 0.44993, -0.0597254l 0.44993, -0.0597254l 0.44993, -0.0597254l 0.44993, -0.0597254l 0.44993, -0.0597254l 0.44993,
 -0.0597254l 0.44993, -0.0597254l 0.44993, -0.0597254l 0.44993, -0.0597254l 0.44993, -0.0597254l 0.44993, -0.0597254l 0.44993, -0.0597254l 0.44993, -0.0597254l 0.44993, -0.0597254l 0.44993, -0.0597254l 0.44993, -0.0597254l 0.44993, -0.0597254l
 0.44993, -0.0597254l 0.44993, -0.0597254l 0.44993, -0.0597254l 0.44993, -0.0597254l 0.44993, -0.0597254l 0.44993, -0.0597254l 0.44993, -0.0597254l 0.44993, -0.0597254l 0.44993, -0.0597254l 0.44993, -0.0597254l 0.44993, -0.0597254l 0.44993,
 -0.0597254l 0.44993, -0.0597254l 0.44993, -0.0597254l 0.44993, -0.0597254l 0.44993, -0.0597254l 0.44993, -0.0597254l 0.44993, -0.0597254l 0.44993, -0.0597254l 0.44993, -0.0597254l 0.44993, -0.0597254l 0.44993, -0.0597254l 0.44993, -0.0597254l
 0.44993, -0.0597254l 0.44993, -0.0597254l 0.44993, -0.0597254l 0.44993, -0.0597254" fill="none" stroke="#33cccc" stroke-width="3"/>
<path d="M429.45,262.36l 0.44993, -0.0597254l 0.44993, -0.0597254l 0.44993, -0.0597254l 0.44993, -0.0597254l 0.44993, -0.0597254l 0.44993, -0.0597254l 0.44993, -0.0597254l 0.44993, -0.0597254l 0.44993, -0.0597254l 0.44993, -0.0597254l 0.44993,
 -0.0597254l 0.44993, -0.0597254l 0.44993, -0.0597254l 0.44993, -0.0597254l 0.44993, -0.0597254l 0.44993, -0.0597254l 0.44993, -0.0597254l 0.44993, -0.0597254l 0.44993, -0.0597254l 0.44993, -0.0597254l 0.44993, -0.0597254l 0.44993, -0.0597254l
 0.44993, -0.0597254l 0.44993, -0.0597254l 0.44993, -0.0597254l 0.44993, -0.0597254l 0.44993, -0.0597254l 0.44993, -0.0597254l 0.44993, -0.0597254l 0.44993, -0.0597254l 0.44993, -0.0597254l 0.44993, -0.0597254l 0.44993, -0.0597254l 0.44993,
 -0.0597254l 0.44993, -0.0597254l 0.44993, -0.0597254l 0.44993, -0.0597254l 0.44993, -0.0597254l 0.44993, -0.0597254l 0.44993, -0.0597254l 0.44993, -0.0597254l 0.44993, -0.0597254l 0.44993, -0.0597254l 0.44993, -0.0597254l 0.44993, -0.0597254l
 0.44993, -0.0597254l 0.44993, -0.0597254l 0.44993, -0.0597254l 0.44993, -0.0597254" fill="none" stroke="#33cccc" stroke-width="3"/>
<path d="M451.497,259.434l 0.44993, -0.0597254l 0.44993, -0.0597254l 0.44993, -0.0597254l 0.44993, -0.0597254l 0.44993, -0.0597254l 0.44993, -0.0597254l 0.44993, -0.0597254l 0.44993, -0.0597254l 0.44993, -0.0597254l 0.44993, -0.0597254l 0.44993,
 -0.0597254l 0.44993, -0.0597254l 0.44993, -0.0597254l 0.44993, -0.0597254l 0.44993, -0.0597254l 0.44993, -0.0597254l 0.44993, -0.0597254l 0.44993, -0.0597254l 0.44993, -0.0597254l 0.44993, -0.0597254l 0.44993, -0.0597254l 0.44993, -0.0597254l
 0.44993, -0.0597254l 0.44993, -0.0597254l 0.44993, -0.0597254l 0.44993, -0.0597254l 0.44993, -0.0597254l 0.44993, -0.0597254l 0.44993, -0.0597254l 0.44993, -0.0597254l 0.44993, -0.0597254l 0.44993, -0.0597254l 0.44993, -0.0597254l 0.44993,
 -0.0597254l 0.44993, -0.0597254l 0.44993, -0.0597254l 0.44993, -0.0597254l 0.44993, -0.0597254l 0.44993, -0.0597254l 0.44993, -0.0597254l 0.44993, -0.0597254l 0.44993, -0.0597254l 0.44993, -0.0597254l 0.44993, -0.0597254l 0.44993, -0.0597254l
 0.44993, -0.0597254l 0.44993, -0.0597254l 0.44993, -0.0597254l 0.44993, -0.0597254" fill="none" stroke="#33cccc" stroke-width="3"/>
<path d="M473.543,256.507l 0.44993, -0.0597254l 0.44993, -0.0597254l 0.44993, -0.0597254l 0.44993, -0.0597254l 0.44993, -0.0597254l 0.44993, -0.0597254l 0.44993, -0.0597254l 0.44993, -0.0597254l 0.44993, -0.0597254l 0.44993, -0.0597254l 0.44993,
 -0.0597254l 0.44993, -0.0597254l 0.44993, -0.0597254l 0.44993, -0.0597254l 0.44993, -0.0597254l 0.44993, -0.0597254l 0.44993, -0.0597254l 0.44993, -0.0597254l 0.44993, -0.0597254l 0.44993, -0.0597254l 0.44993, -0.0597254l 0.44993, -0.0597254l
 0.44993, -0.0597254l 0.44993, -0.0597254l 0.44993, -0.0597254l 0.44993, -0.0597254l 0.44993, -0.0597254l 0.44993, -0.0597254l 0.44993, -0.0597254l 0.44993, -0.0597254l 0.44993, -0.0597254l 0.44993, -0.0597254l 0.44993, -0.0597254l 0.44993,
 -0.0597254l 0.44993, -0.0597254l 0.44993, -0.0597254l 0.44993, -0.0597254l 0.44993, -0.0597254l 0.44993, -0.0597254l 0.44993, -0.0597254l 0.44993, -0.0597254l 0.44993, -0.0597254l 0.44993, -0.0597254l 0.44993, -0.0597254l 0.44993, -0.0597254l
 0.44993, -0.0597254l 0.44993, -0.0597254l 0.44993, -0.0597254l 0.44993, -0.0597254" fill="none" stroke="#33cccc" stroke-width="3"/>
<path d="M495.59,253.58l 0.44993, -0.0597254l 0.44993, -0.0597254l 0.44993, -0.0597254l 0.44993, -0.0597254l 0.44993, -0.0597254l 0.44993, -0.0597254l 0.44993, -0.0597254l 0.44993, -0.0597254l 0.44993, -0.0597254l 0.44993, -0.0597254l 0.44993,
 -0.0597254l 0.44993, -0.0597254l 0.44993, -0.0597254l 0.44993, -0.0597254l 0.44993, -0.0597254l 0.44993, -0.0597254l 0.44993, -0.0597254l 0.44993, -0.0597254l 0.44993, -0.0597254l 0.44993, -0.0597254l 0.44993, -0.0597254l 0.44993, -0.0597254l
 0.44993, -0.0597254l 0.44993, -0.0597254l 0.44993, -0.0597254l 0.44993, -0.0597254l 0.44993, -0.0597254l 0.44993, -0.0597254l 0.44993, -0.0597254l 0.44993, -0.0597254l 0.44993, -0.0597254l 0.44993, -0.0597254l 0.44993, -0.0597254l 0.44993,
 -0.0597254l 0.44993, -0.0597254l 0.44993, -0.0597254l 0.44993, -0.0597254l 0.44993, -0.0597254l 0.44993, -0.0597254l 0.44993, -0.0597254l 0.44993, -0.0597254l 0.44993, -0.0597254l 0.44993, -0.0597254l 0.44993, -0.0597254l 0.44993, -0.0597254l
 0.44993, -0.0597254l 0.44993, -0.0597254l 0.44993, -0.0597254l 0.44993, -0.0597254" fill="none" stroke="#33cccc" stroke-width="3"/>
<path d="M517.636,250.654l 0.44993, -0.0597254l 0.44993, -0.0597254l 0.44993, -0.0597254l 0.44993, -0.0597254l 0.44993, -0.0597254l 0.44993, -0.0597254l 0.44993, -0.0597254l 0.44993, -0.0597254l 0.44993, -0.0597254l 0.44993, -0.0597254l 0.44993,
 -0.0597254l 0.44993, -0.0597254l 0.44993, -0.0597254l 0.44993, -0.0597254l 0.44993, -0.0597254l 0.44993, -0.0597254l 0.44993, -0.0597254l 0.44993, -0.0597254l 0.44993, -0.0597254l 0.44993, -0.0597254l 0.44993, -0.0597254l 0.44993, -0.0597254l
 0.44993, -0.0597254l 0.44993, -0.0597254l 0.44993, -0.0597254l 0.44993, -0.0597254l 0.44993, -0.0597254l 0.44993, -0.0597254l 0.44993, -0.0597254l 0.44993, -0.0597254l 0.44993, -0.0597254l 0.44993, -0.0597254l 0.44993, -0.0597254l 0.44993,
 -0.0597254l 0.44993, -0.0597254l 0.44993, -0.0597254l 0.44993, -0.0597254l 0.44993, -0.0597254l 0.44993, -0.0597254l 0.44993, -0.0597254l 0.44993, -0.0597254l 0.44993, -0.0597254l 0.44993, -0.0597254l 0.44993, -0.0597254l 0.44993, -0.0597254l
 0.44993, -0.0597254l 0.44993, -0.0597254l 0.44993, -0.0597254l 0.44993, -0.0597254" fill="none" stroke="#33cccc" stroke-width="3"/>
<path d="M539.683,247.727l 0.44993, -0.0597254l 0.44993, -0.0597254l 0.44993, -0.0597254l 0.44993, -0.0597254l 0.44993, -0.0597254l 0.44993, -0.0597254l 0.44993, -0.0597254l 0.44993, -0.0597254l 0.44993, -0.0597254l 0.44993, -0.0597254l 0.44993,
 -0.0597254l 0.44993, -0.0597254l 0.44993, -0.0597254l 0.44993, -0.0597254l 0.44993, -0.0597254l 0.44993, -0.0597254l 0.44993, -0.0597254l 0.44993, -0.0597254l 0.44993, -0.0597254" fill="none" stroke="#33cccc" stroke-width="3"/>
<path d="M98.7518,257.026l 0.44993, 0.136282l 0.44993, 0.135926l 0.44993, 0.135571l 0.44993, 0.135215l 0.44993, 0.13486l 0.44993, 0.134504l 0.44993, 0.134149l 0.44993, 0.133793l 0.44993, 0.133438l 0.44993, 0.133083l 0.44993, 0.132727l 0.44993,
 0.132372l 0.44993, 0.132016l 0.44993, 0.131661l 0.44993, 0.131305l 0.44993, 0.13095l 0.44993, 0.130594l 0.44993, 0.130239l 0.44993, 0.129884l 0.44993, 0.129528l 0.44993, 0.129173l 0.44993, 0.128817l 0.44993, 0.128462l 0.44993, 0.128106l 0.44993,
 0.127751l 0.44993, 0.127395l 0.44993, 0.12704l 0.44993, 0.126684l 0.44993, 0.126329l 0.44993, 0.125974l 0.44993, 0.125618l 0.44993, 0.125263l 0.44993, 0.124907l 0.44993, 0.124552l 0.44993, 0.124196l 0.44993, 0.123841l 0.44993, 0.123485l 0.44993,
 0.12313l 0.44993, 0.122774l 0.44993, 0.122419l 0.44993, 0.122064l 0.44993, 0.121708l 0.44993, 0.121353l 0.44993, 0.120997l 0.44993, 0.120642l 0.44993, 0.120286l 0.44993, 0.119931l 0.44993, 0.119575l 0.44993, 0.11922" fill="none" stroke="#ff0066"
 stroke-width="3"/>
<path d="M120.798,263.286l 0.44993, 0.118865l 0.44993, 0.118509l 0.44993, 0.118154l 0.44993, 0.117798l 0.44993, 0.117443l 0.44993, 0.117087l 0.44993, 0.116732l 0.44993, 0.116376l 0.44993, 0.116021l 0.44993, 0.115665l 0.44993, 0.11531l 0.44993,
 0.114955l 0.44993, 0.114599l 0.44993, 0.114244l 0.44993, 0.113888l 0.44993, 0.113533l 0.44993, 0.113177l 0.44993, 0.112822l 0.44993, 0.112466l 0.44993, 0.112111l 0.44993, 0.111756l 0.44993, 0.1114l 0.44993, 0.111045l 0.44993, 0.110689l 0.44993,
 0.110334l 0.44993, 0.109978l 0.44993, 0.109623l 0.44993, 0.109267l 0.44993, 0.108912l 0.44993, 0.108556l 0.44993, 0.108201l 0.44993, 0.107846l 0.44993, 0.10749l 0.44993, 0.107135l 0.44993, 0.106779l 0.44993, 0.106424l 0.44993, 0.106068l 0.44993,
 0.105713l 0.44993, 0.105357l 0.44993, 0.105002l 0.44993, 0.104646l 0.44993, 0.104291l 0.44993, 0.103936l 0.44993, 0.10358l 0.44993, 0.103225l 0.44993, 0.102869l 0.44993, 0.102514l 0.44993, 0.102158l 0.44993, 0.101803" fill="none" stroke="#ff0066"
 stroke-width="3"/>
<path d="M142.845,268.692l 0.44993, 0.101447l 0.44993, 0.101092l 0.44993, 0.100737l 0.44993, 0.100381l 0.44993, 0.100026l 0.44993, 0.0996702l 0.44993, 0.0993147l 0.44993, 0.0989593l 0.44993, 0.0986038l 0.44993, 0.0982484l 0.44993, 0.0978929l 0.44993,
 0.0975375l 0.44993, 0.097182l 0.44993, 0.0968266l 0.44993, 0.0964711l 0.44993, 0.0961157l 0.44993, 0.0957602l 0.44993, 0.0954048l 0.44993, 0.0950493l 0.44993, 0.0946939l 0.44993, 0.0943384l 0.44993, 0.093983l 0.44993, 0.0936275l 0.44993, 0.0932721l
 0.44993, 0.0929166l 0.44993, 0.0925612l 0.44993, 0.0922057l 0.44993, 0.0918503l 0.44993, 0.0914948l 0.44993, 0.0911394l 0.44993, 0.0907839l 0.44993, 0.0904285l 0.44993, 0.090073l 0.44993, 0.0897176l 0.44993, 0.0893621l 0.44993, 0.0890066l 0.44993,
 0.0886512l 0.44993, 0.0882958l 0.44993, 0.0879403l 0.44993, 0.0875848l 0.44993, 0.0872294l 0.44993, 0.0868739l 0.44993, 0.0865185l 0.44993, 0.086163l 0.44993, 0.0858076l 0.44993, 0.0854521l 0.44993, 0.0850967l 0.44993, 0.0847412l 0.44993, 0.0843858"
 fill="none" stroke="#ff0066" stroke-width="3"/>
<path d="M164.891,273.245l 0.44993, 0.0840303l 0.44993, 0.0836749l 0.44993, 0.0833194l 0.44993, 0.082964l 0.44993, 0.0826085l 0.44993, 0.0822531l 0.44993, 0.0818976l 0.44993, 0.0815422l 0.44993, 0.0811867l 0.44993, 0.0808313l 0.44993, 0.0804758l
 0.44993, 0.0801204l 0.44993, 0.0797649l 0.44993, 0.0794095l 0.44993, 0.079054l 0.44993, 0.0786986l 0.44993, 0.0783431l 0.44993, 0.0779877l 0.44993, 0.0776322l 0.44993, 0.0772768l 0.44993, 0.0769213l 0.44993, 0.0765659l 0.44993, 0.0762104l 0.44993,
 0.075855l 0.44993, 0.0754995l 0.44993, 0.0751441l 0.44993, 0.0747886l 0.44993, 0.0744332l 0.44993, 0.0740777l 0.44993, 0.0737223l 0.44993, 0.0733668l 0.44993, 0.0730114l 0.44993, 0.0726559l 0.44993, 0.0723005l 0.44993, 0.071945l 0.44993, 0.0715896l
 0.44993, 0.0712341l 0.44993, 0.0708787l 0.44993, 0.0705232l 0.44993, 0.0701678l 0.44993, 0.0698123l 0.44993, 0.0694569l 0.44993, 0.0691014l 0.44993, 0.0687459l 0.44993, 0.0683905l 0.44993, 0.068035l 0.44993, 0.0676796l 0.44993, 0.0673241l 0.44993,
 0.0669687" fill="none" stroke="#ff0066" stroke-width="3"/>
<path d="M186.938,276.945l 0.44993, 0.0666132l 0.44993, 0.0662578l 0.44993, 0.0659023l 0.44993, 0.0655469l 0.44993, 0.0651914l 0.44993, 0.064836l 0.44993, 0.0644805l 0.44993, 0.0641251l 0.44993, 0.0637696l 0.44993, 0.0634142l 0.44993, 0.0630587l
 0.44993, 0.0627033l 0.44993, 0.0623478l 0.44993, 0.0619924l 0.44993, 0.0616369l 0.44993, 0.0612815l 0.44993, 0.060926l 0.44993, 0.0605706l 0.44993, 0.0602151l 0.44993, 0.0598597l 0.44993, 0.0595042l 0.44993, 0.0591488l 0.44993, 0.0587933l 0.44993,
 0.0584379l 0.44993, 0.0580824l 0.44993, 0.057727l 0.44993, 0.0573715l 0.44993, 0.0570161l 0.44993, 0.0566606l 0.44993, 0.0563052l 0.44993, 0.0559497l 0.44993, 0.0555943l 0.44993, 0.0552388l 0.44993, 0.0548834l 0.44993, 0.0545279l 0.44993, 0.0541725l
 0.44993, 0.053817l 0.44993, 0.0534616l 0.44993, 0.0531061l 0.44993, 0.0527507l 0.44993, 0.0523952l 0.44993, 0.0520398l 0.44993, 0.0516843l 0.44993, 0.0513289l 0.44993, 0.0509734l 0.44993, 0.050618l 0.44993, 0.0502625l 0.44993, 0.049907l 0.44993,
 0.0495516" fill="none" stroke="#ff0066" stroke-width="3"/>
<path d="M208.985,279.791l 0.44993, 0.0491961l 0.44993, 0.0488407l 0.44993, 0.0484852l 0.44993, 0.0481298l 0.44993, 0.0477743l 0.44993, 0.0474189l 0.44993, 0.0470634l 0.44993, 0.046708l 0.44993, 0.0463525l 0.44993, 0.0459971l 0.44993, 0.0456416l
 0.44993, 0.0452862l 0.44993, 0.0449307l 0.44993, 0.0445753l 0.44993, 0.0442198l 0.44993, 0.0438644l 0.44993, 0.0435089l 0.44993, 0.0431535l 0.44993, 0.042798l 0.44993, 0.0424426l 0.44993, 0.0420871l 0.44993, 0.0417317l 0.44993, 0.0413762l 0.44993,
 0.0410208l 0.44993, 0.0406653l 0.44993, 0.0403099l 0.44993, 0.0399544l 0.44993, 0.039599l 0.44993, 0.0392435l 0.44993, 0.0388881l 0.44993, 0.0385326l 0.44993, 0.0381772l 0.44993, 0.0378217l 0.44993, 0.0374663l 0.44993, 0.0371108l 0.44993, 0.0367554l
 0.44993, 0.0363999l 0.44993, 0.0360445l 0.44993, 0.035689l 0.44993, 0.0353336l 0.44993, 0.0349781l 0.44993, 0.0346227l 0.44993, 0.0342672l 0.44993, 0.0339118l 0.44993, 0.0335563l 0.44993, 0.0332009l 0.44993, 0.0328454l 0.44993, 0.03249l 0.44993,
 0.0321345" fill="none" stroke="#ff0066" stroke-width="3"/>
<path d="M231.031,281.783l 0.44993, 0.0317791l 0.44993, 0.0314236l 0.44993, 0.0310681l 0.44993, 0.0307127l 0.44993, 0.0303572l 0.44993, 0.0300018l 0.44993, 0.0296463l 0.44993, 0.0292909l 0.44993, 0.0289354l 0.44993, 0.02858l 0.44993, 0.0282245l
 0.44993, 0.0278691l 0.44993, 0.0275136l 0.44993, 0.0271582l 0.44993, 0.0268027l 0.44993, 0.0264473l 0.44993, 0.0260918l 0.44993, 0.0257364l 0.44993, 0.0253809l 0.44993, 0.0250255l 0.44993, 0.02467l 0.44993, 0.0243146l 0.44993, 0.0239591l 0.44993,
 0.0236037l 0.44993, 0.0232482l 0.44993, 0.0228928l 0.44993, 0.0225373l 0.44993, 0.0221819l 0.44993, 0.0218264l 0.44993, 0.021471l 0.44993, 0.0211155l 0.44993, 0.0207601l 0.44993, 0.0204046l 0.44993, 0.0200492l 0.44993, 0.0196937l 0.44993, 0.0193383l
 0.44993, 0.0189828l 0.44993, 0.0186274l 0.44993, 0.0182719l 0.44993, 0.0179165l 0.44993, 0.017561l 0.44993, 0.0172056l 0.44993, 0.0168501l 0.44993, 0.0164947l 0.44993, 0.0161392l 0.44993, 0.0157838l 0.44993, 0.0154283l 0.44993, 0.0150729l 0.44993,
 0.0147174" fill="none" stroke="#ff0066" stroke-width="3"/>
<path d="M253.078,282.922l 0.44993, 0.014362l 0.44993, 0.0140065l 0.44993, 0.0136511l 0.44993, 0.0132956l 0.44993, 0.0129402l 0.44993, 0.0125847l 0.44993, 0.0122293l 0.44993, 0.0118738l 0.44993, 0.0115183l 0.44993, 0.0111629l 0.44993, 0.0108074l
 0.44993, 0.010452l 0.44993, 0.0100965l 0.44993, 0.00974109l 0.44993, 0.00938564l 0.44993, 0.00903019l 0.44993, 0.00867474l 0.44993, 0.00831929l 0.44993, 0.00796384l 0.44993, 0.00760839l 0.44993, 0.00725294l 0.44993, 0.00689749l 0.44993, 0.00654204l
 0.44993, 0.00618659l 0.44993, 0.00583113l 0.44993, 0.00547568l 0.44993, 0.00512023l 0.44993, 0.00476478l 0.44993, 0.00440933l 0.44993, 0.00405388l 0.44993, 0.00369843l 0.44993, 0.00334298l 0.44993, 0.00298753l 0.44993, 0.00263208l 0.44993,
 0.00227663l 0.44993, 0.00192117l 0.44993, 0.00156572l 0.44993, 0.00121027l 0.44993, 0.000854822l 0.44993, 0.000499371l 0.44993, 0.00014392l 0.44993, -0.000211531l 0.44993, -0.000566982l 0.44993, -0.000922433l 0.44993, -0.00127788l 0.44993,
 -0.00163333l 0.44993, -0.00198879l 0.44993, -0.00234424l 0.44993, -0.00269969" fill="none" stroke="#ff0066" stroke-width="3"/>
<path d="M275.124,283.208l 0.44993, -0.00305514l 0.44993, -0.00341059l 0.44993, -0.00376604l 0.44993, -0.00412149l 0.44993, -0.00447694l 0.44993, -0.00483239l 0.44993, -0.00518784l 0.44993, -0.00554329l 0.44993, -0.00589875l 0.44993, -0.0062542l
 0.44993, -0.00660965l 0.44993, -0.0069651l 0.44993, -0.00732055l 0.44993, -0.007676l 0.44993, -0.00803145l 0.44993, -0.0083869l 0.44993, -0.00874235l 0.44993, -0.0090978l 0.44993, -0.00945325l 0.44993, -0.00980871l 0.44993, -0.0101642l 0.44993,
 -0.0105196l 0.44993, -0.0108751l 0.44993, -0.0112305l 0.44993, -0.011586l 0.44993, -0.0119414l 0.44993, -0.0122969l 0.44993, -0.0126523l 0.44993, -0.0130078l 0.44993, -0.0133632l 0.44993, -0.0137187l 0.44993, -0.0140741l 0.44993, -0.0144296l
 0.44993, -0.014785l 0.44993, -0.0151405l 0.44993, -0.0154959l 0.44993, -0.0158514l 0.44993, -0.0162068l 0.44993, -0.0165623l 0.44993, -0.0169177l 0.44993, -0.0172732l 0.44993, -0.0176286l 0.44993, -0.0179841l 0.44993, -0.0183395l 0.44993, -0.018695l
 0.44993, -0.0190504l 0.44993, -0.0194059l 0.44993, -0.0197613l 0.44993, -0.0201168" fill="none" stroke="#ff0066" stroke-width="3"/>
<path d="M297.171,282.64l 0.44993, -0.0204722l 0.44993, -0.0208277l 0.44993, -0.0211831l 0.44993, -0.0215386l 0.44993, -0.021894l 0.44993, -0.0222495l 0.44993, -0.0226049l 0.44993, -0.0229604l 0.44993, -0.0233158l 0.44993, -0.0236713l 0.44993,
 -0.0240267l 0.44993, -0.0243822l 0.44993, -0.0247376l 0.44993, -0.0250931l 0.44993, -0.0254485l 0.44993, -0.025804l 0.44993, -0.0261594l 0.44993, -0.0265149l 0.44993, -0.0268703l 0.44993, -0.0272258l 0.44993, -0.0275813l 0.44993, -0.0279367l
 0.44993, -0.0282922l 0.44993, -0.0286476l 0.44993, -0.0290031l 0.44993, -0.0293585l 0.44993, -0.029714l 0.44993, -0.0300694l 0.44993, -0.0304249l 0.44993, -0.0307803l 0.44993, -0.0311358l 0.44993, -0.0314912l 0.44993, -0.0318467l 0.44993,
 -0.0322021l 0.44993, -0.0325576l 0.44993, -0.032913l 0.44993, -0.0332685l 0.44993, -0.0336239l 0.44993, -0.0339794l 0.44993, -0.0343348l 0.44993, -0.0346903l 0.44993, -0.0350457l 0.44993, -0.0354012l 0.44993, -0.0357566l 0.44993, -0.0361121l
 0.44993, -0.0364675l 0.44993, -0.036823l 0.44993, -0.0371784l 0.44993, -0.0375339" fill="none" stroke="#ff0066" stroke-width="3"/>
<path d="M319.217,281.219l 0.44993, -0.0378893l 0.44993, -0.0382448l 0.44993, -0.0386002l 0.44993, -0.0389557l 0.44993, -0.0393111l 0.44993, -0.0396666l 0.44993, -0.040022l 0.44993, -0.0403775l 0.44993, -0.0407329l 0.44993, -0.0410884l 0.44993,
 -0.0414438l 0.44993, -0.0417993l 0.44993, -0.0421547l 0.44993, -0.0425102l 0.44993, -0.0428656l 0.44993, -0.0432211l 0.44993, -0.0435765l 0.44993, -0.043932l 0.44993, -0.0442874l 0.44993, -0.0446429l 0.44993, -0.0449983l 0.44993, -0.0453538l
 0.44993, -0.0457092l 0.44993, -0.0460647l 0.44993, -0.0464201l 0.44993, -0.0467756l 0.44993, -0.0471311l 0.44993, -0.0474865l 0.44993, -0.047842l 0.44993, -0.0481974l 0.44993, -0.0485529l 0.44993, -0.0489083l 0.44993, -0.0492638l 0.44993,
 -0.0496192l 0.44993, -0.0499747l 0.44993, -0.0503301l 0.44993, -0.0506856l 0.44993, -0.051041l 0.44993, -0.0513965l 0.44993, -0.0517519l 0.44993, -0.0521074l 0.44993, -0.0524628l 0.44993, -0.0528183l 0.44993, -0.0531737l 0.44993, -0.0535292l
 0.44993, -0.0538846l 0.44993, -0.0542401l 0.44993, -0.0545955l 0.44993, -0.054951" fill="none" stroke="#ff0066" stroke-width="3"/>
<path d="M341.264,278.945l 0.44993, -0.0553064l 0.44993, -0.0556619l 0.44993, -0.0560173l 0.44993, -0.0563728l 0.44993, -0.0567282l 0.44993, -0.0570837l 0.44993, -0.0574391l 0.44993, -0.0577946l 0.44993, -0.05815l 0.44993, -0.0585055l 0.44993,
 -0.0588609l 0.44993, -0.0592164l 0.44993, -0.0595718l 0.44993, -0.0599273l 0.44993, -0.0602827l 0.44993, -0.0606382l 0.44993, -0.0609936l 0.44993, -0.0613491l 0.44993, -0.0617045l 0.44993, -0.06206l 0.44993, -0.0624154l 0.44993, -0.0627709l 0.44993,
 -0.0631263l 0.44993, -0.0634818l 0.44993, -0.0638372l 0.44993, -0.0641927l 0.44993, -0.0645481l 0.44993, -0.0649036l 0.44993, -0.065259l 0.44993, -0.0656145l 0.44993, -0.06597l 0.44993, -0.0663254l 0.44993, -0.0666809l 0.44993, -0.0670363l 0.44993,
 -0.0673918l 0.44993, -0.0677472l 0.44993, -0.0681027l 0.44993, -0.0684581l 0.44993, -0.0688136l 0.44993, -0.069169l 0.44993, -0.0695245l 0.44993, -0.0698799l 0.44993, -0.0702354l 0.44993, -0.0705908l 0.44993, -0.0709463l 0.44993, -0.0713017l
 0.44993, -0.0716572l 0.44993, -0.0720126l 0.44993, -0.0723681" fill="none" stroke="#ff0066" stroke-width="3"/>
<path d="M363.311,275.817l 0.44993, -0.0727235l 0.44993, -0.073079l 0.44993, -0.0734344l 0.44993, -0.0737899l 0.44993, -0.0741453l 0.44993, -0.0745008l 0.44993, -0.0748562l 0.44993, -0.0752117l 0.44993, -0.0755671l 0.44993, -0.0759226l 0.44993,
 -0.076278l 0.44993, -0.0766335l 0.44993, -0.0769889l 0.44993, -0.0773444l 0.44993, -0.0776998l 0.44993, -0.0780553l 0.44993, -0.0784107l 0.44993, -0.0787662l 0.44993, -0.0791216l 0.44993, -0.0794771l 0.44993, -0.0798325l 0.44993, -0.080188l 0.44993,
 -0.0805434l 0.44993, -0.0808989l 0.44993, -0.0812543l 0.44993, -0.0816098l 0.44993, -0.0819652l 0.44993, -0.0823207l 0.44993, -0.0826761l 0.44993, -0.0830316l 0.44993, -0.083387l 0.44993, -0.0837425l 0.44993, -0.084098l 0.44993, -0.0844534l 0.44993,
 -0.0848088l 0.44993, -0.0851643l 0.44993, -0.0855198l 0.44993, -0.0858752l 0.44993, -0.0862307l 0.44993, -0.0865861l 0.44993, -0.0869416l 0.44993, -0.087297l 0.44993, -0.0876525l 0.44993, -0.0880079l 0.44993, -0.0883634l 0.44993, -0.0887188l
 0.44993, -0.0890743l 0.44993, -0.0894297l 0.44993, -0.0897852" fill="none" stroke="#ff0066" stroke-width="3"/>
<path d="M385.357,271.835l 0.44993, -0.0901406l 0.44993, -0.0904961l 0.44993, -0.0908515l 0.44993, -0.091207l 0.44993, -0.0915624l 0.44993, -0.0919179l 0.44993, -0.0922733l 0.44993, -0.0926288l 0.44993, -0.0929842l 0.44993, -0.0933397l 0.44993,
 -0.0936951l 0.44993, -0.0940506l 0.44993, -0.094406l 0.44993, -0.0947615l 0.44993, -0.0951169l 0.44993, -0.0954724l 0.44993, -0.0958278l 0.44993, -0.0961833l 0.44993, -0.0965387l 0.44993, -0.0968942l 0.44993, -0.0972496l 0.44993, -0.0976051l
 0.44993, -0.0979605l 0.44993, -0.098316l 0.44993, -0.0986714l 0.44993, -0.0990269l 0.44993, -0.0993823l 0.44993, -0.0997378l 0.44993, -0.100093l 0.44993, -0.100449l 0.44993, -0.100804l 0.44993, -0.10116l 0.44993, -0.101515l 0.44993, -0.10187l
 0.44993, -0.102226l 0.44993, -0.102581l 0.44993, -0.102937l 0.44993, -0.103292l 0.44993, -0.103648l 0.44993, -0.104003l 0.44993, -0.104359l 0.44993, -0.104714l 0.44993, -0.10507l 0.44993, -0.105425l 0.44993, -0.10578l 0.44993, -0.106136l 0.44993,
 -0.106491l 0.44993, -0.106847l 0.44993, -0.107202" fill="none" stroke="#ff0066" stroke-width="3"/>
<path d="M407.404,267l 0.44993, -0.107558l 0.44993, -0.107913l 0.44993, -0.108269l 0.44993, -0.108624l 0.44993, -0.10898l 0.44993, -0.109335l 0.44993, -0.10969l 0.44993, -0.110046l 0.44993, -0.110401l 0.44993, -0.110757l 0.44993, -0.111112l 0.44993,
 -0.111468l 0.44993, -0.111823l 0.44993, -0.112179l 0.44993, -0.112534l 0.44993, -0.112889l 0.44993, -0.113245l 0.44993, -0.1136l 0.44993, -0.113956l 0.44993, -0.114311l 0.44993, -0.114667l 0.44993, -0.115022l 0.44993, -0.115378l 0.44993, -0.115733l
 0.44993, -0.116089l 0.44993, -0.116444l 0.44993, -0.116799l 0.44993, -0.117155l 0.44993, -0.11751l 0.44993, -0.117866l 0.44993, -0.118221l 0.44993, -0.118577l 0.44993, -0.118932l 0.44993, -0.119288l 0.44993, -0.119643l 0.44993, -0.119998l 0.44993,
 -0.120354l 0.44993, -0.120709l 0.44993, -0.121065l 0.44993, -0.12142l 0.44993, -0.121776l 0.44993, -0.122131l 0.44993, -0.122487l 0.44993, -0.122842l 0.44993, -0.123198l 0.44993, -0.123553l 0.44993, -0.123908l 0.44993, -0.124264l 0.44993, -0.124619"
 fill="none" stroke="#ff0066" stroke-width="3"/>
<path d="M429.45,261.312l 0.44993, -0.124975l 0.44993, -0.12533l 0.44993, -0.125686l 0.44993, -0.126041l 0.44993, -0.126397l 0.44993, -0.126752l 0.44993, -0.127108l 0.44993, -0.127463l 0.44993, -0.127818l 0.44993, -0.128174l 0.44993, -0.128529l
 0.44993, -0.128885l 0.44993, -0.12924l 0.44993, -0.129596l 0.44993, -0.129951l 0.44993, -0.130307l 0.44993, -0.130662l 0.44993, -0.131017l 0.44993, -0.131373l 0.44993, -0.131728l 0.44993, -0.132084l 0.44993, -0.132439l 0.44993, -0.132795l 0.44993,
 -0.13315l 0.44993, -0.133506l 0.44993, -0.133861l 0.44993, -0.134217l 0.44993, -0.134572l 0.44993, -0.134927l 0.44993, -0.135283l 0.44993, -0.135638l 0.44993, -0.135994l 0.44993, -0.136349l 0.44993, -0.136705l 0.44993, -0.13706l 0.44993, -0.137416l
 0.44993, -0.137771l 0.44993, -0.138126l 0.44993, -0.138482l 0.44993, -0.138837l 0.44993, -0.139193l 0.44993, -0.139548l 0.44993, -0.139904l 0.44993, -0.140259l 0.44993, -0.140615l 0.44993, -0.14097l 0.44993, -0.141326l 0.44993, -0.141681l 0.44993,
 -0.142036" fill="none" stroke="#ff0066" stroke-width="3"/>
<path d="M451.497,254.77l 0.44993, -0.142392l 0.44993, -0.142747l 0.44993, -0.143103l 0.44993, -0.143458l 0.44993, -0.143814l 0.44993, -0.144169l 0.44993, -0.144525l 0.44993, -0.14488l 0.44993, -0.145236l 0.44993, -0.145591l 0.44993, -0.145946l
 0.44993, -0.146302l 0.44993, -0.146657l 0.44993, -0.147013l 0.44993, -0.147368l 0.44993, -0.147724l 0.44993, -0.148079l 0.44993, -0.148435l 0.44993, -0.14879l 0.44993, -0.149145l 0.44993, -0.149501l 0.44993, -0.149856l 0.44993, -0.150212l 0.44993,
 -0.150567l 0.44993, -0.150923l 0.44993, -0.151278l 0.44993, -0.151634l 0.44993, -0.151989l 0.44993, -0.152345l 0.44993, -0.1527l 0.44993, -0.153055l 0.44993, -0.153411l 0.44993, -0.153766l 0.44993, -0.154122l 0.44993, -0.154477l 0.44993, -0.154833l
 0.44993, -0.155188l 0.44993, -0.155544l 0.44993, -0.155899l 0.44993, -0.156254l 0.44993, -0.15661l 0.44993, -0.156965l 0.44993, -0.157321l 0.44993, -0.157676l 0.44993, -0.158032l 0.44993, -0.158387l 0.44993, -0.158743l 0.44993, -0.159098l 0.44993,
 -0.159454" fill="none" stroke="#ff0066" stroke-width="3"/>
<path d="M473.543,247.375l 0.44993, -0.159809l 0.44993, -0.160164l 0.44993, -0.16052l 0.44993, -0.160875l 0.44993, -0.161231l 0.44993, -0.161586l 0.44993, -0.161942l 0.44993, -0.162297l 0.44993, -0.162653l 0.44993, -0.163008l 0.44993, -0.163364l
 0.44993, -0.163719l 0.44993, -0.164074l 0.44993, -0.16443l 0.44993, -0.164785l 0.44993, -0.165141l 0.44993, -0.165496l 0.44993, -0.165852l 0.44993, -0.166207l 0.44993, -0.166563l 0.44993, -0.166918l 0.44993, -0.167273l 0.44993, -0.167629l 0.44993,
 -0.167984l 0.44993, -0.16834l 0.44993, -0.168695l 0.44993, -0.169051l 0.44993, -0.169406l 0.44993, -0.169762l 0.44993, -0.170117l 0.44993, -0.170473l 0.44993, -0.170828l 0.44993, -0.171183l 0.44993, -0.171539l 0.44993, -0.171894l 0.44993, -0.17225l
 0.44993, -0.172605l 0.44993, -0.172961l 0.44993, -0.173316l 0.44993, -0.173672l 0.44993, -0.174027l 0.44993, -0.174382l 0.44993, -0.174738l 0.44993, -0.175093l 0.44993, -0.175449l 0.44993, -0.175804l 0.44993, -0.17616l 0.44993, -0.176515l 0.44993,
 -0.176871" fill="none" stroke="#ff0066" stroke-width="3"/>
<path d="M495.59,239.126l 0.44993, -0.177226l 0.44993, -0.177582l 0.44993, -0.177937l 0.44993, -0.178292l 0.44993, -0.178648l 0.44993, -0.179003l 0.44993, -0.179359l 0.44993, -0.179714l 0.44993, -0.18007l 0.44993, -0.180425l 0.44993, -0.180781l
 0.44993, -0.181136l 0.44993, -0.181491l 0.44993, -0.181847l 0.44993, -0.182202l 0.44993, -0.182558l 0.44993, -0.182913l 0.44993, -0.183269l 0.44993, -0.183624l 0.44993, -0.18398l 0.44993, -0.184335l 0.44993, -0.184691l 0.44993, -0.185046l 0.44993,
 -0.185401l 0.44993, -0.185757l 0.44993, -0.186112l 0.44993, -0.186468l 0.44993, -0.186823l 0.44993, -0.187179l 0.44993, -0.187534l 0.44993, -0.18789l 0.44993, -0.188245l 0.44993, -0.188601l 0.44993, -0.188956l 0.44993, -0.189311l 0.44993, -0.189667l
 0.44993, -0.190022l 0.44993, -0.190378l 0.44993, -0.190733l 0.44993, -0.191089l 0.44993, -0.191444l 0.44993, -0.1918l 0.44993, -0.192155l 0.44993, -0.19251l 0.44993, -0.192866l 0.44993, -0.193221l 0.44993, -0.193577l 0.44993, -0.193932l 0.44993,
 -0.194288" fill="none" stroke="#ff0066" stroke-width="3"/>
<path d="M517.636,230.024l 0.44993, -0.194643l 0.44993, -0.194999l 0.44993, -0.195354l 0.44993, -0.19571l 0.44993, -0.196065l 0.44993, -0.19642l 0.44993, -0.196776l 0.44993, -0.197131l 0.44993, -0.197487l 0.44993, -0.197842l 0.44993, -0.198198l
 0.44993, -0.198553l 0.44993, -0.198909l 0.44993, -0.199264l 0.44993, -0.19962l 0.44993, -0.199975l 0.44993, -0.20033l 0.44993, -0.200686l 0.44993, -0.201041l 0.44993, -0.201397l 0.44993, -0.201752l 0.44993, -0.202108l 0.44993, -0.202463l 0.44993,
 -0.202819l 0.44993, -0.203174l 0.44993, -0.203529l 0.44993, -0.203885l 0.44993, -0.20424l 0.44993, -0.204596l 0.44993, -0.204951l 0.44993, -0.205307l 0.44993, -0.205662l 0.44993, -0.206018l 0.44993, -0.206373l 0.44993, -0.206729l 0.44993, -0.207084l
 0.44993, -0.207439l 0.44993, -0.207795l 0.44993, -0.20815l 0.44993, -0.208506l 0.44993, -0.208861l 0.44993, -0.209217l 0.44993, -0.209572l 0.44993, -0.209928l 0.44993, -0.210283l 0.44993, -0.210638l 0.44993, -0.210994l 0.44993, -0.211349l 0.44993,
 -0.211705" fill="none" stroke="#ff0066" stroke-width="3"/>
<path d="M539.683,220.069l 0.44993, -0.21206l 0.44993, -0.212416l 0.44993, -0.212771l 0.44993, -0.213127l 0.44993, -0.213482l 0.44993, -0.213838l 0.44993, -0.214193l 0.44993, -0.214548l 0.44993, -0.214904l 0.44993, -0.215259l 0.44993, -0.215615l
 0.44993, -0.21597l 0.44993, -0.216326l 0.44993, -0.216681l 0.44993, -0.217037l 0.44993, -0.217392l 0.44993, -0.217747l 0.44993, -0.218103l 0.44993, -0.218458" fill="none" stroke="#ff0066" stroke-width="3"/>
<path d="M248.503,21.4167h 239.963" fill="none" stroke="#999999" stroke-width="7"/>
<text xml:space="preserve" x="360.607" y="50.7193" fill="black" font-size="16.0105" font-family="Helvetica"> with EMC</text>
<text xml:space="preserve" x="352.717" y="50.7193" fill="black" font-size="16.0105" font-family="Times">&#0947;</text>
<text xml:space="preserve" x="344.828" y="50.7193" fill="black" font-size="16.0105" font-family="Times">&#0947;</text>
<text xml:space="preserve" x="336.938" y="50.7193" fill="black" font-size="16.0105" font-family="Times">&#0947;</text>
<text xml:space="preserve" x="331.866" y="50.7193" fill="black" font-size="16.0105" font-family="Helvetica"> </text>
<text xml:space="preserve" x="316.65" y="50.7193" fill="black" font-size="16.0105" font-family="Times">&#8594;</text>
<text xml:space="preserve" x="311.578" y="50.7193" fill="black" font-size="16.0105" font-family="Helvetica"> </text>
<text xml:space="preserve" x="303.689" y="50.7193" fill="black" font-size="16.0105" font-family="Times">&#0947;</text>
<text xml:space="preserve" x="298.053" y="45.0838" fill="black" font-size="10.8403" font-family="Helvetica">0</text>
<text xml:space="preserve" x="289.6" y="50.7193" fill="black" font-size="16.0105" font-family="Times">&#0960;</text>
<text xml:space="preserve" x="284.528" y="50.7193" fill="black" font-size="16.0105" font-family="Helvetica"> </text>
<text xml:space="preserve" x="269.312" y="50.7193" fill="black" font-size="16.0105" font-family="Times">&#8594;</text>
<text xml:space="preserve" x="264.24" y="50.7193" fill="black" font-size="16.0105" font-family="Helvetica"> </text>
<text xml:space="preserve" x="252.969" y="50.7193" fill="black" font-size="16.0105" font-family="Times">&#0969;</text>
<text xml:space="preserve" x="128.989" y="50.7193" fill="black" font-size="16.0105" font-family="Helvetica"> = 13 TeV (EG1), </text>
<text xml:space="preserve" x="120.536" y="50.7193" fill="black" font-size="16.0105" font-family="Helvetica" font-style="oblique">s</text>
<path d="M114.9,41.7025l 1.69064, 9.58031" fill="none" stroke="black" stroke-width="2"/>
<path d="M116.591,51.2829l 2.25419, -14.0887" fill="none" stroke="black"/>
<path d="M118.845,37.1942h 10.1439" fill="none" stroke="black"/>
<text xml:space="preserve" x="89.5406" y="50.7193" fill="black" font-size="16.0105" font-family="Helvetica">pp </text>
<text xml:space="preserve" x="89.5406" y="85.6593" fill="black" font-size="16.0105" font-family="Helvetica">ALICE work in progress</text>
<text xml:space="preserve" x="205.068" y="120.599" fill="black" font-size="16.0105" font-family="Helvetica">) &lt; 8.0</text>
<text xml:space="preserve" x="196.051" y="120.599" fill="black" font-size="16.0105" font-family="Helvetica" font-style="oblique">c</text>
<text xml:space="preserve" x="145.895" y="120.599" fill="black" font-size="16.0105" font-family="Helvetica"> /(GeV/</text>
<text xml:space="preserve" x="139.133" y="128.489" fill="black" font-size="10.8403" font-family="Helvetica">T</text>
<text xml:space="preserve" x="129.552" y="120.599" fill="black" font-size="16.0105" font-family="Helvetica" font-style="oblique">p</text>
<text xml:space="preserve" x="124.481" y="120.599" fill="black" font-size="16.0105" font-family="Helvetica"> </text>
<text xml:space="preserve" x="116.027" y="120.599" fill="black" font-size="16.0105" font-family="Times">&#8804;</text>
<text xml:space="preserve" x="89.5406" y="120.599" fill="black" font-size="16.0105" font-family="Helvetica">6.0 </text>
<rect x="312.311" y="69.1755" width="198.425" height="113.448" fill="white"/>
<text xml:space="preserve" x="361.734" y="85.0957" fill="black" font-size="16.0105" font-family="Helvetica">ratio</text>
<path d="M319.752,80.5203h 34.7244" fill="none" stroke="black" stroke-width="2"/>
<g fill="black">
<circle cx="337.114" cy="80.5203" r="6.76257"/>
</g>
<text xml:space="preserve" x="361.734" y="108.201" fill="black" font-size="16.0105" font-family="Helvetica">peak range</text>
<path d="M319.752,103.21h 34.7244" fill="none" stroke="#333333" stroke-width="2"/>
<g stroke="#333333" stroke-width="2" fill="none">
<circle cx="337.114" cy="103.21" r="5.63548"/>
</g>
<text xml:space="preserve" x="361.734" y="130.743" fill="black" font-size="16.0105" font-family="Helvetica">background pol1</text>
<path d="M319.752,125.899h 34.7244" fill="none" stroke="#33cccc" stroke-width="3"/>
<text xml:space="preserve" x="361.734" y="153.285" fill="black" font-size="16.0105" font-family="Helvetica">background pol2</text>
<path d="M319.752,148.589h 34.7244" fill="none" stroke="#ff0066" stroke-width="3"/>
<text xml:space="preserve" x="361.734" y="175.827" fill="black" font-size="16.0105" font-family="Helvetica">param. range</text>
<path d="M319.752,171.279h 34.7244" fill="none" stroke="#999999" stroke-width="7"/></svg>
