<?xml version="1.0" standalone="no"?>
<svg width="567.429" height="553.904" viewBox="0 0 567.429 553.904" xmlns="http://www.w3.org/2000/svg" shape-rendering="crispEdges">
<title>
Data/EG1/OmegaTGPSPlusPS/SignalAndBackgroundFit_03.svg
</title>
<desc>
Creator: ROOT Version 6.20/08
CreationDate: Mon Mar 29 21:28:53 2021</desc>
<defs>
</defs>
<rect x="0.5" y="0" width="566.929" height="553.404" fill="white"/>
<rect x="57.1929" y="16.6021" width="496.063" height="481.461" fill="white"/>
<rect x="57.1929" y="16.6021" width="496.063" height="481.461" fill="none" stroke="black"/>
<rect x="57.1929" y="16.6021" width="496.063" height="481.461" fill="white"/>
<rect x="57.1929" y="16.6021" width="496.063" height="481.461" fill="none" stroke="black"/>
<g fill="black">
<circle cx="98.9408" cy="492.888" r="6.76257"/>
</g>
<g fill="black">
<circle cx="103.852" cy="231.478" r="6.76257"/>
</g>
<g fill="black">
<circle cx="108.764" cy="38.2802" r="6.76257"/>
</g>
<g fill="black">
<circle cx="113.675" cy="127.269" r="6.76257"/>
</g>
<g fill="black">
<circle cx="118.587" cy="368.554" r="6.76257"/>
</g>
<g fill="black">
<circle cx="123.498" cy="287.385" r="6.76257"/>
</g>
<g fill="black">
<circle cx="128.41" cy="83.1392" r="6.76257"/>
</g>
<g fill="black">
<circle cx="133.321" cy="76.7857" r="6.76257"/>
</g>
<g fill="black">
<circle cx="138.233" cy="63.2332" r="6.76257"/>
</g>
<g fill="black">
<circle cx="143.144" cy="32.1187" r="6.76257"/>
</g>
<g fill="black">
<circle cx="148.056" cy="18.2382" r="6.76257"/>
</g>
<g fill="black">
<circle cx="152.967" cy="16.6021" r="6.76257"/>
</g>
<g fill="black">
<circle cx="157.879" cy="23.3384" r="6.76257"/>
</g>
<g fill="black">
<circle cx="162.79" cy="31.3869" r="6.76257"/>
</g>
<g fill="black">
<circle cx="167.702" cy="41.7948" r="6.76257"/>
</g>
<g fill="black">
<circle cx="172.614" cy="53.1589" r="6.76257"/>
</g>
<g fill="black">
<circle cx="177.525" cy="62.3808" r="6.76257"/>
</g>
<g fill="black">
<circle cx="182.437" cy="74.2874" r="6.76257"/>
</g>
<g fill="black">
<circle cx="187.348" cy="85.3459" r="6.76257"/>
</g>
<g fill="black">
<circle cx="192.26" cy="99.2643" r="6.76257"/>
</g>
<g fill="black">
<circle cx="197.171" cy="109.71" r="6.76257"/>
</g>
<g fill="black">
<circle cx="202.083" cy="121.462" r="6.76257"/>
</g>
<g fill="black">
<circle cx="206.994" cy="131.656" r="6.76257"/>
</g>
<g fill="black">
<circle cx="211.906" cy="142.165" r="6.76257"/>
</g>
<g fill="black">
<circle cx="216.817" cy="153.366" r="6.76257"/>
</g>
<g fill="black">
<circle cx="221.729" cy="160.661" r="6.76257"/>
</g>
<g fill="black">
<circle cx="226.64" cy="169.294" r="6.76257"/>
</g>
<g fill="black">
<circle cx="231.552" cy="180.841" r="6.76257"/>
</g>
<g fill="black">
<circle cx="236.463" cy="190.255" r="6.76257"/>
</g>
<g fill="black">
<circle cx="241.375" cy="199.966" r="6.76257"/>
</g>
<g fill="black">
<circle cx="246.286" cy="212.466" r="6.76257"/>
</g>
<g fill="black">
<circle cx="251.198" cy="223.237" r="6.76257"/>
</g>
<g fill="black">
<circle cx="256.109" cy="234.168" r="6.76257"/>
</g>
<g fill="black">
<circle cx="261.021" cy="244.666" r="6.76257"/>
</g>
<g fill="black">
<circle cx="265.932" cy="254.901" r="6.76257"/>
</g>
<g fill="black">
<circle cx="270.844" cy="264.307" r="6.76257"/>
</g>
<g fill="black">
<circle cx="275.755" cy="274.106" r="6.76257"/>
</g>
<g fill="black">
<circle cx="280.667" cy="283.222" r="6.76257"/>
</g>
<g fill="black">
<circle cx="285.578" cy="290.936" r="6.76257"/>
</g>
<g fill="black">
<circle cx="290.49" cy="299.309" r="6.76257"/>
</g>
<g fill="black">
<circle cx="295.401" cy="307.192" r="6.76257"/>
</g>
<g fill="black">
<circle cx="300.313" cy="314.587" r="6.76257"/>
</g>
<g fill="black">
<circle cx="305.224" cy="321.475" r="6.76257"/>
</g>
<g fill="black">
<circle cx="310.136" cy="328.972" r="6.76257"/>
</g>
<g fill="black">
<circle cx="315.047" cy="335.847" r="6.76257"/>
</g>
<g fill="black">
<circle cx="319.959" cy="341.13" r="6.76257"/>
</g>
<g fill="black">
<circle cx="324.87" cy="346.806" r="6.76257"/>
</g>
<g fill="black">
<circle cx="329.782" cy="352.058" r="6.76257"/>
</g>
<g fill="black">
<circle cx="334.694" cy="357.419" r="6.76257"/>
</g>
<g fill="black">
<circle cx="339.605" cy="362.741" r="6.76257"/>
</g>
<g fill="black">
<circle cx="344.517" cy="366.906" r="6.76257"/>
</g>
<g fill="black">
<circle cx="349.428" cy="370.642" r="6.76257"/>
</g>
<g fill="black">
<circle cx="354.34" cy="374.803" r="6.76257"/>
</g>
<g fill="black">
<circle cx="359.251" cy="379.435" r="6.76257"/>
</g>
<g fill="black">
<circle cx="364.163" cy="383.694" r="6.76257"/>
</g>
<g fill="black">
<circle cx="369.074" cy="385.516" r="6.76257"/>
</g>
<g fill="black">
<circle cx="373.986" cy="389.841" r="6.76257"/>
</g>
<g fill="black">
<circle cx="378.897" cy="392.885" r="6.76257"/>
</g>
<g fill="black">
<circle cx="383.809" cy="395.811" r="6.76257"/>
</g>
<g fill="black">
<circle cx="388.72" cy="398.13" r="6.76257"/>
</g>
<g fill="black">
<circle cx="393.632" cy="401.763" r="6.76257"/>
</g>
<g fill="black">
<circle cx="398.543" cy="403.777" r="6.76257"/>
</g>
<g fill="black">
<circle cx="403.455" cy="405.873" r="6.76257"/>
</g>
<g fill="black">
<circle cx="408.366" cy="409.018" r="6.76257"/>
</g>
<g fill="black">
<circle cx="413.278" cy="411.386" r="6.76257"/>
</g>
<g fill="black">
<circle cx="418.189" cy="413.578" r="6.76257"/>
</g>
<g fill="black">
<circle cx="423.101" cy="415.537" r="6.76257"/>
</g>
<g fill="black">
<circle cx="428.012" cy="418.09" r="6.76257"/>
</g>
<g fill="black">
<circle cx="432.924" cy="419.306" r="6.76257"/>
</g>
<g fill="black">
<circle cx="437.835" cy="421.233" r="6.76257"/>
</g>
<g fill="black">
<circle cx="442.747" cy="423.091" r="6.76257"/>
</g>
<g fill="black">
<circle cx="447.658" cy="424.884" r="6.76257"/>
</g>
<g fill="black">
<circle cx="452.57" cy="426.205" r="6.76257"/>
</g>
<g fill="black">
<circle cx="457.481" cy="427.744" r="6.76257"/>
</g>
<g fill="black">
<circle cx="462.393" cy="429.031" r="6.76257"/>
</g>
<g fill="black">
<circle cx="467.304" cy="431.004" r="6.76257"/>
</g>
<g fill="black">
<circle cx="472.216" cy="431.567" r="6.76257"/>
</g>
<g fill="black">
<circle cx="477.127" cy="432.959" r="6.76257"/>
</g>
<g fill="black">
<circle cx="482.039" cy="434.852" r="6.76257"/>
</g>
<g fill="black">
<circle cx="486.95" cy="435.682" r="6.76257"/>
</g>
<g fill="black">
<circle cx="491.862" cy="435.993" r="6.76257"/>
</g>
<g fill="black">
<circle cx="496.773" cy="437.408" r="6.76257"/>
</g>
<g fill="black">
<circle cx="501.685" cy="438.936" r="6.76257"/>
</g>
<g fill="black">
<circle cx="506.597" cy="439.869" r="6.76257"/>
</g>
<g fill="black">
<circle cx="511.508" cy="440.446" r="6.76257"/>
</g>
<g fill="black">
<circle cx="516.42" cy="441.389" r="6.76257"/>
</g>
<g fill="black">
<circle cx="521.331" cy="442.335" r="6.76257"/>
</g>
<g fill="black">
<circle cx="526.243" cy="443.255" r="6.76257"/>
</g>
<g fill="black">
<circle cx="531.154" cy="443.718" r="6.76257"/>
</g>
<g fill="black">
<circle cx="536.066" cy="444.375" r="6.76257"/>
</g>
<g fill="black">
<circle cx="540.977" cy="444.982" r="6.76257"/>
</g>
<g fill="black">
<circle cx="545.889" cy="446.024" r="6.76257"/>
</g>
<path d="M57.1929,498.064h 496.063" fill="none" stroke="black"/>
<path d="M57.1929,483.537v 14.5269" fill="none" stroke="black"/>
<path d="M72.5414,490.8v 7.26343" fill="none" stroke="black"/>
<path d="M87.8899,490.8v 7.26343" fill="none" stroke="black"/>
<path d="M103.238,490.8v 7.26343" fill="none" stroke="black"/>
<path d="M118.587,483.537v 14.5269" fill="none" stroke="black"/>
<path d="M133.935,490.8v 7.26343" fill="none" stroke="black"/>
<path d="M149.284,490.8v 7.26343" fill="none" stroke="black"/>
<path d="M164.632,490.8v 7.26343" fill="none" stroke="black"/>
<path d="M179.981,483.537v 14.5269" fill="none" stroke="black"/>
<path d="M195.329,490.8v 7.26343" fill="none" stroke="black"/>
<path d="M210.678,490.8v 7.26343" fill="none" stroke="black"/>
<path d="M226.026,490.8v 7.26343" fill="none" stroke="black"/>
<path d="M241.375,483.537v 14.5269" fill="none" stroke="black"/>
<path d="M256.723,490.8v 7.26343" fill="none" stroke="black"/>
<path d="M272.072,490.8v 7.26343" fill="none" stroke="black"/>
<path d="M287.42,490.8v 7.26343" fill="none" stroke="black"/>
<path d="M302.769,483.537v 14.5269" fill="none" stroke="black"/>
<path d="M318.117,490.8v 7.26343" fill="none" stroke="black"/>
<path d="M333.466,490.8v 7.26343" fill="none" stroke="black"/>
<path d="M348.814,490.8v 7.26343" fill="none" stroke="black"/>
<path d="M364.163,483.537v 14.5269" fill="none" stroke="black"/>
<path d="M379.511,490.8v 7.26343" fill="none" stroke="black"/>
<path d="M394.86,490.8v 7.26343" fill="none" stroke="black"/>
<path d="M410.208,490.8v 7.26343" fill="none" stroke="black"/>
<path d="M425.557,483.537v 14.5269" fill="none" stroke="black"/>
<path d="M440.905,490.8v 7.26343" fill="none" stroke="black"/>
<path d="M456.253,490.8v 7.26343" fill="none" stroke="black"/>
<path d="M471.602,490.8v 7.26343" fill="none" stroke="black"/>
<path d="M486.95,483.537v 14.5269" fill="none" stroke="black"/>
<path d="M502.299,490.8v 7.26343" fill="none" stroke="black"/>
<path d="M517.647,490.8v 7.26343" fill="none" stroke="black"/>
<path d="M532.996,490.8v 7.26343" fill="none" stroke="black"/>
<path d="M548.344,483.537v 14.5269" fill="none" stroke="black"/>
<path d="M548.344,483.537v 14.5269" fill="none" stroke="black"/>
<text xml:space="preserve" x="52.3464" y="513.956" fill="black" font-size="16.0105" font-family="Helvetica">0</text>
<text xml:space="preserve" x="107.574" y="513.956" fill="black" font-size="16.0105" font-family="Helvetica">0.2</text>
<text xml:space="preserve" x="169.001" y="513.956" fill="black" font-size="16.0105" font-family="Helvetica">0.4</text>
<text xml:space="preserve" x="230.428" y="513.956" fill="black" font-size="16.0105" font-family="Helvetica">0.6</text>
<text xml:space="preserve" x="291.854" y="513.956" fill="black" font-size="16.0105" font-family="Helvetica">0.8</text>
<text xml:space="preserve" x="361.171" y="513.956" fill="black" font-size="16.0105" font-family="Helvetica">1</text>
<text xml:space="preserve" x="414.708" y="513.956" fill="black" font-size="16.0105" font-family="Helvetica">1.2</text>
<text xml:space="preserve" x="476.134" y="513.956" fill="black" font-size="16.0105" font-family="Helvetica">1.4</text>
<text xml:space="preserve" x="537.561" y="513.956" fill="black" font-size="16.0105" font-family="Helvetica">1.6</text>
<text xml:space="preserve" x="548.268" y="537.625" fill="black" font-size="16.0105" font-family="Helvetica">)</text>
<text xml:space="preserve" x="542.633" y="532.553" fill="black" font-size="10.8403" font-family="Helvetica">2</text>
<text xml:space="preserve" x="533.616" y="537.625" fill="black" font-size="16.0105" font-family="Helvetica" font-style="oblique">c</text>
<text xml:space="preserve" x="487.405" y="537.625" fill="black" font-size="16.0105" font-family="Helvetica"> (GeV/</text>
<text xml:space="preserve" x="473.317" y="542.697" fill="black" font-size="10.8403" font-family="Helvetica">inv</text>
<text xml:space="preserve" x="459.792" y="537.625" fill="black" font-size="16.0105" font-family="Helvetica" font-style="oblique">m</text>
<path d="M57.1929,16.6021h 496.063" fill="none" stroke="black"/>
<path d="M57.1929,31.129v -14.5269" fill="none" stroke="black"/>
<path d="M72.5414,23.8655v -7.26343" fill="none" stroke="black"/>
<path d="M87.8899,23.8655v -7.26343" fill="none" stroke="black"/>
<path d="M103.238,23.8655v -7.26343" fill="none" stroke="black"/>
<path d="M118.587,31.129v -14.5269" fill="none" stroke="black"/>
<path d="M133.935,23.8655v -7.26343" fill="none" stroke="black"/>
<path d="M149.284,23.8655v -7.26343" fill="none" stroke="black"/>
<path d="M164.632,23.8655v -7.26343" fill="none" stroke="black"/>
<path d="M179.981,31.129v -14.5269" fill="none" stroke="black"/>
<path d="M195.329,23.8655v -7.26343" fill="none" stroke="black"/>
<path d="M210.678,23.8655v -7.26343" fill="none" stroke="black"/>
<path d="M226.026,23.8655v -7.26343" fill="none" stroke="black"/>
<path d="M241.375,31.129v -14.5269" fill="none" stroke="black"/>
<path d="M256.723,23.8655v -7.26343" fill="none" stroke="black"/>
<path d="M272.072,23.8655v -7.26343" fill="none" stroke="black"/>
<path d="M287.42,23.8655v -7.26343" fill="none" stroke="black"/>
<path d="M302.769,31.129v -14.5269" fill="none" stroke="black"/>
<path d="M318.117,23.8655v -7.26343" fill="none" stroke="black"/>
<path d="M333.466,23.8655v -7.26343" fill="none" stroke="black"/>
<path d="M348.814,23.8655v -7.26343" fill="none" stroke="black"/>
<path d="M364.163,31.129v -14.5269" fill="none" stroke="black"/>
<path d="M379.511,23.8655v -7.26343" fill="none" stroke="black"/>
<path d="M394.86,23.8655v -7.26343" fill="none" stroke="black"/>
<path d="M410.208,23.8655v -7.26343" fill="none" stroke="black"/>
<path d="M425.557,31.129v -14.5269" fill="none" stroke="black"/>
<path d="M440.905,23.8655v -7.26343" fill="none" stroke="black"/>
<path d="M456.253,23.8655v -7.26343" fill="none" stroke="black"/>
<path d="M471.602,23.8655v -7.26343" fill="none" stroke="black"/>
<path d="M486.95,31.129v -14.5269" fill="none" stroke="black"/>
<path d="M502.299,23.8655v -7.26343" fill="none" stroke="black"/>
<path d="M517.647,23.8655v -7.26343" fill="none" stroke="black"/>
<path d="M532.996,23.8655v -7.26343" fill="none" stroke="black"/>
<path d="M548.344,31.129v -14.5269" fill="none" stroke="black"/>
<path d="M548.344,31.129v -14.5269" fill="none" stroke="black"/>
<path d="M57.1929,498.064v -481.461" fill="none" stroke="black"/>
<path d="M71.9898,498.064h -14.7969" fill="none" stroke="black"/>
<path d="M64.5913,484.044h -7.39843" fill="none" stroke="black"/>
<path d="M64.5913,470.025h -7.39843" fill="none" stroke="black"/>
<path d="M64.5913,456.006h -7.39843" fill="none" stroke="black"/>
<path d="M64.5913,441.986h -7.39843" fill="none" stroke="black"/>
<path d="M71.9898,427.967h -14.7969" fill="none" stroke="black"/>
<path d="M64.5913,413.948h -7.39843" fill="none" stroke="black"/>
<path d="M64.5913,399.928h -7.39843" fill="none" stroke="black"/>
<path d="M64.5913,385.909h -7.39843" fill="none" stroke="black"/>
<path d="M64.5913,371.89h -7.39843" fill="none" stroke="black"/>
<path d="M71.9898,357.87h -14.7969" fill="none" stroke="black"/>
<path d="M64.5913,343.851h -7.39843" fill="none" stroke="black"/>
<path d="M64.5913,329.832h -7.39843" fill="none" stroke="black"/>
<path d="M64.5913,315.812h -7.39843" fill="none" stroke="black"/>
<path d="M64.5913,301.793h -7.39843" fill="none" stroke="black"/>
<path d="M71.9898,287.774h -14.7969" fill="none" stroke="black"/>
<path d="M64.5913,273.754h -7.39843" fill="none" stroke="black"/>
<path d="M64.5913,259.735h -7.39843" fill="none" stroke="black"/>
<path d="M64.5913,245.716h -7.39843" fill="none" stroke="black"/>
<path d="M64.5913,231.696h -7.39843" fill="none" stroke="black"/>
<path d="M71.9898,217.677h -14.7969" fill="none" stroke="black"/>
<path d="M64.5913,203.658h -7.39843" fill="none" stroke="black"/>
<path d="M64.5913,189.638h -7.39843" fill="none" stroke="black"/>
<path d="M64.5913,175.619h -7.39843" fill="none" stroke="black"/>
<path d="M64.5913,161.6h -7.39843" fill="none" stroke="black"/>
<path d="M71.9898,147.58h -14.7969" fill="none" stroke="black"/>
<path d="M64.5913,133.561h -7.39843" fill="none" stroke="black"/>
<path d="M64.5913,119.542h -7.39843" fill="none" stroke="black"/>
<path d="M64.5913,105.522h -7.39843" fill="none" stroke="black"/>
<path d="M64.5913,91.5032h -7.39843" fill="none" stroke="black"/>
<path d="M71.9898,77.4838h -14.7969" fill="none" stroke="black"/>
<path d="M71.9898,77.4838h -14.7969" fill="none" stroke="black"/>
<path d="M64.5913,63.4645h -7.39843" fill="none" stroke="black"/>
<path d="M64.5913,49.4452h -7.39843" fill="none" stroke="black"/>
<path d="M64.5913,35.4259h -7.39843" fill="none" stroke="black"/>
<path d="M64.5913,21.4065h -7.39843" fill="none" stroke="black"/>
<text xml:space="preserve" x="45.5838" y="503.248" fill="black" font-size="16.0105" font-family="Helvetica">0</text>
<text xml:space="preserve" x="23.6055" y="433.368" fill="black" font-size="16.0105" font-family="Helvetica">0.05</text>
<text xml:space="preserve" x="34.8764" y="363.488" fill="black" font-size="16.0105" font-family="Helvetica">0.1</text>
<text xml:space="preserve" x="23.6055" y="293.045" fill="black" font-size="16.0105" font-family="Helvetica">0.15</text>
<text xml:space="preserve" x="32.6222" y="223.165" fill="black" font-size="16.0105" font-family="Helvetica">0.2</text>
<text xml:space="preserve" x="23.6055" y="152.721" fill="black" font-size="16.0105" font-family="Helvetica">0.25</text>
<text xml:space="preserve" x="32.6222" y="82.8415" fill="black" font-size="16.0105" font-family="Helvetica">0.3</text>
<text xml:space="preserve" x="82.2144" y="7.32612" fill="black" font-size="10.8403" font-family="Helvetica">6</text>
<text xml:space="preserve" x="65.308" y="14.6522" fill="black" font-size="16.0105" font-family="Helvetica">10</text>
<text xml:space="preserve" x="56.8548" y="14.6522" fill="black" font-size="16.0105" font-family="Times">&#0215;</text>
<g transform="rotate(-90,22.4784,21.9784)">
<text xml:space="preserve" x="22.4784" y="21.9784" fill="black" font-size="10.8403" font-family="Times">&#0947;</text>
</g>
<g transform="rotate(-90,18.5335,25.9232)">
<text xml:space="preserve" x="18.5335" y="25.9232" fill="black" font-size="7.39355" font-family="Helvetica">0</text>
</g>
<g transform="rotate(-90,22.4784,32.1222)">
<text xml:space="preserve" x="22.4784" y="32.1222" fill="black" font-size="10.8403" font-family="Times">&#0960;</text>
</g>
<g transform="rotate(-90,17.4064,45.0838)">
<text xml:space="preserve" x="17.4064" y="45.0838" fill="black" font-size="16.0105" font-family="Helvetica" font-style="oblique">N</text>
</g>
<path d="M553.256,498.064v -481.461" fill="none" stroke="black"/>
<path d="M538.459,498.064h 14.7969" fill="none" stroke="black"/>
<path d="M545.857,484.044h 7.39843" fill="none" stroke="black"/>
<path d="M545.857,470.025h 7.39843" fill="none" stroke="black"/>
<path d="M545.857,456.006h 7.39843" fill="none" stroke="black"/>
<path d="M545.857,441.986h 7.39843" fill="none" stroke="black"/>
<path d="M538.459,427.967h 14.7969" fill="none" stroke="black"/>
<path d="M545.857,413.948h 7.39843" fill="none" stroke="black"/>
<path d="M545.857,399.928h 7.39843" fill="none" stroke="black"/>
<path d="M545.857,385.909h 7.39843" fill="none" stroke="black"/>
<path d="M545.857,371.89h 7.39843" fill="none" stroke="black"/>
<path d="M538.459,357.87h 14.7969" fill="none" stroke="black"/>
<path d="M545.857,343.851h 7.39843" fill="none" stroke="black"/>
<path d="M545.857,329.832h 7.39843" fill="none" stroke="black"/>
<path d="M545.857,315.812h 7.39843" fill="none" stroke="black"/>
<path d="M545.857,301.793h 7.39843" fill="none" stroke="black"/>
<path d="M538.459,287.774h 14.7969" fill="none" stroke="black"/>
<path d="M545.857,273.754h 7.39843" fill="none" stroke="black"/>
<path d="M545.857,259.735h 7.39843" fill="none" stroke="black"/>
<path d="M545.857,245.716h 7.39843" fill="none" stroke="black"/>
<path d="M545.857,231.696h 7.39843" fill="none" stroke="black"/>
<path d="M538.459,217.677h 14.7969" fill="none" stroke="black"/>
<path d="M545.857,203.658h 7.39843" fill="none" stroke="black"/>
<path d="M545.857,189.638h 7.39843" fill="none" stroke="black"/>
<path d="M545.857,175.619h 7.39843" fill="none" stroke="black"/>
<path d="M545.857,161.6h 7.39843" fill="none" stroke="black"/>
<path d="M538.459,147.58h 14.7969" fill="none" stroke="black"/>
<path d="M545.857,133.561h 7.39843" fill="none" stroke="black"/>
<path d="M545.857,119.542h 7.39843" fill="none" stroke="black"/>
<path d="M545.857,105.522h 7.39843" fill="none" stroke="black"/>
<path d="M545.857,91.5032h 7.39843" fill="none" stroke="black"/>
<path d="M538.459,77.4838h 14.7969" fill="none" stroke="black"/>
<path d="M538.459,77.4838h 14.7969" fill="none" stroke="black"/>
<path d="M545.857,63.4645h 7.39843" fill="none" stroke="black"/>
<path d="M545.857,49.4452h 7.39843" fill="none" stroke="black"/>
<path d="M545.857,35.4259h 7.39843" fill="none" stroke="black"/>
<path d="M545.857,21.4065h 7.39843" fill="none" stroke="black"/>
<g stroke="#33cccc" stroke-width="2" fill="none">
<rect x="93.3053" y="489.358" width="11.271" height="11.271"/>
</g>
<g stroke="#33cccc" stroke-width="2" fill="none">
<rect x="98.2168" y="350.594" width="11.271" height="11.271"/>
</g>
<g stroke="#33cccc" stroke-width="2" fill="none">
<rect x="103.128" y="225.622" width="11.271" height="11.271"/>
</g>
<g stroke="#33cccc" stroke-width="2" fill="none">
<rect x="108.04" y="270.771" width="11.271" height="11.271"/>
</g>
<g stroke="#33cccc" stroke-width="2" fill="none">
<rect x="112.951" y="401.076" width="11.271" height="11.271"/>
</g>
<g stroke="#33cccc" stroke-width="2" fill="none">
<rect x="117.863" y="317.717" width="11.271" height="11.271"/>
</g>
<g stroke="#33cccc" stroke-width="2" fill="none">
<rect x="122.774" y="165.248" width="11.271" height="11.271"/>
</g>
<g stroke="#33cccc" stroke-width="2" fill="none">
<rect x="127.686" y="156.28" width="11.271" height="11.271"/>
</g>
<g stroke="#33cccc" stroke-width="2" fill="none">
<rect x="132.597" y="149.097" width="11.271" height="11.271"/>
</g>
<g stroke="#33cccc" stroke-width="2" fill="none">
<rect x="137.509" y="120.867" width="11.271" height="11.271"/>
</g>
<g stroke="#33cccc" stroke-width="2" fill="none">
<rect x="142.42" y="101.201" width="11.271" height="11.271"/>
</g>
<g stroke="#33cccc" stroke-width="2" fill="none">
<rect x="147.332" y="91.2957" width="11.271" height="11.271"/>
</g>
<g stroke="#33cccc" stroke-width="2" fill="none">
<rect x="152.243" y="87.0003" width="11.271" height="11.271"/>
</g>
<g stroke="#33cccc" stroke-width="2" fill="none">
<rect x="157.155" y="87.0359" width="11.271" height="11.271"/>
</g>
<g stroke="#33cccc" stroke-width="2" fill="none">
<rect x="162.067" y="88.4035" width="11.271" height="11.271"/>
</g>
<g stroke="#33cccc" stroke-width="2" fill="none">
<rect x="166.978" y="92.5268" width="11.271" height="11.271"/>
</g>
<g stroke="#33cccc" stroke-width="2" fill="none">
<rect x="171.89" y="97.0998" width="11.271" height="11.271"/>
</g>
<g stroke="#33cccc" stroke-width="2" fill="none">
<rect x="176.801" y="102.9" width="11.271" height="11.271"/>
</g>
<g stroke="#33cccc" stroke-width="2" fill="none">
<rect x="181.713" y="110.399" width="11.271" height="11.271"/>
</g>
<g stroke="#33cccc" stroke-width="2" fill="none">
<rect x="186.624" y="117.311" width="11.271" height="11.271"/>
</g>
<g stroke="#33cccc" stroke-width="2" fill="none">
<rect x="191.536" y="124.529" width="11.271" height="11.271"/>
</g>
<g stroke="#33cccc" stroke-width="2" fill="none">
<rect x="196.447" y="132.823" width="11.271" height="11.271"/>
</g>
<g stroke="#33cccc" stroke-width="2" fill="none">
<rect x="201.359" y="140.2" width="11.271" height="11.271"/>
</g>
<g stroke="#33cccc" stroke-width="2" fill="none">
<rect x="206.27" y="147.8" width="11.271" height="11.271"/>
</g>
<g stroke="#33cccc" stroke-width="2" fill="none">
<rect x="211.182" y="155.601" width="11.271" height="11.271"/>
</g>
<g stroke="#33cccc" stroke-width="2" fill="none">
<rect x="216.093" y="164.57" width="11.271" height="11.271"/>
</g>
<g stroke="#33cccc" stroke-width="2" fill="none">
<rect x="221.005" y="172.482" width="11.271" height="11.271"/>
</g>
<g stroke="#33cccc" stroke-width="2" fill="none">
<rect x="225.916" y="182.053" width="11.271" height="11.271"/>
</g>
<g stroke="#33cccc" stroke-width="2" fill="none">
<rect x="230.828" y="190.74" width="11.271" height="11.271"/>
</g>
<g stroke="#33cccc" stroke-width="2" fill="none">
<rect x="235.739" y="200.669" width="11.271" height="11.271"/>
</g>
<g stroke="#33cccc" stroke-width="2" fill="none">
<rect x="240.651" y="210.179" width="11.271" height="11.271"/>
</g>
<g stroke="#33cccc" stroke-width="2" fill="none">
<rect x="245.562" y="220.447" width="11.271" height="11.271"/>
</g>
<g stroke="#33cccc" stroke-width="2" fill="none">
<rect x="250.474" y="230.63" width="11.271" height="11.271"/>
</g>
<g stroke="#33cccc" stroke-width="2" fill="none">
<rect x="255.385" y="239.996" width="11.271" height="11.271"/>
</g>
<g stroke="#33cccc" stroke-width="2" fill="none">
<rect x="260.297" y="249.36" width="11.271" height="11.271"/>
</g>
<g stroke="#33cccc" stroke-width="2" fill="none">
<rect x="265.208" y="258.627" width="11.271" height="11.271"/>
</g>
<g stroke="#33cccc" stroke-width="2" fill="none">
<rect x="270.12" y="267.489" width="11.271" height="11.271"/>
</g>
<g stroke="#33cccc" stroke-width="2" fill="none">
<rect x="275.031" y="276.239" width="11.271" height="11.271"/>
</g>
<g stroke="#33cccc" stroke-width="2" fill="none">
<rect x="279.943" y="284.085" width="11.271" height="11.271"/>
</g>
<g stroke="#33cccc" stroke-width="2" fill="none">
<rect x="284.854" y="291.873" width="11.271" height="11.271"/>
</g>
<g stroke="#33cccc" stroke-width="2" fill="none">
<rect x="289.766" y="299.799" width="11.271" height="11.271"/>
</g>
<g stroke="#33cccc" stroke-width="2" fill="none">
<rect x="294.677" y="306.9" width="11.271" height="11.271"/>
</g>
<g stroke="#33cccc" stroke-width="2" fill="none">
<rect x="299.589" y="313.372" width="11.271" height="11.271"/>
</g>
<g stroke="#33cccc" stroke-width="2" fill="none">
<rect x="304.5" y="320.003" width="11.271" height="11.271"/>
</g>
<g stroke="#33cccc" stroke-width="2" fill="none">
<rect x="309.412" y="326.051" width="11.271" height="11.271"/>
</g>
<g stroke="#33cccc" stroke-width="2" fill="none">
<rect x="314.323" y="332.392" width="11.271" height="11.271"/>
</g>
<g stroke="#33cccc" stroke-width="2" fill="none">
<rect x="319.235" y="337.959" width="11.271" height="11.271"/>
</g>
<g stroke="#33cccc" stroke-width="2" fill="none">
<rect x="324.147" y="343.396" width="11.271" height="11.271"/>
</g>
<g stroke="#33cccc" stroke-width="2" fill="none">
<rect x="329.058" y="348.064" width="11.271" height="11.271"/>
</g>
<g stroke="#33cccc" stroke-width="2" fill="none">
<rect x="333.97" y="353.044" width="11.271" height="11.271"/>
</g>
<g stroke="#33cccc" stroke-width="2" fill="none">
<rect x="338.881" y="357.865" width="11.271" height="11.271"/>
</g>
<g stroke="#33cccc" stroke-width="2" fill="none">
<rect x="343.793" y="362.417" width="11.271" height="11.271"/>
</g>
<g stroke="#33cccc" stroke-width="2" fill="none">
<rect x="348.704" y="366.838" width="11.271" height="11.271"/>
</g>
<g stroke="#33cccc" stroke-width="2" fill="none">
<rect x="353.616" y="370.66" width="11.271" height="11.271"/>
</g>
<g stroke="#33cccc" stroke-width="2" fill="none">
<rect x="358.527" y="374.744" width="11.271" height="11.271"/>
</g>
<g stroke="#33cccc" stroke-width="2" fill="none">
<rect x="363.439" y="378.493" width="11.271" height="11.271"/>
</g>
<g stroke="#33cccc" stroke-width="2" fill="none">
<rect x="368.35" y="381.693" width="11.271" height="11.271"/>
</g>
<g stroke="#33cccc" stroke-width="2" fill="none">
<rect x="373.262" y="385.004" width="11.271" height="11.271"/>
</g>
<g stroke="#33cccc" stroke-width="2" fill="none">
<rect x="378.173" y="388.331" width="11.271" height="11.271"/>
</g>
<g stroke="#33cccc" stroke-width="2" fill="none">
<rect x="383.085" y="391.44" width="11.271" height="11.271"/>
</g>
<g stroke="#33cccc" stroke-width="2" fill="none">
<rect x="387.996" y="394.837" width="11.271" height="11.271"/>
</g>
<g stroke="#33cccc" stroke-width="2" fill="none">
<rect x="392.908" y="397.405" width="11.271" height="11.271"/>
</g>
<g stroke="#33cccc" stroke-width="2" fill="none">
<rect x="397.819" y="400.253" width="11.271" height="11.271"/>
</g>
<g stroke="#33cccc" stroke-width="2" fill="none">
<rect x="402.731" y="402.964" width="11.271" height="11.271"/>
</g>
<g stroke="#33cccc" stroke-width="2" fill="none">
<rect x="407.642" y="405.196" width="11.271" height="11.271"/>
</g>
<g stroke="#33cccc" stroke-width="2" fill="none">
<rect x="412.554" y="407.949" width="11.271" height="11.271"/>
</g>
<g stroke="#33cccc" stroke-width="2" fill="none">
<rect x="417.465" y="410.324" width="11.271" height="11.271"/>
</g>
<g stroke="#33cccc" stroke-width="2" fill="none">
<rect x="422.377" y="412.412" width="11.271" height="11.271"/>
</g>
<g stroke="#33cccc" stroke-width="2" fill="none">
<rect x="427.288" y="414.723" width="11.271" height="11.271"/>
</g>
<g stroke="#33cccc" stroke-width="2" fill="none">
<rect x="432.2" y="416.794" width="11.271" height="11.271"/>
</g>
<g stroke="#33cccc" stroke-width="2" fill="none">
<rect x="437.111" y="418.641" width="11.271" height="11.271"/>
</g>
<g stroke="#33cccc" stroke-width="2" fill="none">
<rect x="442.023" y="420.304" width="11.271" height="11.271"/>
</g>
<g stroke="#33cccc" stroke-width="2" fill="none">
<rect x="446.934" y="422.209" width="11.271" height="11.271"/>
</g>
<g stroke="#33cccc" stroke-width="2" fill="none">
<rect x="451.846" y="423.755" width="11.271" height="11.271"/>
</g>
<g stroke="#33cccc" stroke-width="2" fill="none">
<rect x="456.757" y="425.689" width="11.271" height="11.271"/>
</g>
<g stroke="#33cccc" stroke-width="2" fill="none">
<rect x="461.669" y="427.052" width="11.271" height="11.271"/>
</g>
<g stroke="#33cccc" stroke-width="2" fill="none">
<rect x="466.58" y="428.861" width="11.271" height="11.271"/>
</g>
<g stroke="#33cccc" stroke-width="2" fill="none">
<rect x="471.492" y="430.56" width="11.271" height="11.271"/>
</g>
<g stroke="#33cccc" stroke-width="2" fill="none">
<rect x="476.403" y="431.786" width="11.271" height="11.271"/>
</g>
<g stroke="#33cccc" stroke-width="2" fill="none">
<rect x="481.315" y="433.32" width="11.271" height="11.271"/>
</g>
<g stroke="#33cccc" stroke-width="2" fill="none">
<rect x="486.227" y="434.607" width="11.271" height="11.271"/>
</g>
<g stroke="#33cccc" stroke-width="2" fill="none">
<rect x="491.138" y="435.34" width="11.271" height="11.271"/>
</g>
<g stroke="#33cccc" stroke-width="2" fill="none">
<rect x="496.05" y="437.02" width="11.271" height="11.271"/>
</g>
<g stroke="#33cccc" stroke-width="2" fill="none">
<rect x="500.961" y="437.902" width="11.271" height="11.271"/>
</g>
<g stroke="#33cccc" stroke-width="2" fill="none">
<rect x="505.873" y="439.32" width="11.271" height="11.271"/>
</g>
<g stroke="#33cccc" stroke-width="2" fill="none">
<rect x="510.784" y="440.182" width="11.271" height="11.271"/>
</g>
<g stroke="#33cccc" stroke-width="2" fill="none">
<rect x="515.696" y="441.447" width="11.271" height="11.271"/>
</g>
<g stroke="#33cccc" stroke-width="2" fill="none">
<rect x="520.607" y="442.224" width="11.271" height="11.271"/>
</g>
<g stroke="#33cccc" stroke-width="2" fill="none">
<rect x="525.519" y="442.991" width="11.271" height="11.271"/>
</g>
<g stroke="#33cccc" stroke-width="2" fill="none">
<rect x="530.43" y="443.676" width="11.271" height="11.271"/>
</g>
<g stroke="#33cccc" stroke-width="2" fill="none">
<rect x="535.342" y="444.617" width="11.271" height="11.271"/>
</g>
<g stroke="#33cccc" stroke-width="2" fill="none">
<rect x="540.253" y="445.537" width="11.271" height="11.271"/>
</g>
<g stroke="#ff0066" stroke-width="2" fill="none">
<circle cx="98.9408" cy="494.246" r="5.63548"/>
</g>
<g stroke="#ff0066" stroke-width="2" fill="none">
<circle cx="103.852" cy="323.326" r="5.63548"/>
</g>
<g stroke="#ff0066" stroke-width="2" fill="none">
<circle cx="108.764" cy="172.311" r="5.63548"/>
</g>
<g stroke="#ff0066" stroke-width="2" fill="none">
<circle cx="113.675" cy="229.824" r="5.63548"/>
</g>
<g stroke="#ff0066" stroke-width="2" fill="none">
<circle cx="118.587" cy="388.473" r="5.63548"/>
</g>
<g stroke="#ff0066" stroke-width="2" fill="none">
<circle cx="123.498" cy="290.261" r="5.63548"/>
</g>
<g stroke="#ff0066" stroke-width="2" fill="none">
<circle cx="128.41" cy="112.177" r="5.63548"/>
</g>
<g stroke="#ff0066" stroke-width="2" fill="none">
<circle cx="133.321" cy="104.863" r="5.63548"/>
</g>
<g stroke="#ff0066" stroke-width="2" fill="none">
<circle cx="138.233" cy="99.7055" r="5.63548"/>
</g>
<g stroke="#ff0066" stroke-width="2" fill="none">
<circle cx="143.144" cy="70.3655" r="5.63548"/>
</g>
<g stroke="#ff0066" stroke-width="2" fill="none">
<circle cx="148.056" cy="51.2209" r="5.63548"/>
</g>
<g stroke="#ff0066" stroke-width="2" fill="none">
<circle cx="152.967" cy="43.3871" r="5.63548"/>
</g>
<g stroke="#ff0066" stroke-width="2" fill="none">
<circle cx="157.879" cy="41.9317" r="5.63548"/>
</g>
<g stroke="#ff0066" stroke-width="2" fill="none">
<circle cx="162.79" cy="45.2823" r="5.63548"/>
</g>
<g stroke="#ff0066" stroke-width="2" fill="none">
<circle cx="167.702" cy="50.0078" r="5.63548"/>
</g>
<g stroke="#ff0066" stroke-width="2" fill="none">
<circle cx="172.614" cy="57.6464" r="5.63548"/>
</g>
<g stroke="#ff0066" stroke-width="2" fill="none">
<circle cx="177.525" cy="65.6161" r="5.63548"/>
</g>
<g stroke="#ff0066" stroke-width="2" fill="none">
<circle cx="182.437" cy="74.756" r="5.63548"/>
</g>
<g stroke="#ff0066" stroke-width="2" fill="none">
<circle cx="187.348" cy="85.553" r="5.63548"/>
</g>
<g stroke="#ff0066" stroke-width="2" fill="none">
<circle cx="192.26" cy="95.5252" r="5.63548"/>
</g>
<g stroke="#ff0066" stroke-width="2" fill="none">
<circle cx="197.171" cy="105.644" r="5.63548"/>
</g>
<g stroke="#ff0066" stroke-width="2" fill="none">
<circle cx="202.083" cy="116.725" r="5.63548"/>
</g>
<g stroke="#ff0066" stroke-width="2" fill="none">
<circle cx="206.994" cy="126.652" r="5.63548"/>
</g>
<g stroke="#ff0066" stroke-width="2" fill="none">
<circle cx="211.906" cy="136.645" r="5.63548"/>
</g>
<g stroke="#ff0066" stroke-width="2" fill="none">
<circle cx="216.817" cy="146.681" r="5.63548"/>
</g>
<g stroke="#ff0066" stroke-width="2" fill="none">
<circle cx="221.729" cy="157.767" r="5.63548"/>
</g>
<g stroke="#ff0066" stroke-width="2" fill="none">
<circle cx="226.64" cy="167.594" r="5.63548"/>
</g>
<g stroke="#ff0066" stroke-width="2" fill="none">
<circle cx="231.552" cy="178.975" r="5.63548"/>
</g>
<g stroke="#ff0066" stroke-width="2" fill="none">
<circle cx="236.463" cy="189.292" r="5.63548"/>
</g>
<g stroke="#ff0066" stroke-width="2" fill="none">
<circle cx="241.375" cy="200.728" r="5.63548"/>
</g>
<g stroke="#ff0066" stroke-width="2" fill="none">
<circle cx="246.286" cy="211.59" r="5.63548"/>
</g>
<g stroke="#ff0066" stroke-width="2" fill="none">
<circle cx="251.198" cy="223.078" r="5.63548"/>
</g>
<g stroke="#ff0066" stroke-width="2" fill="none">
<circle cx="256.109" cy="234.343" r="5.63548"/>
</g>
<g stroke="#ff0066" stroke-width="2" fill="none">
<circle cx="261.021" cy="244.657" r="5.63548"/>
</g>
<g stroke="#ff0066" stroke-width="2" fill="none">
<circle cx="265.932" cy="254.851" r="5.63548"/>
</g>
<g stroke="#ff0066" stroke-width="2" fill="none">
<circle cx="270.844" cy="264.837" r="5.63548"/>
</g>
<g stroke="#ff0066" stroke-width="2" fill="none">
<circle cx="275.755" cy="274.316" r="5.63548"/>
</g>
<g stroke="#ff0066" stroke-width="2" fill="none">
<circle cx="280.667" cy="283.588" r="5.63548"/>
</g>
<g stroke="#ff0066" stroke-width="2" fill="none">
<circle cx="285.578" cy="291.875" r="5.63548"/>
</g>
<g stroke="#ff0066" stroke-width="2" fill="none">
<circle cx="290.49" cy="300.025" r="5.63548"/>
</g>
<g stroke="#ff0066" stroke-width="2" fill="none">
<circle cx="295.401" cy="308.236" r="5.63548"/>
</g>
<g stroke="#ff0066" stroke-width="2" fill="none">
<circle cx="300.313" cy="315.566" r="5.63548"/>
</g>
<g stroke="#ff0066" stroke-width="2" fill="none">
<circle cx="305.224" cy="322.217" r="5.63548"/>
</g>
<g stroke="#ff0066" stroke-width="2" fill="none">
<circle cx="310.136" cy="328.966" r="5.63548"/>
</g>
<g stroke="#ff0066" stroke-width="2" fill="none">
<circle cx="315.047" cy="335.094" r="5.63548"/>
</g>
<g stroke="#ff0066" stroke-width="2" fill="none">
<circle cx="319.959" cy="341.462" r="5.63548"/>
</g>
<g stroke="#ff0066" stroke-width="2" fill="none">
<circle cx="324.87" cy="347.03" r="5.63548"/>
</g>
<g stroke="#ff0066" stroke-width="2" fill="none">
<circle cx="329.782" cy="352.433" r="5.63548"/>
</g>
<g stroke="#ff0066" stroke-width="2" fill="none">
<circle cx="334.694" cy="357.05" r="5.63548"/>
</g>
<g stroke="#ff0066" stroke-width="2" fill="none">
<circle cx="339.605" cy="361.941" r="5.63548"/>
</g>
<g stroke="#ff0066" stroke-width="2" fill="none">
<circle cx="344.517" cy="366.648" r="5.63548"/>
</g>
<g stroke="#ff0066" stroke-width="2" fill="none">
<circle cx="349.428" cy="371.068" r="5.63548"/>
</g>
<g stroke="#ff0066" stroke-width="2" fill="none">
<circle cx="354.34" cy="375.337" r="5.63548"/>
</g>
<g stroke="#ff0066" stroke-width="2" fill="none">
<circle cx="359.251" cy="379.001" r="5.63548"/>
</g>
<g stroke="#ff0066" stroke-width="2" fill="none">
<circle cx="364.163" cy="382.905" r="5.63548"/>
</g>
<g stroke="#ff0066" stroke-width="2" fill="none">
<circle cx="369.074" cy="386.464" r="5.63548"/>
</g>
<g stroke="#ff0066" stroke-width="2" fill="none">
<circle cx="373.986" cy="389.472" r="5.63548"/>
</g>
<g stroke="#ff0066" stroke-width="2" fill="none">
<circle cx="378.897" cy="392.577" r="5.63548"/>
</g>
<g stroke="#ff0066" stroke-width="2" fill="none">
<circle cx="383.809" cy="395.686" r="5.63548"/>
</g>
<g stroke="#ff0066" stroke-width="2" fill="none">
<circle cx="388.72" cy="398.572" r="5.63548"/>
</g>
<g stroke="#ff0066" stroke-width="2" fill="none">
<circle cx="393.632" cy="401.736" r="5.63548"/>
</g>
<g stroke="#ff0066" stroke-width="2" fill="none">
<circle cx="398.543" cy="404.076" r="5.63548"/>
</g>
<g stroke="#ff0066" stroke-width="2" fill="none">
<circle cx="403.455" cy="406.687" r="5.63548"/>
</g>
<g stroke="#ff0066" stroke-width="2" fill="none">
<circle cx="408.366" cy="409.159" r="5.63548"/>
</g>
<g stroke="#ff0066" stroke-width="2" fill="none">
<circle cx="413.278" cy="411.15" r="5.63548"/>
</g>
<g stroke="#ff0066" stroke-width="2" fill="none">
<circle cx="418.189" cy="413.66" r="5.63548"/>
</g>
<g stroke="#ff0066" stroke-width="2" fill="none">
<circle cx="423.101" cy="415.791" r="5.63548"/>
</g>
<g stroke="#ff0066" stroke-width="2" fill="none">
<circle cx="428.012" cy="417.635" r="5.63548"/>
</g>
<g stroke="#ff0066" stroke-width="2" fill="none">
<circle cx="432.924" cy="419.702" r="5.63548"/>
</g>
<g stroke="#ff0066" stroke-width="2" fill="none">
<circle cx="437.835" cy="421.529" r="5.63548"/>
</g>
<g stroke="#ff0066" stroke-width="2" fill="none">
<circle cx="442.747" cy="423.131" r="5.63548"/>
</g>
<g stroke="#ff0066" stroke-width="2" fill="none">
<circle cx="447.658" cy="424.546" r="5.63548"/>
</g>
<g stroke="#ff0066" stroke-width="2" fill="none">
<circle cx="452.57" cy="426.21" r="5.63548"/>
</g>
<g stroke="#ff0066" stroke-width="2" fill="none">
<circle cx="457.481" cy="427.508" r="5.63548"/>
</g>
<g stroke="#ff0066" stroke-width="2" fill="none">
<circle cx="462.393" cy="429.208" r="5.63548"/>
</g>
<g stroke="#ff0066" stroke-width="2" fill="none">
<circle cx="467.304" cy="430.323" r="5.63548"/>
</g>
<g stroke="#ff0066" stroke-width="2" fill="none">
<circle cx="472.216" cy="431.904" r="5.63548"/>
</g>
<g stroke="#ff0066" stroke-width="2" fill="none">
<circle cx="477.127" cy="433.376" r="5.63548"/>
</g>
<g stroke="#ff0066" stroke-width="2" fill="none">
<circle cx="482.039" cy="434.358" r="5.63548"/>
</g>
<g stroke="#ff0066" stroke-width="2" fill="none">
<circle cx="486.95" cy="435.667" r="5.63548"/>
</g>
<g stroke="#ff0066" stroke-width="2" fill="none">
<circle cx="491.862" cy="436.722" r="5.63548"/>
</g>
<g stroke="#ff0066" stroke-width="2" fill="none">
<circle cx="496.773" cy="437.189" r="5.63548"/>
</g>
<g stroke="#ff0066" stroke-width="2" fill="none">
<circle cx="501.685" cy="438.671" r="5.63548"/>
</g>
<g stroke="#ff0066" stroke-width="2" fill="none">
<circle cx="506.597" cy="439.304" r="5.63548"/>
</g>
<g stroke="#ff0066" stroke-width="2" fill="none">
<circle cx="511.508" cy="440.52" r="5.63548"/>
</g>
<g stroke="#ff0066" stroke-width="2" fill="none">
<circle cx="516.42" cy="441.137" r="5.63548"/>
</g>
<g stroke="#ff0066" stroke-width="2" fill="none">
<circle cx="521.331" cy="442.199" r="5.63548"/>
</g>
<g stroke="#ff0066" stroke-width="2" fill="none">
<circle cx="526.243" cy="442.733" r="5.63548"/>
</g>
<g stroke="#ff0066" stroke-width="2" fill="none">
<circle cx="531.154" cy="443.256" r="5.63548"/>
</g>
<g stroke="#ff0066" stroke-width="2" fill="none">
<circle cx="536.066" cy="443.691" r="5.63548"/>
</g>
<g stroke="#ff0066" stroke-width="2" fill="none">
<circle cx="540.977" cy="444.415" r="5.63548"/>
</g>
<g stroke="#ff0066" stroke-width="2" fill="none">
<circle cx="545.889" cy="445.121" r="5.63548"/>
</g>
<text xml:space="preserve" x="360.607" y="50.7193" fill="black" font-size="16.0105" font-family="Helvetica"> with EMC</text>
<text xml:space="preserve" x="352.717" y="50.7193" fill="black" font-size="16.0105" font-family="Times">&#0947;</text>
<text xml:space="preserve" x="344.828" y="50.7193" fill="black" font-size="16.0105" font-family="Times">&#0947;</text>
<text xml:space="preserve" x="336.938" y="50.7193" fill="black" font-size="16.0105" font-family="Times">&#0947;</text>
<text xml:space="preserve" x="331.866" y="50.7193" fill="black" font-size="16.0105" font-family="Helvetica"> </text>
<text xml:space="preserve" x="316.65" y="50.7193" fill="black" font-size="16.0105" font-family="Times">&#8594;</text>
<text xml:space="preserve" x="311.578" y="50.7193" fill="black" font-size="16.0105" font-family="Helvetica"> </text>
<text xml:space="preserve" x="303.689" y="50.7193" fill="black" font-size="16.0105" font-family="Times">&#0947;</text>
<text xml:space="preserve" x="298.053" y="45.0838" fill="black" font-size="10.8403" font-family="Helvetica">0</text>
<text xml:space="preserve" x="289.6" y="50.7193" fill="black" font-size="16.0105" font-family="Times">&#0960;</text>
<text xml:space="preserve" x="284.528" y="50.7193" fill="black" font-size="16.0105" font-family="Helvetica"> </text>
<text xml:space="preserve" x="269.312" y="50.7193" fill="black" font-size="16.0105" font-family="Times">&#8594;</text>
<text xml:space="preserve" x="264.24" y="50.7193" fill="black" font-size="16.0105" font-family="Helvetica"> </text>
<text xml:space="preserve" x="252.969" y="50.7193" fill="black" font-size="16.0105" font-family="Times">&#0969;</text>
<text xml:space="preserve" x="128.989" y="50.7193" fill="black" font-size="16.0105" font-family="Helvetica"> = 13 TeV (EG1), </text>
<text xml:space="preserve" x="120.536" y="50.7193" fill="black" font-size="16.0105" font-family="Helvetica" font-style="oblique">s</text>
<path d="M114.9,41.7025l 1.69064, 9.58031" fill="none" stroke="black" stroke-width="2"/>
<path d="M116.591,51.2829l 2.25419, -14.0887" fill="none" stroke="black"/>
<path d="M118.845,37.1942h 10.1439" fill="none" stroke="black"/>
<text xml:space="preserve" x="89.5406" y="50.7193" fill="black" font-size="16.0105" font-family="Helvetica">pp </text>
<text xml:space="preserve" x="89.5406" y="85.6593" fill="black" font-size="16.0105" font-family="Helvetica">ALICE work in progress</text>
<text xml:space="preserve" x="205.068" y="120.599" fill="black" font-size="16.0105" font-family="Helvetica">) &lt; 8.0</text>
<text xml:space="preserve" x="196.051" y="120.599" fill="black" font-size="16.0105" font-family="Helvetica" font-style="oblique">c</text>
<text xml:space="preserve" x="145.895" y="120.599" fill="black" font-size="16.0105" font-family="Helvetica"> /(GeV/</text>
<text xml:space="preserve" x="139.133" y="128.489" fill="black" font-size="10.8403" font-family="Helvetica">T</text>
<text xml:space="preserve" x="129.552" y="120.599" fill="black" font-size="16.0105" font-family="Helvetica" font-style="oblique">p</text>
<text xml:space="preserve" x="124.481" y="120.599" fill="black" font-size="16.0105" font-family="Helvetica"> </text>
<text xml:space="preserve" x="116.027" y="120.599" fill="black" font-size="16.0105" font-family="Times">&#8804;</text>
<text xml:space="preserve" x="89.5406" y="120.599" fill="black" font-size="16.0105" font-family="Helvetica">6.0 </text>
<rect x="312.311" y="69.1755" width="198.425" height="113.448" fill="white"/>
<text xml:space="preserve" x="361.734" y="93.5489" fill="black" font-size="16.0105" font-family="Helvetica">same event</text>
<path d="M319.752,88.0835h 34.7244" fill="none" stroke="black" stroke-width="2"/>
<g fill="black">
<circle cx="337.114" cy="88.0835" r="6.76257"/>
</g>
<text xml:space="preserve" x="361.734" y="130.18" fill="black" font-size="16.0105" font-family="Helvetica">background pol1</text>
<path d="M319.752,125.899h 34.7244" fill="none" stroke="#33cccc" stroke-width="2"/>
<g stroke="#33cccc" stroke-width="2" fill="none">
<rect x="331.479" y="120.264" width="11.271" height="11.271"/>
</g>
<text xml:space="preserve" x="361.734" y="167.937" fill="black" font-size="16.0105" font-family="Helvetica">background pol2</text>
<path d="M319.752,163.715h 34.7244" fill="none" stroke="#ff0066" stroke-width="2"/>
<g stroke="#ff0066" stroke-width="2" fill="none">
<circle cx="337.114" cy="163.715" r="5.63548"/>
</g></svg>
