<?xml version="1.0" standalone="no"?>
<svg width="567.429" height="553.904" viewBox="0 0 567.429 553.904" xmlns="http://www.w3.org/2000/svg" shape-rendering="crispEdges">
<title>
Data/EG1/OmegaTGPSPlusPS/SignalAndBackgroundFit_07.svg
</title>
<desc>
Creator: ROOT Version 6.20/08
CreationDate: Mon Mar 29 18:49:59 2021</desc>
<defs>
</defs>
<rect x="0.5" y="0" width="566.929" height="553.404" fill="white"/>
<rect x="57.1929" y="16.6021" width="496.063" height="481.461" fill="white"/>
<rect x="57.1929" y="16.6021" width="496.063" height="481.461" fill="none" stroke="black"/>
<rect x="57.1929" y="16.6021" width="496.063" height="481.461" fill="white"/>
<rect x="57.1929" y="16.6021" width="496.063" height="481.461" fill="none" stroke="black"/>
<g fill="black">
<circle cx="98.9408" cy="497.954" r="6.76257"/>
</g>
<g fill="black">
<circle cx="103.852" cy="452.946" r="6.76257"/>
</g>
<g fill="black">
<circle cx="108.764" cy="307.552" r="6.76257"/>
</g>
<g fill="black">
<circle cx="113.675" cy="268.733" r="6.76257"/>
</g>
<g fill="black">
<circle cx="118.587" cy="415.156" r="6.76257"/>
</g>
<g fill="black">
<circle cx="123.498" cy="453.928" r="6.76257"/>
</g>
<g fill="black">
<circle cx="128.41" cy="268.915" r="6.76257"/>
</g>
<g fill="black">
<circle cx="133.321" cy="199.19" r="6.76257"/>
</g>
<g fill="black">
<circle cx="138.233" cy="198.625" r="6.76257"/>
</g>
<g fill="black">
<circle cx="143.144" cy="148.814" r="6.76257"/>
</g>
<g fill="black">
<circle cx="148.056" cy="107.005" r="6.76257"/>
</g>
<g fill="black">
<circle cx="152.967" cy="74.4837" r="6.76257"/>
</g>
<g fill="black">
<circle cx="157.879" cy="53.6026" r="6.76257"/>
</g>
<g fill="black">
<circle cx="162.79" cy="35.1677" r="6.76257"/>
</g>
<g fill="black">
<circle cx="167.702" cy="29.3973" r="6.76257"/>
</g>
<g fill="black">
<circle cx="172.614" cy="23.1408" r="6.76257"/>
</g>
<g fill="black">
<circle cx="177.525" cy="20.1563" r="6.76257"/>
</g>
<g fill="black">
<circle cx="182.437" cy="16.6021" r="6.76257"/>
</g>
<g fill="black">
<circle cx="187.348" cy="17.1039" r="6.76257"/>
</g>
<g fill="black">
<circle cx="192.26" cy="24.7716" r="6.76257"/>
</g>
<g fill="black">
<circle cx="197.171" cy="35.1834" r="6.76257"/>
</g>
<g fill="black">
<circle cx="202.083" cy="43.6142" r="6.76257"/>
</g>
<g fill="black">
<circle cx="206.994" cy="49.5048" r="6.76257"/>
</g>
<g fill="black">
<circle cx="211.906" cy="54.9773" r="6.76257"/>
</g>
<g fill="black">
<circle cx="216.817" cy="58.4583" r="6.76257"/>
</g>
<g fill="black">
<circle cx="221.729" cy="58.3433" r="6.76257"/>
</g>
<g fill="black">
<circle cx="226.64" cy="58.981" r="6.76257"/>
</g>
<g fill="black">
<circle cx="231.552" cy="58.0193" r="6.76257"/>
</g>
<g fill="black">
<circle cx="236.463" cy="64.8978" r="6.76257"/>
</g>
<g fill="black">
<circle cx="241.375" cy="65.2845" r="6.76257"/>
</g>
<g fill="black">
<circle cx="246.286" cy="71.9539" r="6.76257"/>
</g>
<g fill="black">
<circle cx="251.198" cy="80.0293" r="6.76257"/>
</g>
<g fill="black">
<circle cx="256.109" cy="85.0366" r="6.76257"/>
</g>
<g fill="black">
<circle cx="261.021" cy="91.2513" r="6.76257"/>
</g>
<g fill="black">
<circle cx="265.932" cy="99.7605" r="6.76257"/>
</g>
<g fill="black">
<circle cx="270.844" cy="104.553" r="6.76257"/>
</g>
<g fill="black">
<circle cx="275.755" cy="111.097" r="6.76257"/>
</g>
<g fill="black">
<circle cx="280.667" cy="115.436" r="6.76257"/>
</g>
<g fill="black">
<circle cx="285.578" cy="121.891" r="6.76257"/>
</g>
<g fill="black">
<circle cx="290.49" cy="125.158" r="6.76257"/>
</g>
<g fill="black">
<circle cx="295.401" cy="130.18" r="6.76257"/>
</g>
<g fill="black">
<circle cx="300.313" cy="140.995" r="6.76257"/>
</g>
<g fill="black">
<circle cx="305.224" cy="154.537" r="6.76257"/>
</g>
<g fill="black">
<circle cx="310.136" cy="167.871" r="6.76257"/>
</g>
<g fill="black">
<circle cx="315.047" cy="176.506" r="6.76257"/>
</g>
<g fill="black">
<circle cx="319.959" cy="183.787" r="6.76257"/>
</g>
<g fill="black">
<circle cx="324.87" cy="190.952" r="6.76257"/>
</g>
<g fill="black">
<circle cx="329.782" cy="203.152" r="6.76257"/>
</g>
<g fill="black">
<circle cx="334.694" cy="210.417" r="6.76257"/>
</g>
<g fill="black">
<circle cx="339.605" cy="219.606" r="6.76257"/>
</g>
<g fill="black">
<circle cx="344.517" cy="228.502" r="6.76257"/>
</g>
<g fill="black">
<circle cx="349.428" cy="236.624" r="6.76257"/>
</g>
<g fill="black">
<circle cx="354.34" cy="242.734" r="6.76257"/>
</g>
<g fill="black">
<circle cx="359.251" cy="249.372" r="6.76257"/>
</g>
<g fill="black">
<circle cx="364.163" cy="258.603" r="6.76257"/>
</g>
<g fill="black">
<circle cx="369.074" cy="264.64" r="6.76257"/>
</g>
<g fill="black">
<circle cx="373.986" cy="270.044" r="6.76257"/>
</g>
<g fill="black">
<circle cx="378.897" cy="277.414" r="6.76257"/>
</g>
<g fill="black">
<circle cx="383.809" cy="282.604" r="6.76257"/>
</g>
<g fill="black">
<circle cx="388.72" cy="288.333" r="6.76257"/>
</g>
<g fill="black">
<circle cx="393.632" cy="290.748" r="6.76257"/>
</g>
<g fill="black">
<circle cx="398.543" cy="299.45" r="6.76257"/>
</g>
<g fill="black">
<circle cx="403.455" cy="303.611" r="6.76257"/>
</g>
<g fill="black">
<circle cx="408.366" cy="306.752" r="6.76257"/>
</g>
<g fill="black">
<circle cx="413.278" cy="309.81" r="6.76257"/>
</g>
<g fill="black">
<circle cx="418.189" cy="317.117" r="6.76257"/>
</g>
<g fill="black">
<circle cx="423.101" cy="322.391" r="6.76257"/>
</g>
<g fill="black">
<circle cx="428.012" cy="327.105" r="6.76257"/>
</g>
<g fill="black">
<circle cx="432.924" cy="331.506" r="6.76257"/>
</g>
<g fill="black">
<circle cx="437.835" cy="334.585" r="6.76257"/>
</g>
<g fill="black">
<circle cx="442.747" cy="339.759" r="6.76257"/>
</g>
<g fill="black">
<circle cx="447.658" cy="342.802" r="6.76257"/>
</g>
<g fill="black">
<circle cx="452.57" cy="349.372" r="6.76257"/>
</g>
<g fill="black">
<circle cx="457.481" cy="350.736" r="6.76257"/>
</g>
<g fill="black">
<circle cx="462.393" cy="355.764" r="6.76257"/>
</g>
<g fill="black">
<circle cx="467.304" cy="359.595" r="6.76257"/>
</g>
<g fill="black">
<circle cx="472.216" cy="363.871" r="6.76257"/>
</g>
<g fill="black">
<circle cx="477.127" cy="364.759" r="6.76257"/>
</g>
<g fill="black">
<circle cx="482.039" cy="369.584" r="6.76257"/>
</g>
<g fill="black">
<circle cx="486.95" cy="371.951" r="6.76257"/>
</g>
<g fill="black">
<circle cx="491.862" cy="375.986" r="6.76257"/>
</g>
<g fill="black">
<circle cx="496.773" cy="378.025" r="6.76257"/>
</g>
<g fill="black">
<circle cx="501.685" cy="381.678" r="6.76257"/>
</g>
<g fill="black">
<circle cx="506.597" cy="382.682" r="6.76257"/>
</g>
<g fill="black">
<circle cx="511.508" cy="386.304" r="6.76257"/>
</g>
<g fill="black">
<circle cx="516.42" cy="387.684" r="6.76257"/>
</g>
<g fill="black">
<circle cx="521.331" cy="390.344" r="6.76257"/>
</g>
<g fill="black">
<circle cx="526.243" cy="394.144" r="6.76257"/>
</g>
<g fill="black">
<circle cx="531.154" cy="396.664" r="6.76257"/>
</g>
<g fill="black">
<circle cx="536.066" cy="397.746" r="6.76257"/>
</g>
<g fill="black">
<circle cx="540.977" cy="400.077" r="6.76257"/>
</g>
<g fill="black">
<circle cx="545.889" cy="400.547" r="6.76257"/>
</g>
<path d="M57.1929,498.064h 496.063" fill="none" stroke="black"/>
<path d="M57.1929,483.537v 14.5269" fill="none" stroke="black"/>
<path d="M72.5414,490.8v 7.26343" fill="none" stroke="black"/>
<path d="M87.8899,490.8v 7.26343" fill="none" stroke="black"/>
<path d="M103.238,490.8v 7.26343" fill="none" stroke="black"/>
<path d="M118.587,483.537v 14.5269" fill="none" stroke="black"/>
<path d="M133.935,490.8v 7.26343" fill="none" stroke="black"/>
<path d="M149.284,490.8v 7.26343" fill="none" stroke="black"/>
<path d="M164.632,490.8v 7.26343" fill="none" stroke="black"/>
<path d="M179.981,483.537v 14.5269" fill="none" stroke="black"/>
<path d="M195.329,490.8v 7.26343" fill="none" stroke="black"/>
<path d="M210.678,490.8v 7.26343" fill="none" stroke="black"/>
<path d="M226.026,490.8v 7.26343" fill="none" stroke="black"/>
<path d="M241.375,483.537v 14.5269" fill="none" stroke="black"/>
<path d="M256.723,490.8v 7.26343" fill="none" stroke="black"/>
<path d="M272.072,490.8v 7.26343" fill="none" stroke="black"/>
<path d="M287.42,490.8v 7.26343" fill="none" stroke="black"/>
<path d="M302.769,483.537v 14.5269" fill="none" stroke="black"/>
<path d="M318.117,490.8v 7.26343" fill="none" stroke="black"/>
<path d="M333.466,490.8v 7.26343" fill="none" stroke="black"/>
<path d="M348.814,490.8v 7.26343" fill="none" stroke="black"/>
<path d="M364.163,483.537v 14.5269" fill="none" stroke="black"/>
<path d="M379.511,490.8v 7.26343" fill="none" stroke="black"/>
<path d="M394.86,490.8v 7.26343" fill="none" stroke="black"/>
<path d="M410.208,490.8v 7.26343" fill="none" stroke="black"/>
<path d="M425.557,483.537v 14.5269" fill="none" stroke="black"/>
<path d="M440.905,490.8v 7.26343" fill="none" stroke="black"/>
<path d="M456.253,490.8v 7.26343" fill="none" stroke="black"/>
<path d="M471.602,490.8v 7.26343" fill="none" stroke="black"/>
<path d="M486.95,483.537v 14.5269" fill="none" stroke="black"/>
<path d="M502.299,490.8v 7.26343" fill="none" stroke="black"/>
<path d="M517.647,490.8v 7.26343" fill="none" stroke="black"/>
<path d="M532.996,490.8v 7.26343" fill="none" stroke="black"/>
<path d="M548.344,483.537v 14.5269" fill="none" stroke="black"/>
<path d="M548.344,483.537v 14.5269" fill="none" stroke="black"/>
<text xml:space="preserve" x="52.3464" y="513.956" fill="black" font-size="16.0105" font-family="Helvetica">0</text>
<text xml:space="preserve" x="107.574" y="513.956" fill="black" font-size="16.0105" font-family="Helvetica">0.2</text>
<text xml:space="preserve" x="169.001" y="513.956" fill="black" font-size="16.0105" font-family="Helvetica">0.4</text>
<text xml:space="preserve" x="230.428" y="513.956" fill="black" font-size="16.0105" font-family="Helvetica">0.6</text>
<text xml:space="preserve" x="291.854" y="513.956" fill="black" font-size="16.0105" font-family="Helvetica">0.8</text>
<text xml:space="preserve" x="361.171" y="513.956" fill="black" font-size="16.0105" font-family="Helvetica">1</text>
<text xml:space="preserve" x="414.708" y="513.956" fill="black" font-size="16.0105" font-family="Helvetica">1.2</text>
<text xml:space="preserve" x="476.134" y="513.956" fill="black" font-size="16.0105" font-family="Helvetica">1.4</text>
<text xml:space="preserve" x="537.561" y="513.956" fill="black" font-size="16.0105" font-family="Helvetica">1.6</text>
<text xml:space="preserve" x="548.268" y="537.625" fill="black" font-size="16.0105" font-family="Helvetica">)</text>
<text xml:space="preserve" x="542.633" y="532.553" fill="black" font-size="10.8403" font-family="Helvetica">2</text>
<text xml:space="preserve" x="533.616" y="537.625" fill="black" font-size="16.0105" font-family="Helvetica" font-style="oblique">c</text>
<text xml:space="preserve" x="487.405" y="537.625" fill="black" font-size="16.0105" font-family="Helvetica"> (GeV/</text>
<text xml:space="preserve" x="473.317" y="542.697" fill="black" font-size="10.8403" font-family="Helvetica">inv</text>
<text xml:space="preserve" x="459.792" y="537.625" fill="black" font-size="16.0105" font-family="Helvetica" font-style="oblique">m</text>
<path d="M57.1929,16.6021h 496.063" fill="none" stroke="black"/>
<path d="M57.1929,31.129v -14.5269" fill="none" stroke="black"/>
<path d="M72.5414,23.8655v -7.26343" fill="none" stroke="black"/>
<path d="M87.8899,23.8655v -7.26343" fill="none" stroke="black"/>
<path d="M103.238,23.8655v -7.26343" fill="none" stroke="black"/>
<path d="M118.587,31.129v -14.5269" fill="none" stroke="black"/>
<path d="M133.935,23.8655v -7.26343" fill="none" stroke="black"/>
<path d="M149.284,23.8655v -7.26343" fill="none" stroke="black"/>
<path d="M164.632,23.8655v -7.26343" fill="none" stroke="black"/>
<path d="M179.981,31.129v -14.5269" fill="none" stroke="black"/>
<path d="M195.329,23.8655v -7.26343" fill="none" stroke="black"/>
<path d="M210.678,23.8655v -7.26343" fill="none" stroke="black"/>
<path d="M226.026,23.8655v -7.26343" fill="none" stroke="black"/>
<path d="M241.375,31.129v -14.5269" fill="none" stroke="black"/>
<path d="M256.723,23.8655v -7.26343" fill="none" stroke="black"/>
<path d="M272.072,23.8655v -7.26343" fill="none" stroke="black"/>
<path d="M287.42,23.8655v -7.26343" fill="none" stroke="black"/>
<path d="M302.769,31.129v -14.5269" fill="none" stroke="black"/>
<path d="M318.117,23.8655v -7.26343" fill="none" stroke="black"/>
<path d="M333.466,23.8655v -7.26343" fill="none" stroke="black"/>
<path d="M348.814,23.8655v -7.26343" fill="none" stroke="black"/>
<path d="M364.163,31.129v -14.5269" fill="none" stroke="black"/>
<path d="M379.511,23.8655v -7.26343" fill="none" stroke="black"/>
<path d="M394.86,23.8655v -7.26343" fill="none" stroke="black"/>
<path d="M410.208,23.8655v -7.26343" fill="none" stroke="black"/>
<path d="M425.557,31.129v -14.5269" fill="none" stroke="black"/>
<path d="M440.905,23.8655v -7.26343" fill="none" stroke="black"/>
<path d="M456.253,23.8655v -7.26343" fill="none" stroke="black"/>
<path d="M471.602,23.8655v -7.26343" fill="none" stroke="black"/>
<path d="M486.95,31.129v -14.5269" fill="none" stroke="black"/>
<path d="M502.299,23.8655v -7.26343" fill="none" stroke="black"/>
<path d="M517.647,23.8655v -7.26343" fill="none" stroke="black"/>
<path d="M532.996,23.8655v -7.26343" fill="none" stroke="black"/>
<path d="M548.344,31.129v -14.5269" fill="none" stroke="black"/>
<path d="M548.344,31.129v -14.5269" fill="none" stroke="black"/>
<path d="M57.1929,498.064v -481.461" fill="none" stroke="black"/>
<path d="M71.9898,498.064h -14.7969" fill="none" stroke="black"/>
<path d="M64.5913,487.61h -7.39843" fill="none" stroke="black"/>
<path d="M64.5913,477.156h -7.39843" fill="none" stroke="black"/>
<path d="M64.5913,466.703h -7.39843" fill="none" stroke="black"/>
<path d="M64.5913,456.249h -7.39843" fill="none" stroke="black"/>
<path d="M71.9898,445.796h -14.7969" fill="none" stroke="black"/>
<path d="M64.5913,435.342h -7.39843" fill="none" stroke="black"/>
<path d="M64.5913,424.888h -7.39843" fill="none" stroke="black"/>
<path d="M64.5913,414.435h -7.39843" fill="none" stroke="black"/>
<path d="M64.5913,403.981h -7.39843" fill="none" stroke="black"/>
<path d="M71.9898,393.528h -14.7969" fill="none" stroke="black"/>
<path d="M64.5913,383.074h -7.39843" fill="none" stroke="black"/>
<path d="M64.5913,372.62h -7.39843" fill="none" stroke="black"/>
<path d="M64.5913,362.167h -7.39843" fill="none" stroke="black"/>
<path d="M64.5913,351.713h -7.39843" fill="none" stroke="black"/>
<path d="M71.9898,341.26h -14.7969" fill="none" stroke="black"/>
<path d="M64.5913,330.806h -7.39843" fill="none" stroke="black"/>
<path d="M64.5913,320.352h -7.39843" fill="none" stroke="black"/>
<path d="M64.5913,309.899h -7.39843" fill="none" stroke="black"/>
<path d="M64.5913,299.445h -7.39843" fill="none" stroke="black"/>
<path d="M71.9898,288.992h -14.7969" fill="none" stroke="black"/>
<path d="M64.5913,278.538h -7.39843" fill="none" stroke="black"/>
<path d="M64.5913,268.084h -7.39843" fill="none" stroke="black"/>
<path d="M64.5913,257.631h -7.39843" fill="none" stroke="black"/>
<path d="M64.5913,247.177h -7.39843" fill="none" stroke="black"/>
<path d="M71.9898,236.724h -14.7969" fill="none" stroke="black"/>
<path d="M64.5913,226.27h -7.39843" fill="none" stroke="black"/>
<path d="M64.5913,215.816h -7.39843" fill="none" stroke="black"/>
<path d="M64.5913,205.363h -7.39843" fill="none" stroke="black"/>
<path d="M64.5913,194.909h -7.39843" fill="none" stroke="black"/>
<path d="M71.9898,184.456h -14.7969" fill="none" stroke="black"/>
<path d="M64.5913,174.002h -7.39843" fill="none" stroke="black"/>
<path d="M64.5913,163.548h -7.39843" fill="none" stroke="black"/>
<path d="M64.5913,153.095h -7.39843" fill="none" stroke="black"/>
<path d="M64.5913,142.641h -7.39843" fill="none" stroke="black"/>
<path d="M71.9898,132.188h -14.7969" fill="none" stroke="black"/>
<path d="M64.5913,121.734h -7.39843" fill="none" stroke="black"/>
<path d="M64.5913,111.28h -7.39843" fill="none" stroke="black"/>
<path d="M64.5913,100.827h -7.39843" fill="none" stroke="black"/>
<path d="M64.5913,90.3732h -7.39843" fill="none" stroke="black"/>
<path d="M71.9898,79.9196h -14.7969" fill="none" stroke="black"/>
<path d="M64.5913,69.466h -7.39843" fill="none" stroke="black"/>
<path d="M64.5913,59.0124h -7.39843" fill="none" stroke="black"/>
<path d="M64.5913,48.5588h -7.39843" fill="none" stroke="black"/>
<path d="M64.5913,38.1052h -7.39843" fill="none" stroke="black"/>
<path d="M71.9898,27.6516h -14.7969" fill="none" stroke="black"/>
<path d="M71.9898,27.6516h -14.7969" fill="none" stroke="black"/>
<path d="M64.5913,17.198h -7.39843" fill="none" stroke="black"/>
<text xml:space="preserve" x="45.5838" y="503.248" fill="black" font-size="16.0105" font-family="Helvetica">0</text>
<text xml:space="preserve" x="37.1306" y="451.402" fill="black" font-size="16.0105" font-family="Helvetica">10</text>
<text xml:space="preserve" x="37.1306" y="398.992" fill="black" font-size="16.0105" font-family="Helvetica">20</text>
<text xml:space="preserve" x="37.1306" y="346.582" fill="black" font-size="16.0105" font-family="Helvetica">30</text>
<text xml:space="preserve" x="37.1306" y="294.172" fill="black" font-size="16.0105" font-family="Helvetica">40</text>
<text xml:space="preserve" x="37.1306" y="242.326" fill="black" font-size="16.0105" font-family="Helvetica">50</text>
<text xml:space="preserve" x="37.1306" y="189.916" fill="black" font-size="16.0105" font-family="Helvetica">60</text>
<text xml:space="preserve" x="37.1306" y="137.506" fill="black" font-size="16.0105" font-family="Helvetica">70</text>
<text xml:space="preserve" x="37.1306" y="85.0957" fill="black" font-size="16.0105" font-family="Helvetica">80</text>
<text xml:space="preserve" x="37.1306" y="33.2493" fill="black" font-size="16.0105" font-family="Helvetica">90</text>
<text xml:space="preserve" x="82.2144" y="7.32612" fill="black" font-size="10.8403" font-family="Helvetica">3</text>
<text xml:space="preserve" x="65.308" y="14.6522" fill="black" font-size="16.0105" font-family="Helvetica">10</text>
<text xml:space="preserve" x="56.8548" y="14.6522" fill="black" font-size="16.0105" font-family="Times">&#0215;</text>
<g transform="rotate(-90,22.4784,21.9784)">
<text xml:space="preserve" x="22.4784" y="21.9784" fill="black" font-size="10.8403" font-family="Times">&#0947;</text>
</g>
<g transform="rotate(-90,18.5335,25.9232)">
<text xml:space="preserve" x="18.5335" y="25.9232" fill="black" font-size="7.39355" font-family="Helvetica">0</text>
</g>
<g transform="rotate(-90,22.4784,32.1222)">
<text xml:space="preserve" x="22.4784" y="32.1222" fill="black" font-size="10.8403" font-family="Times">&#0960;</text>
</g>
<g transform="rotate(-90,17.4064,45.0838)">
<text xml:space="preserve" x="17.4064" y="45.0838" fill="black" font-size="16.0105" font-family="Helvetica" font-style="oblique">N</text>
</g>
<path d="M553.256,498.064v -481.461" fill="none" stroke="black"/>
<path d="M538.459,498.064h 14.7969" fill="none" stroke="black"/>
<path d="M545.857,487.61h 7.39843" fill="none" stroke="black"/>
<path d="M545.857,477.156h 7.39843" fill="none" stroke="black"/>
<path d="M545.857,466.703h 7.39843" fill="none" stroke="black"/>
<path d="M545.857,456.249h 7.39843" fill="none" stroke="black"/>
<path d="M538.459,445.796h 14.7969" fill="none" stroke="black"/>
<path d="M545.857,435.342h 7.39843" fill="none" stroke="black"/>
<path d="M545.857,424.888h 7.39843" fill="none" stroke="black"/>
<path d="M545.857,414.435h 7.39843" fill="none" stroke="black"/>
<path d="M545.857,403.981h 7.39843" fill="none" stroke="black"/>
<path d="M538.459,393.528h 14.7969" fill="none" stroke="black"/>
<path d="M545.857,383.074h 7.39843" fill="none" stroke="black"/>
<path d="M545.857,372.62h 7.39843" fill="none" stroke="black"/>
<path d="M545.857,362.167h 7.39843" fill="none" stroke="black"/>
<path d="M545.857,351.713h 7.39843" fill="none" stroke="black"/>
<path d="M538.459,341.26h 14.7969" fill="none" stroke="black"/>
<path d="M545.857,330.806h 7.39843" fill="none" stroke="black"/>
<path d="M545.857,320.352h 7.39843" fill="none" stroke="black"/>
<path d="M545.857,309.899h 7.39843" fill="none" stroke="black"/>
<path d="M545.857,299.445h 7.39843" fill="none" stroke="black"/>
<path d="M538.459,288.992h 14.7969" fill="none" stroke="black"/>
<path d="M545.857,278.538h 7.39843" fill="none" stroke="black"/>
<path d="M545.857,268.084h 7.39843" fill="none" stroke="black"/>
<path d="M545.857,257.631h 7.39843" fill="none" stroke="black"/>
<path d="M545.857,247.177h 7.39843" fill="none" stroke="black"/>
<path d="M538.459,236.724h 14.7969" fill="none" stroke="black"/>
<path d="M545.857,226.27h 7.39843" fill="none" stroke="black"/>
<path d="M545.857,215.816h 7.39843" fill="none" stroke="black"/>
<path d="M545.857,205.363h 7.39843" fill="none" stroke="black"/>
<path d="M545.857,194.909h 7.39843" fill="none" stroke="black"/>
<path d="M538.459,184.456h 14.7969" fill="none" stroke="black"/>
<path d="M545.857,174.002h 7.39843" fill="none" stroke="black"/>
<path d="M545.857,163.548h 7.39843" fill="none" stroke="black"/>
<path d="M545.857,153.095h 7.39843" fill="none" stroke="black"/>
<path d="M545.857,142.641h 7.39843" fill="none" stroke="black"/>
<path d="M538.459,132.188h 14.7969" fill="none" stroke="black"/>
<path d="M545.857,121.734h 7.39843" fill="none" stroke="black"/>
<path d="M545.857,111.28h 7.39843" fill="none" stroke="black"/>
<path d="M545.857,100.827h 7.39843" fill="none" stroke="black"/>
<path d="M545.857,90.3732h 7.39843" fill="none" stroke="black"/>
<path d="M538.459,79.9196h 14.7969" fill="none" stroke="black"/>
<path d="M545.857,69.466h 7.39843" fill="none" stroke="black"/>
<path d="M545.857,59.0124h 7.39843" fill="none" stroke="black"/>
<path d="M545.857,48.5588h 7.39843" fill="none" stroke="black"/>
<path d="M545.857,38.1052h 7.39843" fill="none" stroke="black"/>
<path d="M538.459,27.6516h 14.7969" fill="none" stroke="black"/>
<path d="M538.459,27.6516h 14.7969" fill="none" stroke="black"/>
<path d="M545.857,17.198h 7.39843" fill="none" stroke="black"/>
<g stroke="#33cccc" stroke-width="2" fill="none">
<rect x="93.3053" y="334.879" width="11.271" height="11.271"/>
</g>
<g stroke="#33cccc" stroke-width="2" fill="none">
<rect x="112.951" y="381.35" width="11.271" height="11.271"/>
</g>
<g stroke="#33cccc" stroke-width="2" fill="none">
<rect x="117.863" y="394.137" width="11.271" height="11.271"/>
</g>
<g stroke="#33cccc" stroke-width="2" fill="none">
<rect x="122.774" y="238.571" width="11.271" height="11.271"/>
</g>
<g stroke="#33cccc" stroke-width="2" fill="none">
<rect x="127.686" y="179.668" width="11.271" height="11.271"/>
</g>
<g stroke="#33cccc" stroke-width="2" fill="none">
<rect x="132.597" y="195.067" width="11.271" height="11.271"/>
</g>
<g stroke="#33cccc" stroke-width="2" fill="none">
<rect x="137.509" y="169.185" width="11.271" height="11.271"/>
</g>
<g stroke="#33cccc" stroke-width="2" fill="none">
<rect x="142.42" y="132.903" width="11.271" height="11.271"/>
</g>
<g stroke="#33cccc" stroke-width="2" fill="none">
<rect x="147.332" y="100.841" width="11.271" height="11.271"/>
</g>
<g stroke="#33cccc" stroke-width="2" fill="none">
<rect x="152.243" y="74.632" width="11.271" height="11.271"/>
</g>
<g stroke="#33cccc" stroke-width="2" fill="none">
<rect x="157.155" y="56.7404" width="11.271" height="11.271"/>
</g>
<g stroke="#33cccc" stroke-width="2" fill="none">
<rect x="162.067" y="39.9569" width="11.271" height="11.271"/>
</g>
<g stroke="#33cccc" stroke-width="2" fill="none">
<rect x="166.978" y="28.6771" width="11.271" height="11.271"/>
</g>
<g stroke="#33cccc" stroke-width="2" fill="none">
<rect x="171.89" y="20.3163" width="11.271" height="11.271"/>
</g>
<g stroke="#33cccc" stroke-width="2" fill="none">
<rect x="176.801" y="15.7147" width="11.271" height="11.271"/>
</g>
<g stroke="#33cccc" stroke-width="2" fill="none">
<rect x="181.713" y="11.76" width="11.271" height="11.271"/>
</g>
<g stroke="#33cccc" stroke-width="2" fill="none">
<rect x="186.624" y="13.6054" width="11.271" height="11.271"/>
</g>
<g stroke="#33cccc" stroke-width="2" fill="none">
<rect x="191.536" y="16.2093" width="11.271" height="11.271"/>
</g>
<g stroke="#33cccc" stroke-width="2" fill="none">
<rect x="196.447" y="19.5939" width="11.271" height="11.271"/>
</g>
<g stroke="#33cccc" stroke-width="2" fill="none">
<rect x="201.359" y="22.3732" width="11.271" height="11.271"/>
</g>
<g stroke="#33cccc" stroke-width="2" fill="none">
<rect x="206.27" y="25.3489" width="11.271" height="11.271"/>
</g>
<g stroke="#33cccc" stroke-width="2" fill="none">
<rect x="211.182" y="29.8701" width="11.271" height="11.271"/>
</g>
<g stroke="#33cccc" stroke-width="2" fill="none">
<rect x="216.093" y="34.0104" width="11.271" height="11.271"/>
</g>
<g stroke="#33cccc" stroke-width="2" fill="none">
<rect x="221.005" y="38.904" width="11.271" height="11.271"/>
</g>
<g stroke="#33cccc" stroke-width="2" fill="none">
<rect x="225.916" y="45.5708" width="11.271" height="11.271"/>
</g>
<g stroke="#33cccc" stroke-width="2" fill="none">
<rect x="230.828" y="51.4442" width="11.271" height="11.271"/>
</g>
<g stroke="#33cccc" stroke-width="2" fill="none">
<rect x="235.739" y="58.1488" width="11.271" height="11.271"/>
</g>
<g stroke="#33cccc" stroke-width="2" fill="none">
<rect x="240.651" y="64.9994" width="11.271" height="11.271"/>
</g>
<g stroke="#33cccc" stroke-width="2" fill="none">
<rect x="245.562" y="72.7925" width="11.271" height="11.271"/>
</g>
<g stroke="#33cccc" stroke-width="2" fill="none">
<rect x="250.474" y="79.8147" width="11.271" height="11.271"/>
</g>
<g stroke="#33cccc" stroke-width="2" fill="none">
<rect x="255.385" y="87.7935" width="11.271" height="11.271"/>
</g>
<g stroke="#33cccc" stroke-width="2" fill="none">
<rect x="260.297" y="94.5983" width="11.271" height="11.271"/>
</g>
<g stroke="#33cccc" stroke-width="2" fill="none">
<rect x="265.208" y="103.866" width="11.271" height="11.271"/>
</g>
<g stroke="#33cccc" stroke-width="2" fill="none">
<rect x="270.12" y="112.047" width="11.271" height="11.271"/>
</g>
<g stroke="#33cccc" stroke-width="2" fill="none">
<rect x="275.031" y="119.368" width="11.271" height="11.271"/>
</g>
<g stroke="#33cccc" stroke-width="2" fill="none">
<rect x="279.943" y="127.882" width="11.271" height="11.271"/>
</g>
<g stroke="#33cccc" stroke-width="2" fill="none">
<rect x="284.854" y="136.502" width="11.271" height="11.271"/>
</g>
<g stroke="#33cccc" stroke-width="2" fill="none">
<rect x="289.766" y="143.691" width="11.271" height="11.271"/>
</g>
<g stroke="#33cccc" stroke-width="2" fill="none">
<rect x="294.677" y="150.881" width="11.271" height="11.271"/>
</g>
<g stroke="#33cccc" stroke-width="2" fill="none">
<rect x="299.589" y="159.909" width="11.271" height="11.271"/>
</g>
<g stroke="#33cccc" stroke-width="2" fill="none">
<rect x="304.5" y="168.516" width="11.271" height="11.271"/>
</g>
<g stroke="#33cccc" stroke-width="2" fill="none">
<rect x="309.412" y="175.56" width="11.271" height="11.271"/>
</g>
<g stroke="#33cccc" stroke-width="2" fill="none">
<rect x="314.323" y="182.612" width="11.271" height="11.271"/>
</g>
<g stroke="#33cccc" stroke-width="2" fill="none">
<rect x="319.235" y="191.523" width="11.271" height="11.271"/>
</g>
<g stroke="#33cccc" stroke-width="2" fill="none">
<rect x="324.147" y="198.357" width="11.271" height="11.271"/>
</g>
<g stroke="#33cccc" stroke-width="2" fill="none">
<rect x="329.058" y="207.049" width="11.271" height="11.271"/>
</g>
<g stroke="#33cccc" stroke-width="2" fill="none">
<rect x="333.97" y="214.615" width="11.271" height="11.271"/>
</g>
<g stroke="#33cccc" stroke-width="2" fill="none">
<rect x="338.881" y="221.012" width="11.271" height="11.271"/>
</g>
<g stroke="#33cccc" stroke-width="2" fill="none">
<rect x="343.793" y="230.423" width="11.271" height="11.271"/>
</g>
<g stroke="#33cccc" stroke-width="2" fill="none">
<rect x="348.704" y="236.646" width="11.271" height="11.271"/>
</g>
<g stroke="#33cccc" stroke-width="2" fill="none">
<rect x="353.616" y="243.103" width="11.271" height="11.271"/>
</g>
<g stroke="#33cccc" stroke-width="2" fill="none">
<rect x="358.527" y="249.696" width="11.271" height="11.271"/>
</g>
<g stroke="#33cccc" stroke-width="2" fill="none">
<rect x="363.439" y="257.553" width="11.271" height="11.271"/>
</g>
<g stroke="#33cccc" stroke-width="2" fill="none">
<rect x="368.35" y="263.285" width="11.271" height="11.271"/>
</g>
<g stroke="#33cccc" stroke-width="2" fill="none">
<rect x="373.262" y="268.583" width="11.271" height="11.271"/>
</g>
<g stroke="#33cccc" stroke-width="2" fill="none">
<rect x="378.173" y="275.141" width="11.271" height="11.271"/>
</g>
<g stroke="#33cccc" stroke-width="2" fill="none">
<rect x="383.085" y="281.025" width="11.271" height="11.271"/>
</g>
<g stroke="#33cccc" stroke-width="2" fill="none">
<rect x="387.996" y="286.946" width="11.271" height="11.271"/>
</g>
<g stroke="#33cccc" stroke-width="2" fill="none">
<rect x="392.908" y="293.374" width="11.271" height="11.271"/>
</g>
<g stroke="#33cccc" stroke-width="2" fill="none">
<rect x="397.819" y="298.7" width="11.271" height="11.271"/>
</g>
<g stroke="#33cccc" stroke-width="2" fill="none">
<rect x="402.731" y="302.416" width="11.271" height="11.271"/>
</g>
<g stroke="#33cccc" stroke-width="2" fill="none">
<rect x="407.642" y="307.441" width="11.271" height="11.271"/>
</g>
<g stroke="#33cccc" stroke-width="2" fill="none">
<rect x="412.554" y="313.188" width="11.271" height="11.271"/>
</g>
<g stroke="#33cccc" stroke-width="2" fill="none">
<rect x="417.465" y="318.347" width="11.271" height="11.271"/>
</g>
<g stroke="#33cccc" stroke-width="2" fill="none">
<rect x="422.377" y="322.718" width="11.271" height="11.271"/>
</g>
<g stroke="#33cccc" stroke-width="2" fill="none">
<rect x="427.288" y="326.387" width="11.271" height="11.271"/>
</g>
<g stroke="#33cccc" stroke-width="2" fill="none">
<rect x="432.2" y="330.884" width="11.271" height="11.271"/>
</g>
<g stroke="#33cccc" stroke-width="2" fill="none">
<rect x="437.111" y="334.625" width="11.271" height="11.271"/>
</g>
<g stroke="#33cccc" stroke-width="2" fill="none">
<rect x="442.023" y="338.472" width="11.271" height="11.271"/>
</g>
<g stroke="#33cccc" stroke-width="2" fill="none">
<rect x="446.934" y="343.706" width="11.271" height="11.271"/>
</g>
<g stroke="#33cccc" stroke-width="2" fill="none">
<rect x="451.846" y="346.849" width="11.271" height="11.271"/>
</g>
<g stroke="#33cccc" stroke-width="2" fill="none">
<rect x="456.757" y="350.724" width="11.271" height="11.271"/>
</g>
<g stroke="#33cccc" stroke-width="2" fill="none">
<rect x="461.669" y="354.692" width="11.271" height="11.271"/>
</g>
<g stroke="#33cccc" stroke-width="2" fill="none">
<rect x="466.58" y="357.578" width="11.271" height="11.271"/>
</g>
<g stroke="#33cccc" stroke-width="2" fill="none">
<rect x="471.492" y="361.816" width="11.271" height="11.271"/>
</g>
<g stroke="#33cccc" stroke-width="2" fill="none">
<rect x="476.403" y="364.789" width="11.271" height="11.271"/>
</g>
<g stroke="#33cccc" stroke-width="2" fill="none">
<rect x="481.315" y="367.555" width="11.271" height="11.271"/>
</g>
<g stroke="#33cccc" stroke-width="2" fill="none">
<rect x="486.227" y="370.178" width="11.271" height="11.271"/>
</g>
<g stroke="#33cccc" stroke-width="2" fill="none">
<rect x="491.138" y="373.406" width="11.271" height="11.271"/>
</g>
<g stroke="#33cccc" stroke-width="2" fill="none">
<rect x="496.05" y="376.797" width="11.271" height="11.271"/>
</g>
<g stroke="#33cccc" stroke-width="2" fill="none">
<rect x="500.961" y="379.551" width="11.271" height="11.271"/>
</g>
<g stroke="#33cccc" stroke-width="2" fill="none">
<rect x="505.873" y="381.883" width="11.271" height="11.271"/>
</g>
<g stroke="#33cccc" stroke-width="2" fill="none">
<rect x="510.784" y="384.927" width="11.271" height="11.271"/>
</g>
<g stroke="#33cccc" stroke-width="2" fill="none">
<rect x="515.696" y="386.842" width="11.271" height="11.271"/>
</g>
<g stroke="#33cccc" stroke-width="2" fill="none">
<rect x="520.607" y="388.292" width="11.271" height="11.271"/>
</g>
<g stroke="#33cccc" stroke-width="2" fill="none">
<rect x="525.519" y="392.104" width="11.271" height="11.271"/>
</g>
<g stroke="#33cccc" stroke-width="2" fill="none">
<rect x="530.43" y="393.877" width="11.271" height="11.271"/>
</g>
<g stroke="#33cccc" stroke-width="2" fill="none">
<rect x="535.342" y="395.788" width="11.271" height="11.271"/>
</g>
<g stroke="#33cccc" stroke-width="2" fill="none">
<rect x="540.253" y="398.194" width="11.271" height="11.271"/>
</g>
<g stroke="#ff0066" stroke-width="2" fill="none">
<circle cx="98.9408" cy="340.514" r="5.63548"/>
</g>
<g stroke="#ff0066" stroke-width="2" fill="none">
<circle cx="118.587" cy="383.195" r="5.63548"/>
</g>
<g stroke="#ff0066" stroke-width="2" fill="none">
<circle cx="123.498" cy="396.609" r="5.63548"/>
</g>
<g stroke="#ff0066" stroke-width="2" fill="none">
<circle cx="128.41" cy="236.517" r="5.63548"/>
</g>
<g stroke="#ff0066" stroke-width="2" fill="none">
<circle cx="133.321" cy="176.4" r="5.63548"/>
</g>
<g stroke="#ff0066" stroke-width="2" fill="none">
<circle cx="138.233" cy="192.762" r="5.63548"/>
</g>
<g stroke="#ff0066" stroke-width="2" fill="none">
<circle cx="143.144" cy="166.74" r="5.63548"/>
</g>
<g stroke="#ff0066" stroke-width="2" fill="none">
<circle cx="148.056" cy="130.144" r="5.63548"/>
</g>
<g stroke="#ff0066" stroke-width="2" fill="none">
<circle cx="152.967" cy="97.9556" r="5.63548"/>
</g>
<g stroke="#ff0066" stroke-width="2" fill="none">
<circle cx="157.879" cy="71.8163" r="5.63548"/>
</g>
<g stroke="#ff0066" stroke-width="2" fill="none">
<circle cx="162.79" cy="54.2062" r="5.63548"/>
</g>
<g stroke="#ff0066" stroke-width="2" fill="none">
<circle cx="167.702" cy="37.7514" r="5.63548"/>
</g>
<g stroke="#ff0066" stroke-width="2" fill="none">
<circle cx="172.614" cy="26.9102" r="5.63548"/>
</g>
<g stroke="#ff0066" stroke-width="2" fill="none">
<circle cx="177.525" cy="19.0362" r="5.63548"/>
</g>
<g stroke="#ff0066" stroke-width="2" fill="none">
<circle cx="197.171" cy="17.1227" r="5.63548"/>
</g>
<g stroke="#ff0066" stroke-width="2" fill="none">
<circle cx="202.083" cy="21.0401" r="5.63548"/>
</g>
<g stroke="#ff0066" stroke-width="2" fill="none">
<circle cx="206.994" cy="24.3171" r="5.63548"/>
</g>
<g stroke="#ff0066" stroke-width="2" fill="none">
<circle cx="211.906" cy="27.7633" r="5.63548"/>
</g>
<g stroke="#ff0066" stroke-width="2" fill="none">
<circle cx="216.817" cy="32.7361" r="5.63548"/>
</g>
<g stroke="#ff0066" stroke-width="2" fill="none">
<circle cx="221.729" cy="37.2961" r="5.63548"/>
</g>
<g stroke="#ff0066" stroke-width="2" fill="none">
<circle cx="226.64" cy="42.5841" r="5.63548"/>
</g>
<g stroke="#ff0066" stroke-width="2" fill="none">
<circle cx="231.552" cy="49.6227" r="5.63548"/>
</g>
<g stroke="#ff0066" stroke-width="2" fill="none">
<circle cx="236.463" cy="55.8353" r="5.63548"/>
</g>
<g stroke="#ff0066" stroke-width="2" fill="none">
<circle cx="241.375" cy="62.8527" r="5.63548"/>
</g>
<g stroke="#ff0066" stroke-width="2" fill="none">
<circle cx="246.286" cy="69.988" r="5.63548"/>
</g>
<g stroke="#ff0066" stroke-width="2" fill="none">
<circle cx="251.198" cy="78.0395" r="5.63548"/>
</g>
<g stroke="#ff0066" stroke-width="2" fill="none">
<circle cx="256.109" cy="85.2927" r="5.63548"/>
</g>
<g stroke="#ff0066" stroke-width="2" fill="none">
<circle cx="261.021" cy="93.4773" r="5.63548"/>
</g>
<g stroke="#ff0066" stroke-width="2" fill="none">
<circle cx="265.932" cy="100.464" r="5.63548"/>
</g>
<g stroke="#ff0066" stroke-width="2" fill="none">
<circle cx="270.844" cy="109.888" r="5.63548"/>
</g>
<g stroke="#ff0066" stroke-width="2" fill="none">
<circle cx="275.755" cy="118.203" r="5.63548"/>
</g>
<g stroke="#ff0066" stroke-width="2" fill="none">
<circle cx="280.667" cy="125.639" r="5.63548"/>
</g>
<g stroke="#ff0066" stroke-width="2" fill="none">
<circle cx="285.578" cy="134.246" r="5.63548"/>
</g>
<g stroke="#ff0066" stroke-width="2" fill="none">
<circle cx="290.49" cy="142.938" r="5.63548"/>
</g>
<g stroke="#ff0066" stroke-width="2" fill="none">
<circle cx="295.401" cy="150.186" r="5.63548"/>
</g>
<g stroke="#ff0066" stroke-width="2" fill="none">
<circle cx="300.313" cy="157.417" r="5.63548"/>
</g>
<g stroke="#ff0066" stroke-width="2" fill="none">
<circle cx="305.224" cy="166.467" r="5.63548"/>
</g>
<g stroke="#ff0066" stroke-width="2" fill="none">
<circle cx="310.136" cy="175.082" r="5.63548"/>
</g>
<g stroke="#ff0066" stroke-width="2" fill="none">
<circle cx="315.047" cy="182.125" r="5.63548"/>
</g>
<g stroke="#ff0066" stroke-width="2" fill="none">
<circle cx="319.959" cy="189.164" r="5.63548"/>
</g>
<g stroke="#ff0066" stroke-width="2" fill="none">
<circle cx="324.87" cy="198.044" r="5.63548"/>
</g>
<g stroke="#ff0066" stroke-width="2" fill="none">
<circle cx="329.782" cy="204.843" r="5.63548"/>
</g>
<g stroke="#ff0066" stroke-width="2" fill="none">
<circle cx="334.694" cy="213.485" r="5.63548"/>
</g>
<g stroke="#ff0066" stroke-width="2" fill="none">
<circle cx="339.605" cy="220.996" r="5.63548"/>
</g>
<g stroke="#ff0066" stroke-width="2" fill="none">
<circle cx="344.517" cy="227.334" r="5.63548"/>
</g>
<g stroke="#ff0066" stroke-width="2" fill="none">
<circle cx="349.428" cy="236.67" r="5.63548"/>
</g>
<g stroke="#ff0066" stroke-width="2" fill="none">
<circle cx="354.34" cy="242.821" r="5.63548"/>
</g>
<g stroke="#ff0066" stroke-width="2" fill="none">
<circle cx="359.251" cy="249.2" r="5.63548"/>
</g>
<g stroke="#ff0066" stroke-width="2" fill="none">
<circle cx="364.163" cy="255.709" r="5.63548"/>
</g>
<g stroke="#ff0066" stroke-width="2" fill="none">
<circle cx="369.074" cy="263.478" r="5.63548"/>
</g>
<g stroke="#ff0066" stroke-width="2" fill="none">
<circle cx="373.986" cy="269.121" r="5.63548"/>
</g>
<g stroke="#ff0066" stroke-width="2" fill="none">
<circle cx="378.897" cy="274.326" r="5.63548"/>
</g>
<g stroke="#ff0066" stroke-width="2" fill="none">
<circle cx="383.809" cy="280.789" r="5.63548"/>
</g>
<g stroke="#ff0066" stroke-width="2" fill="none">
<circle cx="388.72" cy="286.577" r="5.63548"/>
</g>
<g stroke="#ff0066" stroke-width="2" fill="none">
<circle cx="393.632" cy="292.4" r="5.63548"/>
</g>
<g stroke="#ff0066" stroke-width="2" fill="none">
<circle cx="398.543" cy="298.731" r="5.63548"/>
</g>
<g stroke="#ff0066" stroke-width="2" fill="none">
<circle cx="403.455" cy="303.958" r="5.63548"/>
</g>
<g stroke="#ff0066" stroke-width="2" fill="none">
<circle cx="408.366" cy="307.571" r="5.63548"/>
</g>
<g stroke="#ff0066" stroke-width="2" fill="none">
<circle cx="413.278" cy="312.497" r="5.63548"/>
</g>
<g stroke="#ff0066" stroke-width="2" fill="none">
<circle cx="418.189" cy="318.147" r="5.63548"/>
</g>
<g stroke="#ff0066" stroke-width="2" fill="none">
<circle cx="423.101" cy="323.209" r="5.63548"/>
</g>
<g stroke="#ff0066" stroke-width="2" fill="none">
<circle cx="428.012" cy="327.482" r="5.63548"/>
</g>
<g stroke="#ff0066" stroke-width="2" fill="none">
<circle cx="432.924" cy="331.049" r="5.63548"/>
</g>
<g stroke="#ff0066" stroke-width="2" fill="none">
<circle cx="437.835" cy="335.45" r="5.63548"/>
</g>
<g stroke="#ff0066" stroke-width="2" fill="none">
<circle cx="442.747" cy="339.093" r="5.63548"/>
</g>
<g stroke="#ff0066" stroke-width="2" fill="none">
<circle cx="447.658" cy="342.844" r="5.63548"/>
</g>
<g stroke="#ff0066" stroke-width="2" fill="none">
<circle cx="452.57" cy="347.996" r="5.63548"/>
</g>
<g stroke="#ff0066" stroke-width="2" fill="none">
<circle cx="457.481" cy="351.042" r="5.63548"/>
</g>
<g stroke="#ff0066" stroke-width="2" fill="none">
<circle cx="462.393" cy="354.83" r="5.63548"/>
</g>
<g stroke="#ff0066" stroke-width="2" fill="none">
<circle cx="467.304" cy="358.714" r="5.63548"/>
</g>
<g stroke="#ff0066" stroke-width="2" fill="none">
<circle cx="472.216" cy="361.506" r="5.63548"/>
</g>
<g stroke="#ff0066" stroke-width="2" fill="none">
<circle cx="477.127" cy="365.672" r="5.63548"/>
</g>
<g stroke="#ff0066" stroke-width="2" fill="none">
<circle cx="482.039" cy="368.558" r="5.63548"/>
</g>
<g stroke="#ff0066" stroke-width="2" fill="none">
<circle cx="486.95" cy="371.237" r="5.63548"/>
</g>
<g stroke="#ff0066" stroke-width="2" fill="none">
<circle cx="491.862" cy="373.773" r="5.63548"/>
</g>
<g stroke="#ff0066" stroke-width="2" fill="none">
<circle cx="496.773" cy="376.928" r="5.63548"/>
</g>
<g stroke="#ff0066" stroke-width="2" fill="none">
<circle cx="501.685" cy="380.252" r="5.63548"/>
</g>
<g stroke="#ff0066" stroke-width="2" fill="none">
<circle cx="506.597" cy="382.931" r="5.63548"/>
</g>
<g stroke="#ff0066" stroke-width="2" fill="none">
<circle cx="511.508" cy="385.184" r="5.63548"/>
</g>
<g stroke="#ff0066" stroke-width="2" fill="none">
<circle cx="516.42" cy="388.167" r="5.63548"/>
</g>
<g stroke="#ff0066" stroke-width="2" fill="none">
<circle cx="521.331" cy="389.998" r="5.63548"/>
</g>
<g stroke="#ff0066" stroke-width="2" fill="none">
<circle cx="526.243" cy="391.356" r="5.63548"/>
</g>
<g stroke="#ff0066" stroke-width="2" fill="none">
<circle cx="531.154" cy="395.138" r="5.63548"/>
</g>
<g stroke="#ff0066" stroke-width="2" fill="none">
<circle cx="536.066" cy="396.832" r="5.63548"/>
</g>
<g stroke="#ff0066" stroke-width="2" fill="none">
<circle cx="540.977" cy="398.671" r="5.63548"/>
</g>
<g stroke="#ff0066" stroke-width="2" fill="none">
<circle cx="545.889" cy="401.022" r="5.63548"/>
</g>
<text xml:space="preserve" x="360.607" y="50.7193" fill="black" font-size="16.0105" font-family="Helvetica"> with EMC</text>
<text xml:space="preserve" x="352.717" y="50.7193" fill="black" font-size="16.0105" font-family="Times">&#0947;</text>
<text xml:space="preserve" x="344.828" y="50.7193" fill="black" font-size="16.0105" font-family="Times">&#0947;</text>
<text xml:space="preserve" x="336.938" y="50.7193" fill="black" font-size="16.0105" font-family="Times">&#0947;</text>
<text xml:space="preserve" x="331.866" y="50.7193" fill="black" font-size="16.0105" font-family="Helvetica"> </text>
<text xml:space="preserve" x="316.65" y="50.7193" fill="black" font-size="16.0105" font-family="Times">&#8594;</text>
<text xml:space="preserve" x="311.578" y="50.7193" fill="black" font-size="16.0105" font-family="Helvetica"> </text>
<text xml:space="preserve" x="303.689" y="50.7193" fill="black" font-size="16.0105" font-family="Times">&#0947;</text>
<text xml:space="preserve" x="298.053" y="45.0838" fill="black" font-size="10.8403" font-family="Helvetica">0</text>
<text xml:space="preserve" x="289.6" y="50.7193" fill="black" font-size="16.0105" font-family="Times">&#0960;</text>
<text xml:space="preserve" x="284.528" y="50.7193" fill="black" font-size="16.0105" font-family="Helvetica"> </text>
<text xml:space="preserve" x="269.312" y="50.7193" fill="black" font-size="16.0105" font-family="Times">&#8594;</text>
<text xml:space="preserve" x="264.24" y="50.7193" fill="black" font-size="16.0105" font-family="Helvetica"> </text>
<text xml:space="preserve" x="252.969" y="50.7193" fill="black" font-size="16.0105" font-family="Times">&#0969;</text>
<text xml:space="preserve" x="128.989" y="50.7193" fill="black" font-size="16.0105" font-family="Helvetica"> = 13 TeV (EG1), </text>
<text xml:space="preserve" x="120.536" y="50.7193" fill="black" font-size="16.0105" font-family="Helvetica" font-style="oblique">s</text>
<path d="M114.9,41.7025l 1.69064, 9.58031" fill="none" stroke="black" stroke-width="2"/>
<path d="M116.591,51.2829l 2.25419, -14.0887" fill="none" stroke="black"/>
<path d="M118.845,37.1942h 10.1439" fill="none" stroke="black"/>
<text xml:space="preserve" x="89.5406" y="50.7193" fill="black" font-size="16.0105" font-family="Helvetica">pp </text>
<text xml:space="preserve" x="89.5406" y="85.6593" fill="black" font-size="16.0105" font-family="Helvetica">ALICE work in progress</text>
<text xml:space="preserve" x="214.085" y="120.599" fill="black" font-size="16.0105" font-family="Helvetica">) &lt; 16.0</text>
<text xml:space="preserve" x="205.068" y="120.599" fill="black" font-size="16.0105" font-family="Helvetica" font-style="oblique">c</text>
<text xml:space="preserve" x="154.912" y="120.599" fill="black" font-size="16.0105" font-family="Helvetica"> /(GeV/</text>
<text xml:space="preserve" x="148.15" y="128.489" fill="black" font-size="10.8403" font-family="Helvetica">T</text>
<text xml:space="preserve" x="138.569" y="120.599" fill="black" font-size="16.0105" font-family="Helvetica" font-style="oblique">p</text>
<text xml:space="preserve" x="133.497" y="120.599" fill="black" font-size="16.0105" font-family="Helvetica"> </text>
<text xml:space="preserve" x="125.044" y="120.599" fill="black" font-size="16.0105" font-family="Times">&#8804;</text>
<text xml:space="preserve" x="89.5406" y="120.599" fill="black" font-size="16.0105" font-family="Helvetica">14.0 </text>
<rect x="312.311" y="69.1755" width="198.425" height="113.448" fill="white"/>
<text xml:space="preserve" x="361.734" y="93.5489" fill="black" font-size="16.0105" font-family="Helvetica">same event</text>
<path d="M319.752,88.0835h 34.7244" fill="none" stroke="black" stroke-width="2"/>
<g fill="black">
<circle cx="337.114" cy="88.0835" r="6.76257"/>
</g>
<text xml:space="preserve" x="361.734" y="130.18" fill="black" font-size="16.0105" font-family="Helvetica">background pol1</text>
<path d="M319.752,125.899h 34.7244" fill="none" stroke="#33cccc" stroke-width="2"/>
<g stroke="#33cccc" stroke-width="2" fill="none">
<rect x="331.479" y="120.264" width="11.271" height="11.271"/>
</g>
<text xml:space="preserve" x="361.734" y="167.937" fill="black" font-size="16.0105" font-family="Helvetica">background pol2</text>
<path d="M319.752,163.715h 34.7244" fill="none" stroke="#ff0066" stroke-width="2"/>
<g stroke="#ff0066" stroke-width="2" fill="none">
<circle cx="337.114" cy="163.715" r="5.63548"/>
</g></svg>
