<?xml version="1.0" standalone="no"?>
<svg width="567.429" height="553.904" viewBox="0 0 567.429 553.904" xmlns="http://www.w3.org/2000/svg" shape-rendering="crispEdges">
<title>
MC/EG1/OmegaRotPSNCell/SameEventToBackgroundRatio_01.svg
</title>
<desc>
Creator: ROOT Version 6.20/08
CreationDate: Mon Mar 29 18:49:56 2021</desc>
<defs>
</defs>
<rect x="0.5" y="0" width="566.929" height="553.404" fill="white"/>
<rect x="68.5315" y="16.6021" width="484.724" height="481.461" fill="white"/>
<rect x="68.5315" y="16.6021" width="484.724" height="481.461" fill="none" stroke="black"/>
<rect x="68.5315" y="16.6021" width="484.724" height="481.461" fill="white"/>
<rect x="68.5315" y="16.6021" width="484.724" height="481.461" fill="none" stroke="black"/>
<g fill="black">
<circle cx="114.124" cy="197.15" r="6.76257"/>
</g>
<g fill="black">
<circle cx="118.924" cy="240.823" r="6.76257"/>
</g>
<g fill="black">
<circle cx="123.723" cy="266.145" r="6.76257"/>
</g>
<g fill="black">
<circle cx="128.522" cy="283.028" r="6.76257"/>
</g>
<g fill="black">
<circle cx="133.321" cy="288.622" r="6.76257"/>
</g>
<g fill="black">
<circle cx="138.121" cy="300.857" r="6.76257"/>
</g>
<g fill="black">
<circle cx="142.92" cy="309.027" r="6.76257"/>
</g>
<g fill="black">
<circle cx="147.719" cy="318.037" r="6.76257"/>
</g>
<g fill="black">
<circle cx="152.518" cy="326.721" r="6.76257"/>
</g>
<g fill="black">
<circle cx="157.318" cy="334.218" r="6.76257"/>
</g>
<g fill="black">
<circle cx="162.117" cy="340.017" r="6.76257"/>
</g>
<g fill="black">
<circle cx="166.916" cy="343.226" r="6.76257"/>
</g>
<g fill="black">
<circle cx="171.715" cy="346.051" r="6.76257"/>
</g>
<g fill="black">
<circle cx="176.515" cy="348.19" r="6.76257"/>
</g>
<g fill="black">
<circle cx="181.314" cy="349.919" r="6.76257"/>
</g>
<g fill="black">
<circle cx="186.113" cy="350.556" r="6.76257"/>
</g>
<g fill="black">
<circle cx="190.912" cy="351.115" r="6.76257"/>
</g>
<g fill="black">
<circle cx="195.712" cy="351.295" r="6.76257"/>
</g>
<g fill="black">
<circle cx="200.511" cy="351.802" r="6.76257"/>
</g>
<g fill="black">
<circle cx="205.31" cy="351.504" r="6.76257"/>
</g>
<g fill="black">
<circle cx="210.109" cy="351.025" r="6.76257"/>
</g>
<g fill="black">
<circle cx="214.909" cy="350.104" r="6.76257"/>
</g>
<g fill="black">
<circle cx="219.708" cy="350.105" r="6.76257"/>
</g>
<g fill="black">
<circle cx="224.507" cy="349.075" r="6.76257"/>
</g>
<g fill="black">
<circle cx="229.306" cy="347.74" r="6.76257"/>
</g>
<g fill="black">
<circle cx="234.106" cy="347.564" r="6.76257"/>
</g>
<g fill="black">
<circle cx="238.905" cy="346.972" r="6.76257"/>
</g>
<g fill="black">
<circle cx="243.704" cy="344.526" r="6.76257"/>
</g>
<g fill="black">
<circle cx="248.503" cy="344.166" r="6.76257"/>
</g>
<g fill="black">
<circle cx="253.303" cy="342.498" r="6.76257"/>
</g>
<g fill="black">
<circle cx="258.102" cy="341.071" r="6.76257"/>
</g>
<g fill="black">
<circle cx="262.901" cy="339.854" r="6.76257"/>
</g>
<g fill="black">
<circle cx="267.7" cy="338.909" r="6.76257"/>
</g>
<g fill="black">
<circle cx="272.5" cy="338.158" r="6.76257"/>
</g>
<g fill="black">
<circle cx="277.299" cy="336.732" r="6.76257"/>
</g>
<g fill="black">
<circle cx="339.689" cy="313.037" r="6.76257"/>
</g>
<g fill="black">
<circle cx="344.488" cy="311.527" r="6.76257"/>
</g>
<g fill="black">
<circle cx="349.288" cy="308.164" r="6.76257"/>
</g>
<g fill="black">
<circle cx="354.087" cy="307.48" r="6.76257"/>
</g>
<g fill="black">
<circle cx="358.886" cy="305.073" r="6.76257"/>
</g>
<g fill="black">
<circle cx="363.685" cy="301.877" r="6.76257"/>
</g>
<g fill="black">
<circle cx="368.485" cy="299.408" r="6.76257"/>
</g>
<g fill="black">
<circle cx="373.284" cy="296.609" r="6.76257"/>
</g>
<g fill="black">
<circle cx="378.083" cy="295.387" r="6.76257"/>
</g>
<g fill="black">
<circle cx="382.882" cy="291.823" r="6.76257"/>
</g>
<g fill="black">
<circle cx="387.682" cy="288.522" r="6.76257"/>
</g>
<g fill="black">
<circle cx="392.481" cy="286.545" r="6.76257"/>
</g>
<g fill="black">
<circle cx="397.28" cy="282.855" r="6.76257"/>
</g>
<g fill="black">
<circle cx="402.079" cy="281.571" r="6.76257"/>
</g>
<g fill="black">
<circle cx="406.879" cy="275.303" r="6.76257"/>
</g>
<g fill="black">
<circle cx="411.678" cy="273.038" r="6.76257"/>
</g>
<g fill="black">
<circle cx="416.477" cy="270.36" r="6.76257"/>
</g>
<g fill="black">
<circle cx="421.276" cy="270.206" r="6.76257"/>
</g>
<g fill="black">
<circle cx="426.076" cy="265.668" r="6.76257"/>
</g>
<g fill="black">
<circle cx="430.875" cy="261.82" r="6.76257"/>
</g>
<g fill="black">
<circle cx="435.674" cy="259.958" r="6.76257"/>
</g>
<g fill="black">
<circle cx="440.473" cy="258.112" r="6.76257"/>
</g>
<g fill="black">
<circle cx="445.273" cy="253.575" r="6.76257"/>
</g>
<g fill="black">
<circle cx="450.072" cy="251.182" r="6.76257"/>
</g>
<g fill="black">
<circle cx="454.871" cy="248.414" r="6.76257"/>
</g>
<g fill="black">
<circle cx="459.671" cy="246.872" r="6.76257"/>
</g>
<g fill="black">
<circle cx="464.47" cy="241.826" r="6.76257"/>
</g>
<g fill="black">
<circle cx="469.269" cy="239.93" r="6.76257"/>
</g>
<g fill="black">
<circle cx="474.068" cy="237.399" r="6.76257"/>
</g>
<g fill="black">
<circle cx="478.867" cy="235.785" r="6.76257"/>
</g>
<g fill="black">
<circle cx="483.667" cy="233.574" r="6.76257"/>
</g>
<g fill="black">
<circle cx="488.466" cy="231.003" r="6.76257"/>
</g>
<g fill="black">
<circle cx="493.265" cy="228.378" r="6.76257"/>
</g>
<g fill="black">
<circle cx="498.065" cy="224.769" r="6.76257"/>
</g>
<g fill="black">
<circle cx="502.864" cy="227.201" r="6.76257"/>
</g>
<g fill="black">
<circle cx="507.663" cy="222.855" r="6.76257"/>
</g>
<g fill="black">
<circle cx="512.462" cy="221.272" r="6.76257"/>
</g>
<g fill="black">
<circle cx="517.262" cy="221.829" r="6.76257"/>
</g>
<g fill="black">
<circle cx="522.061" cy="217.325" r="6.76257"/>
</g>
<g fill="black">
<circle cx="526.86" cy="217.051" r="6.76257"/>
</g>
<g fill="black">
<circle cx="531.659" cy="214.796" r="6.76257"/>
</g>
<g fill="black">
<circle cx="536.458" cy="210.71" r="6.76257"/>
</g>
<g fill="black">
<circle cx="541.258" cy="212.277" r="6.76257"/>
</g>
<g fill="black">
<circle cx="546.057" cy="212.029" r="6.76257"/>
</g>
<path d="M68.5315,498.064h 484.724" fill="none" stroke="black"/>
<path d="M68.5315,483.869v 14.1948" fill="none" stroke="black"/>
<path d="M83.5292,490.966v 7.09741" fill="none" stroke="black"/>
<path d="M98.5268,490.966v 7.09741" fill="none" stroke="black"/>
<path d="M113.524,490.966v 7.09741" fill="none" stroke="black"/>
<path d="M128.522,483.869v 14.1948" fill="none" stroke="black"/>
<path d="M143.52,490.966v 7.09741" fill="none" stroke="black"/>
<path d="M158.517,490.966v 7.09741" fill="none" stroke="black"/>
<path d="M173.515,490.966v 7.09741" fill="none" stroke="black"/>
<path d="M188.513,483.869v 14.1948" fill="none" stroke="black"/>
<path d="M203.51,490.966v 7.09741" fill="none" stroke="black"/>
<path d="M218.508,490.966v 7.09741" fill="none" stroke="black"/>
<path d="M233.506,490.966v 7.09741" fill="none" stroke="black"/>
<path d="M248.503,483.869v 14.1948" fill="none" stroke="black"/>
<path d="M263.501,490.966v 7.09741" fill="none" stroke="black"/>
<path d="M278.499,490.966v 7.09741" fill="none" stroke="black"/>
<path d="M293.496,490.966v 7.09741" fill="none" stroke="black"/>
<path d="M308.494,483.869v 14.1948" fill="none" stroke="black"/>
<path d="M323.492,490.966v 7.09741" fill="none" stroke="black"/>
<path d="M338.489,490.966v 7.09741" fill="none" stroke="black"/>
<path d="M353.487,490.966v 7.09741" fill="none" stroke="black"/>
<path d="M368.485,483.869v 14.1948" fill="none" stroke="black"/>
<path d="M383.482,490.966v 7.09741" fill="none" stroke="black"/>
<path d="M398.48,490.966v 7.09741" fill="none" stroke="black"/>
<path d="M413.478,490.966v 7.09741" fill="none" stroke="black"/>
<path d="M428.475,483.869v 14.1948" fill="none" stroke="black"/>
<path d="M443.473,490.966v 7.09741" fill="none" stroke="black"/>
<path d="M458.471,490.966v 7.09741" fill="none" stroke="black"/>
<path d="M473.468,490.966v 7.09741" fill="none" stroke="black"/>
<path d="M488.466,483.869v 14.1948" fill="none" stroke="black"/>
<path d="M503.464,490.966v 7.09741" fill="none" stroke="black"/>
<path d="M518.461,490.966v 7.09741" fill="none" stroke="black"/>
<path d="M533.459,490.966v 7.09741" fill="none" stroke="black"/>
<path d="M548.457,483.869v 14.1948" fill="none" stroke="black"/>
<path d="M548.457,483.869v 14.1948" fill="none" stroke="black"/>
<text xml:space="preserve" x="63.6174" y="513.956" fill="black" font-size="16.0105" font-family="Helvetica">0</text>
<text xml:space="preserve" x="117.718" y="513.956" fill="black" font-size="16.0105" font-family="Helvetica">0.2</text>
<text xml:space="preserve" x="177.454" y="513.956" fill="black" font-size="16.0105" font-family="Helvetica">0.4</text>
<text xml:space="preserve" x="237.754" y="513.956" fill="black" font-size="16.0105" font-family="Helvetica">0.6</text>
<text xml:space="preserve" x="297.49" y="513.956" fill="black" font-size="16.0105" font-family="Helvetica">0.8</text>
<text xml:space="preserve" x="365.115" y="513.956" fill="black" font-size="16.0105" font-family="Helvetica">1</text>
<text xml:space="preserve" x="417.525" y="513.956" fill="black" font-size="16.0105" font-family="Helvetica">1.2</text>
<text xml:space="preserve" x="477.261" y="513.956" fill="black" font-size="16.0105" font-family="Helvetica">1.4</text>
<text xml:space="preserve" x="537.561" y="513.956" fill="black" font-size="16.0105" font-family="Helvetica">1.6</text>
<text xml:space="preserve" x="548.268" y="537.625" fill="black" font-size="16.0105" font-family="Helvetica">)</text>
<text xml:space="preserve" x="542.633" y="532.553" fill="black" font-size="10.8403" font-family="Helvetica">2</text>
<text xml:space="preserve" x="533.616" y="537.625" fill="black" font-size="16.0105" font-family="Helvetica" font-style="oblique">c</text>
<text xml:space="preserve" x="487.405" y="537.625" fill="black" font-size="16.0105" font-family="Helvetica"> (GeV/</text>
<text xml:space="preserve" x="473.317" y="542.697" fill="black" font-size="10.8403" font-family="Helvetica">inv</text>
<text xml:space="preserve" x="459.792" y="537.625" fill="black" font-size="16.0105" font-family="Helvetica" font-style="oblique">m</text>
<path d="M68.5315,16.6021h 484.724" fill="none" stroke="black"/>
<path d="M68.5315,30.7969v -14.1948" fill="none" stroke="black"/>
<path d="M83.5292,23.6995v -7.09741" fill="none" stroke="black"/>
<path d="M98.5268,23.6995v -7.09741" fill="none" stroke="black"/>
<path d="M113.524,23.6995v -7.09741" fill="none" stroke="black"/>
<path d="M128.522,30.7969v -14.1948" fill="none" stroke="black"/>
<path d="M143.52,23.6995v -7.09741" fill="none" stroke="black"/>
<path d="M158.517,23.6995v -7.09741" fill="none" stroke="black"/>
<path d="M173.515,23.6995v -7.09741" fill="none" stroke="black"/>
<path d="M188.513,30.7969v -14.1948" fill="none" stroke="black"/>
<path d="M203.51,23.6995v -7.09741" fill="none" stroke="black"/>
<path d="M218.508,23.6995v -7.09741" fill="none" stroke="black"/>
<path d="M233.506,23.6995v -7.09741" fill="none" stroke="black"/>
<path d="M248.503,30.7969v -14.1948" fill="none" stroke="black"/>
<path d="M263.501,23.6995v -7.09741" fill="none" stroke="black"/>
<path d="M278.499,23.6995v -7.09741" fill="none" stroke="black"/>
<path d="M293.496,23.6995v -7.09741" fill="none" stroke="black"/>
<path d="M308.494,30.7969v -14.1948" fill="none" stroke="black"/>
<path d="M323.492,23.6995v -7.09741" fill="none" stroke="black"/>
<path d="M338.489,23.6995v -7.09741" fill="none" stroke="black"/>
<path d="M353.487,23.6995v -7.09741" fill="none" stroke="black"/>
<path d="M368.485,30.7969v -14.1948" fill="none" stroke="black"/>
<path d="M383.482,23.6995v -7.09741" fill="none" stroke="black"/>
<path d="M398.48,23.6995v -7.09741" fill="none" stroke="black"/>
<path d="M413.478,23.6995v -7.09741" fill="none" stroke="black"/>
<path d="M428.475,30.7969v -14.1948" fill="none" stroke="black"/>
<path d="M443.473,23.6995v -7.09741" fill="none" stroke="black"/>
<path d="M458.471,23.6995v -7.09741" fill="none" stroke="black"/>
<path d="M473.468,23.6995v -7.09741" fill="none" stroke="black"/>
<path d="M488.466,30.7969v -14.1948" fill="none" stroke="black"/>
<path d="M503.464,23.6995v -7.09741" fill="none" stroke="black"/>
<path d="M518.461,23.6995v -7.09741" fill="none" stroke="black"/>
<path d="M533.459,23.6995v -7.09741" fill="none" stroke="black"/>
<path d="M548.457,30.7969v -14.1948" fill="none" stroke="black"/>
<path d="M548.457,30.7969v -14.1948" fill="none" stroke="black"/>
<path d="M68.5315,498.064v -481.461" fill="none" stroke="black"/>
<path d="M83.3283,498.064h -14.7969" fill="none" stroke="black"/>
<path d="M75.9299,481.384h -7.39843" fill="none" stroke="black"/>
<path d="M75.9299,464.705h -7.39843" fill="none" stroke="black"/>
<path d="M75.9299,448.026h -7.39843" fill="none" stroke="black"/>
<path d="M75.9299,431.347h -7.39843" fill="none" stroke="black"/>
<path d="M83.3283,414.668h -14.7969" fill="none" stroke="black"/>
<path d="M75.9299,397.989h -7.39843" fill="none" stroke="black"/>
<path d="M75.9299,381.309h -7.39843" fill="none" stroke="black"/>
<path d="M75.9299,364.63h -7.39843" fill="none" stroke="black"/>
<path d="M75.9299,347.951h -7.39843" fill="none" stroke="black"/>
<path d="M83.3283,331.272h -14.7969" fill="none" stroke="black"/>
<path d="M75.9299,314.593h -7.39843" fill="none" stroke="black"/>
<path d="M75.9299,297.913h -7.39843" fill="none" stroke="black"/>
<path d="M75.9299,281.234h -7.39843" fill="none" stroke="black"/>
<path d="M75.9299,264.555h -7.39843" fill="none" stroke="black"/>
<path d="M83.3283,247.876h -14.7969" fill="none" stroke="black"/>
<path d="M75.9299,231.197h -7.39843" fill="none" stroke="black"/>
<path d="M75.9299,214.518h -7.39843" fill="none" stroke="black"/>
<path d="M75.9299,197.838h -7.39843" fill="none" stroke="black"/>
<path d="M75.9299,181.159h -7.39843" fill="none" stroke="black"/>
<path d="M83.3283,164.48h -14.7969" fill="none" stroke="black"/>
<path d="M75.9299,147.801h -7.39843" fill="none" stroke="black"/>
<path d="M75.9299,131.122h -7.39843" fill="none" stroke="black"/>
<path d="M75.9299,114.443h -7.39843" fill="none" stroke="black"/>
<path d="M75.9299,97.7633h -7.39843" fill="none" stroke="black"/>
<path d="M83.3283,81.0842h -14.7969" fill="none" stroke="black"/>
<path d="M83.3283,81.0842h -14.7969" fill="none" stroke="black"/>
<path d="M75.9299,64.405h -7.39843" fill="none" stroke="black"/>
<path d="M75.9299,47.7258h -7.39843" fill="none" stroke="black"/>
<path d="M75.9299,31.0466h -7.39843" fill="none" stroke="black"/>
<text xml:space="preserve" x="56.8548" y="503.248" fill="black" font-size="16.0105" font-family="Helvetica">0</text>
<text xml:space="preserve" x="46.1474" y="419.843" fill="black" font-size="16.0105" font-family="Helvetica">0.1</text>
<text xml:space="preserve" x="43.8932" y="336.438" fill="black" font-size="16.0105" font-family="Helvetica">0.2</text>
<text xml:space="preserve" x="43.8932" y="253.033" fill="black" font-size="16.0105" font-family="Helvetica">0.3</text>
<text xml:space="preserve" x="43.8932" y="169.628" fill="black" font-size="16.0105" font-family="Helvetica">0.4</text>
<text xml:space="preserve" x="43.8932" y="86.2228" fill="black" font-size="16.0105" font-family="Helvetica">0.5</text>
<g transform="rotate(-90,38.2577,98.0573)">
<text xml:space="preserve" x="38.2577" y="98.0573" fill="black" font-size="16.0105" font-family="Helvetica">background</text>
</g>
<g transform="rotate(-90,21.9148,98.0573)">
<text xml:space="preserve" x="21.9148" y="98.0573" fill="black" font-size="16.0105" font-family="Helvetica">same event</text>
</g>
<path d="M24.169,98.0573l 0.563548, -81.7144" fill="none" stroke="black" stroke-width="2"/>
<path d="M553.256,498.064v -481.461" fill="none" stroke="black"/>
<path d="M538.459,498.064h 14.7969" fill="none" stroke="black"/>
<path d="M545.857,481.384h 7.39843" fill="none" stroke="black"/>
<path d="M545.857,464.705h 7.39843" fill="none" stroke="black"/>
<path d="M545.857,448.026h 7.39843" fill="none" stroke="black"/>
<path d="M545.857,431.347h 7.39843" fill="none" stroke="black"/>
<path d="M538.459,414.668h 14.7969" fill="none" stroke="black"/>
<path d="M545.857,397.989h 7.39843" fill="none" stroke="black"/>
<path d="M545.857,381.309h 7.39843" fill="none" stroke="black"/>
<path d="M545.857,364.63h 7.39843" fill="none" stroke="black"/>
<path d="M545.857,347.951h 7.39843" fill="none" stroke="black"/>
<path d="M538.459,331.272h 14.7969" fill="none" stroke="black"/>
<path d="M545.857,314.593h 7.39843" fill="none" stroke="black"/>
<path d="M545.857,297.913h 7.39843" fill="none" stroke="black"/>
<path d="M545.857,281.234h 7.39843" fill="none" stroke="black"/>
<path d="M545.857,264.555h 7.39843" fill="none" stroke="black"/>
<path d="M538.459,247.876h 14.7969" fill="none" stroke="black"/>
<path d="M545.857,231.197h 7.39843" fill="none" stroke="black"/>
<path d="M545.857,214.518h 7.39843" fill="none" stroke="black"/>
<path d="M545.857,197.838h 7.39843" fill="none" stroke="black"/>
<path d="M545.857,181.159h 7.39843" fill="none" stroke="black"/>
<path d="M538.459,164.48h 14.7969" fill="none" stroke="black"/>
<path d="M545.857,147.801h 7.39843" fill="none" stroke="black"/>
<path d="M545.857,131.122h 7.39843" fill="none" stroke="black"/>
<path d="M545.857,114.443h 7.39843" fill="none" stroke="black"/>
<path d="M545.857,97.7633h 7.39843" fill="none" stroke="black"/>
<path d="M538.459,81.0842h 14.7969" fill="none" stroke="black"/>
<path d="M538.459,81.0842h 14.7969" fill="none" stroke="black"/>
<path d="M545.857,64.405h 7.39843" fill="none" stroke="black"/>
<path d="M545.857,47.7258h 7.39843" fill="none" stroke="black"/>
<path d="M545.857,31.0466h 7.39843" fill="none" stroke="black"/>
<g stroke="#333333" stroke-width="2" fill="none">
<circle cx="282.098" cy="334.76" r="5.63548"/>
</g>
<g stroke="#333333" stroke-width="2" fill="none">
<circle cx="286.897" cy="332.888" r="5.63548"/>
</g>
<g stroke="#333333" stroke-width="2" fill="none">
<circle cx="291.697" cy="331.621" r="5.63548"/>
</g>
<g stroke="#333333" stroke-width="2" fill="none">
<circle cx="296.496" cy="328.821" r="5.63548"/>
</g>
<g stroke="#333333" stroke-width="2" fill="none">
<circle cx="301.295" cy="330.592" r="5.63548"/>
</g>
<g stroke="#333333" stroke-width="2" fill="none">
<circle cx="306.094" cy="326.865" r="5.63548"/>
</g>
<g stroke="#333333" stroke-width="2" fill="none">
<circle cx="310.894" cy="325.827" r="5.63548"/>
</g>
<g stroke="#333333" stroke-width="2" fill="none">
<circle cx="315.693" cy="324.111" r="5.63548"/>
</g>
<g stroke="#333333" stroke-width="2" fill="none">
<circle cx="320.492" cy="320.86" r="5.63548"/>
</g>
<g stroke="#333333" stroke-width="2" fill="none">
<circle cx="325.291" cy="321.315" r="5.63548"/>
</g>
<g stroke="#333333" stroke-width="2" fill="none">
<circle cx="330.091" cy="317.877" r="5.63548"/>
</g>
<g stroke="#333333" stroke-width="2" fill="none">
<circle cx="334.89" cy="315.346" r="5.63548"/>
</g>
<path d="M128.732,396.207l 0.419935, -0.174056l 0.419935, -0.174056l 0.419935, -0.174056l 0.419935, -0.174056l 0.419935, -0.174056l 0.419935, -0.174056l 0.419935, -0.174056l 0.419935, -0.174056l 0.419935, -0.174056l 0.419935, -0.174056l 0.419935,
 -0.174056l 0.419935, -0.174056l 0.419935, -0.174056l 0.419935, -0.174056l 0.419935, -0.174056l 0.419935, -0.174056l 0.419935, -0.174056l 0.419935, -0.174056l 0.419935, -0.174056l 0.419935, -0.174056l 0.419935, -0.174056l 0.419935, -0.174056l
 0.419935, -0.174056l 0.419935, -0.174056l 0.419935, -0.174056l 0.419935, -0.174056l 0.419935, -0.174056l 0.419935, -0.174056l 0.419935, -0.174056l 0.419935, -0.174056l 0.419935, -0.174056l 0.419935, -0.174056l 0.419935, -0.174056l 0.419935,
 -0.174056l 0.419935, -0.174056l 0.419935, -0.174056l 0.419935, -0.174056l 0.419935, -0.174056l 0.419935, -0.174056l 0.419935, -0.174056l 0.419935, -0.174056l 0.419935, -0.174056l 0.419935, -0.174056l 0.419935, -0.174056l 0.419935, -0.174056l
 0.419935, -0.174056l 0.419935, -0.174056l 0.419935, -0.174056l 0.419935, -0.174056" fill="none" stroke="#33cccc" stroke-width="3"/>
<path d="M149.309,387.679l 0.419935, -0.174056l 0.419935, -0.174056l 0.419935, -0.174056l 0.419935, -0.174056l 0.419935, -0.174056l 0.419935, -0.174056l 0.419935, -0.174056l 0.419935, -0.174056l 0.419935, -0.174056l 0.419935, -0.174056l 0.419935,
 -0.174056l 0.419935, -0.174056l 0.419935, -0.174056l 0.419935, -0.174056l 0.419935, -0.174056l 0.419935, -0.174056l 0.419935, -0.174056l 0.419935, -0.174056l 0.419935, -0.174056l 0.419935, -0.174056l 0.419935, -0.174056l 0.419935, -0.174056l
 0.419935, -0.174056l 0.419935, -0.174056l 0.419935, -0.174056l 0.419935, -0.174056l 0.419935, -0.174056l 0.419935, -0.174056l 0.419935, -0.174056l 0.419935, -0.174056l 0.419935, -0.174056l 0.419935, -0.174056l 0.419935, -0.174056l 0.419935,
 -0.174056l 0.419935, -0.174056l 0.419935, -0.174056l 0.419935, -0.174056l 0.419935, -0.174056l 0.419935, -0.174056l 0.419935, -0.174056l 0.419935, -0.174056l 0.419935, -0.174056l 0.419935, -0.174056l 0.419935, -0.174056l 0.419935, -0.174056l
 0.419935, -0.174056l 0.419935, -0.174056l 0.419935, -0.174056l 0.419935, -0.174056" fill="none" stroke="#33cccc" stroke-width="3"/>
<path d="M169.886,379.15l 0.419935, -0.174056l 0.419935, -0.174056l 0.419935, -0.174056l 0.419935, -0.174056l 0.419935, -0.174056l 0.419935, -0.174056l 0.419935, -0.174056l 0.419935, -0.174056l 0.419935, -0.174056l 0.419935, -0.174056l 0.419935,
 -0.174056l 0.419935, -0.174056l 0.419935, -0.174056l 0.419935, -0.174056l 0.419935, -0.174056l 0.419935, -0.174056l 0.419935, -0.174056l 0.419935, -0.174056l 0.419935, -0.174056l 0.419935, -0.174056l 0.419935, -0.174056l 0.419935, -0.174056l
 0.419935, -0.174056l 0.419935, -0.174056l 0.419935, -0.174056l 0.419935, -0.174056l 0.419935, -0.174056l 0.419935, -0.174056l 0.419935, -0.174056l 0.419935, -0.174056l 0.419935, -0.174056l 0.419935, -0.174056l 0.419935, -0.174056l 0.419935,
 -0.174056l 0.419935, -0.174056l 0.419935, -0.174056l 0.419935, -0.174056l 0.419935, -0.174056l 0.419935, -0.174056l 0.419935, -0.174056l 0.419935, -0.174056l 0.419935, -0.174056l 0.419935, -0.174056l 0.419935, -0.174056l 0.419935, -0.174056l
 0.419935, -0.174056l 0.419935, -0.174056l 0.419935, -0.174056l 0.419935, -0.174056" fill="none" stroke="#33cccc" stroke-width="3"/>
<path d="M190.462,370.621l 0.419935, -0.174056l 0.419935, -0.174056l 0.419935, -0.174056l 0.419935, -0.174056l 0.419935, -0.174056l 0.419935, -0.174056l 0.419935, -0.174056l 0.419935, -0.174056l 0.419935, -0.174056l 0.419935, -0.174056l 0.419935,
 -0.174056l 0.419935, -0.174056l 0.419935, -0.174056l 0.419935, -0.174056l 0.419935, -0.174056l 0.419935, -0.174056l 0.419935, -0.174056l 0.419935, -0.174056l 0.419935, -0.174056l 0.419935, -0.174056l 0.419935, -0.174056l 0.419935, -0.174056l
 0.419935, -0.174056l 0.419935, -0.174056l 0.419935, -0.174056l 0.419935, -0.174056l 0.419935, -0.174056l 0.419935, -0.174056l 0.419935, -0.174056l 0.419935, -0.174056l 0.419935, -0.174056l 0.419935, -0.174056l 0.419935, -0.174056l 0.419935,
 -0.174056l 0.419935, -0.174056l 0.419935, -0.174056l 0.419935, -0.174056l 0.419935, -0.174056l 0.419935, -0.174056l 0.419935, -0.174056l 0.419935, -0.174056l 0.419935, -0.174056l 0.419935, -0.174056l 0.419935, -0.174056l 0.419935, -0.174056l
 0.419935, -0.174056l 0.419935, -0.174056l 0.419935, -0.174056l 0.419935, -0.174056" fill="none" stroke="#33cccc" stroke-width="3"/>
<path d="M211.039,362.092l 0.419935, -0.174056l 0.419935, -0.174056l 0.419935, -0.174056l 0.419935, -0.174056l 0.419935, -0.174056l 0.419935, -0.174056l 0.419935, -0.174056l 0.419935, -0.174056l 0.419935, -0.174056l 0.419935, -0.174056l 0.419935,
 -0.174056l 0.419935, -0.174056l 0.419935, -0.174056l 0.419935, -0.174056l 0.419935, -0.174056l 0.419935, -0.174056l 0.419935, -0.174056l 0.419935, -0.174056l 0.419935, -0.174056l 0.419935, -0.174056l 0.419935, -0.174056l 0.419935, -0.174056l
 0.419935, -0.174056l 0.419935, -0.174056l 0.419935, -0.174056l 0.419935, -0.174056l 0.419935, -0.174056l 0.419935, -0.174056l 0.419935, -0.174056l 0.419935, -0.174056l 0.419935, -0.174056l 0.419935, -0.174056l 0.419935, -0.174056l 0.419935,
 -0.174056l 0.419935, -0.174056l 0.419935, -0.174056l 0.419935, -0.174056l 0.419935, -0.174056l 0.419935, -0.174056l 0.419935, -0.174056l 0.419935, -0.174056l 0.419935, -0.174056l 0.419935, -0.174056l 0.419935, -0.174056l 0.419935, -0.174056l
 0.419935, -0.174056l 0.419935, -0.174056l 0.419935, -0.174056l 0.419935, -0.174056" fill="none" stroke="#33cccc" stroke-width="3"/>
<path d="M231.616,353.564l 0.419935, -0.174056l 0.419935, -0.174056l 0.419935, -0.174056l 0.419935, -0.174056l 0.419935, -0.174056l 0.419935, -0.174056l 0.419935, -0.174056l 0.419935, -0.174056l 0.419935, -0.174056l 0.419935, -0.174056l 0.419935,
 -0.174056l 0.419935, -0.174056l 0.419935, -0.174056l 0.419935, -0.174056l 0.419935, -0.174056l 0.419935, -0.174056l 0.419935, -0.174056l 0.419935, -0.174056l 0.419935, -0.174056l 0.419935, -0.174056l 0.419935, -0.174056l 0.419935, -0.174056l
 0.419935, -0.174056l 0.419935, -0.174056l 0.419935, -0.174056l 0.419935, -0.174056l 0.419935, -0.174056l 0.419935, -0.174056l 0.419935, -0.174056l 0.419935, -0.174056l 0.419935, -0.174056l 0.419935, -0.174056l 0.419935, -0.174056l 0.419935,
 -0.174056l 0.419935, -0.174056l 0.419935, -0.174056l 0.419935, -0.174056l 0.419935, -0.174056l 0.419935, -0.174056l 0.419935, -0.174056l 0.419935, -0.174056l 0.419935, -0.174056l 0.419935, -0.174056l 0.419935, -0.174056l 0.419935, -0.174056l
 0.419935, -0.174056l 0.419935, -0.174056l 0.419935, -0.174056l 0.419935, -0.174056" fill="none" stroke="#33cccc" stroke-width="3"/>
<path d="M252.193,345.035l 0.419935, -0.174056l 0.419935, -0.174056l 0.419935, -0.174056l 0.419935, -0.174056l 0.419935, -0.174056l 0.419935, -0.174056l 0.419935, -0.174056l 0.419935, -0.174056l 0.419935, -0.174056l 0.419935, -0.174056l 0.419935,
 -0.174056l 0.419935, -0.174056l 0.419935, -0.174056l 0.419935, -0.174056l 0.419935, -0.174056l 0.419935, -0.174056l 0.419935, -0.174056l 0.419935, -0.174056l 0.419935, -0.174056l 0.419935, -0.174056l 0.419935, -0.174056l 0.419935, -0.174056l
 0.419935, -0.174056l 0.419935, -0.174056l 0.419935, -0.174056l 0.419935, -0.174056l 0.419935, -0.174056l 0.419935, -0.174056l 0.419935, -0.174056l 0.419935, -0.174056l 0.419935, -0.174056l 0.419935, -0.174056l 0.419935, -0.174056l 0.419935,
 -0.174056l 0.419935, -0.174056l 0.419935, -0.174056l 0.419935, -0.174056l 0.419935, -0.174056l 0.419935, -0.174056l 0.419935, -0.174056l 0.419935, -0.174056l 0.419935, -0.174056l 0.419935, -0.174056l 0.419935, -0.174056l 0.419935, -0.174056l
 0.419935, -0.174056l 0.419935, -0.174056l 0.419935, -0.174056l 0.419935, -0.174056" fill="none" stroke="#33cccc" stroke-width="3"/>
<path d="M272.77,336.506l 0.419935, -0.174056l 0.419935, -0.174056l 0.419935, -0.174056l 0.419935, -0.174056l 0.419935, -0.174056l 0.419935, -0.174056l 0.419935, -0.174056l 0.419935, -0.174056l 0.419935, -0.174056l 0.419935, -0.174056l 0.419935,
 -0.174056l 0.419935, -0.174056l 0.419935, -0.174056l 0.419935, -0.174056l 0.419935, -0.174056l 0.419935, -0.174056l 0.419935, -0.174056l 0.419935, -0.174056l 0.419935, -0.174056l 0.419935, -0.174056l 0.419935, -0.174056l 0.419935, -0.174056l
 0.419935, -0.174056l 0.419935, -0.174056l 0.419935, -0.174056l 0.419935, -0.174056l 0.419935, -0.174056l 0.419935, -0.174056l 0.419935, -0.174056l 0.419935, -0.174056l 0.419935, -0.174056l 0.419935, -0.174056l 0.419935, -0.174056l 0.419935,
 -0.174056l 0.419935, -0.174056l 0.419935, -0.174056l 0.419935, -0.174056l 0.419935, -0.174056l 0.419935, -0.174056l 0.419935, -0.174056l 0.419935, -0.174056l 0.419935, -0.174056l 0.419935, -0.174056l 0.419935, -0.174056l 0.419935, -0.174056l
 0.419935, -0.174056l 0.419935, -0.174056l 0.419935, -0.174056l 0.419935, -0.174056" fill="none" stroke="#33cccc" stroke-width="3"/>
<path d="M293.346,327.977l 0.419935, -0.174056l 0.419935, -0.174056l 0.419935, -0.174056l 0.419935, -0.174056l 0.419935, -0.174056l 0.419935, -0.174056l 0.419935, -0.174056l 0.419935, -0.174056l 0.419935, -0.174056l 0.419935, -0.174056l 0.419935,
 -0.174056l 0.419935, -0.174056l 0.419935, -0.174056l 0.419935, -0.174056l 0.419935, -0.174056l 0.419935, -0.174056l 0.419935, -0.174056l 0.419935, -0.174056l 0.419935, -0.174056l 0.419935, -0.174056l 0.419935, -0.174056l 0.419935, -0.174056l
 0.419935, -0.174056l 0.419935, -0.174056l 0.419935, -0.174056l 0.419935, -0.174056l 0.419935, -0.174056l 0.419935, -0.174056l 0.419935, -0.174056l 0.419935, -0.174056l 0.419935, -0.174056l 0.419935, -0.174056l 0.419935, -0.174056l 0.419935,
 -0.174056l 0.419935, -0.174056l 0.419935, -0.174056l 0.419935, -0.174056l 0.419935, -0.174056l 0.419935, -0.174056l 0.419935, -0.174056l 0.419935, -0.174056l 0.419935, -0.174056l 0.419935, -0.174056l 0.419935, -0.174056l 0.419935, -0.174056l
 0.419935, -0.174056l 0.419935, -0.174056l 0.419935, -0.174056l 0.419935, -0.174056" fill="none" stroke="#33cccc" stroke-width="3"/>
<path d="M313.923,319.449l 0.419935, -0.174056l 0.419935, -0.174056l 0.419935, -0.174056l 0.419935, -0.174056l 0.419935, -0.174056l 0.419935, -0.174056l 0.419935, -0.174056l 0.419935, -0.174056l 0.419935, -0.174056l 0.419935, -0.174056l 0.419935,
 -0.174056l 0.419935, -0.174056l 0.419935, -0.174056l 0.419935, -0.174056l 0.419935, -0.174056l 0.419935, -0.174056l 0.419935, -0.174056l 0.419935, -0.174056l 0.419935, -0.174056l 0.419935, -0.174056l 0.419935, -0.174056l 0.419935, -0.174056l
 0.419935, -0.174056l 0.419935, -0.174056l 0.419935, -0.174056l 0.419935, -0.174056l 0.419935, -0.174056l 0.419935, -0.174056l 0.419935, -0.174056l 0.419935, -0.174056l 0.419935, -0.174056l 0.419935, -0.174056l 0.419935, -0.174056l 0.419935,
 -0.174056l 0.419935, -0.174056l 0.419935, -0.174056l 0.419935, -0.174056l 0.419935, -0.174056l 0.419935, -0.174056l 0.419935, -0.174056l 0.419935, -0.174056l 0.419935, -0.174056l 0.419935, -0.174056l 0.419935, -0.174056l 0.419935, -0.174056l
 0.419935, -0.174056l 0.419935, -0.174056l 0.419935, -0.174056l 0.419935, -0.174056" fill="none" stroke="#33cccc" stroke-width="3"/>
<path d="M334.5,310.92l 0.419935, -0.174056l 0.419935, -0.174056l 0.419935, -0.174056l 0.419935, -0.174056l 0.419935, -0.174056l 0.419935, -0.174056l 0.419935, -0.174056l 0.419935, -0.174056l 0.419935, -0.174056l 0.419935, -0.174056l 0.419935,
 -0.174056l 0.419935, -0.174056l 0.419935, -0.174056l 0.419935, -0.174056l 0.419935, -0.174056l 0.419935, -0.174056l 0.419935, -0.174056l 0.419935, -0.174056l 0.419935, -0.174056l 0.419935, -0.174056l 0.419935, -0.174056l 0.419935, -0.174056l
 0.419935, -0.174056l 0.419935, -0.174056l 0.419935, -0.174056l 0.419935, -0.174056l 0.419935, -0.174056l 0.419935, -0.174056l 0.419935, -0.174056l 0.419935, -0.174056l 0.419935, -0.174056l 0.419935, -0.174056l 0.419935, -0.174056l 0.419935,
 -0.174056l 0.419935, -0.174056l 0.419935, -0.174056l 0.419935, -0.174056l 0.419935, -0.174056l 0.419935, -0.174056l 0.419935, -0.174056l 0.419935, -0.174056l 0.419935, -0.174056l 0.419935, -0.174056l 0.419935, -0.174056l 0.419935, -0.174056l
 0.419935, -0.174056l 0.419935, -0.174056l 0.419935, -0.174056l 0.419935, -0.174056" fill="none" stroke="#33cccc" stroke-width="3"/>
<path d="M355.077,302.391l 0.419935, -0.174056l 0.419935, -0.174056l 0.419935, -0.174056l 0.419935, -0.174056l 0.419935, -0.174056l 0.419935, -0.174056l 0.419935, -0.174056l 0.419935, -0.174056l 0.419935, -0.174056l 0.419935, -0.174056l 0.419935,
 -0.174056l 0.419935, -0.174056l 0.419935, -0.174056l 0.419935, -0.174056l 0.419935, -0.174056l 0.419935, -0.174056l 0.419935, -0.174056l 0.419935, -0.174056l 0.419935, -0.174056l 0.419935, -0.174056l 0.419935, -0.174056l 0.419935, -0.174056l
 0.419935, -0.174056l 0.419935, -0.174056l 0.419935, -0.174056l 0.419935, -0.174056l 0.419935, -0.174056l 0.419935, -0.174056l 0.419935, -0.174056l 0.419935, -0.174056l 0.419935, -0.174056l 0.419935, -0.174056l 0.419935, -0.174056l 0.419935,
 -0.174056l 0.419935, -0.174056l 0.419935, -0.174056l 0.419935, -0.174056l 0.419935, -0.174056l 0.419935, -0.174056l 0.419935, -0.174056l 0.419935, -0.174056l 0.419935, -0.174056l 0.419935, -0.174056l 0.419935, -0.174056l 0.419935, -0.174056l
 0.419935, -0.174056l 0.419935, -0.174056l 0.419935, -0.174056l 0.419935, -0.174056" fill="none" stroke="#33cccc" stroke-width="3"/>
<path d="M375.654,293.862l 0.419935, -0.174056l 0.419935, -0.174056l 0.419935, -0.174056l 0.419935, -0.174056l 0.419935, -0.174056l 0.419935, -0.174056l 0.419935, -0.174056l 0.419935, -0.174056l 0.419935, -0.174056l 0.419935, -0.174056l 0.419935,
 -0.174056l 0.419935, -0.174056l 0.419935, -0.174056l 0.419935, -0.174056l 0.419935, -0.174056l 0.419935, -0.174056l 0.419935, -0.174056l 0.419935, -0.174056l 0.419935, -0.174056l 0.419935, -0.174056l 0.419935, -0.174056l 0.419935, -0.174056l
 0.419935, -0.174056l 0.419935, -0.174056l 0.419935, -0.174056l 0.419935, -0.174056l 0.419935, -0.174056l 0.419935, -0.174056l 0.419935, -0.174056l 0.419935, -0.174056l 0.419935, -0.174056l 0.419935, -0.174056l 0.419935, -0.174056l 0.419935,
 -0.174056l 0.419935, -0.174056l 0.419935, -0.174056l 0.419935, -0.174056l 0.419935, -0.174056l 0.419935, -0.174056l 0.419935, -0.174056l 0.419935, -0.174056l 0.419935, -0.174056l 0.419935, -0.174056l 0.419935, -0.174056l 0.419935, -0.174056l
 0.419935, -0.174056l 0.419935, -0.174056l 0.419935, -0.174056l 0.419935, -0.174056" fill="none" stroke="#33cccc" stroke-width="3"/>
<path d="M396.23,285.333l 0.419935, -0.174056l 0.419935, -0.174056l 0.419935, -0.174056l 0.419935, -0.174056l 0.419935, -0.174056l 0.419935, -0.174056l 0.419935, -0.174056l 0.419935, -0.174056l 0.419935, -0.174056l 0.419935, -0.174056l 0.419935,
 -0.174056l 0.419935, -0.174056l 0.419935, -0.174056l 0.419935, -0.174056l 0.419935, -0.174056l 0.419935, -0.174056l 0.419935, -0.174056l 0.419935, -0.174056l 0.419935, -0.174056l 0.419935, -0.174056l 0.419935, -0.174056l 0.419935, -0.174056l
 0.419935, -0.174056l 0.419935, -0.174056l 0.419935, -0.174056l 0.419935, -0.174056l 0.419935, -0.174056l 0.419935, -0.174056l 0.419935, -0.174056l 0.419935, -0.174056l 0.419935, -0.174056l 0.419935, -0.174056l 0.419935, -0.174056l 0.419935,
 -0.174056l 0.419935, -0.174056l 0.419935, -0.174056l 0.419935, -0.174056l 0.419935, -0.174056l 0.419935, -0.174056l 0.419935, -0.174056l 0.419935, -0.174056l 0.419935, -0.174056l 0.419935, -0.174056l 0.419935, -0.174056l 0.419935, -0.174056l
 0.419935, -0.174056l 0.419935, -0.174056l 0.419935, -0.174056l 0.419935, -0.174056" fill="none" stroke="#33cccc" stroke-width="3"/>
<path d="M416.807,276.805l 0.419935, -0.174056l 0.419935, -0.174056l 0.419935, -0.174056l 0.419935, -0.174056l 0.419935, -0.174056l 0.419935, -0.174056l 0.419935, -0.174056l 0.419935, -0.174056l 0.419935, -0.174056l 0.419935, -0.174056l 0.419935,
 -0.174056l 0.419935, -0.174056l 0.419935, -0.174056l 0.419935, -0.174056l 0.419935, -0.174056l 0.419935, -0.174056l 0.419935, -0.174056l 0.419935, -0.174056l 0.419935, -0.174056l 0.419935, -0.174056l 0.419935, -0.174056l 0.419935, -0.174056l
 0.419935, -0.174056l 0.419935, -0.174056l 0.419935, -0.174056l 0.419935, -0.174056l 0.419935, -0.174056l 0.419935, -0.174056l 0.419935, -0.174056l 0.419935, -0.174056l 0.419935, -0.174056l 0.419935, -0.174056l 0.419935, -0.174056l 0.419935,
 -0.174056l 0.419935, -0.174056l 0.419935, -0.174056l 0.419935, -0.174056l 0.419935, -0.174056l 0.419935, -0.174056l 0.419935, -0.174056l 0.419935, -0.174056l 0.419935, -0.174056l 0.419935, -0.174056l 0.419935, -0.174056l 0.419935, -0.174056l
 0.419935, -0.174056l 0.419935, -0.174056l 0.419935, -0.174056l 0.419935, -0.174056" fill="none" stroke="#33cccc" stroke-width="3"/>
<path d="M437.384,268.276l 0.419935, -0.174056l 0.419935, -0.174056l 0.419935, -0.174056l 0.419935, -0.174056l 0.419935, -0.174056l 0.419935, -0.174056l 0.419935, -0.174056l 0.419935, -0.174056l 0.419935, -0.174056l 0.419935, -0.174056l 0.419935,
 -0.174056l 0.419935, -0.174056l 0.419935, -0.174056l 0.419935, -0.174056l 0.419935, -0.174056l 0.419935, -0.174056l 0.419935, -0.174056l 0.419935, -0.174056l 0.419935, -0.174056l 0.419935, -0.174056l 0.419935, -0.174056l 0.419935, -0.174056l
 0.419935, -0.174056l 0.419935, -0.174056l 0.419935, -0.174056l 0.419935, -0.174056l 0.419935, -0.174056l 0.419935, -0.174056l 0.419935, -0.174056l 0.419935, -0.174056l 0.419935, -0.174056l 0.419935, -0.174056l 0.419935, -0.174056l 0.419935,
 -0.174056l 0.419935, -0.174056l 0.419935, -0.174056l 0.419935, -0.174056l 0.419935, -0.174056l 0.419935, -0.174056l 0.419935, -0.174056l 0.419935, -0.174056l 0.419935, -0.174056l 0.419935, -0.174056l 0.419935, -0.174056l 0.419935, -0.174056l
 0.419935, -0.174056l 0.419935, -0.174056l 0.419935, -0.174056l 0.419935, -0.174056" fill="none" stroke="#33cccc" stroke-width="3"/>
<path d="M457.961,259.747l 0.419935, -0.174056l 0.419935, -0.174056l 0.419935, -0.174056l 0.419935, -0.174056l 0.419935, -0.174056l 0.419935, -0.174056l 0.419935, -0.174056l 0.419935, -0.174056l 0.419935, -0.174056l 0.419935, -0.174056l 0.419935,
 -0.174056l 0.419935, -0.174056l 0.419935, -0.174056l 0.419935, -0.174056l 0.419935, -0.174056l 0.419935, -0.174056l 0.419935, -0.174056l 0.419935, -0.174056l 0.419935, -0.174056l 0.419935, -0.174056l 0.419935, -0.174056l 0.419935, -0.174056l
 0.419935, -0.174056l 0.419935, -0.174056l 0.419935, -0.174056l 0.419935, -0.174056l 0.419935, -0.174056l 0.419935, -0.174056l 0.419935, -0.174056l 0.419935, -0.174056l 0.419935, -0.174056l 0.419935, -0.174056l 0.419935, -0.174056l 0.419935,
 -0.174056l 0.419935, -0.174056l 0.419935, -0.174056l 0.419935, -0.174056l 0.419935, -0.174056l 0.419935, -0.174056l 0.419935, -0.174056l 0.419935, -0.174056l 0.419935, -0.174056l 0.419935, -0.174056l 0.419935, -0.174056l 0.419935, -0.174056l
 0.419935, -0.174056l 0.419935, -0.174056l 0.419935, -0.174056l 0.419935, -0.174056" fill="none" stroke="#33cccc" stroke-width="3"/>
<path d="M478.538,251.218l 0.419935, -0.174056l 0.419935, -0.174056l 0.419935, -0.174056l 0.419935, -0.174056l 0.419935, -0.174056l 0.419935, -0.174056l 0.419935, -0.174056l 0.419935, -0.174056l 0.419935, -0.174056l 0.419935, -0.174056l 0.419935,
 -0.174056l 0.419935, -0.174056l 0.419935, -0.174056l 0.419935, -0.174056l 0.419935, -0.174056l 0.419935, -0.174056l 0.419935, -0.174056l 0.419935, -0.174056l 0.419935, -0.174056l 0.419935, -0.174056l 0.419935, -0.174056l 0.419935, -0.174056l
 0.419935, -0.174056l 0.419935, -0.174056l 0.419935, -0.174056l 0.419935, -0.174056l 0.419935, -0.174056l 0.419935, -0.174056l 0.419935, -0.174056l 0.419935, -0.174056l 0.419935, -0.174056l 0.419935, -0.174056l 0.419935, -0.174056l 0.419935,
 -0.174056l 0.419935, -0.174056l 0.419935, -0.174056l 0.419935, -0.174056l 0.419935, -0.174056l 0.419935, -0.174056l 0.419935, -0.174056l 0.419935, -0.174056l 0.419935, -0.174056l 0.419935, -0.174056l 0.419935, -0.174056l 0.419935, -0.174056l
 0.419935, -0.174056l 0.419935, -0.174056l 0.419935, -0.174056l 0.419935, -0.174056" fill="none" stroke="#33cccc" stroke-width="3"/>
<path d="M499.114,242.69l 0.419935, -0.174056l 0.419935, -0.174056l 0.419935, -0.174056l 0.419935, -0.174056l 0.419935, -0.174056l 0.419935, -0.174056l 0.419935, -0.174056l 0.419935, -0.174056l 0.419935, -0.174056l 0.419935, -0.174056l 0.419935,
 -0.174056l 0.419935, -0.174056l 0.419935, -0.174056l 0.419935, -0.174056l 0.419935, -0.174056l 0.419935, -0.174056l 0.419935, -0.174056l 0.419935, -0.174056l 0.419935, -0.174056l 0.419935, -0.174056l 0.419935, -0.174056l 0.419935, -0.174056l
 0.419935, -0.174056l 0.419935, -0.174056l 0.419935, -0.174056l 0.419935, -0.174056l 0.419935, -0.174056l 0.419935, -0.174056l 0.419935, -0.174056l 0.419935, -0.174056l 0.419935, -0.174056l 0.419935, -0.174056l 0.419935, -0.174056l 0.419935,
 -0.174056l 0.419935, -0.174056l 0.419935, -0.174056l 0.419935, -0.174056l 0.419935, -0.174056l 0.419935, -0.174056l 0.419935, -0.174056l 0.419935, -0.174056l 0.419935, -0.174056l 0.419935, -0.174056l 0.419935, -0.174056l 0.419935, -0.174056l
 0.419935, -0.174056l 0.419935, -0.174056l 0.419935, -0.174056l 0.419935, -0.174056" fill="none" stroke="#33cccc" stroke-width="3"/>
<path d="M519.691,234.161l 0.419935, -0.174056l 0.419935, -0.174056l 0.419935, -0.174056l 0.419935, -0.174056l 0.419935, -0.174056l 0.419935, -0.174056l 0.419935, -0.174056l 0.419935, -0.174056l 0.419935, -0.174056l 0.419935, -0.174056l 0.419935,
 -0.174056l 0.419935, -0.174056l 0.419935, -0.174056l 0.419935, -0.174056l 0.419935, -0.174056l 0.419935, -0.174056l 0.419935, -0.174056l 0.419935, -0.174056l 0.419935, -0.174056l 0.419935, -0.174056l 0.419935, -0.174056l 0.419935, -0.174056l
 0.419935, -0.174056l 0.419935, -0.174056l 0.419935, -0.174056l 0.419935, -0.174056l 0.419935, -0.174056l 0.419935, -0.174056l 0.419935, -0.174056l 0.419935, -0.174056l 0.419935, -0.174056l 0.419935, -0.174056l 0.419935, -0.174056l 0.419935,
 -0.174056l 0.419935, -0.174056l 0.419935, -0.174056l 0.419935, -0.174056l 0.419935, -0.174056l 0.419935, -0.174056l 0.419935, -0.174056l 0.419935, -0.174056l 0.419935, -0.174056l 0.419935, -0.174056l 0.419935, -0.174056l 0.419935, -0.174056l
 0.419935, -0.174056l 0.419935, -0.174056l 0.419935, -0.174056l 0.419935, -0.174056" fill="none" stroke="#33cccc" stroke-width="3"/>
<path d="M540.268,225.632l 0.419935, -0.174056l 0.419935, -0.174056l 0.419935, -0.174056l 0.419935, -0.174056l 0.419935, -0.174056l 0.419935, -0.174056l 0.419935, -0.174056l 0.419935, -0.174056l 0.419935, -0.174056l 0.419935, -0.174056l 0.419935,
 -0.174056l 0.419935, -0.174056l 0.419935, -0.174056l 0.419935, -0.174056l 0.419935, -0.174056l 0.419935, -0.174056l 0.419935, -0.174056l 0.419935, -0.174056l 0.419935, -0.174056" fill="none" stroke="#33cccc" stroke-width="3"/>
<path d="M128.732,350.598l 0.419935, 0.0405128l 0.419935, 0.0400563l 0.419935, 0.0395999l 0.419935, 0.0391434l 0.419935, 0.038687l 0.419935, 0.0382305l 0.419935, 0.0377741l 0.419935, 0.0373176l 0.419935, 0.0368612l 0.419935, 0.0364047l 0.419935,
 0.0359482l 0.419935, 0.0354918l 0.419935, 0.0350353l 0.419935, 0.0345789l 0.419935, 0.0341224l 0.419935, 0.033666l 0.419935, 0.0332095l 0.419935, 0.0327531l 0.419935, 0.0322966l 0.419935, 0.0318401l 0.419935, 0.0313837l 0.419935, 0.0309272l
 0.419935, 0.0304708l 0.419935, 0.0300143l 0.419935, 0.0295579l 0.419935, 0.0291014l 0.419935, 0.0286449l 0.419935, 0.0281885l 0.419935, 0.027732l 0.419935, 0.0272756l 0.419935, 0.0268191l 0.419935, 0.0263627l 0.419935, 0.0259062l 0.419935,
 0.0254498l 0.419935, 0.0249933l 0.419935, 0.0245368l 0.419935, 0.0240804l 0.419935, 0.0236239l 0.419935, 0.0231675l 0.419935, 0.022711l 0.419935, 0.0222546l 0.419935, 0.0217981l 0.419935, 0.0213417l 0.419935, 0.0208852l 0.419935, 0.0204287l
 0.419935, 0.0199723l 0.419935, 0.0195158l 0.419935, 0.0190594l 0.419935, 0.0186029" fill="none" stroke="#ff0066" stroke-width="3"/>
<path d="M149.309,352.046l 0.419935, 0.0181465l 0.419935, 0.01769l 0.419935, 0.0172335l 0.419935, 0.0167771l 0.419935, 0.0163206l 0.419935, 0.0158642l 0.419935, 0.0154077l 0.419935, 0.0149513l 0.419935, 0.0144948l 0.419935, 0.0140384l 0.419935,
 0.0135819l 0.419935, 0.0131254l 0.419935, 0.012669l 0.419935, 0.0122125l 0.419935, 0.0117561l 0.419935, 0.0112996l 0.419935, 0.0108432l 0.419935, 0.0103867l 0.419935, 0.00993025l 0.419935, 0.0094738l 0.419935, 0.00901734l 0.419935, 0.00856089l
 0.419935, 0.00810443l 0.419935, 0.00764797l 0.419935, 0.00719152l 0.419935, 0.00673506l 0.419935, 0.00627861l 0.419935, 0.00582215l 0.419935, 0.00536569l 0.419935, 0.00490924l 0.419935, 0.00445278l 0.419935, 0.00399633l 0.419935, 0.00353987l
 0.419935, 0.00308341l 0.419935, 0.00262696l 0.419935, 0.0021705l 0.419935, 0.00171405l 0.419935, 0.00125759l 0.419935, 0.000801133l 0.419935, 0.000344677l 0.419935, -0.000111779l 0.419935, -0.000568235l 0.419935, -0.00102469l 0.419935, -0.00148115l
 0.419935, -0.0019376l 0.419935, -0.00239406l 0.419935, -0.00285051l 0.419935, -0.00330697l 0.419935, -0.00376343" fill="none" stroke="#ff0066" stroke-width="3"/>
<path d="M169.886,352.399l 0.419935, -0.00421988l 0.419935, -0.00467634l 0.419935, -0.00513279l 0.419935, -0.00558925l 0.419935, -0.00604571l 0.419935, -0.00650216l 0.419935, -0.00695862l 0.419935, -0.00741507l 0.419935, -0.00787153l 0.419935,
 -0.00832799l 0.419935, -0.00878444l 0.419935, -0.0092409l 0.419935, -0.00969735l 0.419935, -0.0101538l 0.419935, -0.0106103l 0.419935, -0.0110667l 0.419935, -0.0115232l 0.419935, -0.0119796l 0.419935, -0.0124361l 0.419935, -0.0128925l 0.419935,
 -0.013349l 0.419935, -0.0138055l 0.419935, -0.0142619l 0.419935, -0.0147184l 0.419935, -0.0151748l 0.419935, -0.0156313l 0.419935, -0.0160877l 0.419935, -0.0165442l 0.419935, -0.0170007l 0.419935, -0.0174571l 0.419935, -0.0179136l 0.419935,
 -0.01837l 0.419935, -0.0188265l 0.419935, -0.0192829l 0.419935, -0.0197394l 0.419935, -0.0201958l 0.419935, -0.0206523l 0.419935, -0.0211088l 0.419935, -0.0215652l 0.419935, -0.0220217l 0.419935, -0.0224781l 0.419935, -0.0229346l 0.419935,
 -0.023391l 0.419935, -0.0238475l 0.419935, -0.0243039l 0.419935, -0.0247604l 0.419935, -0.0252169l 0.419935, -0.0256733l 0.419935, -0.0261298" fill="none" stroke="#ff0066" stroke-width="3"/>
<path d="M190.462,351.655l 0.419935, -0.0265862l 0.419935, -0.0270427l 0.419935, -0.0274991l 0.419935, -0.0279556l 0.419935, -0.028412l 0.419935, -0.0288685l 0.419935, -0.029325l 0.419935, -0.0297814l 0.419935, -0.0302379l 0.419935, -0.0306943l
 0.419935, -0.0311508l 0.419935, -0.0316072l 0.419935, -0.0320637l 0.419935, -0.0325202l 0.419935, -0.0329766l 0.419935, -0.0334331l 0.419935, -0.0338895l 0.419935, -0.034346l 0.419935, -0.0348024l 0.419935, -0.0352589l 0.419935, -0.0357153l
 0.419935, -0.0361718l 0.419935, -0.0366283l 0.419935, -0.0370847l 0.419935, -0.0375412l 0.419935, -0.0379976l 0.419935, -0.0384541l 0.419935, -0.0389105l 0.419935, -0.039367l 0.419935, -0.0398235l 0.419935, -0.0402799l 0.419935, -0.0407364l
 0.419935, -0.0411928l 0.419935, -0.0416493l 0.419935, -0.0421057l 0.419935, -0.0425622l 0.419935, -0.0430186l 0.419935, -0.0434751l 0.419935, -0.0439316l 0.419935, -0.044388l 0.419935, -0.0448445l 0.419935, -0.0453009l 0.419935, -0.0457574l
 0.419935, -0.0462138l 0.419935, -0.0466703l 0.419935, -0.0471267l 0.419935, -0.0475832l 0.419935, -0.0480397l 0.419935, -0.0484961" fill="none" stroke="#ff0066" stroke-width="3"/>
<path d="M211.039,349.815l 0.419935, -0.0489526l 0.419935, -0.049409l 0.419935, -0.0498655l 0.419935, -0.0503219l 0.419935, -0.0507784l 0.419935, -0.0512348l 0.419935, -0.0516913l 0.419935, -0.0521478l 0.419935, -0.0526042l 0.419935, -0.0530607l
 0.419935, -0.0535171l 0.419935, -0.0539736l 0.419935, -0.05443l 0.419935, -0.0548865l 0.419935, -0.055343l 0.419935, -0.0557994l 0.419935, -0.0562559l 0.419935, -0.0567123l 0.419935, -0.0571688l 0.419935, -0.0576252l 0.419935, -0.0580817l 0.419935,
 -0.0585381l 0.419935, -0.0589946l 0.419935, -0.0594511l 0.419935, -0.0599075l 0.419935, -0.060364l 0.419935, -0.0608204l 0.419935, -0.0612769l 0.419935, -0.0617333l 0.419935, -0.0621898l 0.419935, -0.0626462l 0.419935, -0.0631027l 0.419935,
 -0.0635592l 0.419935, -0.0640156l 0.419935, -0.0644721l 0.419935, -0.0649285l 0.419935, -0.065385l 0.419935, -0.0658414l 0.419935, -0.0662979l 0.419935, -0.0667544l 0.419935, -0.0672108l 0.419935, -0.0676673l 0.419935, -0.0681237l 0.419935,
 -0.0685802l 0.419935, -0.0690366l 0.419935, -0.0694931l 0.419935, -0.0699495l 0.419935, -0.070406l 0.419935, -0.0708625" fill="none" stroke="#ff0066" stroke-width="3"/>
<path d="M231.616,346.88l 0.419935, -0.0713189l 0.419935, -0.0717754l 0.419935, -0.0722318l 0.419935, -0.0726883l 0.419935, -0.0731447l 0.419935, -0.0736012l 0.419935, -0.0740576l 0.419935, -0.0745141l 0.419935, -0.0749706l 0.419935, -0.075427l
 0.419935, -0.0758835l 0.419935, -0.0763399l 0.419935, -0.0767964l 0.419935, -0.0772528l 0.419935, -0.0777093l 0.419935, -0.0781658l 0.419935, -0.0786222l 0.419935, -0.0790787l 0.419935, -0.0795351l 0.419935, -0.0799916l 0.419935, -0.080448l
 0.419935, -0.0809045l 0.419935, -0.0813609l 0.419935, -0.0818174l 0.419935, -0.0822739l 0.419935, -0.0827303l 0.419935, -0.0831868l 0.419935, -0.0836432l 0.419935, -0.0840997l 0.419935, -0.0845561l 0.419935, -0.0850126l 0.419935, -0.0854691l
 0.419935, -0.0859255l 0.419935, -0.086382l 0.419935, -0.0868384l 0.419935, -0.0872949l 0.419935, -0.0877513l 0.419935, -0.0882078l 0.419935, -0.0886642l 0.419935, -0.0891207l 0.419935, -0.0895772l 0.419935, -0.0900336l 0.419935, -0.0904901l
 0.419935, -0.0909465l 0.419935, -0.091403l 0.419935, -0.0918594l 0.419935, -0.0923159l 0.419935, -0.0927723l 0.419935, -0.0932288" fill="none" stroke="#ff0066" stroke-width="3"/>
<path d="M252.193,342.849l 0.419935, -0.0936853l 0.419935, -0.0941417l 0.419935, -0.0945982l 0.419935, -0.0950546l 0.419935, -0.0955111l 0.419935, -0.0959675l 0.419935, -0.096424l 0.419935, -0.0968805l 0.419935, -0.0973369l 0.419935, -0.0977934l
 0.419935, -0.0982498l 0.419935, -0.0987063l 0.419935, -0.0991627l 0.419935, -0.0996192l 0.419935, -0.100076l 0.419935, -0.100532l 0.419935, -0.100989l 0.419935, -0.101445l 0.419935, -0.101901l 0.419935, -0.102358l 0.419935, -0.102814l 0.419935,
 -0.103271l 0.419935, -0.103727l 0.419935, -0.104184l 0.419935, -0.10464l 0.419935, -0.105097l 0.419935, -0.105553l 0.419935, -0.10601l 0.419935, -0.106466l 0.419935, -0.106922l 0.419935, -0.107379l 0.419935, -0.107835l 0.419935, -0.108292l 0.419935,
 -0.108748l 0.419935, -0.109205l 0.419935, -0.109661l 0.419935, -0.110118l 0.419935, -0.110574l 0.419935, -0.111031l 0.419935, -0.111487l 0.419935, -0.111943l 0.419935, -0.1124l 0.419935, -0.112856l 0.419935, -0.113313l 0.419935, -0.113769l 0.419935,
 -0.114226l 0.419935, -0.114682l 0.419935, -0.115139l 0.419935, -0.115595" fill="none" stroke="#ff0066" stroke-width="3"/>
<path d="M272.77,337.721l 0.419935, -0.116052l 0.419935, -0.116508l 0.419935, -0.116965l 0.419935, -0.117421l 0.419935, -0.117877l 0.419935, -0.118334l 0.419935, -0.11879l 0.419935, -0.119247l 0.419935, -0.119703l 0.419935, -0.12016l 0.419935,
 -0.120616l 0.419935, -0.121073l 0.419935, -0.121529l 0.419935, -0.121986l 0.419935, -0.122442l 0.419935, -0.122898l 0.419935, -0.123355l 0.419935, -0.123811l 0.419935, -0.124268l 0.419935, -0.124724l 0.419935, -0.125181l 0.419935, -0.125637l
 0.419935, -0.126094l 0.419935, -0.12655l 0.419935, -0.127007l 0.419935, -0.127463l 0.419935, -0.127919l 0.419935, -0.128376l 0.419935, -0.128832l 0.419935, -0.129289l 0.419935, -0.129745l 0.419935, -0.130202l 0.419935, -0.130658l 0.419935,
 -0.131115l 0.419935, -0.131571l 0.419935, -0.132028l 0.419935, -0.132484l 0.419935, -0.13294l 0.419935, -0.133397l 0.419935, -0.133853l 0.419935, -0.13431l 0.419935, -0.134766l 0.419935, -0.135223l 0.419935, -0.135679l 0.419935, -0.136136l 0.419935,
 -0.136592l 0.419935, -0.137049l 0.419935, -0.137505l 0.419935, -0.137961" fill="none" stroke="#ff0066" stroke-width="3"/>
<path d="M293.346,331.498l 0.419935, -0.138418l 0.419935, -0.138874l 0.419935, -0.139331l 0.419935, -0.139787l 0.419935, -0.140244l 0.419935, -0.1407l 0.419935, -0.141157l 0.419935, -0.141613l 0.419935, -0.14207l 0.419935, -0.142526l 0.419935,
 -0.142982l 0.419935, -0.143439l 0.419935, -0.143895l 0.419935, -0.144352l 0.419935, -0.144808l 0.419935, -0.145265l 0.419935, -0.145721l 0.419935, -0.146178l 0.419935, -0.146634l 0.419935, -0.147091l 0.419935, -0.147547l 0.419935, -0.148004l
 0.419935, -0.14846l 0.419935, -0.148916l 0.419935, -0.149373l 0.419935, -0.149829l 0.419935, -0.150286l 0.419935, -0.150742l 0.419935, -0.151199l 0.419935, -0.151655l 0.419935, -0.152112l 0.419935, -0.152568l 0.419935, -0.153025l 0.419935,
 -0.153481l 0.419935, -0.153937l 0.419935, -0.154394l 0.419935, -0.15485l 0.419935, -0.155307l 0.419935, -0.155763l 0.419935, -0.15622l 0.419935, -0.156676l 0.419935, -0.157133l 0.419935, -0.157589l 0.419935, -0.158046l 0.419935, -0.158502l 0.419935,
 -0.158958l 0.419935, -0.159415l 0.419935, -0.159871l 0.419935, -0.160328" fill="none" stroke="#ff0066" stroke-width="3"/>
<path d="M313.923,324.179l 0.419935, -0.160784l 0.419935, -0.161241l 0.419935, -0.161697l 0.419935, -0.162154l 0.419935, -0.16261l 0.419935, -0.163067l 0.419935, -0.163523l 0.419935, -0.163979l 0.419935, -0.164436l 0.419935, -0.164892l 0.419935,
 -0.165349l 0.419935, -0.165805l 0.419935, -0.166262l 0.419935, -0.166718l 0.419935, -0.167175l 0.419935, -0.167631l 0.419935, -0.168088l 0.419935, -0.168544l 0.419935, -0.169l 0.419935, -0.169457l 0.419935, -0.169913l 0.419935, -0.17037l 0.419935,
 -0.170826l 0.419935, -0.171283l 0.419935, -0.171739l 0.419935, -0.172196l 0.419935, -0.172652l 0.419935, -0.173109l 0.419935, -0.173565l 0.419935, -0.174022l 0.419935, -0.174478l 0.419935, -0.174934l 0.419935, -0.175391l 0.419935, -0.175847l
 0.419935, -0.176304l 0.419935, -0.17676l 0.419935, -0.177217l 0.419935, -0.177673l 0.419935, -0.17813l 0.419935, -0.178586l 0.419935, -0.179043l 0.419935, -0.179499l 0.419935, -0.179955l 0.419935, -0.180412l 0.419935, -0.180868l 0.419935, -0.181325l
 0.419935, -0.181781l 0.419935, -0.182238l 0.419935, -0.182694" fill="none" stroke="#ff0066" stroke-width="3"/>
<path d="M334.5,315.763l 0.419935, -0.183151l 0.419935, -0.183607l 0.419935, -0.184064l 0.419935, -0.18452l 0.419935, -0.184976l 0.419935, -0.185433l 0.419935, -0.185889l 0.419935, -0.186346l 0.419935, -0.186802l 0.419935, -0.187259l 0.419935,
 -0.187715l 0.419935, -0.188172l 0.419935, -0.188628l 0.419935, -0.189085l 0.419935, -0.189541l 0.419935, -0.189997l 0.419935, -0.190454l 0.419935, -0.19091l 0.419935, -0.191367l 0.419935, -0.191823l 0.419935, -0.19228l 0.419935, -0.192736l 0.419935,
 -0.193193l 0.419935, -0.193649l 0.419935, -0.194106l 0.419935, -0.194562l 0.419935, -0.195018l 0.419935, -0.195475l 0.419935, -0.195931l 0.419935, -0.196388l 0.419935, -0.196844l 0.419935, -0.197301l 0.419935, -0.197757l 0.419935, -0.198214l
 0.419935, -0.19867l 0.419935, -0.199127l 0.419935, -0.199583l 0.419935, -0.20004l 0.419935, -0.200496l 0.419935, -0.200952l 0.419935, -0.201409l 0.419935, -0.201865l 0.419935, -0.202322l 0.419935, -0.202778l 0.419935, -0.203235l 0.419935, -0.203691l
 0.419935, -0.204148l 0.419935, -0.204604l 0.419935, -0.205061" fill="none" stroke="#ff0066" stroke-width="3"/>
<path d="M355.077,306.252l 0.419935, -0.205517l 0.419935, -0.205973l 0.419935, -0.20643l 0.419935, -0.206886l 0.419935, -0.207343l 0.419935, -0.207799l 0.419935, -0.208256l 0.419935, -0.208712l 0.419935, -0.209169l 0.419935, -0.209625l 0.419935,
 -0.210082l 0.419935, -0.210538l 0.419935, -0.210994l 0.419935, -0.211451l 0.419935, -0.211907l 0.419935, -0.212364l 0.419935, -0.21282l 0.419935, -0.213277l 0.419935, -0.213733l 0.419935, -0.21419l 0.419935, -0.214646l 0.419935, -0.215103l 0.419935,
 -0.215559l 0.419935, -0.216015l 0.419935, -0.216472l 0.419935, -0.216928l 0.419935, -0.217385l 0.419935, -0.217841l 0.419935, -0.218298l 0.419935, -0.218754l 0.419935, -0.219211l 0.419935, -0.219667l 0.419935, -0.220124l 0.419935, -0.22058l
 0.419935, -0.221036l 0.419935, -0.221493l 0.419935, -0.221949l 0.419935, -0.222406l 0.419935, -0.222862l 0.419935, -0.223319l 0.419935, -0.223775l 0.419935, -0.224232l 0.419935, -0.224688l 0.419935, -0.225145l 0.419935, -0.225601l 0.419935,
 -0.226057l 0.419935, -0.226514l 0.419935, -0.22697l 0.419935, -0.227427" fill="none" stroke="#ff0066" stroke-width="3"/>
<path d="M375.654,295.645l 0.419935, -0.227883l 0.419935, -0.22834l 0.419935, -0.228796l 0.419935, -0.229253l 0.419935, -0.229709l 0.419935, -0.230166l 0.419935, -0.230622l 0.419935, -0.231079l 0.419935, -0.231535l 0.419935, -0.231991l 0.419935,
 -0.232448l 0.419935, -0.232904l 0.419935, -0.233361l 0.419935, -0.233817l 0.419935, -0.234274l 0.419935, -0.23473l 0.419935, -0.235187l 0.419935, -0.235643l 0.419935, -0.2361l 0.419935, -0.236556l 0.419935, -0.237012l 0.419935, -0.237469l 0.419935,
 -0.237925l 0.419935, -0.238382l 0.419935, -0.238838l 0.419935, -0.239295l 0.419935, -0.239751l 0.419935, -0.240208l 0.419935, -0.240664l 0.419935, -0.241121l 0.419935, -0.241577l 0.419935, -0.242033l 0.419935, -0.24249l 0.419935, -0.242946l
 0.419935, -0.243403l 0.419935, -0.243859l 0.419935, -0.244316l 0.419935, -0.244772l 0.419935, -0.245229l 0.419935, -0.245685l 0.419935, -0.246142l 0.419935, -0.246598l 0.419935, -0.247054l 0.419935, -0.247511l 0.419935, -0.247967l 0.419935,
 -0.248424l 0.419935, -0.24888l 0.419935, -0.249337l 0.419935, -0.249793" fill="none" stroke="#ff0066" stroke-width="3"/>
<path d="M396.23,283.942l 0.419935, -0.25025l 0.419935, -0.250706l 0.419935, -0.251163l 0.419935, -0.251619l 0.419935, -0.252075l 0.419935, -0.252532l 0.419935, -0.252988l 0.419935, -0.253445l 0.419935, -0.253901l 0.419935, -0.254358l 0.419935,
 -0.254814l 0.419935, -0.255271l 0.419935, -0.255727l 0.419935, -0.256184l 0.419935, -0.25664l 0.419935, -0.257096l 0.419935, -0.257553l 0.419935, -0.258009l 0.419935, -0.258466l 0.419935, -0.258922l 0.419935, -0.259379l 0.419935, -0.259835l
 0.419935, -0.260292l 0.419935, -0.260748l 0.419935, -0.261205l 0.419935, -0.261661l 0.419935, -0.262118l 0.419935, -0.262574l 0.419935, -0.26303l 0.419935, -0.263487l 0.419935, -0.263943l 0.419935, -0.2644l 0.419935, -0.264856l 0.419935, -0.265313l
 0.419935, -0.265769l 0.419935, -0.266226l 0.419935, -0.266682l 0.419935, -0.267139l 0.419935, -0.267595l 0.419935, -0.268051l 0.419935, -0.268508l 0.419935, -0.268964l 0.419935, -0.269421l 0.419935, -0.269877l 0.419935, -0.270334l 0.419935,
 -0.27079l 0.419935, -0.271247l 0.419935, -0.271703l 0.419935, -0.27216" fill="none" stroke="#ff0066" stroke-width="3"/>
<path d="M416.807,271.143l 0.419935, -0.272616l 0.419935, -0.273072l 0.419935, -0.273529l 0.419935, -0.273985l 0.419935, -0.274442l 0.419935, -0.274898l 0.419935, -0.275355l 0.419935, -0.275811l 0.419935, -0.276268l 0.419935, -0.276724l 0.419935,
 -0.277181l 0.419935, -0.277637l 0.419935, -0.278093l 0.419935, -0.27855l 0.419935, -0.279006l 0.419935, -0.279463l 0.419935, -0.279919l 0.419935, -0.280376l 0.419935, -0.280832l 0.419935, -0.281289l 0.419935, -0.281745l 0.419935, -0.282202l
 0.419935, -0.282658l 0.419935, -0.283114l 0.419935, -0.283571l 0.419935, -0.284027l 0.419935, -0.284484l 0.419935, -0.28494l 0.419935, -0.285397l 0.419935, -0.285853l 0.419935, -0.28631l 0.419935, -0.286766l 0.419935, -0.287223l 0.419935, -0.287679l
 0.419935, -0.288135l 0.419935, -0.288592l 0.419935, -0.289048l 0.419935, -0.289505l 0.419935, -0.289961l 0.419935, -0.290418l 0.419935, -0.290874l 0.419935, -0.291331l 0.419935, -0.291787l 0.419935, -0.292244l 0.419935, -0.2927l 0.419935, -0.293157l
 0.419935, -0.293613l 0.419935, -0.294069l 0.419935, -0.294526" fill="none" stroke="#ff0066" stroke-width="3"/>
<path d="M437.384,257.248l 0.419935, -0.294982l 0.419935, -0.295439l 0.419935, -0.295895l 0.419935, -0.296352l 0.419935, -0.296808l 0.419935, -0.297265l 0.419935, -0.297721l 0.419935, -0.298178l 0.419935, -0.298634l 0.419935, -0.29909l 0.419935,
 -0.299547l 0.419935, -0.300003l 0.419935, -0.30046l 0.419935, -0.300916l 0.419935, -0.301373l 0.419935, -0.301829l 0.419935, -0.302286l 0.419935, -0.302742l 0.419935, -0.303199l 0.419935, -0.303655l 0.419935, -0.304111l 0.419935, -0.304568l
 0.419935, -0.305024l 0.419935, -0.305481l 0.419935, -0.305937l 0.419935, -0.306394l 0.419935, -0.30685l 0.419935, -0.307307l 0.419935, -0.307763l 0.419935, -0.30822l 0.419935, -0.308676l 0.419935, -0.309132l 0.419935, -0.309589l 0.419935, -0.310045l
 0.419935, -0.310502l 0.419935, -0.310958l 0.419935, -0.311415l 0.419935, -0.311871l 0.419935, -0.312328l 0.419935, -0.312784l 0.419935, -0.313241l 0.419935, -0.313697l 0.419935, -0.314153l 0.419935, -0.31461l 0.419935, -0.315066l 0.419935,
 -0.315523l 0.419935, -0.315979l 0.419935, -0.316436l 0.419935, -0.316892" fill="none" stroke="#ff0066" stroke-width="3"/>
<path d="M457.961,242.257l 0.419935, -0.317349l 0.419935, -0.317805l 0.419935, -0.318262l 0.419935, -0.318718l 0.419935, -0.319175l 0.419935, -0.319631l 0.419935, -0.320087l 0.419935, -0.320544l 0.419935, -0.321l 0.419935, -0.321457l 0.419935,
 -0.321913l 0.419935, -0.32237l 0.419935, -0.322826l 0.419935, -0.323283l 0.419935, -0.323739l 0.419935, -0.324196l 0.419935, -0.324652l 0.419935, -0.325108l 0.419935, -0.325565l 0.419935, -0.326021l 0.419935, -0.326478l 0.419935, -0.326934l
 0.419935, -0.327391l 0.419935, -0.327847l 0.419935, -0.328304l 0.419935, -0.32876l 0.419935, -0.329217l 0.419935, -0.329673l 0.419935, -0.330129l 0.419935, -0.330586l 0.419935, -0.331042l 0.419935, -0.331499l 0.419935, -0.331955l 0.419935,
 -0.332412l 0.419935, -0.332868l 0.419935, -0.333325l 0.419935, -0.333781l 0.419935, -0.334238l 0.419935, -0.334694l 0.419935, -0.33515l 0.419935, -0.335607l 0.419935, -0.336063l 0.419935, -0.33652l 0.419935, -0.336976l 0.419935, -0.337433l 0.419935,
 -0.337889l 0.419935, -0.338346l 0.419935, -0.338802l 0.419935, -0.339259" fill="none" stroke="#ff0066" stroke-width="3"/>
<path d="M478.538,226.17l 0.419935, -0.339715l 0.419935, -0.340171l 0.419935, -0.340628l 0.419935, -0.341084l 0.419935, -0.341541l 0.419935, -0.341997l 0.419935, -0.342454l 0.419935, -0.34291l 0.419935, -0.343367l 0.419935, -0.343823l 0.419935,
 -0.34428l 0.419935, -0.344736l 0.419935, -0.345192l 0.419935, -0.345649l 0.419935, -0.346105l 0.419935, -0.346562l 0.419935, -0.347018l 0.419935, -0.347475l 0.419935, -0.347931l 0.419935, -0.348388l 0.419935, -0.348844l 0.419935, -0.349301l
 0.419935, -0.349757l 0.419935, -0.350214l 0.419935, -0.35067l 0.419935, -0.351126l 0.419935, -0.351583l 0.419935, -0.352039l 0.419935, -0.352496l 0.419935, -0.352952l 0.419935, -0.353409l 0.419935, -0.353865l 0.419935, -0.354322l 0.419935,
 -0.354778l 0.419935, -0.355235l 0.419935, -0.355691l 0.419935, -0.356147l 0.419935, -0.356604l 0.419935, -0.35706l 0.419935, -0.357517l 0.419935, -0.357973l 0.419935, -0.35843l 0.419935, -0.358886l 0.419935, -0.359343l 0.419935, -0.359799l 0.419935,
 -0.360256l 0.419935, -0.360712l 0.419935, -0.361168l 0.419935, -0.361625" fill="none" stroke="#ff0066" stroke-width="3"/>
<path d="M499.114,208.987l 0.419935, -0.362081l 0.419935, -0.362538l 0.419935, -0.362994l 0.419935, -0.363451l 0.419935, -0.363907l 0.419935, -0.364364l 0.419935, -0.36482l 0.419935, -0.365277l 0.419935, -0.365733l 0.419935, -0.366189l 0.419935,
 -0.366646l 0.419935, -0.367102l 0.419935, -0.367559l 0.419935, -0.368015l 0.419935, -0.368472l 0.419935, -0.368928l 0.419935, -0.369385l 0.419935, -0.369841l 0.419935, -0.370298l 0.419935, -0.370754l 0.419935, -0.37121l 0.419935, -0.371667l
 0.419935, -0.372123l 0.419935, -0.37258l 0.419935, -0.373036l 0.419935, -0.373493l 0.419935, -0.373949l 0.419935, -0.374406l 0.419935, -0.374862l 0.419935, -0.375319l 0.419935, -0.375775l 0.419935, -0.376232l 0.419935, -0.376688l 0.419935,
 -0.377144l 0.419935, -0.377601l 0.419935, -0.378057l 0.419935, -0.378514l 0.419935, -0.37897l 0.419935, -0.379427l 0.419935, -0.379883l 0.419935, -0.38034l 0.419935, -0.380796l 0.419935, -0.381253l 0.419935, -0.381709l 0.419935, -0.382165l 0.419935,
 -0.382622l 0.419935, -0.383078l 0.419935, -0.383535l 0.419935, -0.383991" fill="none" stroke="#ff0066" stroke-width="3"/>
<path d="M519.691,190.709l 0.419935, -0.384448l 0.419935, -0.384904l 0.419935, -0.385361l 0.419935, -0.385817l 0.419935, -0.386274l 0.419935, -0.38673l 0.419935, -0.387186l 0.419935, -0.387643l 0.419935, -0.388099l 0.419935, -0.388556l 0.419935,
 -0.389012l 0.419935, -0.389469l 0.419935, -0.389925l 0.419935, -0.390382l 0.419935, -0.390838l 0.419935, -0.391295l 0.419935, -0.391751l 0.419935, -0.392207l 0.419935, -0.392664l 0.419935, -0.39312l 0.419935, -0.393577l 0.419935, -0.394033l
 0.419935, -0.39449l 0.419935, -0.394946l 0.419935, -0.395403l 0.419935, -0.395859l 0.419935, -0.396316l 0.419935, -0.396772l 0.419935, -0.397228l 0.419935, -0.397685l 0.419935, -0.398141l 0.419935, -0.398598l 0.419935, -0.399054l 0.419935,
 -0.399511l 0.419935, -0.399967l 0.419935, -0.400424l 0.419935, -0.40088l 0.419935, -0.401337l 0.419935, -0.401793l 0.419935, -0.40225l 0.419935, -0.402706l 0.419935, -0.403162l 0.419935, -0.403619l 0.419935, -0.404075l 0.419935, -0.404532l 0.419935,
 -0.404988l 0.419935, -0.405445l 0.419935, -0.405901l 0.419935, -0.406358" fill="none" stroke="#ff0066" stroke-width="3"/>
<path d="M540.268,171.334l 0.419935, -0.406814l 0.419935, -0.407271l 0.419935, -0.407727l 0.419935, -0.408183l 0.419935, -0.40864l 0.419935, -0.409096l 0.419935, -0.409553l 0.419935, -0.410009l 0.419935, -0.410466l 0.419935, -0.410922l 0.419935,
 -0.411379l 0.419935, -0.411835l 0.419935, -0.412292l 0.419935, -0.412748l 0.419935, -0.413204l 0.419935, -0.413661l 0.419935, -0.414117l 0.419935, -0.414574l 0.419935, -0.41503" fill="none" stroke="#ff0066" stroke-width="3"/>
<path d="M248.503,21.4167h 179.972" fill="none" stroke="#999999" stroke-width="7"/>
<text xml:space="preserve" x="360.607" y="50.7193" fill="black" font-size="16.0105" font-family="Helvetica"> with EMC</text>
<text xml:space="preserve" x="352.717" y="50.7193" fill="black" font-size="16.0105" font-family="Times">&#0947;</text>
<text xml:space="preserve" x="344.828" y="50.7193" fill="black" font-size="16.0105" font-family="Times">&#0947;</text>
<text xml:space="preserve" x="336.938" y="50.7193" fill="black" font-size="16.0105" font-family="Times">&#0947;</text>
<text xml:space="preserve" x="331.866" y="50.7193" fill="black" font-size="16.0105" font-family="Helvetica"> </text>
<text xml:space="preserve" x="316.65" y="50.7193" fill="black" font-size="16.0105" font-family="Times">&#8594;</text>
<text xml:space="preserve" x="311.578" y="50.7193" fill="black" font-size="16.0105" font-family="Helvetica"> </text>
<text xml:space="preserve" x="303.689" y="50.7193" fill="black" font-size="16.0105" font-family="Times">&#0947;</text>
<text xml:space="preserve" x="298.053" y="45.0838" fill="black" font-size="10.8403" font-family="Helvetica">0</text>
<text xml:space="preserve" x="289.6" y="50.7193" fill="black" font-size="16.0105" font-family="Times">&#0960;</text>
<text xml:space="preserve" x="284.528" y="50.7193" fill="black" font-size="16.0105" font-family="Helvetica"> </text>
<text xml:space="preserve" x="269.312" y="50.7193" fill="black" font-size="16.0105" font-family="Times">&#8594;</text>
<text xml:space="preserve" x="264.24" y="50.7193" fill="black" font-size="16.0105" font-family="Helvetica"> </text>
<text xml:space="preserve" x="252.969" y="50.7193" fill="black" font-size="16.0105" font-family="Times">&#0969;</text>
<text xml:space="preserve" x="128.989" y="50.7193" fill="black" font-size="16.0105" font-family="Helvetica"> = 13 TeV (EG1), </text>
<text xml:space="preserve" x="120.536" y="50.7193" fill="black" font-size="16.0105" font-family="Helvetica" font-style="oblique">s</text>
<path d="M114.9,41.7025l 1.69064, 9.58031" fill="none" stroke="black" stroke-width="2"/>
<path d="M116.591,51.2829l 2.25419, -14.0887" fill="none" stroke="black"/>
<path d="M118.845,37.1942h 10.1439" fill="none" stroke="black"/>
<text xml:space="preserve" x="89.5406" y="50.7193" fill="black" font-size="16.0105" font-family="Helvetica">pp </text>
<text xml:space="preserve" x="89.5406" y="85.6593" fill="black" font-size="16.0105" font-family="Helvetica">ALICE work in progress</text>
<text xml:space="preserve" x="205.068" y="120.599" fill="black" font-size="16.0105" font-family="Helvetica">) &lt; 4.0</text>
<text xml:space="preserve" x="196.051" y="120.599" fill="black" font-size="16.0105" font-family="Helvetica" font-style="oblique">c</text>
<text xml:space="preserve" x="145.895" y="120.599" fill="black" font-size="16.0105" font-family="Helvetica"> /(GeV/</text>
<text xml:space="preserve" x="139.133" y="128.489" fill="black" font-size="10.8403" font-family="Helvetica">T</text>
<text xml:space="preserve" x="129.552" y="120.599" fill="black" font-size="16.0105" font-family="Helvetica" font-style="oblique">p</text>
<text xml:space="preserve" x="124.481" y="120.599" fill="black" font-size="16.0105" font-family="Helvetica"> </text>
<text xml:space="preserve" x="116.027" y="120.599" fill="black" font-size="16.0105" font-family="Times">&#8804;</text>
<text xml:space="preserve" x="89.5406" y="120.599" fill="black" font-size="16.0105" font-family="Helvetica">2.0 </text>
<rect x="312.311" y="69.1755" width="198.425" height="113.448" fill="white"/>
<text xml:space="preserve" x="361.734" y="85.0957" fill="black" font-size="16.0105" font-family="Helvetica">ratio</text>
<path d="M319.752,80.5203h 34.7244" fill="none" stroke="black" stroke-width="2"/>
<g fill="black">
<circle cx="337.114" cy="80.5203" r="6.76257"/>
</g>
<text xml:space="preserve" x="361.734" y="108.201" fill="black" font-size="16.0105" font-family="Helvetica">peak range</text>
<path d="M319.752,103.21h 34.7244" fill="none" stroke="#333333" stroke-width="2"/>
<g stroke="#333333" stroke-width="2" fill="none">
<circle cx="337.114" cy="103.21" r="5.63548"/>
</g>
<text xml:space="preserve" x="361.734" y="130.743" fill="black" font-size="16.0105" font-family="Helvetica">background pol1</text>
<path d="M319.752,125.899h 34.7244" fill="none" stroke="#33cccc" stroke-width="3"/>
<text xml:space="preserve" x="361.734" y="153.285" fill="black" font-size="16.0105" font-family="Helvetica">background pol2</text>
<path d="M319.752,148.589h 34.7244" fill="none" stroke="#ff0066" stroke-width="3"/>
<text xml:space="preserve" x="361.734" y="175.827" fill="black" font-size="16.0105" font-family="Helvetica">param. range</text>
<path d="M319.752,171.279h 34.7244" fill="none" stroke="#999999" stroke-width="7"/></svg>
