<?xml version="1.0" standalone="no"?>
<svg width="567.429" height="553.904" viewBox="0 0 567.429 553.904" xmlns="http://www.w3.org/2000/svg" shape-rendering="crispEdges">
<title>
MC/EG1/OmegaRotPSNCell/SameEventToBackgroundRatio_12.svg
</title>
<desc>
Creator: ROOT Version 6.20/08
CreationDate: Mon Mar 29 18:50:02 2021</desc>
<defs>
</defs>
<rect x="0.5" y="0" width="566.929" height="553.404" fill="white"/>
<rect x="68.5315" y="16.6021" width="484.724" height="481.461" fill="white"/>
<rect x="68.5315" y="16.6021" width="484.724" height="481.461" fill="none" stroke="black"/>
<rect x="68.5315" y="16.6021" width="484.724" height="481.461" fill="white"/>
<rect x="68.5315" y="16.6021" width="484.724" height="481.461" fill="none" stroke="black"/>
<g fill="black">
<circle cx="111.301" cy="496.853" r="6.76257"/>
</g>
<g fill="black">
<circle cx="120.806" cy="476.661" r="6.76257"/>
</g>
<g fill="black">
<circle cx="130.31" cy="429.91" r="6.76257"/>
</g>
<g fill="black">
<circle cx="139.814" cy="417.461" r="6.76257"/>
</g>
<g fill="black">
<circle cx="149.319" cy="316.611" r="6.76257"/>
</g>
<g fill="black">
<circle cx="158.823" cy="200.803" r="6.76257"/>
</g>
<g fill="black">
<circle cx="168.328" cy="198.205" r="6.76257"/>
</g>
<g fill="black">
<circle cx="177.832" cy="206.634" r="6.76257"/>
</g>
<g fill="black">
<circle cx="187.337" cy="197.15" r="6.76257"/>
</g>
<g fill="black">
<circle cx="196.841" cy="202.573" r="6.76257"/>
</g>
<g fill="black">
<circle cx="206.345" cy="207.652" r="6.76257"/>
</g>
<g fill="black">
<circle cx="215.85" cy="221.928" r="6.76257"/>
</g>
<g fill="black">
<circle cx="225.354" cy="232.359" r="6.76257"/>
</g>
<g fill="black">
<circle cx="234.858" cy="235.15" r="6.76257"/>
</g>
<g fill="black">
<circle cx="244.363" cy="234.035" r="6.76257"/>
</g>
<g fill="black">
<circle cx="253.867" cy="249.725" r="6.76257"/>
</g>
<g fill="black">
<circle cx="263.372" cy="252.905" r="6.76257"/>
</g>
<g fill="black">
<circle cx="272.876" cy="260.052" r="6.76257"/>
</g>
<g fill="black">
<circle cx="339.407" cy="283.078" r="6.76257"/>
</g>
<g fill="black">
<circle cx="348.911" cy="282.258" r="6.76257"/>
</g>
<g fill="black">
<circle cx="358.416" cy="284.042" r="6.76257"/>
</g>
<g fill="black">
<circle cx="367.92" cy="288.214" r="6.76257"/>
</g>
<g fill="black">
<circle cx="377.424" cy="290.216" r="6.76257"/>
</g>
<g fill="black">
<circle cx="386.929" cy="291.339" r="6.76257"/>
</g>
<g fill="black">
<circle cx="396.433" cy="294.713" r="6.76257"/>
</g>
<g fill="black">
<circle cx="405.938" cy="295.7" r="6.76257"/>
</g>
<g fill="black">
<circle cx="415.442" cy="294.438" r="6.76257"/>
</g>
<g fill="black">
<circle cx="424.947" cy="293.525" r="6.76257"/>
</g>
<g fill="black">
<circle cx="434.451" cy="300.217" r="6.76257"/>
</g>
<g fill="black">
<circle cx="443.955" cy="299.566" r="6.76257"/>
</g>
<g fill="black">
<circle cx="453.46" cy="297.485" r="6.76257"/>
</g>
<g fill="black">
<circle cx="462.964" cy="299.478" r="6.76257"/>
</g>
<g fill="black">
<circle cx="472.469" cy="302.746" r="6.76257"/>
</g>
<g fill="black">
<circle cx="481.973" cy="294.342" r="6.76257"/>
</g>
<g fill="black">
<circle cx="491.477" cy="299.779" r="6.76257"/>
</g>
<g fill="black">
<circle cx="500.982" cy="300.181" r="6.76257"/>
</g>
<g fill="black">
<circle cx="510.486" cy="302.243" r="6.76257"/>
</g>
<g fill="black">
<circle cx="519.99" cy="304.563" r="6.76257"/>
</g>
<g fill="black">
<circle cx="529.495" cy="296.854" r="6.76257"/>
</g>
<g fill="black">
<circle cx="538.999" cy="299.702" r="6.76257"/>
</g>
<path d="M68.5315,498.064h 484.724" fill="none" stroke="black"/>
<path d="M68.5315,483.869v 14.1948" fill="none" stroke="black"/>
<path d="M83.3821,490.966v 7.09741" fill="none" stroke="black"/>
<path d="M98.2327,490.966v 7.09741" fill="none" stroke="black"/>
<path d="M113.083,490.966v 7.09741" fill="none" stroke="black"/>
<path d="M127.934,483.869v 14.1948" fill="none" stroke="black"/>
<path d="M142.785,490.966v 7.09741" fill="none" stroke="black"/>
<path d="M157.635,490.966v 7.09741" fill="none" stroke="black"/>
<path d="M172.486,490.966v 7.09741" fill="none" stroke="black"/>
<path d="M187.337,483.869v 14.1948" fill="none" stroke="black"/>
<path d="M202.187,490.966v 7.09741" fill="none" stroke="black"/>
<path d="M217.038,490.966v 7.09741" fill="none" stroke="black"/>
<path d="M231.888,490.966v 7.09741" fill="none" stroke="black"/>
<path d="M246.739,483.869v 14.1948" fill="none" stroke="black"/>
<path d="M261.59,490.966v 7.09741" fill="none" stroke="black"/>
<path d="M276.44,490.966v 7.09741" fill="none" stroke="black"/>
<path d="M291.291,490.966v 7.09741" fill="none" stroke="black"/>
<path d="M306.142,483.869v 14.1948" fill="none" stroke="black"/>
<path d="M320.992,490.966v 7.09741" fill="none" stroke="black"/>
<path d="M335.843,490.966v 7.09741" fill="none" stroke="black"/>
<path d="M350.693,490.966v 7.09741" fill="none" stroke="black"/>
<path d="M365.544,483.869v 14.1948" fill="none" stroke="black"/>
<path d="M380.395,490.966v 7.09741" fill="none" stroke="black"/>
<path d="M395.245,490.966v 7.09741" fill="none" stroke="black"/>
<path d="M410.096,490.966v 7.09741" fill="none" stroke="black"/>
<path d="M424.947,483.869v 14.1948" fill="none" stroke="black"/>
<path d="M439.797,490.966v 7.09741" fill="none" stroke="black"/>
<path d="M454.648,490.966v 7.09741" fill="none" stroke="black"/>
<path d="M469.498,490.966v 7.09741" fill="none" stroke="black"/>
<path d="M484.349,483.869v 14.1948" fill="none" stroke="black"/>
<path d="M499.2,490.966v 7.09741" fill="none" stroke="black"/>
<path d="M514.05,490.966v 7.09741" fill="none" stroke="black"/>
<path d="M528.901,490.966v 7.09741" fill="none" stroke="black"/>
<path d="M543.752,483.869v 14.1948" fill="none" stroke="black"/>
<path d="M543.752,483.869v 14.1948" fill="none" stroke="black"/>
<text xml:space="preserve" x="63.6174" y="513.956" fill="black" font-size="16.0105" font-family="Helvetica">0</text>
<text xml:space="preserve" x="117.154" y="513.956" fill="black" font-size="16.0105" font-family="Helvetica">0.2</text>
<text xml:space="preserve" x="176.327" y="513.956" fill="black" font-size="16.0105" font-family="Helvetica">0.4</text>
<text xml:space="preserve" x="235.499" y="513.956" fill="black" font-size="16.0105" font-family="Helvetica">0.6</text>
<text xml:space="preserve" x="295.236" y="513.956" fill="black" font-size="16.0105" font-family="Helvetica">0.8</text>
<text xml:space="preserve" x="362.298" y="513.956" fill="black" font-size="16.0105" font-family="Helvetica">1</text>
<text xml:space="preserve" x="414.144" y="513.956" fill="black" font-size="16.0105" font-family="Helvetica">1.2</text>
<text xml:space="preserve" x="473.317" y="513.956" fill="black" font-size="16.0105" font-family="Helvetica">1.4</text>
<text xml:space="preserve" x="532.489" y="513.956" fill="black" font-size="16.0105" font-family="Helvetica">1.6</text>
<text xml:space="preserve" x="548.268" y="537.625" fill="black" font-size="16.0105" font-family="Helvetica">)</text>
<text xml:space="preserve" x="542.633" y="532.553" fill="black" font-size="10.8403" font-family="Helvetica">2</text>
<text xml:space="preserve" x="533.616" y="537.625" fill="black" font-size="16.0105" font-family="Helvetica" font-style="oblique">c</text>
<text xml:space="preserve" x="487.405" y="537.625" fill="black" font-size="16.0105" font-family="Helvetica"> (GeV/</text>
<text xml:space="preserve" x="473.317" y="542.697" fill="black" font-size="10.8403" font-family="Helvetica">inv</text>
<text xml:space="preserve" x="459.792" y="537.625" fill="black" font-size="16.0105" font-family="Helvetica" font-style="oblique">m</text>
<path d="M68.5315,16.6021h 484.724" fill="none" stroke="black"/>
<path d="M68.5315,30.7969v -14.1948" fill="none" stroke="black"/>
<path d="M83.3821,23.6995v -7.09741" fill="none" stroke="black"/>
<path d="M98.2327,23.6995v -7.09741" fill="none" stroke="black"/>
<path d="M113.083,23.6995v -7.09741" fill="none" stroke="black"/>
<path d="M127.934,30.7969v -14.1948" fill="none" stroke="black"/>
<path d="M142.785,23.6995v -7.09741" fill="none" stroke="black"/>
<path d="M157.635,23.6995v -7.09741" fill="none" stroke="black"/>
<path d="M172.486,23.6995v -7.09741" fill="none" stroke="black"/>
<path d="M187.337,30.7969v -14.1948" fill="none" stroke="black"/>
<path d="M202.187,23.6995v -7.09741" fill="none" stroke="black"/>
<path d="M217.038,23.6995v -7.09741" fill="none" stroke="black"/>
<path d="M231.888,23.6995v -7.09741" fill="none" stroke="black"/>
<path d="M246.739,30.7969v -14.1948" fill="none" stroke="black"/>
<path d="M261.59,23.6995v -7.09741" fill="none" stroke="black"/>
<path d="M276.44,23.6995v -7.09741" fill="none" stroke="black"/>
<path d="M291.291,23.6995v -7.09741" fill="none" stroke="black"/>
<path d="M306.142,30.7969v -14.1948" fill="none" stroke="black"/>
<path d="M320.992,23.6995v -7.09741" fill="none" stroke="black"/>
<path d="M335.843,23.6995v -7.09741" fill="none" stroke="black"/>
<path d="M350.693,23.6995v -7.09741" fill="none" stroke="black"/>
<path d="M365.544,30.7969v -14.1948" fill="none" stroke="black"/>
<path d="M380.395,23.6995v -7.09741" fill="none" stroke="black"/>
<path d="M395.245,23.6995v -7.09741" fill="none" stroke="black"/>
<path d="M410.096,23.6995v -7.09741" fill="none" stroke="black"/>
<path d="M424.947,30.7969v -14.1948" fill="none" stroke="black"/>
<path d="M439.797,23.6995v -7.09741" fill="none" stroke="black"/>
<path d="M454.648,23.6995v -7.09741" fill="none" stroke="black"/>
<path d="M469.498,23.6995v -7.09741" fill="none" stroke="black"/>
<path d="M484.349,30.7969v -14.1948" fill="none" stroke="black"/>
<path d="M499.2,23.6995v -7.09741" fill="none" stroke="black"/>
<path d="M514.05,23.6995v -7.09741" fill="none" stroke="black"/>
<path d="M528.901,23.6995v -7.09741" fill="none" stroke="black"/>
<path d="M543.752,30.7969v -14.1948" fill="none" stroke="black"/>
<path d="M543.752,30.7969v -14.1948" fill="none" stroke="black"/>
<path d="M68.5315,498.064v -481.461" fill="none" stroke="black"/>
<path d="M83.3283,498.064h -14.7969" fill="none" stroke="black"/>
<path d="M75.9299,484.554h -7.39843" fill="none" stroke="black"/>
<path d="M75.9299,471.045h -7.39843" fill="none" stroke="black"/>
<path d="M75.9299,457.536h -7.39843" fill="none" stroke="black"/>
<path d="M75.9299,444.027h -7.39843" fill="none" stroke="black"/>
<path d="M83.3283,430.518h -14.7969" fill="none" stroke="black"/>
<path d="M75.9299,417.008h -7.39843" fill="none" stroke="black"/>
<path d="M75.9299,403.499h -7.39843" fill="none" stroke="black"/>
<path d="M75.9299,389.99h -7.39843" fill="none" stroke="black"/>
<path d="M75.9299,376.481h -7.39843" fill="none" stroke="black"/>
<path d="M83.3283,362.972h -14.7969" fill="none" stroke="black"/>
<path d="M75.9299,349.462h -7.39843" fill="none" stroke="black"/>
<path d="M75.9299,335.953h -7.39843" fill="none" stroke="black"/>
<path d="M75.9299,322.444h -7.39843" fill="none" stroke="black"/>
<path d="M75.9299,308.935h -7.39843" fill="none" stroke="black"/>
<path d="M83.3283,295.426h -14.7969" fill="none" stroke="black"/>
<path d="M75.9299,281.916h -7.39843" fill="none" stroke="black"/>
<path d="M75.9299,268.407h -7.39843" fill="none" stroke="black"/>
<path d="M75.9299,254.898h -7.39843" fill="none" stroke="black"/>
<path d="M75.9299,241.389h -7.39843" fill="none" stroke="black"/>
<path d="M83.3283,227.879h -14.7969" fill="none" stroke="black"/>
<path d="M75.9299,214.37h -7.39843" fill="none" stroke="black"/>
<path d="M75.9299,200.861h -7.39843" fill="none" stroke="black"/>
<path d="M75.9299,187.352h -7.39843" fill="none" stroke="black"/>
<path d="M75.9299,173.843h -7.39843" fill="none" stroke="black"/>
<path d="M83.3283,160.333h -14.7969" fill="none" stroke="black"/>
<path d="M75.9299,146.824h -7.39843" fill="none" stroke="black"/>
<path d="M75.9299,133.315h -7.39843" fill="none" stroke="black"/>
<path d="M75.9299,119.806h -7.39843" fill="none" stroke="black"/>
<path d="M75.9299,106.297h -7.39843" fill="none" stroke="black"/>
<path d="M83.3283,92.7874h -14.7969" fill="none" stroke="black"/>
<path d="M75.9299,79.2782h -7.39843" fill="none" stroke="black"/>
<path d="M75.9299,65.769h -7.39843" fill="none" stroke="black"/>
<path d="M75.9299,52.2598h -7.39843" fill="none" stroke="black"/>
<path d="M75.9299,38.7506h -7.39843" fill="none" stroke="black"/>
<path d="M83.3283,25.2413h -14.7969" fill="none" stroke="black"/>
<path d="M83.3283,25.2413h -14.7969" fill="none" stroke="black"/>
<text xml:space="preserve" x="56.8548" y="503.248" fill="black" font-size="16.0105" font-family="Helvetica">0</text>
<text xml:space="preserve" x="46.1474" y="435.622" fill="black" font-size="16.0105" font-family="Helvetica">0.1</text>
<text xml:space="preserve" x="43.8932" y="368.56" fill="black" font-size="16.0105" font-family="Helvetica">0.2</text>
<text xml:space="preserve" x="43.8932" y="300.935" fill="black" font-size="16.0105" font-family="Helvetica">0.3</text>
<text xml:space="preserve" x="43.8932" y="233.309" fill="black" font-size="16.0105" font-family="Helvetica">0.4</text>
<text xml:space="preserve" x="43.8932" y="165.683" fill="black" font-size="16.0105" font-family="Helvetica">0.5</text>
<text xml:space="preserve" x="43.8932" y="98.0573" fill="black" font-size="16.0105" font-family="Helvetica">0.6</text>
<text xml:space="preserve" x="43.8932" y="30.4316" fill="black" font-size="16.0105" font-family="Helvetica">0.7</text>
<g transform="rotate(-90,38.2577,98.0573)">
<text xml:space="preserve" x="38.2577" y="98.0573" fill="black" font-size="16.0105" font-family="Helvetica">background</text>
</g>
<g transform="rotate(-90,21.9148,98.0573)">
<text xml:space="preserve" x="21.9148" y="98.0573" fill="black" font-size="16.0105" font-family="Helvetica">same event</text>
</g>
<path d="M24.169,98.0573l 0.563548, -81.7144" fill="none" stroke="black" stroke-width="2"/>
<path d="M553.256,498.064v -481.461" fill="none" stroke="black"/>
<path d="M538.459,498.064h 14.7969" fill="none" stroke="black"/>
<path d="M545.857,484.554h 7.39843" fill="none" stroke="black"/>
<path d="M545.857,471.045h 7.39843" fill="none" stroke="black"/>
<path d="M545.857,457.536h 7.39843" fill="none" stroke="black"/>
<path d="M545.857,444.027h 7.39843" fill="none" stroke="black"/>
<path d="M538.459,430.518h 14.7969" fill="none" stroke="black"/>
<path d="M545.857,417.008h 7.39843" fill="none" stroke="black"/>
<path d="M545.857,403.499h 7.39843" fill="none" stroke="black"/>
<path d="M545.857,389.99h 7.39843" fill="none" stroke="black"/>
<path d="M545.857,376.481h 7.39843" fill="none" stroke="black"/>
<path d="M538.459,362.972h 14.7969" fill="none" stroke="black"/>
<path d="M545.857,349.462h 7.39843" fill="none" stroke="black"/>
<path d="M545.857,335.953h 7.39843" fill="none" stroke="black"/>
<path d="M545.857,322.444h 7.39843" fill="none" stroke="black"/>
<path d="M545.857,308.935h 7.39843" fill="none" stroke="black"/>
<path d="M538.459,295.426h 14.7969" fill="none" stroke="black"/>
<path d="M545.857,281.916h 7.39843" fill="none" stroke="black"/>
<path d="M545.857,268.407h 7.39843" fill="none" stroke="black"/>
<path d="M545.857,254.898h 7.39843" fill="none" stroke="black"/>
<path d="M545.857,241.389h 7.39843" fill="none" stroke="black"/>
<path d="M538.459,227.879h 14.7969" fill="none" stroke="black"/>
<path d="M545.857,214.37h 7.39843" fill="none" stroke="black"/>
<path d="M545.857,200.861h 7.39843" fill="none" stroke="black"/>
<path d="M545.857,187.352h 7.39843" fill="none" stroke="black"/>
<path d="M545.857,173.843h 7.39843" fill="none" stroke="black"/>
<path d="M538.459,160.333h 14.7969" fill="none" stroke="black"/>
<path d="M545.857,146.824h 7.39843" fill="none" stroke="black"/>
<path d="M545.857,133.315h 7.39843" fill="none" stroke="black"/>
<path d="M545.857,119.806h 7.39843" fill="none" stroke="black"/>
<path d="M545.857,106.297h 7.39843" fill="none" stroke="black"/>
<path d="M538.459,92.7874h 14.7969" fill="none" stroke="black"/>
<path d="M545.857,79.2782h 7.39843" fill="none" stroke="black"/>
<path d="M545.857,65.769h 7.39843" fill="none" stroke="black"/>
<path d="M545.857,52.2598h 7.39843" fill="none" stroke="black"/>
<path d="M545.857,38.7506h 7.39843" fill="none" stroke="black"/>
<path d="M538.459,25.2413h 14.7969" fill="none" stroke="black"/>
<path d="M538.459,25.2413h 14.7969" fill="none" stroke="black"/>
<g stroke="#333333" stroke-width="2" fill="none">
<circle cx="282.38" cy="267.015" r="5.63548"/>
</g>
<g stroke="#333333" stroke-width="2" fill="none">
<circle cx="291.885" cy="260.953" r="5.63548"/>
</g>
<g stroke="#333333" stroke-width="2" fill="none">
<circle cx="301.389" cy="263.312" r="5.63548"/>
</g>
<g stroke="#333333" stroke-width="2" fill="none">
<circle cx="310.894" cy="269.852" r="5.63548"/>
</g>
<g stroke="#333333" stroke-width="2" fill="none">
<circle cx="320.398" cy="275.593" r="5.63548"/>
</g>
<g stroke="#333333" stroke-width="2" fill="none">
<circle cx="329.902" cy="280.172" r="5.63548"/>
</g>
<path d="M128.142,218.726l 0.415817, 0.115566l 0.415817, 0.115566l 0.415817, 0.115566l 0.415817, 0.115566l 0.415817, 0.115566l 0.415817, 0.115566l 0.415817, 0.115566l 0.415817, 0.115566l 0.415817, 0.115566l 0.415817, 0.115566l 0.415817, 0.115566l
 0.415817, 0.115566l 0.415817, 0.115566l 0.415817, 0.115566l 0.415817, 0.115566l 0.415817, 0.115566l 0.415817, 0.115566l 0.415817, 0.115566l 0.415817, 0.115566l 0.415817, 0.115566l 0.415817, 0.115566l 0.415817, 0.115566l 0.415817, 0.115566l 0.415817,
 0.115566l 0.415817, 0.115566l 0.415817, 0.115566l 0.415817, 0.115566l 0.415817, 0.115566l 0.415817, 0.115566l 0.415817, 0.115566l 0.415817, 0.115566l 0.415817, 0.115566l 0.415817, 0.115566l 0.415817, 0.115566l 0.415817, 0.115566l 0.415817, 0.115566l
 0.415817, 0.115566l 0.415817, 0.115566l 0.415817, 0.115566l 0.415817, 0.115566l 0.415817, 0.115566l 0.415817, 0.115566l 0.415817, 0.115566l 0.415817, 0.115566l 0.415817, 0.115566l 0.415817, 0.115566l 0.415817, 0.115566l 0.415817, 0.115566l 0.415817,
 0.115566" fill="none" stroke="#33cccc" stroke-width="3"/>
<path d="M148.517,224.388l 0.415817, 0.115566l 0.415817, 0.115566l 0.415817, 0.115566l 0.415817, 0.115566l 0.415817, 0.115566l 0.415817, 0.115566l 0.415817, 0.115566l 0.415817, 0.115566l 0.415817, 0.115566l 0.415817, 0.115566l 0.415817, 0.115566l
 0.415817, 0.115566l 0.415817, 0.115566l 0.415817, 0.115566l 0.415817, 0.115566l 0.415817, 0.115566l 0.415817, 0.115566l 0.415817, 0.115566l 0.415817, 0.115566l 0.415817, 0.115566l 0.415817, 0.115566l 0.415817, 0.115566l 0.415817, 0.115566l 0.415817,
 0.115566l 0.415817, 0.115566l 0.415817, 0.115566l 0.415817, 0.115566l 0.415817, 0.115566l 0.415817, 0.115566l 0.415817, 0.115566l 0.415817, 0.115566l 0.415817, 0.115566l 0.415817, 0.115566l 0.415817, 0.115566l 0.415817, 0.115566l 0.415817, 0.115566l
 0.415817, 0.115566l 0.415817, 0.115566l 0.415817, 0.115566l 0.415817, 0.115566l 0.415817, 0.115566l 0.415817, 0.115566l 0.415817, 0.115566l 0.415817, 0.115566l 0.415817, 0.115566l 0.415817, 0.115566l 0.415817, 0.115566l 0.415817, 0.115566l 0.415817,
 0.115566" fill="none" stroke="#33cccc" stroke-width="3"/>
<path d="M168.892,230.051l 0.415817, 0.115566l 0.415817, 0.115566l 0.415817, 0.115566l 0.415817, 0.115566l 0.415817, 0.115566l 0.415817, 0.115566l 0.415817, 0.115566l 0.415817, 0.115566l 0.415817, 0.115566l 0.415817, 0.115566l 0.415817, 0.115566l
 0.415817, 0.115566l 0.415817, 0.115566l 0.415817, 0.115566l 0.415817, 0.115566l 0.415817, 0.115566l 0.415817, 0.115566l 0.415817, 0.115566l 0.415817, 0.115566l 0.415817, 0.115566l 0.415817, 0.115566l 0.415817, 0.115566l 0.415817, 0.115566l 0.415817,
 0.115566l 0.415817, 0.115566l 0.415817, 0.115566l 0.415817, 0.115566l 0.415817, 0.115566l 0.415817, 0.115566l 0.415817, 0.115566l 0.415817, 0.115566l 0.415817, 0.115566l 0.415817, 0.115566l 0.415817, 0.115566l 0.415817, 0.115566l 0.415817, 0.115566l
 0.415817, 0.115566l 0.415817, 0.115566l 0.415817, 0.115566l 0.415817, 0.115566l 0.415817, 0.115566l 0.415817, 0.115566l 0.415817, 0.115566l 0.415817, 0.115566l 0.415817, 0.115566l 0.415817, 0.115566l 0.415817, 0.115566l 0.415817, 0.115566l 0.415817,
 0.115566" fill="none" stroke="#33cccc" stroke-width="3"/>
<path d="M189.267,235.714l 0.415817, 0.115566l 0.415817, 0.115566l 0.415817, 0.115566l 0.415817, 0.115566l 0.415817, 0.115566l 0.415817, 0.115566l 0.415817, 0.115566l 0.415817, 0.115566l 0.415817, 0.115566l 0.415817, 0.115566l 0.415817, 0.115566l
 0.415817, 0.115566l 0.415817, 0.115566l 0.415817, 0.115566l 0.415817, 0.115566l 0.415817, 0.115566l 0.415817, 0.115566l 0.415817, 0.115566l 0.415817, 0.115566l 0.415817, 0.115566l 0.415817, 0.115566l 0.415817, 0.115566l 0.415817, 0.115566l 0.415817,
 0.115566l 0.415817, 0.115566l 0.415817, 0.115566l 0.415817, 0.115566l 0.415817, 0.115566l 0.415817, 0.115566l 0.415817, 0.115566l 0.415817, 0.115566l 0.415817, 0.115566l 0.415817, 0.115566l 0.415817, 0.115566l 0.415817, 0.115566l 0.415817, 0.115566l
 0.415817, 0.115566l 0.415817, 0.115566l 0.415817, 0.115566l 0.415817, 0.115566l 0.415817, 0.115566l 0.415817, 0.115566l 0.415817, 0.115566l 0.415817, 0.115566l 0.415817, 0.115566l 0.415817, 0.115566l 0.415817, 0.115566l 0.415817, 0.115566l 0.415817,
 0.115566" fill="none" stroke="#33cccc" stroke-width="3"/>
<path d="M209.642,241.377l 0.415817, 0.115566l 0.415817, 0.115566l 0.415817, 0.115566l 0.415817, 0.115566l 0.415817, 0.115566l 0.415817, 0.115566l 0.415817, 0.115566l 0.415817, 0.115566l 0.415817, 0.115566l 0.415817, 0.115566l 0.415817, 0.115566l
 0.415817, 0.115566l 0.415817, 0.115566l 0.415817, 0.115566l 0.415817, 0.115566l 0.415817, 0.115566l 0.415817, 0.115566l 0.415817, 0.115566l 0.415817, 0.115566l 0.415817, 0.115566l 0.415817, 0.115566l 0.415817, 0.115566l 0.415817, 0.115566l 0.415817,
 0.115566l 0.415817, 0.115566l 0.415817, 0.115566l 0.415817, 0.115566l 0.415817, 0.115566l 0.415817, 0.115566l 0.415817, 0.115566l 0.415817, 0.115566l 0.415817, 0.115566l 0.415817, 0.115566l 0.415817, 0.115566l 0.415817, 0.115566l 0.415817, 0.115566l
 0.415817, 0.115566l 0.415817, 0.115566l 0.415817, 0.115566l 0.415817, 0.115566l 0.415817, 0.115566l 0.415817, 0.115566l 0.415817, 0.115566l 0.415817, 0.115566l 0.415817, 0.115566l 0.415817, 0.115566l 0.415817, 0.115566l 0.415817, 0.115566l 0.415817,
 0.115566" fill="none" stroke="#33cccc" stroke-width="3"/>
<path d="M230.017,247.039l 0.415817, 0.115566l 0.415817, 0.115566l 0.415817, 0.115566l 0.415817, 0.115566l 0.415817, 0.115566l 0.415817, 0.115566l 0.415817, 0.115566l 0.415817, 0.115566l 0.415817, 0.115566l 0.415817, 0.115566l 0.415817, 0.115566l
 0.415817, 0.115566l 0.415817, 0.115566l 0.415817, 0.115566l 0.415817, 0.115566l 0.415817, 0.115566l 0.415817, 0.115566l 0.415817, 0.115566l 0.415817, 0.115566l 0.415817, 0.115566l 0.415817, 0.115566l 0.415817, 0.115566l 0.415817, 0.115566l 0.415817,
 0.115566l 0.415817, 0.115566l 0.415817, 0.115566l 0.415817, 0.115566l 0.415817, 0.115566l 0.415817, 0.115566l 0.415817, 0.115566l 0.415817, 0.115566l 0.415817, 0.115566l 0.415817, 0.115566l 0.415817, 0.115566l 0.415817, 0.115566l 0.415817, 0.115566l
 0.415817, 0.115566l 0.415817, 0.115566l 0.415817, 0.115566l 0.415817, 0.115566l 0.415817, 0.115566l 0.415817, 0.115566l 0.415817, 0.115566l 0.415817, 0.115566l 0.415817, 0.115566l 0.415817, 0.115566l 0.415817, 0.115566l 0.415817, 0.115566l 0.415817,
 0.115566" fill="none" stroke="#33cccc" stroke-width="3"/>
<path d="M250.392,252.702l 0.415817, 0.115566l 0.415817, 0.115566l 0.415817, 0.115566l 0.415817, 0.115566l 0.415817, 0.115566l 0.415817, 0.115566l 0.415817, 0.115566l 0.415817, 0.115566l 0.415817, 0.115566l 0.415817, 0.115566l 0.415817, 0.115566l
 0.415817, 0.115566l 0.415817, 0.115566l 0.415817, 0.115566l 0.415817, 0.115566l 0.415817, 0.115566l 0.415817, 0.115566l 0.415817, 0.115566l 0.415817, 0.115566l 0.415817, 0.115566l 0.415817, 0.115566l 0.415817, 0.115566l 0.415817, 0.115566l 0.415817,
 0.115566l 0.415817, 0.115566l 0.415817, 0.115566l 0.415817, 0.115566l 0.415817, 0.115566l 0.415817, 0.115566l 0.415817, 0.115566l 0.415817, 0.115566l 0.415817, 0.115566l 0.415817, 0.115566l 0.415817, 0.115566l 0.415817, 0.115566l 0.415817, 0.115566l
 0.415817, 0.115566l 0.415817, 0.115566l 0.415817, 0.115566l 0.415817, 0.115566l 0.415817, 0.115566l 0.415817, 0.115566l 0.415817, 0.115566l 0.415817, 0.115566l 0.415817, 0.115566l 0.415817, 0.115566l 0.415817, 0.115566l 0.415817, 0.115566l 0.415817,
 0.115566" fill="none" stroke="#33cccc" stroke-width="3"/>
<path d="M270.767,258.365l 0.415817, 0.115566l 0.415817, 0.115566l 0.415817, 0.115566l 0.415817, 0.115566l 0.415817, 0.115566l 0.415817, 0.115566l 0.415817, 0.115566l 0.415817, 0.115566l 0.415817, 0.115566l 0.415817, 0.115566l 0.415817, 0.115566l
 0.415817, 0.115566l 0.415817, 0.115566l 0.415817, 0.115566l 0.415817, 0.115566l 0.415817, 0.115566l 0.415817, 0.115566l 0.415817, 0.115566l 0.415817, 0.115566l 0.415817, 0.115566l 0.415817, 0.115566l 0.415817, 0.115566l 0.415817, 0.115566l 0.415817,
 0.115566l 0.415817, 0.115566l 0.415817, 0.115566l 0.415817, 0.115566l 0.415817, 0.115566l 0.415817, 0.115566l 0.415817, 0.115566l 0.415817, 0.115566l 0.415817, 0.115566l 0.415817, 0.115566l 0.415817, 0.115566l 0.415817, 0.115566l 0.415817, 0.115566l
 0.415817, 0.115566l 0.415817, 0.115566l 0.415817, 0.115566l 0.415817, 0.115566l 0.415817, 0.115566l 0.415817, 0.115566l 0.415817, 0.115566l 0.415817, 0.115566l 0.415817, 0.115566l 0.415817, 0.115566l 0.415817, 0.115566l 0.415817, 0.115566l 0.415817,
 0.115566" fill="none" stroke="#33cccc" stroke-width="3"/>
<path d="M291.142,264.028l 0.415817, 0.115566l 0.415817, 0.115566l 0.415817, 0.115566l 0.415817, 0.115566l 0.415817, 0.115566l 0.415817, 0.115566l 0.415817, 0.115566l 0.415817, 0.115566l 0.415817, 0.115566l 0.415817, 0.115566l 0.415817, 0.115566l
 0.415817, 0.115566l 0.415817, 0.115566l 0.415817, 0.115566l 0.415817, 0.115566l 0.415817, 0.115566l 0.415817, 0.115566l 0.415817, 0.115566l 0.415817, 0.115566l 0.415817, 0.115566l 0.415817, 0.115566l 0.415817, 0.115566l 0.415817, 0.115566l 0.415817,
 0.115566l 0.415817, 0.115566l 0.415817, 0.115566l 0.415817, 0.115566l 0.415817, 0.115566l 0.415817, 0.115566l 0.415817, 0.115566l 0.415817, 0.115566l 0.415817, 0.115566l 0.415817, 0.115566l 0.415817, 0.115566l 0.415817, 0.115566l 0.415817, 0.115566l
 0.415817, 0.115566l 0.415817, 0.115566l 0.415817, 0.115566l 0.415817, 0.115566l 0.415817, 0.115566l 0.415817, 0.115566l 0.415817, 0.115566l 0.415817, 0.115566l 0.415817, 0.115566l 0.415817, 0.115566l 0.415817, 0.115566l 0.415817, 0.115566l 0.415817,
 0.115566" fill="none" stroke="#33cccc" stroke-width="3"/>
<path d="M311.517,269.69l 0.415817, 0.115566l 0.415817, 0.115566l 0.415817, 0.115566l 0.415817, 0.115566l 0.415817, 0.115566l 0.415817, 0.115566l 0.415817, 0.115566l 0.415817, 0.115566l 0.415817, 0.115566l 0.415817, 0.115566l 0.415817, 0.115566l
 0.415817, 0.115566l 0.415817, 0.115566l 0.415817, 0.115566l 0.415817, 0.115566l 0.415817, 0.115566l 0.415817, 0.115566l 0.415817, 0.115566l 0.415817, 0.115566l 0.415817, 0.115566l 0.415817, 0.115566l 0.415817, 0.115566l 0.415817, 0.115566l 0.415817,
 0.115566l 0.415817, 0.115566l 0.415817, 0.115566l 0.415817, 0.115566l 0.415817, 0.115566l 0.415817, 0.115566l 0.415817, 0.115566l 0.415817, 0.115566l 0.415817, 0.115566l 0.415817, 0.115566l 0.415817, 0.115566l 0.415817, 0.115566l 0.415817, 0.115566l
 0.415817, 0.115566l 0.415817, 0.115566l 0.415817, 0.115566l 0.415817, 0.115566l 0.415817, 0.115566l 0.415817, 0.115566l 0.415817, 0.115566l 0.415817, 0.115566l 0.415817, 0.115566l 0.415817, 0.115566l 0.415817, 0.115566l 0.415817, 0.115566l 0.415817,
 0.115566" fill="none" stroke="#33cccc" stroke-width="3"/>
<path d="M331.892,275.353l 0.415817, 0.115566l 0.415817, 0.115566l 0.415817, 0.115566l 0.415817, 0.115566l 0.415817, 0.115566l 0.415817, 0.115566l 0.415817, 0.115566l 0.415817, 0.115566l 0.415817, 0.115566l 0.415817, 0.115566l 0.415817, 0.115566l
 0.415817, 0.115566l 0.415817, 0.115566l 0.415817, 0.115566l 0.415817, 0.115566l 0.415817, 0.115566l 0.415817, 0.115566l 0.415817, 0.115566l 0.415817, 0.115566l 0.415817, 0.115566l 0.415817, 0.115566l 0.415817, 0.115566l 0.415817, 0.115566l 0.415817,
 0.115566l 0.415817, 0.115566l 0.415817, 0.115566l 0.415817, 0.115566l 0.415817, 0.115566l 0.415817, 0.115566l 0.415817, 0.115566l 0.415817, 0.115566l 0.415817, 0.115566l 0.415817, 0.115566l 0.415817, 0.115566l 0.415817, 0.115566l 0.415817, 0.115566l
 0.415817, 0.115566l 0.415817, 0.115566l 0.415817, 0.115566l 0.415817, 0.115566l 0.415817, 0.115566l 0.415817, 0.115566l 0.415817, 0.115566l 0.415817, 0.115566l 0.415817, 0.115566l 0.415817, 0.115566l 0.415817, 0.115566l 0.415817, 0.115566l 0.415817,
 0.115566" fill="none" stroke="#33cccc" stroke-width="3"/>
<path d="M352.268,281.016l 0.415817, 0.115566l 0.415817, 0.115566l 0.415817, 0.115566l 0.415817, 0.115566l 0.415817, 0.115566l 0.415817, 0.115566l 0.415817, 0.115566l 0.415817, 0.115566l 0.415817, 0.115566l 0.415817, 0.115566l 0.415817, 0.115566l
 0.415817, 0.115566l 0.415817, 0.115566l 0.415817, 0.115566l 0.415817, 0.115566l 0.415817, 0.115566l 0.415817, 0.115566l 0.415817, 0.115566l 0.415817, 0.115566l 0.415817, 0.115566l 0.415817, 0.115566l 0.415817, 0.115566l 0.415817, 0.115566l 0.415817,
 0.115566l 0.415817, 0.115566l 0.415817, 0.115566l 0.415817, 0.115566l 0.415817, 0.115566l 0.415817, 0.115566l 0.415817, 0.115566l 0.415817, 0.115566l 0.415817, 0.115566l 0.415817, 0.115566l 0.415817, 0.115566l 0.415817, 0.115566l 0.415817, 0.115566l
 0.415817, 0.115566l 0.415817, 0.115566l 0.415817, 0.115566l 0.415817, 0.115566l 0.415817, 0.115566l 0.415817, 0.115566l 0.415817, 0.115566l 0.415817, 0.115566l 0.415817, 0.115566l 0.415817, 0.115566l 0.415817, 0.115566l 0.415817, 0.115566l 0.415817,
 0.115566" fill="none" stroke="#33cccc" stroke-width="3"/>
<path d="M372.643,286.678l 0.415817, 0.115566l 0.415817, 0.115566l 0.415817, 0.115566l 0.415817, 0.115566l 0.415817, 0.115566l 0.415817, 0.115566l 0.415817, 0.115566l 0.415817, 0.115566l 0.415817, 0.115566l 0.415817, 0.115566l 0.415817, 0.115566l
 0.415817, 0.115566l 0.415817, 0.115566l 0.415817, 0.115566l 0.415817, 0.115566l 0.415817, 0.115566l 0.415817, 0.115566l 0.415817, 0.115566l 0.415817, 0.115566l 0.415817, 0.115566l 0.415817, 0.115566l 0.415817, 0.115566l 0.415817, 0.115566l 0.415817,
 0.115566l 0.415817, 0.115566l 0.415817, 0.115566l 0.415817, 0.115566l 0.415817, 0.115566l 0.415817, 0.115566l 0.415817, 0.115566l 0.415817, 0.115566l 0.415817, 0.115566l 0.415817, 0.115566l 0.415817, 0.115566l 0.415817, 0.115566l 0.415817, 0.115566l
 0.415817, 0.115566l 0.415817, 0.115566l 0.415817, 0.115566l 0.415817, 0.115566l 0.415817, 0.115566l 0.415817, 0.115566l 0.415817, 0.115566l 0.415817, 0.115566l 0.415817, 0.115566l 0.415817, 0.115566l 0.415817, 0.115566l 0.415817, 0.115566l 0.415817,
 0.115566" fill="none" stroke="#33cccc" stroke-width="3"/>
<path d="M393.018,292.341l 0.415817, 0.115566l 0.415817, 0.115566l 0.415817, 0.115566l 0.415817, 0.115566l 0.415817, 0.115566l 0.415817, 0.115566l 0.415817, 0.115566l 0.415817, 0.115566l 0.415817, 0.115566l 0.415817, 0.115566l 0.415817, 0.115566l
 0.415817, 0.115566l 0.415817, 0.115566l 0.415817, 0.115566l 0.415817, 0.115566l 0.415817, 0.115566l 0.415817, 0.115566l 0.415817, 0.115566l 0.415817, 0.115566l 0.415817, 0.115566l 0.415817, 0.115566l 0.415817, 0.115566l 0.415817, 0.115566l 0.415817,
 0.115566l 0.415817, 0.115566l 0.415817, 0.115566l 0.415817, 0.115566l 0.415817, 0.115566l 0.415817, 0.115566l 0.415817, 0.115566l 0.415817, 0.115566l 0.415817, 0.115566l 0.415817, 0.115566l 0.415817, 0.115566l 0.415817, 0.115566l 0.415817, 0.115566l
 0.415817, 0.115566l 0.415817, 0.115566l 0.415817, 0.115566l 0.415817, 0.115566l 0.415817, 0.115566l 0.415817, 0.115566l 0.415817, 0.115566l 0.415817, 0.115566l 0.415817, 0.115566l 0.415817, 0.115566l 0.415817, 0.115566l 0.415817, 0.115566l 0.415817,
 0.115566" fill="none" stroke="#33cccc" stroke-width="3"/>
<path d="M413.393,298.004l 0.415817, 0.115566l 0.415817, 0.115566l 0.415817, 0.115566l 0.415817, 0.115566l 0.415817, 0.115566l 0.415817, 0.115566l 0.415817, 0.115566l 0.415817, 0.115566l 0.415817, 0.115566l 0.415817, 0.115566l 0.415817, 0.115566l
 0.415817, 0.115566l 0.415817, 0.115566l 0.415817, 0.115566l 0.415817, 0.115566l 0.415817, 0.115566l 0.415817, 0.115566l 0.415817, 0.115566l 0.415817, 0.115566l 0.415817, 0.115566l 0.415817, 0.115566l 0.415817, 0.115566l 0.415817, 0.115566l 0.415817,
 0.115566l 0.415817, 0.115566l 0.415817, 0.115566l 0.415817, 0.115566l 0.415817, 0.115566l 0.415817, 0.115566l 0.415817, 0.115566l 0.415817, 0.115566l 0.415817, 0.115566l 0.415817, 0.115566l 0.415817, 0.115566l 0.415817, 0.115566l 0.415817, 0.115566l
 0.415817, 0.115566l 0.415817, 0.115566l 0.415817, 0.115566l 0.415817, 0.115566l 0.415817, 0.115566l 0.415817, 0.115566l 0.415817, 0.115566l 0.415817, 0.115566l 0.415817, 0.115566l 0.415817, 0.115566l 0.415817, 0.115566l 0.415817, 0.115566l 0.415817,
 0.115566" fill="none" stroke="#33cccc" stroke-width="3"/>
<path d="M433.768,303.667l 0.415817, 0.115566l 0.415817, 0.115566l 0.415817, 0.115566l 0.415817, 0.115566l 0.415817, 0.115566l 0.415817, 0.115566l 0.415817, 0.115566l 0.415817, 0.115566l 0.415817, 0.115566l 0.415817, 0.115566l 0.415817, 0.115566l
 0.415817, 0.115566l 0.415817, 0.115566l 0.415817, 0.115566l 0.415817, 0.115566l 0.415817, 0.115566l 0.415817, 0.115566l 0.415817, 0.115566l 0.415817, 0.115566l 0.415817, 0.115566l 0.415817, 0.115566l 0.415817, 0.115566l 0.415817, 0.115566l 0.415817,
 0.115566l 0.415817, 0.115566l 0.415817, 0.115566l 0.415817, 0.115566l 0.415817, 0.115566l 0.415817, 0.115566l 0.415817, 0.115566l 0.415817, 0.115566l 0.415817, 0.115566l 0.415817, 0.115566l 0.415817, 0.115566l 0.415817, 0.115566l 0.415817, 0.115566l
 0.415817, 0.115566l 0.415817, 0.115566l 0.415817, 0.115566l 0.415817, 0.115566l 0.415817, 0.115566l 0.415817, 0.115566l 0.415817, 0.115566l 0.415817, 0.115566l 0.415817, 0.115566l 0.415817, 0.115566l 0.415817, 0.115566l 0.415817, 0.115566l 0.415817,
 0.115566" fill="none" stroke="#33cccc" stroke-width="3"/>
<path d="M454.143,309.329l 0.415817, 0.115566l 0.415817, 0.115566l 0.415817, 0.115566l 0.415817, 0.115566l 0.415817, 0.115566l 0.415817, 0.115566l 0.415817, 0.115566l 0.415817, 0.115566l 0.415817, 0.115566l 0.415817, 0.115566l 0.415817, 0.115566l
 0.415817, 0.115566l 0.415817, 0.115566l 0.415817, 0.115566l 0.415817, 0.115566l 0.415817, 0.115566l 0.415817, 0.115566l 0.415817, 0.115566l 0.415817, 0.115566l 0.415817, 0.115566l 0.415817, 0.115566l 0.415817, 0.115566l 0.415817, 0.115566l 0.415817,
 0.115566l 0.415817, 0.115566l 0.415817, 0.115566l 0.415817, 0.115566l 0.415817, 0.115566l 0.415817, 0.115566l 0.415817, 0.115566l 0.415817, 0.115566l 0.415817, 0.115566l 0.415817, 0.115566l 0.415817, 0.115566l 0.415817, 0.115566l 0.415817, 0.115566l
 0.415817, 0.115566l 0.415817, 0.115566l 0.415817, 0.115566l 0.415817, 0.115566l 0.415817, 0.115566l 0.415817, 0.115566l 0.415817, 0.115566l 0.415817, 0.115566l 0.415817, 0.115566l 0.415817, 0.115566l 0.415817, 0.115566l 0.415817, 0.115566l 0.415817,
 0.115566" fill="none" stroke="#33cccc" stroke-width="3"/>
<path d="M474.518,314.992l 0.415817, 0.115566l 0.415817, 0.115566l 0.415817, 0.115566l 0.415817, 0.115566l 0.415817, 0.115566l 0.415817, 0.115566l 0.415817, 0.115566l 0.415817, 0.115566l 0.415817, 0.115566l 0.415817, 0.115566l 0.415817, 0.115566l
 0.415817, 0.115566l 0.415817, 0.115566l 0.415817, 0.115566l 0.415817, 0.115566l 0.415817, 0.115566l 0.415817, 0.115566l 0.415817, 0.115566l 0.415817, 0.115566l 0.415817, 0.115566l 0.415817, 0.115566l 0.415817, 0.115566l 0.415817, 0.115566l 0.415817,
 0.115566l 0.415817, 0.115566l 0.415817, 0.115566l 0.415817, 0.115566l 0.415817, 0.115566l 0.415817, 0.115566l 0.415817, 0.115566l 0.415817, 0.115566l 0.415817, 0.115566l 0.415817, 0.115566l 0.415817, 0.115566l 0.415817, 0.115566l 0.415817, 0.115566l
 0.415817, 0.115566l 0.415817, 0.115566l 0.415817, 0.115566l 0.415817, 0.115566l 0.415817, 0.115566l 0.415817, 0.115566l 0.415817, 0.115566l 0.415817, 0.115566l 0.415817, 0.115566l 0.415817, 0.115566l 0.415817, 0.115566l 0.415817, 0.115566l 0.415817,
 0.115566" fill="none" stroke="#33cccc" stroke-width="3"/>
<path d="M494.893,320.655l 0.415817, 0.115566l 0.415817, 0.115566l 0.415817, 0.115566l 0.415817, 0.115566l 0.415817, 0.115566l 0.415817, 0.115566l 0.415817, 0.115566l 0.415817, 0.115566l 0.415817, 0.115566l 0.415817, 0.115566l 0.415817, 0.115566l
 0.415817, 0.115566l 0.415817, 0.115566l 0.415817, 0.115566l 0.415817, 0.115566l 0.415817, 0.115566l 0.415817, 0.115566l 0.415817, 0.115566l 0.415817, 0.115566l 0.415817, 0.115566l 0.415817, 0.115566l 0.415817, 0.115566l 0.415817, 0.115566l 0.415817,
 0.115566l 0.415817, 0.115566l 0.415817, 0.115566l 0.415817, 0.115566l 0.415817, 0.115566l 0.415817, 0.115566l 0.415817, 0.115566l 0.415817, 0.115566l 0.415817, 0.115566l 0.415817, 0.115566l 0.415817, 0.115566l 0.415817, 0.115566l 0.415817, 0.115566l
 0.415817, 0.115566l 0.415817, 0.115566l 0.415817, 0.115566l 0.415817, 0.115566l 0.415817, 0.115566l 0.415817, 0.115566l 0.415817, 0.115566l 0.415817, 0.115566l 0.415817, 0.115566l 0.415817, 0.115566l 0.415817, 0.115566l 0.415817, 0.115566l 0.415817,
 0.115566" fill="none" stroke="#33cccc" stroke-width="3"/>
<path d="M515.268,326.318l 0.415817, 0.115566l 0.415817, 0.115566l 0.415817, 0.115566l 0.415817, 0.115566l 0.415817, 0.115566l 0.415817, 0.115566l 0.415817, 0.115566l 0.415817, 0.115566l 0.415817, 0.115566l 0.415817, 0.115566l 0.415817, 0.115566l
 0.415817, 0.115566l 0.415817, 0.115566l 0.415817, 0.115566l 0.415817, 0.115566l 0.415817, 0.115566l 0.415817, 0.115566l 0.415817, 0.115566l 0.415817, 0.115566l 0.415817, 0.115566l 0.415817, 0.115566l 0.415817, 0.115566l 0.415817, 0.115566l 0.415817,
 0.115566l 0.415817, 0.115566l 0.415817, 0.115566l 0.415817, 0.115566l 0.415817, 0.115566l 0.415817, 0.115566l 0.415817, 0.115566l 0.415817, 0.115566l 0.415817, 0.115566l 0.415817, 0.115566l 0.415817, 0.115566l 0.415817, 0.115566l 0.415817, 0.115566l
 0.415817, 0.115566l 0.415817, 0.115566l 0.415817, 0.115566l 0.415817, 0.115566l 0.415817, 0.115566l 0.415817, 0.115566l 0.415817, 0.115566l 0.415817, 0.115566l 0.415817, 0.115566l 0.415817, 0.115566l 0.415817, 0.115566l 0.415817, 0.115566l 0.415817,
 0.115566" fill="none" stroke="#33cccc" stroke-width="3"/>
<path d="M535.643,331.98l 0.415817, 0.115566l 0.415817, 0.115566l 0.415817, 0.115566l 0.415817, 0.115566l 0.415817, 0.115566l 0.415817, 0.115566l 0.415817, 0.115566l 0.415817, 0.115566l 0.415817, 0.115566l 0.415817, 0.115566l 0.415817, 0.115566l
 0.415817, 0.115566l 0.415817, 0.115566l 0.415817, 0.115566l 0.415817, 0.115566l 0.415817, 0.115566l 0.415817, 0.115566l 0.415817, 0.115566l 0.415817, 0.115566" fill="none" stroke="#33cccc" stroke-width="3"/>
<path d="M128.142,170.262l 0.415817, 0.327076l 0.415817, 0.32665l 0.415817, 0.326224l 0.415817, 0.325798l 0.415817, 0.325372l 0.415817, 0.324946l 0.415817, 0.32452l 0.415817, 0.324095l 0.415817, 0.323669l 0.415817, 0.323243l 0.415817, 0.322817l
 0.415817, 0.322391l 0.415817, 0.321965l 0.415817, 0.321539l 0.415817, 0.321113l 0.415817, 0.320687l 0.415817, 0.320261l 0.415817, 0.319835l 0.415817, 0.319409l 0.415817, 0.318983l 0.415817, 0.318557l 0.415817, 0.318131l 0.415817, 0.317705l 0.415817,
 0.317279l 0.415817, 0.316853l 0.415817, 0.316427l 0.415817, 0.316001l 0.415817, 0.315575l 0.415817, 0.315149l 0.415817, 0.314723l 0.415817, 0.314297l 0.415817, 0.313871l 0.415817, 0.313445l 0.415817, 0.313019l 0.415817, 0.312593l 0.415817, 0.312167l
 0.415817, 0.311742l 0.415817, 0.311316l 0.415817, 0.31089l 0.415817, 0.310464l 0.415817, 0.310038l 0.415817, 0.309612l 0.415817, 0.309186l 0.415817, 0.30876l 0.415817, 0.308334l 0.415817, 0.307908l 0.415817, 0.307482l 0.415817, 0.307056l 0.415817,
 0.30663" fill="none" stroke="#ff0066" stroke-width="3"/>
<path d="M148.517,185.788l 0.415817, 0.306204l 0.415817, 0.305778l 0.415817, 0.305352l 0.415817, 0.304926l 0.415817, 0.3045l 0.415817, 0.304074l 0.415817, 0.303648l 0.415817, 0.303222l 0.415817, 0.302796l 0.415817, 0.30237l 0.415817, 0.301944l
 0.415817, 0.301518l 0.415817, 0.301092l 0.415817, 0.300666l 0.415817, 0.30024l 0.415817, 0.299815l 0.415817, 0.299389l 0.415817, 0.298963l 0.415817, 0.298537l 0.415817, 0.298111l 0.415817, 0.297685l 0.415817, 0.297259l 0.415817, 0.296833l 0.415817,
 0.296407l 0.415817, 0.295981l 0.415817, 0.295555l 0.415817, 0.295129l 0.415817, 0.294703l 0.415817, 0.294277l 0.415817, 0.293851l 0.415817, 0.293425l 0.415817, 0.292999l 0.415817, 0.292573l 0.415817, 0.292147l 0.415817, 0.291721l 0.415817, 0.291295l
 0.415817, 0.290869l 0.415817, 0.290443l 0.415817, 0.290017l 0.415817, 0.289591l 0.415817, 0.289165l 0.415817, 0.288739l 0.415817, 0.288313l 0.415817, 0.287887l 0.415817, 0.287462l 0.415817, 0.287036l 0.415817, 0.28661l 0.415817, 0.286184l 0.415817,
 0.285758" fill="none" stroke="#ff0066" stroke-width="3"/>
<path d="M168.892,200.291l 0.415817, 0.285332l 0.415817, 0.284906l 0.415817, 0.28448l 0.415817, 0.284054l 0.415817, 0.283628l 0.415817, 0.283202l 0.415817, 0.282776l 0.415817, 0.28235l 0.415817, 0.281924l 0.415817, 0.281498l 0.415817, 0.281072l
 0.415817, 0.280646l 0.415817, 0.28022l 0.415817, 0.279794l 0.415817, 0.279368l 0.415817, 0.278942l 0.415817, 0.278516l 0.415817, 0.27809l 0.415817, 0.277664l 0.415817, 0.277238l 0.415817, 0.276812l 0.415817, 0.276386l 0.415817, 0.27596l 0.415817,
 0.275535l 0.415817, 0.275109l 0.415817, 0.274683l 0.415817, 0.274257l 0.415817, 0.273831l 0.415817, 0.273405l 0.415817, 0.272979l 0.415817, 0.272553l 0.415817, 0.272127l 0.415817, 0.271701l 0.415817, 0.271275l 0.415817, 0.270849l 0.415817, 0.270423l
 0.415817, 0.269997l 0.415817, 0.269571l 0.415817, 0.269145l 0.415817, 0.268719l 0.415817, 0.268293l 0.415817, 0.267867l 0.415817, 0.267441l 0.415817, 0.267015l 0.415817, 0.266589l 0.415817, 0.266163l 0.415817, 0.265737l 0.415817, 0.265311l 0.415817,
 0.264885" fill="none" stroke="#ff0066" stroke-width="3"/>
<path d="M189.267,213.771l 0.415817, 0.264459l 0.415817, 0.264033l 0.415817, 0.263607l 0.415817, 0.263182l 0.415817, 0.262756l 0.415817, 0.26233l 0.415817, 0.261904l 0.415817, 0.261478l 0.415817, 0.261052l 0.415817, 0.260626l 0.415817, 0.2602l
 0.415817, 0.259774l 0.415817, 0.259348l 0.415817, 0.258922l 0.415817, 0.258496l 0.415817, 0.25807l 0.415817, 0.257644l 0.415817, 0.257218l 0.415817, 0.256792l 0.415817, 0.256366l 0.415817, 0.25594l 0.415817, 0.255514l 0.415817, 0.255088l 0.415817,
 0.254662l 0.415817, 0.254236l 0.415817, 0.25381l 0.415817, 0.253384l 0.415817, 0.252958l 0.415817, 0.252532l 0.415817, 0.252106l 0.415817, 0.25168l 0.415817, 0.251254l 0.415817, 0.250829l 0.415817, 0.250403l 0.415817, 0.249977l 0.415817, 0.249551l
 0.415817, 0.249125l 0.415817, 0.248699l 0.415817, 0.248273l 0.415817, 0.247847l 0.415817, 0.247421l 0.415817, 0.246995l 0.415817, 0.246569l 0.415817, 0.246143l 0.415817, 0.245717l 0.415817, 0.245291l 0.415817, 0.244865l 0.415817, 0.244439l 0.415817,
 0.244013" fill="none" stroke="#ff0066" stroke-width="3"/>
<path d="M209.642,226.229l 0.415817, 0.243587l 0.415817, 0.243161l 0.415817, 0.242735l 0.415817, 0.242309l 0.415817, 0.241883l 0.415817, 0.241457l 0.415817, 0.241031l 0.415817, 0.240605l 0.415817, 0.240179l 0.415817, 0.239753l 0.415817, 0.239327l
 0.415817, 0.238902l 0.415817, 0.238476l 0.415817, 0.23805l 0.415817, 0.237624l 0.415817, 0.237198l 0.415817, 0.236772l 0.415817, 0.236346l 0.415817, 0.23592l 0.415817, 0.235494l 0.415817, 0.235068l 0.415817, 0.234642l 0.415817, 0.234216l 0.415817,
 0.23379l 0.415817, 0.233364l 0.415817, 0.232938l 0.415817, 0.232512l 0.415817, 0.232086l 0.415817, 0.23166l 0.415817, 0.231234l 0.415817, 0.230808l 0.415817, 0.230382l 0.415817, 0.229956l 0.415817, 0.22953l 0.415817, 0.229104l 0.415817, 0.228678l
 0.415817, 0.228252l 0.415817, 0.227826l 0.415817, 0.2274l 0.415817, 0.226974l 0.415817, 0.226549l 0.415817, 0.226123l 0.415817, 0.225697l 0.415817, 0.225271l 0.415817, 0.224845l 0.415817, 0.224419l 0.415817, 0.223993l 0.415817, 0.223567l 0.415817,
 0.223141" fill="none" stroke="#ff0066" stroke-width="3"/>
<path d="M230.017,237.664l 0.415817, 0.222715l 0.415817, 0.222289l 0.415817, 0.221863l 0.415817, 0.221437l 0.415817, 0.221011l 0.415817, 0.220585l 0.415817, 0.220159l 0.415817, 0.219733l 0.415817, 0.219307l 0.415817, 0.218881l 0.415817, 0.218455l
 0.415817, 0.218029l 0.415817, 0.217603l 0.415817, 0.217177l 0.415817, 0.216751l 0.415817, 0.216325l 0.415817, 0.215899l 0.415817, 0.215473l 0.415817, 0.215047l 0.415817, 0.214621l 0.415817, 0.214196l 0.415817, 0.21377l 0.415817, 0.213344l 0.415817,
 0.212918l 0.415817, 0.212492l 0.415817, 0.212066l 0.415817, 0.21164l 0.415817, 0.211214l 0.415817, 0.210788l 0.415817, 0.210362l 0.415817, 0.209936l 0.415817, 0.20951l 0.415817, 0.209084l 0.415817, 0.208658l 0.415817, 0.208232l 0.415817, 0.207806l
 0.415817, 0.20738l 0.415817, 0.206954l 0.415817, 0.206528l 0.415817, 0.206102l 0.415817, 0.205676l 0.415817, 0.20525l 0.415817, 0.204824l 0.415817, 0.204398l 0.415817, 0.203972l 0.415817, 0.203546l 0.415817, 0.20312l 0.415817, 0.202694l 0.415817,
 0.202269" fill="none" stroke="#ff0066" stroke-width="3"/>
<path d="M250.392,248.076l 0.415817, 0.201843l 0.415817, 0.201417l 0.415817, 0.200991l 0.415817, 0.200565l 0.415817, 0.200139l 0.415817, 0.199713l 0.415817, 0.199287l 0.415817, 0.198861l 0.415817, 0.198435l 0.415817, 0.198009l 0.415817, 0.197583l
 0.415817, 0.197157l 0.415817, 0.196731l 0.415817, 0.196305l 0.415817, 0.195879l 0.415817, 0.195453l 0.415817, 0.195027l 0.415817, 0.194601l 0.415817, 0.194175l 0.415817, 0.193749l 0.415817, 0.193323l 0.415817, 0.192897l 0.415817, 0.192471l 0.415817,
 0.192045l 0.415817, 0.191619l 0.415817, 0.191193l 0.415817, 0.190767l 0.415817, 0.190342l 0.415817, 0.189916l 0.415817, 0.18949l 0.415817, 0.189064l 0.415817, 0.188638l 0.415817, 0.188212l 0.415817, 0.187786l 0.415817, 0.18736l 0.415817, 0.186934l
 0.415817, 0.186508l 0.415817, 0.186082l 0.415817, 0.185656l 0.415817, 0.18523l 0.415817, 0.184804l 0.415817, 0.184378l 0.415817, 0.183952l 0.415817, 0.183526l 0.415817, 0.1831l 0.415817, 0.182674l 0.415817, 0.182248l 0.415817, 0.181822l 0.415817,
 0.181396" fill="none" stroke="#ff0066" stroke-width="3"/>
<path d="M270.767,257.465l 0.415817, 0.18097l 0.415817, 0.180544l 0.415817, 0.180118l 0.415817, 0.179692l 0.415817, 0.179266l 0.415817, 0.17884l 0.415817, 0.178414l 0.415817, 0.177989l 0.415817, 0.177563l 0.415817, 0.177137l 0.415817, 0.176711l
 0.415817, 0.176285l 0.415817, 0.175859l 0.415817, 0.175433l 0.415817, 0.175007l 0.415817, 0.174581l 0.415817, 0.174155l 0.415817, 0.173729l 0.415817, 0.173303l 0.415817, 0.172877l 0.415817, 0.172451l 0.415817, 0.172025l 0.415817, 0.171599l 0.415817,
 0.171173l 0.415817, 0.170747l 0.415817, 0.170321l 0.415817, 0.169895l 0.415817, 0.169469l 0.415817, 0.169043l 0.415817, 0.168617l 0.415817, 0.168191l 0.415817, 0.167765l 0.415817, 0.167339l 0.415817, 0.166913l 0.415817, 0.166487l 0.415817, 0.166061l
 0.415817, 0.165636l 0.415817, 0.16521l 0.415817, 0.164784l 0.415817, 0.164358l 0.415817, 0.163932l 0.415817, 0.163506l 0.415817, 0.16308l 0.415817, 0.162654l 0.415817, 0.162228l 0.415817, 0.161802l 0.415817, 0.161376l 0.415817, 0.16095l 0.415817,
 0.160524" fill="none" stroke="#ff0066" stroke-width="3"/>
<path d="M291.142,265.832l 0.415817, 0.160098l 0.415817, 0.159672l 0.415817, 0.159246l 0.415817, 0.15882l 0.415817, 0.158394l 0.415817, 0.157968l 0.415817, 0.157542l 0.415817, 0.157116l 0.415817, 0.15669l 0.415817, 0.156264l 0.415817, 0.155838l
 0.415817, 0.155412l 0.415817, 0.154986l 0.415817, 0.15456l 0.415817, 0.154134l 0.415817, 0.153709l 0.415817, 0.153283l 0.415817, 0.152857l 0.415817, 0.152431l 0.415817, 0.152005l 0.415817, 0.151579l 0.415817, 0.151153l 0.415817, 0.150727l 0.415817,
 0.150301l 0.415817, 0.149875l 0.415817, 0.149449l 0.415817, 0.149023l 0.415817, 0.148597l 0.415817, 0.148171l 0.415817, 0.147745l 0.415817, 0.147319l 0.415817, 0.146893l 0.415817, 0.146467l 0.415817, 0.146041l 0.415817, 0.145615l 0.415817, 0.145189l
 0.415817, 0.144763l 0.415817, 0.144337l 0.415817, 0.143911l 0.415817, 0.143485l 0.415817, 0.143059l 0.415817, 0.142633l 0.415817, 0.142207l 0.415817, 0.141781l 0.415817, 0.141356l 0.415817, 0.14093l 0.415817, 0.140504l 0.415817, 0.140078l 0.415817,
 0.139652" fill="none" stroke="#ff0066" stroke-width="3"/>
<path d="M311.517,273.176l 0.415817, 0.139226l 0.415817, 0.1388l 0.415817, 0.138374l 0.415817, 0.137948l 0.415817, 0.137522l 0.415817, 0.137096l 0.415817, 0.13667l 0.415817, 0.136244l 0.415817, 0.135818l 0.415817, 0.135392l 0.415817, 0.134966l
 0.415817, 0.13454l 0.415817, 0.134114l 0.415817, 0.133688l 0.415817, 0.133262l 0.415817, 0.132836l 0.415817, 0.13241l 0.415817, 0.131984l 0.415817, 0.131558l 0.415817, 0.131132l 0.415817, 0.130706l 0.415817, 0.13028l 0.415817, 0.129854l 0.415817,
 0.129429l 0.415817, 0.129003l 0.415817, 0.128577l 0.415817, 0.128151l 0.415817, 0.127725l 0.415817, 0.127299l 0.415817, 0.126873l 0.415817, 0.126447l 0.415817, 0.126021l 0.415817, 0.125595l 0.415817, 0.125169l 0.415817, 0.124743l 0.415817, 0.124317l
 0.415817, 0.123891l 0.415817, 0.123465l 0.415817, 0.123039l 0.415817, 0.122613l 0.415817, 0.122187l 0.415817, 0.121761l 0.415817, 0.121335l 0.415817, 0.120909l 0.415817, 0.120483l 0.415817, 0.120057l 0.415817, 0.119631l 0.415817, 0.119205l 0.415817,
 0.118779" fill="none" stroke="#ff0066" stroke-width="3"/>
<path d="M331.892,279.497l 0.415817, 0.118353l 0.415817, 0.117927l 0.415817, 0.117501l 0.415817, 0.117076l 0.415817, 0.11665l 0.415817, 0.116224l 0.415817, 0.115798l 0.415817, 0.115372l 0.415817, 0.114946l 0.415817, 0.11452l 0.415817, 0.114094l
 0.415817, 0.113668l 0.415817, 0.113242l 0.415817, 0.112816l 0.415817, 0.11239l 0.415817, 0.111964l 0.415817, 0.111538l 0.415817, 0.111112l 0.415817, 0.110686l 0.415817, 0.11026l 0.415817, 0.109834l 0.415817, 0.109408l 0.415817, 0.108982l 0.415817,
 0.108556l 0.415817, 0.10813l 0.415817, 0.107704l 0.415817, 0.107278l 0.415817, 0.106852l 0.415817, 0.106426l 0.415817, 0.106l 0.415817, 0.105574l 0.415817, 0.105148l 0.415817, 0.104723l 0.415817, 0.104297l 0.415817, 0.103871l 0.415817, 0.103445l
 0.415817, 0.103019l 0.415817, 0.102593l 0.415817, 0.102167l 0.415817, 0.101741l 0.415817, 0.101315l 0.415817, 0.100889l 0.415817, 0.100463l 0.415817, 0.100037l 0.415817, 0.0996109l 0.415817, 0.099185l 0.415817, 0.098759l 0.415817, 0.0983331l
 0.415817, 0.0979071" fill="none" stroke="#ff0066" stroke-width="3"/>
<path d="M352.268,284.795l 0.415817, 0.0974811l 0.415817, 0.0970552l 0.415817, 0.0966292l 0.415817, 0.0962032l 0.415817, 0.0957773l 0.415817, 0.0953513l 0.415817, 0.0949253l 0.415817, 0.0944994l 0.415817, 0.0940734l 0.415817, 0.0936474l 0.415817,
 0.0932215l 0.415817, 0.0927955l 0.415817, 0.0923695l 0.415817, 0.0919436l 0.415817, 0.0915176l 0.415817, 0.0910916l 0.415817, 0.0906657l 0.415817, 0.0902397l 0.415817, 0.0898138l 0.415817, 0.0893878l 0.415817, 0.0889618l 0.415817, 0.0885359l
 0.415817, 0.0881099l 0.415817, 0.0876839l 0.415817, 0.087258l 0.415817, 0.086832l 0.415817, 0.086406l 0.415817, 0.0859801l 0.415817, 0.0855541l 0.415817, 0.0851281l 0.415817, 0.0847022l 0.415817, 0.0842762l 0.415817, 0.0838502l 0.415817, 0.0834243l
 0.415817, 0.0829983l 0.415817, 0.0825723l 0.415817, 0.0821464l 0.415817, 0.0817204l 0.415817, 0.0812944l 0.415817, 0.0808685l 0.415817, 0.0804425l 0.415817, 0.0800166l 0.415817, 0.0795906l 0.415817, 0.0791646l 0.415817, 0.0787387l 0.415817,
 0.0783127l 0.415817, 0.0778867l 0.415817, 0.0774608l 0.415817, 0.0770348" fill="none" stroke="#ff0066" stroke-width="3"/>
<path d="M372.643,289.071l 0.415817, 0.0766088l 0.415817, 0.0761829l 0.415817, 0.0757569l 0.415817, 0.0753309l 0.415817, 0.074905l 0.415817, 0.074479l 0.415817, 0.074053l 0.415817, 0.0736271l 0.415817, 0.0732011l 0.415817, 0.0727751l 0.415817,
 0.0723492l 0.415817, 0.0719232l 0.415817, 0.0714973l 0.415817, 0.0710713l 0.415817, 0.0706453l 0.415817, 0.0702194l 0.415817, 0.0697934l 0.415817, 0.0693674l 0.415817, 0.0689415l 0.415817, 0.0685155l 0.415817, 0.0680895l 0.415817, 0.0676636l
 0.415817, 0.0672376l 0.415817, 0.0668116l 0.415817, 0.0663857l 0.415817, 0.0659597l 0.415817, 0.0655337l 0.415817, 0.0651078l 0.415817, 0.0646818l 0.415817, 0.0642558l 0.415817, 0.0638299l 0.415817, 0.0634039l 0.415817, 0.062978l 0.415817, 0.062552l
 0.415817, 0.062126l 0.415817, 0.0617001l 0.415817, 0.0612741l 0.415817, 0.0608481l 0.415817, 0.0604222l 0.415817, 0.0599962l 0.415817, 0.0595702l 0.415817, 0.0591443l 0.415817, 0.0587183l 0.415817, 0.0582923l 0.415817, 0.0578664l 0.415817,
 0.0574404l 0.415817, 0.0570144l 0.415817, 0.0565885l 0.415817, 0.0561625" fill="none" stroke="#ff0066" stroke-width="3"/>
<path d="M393.018,292.324l 0.415817, 0.0557365l 0.415817, 0.0553106l 0.415817, 0.0548846l 0.415817, 0.0544587l 0.415817, 0.0540327l 0.415817, 0.0536067l 0.415817, 0.0531808l 0.415817, 0.0527548l 0.415817, 0.0523288l 0.415817, 0.0519029l 0.415817,
 0.0514769l 0.415817, 0.0510509l 0.415817, 0.050625l 0.415817, 0.050199l 0.415817, 0.049773l 0.415817, 0.0493471l 0.415817, 0.0489211l 0.415817, 0.0484951l 0.415817, 0.0480692l 0.415817, 0.0476432l 0.415817, 0.0472172l 0.415817, 0.0467913l 0.415817,
 0.0463653l 0.415817, 0.0459394l 0.415817, 0.0455134l 0.415817, 0.0450874l 0.415817, 0.0446615l 0.415817, 0.0442355l 0.415817, 0.0438095l 0.415817, 0.0433836l 0.415817, 0.0429576l 0.415817, 0.0425316l 0.415817, 0.0421057l 0.415817, 0.0416797l
 0.415817, 0.0412537l 0.415817, 0.0408278l 0.415817, 0.0404018l 0.415817, 0.0399758l 0.415817, 0.0395499l 0.415817, 0.0391239l 0.415817, 0.0386979l 0.415817, 0.038272l 0.415817, 0.037846l 0.415817, 0.0374201l 0.415817, 0.0369941l 0.415817, 0.0365681l
 0.415817, 0.0361422l 0.415817, 0.0357162l 0.415817, 0.0352902" fill="none" stroke="#ff0066" stroke-width="3"/>
<path d="M413.393,294.554l 0.415817, 0.0348643l 0.415817, 0.0344383l 0.415817, 0.0340123l 0.415817, 0.0335864l 0.415817, 0.0331604l 0.415817, 0.0327344l 0.415817, 0.0323085l 0.415817, 0.0318825l 0.415817, 0.0314565l 0.415817, 0.0310306l 0.415817,
 0.0306046l 0.415817, 0.0301786l 0.415817, 0.0297527l 0.415817, 0.0293267l 0.415817, 0.0289008l 0.415817, 0.0284748l 0.415817, 0.0280488l 0.415817, 0.0276229l 0.415817, 0.0271969l 0.415817, 0.0267709l 0.415817, 0.026345l 0.415817, 0.025919l 0.415817,
 0.025493l 0.415817, 0.0250671l 0.415817, 0.0246411l 0.415817, 0.0242151l 0.415817, 0.0237892l 0.415817, 0.0233632l 0.415817, 0.0229372l 0.415817, 0.0225113l 0.415817, 0.0220853l 0.415817, 0.0216593l 0.415817, 0.0212334l 0.415817, 0.0208074l
 0.415817, 0.0203815l 0.415817, 0.0199555l 0.415817, 0.0195295l 0.415817, 0.0191036l 0.415817, 0.0186776l 0.415817, 0.0182516l 0.415817, 0.0178257l 0.415817, 0.0173997l 0.415817, 0.0169737l 0.415817, 0.0165478l 0.415817, 0.0161218l 0.415817,
 0.0156958l 0.415817, 0.0152699l 0.415817, 0.0148439l 0.415817, 0.0144179" fill="none" stroke="#ff0066" stroke-width="3"/>
<path d="M433.768,295.761l 0.415817, 0.013992l 0.415817, 0.013566l 0.415817, 0.01314l 0.415817, 0.0127141l 0.415817, 0.0122881l 0.415817, 0.0118622l 0.415817, 0.0114362l 0.415817, 0.0110102l 0.415817, 0.0105843l 0.415817, 0.0101583l 0.415817,
 0.00973233l 0.415817, 0.00930636l 0.415817, 0.0088804l 0.415817, 0.00845443l 0.415817, 0.00802847l 0.415817, 0.0076025l 0.415817, 0.00717654l 0.415817, 0.00675057l 0.415817, 0.00632461l 0.415817, 0.00589864l 0.415817, 0.00547268l 0.415817,
 0.00504671l 0.415817, 0.00462075l 0.415817, 0.00419478l 0.415817, 0.00376882l 0.415817, 0.00334285l 0.415817, 0.00291689l 0.415817, 0.00249092l 0.415817, 0.00206496l 0.415817, 0.00163899l 0.415817, 0.00121303l 0.415817, 0.00078706l 0.415817,
 0.000361095l 0.415817, -6.487e-05l 0.415817, -0.000490835l 0.415817, -0.0009168l 0.415817, -0.00134277l 0.415817, -0.00176873l 0.415817, -0.0021947l 0.415817, -0.00262066l 0.415817, -0.00304663l 0.415817, -0.00347259l 0.415817, -0.00389856l
 0.415817, -0.00432452l 0.415817, -0.00475049l 0.415817, -0.00517645l 0.415817, -0.00560242l 0.415817, -0.00602838l 0.415817, -0.00645435" fill="none" stroke="#ff0066" stroke-width="3"/>
<path d="M454.143,295.946l 0.415817, -0.00688031l 0.415817, -0.00730628l 0.415817, -0.00773224l 0.415817, -0.00815821l 0.415817, -0.00858417l 0.415817, -0.00901014l 0.415817, -0.0094361l 0.415817, -0.00986207l 0.415817, -0.010288l 0.415817,
 -0.010714l 0.415817, -0.01114l 0.415817, -0.0115659l 0.415817, -0.0119919l 0.415817, -0.0124179l 0.415817, -0.0128438l 0.415817, -0.0132698l 0.415817, -0.0136958l 0.415817, -0.0141217l 0.415817, -0.0145477l 0.415817, -0.0149736l 0.415817,
 -0.0153996l 0.415817, -0.0158256l 0.415817, -0.0162515l 0.415817, -0.0166775l 0.415817, -0.0171035l 0.415817, -0.0175294l 0.415817, -0.0179554l 0.415817, -0.0183814l 0.415817, -0.0188073l 0.415817, -0.0192333l 0.415817, -0.0196593l 0.415817,
 -0.0200852l 0.415817, -0.0205112l 0.415817, -0.0209372l 0.415817, -0.0213631l 0.415817, -0.0217891l 0.415817, -0.0222151l 0.415817, -0.022641l 0.415817, -0.023067l 0.415817, -0.0234929l 0.415817, -0.0239189l 0.415817, -0.0243449l 0.415817,
 -0.0247708l 0.415817, -0.0251968l 0.415817, -0.0256228l 0.415817, -0.0260487l 0.415817, -0.0264747l 0.415817, -0.0269007l 0.415817, -0.0273266" fill="none" stroke="#ff0066" stroke-width="3"/>
<path d="M474.518,295.108l 0.415817, -0.0277526l 0.415817, -0.0281786l 0.415817, -0.0286045l 0.415817, -0.0290305l 0.415817, -0.0294565l 0.415817, -0.0298824l 0.415817, -0.0303084l 0.415817, -0.0307344l 0.415817, -0.0311603l 0.415817, -0.0315863l
 0.415817, -0.0320122l 0.415817, -0.0324382l 0.415817, -0.0328642l 0.415817, -0.0332901l 0.415817, -0.0337161l 0.415817, -0.0341421l 0.415817, -0.034568l 0.415817, -0.034994l 0.415817, -0.03542l 0.415817, -0.0358459l 0.415817, -0.0362719l 0.415817,
 -0.0366979l 0.415817, -0.0371238l 0.415817, -0.0375498l 0.415817, -0.0379758l 0.415817, -0.0384017l 0.415817, -0.0388277l 0.415817, -0.0392537l 0.415817, -0.0396796l 0.415817, -0.0401056l 0.415817, -0.0405315l 0.415817, -0.0409575l 0.415817,
 -0.0413835l 0.415817, -0.0418094l 0.415817, -0.0422354l 0.415817, -0.0426614l 0.415817, -0.0430873l 0.415817, -0.0435133l 0.415817, -0.0439393l 0.415817, -0.0443652l 0.415817, -0.0447912l 0.415817, -0.0452172l 0.415817, -0.0456431l 0.415817,
 -0.0460691l 0.415817, -0.0464951l 0.415817, -0.046921l 0.415817, -0.047347l 0.415817, -0.047773l 0.415817, -0.0481989" fill="none" stroke="#ff0066" stroke-width="3"/>
<path d="M494.893,293.247l 0.415817, -0.0486249l 0.415817, -0.0490508l 0.415817, -0.0494768l 0.415817, -0.0499028l 0.415817, -0.0503287l 0.415817, -0.0507547l 0.415817, -0.0511807l 0.415817, -0.0516066l 0.415817, -0.0520326l 0.415817, -0.0524586l
 0.415817, -0.0528845l 0.415817, -0.0533105l 0.415817, -0.0537365l 0.415817, -0.0541624l 0.415817, -0.0545884l 0.415817, -0.0550144l 0.415817, -0.0554403l 0.415817, -0.0558663l 0.415817, -0.0562923l 0.415817, -0.0567182l 0.415817, -0.0571442l
 0.415817, -0.0575701l 0.415817, -0.0579961l 0.415817, -0.0584221l 0.415817, -0.058848l 0.415817, -0.059274l 0.415817, -0.0597l 0.415817, -0.0601259l 0.415817, -0.0605519l 0.415817, -0.0609779l 0.415817, -0.0614038l 0.415817, -0.0618298l 0.415817,
 -0.0622558l 0.415817, -0.0626817l 0.415817, -0.0631077l 0.415817, -0.0635337l 0.415817, -0.0639596l 0.415817, -0.0643856l 0.415817, -0.0648116l 0.415817, -0.0652375l 0.415817, -0.0656635l 0.415817, -0.0660895l 0.415817, -0.0665154l 0.415817,
 -0.0669414l 0.415817, -0.0673673l 0.415817, -0.0677933l 0.415817, -0.0682193l 0.415817, -0.0686452l 0.415817, -0.0690712" fill="none" stroke="#ff0066" stroke-width="3"/>
<path d="M515.268,290.364l 0.415817, -0.0694972l 0.415817, -0.0699231l 0.415817, -0.0703491l 0.415817, -0.0707751l 0.415817, -0.071201l 0.415817, -0.071627l 0.415817, -0.072053l 0.415817, -0.0724789l 0.415817, -0.0729049l 0.415817, -0.0733309l
 0.415817, -0.0737568l 0.415817, -0.0741828l 0.415817, -0.0746088l 0.415817, -0.0750347l 0.415817, -0.0754607l 0.415817, -0.0758866l 0.415817, -0.0763126l 0.415817, -0.0767386l 0.415817, -0.0771645l 0.415817, -0.0775905l 0.415817, -0.0780165l
 0.415817, -0.0784424l 0.415817, -0.0788684l 0.415817, -0.0792944l 0.415817, -0.0797203l 0.415817, -0.0801463l 0.415817, -0.0805723l 0.415817, -0.0809982l 0.415817, -0.0814242l 0.415817, -0.0818502l 0.415817, -0.0822761l 0.415817, -0.0827021l
 0.415817, -0.083128l 0.415817, -0.083554l 0.415817, -0.08398l 0.415817, -0.0844059l 0.415817, -0.0848319l 0.415817, -0.0852579l 0.415817, -0.0856838l 0.415817, -0.0861098l 0.415817, -0.0865358l 0.415817, -0.0869617l 0.415817, -0.0873877l 0.415817,
 -0.0878137l 0.415817, -0.0882396l 0.415817, -0.0886656l 0.415817, -0.0890916l 0.415817, -0.0895175l 0.415817, -0.0899435" fill="none" stroke="#ff0066" stroke-width="3"/>
<path d="M535.643,286.457l 0.415817, -0.0903695l 0.415817, -0.0907954l 0.415817, -0.0912214l 0.415817, -0.0916473l 0.415817, -0.0920733l 0.415817, -0.0924993l 0.415817, -0.0929252l 0.415817, -0.0933512l 0.415817, -0.0937772l 0.415817, -0.0942031l
 0.415817, -0.0946291l 0.415817, -0.0950551l 0.415817, -0.095481l 0.415817, -0.095907l 0.415817, -0.096333l 0.415817, -0.0967589l 0.415817, -0.0971849l 0.415817, -0.0976109l 0.415817, -0.0980368" fill="none" stroke="#ff0066" stroke-width="3"/>
<path d="M246.739,21.4167h 178.208" fill="none" stroke="#999999" stroke-width="7"/>
<text xml:space="preserve" x="360.607" y="50.7193" fill="black" font-size="16.0105" font-family="Helvetica"> with EMC</text>
<text xml:space="preserve" x="352.717" y="50.7193" fill="black" font-size="16.0105" font-family="Times">&#0947;</text>
<text xml:space="preserve" x="344.828" y="50.7193" fill="black" font-size="16.0105" font-family="Times">&#0947;</text>
<text xml:space="preserve" x="336.938" y="50.7193" fill="black" font-size="16.0105" font-family="Times">&#0947;</text>
<text xml:space="preserve" x="331.866" y="50.7193" fill="black" font-size="16.0105" font-family="Helvetica"> </text>
<text xml:space="preserve" x="316.65" y="50.7193" fill="black" font-size="16.0105" font-family="Times">&#8594;</text>
<text xml:space="preserve" x="311.578" y="50.7193" fill="black" font-size="16.0105" font-family="Helvetica"> </text>
<text xml:space="preserve" x="303.689" y="50.7193" fill="black" font-size="16.0105" font-family="Times">&#0947;</text>
<text xml:space="preserve" x="298.053" y="45.0838" fill="black" font-size="10.8403" font-family="Helvetica">0</text>
<text xml:space="preserve" x="289.6" y="50.7193" fill="black" font-size="16.0105" font-family="Times">&#0960;</text>
<text xml:space="preserve" x="284.528" y="50.7193" fill="black" font-size="16.0105" font-family="Helvetica"> </text>
<text xml:space="preserve" x="269.312" y="50.7193" fill="black" font-size="16.0105" font-family="Times">&#8594;</text>
<text xml:space="preserve" x="264.24" y="50.7193" fill="black" font-size="16.0105" font-family="Helvetica"> </text>
<text xml:space="preserve" x="252.969" y="50.7193" fill="black" font-size="16.0105" font-family="Times">&#0969;</text>
<text xml:space="preserve" x="128.989" y="50.7193" fill="black" font-size="16.0105" font-family="Helvetica"> = 13 TeV (EG1), </text>
<text xml:space="preserve" x="120.536" y="50.7193" fill="black" font-size="16.0105" font-family="Helvetica" font-style="oblique">s</text>
<path d="M114.9,41.7025l 1.69064, 9.58031" fill="none" stroke="black" stroke-width="2"/>
<path d="M116.591,51.2829l 2.25419, -14.0887" fill="none" stroke="black"/>
<path d="M118.845,37.1942h 10.1439" fill="none" stroke="black"/>
<text xml:space="preserve" x="89.5406" y="50.7193" fill="black" font-size="16.0105" font-family="Helvetica">pp </text>
<text xml:space="preserve" x="89.5406" y="85.6593" fill="black" font-size="16.0105" font-family="Helvetica">ALICE work in progress</text>
<text xml:space="preserve" x="214.085" y="120.599" fill="black" font-size="16.0105" font-family="Helvetica">) &lt; 32.0</text>
<text xml:space="preserve" x="205.068" y="120.599" fill="black" font-size="16.0105" font-family="Helvetica" font-style="oblique">c</text>
<text xml:space="preserve" x="154.912" y="120.599" fill="black" font-size="16.0105" font-family="Helvetica"> /(GeV/</text>
<text xml:space="preserve" x="148.15" y="128.489" fill="black" font-size="10.8403" font-family="Helvetica">T</text>
<text xml:space="preserve" x="138.569" y="120.599" fill="black" font-size="16.0105" font-family="Helvetica" font-style="oblique">p</text>
<text xml:space="preserve" x="133.497" y="120.599" fill="black" font-size="16.0105" font-family="Helvetica"> </text>
<text xml:space="preserve" x="125.044" y="120.599" fill="black" font-size="16.0105" font-family="Times">&#8804;</text>
<text xml:space="preserve" x="89.5406" y="120.599" fill="black" font-size="16.0105" font-family="Helvetica">28.0 </text>
<rect x="312.311" y="69.1755" width="198.425" height="113.448" fill="white"/>
<text xml:space="preserve" x="361.734" y="85.0957" fill="black" font-size="16.0105" font-family="Helvetica">ratio</text>
<path d="M319.752,80.5203h 34.7244" fill="none" stroke="black" stroke-width="2"/>
<g fill="black">
<circle cx="337.114" cy="80.5203" r="6.76257"/>
</g>
<text xml:space="preserve" x="361.734" y="108.201" fill="black" font-size="16.0105" font-family="Helvetica">peak range</text>
<path d="M319.752,103.21h 34.7244" fill="none" stroke="#333333" stroke-width="2"/>
<g stroke="#333333" stroke-width="2" fill="none">
<circle cx="337.114" cy="103.21" r="5.63548"/>
</g>
<text xml:space="preserve" x="361.734" y="130.743" fill="black" font-size="16.0105" font-family="Helvetica">background pol1</text>
<path d="M319.752,125.899h 34.7244" fill="none" stroke="#33cccc" stroke-width="3"/>
<text xml:space="preserve" x="361.734" y="153.285" fill="black" font-size="16.0105" font-family="Helvetica">background pol2</text>
<path d="M319.752,148.589h 34.7244" fill="none" stroke="#ff0066" stroke-width="3"/>
<text xml:space="preserve" x="361.734" y="175.827" fill="black" font-size="16.0105" font-family="Helvetica">param. range</text>
<path d="M319.752,171.279h 34.7244" fill="none" stroke="#999999" stroke-width="7"/></svg>
