<?xml version="1.0" standalone="no"?>
<svg width="567.429" height="553.904" viewBox="0 0 567.429 553.904" xmlns="http://www.w3.org/2000/svg" shape-rendering="crispEdges">
<title>
MC/EG1/CorrectedYieldsNCellRatio_Pol1.svg
</title>
<desc>
Creator: ROOT Version 6.20/08
CreationDate: Mon Mar 29 21:28:59 2021</desc>
<defs>
</defs>
<rect x="0.5" y="0" width="566.929" height="553.404" fill="white"/>
<rect x="85.5394" y="16.6021" width="467.717" height="481.461" fill="white"/>
<rect x="85.5394" y="16.6021" width="467.717" height="481.461" fill="none" stroke="black"/>
<rect x="85.5394" y="16.6021" width="467.717" height="481.461" fill="white"/>
<rect x="85.5394" y="16.6021" width="467.717" height="481.461" fill="none" stroke="black"/>
<path d="M108.925,498.064v -153.725" fill="none" stroke="#ff9900" stroke-width="2"/>
<path d="M108.925,330.814v -245.981" fill="none" stroke="#ff9900" stroke-width="2"/>
<path d="M85.5394,337.576h 16.6233" fill="none" stroke="#ff9900" stroke-width="2"/>
<path d="M115.688,337.576h 16.6233" fill="none" stroke="#ff9900" stroke-width="2"/>
<g stroke="#ff9900" stroke-width="2" fill="none">
<circle cx="108.925" cy="337.576" r="6.76257"/>
</g>
<path d="M155.697,368.835v -24.4958" fill="none" stroke="#ff9900" stroke-width="2"/>
<path d="M155.697,330.814v -24.4958" fill="none" stroke="#ff9900" stroke-width="2"/>
<path d="M132.311,337.576h 16.6233" fill="none" stroke="#ff9900" stroke-width="2"/>
<path d="M162.459,337.576h 16.6233" fill="none" stroke="#ff9900" stroke-width="2"/>
<g stroke="#ff9900" stroke-width="2" fill="none">
<circle cx="155.697" cy="337.576" r="6.76257"/>
</g>
<path d="M202.469,377.701v -33.3623" fill="none" stroke="#ff9900" stroke-width="2"/>
<path d="M202.469,330.814v -33.3623" fill="none" stroke="#ff9900" stroke-width="2"/>
<path d="M179.083,337.576h 16.6233" fill="none" stroke="#ff9900" stroke-width="2"/>
<path d="M209.231,337.576h 16.6233" fill="none" stroke="#ff9900" stroke-width="2"/>
<g stroke="#ff9900" stroke-width="2" fill="none">
<circle cx="202.469" cy="337.576" r="6.76257"/>
</g>
<path d="M249.24,375.638v -31.2994" fill="none" stroke="#ff9900" stroke-width="2"/>
<path d="M249.24,330.814v -31.2994" fill="none" stroke="#ff9900" stroke-width="2"/>
<path d="M225.854,337.576h 16.6233" fill="none" stroke="#ff9900" stroke-width="2"/>
<path d="M256.003,337.576h 16.6233" fill="none" stroke="#ff9900" stroke-width="2"/>
<g stroke="#ff9900" stroke-width="2" fill="none">
<circle cx="249.24" cy="337.576" r="6.76257"/>
</g>
<path d="M319.398,365.846v -21.5073" fill="none" stroke="#ff9900" stroke-width="2"/>
<path d="M319.398,330.814v -21.5073" fill="none" stroke="#ff9900" stroke-width="2"/>
<path d="M272.626,337.576h 40.0091" fill="none" stroke="#ff9900" stroke-width="2"/>
<path d="M326.16,337.576h 40.0091" fill="none" stroke="#ff9900" stroke-width="2"/>
<g stroke="#ff9900" stroke-width="2" fill="none">
<circle cx="319.398" cy="337.576" r="6.76257"/>
</g>
<path d="M366.169,337.576h 40.0091" fill="none" stroke="#ff9900" stroke-width="2"/>
<path d="M419.704,337.576h 40.0091" fill="none" stroke="#ff9900" stroke-width="2"/>
<g stroke="#ff9900" stroke-width="2" fill="none">
<circle cx="412.941" cy="337.576" r="6.76257"/>
</g>
<path d="M506.484,352.407v -8.06795" fill="none" stroke="#ff9900" stroke-width="2"/>
<path d="M506.484,330.814v -8.06795" fill="none" stroke="#ff9900" stroke-width="2"/>
<path d="M459.713,337.576h 40.0091" fill="none" stroke="#ff9900" stroke-width="2"/>
<path d="M513.247,337.576h 40.0091" fill="none" stroke="#ff9900" stroke-width="2"/>
<g stroke="#ff9900" stroke-width="2" fill="none">
<circle cx="506.484" cy="337.576" r="6.76257"/>
</g>
<path d="M85.5394,498.064h 467.717" fill="none" stroke="black"/>
<path d="M85.5394,484.367v 13.6967" fill="none" stroke="black"/>
<path d="M97.2323,491.215v 6.84837" fill="none" stroke="black"/>
<path d="M108.925,491.215v 6.84837" fill="none" stroke="black"/>
<path d="M120.618,491.215v 6.84837" fill="none" stroke="black"/>
<path d="M132.311,484.367v 13.6967" fill="none" stroke="black"/>
<path d="M144.004,491.215v 6.84837" fill="none" stroke="black"/>
<path d="M155.697,491.215v 6.84837" fill="none" stroke="black"/>
<path d="M167.39,491.215v 6.84837" fill="none" stroke="black"/>
<path d="M179.083,484.367v 13.6967" fill="none" stroke="black"/>
<path d="M190.776,491.215v 6.84837" fill="none" stroke="black"/>
<path d="M202.469,491.215v 6.84837" fill="none" stroke="black"/>
<path d="M214.161,491.215v 6.84837" fill="none" stroke="black"/>
<path d="M225.854,484.367v 13.6967" fill="none" stroke="black"/>
<path d="M237.547,491.215v 6.84837" fill="none" stroke="black"/>
<path d="M249.24,491.215v 6.84837" fill="none" stroke="black"/>
<path d="M260.933,491.215v 6.84837" fill="none" stroke="black"/>
<path d="M272.626,484.367v 13.6967" fill="none" stroke="black"/>
<path d="M284.319,491.215v 6.84837" fill="none" stroke="black"/>
<path d="M296.012,491.215v 6.84837" fill="none" stroke="black"/>
<path d="M307.705,491.215v 6.84837" fill="none" stroke="black"/>
<path d="M319.398,484.367v 13.6967" fill="none" stroke="black"/>
<path d="M331.091,491.215v 6.84837" fill="none" stroke="black"/>
<path d="M342.783,491.215v 6.84837" fill="none" stroke="black"/>
<path d="M354.476,491.215v 6.84837" fill="none" stroke="black"/>
<path d="M366.169,484.367v 13.6967" fill="none" stroke="black"/>
<path d="M377.862,491.215v 6.84837" fill="none" stroke="black"/>
<path d="M389.555,491.215v 6.84837" fill="none" stroke="black"/>
<path d="M401.248,491.215v 6.84837" fill="none" stroke="black"/>
<path d="M412.941,484.367v 13.6967" fill="none" stroke="black"/>
<path d="M424.634,491.215v 6.84837" fill="none" stroke="black"/>
<path d="M436.327,491.215v 6.84837" fill="none" stroke="black"/>
<path d="M448.02,491.215v 6.84837" fill="none" stroke="black"/>
<path d="M459.713,484.367v 13.6967" fill="none" stroke="black"/>
<path d="M471.406,491.215v 6.84837" fill="none" stroke="black"/>
<path d="M483.098,491.215v 6.84837" fill="none" stroke="black"/>
<path d="M494.791,491.215v 6.84837" fill="none" stroke="black"/>
<path d="M506.484,484.367v 13.6967" fill="none" stroke="black"/>
<path d="M518.177,491.215v 6.84837" fill="none" stroke="black"/>
<path d="M529.87,491.215v 6.84837" fill="none" stroke="black"/>
<path d="M541.563,491.215v 6.84837" fill="none" stroke="black"/>
<path d="M553.256,484.367v 13.6967" fill="none" stroke="black"/>
<text xml:space="preserve" x="76.579" y="513.956" fill="black" font-size="16.0105" font-family="Helvetica">12</text>
<text xml:space="preserve" x="122.79" y="513.956" fill="black" font-size="16.0105" font-family="Helvetica">14</text>
<text xml:space="preserve" x="170.128" y="513.956" fill="black" font-size="16.0105" font-family="Helvetica">16</text>
<text xml:space="preserve" x="216.902" y="513.956" fill="black" font-size="16.0105" font-family="Helvetica">18</text>
<text xml:space="preserve" x="263.677" y="513.956" fill="black" font-size="16.0105" font-family="Helvetica">20</text>
<text xml:space="preserve" x="310.451" y="513.956" fill="black" font-size="16.0105" font-family="Helvetica">22</text>
<text xml:space="preserve" x="356.662" y="513.956" fill="black" font-size="16.0105" font-family="Helvetica">24</text>
<text xml:space="preserve" x="404" y="513.956" fill="black" font-size="16.0105" font-family="Helvetica">26</text>
<text xml:space="preserve" x="450.775" y="513.956" fill="black" font-size="16.0105" font-family="Helvetica">28</text>
<text xml:space="preserve" x="497.549" y="513.956" fill="black" font-size="16.0105" font-family="Helvetica">30</text>
<text xml:space="preserve" x="544.324" y="513.956" fill="black" font-size="16.0105" font-family="Helvetica">32</text>
<text xml:space="preserve" x="548.268" y="532.553" fill="black" font-size="16.0105" font-family="Helvetica">)</text>
<text xml:space="preserve" x="539.252" y="532.553" fill="black" font-size="16.0105" font-family="Helvetica" font-style="oblique">c</text>
<text xml:space="preserve" x="493.041" y="532.553" fill="black" font-size="16.0105" font-family="Helvetica"> (GeV/</text>
<text xml:space="preserve" x="486.278" y="540.442" fill="black" font-size="10.8403" font-family="Helvetica">T</text>
<text xml:space="preserve" x="476.698" y="532.553" fill="black" font-size="16.0105" font-family="Helvetica" font-style="oblique">p</text>
<path d="M85.5394,16.6021h 467.717" fill="none" stroke="black"/>
<path d="M85.5394,30.2989v -13.6967" fill="none" stroke="black"/>
<path d="M97.2323,23.4505v -6.84837" fill="none" stroke="black"/>
<path d="M108.925,23.4505v -6.84837" fill="none" stroke="black"/>
<path d="M120.618,23.4505v -6.84837" fill="none" stroke="black"/>
<path d="M132.311,30.2989v -13.6967" fill="none" stroke="black"/>
<path d="M144.004,23.4505v -6.84837" fill="none" stroke="black"/>
<path d="M155.697,23.4505v -6.84837" fill="none" stroke="black"/>
<path d="M167.39,23.4505v -6.84837" fill="none" stroke="black"/>
<path d="M179.083,30.2989v -13.6967" fill="none" stroke="black"/>
<path d="M190.776,23.4505v -6.84837" fill="none" stroke="black"/>
<path d="M202.469,23.4505v -6.84837" fill="none" stroke="black"/>
<path d="M214.161,23.4505v -6.84837" fill="none" stroke="black"/>
<path d="M225.854,30.2989v -13.6967" fill="none" stroke="black"/>
<path d="M237.547,23.4505v -6.84837" fill="none" stroke="black"/>
<path d="M249.24,23.4505v -6.84837" fill="none" stroke="black"/>
<path d="M260.933,23.4505v -6.84837" fill="none" stroke="black"/>
<path d="M272.626,30.2989v -13.6967" fill="none" stroke="black"/>
<path d="M284.319,23.4505v -6.84837" fill="none" stroke="black"/>
<path d="M296.012,23.4505v -6.84837" fill="none" stroke="black"/>
<path d="M307.705,23.4505v -6.84837" fill="none" stroke="black"/>
<path d="M319.398,30.2989v -13.6967" fill="none" stroke="black"/>
<path d="M331.091,23.4505v -6.84837" fill="none" stroke="black"/>
<path d="M342.783,23.4505v -6.84837" fill="none" stroke="black"/>
<path d="M354.476,23.4505v -6.84837" fill="none" stroke="black"/>
<path d="M366.169,30.2989v -13.6967" fill="none" stroke="black"/>
<path d="M377.862,23.4505v -6.84837" fill="none" stroke="black"/>
<path d="M389.555,23.4505v -6.84837" fill="none" stroke="black"/>
<path d="M401.248,23.4505v -6.84837" fill="none" stroke="black"/>
<path d="M412.941,30.2989v -13.6967" fill="none" stroke="black"/>
<path d="M424.634,23.4505v -6.84837" fill="none" stroke="black"/>
<path d="M436.327,23.4505v -6.84837" fill="none" stroke="black"/>
<path d="M448.02,23.4505v -6.84837" fill="none" stroke="black"/>
<path d="M459.713,30.2989v -13.6967" fill="none" stroke="black"/>
<path d="M471.406,23.4505v -6.84837" fill="none" stroke="black"/>
<path d="M483.098,23.4505v -6.84837" fill="none" stroke="black"/>
<path d="M494.791,23.4505v -6.84837" fill="none" stroke="black"/>
<path d="M506.484,30.2989v -13.6967" fill="none" stroke="black"/>
<path d="M518.177,23.4505v -6.84837" fill="none" stroke="black"/>
<path d="M529.87,23.4505v -6.84837" fill="none" stroke="black"/>
<path d="M541.563,23.4505v -6.84837" fill="none" stroke="black"/>
<path d="M553.256,30.2989v -13.6967" fill="none" stroke="black"/>
<path d="M85.5394,498.064v -481.461" fill="none" stroke="black"/>
<path d="M100.336,498.064h -14.7969" fill="none" stroke="black"/>
<path d="M92.9378,482.015h -7.39843" fill="none" stroke="black"/>
<path d="M92.9378,465.966h -7.39843" fill="none" stroke="black"/>
<path d="M92.9378,449.917h -7.39843" fill="none" stroke="black"/>
<path d="M92.9378,433.869h -7.39843" fill="none" stroke="black"/>
<path d="M100.336,417.82h -14.7969" fill="none" stroke="black"/>
<path d="M92.9378,401.771h -7.39843" fill="none" stroke="black"/>
<path d="M92.9378,385.723h -7.39843" fill="none" stroke="black"/>
<path d="M92.9378,369.674h -7.39843" fill="none" stroke="black"/>
<path d="M92.9378,353.625h -7.39843" fill="none" stroke="black"/>
<path d="M100.336,337.576h -14.7969" fill="none" stroke="black"/>
<path d="M92.9378,321.528h -7.39843" fill="none" stroke="black"/>
<path d="M92.9378,305.479h -7.39843" fill="none" stroke="black"/>
<path d="M92.9378,289.43h -7.39843" fill="none" stroke="black"/>
<path d="M92.9378,273.382h -7.39843" fill="none" stroke="black"/>
<path d="M100.336,257.333h -14.7969" fill="none" stroke="black"/>
<path d="M92.9378,241.284h -7.39843" fill="none" stroke="black"/>
<path d="M92.9378,225.235h -7.39843" fill="none" stroke="black"/>
<path d="M92.9378,209.187h -7.39843" fill="none" stroke="black"/>
<path d="M92.9378,193.138h -7.39843" fill="none" stroke="black"/>
<path d="M100.336,177.089h -14.7969" fill="none" stroke="black"/>
<path d="M92.9378,161.041h -7.39843" fill="none" stroke="black"/>
<path d="M92.9378,144.992h -7.39843" fill="none" stroke="black"/>
<path d="M92.9378,128.943h -7.39843" fill="none" stroke="black"/>
<path d="M92.9378,112.894h -7.39843" fill="none" stroke="black"/>
<path d="M100.336,96.8457h -14.7969" fill="none" stroke="black"/>
<path d="M92.9378,80.797h -7.39843" fill="none" stroke="black"/>
<path d="M92.9378,64.7483h -7.39843" fill="none" stroke="black"/>
<path d="M92.9378,48.6996h -7.39843" fill="none" stroke="black"/>
<path d="M92.9378,32.6508h -7.39843" fill="none" stroke="black"/>
<path d="M100.336,16.6021h -14.7969" fill="none" stroke="black"/>
<text xml:space="preserve" x="73.7612" y="503.248" fill="black" font-size="16.0105" font-family="Helvetica">0</text>
<text xml:space="preserve" x="60.7996" y="423.224" fill="black" font-size="16.0105" font-family="Helvetica">0.5</text>
<text xml:space="preserve" x="76.579" y="343.764" fill="black" font-size="16.0105" font-family="Helvetica">1</text>
<text xml:space="preserve" x="60.7996" y="262.613" fill="black" font-size="16.0105" font-family="Helvetica">1.5</text>
<text xml:space="preserve" x="73.7612" y="183.153" fill="black" font-size="16.0105" font-family="Helvetica">2</text>
<text xml:space="preserve" x="60.7996" y="102.002" fill="black" font-size="16.0105" font-family="Helvetica">2.5</text>
<text xml:space="preserve" x="73.7612" y="21.9784" fill="black" font-size="16.0105" font-family="Helvetica">3</text>
<g transform="rotate(-90,47.838,131.87)">
<text xml:space="preserve" x="47.838" y="131.87" fill="black" font-size="16.0105" font-family="Helvetica">OmegaTGPSPS</text>
</g>
<g transform="rotate(-90,31.4951,99.748)">
<text xml:space="preserve" x="31.4951" y="99.748" fill="black" font-size="16.0105" font-family="Helvetica">method</text>
</g>
<path d="M33.7493,131.87l 0.563548, -115.527" fill="none" stroke="black" stroke-width="2"/>
<path d="M553.256,498.064v -481.461" fill="none" stroke="black"/>
<path d="M538.459,498.064h 14.7969" fill="none" stroke="black"/>
<path d="M545.857,482.015h 7.39843" fill="none" stroke="black"/>
<path d="M545.857,465.966h 7.39843" fill="none" stroke="black"/>
<path d="M545.857,449.917h 7.39843" fill="none" stroke="black"/>
<path d="M545.857,433.869h 7.39843" fill="none" stroke="black"/>
<path d="M538.459,417.82h 14.7969" fill="none" stroke="black"/>
<path d="M545.857,401.771h 7.39843" fill="none" stroke="black"/>
<path d="M545.857,385.723h 7.39843" fill="none" stroke="black"/>
<path d="M545.857,369.674h 7.39843" fill="none" stroke="black"/>
<path d="M545.857,353.625h 7.39843" fill="none" stroke="black"/>
<path d="M538.459,337.576h 14.7969" fill="none" stroke="black"/>
<path d="M545.857,321.528h 7.39843" fill="none" stroke="black"/>
<path d="M545.857,305.479h 7.39843" fill="none" stroke="black"/>
<path d="M545.857,289.43h 7.39843" fill="none" stroke="black"/>
<path d="M545.857,273.382h 7.39843" fill="none" stroke="black"/>
<path d="M538.459,257.333h 14.7969" fill="none" stroke="black"/>
<path d="M545.857,241.284h 7.39843" fill="none" stroke="black"/>
<path d="M545.857,225.235h 7.39843" fill="none" stroke="black"/>
<path d="M545.857,209.187h 7.39843" fill="none" stroke="black"/>
<path d="M545.857,193.138h 7.39843" fill="none" stroke="black"/>
<path d="M538.459,177.089h 14.7969" fill="none" stroke="black"/>
<path d="M545.857,161.041h 7.39843" fill="none" stroke="black"/>
<path d="M545.857,144.992h 7.39843" fill="none" stroke="black"/>
<path d="M545.857,128.943h 7.39843" fill="none" stroke="black"/>
<path d="M545.857,112.894h 7.39843" fill="none" stroke="black"/>
<path d="M538.459,96.8457h 14.7969" fill="none" stroke="black"/>
<path d="M545.857,80.797h 7.39843" fill="none" stroke="black"/>
<path d="M545.857,64.7483h 7.39843" fill="none" stroke="black"/>
<path d="M545.857,48.6996h 7.39843" fill="none" stroke="black"/>
<path d="M545.857,32.6508h 7.39843" fill="none" stroke="black"/>
<path d="M538.459,16.6021h 14.7969" fill="none" stroke="black"/>
<path d="M85.5394,337.576h 467.717" fill="none" stroke="#9900ff" stroke-width="2"/>
<path d="M132.311,337.576h 16.6233" fill="none" stroke="#33cc33" stroke-width="2"/>
<path d="M162.459,337.576h 16.6233" fill="none" stroke="#33cc33" stroke-width="2"/>
<g stroke="#33cc33" stroke-width="2" fill="none">
<circle cx="155.697" cy="337.576" r="6.76257"/>
</g>
<path d="M179.083,337.576h 16.6233" fill="none" stroke="#33cc33" stroke-width="2"/>
<path d="M209.231,337.576h 16.6233" fill="none" stroke="#33cc33" stroke-width="2"/>
<g stroke="#33cc33" stroke-width="2" fill="none">
<circle cx="202.469" cy="337.576" r="6.76257"/>
</g>
<path d="M249.24,367.047v -22.7084" fill="none" stroke="#33cc33" stroke-width="2"/>
<path d="M249.24,330.814v -22.7084" fill="none" stroke="#33cc33" stroke-width="2"/>
<path d="M225.854,337.576h 16.6233" fill="none" stroke="#33cc33" stroke-width="2"/>
<path d="M256.003,337.576h 16.6233" fill="none" stroke="#33cc33" stroke-width="2"/>
<g stroke="#33cc33" stroke-width="2" fill="none">
<circle cx="249.24" cy="337.576" r="6.76257"/>
</g>
<path d="M319.398,358.782v -14.4429" fill="none" stroke="#33cc33" stroke-width="2"/>
<path d="M319.398,330.814v -14.4429" fill="none" stroke="#33cc33" stroke-width="2"/>
<path d="M272.626,337.576h 40.0091" fill="none" stroke="#33cc33" stroke-width="2"/>
<path d="M326.16,337.576h 40.0091" fill="none" stroke="#33cc33" stroke-width="2"/>
<g stroke="#33cc33" stroke-width="2" fill="none">
<circle cx="319.398" cy="337.576" r="6.76257"/>
</g>
<path d="M366.169,337.576h 40.0091" fill="none" stroke="#33cc33" stroke-width="2"/>
<path d="M419.704,337.576h 40.0091" fill="none" stroke="#33cc33" stroke-width="2"/>
<g stroke="#33cc33" stroke-width="2" fill="none">
<circle cx="412.941" cy="337.576" r="6.76257"/>
</g>
<path d="M506.484,392.406v -48.0672" fill="none" stroke="#33cc33" stroke-width="2"/>
<path d="M506.484,330.814v -48.0672" fill="none" stroke="#33cc33" stroke-width="2"/>
<path d="M459.713,337.576h 40.0091" fill="none" stroke="#33cc33" stroke-width="2"/>
<path d="M513.247,337.576h 40.0091" fill="none" stroke="#33cc33" stroke-width="2"/>
<g stroke="#33cc33" stroke-width="2" fill="none">
<circle cx="506.484" cy="337.576" r="6.76257"/>
</g>
<path d="M85.5394,337.576h 16.6233" fill="none" stroke="#ff0066" stroke-width="2"/>
<path d="M115.688,337.576h 16.6233" fill="none" stroke="#ff0066" stroke-width="2"/>
<g stroke="#ff0066" stroke-width="2" fill="none">
<polygon points=" 108.925, 340.958 105.544, 344.339 102.163, 340.958 105.544, 337.576 102.163, 334.195 105.544, 330.814 108.925, 334.195 112.306, 330.814 115.688, 334.195 112.306, 337.576 115.688, 340.958 112.306, 344.339 108.925, 340.958"/>
</g>
<path d="M132.311,337.576h 16.6233" fill="none" stroke="#ff0066" stroke-width="2"/>
<path d="M162.459,337.576h 16.6233" fill="none" stroke="#ff0066" stroke-width="2"/>
<g stroke="#ff0066" stroke-width="2" fill="none">
<polygon points=" 155.697, 340.958 152.316, 344.339 148.934, 340.958 152.316, 337.576 148.934, 334.195 152.316, 330.814 155.697, 334.195 159.078, 330.814 162.459, 334.195 159.078, 337.576 162.459, 340.958 159.078, 344.339 155.697, 340.958"/>
</g>
<path d="M179.083,337.576h 16.6233" fill="none" stroke="#ff0066" stroke-width="2"/>
<path d="M209.231,337.576h 16.6233" fill="none" stroke="#ff0066" stroke-width="2"/>
<g stroke="#ff0066" stroke-width="2" fill="none">
<polygon points=" 202.469, 340.958 199.087, 344.339 195.706, 340.958 199.087, 337.576 195.706, 334.195 199.087, 330.814 202.469, 334.195 205.85, 330.814 209.231, 334.195 205.85, 337.576 209.231, 340.958 205.85, 344.339 202.469, 340.958"/>
</g>
<path d="M225.854,337.576h 16.6233" fill="none" stroke="#ff0066" stroke-width="2"/>
<path d="M256.003,337.576h 16.6233" fill="none" stroke="#ff0066" stroke-width="2"/>
<g stroke="#ff0066" stroke-width="2" fill="none">
<polygon points=" 249.24, 340.958 245.859, 344.339 242.478, 340.958 245.859, 337.576 242.478, 334.195 245.859, 330.814 249.24, 334.195 252.621, 330.814 256.003, 334.195 252.621, 337.576 256.003, 340.958 252.621, 344.339 249.24, 340.958"/>
</g>
<path d="M272.626,337.576h 40.0091" fill="none" stroke="#ff0066" stroke-width="2"/>
<path d="M326.16,337.576h 40.0091" fill="none" stroke="#ff0066" stroke-width="2"/>
<g stroke="#ff0066" stroke-width="2" fill="none">
<polygon points=" 319.398, 340.958 316.016, 344.339 312.635, 340.958 316.016, 337.576 312.635, 334.195 316.016, 330.814 319.398, 334.195 322.779, 330.814 326.16, 334.195 322.779, 337.576 326.16, 340.958 322.779, 344.339 319.398, 340.958"/>
</g>
<path d="M412.941,356.105v -11.7658" fill="none" stroke="#ff0066" stroke-width="2"/>
<path d="M412.941,330.814v -11.7658" fill="none" stroke="#ff0066" stroke-width="2"/>
<path d="M366.169,337.576h 40.0091" fill="none" stroke="#ff0066" stroke-width="2"/>
<path d="M419.704,337.576h 40.0091" fill="none" stroke="#ff0066" stroke-width="2"/>
<g stroke="#ff0066" stroke-width="2" fill="none">
<polygon points=" 412.941, 340.958 409.56, 344.339 406.178, 340.958 409.56, 337.576 406.178, 334.195 409.56, 330.814 412.941, 334.195 416.322, 330.814 419.704, 334.195 416.322, 337.576 419.704, 340.958 416.322, 344.339 412.941, 340.958"/>
</g>
<path d="M459.713,337.576h 40.0091" fill="none" stroke="#ff0066" stroke-width="2"/>
<path d="M513.247,337.576h 40.0091" fill="none" stroke="#ff0066" stroke-width="2"/>
<g stroke="#ff0066" stroke-width="2" fill="none">
<polygon points=" 506.484, 340.958 503.103, 344.339 499.722, 340.958 503.103, 337.576 499.722, 334.195 503.103, 330.814 506.484, 334.195 509.866, 330.814 513.247, 334.195 509.866, 337.576 513.247, 340.958 509.866, 344.339 506.484, 340.958"/>
</g>
<path d="M85.5394,337.576h 17.7503" fill="none" stroke="#0066ff" stroke-width="2"/>
<path d="M114.561,337.576h 17.7503" fill="none" stroke="#0066ff" stroke-width="2"/>
<g stroke="#0066ff" stroke-width="2" fill="none">
<polygon points=" 108.925, 340.394 106.107, 343.212 103.29, 340.394 106.107, 337.576 103.29, 334.759 106.107, 331.941 108.925, 334.759 111.743, 331.941 114.561, 334.759 111.743, 337.576 114.561, 340.394 111.743, 343.212 108.925, 340.394"/>
</g>
<path d="M132.311,337.576h 17.7503" fill="none" stroke="#0066ff" stroke-width="2"/>
<path d="M161.332,337.576h 17.7503" fill="none" stroke="#0066ff" stroke-width="2"/>
<g stroke="#0066ff" stroke-width="2" fill="none">
<polygon points=" 155.697, 340.394 152.879, 343.212 150.061, 340.394 152.879, 337.576 150.061, 334.759 152.879, 331.941 155.697, 334.759 158.515, 331.941 161.332, 334.759 158.515, 337.576 161.332, 340.394 158.515, 343.212 155.697, 340.394"/>
</g>
<path d="M202.469,349.395v -6.18312" fill="none" stroke="#0066ff" stroke-width="2"/>
<path d="M202.469,331.941v -6.18312" fill="none" stroke="#0066ff" stroke-width="2"/>
<path d="M179.083,337.576h 17.7503" fill="none" stroke="#0066ff" stroke-width="2"/>
<path d="M208.104,337.576h 17.7503" fill="none" stroke="#0066ff" stroke-width="2"/>
<g stroke="#0066ff" stroke-width="2" fill="none">
<polygon points=" 202.469, 340.394 199.651, 343.212 196.833, 340.394 199.651, 337.576 196.833, 334.759 199.651, 331.941 202.469, 334.759 205.286, 331.941 208.104, 334.759 205.286, 337.576 208.104, 340.394 205.286, 343.212 202.469, 340.394"/>
</g>
<path d="M249.24,344.667v -1.45467" fill="none" stroke="#0066ff" stroke-width="2"/>
<path d="M249.24,331.941v -1.45467" fill="none" stroke="#0066ff" stroke-width="2"/>
<path d="M225.854,337.576h 17.7503" fill="none" stroke="#0066ff" stroke-width="2"/>
<path d="M254.876,337.576h 17.7503" fill="none" stroke="#0066ff" stroke-width="2"/>
<g stroke="#0066ff" stroke-width="2" fill="none">
<polygon points=" 249.24, 340.394 246.422, 343.212 243.605, 340.394 246.422, 337.576 243.605, 334.759 246.422, 331.941 249.24, 334.759 252.058, 331.941 254.876, 334.759 252.058, 337.576 254.876, 340.394 252.058, 343.212 249.24, 340.394"/>
</g>
<path d="M319.398,346.07v -2.85774" fill="none" stroke="#0066ff" stroke-width="2"/>
<path d="M319.398,331.941v -2.85774" fill="none" stroke="#0066ff" stroke-width="2"/>
<path d="M272.626,337.576h 41.1362" fill="none" stroke="#0066ff" stroke-width="2"/>
<path d="M325.033,337.576h 41.1362" fill="none" stroke="#0066ff" stroke-width="2"/>
<g stroke="#0066ff" stroke-width="2" fill="none">
<polygon points=" 319.398, 340.394 316.58, 343.212 313.762, 340.394 316.58, 337.576 313.762, 334.759 316.58, 331.941 319.398, 334.759 322.215, 331.941 325.033, 334.759 322.215, 337.576 325.033, 340.394 322.215, 343.212 319.398, 340.394"/>
</g>
<path d="M366.169,337.576h 41.1362" fill="none" stroke="#0066ff" stroke-width="2"/>
<path d="M418.576,337.576h 41.1362" fill="none" stroke="#0066ff" stroke-width="2"/>
<g stroke="#0066ff" stroke-width="2" fill="none">
<polygon points=" 412.941, 340.394 410.123, 343.212 407.305, 340.394 410.123, 337.576 407.305, 334.759 410.123, 331.941 412.941, 334.759 415.759, 331.941 418.576, 334.759 415.759, 337.576 418.576, 340.394 415.759, 343.212 412.941, 340.394"/>
</g>
<path d="M506.484,349.009v -5.79735" fill="none" stroke="#0066ff" stroke-width="2"/>
<path d="M506.484,331.941v -5.79735" fill="none" stroke="#0066ff" stroke-width="2"/>
<path d="M459.713,337.576h 41.1362" fill="none" stroke="#0066ff" stroke-width="2"/>
<path d="M512.12,337.576h 41.1362" fill="none" stroke="#0066ff" stroke-width="2"/>
<g stroke="#0066ff" stroke-width="2" fill="none">
<polygon points=" 506.484, 340.394 503.667, 343.212 500.849, 340.394 503.667, 337.576 500.849, 334.759 503.667, 331.941 506.484, 334.759 509.302, 331.941 512.12, 334.759 509.302, 337.576 512.12, 340.394 509.302, 343.212 506.484, 340.394"/>
</g>
<text xml:space="preserve" x="349.9" y="63.1174" fill="black" font-size="16.0105" font-family="Helvetica"> with EMC</text>
<text xml:space="preserve" x="342.01" y="63.1174" fill="black" font-size="16.0105" font-family="Times">&#0947;</text>
<text xml:space="preserve" x="334.12" y="63.1174" fill="black" font-size="16.0105" font-family="Times">&#0947;</text>
<text xml:space="preserve" x="326.231" y="63.1174" fill="black" font-size="16.0105" font-family="Times">&#0947;</text>
<text xml:space="preserve" x="321.159" y="63.1174" fill="black" font-size="16.0105" font-family="Helvetica"> </text>
<text xml:space="preserve" x="305.943" y="63.1174" fill="black" font-size="16.0105" font-family="Times">&#8594;</text>
<text xml:space="preserve" x="300.871" y="63.1174" fill="black" font-size="16.0105" font-family="Helvetica"> </text>
<text xml:space="preserve" x="292.981" y="63.1174" fill="black" font-size="16.0105" font-family="Times">&#0947;</text>
<text xml:space="preserve" x="287.346" y="57.4819" fill="black" font-size="10.8403" font-family="Helvetica">0</text>
<text xml:space="preserve" x="278.893" y="63.1174" fill="black" font-size="16.0105" font-family="Times">&#0960;</text>
<text xml:space="preserve" x="273.821" y="63.1174" fill="black" font-size="16.0105" font-family="Helvetica"> </text>
<text xml:space="preserve" x="258.605" y="63.1174" fill="black" font-size="16.0105" font-family="Times">&#8594;</text>
<text xml:space="preserve" x="253.533" y="63.1174" fill="black" font-size="16.0105" font-family="Helvetica"> </text>
<text xml:space="preserve" x="242.262" y="63.1174" fill="black" font-size="16.0105" font-family="Times">&#0969;</text>
<text xml:space="preserve" x="128.989" y="63.1174" fill="black" font-size="16.0105" font-family="Helvetica"> = 13 TeV EG1, </text>
<text xml:space="preserve" x="120.536" y="63.1174" fill="black" font-size="16.0105" font-family="Helvetica" font-style="oblique">s</text>
<path d="M114.9,54.1006l 1.69064, 9.58031" fill="none" stroke="black" stroke-width="2"/>
<path d="M116.591,63.6809l 2.25419, -14.0887" fill="none" stroke="black"/>
<path d="M118.845,49.5922h 10.1439" fill="none" stroke="black"/>
<text xml:space="preserve" x="89.5406" y="63.1174" fill="black" font-size="16.0105" font-family="Helvetica">pp </text>
<text xml:space="preserve" x="89.5406" y="113.273" fill="black" font-size="16.0105" font-family="Helvetica">ALICE work in progress</text>
<rect x="283.965" y="69.1755" width="226.772" height="152.186" fill="white"/>
<text xml:space="preserve" x="340.319" y="87.3499" fill="black" font-size="16.0105" font-family="Helvetica">corrected yield ratio pol1</text>
<text xml:space="preserve" x="340.319" y="112.71" fill="black" font-size="16.0105" font-family="Helvetica">OmegaRotPS</text>
<path d="M292.469,107.222h 39.685" fill="none" stroke="#ff9900" stroke-width="2"/>
<g stroke="#ff9900" stroke-width="2" fill="none">
<circle cx="312.311" cy="107.222" r="6.76257"/>
</g>
<text xml:space="preserve" x="340.319" y="138.069" fill="black" font-size="16.0105" font-family="Helvetica">OmegaTGPSPS</text>
<path d="M292.469,132.586h 39.685" fill="none" stroke="#9900ff" stroke-width="2"/>
<g stroke="#9900ff" stroke-width="2" fill="none">
<circle cx="312.311" cy="132.586" r="6.76257"/>
</g>
<text xml:space="preserve" x="340.319" y="163.429" fill="black" font-size="16.0105" font-family="Helvetica">OmegaRotPSNCell</text>
<path d="M292.469,157.951h 39.685" fill="none" stroke="#33cc33" stroke-width="2"/>
<g stroke="#33cc33" stroke-width="2" fill="none">
<circle cx="312.311" cy="157.951" r="6.76257"/>
</g>
<text xml:space="preserve" x="340.319" y="188.789" fill="black" font-size="16.0105" font-family="Helvetica">OmegaTGPSPSNCell</text>
<path d="M292.469,183.315h 39.685" fill="none" stroke="#ff0066" stroke-width="2"/>
<g stroke="#ff0066" stroke-width="2" fill="none">
<polygon points=" 312.311, 186.696 308.93, 190.078 305.548, 186.696 308.93, 183.315 305.548, 179.934 308.93, 176.552 312.311, 179.934 315.692, 176.552 319.074, 179.934 315.692, 183.315 319.074, 186.696 315.692, 190.078 312.311, 186.696"/>
</g>
<text xml:space="preserve" x="340.319" y="214.148" fill="black" font-size="16.0105" font-family="Helvetica">OmegaTGPSPlusPSNCell</text>
<path d="M292.469,208.679h 39.685" fill="none" stroke="#0066ff" stroke-width="2"/>
<g stroke="#0066ff" stroke-width="2" fill="none">
<polygon points=" 312.311, 211.497 309.493, 214.315 306.676, 211.497 309.493, 208.679 306.676, 205.862 309.493, 203.044 312.311, 205.862 315.129, 203.044 317.947, 205.862 315.129, 208.679 317.947, 211.497 315.129, 214.315 312.311, 211.497"/>
</g></svg>
