<?xml version="1.0" standalone="no"?>
<svg width="567.429" height="553.904" viewBox="0 0 567.429 553.904" xmlns="http://www.w3.org/2000/svg" shape-rendering="crispEdges">
<title>
Data/EG1/OmegaTGPSPSNCell/SameEventToBackgroundRatio_08.svg
</title>
<desc>
Creator: ROOT Version 6.20/08
CreationDate: Mon Mar 29 21:31:17 2021</desc>
<defs>
</defs>
<rect x="0.5" y="0" width="566.929" height="553.404" fill="white"/>
<rect x="68.5315" y="16.6021" width="484.724" height="481.461" fill="white"/>
<rect x="68.5315" y="16.6021" width="484.724" height="481.461" fill="none" stroke="black"/>
<rect x="68.5315" y="16.6021" width="484.724" height="481.461" fill="white"/>
<rect x="68.5315" y="16.6021" width="484.724" height="481.461" fill="none" stroke="black"/>
<g fill="black">
<circle cx="109.325" cy="497.075" r="6.76257"/>
</g>
<g fill="black">
<circle cx="114.124" cy="437.643" r="6.76257"/>
</g>
<g fill="black">
<circle cx="118.924" cy="379.901" r="6.76257"/>
</g>
<g fill="black">
<circle cx="123.723" cy="400.579" r="6.76257"/>
</g>
<g fill="black">
<circle cx="128.522" cy="445.932" r="6.76257"/>
</g>
<g fill="black">
<circle cx="133.321" cy="474.333" r="6.76257"/>
</g>
<g fill="black">
<circle cx="138.121" cy="409.765" r="6.76257"/>
</g>
<g fill="black">
<circle cx="142.92" cy="386.589" r="6.76257"/>
</g>
<g fill="black">
<circle cx="147.719" cy="380.707" r="6.76257"/>
</g>
<g fill="black">
<circle cx="152.518" cy="366.709" r="6.76257"/>
</g>
<g fill="black">
<circle cx="157.318" cy="361.163" r="6.76257"/>
</g>
<g fill="black">
<circle cx="162.117" cy="359.427" r="6.76257"/>
</g>
<g fill="black">
<circle cx="166.916" cy="358.269" r="6.76257"/>
</g>
<g fill="black">
<circle cx="171.715" cy="359.238" r="6.76257"/>
</g>
<g fill="black">
<circle cx="176.515" cy="359.453" r="6.76257"/>
</g>
<g fill="black">
<circle cx="181.314" cy="358.265" r="6.76257"/>
</g>
<g fill="black">
<circle cx="186.113" cy="360.065" r="6.76257"/>
</g>
<g fill="black">
<circle cx="190.912" cy="359.335" r="6.76257"/>
</g>
<g fill="black">
<circle cx="195.712" cy="357.793" r="6.76257"/>
</g>
<g fill="black">
<circle cx="200.511" cy="358.006" r="6.76257"/>
</g>
<g fill="black">
<circle cx="205.31" cy="356.988" r="6.76257"/>
</g>
<g fill="black">
<circle cx="210.109" cy="357.47" r="6.76257"/>
</g>
<g fill="black">
<circle cx="214.909" cy="357.263" r="6.76257"/>
</g>
<g fill="black">
<circle cx="219.708" cy="357.093" r="6.76257"/>
</g>
<g fill="black">
<circle cx="224.507" cy="354.313" r="6.76257"/>
</g>
<g fill="black">
<circle cx="229.306" cy="351.457" r="6.76257"/>
</g>
<g fill="black">
<circle cx="234.106" cy="348.266" r="6.76257"/>
</g>
<g fill="black">
<circle cx="238.905" cy="344.748" r="6.76257"/>
</g>
<g fill="black">
<circle cx="243.704" cy="340.448" r="6.76257"/>
</g>
<g fill="black">
<circle cx="248.503" cy="335.94" r="6.76257"/>
</g>
<g fill="black">
<circle cx="253.303" cy="335.504" r="6.76257"/>
</g>
<g fill="black">
<circle cx="258.102" cy="333.021" r="6.76257"/>
</g>
<g fill="black">
<circle cx="262.901" cy="329.871" r="6.76257"/>
</g>
<g fill="black">
<circle cx="267.7" cy="329.657" r="6.76257"/>
</g>
<g fill="black">
<circle cx="272.5" cy="327.751" r="6.76257"/>
</g>
<g fill="black">
<circle cx="277.299" cy="325.505" r="6.76257"/>
</g>
<g fill="black">
<circle cx="339.689" cy="298.491" r="6.76257"/>
</g>
<g fill="black">
<circle cx="344.488" cy="299.418" r="6.76257"/>
</g>
<g fill="black">
<circle cx="349.288" cy="297.193" r="6.76257"/>
</g>
<g fill="black">
<circle cx="354.087" cy="298.495" r="6.76257"/>
</g>
<g fill="black">
<circle cx="358.886" cy="298.008" r="6.76257"/>
</g>
<g fill="black">
<circle cx="363.685" cy="292.869" r="6.76257"/>
</g>
<g fill="black">
<circle cx="368.485" cy="290.777" r="6.76257"/>
</g>
<g fill="black">
<circle cx="373.284" cy="292.571" r="6.76257"/>
</g>
<g fill="black">
<circle cx="378.083" cy="290.751" r="6.76257"/>
</g>
<g fill="black">
<circle cx="382.882" cy="286.833" r="6.76257"/>
</g>
<g fill="black">
<circle cx="387.682" cy="285.112" r="6.76257"/>
</g>
<g fill="black">
<circle cx="392.481" cy="282.961" r="6.76257"/>
</g>
<g fill="black">
<circle cx="397.28" cy="278.096" r="6.76257"/>
</g>
<g fill="black">
<circle cx="402.079" cy="278.673" r="6.76257"/>
</g>
<g fill="black">
<circle cx="406.879" cy="270.733" r="6.76257"/>
</g>
<g fill="black">
<circle cx="411.678" cy="267.231" r="6.76257"/>
</g>
<g fill="black">
<circle cx="416.477" cy="268.284" r="6.76257"/>
</g>
<g fill="black">
<circle cx="421.276" cy="268.707" r="6.76257"/>
</g>
<g fill="black">
<circle cx="426.076" cy="263.358" r="6.76257"/>
</g>
<g fill="black">
<circle cx="430.875" cy="259.04" r="6.76257"/>
</g>
<g fill="black">
<circle cx="435.674" cy="258.893" r="6.76257"/>
</g>
<g fill="black">
<circle cx="440.473" cy="256.187" r="6.76257"/>
</g>
<g fill="black">
<circle cx="445.273" cy="254.121" r="6.76257"/>
</g>
<g fill="black">
<circle cx="450.072" cy="252.944" r="6.76257"/>
</g>
<g fill="black">
<circle cx="454.871" cy="250.269" r="6.76257"/>
</g>
<g fill="black">
<circle cx="459.671" cy="250.366" r="6.76257"/>
</g>
<g fill="black">
<circle cx="464.47" cy="245.949" r="6.76257"/>
</g>
<g fill="black">
<circle cx="469.269" cy="245.516" r="6.76257"/>
</g>
<g fill="black">
<circle cx="474.068" cy="242.266" r="6.76257"/>
</g>
<g fill="black">
<circle cx="478.867" cy="244.416" r="6.76257"/>
</g>
<g fill="black">
<circle cx="483.667" cy="237.249" r="6.76257"/>
</g>
<g fill="black">
<circle cx="488.466" cy="240.74" r="6.76257"/>
</g>
<g fill="black">
<circle cx="493.265" cy="232.285" r="6.76257"/>
</g>
<g fill="black">
<circle cx="498.065" cy="230.626" r="6.76257"/>
</g>
<g fill="black">
<circle cx="502.864" cy="229.227" r="6.76257"/>
</g>
<g fill="black">
<circle cx="507.663" cy="222.548" r="6.76257"/>
</g>
<g fill="black">
<circle cx="512.462" cy="222.894" r="6.76257"/>
</g>
<g fill="black">
<circle cx="517.262" cy="220.723" r="6.76257"/>
</g>
<g fill="black">
<circle cx="522.061" cy="217.193" r="6.76257"/>
</g>
<g fill="black">
<circle cx="526.86" cy="212.703" r="6.76257"/>
</g>
<g fill="black">
<circle cx="531.659" cy="213.562" r="6.76257"/>
</g>
<g fill="black">
<circle cx="536.458" cy="207.967" r="6.76257"/>
</g>
<g fill="black">
<circle cx="541.258" cy="204.411" r="6.76257"/>
</g>
<g fill="black">
<circle cx="546.057" cy="197.15" r="6.76257"/>
</g>
<path d="M68.5315,498.064h 484.724" fill="none" stroke="black"/>
<path d="M68.5315,483.869v 14.1948" fill="none" stroke="black"/>
<path d="M83.5292,490.966v 7.09741" fill="none" stroke="black"/>
<path d="M98.5268,490.966v 7.09741" fill="none" stroke="black"/>
<path d="M113.524,490.966v 7.09741" fill="none" stroke="black"/>
<path d="M128.522,483.869v 14.1948" fill="none" stroke="black"/>
<path d="M143.52,490.966v 7.09741" fill="none" stroke="black"/>
<path d="M158.517,490.966v 7.09741" fill="none" stroke="black"/>
<path d="M173.515,490.966v 7.09741" fill="none" stroke="black"/>
<path d="M188.513,483.869v 14.1948" fill="none" stroke="black"/>
<path d="M203.51,490.966v 7.09741" fill="none" stroke="black"/>
<path d="M218.508,490.966v 7.09741" fill="none" stroke="black"/>
<path d="M233.506,490.966v 7.09741" fill="none" stroke="black"/>
<path d="M248.503,483.869v 14.1948" fill="none" stroke="black"/>
<path d="M263.501,490.966v 7.09741" fill="none" stroke="black"/>
<path d="M278.499,490.966v 7.09741" fill="none" stroke="black"/>
<path d="M293.496,490.966v 7.09741" fill="none" stroke="black"/>
<path d="M308.494,483.869v 14.1948" fill="none" stroke="black"/>
<path d="M323.492,490.966v 7.09741" fill="none" stroke="black"/>
<path d="M338.489,490.966v 7.09741" fill="none" stroke="black"/>
<path d="M353.487,490.966v 7.09741" fill="none" stroke="black"/>
<path d="M368.485,483.869v 14.1948" fill="none" stroke="black"/>
<path d="M383.482,490.966v 7.09741" fill="none" stroke="black"/>
<path d="M398.48,490.966v 7.09741" fill="none" stroke="black"/>
<path d="M413.478,490.966v 7.09741" fill="none" stroke="black"/>
<path d="M428.475,483.869v 14.1948" fill="none" stroke="black"/>
<path d="M443.473,490.966v 7.09741" fill="none" stroke="black"/>
<path d="M458.471,490.966v 7.09741" fill="none" stroke="black"/>
<path d="M473.468,490.966v 7.09741" fill="none" stroke="black"/>
<path d="M488.466,483.869v 14.1948" fill="none" stroke="black"/>
<path d="M503.464,490.966v 7.09741" fill="none" stroke="black"/>
<path d="M518.461,490.966v 7.09741" fill="none" stroke="black"/>
<path d="M533.459,490.966v 7.09741" fill="none" stroke="black"/>
<path d="M548.457,483.869v 14.1948" fill="none" stroke="black"/>
<path d="M548.457,483.869v 14.1948" fill="none" stroke="black"/>
<text xml:space="preserve" x="63.6174" y="513.956" fill="black" font-size="16.0105" font-family="Helvetica">0</text>
<text xml:space="preserve" x="117.718" y="513.956" fill="black" font-size="16.0105" font-family="Helvetica">0.2</text>
<text xml:space="preserve" x="177.454" y="513.956" fill="black" font-size="16.0105" font-family="Helvetica">0.4</text>
<text xml:space="preserve" x="237.754" y="513.956" fill="black" font-size="16.0105" font-family="Helvetica">0.6</text>
<text xml:space="preserve" x="297.49" y="513.956" fill="black" font-size="16.0105" font-family="Helvetica">0.8</text>
<text xml:space="preserve" x="365.115" y="513.956" fill="black" font-size="16.0105" font-family="Helvetica">1</text>
<text xml:space="preserve" x="417.525" y="513.956" fill="black" font-size="16.0105" font-family="Helvetica">1.2</text>
<text xml:space="preserve" x="477.261" y="513.956" fill="black" font-size="16.0105" font-family="Helvetica">1.4</text>
<text xml:space="preserve" x="537.561" y="513.956" fill="black" font-size="16.0105" font-family="Helvetica">1.6</text>
<text xml:space="preserve" x="548.268" y="537.625" fill="black" font-size="16.0105" font-family="Helvetica">)</text>
<text xml:space="preserve" x="542.633" y="532.553" fill="black" font-size="10.8403" font-family="Helvetica">2</text>
<text xml:space="preserve" x="533.616" y="537.625" fill="black" font-size="16.0105" font-family="Helvetica" font-style="oblique">c</text>
<text xml:space="preserve" x="487.405" y="537.625" fill="black" font-size="16.0105" font-family="Helvetica"> (GeV/</text>
<text xml:space="preserve" x="473.317" y="542.697" fill="black" font-size="10.8403" font-family="Helvetica">inv</text>
<text xml:space="preserve" x="459.792" y="537.625" fill="black" font-size="16.0105" font-family="Helvetica" font-style="oblique">m</text>
<path d="M68.5315,16.6021h 484.724" fill="none" stroke="black"/>
<path d="M68.5315,30.7969v -14.1948" fill="none" stroke="black"/>
<path d="M83.5292,23.6995v -7.09741" fill="none" stroke="black"/>
<path d="M98.5268,23.6995v -7.09741" fill="none" stroke="black"/>
<path d="M113.524,23.6995v -7.09741" fill="none" stroke="black"/>
<path d="M128.522,30.7969v -14.1948" fill="none" stroke="black"/>
<path d="M143.52,23.6995v -7.09741" fill="none" stroke="black"/>
<path d="M158.517,23.6995v -7.09741" fill="none" stroke="black"/>
<path d="M173.515,23.6995v -7.09741" fill="none" stroke="black"/>
<path d="M188.513,30.7969v -14.1948" fill="none" stroke="black"/>
<path d="M203.51,23.6995v -7.09741" fill="none" stroke="black"/>
<path d="M218.508,23.6995v -7.09741" fill="none" stroke="black"/>
<path d="M233.506,23.6995v -7.09741" fill="none" stroke="black"/>
<path d="M248.503,30.7969v -14.1948" fill="none" stroke="black"/>
<path d="M263.501,23.6995v -7.09741" fill="none" stroke="black"/>
<path d="M278.499,23.6995v -7.09741" fill="none" stroke="black"/>
<path d="M293.496,23.6995v -7.09741" fill="none" stroke="black"/>
<path d="M308.494,30.7969v -14.1948" fill="none" stroke="black"/>
<path d="M323.492,23.6995v -7.09741" fill="none" stroke="black"/>
<path d="M338.489,23.6995v -7.09741" fill="none" stroke="black"/>
<path d="M353.487,23.6995v -7.09741" fill="none" stroke="black"/>
<path d="M368.485,30.7969v -14.1948" fill="none" stroke="black"/>
<path d="M383.482,23.6995v -7.09741" fill="none" stroke="black"/>
<path d="M398.48,23.6995v -7.09741" fill="none" stroke="black"/>
<path d="M413.478,23.6995v -7.09741" fill="none" stroke="black"/>
<path d="M428.475,30.7969v -14.1948" fill="none" stroke="black"/>
<path d="M443.473,23.6995v -7.09741" fill="none" stroke="black"/>
<path d="M458.471,23.6995v -7.09741" fill="none" stroke="black"/>
<path d="M473.468,23.6995v -7.09741" fill="none" stroke="black"/>
<path d="M488.466,30.7969v -14.1948" fill="none" stroke="black"/>
<path d="M503.464,23.6995v -7.09741" fill="none" stroke="black"/>
<path d="M518.461,23.6995v -7.09741" fill="none" stroke="black"/>
<path d="M533.459,23.6995v -7.09741" fill="none" stroke="black"/>
<path d="M548.457,30.7969v -14.1948" fill="none" stroke="black"/>
<path d="M548.457,30.7969v -14.1948" fill="none" stroke="black"/>
<path d="M68.5315,498.064v -481.461" fill="none" stroke="black"/>
<path d="M83.3283,498.064h -14.7969" fill="none" stroke="black"/>
<path d="M75.9299,482.467h -7.39843" fill="none" stroke="black"/>
<path d="M75.9299,466.87h -7.39843" fill="none" stroke="black"/>
<path d="M75.9299,451.274h -7.39843" fill="none" stroke="black"/>
<path d="M83.3283,435.677h -14.7969" fill="none" stroke="black"/>
<path d="M75.9299,420.081h -7.39843" fill="none" stroke="black"/>
<path d="M75.9299,404.484h -7.39843" fill="none" stroke="black"/>
<path d="M75.9299,388.887h -7.39843" fill="none" stroke="black"/>
<path d="M83.3283,373.291h -14.7969" fill="none" stroke="black"/>
<path d="M75.9299,357.694h -7.39843" fill="none" stroke="black"/>
<path d="M75.9299,342.098h -7.39843" fill="none" stroke="black"/>
<path d="M75.9299,326.501h -7.39843" fill="none" stroke="black"/>
<path d="M83.3283,310.904h -14.7969" fill="none" stroke="black"/>
<path d="M75.9299,295.308h -7.39843" fill="none" stroke="black"/>
<path d="M75.9299,279.711h -7.39843" fill="none" stroke="black"/>
<path d="M75.9299,264.115h -7.39843" fill="none" stroke="black"/>
<path d="M83.3283,248.518h -14.7969" fill="none" stroke="black"/>
<path d="M75.9299,232.921h -7.39843" fill="none" stroke="black"/>
<path d="M75.9299,217.325h -7.39843" fill="none" stroke="black"/>
<path d="M75.9299,201.728h -7.39843" fill="none" stroke="black"/>
<path d="M83.3283,186.132h -14.7969" fill="none" stroke="black"/>
<path d="M75.9299,170.535h -7.39843" fill="none" stroke="black"/>
<path d="M75.9299,154.938h -7.39843" fill="none" stroke="black"/>
<path d="M75.9299,139.342h -7.39843" fill="none" stroke="black"/>
<path d="M83.3283,123.745h -14.7969" fill="none" stroke="black"/>
<path d="M75.9299,108.149h -7.39843" fill="none" stroke="black"/>
<path d="M75.9299,92.552h -7.39843" fill="none" stroke="black"/>
<path d="M75.9299,76.9554h -7.39843" fill="none" stroke="black"/>
<path d="M83.3283,61.3588h -14.7969" fill="none" stroke="black"/>
<path d="M83.3283,61.3588h -14.7969" fill="none" stroke="black"/>
<path d="M75.9299,45.7622h -7.39843" fill="none" stroke="black"/>
<path d="M75.9299,30.1656h -7.39843" fill="none" stroke="black"/>
<text xml:space="preserve" x="56.8548" y="503.248" fill="black" font-size="16.0105" font-family="Helvetica">0</text>
<text xml:space="preserve" x="34.8764" y="441.258" fill="black" font-size="16.0105" font-family="Helvetica">0.02</text>
<text xml:space="preserve" x="34.8764" y="378.704" fill="black" font-size="16.0105" font-family="Helvetica">0.04</text>
<text xml:space="preserve" x="34.8764" y="316.15" fill="black" font-size="16.0105" font-family="Helvetica">0.06</text>
<text xml:space="preserve" x="34.8764" y="253.597" fill="black" font-size="16.0105" font-family="Helvetica">0.08</text>
<text xml:space="preserve" x="46.1474" y="191.606" fill="black" font-size="16.0105" font-family="Helvetica">0.1</text>
<text xml:space="preserve" x="34.8764" y="129.052" fill="black" font-size="16.0105" font-family="Helvetica">0.12</text>
<text xml:space="preserve" x="34.8764" y="66.4986" fill="black" font-size="16.0105" font-family="Helvetica">0.14</text>
<g transform="rotate(-90,38.2577,98.0573)">
<text xml:space="preserve" x="38.2577" y="98.0573" fill="black" font-size="16.0105" font-family="Helvetica">background</text>
</g>
<g transform="rotate(-90,21.9148,98.0573)">
<text xml:space="preserve" x="21.9148" y="98.0573" fill="black" font-size="16.0105" font-family="Helvetica">same event</text>
</g>
<path d="M24.169,98.0573l 0.563548, -81.7144" fill="none" stroke="black" stroke-width="2"/>
<path d="M553.256,498.064v -481.461" fill="none" stroke="black"/>
<path d="M538.459,498.064h 14.7969" fill="none" stroke="black"/>
<path d="M545.857,482.467h 7.39843" fill="none" stroke="black"/>
<path d="M545.857,466.87h 7.39843" fill="none" stroke="black"/>
<path d="M545.857,451.274h 7.39843" fill="none" stroke="black"/>
<path d="M538.459,435.677h 14.7969" fill="none" stroke="black"/>
<path d="M545.857,420.081h 7.39843" fill="none" stroke="black"/>
<path d="M545.857,404.484h 7.39843" fill="none" stroke="black"/>
<path d="M545.857,388.887h 7.39843" fill="none" stroke="black"/>
<path d="M538.459,373.291h 14.7969" fill="none" stroke="black"/>
<path d="M545.857,357.694h 7.39843" fill="none" stroke="black"/>
<path d="M545.857,342.098h 7.39843" fill="none" stroke="black"/>
<path d="M545.857,326.501h 7.39843" fill="none" stroke="black"/>
<path d="M538.459,310.904h 14.7969" fill="none" stroke="black"/>
<path d="M545.857,295.308h 7.39843" fill="none" stroke="black"/>
<path d="M545.857,279.711h 7.39843" fill="none" stroke="black"/>
<path d="M545.857,264.115h 7.39843" fill="none" stroke="black"/>
<path d="M538.459,248.518h 14.7969" fill="none" stroke="black"/>
<path d="M545.857,232.921h 7.39843" fill="none" stroke="black"/>
<path d="M545.857,217.325h 7.39843" fill="none" stroke="black"/>
<path d="M545.857,201.728h 7.39843" fill="none" stroke="black"/>
<path d="M538.459,186.132h 14.7969" fill="none" stroke="black"/>
<path d="M545.857,170.535h 7.39843" fill="none" stroke="black"/>
<path d="M545.857,154.938h 7.39843" fill="none" stroke="black"/>
<path d="M545.857,139.342h 7.39843" fill="none" stroke="black"/>
<path d="M538.459,123.745h 14.7969" fill="none" stroke="black"/>
<path d="M545.857,108.149h 7.39843" fill="none" stroke="black"/>
<path d="M545.857,92.552h 7.39843" fill="none" stroke="black"/>
<path d="M545.857,76.9554h 7.39843" fill="none" stroke="black"/>
<path d="M538.459,61.3588h 14.7969" fill="none" stroke="black"/>
<path d="M538.459,61.3588h 14.7969" fill="none" stroke="black"/>
<path d="M545.857,45.7622h 7.39843" fill="none" stroke="black"/>
<path d="M545.857,30.1656h 7.39843" fill="none" stroke="black"/>
<g stroke="#333333" stroke-width="2" fill="none">
<circle cx="282.098" cy="322.424" r="5.63548"/>
</g>
<g stroke="#333333" stroke-width="2" fill="none">
<circle cx="286.897" cy="317.843" r="5.63548"/>
</g>
<g stroke="#333333" stroke-width="2" fill="none">
<circle cx="291.697" cy="315.615" r="5.63548"/>
</g>
<g stroke="#333333" stroke-width="2" fill="none">
<circle cx="296.496" cy="309.507" r="5.63548"/>
</g>
<g stroke="#333333" stroke-width="2" fill="none">
<circle cx="301.295" cy="306.624" r="5.63548"/>
</g>
<g stroke="#333333" stroke-width="2" fill="none">
<circle cx="306.094" cy="306.601" r="5.63548"/>
</g>
<g stroke="#333333" stroke-width="2" fill="none">
<circle cx="310.894" cy="305.607" r="5.63548"/>
</g>
<g stroke="#333333" stroke-width="2" fill="none">
<circle cx="315.693" cy="306.908" r="5.63548"/>
</g>
<g stroke="#333333" stroke-width="2" fill="none">
<circle cx="320.492" cy="305.459" r="5.63548"/>
</g>
<g stroke="#333333" stroke-width="2" fill="none">
<circle cx="325.291" cy="304.509" r="5.63548"/>
</g>
<g stroke="#333333" stroke-width="2" fill="none">
<circle cx="330.091" cy="303.963" r="5.63548"/>
</g>
<g stroke="#333333" stroke-width="2" fill="none">
<circle cx="334.89" cy="301.368" r="5.63548"/>
</g>
<path d="M98.7518,404.756l 0.44993, -0.19264l 0.44993, -0.19264l 0.44993, -0.19264l 0.44993, -0.19264l 0.44993, -0.19264l 0.44993, -0.19264l 0.44993, -0.19264l 0.44993, -0.19264l 0.44993, -0.19264l 0.44993, -0.19264l 0.44993, -0.19264l 0.44993,
 -0.19264l 0.44993, -0.19264l 0.44993, -0.19264l 0.44993, -0.19264l 0.44993, -0.19264l 0.44993, -0.19264l 0.44993, -0.19264l 0.44993, -0.19264l 0.44993, -0.19264l 0.44993, -0.19264l 0.44993, -0.19264l 0.44993, -0.19264l 0.44993, -0.19264l 0.44993,
 -0.19264l 0.44993, -0.19264l 0.44993, -0.19264l 0.44993, -0.19264l 0.44993, -0.19264l 0.44993, -0.19264l 0.44993, -0.19264l 0.44993, -0.19264l 0.44993, -0.19264l 0.44993, -0.19264l 0.44993, -0.19264l 0.44993, -0.19264l 0.44993, -0.19264l 0.44993,
 -0.19264l 0.44993, -0.19264l 0.44993, -0.19264l 0.44993, -0.19264l 0.44993, -0.19264l 0.44993, -0.19264l 0.44993, -0.19264l 0.44993, -0.19264l 0.44993, -0.19264l 0.44993, -0.19264l 0.44993, -0.19264l 0.44993, -0.19264" fill="none" stroke="#33cccc"
 stroke-width="3"/>
<path d="M120.798,395.316l 0.44993, -0.19264l 0.44993, -0.19264l 0.44993, -0.19264l 0.44993, -0.19264l 0.44993, -0.19264l 0.44993, -0.19264l 0.44993, -0.19264l 0.44993, -0.19264l 0.44993, -0.19264l 0.44993, -0.19264l 0.44993, -0.19264l 0.44993,
 -0.19264l 0.44993, -0.19264l 0.44993, -0.19264l 0.44993, -0.19264l 0.44993, -0.19264l 0.44993, -0.19264l 0.44993, -0.19264l 0.44993, -0.19264l 0.44993, -0.19264l 0.44993, -0.19264l 0.44993, -0.19264l 0.44993, -0.19264l 0.44993, -0.19264l 0.44993,
 -0.19264l 0.44993, -0.19264l 0.44993, -0.19264l 0.44993, -0.19264l 0.44993, -0.19264l 0.44993, -0.19264l 0.44993, -0.19264l 0.44993, -0.19264l 0.44993, -0.19264l 0.44993, -0.19264l 0.44993, -0.19264l 0.44993, -0.19264l 0.44993, -0.19264l 0.44993,
 -0.19264l 0.44993, -0.19264l 0.44993, -0.19264l 0.44993, -0.19264l 0.44993, -0.19264l 0.44993, -0.19264l 0.44993, -0.19264l 0.44993, -0.19264l 0.44993, -0.19264l 0.44993, -0.19264l 0.44993, -0.19264l 0.44993, -0.19264" fill="none" stroke="#33cccc"
 stroke-width="3"/>
<path d="M142.845,385.877l 0.44993, -0.19264l 0.44993, -0.19264l 0.44993, -0.19264l 0.44993, -0.19264l 0.44993, -0.19264l 0.44993, -0.19264l 0.44993, -0.19264l 0.44993, -0.19264l 0.44993, -0.19264l 0.44993, -0.19264l 0.44993, -0.19264l 0.44993,
 -0.19264l 0.44993, -0.19264l 0.44993, -0.19264l 0.44993, -0.19264l 0.44993, -0.19264l 0.44993, -0.19264l 0.44993, -0.19264l 0.44993, -0.19264l 0.44993, -0.19264l 0.44993, -0.19264l 0.44993, -0.19264l 0.44993, -0.19264l 0.44993, -0.19264l 0.44993,
 -0.19264l 0.44993, -0.19264l 0.44993, -0.19264l 0.44993, -0.19264l 0.44993, -0.19264l 0.44993, -0.19264l 0.44993, -0.19264l 0.44993, -0.19264l 0.44993, -0.19264l 0.44993, -0.19264l 0.44993, -0.19264l 0.44993, -0.19264l 0.44993, -0.19264l 0.44993,
 -0.19264l 0.44993, -0.19264l 0.44993, -0.19264l 0.44993, -0.19264l 0.44993, -0.19264l 0.44993, -0.19264l 0.44993, -0.19264l 0.44993, -0.19264l 0.44993, -0.19264l 0.44993, -0.19264l 0.44993, -0.19264l 0.44993, -0.19264" fill="none" stroke="#33cccc"
 stroke-width="3"/>
<path d="M164.891,376.438l 0.44993, -0.19264l 0.44993, -0.19264l 0.44993, -0.19264l 0.44993, -0.19264l 0.44993, -0.19264l 0.44993, -0.19264l 0.44993, -0.19264l 0.44993, -0.19264l 0.44993, -0.19264l 0.44993, -0.19264l 0.44993, -0.19264l 0.44993,
 -0.19264l 0.44993, -0.19264l 0.44993, -0.19264l 0.44993, -0.19264l 0.44993, -0.19264l 0.44993, -0.19264l 0.44993, -0.19264l 0.44993, -0.19264l 0.44993, -0.19264l 0.44993, -0.19264l 0.44993, -0.19264l 0.44993, -0.19264l 0.44993, -0.19264l 0.44993,
 -0.19264l 0.44993, -0.19264l 0.44993, -0.19264l 0.44993, -0.19264l 0.44993, -0.19264l 0.44993, -0.19264l 0.44993, -0.19264l 0.44993, -0.19264l 0.44993, -0.19264l 0.44993, -0.19264l 0.44993, -0.19264l 0.44993, -0.19264l 0.44993, -0.19264l 0.44993,
 -0.19264l 0.44993, -0.19264l 0.44993, -0.19264l 0.44993, -0.19264l 0.44993, -0.19264l 0.44993, -0.19264l 0.44993, -0.19264l 0.44993, -0.19264l 0.44993, -0.19264l 0.44993, -0.19264l 0.44993, -0.19264l 0.44993, -0.19264" fill="none" stroke="#33cccc"
 stroke-width="3"/>
<path d="M186.938,366.998l 0.44993, -0.19264l 0.44993, -0.19264l 0.44993, -0.19264l 0.44993, -0.19264l 0.44993, -0.19264l 0.44993, -0.19264l 0.44993, -0.19264l 0.44993, -0.19264l 0.44993, -0.19264l 0.44993, -0.19264l 0.44993, -0.19264l 0.44993,
 -0.19264l 0.44993, -0.19264l 0.44993, -0.19264l 0.44993, -0.19264l 0.44993, -0.19264l 0.44993, -0.19264l 0.44993, -0.19264l 0.44993, -0.19264l 0.44993, -0.19264l 0.44993, -0.19264l 0.44993, -0.19264l 0.44993, -0.19264l 0.44993, -0.19264l 0.44993,
 -0.19264l 0.44993, -0.19264l 0.44993, -0.19264l 0.44993, -0.19264l 0.44993, -0.19264l 0.44993, -0.19264l 0.44993, -0.19264l 0.44993, -0.19264l 0.44993, -0.19264l 0.44993, -0.19264l 0.44993, -0.19264l 0.44993, -0.19264l 0.44993, -0.19264l 0.44993,
 -0.19264l 0.44993, -0.19264l 0.44993, -0.19264l 0.44993, -0.19264l 0.44993, -0.19264l 0.44993, -0.19264l 0.44993, -0.19264l 0.44993, -0.19264l 0.44993, -0.19264l 0.44993, -0.19264l 0.44993, -0.19264l 0.44993, -0.19264" fill="none" stroke="#33cccc"
 stroke-width="3"/>
<path d="M208.985,357.559l 0.44993, -0.19264l 0.44993, -0.19264l 0.44993, -0.19264l 0.44993, -0.19264l 0.44993, -0.19264l 0.44993, -0.19264l 0.44993, -0.19264l 0.44993, -0.19264l 0.44993, -0.19264l 0.44993, -0.19264l 0.44993, -0.19264l 0.44993,
 -0.19264l 0.44993, -0.19264l 0.44993, -0.19264l 0.44993, -0.19264l 0.44993, -0.19264l 0.44993, -0.19264l 0.44993, -0.19264l 0.44993, -0.19264l 0.44993, -0.19264l 0.44993, -0.19264l 0.44993, -0.19264l 0.44993, -0.19264l 0.44993, -0.19264l 0.44993,
 -0.19264l 0.44993, -0.19264l 0.44993, -0.19264l 0.44993, -0.19264l 0.44993, -0.19264l 0.44993, -0.19264l 0.44993, -0.19264l 0.44993, -0.19264l 0.44993, -0.19264l 0.44993, -0.19264l 0.44993, -0.19264l 0.44993, -0.19264l 0.44993, -0.19264l 0.44993,
 -0.19264l 0.44993, -0.19264l 0.44993, -0.19264l 0.44993, -0.19264l 0.44993, -0.19264l 0.44993, -0.19264l 0.44993, -0.19264l 0.44993, -0.19264l 0.44993, -0.19264l 0.44993, -0.19264l 0.44993, -0.19264l 0.44993, -0.19264" fill="none" stroke="#33cccc"
 stroke-width="3"/>
<path d="M231.031,348.12l 0.44993, -0.19264l 0.44993, -0.19264l 0.44993, -0.19264l 0.44993, -0.19264l 0.44993, -0.19264l 0.44993, -0.19264l 0.44993, -0.19264l 0.44993, -0.19264l 0.44993, -0.19264l 0.44993, -0.19264l 0.44993, -0.19264l 0.44993,
 -0.19264l 0.44993, -0.19264l 0.44993, -0.19264l 0.44993, -0.19264l 0.44993, -0.19264l 0.44993, -0.19264l 0.44993, -0.19264l 0.44993, -0.19264l 0.44993, -0.19264l 0.44993, -0.19264l 0.44993, -0.19264l 0.44993, -0.19264l 0.44993, -0.19264l 0.44993,
 -0.19264l 0.44993, -0.19264l 0.44993, -0.19264l 0.44993, -0.19264l 0.44993, -0.19264l 0.44993, -0.19264l 0.44993, -0.19264l 0.44993, -0.19264l 0.44993, -0.19264l 0.44993, -0.19264l 0.44993, -0.19264l 0.44993, -0.19264l 0.44993, -0.19264l 0.44993,
 -0.19264l 0.44993, -0.19264l 0.44993, -0.19264l 0.44993, -0.19264l 0.44993, -0.19264l 0.44993, -0.19264l 0.44993, -0.19264l 0.44993, -0.19264l 0.44993, -0.19264l 0.44993, -0.19264l 0.44993, -0.19264l 0.44993, -0.19264" fill="none" stroke="#33cccc"
 stroke-width="3"/>
<path d="M253.078,338.68l 0.44993, -0.19264l 0.44993, -0.19264l 0.44993, -0.19264l 0.44993, -0.19264l 0.44993, -0.19264l 0.44993, -0.19264l 0.44993, -0.19264l 0.44993, -0.19264l 0.44993, -0.19264l 0.44993, -0.19264l 0.44993, -0.19264l 0.44993,
 -0.19264l 0.44993, -0.19264l 0.44993, -0.19264l 0.44993, -0.19264l 0.44993, -0.19264l 0.44993, -0.19264l 0.44993, -0.19264l 0.44993, -0.19264l 0.44993, -0.19264l 0.44993, -0.19264l 0.44993, -0.19264l 0.44993, -0.19264l 0.44993, -0.19264l 0.44993,
 -0.19264l 0.44993, -0.19264l 0.44993, -0.19264l 0.44993, -0.19264l 0.44993, -0.19264l 0.44993, -0.19264l 0.44993, -0.19264l 0.44993, -0.19264l 0.44993, -0.19264l 0.44993, -0.19264l 0.44993, -0.19264l 0.44993, -0.19264l 0.44993, -0.19264l 0.44993,
 -0.19264l 0.44993, -0.19264l 0.44993, -0.19264l 0.44993, -0.19264l 0.44993, -0.19264l 0.44993, -0.19264l 0.44993, -0.19264l 0.44993, -0.19264l 0.44993, -0.19264l 0.44993, -0.19264l 0.44993, -0.19264l 0.44993, -0.19264" fill="none" stroke="#33cccc"
 stroke-width="3"/>
<path d="M275.124,329.241l 0.44993, -0.19264l 0.44993, -0.19264l 0.44993, -0.19264l 0.44993, -0.19264l 0.44993, -0.19264l 0.44993, -0.19264l 0.44993, -0.19264l 0.44993, -0.19264l 0.44993, -0.19264l 0.44993, -0.19264l 0.44993, -0.19264l 0.44993,
 -0.19264l 0.44993, -0.19264l 0.44993, -0.19264l 0.44993, -0.19264l 0.44993, -0.19264l 0.44993, -0.19264l 0.44993, -0.19264l 0.44993, -0.19264l 0.44993, -0.19264l 0.44993, -0.19264l 0.44993, -0.19264l 0.44993, -0.19264l 0.44993, -0.19264l 0.44993,
 -0.19264l 0.44993, -0.19264l 0.44993, -0.19264l 0.44993, -0.19264l 0.44993, -0.19264l 0.44993, -0.19264l 0.44993, -0.19264l 0.44993, -0.19264l 0.44993, -0.19264l 0.44993, -0.19264l 0.44993, -0.19264l 0.44993, -0.19264l 0.44993, -0.19264l 0.44993,
 -0.19264l 0.44993, -0.19264l 0.44993, -0.19264l 0.44993, -0.19264l 0.44993, -0.19264l 0.44993, -0.19264l 0.44993, -0.19264l 0.44993, -0.19264l 0.44993, -0.19264l 0.44993, -0.19264l 0.44993, -0.19264l 0.44993, -0.19264" fill="none" stroke="#33cccc"
 stroke-width="3"/>
<path d="M297.171,319.801l 0.44993, -0.19264l 0.44993, -0.19264l 0.44993, -0.19264l 0.44993, -0.19264l 0.44993, -0.19264l 0.44993, -0.19264l 0.44993, -0.19264l 0.44993, -0.19264l 0.44993, -0.19264l 0.44993, -0.19264l 0.44993, -0.19264l 0.44993,
 -0.19264l 0.44993, -0.19264l 0.44993, -0.19264l 0.44993, -0.19264l 0.44993, -0.19264l 0.44993, -0.19264l 0.44993, -0.19264l 0.44993, -0.19264l 0.44993, -0.19264l 0.44993, -0.19264l 0.44993, -0.19264l 0.44993, -0.19264l 0.44993, -0.19264l 0.44993,
 -0.19264l 0.44993, -0.19264l 0.44993, -0.19264l 0.44993, -0.19264l 0.44993, -0.19264l 0.44993, -0.19264l 0.44993, -0.19264l 0.44993, -0.19264l 0.44993, -0.19264l 0.44993, -0.19264l 0.44993, -0.19264l 0.44993, -0.19264l 0.44993, -0.19264l 0.44993,
 -0.19264l 0.44993, -0.19264l 0.44993, -0.19264l 0.44993, -0.19264l 0.44993, -0.19264l 0.44993, -0.19264l 0.44993, -0.19264l 0.44993, -0.19264l 0.44993, -0.19264l 0.44993, -0.19264l 0.44993, -0.19264l 0.44993, -0.19264" fill="none" stroke="#33cccc"
 stroke-width="3"/>
<path d="M319.217,310.362l 0.44993, -0.19264l 0.44993, -0.19264l 0.44993, -0.19264l 0.44993, -0.19264l 0.44993, -0.19264l 0.44993, -0.19264l 0.44993, -0.19264l 0.44993, -0.19264l 0.44993, -0.19264l 0.44993, -0.19264l 0.44993, -0.19264l 0.44993,
 -0.19264l 0.44993, -0.19264l 0.44993, -0.19264l 0.44993, -0.19264l 0.44993, -0.19264l 0.44993, -0.19264l 0.44993, -0.19264l 0.44993, -0.19264l 0.44993, -0.19264l 0.44993, -0.19264l 0.44993, -0.19264l 0.44993, -0.19264l 0.44993, -0.19264l 0.44993,
 -0.19264l 0.44993, -0.19264l 0.44993, -0.19264l 0.44993, -0.19264l 0.44993, -0.19264l 0.44993, -0.19264l 0.44993, -0.19264l 0.44993, -0.19264l 0.44993, -0.19264l 0.44993, -0.19264l 0.44993, -0.19264l 0.44993, -0.19264l 0.44993, -0.19264l 0.44993,
 -0.19264l 0.44993, -0.19264l 0.44993, -0.19264l 0.44993, -0.19264l 0.44993, -0.19264l 0.44993, -0.19264l 0.44993, -0.19264l 0.44993, -0.19264l 0.44993, -0.19264l 0.44993, -0.19264l 0.44993, -0.19264l 0.44993, -0.19264" fill="none" stroke="#33cccc"
 stroke-width="3"/>
<path d="M341.264,300.923l 0.44993, -0.19264l 0.44993, -0.19264l 0.44993, -0.19264l 0.44993, -0.19264l 0.44993, -0.19264l 0.44993, -0.19264l 0.44993, -0.19264l 0.44993, -0.19264l 0.44993, -0.19264l 0.44993, -0.19264l 0.44993, -0.19264l 0.44993,
 -0.19264l 0.44993, -0.19264l 0.44993, -0.19264l 0.44993, -0.19264l 0.44993, -0.19264l 0.44993, -0.19264l 0.44993, -0.19264l 0.44993, -0.19264l 0.44993, -0.19264l 0.44993, -0.19264l 0.44993, -0.19264l 0.44993, -0.19264l 0.44993, -0.19264l 0.44993,
 -0.19264l 0.44993, -0.19264l 0.44993, -0.19264l 0.44993, -0.19264l 0.44993, -0.19264l 0.44993, -0.19264l 0.44993, -0.19264l 0.44993, -0.19264l 0.44993, -0.19264l 0.44993, -0.19264l 0.44993, -0.19264l 0.44993, -0.19264l 0.44993, -0.19264l 0.44993,
 -0.19264l 0.44993, -0.19264l 0.44993, -0.19264l 0.44993, -0.19264l 0.44993, -0.19264l 0.44993, -0.19264l 0.44993, -0.19264l 0.44993, -0.19264l 0.44993, -0.19264l 0.44993, -0.19264l 0.44993, -0.19264l 0.44993, -0.19264" fill="none" stroke="#33cccc"
 stroke-width="3"/>
<path d="M363.311,291.483l 0.44993, -0.19264l 0.44993, -0.19264l 0.44993, -0.19264l 0.44993, -0.19264l 0.44993, -0.19264l 0.44993, -0.19264l 0.44993, -0.19264l 0.44993, -0.19264l 0.44993, -0.19264l 0.44993, -0.19264l 0.44993, -0.19264l 0.44993,
 -0.19264l 0.44993, -0.19264l 0.44993, -0.19264l 0.44993, -0.19264l 0.44993, -0.19264l 0.44993, -0.19264l 0.44993, -0.19264l 0.44993, -0.19264l 0.44993, -0.19264l 0.44993, -0.19264l 0.44993, -0.19264l 0.44993, -0.19264l 0.44993, -0.19264l 0.44993,
 -0.19264l 0.44993, -0.19264l 0.44993, -0.19264l 0.44993, -0.19264l 0.44993, -0.19264l 0.44993, -0.19264l 0.44993, -0.19264l 0.44993, -0.19264l 0.44993, -0.19264l 0.44993, -0.19264l 0.44993, -0.19264l 0.44993, -0.19264l 0.44993, -0.19264l 0.44993,
 -0.19264l 0.44993, -0.19264l 0.44993, -0.19264l 0.44993, -0.19264l 0.44993, -0.19264l 0.44993, -0.19264l 0.44993, -0.19264l 0.44993, -0.19264l 0.44993, -0.19264l 0.44993, -0.19264l 0.44993, -0.19264l 0.44993, -0.19264" fill="none" stroke="#33cccc"
 stroke-width="3"/>
<path d="M385.357,282.044l 0.44993, -0.19264l 0.44993, -0.19264l 0.44993, -0.19264l 0.44993, -0.19264l 0.44993, -0.19264l 0.44993, -0.19264l 0.44993, -0.19264l 0.44993, -0.19264l 0.44993, -0.19264l 0.44993, -0.19264l 0.44993, -0.19264l 0.44993,
 -0.19264l 0.44993, -0.19264l 0.44993, -0.19264l 0.44993, -0.19264l 0.44993, -0.19264l 0.44993, -0.19264l 0.44993, -0.19264l 0.44993, -0.19264l 0.44993, -0.19264l 0.44993, -0.19264l 0.44993, -0.19264l 0.44993, -0.19264l 0.44993, -0.19264l 0.44993,
 -0.19264l 0.44993, -0.19264l 0.44993, -0.19264l 0.44993, -0.19264l 0.44993, -0.19264l 0.44993, -0.19264l 0.44993, -0.19264l 0.44993, -0.19264l 0.44993, -0.19264l 0.44993, -0.19264l 0.44993, -0.19264l 0.44993, -0.19264l 0.44993, -0.19264l 0.44993,
 -0.19264l 0.44993, -0.19264l 0.44993, -0.19264l 0.44993, -0.19264l 0.44993, -0.19264l 0.44993, -0.19264l 0.44993, -0.19264l 0.44993, -0.19264l 0.44993, -0.19264l 0.44993, -0.19264l 0.44993, -0.19264l 0.44993, -0.19264" fill="none" stroke="#33cccc"
 stroke-width="3"/>
<path d="M407.404,272.605l 0.44993, -0.19264l 0.44993, -0.19264l 0.44993, -0.19264l 0.44993, -0.19264l 0.44993, -0.19264l 0.44993, -0.19264l 0.44993, -0.19264l 0.44993, -0.19264l 0.44993, -0.19264l 0.44993, -0.19264l 0.44993, -0.19264l 0.44993,
 -0.19264l 0.44993, -0.19264l 0.44993, -0.19264l 0.44993, -0.19264l 0.44993, -0.19264l 0.44993, -0.19264l 0.44993, -0.19264l 0.44993, -0.19264l 0.44993, -0.19264l 0.44993, -0.19264l 0.44993, -0.19264l 0.44993, -0.19264l 0.44993, -0.19264l 0.44993,
 -0.19264l 0.44993, -0.19264l 0.44993, -0.19264l 0.44993, -0.19264l 0.44993, -0.19264l 0.44993, -0.19264l 0.44993, -0.19264l 0.44993, -0.19264l 0.44993, -0.19264l 0.44993, -0.19264l 0.44993, -0.19264l 0.44993, -0.19264l 0.44993, -0.19264l 0.44993,
 -0.19264l 0.44993, -0.19264l 0.44993, -0.19264l 0.44993, -0.19264l 0.44993, -0.19264l 0.44993, -0.19264l 0.44993, -0.19264l 0.44993, -0.19264l 0.44993, -0.19264l 0.44993, -0.19264l 0.44993, -0.19264l 0.44993, -0.19264" fill="none" stroke="#33cccc"
 stroke-width="3"/>
<path d="M429.45,263.165l 0.44993, -0.19264l 0.44993, -0.19264l 0.44993, -0.19264l 0.44993, -0.19264l 0.44993, -0.19264l 0.44993, -0.19264l 0.44993, -0.19264l 0.44993, -0.19264l 0.44993, -0.19264l 0.44993, -0.19264l 0.44993, -0.19264l 0.44993,
 -0.19264l 0.44993, -0.19264l 0.44993, -0.19264l 0.44993, -0.19264l 0.44993, -0.19264l 0.44993, -0.19264l 0.44993, -0.19264l 0.44993, -0.19264l 0.44993, -0.19264l 0.44993, -0.19264l 0.44993, -0.19264l 0.44993, -0.19264l 0.44993, -0.19264l 0.44993,
 -0.19264l 0.44993, -0.19264l 0.44993, -0.19264l 0.44993, -0.19264l 0.44993, -0.19264l 0.44993, -0.19264l 0.44993, -0.19264l 0.44993, -0.19264l 0.44993, -0.19264l 0.44993, -0.19264l 0.44993, -0.19264l 0.44993, -0.19264l 0.44993, -0.19264l 0.44993,
 -0.19264l 0.44993, -0.19264l 0.44993, -0.19264l 0.44993, -0.19264l 0.44993, -0.19264l 0.44993, -0.19264l 0.44993, -0.19264l 0.44993, -0.19264l 0.44993, -0.19264l 0.44993, -0.19264l 0.44993, -0.19264l 0.44993, -0.19264" fill="none" stroke="#33cccc"
 stroke-width="3"/>
<path d="M451.497,253.726l 0.44993, -0.19264l 0.44993, -0.19264l 0.44993, -0.19264l 0.44993, -0.19264l 0.44993, -0.19264l 0.44993, -0.19264l 0.44993, -0.19264l 0.44993, -0.19264l 0.44993, -0.19264l 0.44993, -0.19264l 0.44993, -0.19264l 0.44993,
 -0.19264l 0.44993, -0.19264l 0.44993, -0.19264l 0.44993, -0.19264l 0.44993, -0.19264l 0.44993, -0.19264l 0.44993, -0.19264l 0.44993, -0.19264l 0.44993, -0.19264l 0.44993, -0.19264l 0.44993, -0.19264l 0.44993, -0.19264l 0.44993, -0.19264l 0.44993,
 -0.19264l 0.44993, -0.19264l 0.44993, -0.19264l 0.44993, -0.19264l 0.44993, -0.19264l 0.44993, -0.19264l 0.44993, -0.19264l 0.44993, -0.19264l 0.44993, -0.19264l 0.44993, -0.19264l 0.44993, -0.19264l 0.44993, -0.19264l 0.44993, -0.19264l 0.44993,
 -0.19264l 0.44993, -0.19264l 0.44993, -0.19264l 0.44993, -0.19264l 0.44993, -0.19264l 0.44993, -0.19264l 0.44993, -0.19264l 0.44993, -0.19264l 0.44993, -0.19264l 0.44993, -0.19264l 0.44993, -0.19264l 0.44993, -0.19264" fill="none" stroke="#33cccc"
 stroke-width="3"/>
<path d="M473.543,244.286l 0.44993, -0.19264l 0.44993, -0.19264l 0.44993, -0.19264l 0.44993, -0.19264l 0.44993, -0.19264l 0.44993, -0.19264l 0.44993, -0.19264l 0.44993, -0.19264l 0.44993, -0.19264l 0.44993, -0.19264l 0.44993, -0.19264l 0.44993,
 -0.19264l 0.44993, -0.19264l 0.44993, -0.19264l 0.44993, -0.19264l 0.44993, -0.19264l 0.44993, -0.19264l 0.44993, -0.19264l 0.44993, -0.19264l 0.44993, -0.19264l 0.44993, -0.19264l 0.44993, -0.19264l 0.44993, -0.19264l 0.44993, -0.19264l 0.44993,
 -0.19264l 0.44993, -0.19264l 0.44993, -0.19264l 0.44993, -0.19264l 0.44993, -0.19264l 0.44993, -0.19264l 0.44993, -0.19264l 0.44993, -0.19264l 0.44993, -0.19264l 0.44993, -0.19264l 0.44993, -0.19264l 0.44993, -0.19264l 0.44993, -0.19264l 0.44993,
 -0.19264l 0.44993, -0.19264l 0.44993, -0.19264l 0.44993, -0.19264l 0.44993, -0.19264l 0.44993, -0.19264l 0.44993, -0.19264l 0.44993, -0.19264l 0.44993, -0.19264l 0.44993, -0.19264l 0.44993, -0.19264l 0.44993, -0.19264" fill="none" stroke="#33cccc"
 stroke-width="3"/>
<path d="M495.59,234.847l 0.44993, -0.19264l 0.44993, -0.19264l 0.44993, -0.19264l 0.44993, -0.19264l 0.44993, -0.19264l 0.44993, -0.19264l 0.44993, -0.19264l 0.44993, -0.19264l 0.44993, -0.19264l 0.44993, -0.19264l 0.44993, -0.19264l 0.44993,
 -0.19264l 0.44993, -0.19264l 0.44993, -0.19264l 0.44993, -0.19264l 0.44993, -0.19264l 0.44993, -0.19264l 0.44993, -0.19264l 0.44993, -0.19264l 0.44993, -0.19264l 0.44993, -0.19264l 0.44993, -0.19264l 0.44993, -0.19264l 0.44993, -0.19264l 0.44993,
 -0.19264l 0.44993, -0.19264l 0.44993, -0.19264l 0.44993, -0.19264l 0.44993, -0.19264l 0.44993, -0.19264l 0.44993, -0.19264l 0.44993, -0.19264l 0.44993, -0.19264l 0.44993, -0.19264l 0.44993, -0.19264l 0.44993, -0.19264l 0.44993, -0.19264l 0.44993,
 -0.19264l 0.44993, -0.19264l 0.44993, -0.19264l 0.44993, -0.19264l 0.44993, -0.19264l 0.44993, -0.19264l 0.44993, -0.19264l 0.44993, -0.19264l 0.44993, -0.19264l 0.44993, -0.19264l 0.44993, -0.19264l 0.44993, -0.19264" fill="none" stroke="#33cccc"
 stroke-width="3"/>
<path d="M517.636,225.408l 0.44993, -0.19264l 0.44993, -0.19264l 0.44993, -0.19264l 0.44993, -0.19264l 0.44993, -0.19264l 0.44993, -0.19264l 0.44993, -0.19264l 0.44993, -0.19264l 0.44993, -0.19264l 0.44993, -0.19264l 0.44993, -0.19264l 0.44993,
 -0.19264l 0.44993, -0.19264l 0.44993, -0.19264l 0.44993, -0.19264l 0.44993, -0.19264l 0.44993, -0.19264l 0.44993, -0.19264l 0.44993, -0.19264l 0.44993, -0.19264l 0.44993, -0.19264l 0.44993, -0.19264l 0.44993, -0.19264l 0.44993, -0.19264l 0.44993,
 -0.19264l 0.44993, -0.19264l 0.44993, -0.19264l 0.44993, -0.19264l 0.44993, -0.19264l 0.44993, -0.19264l 0.44993, -0.19264l 0.44993, -0.19264l 0.44993, -0.19264l 0.44993, -0.19264l 0.44993, -0.19264l 0.44993, -0.19264l 0.44993, -0.19264l 0.44993,
 -0.19264l 0.44993, -0.19264l 0.44993, -0.19264l 0.44993, -0.19264l 0.44993, -0.19264l 0.44993, -0.19264l 0.44993, -0.19264l 0.44993, -0.19264l 0.44993, -0.19264l 0.44993, -0.19264l 0.44993, -0.19264l 0.44993, -0.19264" fill="none" stroke="#33cccc"
 stroke-width="3"/>
<path d="M539.683,215.968l 0.44993, -0.19264l 0.44993, -0.19264l 0.44993, -0.19264l 0.44993, -0.19264l 0.44993, -0.19264l 0.44993, -0.19264l 0.44993, -0.19264l 0.44993, -0.19264l 0.44993, -0.19264l 0.44993, -0.19264l 0.44993, -0.19264l 0.44993,
 -0.19264l 0.44993, -0.19264l 0.44993, -0.19264l 0.44993, -0.19264l 0.44993, -0.19264l 0.44993, -0.19264l 0.44993, -0.19264l 0.44993, -0.19264" fill="none" stroke="#33cccc" stroke-width="3"/>
<path d="M98.7518,409.658l 0.44993, -0.214846l 0.44993, -0.214802l 0.44993, -0.214759l 0.44993, -0.214715l 0.44993, -0.214671l 0.44993, -0.214628l 0.44993, -0.214584l 0.44993, -0.214541l 0.44993, -0.214497l 0.44993, -0.214453l 0.44993, -0.21441l
 0.44993, -0.214366l 0.44993, -0.214323l 0.44993, -0.214279l 0.44993, -0.214235l 0.44993, -0.214192l 0.44993, -0.214148l 0.44993, -0.214104l 0.44993, -0.214061l 0.44993, -0.214017l 0.44993, -0.213974l 0.44993, -0.21393l 0.44993, -0.213886l 0.44993,
 -0.213843l 0.44993, -0.213799l 0.44993, -0.213756l 0.44993, -0.213712l 0.44993, -0.213668l 0.44993, -0.213625l 0.44993, -0.213581l 0.44993, -0.213538l 0.44993, -0.213494l 0.44993, -0.21345l 0.44993, -0.213407l 0.44993, -0.213363l 0.44993, -0.213319l
 0.44993, -0.213276l 0.44993, -0.213232l 0.44993, -0.213189l 0.44993, -0.213145l 0.44993, -0.213101l 0.44993, -0.213058l 0.44993, -0.213014l 0.44993, -0.212971l 0.44993, -0.212927l 0.44993, -0.212883l 0.44993, -0.21284l 0.44993, -0.212796l 0.44993,
 -0.212753" fill="none" stroke="#ff0066" stroke-width="3"/>
<path d="M120.798,399.182l 0.44993, -0.212709l 0.44993, -0.212665l 0.44993, -0.212622l 0.44993, -0.212578l 0.44993, -0.212535l 0.44993, -0.212491l 0.44993, -0.212447l 0.44993, -0.212404l 0.44993, -0.21236l 0.44993, -0.212316l 0.44993, -0.212273l
 0.44993, -0.212229l 0.44993, -0.212186l 0.44993, -0.212142l 0.44993, -0.212098l 0.44993, -0.212055l 0.44993, -0.212011l 0.44993, -0.211968l 0.44993, -0.211924l 0.44993, -0.21188l 0.44993, -0.211837l 0.44993, -0.211793l 0.44993, -0.21175l 0.44993,
 -0.211706l 0.44993, -0.211662l 0.44993, -0.211619l 0.44993, -0.211575l 0.44993, -0.211531l 0.44993, -0.211488l 0.44993, -0.211444l 0.44993, -0.211401l 0.44993, -0.211357l 0.44993, -0.211313l 0.44993, -0.21127l 0.44993, -0.211226l 0.44993, -0.211183l
 0.44993, -0.211139l 0.44993, -0.211095l 0.44993, -0.211052l 0.44993, -0.211008l 0.44993, -0.210965l 0.44993, -0.210921l 0.44993, -0.210877l 0.44993, -0.210834l 0.44993, -0.21079l 0.44993, -0.210746l 0.44993, -0.210703l 0.44993, -0.210659l 0.44993,
 -0.210616" fill="none" stroke="#ff0066" stroke-width="3"/>
<path d="M142.845,388.81l 0.44993, -0.210572l 0.44993, -0.210528l 0.44993, -0.210485l 0.44993, -0.210441l 0.44993, -0.210398l 0.44993, -0.210354l 0.44993, -0.21031l 0.44993, -0.210267l 0.44993, -0.210223l 0.44993, -0.21018l 0.44993, -0.210136l
 0.44993, -0.210092l 0.44993, -0.210049l 0.44993, -0.210005l 0.44993, -0.209961l 0.44993, -0.209918l 0.44993, -0.209874l 0.44993, -0.209831l 0.44993, -0.209787l 0.44993, -0.209743l 0.44993, -0.2097l 0.44993, -0.209656l 0.44993, -0.209613l 0.44993,
 -0.209569l 0.44993, -0.209525l 0.44993, -0.209482l 0.44993, -0.209438l 0.44993, -0.209395l 0.44993, -0.209351l 0.44993, -0.209307l 0.44993, -0.209264l 0.44993, -0.20922l 0.44993, -0.209176l 0.44993, -0.209133l 0.44993, -0.209089l 0.44993, -0.209046l
 0.44993, -0.209002l 0.44993, -0.208958l 0.44993, -0.208915l 0.44993, -0.208871l 0.44993, -0.208828l 0.44993, -0.208784l 0.44993, -0.20874l 0.44993, -0.208697l 0.44993, -0.208653l 0.44993, -0.20861l 0.44993, -0.208566l 0.44993, -0.208522l 0.44993,
 -0.208479" fill="none" stroke="#ff0066" stroke-width="3"/>
<path d="M164.891,378.543l 0.44993, -0.208435l 0.44993, -0.208392l 0.44993, -0.208348l 0.44993, -0.208304l 0.44993, -0.208261l 0.44993, -0.208217l 0.44993, -0.208173l 0.44993, -0.20813l 0.44993, -0.208086l 0.44993, -0.208043l 0.44993, -0.207999l
 0.44993, -0.207955l 0.44993, -0.207912l 0.44993, -0.207868l 0.44993, -0.207825l 0.44993, -0.207781l 0.44993, -0.207737l 0.44993, -0.207694l 0.44993, -0.20765l 0.44993, -0.207607l 0.44993, -0.207563l 0.44993, -0.207519l 0.44993, -0.207476l 0.44993,
 -0.207432l 0.44993, -0.207388l 0.44993, -0.207345l 0.44993, -0.207301l 0.44993, -0.207258l 0.44993, -0.207214l 0.44993, -0.20717l 0.44993, -0.207127l 0.44993, -0.207083l 0.44993, -0.20704l 0.44993, -0.206996l 0.44993, -0.206952l 0.44993, -0.206909l
 0.44993, -0.206865l 0.44993, -0.206822l 0.44993, -0.206778l 0.44993, -0.206734l 0.44993, -0.206691l 0.44993, -0.206647l 0.44993, -0.206603l 0.44993, -0.20656l 0.44993, -0.206516l 0.44993, -0.206473l 0.44993, -0.206429l 0.44993, -0.206385l 0.44993,
 -0.206342" fill="none" stroke="#ff0066" stroke-width="3"/>
<path d="M186.938,368.381l 0.44993, -0.206298l 0.44993, -0.206255l 0.44993, -0.206211l 0.44993, -0.206167l 0.44993, -0.206124l 0.44993, -0.20608l 0.44993, -0.206037l 0.44993, -0.205993l 0.44993, -0.205949l 0.44993, -0.205906l 0.44993, -0.205862l
 0.44993, -0.205818l 0.44993, -0.205775l 0.44993, -0.205731l 0.44993, -0.205688l 0.44993, -0.205644l 0.44993, -0.2056l 0.44993, -0.205557l 0.44993, -0.205513l 0.44993, -0.20547l 0.44993, -0.205426l 0.44993, -0.205382l 0.44993, -0.205339l 0.44993,
 -0.205295l 0.44993, -0.205252l 0.44993, -0.205208l 0.44993, -0.205164l 0.44993, -0.205121l 0.44993, -0.205077l 0.44993, -0.205033l 0.44993, -0.20499l 0.44993, -0.204946l 0.44993, -0.204903l 0.44993, -0.204859l 0.44993, -0.204815l 0.44993, -0.204772l
 0.44993, -0.204728l 0.44993, -0.204685l 0.44993, -0.204641l 0.44993, -0.204597l 0.44993, -0.204554l 0.44993, -0.20451l 0.44993, -0.204467l 0.44993, -0.204423l 0.44993, -0.204379l 0.44993, -0.204336l 0.44993, -0.204292l 0.44993, -0.204248l 0.44993,
 -0.204205" fill="none" stroke="#ff0066" stroke-width="3"/>
<path d="M208.985,358.324l 0.44993, -0.204161l 0.44993, -0.204118l 0.44993, -0.204074l 0.44993, -0.20403l 0.44993, -0.203987l 0.44993, -0.203943l 0.44993, -0.2039l 0.44993, -0.203856l 0.44993, -0.203812l 0.44993, -0.203769l 0.44993, -0.203725l
 0.44993, -0.203682l 0.44993, -0.203638l 0.44993, -0.203594l 0.44993, -0.203551l 0.44993, -0.203507l 0.44993, -0.203463l 0.44993, -0.20342l 0.44993, -0.203376l 0.44993, -0.203333l 0.44993, -0.203289l 0.44993, -0.203245l 0.44993, -0.203202l 0.44993,
 -0.203158l 0.44993, -0.203115l 0.44993, -0.203071l 0.44993, -0.203027l 0.44993, -0.202984l 0.44993, -0.20294l 0.44993, -0.202897l 0.44993, -0.202853l 0.44993, -0.202809l 0.44993, -0.202766l 0.44993, -0.202722l 0.44993, -0.202679l 0.44993, -0.202635l
 0.44993, -0.202591l 0.44993, -0.202548l 0.44993, -0.202504l 0.44993, -0.20246l 0.44993, -0.202417l 0.44993, -0.202373l 0.44993, -0.20233l 0.44993, -0.202286l 0.44993, -0.202242l 0.44993, -0.202199l 0.44993, -0.202155l 0.44993, -0.202112l 0.44993,
 -0.202068" fill="none" stroke="#ff0066" stroke-width="3"/>
<path d="M231.031,348.371l 0.44993, -0.202024l 0.44993, -0.201981l 0.44993, -0.201937l 0.44993, -0.201894l 0.44993, -0.20185l 0.44993, -0.201806l 0.44993, -0.201763l 0.44993, -0.201719l 0.44993, -0.201675l 0.44993, -0.201632l 0.44993, -0.201588l
 0.44993, -0.201545l 0.44993, -0.201501l 0.44993, -0.201457l 0.44993, -0.201414l 0.44993, -0.20137l 0.44993, -0.201327l 0.44993, -0.201283l 0.44993, -0.201239l 0.44993, -0.201196l 0.44993, -0.201152l 0.44993, -0.201109l 0.44993, -0.201065l 0.44993,
 -0.201021l 0.44993, -0.200978l 0.44993, -0.200934l 0.44993, -0.20089l 0.44993, -0.200847l 0.44993, -0.200803l 0.44993, -0.20076l 0.44993, -0.200716l 0.44993, -0.200672l 0.44993, -0.200629l 0.44993, -0.200585l 0.44993, -0.200542l 0.44993, -0.200498l
 0.44993, -0.200454l 0.44993, -0.200411l 0.44993, -0.200367l 0.44993, -0.200324l 0.44993, -0.20028l 0.44993, -0.200236l 0.44993, -0.200193l 0.44993, -0.200149l 0.44993, -0.200105l 0.44993, -0.200062l 0.44993, -0.200018l 0.44993, -0.199975l 0.44993,
 -0.199931" fill="none" stroke="#ff0066" stroke-width="3"/>
<path d="M253.078,338.523l 0.44993, -0.199887l 0.44993, -0.199844l 0.44993, -0.1998l 0.44993, -0.199757l 0.44993, -0.199713l 0.44993, -0.199669l 0.44993, -0.199626l 0.44993, -0.199582l 0.44993, -0.199539l 0.44993, -0.199495l 0.44993, -0.199451l
 0.44993, -0.199408l 0.44993, -0.199364l 0.44993, -0.19932l 0.44993, -0.199277l 0.44993, -0.199233l 0.44993, -0.19919l 0.44993, -0.199146l 0.44993, -0.199102l 0.44993, -0.199059l 0.44993, -0.199015l 0.44993, -0.198972l 0.44993, -0.198928l 0.44993,
 -0.198884l 0.44993, -0.198841l 0.44993, -0.198797l 0.44993, -0.198754l 0.44993, -0.19871l 0.44993, -0.198666l 0.44993, -0.198623l 0.44993, -0.198579l 0.44993, -0.198535l 0.44993, -0.198492l 0.44993, -0.198448l 0.44993, -0.198405l 0.44993, -0.198361l
 0.44993, -0.198317l 0.44993, -0.198274l 0.44993, -0.19823l 0.44993, -0.198187l 0.44993, -0.198143l 0.44993, -0.198099l 0.44993, -0.198056l 0.44993, -0.198012l 0.44993, -0.197969l 0.44993, -0.197925l 0.44993, -0.197881l 0.44993, -0.197838l 0.44993,
 -0.197794" fill="none" stroke="#ff0066" stroke-width="3"/>
<path d="M275.124,328.78l 0.44993, -0.197751l 0.44993, -0.197707l 0.44993, -0.197663l 0.44993, -0.19762l 0.44993, -0.197576l 0.44993, -0.197532l 0.44993, -0.197489l 0.44993, -0.197445l 0.44993, -0.197402l 0.44993, -0.197358l 0.44993, -0.197314l
 0.44993, -0.197271l 0.44993, -0.197227l 0.44993, -0.197184l 0.44993, -0.19714l 0.44993, -0.197096l 0.44993, -0.197053l 0.44993, -0.197009l 0.44993, -0.196966l 0.44993, -0.196922l 0.44993, -0.196878l 0.44993, -0.196835l 0.44993, -0.196791l 0.44993,
 -0.196747l 0.44993, -0.196704l 0.44993, -0.19666l 0.44993, -0.196617l 0.44993, -0.196573l 0.44993, -0.196529l 0.44993, -0.196486l 0.44993, -0.196442l 0.44993, -0.196399l 0.44993, -0.196355l 0.44993, -0.196311l 0.44993, -0.196268l 0.44993, -0.196224l
 0.44993, -0.196181l 0.44993, -0.196137l 0.44993, -0.196093l 0.44993, -0.19605l 0.44993, -0.196006l 0.44993, -0.195962l 0.44993, -0.195919l 0.44993, -0.195875l 0.44993, -0.195832l 0.44993, -0.195788l 0.44993, -0.195744l 0.44993, -0.195701l 0.44993,
 -0.195657" fill="none" stroke="#ff0066" stroke-width="3"/>
<path d="M297.171,319.142l 0.44993, -0.195614l 0.44993, -0.19557l 0.44993, -0.195526l 0.44993, -0.195483l 0.44993, -0.195439l 0.44993, -0.195396l 0.44993, -0.195352l 0.44993, -0.195308l 0.44993, -0.195265l 0.44993, -0.195221l 0.44993, -0.195177l
 0.44993, -0.195134l 0.44993, -0.19509l 0.44993, -0.195047l 0.44993, -0.195003l 0.44993, -0.194959l 0.44993, -0.194916l 0.44993, -0.194872l 0.44993, -0.194829l 0.44993, -0.194785l 0.44993, -0.194741l 0.44993, -0.194698l 0.44993, -0.194654l 0.44993,
 -0.194611l 0.44993, -0.194567l 0.44993, -0.194523l 0.44993, -0.19448l 0.44993, -0.194436l 0.44993, -0.194392l 0.44993, -0.194349l 0.44993, -0.194305l 0.44993, -0.194262l 0.44993, -0.194218l 0.44993, -0.194174l 0.44993, -0.194131l 0.44993, -0.194087l
 0.44993, -0.194044l 0.44993, -0.194l 0.44993, -0.193956l 0.44993, -0.193913l 0.44993, -0.193869l 0.44993, -0.193826l 0.44993, -0.193782l 0.44993, -0.193738l 0.44993, -0.193695l 0.44993, -0.193651l 0.44993, -0.193607l 0.44993, -0.193564l 0.44993,
 -0.19352" fill="none" stroke="#ff0066" stroke-width="3"/>
<path d="M319.217,309.608l 0.44993, -0.193477l 0.44993, -0.193433l 0.44993, -0.193389l 0.44993, -0.193346l 0.44993, -0.193302l 0.44993, -0.193259l 0.44993, -0.193215l 0.44993, -0.193171l 0.44993, -0.193128l 0.44993, -0.193084l 0.44993, -0.193041l
 0.44993, -0.192997l 0.44993, -0.192953l 0.44993, -0.19291l 0.44993, -0.192866l 0.44993, -0.192823l 0.44993, -0.192779l 0.44993, -0.192735l 0.44993, -0.192692l 0.44993, -0.192648l 0.44993, -0.192604l 0.44993, -0.192561l 0.44993, -0.192517l 0.44993,
 -0.192474l 0.44993, -0.19243l 0.44993, -0.192386l 0.44993, -0.192343l 0.44993, -0.192299l 0.44993, -0.192256l 0.44993, -0.192212l 0.44993, -0.192168l 0.44993, -0.192125l 0.44993, -0.192081l 0.44993, -0.192038l 0.44993, -0.191994l 0.44993, -0.19195l
 0.44993, -0.191907l 0.44993, -0.191863l 0.44993, -0.191819l 0.44993, -0.191776l 0.44993, -0.191732l 0.44993, -0.191689l 0.44993, -0.191645l 0.44993, -0.191601l 0.44993, -0.191558l 0.44993, -0.191514l 0.44993, -0.191471l 0.44993, -0.191427l 0.44993,
 -0.191383" fill="none" stroke="#ff0066" stroke-width="3"/>
<path d="M341.264,300.179l 0.44993, -0.19134l 0.44993, -0.191296l 0.44993, -0.191253l 0.44993, -0.191209l 0.44993, -0.191165l 0.44993, -0.191122l 0.44993, -0.191078l 0.44993, -0.191034l 0.44993, -0.190991l 0.44993, -0.190947l 0.44993, -0.190904l
 0.44993, -0.19086l 0.44993, -0.190816l 0.44993, -0.190773l 0.44993, -0.190729l 0.44993, -0.190686l 0.44993, -0.190642l 0.44993, -0.190598l 0.44993, -0.190555l 0.44993, -0.190511l 0.44993, -0.190468l 0.44993, -0.190424l 0.44993, -0.19038l 0.44993,
 -0.190337l 0.44993, -0.190293l 0.44993, -0.190249l 0.44993, -0.190206l 0.44993, -0.190162l 0.44993, -0.190119l 0.44993, -0.190075l 0.44993, -0.190031l 0.44993, -0.189988l 0.44993, -0.189944l 0.44993, -0.189901l 0.44993, -0.189857l 0.44993,
 -0.189813l 0.44993, -0.18977l 0.44993, -0.189726l 0.44993, -0.189683l 0.44993, -0.189639l 0.44993, -0.189595l 0.44993, -0.189552l 0.44993, -0.189508l 0.44993, -0.189464l 0.44993, -0.189421l 0.44993, -0.189377l 0.44993, -0.189334l 0.44993, -0.18929l
 0.44993, -0.189246" fill="none" stroke="#ff0066" stroke-width="3"/>
<path d="M363.311,290.855l 0.44993, -0.189203l 0.44993, -0.189159l 0.44993, -0.189116l 0.44993, -0.189072l 0.44993, -0.189028l 0.44993, -0.188985l 0.44993, -0.188941l 0.44993, -0.188898l 0.44993, -0.188854l 0.44993, -0.18881l 0.44993, -0.188767l
 0.44993, -0.188723l 0.44993, -0.188679l 0.44993, -0.188636l 0.44993, -0.188592l 0.44993, -0.188549l 0.44993, -0.188505l 0.44993, -0.188461l 0.44993, -0.188418l 0.44993, -0.188374l 0.44993, -0.188331l 0.44993, -0.188287l 0.44993, -0.188243l 0.44993,
 -0.1882l 0.44993, -0.188156l 0.44993, -0.188113l 0.44993, -0.188069l 0.44993, -0.188025l 0.44993, -0.187982l 0.44993, -0.187938l 0.44993, -0.187894l 0.44993, -0.187851l 0.44993, -0.187807l 0.44993, -0.187764l 0.44993, -0.18772l 0.44993, -0.187676l
 0.44993, -0.187633l 0.44993, -0.187589l 0.44993, -0.187546l 0.44993, -0.187502l 0.44993, -0.187458l 0.44993, -0.187415l 0.44993, -0.187371l 0.44993, -0.187328l 0.44993, -0.187284l 0.44993, -0.18724l 0.44993, -0.187197l 0.44993, -0.187153l 0.44993,
 -0.18711" fill="none" stroke="#ff0066" stroke-width="3"/>
<path d="M385.357,281.635l 0.44993, -0.187066l 0.44993, -0.187022l 0.44993, -0.186979l 0.44993, -0.186935l 0.44993, -0.186891l 0.44993, -0.186848l 0.44993, -0.186804l 0.44993, -0.186761l 0.44993, -0.186717l 0.44993, -0.186673l 0.44993, -0.18663l
 0.44993, -0.186586l 0.44993, -0.186543l 0.44993, -0.186499l 0.44993, -0.186455l 0.44993, -0.186412l 0.44993, -0.186368l 0.44993, -0.186325l 0.44993, -0.186281l 0.44993, -0.186237l 0.44993, -0.186194l 0.44993, -0.18615l 0.44993, -0.186106l 0.44993,
 -0.186063l 0.44993, -0.186019l 0.44993, -0.185976l 0.44993, -0.185932l 0.44993, -0.185888l 0.44993, -0.185845l 0.44993, -0.185801l 0.44993, -0.185758l 0.44993, -0.185714l 0.44993, -0.18567l 0.44993, -0.185627l 0.44993, -0.185583l 0.44993, -0.18554l
 0.44993, -0.185496l 0.44993, -0.185452l 0.44993, -0.185409l 0.44993, -0.185365l 0.44993, -0.185321l 0.44993, -0.185278l 0.44993, -0.185234l 0.44993, -0.185191l 0.44993, -0.185147l 0.44993, -0.185103l 0.44993, -0.18506l 0.44993, -0.185016l 0.44993,
 -0.184973" fill="none" stroke="#ff0066" stroke-width="3"/>
<path d="M407.404,272.52l 0.44993, -0.184929l 0.44993, -0.184885l 0.44993, -0.184842l 0.44993, -0.184798l 0.44993, -0.184755l 0.44993, -0.184711l 0.44993, -0.184667l 0.44993, -0.184624l 0.44993, -0.18458l 0.44993, -0.184536l 0.44993, -0.184493l
 0.44993, -0.184449l 0.44993, -0.184406l 0.44993, -0.184362l 0.44993, -0.184318l 0.44993, -0.184275l 0.44993, -0.184231l 0.44993, -0.184188l 0.44993, -0.184144l 0.44993, -0.1841l 0.44993, -0.184057l 0.44993, -0.184013l 0.44993, -0.18397l 0.44993,
 -0.183926l 0.44993, -0.183882l 0.44993, -0.183839l 0.44993, -0.183795l 0.44993, -0.183751l 0.44993, -0.183708l 0.44993, -0.183664l 0.44993, -0.183621l 0.44993, -0.183577l 0.44993, -0.183533l 0.44993, -0.18349l 0.44993, -0.183446l 0.44993, -0.183403l
 0.44993, -0.183359l 0.44993, -0.183315l 0.44993, -0.183272l 0.44993, -0.183228l 0.44993, -0.183185l 0.44993, -0.183141l 0.44993, -0.183097l 0.44993, -0.183054l 0.44993, -0.18301l 0.44993, -0.182967l 0.44993, -0.182923l 0.44993, -0.182879l 0.44993,
 -0.182836" fill="none" stroke="#ff0066" stroke-width="3"/>
<path d="M429.45,263.51l 0.44993, -0.182792l 0.44993, -0.182748l 0.44993, -0.182705l 0.44993, -0.182661l 0.44993, -0.182618l 0.44993, -0.182574l 0.44993, -0.18253l 0.44993, -0.182487l 0.44993, -0.182443l 0.44993, -0.1824l 0.44993, -0.182356l 0.44993,
 -0.182312l 0.44993, -0.182269l 0.44993, -0.182225l 0.44993, -0.182182l 0.44993, -0.182138l 0.44993, -0.182094l 0.44993, -0.182051l 0.44993, -0.182007l 0.44993, -0.181963l 0.44993, -0.18192l 0.44993, -0.181876l 0.44993, -0.181833l 0.44993, -0.181789l
 0.44993, -0.181745l 0.44993, -0.181702l 0.44993, -0.181658l 0.44993, -0.181615l 0.44993, -0.181571l 0.44993, -0.181527l 0.44993, -0.181484l 0.44993, -0.18144l 0.44993, -0.181397l 0.44993, -0.181353l 0.44993, -0.181309l 0.44993, -0.181266l 0.44993,
 -0.181222l 0.44993, -0.181178l 0.44993, -0.181135l 0.44993, -0.181091l 0.44993, -0.181048l 0.44993, -0.181004l 0.44993, -0.18096l 0.44993, -0.180917l 0.44993, -0.180873l 0.44993, -0.18083l 0.44993, -0.180786l 0.44993, -0.180742l 0.44993, -0.180699"
 fill="none" stroke="#ff0066" stroke-width="3"/>
<path d="M451.497,254.604l 0.44993, -0.180655l 0.44993, -0.180612l 0.44993, -0.180568l 0.44993, -0.180524l 0.44993, -0.180481l 0.44993, -0.180437l 0.44993, -0.180393l 0.44993, -0.18035l 0.44993, -0.180306l 0.44993, -0.180263l 0.44993, -0.180219l
 0.44993, -0.180175l 0.44993, -0.180132l 0.44993, -0.180088l 0.44993, -0.180045l 0.44993, -0.180001l 0.44993, -0.179957l 0.44993, -0.179914l 0.44993, -0.17987l 0.44993, -0.179827l 0.44993, -0.179783l 0.44993, -0.179739l 0.44993, -0.179696l 0.44993,
 -0.179652l 0.44993, -0.179608l 0.44993, -0.179565l 0.44993, -0.179521l 0.44993, -0.179478l 0.44993, -0.179434l 0.44993, -0.17939l 0.44993, -0.179347l 0.44993, -0.179303l 0.44993, -0.17926l 0.44993, -0.179216l 0.44993, -0.179172l 0.44993, -0.179129l
 0.44993, -0.179085l 0.44993, -0.179042l 0.44993, -0.178998l 0.44993, -0.178954l 0.44993, -0.178911l 0.44993, -0.178867l 0.44993, -0.178823l 0.44993, -0.17878l 0.44993, -0.178736l 0.44993, -0.178693l 0.44993, -0.178649l 0.44993, -0.178605l 0.44993,
 -0.178562" fill="none" stroke="#ff0066" stroke-width="3"/>
<path d="M473.543,245.803l 0.44993, -0.178518l 0.44993, -0.178475l 0.44993, -0.178431l 0.44993, -0.178387l 0.44993, -0.178344l 0.44993, -0.1783l 0.44993, -0.178257l 0.44993, -0.178213l 0.44993, -0.178169l 0.44993, -0.178126l 0.44993, -0.178082l
 0.44993, -0.178038l 0.44993, -0.177995l 0.44993, -0.177951l 0.44993, -0.177908l 0.44993, -0.177864l 0.44993, -0.17782l 0.44993, -0.177777l 0.44993, -0.177733l 0.44993, -0.17769l 0.44993, -0.177646l 0.44993, -0.177602l 0.44993, -0.177559l 0.44993,
 -0.177515l 0.44993, -0.177472l 0.44993, -0.177428l 0.44993, -0.177384l 0.44993, -0.177341l 0.44993, -0.177297l 0.44993, -0.177253l 0.44993, -0.17721l 0.44993, -0.177166l 0.44993, -0.177123l 0.44993, -0.177079l 0.44993, -0.177035l 0.44993, -0.176992l
 0.44993, -0.176948l 0.44993, -0.176905l 0.44993, -0.176861l 0.44993, -0.176817l 0.44993, -0.176774l 0.44993, -0.17673l 0.44993, -0.176687l 0.44993, -0.176643l 0.44993, -0.176599l 0.44993, -0.176556l 0.44993, -0.176512l 0.44993, -0.176469l 0.44993,
 -0.176425" fill="none" stroke="#ff0066" stroke-width="3"/>
<path d="M495.59,237.107l 0.44993, -0.176381l 0.44993, -0.176338l 0.44993, -0.176294l 0.44993, -0.17625l 0.44993, -0.176207l 0.44993, -0.176163l 0.44993, -0.17612l 0.44993, -0.176076l 0.44993, -0.176032l 0.44993, -0.175989l 0.44993, -0.175945l
 0.44993, -0.175902l 0.44993, -0.175858l 0.44993, -0.175814l 0.44993, -0.175771l 0.44993, -0.175727l 0.44993, -0.175684l 0.44993, -0.17564l 0.44993, -0.175596l 0.44993, -0.175553l 0.44993, -0.175509l 0.44993, -0.175465l 0.44993, -0.175422l 0.44993,
 -0.175378l 0.44993, -0.175335l 0.44993, -0.175291l 0.44993, -0.175247l 0.44993, -0.175204l 0.44993, -0.17516l 0.44993, -0.175117l 0.44993, -0.175073l 0.44993, -0.175029l 0.44993, -0.174986l 0.44993, -0.174942l 0.44993, -0.174899l 0.44993, -0.174855l
 0.44993, -0.174811l 0.44993, -0.174768l 0.44993, -0.174724l 0.44993, -0.17468l 0.44993, -0.174637l 0.44993, -0.174593l 0.44993, -0.17455l 0.44993, -0.174506l 0.44993, -0.174462l 0.44993, -0.174419l 0.44993, -0.174375l 0.44993, -0.174332l 0.44993,
 -0.174288" fill="none" stroke="#ff0066" stroke-width="3"/>
<path d="M517.636,228.516l 0.44993, -0.174244l 0.44993, -0.174201l 0.44993, -0.174157l 0.44993, -0.174114l 0.44993, -0.17407l 0.44993, -0.174026l 0.44993, -0.173983l 0.44993, -0.173939l 0.44993, -0.173895l 0.44993, -0.173852l 0.44993, -0.173808l
 0.44993, -0.173765l 0.44993, -0.173721l 0.44993, -0.173677l 0.44993, -0.173634l 0.44993, -0.17359l 0.44993, -0.173547l 0.44993, -0.173503l 0.44993, -0.173459l 0.44993, -0.173416l 0.44993, -0.173372l 0.44993, -0.173329l 0.44993, -0.173285l 0.44993,
 -0.173241l 0.44993, -0.173198l 0.44993, -0.173154l 0.44993, -0.17311l 0.44993, -0.173067l 0.44993, -0.173023l 0.44993, -0.17298l 0.44993, -0.172936l 0.44993, -0.172892l 0.44993, -0.172849l 0.44993, -0.172805l 0.44993, -0.172762l 0.44993, -0.172718l
 0.44993, -0.172674l 0.44993, -0.172631l 0.44993, -0.172587l 0.44993, -0.172544l 0.44993, -0.1725l 0.44993, -0.172456l 0.44993, -0.172413l 0.44993, -0.172369l 0.44993, -0.172326l 0.44993, -0.172282l 0.44993, -0.172238l 0.44993, -0.172195l 0.44993,
 -0.172151" fill="none" stroke="#ff0066" stroke-width="3"/>
<path d="M539.683,220.029l 0.44993, -0.172107l 0.44993, -0.172064l 0.44993, -0.17202l 0.44993, -0.171977l 0.44993, -0.171933l 0.44993, -0.171889l 0.44993, -0.171846l 0.44993, -0.171802l 0.44993, -0.171759l 0.44993, -0.171715l 0.44993, -0.171671l
 0.44993, -0.171628l 0.44993, -0.171584l 0.44993, -0.171541l 0.44993, -0.171497l 0.44993, -0.171453l 0.44993, -0.17141l 0.44993, -0.171366l 0.44993, -0.171322" fill="none" stroke="#ff0066" stroke-width="3"/>
<path d="M212.509,21.4167h 275.957" fill="none" stroke="#999999" stroke-width="7"/>
<text xml:space="preserve" x="360.607" y="50.7193" fill="black" font-size="16.0105" font-family="Helvetica"> with EMC</text>
<text xml:space="preserve" x="352.717" y="50.7193" fill="black" font-size="16.0105" font-family="Times">&#0947;</text>
<text xml:space="preserve" x="344.828" y="50.7193" fill="black" font-size="16.0105" font-family="Times">&#0947;</text>
<text xml:space="preserve" x="336.938" y="50.7193" fill="black" font-size="16.0105" font-family="Times">&#0947;</text>
<text xml:space="preserve" x="331.866" y="50.7193" fill="black" font-size="16.0105" font-family="Helvetica"> </text>
<text xml:space="preserve" x="316.65" y="50.7193" fill="black" font-size="16.0105" font-family="Times">&#8594;</text>
<text xml:space="preserve" x="311.578" y="50.7193" fill="black" font-size="16.0105" font-family="Helvetica"> </text>
<text xml:space="preserve" x="303.689" y="50.7193" fill="black" font-size="16.0105" font-family="Times">&#0947;</text>
<text xml:space="preserve" x="298.053" y="45.0838" fill="black" font-size="10.8403" font-family="Helvetica">0</text>
<text xml:space="preserve" x="289.6" y="50.7193" fill="black" font-size="16.0105" font-family="Times">&#0960;</text>
<text xml:space="preserve" x="284.528" y="50.7193" fill="black" font-size="16.0105" font-family="Helvetica"> </text>
<text xml:space="preserve" x="269.312" y="50.7193" fill="black" font-size="16.0105" font-family="Times">&#8594;</text>
<text xml:space="preserve" x="264.24" y="50.7193" fill="black" font-size="16.0105" font-family="Helvetica"> </text>
<text xml:space="preserve" x="252.969" y="50.7193" fill="black" font-size="16.0105" font-family="Times">&#0969;</text>
<text xml:space="preserve" x="128.989" y="50.7193" fill="black" font-size="16.0105" font-family="Helvetica"> = 13 TeV (EG1), </text>
<text xml:space="preserve" x="120.536" y="50.7193" fill="black" font-size="16.0105" font-family="Helvetica" font-style="oblique">s</text>
<path d="M114.9,41.7025l 1.69064, 9.58031" fill="none" stroke="black" stroke-width="2"/>
<path d="M116.591,51.2829l 2.25419, -14.0887" fill="none" stroke="black"/>
<path d="M118.845,37.1942h 10.1439" fill="none" stroke="black"/>
<text xml:space="preserve" x="89.5406" y="50.7193" fill="black" font-size="16.0105" font-family="Helvetica">pp </text>
<text xml:space="preserve" x="89.5406" y="85.6593" fill="black" font-size="16.0105" font-family="Helvetica">ALICE work in progress</text>
<text xml:space="preserve" x="214.085" y="120.599" fill="black" font-size="16.0105" font-family="Helvetica">) &lt; 18.0</text>
<text xml:space="preserve" x="205.068" y="120.599" fill="black" font-size="16.0105" font-family="Helvetica" font-style="oblique">c</text>
<text xml:space="preserve" x="154.912" y="120.599" fill="black" font-size="16.0105" font-family="Helvetica"> /(GeV/</text>
<text xml:space="preserve" x="148.15" y="128.489" fill="black" font-size="10.8403" font-family="Helvetica">T</text>
<text xml:space="preserve" x="138.569" y="120.599" fill="black" font-size="16.0105" font-family="Helvetica" font-style="oblique">p</text>
<text xml:space="preserve" x="133.497" y="120.599" fill="black" font-size="16.0105" font-family="Helvetica"> </text>
<text xml:space="preserve" x="125.044" y="120.599" fill="black" font-size="16.0105" font-family="Times">&#8804;</text>
<text xml:space="preserve" x="89.5406" y="120.599" fill="black" font-size="16.0105" font-family="Helvetica">16.0 </text>
<rect x="312.311" y="69.1755" width="198.425" height="113.448" fill="white"/>
<text xml:space="preserve" x="361.734" y="85.0957" fill="black" font-size="16.0105" font-family="Helvetica">ratio</text>
<path d="M319.752,80.5203h 34.7244" fill="none" stroke="black" stroke-width="2"/>
<g fill="black">
<circle cx="337.114" cy="80.5203" r="6.76257"/>
</g>
<text xml:space="preserve" x="361.734" y="108.201" fill="black" font-size="16.0105" font-family="Helvetica">peak range</text>
<path d="M319.752,103.21h 34.7244" fill="none" stroke="#333333" stroke-width="2"/>
<g stroke="#333333" stroke-width="2" fill="none">
<circle cx="337.114" cy="103.21" r="5.63548"/>
</g>
<text xml:space="preserve" x="361.734" y="130.743" fill="black" font-size="16.0105" font-family="Helvetica">background pol1</text>
<path d="M319.752,125.899h 34.7244" fill="none" stroke="#33cccc" stroke-width="3"/>
<text xml:space="preserve" x="361.734" y="153.285" fill="black" font-size="16.0105" font-family="Helvetica">background pol2</text>
<path d="M319.752,148.589h 34.7244" fill="none" stroke="#ff0066" stroke-width="3"/>
<text xml:space="preserve" x="361.734" y="175.827" fill="black" font-size="16.0105" font-family="Helvetica">param. range</text>
<path d="M319.752,171.279h 34.7244" fill="none" stroke="#999999" stroke-width="7"/></svg>
