<?xml version="1.0" standalone="no"?>
<svg width="567.429" height="553.904" viewBox="0 0 567.429 553.904" xmlns="http://www.w3.org/2000/svg" shape-rendering="crispEdges">
<title>
MC/EG1/OmegaRotPSNCell/SameEventToBackgroundRatio_08.svg
</title>
<desc>
Creator: ROOT Version 6.20/08
CreationDate: Mon Mar 29 21:31:17 2021</desc>
<defs>
</defs>
<rect x="0.5" y="0" width="566.929" height="553.404" fill="white"/>
<rect x="68.5315" y="16.6021" width="484.724" height="481.461" fill="white"/>
<rect x="68.5315" y="16.6021" width="484.724" height="481.461" fill="none" stroke="black"/>
<rect x="68.5315" y="16.6021" width="484.724" height="481.461" fill="white"/>
<rect x="68.5315" y="16.6021" width="484.724" height="481.461" fill="none" stroke="black"/>
<g fill="black">
<circle cx="109.325" cy="497.814" r="6.76257"/>
</g>
<g fill="black">
<circle cx="114.124" cy="437.226" r="6.76257"/>
</g>
<g fill="black">
<circle cx="118.924" cy="290.559" r="6.76257"/>
</g>
<g fill="black">
<circle cx="123.723" cy="197.15" r="6.76257"/>
</g>
<g fill="black">
<circle cx="128.522" cy="215.538" r="6.76257"/>
</g>
<g fill="black">
<circle cx="133.321" cy="340.22" r="6.76257"/>
</g>
<g fill="black">
<circle cx="138.121" cy="237.607" r="6.76257"/>
</g>
<g fill="black">
<circle cx="142.92" cy="210.8" r="6.76257"/>
</g>
<g fill="black">
<circle cx="147.719" cy="235.488" r="6.76257"/>
</g>
<g fill="black">
<circle cx="152.518" cy="228.57" r="6.76257"/>
</g>
<g fill="black">
<circle cx="157.318" cy="231.037" r="6.76257"/>
</g>
<g fill="black">
<circle cx="162.117" cy="237.492" r="6.76257"/>
</g>
<g fill="black">
<circle cx="166.916" cy="247.757" r="6.76257"/>
</g>
<g fill="black">
<circle cx="171.715" cy="261.719" r="6.76257"/>
</g>
<g fill="black">
<circle cx="176.515" cy="267.772" r="6.76257"/>
</g>
<g fill="black">
<circle cx="181.314" cy="277.952" r="6.76257"/>
</g>
<g fill="black">
<circle cx="186.113" cy="288.43" r="6.76257"/>
</g>
<g fill="black">
<circle cx="190.912" cy="292.964" r="6.76257"/>
</g>
<g fill="black">
<circle cx="195.712" cy="298.318" r="6.76257"/>
</g>
<g fill="black">
<circle cx="200.511" cy="301.049" r="6.76257"/>
</g>
<g fill="black">
<circle cx="205.31" cy="302.958" r="6.76257"/>
</g>
<g fill="black">
<circle cx="210.109" cy="304.95" r="6.76257"/>
</g>
<g fill="black">
<circle cx="214.909" cy="308.391" r="6.76257"/>
</g>
<g fill="black">
<circle cx="219.708" cy="310.081" r="6.76257"/>
</g>
<g fill="black">
<circle cx="224.507" cy="308.454" r="6.76257"/>
</g>
<g fill="black">
<circle cx="229.306" cy="307.817" r="6.76257"/>
</g>
<g fill="black">
<circle cx="234.106" cy="309.01" r="6.76257"/>
</g>
<g fill="black">
<circle cx="238.905" cy="308.933" r="6.76257"/>
</g>
<g fill="black">
<circle cx="243.704" cy="306.113" r="6.76257"/>
</g>
<g fill="black">
<circle cx="248.503" cy="305.903" r="6.76257"/>
</g>
<g fill="black">
<circle cx="253.303" cy="307.815" r="6.76257"/>
</g>
<g fill="black">
<circle cx="258.102" cy="309.322" r="6.76257"/>
</g>
<g fill="black">
<circle cx="262.901" cy="307.977" r="6.76257"/>
</g>
<g fill="black">
<circle cx="267.7" cy="305.971" r="6.76257"/>
</g>
<g fill="black">
<circle cx="272.5" cy="311.284" r="6.76257"/>
</g>
<g fill="black">
<circle cx="277.299" cy="306.712" r="6.76257"/>
</g>
<g fill="black">
<circle cx="339.689" cy="307.935" r="6.76257"/>
</g>
<g fill="black">
<circle cx="344.488" cy="309.759" r="6.76257"/>
</g>
<g fill="black">
<circle cx="349.288" cy="308.639" r="6.76257"/>
</g>
<g fill="black">
<circle cx="354.087" cy="308.589" r="6.76257"/>
</g>
<g fill="black">
<circle cx="358.886" cy="310.359" r="6.76257"/>
</g>
<g fill="black">
<circle cx="363.685" cy="310.429" r="6.76257"/>
</g>
<g fill="black">
<circle cx="368.485" cy="306.222" r="6.76257"/>
</g>
<g fill="black">
<circle cx="373.284" cy="308.434" r="6.76257"/>
</g>
<g fill="black">
<circle cx="378.083" cy="305.858" r="6.76257"/>
</g>
<g fill="black">
<circle cx="382.882" cy="305.229" r="6.76257"/>
</g>
<g fill="black">
<circle cx="387.682" cy="305.955" r="6.76257"/>
</g>
<g fill="black">
<circle cx="392.481" cy="305.175" r="6.76257"/>
</g>
<g fill="black">
<circle cx="397.28" cy="306.124" r="6.76257"/>
</g>
<g fill="black">
<circle cx="402.079" cy="304.263" r="6.76257"/>
</g>
<g fill="black">
<circle cx="406.879" cy="302.768" r="6.76257"/>
</g>
<g fill="black">
<circle cx="411.678" cy="303.032" r="6.76257"/>
</g>
<g fill="black">
<circle cx="416.477" cy="301.681" r="6.76257"/>
</g>
<g fill="black">
<circle cx="421.276" cy="302.417" r="6.76257"/>
</g>
<g fill="black">
<circle cx="426.076" cy="299.973" r="6.76257"/>
</g>
<g fill="black">
<circle cx="430.875" cy="298.757" r="6.76257"/>
</g>
<g fill="black">
<circle cx="435.674" cy="297.429" r="6.76257"/>
</g>
<g fill="black">
<circle cx="440.473" cy="298.185" r="6.76257"/>
</g>
<g fill="black">
<circle cx="445.273" cy="298.765" r="6.76257"/>
</g>
<g fill="black">
<circle cx="450.072" cy="296.363" r="6.76257"/>
</g>
<g fill="black">
<circle cx="454.871" cy="297.971" r="6.76257"/>
</g>
<g fill="black">
<circle cx="459.671" cy="294.107" r="6.76257"/>
</g>
<g fill="black">
<circle cx="464.47" cy="292.709" r="6.76257"/>
</g>
<g fill="black">
<circle cx="469.269" cy="294.477" r="6.76257"/>
</g>
<g fill="black">
<circle cx="474.068" cy="291.751" r="6.76257"/>
</g>
<g fill="black">
<circle cx="478.867" cy="291.185" r="6.76257"/>
</g>
<g fill="black">
<circle cx="483.667" cy="291.369" r="6.76257"/>
</g>
<g fill="black">
<circle cx="488.466" cy="293.051" r="6.76257"/>
</g>
<g fill="black">
<circle cx="493.265" cy="290.594" r="6.76257"/>
</g>
<g fill="black">
<circle cx="498.065" cy="292.832" r="6.76257"/>
</g>
<g fill="black">
<circle cx="502.864" cy="283.514" r="6.76257"/>
</g>
<g fill="black">
<circle cx="507.663" cy="283.698" r="6.76257"/>
</g>
<g fill="black">
<circle cx="512.462" cy="283.4" r="6.76257"/>
</g>
<g fill="black">
<circle cx="517.262" cy="284.989" r="6.76257"/>
</g>
<g fill="black">
<circle cx="522.061" cy="284.739" r="6.76257"/>
</g>
<g fill="black">
<circle cx="526.86" cy="281.028" r="6.76257"/>
</g>
<g fill="black">
<circle cx="531.659" cy="283.492" r="6.76257"/>
</g>
<g fill="black">
<circle cx="536.458" cy="276.313" r="6.76257"/>
</g>
<g fill="black">
<circle cx="541.258" cy="282.802" r="6.76257"/>
</g>
<g fill="black">
<circle cx="546.057" cy="285.15" r="6.76257"/>
</g>
<path d="M68.5315,498.064h 484.724" fill="none" stroke="black"/>
<path d="M68.5315,483.869v 14.1948" fill="none" stroke="black"/>
<path d="M83.5292,490.966v 7.09741" fill="none" stroke="black"/>
<path d="M98.5268,490.966v 7.09741" fill="none" stroke="black"/>
<path d="M113.524,490.966v 7.09741" fill="none" stroke="black"/>
<path d="M128.522,483.869v 14.1948" fill="none" stroke="black"/>
<path d="M143.52,490.966v 7.09741" fill="none" stroke="black"/>
<path d="M158.517,490.966v 7.09741" fill="none" stroke="black"/>
<path d="M173.515,490.966v 7.09741" fill="none" stroke="black"/>
<path d="M188.513,483.869v 14.1948" fill="none" stroke="black"/>
<path d="M203.51,490.966v 7.09741" fill="none" stroke="black"/>
<path d="M218.508,490.966v 7.09741" fill="none" stroke="black"/>
<path d="M233.506,490.966v 7.09741" fill="none" stroke="black"/>
<path d="M248.503,483.869v 14.1948" fill="none" stroke="black"/>
<path d="M263.501,490.966v 7.09741" fill="none" stroke="black"/>
<path d="M278.499,490.966v 7.09741" fill="none" stroke="black"/>
<path d="M293.496,490.966v 7.09741" fill="none" stroke="black"/>
<path d="M308.494,483.869v 14.1948" fill="none" stroke="black"/>
<path d="M323.492,490.966v 7.09741" fill="none" stroke="black"/>
<path d="M338.489,490.966v 7.09741" fill="none" stroke="black"/>
<path d="M353.487,490.966v 7.09741" fill="none" stroke="black"/>
<path d="M368.485,483.869v 14.1948" fill="none" stroke="black"/>
<path d="M383.482,490.966v 7.09741" fill="none" stroke="black"/>
<path d="M398.48,490.966v 7.09741" fill="none" stroke="black"/>
<path d="M413.478,490.966v 7.09741" fill="none" stroke="black"/>
<path d="M428.475,483.869v 14.1948" fill="none" stroke="black"/>
<path d="M443.473,490.966v 7.09741" fill="none" stroke="black"/>
<path d="M458.471,490.966v 7.09741" fill="none" stroke="black"/>
<path d="M473.468,490.966v 7.09741" fill="none" stroke="black"/>
<path d="M488.466,483.869v 14.1948" fill="none" stroke="black"/>
<path d="M503.464,490.966v 7.09741" fill="none" stroke="black"/>
<path d="M518.461,490.966v 7.09741" fill="none" stroke="black"/>
<path d="M533.459,490.966v 7.09741" fill="none" stroke="black"/>
<path d="M548.457,483.869v 14.1948" fill="none" stroke="black"/>
<path d="M548.457,483.869v 14.1948" fill="none" stroke="black"/>
<text xml:space="preserve" x="63.6174" y="513.956" fill="black" font-size="16.0105" font-family="Helvetica">0</text>
<text xml:space="preserve" x="117.718" y="513.956" fill="black" font-size="16.0105" font-family="Helvetica">0.2</text>
<text xml:space="preserve" x="177.454" y="513.956" fill="black" font-size="16.0105" font-family="Helvetica">0.4</text>
<text xml:space="preserve" x="237.754" y="513.956" fill="black" font-size="16.0105" font-family="Helvetica">0.6</text>
<text xml:space="preserve" x="297.49" y="513.956" fill="black" font-size="16.0105" font-family="Helvetica">0.8</text>
<text xml:space="preserve" x="365.115" y="513.956" fill="black" font-size="16.0105" font-family="Helvetica">1</text>
<text xml:space="preserve" x="417.525" y="513.956" fill="black" font-size="16.0105" font-family="Helvetica">1.2</text>
<text xml:space="preserve" x="477.261" y="513.956" fill="black" font-size="16.0105" font-family="Helvetica">1.4</text>
<text xml:space="preserve" x="537.561" y="513.956" fill="black" font-size="16.0105" font-family="Helvetica">1.6</text>
<text xml:space="preserve" x="548.268" y="537.625" fill="black" font-size="16.0105" font-family="Helvetica">)</text>
<text xml:space="preserve" x="542.633" y="532.553" fill="black" font-size="10.8403" font-family="Helvetica">2</text>
<text xml:space="preserve" x="533.616" y="537.625" fill="black" font-size="16.0105" font-family="Helvetica" font-style="oblique">c</text>
<text xml:space="preserve" x="487.405" y="537.625" fill="black" font-size="16.0105" font-family="Helvetica"> (GeV/</text>
<text xml:space="preserve" x="473.317" y="542.697" fill="black" font-size="10.8403" font-family="Helvetica">inv</text>
<text xml:space="preserve" x="459.792" y="537.625" fill="black" font-size="16.0105" font-family="Helvetica" font-style="oblique">m</text>
<path d="M68.5315,16.6021h 484.724" fill="none" stroke="black"/>
<path d="M68.5315,30.7969v -14.1948" fill="none" stroke="black"/>
<path d="M83.5292,23.6995v -7.09741" fill="none" stroke="black"/>
<path d="M98.5268,23.6995v -7.09741" fill="none" stroke="black"/>
<path d="M113.524,23.6995v -7.09741" fill="none" stroke="black"/>
<path d="M128.522,30.7969v -14.1948" fill="none" stroke="black"/>
<path d="M143.52,23.6995v -7.09741" fill="none" stroke="black"/>
<path d="M158.517,23.6995v -7.09741" fill="none" stroke="black"/>
<path d="M173.515,23.6995v -7.09741" fill="none" stroke="black"/>
<path d="M188.513,30.7969v -14.1948" fill="none" stroke="black"/>
<path d="M203.51,23.6995v -7.09741" fill="none" stroke="black"/>
<path d="M218.508,23.6995v -7.09741" fill="none" stroke="black"/>
<path d="M233.506,23.6995v -7.09741" fill="none" stroke="black"/>
<path d="M248.503,30.7969v -14.1948" fill="none" stroke="black"/>
<path d="M263.501,23.6995v -7.09741" fill="none" stroke="black"/>
<path d="M278.499,23.6995v -7.09741" fill="none" stroke="black"/>
<path d="M293.496,23.6995v -7.09741" fill="none" stroke="black"/>
<path d="M308.494,30.7969v -14.1948" fill="none" stroke="black"/>
<path d="M323.492,23.6995v -7.09741" fill="none" stroke="black"/>
<path d="M338.489,23.6995v -7.09741" fill="none" stroke="black"/>
<path d="M353.487,23.6995v -7.09741" fill="none" stroke="black"/>
<path d="M368.485,30.7969v -14.1948" fill="none" stroke="black"/>
<path d="M383.482,23.6995v -7.09741" fill="none" stroke="black"/>
<path d="M398.48,23.6995v -7.09741" fill="none" stroke="black"/>
<path d="M413.478,23.6995v -7.09741" fill="none" stroke="black"/>
<path d="M428.475,30.7969v -14.1948" fill="none" stroke="black"/>
<path d="M443.473,23.6995v -7.09741" fill="none" stroke="black"/>
<path d="M458.471,23.6995v -7.09741" fill="none" stroke="black"/>
<path d="M473.468,23.6995v -7.09741" fill="none" stroke="black"/>
<path d="M488.466,30.7969v -14.1948" fill="none" stroke="black"/>
<path d="M503.464,23.6995v -7.09741" fill="none" stroke="black"/>
<path d="M518.461,23.6995v -7.09741" fill="none" stroke="black"/>
<path d="M533.459,23.6995v -7.09741" fill="none" stroke="black"/>
<path d="M548.457,30.7969v -14.1948" fill="none" stroke="black"/>
<path d="M548.457,30.7969v -14.1948" fill="none" stroke="black"/>
<path d="M68.5315,498.064v -481.461" fill="none" stroke="black"/>
<path d="M83.3283,498.064h -14.7969" fill="none" stroke="black"/>
<path d="M75.9299,476.021h -7.39843" fill="none" stroke="black"/>
<path d="M75.9299,453.978h -7.39843" fill="none" stroke="black"/>
<path d="M75.9299,431.936h -7.39843" fill="none" stroke="black"/>
<path d="M83.3283,409.893h -14.7969" fill="none" stroke="black"/>
<path d="M75.9299,387.85h -7.39843" fill="none" stroke="black"/>
<path d="M75.9299,365.807h -7.39843" fill="none" stroke="black"/>
<path d="M75.9299,343.765h -7.39843" fill="none" stroke="black"/>
<path d="M83.3283,321.722h -14.7969" fill="none" stroke="black"/>
<path d="M75.9299,299.679h -7.39843" fill="none" stroke="black"/>
<path d="M75.9299,277.637h -7.39843" fill="none" stroke="black"/>
<path d="M75.9299,255.594h -7.39843" fill="none" stroke="black"/>
<path d="M83.3283,233.551h -14.7969" fill="none" stroke="black"/>
<path d="M75.9299,211.509h -7.39843" fill="none" stroke="black"/>
<path d="M75.9299,189.466h -7.39843" fill="none" stroke="black"/>
<path d="M75.9299,167.423h -7.39843" fill="none" stroke="black"/>
<path d="M83.3283,145.38h -14.7969" fill="none" stroke="black"/>
<path d="M75.9299,123.338h -7.39843" fill="none" stroke="black"/>
<path d="M75.9299,101.295h -7.39843" fill="none" stroke="black"/>
<path d="M75.9299,79.2523h -7.39843" fill="none" stroke="black"/>
<path d="M83.3283,57.2096h -14.7969" fill="none" stroke="black"/>
<path d="M83.3283,57.2096h -14.7969" fill="none" stroke="black"/>
<path d="M75.9299,35.1669h -7.39843" fill="none" stroke="black"/>
<text xml:space="preserve" x="56.8548" y="503.248" fill="black" font-size="16.0105" font-family="Helvetica">0</text>
<text xml:space="preserve" x="43.8932" y="415.335" fill="black" font-size="16.0105" font-family="Helvetica">0.2</text>
<text xml:space="preserve" x="43.8932" y="326.858" fill="black" font-size="16.0105" font-family="Helvetica">0.4</text>
<text xml:space="preserve" x="43.8932" y="238.944" fill="black" font-size="16.0105" font-family="Helvetica">0.6</text>
<text xml:space="preserve" x="43.8932" y="150.467" fill="black" font-size="16.0105" font-family="Helvetica">0.8</text>
<text xml:space="preserve" x="59.6725" y="63.1174" fill="black" font-size="16.0105" font-family="Helvetica">1</text>
<g transform="rotate(-90,38.2577,98.0573)">
<text xml:space="preserve" x="38.2577" y="98.0573" fill="black" font-size="16.0105" font-family="Helvetica">background</text>
</g>
<g transform="rotate(-90,21.9148,98.0573)">
<text xml:space="preserve" x="21.9148" y="98.0573" fill="black" font-size="16.0105" font-family="Helvetica">same event</text>
</g>
<path d="M24.169,98.0573l 0.563548, -81.7144" fill="none" stroke="black" stroke-width="2"/>
<path d="M553.256,498.064v -481.461" fill="none" stroke="black"/>
<path d="M538.459,498.064h 14.7969" fill="none" stroke="black"/>
<path d="M545.857,476.021h 7.39843" fill="none" stroke="black"/>
<path d="M545.857,453.978h 7.39843" fill="none" stroke="black"/>
<path d="M545.857,431.936h 7.39843" fill="none" stroke="black"/>
<path d="M538.459,409.893h 14.7969" fill="none" stroke="black"/>
<path d="M545.857,387.85h 7.39843" fill="none" stroke="black"/>
<path d="M545.857,365.807h 7.39843" fill="none" stroke="black"/>
<path d="M545.857,343.765h 7.39843" fill="none" stroke="black"/>
<path d="M538.459,321.722h 14.7969" fill="none" stroke="black"/>
<path d="M545.857,299.679h 7.39843" fill="none" stroke="black"/>
<path d="M545.857,277.637h 7.39843" fill="none" stroke="black"/>
<path d="M545.857,255.594h 7.39843" fill="none" stroke="black"/>
<path d="M538.459,233.551h 14.7969" fill="none" stroke="black"/>
<path d="M545.857,211.509h 7.39843" fill="none" stroke="black"/>
<path d="M545.857,189.466h 7.39843" fill="none" stroke="black"/>
<path d="M545.857,167.423h 7.39843" fill="none" stroke="black"/>
<path d="M538.459,145.38h 14.7969" fill="none" stroke="black"/>
<path d="M545.857,123.338h 7.39843" fill="none" stroke="black"/>
<path d="M545.857,101.295h 7.39843" fill="none" stroke="black"/>
<path d="M545.857,79.2523h 7.39843" fill="none" stroke="black"/>
<path d="M538.459,57.2096h 14.7969" fill="none" stroke="black"/>
<path d="M538.459,57.2096h 14.7969" fill="none" stroke="black"/>
<path d="M545.857,35.1669h 7.39843" fill="none" stroke="black"/>
<g stroke="#333333" stroke-width="2" fill="none">
<circle cx="282.098" cy="310.173" r="5.63548"/>
</g>
<g stroke="#333333" stroke-width="2" fill="none">
<circle cx="286.897" cy="307.279" r="5.63548"/>
</g>
<g stroke="#333333" stroke-width="2" fill="none">
<circle cx="291.697" cy="304.69" r="5.63548"/>
</g>
<g stroke="#333333" stroke-width="2" fill="none">
<circle cx="296.496" cy="302.95" r="5.63548"/>
</g>
<g stroke="#333333" stroke-width="2" fill="none">
<circle cx="301.295" cy="302.94" r="5.63548"/>
</g>
<g stroke="#333333" stroke-width="2" fill="none">
<circle cx="306.094" cy="304.372" r="5.63548"/>
</g>
<g stroke="#333333" stroke-width="2" fill="none">
<circle cx="310.894" cy="306.505" r="5.63548"/>
</g>
<g stroke="#333333" stroke-width="2" fill="none">
<circle cx="315.693" cy="308.801" r="5.63548"/>
</g>
<g stroke="#333333" stroke-width="2" fill="none">
<circle cx="320.492" cy="311.372" r="5.63548"/>
</g>
<g stroke="#333333" stroke-width="2" fill="none">
<circle cx="325.291" cy="310.673" r="5.63548"/>
</g>
<g stroke="#333333" stroke-width="2" fill="none">
<circle cx="330.091" cy="310.942" r="5.63548"/>
</g>
<g stroke="#333333" stroke-width="2" fill="none">
<circle cx="334.89" cy="311.176" r="5.63548"/>
</g>
<path d="M98.7518,315.652l 0.44993, -0.0198234l 0.44993, -0.0198234l 0.44993, -0.0198234l 0.44993, -0.0198234l 0.44993, -0.0198234l 0.44993, -0.0198234l 0.44993, -0.0198234l 0.44993, -0.0198234l 0.44993, -0.0198234l 0.44993, -0.0198234l 0.44993,
 -0.0198234l 0.44993, -0.0198234l 0.44993, -0.0198234l 0.44993, -0.0198234l 0.44993, -0.0198234l 0.44993, -0.0198234l 0.44993, -0.0198234l 0.44993, -0.0198234l 0.44993, -0.0198234l 0.44993, -0.0198234l 0.44993, -0.0198234l 0.44993, -0.0198234l
 0.44993, -0.0198234l 0.44993, -0.0198234l 0.44993, -0.0198234l 0.44993, -0.0198234l 0.44993, -0.0198234l 0.44993, -0.0198234l 0.44993, -0.0198234l 0.44993, -0.0198234l 0.44993, -0.0198234l 0.44993, -0.0198234l 0.44993, -0.0198234l 0.44993,
 -0.0198234l 0.44993, -0.0198234l 0.44993, -0.0198234l 0.44993, -0.0198234l 0.44993, -0.0198234l 0.44993, -0.0198234l 0.44993, -0.0198234l 0.44993, -0.0198234l 0.44993, -0.0198234l 0.44993, -0.0198234l 0.44993, -0.0198234l 0.44993, -0.0198234l
 0.44993, -0.0198234l 0.44993, -0.0198234l 0.44993, -0.0198234l 0.44993, -0.0198234" fill="none" stroke="#33cccc" stroke-width="3"/>
<path d="M120.798,314.68l 0.44993, -0.0198234l 0.44993, -0.0198234l 0.44993, -0.0198234l 0.44993, -0.0198234l 0.44993, -0.0198234l 0.44993, -0.0198234l 0.44993, -0.0198234l 0.44993, -0.0198234l 0.44993, -0.0198234l 0.44993, -0.0198234l 0.44993,
 -0.0198234l 0.44993, -0.0198234l 0.44993, -0.0198234l 0.44993, -0.0198234l 0.44993, -0.0198234l 0.44993, -0.0198234l 0.44993, -0.0198234l 0.44993, -0.0198234l 0.44993, -0.0198234l 0.44993, -0.0198234l 0.44993, -0.0198234l 0.44993, -0.0198234l
 0.44993, -0.0198234l 0.44993, -0.0198234l 0.44993, -0.0198234l 0.44993, -0.0198234l 0.44993, -0.0198234l 0.44993, -0.0198234l 0.44993, -0.0198234l 0.44993, -0.0198234l 0.44993, -0.0198234l 0.44993, -0.0198234l 0.44993, -0.0198234l 0.44993,
 -0.0198234l 0.44993, -0.0198234l 0.44993, -0.0198234l 0.44993, -0.0198234l 0.44993, -0.0198234l 0.44993, -0.0198234l 0.44993, -0.0198234l 0.44993, -0.0198234l 0.44993, -0.0198234l 0.44993, -0.0198234l 0.44993, -0.0198234l 0.44993, -0.0198234l
 0.44993, -0.0198234l 0.44993, -0.0198234l 0.44993, -0.0198234l 0.44993, -0.0198234" fill="none" stroke="#33cccc" stroke-width="3"/>
<path d="M142.845,313.709l 0.44993, -0.0198234l 0.44993, -0.0198234l 0.44993, -0.0198234l 0.44993, -0.0198234l 0.44993, -0.0198234l 0.44993, -0.0198234l 0.44993, -0.0198234l 0.44993, -0.0198234l 0.44993, -0.0198234l 0.44993, -0.0198234l 0.44993,
 -0.0198234l 0.44993, -0.0198234l 0.44993, -0.0198234l 0.44993, -0.0198234l 0.44993, -0.0198234l 0.44993, -0.0198234l 0.44993, -0.0198234l 0.44993, -0.0198234l 0.44993, -0.0198234l 0.44993, -0.0198234l 0.44993, -0.0198234l 0.44993, -0.0198234l
 0.44993, -0.0198234l 0.44993, -0.0198234l 0.44993, -0.0198234l 0.44993, -0.0198234l 0.44993, -0.0198234l 0.44993, -0.0198234l 0.44993, -0.0198234l 0.44993, -0.0198234l 0.44993, -0.0198234l 0.44993, -0.0198234l 0.44993, -0.0198234l 0.44993,
 -0.0198234l 0.44993, -0.0198234l 0.44993, -0.0198234l 0.44993, -0.0198234l 0.44993, -0.0198234l 0.44993, -0.0198234l 0.44993, -0.0198234l 0.44993, -0.0198234l 0.44993, -0.0198234l 0.44993, -0.0198234l 0.44993, -0.0198234l 0.44993, -0.0198234l
 0.44993, -0.0198234l 0.44993, -0.0198234l 0.44993, -0.0198234l 0.44993, -0.0198234" fill="none" stroke="#33cccc" stroke-width="3"/>
<path d="M164.891,312.738l 0.44993, -0.0198234l 0.44993, -0.0198234l 0.44993, -0.0198234l 0.44993, -0.0198234l 0.44993, -0.0198234l 0.44993, -0.0198234l 0.44993, -0.0198234l 0.44993, -0.0198234l 0.44993, -0.0198234l 0.44993, -0.0198234l 0.44993,
 -0.0198234l 0.44993, -0.0198234l 0.44993, -0.0198234l 0.44993, -0.0198234l 0.44993, -0.0198234l 0.44993, -0.0198234l 0.44993, -0.0198234l 0.44993, -0.0198234l 0.44993, -0.0198234l 0.44993, -0.0198234l 0.44993, -0.0198234l 0.44993, -0.0198234l
 0.44993, -0.0198234l 0.44993, -0.0198234l 0.44993, -0.0198234l 0.44993, -0.0198234l 0.44993, -0.0198234l 0.44993, -0.0198234l 0.44993, -0.0198234l 0.44993, -0.0198234l 0.44993, -0.0198234l 0.44993, -0.0198234l 0.44993, -0.0198234l 0.44993,
 -0.0198234l 0.44993, -0.0198234l 0.44993, -0.0198234l 0.44993, -0.0198234l 0.44993, -0.0198234l 0.44993, -0.0198234l 0.44993, -0.0198234l 0.44993, -0.0198234l 0.44993, -0.0198234l 0.44993, -0.0198234l 0.44993, -0.0198234l 0.44993, -0.0198234l
 0.44993, -0.0198234l 0.44993, -0.0198234l 0.44993, -0.0198234l 0.44993, -0.0198234" fill="none" stroke="#33cccc" stroke-width="3"/>
<path d="M186.938,311.766l 0.44993, -0.0198234l 0.44993, -0.0198234l 0.44993, -0.0198234l 0.44993, -0.0198234l 0.44993, -0.0198234l 0.44993, -0.0198234l 0.44993, -0.0198234l 0.44993, -0.0198234l 0.44993, -0.0198234l 0.44993, -0.0198234l 0.44993,
 -0.0198234l 0.44993, -0.0198234l 0.44993, -0.0198234l 0.44993, -0.0198234l 0.44993, -0.0198234l 0.44993, -0.0198234l 0.44993, -0.0198234l 0.44993, -0.0198234l 0.44993, -0.0198234l 0.44993, -0.0198234l 0.44993, -0.0198234l 0.44993, -0.0198234l
 0.44993, -0.0198234l 0.44993, -0.0198234l 0.44993, -0.0198234l 0.44993, -0.0198234l 0.44993, -0.0198234l 0.44993, -0.0198234l 0.44993, -0.0198234l 0.44993, -0.0198234l 0.44993, -0.0198234l 0.44993, -0.0198234l 0.44993, -0.0198234l 0.44993,
 -0.0198234l 0.44993, -0.0198234l 0.44993, -0.0198234l 0.44993, -0.0198234l 0.44993, -0.0198234l 0.44993, -0.0198234l 0.44993, -0.0198234l 0.44993, -0.0198234l 0.44993, -0.0198234l 0.44993, -0.0198234l 0.44993, -0.0198234l 0.44993, -0.0198234l
 0.44993, -0.0198234l 0.44993, -0.0198234l 0.44993, -0.0198234l 0.44993, -0.0198234" fill="none" stroke="#33cccc" stroke-width="3"/>
<path d="M208.985,310.795l 0.44993, -0.0198234l 0.44993, -0.0198234l 0.44993, -0.0198234l 0.44993, -0.0198234l 0.44993, -0.0198234l 0.44993, -0.0198234l 0.44993, -0.0198234l 0.44993, -0.0198234l 0.44993, -0.0198234l 0.44993, -0.0198234l 0.44993,
 -0.0198234l 0.44993, -0.0198234l 0.44993, -0.0198234l 0.44993, -0.0198234l 0.44993, -0.0198234l 0.44993, -0.0198234l 0.44993, -0.0198234l 0.44993, -0.0198234l 0.44993, -0.0198234l 0.44993, -0.0198234l 0.44993, -0.0198234l 0.44993, -0.0198234l
 0.44993, -0.0198234l 0.44993, -0.0198234l 0.44993, -0.0198234l 0.44993, -0.0198234l 0.44993, -0.0198234l 0.44993, -0.0198234l 0.44993, -0.0198234l 0.44993, -0.0198234l 0.44993, -0.0198234l 0.44993, -0.0198234l 0.44993, -0.0198234l 0.44993,
 -0.0198234l 0.44993, -0.0198234l 0.44993, -0.0198234l 0.44993, -0.0198234l 0.44993, -0.0198234l 0.44993, -0.0198234l 0.44993, -0.0198234l 0.44993, -0.0198234l 0.44993, -0.0198234l 0.44993, -0.0198234l 0.44993, -0.0198234l 0.44993, -0.0198234l
 0.44993, -0.0198234l 0.44993, -0.0198234l 0.44993, -0.0198234l 0.44993, -0.0198234" fill="none" stroke="#33cccc" stroke-width="3"/>
<path d="M231.031,309.824l 0.44993, -0.0198234l 0.44993, -0.0198234l 0.44993, -0.0198234l 0.44993, -0.0198234l 0.44993, -0.0198234l 0.44993, -0.0198234l 0.44993, -0.0198234l 0.44993, -0.0198234l 0.44993, -0.0198234l 0.44993, -0.0198234l 0.44993,
 -0.0198234l 0.44993, -0.0198234l 0.44993, -0.0198234l 0.44993, -0.0198234l 0.44993, -0.0198234l 0.44993, -0.0198234l 0.44993, -0.0198234l 0.44993, -0.0198234l 0.44993, -0.0198234l 0.44993, -0.0198234l 0.44993, -0.0198234l 0.44993, -0.0198234l
 0.44993, -0.0198234l 0.44993, -0.0198234l 0.44993, -0.0198234l 0.44993, -0.0198234l 0.44993, -0.0198234l 0.44993, -0.0198234l 0.44993, -0.0198234l 0.44993, -0.0198234l 0.44993, -0.0198234l 0.44993, -0.0198234l 0.44993, -0.0198234l 0.44993,
 -0.0198234l 0.44993, -0.0198234l 0.44993, -0.0198234l 0.44993, -0.0198234l 0.44993, -0.0198234l 0.44993, -0.0198234l 0.44993, -0.0198234l 0.44993, -0.0198234l 0.44993, -0.0198234l 0.44993, -0.0198234l 0.44993, -0.0198234l 0.44993, -0.0198234l
 0.44993, -0.0198234l 0.44993, -0.0198234l 0.44993, -0.0198234l 0.44993, -0.0198234" fill="none" stroke="#33cccc" stroke-width="3"/>
<path d="M253.078,308.852l 0.44993, -0.0198234l 0.44993, -0.0198234l 0.44993, -0.0198234l 0.44993, -0.0198234l 0.44993, -0.0198234l 0.44993, -0.0198234l 0.44993, -0.0198234l 0.44993, -0.0198234l 0.44993, -0.0198234l 0.44993, -0.0198234l 0.44993,
 -0.0198234l 0.44993, -0.0198234l 0.44993, -0.0198234l 0.44993, -0.0198234l 0.44993, -0.0198234l 0.44993, -0.0198234l 0.44993, -0.0198234l 0.44993, -0.0198234l 0.44993, -0.0198234l 0.44993, -0.0198234l 0.44993, -0.0198234l 0.44993, -0.0198234l
 0.44993, -0.0198234l 0.44993, -0.0198234l 0.44993, -0.0198234l 0.44993, -0.0198234l 0.44993, -0.0198234l 0.44993, -0.0198234l 0.44993, -0.0198234l 0.44993, -0.0198234l 0.44993, -0.0198234l 0.44993, -0.0198234l 0.44993, -0.0198234l 0.44993,
 -0.0198234l 0.44993, -0.0198234l 0.44993, -0.0198234l 0.44993, -0.0198234l 0.44993, -0.0198234l 0.44993, -0.0198234l 0.44993, -0.0198234l 0.44993, -0.0198234l 0.44993, -0.0198234l 0.44993, -0.0198234l 0.44993, -0.0198234l 0.44993, -0.0198234l
 0.44993, -0.0198234l 0.44993, -0.0198234l 0.44993, -0.0198234l 0.44993, -0.0198234" fill="none" stroke="#33cccc" stroke-width="3"/>
<path d="M275.124,307.881l 0.44993, -0.0198234l 0.44993, -0.0198234l 0.44993, -0.0198234l 0.44993, -0.0198234l 0.44993, -0.0198234l 0.44993, -0.0198234l 0.44993, -0.0198234l 0.44993, -0.0198234l 0.44993, -0.0198234l 0.44993, -0.0198234l 0.44993,
 -0.0198234l 0.44993, -0.0198234l 0.44993, -0.0198234l 0.44993, -0.0198234l 0.44993, -0.0198234l 0.44993, -0.0198234l 0.44993, -0.0198234l 0.44993, -0.0198234l 0.44993, -0.0198234l 0.44993, -0.0198234l 0.44993, -0.0198234l 0.44993, -0.0198234l
 0.44993, -0.0198234l 0.44993, -0.0198234l 0.44993, -0.0198234l 0.44993, -0.0198234l 0.44993, -0.0198234l 0.44993, -0.0198234l 0.44993, -0.0198234l 0.44993, -0.0198234l 0.44993, -0.0198234l 0.44993, -0.0198234l 0.44993, -0.0198234l 0.44993,
 -0.0198234l 0.44993, -0.0198234l 0.44993, -0.0198234l 0.44993, -0.0198234l 0.44993, -0.0198234l 0.44993, -0.0198234l 0.44993, -0.0198234l 0.44993, -0.0198234l 0.44993, -0.0198234l 0.44993, -0.0198234l 0.44993, -0.0198234l 0.44993, -0.0198234l
 0.44993, -0.0198234l 0.44993, -0.0198234l 0.44993, -0.0198234l 0.44993, -0.0198234" fill="none" stroke="#33cccc" stroke-width="3"/>
<path d="M297.171,306.91l 0.44993, -0.0198234l 0.44993, -0.0198234l 0.44993, -0.0198234l 0.44993, -0.0198234l 0.44993, -0.0198234l 0.44993, -0.0198234l 0.44993, -0.0198234l 0.44993, -0.0198234l 0.44993, -0.0198234l 0.44993, -0.0198234l 0.44993,
 -0.0198234l 0.44993, -0.0198234l 0.44993, -0.0198234l 0.44993, -0.0198234l 0.44993, -0.0198234l 0.44993, -0.0198234l 0.44993, -0.0198234l 0.44993, -0.0198234l 0.44993, -0.0198234l 0.44993, -0.0198234l 0.44993, -0.0198234l 0.44993, -0.0198234l
 0.44993, -0.0198234l 0.44993, -0.0198234l 0.44993, -0.0198234l 0.44993, -0.0198234l 0.44993, -0.0198234l 0.44993, -0.0198234l 0.44993, -0.0198234l 0.44993, -0.0198234l 0.44993, -0.0198234l 0.44993, -0.0198234l 0.44993, -0.0198234l 0.44993,
 -0.0198234l 0.44993, -0.0198234l 0.44993, -0.0198234l 0.44993, -0.0198234l 0.44993, -0.0198234l 0.44993, -0.0198234l 0.44993, -0.0198234l 0.44993, -0.0198234l 0.44993, -0.0198234l 0.44993, -0.0198234l 0.44993, -0.0198234l 0.44993, -0.0198234l
 0.44993, -0.0198234l 0.44993, -0.0198234l 0.44993, -0.0198234l 0.44993, -0.0198234" fill="none" stroke="#33cccc" stroke-width="3"/>
<path d="M319.217,305.938l 0.44993, -0.0198234l 0.44993, -0.0198234l 0.44993, -0.0198234l 0.44993, -0.0198234l 0.44993, -0.0198234l 0.44993, -0.0198234l 0.44993, -0.0198234l 0.44993, -0.0198234l 0.44993, -0.0198234l 0.44993, -0.0198234l 0.44993,
 -0.0198234l 0.44993, -0.0198234l 0.44993, -0.0198234l 0.44993, -0.0198234l 0.44993, -0.0198234l 0.44993, -0.0198234l 0.44993, -0.0198234l 0.44993, -0.0198234l 0.44993, -0.0198234l 0.44993, -0.0198234l 0.44993, -0.0198234l 0.44993, -0.0198234l
 0.44993, -0.0198234l 0.44993, -0.0198234l 0.44993, -0.0198234l 0.44993, -0.0198234l 0.44993, -0.0198234l 0.44993, -0.0198234l 0.44993, -0.0198234l 0.44993, -0.0198234l 0.44993, -0.0198234l 0.44993, -0.0198234l 0.44993, -0.0198234l 0.44993,
 -0.0198234l 0.44993, -0.0198234l 0.44993, -0.0198234l 0.44993, -0.0198234l 0.44993, -0.0198234l 0.44993, -0.0198234l 0.44993, -0.0198234l 0.44993, -0.0198234l 0.44993, -0.0198234l 0.44993, -0.0198234l 0.44993, -0.0198234l 0.44993, -0.0198234l
 0.44993, -0.0198234l 0.44993, -0.0198234l 0.44993, -0.0198234l 0.44993, -0.0198234" fill="none" stroke="#33cccc" stroke-width="3"/>
<path d="M341.264,304.967l 0.44993, -0.0198234l 0.44993, -0.0198234l 0.44993, -0.0198234l 0.44993, -0.0198234l 0.44993, -0.0198234l 0.44993, -0.0198234l 0.44993, -0.0198234l 0.44993, -0.0198234l 0.44993, -0.0198234l 0.44993, -0.0198234l 0.44993,
 -0.0198234l 0.44993, -0.0198234l 0.44993, -0.0198234l 0.44993, -0.0198234l 0.44993, -0.0198234l 0.44993, -0.0198234l 0.44993, -0.0198234l 0.44993, -0.0198234l 0.44993, -0.0198234l 0.44993, -0.0198234l 0.44993, -0.0198234l 0.44993, -0.0198234l
 0.44993, -0.0198234l 0.44993, -0.0198234l 0.44993, -0.0198234l 0.44993, -0.0198234l 0.44993, -0.0198234l 0.44993, -0.0198234l 0.44993, -0.0198234l 0.44993, -0.0198234l 0.44993, -0.0198234l 0.44993, -0.0198234l 0.44993, -0.0198234l 0.44993,
 -0.0198234l 0.44993, -0.0198234l 0.44993, -0.0198234l 0.44993, -0.0198234l 0.44993, -0.0198234l 0.44993, -0.0198234l 0.44993, -0.0198234l 0.44993, -0.0198234l 0.44993, -0.0198234l 0.44993, -0.0198234l 0.44993, -0.0198234l 0.44993, -0.0198234l
 0.44993, -0.0198234l 0.44993, -0.0198234l 0.44993, -0.0198234l 0.44993, -0.0198234" fill="none" stroke="#33cccc" stroke-width="3"/>
<path d="M363.311,303.996l 0.44993, -0.0198234l 0.44993, -0.0198234l 0.44993, -0.0198234l 0.44993, -0.0198234l 0.44993, -0.0198234l 0.44993, -0.0198234l 0.44993, -0.0198234l 0.44993, -0.0198234l 0.44993, -0.0198234l 0.44993, -0.0198234l 0.44993,
 -0.0198234l 0.44993, -0.0198234l 0.44993, -0.0198234l 0.44993, -0.0198234l 0.44993, -0.0198234l 0.44993, -0.0198234l 0.44993, -0.0198234l 0.44993, -0.0198234l 0.44993, -0.0198234l 0.44993, -0.0198234l 0.44993, -0.0198234l 0.44993, -0.0198234l
 0.44993, -0.0198234l 0.44993, -0.0198234l 0.44993, -0.0198234l 0.44993, -0.0198234l 0.44993, -0.0198234l 0.44993, -0.0198234l 0.44993, -0.0198234l 0.44993, -0.0198234l 0.44993, -0.0198234l 0.44993, -0.0198234l 0.44993, -0.0198234l 0.44993,
 -0.0198234l 0.44993, -0.0198234l 0.44993, -0.0198234l 0.44993, -0.0198234l 0.44993, -0.0198234l 0.44993, -0.0198234l 0.44993, -0.0198234l 0.44993, -0.0198234l 0.44993, -0.0198234l 0.44993, -0.0198234l 0.44993, -0.0198234l 0.44993, -0.0198234l
 0.44993, -0.0198234l 0.44993, -0.0198234l 0.44993, -0.0198234l 0.44993, -0.0198234" fill="none" stroke="#33cccc" stroke-width="3"/>
<path d="M385.357,303.024l 0.44993, -0.0198234l 0.44993, -0.0198234l 0.44993, -0.0198234l 0.44993, -0.0198234l 0.44993, -0.0198234l 0.44993, -0.0198234l 0.44993, -0.0198234l 0.44993, -0.0198234l 0.44993, -0.0198234l 0.44993, -0.0198234l 0.44993,
 -0.0198234l 0.44993, -0.0198234l 0.44993, -0.0198234l 0.44993, -0.0198234l 0.44993, -0.0198234l 0.44993, -0.0198234l 0.44993, -0.0198234l 0.44993, -0.0198234l 0.44993, -0.0198234l 0.44993, -0.0198234l 0.44993, -0.0198234l 0.44993, -0.0198234l
 0.44993, -0.0198234l 0.44993, -0.0198234l 0.44993, -0.0198234l 0.44993, -0.0198234l 0.44993, -0.0198234l 0.44993, -0.0198234l 0.44993, -0.0198234l 0.44993, -0.0198234l 0.44993, -0.0198234l 0.44993, -0.0198234l 0.44993, -0.0198234l 0.44993,
 -0.0198234l 0.44993, -0.0198234l 0.44993, -0.0198234l 0.44993, -0.0198234l 0.44993, -0.0198234l 0.44993, -0.0198234l 0.44993, -0.0198234l 0.44993, -0.0198234l 0.44993, -0.0198234l 0.44993, -0.0198234l 0.44993, -0.0198234l 0.44993, -0.0198234l
 0.44993, -0.0198234l 0.44993, -0.0198234l 0.44993, -0.0198234l 0.44993, -0.0198234" fill="none" stroke="#33cccc" stroke-width="3"/>
<path d="M407.404,302.053l 0.44993, -0.0198234l 0.44993, -0.0198234l 0.44993, -0.0198234l 0.44993, -0.0198234l 0.44993, -0.0198234l 0.44993, -0.0198234l 0.44993, -0.0198234l 0.44993, -0.0198234l 0.44993, -0.0198234l 0.44993, -0.0198234l 0.44993,
 -0.0198234l 0.44993, -0.0198234l 0.44993, -0.0198234l 0.44993, -0.0198234l 0.44993, -0.0198234l 0.44993, -0.0198234l 0.44993, -0.0198234l 0.44993, -0.0198234l 0.44993, -0.0198234l 0.44993, -0.0198234l 0.44993, -0.0198234l 0.44993, -0.0198234l
 0.44993, -0.0198234l 0.44993, -0.0198234l 0.44993, -0.0198234l 0.44993, -0.0198234l 0.44993, -0.0198234l 0.44993, -0.0198234l 0.44993, -0.0198234l 0.44993, -0.0198234l 0.44993, -0.0198234l 0.44993, -0.0198234l 0.44993, -0.0198234l 0.44993,
 -0.0198234l 0.44993, -0.0198234l 0.44993, -0.0198234l 0.44993, -0.0198234l 0.44993, -0.0198234l 0.44993, -0.0198234l 0.44993, -0.0198234l 0.44993, -0.0198234l 0.44993, -0.0198234l 0.44993, -0.0198234l 0.44993, -0.0198234l 0.44993, -0.0198234l
 0.44993, -0.0198234l 0.44993, -0.0198234l 0.44993, -0.0198234l 0.44993, -0.0198234" fill="none" stroke="#33cccc" stroke-width="3"/>
<path d="M429.45,301.082l 0.44993, -0.0198234l 0.44993, -0.0198234l 0.44993, -0.0198234l 0.44993, -0.0198234l 0.44993, -0.0198234l 0.44993, -0.0198234l 0.44993, -0.0198234l 0.44993, -0.0198234l 0.44993, -0.0198234l 0.44993, -0.0198234l 0.44993,
 -0.0198234l 0.44993, -0.0198234l 0.44993, -0.0198234l 0.44993, -0.0198234l 0.44993, -0.0198234l 0.44993, -0.0198234l 0.44993, -0.0198234l 0.44993, -0.0198234l 0.44993, -0.0198234l 0.44993, -0.0198234l 0.44993, -0.0198234l 0.44993, -0.0198234l
 0.44993, -0.0198234l 0.44993, -0.0198234l 0.44993, -0.0198234l 0.44993, -0.0198234l 0.44993, -0.0198234l 0.44993, -0.0198234l 0.44993, -0.0198234l 0.44993, -0.0198234l 0.44993, -0.0198234l 0.44993, -0.0198234l 0.44993, -0.0198234l 0.44993,
 -0.0198234l 0.44993, -0.0198234l 0.44993, -0.0198234l 0.44993, -0.0198234l 0.44993, -0.0198234l 0.44993, -0.0198234l 0.44993, -0.0198234l 0.44993, -0.0198234l 0.44993, -0.0198234l 0.44993, -0.0198234l 0.44993, -0.0198234l 0.44993, -0.0198234l
 0.44993, -0.0198234l 0.44993, -0.0198234l 0.44993, -0.0198234l 0.44993, -0.0198234" fill="none" stroke="#33cccc" stroke-width="3"/>
<path d="M451.497,300.11l 0.44993, -0.0198234l 0.44993, -0.0198234l 0.44993, -0.0198234l 0.44993, -0.0198234l 0.44993, -0.0198234l 0.44993, -0.0198234l 0.44993, -0.0198234l 0.44993, -0.0198234l 0.44993, -0.0198234l 0.44993, -0.0198234l 0.44993,
 -0.0198234l 0.44993, -0.0198234l 0.44993, -0.0198234l 0.44993, -0.0198234l 0.44993, -0.0198234l 0.44993, -0.0198234l 0.44993, -0.0198234l 0.44993, -0.0198234l 0.44993, -0.0198234l 0.44993, -0.0198234l 0.44993, -0.0198234l 0.44993, -0.0198234l
 0.44993, -0.0198234l 0.44993, -0.0198234l 0.44993, -0.0198234l 0.44993, -0.0198234l 0.44993, -0.0198234l 0.44993, -0.0198234l 0.44993, -0.0198234l 0.44993, -0.0198234l 0.44993, -0.0198234l 0.44993, -0.0198234l 0.44993, -0.0198234l 0.44993,
 -0.0198234l 0.44993, -0.0198234l 0.44993, -0.0198234l 0.44993, -0.0198234l 0.44993, -0.0198234l 0.44993, -0.0198234l 0.44993, -0.0198234l 0.44993, -0.0198234l 0.44993, -0.0198234l 0.44993, -0.0198234l 0.44993, -0.0198234l 0.44993, -0.0198234l
 0.44993, -0.0198234l 0.44993, -0.0198234l 0.44993, -0.0198234l 0.44993, -0.0198234" fill="none" stroke="#33cccc" stroke-width="3"/>
<path d="M473.543,299.139l 0.44993, -0.0198234l 0.44993, -0.0198234l 0.44993, -0.0198234l 0.44993, -0.0198234l 0.44993, -0.0198234l 0.44993, -0.0198234l 0.44993, -0.0198234l 0.44993, -0.0198234l 0.44993, -0.0198234l 0.44993, -0.0198234l 0.44993,
 -0.0198234l 0.44993, -0.0198234l 0.44993, -0.0198234l 0.44993, -0.0198234l 0.44993, -0.0198234l 0.44993, -0.0198234l 0.44993, -0.0198234l 0.44993, -0.0198234l 0.44993, -0.0198234l 0.44993, -0.0198234l 0.44993, -0.0198234l 0.44993, -0.0198234l
 0.44993, -0.0198234l 0.44993, -0.0198234l 0.44993, -0.0198234l 0.44993, -0.0198234l 0.44993, -0.0198234l 0.44993, -0.0198234l 0.44993, -0.0198234l 0.44993, -0.0198234l 0.44993, -0.0198234l 0.44993, -0.0198234l 0.44993, -0.0198234l 0.44993,
 -0.0198234l 0.44993, -0.0198234l 0.44993, -0.0198234l 0.44993, -0.0198234l 0.44993, -0.0198234l 0.44993, -0.0198234l 0.44993, -0.0198234l 0.44993, -0.0198234l 0.44993, -0.0198234l 0.44993, -0.0198234l 0.44993, -0.0198234l 0.44993, -0.0198234l
 0.44993, -0.0198234l 0.44993, -0.0198234l 0.44993, -0.0198234l 0.44993, -0.0198234" fill="none" stroke="#33cccc" stroke-width="3"/>
<path d="M495.59,298.168l 0.44993, -0.0198234l 0.44993, -0.0198234l 0.44993, -0.0198234l 0.44993, -0.0198234l 0.44993, -0.0198234l 0.44993, -0.0198234l 0.44993, -0.0198234l 0.44993, -0.0198234l 0.44993, -0.0198234l 0.44993, -0.0198234l 0.44993,
 -0.0198234l 0.44993, -0.0198234l 0.44993, -0.0198234l 0.44993, -0.0198234l 0.44993, -0.0198234l 0.44993, -0.0198234l 0.44993, -0.0198234l 0.44993, -0.0198234l 0.44993, -0.0198234l 0.44993, -0.0198234l 0.44993, -0.0198234l 0.44993, -0.0198234l
 0.44993, -0.0198234l 0.44993, -0.0198234l 0.44993, -0.0198234l 0.44993, -0.0198234l 0.44993, -0.0198234l 0.44993, -0.0198234l 0.44993, -0.0198234l 0.44993, -0.0198234l 0.44993, -0.0198234l 0.44993, -0.0198234l 0.44993, -0.0198234l 0.44993,
 -0.0198234l 0.44993, -0.0198234l 0.44993, -0.0198234l 0.44993, -0.0198234l 0.44993, -0.0198234l 0.44993, -0.0198234l 0.44993, -0.0198234l 0.44993, -0.0198234l 0.44993, -0.0198234l 0.44993, -0.0198234l 0.44993, -0.0198234l 0.44993, -0.0198234l
 0.44993, -0.0198234l 0.44993, -0.0198234l 0.44993, -0.0198234l 0.44993, -0.0198234" fill="none" stroke="#33cccc" stroke-width="3"/>
<path d="M517.636,297.196l 0.44993, -0.0198234l 0.44993, -0.0198234l 0.44993, -0.0198234l 0.44993, -0.0198234l 0.44993, -0.0198234l 0.44993, -0.0198234l 0.44993, -0.0198234l 0.44993, -0.0198234l 0.44993, -0.0198234l 0.44993, -0.0198234l 0.44993,
 -0.0198234l 0.44993, -0.0198234l 0.44993, -0.0198234l 0.44993, -0.0198234l 0.44993, -0.0198234l 0.44993, -0.0198234l 0.44993, -0.0198234l 0.44993, -0.0198234l 0.44993, -0.0198234l 0.44993, -0.0198234l 0.44993, -0.0198234l 0.44993, -0.0198234l
 0.44993, -0.0198234l 0.44993, -0.0198234l 0.44993, -0.0198234l 0.44993, -0.0198234l 0.44993, -0.0198234l 0.44993, -0.0198234l 0.44993, -0.0198234l 0.44993, -0.0198234l 0.44993, -0.0198234l 0.44993, -0.0198234l 0.44993, -0.0198234l 0.44993,
 -0.0198234l 0.44993, -0.0198234l 0.44993, -0.0198234l 0.44993, -0.0198234l 0.44993, -0.0198234l 0.44993, -0.0198234l 0.44993, -0.0198234l 0.44993, -0.0198234l 0.44993, -0.0198234l 0.44993, -0.0198234l 0.44993, -0.0198234l 0.44993, -0.0198234l
 0.44993, -0.0198234l 0.44993, -0.0198234l 0.44993, -0.0198234l 0.44993, -0.0198234" fill="none" stroke="#33cccc" stroke-width="3"/>
<path d="M539.683,296.225l 0.44993, -0.0198234l 0.44993, -0.0198234l 0.44993, -0.0198234l 0.44993, -0.0198234l 0.44993, -0.0198234l 0.44993, -0.0198234l 0.44993, -0.0198234l 0.44993, -0.0198234l 0.44993, -0.0198234l 0.44993, -0.0198234l 0.44993,
 -0.0198234l 0.44993, -0.0198234l 0.44993, -0.0198234l 0.44993, -0.0198234l 0.44993, -0.0198234l 0.44993, -0.0198234l 0.44993, -0.0198234l 0.44993, -0.0198234l 0.44993, -0.0198234" fill="none" stroke="#33cccc" stroke-width="3"/>
<path d="M98.7518,289.977l 0.44993, 0.0913818l 0.44993, 0.091171l 0.44993, 0.0909602l 0.44993, 0.0907494l 0.44993, 0.0905386l 0.44993, 0.0903278l 0.44993, 0.090117l 0.44993, 0.0899062l 0.44993, 0.0896954l 0.44993, 0.0894846l 0.44993, 0.0892738l
 0.44993, 0.089063l 0.44993, 0.0888522l 0.44993, 0.0886414l 0.44993, 0.0884306l 0.44993, 0.0882198l 0.44993, 0.088009l 0.44993, 0.0877982l 0.44993, 0.0875874l 0.44993, 0.0873766l 0.44993, 0.0871658l 0.44993, 0.086955l 0.44993, 0.0867442l 0.44993,
 0.0865334l 0.44993, 0.0863226l 0.44993, 0.0861118l 0.44993, 0.085901l 0.44993, 0.0856902l 0.44993, 0.0854794l 0.44993, 0.0852686l 0.44993, 0.0850578l 0.44993, 0.084847l 0.44993, 0.0846362l 0.44993, 0.0844254l 0.44993, 0.0842146l 0.44993, 0.0840038l
 0.44993, 0.083793l 0.44993, 0.0835822l 0.44993, 0.0833714l 0.44993, 0.0831606l 0.44993, 0.0829498l 0.44993, 0.082739l 0.44993, 0.0825282l 0.44993, 0.0823174l 0.44993, 0.0821066l 0.44993, 0.0818958l 0.44993, 0.081685l 0.44993, 0.0814742l 0.44993,
 0.0812634" fill="none" stroke="#ff0066" stroke-width="3"/>
<path d="M120.798,294.207l 0.44993, 0.0810526l 0.44993, 0.0808418l 0.44993, 0.080631l 0.44993, 0.0804202l 0.44993, 0.0802094l 0.44993, 0.0799986l 0.44993, 0.0797878l 0.44993, 0.079577l 0.44993, 0.0793662l 0.44993, 0.0791554l 0.44993, 0.0789446l
 0.44993, 0.0787338l 0.44993, 0.078523l 0.44993, 0.0783122l 0.44993, 0.0781014l 0.44993, 0.0778906l 0.44993, 0.0776798l 0.44993, 0.077469l 0.44993, 0.0772582l 0.44993, 0.0770474l 0.44993, 0.0768366l 0.44993, 0.0766258l 0.44993, 0.076415l 0.44993,
 0.0762042l 0.44993, 0.0759934l 0.44993, 0.0757826l 0.44993, 0.0755718l 0.44993, 0.075361l 0.44993, 0.0751502l 0.44993, 0.0749394l 0.44993, 0.0747286l 0.44993, 0.0745178l 0.44993, 0.074307l 0.44993, 0.0740962l 0.44993, 0.0738854l 0.44993, 0.0736746l
 0.44993, 0.0734638l 0.44993, 0.073253l 0.44993, 0.0730422l 0.44993, 0.0728314l 0.44993, 0.0726206l 0.44993, 0.0724098l 0.44993, 0.072199l 0.44993, 0.0719882l 0.44993, 0.0717774l 0.44993, 0.0715666l 0.44993, 0.0713558l 0.44993, 0.071145l 0.44993,
 0.0709342" fill="none" stroke="#ff0066" stroke-width="3"/>
<path d="M142.845,297.931l 0.44993, 0.0707234l 0.44993, 0.0705126l 0.44993, 0.0703018l 0.44993, 0.070091l 0.44993, 0.0698802l 0.44993, 0.0696694l 0.44993, 0.0694586l 0.44993, 0.0692478l 0.44993, 0.069037l 0.44993, 0.0688262l 0.44993, 0.0686154l
 0.44993, 0.0684046l 0.44993, 0.0681938l 0.44993, 0.0679829l 0.44993, 0.0677722l 0.44993, 0.0675614l 0.44993, 0.0673506l 0.44993, 0.0671398l 0.44993, 0.0669289l 0.44993, 0.0667181l 0.44993, 0.0665073l 0.44993, 0.0662965l 0.44993, 0.0660857l 0.44993,
 0.0658749l 0.44993, 0.0656641l 0.44993, 0.0654533l 0.44993, 0.0652425l 0.44993, 0.0650317l 0.44993, 0.0648209l 0.44993, 0.0646101l 0.44993, 0.0643993l 0.44993, 0.0641885l 0.44993, 0.0639777l 0.44993, 0.0637669l 0.44993, 0.0635561l 0.44993,
 0.0633453l 0.44993, 0.0631345l 0.44993, 0.0629237l 0.44993, 0.0627129l 0.44993, 0.0625021l 0.44993, 0.0622913l 0.44993, 0.0620805l 0.44993, 0.0618697l 0.44993, 0.0616589l 0.44993, 0.0614481l 0.44993, 0.0612373l 0.44993, 0.0610265l 0.44993,
 0.0608157l 0.44993, 0.0606049" fill="none" stroke="#ff0066" stroke-width="3"/>
<path d="M164.891,301.148l 0.44993, 0.0603941l 0.44993, 0.0601833l 0.44993, 0.0599725l 0.44993, 0.0597617l 0.44993, 0.0595509l 0.44993, 0.0593401l 0.44993, 0.0591293l 0.44993, 0.0589185l 0.44993, 0.0587077l 0.44993, 0.0584969l 0.44993, 0.0582861l
 0.44993, 0.0580753l 0.44993, 0.0578645l 0.44993, 0.0576537l 0.44993, 0.0574429l 0.44993, 0.0572321l 0.44993, 0.0570213l 0.44993, 0.0568105l 0.44993, 0.0565997l 0.44993, 0.0563889l 0.44993, 0.0561781l 0.44993, 0.0559673l 0.44993, 0.0557565l 0.44993,
 0.0555457l 0.44993, 0.0553349l 0.44993, 0.0551241l 0.44993, 0.0549133l 0.44993, 0.0547025l 0.44993, 0.0544917l 0.44993, 0.0542809l 0.44993, 0.0540701l 0.44993, 0.0538593l 0.44993, 0.0536485l 0.44993, 0.0534377l 0.44993, 0.0532269l 0.44993,
 0.0530161l 0.44993, 0.0528053l 0.44993, 0.0525945l 0.44993, 0.0523837l 0.44993, 0.0521729l 0.44993, 0.0519621l 0.44993, 0.0517513l 0.44993, 0.0515405l 0.44993, 0.0513297l 0.44993, 0.0511189l 0.44993, 0.0509081l 0.44993, 0.0506973l 0.44993,
 0.0504865l 0.44993, 0.0502757" fill="none" stroke="#ff0066" stroke-width="3"/>
<path d="M186.938,303.86l 0.44993, 0.0500649l 0.44993, 0.0498541l 0.44993, 0.0496433l 0.44993, 0.0494325l 0.44993, 0.0492217l 0.44993, 0.0490109l 0.44993, 0.0488001l 0.44993, 0.0485893l 0.44993, 0.0483785l 0.44993, 0.0481677l 0.44993, 0.0479569l
 0.44993, 0.0477461l 0.44993, 0.0475353l 0.44993, 0.0473245l 0.44993, 0.0471137l 0.44993, 0.0469029l 0.44993, 0.0466921l 0.44993, 0.0464813l 0.44993, 0.0462705l 0.44993, 0.0460597l 0.44993, 0.0458489l 0.44993, 0.0456381l 0.44993, 0.0454273l 0.44993,
 0.0452165l 0.44993, 0.0450057l 0.44993, 0.0447949l 0.44993, 0.0445841l 0.44993, 0.0443733l 0.44993, 0.0441625l 0.44993, 0.0439517l 0.44993, 0.0437409l 0.44993, 0.0435301l 0.44993, 0.0433193l 0.44993, 0.0431085l 0.44993, 0.0428977l 0.44993,
 0.0426869l 0.44993, 0.0424761l 0.44993, 0.0422653l 0.44993, 0.0420545l 0.44993, 0.0418437l 0.44993, 0.0416329l 0.44993, 0.0414221l 0.44993, 0.0412113l 0.44993, 0.0410005l 0.44993, 0.0407897l 0.44993, 0.0405789l 0.44993, 0.0403681l 0.44993,
 0.0401573l 0.44993, 0.0399465" fill="none" stroke="#ff0066" stroke-width="3"/>
<path d="M208.985,306.065l 0.44993, 0.0397357l 0.44993, 0.0395249l 0.44993, 0.0393141l 0.44993, 0.0391033l 0.44993, 0.0388925l 0.44993, 0.0386817l 0.44993, 0.0384709l 0.44993, 0.0382601l 0.44993, 0.0380493l 0.44993, 0.0378385l 0.44993, 0.0376277l
 0.44993, 0.0374168l 0.44993, 0.0372061l 0.44993, 0.0369953l 0.44993, 0.0367844l 0.44993, 0.0365736l 0.44993, 0.0363628l 0.44993, 0.036152l 0.44993, 0.0359412l 0.44993, 0.0357304l 0.44993, 0.0355196l 0.44993, 0.0353088l 0.44993, 0.035098l 0.44993,
 0.0348872l 0.44993, 0.0346764l 0.44993, 0.0344656l 0.44993, 0.0342548l 0.44993, 0.034044l 0.44993, 0.0338332l 0.44993, 0.0336224l 0.44993, 0.0334116l 0.44993, 0.0332008l 0.44993, 0.03299l 0.44993, 0.0327792l 0.44993, 0.0325684l 0.44993, 0.0323576l
 0.44993, 0.0321468l 0.44993, 0.031936l 0.44993, 0.0317252l 0.44993, 0.0315144l 0.44993, 0.0313036l 0.44993, 0.0310928l 0.44993, 0.030882l 0.44993, 0.0306712l 0.44993, 0.0304604l 0.44993, 0.0302496l 0.44993, 0.0300388l 0.44993, 0.029828l 0.44993,
 0.0296172" fill="none" stroke="#ff0066" stroke-width="3"/>
<path d="M231.031,307.764l 0.44993, 0.0294064l 0.44993, 0.0291956l 0.44993, 0.0289848l 0.44993, 0.028774l 0.44993, 0.0285632l 0.44993, 0.0283524l 0.44993, 0.0281416l 0.44993, 0.0279308l 0.44993, 0.02772l 0.44993, 0.0275092l 0.44993, 0.0272984l
 0.44993, 0.0270876l 0.44993, 0.0268768l 0.44993, 0.026666l 0.44993, 0.0264552l 0.44993, 0.0262444l 0.44993, 0.0260336l 0.44993, 0.0258228l 0.44993, 0.025612l 0.44993, 0.0254012l 0.44993, 0.0251904l 0.44993, 0.0249796l 0.44993, 0.0247688l 0.44993,
 0.024558l 0.44993, 0.0243472l 0.44993, 0.0241364l 0.44993, 0.0239256l 0.44993, 0.0237148l 0.44993, 0.023504l 0.44993, 0.0232932l 0.44993, 0.0230824l 0.44993, 0.0228716l 0.44993, 0.0226608l 0.44993, 0.02245l 0.44993, 0.0222392l 0.44993, 0.0220284l
 0.44993, 0.0218176l 0.44993, 0.0216068l 0.44993, 0.021396l 0.44993, 0.0211852l 0.44993, 0.0209744l 0.44993, 0.0207636l 0.44993, 0.0205528l 0.44993, 0.020342l 0.44993, 0.0201312l 0.44993, 0.0199204l 0.44993, 0.0197096l 0.44993, 0.0194988l 0.44993,
 0.019288" fill="none" stroke="#ff0066" stroke-width="3"/>
<path d="M253.078,308.957l 0.44993, 0.0190772l 0.44993, 0.0188664l 0.44993, 0.0186556l 0.44993, 0.0184448l 0.44993, 0.018234l 0.44993, 0.0180232l 0.44993, 0.0178124l 0.44993, 0.0176016l 0.44993, 0.0173908l 0.44993, 0.01718l 0.44993, 0.0169692l
 0.44993, 0.0167584l 0.44993, 0.0165476l 0.44993, 0.0163368l 0.44993, 0.016126l 0.44993, 0.0159152l 0.44993, 0.0157044l 0.44993, 0.0154936l 0.44993, 0.0152828l 0.44993, 0.015072l 0.44993, 0.0148612l 0.44993, 0.0146504l 0.44993, 0.0144396l 0.44993,
 0.0142288l 0.44993, 0.014018l 0.44993, 0.0138072l 0.44993, 0.0135964l 0.44993, 0.0133856l 0.44993, 0.0131748l 0.44993, 0.012964l 0.44993, 0.0127532l 0.44993, 0.0125424l 0.44993, 0.0123316l 0.44993, 0.0121208l 0.44993, 0.01191l 0.44993, 0.0116992l
 0.44993, 0.0114884l 0.44993, 0.0112776l 0.44993, 0.0110668l 0.44993, 0.010856l 0.44993, 0.0106452l 0.44993, 0.0104344l 0.44993, 0.0102236l 0.44993, 0.0100128l 0.44993, 0.00980196l 0.44993, 0.00959116l 0.44993, 0.00938036l 0.44993, 0.00916956l
 0.44993, 0.00895876" fill="none" stroke="#ff0066" stroke-width="3"/>
<path d="M275.124,309.644l 0.44993, 0.00874795l 0.44993, 0.00853715l 0.44993, 0.00832635l 0.44993, 0.00811555l 0.44993, 0.00790475l 0.44993, 0.00769395l 0.44993, 0.00748315l 0.44993, 0.00727235l 0.44993, 0.00706155l 0.44993, 0.00685075l 0.44993,
 0.00663995l 0.44993, 0.00642915l 0.44993, 0.00621835l 0.44993, 0.00600755l 0.44993, 0.00579674l 0.44993, 0.00558594l 0.44993, 0.00537514l 0.44993, 0.00516434l 0.44993, 0.00495354l 0.44993, 0.00474274l 0.44993, 0.00453194l 0.44993, 0.00432114l
 0.44993, 0.00411034l 0.44993, 0.00389954l 0.44993, 0.00368874l 0.44993, 0.00347794l 0.44993, 0.00326714l 0.44993, 0.00305634l 0.44993, 0.00284553l 0.44993, 0.00263473l 0.44993, 0.00242393l 0.44993, 0.00221313l 0.44993, 0.00200233l 0.44993,
 0.00179153l 0.44993, 0.00158073l 0.44993, 0.00136993l 0.44993, 0.00115913l 0.44993, 0.000948328l 0.44993, 0.000737528l 0.44993, 0.000526727l 0.44993, 0.000315926l 0.44993, 0.000105126l 0.44993, -0.000105675l 0.44993, -0.000316476l 0.44993,
 -0.000527277l 0.44993, -0.000738077l 0.44993, -0.000948878l 0.44993, -0.00115968l 0.44993, -0.00137048" fill="none" stroke="#ff0066" stroke-width="3"/>
<path d="M297.171,309.825l 0.44993, -0.00158128l 0.44993, -0.00179208l 0.44993, -0.00200288l 0.44993, -0.00221368l 0.44993, -0.00242448l 0.44993, -0.00263528l 0.44993, -0.00284608l 0.44993, -0.00305688l 0.44993, -0.00326769l 0.44993, -0.00347849l
 0.44993, -0.00368929l 0.44993, -0.00390009l 0.44993, -0.00411089l 0.44993, -0.00432169l 0.44993, -0.00453249l 0.44993, -0.00474329l 0.44993, -0.00495409l 0.44993, -0.00516489l 0.44993, -0.00537569l 0.44993, -0.00558649l 0.44993, -0.00579729l
 0.44993, -0.0060081l 0.44993, -0.0062189l 0.44993, -0.0064297l 0.44993, -0.0066405l 0.44993, -0.0068513l 0.44993, -0.0070621l 0.44993, -0.0072729l 0.44993, -0.0074837l 0.44993, -0.0076945l 0.44993, -0.0079053l 0.44993, -0.0081161l 0.44993,
 -0.0083269l 0.44993, -0.0085377l 0.44993, -0.0087485l 0.44993, -0.0089593l 0.44993, -0.00917011l 0.44993, -0.00938091l 0.44993, -0.00959171l 0.44993, -0.00980251l 0.44993, -0.0100133l 0.44993, -0.0102241l 0.44993, -0.0104349l 0.44993, -0.0106457l
 0.44993, -0.0108565l 0.44993, -0.0110673l 0.44993, -0.0112781l 0.44993, -0.0114889l 0.44993, -0.0116997" fill="none" stroke="#ff0066" stroke-width="3"/>
<path d="M319.217,309.5l 0.44993, -0.0119105l 0.44993, -0.0121213l 0.44993, -0.0123321l 0.44993, -0.0125429l 0.44993, -0.0127537l 0.44993, -0.0129645l 0.44993, -0.0131753l 0.44993, -0.0133861l 0.44993, -0.0135969l 0.44993, -0.0138077l 0.44993,
 -0.0140185l 0.44993, -0.0142293l 0.44993, -0.0144401l 0.44993, -0.0146509l 0.44993, -0.0148617l 0.44993, -0.0150725l 0.44993, -0.0152833l 0.44993, -0.0154941l 0.44993, -0.0157049l 0.44993, -0.0159157l 0.44993, -0.0161265l 0.44993, -0.0163373l
 0.44993, -0.0165481l 0.44993, -0.0167589l 0.44993, -0.0169697l 0.44993, -0.0171805l 0.44993, -0.0173913l 0.44993, -0.0176021l 0.44993, -0.0178129l 0.44993, -0.0180237l 0.44993, -0.0182345l 0.44993, -0.0184453l 0.44993, -0.0186561l 0.44993,
 -0.0188669l 0.44993, -0.0190777l 0.44993, -0.0192885l 0.44993, -0.0194993l 0.44993, -0.0197101l 0.44993, -0.0199209l 0.44993, -0.0201317l 0.44993, -0.0203425l 0.44993, -0.0205533l 0.44993, -0.0207641l 0.44993, -0.0209749l 0.44993, -0.0211857l
 0.44993, -0.0213965l 0.44993, -0.0216073l 0.44993, -0.0218181l 0.44993, -0.0220289" fill="none" stroke="#ff0066" stroke-width="3"/>
<path d="M341.264,308.668l 0.44993, -0.0222397l 0.44993, -0.0224505l 0.44993, -0.0226614l 0.44993, -0.0228722l 0.44993, -0.023083l 0.44993, -0.0232938l 0.44993, -0.0235046l 0.44993, -0.0237154l 0.44993, -0.0239262l 0.44993, -0.024137l 0.44993,
 -0.0243478l 0.44993, -0.0245586l 0.44993, -0.0247694l 0.44993, -0.0249802l 0.44993, -0.025191l 0.44993, -0.0254018l 0.44993, -0.0256126l 0.44993, -0.0258234l 0.44993, -0.0260342l 0.44993, -0.026245l 0.44993, -0.0264558l 0.44993, -0.0266666l 0.44993,
 -0.0268774l 0.44993, -0.0270882l 0.44993, -0.027299l 0.44993, -0.0275098l 0.44993, -0.0277206l 0.44993, -0.0279314l 0.44993, -0.0281422l 0.44993, -0.028353l 0.44993, -0.0285638l 0.44993, -0.0287746l 0.44993, -0.0289854l 0.44993, -0.0291962l 0.44993,
 -0.029407l 0.44993, -0.0296178l 0.44993, -0.0298286l 0.44993, -0.0300394l 0.44993, -0.0302502l 0.44993, -0.030461l 0.44993, -0.0306718l 0.44993, -0.0308826l 0.44993, -0.0310934l 0.44993, -0.0313042l 0.44993, -0.031515l 0.44993, -0.0317258l 0.44993,
 -0.0319366l 0.44993, -0.0321474l 0.44993, -0.0323582" fill="none" stroke="#ff0066" stroke-width="3"/>
<path d="M363.311,307.33l 0.44993, -0.032569l 0.44993, -0.0327798l 0.44993, -0.0329906l 0.44993, -0.0332014l 0.44993, -0.0334122l 0.44993, -0.033623l 0.44993, -0.0338338l 0.44993, -0.0340446l 0.44993, -0.0342554l 0.44993, -0.0344662l 0.44993,
 -0.034677l 0.44993, -0.0348878l 0.44993, -0.0350986l 0.44993, -0.0353094l 0.44993, -0.0355202l 0.44993, -0.035731l 0.44993, -0.0359418l 0.44993, -0.0361526l 0.44993, -0.0363634l 0.44993, -0.0365742l 0.44993, -0.036785l 0.44993, -0.0369958l 0.44993,
 -0.0372066l 0.44993, -0.0374174l 0.44993, -0.0376282l 0.44993, -0.037839l 0.44993, -0.0380498l 0.44993, -0.0382606l 0.44993, -0.0384714l 0.44993, -0.0386822l 0.44993, -0.038893l 0.44993, -0.0391038l 0.44993, -0.0393146l 0.44993, -0.0395254l 0.44993,
 -0.0397362l 0.44993, -0.039947l 0.44993, -0.0401578l 0.44993, -0.0403686l 0.44993, -0.0405794l 0.44993, -0.0407902l 0.44993, -0.041001l 0.44993, -0.0412118l 0.44993, -0.0414226l 0.44993, -0.0416334l 0.44993, -0.0418442l 0.44993, -0.042055l 0.44993,
 -0.0422658l 0.44993, -0.0424766l 0.44993, -0.0426874" fill="none" stroke="#ff0066" stroke-width="3"/>
<path d="M385.357,305.487l 0.44993, -0.0428982l 0.44993, -0.043109l 0.44993, -0.0433198l 0.44993, -0.0435306l 0.44993, -0.0437414l 0.44993, -0.0439522l 0.44993, -0.044163l 0.44993, -0.0443738l 0.44993, -0.0445846l 0.44993, -0.0447954l 0.44993,
 -0.0450062l 0.44993, -0.045217l 0.44993, -0.0454278l 0.44993, -0.0456386l 0.44993, -0.0458494l 0.44993, -0.0460602l 0.44993, -0.046271l 0.44993, -0.0464818l 0.44993, -0.0466926l 0.44993, -0.0469034l 0.44993, -0.0471142l 0.44993, -0.047325l 0.44993,
 -0.0475358l 0.44993, -0.0477466l 0.44993, -0.0479574l 0.44993, -0.0481682l 0.44993, -0.048379l 0.44993, -0.0485898l 0.44993, -0.0488006l 0.44993, -0.0490114l 0.44993, -0.0492222l 0.44993, -0.049433l 0.44993, -0.0496438l 0.44993, -0.0498546l 0.44993,
 -0.0500654l 0.44993, -0.0502762l 0.44993, -0.050487l 0.44993, -0.0506978l 0.44993, -0.0509086l 0.44993, -0.0511194l 0.44993, -0.0513302l 0.44993, -0.051541l 0.44993, -0.0517518l 0.44993, -0.0519626l 0.44993, -0.0521735l 0.44993, -0.0523842l 0.44993,
 -0.052595l 0.44993, -0.0528059l 0.44993, -0.0530167" fill="none" stroke="#ff0066" stroke-width="3"/>
<path d="M407.404,303.137l 0.44993, -0.0532275l 0.44993, -0.0534383l 0.44993, -0.0536491l 0.44993, -0.0538599l 0.44993, -0.0540707l 0.44993, -0.0542815l 0.44993, -0.0544923l 0.44993, -0.0547031l 0.44993, -0.0549139l 0.44993, -0.0551247l 0.44993,
 -0.0553355l 0.44993, -0.0555463l 0.44993, -0.0557571l 0.44993, -0.0559679l 0.44993, -0.0561787l 0.44993, -0.0563895l 0.44993, -0.0566003l 0.44993, -0.0568111l 0.44993, -0.0570219l 0.44993, -0.0572327l 0.44993, -0.0574435l 0.44993, -0.0576543l
 0.44993, -0.0578651l 0.44993, -0.0580759l 0.44993, -0.0582867l 0.44993, -0.0584975l 0.44993, -0.0587083l 0.44993, -0.0589191l 0.44993, -0.0591299l 0.44993, -0.0593407l 0.44993, -0.0595515l 0.44993, -0.0597623l 0.44993, -0.0599731l 0.44993,
 -0.0601839l 0.44993, -0.0603947l 0.44993, -0.0606055l 0.44993, -0.0608163l 0.44993, -0.0610271l 0.44993, -0.0612379l 0.44993, -0.0614487l 0.44993, -0.0616595l 0.44993, -0.0618703l 0.44993, -0.0620811l 0.44993, -0.0622919l 0.44993, -0.0625027l
 0.44993, -0.0627135l 0.44993, -0.0629243l 0.44993, -0.0631351l 0.44993, -0.0633459" fill="none" stroke="#ff0066" stroke-width="3"/>
<path d="M429.45,300.281l 0.44993, -0.0635567l 0.44993, -0.0637675l 0.44993, -0.0639783l 0.44993, -0.0641891l 0.44993, -0.0643999l 0.44993, -0.0646107l 0.44993, -0.0648215l 0.44993, -0.0650323l 0.44993, -0.0652431l 0.44993, -0.0654539l 0.44993,
 -0.0656647l 0.44993, -0.0658755l 0.44993, -0.0660863l 0.44993, -0.0662971l 0.44993, -0.0665079l 0.44993, -0.0667187l 0.44993, -0.0669295l 0.44993, -0.0671403l 0.44993, -0.0673511l 0.44993, -0.0675619l 0.44993, -0.0677727l 0.44993, -0.0679835l
 0.44993, -0.0681943l 0.44993, -0.0684051l 0.44993, -0.0686159l 0.44993, -0.0688267l 0.44993, -0.0690375l 0.44993, -0.0692483l 0.44993, -0.0694591l 0.44993, -0.0696699l 0.44993, -0.0698807l 0.44993, -0.0700915l 0.44993, -0.0703023l 0.44993,
 -0.0705131l 0.44993, -0.0707239l 0.44993, -0.0709347l 0.44993, -0.0711455l 0.44993, -0.0713563l 0.44993, -0.0715671l 0.44993, -0.0717779l 0.44993, -0.0719887l 0.44993, -0.0721995l 0.44993, -0.0724103l 0.44993, -0.0726211l 0.44993, -0.0728319l
 0.44993, -0.0730427l 0.44993, -0.0732535l 0.44993, -0.0734643l 0.44993, -0.0736751" fill="none" stroke="#ff0066" stroke-width="3"/>
<path d="M451.497,296.918l 0.44993, -0.0738859l 0.44993, -0.0740967l 0.44993, -0.0743075l 0.44993, -0.0745183l 0.44993, -0.0747291l 0.44993, -0.0749399l 0.44993, -0.0751507l 0.44993, -0.0753615l 0.44993, -0.0755723l 0.44993, -0.0757831l 0.44993,
 -0.0759939l 0.44993, -0.0762047l 0.44993, -0.0764155l 0.44993, -0.0766263l 0.44993, -0.0768371l 0.44993, -0.0770479l 0.44993, -0.0772587l 0.44993, -0.0774695l 0.44993, -0.0776803l 0.44993, -0.0778911l 0.44993, -0.0781019l 0.44993, -0.0783127l
 0.44993, -0.0785235l 0.44993, -0.0787343l 0.44993, -0.0789451l 0.44993, -0.0791559l 0.44993, -0.0793667l 0.44993, -0.0795775l 0.44993, -0.0797883l 0.44993, -0.0799991l 0.44993, -0.0802099l 0.44993, -0.0804207l 0.44993, -0.0806315l 0.44993,
 -0.0808423l 0.44993, -0.0810531l 0.44993, -0.0812639l 0.44993, -0.0814747l 0.44993, -0.0816856l 0.44993, -0.0818963l 0.44993, -0.0821071l 0.44993, -0.0823179l 0.44993, -0.0825287l 0.44993, -0.0827396l 0.44993, -0.0829504l 0.44993, -0.0831612l
 0.44993, -0.083372l 0.44993, -0.0835828l 0.44993, -0.0837936l 0.44993, -0.0840044" fill="none" stroke="#ff0066" stroke-width="3"/>
<path d="M473.543,293.05l 0.44993, -0.0842152l 0.44993, -0.084426l 0.44993, -0.0846368l 0.44993, -0.0848476l 0.44993, -0.0850584l 0.44993, -0.0852692l 0.44993, -0.08548l 0.44993, -0.0856908l 0.44993, -0.0859016l 0.44993, -0.0861124l 0.44993,
 -0.0863232l 0.44993, -0.086534l 0.44993, -0.0867448l 0.44993, -0.0869556l 0.44993, -0.0871664l 0.44993, -0.0873772l 0.44993, -0.087588l 0.44993, -0.0877988l 0.44993, -0.0880096l 0.44993, -0.0882204l 0.44993, -0.0884312l 0.44993, -0.088642l 0.44993,
 -0.0888528l 0.44993, -0.0890636l 0.44993, -0.0892744l 0.44993, -0.0894852l 0.44993, -0.089696l 0.44993, -0.0899068l 0.44993, -0.0901176l 0.44993, -0.0903284l 0.44993, -0.0905392l 0.44993, -0.09075l 0.44993, -0.0909608l 0.44993, -0.0911716l 0.44993,
 -0.0913824l 0.44993, -0.0915932l 0.44993, -0.091804l 0.44993, -0.0920148l 0.44993, -0.0922256l 0.44993, -0.0924364l 0.44993, -0.0926472l 0.44993, -0.092858l 0.44993, -0.0930688l 0.44993, -0.0932796l 0.44993, -0.0934904l 0.44993, -0.0937012l 0.44993,
 -0.093912l 0.44993, -0.0941228l 0.44993, -0.0943336" fill="none" stroke="#ff0066" stroke-width="3"/>
<path d="M495.59,288.676l 0.44993, -0.0945444l 0.44993, -0.0947552l 0.44993, -0.094966l 0.44993, -0.0951768l 0.44993, -0.0953876l 0.44993, -0.0955984l 0.44993, -0.0958092l 0.44993, -0.09602l 0.44993, -0.0962308l 0.44993, -0.0964416l 0.44993,
 -0.0966524l 0.44993, -0.0968632l 0.44993, -0.097074l 0.44993, -0.0972848l 0.44993, -0.0974956l 0.44993, -0.0977064l 0.44993, -0.0979172l 0.44993, -0.098128l 0.44993, -0.0983388l 0.44993, -0.0985496l 0.44993, -0.0987604l 0.44993, -0.0989712l 0.44993,
 -0.099182l 0.44993, -0.0993928l 0.44993, -0.0996036l 0.44993, -0.0998144l 0.44993, -0.100025l 0.44993, -0.100236l 0.44993, -0.100447l 0.44993, -0.100658l 0.44993, -0.100868l 0.44993, -0.101079l 0.44993, -0.10129l 0.44993, -0.101501l 0.44993,
 -0.101712l 0.44993, -0.101922l 0.44993, -0.102133l 0.44993, -0.102344l 0.44993, -0.102555l 0.44993, -0.102766l 0.44993, -0.102976l 0.44993, -0.103187l 0.44993, -0.103398l 0.44993, -0.103609l 0.44993, -0.10382l 0.44993, -0.10403l 0.44993, -0.104241l
 0.44993, -0.104452l 0.44993, -0.104663" fill="none" stroke="#ff0066" stroke-width="3"/>
<path d="M517.636,283.795l 0.44993, -0.104874l 0.44993, -0.105084l 0.44993, -0.105295l 0.44993, -0.105506l 0.44993, -0.105717l 0.44993, -0.105928l 0.44993, -0.106138l 0.44993, -0.106349l 0.44993, -0.10656l 0.44993, -0.106771l 0.44993, -0.106982l
 0.44993, -0.107192l 0.44993, -0.107403l 0.44993, -0.107614l 0.44993, -0.107825l 0.44993, -0.108036l 0.44993, -0.108246l 0.44993, -0.108457l 0.44993, -0.108668l 0.44993, -0.108879l 0.44993, -0.10909l 0.44993, -0.1093l 0.44993, -0.109511l 0.44993,
 -0.109722l 0.44993, -0.109933l 0.44993, -0.110144l 0.44993, -0.110354l 0.44993, -0.110565l 0.44993, -0.110776l 0.44993, -0.110987l 0.44993, -0.111198l 0.44993, -0.111408l 0.44993, -0.111619l 0.44993, -0.11183l 0.44993, -0.112041l 0.44993, -0.112252l
 0.44993, -0.112462l 0.44993, -0.112673l 0.44993, -0.112884l 0.44993, -0.113095l 0.44993, -0.113306l 0.44993, -0.113516l 0.44993, -0.113727l 0.44993, -0.113938l 0.44993, -0.114149l 0.44993, -0.11436l 0.44993, -0.11457l 0.44993, -0.114781l 0.44993,
 -0.114992" fill="none" stroke="#ff0066" stroke-width="3"/>
<path d="M539.683,278.408l 0.44993, -0.115203l 0.44993, -0.115414l 0.44993, -0.115624l 0.44993, -0.115835l 0.44993, -0.116046l 0.44993, -0.116257l 0.44993, -0.116468l 0.44993, -0.116678l 0.44993, -0.116889l 0.44993, -0.1171l 0.44993, -0.117311l
 0.44993, -0.117522l 0.44993, -0.117732l 0.44993, -0.117943l 0.44993, -0.118154l 0.44993, -0.118365l 0.44993, -0.118576l 0.44993, -0.118786l 0.44993, -0.118997" fill="none" stroke="#ff0066" stroke-width="3"/>
<path d="M212.509,21.4167h 275.957" fill="none" stroke="#999999" stroke-width="7"/>
<text xml:space="preserve" x="360.607" y="50.7193" fill="black" font-size="16.0105" font-family="Helvetica"> with EMC</text>
<text xml:space="preserve" x="352.717" y="50.7193" fill="black" font-size="16.0105" font-family="Times">&#0947;</text>
<text xml:space="preserve" x="344.828" y="50.7193" fill="black" font-size="16.0105" font-family="Times">&#0947;</text>
<text xml:space="preserve" x="336.938" y="50.7193" fill="black" font-size="16.0105" font-family="Times">&#0947;</text>
<text xml:space="preserve" x="331.866" y="50.7193" fill="black" font-size="16.0105" font-family="Helvetica"> </text>
<text xml:space="preserve" x="316.65" y="50.7193" fill="black" font-size="16.0105" font-family="Times">&#8594;</text>
<text xml:space="preserve" x="311.578" y="50.7193" fill="black" font-size="16.0105" font-family="Helvetica"> </text>
<text xml:space="preserve" x="303.689" y="50.7193" fill="black" font-size="16.0105" font-family="Times">&#0947;</text>
<text xml:space="preserve" x="298.053" y="45.0838" fill="black" font-size="10.8403" font-family="Helvetica">0</text>
<text xml:space="preserve" x="289.6" y="50.7193" fill="black" font-size="16.0105" font-family="Times">&#0960;</text>
<text xml:space="preserve" x="284.528" y="50.7193" fill="black" font-size="16.0105" font-family="Helvetica"> </text>
<text xml:space="preserve" x="269.312" y="50.7193" fill="black" font-size="16.0105" font-family="Times">&#8594;</text>
<text xml:space="preserve" x="264.24" y="50.7193" fill="black" font-size="16.0105" font-family="Helvetica"> </text>
<text xml:space="preserve" x="252.969" y="50.7193" fill="black" font-size="16.0105" font-family="Times">&#0969;</text>
<text xml:space="preserve" x="128.989" y="50.7193" fill="black" font-size="16.0105" font-family="Helvetica"> = 13 TeV (EG1), </text>
<text xml:space="preserve" x="120.536" y="50.7193" fill="black" font-size="16.0105" font-family="Helvetica" font-style="oblique">s</text>
<path d="M114.9,41.7025l 1.69064, 9.58031" fill="none" stroke="black" stroke-width="2"/>
<path d="M116.591,51.2829l 2.25419, -14.0887" fill="none" stroke="black"/>
<path d="M118.845,37.1942h 10.1439" fill="none" stroke="black"/>
<text xml:space="preserve" x="89.5406" y="50.7193" fill="black" font-size="16.0105" font-family="Helvetica">pp </text>
<text xml:space="preserve" x="89.5406" y="85.6593" fill="black" font-size="16.0105" font-family="Helvetica">ALICE work in progress</text>
<text xml:space="preserve" x="214.085" y="120.599" fill="black" font-size="16.0105" font-family="Helvetica">) &lt; 18.0</text>
<text xml:space="preserve" x="205.068" y="120.599" fill="black" font-size="16.0105" font-family="Helvetica" font-style="oblique">c</text>
<text xml:space="preserve" x="154.912" y="120.599" fill="black" font-size="16.0105" font-family="Helvetica"> /(GeV/</text>
<text xml:space="preserve" x="148.15" y="128.489" fill="black" font-size="10.8403" font-family="Helvetica">T</text>
<text xml:space="preserve" x="138.569" y="120.599" fill="black" font-size="16.0105" font-family="Helvetica" font-style="oblique">p</text>
<text xml:space="preserve" x="133.497" y="120.599" fill="black" font-size="16.0105" font-family="Helvetica"> </text>
<text xml:space="preserve" x="125.044" y="120.599" fill="black" font-size="16.0105" font-family="Times">&#8804;</text>
<text xml:space="preserve" x="89.5406" y="120.599" fill="black" font-size="16.0105" font-family="Helvetica">16.0 </text>
<rect x="312.311" y="69.1755" width="198.425" height="113.448" fill="white"/>
<text xml:space="preserve" x="361.734" y="85.0957" fill="black" font-size="16.0105" font-family="Helvetica">ratio</text>
<path d="M319.752,80.5203h 34.7244" fill="none" stroke="black" stroke-width="2"/>
<g fill="black">
<circle cx="337.114" cy="80.5203" r="6.76257"/>
</g>
<text xml:space="preserve" x="361.734" y="108.201" fill="black" font-size="16.0105" font-family="Helvetica">peak range</text>
<path d="M319.752,103.21h 34.7244" fill="none" stroke="#333333" stroke-width="2"/>
<g stroke="#333333" stroke-width="2" fill="none">
<circle cx="337.114" cy="103.21" r="5.63548"/>
</g>
<text xml:space="preserve" x="361.734" y="130.743" fill="black" font-size="16.0105" font-family="Helvetica">background pol1</text>
<path d="M319.752,125.899h 34.7244" fill="none" stroke="#33cccc" stroke-width="3"/>
<text xml:space="preserve" x="361.734" y="153.285" fill="black" font-size="16.0105" font-family="Helvetica">background pol2</text>
<path d="M319.752,148.589h 34.7244" fill="none" stroke="#ff0066" stroke-width="3"/>
<text xml:space="preserve" x="361.734" y="175.827" fill="black" font-size="16.0105" font-family="Helvetica">param. range</text>
<path d="M319.752,171.279h 34.7244" fill="none" stroke="#999999" stroke-width="7"/></svg>
