<?xml version="1.0" standalone="no"?>
<svg width="567.429" height="553.904" viewBox="0 0 567.429 553.904" xmlns="http://www.w3.org/2000/svg" shape-rendering="crispEdges">
<title>
MC/EG1/OmegaRotPSNCell/SameEventToBackgroundRatio_03.svg
</title>
<desc>
Creator: ROOT Version 6.20/08
CreationDate: Mon Mar 29 21:31:14 2021</desc>
<defs>
</defs>
<rect x="0.5" y="0" width="566.929" height="553.404" fill="white"/>
<rect x="68.5315" y="16.6021" width="484.724" height="481.461" fill="white"/>
<rect x="68.5315" y="16.6021" width="484.724" height="481.461" fill="none" stroke="black"/>
<rect x="68.5315" y="16.6021" width="484.724" height="481.461" fill="white"/>
<rect x="68.5315" y="16.6021" width="484.724" height="481.461" fill="none" stroke="black"/>
<g fill="black">
<circle cx="109.325" cy="250.285" r="6.76257"/>
</g>
<g fill="black">
<circle cx="114.124" cy="197.15" r="6.76257"/>
</g>
<g fill="black">
<circle cx="118.924" cy="208.42" r="6.76257"/>
</g>
<g fill="black">
<circle cx="123.723" cy="206.36" r="6.76257"/>
</g>
<g fill="black">
<circle cx="128.522" cy="240.517" r="6.76257"/>
</g>
<g fill="black">
<circle cx="133.321" cy="276.92" r="6.76257"/>
</g>
<g fill="black">
<circle cx="138.121" cy="274.832" r="6.76257"/>
</g>
<g fill="black">
<circle cx="142.92" cy="285.76" r="6.76257"/>
</g>
<g fill="black">
<circle cx="147.719" cy="293.225" r="6.76257"/>
</g>
<g fill="black">
<circle cx="152.518" cy="299.2" r="6.76257"/>
</g>
<g fill="black">
<circle cx="157.318" cy="305.376" r="6.76257"/>
</g>
<g fill="black">
<circle cx="162.117" cy="311.447" r="6.76257"/>
</g>
<g fill="black">
<circle cx="166.916" cy="315.288" r="6.76257"/>
</g>
<g fill="black">
<circle cx="171.715" cy="318.714" r="6.76257"/>
</g>
<g fill="black">
<circle cx="176.515" cy="321.575" r="6.76257"/>
</g>
<g fill="black">
<circle cx="181.314" cy="322.873" r="6.76257"/>
</g>
<g fill="black">
<circle cx="186.113" cy="325.648" r="6.76257"/>
</g>
<g fill="black">
<circle cx="190.912" cy="327.37" r="6.76257"/>
</g>
<g fill="black">
<circle cx="195.712" cy="328.357" r="6.76257"/>
</g>
<g fill="black">
<circle cx="200.511" cy="329.747" r="6.76257"/>
</g>
<g fill="black">
<circle cx="205.31" cy="331.324" r="6.76257"/>
</g>
<g fill="black">
<circle cx="210.109" cy="332.77" r="6.76257"/>
</g>
<g fill="black">
<circle cx="214.909" cy="333.571" r="6.76257"/>
</g>
<g fill="black">
<circle cx="219.708" cy="335.01" r="6.76257"/>
</g>
<g fill="black">
<circle cx="224.507" cy="334.914" r="6.76257"/>
</g>
<g fill="black">
<circle cx="229.306" cy="335.144" r="6.76257"/>
</g>
<g fill="black">
<circle cx="234.106" cy="335.008" r="6.76257"/>
</g>
<g fill="black">
<circle cx="238.905" cy="334.184" r="6.76257"/>
</g>
<g fill="black">
<circle cx="243.704" cy="334.227" r="6.76257"/>
</g>
<g fill="black">
<circle cx="248.503" cy="333.822" r="6.76257"/>
</g>
<g fill="black">
<circle cx="253.303" cy="333.974" r="6.76257"/>
</g>
<g fill="black">
<circle cx="258.102" cy="333.254" r="6.76257"/>
</g>
<g fill="black">
<circle cx="262.901" cy="332.826" r="6.76257"/>
</g>
<g fill="black">
<circle cx="267.7" cy="332.526" r="6.76257"/>
</g>
<g fill="black">
<circle cx="272.5" cy="331.955" r="6.76257"/>
</g>
<g fill="black">
<circle cx="277.299" cy="331.71" r="6.76257"/>
</g>
<g fill="black">
<circle cx="339.689" cy="325.157" r="6.76257"/>
</g>
<g fill="black">
<circle cx="344.488" cy="323.66" r="6.76257"/>
</g>
<g fill="black">
<circle cx="349.288" cy="323.7" r="6.76257"/>
</g>
<g fill="black">
<circle cx="354.087" cy="322.242" r="6.76257"/>
</g>
<g fill="black">
<circle cx="358.886" cy="321.264" r="6.76257"/>
</g>
<g fill="black">
<circle cx="363.685" cy="321.675" r="6.76257"/>
</g>
<g fill="black">
<circle cx="368.485" cy="319.258" r="6.76257"/>
</g>
<g fill="black">
<circle cx="373.284" cy="317.719" r="6.76257"/>
</g>
<g fill="black">
<circle cx="378.083" cy="315.631" r="6.76257"/>
</g>
<g fill="black">
<circle cx="382.882" cy="315.704" r="6.76257"/>
</g>
<g fill="black">
<circle cx="387.682" cy="314.662" r="6.76257"/>
</g>
<g fill="black">
<circle cx="392.481" cy="313.459" r="6.76257"/>
</g>
<g fill="black">
<circle cx="397.28" cy="314.474" r="6.76257"/>
</g>
<g fill="black">
<circle cx="402.079" cy="312.186" r="6.76257"/>
</g>
<g fill="black">
<circle cx="406.879" cy="309.139" r="6.76257"/>
</g>
<g fill="black">
<circle cx="411.678" cy="309.02" r="6.76257"/>
</g>
<g fill="black">
<circle cx="416.477" cy="308.945" r="6.76257"/>
</g>
<g fill="black">
<circle cx="421.276" cy="307.105" r="6.76257"/>
</g>
<g fill="black">
<circle cx="426.076" cy="306.235" r="6.76257"/>
</g>
<g fill="black">
<circle cx="430.875" cy="303.851" r="6.76257"/>
</g>
<g fill="black">
<circle cx="435.674" cy="303.985" r="6.76257"/>
</g>
<g fill="black">
<circle cx="440.473" cy="302.106" r="6.76257"/>
</g>
<g fill="black">
<circle cx="445.273" cy="298.715" r="6.76257"/>
</g>
<g fill="black">
<circle cx="450.072" cy="299.441" r="6.76257"/>
</g>
<g fill="black">
<circle cx="454.871" cy="295.969" r="6.76257"/>
</g>
<g fill="black">
<circle cx="459.671" cy="294.874" r="6.76257"/>
</g>
<g fill="black">
<circle cx="464.47" cy="295.419" r="6.76257"/>
</g>
<g fill="black">
<circle cx="469.269" cy="294.622" r="6.76257"/>
</g>
<g fill="black">
<circle cx="474.068" cy="294.367" r="6.76257"/>
</g>
<g fill="black">
<circle cx="478.867" cy="291.152" r="6.76257"/>
</g>
<g fill="black">
<circle cx="483.667" cy="292.061" r="6.76257"/>
</g>
<g fill="black">
<circle cx="488.466" cy="287.827" r="6.76257"/>
</g>
<g fill="black">
<circle cx="493.265" cy="286.898" r="6.76257"/>
</g>
<g fill="black">
<circle cx="498.065" cy="286.011" r="6.76257"/>
</g>
<g fill="black">
<circle cx="502.864" cy="281.806" r="6.76257"/>
</g>
<g fill="black">
<circle cx="507.663" cy="281.632" r="6.76257"/>
</g>
<g fill="black">
<circle cx="512.462" cy="279.649" r="6.76257"/>
</g>
<g fill="black">
<circle cx="517.262" cy="276.213" r="6.76257"/>
</g>
<g fill="black">
<circle cx="522.061" cy="273.959" r="6.76257"/>
</g>
<g fill="black">
<circle cx="526.86" cy="275.541" r="6.76257"/>
</g>
<g fill="black">
<circle cx="531.659" cy="269.735" r="6.76257"/>
</g>
<g fill="black">
<circle cx="536.458" cy="269.565" r="6.76257"/>
</g>
<g fill="black">
<circle cx="541.258" cy="269.045" r="6.76257"/>
</g>
<g fill="black">
<circle cx="546.057" cy="267.522" r="6.76257"/>
</g>
<path d="M68.5315,498.064h 484.724" fill="none" stroke="black"/>
<path d="M68.5315,483.869v 14.1948" fill="none" stroke="black"/>
<path d="M83.5292,490.966v 7.09741" fill="none" stroke="black"/>
<path d="M98.5268,490.966v 7.09741" fill="none" stroke="black"/>
<path d="M113.524,490.966v 7.09741" fill="none" stroke="black"/>
<path d="M128.522,483.869v 14.1948" fill="none" stroke="black"/>
<path d="M143.52,490.966v 7.09741" fill="none" stroke="black"/>
<path d="M158.517,490.966v 7.09741" fill="none" stroke="black"/>
<path d="M173.515,490.966v 7.09741" fill="none" stroke="black"/>
<path d="M188.513,483.869v 14.1948" fill="none" stroke="black"/>
<path d="M203.51,490.966v 7.09741" fill="none" stroke="black"/>
<path d="M218.508,490.966v 7.09741" fill="none" stroke="black"/>
<path d="M233.506,490.966v 7.09741" fill="none" stroke="black"/>
<path d="M248.503,483.869v 14.1948" fill="none" stroke="black"/>
<path d="M263.501,490.966v 7.09741" fill="none" stroke="black"/>
<path d="M278.499,490.966v 7.09741" fill="none" stroke="black"/>
<path d="M293.496,490.966v 7.09741" fill="none" stroke="black"/>
<path d="M308.494,483.869v 14.1948" fill="none" stroke="black"/>
<path d="M323.492,490.966v 7.09741" fill="none" stroke="black"/>
<path d="M338.489,490.966v 7.09741" fill="none" stroke="black"/>
<path d="M353.487,490.966v 7.09741" fill="none" stroke="black"/>
<path d="M368.485,483.869v 14.1948" fill="none" stroke="black"/>
<path d="M383.482,490.966v 7.09741" fill="none" stroke="black"/>
<path d="M398.48,490.966v 7.09741" fill="none" stroke="black"/>
<path d="M413.478,490.966v 7.09741" fill="none" stroke="black"/>
<path d="M428.475,483.869v 14.1948" fill="none" stroke="black"/>
<path d="M443.473,490.966v 7.09741" fill="none" stroke="black"/>
<path d="M458.471,490.966v 7.09741" fill="none" stroke="black"/>
<path d="M473.468,490.966v 7.09741" fill="none" stroke="black"/>
<path d="M488.466,483.869v 14.1948" fill="none" stroke="black"/>
<path d="M503.464,490.966v 7.09741" fill="none" stroke="black"/>
<path d="M518.461,490.966v 7.09741" fill="none" stroke="black"/>
<path d="M533.459,490.966v 7.09741" fill="none" stroke="black"/>
<path d="M548.457,483.869v 14.1948" fill="none" stroke="black"/>
<path d="M548.457,483.869v 14.1948" fill="none" stroke="black"/>
<text xml:space="preserve" x="63.6174" y="513.956" fill="black" font-size="16.0105" font-family="Helvetica">0</text>
<text xml:space="preserve" x="117.718" y="513.956" fill="black" font-size="16.0105" font-family="Helvetica">0.2</text>
<text xml:space="preserve" x="177.454" y="513.956" fill="black" font-size="16.0105" font-family="Helvetica">0.4</text>
<text xml:space="preserve" x="237.754" y="513.956" fill="black" font-size="16.0105" font-family="Helvetica">0.6</text>
<text xml:space="preserve" x="297.49" y="513.956" fill="black" font-size="16.0105" font-family="Helvetica">0.8</text>
<text xml:space="preserve" x="365.115" y="513.956" fill="black" font-size="16.0105" font-family="Helvetica">1</text>
<text xml:space="preserve" x="417.525" y="513.956" fill="black" font-size="16.0105" font-family="Helvetica">1.2</text>
<text xml:space="preserve" x="477.261" y="513.956" fill="black" font-size="16.0105" font-family="Helvetica">1.4</text>
<text xml:space="preserve" x="537.561" y="513.956" fill="black" font-size="16.0105" font-family="Helvetica">1.6</text>
<text xml:space="preserve" x="548.268" y="537.625" fill="black" font-size="16.0105" font-family="Helvetica">)</text>
<text xml:space="preserve" x="542.633" y="532.553" fill="black" font-size="10.8403" font-family="Helvetica">2</text>
<text xml:space="preserve" x="533.616" y="537.625" fill="black" font-size="16.0105" font-family="Helvetica" font-style="oblique">c</text>
<text xml:space="preserve" x="487.405" y="537.625" fill="black" font-size="16.0105" font-family="Helvetica"> (GeV/</text>
<text xml:space="preserve" x="473.317" y="542.697" fill="black" font-size="10.8403" font-family="Helvetica">inv</text>
<text xml:space="preserve" x="459.792" y="537.625" fill="black" font-size="16.0105" font-family="Helvetica" font-style="oblique">m</text>
<path d="M68.5315,16.6021h 484.724" fill="none" stroke="black"/>
<path d="M68.5315,30.7969v -14.1948" fill="none" stroke="black"/>
<path d="M83.5292,23.6995v -7.09741" fill="none" stroke="black"/>
<path d="M98.5268,23.6995v -7.09741" fill="none" stroke="black"/>
<path d="M113.524,23.6995v -7.09741" fill="none" stroke="black"/>
<path d="M128.522,30.7969v -14.1948" fill="none" stroke="black"/>
<path d="M143.52,23.6995v -7.09741" fill="none" stroke="black"/>
<path d="M158.517,23.6995v -7.09741" fill="none" stroke="black"/>
<path d="M173.515,23.6995v -7.09741" fill="none" stroke="black"/>
<path d="M188.513,30.7969v -14.1948" fill="none" stroke="black"/>
<path d="M203.51,23.6995v -7.09741" fill="none" stroke="black"/>
<path d="M218.508,23.6995v -7.09741" fill="none" stroke="black"/>
<path d="M233.506,23.6995v -7.09741" fill="none" stroke="black"/>
<path d="M248.503,30.7969v -14.1948" fill="none" stroke="black"/>
<path d="M263.501,23.6995v -7.09741" fill="none" stroke="black"/>
<path d="M278.499,23.6995v -7.09741" fill="none" stroke="black"/>
<path d="M293.496,23.6995v -7.09741" fill="none" stroke="black"/>
<path d="M308.494,30.7969v -14.1948" fill="none" stroke="black"/>
<path d="M323.492,23.6995v -7.09741" fill="none" stroke="black"/>
<path d="M338.489,23.6995v -7.09741" fill="none" stroke="black"/>
<path d="M353.487,23.6995v -7.09741" fill="none" stroke="black"/>
<path d="M368.485,30.7969v -14.1948" fill="none" stroke="black"/>
<path d="M383.482,23.6995v -7.09741" fill="none" stroke="black"/>
<path d="M398.48,23.6995v -7.09741" fill="none" stroke="black"/>
<path d="M413.478,23.6995v -7.09741" fill="none" stroke="black"/>
<path d="M428.475,30.7969v -14.1948" fill="none" stroke="black"/>
<path d="M443.473,23.6995v -7.09741" fill="none" stroke="black"/>
<path d="M458.471,23.6995v -7.09741" fill="none" stroke="black"/>
<path d="M473.468,23.6995v -7.09741" fill="none" stroke="black"/>
<path d="M488.466,30.7969v -14.1948" fill="none" stroke="black"/>
<path d="M503.464,23.6995v -7.09741" fill="none" stroke="black"/>
<path d="M518.461,23.6995v -7.09741" fill="none" stroke="black"/>
<path d="M533.459,23.6995v -7.09741" fill="none" stroke="black"/>
<path d="M548.457,30.7969v -14.1948" fill="none" stroke="black"/>
<path d="M548.457,30.7969v -14.1948" fill="none" stroke="black"/>
<path d="M68.5315,498.064v -481.461" fill="none" stroke="black"/>
<path d="M83.3283,498.064h -14.7969" fill="none" stroke="black"/>
<path d="M75.9299,481.192h -7.39843" fill="none" stroke="black"/>
<path d="M75.9299,464.321h -7.39843" fill="none" stroke="black"/>
<path d="M75.9299,447.45h -7.39843" fill="none" stroke="black"/>
<path d="M75.9299,430.579h -7.39843" fill="none" stroke="black"/>
<path d="M83.3283,413.707h -14.7969" fill="none" stroke="black"/>
<path d="M75.9299,396.836h -7.39843" fill="none" stroke="black"/>
<path d="M75.9299,379.965h -7.39843" fill="none" stroke="black"/>
<path d="M75.9299,363.094h -7.39843" fill="none" stroke="black"/>
<path d="M75.9299,346.223h -7.39843" fill="none" stroke="black"/>
<path d="M83.3283,329.351h -14.7969" fill="none" stroke="black"/>
<path d="M75.9299,312.48h -7.39843" fill="none" stroke="black"/>
<path d="M75.9299,295.609h -7.39843" fill="none" stroke="black"/>
<path d="M75.9299,278.738h -7.39843" fill="none" stroke="black"/>
<path d="M75.9299,261.866h -7.39843" fill="none" stroke="black"/>
<path d="M83.3283,244.995h -14.7969" fill="none" stroke="black"/>
<path d="M75.9299,228.124h -7.39843" fill="none" stroke="black"/>
<path d="M75.9299,211.253h -7.39843" fill="none" stroke="black"/>
<path d="M75.9299,194.381h -7.39843" fill="none" stroke="black"/>
<path d="M75.9299,177.51h -7.39843" fill="none" stroke="black"/>
<path d="M83.3283,160.639h -14.7969" fill="none" stroke="black"/>
<path d="M75.9299,143.768h -7.39843" fill="none" stroke="black"/>
<path d="M75.9299,126.897h -7.39843" fill="none" stroke="black"/>
<path d="M75.9299,110.025h -7.39843" fill="none" stroke="black"/>
<path d="M75.9299,93.1541h -7.39843" fill="none" stroke="black"/>
<path d="M83.3283,76.2828h -14.7969" fill="none" stroke="black"/>
<path d="M83.3283,76.2828h -14.7969" fill="none" stroke="black"/>
<path d="M75.9299,59.4116h -7.39843" fill="none" stroke="black"/>
<path d="M75.9299,42.5404h -7.39843" fill="none" stroke="black"/>
<path d="M75.9299,25.6691h -7.39843" fill="none" stroke="black"/>
<text xml:space="preserve" x="56.8548" y="503.248" fill="black" font-size="16.0105" font-family="Helvetica">0</text>
<text xml:space="preserve" x="46.1474" y="419.28" fill="black" font-size="16.0105" font-family="Helvetica">0.1</text>
<text xml:space="preserve" x="43.8932" y="334.747" fill="black" font-size="16.0105" font-family="Helvetica">0.2</text>
<text xml:space="preserve" x="43.8932" y="250.215" fill="black" font-size="16.0105" font-family="Helvetica">0.3</text>
<text xml:space="preserve" x="43.8932" y="166.247" fill="black" font-size="16.0105" font-family="Helvetica">0.4</text>
<text xml:space="preserve" x="43.8932" y="81.7144" fill="black" font-size="16.0105" font-family="Helvetica">0.5</text>
<g transform="rotate(-90,38.2577,98.0573)">
<text xml:space="preserve" x="38.2577" y="98.0573" fill="black" font-size="16.0105" font-family="Helvetica">background</text>
</g>
<g transform="rotate(-90,21.9148,98.0573)">
<text xml:space="preserve" x="21.9148" y="98.0573" fill="black" font-size="16.0105" font-family="Helvetica">same event</text>
</g>
<path d="M24.169,98.0573l 0.563548, -81.7144" fill="none" stroke="black" stroke-width="2"/>
<path d="M553.256,498.064v -481.461" fill="none" stroke="black"/>
<path d="M538.459,498.064h 14.7969" fill="none" stroke="black"/>
<path d="M545.857,481.192h 7.39843" fill="none" stroke="black"/>
<path d="M545.857,464.321h 7.39843" fill="none" stroke="black"/>
<path d="M545.857,447.45h 7.39843" fill="none" stroke="black"/>
<path d="M545.857,430.579h 7.39843" fill="none" stroke="black"/>
<path d="M538.459,413.707h 14.7969" fill="none" stroke="black"/>
<path d="M545.857,396.836h 7.39843" fill="none" stroke="black"/>
<path d="M545.857,379.965h 7.39843" fill="none" stroke="black"/>
<path d="M545.857,363.094h 7.39843" fill="none" stroke="black"/>
<path d="M545.857,346.223h 7.39843" fill="none" stroke="black"/>
<path d="M538.459,329.351h 14.7969" fill="none" stroke="black"/>
<path d="M545.857,312.48h 7.39843" fill="none" stroke="black"/>
<path d="M545.857,295.609h 7.39843" fill="none" stroke="black"/>
<path d="M545.857,278.738h 7.39843" fill="none" stroke="black"/>
<path d="M545.857,261.866h 7.39843" fill="none" stroke="black"/>
<path d="M538.459,244.995h 14.7969" fill="none" stroke="black"/>
<path d="M545.857,228.124h 7.39843" fill="none" stroke="black"/>
<path d="M545.857,211.253h 7.39843" fill="none" stroke="black"/>
<path d="M545.857,194.381h 7.39843" fill="none" stroke="black"/>
<path d="M545.857,177.51h 7.39843" fill="none" stroke="black"/>
<path d="M538.459,160.639h 14.7969" fill="none" stroke="black"/>
<path d="M545.857,143.768h 7.39843" fill="none" stroke="black"/>
<path d="M545.857,126.897h 7.39843" fill="none" stroke="black"/>
<path d="M545.857,110.025h 7.39843" fill="none" stroke="black"/>
<path d="M545.857,93.1541h 7.39843" fill="none" stroke="black"/>
<path d="M538.459,76.2828h 14.7969" fill="none" stroke="black"/>
<path d="M538.459,76.2828h 14.7969" fill="none" stroke="black"/>
<path d="M545.857,59.4116h 7.39843" fill="none" stroke="black"/>
<path d="M545.857,42.5404h 7.39843" fill="none" stroke="black"/>
<path d="M545.857,25.6691h 7.39843" fill="none" stroke="black"/>
<g stroke="#333333" stroke-width="2" fill="none">
<circle cx="282.098" cy="331.532" r="5.63548"/>
</g>
<g stroke="#333333" stroke-width="2" fill="none">
<circle cx="286.897" cy="330.554" r="5.63548"/>
</g>
<g stroke="#333333" stroke-width="2" fill="none">
<circle cx="291.697" cy="330.361" r="5.63548"/>
</g>
<g stroke="#333333" stroke-width="2" fill="none">
<circle cx="296.496" cy="330.362" r="5.63548"/>
</g>
<g stroke="#333333" stroke-width="2" fill="none">
<circle cx="301.295" cy="329.765" r="5.63548"/>
</g>
<g stroke="#333333" stroke-width="2" fill="none">
<circle cx="306.094" cy="327.954" r="5.63548"/>
</g>
<g stroke="#333333" stroke-width="2" fill="none">
<circle cx="310.894" cy="328.205" r="5.63548"/>
</g>
<g stroke="#333333" stroke-width="2" fill="none">
<circle cx="315.693" cy="327.337" r="5.63548"/>
</g>
<g stroke="#333333" stroke-width="2" fill="none">
<circle cx="320.492" cy="327.933" r="5.63548"/>
</g>
<g stroke="#333333" stroke-width="2" fill="none">
<circle cx="325.291" cy="326.776" r="5.63548"/>
</g>
<g stroke="#333333" stroke-width="2" fill="none">
<circle cx="330.091" cy="326.885" r="5.63548"/>
</g>
<g stroke="#333333" stroke-width="2" fill="none">
<circle cx="334.89" cy="326.426" r="5.63548"/>
</g>
<path d="M98.7518,346.502l 0.44993, -0.0504168l 0.44993, -0.0504168l 0.44993, -0.0504168l 0.44993, -0.0504168l 0.44993, -0.0504168l 0.44993, -0.0504168l 0.44993, -0.0504168l 0.44993, -0.0504168l 0.44993, -0.0504168l 0.44993, -0.0504168l 0.44993,
 -0.0504168l 0.44993, -0.0504168l 0.44993, -0.0504168l 0.44993, -0.0504168l 0.44993, -0.0504168l 0.44993, -0.0504168l 0.44993, -0.0504168l 0.44993, -0.0504168l 0.44993, -0.0504168l 0.44993, -0.0504168l 0.44993, -0.0504168l 0.44993, -0.0504168l
 0.44993, -0.0504168l 0.44993, -0.0504168l 0.44993, -0.0504168l 0.44993, -0.0504168l 0.44993, -0.0504168l 0.44993, -0.0504168l 0.44993, -0.0504168l 0.44993, -0.0504168l 0.44993, -0.0504168l 0.44993, -0.0504168l 0.44993, -0.0504168l 0.44993,
 -0.0504168l 0.44993, -0.0504168l 0.44993, -0.0504168l 0.44993, -0.0504168l 0.44993, -0.0504168l 0.44993, -0.0504168l 0.44993, -0.0504168l 0.44993, -0.0504168l 0.44993, -0.0504168l 0.44993, -0.0504168l 0.44993, -0.0504168l 0.44993, -0.0504168l
 0.44993, -0.0504168l 0.44993, -0.0504168l 0.44993, -0.0504168l 0.44993, -0.0504168" fill="none" stroke="#33cccc" stroke-width="3"/>
<path d="M120.798,344.031l 0.44993, -0.0504168l 0.44993, -0.0504168l 0.44993, -0.0504168l 0.44993, -0.0504168l 0.44993, -0.0504168l 0.44993, -0.0504168l 0.44993, -0.0504168l 0.44993, -0.0504168l 0.44993, -0.0504168l 0.44993, -0.0504168l 0.44993,
 -0.0504168l 0.44993, -0.0504168l 0.44993, -0.0504168l 0.44993, -0.0504168l 0.44993, -0.0504168l 0.44993, -0.0504168l 0.44993, -0.0504168l 0.44993, -0.0504168l 0.44993, -0.0504168l 0.44993, -0.0504168l 0.44993, -0.0504168l 0.44993, -0.0504168l
 0.44993, -0.0504168l 0.44993, -0.0504168l 0.44993, -0.0504168l 0.44993, -0.0504168l 0.44993, -0.0504168l 0.44993, -0.0504168l 0.44993, -0.0504168l 0.44993, -0.0504168l 0.44993, -0.0504168l 0.44993, -0.0504168l 0.44993, -0.0504168l 0.44993,
 -0.0504168l 0.44993, -0.0504168l 0.44993, -0.0504168l 0.44993, -0.0504168l 0.44993, -0.0504168l 0.44993, -0.0504168l 0.44993, -0.0504168l 0.44993, -0.0504168l 0.44993, -0.0504168l 0.44993, -0.0504168l 0.44993, -0.0504168l 0.44993, -0.0504168l
 0.44993, -0.0504168l 0.44993, -0.0504168l 0.44993, -0.0504168l 0.44993, -0.0504168" fill="none" stroke="#33cccc" stroke-width="3"/>
<path d="M142.845,341.561l 0.44993, -0.0504168l 0.44993, -0.0504168l 0.44993, -0.0504168l 0.44993, -0.0504168l 0.44993, -0.0504168l 0.44993, -0.0504168l 0.44993, -0.0504168l 0.44993, -0.0504168l 0.44993, -0.0504168l 0.44993, -0.0504168l 0.44993,
 -0.0504168l 0.44993, -0.0504168l 0.44993, -0.0504168l 0.44993, -0.0504168l 0.44993, -0.0504168l 0.44993, -0.0504168l 0.44993, -0.0504168l 0.44993, -0.0504168l 0.44993, -0.0504168l 0.44993, -0.0504168l 0.44993, -0.0504168l 0.44993, -0.0504168l
 0.44993, -0.0504168l 0.44993, -0.0504168l 0.44993, -0.0504168l 0.44993, -0.0504168l 0.44993, -0.0504168l 0.44993, -0.0504168l 0.44993, -0.0504168l 0.44993, -0.0504168l 0.44993, -0.0504168l 0.44993, -0.0504168l 0.44993, -0.0504168l 0.44993,
 -0.0504168l 0.44993, -0.0504168l 0.44993, -0.0504168l 0.44993, -0.0504168l 0.44993, -0.0504168l 0.44993, -0.0504168l 0.44993, -0.0504168l 0.44993, -0.0504168l 0.44993, -0.0504168l 0.44993, -0.0504168l 0.44993, -0.0504168l 0.44993, -0.0504168l
 0.44993, -0.0504168l 0.44993, -0.0504168l 0.44993, -0.0504168l 0.44993, -0.0504168" fill="none" stroke="#33cccc" stroke-width="3"/>
<path d="M164.891,339.091l 0.44993, -0.0504168l 0.44993, -0.0504168l 0.44993, -0.0504168l 0.44993, -0.0504168l 0.44993, -0.0504168l 0.44993, -0.0504168l 0.44993, -0.0504168l 0.44993, -0.0504168l 0.44993, -0.0504168l 0.44993, -0.0504168l 0.44993,
 -0.0504168l 0.44993, -0.0504168l 0.44993, -0.0504168l 0.44993, -0.0504168l 0.44993, -0.0504168l 0.44993, -0.0504168l 0.44993, -0.0504168l 0.44993, -0.0504168l 0.44993, -0.0504168l 0.44993, -0.0504168l 0.44993, -0.0504168l 0.44993, -0.0504168l
 0.44993, -0.0504168l 0.44993, -0.0504168l 0.44993, -0.0504168l 0.44993, -0.0504168l 0.44993, -0.0504168l 0.44993, -0.0504168l 0.44993, -0.0504168l 0.44993, -0.0504168l 0.44993, -0.0504168l 0.44993, -0.0504168l 0.44993, -0.0504168l 0.44993,
 -0.0504168l 0.44993, -0.0504168l 0.44993, -0.0504168l 0.44993, -0.0504168l 0.44993, -0.0504168l 0.44993, -0.0504168l 0.44993, -0.0504168l 0.44993, -0.0504168l 0.44993, -0.0504168l 0.44993, -0.0504168l 0.44993, -0.0504168l 0.44993, -0.0504168l
 0.44993, -0.0504168l 0.44993, -0.0504168l 0.44993, -0.0504168l 0.44993, -0.0504168" fill="none" stroke="#33cccc" stroke-width="3"/>
<path d="M186.938,336.62l 0.44993, -0.0504168l 0.44993, -0.0504168l 0.44993, -0.0504168l 0.44993, -0.0504168l 0.44993, -0.0504168l 0.44993, -0.0504168l 0.44993, -0.0504168l 0.44993, -0.0504168l 0.44993, -0.0504168l 0.44993, -0.0504168l 0.44993,
 -0.0504168l 0.44993, -0.0504168l 0.44993, -0.0504168l 0.44993, -0.0504168l 0.44993, -0.0504168l 0.44993, -0.0504168l 0.44993, -0.0504168l 0.44993, -0.0504168l 0.44993, -0.0504168l 0.44993, -0.0504168l 0.44993, -0.0504168l 0.44993, -0.0504168l
 0.44993, -0.0504168l 0.44993, -0.0504168l 0.44993, -0.0504168l 0.44993, -0.0504168l 0.44993, -0.0504168l 0.44993, -0.0504168l 0.44993, -0.0504168l 0.44993, -0.0504168l 0.44993, -0.0504168l 0.44993, -0.0504168l 0.44993, -0.0504168l 0.44993,
 -0.0504168l 0.44993, -0.0504168l 0.44993, -0.0504168l 0.44993, -0.0504168l 0.44993, -0.0504168l 0.44993, -0.0504168l 0.44993, -0.0504168l 0.44993, -0.0504168l 0.44993, -0.0504168l 0.44993, -0.0504168l 0.44993, -0.0504168l 0.44993, -0.0504168l
 0.44993, -0.0504168l 0.44993, -0.0504168l 0.44993, -0.0504168l 0.44993, -0.0504168" fill="none" stroke="#33cccc" stroke-width="3"/>
<path d="M208.985,334.15l 0.44993, -0.0504168l 0.44993, -0.0504168l 0.44993, -0.0504168l 0.44993, -0.0504168l 0.44993, -0.0504168l 0.44993, -0.0504168l 0.44993, -0.0504168l 0.44993, -0.0504168l 0.44993, -0.0504168l 0.44993, -0.0504168l 0.44993,
 -0.0504168l 0.44993, -0.0504168l 0.44993, -0.0504168l 0.44993, -0.0504168l 0.44993, -0.0504168l 0.44993, -0.0504168l 0.44993, -0.0504168l 0.44993, -0.0504168l 0.44993, -0.0504168l 0.44993, -0.0504168l 0.44993, -0.0504168l 0.44993, -0.0504168l
 0.44993, -0.0504168l 0.44993, -0.0504168l 0.44993, -0.0504168l 0.44993, -0.0504168l 0.44993, -0.0504168l 0.44993, -0.0504168l 0.44993, -0.0504168l 0.44993, -0.0504168l 0.44993, -0.0504168l 0.44993, -0.0504168l 0.44993, -0.0504168l 0.44993,
 -0.0504168l 0.44993, -0.0504168l 0.44993, -0.0504168l 0.44993, -0.0504168l 0.44993, -0.0504168l 0.44993, -0.0504168l 0.44993, -0.0504168l 0.44993, -0.0504168l 0.44993, -0.0504168l 0.44993, -0.0504168l 0.44993, -0.0504168l 0.44993, -0.0504168l
 0.44993, -0.0504168l 0.44993, -0.0504168l 0.44993, -0.0504168l 0.44993, -0.0504168" fill="none" stroke="#33cccc" stroke-width="3"/>
<path d="M231.031,331.679l 0.44993, -0.0504168l 0.44993, -0.0504168l 0.44993, -0.0504168l 0.44993, -0.0504168l 0.44993, -0.0504168l 0.44993, -0.0504168l 0.44993, -0.0504168l 0.44993, -0.0504168l 0.44993, -0.0504168l 0.44993, -0.0504168l 0.44993,
 -0.0504168l 0.44993, -0.0504168l 0.44993, -0.0504168l 0.44993, -0.0504168l 0.44993, -0.0504168l 0.44993, -0.0504168l 0.44993, -0.0504168l 0.44993, -0.0504168l 0.44993, -0.0504168l 0.44993, -0.0504168l 0.44993, -0.0504168l 0.44993, -0.0504168l
 0.44993, -0.0504168l 0.44993, -0.0504168l 0.44993, -0.0504168l 0.44993, -0.0504168l 0.44993, -0.0504168l 0.44993, -0.0504168l 0.44993, -0.0504168l 0.44993, -0.0504168l 0.44993, -0.0504168l 0.44993, -0.0504168l 0.44993, -0.0504168l 0.44993,
 -0.0504168l 0.44993, -0.0504168l 0.44993, -0.0504168l 0.44993, -0.0504168l 0.44993, -0.0504168l 0.44993, -0.0504168l 0.44993, -0.0504168l 0.44993, -0.0504168l 0.44993, -0.0504168l 0.44993, -0.0504168l 0.44993, -0.0504168l 0.44993, -0.0504168l
 0.44993, -0.0504168l 0.44993, -0.0504168l 0.44993, -0.0504168l 0.44993, -0.0504168" fill="none" stroke="#33cccc" stroke-width="3"/>
<path d="M253.078,329.209l 0.44993, -0.0504168l 0.44993, -0.0504168l 0.44993, -0.0504168l 0.44993, -0.0504168l 0.44993, -0.0504168l 0.44993, -0.0504168l 0.44993, -0.0504168l 0.44993, -0.0504168l 0.44993, -0.0504168l 0.44993, -0.0504168l 0.44993,
 -0.0504168l 0.44993, -0.0504168l 0.44993, -0.0504168l 0.44993, -0.0504168l 0.44993, -0.0504168l 0.44993, -0.0504168l 0.44993, -0.0504168l 0.44993, -0.0504168l 0.44993, -0.0504168l 0.44993, -0.0504168l 0.44993, -0.0504168l 0.44993, -0.0504168l
 0.44993, -0.0504168l 0.44993, -0.0504168l 0.44993, -0.0504168l 0.44993, -0.0504168l 0.44993, -0.0504168l 0.44993, -0.0504168l 0.44993, -0.0504168l 0.44993, -0.0504168l 0.44993, -0.0504168l 0.44993, -0.0504168l 0.44993, -0.0504168l 0.44993,
 -0.0504168l 0.44993, -0.0504168l 0.44993, -0.0504168l 0.44993, -0.0504168l 0.44993, -0.0504168l 0.44993, -0.0504168l 0.44993, -0.0504168l 0.44993, -0.0504168l 0.44993, -0.0504168l 0.44993, -0.0504168l 0.44993, -0.0504168l 0.44993, -0.0504168l
 0.44993, -0.0504168l 0.44993, -0.0504168l 0.44993, -0.0504168l 0.44993, -0.0504168" fill="none" stroke="#33cccc" stroke-width="3"/>
<path d="M275.124,326.739l 0.44993, -0.0504168l 0.44993, -0.0504168l 0.44993, -0.0504168l 0.44993, -0.0504168l 0.44993, -0.0504168l 0.44993, -0.0504168l 0.44993, -0.0504168l 0.44993, -0.0504168l 0.44993, -0.0504168l 0.44993, -0.0504168l 0.44993,
 -0.0504168l 0.44993, -0.0504168l 0.44993, -0.0504168l 0.44993, -0.0504168l 0.44993, -0.0504168l 0.44993, -0.0504168l 0.44993, -0.0504168l 0.44993, -0.0504168l 0.44993, -0.0504168l 0.44993, -0.0504168l 0.44993, -0.0504168l 0.44993, -0.0504168l
 0.44993, -0.0504168l 0.44993, -0.0504168l 0.44993, -0.0504168l 0.44993, -0.0504168l 0.44993, -0.0504168l 0.44993, -0.0504168l 0.44993, -0.0504168l 0.44993, -0.0504168l 0.44993, -0.0504168l 0.44993, -0.0504168l 0.44993, -0.0504168l 0.44993,
 -0.0504168l 0.44993, -0.0504168l 0.44993, -0.0504168l 0.44993, -0.0504168l 0.44993, -0.0504168l 0.44993, -0.0504168l 0.44993, -0.0504168l 0.44993, -0.0504168l 0.44993, -0.0504168l 0.44993, -0.0504168l 0.44993, -0.0504168l 0.44993, -0.0504168l
 0.44993, -0.0504168l 0.44993, -0.0504168l 0.44993, -0.0504168l 0.44993, -0.0504168" fill="none" stroke="#33cccc" stroke-width="3"/>
<path d="M297.171,324.268l 0.44993, -0.0504168l 0.44993, -0.0504168l 0.44993, -0.0504168l 0.44993, -0.0504168l 0.44993, -0.0504168l 0.44993, -0.0504168l 0.44993, -0.0504168l 0.44993, -0.0504168l 0.44993, -0.0504168l 0.44993, -0.0504168l 0.44993,
 -0.0504168l 0.44993, -0.0504168l 0.44993, -0.0504168l 0.44993, -0.0504168l 0.44993, -0.0504168l 0.44993, -0.0504168l 0.44993, -0.0504168l 0.44993, -0.0504168l 0.44993, -0.0504168l 0.44993, -0.0504168l 0.44993, -0.0504168l 0.44993, -0.0504168l
 0.44993, -0.0504168l 0.44993, -0.0504168l 0.44993, -0.0504168l 0.44993, -0.0504168l 0.44993, -0.0504168l 0.44993, -0.0504168l 0.44993, -0.0504168l 0.44993, -0.0504168l 0.44993, -0.0504168l 0.44993, -0.0504168l 0.44993, -0.0504168l 0.44993,
 -0.0504168l 0.44993, -0.0504168l 0.44993, -0.0504168l 0.44993, -0.0504168l 0.44993, -0.0504168l 0.44993, -0.0504168l 0.44993, -0.0504168l 0.44993, -0.0504168l 0.44993, -0.0504168l 0.44993, -0.0504168l 0.44993, -0.0504168l 0.44993, -0.0504168l
 0.44993, -0.0504168l 0.44993, -0.0504168l 0.44993, -0.0504168l 0.44993, -0.0504168" fill="none" stroke="#33cccc" stroke-width="3"/>
<path d="M319.217,321.798l 0.44993, -0.0504168l 0.44993, -0.0504168l 0.44993, -0.0504168l 0.44993, -0.0504168l 0.44993, -0.0504168l 0.44993, -0.0504168l 0.44993, -0.0504168l 0.44993, -0.0504168l 0.44993, -0.0504168l 0.44993, -0.0504168l 0.44993,
 -0.0504168l 0.44993, -0.0504168l 0.44993, -0.0504168l 0.44993, -0.0504168l 0.44993, -0.0504168l 0.44993, -0.0504168l 0.44993, -0.0504168l 0.44993, -0.0504168l 0.44993, -0.0504168l 0.44993, -0.0504168l 0.44993, -0.0504168l 0.44993, -0.0504168l
 0.44993, -0.0504168l 0.44993, -0.0504168l 0.44993, -0.0504168l 0.44993, -0.0504168l 0.44993, -0.0504168l 0.44993, -0.0504168l 0.44993, -0.0504168l 0.44993, -0.0504168l 0.44993, -0.0504168l 0.44993, -0.0504168l 0.44993, -0.0504168l 0.44993,
 -0.0504168l 0.44993, -0.0504168l 0.44993, -0.0504168l 0.44993, -0.0504168l 0.44993, -0.0504168l 0.44993, -0.0504168l 0.44993, -0.0504168l 0.44993, -0.0504168l 0.44993, -0.0504168l 0.44993, -0.0504168l 0.44993, -0.0504168l 0.44993, -0.0504168l
 0.44993, -0.0504168l 0.44993, -0.0504168l 0.44993, -0.0504168l 0.44993, -0.0504168" fill="none" stroke="#33cccc" stroke-width="3"/>
<path d="M341.264,319.327l 0.44993, -0.0504168l 0.44993, -0.0504168l 0.44993, -0.0504168l 0.44993, -0.0504168l 0.44993, -0.0504168l 0.44993, -0.0504168l 0.44993, -0.0504168l 0.44993, -0.0504168l 0.44993, -0.0504168l 0.44993, -0.0504168l 0.44993,
 -0.0504168l 0.44993, -0.0504168l 0.44993, -0.0504168l 0.44993, -0.0504168l 0.44993, -0.0504168l 0.44993, -0.0504168l 0.44993, -0.0504168l 0.44993, -0.0504168l 0.44993, -0.0504168l 0.44993, -0.0504168l 0.44993, -0.0504168l 0.44993, -0.0504168l
 0.44993, -0.0504168l 0.44993, -0.0504168l 0.44993, -0.0504168l 0.44993, -0.0504168l 0.44993, -0.0504168l 0.44993, -0.0504168l 0.44993, -0.0504168l 0.44993, -0.0504168l 0.44993, -0.0504168l 0.44993, -0.0504168l 0.44993, -0.0504168l 0.44993,
 -0.0504168l 0.44993, -0.0504168l 0.44993, -0.0504168l 0.44993, -0.0504168l 0.44993, -0.0504168l 0.44993, -0.0504168l 0.44993, -0.0504168l 0.44993, -0.0504168l 0.44993, -0.0504168l 0.44993, -0.0504168l 0.44993, -0.0504168l 0.44993, -0.0504168l
 0.44993, -0.0504168l 0.44993, -0.0504168l 0.44993, -0.0504168l 0.44993, -0.0504168" fill="none" stroke="#33cccc" stroke-width="3"/>
<path d="M363.311,316.857l 0.44993, -0.0504168l 0.44993, -0.0504168l 0.44993, -0.0504168l 0.44993, -0.0504168l 0.44993, -0.0504168l 0.44993, -0.0504168l 0.44993, -0.0504168l 0.44993, -0.0504168l 0.44993, -0.0504168l 0.44993, -0.0504168l 0.44993,
 -0.0504168l 0.44993, -0.0504168l 0.44993, -0.0504168l 0.44993, -0.0504168l 0.44993, -0.0504168l 0.44993, -0.0504168l 0.44993, -0.0504168l 0.44993, -0.0504168l 0.44993, -0.0504168l 0.44993, -0.0504168l 0.44993, -0.0504168l 0.44993, -0.0504168l
 0.44993, -0.0504168l 0.44993, -0.0504168l 0.44993, -0.0504168l 0.44993, -0.0504168l 0.44993, -0.0504168l 0.44993, -0.0504168l 0.44993, -0.0504168l 0.44993, -0.0504168l 0.44993, -0.0504168l 0.44993, -0.0504168l 0.44993, -0.0504168l 0.44993,
 -0.0504168l 0.44993, -0.0504168l 0.44993, -0.0504168l 0.44993, -0.0504168l 0.44993, -0.0504168l 0.44993, -0.0504168l 0.44993, -0.0504168l 0.44993, -0.0504168l 0.44993, -0.0504168l 0.44993, -0.0504168l 0.44993, -0.0504168l 0.44993, -0.0504168l
 0.44993, -0.0504168l 0.44993, -0.0504168l 0.44993, -0.0504168l 0.44993, -0.0504168" fill="none" stroke="#33cccc" stroke-width="3"/>
<path d="M385.357,314.386l 0.44993, -0.0504168l 0.44993, -0.0504168l 0.44993, -0.0504168l 0.44993, -0.0504168l 0.44993, -0.0504168l 0.44993, -0.0504168l 0.44993, -0.0504168l 0.44993, -0.0504168l 0.44993, -0.0504168l 0.44993, -0.0504168l 0.44993,
 -0.0504168l 0.44993, -0.0504168l 0.44993, -0.0504168l 0.44993, -0.0504168l 0.44993, -0.0504168l 0.44993, -0.0504168l 0.44993, -0.0504168l 0.44993, -0.0504168l 0.44993, -0.0504168l 0.44993, -0.0504168l 0.44993, -0.0504168l 0.44993, -0.0504168l
 0.44993, -0.0504168l 0.44993, -0.0504168l 0.44993, -0.0504168l 0.44993, -0.0504168l 0.44993, -0.0504168l 0.44993, -0.0504168l 0.44993, -0.0504168l 0.44993, -0.0504168l 0.44993, -0.0504168l 0.44993, -0.0504168l 0.44993, -0.0504168l 0.44993,
 -0.0504168l 0.44993, -0.0504168l 0.44993, -0.0504168l 0.44993, -0.0504168l 0.44993, -0.0504168l 0.44993, -0.0504168l 0.44993, -0.0504168l 0.44993, -0.0504168l 0.44993, -0.0504168l 0.44993, -0.0504168l 0.44993, -0.0504168l 0.44993, -0.0504168l
 0.44993, -0.0504168l 0.44993, -0.0504168l 0.44993, -0.0504168l 0.44993, -0.0504168" fill="none" stroke="#33cccc" stroke-width="3"/>
<path d="M407.404,311.916l 0.44993, -0.0504168l 0.44993, -0.0504168l 0.44993, -0.0504168l 0.44993, -0.0504168l 0.44993, -0.0504168l 0.44993, -0.0504168l 0.44993, -0.0504168l 0.44993, -0.0504168l 0.44993, -0.0504168l 0.44993, -0.0504168l 0.44993,
 -0.0504168l 0.44993, -0.0504168l 0.44993, -0.0504168l 0.44993, -0.0504168l 0.44993, -0.0504168l 0.44993, -0.0504168l 0.44993, -0.0504168l 0.44993, -0.0504168l 0.44993, -0.0504168l 0.44993, -0.0504168l 0.44993, -0.0504168l 0.44993, -0.0504168l
 0.44993, -0.0504168l 0.44993, -0.0504168l 0.44993, -0.0504168l 0.44993, -0.0504168l 0.44993, -0.0504168l 0.44993, -0.0504168l 0.44993, -0.0504168l 0.44993, -0.0504168l 0.44993, -0.0504168l 0.44993, -0.0504168l 0.44993, -0.0504168l 0.44993,
 -0.0504168l 0.44993, -0.0504168l 0.44993, -0.0504168l 0.44993, -0.0504168l 0.44993, -0.0504168l 0.44993, -0.0504168l 0.44993, -0.0504168l 0.44993, -0.0504168l 0.44993, -0.0504168l 0.44993, -0.0504168l 0.44993, -0.0504168l 0.44993, -0.0504168l
 0.44993, -0.0504168l 0.44993, -0.0504168l 0.44993, -0.0504168l 0.44993, -0.0504168" fill="none" stroke="#33cccc" stroke-width="3"/>
<path d="M429.45,309.446l 0.44993, -0.0504168l 0.44993, -0.0504168l 0.44993, -0.0504168l 0.44993, -0.0504168l 0.44993, -0.0504168l 0.44993, -0.0504168l 0.44993, -0.0504168l 0.44993, -0.0504168l 0.44993, -0.0504168l 0.44993, -0.0504168l 0.44993,
 -0.0504168l 0.44993, -0.0504168l 0.44993, -0.0504168l 0.44993, -0.0504168l 0.44993, -0.0504168l 0.44993, -0.0504168l 0.44993, -0.0504168l 0.44993, -0.0504168l 0.44993, -0.0504168l 0.44993, -0.0504168l 0.44993, -0.0504168l 0.44993, -0.0504168l
 0.44993, -0.0504168l 0.44993, -0.0504168l 0.44993, -0.0504168l 0.44993, -0.0504168l 0.44993, -0.0504168l 0.44993, -0.0504168l 0.44993, -0.0504168l 0.44993, -0.0504168l 0.44993, -0.0504168l 0.44993, -0.0504168l 0.44993, -0.0504168l 0.44993,
 -0.0504168l 0.44993, -0.0504168l 0.44993, -0.0504168l 0.44993, -0.0504168l 0.44993, -0.0504168l 0.44993, -0.0504168l 0.44993, -0.0504168l 0.44993, -0.0504168l 0.44993, -0.0504168l 0.44993, -0.0504168l 0.44993, -0.0504168l 0.44993, -0.0504168l
 0.44993, -0.0504168l 0.44993, -0.0504168l 0.44993, -0.0504168l 0.44993, -0.0504168" fill="none" stroke="#33cccc" stroke-width="3"/>
<path d="M451.497,306.975l 0.44993, -0.0504168l 0.44993, -0.0504168l 0.44993, -0.0504168l 0.44993, -0.0504168l 0.44993, -0.0504168l 0.44993, -0.0504168l 0.44993, -0.0504168l 0.44993, -0.0504168l 0.44993, -0.0504168l 0.44993, -0.0504168l 0.44993,
 -0.0504168l 0.44993, -0.0504168l 0.44993, -0.0504168l 0.44993, -0.0504168l 0.44993, -0.0504168l 0.44993, -0.0504168l 0.44993, -0.0504168l 0.44993, -0.0504168l 0.44993, -0.0504168l 0.44993, -0.0504168l 0.44993, -0.0504168l 0.44993, -0.0504168l
 0.44993, -0.0504168l 0.44993, -0.0504168l 0.44993, -0.0504168l 0.44993, -0.0504168l 0.44993, -0.0504168l 0.44993, -0.0504168l 0.44993, -0.0504168l 0.44993, -0.0504168l 0.44993, -0.0504168l 0.44993, -0.0504168l 0.44993, -0.0504168l 0.44993,
 -0.0504168l 0.44993, -0.0504168l 0.44993, -0.0504168l 0.44993, -0.0504168l 0.44993, -0.0504168l 0.44993, -0.0504168l 0.44993, -0.0504168l 0.44993, -0.0504168l 0.44993, -0.0504168l 0.44993, -0.0504168l 0.44993, -0.0504168l 0.44993, -0.0504168l
 0.44993, -0.0504168l 0.44993, -0.0504168l 0.44993, -0.0504168l 0.44993, -0.0504168" fill="none" stroke="#33cccc" stroke-width="3"/>
<path d="M473.543,304.505l 0.44993, -0.0504168l 0.44993, -0.0504168l 0.44993, -0.0504168l 0.44993, -0.0504168l 0.44993, -0.0504168l 0.44993, -0.0504168l 0.44993, -0.0504168l 0.44993, -0.0504168l 0.44993, -0.0504168l 0.44993, -0.0504168l 0.44993,
 -0.0504168l 0.44993, -0.0504168l 0.44993, -0.0504168l 0.44993, -0.0504168l 0.44993, -0.0504168l 0.44993, -0.0504168l 0.44993, -0.0504168l 0.44993, -0.0504168l 0.44993, -0.0504168l 0.44993, -0.0504168l 0.44993, -0.0504168l 0.44993, -0.0504168l
 0.44993, -0.0504168l 0.44993, -0.0504168l 0.44993, -0.0504168l 0.44993, -0.0504168l 0.44993, -0.0504168l 0.44993, -0.0504168l 0.44993, -0.0504168l 0.44993, -0.0504168l 0.44993, -0.0504168l 0.44993, -0.0504168l 0.44993, -0.0504168l 0.44993,
 -0.0504168l 0.44993, -0.0504168l 0.44993, -0.0504168l 0.44993, -0.0504168l 0.44993, -0.0504168l 0.44993, -0.0504168l 0.44993, -0.0504168l 0.44993, -0.0504168l 0.44993, -0.0504168l 0.44993, -0.0504168l 0.44993, -0.0504168l 0.44993, -0.0504168l
 0.44993, -0.0504168l 0.44993, -0.0504168l 0.44993, -0.0504168l 0.44993, -0.0504168" fill="none" stroke="#33cccc" stroke-width="3"/>
<path d="M495.59,302.034l 0.44993, -0.0504168l 0.44993, -0.0504168l 0.44993, -0.0504168l 0.44993, -0.0504168l 0.44993, -0.0504168l 0.44993, -0.0504168l 0.44993, -0.0504168l 0.44993, -0.0504168l 0.44993, -0.0504168l 0.44993, -0.0504168l 0.44993,
 -0.0504168l 0.44993, -0.0504168l 0.44993, -0.0504168l 0.44993, -0.0504168l 0.44993, -0.0504168l 0.44993, -0.0504168l 0.44993, -0.0504168l 0.44993, -0.0504168l 0.44993, -0.0504168l 0.44993, -0.0504168l 0.44993, -0.0504168l 0.44993, -0.0504168l
 0.44993, -0.0504168l 0.44993, -0.0504168l 0.44993, -0.0504168l 0.44993, -0.0504168l 0.44993, -0.0504168l 0.44993, -0.0504168l 0.44993, -0.0504168l 0.44993, -0.0504168l 0.44993, -0.0504168l 0.44993, -0.0504168l 0.44993, -0.0504168l 0.44993,
 -0.0504168l 0.44993, -0.0504168l 0.44993, -0.0504168l 0.44993, -0.0504168l 0.44993, -0.0504168l 0.44993, -0.0504168l 0.44993, -0.0504168l 0.44993, -0.0504168l 0.44993, -0.0504168l 0.44993, -0.0504168l 0.44993, -0.0504168l 0.44993, -0.0504168l
 0.44993, -0.0504168l 0.44993, -0.0504168l 0.44993, -0.0504168l 0.44993, -0.0504168" fill="none" stroke="#33cccc" stroke-width="3"/>
<path d="M517.636,299.564l 0.44993, -0.0504168l 0.44993, -0.0504168l 0.44993, -0.0504168l 0.44993, -0.0504168l 0.44993, -0.0504168l 0.44993, -0.0504168l 0.44993, -0.0504168l 0.44993, -0.0504168l 0.44993, -0.0504168l 0.44993, -0.0504168l 0.44993,
 -0.0504168l 0.44993, -0.0504168l 0.44993, -0.0504168l 0.44993, -0.0504168l 0.44993, -0.0504168l 0.44993, -0.0504168l 0.44993, -0.0504168l 0.44993, -0.0504168l 0.44993, -0.0504168l 0.44993, -0.0504168l 0.44993, -0.0504168l 0.44993, -0.0504168l
 0.44993, -0.0504168l 0.44993, -0.0504168l 0.44993, -0.0504168l 0.44993, -0.0504168l 0.44993, -0.0504168l 0.44993, -0.0504168l 0.44993, -0.0504168l 0.44993, -0.0504168l 0.44993, -0.0504168l 0.44993, -0.0504168l 0.44993, -0.0504168l 0.44993,
 -0.0504168l 0.44993, -0.0504168l 0.44993, -0.0504168l 0.44993, -0.0504168l 0.44993, -0.0504168l 0.44993, -0.0504168l 0.44993, -0.0504168l 0.44993, -0.0504168l 0.44993, -0.0504168l 0.44993, -0.0504168l 0.44993, -0.0504168l 0.44993, -0.0504168l
 0.44993, -0.0504168l 0.44993, -0.0504168l 0.44993, -0.0504168l 0.44993, -0.0504168" fill="none" stroke="#33cccc" stroke-width="3"/>
<path d="M539.683,297.093l 0.44993, -0.0504168l 0.44993, -0.0504168l 0.44993, -0.0504168l 0.44993, -0.0504168l 0.44993, -0.0504168l 0.44993, -0.0504168l 0.44993, -0.0504168l 0.44993, -0.0504168l 0.44993, -0.0504168l 0.44993, -0.0504168l 0.44993,
 -0.0504168l 0.44993, -0.0504168l 0.44993, -0.0504168l 0.44993, -0.0504168l 0.44993, -0.0504168l 0.44993, -0.0504168l 0.44993, -0.0504168l 0.44993, -0.0504168l 0.44993, -0.0504168" fill="none" stroke="#33cccc" stroke-width="3"/>
<path d="M98.7518,312.971l 0.44993, 0.119412l 0.44993, 0.119057l 0.44993, 0.118702l 0.44993, 0.118348l 0.44993, 0.117993l 0.44993, 0.117638l 0.44993, 0.117283l 0.44993, 0.116929l 0.44993, 0.116574l 0.44993, 0.116219l 0.44993, 0.115864l 0.44993,
 0.115509l 0.44993, 0.115155l 0.44993, 0.1148l 0.44993, 0.114445l 0.44993, 0.11409l 0.44993, 0.113736l 0.44993, 0.113381l 0.44993, 0.113026l 0.44993, 0.112671l 0.44993, 0.112316l 0.44993, 0.111962l 0.44993, 0.111607l 0.44993, 0.111252l 0.44993,
 0.110897l 0.44993, 0.110543l 0.44993, 0.110188l 0.44993, 0.109833l 0.44993, 0.109478l 0.44993, 0.109123l 0.44993, 0.108769l 0.44993, 0.108414l 0.44993, 0.108059l 0.44993, 0.107704l 0.44993, 0.10735l 0.44993, 0.106995l 0.44993, 0.10664l 0.44993,
 0.106285l 0.44993, 0.10593l 0.44993, 0.105576l 0.44993, 0.105221l 0.44993, 0.104866l 0.44993, 0.104511l 0.44993, 0.104157l 0.44993, 0.103802l 0.44993, 0.103447l 0.44993, 0.103092l 0.44993, 0.102738l 0.44993, 0.102383" fill="none" stroke="#ff0066"
 stroke-width="3"/>
<path d="M120.798,318.405l 0.44993, 0.102028l 0.44993, 0.101673l 0.44993, 0.101318l 0.44993, 0.100964l 0.44993, 0.100609l 0.44993, 0.100254l 0.44993, 0.0998993l 0.44993, 0.0995445l 0.44993, 0.0991898l 0.44993, 0.098835l 0.44993, 0.0984802l 0.44993,
 0.0981254l 0.44993, 0.0977707l 0.44993, 0.0974159l 0.44993, 0.0970611l 0.44993, 0.0967063l 0.44993, 0.0963516l 0.44993, 0.0959968l 0.44993, 0.095642l 0.44993, 0.0952872l 0.44993, 0.0949325l 0.44993, 0.0945777l 0.44993, 0.0942229l 0.44993, 0.0938681l
 0.44993, 0.0935134l 0.44993, 0.0931586l 0.44993, 0.0928038l 0.44993, 0.092449l 0.44993, 0.0920943l 0.44993, 0.0917395l 0.44993, 0.0913847l 0.44993, 0.0910299l 0.44993, 0.0906752l 0.44993, 0.0903204l 0.44993, 0.0899656l 0.44993, 0.0896108l 0.44993,
 0.0892561l 0.44993, 0.0889013l 0.44993, 0.0885465l 0.44993, 0.0881917l 0.44993, 0.087837l 0.44993, 0.0874822l 0.44993, 0.0871274l 0.44993, 0.0867726l 0.44993, 0.0864179l 0.44993, 0.0860631l 0.44993, 0.0857083l 0.44993, 0.0853535l 0.44993, 0.0849988"
 fill="none" stroke="#ff0066" stroke-width="3"/>
<path d="M142.845,322.987l 0.44993, 0.084644l 0.44993, 0.0842892l 0.44993, 0.0839344l 0.44993, 0.0835797l 0.44993, 0.0832249l 0.44993, 0.0828701l 0.44993, 0.0825153l 0.44993, 0.0821606l 0.44993, 0.0818058l 0.44993, 0.081451l 0.44993, 0.0810962l
 0.44993, 0.0807415l 0.44993, 0.0803867l 0.44993, 0.0800319l 0.44993, 0.0796771l 0.44993, 0.0793224l 0.44993, 0.0789676l 0.44993, 0.0786128l 0.44993, 0.078258l 0.44993, 0.0779033l 0.44993, 0.0775485l 0.44993, 0.0771937l 0.44993, 0.0768389l 0.44993,
 0.0764842l 0.44993, 0.0761294l 0.44993, 0.0757746l 0.44993, 0.0754199l 0.44993, 0.0750651l 0.44993, 0.0747103l 0.44993, 0.0743555l 0.44993, 0.0740007l 0.44993, 0.073646l 0.44993, 0.0732912l 0.44993, 0.0729364l 0.44993, 0.0725816l 0.44993, 0.0722269l
 0.44993, 0.0718721l 0.44993, 0.0715173l 0.44993, 0.0711626l 0.44993, 0.0708078l 0.44993, 0.070453l 0.44993, 0.0700982l 0.44993, 0.0697434l 0.44993, 0.0693887l 0.44993, 0.0690339l 0.44993, 0.0686791l 0.44993, 0.0683243l 0.44993, 0.0679696l 0.44993,
 0.0676148" fill="none" stroke="#ff0066" stroke-width="3"/>
<path d="M164.891,326.717l 0.44993, 0.06726l 0.44993, 0.0669053l 0.44993, 0.0665505l 0.44993, 0.0661957l 0.44993, 0.0658409l 0.44993, 0.0654861l 0.44993, 0.0651314l 0.44993, 0.0647766l 0.44993, 0.0644218l 0.44993, 0.0640671l 0.44993, 0.0637123l
 0.44993, 0.0633575l 0.44993, 0.0630027l 0.44993, 0.062648l 0.44993, 0.0622932l 0.44993, 0.0619384l 0.44993, 0.0615836l 0.44993, 0.0612289l 0.44993, 0.0608741l 0.44993, 0.0605193l 0.44993, 0.0601645l 0.44993, 0.0598098l 0.44993, 0.059455l 0.44993,
 0.0591002l 0.44993, 0.0587454l 0.44993, 0.0583907l 0.44993, 0.0580359l 0.44993, 0.0576811l 0.44993, 0.0573263l 0.44993, 0.0569716l 0.44993, 0.0566168l 0.44993, 0.056262l 0.44993, 0.0559072l 0.44993, 0.0555525l 0.44993, 0.0551977l 0.44993, 0.0548429l
 0.44993, 0.0544881l 0.44993, 0.0541334l 0.44993, 0.0537786l 0.44993, 0.0534238l 0.44993, 0.053069l 0.44993, 0.0527143l 0.44993, 0.0523595l 0.44993, 0.0520047l 0.44993, 0.0516499l 0.44993, 0.0512952l 0.44993, 0.0509404l 0.44993, 0.0505856l 0.44993,
 0.0502308" fill="none" stroke="#ff0066" stroke-width="3"/>
<path d="M186.938,329.596l 0.44993, 0.0498761l 0.44993, 0.0495213l 0.44993, 0.0491665l 0.44993, 0.0488117l 0.44993, 0.048457l 0.44993, 0.0481022l 0.44993, 0.0477474l 0.44993, 0.0473926l 0.44993, 0.0470379l 0.44993, 0.0466831l 0.44993, 0.0463283l
 0.44993, 0.0459735l 0.44993, 0.0456188l 0.44993, 0.045264l 0.44993, 0.0449092l 0.44993, 0.0445544l 0.44993, 0.0441997l 0.44993, 0.0438449l 0.44993, 0.0434901l 0.44993, 0.0431353l 0.44993, 0.0427806l 0.44993, 0.0424258l 0.44993, 0.042071l 0.44993,
 0.0417162l 0.44993, 0.0413615l 0.44993, 0.0410067l 0.44993, 0.0406519l 0.44993, 0.0402971l 0.44993, 0.0399424l 0.44993, 0.0395876l 0.44993, 0.0392328l 0.44993, 0.038878l 0.44993, 0.0385233l 0.44993, 0.0381685l 0.44993, 0.0378137l 0.44993, 0.0374589l
 0.44993, 0.0371042l 0.44993, 0.0367494l 0.44993, 0.0363946l 0.44993, 0.0360398l 0.44993, 0.0356851l 0.44993, 0.0353303l 0.44993, 0.0349755l 0.44993, 0.0346207l 0.44993, 0.034266l 0.44993, 0.0339112l 0.44993, 0.0335564l 0.44993, 0.0332016l 0.44993,
 0.0328469" fill="none" stroke="#ff0066" stroke-width="3"/>
<path d="M208.985,331.622l 0.44993, 0.0324921l 0.44993, 0.0321373l 0.44993, 0.0317825l 0.44993, 0.0314278l 0.44993, 0.031073l 0.44993, 0.0307182l 0.44993, 0.0303634l 0.44993, 0.0300087l 0.44993, 0.0296539l 0.44993, 0.0292991l 0.44993, 0.0289443l
 0.44993, 0.0285896l 0.44993, 0.0282348l 0.44993, 0.02788l 0.44993, 0.0275252l 0.44993, 0.0271705l 0.44993, 0.0268157l 0.44993, 0.0264609l 0.44993, 0.0261061l 0.44993, 0.0257514l 0.44993, 0.0253966l 0.44993, 0.0250418l 0.44993, 0.024687l 0.44993,
 0.0243323l 0.44993, 0.0239775l 0.44993, 0.0236227l 0.44993, 0.0232679l 0.44993, 0.0229132l 0.44993, 0.0225584l 0.44993, 0.0222036l 0.44993, 0.0218488l 0.44993, 0.0214941l 0.44993, 0.0211393l 0.44993, 0.0207845l 0.44993, 0.0204297l 0.44993, 0.020075l
 0.44993, 0.0197202l 0.44993, 0.0193654l 0.44993, 0.0190106l 0.44993, 0.0186559l 0.44993, 0.0183011l 0.44993, 0.0179463l 0.44993, 0.0175915l 0.44993, 0.0172368l 0.44993, 0.016882l 0.44993, 0.0165272l 0.44993, 0.0161724l 0.44993, 0.0158177l 0.44993,
 0.0154629" fill="none" stroke="#ff0066" stroke-width="3"/>
<path d="M231.031,332.797l 0.44993, 0.0151081l 0.44993, 0.0147533l 0.44993, 0.0143986l 0.44993, 0.0140438l 0.44993, 0.013689l 0.44993, 0.0133342l 0.44993, 0.0129795l 0.44993, 0.0126247l 0.44993, 0.0122699l 0.44993, 0.0119151l 0.44993, 0.0115604l
 0.44993, 0.0112056l 0.44993, 0.0108508l 0.44993, 0.010496l 0.44993, 0.0101413l 0.44993, 0.0097865l 0.44993, 0.00943172l 0.44993, 0.00907695l 0.44993, 0.00872217l 0.44993, 0.0083674l 0.44993, 0.00801262l 0.44993, 0.00765785l 0.44993, 0.00730307l
 0.44993, 0.0069483l 0.44993, 0.00659352l 0.44993, 0.00623875l 0.44993, 0.00588397l 0.44993, 0.0055292l 0.44993, 0.00517442l 0.44993, 0.00481965l 0.44993, 0.00446487l 0.44993, 0.0041101l 0.44993, 0.00375532l 0.44993, 0.00340055l 0.44993, 0.00304577l
 0.44993, 0.002691l 0.44993, 0.00233622l 0.44993, 0.00198145l 0.44993, 0.00162667l 0.44993, 0.0012719l 0.44993, 0.000917124l 0.44993, 0.000562349l 0.44993, 0.000207574l 0.44993, -0.000147201l 0.44993, -0.000501976l 0.44993, -0.000856751l 0.44993,
 -0.00121153l 0.44993, -0.0015663l 0.44993, -0.00192108" fill="none" stroke="#ff0066" stroke-width="3"/>
<path d="M253.078,333.12l 0.44993, -0.00227585l 0.44993, -0.00263063l 0.44993, -0.0029854l 0.44993, -0.00334017l 0.44993, -0.00369495l 0.44993, -0.00404972l 0.44993, -0.0044045l 0.44993, -0.00475927l 0.44993, -0.00511405l 0.44993, -0.00546882l
 0.44993, -0.0058236l 0.44993, -0.00617837l 0.44993, -0.00653315l 0.44993, -0.00688792l 0.44993, -0.0072427l 0.44993, -0.00759747l 0.44993, -0.00795225l 0.44993, -0.00830702l 0.44993, -0.0086618l 0.44993, -0.00901657l 0.44993, -0.00937135l 0.44993,
 -0.00972612l 0.44993, -0.0100809l 0.44993, -0.0104357l 0.44993, -0.0107904l 0.44993, -0.0111452l 0.44993, -0.0115l 0.44993, -0.0118548l 0.44993, -0.0122095l 0.44993, -0.0125643l 0.44993, -0.0129191l 0.44993, -0.0132739l 0.44993, -0.0136286l 0.44993,
 -0.0139834l 0.44993, -0.0143382l 0.44993, -0.014693l 0.44993, -0.0150477l 0.44993, -0.0154025l 0.44993, -0.0157573l 0.44993, -0.0161121l 0.44993, -0.0164668l 0.44993, -0.0168216l 0.44993, -0.0171764l 0.44993, -0.0175312l 0.44993, -0.0178859l
 0.44993, -0.0182407l 0.44993, -0.0185955l 0.44993, -0.0189503l 0.44993, -0.019305" fill="none" stroke="#ff0066" stroke-width="3"/>
<path d="M275.124,332.592l 0.44993, -0.0196598l 0.44993, -0.0200146l 0.44993, -0.0203694l 0.44993, -0.0207241l 0.44993, -0.0210789l 0.44993, -0.0214337l 0.44993, -0.0217885l 0.44993, -0.0221432l 0.44993, -0.022498l 0.44993, -0.0228528l 0.44993,
 -0.0232076l 0.44993, -0.0235623l 0.44993, -0.0239171l 0.44993, -0.0242719l 0.44993, -0.0246267l 0.44993, -0.0249814l 0.44993, -0.0253362l 0.44993, -0.025691l 0.44993, -0.0260458l 0.44993, -0.0264005l 0.44993, -0.0267553l 0.44993, -0.0271101l
 0.44993, -0.0274649l 0.44993, -0.0278196l 0.44993, -0.0281744l 0.44993, -0.0285292l 0.44993, -0.028884l 0.44993, -0.0292387l 0.44993, -0.0295935l 0.44993, -0.0299483l 0.44993, -0.0303031l 0.44993, -0.0306578l 0.44993, -0.0310126l 0.44993,
 -0.0313674l 0.44993, -0.0317222l 0.44993, -0.0320769l 0.44993, -0.0324317l 0.44993, -0.0327865l 0.44993, -0.0331413l 0.44993, -0.033496l 0.44993, -0.0338508l 0.44993, -0.0342056l 0.44993, -0.0345604l 0.44993, -0.0349151l 0.44993, -0.0352699l
 0.44993, -0.0356247l 0.44993, -0.0359795l 0.44993, -0.0363342l 0.44993, -0.036689" fill="none" stroke="#ff0066" stroke-width="3"/>
<path d="M297.171,331.211l 0.44993, -0.0370438l 0.44993, -0.0373986l 0.44993, -0.0377533l 0.44993, -0.0381081l 0.44993, -0.0384629l 0.44993, -0.0388177l 0.44993, -0.0391724l 0.44993, -0.0395272l 0.44993, -0.039882l 0.44993, -0.0402368l 0.44993,
 -0.0405915l 0.44993, -0.0409463l 0.44993, -0.0413011l 0.44993, -0.0416559l 0.44993, -0.0420106l 0.44993, -0.0423654l 0.44993, -0.0427202l 0.44993, -0.043075l 0.44993, -0.0434297l 0.44993, -0.0437845l 0.44993, -0.0441393l 0.44993, -0.0444941l
 0.44993, -0.0448488l 0.44993, -0.0452036l 0.44993, -0.0455584l 0.44993, -0.0459132l 0.44993, -0.0462679l 0.44993, -0.0466227l 0.44993, -0.0469775l 0.44993, -0.0473323l 0.44993, -0.047687l 0.44993, -0.0480418l 0.44993, -0.0483966l 0.44993,
 -0.0487514l 0.44993, -0.0491061l 0.44993, -0.0494609l 0.44993, -0.0498157l 0.44993, -0.0501705l 0.44993, -0.0505252l 0.44993, -0.05088l 0.44993, -0.0512348l 0.44993, -0.0515896l 0.44993, -0.0519443l 0.44993, -0.0522991l 0.44993, -0.0526539l 0.44993,
 -0.0530087l 0.44993, -0.0533634l 0.44993, -0.0537182l 0.44993, -0.054073" fill="none" stroke="#ff0066" stroke-width="3"/>
<path d="M319.217,328.979l 0.44993, -0.0544278l 0.44993, -0.0547825l 0.44993, -0.0551373l 0.44993, -0.0554921l 0.44993, -0.0558469l 0.44993, -0.0562016l 0.44993, -0.0565564l 0.44993, -0.0569112l 0.44993, -0.057266l 0.44993, -0.0576207l 0.44993,
 -0.0579755l 0.44993, -0.0583303l 0.44993, -0.0586851l 0.44993, -0.0590398l 0.44993, -0.0593946l 0.44993, -0.0597494l 0.44993, -0.0601042l 0.44993, -0.0604589l 0.44993, -0.0608137l 0.44993, -0.0611685l 0.44993, -0.0615233l 0.44993, -0.061878l
 0.44993, -0.0622328l 0.44993, -0.0625876l 0.44993, -0.0629424l 0.44993, -0.0632971l 0.44993, -0.0636519l 0.44993, -0.0640067l 0.44993, -0.0643615l 0.44993, -0.0647162l 0.44993, -0.065071l 0.44993, -0.0654258l 0.44993, -0.0657806l 0.44993,
 -0.0661353l 0.44993, -0.0664901l 0.44993, -0.0668449l 0.44993, -0.0671997l 0.44993, -0.0675544l 0.44993, -0.0679092l 0.44993, -0.068264l 0.44993, -0.0686188l 0.44993, -0.0689735l 0.44993, -0.0693283l 0.44993, -0.0696831l 0.44993, -0.0700378l
 0.44993, -0.0703926l 0.44993, -0.0707474l 0.44993, -0.0711022l 0.44993, -0.071457" fill="none" stroke="#ff0066" stroke-width="3"/>
<path d="M341.264,325.895l 0.44993, -0.0718117l 0.44993, -0.0721665l 0.44993, -0.0725213l 0.44993, -0.0728761l 0.44993, -0.0732308l 0.44993, -0.0735856l 0.44993, -0.0739404l 0.44993, -0.0742951l 0.44993, -0.0746499l 0.44993, -0.0750047l 0.44993,
 -0.0753595l 0.44993, -0.0757142l 0.44993, -0.076069l 0.44993, -0.0764238l 0.44993, -0.0767786l 0.44993, -0.0771334l 0.44993, -0.0774881l 0.44993, -0.0778429l 0.44993, -0.0781977l 0.44993, -0.0785524l 0.44993, -0.0789072l 0.44993, -0.079262l 0.44993,
 -0.0796168l 0.44993, -0.0799715l 0.44993, -0.0803263l 0.44993, -0.0806811l 0.44993, -0.0810359l 0.44993, -0.0813906l 0.44993, -0.0817454l 0.44993, -0.0821002l 0.44993, -0.082455l 0.44993, -0.0828097l 0.44993, -0.0831645l 0.44993, -0.0835193l
 0.44993, -0.0838741l 0.44993, -0.0842288l 0.44993, -0.0845836l 0.44993, -0.0849384l 0.44993, -0.0852932l 0.44993, -0.0856479l 0.44993, -0.0860027l 0.44993, -0.0863575l 0.44993, -0.0867123l 0.44993, -0.087067l 0.44993, -0.0874218l 0.44993,
 -0.0877766l 0.44993, -0.0881314l 0.44993, -0.0884861l 0.44993, -0.0888409" fill="none" stroke="#ff0066" stroke-width="3"/>
<path d="M363.311,321.959l 0.44993, -0.0891957l 0.44993, -0.0895505l 0.44993, -0.0899052l 0.44993, -0.09026l 0.44993, -0.0906148l 0.44993, -0.0909696l 0.44993, -0.0913243l 0.44993, -0.0916791l 0.44993, -0.0920339l 0.44993, -0.0923887l 0.44993,
 -0.0927434l 0.44993, -0.0930982l 0.44993, -0.093453l 0.44993, -0.0938078l 0.44993, -0.0941625l 0.44993, -0.0945173l 0.44993, -0.0948721l 0.44993, -0.0952269l 0.44993, -0.0955816l 0.44993, -0.0959364l 0.44993, -0.0962912l 0.44993, -0.096646l 0.44993,
 -0.0970007l 0.44993, -0.0973555l 0.44993, -0.0977103l 0.44993, -0.0980651l 0.44993, -0.0984198l 0.44993, -0.0987746l 0.44993, -0.0991294l 0.44993, -0.0994842l 0.44993, -0.0998389l 0.44993, -0.100194l 0.44993, -0.100548l 0.44993, -0.100903l 0.44993,
 -0.101258l 0.44993, -0.101613l 0.44993, -0.101968l 0.44993, -0.102322l 0.44993, -0.102677l 0.44993, -0.103032l 0.44993, -0.103387l 0.44993, -0.103741l 0.44993, -0.104096l 0.44993, -0.104451l 0.44993, -0.104806l 0.44993, -0.105161l 0.44993,
 -0.105515l 0.44993, -0.10587l 0.44993, -0.106225" fill="none" stroke="#ff0066" stroke-width="3"/>
<path d="M385.357,317.171l 0.44993, -0.10658l 0.44993, -0.106934l 0.44993, -0.107289l 0.44993, -0.107644l 0.44993, -0.107999l 0.44993, -0.108354l 0.44993, -0.108708l 0.44993, -0.109063l 0.44993, -0.109418l 0.44993, -0.109773l 0.44993, -0.110127l
 0.44993, -0.110482l 0.44993, -0.110837l 0.44993, -0.111192l 0.44993, -0.111547l 0.44993, -0.111901l 0.44993, -0.112256l 0.44993, -0.112611l 0.44993, -0.112966l 0.44993, -0.11332l 0.44993, -0.113675l 0.44993, -0.11403l 0.44993, -0.114385l 0.44993,
 -0.114739l 0.44993, -0.115094l 0.44993, -0.115449l 0.44993, -0.115804l 0.44993, -0.116159l 0.44993, -0.116513l 0.44993, -0.116868l 0.44993, -0.117223l 0.44993, -0.117578l 0.44993, -0.117932l 0.44993, -0.118287l 0.44993, -0.118642l 0.44993,
 -0.118997l 0.44993, -0.119352l 0.44993, -0.119706l 0.44993, -0.120061l 0.44993, -0.120416l 0.44993, -0.120771l 0.44993, -0.121125l 0.44993, -0.12148l 0.44993, -0.121835l 0.44993, -0.12219l 0.44993, -0.122545l 0.44993, -0.122899l 0.44993, -0.123254l
 0.44993, -0.123609" fill="none" stroke="#ff0066" stroke-width="3"/>
<path d="M407.404,311.531l 0.44993, -0.123964l 0.44993, -0.124318l 0.44993, -0.124673l 0.44993, -0.125028l 0.44993, -0.125383l 0.44993, -0.125738l 0.44993, -0.126092l 0.44993, -0.126447l 0.44993, -0.126802l 0.44993, -0.127157l 0.44993, -0.127511l
 0.44993, -0.127866l 0.44993, -0.128221l 0.44993, -0.128576l 0.44993, -0.12893l 0.44993, -0.129285l 0.44993, -0.12964l 0.44993, -0.129995l 0.44993, -0.13035l 0.44993, -0.130704l 0.44993, -0.131059l 0.44993, -0.131414l 0.44993, -0.131769l 0.44993,
 -0.132123l 0.44993, -0.132478l 0.44993, -0.132833l 0.44993, -0.133188l 0.44993, -0.133543l 0.44993, -0.133897l 0.44993, -0.134252l 0.44993, -0.134607l 0.44993, -0.134962l 0.44993, -0.135316l 0.44993, -0.135671l 0.44993, -0.136026l 0.44993,
 -0.136381l 0.44993, -0.136736l 0.44993, -0.13709l 0.44993, -0.137445l 0.44993, -0.1378l 0.44993, -0.138155l 0.44993, -0.138509l 0.44993, -0.138864l 0.44993, -0.139219l 0.44993, -0.139574l 0.44993, -0.139929l 0.44993, -0.140283l 0.44993, -0.140638l
 0.44993, -0.140993" fill="none" stroke="#ff0066" stroke-width="3"/>
<path d="M429.45,305.04l 0.44993, -0.141348l 0.44993, -0.141702l 0.44993, -0.142057l 0.44993, -0.142412l 0.44993, -0.142767l 0.44993, -0.143121l 0.44993, -0.143476l 0.44993, -0.143831l 0.44993, -0.144186l 0.44993, -0.144541l 0.44993, -0.144895l
 0.44993, -0.14525l 0.44993, -0.145605l 0.44993, -0.14596l 0.44993, -0.146314l 0.44993, -0.146669l 0.44993, -0.147024l 0.44993, -0.147379l 0.44993, -0.147734l 0.44993, -0.148088l 0.44993, -0.148443l 0.44993, -0.148798l 0.44993, -0.149153l 0.44993,
 -0.149507l 0.44993, -0.149862l 0.44993, -0.150217l 0.44993, -0.150572l 0.44993, -0.150927l 0.44993, -0.151281l 0.44993, -0.151636l 0.44993, -0.151991l 0.44993, -0.152346l 0.44993, -0.1527l 0.44993, -0.153055l 0.44993, -0.15341l 0.44993, -0.153765l
 0.44993, -0.154119l 0.44993, -0.154474l 0.44993, -0.154829l 0.44993, -0.155184l 0.44993, -0.155539l 0.44993, -0.155893l 0.44993, -0.156248l 0.44993, -0.156603l 0.44993, -0.156958l 0.44993, -0.157312l 0.44993, -0.157667l 0.44993, -0.158022l 0.44993,
 -0.158377" fill="none" stroke="#ff0066" stroke-width="3"/>
<path d="M451.497,297.696l 0.44993, -0.158732l 0.44993, -0.159086l 0.44993, -0.159441l 0.44993, -0.159796l 0.44993, -0.160151l 0.44993, -0.160505l 0.44993, -0.16086l 0.44993, -0.161215l 0.44993, -0.16157l 0.44993, -0.161925l 0.44993, -0.162279l
 0.44993, -0.162634l 0.44993, -0.162989l 0.44993, -0.163344l 0.44993, -0.163698l 0.44993, -0.164053l 0.44993, -0.164408l 0.44993, -0.164763l 0.44993, -0.165118l 0.44993, -0.165472l 0.44993, -0.165827l 0.44993, -0.166182l 0.44993, -0.166537l 0.44993,
 -0.166891l 0.44993, -0.167246l 0.44993, -0.167601l 0.44993, -0.167956l 0.44993, -0.16831l 0.44993, -0.168665l 0.44993, -0.16902l 0.44993, -0.169375l 0.44993, -0.16973l 0.44993, -0.170084l 0.44993, -0.170439l 0.44993, -0.170794l 0.44993, -0.171149l
 0.44993, -0.171503l 0.44993, -0.171858l 0.44993, -0.172213l 0.44993, -0.172568l 0.44993, -0.172923l 0.44993, -0.173277l 0.44993, -0.173632l 0.44993, -0.173987l 0.44993, -0.174342l 0.44993, -0.174696l 0.44993, -0.175051l 0.44993, -0.175406l 0.44993,
 -0.175761" fill="none" stroke="#ff0066" stroke-width="3"/>
<path d="M473.543,289.501l 0.44993, -0.176116l 0.44993, -0.17647l 0.44993, -0.176825l 0.44993, -0.17718l 0.44993, -0.177535l 0.44993, -0.177889l 0.44993, -0.178244l 0.44993, -0.178599l 0.44993, -0.178954l 0.44993, -0.179309l 0.44993, -0.179663l
 0.44993, -0.180018l 0.44993, -0.180373l 0.44993, -0.180728l 0.44993, -0.181082l 0.44993, -0.181437l 0.44993, -0.181792l 0.44993, -0.182147l 0.44993, -0.182501l 0.44993, -0.182856l 0.44993, -0.183211l 0.44993, -0.183566l 0.44993, -0.183921l 0.44993,
 -0.184275l 0.44993, -0.18463l 0.44993, -0.184985l 0.44993, -0.18534l 0.44993, -0.185694l 0.44993, -0.186049l 0.44993, -0.186404l 0.44993, -0.186759l 0.44993, -0.187114l 0.44993, -0.187468l 0.44993, -0.187823l 0.44993, -0.188178l 0.44993, -0.188533l
 0.44993, -0.188887l 0.44993, -0.189242l 0.44993, -0.189597l 0.44993, -0.189952l 0.44993, -0.190307l 0.44993, -0.190661l 0.44993, -0.191016l 0.44993, -0.191371l 0.44993, -0.191726l 0.44993, -0.19208l 0.44993, -0.192435l 0.44993, -0.19279l 0.44993,
 -0.193145" fill="none" stroke="#ff0066" stroke-width="3"/>
<path d="M495.59,280.454l 0.44993, -0.1935l 0.44993, -0.193854l 0.44993, -0.194209l 0.44993, -0.194564l 0.44993, -0.194919l 0.44993, -0.195273l 0.44993, -0.195628l 0.44993, -0.195983l 0.44993, -0.196338l 0.44993, -0.196692l 0.44993, -0.197047l
 0.44993, -0.197402l 0.44993, -0.197757l 0.44993, -0.198112l 0.44993, -0.198466l 0.44993, -0.198821l 0.44993, -0.199176l 0.44993, -0.199531l 0.44993, -0.199885l 0.44993, -0.20024l 0.44993, -0.200595l 0.44993, -0.20095l 0.44993, -0.201305l 0.44993,
 -0.201659l 0.44993, -0.202014l 0.44993, -0.202369l 0.44993, -0.202724l 0.44993, -0.203078l 0.44993, -0.203433l 0.44993, -0.203788l 0.44993, -0.204143l 0.44993, -0.204498l 0.44993, -0.204852l 0.44993, -0.205207l 0.44993, -0.205562l 0.44993,
 -0.205917l 0.44993, -0.206271l 0.44993, -0.206626l 0.44993, -0.206981l 0.44993, -0.207336l 0.44993, -0.207691l 0.44993, -0.208045l 0.44993, -0.2084l 0.44993, -0.208755l 0.44993, -0.20911l 0.44993, -0.209464l 0.44993, -0.209819l 0.44993, -0.210174l
 0.44993, -0.210529" fill="none" stroke="#ff0066" stroke-width="3"/>
<path d="M517.636,270.556l 0.44993, -0.210883l 0.44993, -0.211238l 0.44993, -0.211593l 0.44993, -0.211948l 0.44993, -0.212303l 0.44993, -0.212657l 0.44993, -0.213012l 0.44993, -0.213367l 0.44993, -0.213722l 0.44993, -0.214076l 0.44993, -0.214431l
 0.44993, -0.214786l 0.44993, -0.215141l 0.44993, -0.215496l 0.44993, -0.21585l 0.44993, -0.216205l 0.44993, -0.21656l 0.44993, -0.216915l 0.44993, -0.217269l 0.44993, -0.217624l 0.44993, -0.217979l 0.44993, -0.218334l 0.44993, -0.218689l 0.44993,
 -0.219043l 0.44993, -0.219398l 0.44993, -0.219753l 0.44993, -0.220108l 0.44993, -0.220462l 0.44993, -0.220817l 0.44993, -0.221172l 0.44993, -0.221527l 0.44993, -0.221881l 0.44993, -0.222236l 0.44993, -0.222591l 0.44993, -0.222946l 0.44993,
 -0.223301l 0.44993, -0.223655l 0.44993, -0.22401l 0.44993, -0.224365l 0.44993, -0.22472l 0.44993, -0.225074l 0.44993, -0.225429l 0.44993, -0.225784l 0.44993, -0.226139l 0.44993, -0.226494l 0.44993, -0.226848l 0.44993, -0.227203l 0.44993, -0.227558l
 0.44993, -0.227913" fill="none" stroke="#ff0066" stroke-width="3"/>
<path d="M539.683,259.805l 0.44993, -0.228267l 0.44993, -0.228622l 0.44993, -0.228977l 0.44993, -0.229332l 0.44993, -0.229687l 0.44993, -0.230041l 0.44993, -0.230396l 0.44993, -0.230751l 0.44993, -0.231106l 0.44993, -0.23146l 0.44993, -0.231815l
 0.44993, -0.23217l 0.44993, -0.232525l 0.44993, -0.23288l 0.44993, -0.233234l 0.44993, -0.233589l 0.44993, -0.233944l 0.44993, -0.234299l 0.44993, -0.234653" fill="none" stroke="#ff0066" stroke-width="3"/>
<path d="M182.514,21.4167h 305.952" fill="none" stroke="#999999" stroke-width="7"/>
<text xml:space="preserve" x="360.607" y="50.7193" fill="black" font-size="16.0105" font-family="Helvetica"> with EMC</text>
<text xml:space="preserve" x="352.717" y="50.7193" fill="black" font-size="16.0105" font-family="Times">&#0947;</text>
<text xml:space="preserve" x="344.828" y="50.7193" fill="black" font-size="16.0105" font-family="Times">&#0947;</text>
<text xml:space="preserve" x="336.938" y="50.7193" fill="black" font-size="16.0105" font-family="Times">&#0947;</text>
<text xml:space="preserve" x="331.866" y="50.7193" fill="black" font-size="16.0105" font-family="Helvetica"> </text>
<text xml:space="preserve" x="316.65" y="50.7193" fill="black" font-size="16.0105" font-family="Times">&#8594;</text>
<text xml:space="preserve" x="311.578" y="50.7193" fill="black" font-size="16.0105" font-family="Helvetica"> </text>
<text xml:space="preserve" x="303.689" y="50.7193" fill="black" font-size="16.0105" font-family="Times">&#0947;</text>
<text xml:space="preserve" x="298.053" y="45.0838" fill="black" font-size="10.8403" font-family="Helvetica">0</text>
<text xml:space="preserve" x="289.6" y="50.7193" fill="black" font-size="16.0105" font-family="Times">&#0960;</text>
<text xml:space="preserve" x="284.528" y="50.7193" fill="black" font-size="16.0105" font-family="Helvetica"> </text>
<text xml:space="preserve" x="269.312" y="50.7193" fill="black" font-size="16.0105" font-family="Times">&#8594;</text>
<text xml:space="preserve" x="264.24" y="50.7193" fill="black" font-size="16.0105" font-family="Helvetica"> </text>
<text xml:space="preserve" x="252.969" y="50.7193" fill="black" font-size="16.0105" font-family="Times">&#0969;</text>
<text xml:space="preserve" x="128.989" y="50.7193" fill="black" font-size="16.0105" font-family="Helvetica"> = 13 TeV (EG1), </text>
<text xml:space="preserve" x="120.536" y="50.7193" fill="black" font-size="16.0105" font-family="Helvetica" font-style="oblique">s</text>
<path d="M114.9,41.7025l 1.69064, 9.58031" fill="none" stroke="black" stroke-width="2"/>
<path d="M116.591,51.2829l 2.25419, -14.0887" fill="none" stroke="black"/>
<path d="M118.845,37.1942h 10.1439" fill="none" stroke="black"/>
<text xml:space="preserve" x="89.5406" y="50.7193" fill="black" font-size="16.0105" font-family="Helvetica">pp </text>
<text xml:space="preserve" x="89.5406" y="85.6593" fill="black" font-size="16.0105" font-family="Helvetica">ALICE work in progress</text>
<text xml:space="preserve" x="205.068" y="120.599" fill="black" font-size="16.0105" font-family="Helvetica">) &lt; 8.0</text>
<text xml:space="preserve" x="196.051" y="120.599" fill="black" font-size="16.0105" font-family="Helvetica" font-style="oblique">c</text>
<text xml:space="preserve" x="145.895" y="120.599" fill="black" font-size="16.0105" font-family="Helvetica"> /(GeV/</text>
<text xml:space="preserve" x="139.133" y="128.489" fill="black" font-size="10.8403" font-family="Helvetica">T</text>
<text xml:space="preserve" x="129.552" y="120.599" fill="black" font-size="16.0105" font-family="Helvetica" font-style="oblique">p</text>
<text xml:space="preserve" x="124.481" y="120.599" fill="black" font-size="16.0105" font-family="Helvetica"> </text>
<text xml:space="preserve" x="116.027" y="120.599" fill="black" font-size="16.0105" font-family="Times">&#8804;</text>
<text xml:space="preserve" x="89.5406" y="120.599" fill="black" font-size="16.0105" font-family="Helvetica">6.0 </text>
<rect x="312.311" y="69.1755" width="198.425" height="113.448" fill="white"/>
<text xml:space="preserve" x="361.734" y="85.0957" fill="black" font-size="16.0105" font-family="Helvetica">ratio</text>
<path d="M319.752,80.5203h 34.7244" fill="none" stroke="black" stroke-width="2"/>
<g fill="black">
<circle cx="337.114" cy="80.5203" r="6.76257"/>
</g>
<text xml:space="preserve" x="361.734" y="108.201" fill="black" font-size="16.0105" font-family="Helvetica">peak range</text>
<path d="M319.752,103.21h 34.7244" fill="none" stroke="#333333" stroke-width="2"/>
<g stroke="#333333" stroke-width="2" fill="none">
<circle cx="337.114" cy="103.21" r="5.63548"/>
</g>
<text xml:space="preserve" x="361.734" y="130.743" fill="black" font-size="16.0105" font-family="Helvetica">background pol1</text>
<path d="M319.752,125.899h 34.7244" fill="none" stroke="#33cccc" stroke-width="3"/>
<text xml:space="preserve" x="361.734" y="153.285" fill="black" font-size="16.0105" font-family="Helvetica">background pol2</text>
<path d="M319.752,148.589h 34.7244" fill="none" stroke="#ff0066" stroke-width="3"/>
<text xml:space="preserve" x="361.734" y="175.827" fill="black" font-size="16.0105" font-family="Helvetica">param. range</text>
<path d="M319.752,171.279h 34.7244" fill="none" stroke="#999999" stroke-width="7"/></svg>
