<?xml version="1.0" standalone="no"?>
<svg width="567.429" height="553.904" viewBox="0 0 567.429 553.904" xmlns="http://www.w3.org/2000/svg" shape-rendering="crispEdges">
<title>
Data/EG1/OmegaRotPS/SameEventToBackgroundRatio_05.svg
</title>
<desc>
Creator: ROOT Version 6.20/08
CreationDate: Mon Mar 29 18:49:57 2021</desc>
<defs>
</defs>
<rect x="0.5" y="0" width="566.929" height="553.404" fill="white"/>
<rect x="68.5315" y="16.6021" width="484.724" height="481.461" fill="white"/>
<rect x="68.5315" y="16.6021" width="484.724" height="481.461" fill="none" stroke="black"/>
<rect x="68.5315" y="16.6021" width="484.724" height="481.461" fill="white"/>
<rect x="68.5315" y="16.6021" width="484.724" height="481.461" fill="none" stroke="black"/>
<g fill="black">
<circle cx="109.325" cy="497.788" r="6.76257"/>
</g>
<g fill="black">
<circle cx="114.124" cy="446.958" r="6.76257"/>
</g>
<g fill="black">
<circle cx="118.924" cy="304.951" r="6.76257"/>
</g>
<g fill="black">
<circle cx="123.723" cy="213.819" r="6.76257"/>
</g>
<g fill="black">
<circle cx="128.522" cy="197.15" r="6.76257"/>
</g>
<g fill="black">
<circle cx="133.321" cy="343.081" r="6.76257"/>
</g>
<g fill="black">
<circle cx="138.121" cy="322.909" r="6.76257"/>
</g>
<g fill="black">
<circle cx="142.92" cy="340.083" r="6.76257"/>
</g>
<g fill="black">
<circle cx="147.719" cy="349.181" r="6.76257"/>
</g>
<g fill="black">
<circle cx="152.518" cy="354.952" r="6.76257"/>
</g>
<g fill="black">
<circle cx="157.318" cy="362.772" r="6.76257"/>
</g>
<g fill="black">
<circle cx="162.117" cy="370.384" r="6.76257"/>
</g>
<g fill="black">
<circle cx="166.916" cy="376.368" r="6.76257"/>
</g>
<g fill="black">
<circle cx="171.715" cy="382.628" r="6.76257"/>
</g>
<g fill="black">
<circle cx="176.515" cy="386.127" r="6.76257"/>
</g>
<g fill="black">
<circle cx="181.314" cy="389.595" r="6.76257"/>
</g>
<g fill="black">
<circle cx="186.113" cy="391.292" r="6.76257"/>
</g>
<g fill="black">
<circle cx="190.912" cy="393.087" r="6.76257"/>
</g>
<g fill="black">
<circle cx="195.712" cy="394.413" r="6.76257"/>
</g>
<g fill="black">
<circle cx="200.511" cy="396.928" r="6.76257"/>
</g>
<g fill="black">
<circle cx="205.31" cy="397.173" r="6.76257"/>
</g>
<g fill="black">
<circle cx="210.109" cy="398.215" r="6.76257"/>
</g>
<g fill="black">
<circle cx="214.909" cy="398.613" r="6.76257"/>
</g>
<g fill="black">
<circle cx="219.708" cy="398.671" r="6.76257"/>
</g>
<g fill="black">
<circle cx="224.507" cy="398.148" r="6.76257"/>
</g>
<g fill="black">
<circle cx="229.306" cy="397.833" r="6.76257"/>
</g>
<g fill="black">
<circle cx="234.106" cy="396.554" r="6.76257"/>
</g>
<g fill="black">
<circle cx="238.905" cy="396.288" r="6.76257"/>
</g>
<g fill="black">
<circle cx="243.704" cy="395.066" r="6.76257"/>
</g>
<g fill="black">
<circle cx="248.503" cy="394.328" r="6.76257"/>
</g>
<g fill="black">
<circle cx="253.303" cy="393.956" r="6.76257"/>
</g>
<g fill="black">
<circle cx="258.102" cy="393.411" r="6.76257"/>
</g>
<g fill="black">
<circle cx="262.901" cy="393.352" r="6.76257"/>
</g>
<g fill="black">
<circle cx="267.7" cy="390.463" r="6.76257"/>
</g>
<g fill="black">
<circle cx="272.5" cy="390.788" r="6.76257"/>
</g>
<g fill="black">
<circle cx="277.299" cy="389.512" r="6.76257"/>
</g>
<g fill="black">
<circle cx="339.689" cy="374.98" r="6.76257"/>
</g>
<g fill="black">
<circle cx="344.488" cy="373.76" r="6.76257"/>
</g>
<g fill="black">
<circle cx="349.288" cy="374.437" r="6.76257"/>
</g>
<g fill="black">
<circle cx="354.087" cy="372.382" r="6.76257"/>
</g>
<g fill="black">
<circle cx="358.886" cy="371.763" r="6.76257"/>
</g>
<g fill="black">
<circle cx="363.685" cy="369.907" r="6.76257"/>
</g>
<g fill="black">
<circle cx="368.485" cy="368.51" r="6.76257"/>
</g>
<g fill="black">
<circle cx="373.284" cy="366.757" r="6.76257"/>
</g>
<g fill="black">
<circle cx="378.083" cy="364.987" r="6.76257"/>
</g>
<g fill="black">
<circle cx="382.882" cy="363.476" r="6.76257"/>
</g>
<g fill="black">
<circle cx="387.682" cy="363.451" r="6.76257"/>
</g>
<g fill="black">
<circle cx="392.481" cy="361.228" r="6.76257"/>
</g>
<g fill="black">
<circle cx="397.28" cy="359.088" r="6.76257"/>
</g>
<g fill="black">
<circle cx="402.079" cy="358.35" r="6.76257"/>
</g>
<g fill="black">
<circle cx="406.879" cy="355.29" r="6.76257"/>
</g>
<g fill="black">
<circle cx="411.678" cy="354.297" r="6.76257"/>
</g>
<g fill="black">
<circle cx="416.477" cy="352.873" r="6.76257"/>
</g>
<g fill="black">
<circle cx="421.276" cy="351.093" r="6.76257"/>
</g>
<g fill="black">
<circle cx="426.076" cy="351.239" r="6.76257"/>
</g>
<g fill="black">
<circle cx="430.875" cy="348.27" r="6.76257"/>
</g>
<g fill="black">
<circle cx="435.674" cy="347.799" r="6.76257"/>
</g>
<g fill="black">
<circle cx="440.473" cy="344.671" r="6.76257"/>
</g>
<g fill="black">
<circle cx="445.273" cy="344.834" r="6.76257"/>
</g>
<g fill="black">
<circle cx="450.072" cy="344.085" r="6.76257"/>
</g>
<g fill="black">
<circle cx="454.871" cy="342.357" r="6.76257"/>
</g>
<g fill="black">
<circle cx="459.671" cy="340.443" r="6.76257"/>
</g>
<g fill="black">
<circle cx="464.47" cy="339.021" r="6.76257"/>
</g>
<g fill="black">
<circle cx="469.269" cy="335.488" r="6.76257"/>
</g>
<g fill="black">
<circle cx="474.068" cy="335.937" r="6.76257"/>
</g>
<g fill="black">
<circle cx="478.867" cy="333.334" r="6.76257"/>
</g>
<g fill="black">
<circle cx="483.667" cy="329.77" r="6.76257"/>
</g>
<g fill="black">
<circle cx="488.466" cy="327.345" r="6.76257"/>
</g>
<g fill="black">
<circle cx="493.265" cy="326.403" r="6.76257"/>
</g>
<g fill="black">
<circle cx="498.065" cy="324.685" r="6.76257"/>
</g>
<g fill="black">
<circle cx="502.864" cy="324.799" r="6.76257"/>
</g>
<g fill="black">
<circle cx="507.663" cy="322.838" r="6.76257"/>
</g>
<g fill="black">
<circle cx="512.462" cy="318.967" r="6.76257"/>
</g>
<g fill="black">
<circle cx="517.262" cy="318.627" r="6.76257"/>
</g>
<g fill="black">
<circle cx="522.061" cy="313.817" r="6.76257"/>
</g>
<g fill="black">
<circle cx="526.86" cy="313.829" r="6.76257"/>
</g>
<g fill="black">
<circle cx="531.659" cy="307.999" r="6.76257"/>
</g>
<g fill="black">
<circle cx="536.458" cy="308.522" r="6.76257"/>
</g>
<g fill="black">
<circle cx="541.258" cy="307.486" r="6.76257"/>
</g>
<g fill="black">
<circle cx="546.057" cy="307.186" r="6.76257"/>
</g>
<path d="M68.5315,498.064h 484.724" fill="none" stroke="black"/>
<path d="M68.5315,483.869v 14.1948" fill="none" stroke="black"/>
<path d="M83.5292,490.966v 7.09741" fill="none" stroke="black"/>
<path d="M98.5268,490.966v 7.09741" fill="none" stroke="black"/>
<path d="M113.524,490.966v 7.09741" fill="none" stroke="black"/>
<path d="M128.522,483.869v 14.1948" fill="none" stroke="black"/>
<path d="M143.52,490.966v 7.09741" fill="none" stroke="black"/>
<path d="M158.517,490.966v 7.09741" fill="none" stroke="black"/>
<path d="M173.515,490.966v 7.09741" fill="none" stroke="black"/>
<path d="M188.513,483.869v 14.1948" fill="none" stroke="black"/>
<path d="M203.51,490.966v 7.09741" fill="none" stroke="black"/>
<path d="M218.508,490.966v 7.09741" fill="none" stroke="black"/>
<path d="M233.506,490.966v 7.09741" fill="none" stroke="black"/>
<path d="M248.503,483.869v 14.1948" fill="none" stroke="black"/>
<path d="M263.501,490.966v 7.09741" fill="none" stroke="black"/>
<path d="M278.499,490.966v 7.09741" fill="none" stroke="black"/>
<path d="M293.496,490.966v 7.09741" fill="none" stroke="black"/>
<path d="M308.494,483.869v 14.1948" fill="none" stroke="black"/>
<path d="M323.492,490.966v 7.09741" fill="none" stroke="black"/>
<path d="M338.489,490.966v 7.09741" fill="none" stroke="black"/>
<path d="M353.487,490.966v 7.09741" fill="none" stroke="black"/>
<path d="M368.485,483.869v 14.1948" fill="none" stroke="black"/>
<path d="M383.482,490.966v 7.09741" fill="none" stroke="black"/>
<path d="M398.48,490.966v 7.09741" fill="none" stroke="black"/>
<path d="M413.478,490.966v 7.09741" fill="none" stroke="black"/>
<path d="M428.475,483.869v 14.1948" fill="none" stroke="black"/>
<path d="M443.473,490.966v 7.09741" fill="none" stroke="black"/>
<path d="M458.471,490.966v 7.09741" fill="none" stroke="black"/>
<path d="M473.468,490.966v 7.09741" fill="none" stroke="black"/>
<path d="M488.466,483.869v 14.1948" fill="none" stroke="black"/>
<path d="M503.464,490.966v 7.09741" fill="none" stroke="black"/>
<path d="M518.461,490.966v 7.09741" fill="none" stroke="black"/>
<path d="M533.459,490.966v 7.09741" fill="none" stroke="black"/>
<path d="M548.457,483.869v 14.1948" fill="none" stroke="black"/>
<path d="M548.457,483.869v 14.1948" fill="none" stroke="black"/>
<text xml:space="preserve" x="63.6174" y="513.956" fill="black" font-size="16.0105" font-family="Helvetica">0</text>
<text xml:space="preserve" x="117.718" y="513.956" fill="black" font-size="16.0105" font-family="Helvetica">0.2</text>
<text xml:space="preserve" x="177.454" y="513.956" fill="black" font-size="16.0105" font-family="Helvetica">0.4</text>
<text xml:space="preserve" x="237.754" y="513.956" fill="black" font-size="16.0105" font-family="Helvetica">0.6</text>
<text xml:space="preserve" x="297.49" y="513.956" fill="black" font-size="16.0105" font-family="Helvetica">0.8</text>
<text xml:space="preserve" x="365.115" y="513.956" fill="black" font-size="16.0105" font-family="Helvetica">1</text>
<text xml:space="preserve" x="417.525" y="513.956" fill="black" font-size="16.0105" font-family="Helvetica">1.2</text>
<text xml:space="preserve" x="477.261" y="513.956" fill="black" font-size="16.0105" font-family="Helvetica">1.4</text>
<text xml:space="preserve" x="537.561" y="513.956" fill="black" font-size="16.0105" font-family="Helvetica">1.6</text>
<text xml:space="preserve" x="548.268" y="537.625" fill="black" font-size="16.0105" font-family="Helvetica">)</text>
<text xml:space="preserve" x="542.633" y="532.553" fill="black" font-size="10.8403" font-family="Helvetica">2</text>
<text xml:space="preserve" x="533.616" y="537.625" fill="black" font-size="16.0105" font-family="Helvetica" font-style="oblique">c</text>
<text xml:space="preserve" x="487.405" y="537.625" fill="black" font-size="16.0105" font-family="Helvetica"> (GeV/</text>
<text xml:space="preserve" x="473.317" y="542.697" fill="black" font-size="10.8403" font-family="Helvetica">inv</text>
<text xml:space="preserve" x="459.792" y="537.625" fill="black" font-size="16.0105" font-family="Helvetica" font-style="oblique">m</text>
<path d="M68.5315,16.6021h 484.724" fill="none" stroke="black"/>
<path d="M68.5315,30.7969v -14.1948" fill="none" stroke="black"/>
<path d="M83.5292,23.6995v -7.09741" fill="none" stroke="black"/>
<path d="M98.5268,23.6995v -7.09741" fill="none" stroke="black"/>
<path d="M113.524,23.6995v -7.09741" fill="none" stroke="black"/>
<path d="M128.522,30.7969v -14.1948" fill="none" stroke="black"/>
<path d="M143.52,23.6995v -7.09741" fill="none" stroke="black"/>
<path d="M158.517,23.6995v -7.09741" fill="none" stroke="black"/>
<path d="M173.515,23.6995v -7.09741" fill="none" stroke="black"/>
<path d="M188.513,30.7969v -14.1948" fill="none" stroke="black"/>
<path d="M203.51,23.6995v -7.09741" fill="none" stroke="black"/>
<path d="M218.508,23.6995v -7.09741" fill="none" stroke="black"/>
<path d="M233.506,23.6995v -7.09741" fill="none" stroke="black"/>
<path d="M248.503,30.7969v -14.1948" fill="none" stroke="black"/>
<path d="M263.501,23.6995v -7.09741" fill="none" stroke="black"/>
<path d="M278.499,23.6995v -7.09741" fill="none" stroke="black"/>
<path d="M293.496,23.6995v -7.09741" fill="none" stroke="black"/>
<path d="M308.494,30.7969v -14.1948" fill="none" stroke="black"/>
<path d="M323.492,23.6995v -7.09741" fill="none" stroke="black"/>
<path d="M338.489,23.6995v -7.09741" fill="none" stroke="black"/>
<path d="M353.487,23.6995v -7.09741" fill="none" stroke="black"/>
<path d="M368.485,30.7969v -14.1948" fill="none" stroke="black"/>
<path d="M383.482,23.6995v -7.09741" fill="none" stroke="black"/>
<path d="M398.48,23.6995v -7.09741" fill="none" stroke="black"/>
<path d="M413.478,23.6995v -7.09741" fill="none" stroke="black"/>
<path d="M428.475,30.7969v -14.1948" fill="none" stroke="black"/>
<path d="M443.473,23.6995v -7.09741" fill="none" stroke="black"/>
<path d="M458.471,23.6995v -7.09741" fill="none" stroke="black"/>
<path d="M473.468,23.6995v -7.09741" fill="none" stroke="black"/>
<path d="M488.466,30.7969v -14.1948" fill="none" stroke="black"/>
<path d="M503.464,23.6995v -7.09741" fill="none" stroke="black"/>
<path d="M518.461,23.6995v -7.09741" fill="none" stroke="black"/>
<path d="M533.459,23.6995v -7.09741" fill="none" stroke="black"/>
<path d="M548.457,30.7969v -14.1948" fill="none" stroke="black"/>
<path d="M548.457,30.7969v -14.1948" fill="none" stroke="black"/>
<path d="M68.5315,498.064v -481.461" fill="none" stroke="black"/>
<path d="M83.3283,498.064h -14.7969" fill="none" stroke="black"/>
<path d="M75.9299,483.11h -7.39843" fill="none" stroke="black"/>
<path d="M75.9299,468.156h -7.39843" fill="none" stroke="black"/>
<path d="M75.9299,453.202h -7.39843" fill="none" stroke="black"/>
<path d="M75.9299,438.248h -7.39843" fill="none" stroke="black"/>
<path d="M83.3283,423.294h -14.7969" fill="none" stroke="black"/>
<path d="M75.9299,408.34h -7.39843" fill="none" stroke="black"/>
<path d="M75.9299,393.386h -7.39843" fill="none" stroke="black"/>
<path d="M75.9299,378.433h -7.39843" fill="none" stroke="black"/>
<path d="M75.9299,363.479h -7.39843" fill="none" stroke="black"/>
<path d="M83.3283,348.525h -14.7969" fill="none" stroke="black"/>
<path d="M75.9299,333.571h -7.39843" fill="none" stroke="black"/>
<path d="M75.9299,318.617h -7.39843" fill="none" stroke="black"/>
<path d="M75.9299,303.663h -7.39843" fill="none" stroke="black"/>
<path d="M75.9299,288.709h -7.39843" fill="none" stroke="black"/>
<path d="M83.3283,273.755h -14.7969" fill="none" stroke="black"/>
<path d="M75.9299,258.802h -7.39843" fill="none" stroke="black"/>
<path d="M75.9299,243.848h -7.39843" fill="none" stroke="black"/>
<path d="M75.9299,228.894h -7.39843" fill="none" stroke="black"/>
<path d="M75.9299,213.94h -7.39843" fill="none" stroke="black"/>
<path d="M83.3283,198.986h -14.7969" fill="none" stroke="black"/>
<path d="M75.9299,184.032h -7.39843" fill="none" stroke="black"/>
<path d="M75.9299,169.078h -7.39843" fill="none" stroke="black"/>
<path d="M75.9299,154.124h -7.39843" fill="none" stroke="black"/>
<path d="M75.9299,139.171h -7.39843" fill="none" stroke="black"/>
<path d="M83.3283,124.217h -14.7969" fill="none" stroke="black"/>
<path d="M75.9299,109.263h -7.39843" fill="none" stroke="black"/>
<path d="M75.9299,94.309h -7.39843" fill="none" stroke="black"/>
<path d="M75.9299,79.3551h -7.39843" fill="none" stroke="black"/>
<path d="M75.9299,64.4012h -7.39843" fill="none" stroke="black"/>
<path d="M83.3283,49.4473h -14.7969" fill="none" stroke="black"/>
<path d="M83.3283,49.4473h -14.7969" fill="none" stroke="black"/>
<path d="M75.9299,34.4935h -7.39843" fill="none" stroke="black"/>
<path d="M75.9299,19.5396h -7.39843" fill="none" stroke="black"/>
<text xml:space="preserve" x="56.8548" y="503.248" fill="black" font-size="16.0105" font-family="Helvetica">0</text>
<text xml:space="preserve" x="43.8932" y="428.86" fill="black" font-size="16.0105" font-family="Helvetica">0.5</text>
<text xml:space="preserve" x="59.6725" y="354.472" fill="black" font-size="16.0105" font-family="Helvetica">1</text>
<text xml:space="preserve" x="43.8932" y="278.956" fill="black" font-size="16.0105" font-family="Helvetica">1.5</text>
<text xml:space="preserve" x="56.8548" y="205.131" fill="black" font-size="16.0105" font-family="Helvetica">2</text>
<text xml:space="preserve" x="43.8932" y="129.616" fill="black" font-size="16.0105" font-family="Helvetica">2.5</text>
<text xml:space="preserve" x="56.8548" y="54.6641" fill="black" font-size="16.0105" font-family="Helvetica">3</text>
<g transform="rotate(-90,38.2577,98.0573)">
<text xml:space="preserve" x="38.2577" y="98.0573" fill="black" font-size="16.0105" font-family="Helvetica">background</text>
</g>
<g transform="rotate(-90,21.9148,98.0573)">
<text xml:space="preserve" x="21.9148" y="98.0573" fill="black" font-size="16.0105" font-family="Helvetica">same event</text>
</g>
<path d="M24.169,98.0573l 0.563548, -81.7144" fill="none" stroke="black" stroke-width="2"/>
<path d="M553.256,498.064v -481.461" fill="none" stroke="black"/>
<path d="M538.459,498.064h 14.7969" fill="none" stroke="black"/>
<path d="M545.857,483.11h 7.39843" fill="none" stroke="black"/>
<path d="M545.857,468.156h 7.39843" fill="none" stroke="black"/>
<path d="M545.857,453.202h 7.39843" fill="none" stroke="black"/>
<path d="M545.857,438.248h 7.39843" fill="none" stroke="black"/>
<path d="M538.459,423.294h 14.7969" fill="none" stroke="black"/>
<path d="M545.857,408.34h 7.39843" fill="none" stroke="black"/>
<path d="M545.857,393.386h 7.39843" fill="none" stroke="black"/>
<path d="M545.857,378.433h 7.39843" fill="none" stroke="black"/>
<path d="M545.857,363.479h 7.39843" fill="none" stroke="black"/>
<path d="M538.459,348.525h 14.7969" fill="none" stroke="black"/>
<path d="M545.857,333.571h 7.39843" fill="none" stroke="black"/>
<path d="M545.857,318.617h 7.39843" fill="none" stroke="black"/>
<path d="M545.857,303.663h 7.39843" fill="none" stroke="black"/>
<path d="M545.857,288.709h 7.39843" fill="none" stroke="black"/>
<path d="M538.459,273.755h 14.7969" fill="none" stroke="black"/>
<path d="M545.857,258.802h 7.39843" fill="none" stroke="black"/>
<path d="M545.857,243.848h 7.39843" fill="none" stroke="black"/>
<path d="M545.857,228.894h 7.39843" fill="none" stroke="black"/>
<path d="M545.857,213.94h 7.39843" fill="none" stroke="black"/>
<path d="M538.459,198.986h 14.7969" fill="none" stroke="black"/>
<path d="M545.857,184.032h 7.39843" fill="none" stroke="black"/>
<path d="M545.857,169.078h 7.39843" fill="none" stroke="black"/>
<path d="M545.857,154.124h 7.39843" fill="none" stroke="black"/>
<path d="M545.857,139.171h 7.39843" fill="none" stroke="black"/>
<path d="M538.459,124.217h 14.7969" fill="none" stroke="black"/>
<path d="M545.857,109.263h 7.39843" fill="none" stroke="black"/>
<path d="M545.857,94.309h 7.39843" fill="none" stroke="black"/>
<path d="M545.857,79.3551h 7.39843" fill="none" stroke="black"/>
<path d="M545.857,64.4012h 7.39843" fill="none" stroke="black"/>
<path d="M538.459,49.4473h 14.7969" fill="none" stroke="black"/>
<path d="M538.459,49.4473h 14.7969" fill="none" stroke="black"/>
<path d="M545.857,34.4935h 7.39843" fill="none" stroke="black"/>
<path d="M545.857,19.5396h 7.39843" fill="none" stroke="black"/>
<g stroke="#333333" stroke-width="2" fill="none">
<circle cx="282.098" cy="388.627" r="5.63548"/>
</g>
<g stroke="#333333" stroke-width="2" fill="none">
<circle cx="286.897" cy="387.097" r="5.63548"/>
</g>
<g stroke="#333333" stroke-width="2" fill="none">
<circle cx="291.697" cy="386.044" r="5.63548"/>
</g>
<g stroke="#333333" stroke-width="2" fill="none">
<circle cx="296.496" cy="384.488" r="5.63548"/>
</g>
<g stroke="#333333" stroke-width="2" fill="none">
<circle cx="301.295" cy="383.323" r="5.63548"/>
</g>
<g stroke="#333333" stroke-width="2" fill="none">
<circle cx="306.094" cy="382.087" r="5.63548"/>
</g>
<g stroke="#333333" stroke-width="2" fill="none">
<circle cx="310.894" cy="381.583" r="5.63548"/>
</g>
<g stroke="#333333" stroke-width="2" fill="none">
<circle cx="315.693" cy="381.528" r="5.63548"/>
</g>
<g stroke="#333333" stroke-width="2" fill="none">
<circle cx="320.492" cy="379.574" r="5.63548"/>
</g>
<g stroke="#333333" stroke-width="2" fill="none">
<circle cx="325.291" cy="379.451" r="5.63548"/>
</g>
<g stroke="#333333" stroke-width="2" fill="none">
<circle cx="330.091" cy="377.884" r="5.63548"/>
</g>
<g stroke="#333333" stroke-width="2" fill="none">
<circle cx="334.89" cy="377.437" r="5.63548"/>
</g>
<path d="M128.732,427.222l 0.419935, -0.10681l 0.419935, -0.10681l 0.419935, -0.10681l 0.419935, -0.10681l 0.419935, -0.10681l 0.419935, -0.10681l 0.419935, -0.10681l 0.419935, -0.10681l 0.419935, -0.10681l 0.419935, -0.10681l 0.419935, -0.10681l
 0.419935, -0.10681l 0.419935, -0.10681l 0.419935, -0.10681l 0.419935, -0.10681l 0.419935, -0.10681l 0.419935, -0.10681l 0.419935, -0.10681l 0.419935, -0.10681l 0.419935, -0.10681l 0.419935, -0.10681l 0.419935, -0.10681l 0.419935, -0.10681l 0.419935,
 -0.10681l 0.419935, -0.10681l 0.419935, -0.10681l 0.419935, -0.10681l 0.419935, -0.10681l 0.419935, -0.10681l 0.419935, -0.10681l 0.419935, -0.10681l 0.419935, -0.10681l 0.419935, -0.10681l 0.419935, -0.10681l 0.419935, -0.10681l 0.419935, -0.10681l
 0.419935, -0.10681l 0.419935, -0.10681l 0.419935, -0.10681l 0.419935, -0.10681l 0.419935, -0.10681l 0.419935, -0.10681l 0.419935, -0.10681l 0.419935, -0.10681l 0.419935, -0.10681l 0.419935, -0.10681l 0.419935, -0.10681l 0.419935, -0.10681l 0.419935,
 -0.10681" fill="none" stroke="#33cccc" stroke-width="3"/>
<path d="M149.309,421.988l 0.419935, -0.10681l 0.419935, -0.10681l 0.419935, -0.10681l 0.419935, -0.10681l 0.419935, -0.10681l 0.419935, -0.10681l 0.419935, -0.10681l 0.419935, -0.10681l 0.419935, -0.10681l 0.419935, -0.10681l 0.419935, -0.10681l
 0.419935, -0.10681l 0.419935, -0.10681l 0.419935, -0.10681l 0.419935, -0.10681l 0.419935, -0.10681l 0.419935, -0.10681l 0.419935, -0.10681l 0.419935, -0.10681l 0.419935, -0.10681l 0.419935, -0.10681l 0.419935, -0.10681l 0.419935, -0.10681l 0.419935,
 -0.10681l 0.419935, -0.10681l 0.419935, -0.10681l 0.419935, -0.10681l 0.419935, -0.10681l 0.419935, -0.10681l 0.419935, -0.10681l 0.419935, -0.10681l 0.419935, -0.10681l 0.419935, -0.10681l 0.419935, -0.10681l 0.419935, -0.10681l 0.419935, -0.10681l
 0.419935, -0.10681l 0.419935, -0.10681l 0.419935, -0.10681l 0.419935, -0.10681l 0.419935, -0.10681l 0.419935, -0.10681l 0.419935, -0.10681l 0.419935, -0.10681l 0.419935, -0.10681l 0.419935, -0.10681l 0.419935, -0.10681l 0.419935, -0.10681l 0.419935,
 -0.10681" fill="none" stroke="#33cccc" stroke-width="3"/>
<path d="M169.886,416.755l 0.419935, -0.10681l 0.419935, -0.10681l 0.419935, -0.10681l 0.419935, -0.10681l 0.419935, -0.10681l 0.419935, -0.10681l 0.419935, -0.10681l 0.419935, -0.10681l 0.419935, -0.10681l 0.419935, -0.10681l 0.419935, -0.10681l
 0.419935, -0.10681l 0.419935, -0.10681l 0.419935, -0.10681l 0.419935, -0.10681l 0.419935, -0.10681l 0.419935, -0.10681l 0.419935, -0.10681l 0.419935, -0.10681l 0.419935, -0.10681l 0.419935, -0.10681l 0.419935, -0.10681l 0.419935, -0.10681l 0.419935,
 -0.10681l 0.419935, -0.10681l 0.419935, -0.10681l 0.419935, -0.10681l 0.419935, -0.10681l 0.419935, -0.10681l 0.419935, -0.10681l 0.419935, -0.10681l 0.419935, -0.10681l 0.419935, -0.10681l 0.419935, -0.10681l 0.419935, -0.10681l 0.419935, -0.10681l
 0.419935, -0.10681l 0.419935, -0.10681l 0.419935, -0.10681l 0.419935, -0.10681l 0.419935, -0.10681l 0.419935, -0.10681l 0.419935, -0.10681l 0.419935, -0.10681l 0.419935, -0.10681l 0.419935, -0.10681l 0.419935, -0.10681l 0.419935, -0.10681l 0.419935,
 -0.10681" fill="none" stroke="#33cccc" stroke-width="3"/>
<path d="M190.462,411.521l 0.419935, -0.10681l 0.419935, -0.10681l 0.419935, -0.10681l 0.419935, -0.10681l 0.419935, -0.10681l 0.419935, -0.10681l 0.419935, -0.10681l 0.419935, -0.10681l 0.419935, -0.10681l 0.419935, -0.10681l 0.419935, -0.10681l
 0.419935, -0.10681l 0.419935, -0.10681l 0.419935, -0.10681l 0.419935, -0.10681l 0.419935, -0.10681l 0.419935, -0.10681l 0.419935, -0.10681l 0.419935, -0.10681l 0.419935, -0.10681l 0.419935, -0.10681l 0.419935, -0.10681l 0.419935, -0.10681l 0.419935,
 -0.10681l 0.419935, -0.10681l 0.419935, -0.10681l 0.419935, -0.10681l 0.419935, -0.10681l 0.419935, -0.10681l 0.419935, -0.10681l 0.419935, -0.10681l 0.419935, -0.10681l 0.419935, -0.10681l 0.419935, -0.10681l 0.419935, -0.10681l 0.419935, -0.10681l
 0.419935, -0.10681l 0.419935, -0.10681l 0.419935, -0.10681l 0.419935, -0.10681l 0.419935, -0.10681l 0.419935, -0.10681l 0.419935, -0.10681l 0.419935, -0.10681l 0.419935, -0.10681l 0.419935, -0.10681l 0.419935, -0.10681l 0.419935, -0.10681l 0.419935,
 -0.10681" fill="none" stroke="#33cccc" stroke-width="3"/>
<path d="M211.039,406.287l 0.419935, -0.10681l 0.419935, -0.10681l 0.419935, -0.10681l 0.419935, -0.10681l 0.419935, -0.10681l 0.419935, -0.10681l 0.419935, -0.10681l 0.419935, -0.10681l 0.419935, -0.10681l 0.419935, -0.10681l 0.419935, -0.10681l
 0.419935, -0.10681l 0.419935, -0.10681l 0.419935, -0.10681l 0.419935, -0.10681l 0.419935, -0.10681l 0.419935, -0.10681l 0.419935, -0.10681l 0.419935, -0.10681l 0.419935, -0.10681l 0.419935, -0.10681l 0.419935, -0.10681l 0.419935, -0.10681l 0.419935,
 -0.10681l 0.419935, -0.10681l 0.419935, -0.10681l 0.419935, -0.10681l 0.419935, -0.10681l 0.419935, -0.10681l 0.419935, -0.10681l 0.419935, -0.10681l 0.419935, -0.10681l 0.419935, -0.10681l 0.419935, -0.10681l 0.419935, -0.10681l 0.419935, -0.10681l
 0.419935, -0.10681l 0.419935, -0.10681l 0.419935, -0.10681l 0.419935, -0.10681l 0.419935, -0.10681l 0.419935, -0.10681l 0.419935, -0.10681l 0.419935, -0.10681l 0.419935, -0.10681l 0.419935, -0.10681l 0.419935, -0.10681l 0.419935, -0.10681l 0.419935,
 -0.10681" fill="none" stroke="#33cccc" stroke-width="3"/>
<path d="M231.616,401.054l 0.419935, -0.10681l 0.419935, -0.10681l 0.419935, -0.10681l 0.419935, -0.10681l 0.419935, -0.10681l 0.419935, -0.10681l 0.419935, -0.10681l 0.419935, -0.10681l 0.419935, -0.10681l 0.419935, -0.10681l 0.419935, -0.10681l
 0.419935, -0.10681l 0.419935, -0.10681l 0.419935, -0.10681l 0.419935, -0.10681l 0.419935, -0.10681l 0.419935, -0.10681l 0.419935, -0.10681l 0.419935, -0.10681l 0.419935, -0.10681l 0.419935, -0.10681l 0.419935, -0.10681l 0.419935, -0.10681l 0.419935,
 -0.10681l 0.419935, -0.10681l 0.419935, -0.10681l 0.419935, -0.10681l 0.419935, -0.10681l 0.419935, -0.10681l 0.419935, -0.10681l 0.419935, -0.10681l 0.419935, -0.10681l 0.419935, -0.10681l 0.419935, -0.10681l 0.419935, -0.10681l 0.419935, -0.10681l
 0.419935, -0.10681l 0.419935, -0.10681l 0.419935, -0.10681l 0.419935, -0.10681l 0.419935, -0.10681l 0.419935, -0.10681l 0.419935, -0.10681l 0.419935, -0.10681l 0.419935, -0.10681l 0.419935, -0.10681l 0.419935, -0.10681l 0.419935, -0.10681l 0.419935,
 -0.10681" fill="none" stroke="#33cccc" stroke-width="3"/>
<path d="M252.193,395.82l 0.419935, -0.10681l 0.419935, -0.10681l 0.419935, -0.10681l 0.419935, -0.10681l 0.419935, -0.10681l 0.419935, -0.10681l 0.419935, -0.10681l 0.419935, -0.10681l 0.419935, -0.10681l 0.419935, -0.10681l 0.419935, -0.10681l
 0.419935, -0.10681l 0.419935, -0.10681l 0.419935, -0.10681l 0.419935, -0.10681l 0.419935, -0.10681l 0.419935, -0.10681l 0.419935, -0.10681l 0.419935, -0.10681l 0.419935, -0.10681l 0.419935, -0.10681l 0.419935, -0.10681l 0.419935, -0.10681l 0.419935,
 -0.10681l 0.419935, -0.10681l 0.419935, -0.10681l 0.419935, -0.10681l 0.419935, -0.10681l 0.419935, -0.10681l 0.419935, -0.10681l 0.419935, -0.10681l 0.419935, -0.10681l 0.419935, -0.10681l 0.419935, -0.10681l 0.419935, -0.10681l 0.419935, -0.10681l
 0.419935, -0.10681l 0.419935, -0.10681l 0.419935, -0.10681l 0.419935, -0.10681l 0.419935, -0.10681l 0.419935, -0.10681l 0.419935, -0.10681l 0.419935, -0.10681l 0.419935, -0.10681l 0.419935, -0.10681l 0.419935, -0.10681l 0.419935, -0.10681l 0.419935,
 -0.10681" fill="none" stroke="#33cccc" stroke-width="3"/>
<path d="M272.77,390.586l 0.419935, -0.10681l 0.419935, -0.10681l 0.419935, -0.10681l 0.419935, -0.10681l 0.419935, -0.10681l 0.419935, -0.10681l 0.419935, -0.10681l 0.419935, -0.10681l 0.419935, -0.10681l 0.419935, -0.10681l 0.419935, -0.10681l
 0.419935, -0.10681l 0.419935, -0.10681l 0.419935, -0.10681l 0.419935, -0.10681l 0.419935, -0.10681l 0.419935, -0.10681l 0.419935, -0.10681l 0.419935, -0.10681l 0.419935, -0.10681l 0.419935, -0.10681l 0.419935, -0.10681l 0.419935, -0.10681l 0.419935,
 -0.10681l 0.419935, -0.10681l 0.419935, -0.10681l 0.419935, -0.10681l 0.419935, -0.10681l 0.419935, -0.10681l 0.419935, -0.10681l 0.419935, -0.10681l 0.419935, -0.10681l 0.419935, -0.10681l 0.419935, -0.10681l 0.419935, -0.10681l 0.419935, -0.10681l
 0.419935, -0.10681l 0.419935, -0.10681l 0.419935, -0.10681l 0.419935, -0.10681l 0.419935, -0.10681l 0.419935, -0.10681l 0.419935, -0.10681l 0.419935, -0.10681l 0.419935, -0.10681l 0.419935, -0.10681l 0.419935, -0.10681l 0.419935, -0.10681l 0.419935,
 -0.10681" fill="none" stroke="#33cccc" stroke-width="3"/>
<path d="M293.346,385.353l 0.419935, -0.10681l 0.419935, -0.10681l 0.419935, -0.10681l 0.419935, -0.10681l 0.419935, -0.10681l 0.419935, -0.10681l 0.419935, -0.10681l 0.419935, -0.10681l 0.419935, -0.10681l 0.419935, -0.10681l 0.419935, -0.10681l
 0.419935, -0.10681l 0.419935, -0.10681l 0.419935, -0.10681l 0.419935, -0.10681l 0.419935, -0.10681l 0.419935, -0.10681l 0.419935, -0.10681l 0.419935, -0.10681l 0.419935, -0.10681l 0.419935, -0.10681l 0.419935, -0.10681l 0.419935, -0.10681l 0.419935,
 -0.10681l 0.419935, -0.10681l 0.419935, -0.10681l 0.419935, -0.10681l 0.419935, -0.10681l 0.419935, -0.10681l 0.419935, -0.10681l 0.419935, -0.10681l 0.419935, -0.10681l 0.419935, -0.10681l 0.419935, -0.10681l 0.419935, -0.10681l 0.419935, -0.10681l
 0.419935, -0.10681l 0.419935, -0.10681l 0.419935, -0.10681l 0.419935, -0.10681l 0.419935, -0.10681l 0.419935, -0.10681l 0.419935, -0.10681l 0.419935, -0.10681l 0.419935, -0.10681l 0.419935, -0.10681l 0.419935, -0.10681l 0.419935, -0.10681l 0.419935,
 -0.10681" fill="none" stroke="#33cccc" stroke-width="3"/>
<path d="M313.923,380.119l 0.419935, -0.10681l 0.419935, -0.10681l 0.419935, -0.10681l 0.419935, -0.10681l 0.419935, -0.10681l 0.419935, -0.10681l 0.419935, -0.10681l 0.419935, -0.10681l 0.419935, -0.10681l 0.419935, -0.10681l 0.419935, -0.10681l
 0.419935, -0.10681l 0.419935, -0.10681l 0.419935, -0.10681l 0.419935, -0.10681l 0.419935, -0.10681l 0.419935, -0.10681l 0.419935, -0.10681l 0.419935, -0.10681l 0.419935, -0.10681l 0.419935, -0.10681l 0.419935, -0.10681l 0.419935, -0.10681l 0.419935,
 -0.10681l 0.419935, -0.10681l 0.419935, -0.10681l 0.419935, -0.10681l 0.419935, -0.10681l 0.419935, -0.10681l 0.419935, -0.10681l 0.419935, -0.10681l 0.419935, -0.10681l 0.419935, -0.10681l 0.419935, -0.10681l 0.419935, -0.10681l 0.419935, -0.10681l
 0.419935, -0.10681l 0.419935, -0.10681l 0.419935, -0.10681l 0.419935, -0.10681l 0.419935, -0.10681l 0.419935, -0.10681l 0.419935, -0.10681l 0.419935, -0.10681l 0.419935, -0.10681l 0.419935, -0.10681l 0.419935, -0.10681l 0.419935, -0.10681l 0.419935,
 -0.10681" fill="none" stroke="#33cccc" stroke-width="3"/>
<path d="M334.5,374.885l 0.419935, -0.10681l 0.419935, -0.10681l 0.419935, -0.10681l 0.419935, -0.10681l 0.419935, -0.10681l 0.419935, -0.10681l 0.419935, -0.10681l 0.419935, -0.10681l 0.419935, -0.10681l 0.419935, -0.10681l 0.419935, -0.10681l
 0.419935, -0.10681l 0.419935, -0.10681l 0.419935, -0.10681l 0.419935, -0.10681l 0.419935, -0.10681l 0.419935, -0.10681l 0.419935, -0.10681l 0.419935, -0.10681l 0.419935, -0.10681l 0.419935, -0.10681l 0.419935, -0.10681l 0.419935, -0.10681l 0.419935,
 -0.10681l 0.419935, -0.10681l 0.419935, -0.10681l 0.419935, -0.10681l 0.419935, -0.10681l 0.419935, -0.10681l 0.419935, -0.10681l 0.419935, -0.10681l 0.419935, -0.10681l 0.419935, -0.10681l 0.419935, -0.10681l 0.419935, -0.10681l 0.419935, -0.10681l
 0.419935, -0.10681l 0.419935, -0.10681l 0.419935, -0.10681l 0.419935, -0.10681l 0.419935, -0.10681l 0.419935, -0.10681l 0.419935, -0.10681l 0.419935, -0.10681l 0.419935, -0.10681l 0.419935, -0.10681l 0.419935, -0.10681l 0.419935, -0.10681l 0.419935,
 -0.10681" fill="none" stroke="#33cccc" stroke-width="3"/>
<path d="M355.077,369.651l 0.419935, -0.10681l 0.419935, -0.10681l 0.419935, -0.10681l 0.419935, -0.10681l 0.419935, -0.10681l 0.419935, -0.10681l 0.419935, -0.10681l 0.419935, -0.10681l 0.419935, -0.10681l 0.419935, -0.10681l 0.419935, -0.10681l
 0.419935, -0.10681l 0.419935, -0.10681l 0.419935, -0.10681l 0.419935, -0.10681l 0.419935, -0.10681l 0.419935, -0.10681l 0.419935, -0.10681l 0.419935, -0.10681l 0.419935, -0.10681l 0.419935, -0.10681l 0.419935, -0.10681l 0.419935, -0.10681l 0.419935,
 -0.10681l 0.419935, -0.10681l 0.419935, -0.10681l 0.419935, -0.10681l 0.419935, -0.10681l 0.419935, -0.10681l 0.419935, -0.10681l 0.419935, -0.10681l 0.419935, -0.10681l 0.419935, -0.10681l 0.419935, -0.10681l 0.419935, -0.10681l 0.419935, -0.10681l
 0.419935, -0.10681l 0.419935, -0.10681l 0.419935, -0.10681l 0.419935, -0.10681l 0.419935, -0.10681l 0.419935, -0.10681l 0.419935, -0.10681l 0.419935, -0.10681l 0.419935, -0.10681l 0.419935, -0.10681l 0.419935, -0.10681l 0.419935, -0.10681l 0.419935,
 -0.10681" fill="none" stroke="#33cccc" stroke-width="3"/>
<path d="M375.654,364.418l 0.419935, -0.10681l 0.419935, -0.10681l 0.419935, -0.10681l 0.419935, -0.10681l 0.419935, -0.10681l 0.419935, -0.10681l 0.419935, -0.10681l 0.419935, -0.10681l 0.419935, -0.10681l 0.419935, -0.10681l 0.419935, -0.10681l
 0.419935, -0.10681l 0.419935, -0.10681l 0.419935, -0.10681l 0.419935, -0.10681l 0.419935, -0.10681l 0.419935, -0.10681l 0.419935, -0.10681l 0.419935, -0.10681l 0.419935, -0.10681l 0.419935, -0.10681l 0.419935, -0.10681l 0.419935, -0.10681l 0.419935,
 -0.10681l 0.419935, -0.10681l 0.419935, -0.10681l 0.419935, -0.10681l 0.419935, -0.10681l 0.419935, -0.10681l 0.419935, -0.10681l 0.419935, -0.10681l 0.419935, -0.10681l 0.419935, -0.10681l 0.419935, -0.10681l 0.419935, -0.10681l 0.419935, -0.10681l
 0.419935, -0.10681l 0.419935, -0.10681l 0.419935, -0.10681l 0.419935, -0.10681l 0.419935, -0.10681l 0.419935, -0.10681l 0.419935, -0.10681l 0.419935, -0.10681l 0.419935, -0.10681l 0.419935, -0.10681l 0.419935, -0.10681l 0.419935, -0.10681l 0.419935,
 -0.10681" fill="none" stroke="#33cccc" stroke-width="3"/>
<path d="M396.23,359.184l 0.419935, -0.10681l 0.419935, -0.10681l 0.419935, -0.10681l 0.419935, -0.10681l 0.419935, -0.10681l 0.419935, -0.10681l 0.419935, -0.10681l 0.419935, -0.10681l 0.419935, -0.10681l 0.419935, -0.10681l 0.419935, -0.10681l
 0.419935, -0.10681l 0.419935, -0.10681l 0.419935, -0.10681l 0.419935, -0.10681l 0.419935, -0.10681l 0.419935, -0.10681l 0.419935, -0.10681l 0.419935, -0.10681l 0.419935, -0.10681l 0.419935, -0.10681l 0.419935, -0.10681l 0.419935, -0.10681l 0.419935,
 -0.10681l 0.419935, -0.10681l 0.419935, -0.10681l 0.419935, -0.10681l 0.419935, -0.10681l 0.419935, -0.10681l 0.419935, -0.10681l 0.419935, -0.10681l 0.419935, -0.10681l 0.419935, -0.10681l 0.419935, -0.10681l 0.419935, -0.10681l 0.419935, -0.10681l
 0.419935, -0.10681l 0.419935, -0.10681l 0.419935, -0.10681l 0.419935, -0.10681l 0.419935, -0.10681l 0.419935, -0.10681l 0.419935, -0.10681l 0.419935, -0.10681l 0.419935, -0.10681l 0.419935, -0.10681l 0.419935, -0.10681l 0.419935, -0.10681l 0.419935,
 -0.10681" fill="none" stroke="#33cccc" stroke-width="3"/>
<path d="M416.807,353.95l 0.419935, -0.10681l 0.419935, -0.10681l 0.419935, -0.10681l 0.419935, -0.10681l 0.419935, -0.10681l 0.419935, -0.10681l 0.419935, -0.10681l 0.419935, -0.10681l 0.419935, -0.10681l 0.419935, -0.10681l 0.419935, -0.10681l
 0.419935, -0.10681l 0.419935, -0.10681l 0.419935, -0.10681l 0.419935, -0.10681l 0.419935, -0.10681l 0.419935, -0.10681l 0.419935, -0.10681l 0.419935, -0.10681l 0.419935, -0.10681l 0.419935, -0.10681l 0.419935, -0.10681l 0.419935, -0.10681l 0.419935,
 -0.10681l 0.419935, -0.10681l 0.419935, -0.10681l 0.419935, -0.10681l 0.419935, -0.10681l 0.419935, -0.10681l 0.419935, -0.10681l 0.419935, -0.10681l 0.419935, -0.10681l 0.419935, -0.10681l 0.419935, -0.10681l 0.419935, -0.10681l 0.419935, -0.10681l
 0.419935, -0.10681l 0.419935, -0.10681l 0.419935, -0.10681l 0.419935, -0.10681l 0.419935, -0.10681l 0.419935, -0.10681l 0.419935, -0.10681l 0.419935, -0.10681l 0.419935, -0.10681l 0.419935, -0.10681l 0.419935, -0.10681l 0.419935, -0.10681l 0.419935,
 -0.10681" fill="none" stroke="#33cccc" stroke-width="3"/>
<path d="M437.384,348.717l 0.419935, -0.10681l 0.419935, -0.10681l 0.419935, -0.10681l 0.419935, -0.10681l 0.419935, -0.10681l 0.419935, -0.10681l 0.419935, -0.10681l 0.419935, -0.10681l 0.419935, -0.10681l 0.419935, -0.10681l 0.419935, -0.10681l
 0.419935, -0.10681l 0.419935, -0.10681l 0.419935, -0.10681l 0.419935, -0.10681l 0.419935, -0.10681l 0.419935, -0.10681l 0.419935, -0.10681l 0.419935, -0.10681l 0.419935, -0.10681l 0.419935, -0.10681l 0.419935, -0.10681l 0.419935, -0.10681l 0.419935,
 -0.10681l 0.419935, -0.10681l 0.419935, -0.10681l 0.419935, -0.10681l 0.419935, -0.10681l 0.419935, -0.10681l 0.419935, -0.10681l 0.419935, -0.10681l 0.419935, -0.10681l 0.419935, -0.10681l 0.419935, -0.10681l 0.419935, -0.10681l 0.419935, -0.10681l
 0.419935, -0.10681l 0.419935, -0.10681l 0.419935, -0.10681l 0.419935, -0.10681l 0.419935, -0.10681l 0.419935, -0.10681l 0.419935, -0.10681l 0.419935, -0.10681l 0.419935, -0.10681l 0.419935, -0.10681l 0.419935, -0.10681l 0.419935, -0.10681l 0.419935,
 -0.10681" fill="none" stroke="#33cccc" stroke-width="3"/>
<path d="M457.961,343.483l 0.419935, -0.10681l 0.419935, -0.10681l 0.419935, -0.10681l 0.419935, -0.10681l 0.419935, -0.10681l 0.419935, -0.10681l 0.419935, -0.10681l 0.419935, -0.10681l 0.419935, -0.10681l 0.419935, -0.10681l 0.419935, -0.10681l
 0.419935, -0.10681l 0.419935, -0.10681l 0.419935, -0.10681l 0.419935, -0.10681l 0.419935, -0.10681l 0.419935, -0.10681l 0.419935, -0.10681l 0.419935, -0.10681l 0.419935, -0.10681l 0.419935, -0.10681l 0.419935, -0.10681l 0.419935, -0.10681l 0.419935,
 -0.10681l 0.419935, -0.10681l 0.419935, -0.10681l 0.419935, -0.10681l 0.419935, -0.10681l 0.419935, -0.10681l 0.419935, -0.10681l 0.419935, -0.10681l 0.419935, -0.10681l 0.419935, -0.10681l 0.419935, -0.10681l 0.419935, -0.10681l 0.419935, -0.10681l
 0.419935, -0.10681l 0.419935, -0.10681l 0.419935, -0.10681l 0.419935, -0.10681l 0.419935, -0.10681l 0.419935, -0.10681l 0.419935, -0.10681l 0.419935, -0.10681l 0.419935, -0.10681l 0.419935, -0.10681l 0.419935, -0.10681l 0.419935, -0.10681l 0.419935,
 -0.10681" fill="none" stroke="#33cccc" stroke-width="3"/>
<path d="M478.538,338.249l 0.419935, -0.10681l 0.419935, -0.10681l 0.419935, -0.10681l 0.419935, -0.10681l 0.419935, -0.10681l 0.419935, -0.10681l 0.419935, -0.10681l 0.419935, -0.10681l 0.419935, -0.10681l 0.419935, -0.10681l 0.419935, -0.10681l
 0.419935, -0.10681l 0.419935, -0.10681l 0.419935, -0.10681l 0.419935, -0.10681l 0.419935, -0.10681l 0.419935, -0.10681l 0.419935, -0.10681l 0.419935, -0.10681l 0.419935, -0.10681l 0.419935, -0.10681l 0.419935, -0.10681l 0.419935, -0.10681l 0.419935,
 -0.10681l 0.419935, -0.10681l 0.419935, -0.10681l 0.419935, -0.10681l 0.419935, -0.10681l 0.419935, -0.10681l 0.419935, -0.10681l 0.419935, -0.10681l 0.419935, -0.10681l 0.419935, -0.10681l 0.419935, -0.10681l 0.419935, -0.10681l 0.419935, -0.10681l
 0.419935, -0.10681l 0.419935, -0.10681l 0.419935, -0.10681l 0.419935, -0.10681l 0.419935, -0.10681l 0.419935, -0.10681l 0.419935, -0.10681l 0.419935, -0.10681l 0.419935, -0.10681l 0.419935, -0.10681l 0.419935, -0.10681l 0.419935, -0.10681l 0.419935,
 -0.10681" fill="none" stroke="#33cccc" stroke-width="3"/>
<path d="M499.114,333.016l 0.419935, -0.10681l 0.419935, -0.10681l 0.419935, -0.10681l 0.419935, -0.10681l 0.419935, -0.10681l 0.419935, -0.10681l 0.419935, -0.10681l 0.419935, -0.10681l 0.419935, -0.10681l 0.419935, -0.10681l 0.419935, -0.10681l
 0.419935, -0.10681l 0.419935, -0.10681l 0.419935, -0.10681l 0.419935, -0.10681l 0.419935, -0.10681l 0.419935, -0.10681l 0.419935, -0.10681l 0.419935, -0.10681l 0.419935, -0.10681l 0.419935, -0.10681l 0.419935, -0.10681l 0.419935, -0.10681l 0.419935,
 -0.10681l 0.419935, -0.10681l 0.419935, -0.10681l 0.419935, -0.10681l 0.419935, -0.10681l 0.419935, -0.10681l 0.419935, -0.10681l 0.419935, -0.10681l 0.419935, -0.10681l 0.419935, -0.10681l 0.419935, -0.10681l 0.419935, -0.10681l 0.419935, -0.10681l
 0.419935, -0.10681l 0.419935, -0.10681l 0.419935, -0.10681l 0.419935, -0.10681l 0.419935, -0.10681l 0.419935, -0.10681l 0.419935, -0.10681l 0.419935, -0.10681l 0.419935, -0.10681l 0.419935, -0.10681l 0.419935, -0.10681l 0.419935, -0.10681l 0.419935,
 -0.10681" fill="none" stroke="#33cccc" stroke-width="3"/>
<path d="M519.691,327.782l 0.419935, -0.10681l 0.419935, -0.10681l 0.419935, -0.10681l 0.419935, -0.10681l 0.419935, -0.10681l 0.419935, -0.10681l 0.419935, -0.10681l 0.419935, -0.10681l 0.419935, -0.10681l 0.419935, -0.10681l 0.419935, -0.10681l
 0.419935, -0.10681l 0.419935, -0.10681l 0.419935, -0.10681l 0.419935, -0.10681l 0.419935, -0.10681l 0.419935, -0.10681l 0.419935, -0.10681l 0.419935, -0.10681l 0.419935, -0.10681l 0.419935, -0.10681l 0.419935, -0.10681l 0.419935, -0.10681l 0.419935,
 -0.10681l 0.419935, -0.10681l 0.419935, -0.10681l 0.419935, -0.10681l 0.419935, -0.10681l 0.419935, -0.10681l 0.419935, -0.10681l 0.419935, -0.10681l 0.419935, -0.10681l 0.419935, -0.10681l 0.419935, -0.10681l 0.419935, -0.10681l 0.419935, -0.10681l
 0.419935, -0.10681l 0.419935, -0.10681l 0.419935, -0.10681l 0.419935, -0.10681l 0.419935, -0.10681l 0.419935, -0.10681l 0.419935, -0.10681l 0.419935, -0.10681l 0.419935, -0.10681l 0.419935, -0.10681l 0.419935, -0.10681l 0.419935, -0.10681l 0.419935,
 -0.10681" fill="none" stroke="#33cccc" stroke-width="3"/>
<path d="M540.268,322.548l 0.419935, -0.10681l 0.419935, -0.10681l 0.419935, -0.10681l 0.419935, -0.10681l 0.419935, -0.10681l 0.419935, -0.10681l 0.419935, -0.10681l 0.419935, -0.10681l 0.419935, -0.10681l 0.419935, -0.10681l 0.419935, -0.10681l
 0.419935, -0.10681l 0.419935, -0.10681l 0.419935, -0.10681l 0.419935, -0.10681l 0.419935, -0.10681l 0.419935, -0.10681l 0.419935, -0.10681l 0.419935, -0.10681" fill="none" stroke="#33cccc" stroke-width="3"/>
<path d="M128.732,406.645l 0.419935, -0.0160763l 0.419935, -0.016257l 0.419935, -0.0164377l 0.419935, -0.0166184l 0.419935, -0.016799l 0.419935, -0.0169797l 0.419935, -0.0171604l 0.419935, -0.017341l 0.419935, -0.0175217l 0.419935, -0.0177024l
 0.419935, -0.017883l 0.419935, -0.0180637l 0.419935, -0.0182444l 0.419935, -0.018425l 0.419935, -0.0186057l 0.419935, -0.0187864l 0.419935, -0.018967l 0.419935, -0.0191477l 0.419935, -0.0193284l 0.419935, -0.019509l 0.419935, -0.0196897l 0.419935,
 -0.0198704l 0.419935, -0.0200511l 0.419935, -0.0202317l 0.419935, -0.0204124l 0.419935, -0.0205931l 0.419935, -0.0207737l 0.419935, -0.0209544l 0.419935, -0.0211351l 0.419935, -0.0213157l 0.419935, -0.0214964l 0.419935, -0.0216771l 0.419935,
 -0.0218577l 0.419935, -0.0220384l 0.419935, -0.0222191l 0.419935, -0.0223997l 0.419935, -0.0225804l 0.419935, -0.0227611l 0.419935, -0.0229417l 0.419935, -0.0231224l 0.419935, -0.0233031l 0.419935, -0.0234837l 0.419935, -0.0236644l 0.419935,
 -0.0238451l 0.419935, -0.0240258l 0.419935, -0.0242064l 0.419935, -0.0243871l 0.419935, -0.0245678l 0.419935, -0.0247484" fill="none" stroke="#ff0066" stroke-width="3"/>
<path d="M149.309,405.645l 0.419935, -0.0249291l 0.419935, -0.0251098l 0.419935, -0.0252904l 0.419935, -0.0254711l 0.419935, -0.0256518l 0.419935, -0.0258324l 0.419935, -0.0260131l 0.419935, -0.0261938l 0.419935, -0.0263744l 0.419935, -0.0265551l
 0.419935, -0.0267358l 0.419935, -0.0269164l 0.419935, -0.0270971l 0.419935, -0.0272778l 0.419935, -0.0274585l 0.419935, -0.0276391l 0.419935, -0.0278198l 0.419935, -0.0280005l 0.419935, -0.0281811l 0.419935, -0.0283618l 0.419935, -0.0285425l
 0.419935, -0.0287231l 0.419935, -0.0289038l 0.419935, -0.0290845l 0.419935, -0.0292651l 0.419935, -0.0294458l 0.419935, -0.0296265l 0.419935, -0.0298071l 0.419935, -0.0299878l 0.419935, -0.0301685l 0.419935, -0.0303491l 0.419935, -0.0305298l
 0.419935, -0.0307105l 0.419935, -0.0308912l 0.419935, -0.0310718l 0.419935, -0.0312525l 0.419935, -0.0314332l 0.419935, -0.0316138l 0.419935, -0.0317945l 0.419935, -0.0319752l 0.419935, -0.0321558l 0.419935, -0.0323365l 0.419935, -0.0325172l
 0.419935, -0.0326978l 0.419935, -0.0328785l 0.419935, -0.0330592l 0.419935, -0.0332398l 0.419935, -0.0334205l 0.419935, -0.0336012" fill="none" stroke="#ff0066" stroke-width="3"/>
<path d="M169.886,404.211l 0.419935, -0.0337818l 0.419935, -0.0339625l 0.419935, -0.0341432l 0.419935, -0.0343238l 0.419935, -0.0345045l 0.419935, -0.0346852l 0.419935, -0.0348659l 0.419935, -0.0350465l 0.419935, -0.0352272l 0.419935, -0.0354079l
 0.419935, -0.0355885l 0.419935, -0.0357692l 0.419935, -0.0359499l 0.419935, -0.0361305l 0.419935, -0.0363112l 0.419935, -0.0364919l 0.419935, -0.0366725l 0.419935, -0.0368532l 0.419935, -0.0370339l 0.419935, -0.0372145l 0.419935, -0.0373952l
 0.419935, -0.0375759l 0.419935, -0.0377565l 0.419935, -0.0379372l 0.419935, -0.0381179l 0.419935, -0.0382986l 0.419935, -0.0384792l 0.419935, -0.0386599l 0.419935, -0.0388406l 0.419935, -0.0390212l 0.419935, -0.0392019l 0.419935, -0.0393826l
 0.419935, -0.0395632l 0.419935, -0.0397439l 0.419935, -0.0399246l 0.419935, -0.0401052l 0.419935, -0.0402859l 0.419935, -0.0404666l 0.419935, -0.0406472l 0.419935, -0.0408279l 0.419935, -0.0410086l 0.419935, -0.0411892l 0.419935, -0.0413699l
 0.419935, -0.0415506l 0.419935, -0.0417312l 0.419935, -0.0419119l 0.419935, -0.0420926l 0.419935, -0.0422733l 0.419935, -0.0424539" fill="none" stroke="#ff0066" stroke-width="3"/>
<path d="M190.462,402.343l 0.419935, -0.0426346l 0.419935, -0.0428153l 0.419935, -0.0429959l 0.419935, -0.0431766l 0.419935, -0.0433573l 0.419935, -0.0435379l 0.419935, -0.0437186l 0.419935, -0.0438993l 0.419935, -0.0440799l 0.419935, -0.0442606l
 0.419935, -0.0444413l 0.419935, -0.0446219l 0.419935, -0.0448026l 0.419935, -0.0449833l 0.419935, -0.0451639l 0.419935, -0.0453446l 0.419935, -0.0455253l 0.419935, -0.045706l 0.419935, -0.0458866l 0.419935, -0.0460673l 0.419935, -0.046248l 0.419935,
 -0.0464286l 0.419935, -0.0466093l 0.419935, -0.04679l 0.419935, -0.0469706l 0.419935, -0.0471513l 0.419935, -0.047332l 0.419935, -0.0475126l 0.419935, -0.0476933l 0.419935, -0.047874l 0.419935, -0.0480546l 0.419935, -0.0482353l 0.419935, -0.048416l
 0.419935, -0.0485966l 0.419935, -0.0487773l 0.419935, -0.048958l 0.419935, -0.0491387l 0.419935, -0.0493193l 0.419935, -0.0495l 0.419935, -0.0496807l 0.419935, -0.0498613l 0.419935, -0.050042l 0.419935, -0.0502227l 0.419935, -0.0504033l 0.419935,
 -0.050584l 0.419935, -0.0507647l 0.419935, -0.0509453l 0.419935, -0.051126l 0.419935, -0.0513067" fill="none" stroke="#ff0066" stroke-width="3"/>
<path d="M211.039,400.041l 0.419935, -0.0514873l 0.419935, -0.051668l 0.419935, -0.0518487l 0.419935, -0.0520293l 0.419935, -0.05221l 0.419935, -0.0523907l 0.419935, -0.0525713l 0.419935, -0.052752l 0.419935, -0.0529327l 0.419935, -0.0531134l
 0.419935, -0.053294l 0.419935, -0.0534747l 0.419935, -0.0536554l 0.419935, -0.053836l 0.419935, -0.0540167l 0.419935, -0.0541974l 0.419935, -0.054378l 0.419935, -0.0545587l 0.419935, -0.0547394l 0.419935, -0.05492l 0.419935, -0.0551007l 0.419935,
 -0.0552814l 0.419935, -0.055462l 0.419935, -0.0556427l 0.419935, -0.0558234l 0.419935, -0.056004l 0.419935, -0.0561847l 0.419935, -0.0563654l 0.419935, -0.0565461l 0.419935, -0.0567267l 0.419935, -0.0569074l 0.419935, -0.0570881l 0.419935,
 -0.0572687l 0.419935, -0.0574494l 0.419935, -0.0576301l 0.419935, -0.0578107l 0.419935, -0.0579914l 0.419935, -0.0581721l 0.419935, -0.0583527l 0.419935, -0.0585334l 0.419935, -0.0587141l 0.419935, -0.0588947l 0.419935, -0.0590754l 0.419935,
 -0.0592561l 0.419935, -0.0594367l 0.419935, -0.0596174l 0.419935, -0.0597981l 0.419935, -0.0599787l 0.419935, -0.0601594" fill="none" stroke="#ff0066" stroke-width="3"/>
<path d="M231.616,397.306l 0.419935, -0.0603401l 0.419935, -0.0605208l 0.419935, -0.0607014l 0.419935, -0.0608821l 0.419935, -0.0610628l 0.419935, -0.0612434l 0.419935, -0.0614241l 0.419935, -0.0616048l 0.419935, -0.0617854l 0.419935, -0.0619661l
 0.419935, -0.0621468l 0.419935, -0.0623274l 0.419935, -0.0625081l 0.419935, -0.0626888l 0.419935, -0.0628694l 0.419935, -0.0630501l 0.419935, -0.0632308l 0.419935, -0.0634114l 0.419935, -0.0635921l 0.419935, -0.0637728l 0.419935, -0.0639535l
 0.419935, -0.0641341l 0.419935, -0.0643148l 0.419935, -0.0644955l 0.419935, -0.0646761l 0.419935, -0.0648568l 0.419935, -0.0650375l 0.419935, -0.0652181l 0.419935, -0.0653988l 0.419935, -0.0655795l 0.419935, -0.0657601l 0.419935, -0.0659408l
 0.419935, -0.0661215l 0.419935, -0.0663021l 0.419935, -0.0664828l 0.419935, -0.0666635l 0.419935, -0.0668441l 0.419935, -0.0670248l 0.419935, -0.0672055l 0.419935, -0.0673862l 0.419935, -0.0675668l 0.419935, -0.0677475l 0.419935, -0.0679282l
 0.419935, -0.0681088l 0.419935, -0.0682895l 0.419935, -0.0684702l 0.419935, -0.0686508l 0.419935, -0.0688315l 0.419935, -0.0690122" fill="none" stroke="#ff0066" stroke-width="3"/>
<path d="M252.193,394.137l 0.419935, -0.0691928l 0.419935, -0.0693735l 0.419935, -0.0695542l 0.419935, -0.0697348l 0.419935, -0.0699155l 0.419935, -0.0700962l 0.419935, -0.0702768l 0.419935, -0.0704575l 0.419935, -0.0706382l 0.419935, -0.0708188l
 0.419935, -0.0709995l 0.419935, -0.0711802l 0.419935, -0.0713608l 0.419935, -0.0715415l 0.419935, -0.0717222l 0.419935, -0.0719029l 0.419935, -0.0720835l 0.419935, -0.0722642l 0.419935, -0.0724449l 0.419935, -0.0726255l 0.419935, -0.0728062l
 0.419935, -0.0729869l 0.419935, -0.0731675l 0.419935, -0.0733482l 0.419935, -0.0735289l 0.419935, -0.0737095l 0.419935, -0.0738902l 0.419935, -0.0740709l 0.419935, -0.0742515l 0.419935, -0.0744322l 0.419935, -0.0746129l 0.419935, -0.0747935l
 0.419935, -0.0749742l 0.419935, -0.0751549l 0.419935, -0.0753356l 0.419935, -0.0755162l 0.419935, -0.0756969l 0.419935, -0.0758776l 0.419935, -0.0760582l 0.419935, -0.0762389l 0.419935, -0.0764196l 0.419935, -0.0766002l 0.419935, -0.0767809l
 0.419935, -0.0769616l 0.419935, -0.0771422l 0.419935, -0.0773229l 0.419935, -0.0775036l 0.419935, -0.0776842l 0.419935, -0.0778649" fill="none" stroke="#ff0066" stroke-width="3"/>
<path d="M272.77,390.534l 0.419935, -0.0780456l 0.419935, -0.0782262l 0.419935, -0.0784069l 0.419935, -0.0785876l 0.419935, -0.0787683l 0.419935, -0.0789489l 0.419935, -0.0791296l 0.419935, -0.0793103l 0.419935, -0.0794909l 0.419935, -0.0796716l
 0.419935, -0.0798523l 0.419935, -0.0800329l 0.419935, -0.0802136l 0.419935, -0.0803943l 0.419935, -0.0805749l 0.419935, -0.0807556l 0.419935, -0.0809363l 0.419935, -0.0811169l 0.419935, -0.0812976l 0.419935, -0.0814783l 0.419935, -0.0816589l
 0.419935, -0.0818396l 0.419935, -0.0820203l 0.419935, -0.082201l 0.419935, -0.0823816l 0.419935, -0.0825623l 0.419935, -0.082743l 0.419935, -0.0829236l 0.419935, -0.0831043l 0.419935, -0.083285l 0.419935, -0.0834656l 0.419935, -0.0836463l 0.419935,
 -0.083827l 0.419935, -0.0840076l 0.419935, -0.0841883l 0.419935, -0.084369l 0.419935, -0.0845496l 0.419935, -0.0847303l 0.419935, -0.084911l 0.419935, -0.0850916l 0.419935, -0.0852723l 0.419935, -0.085453l 0.419935, -0.0856337l 0.419935, -0.0858143l
 0.419935, -0.085995l 0.419935, -0.0861757l 0.419935, -0.0863563l 0.419935, -0.086537l 0.419935, -0.0867177" fill="none" stroke="#ff0066" stroke-width="3"/>
<path d="M293.346,386.497l 0.419935, -0.0868983l 0.419935, -0.087079l 0.419935, -0.0872597l 0.419935, -0.0874403l 0.419935, -0.087621l 0.419935, -0.0878017l 0.419935, -0.0879823l 0.419935, -0.088163l 0.419935, -0.0883437l 0.419935, -0.0885243l
 0.419935, -0.088705l 0.419935, -0.0888857l 0.419935, -0.0890663l 0.419935, -0.089247l 0.419935, -0.0894277l 0.419935, -0.0896083l 0.419935, -0.089789l 0.419935, -0.0899697l 0.419935, -0.0901504l 0.419935, -0.090331l 0.419935, -0.0905117l 0.419935,
 -0.0906924l 0.419935, -0.090873l 0.419935, -0.0910537l 0.419935, -0.0912344l 0.419935, -0.091415l 0.419935, -0.0915957l 0.419935, -0.0917764l 0.419935, -0.091957l 0.419935, -0.0921377l 0.419935, -0.0923184l 0.419935, -0.092499l 0.419935, -0.0926797l
 0.419935, -0.0928604l 0.419935, -0.093041l 0.419935, -0.0932217l 0.419935, -0.0934024l 0.419935, -0.0935831l 0.419935, -0.0937637l 0.419935, -0.0939444l 0.419935, -0.0941251l 0.419935, -0.0943057l 0.419935, -0.0944864l 0.419935, -0.0946671l
 0.419935, -0.0948477l 0.419935, -0.0950284l 0.419935, -0.0952091l 0.419935, -0.0953897l 0.419935, -0.0955704" fill="none" stroke="#ff0066" stroke-width="3"/>
<path d="M313.923,382.027l 0.419935, -0.0957511l 0.419935, -0.0959317l 0.419935, -0.0961124l 0.419935, -0.0962931l 0.419935, -0.0964737l 0.419935, -0.0966544l 0.419935, -0.0968351l 0.419935, -0.0970158l 0.419935, -0.0971964l 0.419935, -0.0973771l
 0.419935, -0.0975578l 0.419935, -0.0977384l 0.419935, -0.0979191l 0.419935, -0.0980998l 0.419935, -0.0982804l 0.419935, -0.0984611l 0.419935, -0.0986418l 0.419935, -0.0988224l 0.419935, -0.0990031l 0.419935, -0.0991838l 0.419935, -0.0993644l
 0.419935, -0.0995451l 0.419935, -0.0997258l 0.419935, -0.0999064l 0.419935, -0.100087l 0.419935, -0.100268l 0.419935, -0.100448l 0.419935, -0.100629l 0.419935, -0.10081l 0.419935, -0.10099l 0.419935, -0.101171l 0.419935, -0.101352l 0.419935,
 -0.101532l 0.419935, -0.101713l 0.419935, -0.101894l 0.419935, -0.102074l 0.419935, -0.102255l 0.419935, -0.102436l 0.419935, -0.102616l 0.419935, -0.102797l 0.419935, -0.102978l 0.419935, -0.103158l 0.419935, -0.103339l 0.419935, -0.10352l
 0.419935, -0.1037l 0.419935, -0.103881l 0.419935, -0.104062l 0.419935, -0.104242l 0.419935, -0.104423" fill="none" stroke="#ff0066" stroke-width="3"/>
<path d="M334.5,377.122l 0.419935, -0.104604l 0.419935, -0.104784l 0.419935, -0.104965l 0.419935, -0.105146l 0.419935, -0.105326l 0.419935, -0.105507l 0.419935, -0.105688l 0.419935, -0.105868l 0.419935, -0.106049l 0.419935, -0.10623l 0.419935,
 -0.106411l 0.419935, -0.106591l 0.419935, -0.106772l 0.419935, -0.106953l 0.419935, -0.107133l 0.419935, -0.107314l 0.419935, -0.107495l 0.419935, -0.107675l 0.419935, -0.107856l 0.419935, -0.108037l 0.419935, -0.108217l 0.419935, -0.108398l
 0.419935, -0.108579l 0.419935, -0.108759l 0.419935, -0.10894l 0.419935, -0.109121l 0.419935, -0.109301l 0.419935, -0.109482l 0.419935, -0.109663l 0.419935, -0.109843l 0.419935, -0.110024l 0.419935, -0.110205l 0.419935, -0.110385l 0.419935,
 -0.110566l 0.419935, -0.110747l 0.419935, -0.110927l 0.419935, -0.111108l 0.419935, -0.111289l 0.419935, -0.111469l 0.419935, -0.11165l 0.419935, -0.111831l 0.419935, -0.112011l 0.419935, -0.112192l 0.419935, -0.112373l 0.419935, -0.112553l
 0.419935, -0.112734l 0.419935, -0.112915l 0.419935, -0.113095l 0.419935, -0.113276" fill="none" stroke="#ff0066" stroke-width="3"/>
<path d="M355.077,371.784l 0.419935, -0.113457l 0.419935, -0.113637l 0.419935, -0.113818l 0.419935, -0.113999l 0.419935, -0.114179l 0.419935, -0.11436l 0.419935, -0.114541l 0.419935, -0.114721l 0.419935, -0.114902l 0.419935, -0.115083l 0.419935,
 -0.115263l 0.419935, -0.115444l 0.419935, -0.115625l 0.419935, -0.115805l 0.419935, -0.115986l 0.419935, -0.116167l 0.419935, -0.116347l 0.419935, -0.116528l 0.419935, -0.116709l 0.419935, -0.116889l 0.419935, -0.11707l 0.419935, -0.117251l
 0.419935, -0.117431l 0.419935, -0.117612l 0.419935, -0.117793l 0.419935, -0.117973l 0.419935, -0.118154l 0.419935, -0.118335l 0.419935, -0.118515l 0.419935, -0.118696l 0.419935, -0.118877l 0.419935, -0.119057l 0.419935, -0.119238l 0.419935,
 -0.119419l 0.419935, -0.119599l 0.419935, -0.11978l 0.419935, -0.119961l 0.419935, -0.120141l 0.419935, -0.120322l 0.419935, -0.120503l 0.419935, -0.120683l 0.419935, -0.120864l 0.419935, -0.121045l 0.419935, -0.121225l 0.419935, -0.121406l
 0.419935, -0.121587l 0.419935, -0.121767l 0.419935, -0.121948l 0.419935, -0.122129" fill="none" stroke="#ff0066" stroke-width="3"/>
<path d="M375.654,366.012l 0.419935, -0.122309l 0.419935, -0.12249l 0.419935, -0.122671l 0.419935, -0.122851l 0.419935, -0.123032l 0.419935, -0.123213l 0.419935, -0.123393l 0.419935, -0.123574l 0.419935, -0.123755l 0.419935, -0.123935l 0.419935,
 -0.124116l 0.419935, -0.124297l 0.419935, -0.124477l 0.419935, -0.124658l 0.419935, -0.124839l 0.419935, -0.125019l 0.419935, -0.1252l 0.419935, -0.125381l 0.419935, -0.125561l 0.419935, -0.125742l 0.419935, -0.125923l 0.419935, -0.126103l 0.419935,
 -0.126284l 0.419935, -0.126465l 0.419935, -0.126645l 0.419935, -0.126826l 0.419935, -0.127007l 0.419935, -0.127187l 0.419935, -0.127368l 0.419935, -0.127549l 0.419935, -0.127729l 0.419935, -0.12791l 0.419935, -0.128091l 0.419935, -0.128271l
 0.419935, -0.128452l 0.419935, -0.128633l 0.419935, -0.128813l 0.419935, -0.128994l 0.419935, -0.129175l 0.419935, -0.129355l 0.419935, -0.129536l 0.419935, -0.129717l 0.419935, -0.129897l 0.419935, -0.130078l 0.419935, -0.130259l 0.419935,
 -0.130439l 0.419935, -0.13062l 0.419935, -0.130801l 0.419935, -0.130981" fill="none" stroke="#ff0066" stroke-width="3"/>
<path d="M396.23,359.807l 0.419935, -0.131162l 0.419935, -0.131343l 0.419935, -0.131523l 0.419935, -0.131704l 0.419935, -0.131885l 0.419935, -0.132065l 0.419935, -0.132246l 0.419935, -0.132427l 0.419935, -0.132607l 0.419935, -0.132788l 0.419935,
 -0.132969l 0.419935, -0.133149l 0.419935, -0.13333l 0.419935, -0.133511l 0.419935, -0.133691l 0.419935, -0.133872l 0.419935, -0.134053l 0.419935, -0.134233l 0.419935, -0.134414l 0.419935, -0.134595l 0.419935, -0.134775l 0.419935, -0.134956l
 0.419935, -0.135137l 0.419935, -0.135317l 0.419935, -0.135498l 0.419935, -0.135679l 0.419935, -0.135859l 0.419935, -0.13604l 0.419935, -0.136221l 0.419935, -0.136401l 0.419935, -0.136582l 0.419935, -0.136763l 0.419935, -0.136943l 0.419935,
 -0.137124l 0.419935, -0.137305l 0.419935, -0.137485l 0.419935, -0.137666l 0.419935, -0.137847l 0.419935, -0.138027l 0.419935, -0.138208l 0.419935, -0.138389l 0.419935, -0.138569l 0.419935, -0.13875l 0.419935, -0.138931l 0.419935, -0.139111l
 0.419935, -0.139292l 0.419935, -0.139473l 0.419935, -0.139653l 0.419935, -0.139834" fill="none" stroke="#ff0066" stroke-width="3"/>
<path d="M416.807,353.167l 0.419935, -0.140015l 0.419935, -0.140195l 0.419935, -0.140376l 0.419935, -0.140557l 0.419935, -0.140737l 0.419935, -0.140918l 0.419935, -0.141099l 0.419935, -0.141279l 0.419935, -0.14146l 0.419935, -0.141641l 0.419935,
 -0.141821l 0.419935, -0.142002l 0.419935, -0.142183l 0.419935, -0.142363l 0.419935, -0.142544l 0.419935, -0.142725l 0.419935, -0.142906l 0.419935, -0.143086l 0.419935, -0.143267l 0.419935, -0.143448l 0.419935, -0.143628l 0.419935, -0.143809l
 0.419935, -0.14399l 0.419935, -0.14417l 0.419935, -0.144351l 0.419935, -0.144532l 0.419935, -0.144712l 0.419935, -0.144893l 0.419935, -0.145074l 0.419935, -0.145254l 0.419935, -0.145435l 0.419935, -0.145616l 0.419935, -0.145796l 0.419935, -0.145977l
 0.419935, -0.146158l 0.419935, -0.146338l 0.419935, -0.146519l 0.419935, -0.1467l 0.419935, -0.14688l 0.419935, -0.147061l 0.419935, -0.147242l 0.419935, -0.147422l 0.419935, -0.147603l 0.419935, -0.147784l 0.419935, -0.147964l 0.419935, -0.148145l
 0.419935, -0.148326l 0.419935, -0.148506l 0.419935, -0.148687" fill="none" stroke="#ff0066" stroke-width="3"/>
<path d="M437.384,346.094l 0.419935, -0.148868l 0.419935, -0.149048l 0.419935, -0.149229l 0.419935, -0.14941l 0.419935, -0.14959l 0.419935, -0.149771l 0.419935, -0.149952l 0.419935, -0.150132l 0.419935, -0.150313l 0.419935, -0.150494l 0.419935,
 -0.150674l 0.419935, -0.150855l 0.419935, -0.151036l 0.419935, -0.151216l 0.419935, -0.151397l 0.419935, -0.151578l 0.419935, -0.151758l 0.419935, -0.151939l 0.419935, -0.15212l 0.419935, -0.1523l 0.419935, -0.152481l 0.419935, -0.152662l 0.419935,
 -0.152842l 0.419935, -0.153023l 0.419935, -0.153204l 0.419935, -0.153384l 0.419935, -0.153565l 0.419935, -0.153746l 0.419935, -0.153926l 0.419935, -0.154107l 0.419935, -0.154288l 0.419935, -0.154468l 0.419935, -0.154649l 0.419935, -0.15483l
 0.419935, -0.15501l 0.419935, -0.155191l 0.419935, -0.155372l 0.419935, -0.155552l 0.419935, -0.155733l 0.419935, -0.155914l 0.419935, -0.156094l 0.419935, -0.156275l 0.419935, -0.156456l 0.419935, -0.156636l 0.419935, -0.156817l 0.419935,
 -0.156998l 0.419935, -0.157178l 0.419935, -0.157359l 0.419935, -0.15754" fill="none" stroke="#ff0066" stroke-width="3"/>
<path d="M457.961,338.587l 0.419935, -0.15772l 0.419935, -0.157901l 0.419935, -0.158082l 0.419935, -0.158262l 0.419935, -0.158443l 0.419935, -0.158624l 0.419935, -0.158804l 0.419935, -0.158985l 0.419935, -0.159166l 0.419935, -0.159346l 0.419935,
 -0.159527l 0.419935, -0.159708l 0.419935, -0.159888l 0.419935, -0.160069l 0.419935, -0.16025l 0.419935, -0.16043l 0.419935, -0.160611l 0.419935, -0.160792l 0.419935, -0.160972l 0.419935, -0.161153l 0.419935, -0.161334l 0.419935, -0.161514l 0.419935,
 -0.161695l 0.419935, -0.161876l 0.419935, -0.162056l 0.419935, -0.162237l 0.419935, -0.162418l 0.419935, -0.162598l 0.419935, -0.162779l 0.419935, -0.16296l 0.419935, -0.16314l 0.419935, -0.163321l 0.419935, -0.163502l 0.419935, -0.163682l 0.419935,
 -0.163863l 0.419935, -0.164044l 0.419935, -0.164224l 0.419935, -0.164405l 0.419935, -0.164586l 0.419935, -0.164766l 0.419935, -0.164947l 0.419935, -0.165128l 0.419935, -0.165308l 0.419935, -0.165489l 0.419935, -0.16567l 0.419935, -0.16585l 0.419935,
 -0.166031l 0.419935, -0.166212l 0.419935, -0.166392" fill="none" stroke="#ff0066" stroke-width="3"/>
<path d="M478.538,330.647l 0.419935, -0.166573l 0.419935, -0.166754l 0.419935, -0.166934l 0.419935, -0.167115l 0.419935, -0.167296l 0.419935, -0.167476l 0.419935, -0.167657l 0.419935, -0.167838l 0.419935, -0.168018l 0.419935, -0.168199l 0.419935,
 -0.16838l 0.419935, -0.16856l 0.419935, -0.168741l 0.419935, -0.168922l 0.419935, -0.169102l 0.419935, -0.169283l 0.419935, -0.169464l 0.419935, -0.169644l 0.419935, -0.169825l 0.419935, -0.170006l 0.419935, -0.170186l 0.419935, -0.170367l 0.419935,
 -0.170548l 0.419935, -0.170728l 0.419935, -0.170909l 0.419935, -0.17109l 0.419935, -0.17127l 0.419935, -0.171451l 0.419935, -0.171632l 0.419935, -0.171812l 0.419935, -0.171993l 0.419935, -0.172174l 0.419935, -0.172354l 0.419935, -0.172535l 0.419935,
 -0.172716l 0.419935, -0.172896l 0.419935, -0.173077l 0.419935, -0.173258l 0.419935, -0.173438l 0.419935, -0.173619l 0.419935, -0.1738l 0.419935, -0.17398l 0.419935, -0.174161l 0.419935, -0.174342l 0.419935, -0.174522l 0.419935, -0.174703l 0.419935,
 -0.174884l 0.419935, -0.175064l 0.419935, -0.175245" fill="none" stroke="#ff0066" stroke-width="3"/>
<path d="M499.114,322.272l 0.419935, -0.175426l 0.419935, -0.175606l 0.419935, -0.175787l 0.419935, -0.175968l 0.419935, -0.176148l 0.419935, -0.176329l 0.419935, -0.17651l 0.419935, -0.17669l 0.419935, -0.176871l 0.419935, -0.177052l 0.419935,
 -0.177232l 0.419935, -0.177413l 0.419935, -0.177594l 0.419935, -0.177774l 0.419935, -0.177955l 0.419935, -0.178136l 0.419935, -0.178316l 0.419935, -0.178497l 0.419935, -0.178678l 0.419935, -0.178858l 0.419935, -0.179039l 0.419935, -0.17922l
 0.419935, -0.179401l 0.419935, -0.179581l 0.419935, -0.179762l 0.419935, -0.179943l 0.419935, -0.180123l 0.419935, -0.180304l 0.419935, -0.180485l 0.419935, -0.180665l 0.419935, -0.180846l 0.419935, -0.181027l 0.419935, -0.181207l 0.419935,
 -0.181388l 0.419935, -0.181569l 0.419935, -0.181749l 0.419935, -0.18193l 0.419935, -0.182111l 0.419935, -0.182291l 0.419935, -0.182472l 0.419935, -0.182653l 0.419935, -0.182833l 0.419935, -0.183014l 0.419935, -0.183195l 0.419935, -0.183375l
 0.419935, -0.183556l 0.419935, -0.183737l 0.419935, -0.183917l 0.419935, -0.184098" fill="none" stroke="#ff0066" stroke-width="3"/>
<path d="M519.691,313.464l 0.419935, -0.184279l 0.419935, -0.184459l 0.419935, -0.18464l 0.419935, -0.184821l 0.419935, -0.185001l 0.419935, -0.185182l 0.419935, -0.185363l 0.419935, -0.185543l 0.419935, -0.185724l 0.419935, -0.185905l 0.419935,
 -0.186085l 0.419935, -0.186266l 0.419935, -0.186447l 0.419935, -0.186627l 0.419935, -0.186808l 0.419935, -0.186989l 0.419935, -0.187169l 0.419935, -0.18735l 0.419935, -0.187531l 0.419935, -0.187711l 0.419935, -0.187892l 0.419935, -0.188073l
 0.419935, -0.188253l 0.419935, -0.188434l 0.419935, -0.188615l 0.419935, -0.188795l 0.419935, -0.188976l 0.419935, -0.189157l 0.419935, -0.189337l 0.419935, -0.189518l 0.419935, -0.189699l 0.419935, -0.189879l 0.419935, -0.19006l 0.419935,
 -0.190241l 0.419935, -0.190421l 0.419935, -0.190602l 0.419935, -0.190783l 0.419935, -0.190963l 0.419935, -0.191144l 0.419935, -0.191325l 0.419935, -0.191505l 0.419935, -0.191686l 0.419935, -0.191867l 0.419935, -0.192047l 0.419935, -0.192228l
 0.419935, -0.192409l 0.419935, -0.192589l 0.419935, -0.19277l 0.419935, -0.192951" fill="none" stroke="#ff0066" stroke-width="3"/>
<path d="M540.268,304.222l 0.419935, -0.193131l 0.419935, -0.193312l 0.419935, -0.193493l 0.419935, -0.193673l 0.419935, -0.193854l 0.419935, -0.194035l 0.419935, -0.194215l 0.419935, -0.194396l 0.419935, -0.194577l 0.419935, -0.194757l 0.419935,
 -0.194938l 0.419935, -0.195119l 0.419935, -0.195299l 0.419935, -0.19548l 0.419935, -0.195661l 0.419935, -0.195841l 0.419935, -0.196022l 0.419935, -0.196203l 0.419935, -0.196383" fill="none" stroke="#ff0066" stroke-width="3"/>
<path d="M248.503,21.4167h 179.972" fill="none" stroke="#999999" stroke-width="7"/>
<text xml:space="preserve" x="360.607" y="50.7193" fill="black" font-size="16.0105" font-family="Helvetica"> with EMC</text>
<text xml:space="preserve" x="352.717" y="50.7193" fill="black" font-size="16.0105" font-family="Times">&#0947;</text>
<text xml:space="preserve" x="344.828" y="50.7193" fill="black" font-size="16.0105" font-family="Times">&#0947;</text>
<text xml:space="preserve" x="336.938" y="50.7193" fill="black" font-size="16.0105" font-family="Times">&#0947;</text>
<text xml:space="preserve" x="331.866" y="50.7193" fill="black" font-size="16.0105" font-family="Helvetica"> </text>
<text xml:space="preserve" x="316.65" y="50.7193" fill="black" font-size="16.0105" font-family="Times">&#8594;</text>
<text xml:space="preserve" x="311.578" y="50.7193" fill="black" font-size="16.0105" font-family="Helvetica"> </text>
<text xml:space="preserve" x="303.689" y="50.7193" fill="black" font-size="16.0105" font-family="Times">&#0947;</text>
<text xml:space="preserve" x="298.053" y="45.0838" fill="black" font-size="10.8403" font-family="Helvetica">0</text>
<text xml:space="preserve" x="289.6" y="50.7193" fill="black" font-size="16.0105" font-family="Times">&#0960;</text>
<text xml:space="preserve" x="284.528" y="50.7193" fill="black" font-size="16.0105" font-family="Helvetica"> </text>
<text xml:space="preserve" x="269.312" y="50.7193" fill="black" font-size="16.0105" font-family="Times">&#8594;</text>
<text xml:space="preserve" x="264.24" y="50.7193" fill="black" font-size="16.0105" font-family="Helvetica"> </text>
<text xml:space="preserve" x="252.969" y="50.7193" fill="black" font-size="16.0105" font-family="Times">&#0969;</text>
<text xml:space="preserve" x="128.989" y="50.7193" fill="black" font-size="16.0105" font-family="Helvetica"> = 13 TeV (EG1), </text>
<text xml:space="preserve" x="120.536" y="50.7193" fill="black" font-size="16.0105" font-family="Helvetica" font-style="oblique">s</text>
<path d="M114.9,41.7025l 1.69064, 9.58031" fill="none" stroke="black" stroke-width="2"/>
<path d="M116.591,51.2829l 2.25419, -14.0887" fill="none" stroke="black"/>
<path d="M118.845,37.1942h 10.1439" fill="none" stroke="black"/>
<text xml:space="preserve" x="89.5406" y="50.7193" fill="black" font-size="16.0105" font-family="Helvetica">pp </text>
<text xml:space="preserve" x="89.5406" y="85.6593" fill="black" font-size="16.0105" font-family="Helvetica">ALICE work in progress</text>
<text xml:space="preserve" x="214.085" y="120.599" fill="black" font-size="16.0105" font-family="Helvetica">) &lt; 12.0</text>
<text xml:space="preserve" x="205.068" y="120.599" fill="black" font-size="16.0105" font-family="Helvetica" font-style="oblique">c</text>
<text xml:space="preserve" x="154.912" y="120.599" fill="black" font-size="16.0105" font-family="Helvetica"> /(GeV/</text>
<text xml:space="preserve" x="148.15" y="128.489" fill="black" font-size="10.8403" font-family="Helvetica">T</text>
<text xml:space="preserve" x="138.569" y="120.599" fill="black" font-size="16.0105" font-family="Helvetica" font-style="oblique">p</text>
<text xml:space="preserve" x="133.497" y="120.599" fill="black" font-size="16.0105" font-family="Helvetica"> </text>
<text xml:space="preserve" x="125.044" y="120.599" fill="black" font-size="16.0105" font-family="Times">&#8804;</text>
<text xml:space="preserve" x="89.5406" y="120.599" fill="black" font-size="16.0105" font-family="Helvetica">10.0 </text>
<rect x="312.311" y="69.1755" width="198.425" height="113.448" fill="white"/>
<text xml:space="preserve" x="361.734" y="85.0957" fill="black" font-size="16.0105" font-family="Helvetica">ratio</text>
<path d="M319.752,80.5203h 34.7244" fill="none" stroke="black" stroke-width="2"/>
<g fill="black">
<circle cx="337.114" cy="80.5203" r="6.76257"/>
</g>
<text xml:space="preserve" x="361.734" y="108.201" fill="black" font-size="16.0105" font-family="Helvetica">peak range</text>
<path d="M319.752,103.21h 34.7244" fill="none" stroke="#333333" stroke-width="2"/>
<g stroke="#333333" stroke-width="2" fill="none">
<circle cx="337.114" cy="103.21" r="5.63548"/>
</g>
<text xml:space="preserve" x="361.734" y="130.743" fill="black" font-size="16.0105" font-family="Helvetica">background pol1</text>
<path d="M319.752,125.899h 34.7244" fill="none" stroke="#33cccc" stroke-width="3"/>
<text xml:space="preserve" x="361.734" y="153.285" fill="black" font-size="16.0105" font-family="Helvetica">background pol2</text>
<path d="M319.752,148.589h 34.7244" fill="none" stroke="#ff0066" stroke-width="3"/>
<text xml:space="preserve" x="361.734" y="175.827" fill="black" font-size="16.0105" font-family="Helvetica">param. range</text>
<path d="M319.752,171.279h 34.7244" fill="none" stroke="#999999" stroke-width="7"/></svg>
