<?xml version="1.0" standalone="no"?>
<svg width="567.429" height="553.904" viewBox="0 0 567.429 553.904" xmlns="http://www.w3.org/2000/svg" shape-rendering="crispEdges">
<title>
Data/EG1/OmegaRotPS/SameEventToBackgroundRatio_01.svg
</title>
<desc>
Creator: ROOT Version 6.20/08
CreationDate: Mon Mar 29 18:49:56 2021</desc>
<defs>
</defs>
<rect x="0.5" y="0" width="566.929" height="553.404" fill="white"/>
<rect x="68.5315" y="16.6021" width="484.724" height="481.461" fill="white"/>
<rect x="68.5315" y="16.6021" width="484.724" height="481.461" fill="none" stroke="black"/>
<rect x="68.5315" y="16.6021" width="484.724" height="481.461" fill="white"/>
<rect x="68.5315" y="16.6021" width="484.724" height="481.461" fill="none" stroke="black"/>
<g fill="black">
<circle cx="114.124" cy="204.392" r="6.76257"/>
</g>
<g fill="black">
<circle cx="118.924" cy="240.512" r="6.76257"/>
</g>
<g fill="black">
<circle cx="123.723" cy="263.829" r="6.76257"/>
</g>
<g fill="black">
<circle cx="128.522" cy="281.499" r="6.76257"/>
</g>
<g fill="black">
<circle cx="133.321" cy="289.253" r="6.76257"/>
</g>
<g fill="black">
<circle cx="138.121" cy="303.236" r="6.76257"/>
</g>
<g fill="black">
<circle cx="142.92" cy="313.73" r="6.76257"/>
</g>
<g fill="black">
<circle cx="147.719" cy="322.587" r="6.76257"/>
</g>
<g fill="black">
<circle cx="152.518" cy="333.038" r="6.76257"/>
</g>
<g fill="black">
<circle cx="157.318" cy="339.629" r="6.76257"/>
</g>
<g fill="black">
<circle cx="162.117" cy="345.638" r="6.76257"/>
</g>
<g fill="black">
<circle cx="166.916" cy="349.705" r="6.76257"/>
</g>
<g fill="black">
<circle cx="171.715" cy="351.839" r="6.76257"/>
</g>
<g fill="black">
<circle cx="176.515" cy="354.048" r="6.76257"/>
</g>
<g fill="black">
<circle cx="181.314" cy="354.738" r="6.76257"/>
</g>
<g fill="black">
<circle cx="186.113" cy="355.884" r="6.76257"/>
</g>
<g fill="black">
<circle cx="190.912" cy="356.033" r="6.76257"/>
</g>
<g fill="black">
<circle cx="195.712" cy="356.553" r="6.76257"/>
</g>
<g fill="black">
<circle cx="200.511" cy="355.564" r="6.76257"/>
</g>
<g fill="black">
<circle cx="205.31" cy="355.291" r="6.76257"/>
</g>
<g fill="black">
<circle cx="210.109" cy="354.429" r="6.76257"/>
</g>
<g fill="black">
<circle cx="214.909" cy="353.373" r="6.76257"/>
</g>
<g fill="black">
<circle cx="219.708" cy="352.826" r="6.76257"/>
</g>
<g fill="black">
<circle cx="224.507" cy="351.758" r="6.76257"/>
</g>
<g fill="black">
<circle cx="229.306" cy="349.98" r="6.76257"/>
</g>
<g fill="black">
<circle cx="234.106" cy="349.718" r="6.76257"/>
</g>
<g fill="black">
<circle cx="238.905" cy="347.831" r="6.76257"/>
</g>
<g fill="black">
<circle cx="243.704" cy="345.923" r="6.76257"/>
</g>
<g fill="black">
<circle cx="248.503" cy="344.721" r="6.76257"/>
</g>
<g fill="black">
<circle cx="253.303" cy="342.983" r="6.76257"/>
</g>
<g fill="black">
<circle cx="258.102" cy="340.934" r="6.76257"/>
</g>
<g fill="black">
<circle cx="262.901" cy="339.479" r="6.76257"/>
</g>
<g fill="black">
<circle cx="267.7" cy="337.83" r="6.76257"/>
</g>
<g fill="black">
<circle cx="272.5" cy="336.577" r="6.76257"/>
</g>
<g fill="black">
<circle cx="277.299" cy="333.652" r="6.76257"/>
</g>
<g fill="black">
<circle cx="339.689" cy="305.698" r="6.76257"/>
</g>
<g fill="black">
<circle cx="344.488" cy="301.772" r="6.76257"/>
</g>
<g fill="black">
<circle cx="349.288" cy="299.645" r="6.76257"/>
</g>
<g fill="black">
<circle cx="354.087" cy="297.031" r="6.76257"/>
</g>
<g fill="black">
<circle cx="358.886" cy="295.417" r="6.76257"/>
</g>
<g fill="black">
<circle cx="363.685" cy="290.058" r="6.76257"/>
</g>
<g fill="black">
<circle cx="368.485" cy="288.372" r="6.76257"/>
</g>
<g fill="black">
<circle cx="373.284" cy="285.703" r="6.76257"/>
</g>
<g fill="black">
<circle cx="378.083" cy="284.449" r="6.76257"/>
</g>
<g fill="black">
<circle cx="382.882" cy="282.589" r="6.76257"/>
</g>
<g fill="black">
<circle cx="387.682" cy="279.282" r="6.76257"/>
</g>
<g fill="black">
<circle cx="392.481" cy="277.215" r="6.76257"/>
</g>
<g fill="black">
<circle cx="397.28" cy="273.627" r="6.76257"/>
</g>
<g fill="black">
<circle cx="402.079" cy="269.42" r="6.76257"/>
</g>
<g fill="black">
<circle cx="406.879" cy="267.075" r="6.76257"/>
</g>
<g fill="black">
<circle cx="411.678" cy="264.812" r="6.76257"/>
</g>
<g fill="black">
<circle cx="416.477" cy="261.954" r="6.76257"/>
</g>
<g fill="black">
<circle cx="421.276" cy="255.776" r="6.76257"/>
</g>
<g fill="black">
<circle cx="426.076" cy="252.974" r="6.76257"/>
</g>
<g fill="black">
<circle cx="430.875" cy="249.322" r="6.76257"/>
</g>
<g fill="black">
<circle cx="435.674" cy="246.742" r="6.76257"/>
</g>
<g fill="black">
<circle cx="440.473" cy="243.816" r="6.76257"/>
</g>
<g fill="black">
<circle cx="445.273" cy="237.957" r="6.76257"/>
</g>
<g fill="black">
<circle cx="450.072" cy="235.609" r="6.76257"/>
</g>
<g fill="black">
<circle cx="454.871" cy="233.516" r="6.76257"/>
</g>
<g fill="black">
<circle cx="459.671" cy="229.724" r="6.76257"/>
</g>
<g fill="black">
<circle cx="464.47" cy="224.516" r="6.76257"/>
</g>
<g fill="black">
<circle cx="469.269" cy="225.543" r="6.76257"/>
</g>
<g fill="black">
<circle cx="474.068" cy="222.068" r="6.76257"/>
</g>
<g fill="black">
<circle cx="478.867" cy="220.909" r="6.76257"/>
</g>
<g fill="black">
<circle cx="483.667" cy="214.133" r="6.76257"/>
</g>
<g fill="black">
<circle cx="488.466" cy="214.548" r="6.76257"/>
</g>
<g fill="black">
<circle cx="493.265" cy="211.117" r="6.76257"/>
</g>
<g fill="black">
<circle cx="498.065" cy="212.084" r="6.76257"/>
</g>
<g fill="black">
<circle cx="502.864" cy="208.55" r="6.76257"/>
</g>
<g fill="black">
<circle cx="507.663" cy="208.433" r="6.76257"/>
</g>
<g fill="black">
<circle cx="512.462" cy="205.913" r="6.76257"/>
</g>
<g fill="black">
<circle cx="517.262" cy="205.542" r="6.76257"/>
</g>
<g fill="black">
<circle cx="522.061" cy="205.616" r="6.76257"/>
</g>
<g fill="black">
<circle cx="526.86" cy="199.509" r="6.76257"/>
</g>
<g fill="black">
<circle cx="531.659" cy="199.757" r="6.76257"/>
</g>
<g fill="black">
<circle cx="536.458" cy="204.187" r="6.76257"/>
</g>
<g fill="black">
<circle cx="541.258" cy="201.935" r="6.76257"/>
</g>
<g fill="black">
<circle cx="546.057" cy="197.15" r="6.76257"/>
</g>
<path d="M68.5315,498.064h 484.724" fill="none" stroke="black"/>
<path d="M68.5315,483.869v 14.1948" fill="none" stroke="black"/>
<path d="M83.5292,490.966v 7.09741" fill="none" stroke="black"/>
<path d="M98.5268,490.966v 7.09741" fill="none" stroke="black"/>
<path d="M113.524,490.966v 7.09741" fill="none" stroke="black"/>
<path d="M128.522,483.869v 14.1948" fill="none" stroke="black"/>
<path d="M143.52,490.966v 7.09741" fill="none" stroke="black"/>
<path d="M158.517,490.966v 7.09741" fill="none" stroke="black"/>
<path d="M173.515,490.966v 7.09741" fill="none" stroke="black"/>
<path d="M188.513,483.869v 14.1948" fill="none" stroke="black"/>
<path d="M203.51,490.966v 7.09741" fill="none" stroke="black"/>
<path d="M218.508,490.966v 7.09741" fill="none" stroke="black"/>
<path d="M233.506,490.966v 7.09741" fill="none" stroke="black"/>
<path d="M248.503,483.869v 14.1948" fill="none" stroke="black"/>
<path d="M263.501,490.966v 7.09741" fill="none" stroke="black"/>
<path d="M278.499,490.966v 7.09741" fill="none" stroke="black"/>
<path d="M293.496,490.966v 7.09741" fill="none" stroke="black"/>
<path d="M308.494,483.869v 14.1948" fill="none" stroke="black"/>
<path d="M323.492,490.966v 7.09741" fill="none" stroke="black"/>
<path d="M338.489,490.966v 7.09741" fill="none" stroke="black"/>
<path d="M353.487,490.966v 7.09741" fill="none" stroke="black"/>
<path d="M368.485,483.869v 14.1948" fill="none" stroke="black"/>
<path d="M383.482,490.966v 7.09741" fill="none" stroke="black"/>
<path d="M398.48,490.966v 7.09741" fill="none" stroke="black"/>
<path d="M413.478,490.966v 7.09741" fill="none" stroke="black"/>
<path d="M428.475,483.869v 14.1948" fill="none" stroke="black"/>
<path d="M443.473,490.966v 7.09741" fill="none" stroke="black"/>
<path d="M458.471,490.966v 7.09741" fill="none" stroke="black"/>
<path d="M473.468,490.966v 7.09741" fill="none" stroke="black"/>
<path d="M488.466,483.869v 14.1948" fill="none" stroke="black"/>
<path d="M503.464,490.966v 7.09741" fill="none" stroke="black"/>
<path d="M518.461,490.966v 7.09741" fill="none" stroke="black"/>
<path d="M533.459,490.966v 7.09741" fill="none" stroke="black"/>
<path d="M548.457,483.869v 14.1948" fill="none" stroke="black"/>
<path d="M548.457,483.869v 14.1948" fill="none" stroke="black"/>
<text xml:space="preserve" x="63.6174" y="513.956" fill="black" font-size="16.0105" font-family="Helvetica">0</text>
<text xml:space="preserve" x="117.718" y="513.956" fill="black" font-size="16.0105" font-family="Helvetica">0.2</text>
<text xml:space="preserve" x="177.454" y="513.956" fill="black" font-size="16.0105" font-family="Helvetica">0.4</text>
<text xml:space="preserve" x="237.754" y="513.956" fill="black" font-size="16.0105" font-family="Helvetica">0.6</text>
<text xml:space="preserve" x="297.49" y="513.956" fill="black" font-size="16.0105" font-family="Helvetica">0.8</text>
<text xml:space="preserve" x="365.115" y="513.956" fill="black" font-size="16.0105" font-family="Helvetica">1</text>
<text xml:space="preserve" x="417.525" y="513.956" fill="black" font-size="16.0105" font-family="Helvetica">1.2</text>
<text xml:space="preserve" x="477.261" y="513.956" fill="black" font-size="16.0105" font-family="Helvetica">1.4</text>
<text xml:space="preserve" x="537.561" y="513.956" fill="black" font-size="16.0105" font-family="Helvetica">1.6</text>
<text xml:space="preserve" x="548.268" y="537.625" fill="black" font-size="16.0105" font-family="Helvetica">)</text>
<text xml:space="preserve" x="542.633" y="532.553" fill="black" font-size="10.8403" font-family="Helvetica">2</text>
<text xml:space="preserve" x="533.616" y="537.625" fill="black" font-size="16.0105" font-family="Helvetica" font-style="oblique">c</text>
<text xml:space="preserve" x="487.405" y="537.625" fill="black" font-size="16.0105" font-family="Helvetica"> (GeV/</text>
<text xml:space="preserve" x="473.317" y="542.697" fill="black" font-size="10.8403" font-family="Helvetica">inv</text>
<text xml:space="preserve" x="459.792" y="537.625" fill="black" font-size="16.0105" font-family="Helvetica" font-style="oblique">m</text>
<path d="M68.5315,16.6021h 484.724" fill="none" stroke="black"/>
<path d="M68.5315,30.7969v -14.1948" fill="none" stroke="black"/>
<path d="M83.5292,23.6995v -7.09741" fill="none" stroke="black"/>
<path d="M98.5268,23.6995v -7.09741" fill="none" stroke="black"/>
<path d="M113.524,23.6995v -7.09741" fill="none" stroke="black"/>
<path d="M128.522,30.7969v -14.1948" fill="none" stroke="black"/>
<path d="M143.52,23.6995v -7.09741" fill="none" stroke="black"/>
<path d="M158.517,23.6995v -7.09741" fill="none" stroke="black"/>
<path d="M173.515,23.6995v -7.09741" fill="none" stroke="black"/>
<path d="M188.513,30.7969v -14.1948" fill="none" stroke="black"/>
<path d="M203.51,23.6995v -7.09741" fill="none" stroke="black"/>
<path d="M218.508,23.6995v -7.09741" fill="none" stroke="black"/>
<path d="M233.506,23.6995v -7.09741" fill="none" stroke="black"/>
<path d="M248.503,30.7969v -14.1948" fill="none" stroke="black"/>
<path d="M263.501,23.6995v -7.09741" fill="none" stroke="black"/>
<path d="M278.499,23.6995v -7.09741" fill="none" stroke="black"/>
<path d="M293.496,23.6995v -7.09741" fill="none" stroke="black"/>
<path d="M308.494,30.7969v -14.1948" fill="none" stroke="black"/>
<path d="M323.492,23.6995v -7.09741" fill="none" stroke="black"/>
<path d="M338.489,23.6995v -7.09741" fill="none" stroke="black"/>
<path d="M353.487,23.6995v -7.09741" fill="none" stroke="black"/>
<path d="M368.485,30.7969v -14.1948" fill="none" stroke="black"/>
<path d="M383.482,23.6995v -7.09741" fill="none" stroke="black"/>
<path d="M398.48,23.6995v -7.09741" fill="none" stroke="black"/>
<path d="M413.478,23.6995v -7.09741" fill="none" stroke="black"/>
<path d="M428.475,30.7969v -14.1948" fill="none" stroke="black"/>
<path d="M443.473,23.6995v -7.09741" fill="none" stroke="black"/>
<path d="M458.471,23.6995v -7.09741" fill="none" stroke="black"/>
<path d="M473.468,23.6995v -7.09741" fill="none" stroke="black"/>
<path d="M488.466,30.7969v -14.1948" fill="none" stroke="black"/>
<path d="M503.464,23.6995v -7.09741" fill="none" stroke="black"/>
<path d="M518.461,23.6995v -7.09741" fill="none" stroke="black"/>
<path d="M533.459,23.6995v -7.09741" fill="none" stroke="black"/>
<path d="M548.457,30.7969v -14.1948" fill="none" stroke="black"/>
<path d="M548.457,30.7969v -14.1948" fill="none" stroke="black"/>
<path d="M68.5315,498.064v -481.461" fill="none" stroke="black"/>
<path d="M83.3283,498.064h -14.7969" fill="none" stroke="black"/>
<path d="M75.9299,487.974h -7.39843" fill="none" stroke="black"/>
<path d="M75.9299,477.884h -7.39843" fill="none" stroke="black"/>
<path d="M75.9299,467.795h -7.39843" fill="none" stroke="black"/>
<path d="M75.9299,457.705h -7.39843" fill="none" stroke="black"/>
<path d="M83.3283,447.615h -14.7969" fill="none" stroke="black"/>
<path d="M75.9299,437.525h -7.39843" fill="none" stroke="black"/>
<path d="M75.9299,427.436h -7.39843" fill="none" stroke="black"/>
<path d="M75.9299,417.346h -7.39843" fill="none" stroke="black"/>
<path d="M75.9299,407.256h -7.39843" fill="none" stroke="black"/>
<path d="M83.3283,397.167h -14.7969" fill="none" stroke="black"/>
<path d="M75.9299,387.077h -7.39843" fill="none" stroke="black"/>
<path d="M75.9299,376.987h -7.39843" fill="none" stroke="black"/>
<path d="M75.9299,366.898h -7.39843" fill="none" stroke="black"/>
<path d="M75.9299,356.808h -7.39843" fill="none" stroke="black"/>
<path d="M83.3283,346.718h -14.7969" fill="none" stroke="black"/>
<path d="M75.9299,336.628h -7.39843" fill="none" stroke="black"/>
<path d="M75.9299,326.539h -7.39843" fill="none" stroke="black"/>
<path d="M75.9299,316.449h -7.39843" fill="none" stroke="black"/>
<path d="M75.9299,306.359h -7.39843" fill="none" stroke="black"/>
<path d="M83.3283,296.27h -14.7969" fill="none" stroke="black"/>
<path d="M75.9299,286.18h -7.39843" fill="none" stroke="black"/>
<path d="M75.9299,276.09h -7.39843" fill="none" stroke="black"/>
<path d="M75.9299,266.001h -7.39843" fill="none" stroke="black"/>
<path d="M75.9299,255.911h -7.39843" fill="none" stroke="black"/>
<path d="M83.3283,245.821h -14.7969" fill="none" stroke="black"/>
<path d="M75.9299,235.732h -7.39843" fill="none" stroke="black"/>
<path d="M75.9299,225.642h -7.39843" fill="none" stroke="black"/>
<path d="M75.9299,215.552h -7.39843" fill="none" stroke="black"/>
<path d="M75.9299,205.462h -7.39843" fill="none" stroke="black"/>
<path d="M83.3283,195.373h -14.7969" fill="none" stroke="black"/>
<path d="M75.9299,185.283h -7.39843" fill="none" stroke="black"/>
<path d="M75.9299,175.193h -7.39843" fill="none" stroke="black"/>
<path d="M75.9299,165.104h -7.39843" fill="none" stroke="black"/>
<path d="M75.9299,155.014h -7.39843" fill="none" stroke="black"/>
<path d="M83.3283,144.924h -14.7969" fill="none" stroke="black"/>
<path d="M75.9299,134.835h -7.39843" fill="none" stroke="black"/>
<path d="M75.9299,124.745h -7.39843" fill="none" stroke="black"/>
<path d="M75.9299,114.655h -7.39843" fill="none" stroke="black"/>
<path d="M75.9299,104.565h -7.39843" fill="none" stroke="black"/>
<path d="M83.3283,94.4758h -14.7969" fill="none" stroke="black"/>
<path d="M75.9299,84.3861h -7.39843" fill="none" stroke="black"/>
<path d="M75.9299,74.2964h -7.39843" fill="none" stroke="black"/>
<path d="M75.9299,64.2067h -7.39843" fill="none" stroke="black"/>
<path d="M75.9299,54.117h -7.39843" fill="none" stroke="black"/>
<path d="M83.3283,44.0273h -14.7969" fill="none" stroke="black"/>
<path d="M83.3283,44.0273h -14.7969" fill="none" stroke="black"/>
<path d="M75.9299,33.9376h -7.39843" fill="none" stroke="black"/>
<path d="M75.9299,23.8479h -7.39843" fill="none" stroke="black"/>
<text xml:space="preserve" x="56.8548" y="503.248" fill="black" font-size="16.0105" font-family="Helvetica">0</text>
<text xml:space="preserve" x="46.1474" y="453.092" fill="black" font-size="16.0105" font-family="Helvetica">0.1</text>
<text xml:space="preserve" x="43.8932" y="402.373" fill="black" font-size="16.0105" font-family="Helvetica">0.2</text>
<text xml:space="preserve" x="43.8932" y="352.217" fill="black" font-size="16.0105" font-family="Helvetica">0.3</text>
<text xml:space="preserve" x="43.8932" y="301.498" fill="black" font-size="16.0105" font-family="Helvetica">0.4</text>
<text xml:space="preserve" x="43.8932" y="251.342" fill="black" font-size="16.0105" font-family="Helvetica">0.5</text>
<text xml:space="preserve" x="43.8932" y="200.623" fill="black" font-size="16.0105" font-family="Helvetica">0.6</text>
<text xml:space="preserve" x="43.8932" y="150.467" fill="black" font-size="16.0105" font-family="Helvetica">0.7</text>
<text xml:space="preserve" x="43.8932" y="99.748" fill="black" font-size="16.0105" font-family="Helvetica">0.8</text>
<text xml:space="preserve" x="43.8932" y="49.5922" fill="black" font-size="16.0105" font-family="Helvetica">0.9</text>
<g transform="rotate(-90,38.2577,98.0573)">
<text xml:space="preserve" x="38.2577" y="98.0573" fill="black" font-size="16.0105" font-family="Helvetica">background</text>
</g>
<g transform="rotate(-90,21.9148,98.0573)">
<text xml:space="preserve" x="21.9148" y="98.0573" fill="black" font-size="16.0105" font-family="Helvetica">same event</text>
</g>
<path d="M24.169,98.0573l 0.563548, -81.7144" fill="none" stroke="black" stroke-width="2"/>
<path d="M553.256,498.064v -481.461" fill="none" stroke="black"/>
<path d="M538.459,498.064h 14.7969" fill="none" stroke="black"/>
<path d="M545.857,487.974h 7.39843" fill="none" stroke="black"/>
<path d="M545.857,477.884h 7.39843" fill="none" stroke="black"/>
<path d="M545.857,467.795h 7.39843" fill="none" stroke="black"/>
<path d="M545.857,457.705h 7.39843" fill="none" stroke="black"/>
<path d="M538.459,447.615h 14.7969" fill="none" stroke="black"/>
<path d="M545.857,437.525h 7.39843" fill="none" stroke="black"/>
<path d="M545.857,427.436h 7.39843" fill="none" stroke="black"/>
<path d="M545.857,417.346h 7.39843" fill="none" stroke="black"/>
<path d="M545.857,407.256h 7.39843" fill="none" stroke="black"/>
<path d="M538.459,397.167h 14.7969" fill="none" stroke="black"/>
<path d="M545.857,387.077h 7.39843" fill="none" stroke="black"/>
<path d="M545.857,376.987h 7.39843" fill="none" stroke="black"/>
<path d="M545.857,366.898h 7.39843" fill="none" stroke="black"/>
<path d="M545.857,356.808h 7.39843" fill="none" stroke="black"/>
<path d="M538.459,346.718h 14.7969" fill="none" stroke="black"/>
<path d="M545.857,336.628h 7.39843" fill="none" stroke="black"/>
<path d="M545.857,326.539h 7.39843" fill="none" stroke="black"/>
<path d="M545.857,316.449h 7.39843" fill="none" stroke="black"/>
<path d="M545.857,306.359h 7.39843" fill="none" stroke="black"/>
<path d="M538.459,296.27h 14.7969" fill="none" stroke="black"/>
<path d="M545.857,286.18h 7.39843" fill="none" stroke="black"/>
<path d="M545.857,276.09h 7.39843" fill="none" stroke="black"/>
<path d="M545.857,266.001h 7.39843" fill="none" stroke="black"/>
<path d="M545.857,255.911h 7.39843" fill="none" stroke="black"/>
<path d="M538.459,245.821h 14.7969" fill="none" stroke="black"/>
<path d="M545.857,235.732h 7.39843" fill="none" stroke="black"/>
<path d="M545.857,225.642h 7.39843" fill="none" stroke="black"/>
<path d="M545.857,215.552h 7.39843" fill="none" stroke="black"/>
<path d="M545.857,205.462h 7.39843" fill="none" stroke="black"/>
<path d="M538.459,195.373h 14.7969" fill="none" stroke="black"/>
<path d="M545.857,185.283h 7.39843" fill="none" stroke="black"/>
<path d="M545.857,175.193h 7.39843" fill="none" stroke="black"/>
<path d="M545.857,165.104h 7.39843" fill="none" stroke="black"/>
<path d="M545.857,155.014h 7.39843" fill="none" stroke="black"/>
<path d="M538.459,144.924h 14.7969" fill="none" stroke="black"/>
<path d="M545.857,134.835h 7.39843" fill="none" stroke="black"/>
<path d="M545.857,124.745h 7.39843" fill="none" stroke="black"/>
<path d="M545.857,114.655h 7.39843" fill="none" stroke="black"/>
<path d="M545.857,104.565h 7.39843" fill="none" stroke="black"/>
<path d="M538.459,94.4758h 14.7969" fill="none" stroke="black"/>
<path d="M545.857,84.3861h 7.39843" fill="none" stroke="black"/>
<path d="M545.857,74.2964h 7.39843" fill="none" stroke="black"/>
<path d="M545.857,64.2067h 7.39843" fill="none" stroke="black"/>
<path d="M545.857,54.117h 7.39843" fill="none" stroke="black"/>
<path d="M538.459,44.0273h 14.7969" fill="none" stroke="black"/>
<path d="M538.459,44.0273h 14.7969" fill="none" stroke="black"/>
<path d="M545.857,33.9376h 7.39843" fill="none" stroke="black"/>
<path d="M545.857,23.8479h 7.39843" fill="none" stroke="black"/>
<g stroke="#333333" stroke-width="2" fill="none">
<circle cx="282.098" cy="331.485" r="5.63548"/>
</g>
<g stroke="#333333" stroke-width="2" fill="none">
<circle cx="286.897" cy="331.157" r="5.63548"/>
</g>
<g stroke="#333333" stroke-width="2" fill="none">
<circle cx="291.697" cy="328.548" r="5.63548"/>
</g>
<g stroke="#333333" stroke-width="2" fill="none">
<circle cx="296.496" cy="325.528" r="5.63548"/>
</g>
<g stroke="#333333" stroke-width="2" fill="none">
<circle cx="301.295" cy="323.461" r="5.63548"/>
</g>
<g stroke="#333333" stroke-width="2" fill="none">
<circle cx="306.094" cy="321.875" r="5.63548"/>
</g>
<g stroke="#333333" stroke-width="2" fill="none">
<circle cx="310.894" cy="319.576" r="5.63548"/>
</g>
<g stroke="#333333" stroke-width="2" fill="none">
<circle cx="315.693" cy="317.815" r="5.63548"/>
</g>
<g stroke="#333333" stroke-width="2" fill="none">
<circle cx="320.492" cy="315.17" r="5.63548"/>
</g>
<g stroke="#333333" stroke-width="2" fill="none">
<circle cx="325.291" cy="312.353" r="5.63548"/>
</g>
<g stroke="#333333" stroke-width="2" fill="none">
<circle cx="330.091" cy="309.091" r="5.63548"/>
</g>
<g stroke="#333333" stroke-width="2" fill="none">
<circle cx="334.89" cy="309.521" r="5.63548"/>
</g>
<path d="M128.732,405.663l 0.419935, -0.206553l 0.419935, -0.206553l 0.419935, -0.206553l 0.419935, -0.206553l 0.419935, -0.206553l 0.419935, -0.206553l 0.419935, -0.206553l 0.419935, -0.206553l 0.419935, -0.206553l 0.419935, -0.206553l 0.419935,
 -0.206553l 0.419935, -0.206553l 0.419935, -0.206553l 0.419935, -0.206553l 0.419935, -0.206553l 0.419935, -0.206553l 0.419935, -0.206553l 0.419935, -0.206553l 0.419935, -0.206553l 0.419935, -0.206553l 0.419935, -0.206553l 0.419935, -0.206553l
 0.419935, -0.206553l 0.419935, -0.206553l 0.419935, -0.206553l 0.419935, -0.206553l 0.419935, -0.206553l 0.419935, -0.206553l 0.419935, -0.206553l 0.419935, -0.206553l 0.419935, -0.206553l 0.419935, -0.206553l 0.419935, -0.206553l 0.419935,
 -0.206553l 0.419935, -0.206553l 0.419935, -0.206553l 0.419935, -0.206553l 0.419935, -0.206553l 0.419935, -0.206553l 0.419935, -0.206553l 0.419935, -0.206553l 0.419935, -0.206553l 0.419935, -0.206553l 0.419935, -0.206553l 0.419935, -0.206553l
 0.419935, -0.206553l 0.419935, -0.206553l 0.419935, -0.206553l 0.419935, -0.206553" fill="none" stroke="#33cccc" stroke-width="3"/>
<path d="M149.309,395.542l 0.419935, -0.206553l 0.419935, -0.206553l 0.419935, -0.206553l 0.419935, -0.206553l 0.419935, -0.206553l 0.419935, -0.206553l 0.419935, -0.206553l 0.419935, -0.206553l 0.419935, -0.206553l 0.419935, -0.206553l 0.419935,
 -0.206553l 0.419935, -0.206553l 0.419935, -0.206553l 0.419935, -0.206553l 0.419935, -0.206553l 0.419935, -0.206553l 0.419935, -0.206553l 0.419935, -0.206553l 0.419935, -0.206553l 0.419935, -0.206553l 0.419935, -0.206553l 0.419935, -0.206553l
 0.419935, -0.206553l 0.419935, -0.206553l 0.419935, -0.206553l 0.419935, -0.206553l 0.419935, -0.206553l 0.419935, -0.206553l 0.419935, -0.206553l 0.419935, -0.206553l 0.419935, -0.206553l 0.419935, -0.206553l 0.419935, -0.206553l 0.419935,
 -0.206553l 0.419935, -0.206553l 0.419935, -0.206553l 0.419935, -0.206553l 0.419935, -0.206553l 0.419935, -0.206553l 0.419935, -0.206553l 0.419935, -0.206553l 0.419935, -0.206553l 0.419935, -0.206553l 0.419935, -0.206553l 0.419935, -0.206553l
 0.419935, -0.206553l 0.419935, -0.206553l 0.419935, -0.206553l 0.419935, -0.206553" fill="none" stroke="#33cccc" stroke-width="3"/>
<path d="M169.886,385.421l 0.419935, -0.206553l 0.419935, -0.206553l 0.419935, -0.206553l 0.419935, -0.206553l 0.419935, -0.206553l 0.419935, -0.206553l 0.419935, -0.206553l 0.419935, -0.206553l 0.419935, -0.206553l 0.419935, -0.206553l 0.419935,
 -0.206553l 0.419935, -0.206553l 0.419935, -0.206553l 0.419935, -0.206553l 0.419935, -0.206553l 0.419935, -0.206553l 0.419935, -0.206553l 0.419935, -0.206553l 0.419935, -0.206553l 0.419935, -0.206553l 0.419935, -0.206553l 0.419935, -0.206553l
 0.419935, -0.206553l 0.419935, -0.206553l 0.419935, -0.206553l 0.419935, -0.206553l 0.419935, -0.206553l 0.419935, -0.206553l 0.419935, -0.206553l 0.419935, -0.206553l 0.419935, -0.206553l 0.419935, -0.206553l 0.419935, -0.206553l 0.419935,
 -0.206553l 0.419935, -0.206553l 0.419935, -0.206553l 0.419935, -0.206553l 0.419935, -0.206553l 0.419935, -0.206553l 0.419935, -0.206553l 0.419935, -0.206553l 0.419935, -0.206553l 0.419935, -0.206553l 0.419935, -0.206553l 0.419935, -0.206553l
 0.419935, -0.206553l 0.419935, -0.206553l 0.419935, -0.206553l 0.419935, -0.206553" fill="none" stroke="#33cccc" stroke-width="3"/>
<path d="M190.462,375.3l 0.419935, -0.206553l 0.419935, -0.206553l 0.419935, -0.206553l 0.419935, -0.206553l 0.419935, -0.206553l 0.419935, -0.206553l 0.419935, -0.206553l 0.419935, -0.206553l 0.419935, -0.206553l 0.419935, -0.206553l 0.419935,
 -0.206553l 0.419935, -0.206553l 0.419935, -0.206553l 0.419935, -0.206553l 0.419935, -0.206553l 0.419935, -0.206553l 0.419935, -0.206553l 0.419935, -0.206553l 0.419935, -0.206553l 0.419935, -0.206553l 0.419935, -0.206553l 0.419935, -0.206553l
 0.419935, -0.206553l 0.419935, -0.206553l 0.419935, -0.206553l 0.419935, -0.206553l 0.419935, -0.206553l 0.419935, -0.206553l 0.419935, -0.206553l 0.419935, -0.206553l 0.419935, -0.206553l 0.419935, -0.206553l 0.419935, -0.206553l 0.419935,
 -0.206553l 0.419935, -0.206553l 0.419935, -0.206553l 0.419935, -0.206553l 0.419935, -0.206553l 0.419935, -0.206553l 0.419935, -0.206553l 0.419935, -0.206553l 0.419935, -0.206553l 0.419935, -0.206553l 0.419935, -0.206553l 0.419935, -0.206553l
 0.419935, -0.206553l 0.419935, -0.206553l 0.419935, -0.206553l 0.419935, -0.206553" fill="none" stroke="#33cccc" stroke-width="3"/>
<path d="M211.039,365.179l 0.419935, -0.206553l 0.419935, -0.206553l 0.419935, -0.206553l 0.419935, -0.206553l 0.419935, -0.206553l 0.419935, -0.206553l 0.419935, -0.206553l 0.419935, -0.206553l 0.419935, -0.206553l 0.419935, -0.206553l 0.419935,
 -0.206553l 0.419935, -0.206553l 0.419935, -0.206553l 0.419935, -0.206553l 0.419935, -0.206553l 0.419935, -0.206553l 0.419935, -0.206553l 0.419935, -0.206553l 0.419935, -0.206553l 0.419935, -0.206553l 0.419935, -0.206553l 0.419935, -0.206553l
 0.419935, -0.206553l 0.419935, -0.206553l 0.419935, -0.206553l 0.419935, -0.206553l 0.419935, -0.206553l 0.419935, -0.206553l 0.419935, -0.206553l 0.419935, -0.206553l 0.419935, -0.206553l 0.419935, -0.206553l 0.419935, -0.206553l 0.419935,
 -0.206553l 0.419935, -0.206553l 0.419935, -0.206553l 0.419935, -0.206553l 0.419935, -0.206553l 0.419935, -0.206553l 0.419935, -0.206553l 0.419935, -0.206553l 0.419935, -0.206553l 0.419935, -0.206553l 0.419935, -0.206553l 0.419935, -0.206553l
 0.419935, -0.206553l 0.419935, -0.206553l 0.419935, -0.206553l 0.419935, -0.206553" fill="none" stroke="#33cccc" stroke-width="3"/>
<path d="M231.616,355.058l 0.419935, -0.206553l 0.419935, -0.206553l 0.419935, -0.206553l 0.419935, -0.206553l 0.419935, -0.206553l 0.419935, -0.206553l 0.419935, -0.206553l 0.419935, -0.206553l 0.419935, -0.206553l 0.419935, -0.206553l 0.419935,
 -0.206553l 0.419935, -0.206553l 0.419935, -0.206553l 0.419935, -0.206553l 0.419935, -0.206553l 0.419935, -0.206553l 0.419935, -0.206553l 0.419935, -0.206553l 0.419935, -0.206553l 0.419935, -0.206553l 0.419935, -0.206553l 0.419935, -0.206553l
 0.419935, -0.206553l 0.419935, -0.206553l 0.419935, -0.206553l 0.419935, -0.206553l 0.419935, -0.206553l 0.419935, -0.206553l 0.419935, -0.206553l 0.419935, -0.206553l 0.419935, -0.206553l 0.419935, -0.206553l 0.419935, -0.206553l 0.419935,
 -0.206553l 0.419935, -0.206553l 0.419935, -0.206553l 0.419935, -0.206553l 0.419935, -0.206553l 0.419935, -0.206553l 0.419935, -0.206553l 0.419935, -0.206553l 0.419935, -0.206553l 0.419935, -0.206553l 0.419935, -0.206553l 0.419935, -0.206553l
 0.419935, -0.206553l 0.419935, -0.206553l 0.419935, -0.206553l 0.419935, -0.206553" fill="none" stroke="#33cccc" stroke-width="3"/>
<path d="M252.193,344.937l 0.419935, -0.206553l 0.419935, -0.206553l 0.419935, -0.206553l 0.419935, -0.206553l 0.419935, -0.206553l 0.419935, -0.206553l 0.419935, -0.206553l 0.419935, -0.206553l 0.419935, -0.206553l 0.419935, -0.206553l 0.419935,
 -0.206553l 0.419935, -0.206553l 0.419935, -0.206553l 0.419935, -0.206553l 0.419935, -0.206553l 0.419935, -0.206553l 0.419935, -0.206553l 0.419935, -0.206553l 0.419935, -0.206553l 0.419935, -0.206553l 0.419935, -0.206553l 0.419935, -0.206553l
 0.419935, -0.206553l 0.419935, -0.206553l 0.419935, -0.206553l 0.419935, -0.206553l 0.419935, -0.206553l 0.419935, -0.206553l 0.419935, -0.206553l 0.419935, -0.206553l 0.419935, -0.206553l 0.419935, -0.206553l 0.419935, -0.206553l 0.419935,
 -0.206553l 0.419935, -0.206553l 0.419935, -0.206553l 0.419935, -0.206553l 0.419935, -0.206553l 0.419935, -0.206553l 0.419935, -0.206553l 0.419935, -0.206553l 0.419935, -0.206553l 0.419935, -0.206553l 0.419935, -0.206553l 0.419935, -0.206553l
 0.419935, -0.206553l 0.419935, -0.206553l 0.419935, -0.206553l 0.419935, -0.206553" fill="none" stroke="#33cccc" stroke-width="3"/>
<path d="M272.77,334.816l 0.419935, -0.206553l 0.419935, -0.206553l 0.419935, -0.206553l 0.419935, -0.206553l 0.419935, -0.206553l 0.419935, -0.206553l 0.419935, -0.206553l 0.419935, -0.206553l 0.419935, -0.206553l 0.419935, -0.206553l 0.419935,
 -0.206553l 0.419935, -0.206553l 0.419935, -0.206553l 0.419935, -0.206553l 0.419935, -0.206553l 0.419935, -0.206553l 0.419935, -0.206553l 0.419935, -0.206553l 0.419935, -0.206553l 0.419935, -0.206553l 0.419935, -0.206553l 0.419935, -0.206553l
 0.419935, -0.206553l 0.419935, -0.206553l 0.419935, -0.206553l 0.419935, -0.206553l 0.419935, -0.206553l 0.419935, -0.206553l 0.419935, -0.206553l 0.419935, -0.206553l 0.419935, -0.206553l 0.419935, -0.206553l 0.419935, -0.206553l 0.419935,
 -0.206553l 0.419935, -0.206553l 0.419935, -0.206553l 0.419935, -0.206553l 0.419935, -0.206553l 0.419935, -0.206553l 0.419935, -0.206553l 0.419935, -0.206553l 0.419935, -0.206553l 0.419935, -0.206553l 0.419935, -0.206553l 0.419935, -0.206553l
 0.419935, -0.206553l 0.419935, -0.206553l 0.419935, -0.206553l 0.419935, -0.206553" fill="none" stroke="#33cccc" stroke-width="3"/>
<path d="M293.346,324.695l 0.419935, -0.206553l 0.419935, -0.206553l 0.419935, -0.206553l 0.419935, -0.206553l 0.419935, -0.206553l 0.419935, -0.206553l 0.419935, -0.206553l 0.419935, -0.206553l 0.419935, -0.206553l 0.419935, -0.206553l 0.419935,
 -0.206553l 0.419935, -0.206553l 0.419935, -0.206553l 0.419935, -0.206553l 0.419935, -0.206553l 0.419935, -0.206553l 0.419935, -0.206553l 0.419935, -0.206553l 0.419935, -0.206553l 0.419935, -0.206553l 0.419935, -0.206553l 0.419935, -0.206553l
 0.419935, -0.206553l 0.419935, -0.206553l 0.419935, -0.206553l 0.419935, -0.206553l 0.419935, -0.206553l 0.419935, -0.206553l 0.419935, -0.206553l 0.419935, -0.206553l 0.419935, -0.206553l 0.419935, -0.206553l 0.419935, -0.206553l 0.419935,
 -0.206553l 0.419935, -0.206553l 0.419935, -0.206553l 0.419935, -0.206553l 0.419935, -0.206553l 0.419935, -0.206553l 0.419935, -0.206553l 0.419935, -0.206553l 0.419935, -0.206553l 0.419935, -0.206553l 0.419935, -0.206553l 0.419935, -0.206553l
 0.419935, -0.206553l 0.419935, -0.206553l 0.419935, -0.206553l 0.419935, -0.206553" fill="none" stroke="#33cccc" stroke-width="3"/>
<path d="M313.923,314.574l 0.419935, -0.206553l 0.419935, -0.206553l 0.419935, -0.206553l 0.419935, -0.206553l 0.419935, -0.206553l 0.419935, -0.206553l 0.419935, -0.206553l 0.419935, -0.206553l 0.419935, -0.206553l 0.419935, -0.206553l 0.419935,
 -0.206553l 0.419935, -0.206553l 0.419935, -0.206553l 0.419935, -0.206553l 0.419935, -0.206553l 0.419935, -0.206553l 0.419935, -0.206553l 0.419935, -0.206553l 0.419935, -0.206553l 0.419935, -0.206553l 0.419935, -0.206553l 0.419935, -0.206553l
 0.419935, -0.206553l 0.419935, -0.206553l 0.419935, -0.206553l 0.419935, -0.206553l 0.419935, -0.206553l 0.419935, -0.206553l 0.419935, -0.206553l 0.419935, -0.206553l 0.419935, -0.206553l 0.419935, -0.206553l 0.419935, -0.206553l 0.419935,
 -0.206553l 0.419935, -0.206553l 0.419935, -0.206553l 0.419935, -0.206553l 0.419935, -0.206553l 0.419935, -0.206553l 0.419935, -0.206553l 0.419935, -0.206553l 0.419935, -0.206553l 0.419935, -0.206553l 0.419935, -0.206553l 0.419935, -0.206553l
 0.419935, -0.206553l 0.419935, -0.206553l 0.419935, -0.206553l 0.419935, -0.206553" fill="none" stroke="#33cccc" stroke-width="3"/>
<path d="M334.5,304.453l 0.419935, -0.206553l 0.419935, -0.206553l 0.419935, -0.206553l 0.419935, -0.206553l 0.419935, -0.206553l 0.419935, -0.206553l 0.419935, -0.206553l 0.419935, -0.206553l 0.419935, -0.206553l 0.419935, -0.206553l 0.419935,
 -0.206553l 0.419935, -0.206553l 0.419935, -0.206553l 0.419935, -0.206553l 0.419935, -0.206553l 0.419935, -0.206553l 0.419935, -0.206553l 0.419935, -0.206553l 0.419935, -0.206553l 0.419935, -0.206553l 0.419935, -0.206553l 0.419935, -0.206553l
 0.419935, -0.206553l 0.419935, -0.206553l 0.419935, -0.206553l 0.419935, -0.206553l 0.419935, -0.206553l 0.419935, -0.206553l 0.419935, -0.206553l 0.419935, -0.206553l 0.419935, -0.206553l 0.419935, -0.206553l 0.419935, -0.206553l 0.419935,
 -0.206553l 0.419935, -0.206553l 0.419935, -0.206553l 0.419935, -0.206553l 0.419935, -0.206553l 0.419935, -0.206553l 0.419935, -0.206553l 0.419935, -0.206553l 0.419935, -0.206553l 0.419935, -0.206553l 0.419935, -0.206553l 0.419935, -0.206553l
 0.419935, -0.206553l 0.419935, -0.206553l 0.419935, -0.206553l 0.419935, -0.206553" fill="none" stroke="#33cccc" stroke-width="3"/>
<path d="M355.077,294.331l 0.419935, -0.206553l 0.419935, -0.206553l 0.419935, -0.206553l 0.419935, -0.206553l 0.419935, -0.206553l 0.419935, -0.206553l 0.419935, -0.206553l 0.419935, -0.206553l 0.419935, -0.206553l 0.419935, -0.206553l 0.419935,
 -0.206553l 0.419935, -0.206553l 0.419935, -0.206553l 0.419935, -0.206553l 0.419935, -0.206553l 0.419935, -0.206553l 0.419935, -0.206553l 0.419935, -0.206553l 0.419935, -0.206553l 0.419935, -0.206553l 0.419935, -0.206553l 0.419935, -0.206553l
 0.419935, -0.206553l 0.419935, -0.206553l 0.419935, -0.206553l 0.419935, -0.206553l 0.419935, -0.206553l 0.419935, -0.206553l 0.419935, -0.206553l 0.419935, -0.206553l 0.419935, -0.206553l 0.419935, -0.206553l 0.419935, -0.206553l 0.419935,
 -0.206553l 0.419935, -0.206553l 0.419935, -0.206553l 0.419935, -0.206553l 0.419935, -0.206553l 0.419935, -0.206553l 0.419935, -0.206553l 0.419935, -0.206553l 0.419935, -0.206553l 0.419935, -0.206553l 0.419935, -0.206553l 0.419935, -0.206553l
 0.419935, -0.206553l 0.419935, -0.206553l 0.419935, -0.206553l 0.419935, -0.206553" fill="none" stroke="#33cccc" stroke-width="3"/>
<path d="M375.654,284.21l 0.419935, -0.206553l 0.419935, -0.206553l 0.419935, -0.206553l 0.419935, -0.206553l 0.419935, -0.206553l 0.419935, -0.206553l 0.419935, -0.206553l 0.419935, -0.206553l 0.419935, -0.206553l 0.419935, -0.206553l 0.419935,
 -0.206553l 0.419935, -0.206553l 0.419935, -0.206553l 0.419935, -0.206553l 0.419935, -0.206553l 0.419935, -0.206553l 0.419935, -0.206553l 0.419935, -0.206553l 0.419935, -0.206553l 0.419935, -0.206553l 0.419935, -0.206553l 0.419935, -0.206553l
 0.419935, -0.206553l 0.419935, -0.206553l 0.419935, -0.206553l 0.419935, -0.206553l 0.419935, -0.206553l 0.419935, -0.206553l 0.419935, -0.206553l 0.419935, -0.206553l 0.419935, -0.206553l 0.419935, -0.206553l 0.419935, -0.206553l 0.419935,
 -0.206553l 0.419935, -0.206553l 0.419935, -0.206553l 0.419935, -0.206553l 0.419935, -0.206553l 0.419935, -0.206553l 0.419935, -0.206553l 0.419935, -0.206553l 0.419935, -0.206553l 0.419935, -0.206553l 0.419935, -0.206553l 0.419935, -0.206553l
 0.419935, -0.206553l 0.419935, -0.206553l 0.419935, -0.206553l 0.419935, -0.206553" fill="none" stroke="#33cccc" stroke-width="3"/>
<path d="M396.23,274.089l 0.419935, -0.206553l 0.419935, -0.206553l 0.419935, -0.206553l 0.419935, -0.206553l 0.419935, -0.206553l 0.419935, -0.206553l 0.419935, -0.206553l 0.419935, -0.206553l 0.419935, -0.206553l 0.419935, -0.206553l 0.419935,
 -0.206553l 0.419935, -0.206553l 0.419935, -0.206553l 0.419935, -0.206553l 0.419935, -0.206553l 0.419935, -0.206553l 0.419935, -0.206553l 0.419935, -0.206553l 0.419935, -0.206553l 0.419935, -0.206553l 0.419935, -0.206553l 0.419935, -0.206553l
 0.419935, -0.206553l 0.419935, -0.206553l 0.419935, -0.206553l 0.419935, -0.206553l 0.419935, -0.206553l 0.419935, -0.206553l 0.419935, -0.206553l 0.419935, -0.206553l 0.419935, -0.206553l 0.419935, -0.206553l 0.419935, -0.206553l 0.419935,
 -0.206553l 0.419935, -0.206553l 0.419935, -0.206553l 0.419935, -0.206553l 0.419935, -0.206553l 0.419935, -0.206553l 0.419935, -0.206553l 0.419935, -0.206553l 0.419935, -0.206553l 0.419935, -0.206553l 0.419935, -0.206553l 0.419935, -0.206553l
 0.419935, -0.206553l 0.419935, -0.206553l 0.419935, -0.206553l 0.419935, -0.206553" fill="none" stroke="#33cccc" stroke-width="3"/>
<path d="M416.807,263.968l 0.419935, -0.206553l 0.419935, -0.206553l 0.419935, -0.206553l 0.419935, -0.206553l 0.419935, -0.206553l 0.419935, -0.206553l 0.419935, -0.206553l 0.419935, -0.206553l 0.419935, -0.206553l 0.419935, -0.206553l 0.419935,
 -0.206553l 0.419935, -0.206553l 0.419935, -0.206553l 0.419935, -0.206553l 0.419935, -0.206553l 0.419935, -0.206553l 0.419935, -0.206553l 0.419935, -0.206553l 0.419935, -0.206553l 0.419935, -0.206553l 0.419935, -0.206553l 0.419935, -0.206553l
 0.419935, -0.206553l 0.419935, -0.206553l 0.419935, -0.206553l 0.419935, -0.206553l 0.419935, -0.206553l 0.419935, -0.206553l 0.419935, -0.206553l 0.419935, -0.206553l 0.419935, -0.206553l 0.419935, -0.206553l 0.419935, -0.206553l 0.419935,
 -0.206553l 0.419935, -0.206553l 0.419935, -0.206553l 0.419935, -0.206553l 0.419935, -0.206553l 0.419935, -0.206553l 0.419935, -0.206553l 0.419935, -0.206553l 0.419935, -0.206553l 0.419935, -0.206553l 0.419935, -0.206553l 0.419935, -0.206553l
 0.419935, -0.206553l 0.419935, -0.206553l 0.419935, -0.206553l 0.419935, -0.206553" fill="none" stroke="#33cccc" stroke-width="3"/>
<path d="M437.384,253.847l 0.419935, -0.206553l 0.419935, -0.206553l 0.419935, -0.206553l 0.419935, -0.206553l 0.419935, -0.206553l 0.419935, -0.206553l 0.419935, -0.206553l 0.419935, -0.206553l 0.419935, -0.206553l 0.419935, -0.206553l 0.419935,
 -0.206553l 0.419935, -0.206553l 0.419935, -0.206553l 0.419935, -0.206553l 0.419935, -0.206553l 0.419935, -0.206553l 0.419935, -0.206553l 0.419935, -0.206553l 0.419935, -0.206553l 0.419935, -0.206553l 0.419935, -0.206553l 0.419935, -0.206553l
 0.419935, -0.206553l 0.419935, -0.206553l 0.419935, -0.206553l 0.419935, -0.206553l 0.419935, -0.206553l 0.419935, -0.206553l 0.419935, -0.206553l 0.419935, -0.206553l 0.419935, -0.206553l 0.419935, -0.206553l 0.419935, -0.206553l 0.419935,
 -0.206553l 0.419935, -0.206553l 0.419935, -0.206553l 0.419935, -0.206553l 0.419935, -0.206553l 0.419935, -0.206553l 0.419935, -0.206553l 0.419935, -0.206553l 0.419935, -0.206553l 0.419935, -0.206553l 0.419935, -0.206553l 0.419935, -0.206553l
 0.419935, -0.206553l 0.419935, -0.206553l 0.419935, -0.206553l 0.419935, -0.206553" fill="none" stroke="#33cccc" stroke-width="3"/>
<path d="M457.961,243.726l 0.419935, -0.206553l 0.419935, -0.206553l 0.419935, -0.206553l 0.419935, -0.206553l 0.419935, -0.206553l 0.419935, -0.206553l 0.419935, -0.206553l 0.419935, -0.206553l 0.419935, -0.206553l 0.419935, -0.206553l 0.419935,
 -0.206553l 0.419935, -0.206553l 0.419935, -0.206553l 0.419935, -0.206553l 0.419935, -0.206553l 0.419935, -0.206553l 0.419935, -0.206553l 0.419935, -0.206553l 0.419935, -0.206553l 0.419935, -0.206553l 0.419935, -0.206553l 0.419935, -0.206553l
 0.419935, -0.206553l 0.419935, -0.206553l 0.419935, -0.206553l 0.419935, -0.206553l 0.419935, -0.206553l 0.419935, -0.206553l 0.419935, -0.206553l 0.419935, -0.206553l 0.419935, -0.206553l 0.419935, -0.206553l 0.419935, -0.206553l 0.419935,
 -0.206553l 0.419935, -0.206553l 0.419935, -0.206553l 0.419935, -0.206553l 0.419935, -0.206553l 0.419935, -0.206553l 0.419935, -0.206553l 0.419935, -0.206553l 0.419935, -0.206553l 0.419935, -0.206553l 0.419935, -0.206553l 0.419935, -0.206553l
 0.419935, -0.206553l 0.419935, -0.206553l 0.419935, -0.206553l 0.419935, -0.206553" fill="none" stroke="#33cccc" stroke-width="3"/>
<path d="M478.538,233.605l 0.419935, -0.206553l 0.419935, -0.206553l 0.419935, -0.206553l 0.419935, -0.206553l 0.419935, -0.206553l 0.419935, -0.206553l 0.419935, -0.206553l 0.419935, -0.206553l 0.419935, -0.206553l 0.419935, -0.206553l 0.419935,
 -0.206553l 0.419935, -0.206553l 0.419935, -0.206553l 0.419935, -0.206553l 0.419935, -0.206553l 0.419935, -0.206553l 0.419935, -0.206553l 0.419935, -0.206553l 0.419935, -0.206553l 0.419935, -0.206553l 0.419935, -0.206553l 0.419935, -0.206553l
 0.419935, -0.206553l 0.419935, -0.206553l 0.419935, -0.206553l 0.419935, -0.206553l 0.419935, -0.206553l 0.419935, -0.206553l 0.419935, -0.206553l 0.419935, -0.206553l 0.419935, -0.206553l 0.419935, -0.206553l 0.419935, -0.206553l 0.419935,
 -0.206553l 0.419935, -0.206553l 0.419935, -0.206553l 0.419935, -0.206553l 0.419935, -0.206553l 0.419935, -0.206553l 0.419935, -0.206553l 0.419935, -0.206553l 0.419935, -0.206553l 0.419935, -0.206553l 0.419935, -0.206553l 0.419935, -0.206553l
 0.419935, -0.206553l 0.419935, -0.206553l 0.419935, -0.206553l 0.419935, -0.206553" fill="none" stroke="#33cccc" stroke-width="3"/>
<path d="M499.114,223.484l 0.419935, -0.206553l 0.419935, -0.206553l 0.419935, -0.206553l 0.419935, -0.206553l 0.419935, -0.206553l 0.419935, -0.206553l 0.419935, -0.206553l 0.419935, -0.206553l 0.419935, -0.206553l 0.419935, -0.206553l 0.419935,
 -0.206553l 0.419935, -0.206553l 0.419935, -0.206553l 0.419935, -0.206553l 0.419935, -0.206553l 0.419935, -0.206553l 0.419935, -0.206553l 0.419935, -0.206553l 0.419935, -0.206553l 0.419935, -0.206553l 0.419935, -0.206553l 0.419935, -0.206553l
 0.419935, -0.206553l 0.419935, -0.206553l 0.419935, -0.206553l 0.419935, -0.206553l 0.419935, -0.206553l 0.419935, -0.206553l 0.419935, -0.206553l 0.419935, -0.206553l 0.419935, -0.206553l 0.419935, -0.206553l 0.419935, -0.206553l 0.419935,
 -0.206553l 0.419935, -0.206553l 0.419935, -0.206553l 0.419935, -0.206553l 0.419935, -0.206553l 0.419935, -0.206553l 0.419935, -0.206553l 0.419935, -0.206553l 0.419935, -0.206553l 0.419935, -0.206553l 0.419935, -0.206553l 0.419935, -0.206553l
 0.419935, -0.206553l 0.419935, -0.206553l 0.419935, -0.206553l 0.419935, -0.206553" fill="none" stroke="#33cccc" stroke-width="3"/>
<path d="M519.691,213.363l 0.419935, -0.206553l 0.419935, -0.206553l 0.419935, -0.206553l 0.419935, -0.206553l 0.419935, -0.206553l 0.419935, -0.206553l 0.419935, -0.206553l 0.419935, -0.206553l 0.419935, -0.206553l 0.419935, -0.206553l 0.419935,
 -0.206553l 0.419935, -0.206553l 0.419935, -0.206553l 0.419935, -0.206553l 0.419935, -0.206553l 0.419935, -0.206553l 0.419935, -0.206553l 0.419935, -0.206553l 0.419935, -0.206553l 0.419935, -0.206553l 0.419935, -0.206553l 0.419935, -0.206553l
 0.419935, -0.206553l 0.419935, -0.206553l 0.419935, -0.206553l 0.419935, -0.206553l 0.419935, -0.206553l 0.419935, -0.206553l 0.419935, -0.206553l 0.419935, -0.206553l 0.419935, -0.206553l 0.419935, -0.206553l 0.419935, -0.206553l 0.419935,
 -0.206553l 0.419935, -0.206553l 0.419935, -0.206553l 0.419935, -0.206553l 0.419935, -0.206553l 0.419935, -0.206553l 0.419935, -0.206553l 0.419935, -0.206553l 0.419935, -0.206553l 0.419935, -0.206553l 0.419935, -0.206553l 0.419935, -0.206553l
 0.419935, -0.206553l 0.419935, -0.206553l 0.419935, -0.206553l 0.419935, -0.206553" fill="none" stroke="#33cccc" stroke-width="3"/>
<path d="M540.268,203.242l 0.419935, -0.206553l 0.419935, -0.206553l 0.419935, -0.206553l 0.419935, -0.206553l 0.419935, -0.206553l 0.419935, -0.206553l 0.419935, -0.206553l 0.419935, -0.206553l 0.419935, -0.206553l 0.419935, -0.206553l 0.419935,
 -0.206553l 0.419935, -0.206553l 0.419935, -0.206553l 0.419935, -0.206553l 0.419935, -0.206553l 0.419935, -0.206553l 0.419935, -0.206553l 0.419935, -0.206553l 0.419935, -0.206553" fill="none" stroke="#33cccc" stroke-width="3"/>
<path d="M128.732,376.199l 0.419935, -0.0682882l 0.419935, -0.0685813l 0.419935, -0.0688744l 0.419935, -0.0691675l 0.419935, -0.0694606l 0.419935, -0.0697537l 0.419935, -0.0700468l 0.419935, -0.0703399l 0.419935, -0.0706329l 0.419935, -0.070926l
 0.419935, -0.0712191l 0.419935, -0.0715122l 0.419935, -0.0718053l 0.419935, -0.0720984l 0.419935, -0.0723915l 0.419935, -0.0726846l 0.419935, -0.0729777l 0.419935, -0.0732708l 0.419935, -0.0735639l 0.419935, -0.073857l 0.419935, -0.0741501l
 0.419935, -0.0744432l 0.419935, -0.0747363l 0.419935, -0.0750294l 0.419935, -0.0753225l 0.419935, -0.0756156l 0.419935, -0.0759087l 0.419935, -0.0762018l 0.419935, -0.0764949l 0.419935, -0.076788l 0.419935, -0.0770811l 0.419935, -0.0773742l
 0.419935, -0.0776673l 0.419935, -0.0779604l 0.419935, -0.0782535l 0.419935, -0.0785466l 0.419935, -0.0788397l 0.419935, -0.0791328l 0.419935, -0.0794259l 0.419935, -0.079719l 0.419935, -0.0800121l 0.419935, -0.0803052l 0.419935, -0.0805983l
 0.419935, -0.0808913l 0.419935, -0.0811844l 0.419935, -0.0814775l 0.419935, -0.0817706l 0.419935, -0.0820637l 0.419935, -0.0823568" fill="none" stroke="#ff0066" stroke-width="3"/>
<path d="M149.309,372.508l 0.419935, -0.0826499l 0.419935, -0.082943l 0.419935, -0.0832361l 0.419935, -0.0835292l 0.419935, -0.0838223l 0.419935, -0.0841154l 0.419935, -0.0844085l 0.419935, -0.0847016l 0.419935, -0.0849947l 0.419935, -0.0852878l
 0.419935, -0.0855809l 0.419935, -0.085874l 0.419935, -0.0861671l 0.419935, -0.0864602l 0.419935, -0.0867533l 0.419935, -0.0870464l 0.419935, -0.0873395l 0.419935, -0.0876326l 0.419935, -0.0879257l 0.419935, -0.0882188l 0.419935, -0.0885119l
 0.419935, -0.088805l 0.419935, -0.0890981l 0.419935, -0.0893912l 0.419935, -0.0896843l 0.419935, -0.0899774l 0.419935, -0.0902705l 0.419935, -0.0905636l 0.419935, -0.0908566l 0.419935, -0.0911497l 0.419935, -0.0914428l 0.419935, -0.0917359l
 0.419935, -0.092029l 0.419935, -0.0923221l 0.419935, -0.0926152l 0.419935, -0.0929083l 0.419935, -0.0932014l 0.419935, -0.0934945l 0.419935, -0.0937876l 0.419935, -0.0940807l 0.419935, -0.0943738l 0.419935, -0.0946669l 0.419935, -0.09496l 0.419935,
 -0.0952531l 0.419935, -0.0955462l 0.419935, -0.0958393l 0.419935, -0.0961324l 0.419935, -0.0964255l 0.419935, -0.0967186" fill="none" stroke="#ff0066" stroke-width="3"/>
<path d="M169.886,368.114l 0.419935, -0.0970117l 0.419935, -0.0973048l 0.419935, -0.0975979l 0.419935, -0.097891l 0.419935, -0.0981841l 0.419935, -0.0984772l 0.419935, -0.0987703l 0.419935, -0.0990634l 0.419935, -0.0993565l 0.419935, -0.0996496l
 0.419935, -0.0999427l 0.419935, -0.100236l 0.419935, -0.100529l 0.419935, -0.100822l 0.419935, -0.101115l 0.419935, -0.101408l 0.419935, -0.101701l 0.419935, -0.101994l 0.419935, -0.102287l 0.419935, -0.102581l 0.419935, -0.102874l 0.419935,
 -0.103167l 0.419935, -0.10346l 0.419935, -0.103753l 0.419935, -0.104046l 0.419935, -0.104339l 0.419935, -0.104632l 0.419935, -0.104925l 0.419935, -0.105218l 0.419935, -0.105512l 0.419935, -0.105805l 0.419935, -0.106098l 0.419935, -0.106391l
 0.419935, -0.106684l 0.419935, -0.106977l 0.419935, -0.10727l 0.419935, -0.107563l 0.419935, -0.107856l 0.419935, -0.108149l 0.419935, -0.108442l 0.419935, -0.108736l 0.419935, -0.109029l 0.419935, -0.109322l 0.419935, -0.109615l 0.419935,
 -0.109908l 0.419935, -0.110201l 0.419935, -0.110494l 0.419935, -0.110787l 0.419935, -0.11108" fill="none" stroke="#ff0066" stroke-width="3"/>
<path d="M190.462,363.015l 0.419935, -0.111373l 0.419935, -0.111667l 0.419935, -0.11196l 0.419935, -0.112253l 0.419935, -0.112546l 0.419935, -0.112839l 0.419935, -0.113132l 0.419935, -0.113425l 0.419935, -0.113718l 0.419935, -0.114011l 0.419935,
 -0.114304l 0.419935, -0.114598l 0.419935, -0.114891l 0.419935, -0.115184l 0.419935, -0.115477l 0.419935, -0.11577l 0.419935, -0.116063l 0.419935, -0.116356l 0.419935, -0.116649l 0.419935, -0.116942l 0.419935, -0.117235l 0.419935, -0.117528l
 0.419935, -0.117822l 0.419935, -0.118115l 0.419935, -0.118408l 0.419935, -0.118701l 0.419935, -0.118994l 0.419935, -0.119287l 0.419935, -0.11958l 0.419935, -0.119873l 0.419935, -0.120166l 0.419935, -0.120459l 0.419935, -0.120753l 0.419935,
 -0.121046l 0.419935, -0.121339l 0.419935, -0.121632l 0.419935, -0.121925l 0.419935, -0.122218l 0.419935, -0.122511l 0.419935, -0.122804l 0.419935, -0.123097l 0.419935, -0.12339l 0.419935, -0.123684l 0.419935, -0.123977l 0.419935, -0.12427l 0.419935,
 -0.124563l 0.419935, -0.124856l 0.419935, -0.125149l 0.419935, -0.125442" fill="none" stroke="#ff0066" stroke-width="3"/>
<path d="M211.039,357.213l 0.419935, -0.125735l 0.419935, -0.126028l 0.419935, -0.126321l 0.419935, -0.126614l 0.419935, -0.126908l 0.419935, -0.127201l 0.419935, -0.127494l 0.419935, -0.127787l 0.419935, -0.12808l 0.419935, -0.128373l 0.419935,
 -0.128666l 0.419935, -0.128959l 0.419935, -0.129252l 0.419935, -0.129545l 0.419935, -0.129839l 0.419935, -0.130132l 0.419935, -0.130425l 0.419935, -0.130718l 0.419935, -0.131011l 0.419935, -0.131304l 0.419935, -0.131597l 0.419935, -0.13189l
 0.419935, -0.132183l 0.419935, -0.132476l 0.419935, -0.13277l 0.419935, -0.133063l 0.419935, -0.133356l 0.419935, -0.133649l 0.419935, -0.133942l 0.419935, -0.134235l 0.419935, -0.134528l 0.419935, -0.134821l 0.419935, -0.135114l 0.419935,
 -0.135407l 0.419935, -0.1357l 0.419935, -0.135994l 0.419935, -0.136287l 0.419935, -0.13658l 0.419935, -0.136873l 0.419935, -0.137166l 0.419935, -0.137459l 0.419935, -0.137752l 0.419935, -0.138045l 0.419935, -0.138338l 0.419935, -0.138631l 0.419935,
 -0.138925l 0.419935, -0.139218l 0.419935, -0.139511l 0.419935, -0.139804" fill="none" stroke="#ff0066" stroke-width="3"/>
<path d="M231.616,350.708l 0.419935, -0.140097l 0.419935, -0.14039l 0.419935, -0.140683l 0.419935, -0.140976l 0.419935, -0.141269l 0.419935, -0.141562l 0.419935, -0.141856l 0.419935, -0.142149l 0.419935, -0.142442l 0.419935, -0.142735l 0.419935,
 -0.143028l 0.419935, -0.143321l 0.419935, -0.143614l 0.419935, -0.143907l 0.419935, -0.1442l 0.419935, -0.144493l 0.419935, -0.144787l 0.419935, -0.14508l 0.419935, -0.145373l 0.419935, -0.145666l 0.419935, -0.145959l 0.419935, -0.146252l 0.419935,
 -0.146545l 0.419935, -0.146838l 0.419935, -0.147131l 0.419935, -0.147424l 0.419935, -0.147717l 0.419935, -0.148011l 0.419935, -0.148304l 0.419935, -0.148597l 0.419935, -0.14889l 0.419935, -0.149183l 0.419935, -0.149476l 0.419935, -0.149769l
 0.419935, -0.150062l 0.419935, -0.150355l 0.419935, -0.150648l 0.419935, -0.150942l 0.419935, -0.151235l 0.419935, -0.151528l 0.419935, -0.151821l 0.419935, -0.152114l 0.419935, -0.152407l 0.419935, -0.1527l 0.419935, -0.152993l 0.419935, -0.153286l
 0.419935, -0.153579l 0.419935, -0.153873l 0.419935, -0.154166" fill="none" stroke="#ff0066" stroke-width="3"/>
<path d="M252.193,343.498l 0.419935, -0.154459l 0.419935, -0.154752l 0.419935, -0.155045l 0.419935, -0.155338l 0.419935, -0.155631l 0.419935, -0.155924l 0.419935, -0.156217l 0.419935, -0.15651l 0.419935, -0.156803l 0.419935, -0.157097l 0.419935,
 -0.15739l 0.419935, -0.157683l 0.419935, -0.157976l 0.419935, -0.158269l 0.419935, -0.158562l 0.419935, -0.158855l 0.419935, -0.159148l 0.419935, -0.159441l 0.419935, -0.159734l 0.419935, -0.160028l 0.419935, -0.160321l 0.419935, -0.160614l
 0.419935, -0.160907l 0.419935, -0.1612l 0.419935, -0.161493l 0.419935, -0.161786l 0.419935, -0.162079l 0.419935, -0.162372l 0.419935, -0.162665l 0.419935, -0.162959l 0.419935, -0.163252l 0.419935, -0.163545l 0.419935, -0.163838l 0.419935, -0.164131l
 0.419935, -0.164424l 0.419935, -0.164717l 0.419935, -0.16501l 0.419935, -0.165303l 0.419935, -0.165596l 0.419935, -0.16589l 0.419935, -0.166183l 0.419935, -0.166476l 0.419935, -0.166769l 0.419935, -0.167062l 0.419935, -0.167355l 0.419935, -0.167648l
 0.419935, -0.167941l 0.419935, -0.168234l 0.419935, -0.168527" fill="none" stroke="#ff0066" stroke-width="3"/>
<path d="M272.77,335.585l 0.419935, -0.16882l 0.419935, -0.169114l 0.419935, -0.169407l 0.419935, -0.1697l 0.419935, -0.169993l 0.419935, -0.170286l 0.419935, -0.170579l 0.419935, -0.170872l 0.419935, -0.171165l 0.419935, -0.171458l 0.419935,
 -0.171751l 0.419935, -0.172045l 0.419935, -0.172338l 0.419935, -0.172631l 0.419935, -0.172924l 0.419935, -0.173217l 0.419935, -0.17351l 0.419935, -0.173803l 0.419935, -0.174096l 0.419935, -0.174389l 0.419935, -0.174682l 0.419935, -0.174976l
 0.419935, -0.175269l 0.419935, -0.175562l 0.419935, -0.175855l 0.419935, -0.176148l 0.419935, -0.176441l 0.419935, -0.176734l 0.419935, -0.177027l 0.419935, -0.17732l 0.419935, -0.177613l 0.419935, -0.177906l 0.419935, -0.1782l 0.419935, -0.178493l
 0.419935, -0.178786l 0.419935, -0.179079l 0.419935, -0.179372l 0.419935, -0.179665l 0.419935, -0.179958l 0.419935, -0.180251l 0.419935, -0.180544l 0.419935, -0.180837l 0.419935, -0.181131l 0.419935, -0.181424l 0.419935, -0.181717l 0.419935,
 -0.18201l 0.419935, -0.182303l 0.419935, -0.182596l 0.419935, -0.182889" fill="none" stroke="#ff0066" stroke-width="3"/>
<path d="M293.346,326.968l 0.419935, -0.183182l 0.419935, -0.183475l 0.419935, -0.183768l 0.419935, -0.184062l 0.419935, -0.184355l 0.419935, -0.184648l 0.419935, -0.184941l 0.419935, -0.185234l 0.419935, -0.185527l 0.419935, -0.18582l 0.419935,
 -0.186113l 0.419935, -0.186406l 0.419935, -0.186699l 0.419935, -0.186992l 0.419935, -0.187286l 0.419935, -0.187579l 0.419935, -0.187872l 0.419935, -0.188165l 0.419935, -0.188458l 0.419935, -0.188751l 0.419935, -0.189044l 0.419935, -0.189337l
 0.419935, -0.18963l 0.419935, -0.189923l 0.419935, -0.190217l 0.419935, -0.19051l 0.419935, -0.190803l 0.419935, -0.191096l 0.419935, -0.191389l 0.419935, -0.191682l 0.419935, -0.191975l 0.419935, -0.192268l 0.419935, -0.192561l 0.419935, -0.192854l
 0.419935, -0.193148l 0.419935, -0.193441l 0.419935, -0.193734l 0.419935, -0.194027l 0.419935, -0.19432l 0.419935, -0.194613l 0.419935, -0.194906l 0.419935, -0.195199l 0.419935, -0.195492l 0.419935, -0.195785l 0.419935, -0.196078l 0.419935,
 -0.196372l 0.419935, -0.196665l 0.419935, -0.196958l 0.419935, -0.197251" fill="none" stroke="#ff0066" stroke-width="3"/>
<path d="M313.923,317.648l 0.419935, -0.197544l 0.419935, -0.197837l 0.419935, -0.19813l 0.419935, -0.198423l 0.419935, -0.198716l 0.419935, -0.199009l 0.419935, -0.199303l 0.419935, -0.199596l 0.419935, -0.199889l 0.419935, -0.200182l 0.419935,
 -0.200475l 0.419935, -0.200768l 0.419935, -0.201061l 0.419935, -0.201354l 0.419935, -0.201647l 0.419935, -0.20194l 0.419935, -0.202234l 0.419935, -0.202527l 0.419935, -0.20282l 0.419935, -0.203113l 0.419935, -0.203406l 0.419935, -0.203699l 0.419935,
 -0.203992l 0.419935, -0.204285l 0.419935, -0.204578l 0.419935, -0.204871l 0.419935, -0.205165l 0.419935, -0.205458l 0.419935, -0.205751l 0.419935, -0.206044l 0.419935, -0.206337l 0.419935, -0.20663l 0.419935, -0.206923l 0.419935, -0.207216l
 0.419935, -0.207509l 0.419935, -0.207802l 0.419935, -0.208095l 0.419935, -0.208389l 0.419935, -0.208682l 0.419935, -0.208975l 0.419935, -0.209268l 0.419935, -0.209561l 0.419935, -0.209854l 0.419935, -0.210147l 0.419935, -0.21044l 0.419935,
 -0.210733l 0.419935, -0.211026l 0.419935, -0.21132l 0.419935, -0.211613" fill="none" stroke="#ff0066" stroke-width="3"/>
<path d="M334.5,307.623l 0.419935, -0.211906l 0.419935, -0.212199l 0.419935, -0.212492l 0.419935, -0.212785l 0.419935, -0.213078l 0.419935, -0.213371l 0.419935, -0.213664l 0.419935, -0.213957l 0.419935, -0.214251l 0.419935, -0.214544l 0.419935,
 -0.214837l 0.419935, -0.21513l 0.419935, -0.215423l 0.419935, -0.215716l 0.419935, -0.216009l 0.419935, -0.216302l 0.419935, -0.216595l 0.419935, -0.216888l 0.419935, -0.217181l 0.419935, -0.217475l 0.419935, -0.217768l 0.419935, -0.218061l
 0.419935, -0.218354l 0.419935, -0.218647l 0.419935, -0.21894l 0.419935, -0.219233l 0.419935, -0.219526l 0.419935, -0.219819l 0.419935, -0.220112l 0.419935, -0.220406l 0.419935, -0.220699l 0.419935, -0.220992l 0.419935, -0.221285l 0.419935,
 -0.221578l 0.419935, -0.221871l 0.419935, -0.222164l 0.419935, -0.222457l 0.419935, -0.22275l 0.419935, -0.223043l 0.419935, -0.223337l 0.419935, -0.22363l 0.419935, -0.223923l 0.419935, -0.224216l 0.419935, -0.224509l 0.419935, -0.224802l 0.419935,
 -0.225095l 0.419935, -0.225388l 0.419935, -0.225681l 0.419935, -0.225974" fill="none" stroke="#ff0066" stroke-width="3"/>
<path d="M355.077,296.895l 0.419935, -0.226268l 0.419935, -0.226561l 0.419935, -0.226854l 0.419935, -0.227147l 0.419935, -0.22744l 0.419935, -0.227733l 0.419935, -0.228026l 0.419935, -0.228319l 0.419935, -0.228612l 0.419935, -0.228905l 0.419935,
 -0.229198l 0.419935, -0.229492l 0.419935, -0.229785l 0.419935, -0.230078l 0.419935, -0.230371l 0.419935, -0.230664l 0.419935, -0.230957l 0.419935, -0.23125l 0.419935, -0.231543l 0.419935, -0.231836l 0.419935, -0.232129l 0.419935, -0.232423l
 0.419935, -0.232716l 0.419935, -0.233009l 0.419935, -0.233302l 0.419935, -0.233595l 0.419935, -0.233888l 0.419935, -0.234181l 0.419935, -0.234474l 0.419935, -0.234767l 0.419935, -0.23506l 0.419935, -0.235353l 0.419935, -0.235647l 0.419935, -0.23594l
 0.419935, -0.236233l 0.419935, -0.236526l 0.419935, -0.236819l 0.419935, -0.237112l 0.419935, -0.237405l 0.419935, -0.237698l 0.419935, -0.237991l 0.419935, -0.238284l 0.419935, -0.238578l 0.419935, -0.238871l 0.419935, -0.239164l 0.419935,
 -0.239457l 0.419935, -0.23975l 0.419935, -0.240043l 0.419935, -0.240336" fill="none" stroke="#ff0066" stroke-width="3"/>
<path d="M375.654,285.463l 0.419935, -0.240629l 0.419935, -0.240922l 0.419935, -0.241215l 0.419935, -0.241509l 0.419935, -0.241802l 0.419935, -0.242095l 0.419935, -0.242388l 0.419935, -0.242681l 0.419935, -0.242974l 0.419935, -0.243267l 0.419935,
 -0.24356l 0.419935, -0.243853l 0.419935, -0.244146l 0.419935, -0.24444l 0.419935, -0.244733l 0.419935, -0.245026l 0.419935, -0.245319l 0.419935, -0.245612l 0.419935, -0.245905l 0.419935, -0.246198l 0.419935, -0.246491l 0.419935, -0.246784l 0.419935,
 -0.247077l 0.419935, -0.24737l 0.419935, -0.247664l 0.419935, -0.247957l 0.419935, -0.24825l 0.419935, -0.248543l 0.419935, -0.248836l 0.419935, -0.249129l 0.419935, -0.249422l 0.419935, -0.249715l 0.419935, -0.250008l 0.419935, -0.250301l 0.419935,
 -0.250595l 0.419935, -0.250888l 0.419935, -0.251181l 0.419935, -0.251474l 0.419935, -0.251767l 0.419935, -0.25206l 0.419935, -0.252353l 0.419935, -0.252646l 0.419935, -0.252939l 0.419935, -0.253232l 0.419935, -0.253526l 0.419935, -0.253819l
 0.419935, -0.254112l 0.419935, -0.254405l 0.419935, -0.254698" fill="none" stroke="#ff0066" stroke-width="3"/>
<path d="M396.23,273.328l 0.419935, -0.254991l 0.419935, -0.255284l 0.419935, -0.255577l 0.419935, -0.25587l 0.419935, -0.256163l 0.419935, -0.256456l 0.419935, -0.25675l 0.419935, -0.257043l 0.419935, -0.257336l 0.419935, -0.257629l 0.419935,
 -0.257922l 0.419935, -0.258215l 0.419935, -0.258508l 0.419935, -0.258801l 0.419935, -0.259094l 0.419935, -0.259387l 0.419935, -0.259681l 0.419935, -0.259974l 0.419935, -0.260267l 0.419935, -0.26056l 0.419935, -0.260853l 0.419935, -0.261146l
 0.419935, -0.261439l 0.419935, -0.261732l 0.419935, -0.262025l 0.419935, -0.262318l 0.419935, -0.262612l 0.419935, -0.262905l 0.419935, -0.263198l 0.419935, -0.263491l 0.419935, -0.263784l 0.419935, -0.264077l 0.419935, -0.26437l 0.419935,
 -0.264663l 0.419935, -0.264956l 0.419935, -0.265249l 0.419935, -0.265543l 0.419935, -0.265836l 0.419935, -0.266129l 0.419935, -0.266422l 0.419935, -0.266715l 0.419935, -0.267008l 0.419935, -0.267301l 0.419935, -0.267594l 0.419935, -0.267887l
 0.419935, -0.26818l 0.419935, -0.268473l 0.419935, -0.268767l 0.419935, -0.26906" fill="none" stroke="#ff0066" stroke-width="3"/>
<path d="M416.807,260.489l 0.419935, -0.269353l 0.419935, -0.269646l 0.419935, -0.269939l 0.419935, -0.270232l 0.419935, -0.270525l 0.419935, -0.270818l 0.419935, -0.271111l 0.419935, -0.271404l 0.419935, -0.271698l 0.419935, -0.271991l 0.419935,
 -0.272284l 0.419935, -0.272577l 0.419935, -0.27287l 0.419935, -0.273163l 0.419935, -0.273456l 0.419935, -0.273749l 0.419935, -0.274042l 0.419935, -0.274335l 0.419935, -0.274629l 0.419935, -0.274922l 0.419935, -0.275215l 0.419935, -0.275508l
 0.419935, -0.275801l 0.419935, -0.276094l 0.419935, -0.276387l 0.419935, -0.27668l 0.419935, -0.276973l 0.419935, -0.277266l 0.419935, -0.277559l 0.419935, -0.277853l 0.419935, -0.278146l 0.419935, -0.278439l 0.419935, -0.278732l 0.419935,
 -0.279025l 0.419935, -0.279318l 0.419935, -0.279611l 0.419935, -0.279904l 0.419935, -0.280197l 0.419935, -0.28049l 0.419935, -0.280784l 0.419935, -0.281077l 0.419935, -0.28137l 0.419935, -0.281663l 0.419935, -0.281956l 0.419935, -0.282249l 0.419935,
 -0.282542l 0.419935, -0.282835l 0.419935, -0.283128l 0.419935, -0.283421" fill="none" stroke="#ff0066" stroke-width="3"/>
<path d="M437.384,246.946l 0.419935, -0.283715l 0.419935, -0.284008l 0.419935, -0.284301l 0.419935, -0.284594l 0.419935, -0.284887l 0.419935, -0.28518l 0.419935, -0.285473l 0.419935, -0.285766l 0.419935, -0.286059l 0.419935, -0.286352l 0.419935,
 -0.286646l 0.419935, -0.286939l 0.419935, -0.287232l 0.419935, -0.287525l 0.419935, -0.287818l 0.419935, -0.288111l 0.419935, -0.288404l 0.419935, -0.288697l 0.419935, -0.28899l 0.419935, -0.289283l 0.419935, -0.289576l 0.419935, -0.28987l 0.419935,
 -0.290163l 0.419935, -0.290456l 0.419935, -0.290749l 0.419935, -0.291042l 0.419935, -0.291335l 0.419935, -0.291628l 0.419935, -0.291921l 0.419935, -0.292214l 0.419935, -0.292507l 0.419935, -0.292801l 0.419935, -0.293094l 0.419935, -0.293387l
 0.419935, -0.29368l 0.419935, -0.293973l 0.419935, -0.294266l 0.419935, -0.294559l 0.419935, -0.294852l 0.419935, -0.295145l 0.419935, -0.295438l 0.419935, -0.295732l 0.419935, -0.296025l 0.419935, -0.296318l 0.419935, -0.296611l 0.419935,
 -0.296904l 0.419935, -0.297197l 0.419935, -0.29749l 0.419935, -0.297783" fill="none" stroke="#ff0066" stroke-width="3"/>
<path d="M457.961,232.699l 0.419935, -0.298076l 0.419935, -0.298369l 0.419935, -0.298662l 0.419935, -0.298956l 0.419935, -0.299249l 0.419935, -0.299542l 0.419935, -0.299835l 0.419935, -0.300128l 0.419935, -0.300421l 0.419935, -0.300714l 0.419935,
 -0.301007l 0.419935, -0.3013l 0.419935, -0.301593l 0.419935, -0.301887l 0.419935, -0.30218l 0.419935, -0.302473l 0.419935, -0.302766l 0.419935, -0.303059l 0.419935, -0.303352l 0.419935, -0.303645l 0.419935, -0.303938l 0.419935, -0.304231l 0.419935,
 -0.304524l 0.419935, -0.304817l 0.419935, -0.305111l 0.419935, -0.305404l 0.419935, -0.305697l 0.419935, -0.30599l 0.419935, -0.306283l 0.419935, -0.306576l 0.419935, -0.306869l 0.419935, -0.307162l 0.419935, -0.307455l 0.419935, -0.307748l
 0.419935, -0.308042l 0.419935, -0.308335l 0.419935, -0.308628l 0.419935, -0.308921l 0.419935, -0.309214l 0.419935, -0.309507l 0.419935, -0.3098l 0.419935, -0.310093l 0.419935, -0.310386l 0.419935, -0.310679l 0.419935, -0.310973l 0.419935, -0.311266l
 0.419935, -0.311559l 0.419935, -0.311852l 0.419935, -0.312145" fill="none" stroke="#ff0066" stroke-width="3"/>
<path d="M478.538,217.749l 0.419935, -0.312438l 0.419935, -0.312731l 0.419935, -0.313024l 0.419935, -0.313317l 0.419935, -0.31361l 0.419935, -0.313904l 0.419935, -0.314197l 0.419935, -0.31449l 0.419935, -0.314783l 0.419935, -0.315076l 0.419935,
 -0.315369l 0.419935, -0.315662l 0.419935, -0.315955l 0.419935, -0.316248l 0.419935, -0.316541l 0.419935, -0.316834l 0.419935, -0.317128l 0.419935, -0.317421l 0.419935, -0.317714l 0.419935, -0.318007l 0.419935, -0.3183l 0.419935, -0.318593l 0.419935,
 -0.318886l 0.419935, -0.319179l 0.419935, -0.319472l 0.419935, -0.319765l 0.419935, -0.320059l 0.419935, -0.320352l 0.419935, -0.320645l 0.419935, -0.320938l 0.419935, -0.321231l 0.419935, -0.321524l 0.419935, -0.321817l 0.419935, -0.32211l
 0.419935, -0.322403l 0.419935, -0.322696l 0.419935, -0.32299l 0.419935, -0.323283l 0.419935, -0.323576l 0.419935, -0.323869l 0.419935, -0.324162l 0.419935, -0.324455l 0.419935, -0.324748l 0.419935, -0.325041l 0.419935, -0.325334l 0.419935,
 -0.325627l 0.419935, -0.32592l 0.419935, -0.326214l 0.419935, -0.326507" fill="none" stroke="#ff0066" stroke-width="3"/>
<path d="M499.114,202.094l 0.419935, -0.3268l 0.419935, -0.327093l 0.419935, -0.327386l 0.419935, -0.327679l 0.419935, -0.327972l 0.419935, -0.328265l 0.419935, -0.328558l 0.419935, -0.328851l 0.419935, -0.329145l 0.419935, -0.329438l 0.419935,
 -0.329731l 0.419935, -0.330024l 0.419935, -0.330317l 0.419935, -0.33061l 0.419935, -0.330903l 0.419935, -0.331196l 0.419935, -0.331489l 0.419935, -0.331782l 0.419935, -0.332076l 0.419935, -0.332369l 0.419935, -0.332662l 0.419935, -0.332955l
 0.419935, -0.333248l 0.419935, -0.333541l 0.419935, -0.333834l 0.419935, -0.334127l 0.419935, -0.33442l 0.419935, -0.334713l 0.419935, -0.335007l 0.419935, -0.3353l 0.419935, -0.335593l 0.419935, -0.335886l 0.419935, -0.336179l 0.419935, -0.336472l
 0.419935, -0.336765l 0.419935, -0.337058l 0.419935, -0.337351l 0.419935, -0.337644l 0.419935, -0.337937l 0.419935, -0.338231l 0.419935, -0.338524l 0.419935, -0.338817l 0.419935, -0.33911l 0.419935, -0.339403l 0.419935, -0.339696l 0.419935,
 -0.339989l 0.419935, -0.340282l 0.419935, -0.340575l 0.419935, -0.340868" fill="none" stroke="#ff0066" stroke-width="3"/>
<path d="M519.691,185.737l 0.419935, -0.341162l 0.419935, -0.341455l 0.419935, -0.341748l 0.419935, -0.342041l 0.419935, -0.342334l 0.419935, -0.342627l 0.419935, -0.34292l 0.419935, -0.343213l 0.419935, -0.343506l 0.419935, -0.343799l 0.419935,
 -0.344093l 0.419935, -0.344386l 0.419935, -0.344679l 0.419935, -0.344972l 0.419935, -0.345265l 0.419935, -0.345558l 0.419935, -0.345851l 0.419935, -0.346144l 0.419935, -0.346437l 0.419935, -0.34673l 0.419935, -0.347023l 0.419935, -0.347317l
 0.419935, -0.34761l 0.419935, -0.347903l 0.419935, -0.348196l 0.419935, -0.348489l 0.419935, -0.348782l 0.419935, -0.349075l 0.419935, -0.349368l 0.419935, -0.349661l 0.419935, -0.349954l 0.419935, -0.350248l 0.419935, -0.350541l 0.419935,
 -0.350834l 0.419935, -0.351127l 0.419935, -0.35142l 0.419935, -0.351713l 0.419935, -0.352006l 0.419935, -0.352299l 0.419935, -0.352592l 0.419935, -0.352885l 0.419935, -0.353179l 0.419935, -0.353472l 0.419935, -0.353765l 0.419935, -0.354058l
 0.419935, -0.354351l 0.419935, -0.354644l 0.419935, -0.354937l 0.419935, -0.35523" fill="none" stroke="#ff0066" stroke-width="3"/>
<path d="M540.268,168.675l 0.419935, -0.355523l 0.419935, -0.355816l 0.419935, -0.356109l 0.419935, -0.356403l 0.419935, -0.356696l 0.419935, -0.356989l 0.419935, -0.357282l 0.419935, -0.357575l 0.419935, -0.357868l 0.419935, -0.358161l 0.419935,
 -0.358454l 0.419935, -0.358747l 0.419935, -0.35904l 0.419935, -0.359334l 0.419935, -0.359627l 0.419935, -0.35992l 0.419935, -0.360213l 0.419935, -0.360506l 0.419935, -0.360799" fill="none" stroke="#ff0066" stroke-width="3"/>
<path d="M248.503,21.4167h 179.972" fill="none" stroke="#999999" stroke-width="7"/>
<text xml:space="preserve" x="360.607" y="50.7193" fill="black" font-size="16.0105" font-family="Helvetica"> with EMC</text>
<text xml:space="preserve" x="352.717" y="50.7193" fill="black" font-size="16.0105" font-family="Times">&#0947;</text>
<text xml:space="preserve" x="344.828" y="50.7193" fill="black" font-size="16.0105" font-family="Times">&#0947;</text>
<text xml:space="preserve" x="336.938" y="50.7193" fill="black" font-size="16.0105" font-family="Times">&#0947;</text>
<text xml:space="preserve" x="331.866" y="50.7193" fill="black" font-size="16.0105" font-family="Helvetica"> </text>
<text xml:space="preserve" x="316.65" y="50.7193" fill="black" font-size="16.0105" font-family="Times">&#8594;</text>
<text xml:space="preserve" x="311.578" y="50.7193" fill="black" font-size="16.0105" font-family="Helvetica"> </text>
<text xml:space="preserve" x="303.689" y="50.7193" fill="black" font-size="16.0105" font-family="Times">&#0947;</text>
<text xml:space="preserve" x="298.053" y="45.0838" fill="black" font-size="10.8403" font-family="Helvetica">0</text>
<text xml:space="preserve" x="289.6" y="50.7193" fill="black" font-size="16.0105" font-family="Times">&#0960;</text>
<text xml:space="preserve" x="284.528" y="50.7193" fill="black" font-size="16.0105" font-family="Helvetica"> </text>
<text xml:space="preserve" x="269.312" y="50.7193" fill="black" font-size="16.0105" font-family="Times">&#8594;</text>
<text xml:space="preserve" x="264.24" y="50.7193" fill="black" font-size="16.0105" font-family="Helvetica"> </text>
<text xml:space="preserve" x="252.969" y="50.7193" fill="black" font-size="16.0105" font-family="Times">&#0969;</text>
<text xml:space="preserve" x="128.989" y="50.7193" fill="black" font-size="16.0105" font-family="Helvetica"> = 13 TeV (EG1), </text>
<text xml:space="preserve" x="120.536" y="50.7193" fill="black" font-size="16.0105" font-family="Helvetica" font-style="oblique">s</text>
<path d="M114.9,41.7025l 1.69064, 9.58031" fill="none" stroke="black" stroke-width="2"/>
<path d="M116.591,51.2829l 2.25419, -14.0887" fill="none" stroke="black"/>
<path d="M118.845,37.1942h 10.1439" fill="none" stroke="black"/>
<text xml:space="preserve" x="89.5406" y="50.7193" fill="black" font-size="16.0105" font-family="Helvetica">pp </text>
<text xml:space="preserve" x="89.5406" y="85.6593" fill="black" font-size="16.0105" font-family="Helvetica">ALICE work in progress</text>
<text xml:space="preserve" x="205.068" y="120.599" fill="black" font-size="16.0105" font-family="Helvetica">) &lt; 4.0</text>
<text xml:space="preserve" x="196.051" y="120.599" fill="black" font-size="16.0105" font-family="Helvetica" font-style="oblique">c</text>
<text xml:space="preserve" x="145.895" y="120.599" fill="black" font-size="16.0105" font-family="Helvetica"> /(GeV/</text>
<text xml:space="preserve" x="139.133" y="128.489" fill="black" font-size="10.8403" font-family="Helvetica">T</text>
<text xml:space="preserve" x="129.552" y="120.599" fill="black" font-size="16.0105" font-family="Helvetica" font-style="oblique">p</text>
<text xml:space="preserve" x="124.481" y="120.599" fill="black" font-size="16.0105" font-family="Helvetica"> </text>
<text xml:space="preserve" x="116.027" y="120.599" fill="black" font-size="16.0105" font-family="Times">&#8804;</text>
<text xml:space="preserve" x="89.5406" y="120.599" fill="black" font-size="16.0105" font-family="Helvetica">2.0 </text>
<rect x="312.311" y="69.1755" width="198.425" height="113.448" fill="white"/>
<text xml:space="preserve" x="361.734" y="85.0957" fill="black" font-size="16.0105" font-family="Helvetica">ratio</text>
<path d="M319.752,80.5203h 34.7244" fill="none" stroke="black" stroke-width="2"/>
<g fill="black">
<circle cx="337.114" cy="80.5203" r="6.76257"/>
</g>
<text xml:space="preserve" x="361.734" y="108.201" fill="black" font-size="16.0105" font-family="Helvetica">peak range</text>
<path d="M319.752,103.21h 34.7244" fill="none" stroke="#333333" stroke-width="2"/>
<g stroke="#333333" stroke-width="2" fill="none">
<circle cx="337.114" cy="103.21" r="5.63548"/>
</g>
<text xml:space="preserve" x="361.734" y="130.743" fill="black" font-size="16.0105" font-family="Helvetica">background pol1</text>
<path d="M319.752,125.899h 34.7244" fill="none" stroke="#33cccc" stroke-width="3"/>
<text xml:space="preserve" x="361.734" y="153.285" fill="black" font-size="16.0105" font-family="Helvetica">background pol2</text>
<path d="M319.752,148.589h 34.7244" fill="none" stroke="#ff0066" stroke-width="3"/>
<text xml:space="preserve" x="361.734" y="175.827" fill="black" font-size="16.0105" font-family="Helvetica">param. range</text>
<path d="M319.752,171.279h 34.7244" fill="none" stroke="#999999" stroke-width="7"/></svg>
