<?xml version="1.0" standalone="no"?>
<svg width="567.429" height="553.904" viewBox="0 0 567.429 553.904" xmlns="http://www.w3.org/2000/svg" shape-rendering="crispEdges">
<title>
MC/EG1/OmegaTGPSPlusWOPS/SameEventAndBackgroundBeforeScaling_05.svg
</title>
<desc>
Creator: ROOT Version 6.20/08
CreationDate: Wed Mar 10 16:17:23 2021</desc>
<defs>
</defs>
<rect x="0.5" y="0" width="566.929" height="553.404" fill="white"/>
<rect x="57.1929" y="16.6021" width="496.063" height="481.461" fill="white"/>
<rect x="57.1929" y="16.6021" width="496.063" height="481.461" fill="none" stroke="black"/>
<rect x="57.1929" y="16.6021" width="496.063" height="481.461" fill="white"/>
<rect x="57.1929" y="16.6021" width="496.063" height="481.461" fill="none" stroke="black"/>
<path d="M96.0998,496.236h 0.35498" fill="none" stroke="#993333" stroke-width="2"/>
<path d="M105.472,496.236h 0.35498" fill="none" stroke="#993333" stroke-width="2"/>
<g fill="#993333">
<rect x="96.4548" y="491.728" width="9.01677" height="9.01677"/>
</g>
<path d="M105.827,390.446h 0.35498" fill="none" stroke="#993333" stroke-width="2"/>
<path d="M115.198,390.446h 0.35498" fill="none" stroke="#993333" stroke-width="2"/>
<g fill="#993333">
<rect x="106.182" y="385.938" width="9.01677" height="9.01677"/>
</g>
<path d="M115.553,230.585h 0.35498" fill="none" stroke="#993333" stroke-width="2"/>
<path d="M124.925,230.585h 0.35498" fill="none" stroke="#993333" stroke-width="2"/>
<g fill="#993333">
<rect x="115.908" y="226.077" width="9.01677" height="9.01677"/>
</g>
<path d="M125.28,406.16h 0.35498" fill="none" stroke="#993333" stroke-width="2"/>
<path d="M134.652,406.16h 0.35498" fill="none" stroke="#993333" stroke-width="2"/>
<g fill="#993333">
<rect x="125.635" y="401.652" width="9.01677" height="9.01677"/>
</g>
<path d="M135.007,425.612h 0.35498" fill="none" stroke="#993333" stroke-width="2"/>
<path d="M144.378,425.612h 0.35498" fill="none" stroke="#993333" stroke-width="2"/>
<g fill="#993333">
<rect x="135.362" y="421.104" width="9.01677" height="9.01677"/>
</g>
<path d="M144.733,434.01h 0.35498" fill="none" stroke="#993333" stroke-width="2"/>
<path d="M154.105,434.01h 0.35498" fill="none" stroke="#993333" stroke-width="2"/>
<g fill="#993333">
<rect x="145.088" y="429.502" width="9.01677" height="9.01677"/>
</g>
<path d="M154.46,433.867h 0.35498" fill="none" stroke="#993333" stroke-width="2"/>
<path d="M163.832,433.867h 0.35498" fill="none" stroke="#993333" stroke-width="2"/>
<g fill="#993333">
<rect x="154.815" y="429.359" width="9.01677" height="9.01677"/>
</g>
<path d="M164.187,433.902h 0.35498" fill="none" stroke="#993333" stroke-width="2"/>
<path d="M173.559,433.902h 0.35498" fill="none" stroke="#993333" stroke-width="2"/>
<g fill="#993333">
<rect x="164.542" y="429.394" width="9.01677" height="9.01677"/>
</g>
<path d="M173.914,433.084h 0.35498" fill="none" stroke="#993333" stroke-width="2"/>
<path d="M183.285,433.084h 0.35498" fill="none" stroke="#993333" stroke-width="2"/>
<g fill="#993333">
<rect x="174.269" y="428.576" width="9.01677" height="9.01677"/>
</g>
<path d="M183.64,434.311h 0.35498" fill="none" stroke="#993333" stroke-width="2"/>
<path d="M193.012,434.311h 0.35498" fill="none" stroke="#993333" stroke-width="2"/>
<g fill="#993333">
<rect x="183.995" y="429.803" width="9.01677" height="9.01677"/>
</g>
<path d="M193.367,435.227h 0.35498" fill="none" stroke="#993333" stroke-width="2"/>
<path d="M202.739,435.227h 0.35498" fill="none" stroke="#993333" stroke-width="2"/>
<g fill="#993333">
<rect x="193.722" y="430.718" width="9.01677" height="9.01677"/>
</g>
<path d="M203.094,435.784h 0.35498" fill="none" stroke="#993333" stroke-width="2"/>
<path d="M212.466,435.784h 0.35498" fill="none" stroke="#993333" stroke-width="2"/>
<g fill="#993333">
<rect x="203.449" y="431.275" width="9.01677" height="9.01677"/>
</g>
<path d="M212.821,437.544h 0.35498" fill="none" stroke="#993333" stroke-width="2"/>
<path d="M222.192,437.544h 0.35498" fill="none" stroke="#993333" stroke-width="2"/>
<g fill="#993333">
<rect x="213.176" y="433.036" width="9.01677" height="9.01677"/>
</g>
<path d="M222.547,439.137h 0.35498" fill="none" stroke="#993333" stroke-width="2"/>
<path d="M231.919,439.137h 0.35498" fill="none" stroke="#993333" stroke-width="2"/>
<g fill="#993333">
<rect x="222.902" y="434.629" width="9.01677" height="9.01677"/>
</g>
<path d="M232.274,440.311h 0.35498" fill="none" stroke="#993333" stroke-width="2"/>
<path d="M241.646,440.311h 0.35498" fill="none" stroke="#993333" stroke-width="2"/>
<g fill="#993333">
<rect x="232.629" y="435.803" width="9.01677" height="9.01677"/>
</g>
<path d="M242.001,443.152h 0.35498" fill="none" stroke="#993333" stroke-width="2"/>
<path d="M251.372,443.152h 0.35498" fill="none" stroke="#993333" stroke-width="2"/>
<g fill="#993333">
<rect x="242.356" y="438.644" width="9.01677" height="9.01677"/>
</g>
<path d="M251.727,444.966h 0.35498" fill="none" stroke="#993333" stroke-width="2"/>
<path d="M261.099,444.966h 0.35498" fill="none" stroke="#993333" stroke-width="2"/>
<g fill="#993333">
<rect x="252.082" y="440.457" width="9.01677" height="9.01677"/>
</g>
<path d="M261.454,447.605h 0.35498" fill="none" stroke="#993333" stroke-width="2"/>
<path d="M270.826,447.605h 0.35498" fill="none" stroke="#993333" stroke-width="2"/>
<g fill="#993333">
<rect x="261.809" y="443.096" width="9.01677" height="9.01677"/>
</g>
<path d="M271.181,449.827h 0.35498" fill="none" stroke="#993333" stroke-width="2"/>
<path d="M280.553,449.827h 0.35498" fill="none" stroke="#993333" stroke-width="2"/>
<g fill="#993333">
<rect x="271.536" y="445.318" width="9.01677" height="9.01677"/>
</g>
<path d="M280.908,451.586h 0.35498" fill="none" stroke="#993333" stroke-width="2"/>
<path d="M290.279,451.586h 0.35498" fill="none" stroke="#993333" stroke-width="2"/>
<g fill="#993333">
<rect x="281.263" y="447.077" width="9.01677" height="9.01677"/>
</g>
<path d="M290.634,454.118h 0.35498" fill="none" stroke="#993333" stroke-width="2"/>
<path d="M300.006,454.118h 0.35498" fill="none" stroke="#993333" stroke-width="2"/>
<g fill="#993333">
<rect x="290.989" y="449.61" width="9.01677" height="9.01677"/>
</g>
<path d="M300.361,456.073h 0.35498" fill="none" stroke="#993333" stroke-width="2"/>
<path d="M309.733,456.073h 0.35498" fill="none" stroke="#993333" stroke-width="2"/>
<g fill="#993333">
<rect x="300.716" y="451.564" width="9.01677" height="9.01677"/>
</g>
<path d="M310.088,458.317h 0.35498" fill="none" stroke="#993333" stroke-width="2"/>
<path d="M319.46,458.317h 0.35498" fill="none" stroke="#993333" stroke-width="2"/>
<g fill="#993333">
<rect x="310.443" y="453.808" width="9.01677" height="9.01677"/>
</g>
<path d="M319.814,459.899h 0.35498" fill="none" stroke="#993333" stroke-width="2"/>
<path d="M329.186,459.899h 0.35498" fill="none" stroke="#993333" stroke-width="2"/>
<g fill="#993333">
<rect x="320.169" y="455.391" width="9.01677" height="9.01677"/>
</g>
<path d="M329.541,462.271h 0.35498" fill="none" stroke="#993333" stroke-width="2"/>
<path d="M338.913,462.271h 0.35498" fill="none" stroke="#993333" stroke-width="2"/>
<g fill="#993333">
<rect x="329.896" y="457.763" width="9.01677" height="9.01677"/>
</g>
<path d="M339.268,464.089h 0.35498" fill="none" stroke="#993333" stroke-width="2"/>
<path d="M348.64,464.089h 0.35498" fill="none" stroke="#993333" stroke-width="2"/>
<g fill="#993333">
<rect x="339.623" y="459.581" width="9.01677" height="9.01677"/>
</g>
<path d="M348.995,465.407h 0.35498" fill="none" stroke="#993333" stroke-width="2"/>
<path d="M358.366,465.407h 0.35498" fill="none" stroke="#993333" stroke-width="2"/>
<g fill="#993333">
<rect x="349.35" y="460.898" width="9.01677" height="9.01677"/>
</g>
<path d="M358.721,467.767h 0.35498" fill="none" stroke="#993333" stroke-width="2"/>
<path d="M368.093,467.767h 0.35498" fill="none" stroke="#993333" stroke-width="2"/>
<g fill="#993333">
<rect x="359.076" y="463.258" width="9.01677" height="9.01677"/>
</g>
<path d="M368.448,469.634h 0.35498" fill="none" stroke="#993333" stroke-width="2"/>
<path d="M377.82,469.634h 0.35498" fill="none" stroke="#993333" stroke-width="2"/>
<g fill="#993333">
<rect x="368.803" y="465.126" width="9.01677" height="9.01677"/>
</g>
<path d="M378.175,471.01h 0.35498" fill="none" stroke="#993333" stroke-width="2"/>
<path d="M387.547,471.01h 0.35498" fill="none" stroke="#993333" stroke-width="2"/>
<g fill="#993333">
<rect x="378.53" y="466.501" width="9.01677" height="9.01677"/>
</g>
<path d="M387.902,472.574h 0.35498" fill="none" stroke="#993333" stroke-width="2"/>
<path d="M397.273,472.574h 0.35498" fill="none" stroke="#993333" stroke-width="2"/>
<g fill="#993333">
<rect x="388.257" y="468.065" width="9.01677" height="9.01677"/>
</g>
<path d="M397.628,474.038h 0.35498" fill="none" stroke="#993333" stroke-width="2"/>
<path d="M407,474.038h 0.35498" fill="none" stroke="#993333" stroke-width="2"/>
<g fill="#993333">
<rect x="397.983" y="469.53" width="9.01677" height="9.01677"/>
</g>
<path d="M407.355,475.324h 0.35498" fill="none" stroke="#993333" stroke-width="2"/>
<path d="M416.727,475.324h 0.35498" fill="none" stroke="#993333" stroke-width="2"/>
<g fill="#993333">
<rect x="407.71" y="470.816" width="9.01677" height="9.01677"/>
</g>
<path d="M417.082,476.957h 0.35498" fill="none" stroke="#993333" stroke-width="2"/>
<path d="M426.453,476.957h 0.35498" fill="none" stroke="#993333" stroke-width="2"/>
<g fill="#993333">
<rect x="417.437" y="472.449" width="9.01677" height="9.01677"/>
</g>
<path d="M426.808,477.868h 0.35498" fill="none" stroke="#993333" stroke-width="2"/>
<path d="M436.18,477.868h 0.35498" fill="none" stroke="#993333" stroke-width="2"/>
<g fill="#993333">
<rect x="427.163" y="473.36" width="9.01677" height="9.01677"/>
</g>
<path d="M436.535,479.194h 0.35498" fill="none" stroke="#993333" stroke-width="2"/>
<path d="M445.907,479.194h 0.35498" fill="none" stroke="#993333" stroke-width="2"/>
<g fill="#993333">
<rect x="436.89" y="474.685" width="9.01677" height="9.01677"/>
</g>
<path d="M446.262,480.175h 0.35498" fill="none" stroke="#993333" stroke-width="2"/>
<path d="M455.634,480.175h 0.35498" fill="none" stroke="#993333" stroke-width="2"/>
<g fill="#993333">
<rect x="446.617" y="475.666" width="9.01677" height="9.01677"/>
</g>
<path d="M455.989,481.125h 0.35498" fill="none" stroke="#993333" stroke-width="2"/>
<path d="M465.36,481.125h 0.35498" fill="none" stroke="#993333" stroke-width="2"/>
<g fill="#993333">
<rect x="456.344" y="476.617" width="9.01677" height="9.01677"/>
</g>
<path d="M465.715,482.201h 0.35498" fill="none" stroke="#993333" stroke-width="2"/>
<path d="M475.087,482.201h 0.35498" fill="none" stroke="#993333" stroke-width="2"/>
<g fill="#993333">
<rect x="466.07" y="477.692" width="9.01677" height="9.01677"/>
</g>
<path d="M475.442,483.279h 0.35498" fill="none" stroke="#993333" stroke-width="2"/>
<path d="M484.814,483.279h 0.35498" fill="none" stroke="#993333" stroke-width="2"/>
<g fill="#993333">
<rect x="475.797" y="478.771" width="9.01677" height="9.01677"/>
</g>
<path d="M485.169,483.992h 0.35498" fill="none" stroke="#993333" stroke-width="2"/>
<path d="M494.541,483.992h 0.35498" fill="none" stroke="#993333" stroke-width="2"/>
<g fill="#993333">
<rect x="485.524" y="479.484" width="9.01677" height="9.01677"/>
</g>
<path d="M494.896,484.901h 0.35498" fill="none" stroke="#993333" stroke-width="2"/>
<path d="M504.267,484.901h 0.35498" fill="none" stroke="#993333" stroke-width="2"/>
<g fill="#993333">
<rect x="495.251" y="480.392" width="9.01677" height="9.01677"/>
</g>
<path d="M504.622,485.644h 0.35498" fill="none" stroke="#993333" stroke-width="2"/>
<path d="M513.994,485.644h 0.35498" fill="none" stroke="#993333" stroke-width="2"/>
<g fill="#993333">
<rect x="504.977" y="481.136" width="9.01677" height="9.01677"/>
</g>
<path d="M514.349,486.269h 0.35498" fill="none" stroke="#993333" stroke-width="2"/>
<path d="M523.721,486.269h 0.35498" fill="none" stroke="#993333" stroke-width="2"/>
<g fill="#993333">
<rect x="514.704" y="481.76" width="9.01677" height="9.01677"/>
</g>
<path d="M524.076,486.939h 0.35498" fill="none" stroke="#993333" stroke-width="2"/>
<path d="M533.447,486.939h 0.35498" fill="none" stroke="#993333" stroke-width="2"/>
<g fill="#993333">
<rect x="524.431" y="482.431" width="9.01677" height="9.01677"/>
</g>
<path d="M533.802,487.352h 0.35498" fill="none" stroke="#993333" stroke-width="2"/>
<path d="M543.174,487.352h 0.35498" fill="none" stroke="#993333" stroke-width="2"/>
<g fill="#993333">
<rect x="534.157" y="482.844" width="9.01677" height="9.01677"/>
</g>
<path d="M57.1929,498.064h 496.063" fill="none" stroke="black"/>
<path d="M57.1929,483.537v 14.5269" fill="none" stroke="black"/>
<path d="M72.3909,490.8v 7.26343" fill="none" stroke="black"/>
<path d="M87.5889,490.8v 7.26343" fill="none" stroke="black"/>
<path d="M102.787,490.8v 7.26343" fill="none" stroke="black"/>
<path d="M117.985,483.537v 14.5269" fill="none" stroke="black"/>
<path d="M133.183,490.8v 7.26343" fill="none" stroke="black"/>
<path d="M148.381,490.8v 7.26343" fill="none" stroke="black"/>
<path d="M163.579,490.8v 7.26343" fill="none" stroke="black"/>
<path d="M178.777,483.537v 14.5269" fill="none" stroke="black"/>
<path d="M193.975,490.8v 7.26343" fill="none" stroke="black"/>
<path d="M209.173,490.8v 7.26343" fill="none" stroke="black"/>
<path d="M224.371,490.8v 7.26343" fill="none" stroke="black"/>
<path d="M239.569,483.537v 14.5269" fill="none" stroke="black"/>
<path d="M254.767,490.8v 7.26343" fill="none" stroke="black"/>
<path d="M269.965,490.8v 7.26343" fill="none" stroke="black"/>
<path d="M285.163,490.8v 7.26343" fill="none" stroke="black"/>
<path d="M300.361,483.537v 14.5269" fill="none" stroke="black"/>
<path d="M315.559,490.8v 7.26343" fill="none" stroke="black"/>
<path d="M330.757,490.8v 7.26343" fill="none" stroke="black"/>
<path d="M345.955,490.8v 7.26343" fill="none" stroke="black"/>
<path d="M361.153,483.537v 14.5269" fill="none" stroke="black"/>
<path d="M376.351,490.8v 7.26343" fill="none" stroke="black"/>
<path d="M391.549,490.8v 7.26343" fill="none" stroke="black"/>
<path d="M406.747,490.8v 7.26343" fill="none" stroke="black"/>
<path d="M421.945,483.537v 14.5269" fill="none" stroke="black"/>
<path d="M437.143,490.8v 7.26343" fill="none" stroke="black"/>
<path d="M452.341,490.8v 7.26343" fill="none" stroke="black"/>
<path d="M467.539,490.8v 7.26343" fill="none" stroke="black"/>
<path d="M482.737,483.537v 14.5269" fill="none" stroke="black"/>
<path d="M497.935,490.8v 7.26343" fill="none" stroke="black"/>
<path d="M513.133,490.8v 7.26343" fill="none" stroke="black"/>
<path d="M528.331,490.8v 7.26343" fill="none" stroke="black"/>
<path d="M543.529,483.537v 14.5269" fill="none" stroke="black"/>
<path d="M543.529,483.537v 14.5269" fill="none" stroke="black"/>
<text xml:space="preserve" x="52.3464" y="513.956" fill="black" font-size="16.0105" font-family="Helvetica">0</text>
<text xml:space="preserve" x="107.011" y="513.956" fill="black" font-size="16.0105" font-family="Helvetica">0.2</text>
<text xml:space="preserve" x="167.874" y="513.956" fill="black" font-size="16.0105" font-family="Helvetica">0.4</text>
<text xml:space="preserve" x="228.737" y="513.956" fill="black" font-size="16.0105" font-family="Helvetica">0.6</text>
<text xml:space="preserve" x="289.6" y="513.956" fill="black" font-size="16.0105" font-family="Helvetica">0.8</text>
<text xml:space="preserve" x="357.789" y="513.956" fill="black" font-size="16.0105" font-family="Helvetica">1</text>
<text xml:space="preserve" x="410.763" y="513.956" fill="black" font-size="16.0105" font-family="Helvetica">1.2</text>
<text xml:space="preserve" x="471.626" y="513.956" fill="black" font-size="16.0105" font-family="Helvetica">1.4</text>
<text xml:space="preserve" x="532.489" y="513.956" fill="black" font-size="16.0105" font-family="Helvetica">1.6</text>
<text xml:space="preserve" x="548.268" y="537.625" fill="black" font-size="16.0105" font-family="Helvetica">)</text>
<text xml:space="preserve" x="542.633" y="532.553" fill="black" font-size="10.8403" font-family="Helvetica">2</text>
<text xml:space="preserve" x="533.616" y="537.625" fill="black" font-size="16.0105" font-family="Helvetica" font-style="oblique">c</text>
<text xml:space="preserve" x="487.405" y="537.625" fill="black" font-size="16.0105" font-family="Helvetica"> (GeV/</text>
<text xml:space="preserve" x="473.317" y="542.697" fill="black" font-size="10.8403" font-family="Helvetica">inv</text>
<text xml:space="preserve" x="459.792" y="537.625" fill="black" font-size="16.0105" font-family="Helvetica" font-style="oblique">m</text>
<path d="M57.1929,16.6021h 496.063" fill="none" stroke="black"/>
<path d="M57.1929,31.129v -14.5269" fill="none" stroke="black"/>
<path d="M72.3909,23.8655v -7.26343" fill="none" stroke="black"/>
<path d="M87.5889,23.8655v -7.26343" fill="none" stroke="black"/>
<path d="M102.787,23.8655v -7.26343" fill="none" stroke="black"/>
<path d="M117.985,31.129v -14.5269" fill="none" stroke="black"/>
<path d="M133.183,23.8655v -7.26343" fill="none" stroke="black"/>
<path d="M148.381,23.8655v -7.26343" fill="none" stroke="black"/>
<path d="M163.579,23.8655v -7.26343" fill="none" stroke="black"/>
<path d="M178.777,31.129v -14.5269" fill="none" stroke="black"/>
<path d="M193.975,23.8655v -7.26343" fill="none" stroke="black"/>
<path d="M209.173,23.8655v -7.26343" fill="none" stroke="black"/>
<path d="M224.371,23.8655v -7.26343" fill="none" stroke="black"/>
<path d="M239.569,31.129v -14.5269" fill="none" stroke="black"/>
<path d="M254.767,23.8655v -7.26343" fill="none" stroke="black"/>
<path d="M269.965,23.8655v -7.26343" fill="none" stroke="black"/>
<path d="M285.163,23.8655v -7.26343" fill="none" stroke="black"/>
<path d="M300.361,31.129v -14.5269" fill="none" stroke="black"/>
<path d="M315.559,23.8655v -7.26343" fill="none" stroke="black"/>
<path d="M330.757,23.8655v -7.26343" fill="none" stroke="black"/>
<path d="M345.955,23.8655v -7.26343" fill="none" stroke="black"/>
<path d="M361.153,31.129v -14.5269" fill="none" stroke="black"/>
<path d="M376.351,23.8655v -7.26343" fill="none" stroke="black"/>
<path d="M391.549,23.8655v -7.26343" fill="none" stroke="black"/>
<path d="M406.747,23.8655v -7.26343" fill="none" stroke="black"/>
<path d="M421.945,31.129v -14.5269" fill="none" stroke="black"/>
<path d="M437.143,23.8655v -7.26343" fill="none" stroke="black"/>
<path d="M452.341,23.8655v -7.26343" fill="none" stroke="black"/>
<path d="M467.539,23.8655v -7.26343" fill="none" stroke="black"/>
<path d="M482.737,31.129v -14.5269" fill="none" stroke="black"/>
<path d="M497.935,23.8655v -7.26343" fill="none" stroke="black"/>
<path d="M513.133,23.8655v -7.26343" fill="none" stroke="black"/>
<path d="M528.331,23.8655v -7.26343" fill="none" stroke="black"/>
<path d="M543.529,31.129v -14.5269" fill="none" stroke="black"/>
<path d="M543.529,31.129v -14.5269" fill="none" stroke="black"/>
<path d="M57.1929,498.064v -481.461" fill="none" stroke="black"/>
<path d="M71.9898,498.064h -14.7969" fill="none" stroke="black"/>
<path d="M64.5913,479.7h -7.39843" fill="none" stroke="black"/>
<path d="M64.5913,461.336h -7.39843" fill="none" stroke="black"/>
<path d="M64.5913,442.972h -7.39843" fill="none" stroke="black"/>
<path d="M71.9898,424.608h -14.7969" fill="none" stroke="black"/>
<path d="M64.5913,406.244h -7.39843" fill="none" stroke="black"/>
<path d="M64.5913,387.88h -7.39843" fill="none" stroke="black"/>
<path d="M64.5913,369.516h -7.39843" fill="none" stroke="black"/>
<path d="M71.9898,351.152h -14.7969" fill="none" stroke="black"/>
<path d="M64.5913,332.789h -7.39843" fill="none" stroke="black"/>
<path d="M64.5913,314.425h -7.39843" fill="none" stroke="black"/>
<path d="M64.5913,296.061h -7.39843" fill="none" stroke="black"/>
<path d="M71.9898,277.697h -14.7969" fill="none" stroke="black"/>
<path d="M64.5913,259.333h -7.39843" fill="none" stroke="black"/>
<path d="M64.5913,240.969h -7.39843" fill="none" stroke="black"/>
<path d="M64.5913,222.605h -7.39843" fill="none" stroke="black"/>
<path d="M71.9898,204.241h -14.7969" fill="none" stroke="black"/>
<path d="M64.5913,185.878h -7.39843" fill="none" stroke="black"/>
<path d="M64.5913,167.514h -7.39843" fill="none" stroke="black"/>
<path d="M64.5913,149.15h -7.39843" fill="none" stroke="black"/>
<path d="M71.9898,130.786h -14.7969" fill="none" stroke="black"/>
<path d="M64.5913,112.422h -7.39843" fill="none" stroke="black"/>
<path d="M64.5913,94.0581h -7.39843" fill="none" stroke="black"/>
<path d="M64.5913,75.6942h -7.39843" fill="none" stroke="black"/>
<path d="M71.9898,57.3303h -14.7969" fill="none" stroke="black"/>
<path d="M71.9898,57.3303h -14.7969" fill="none" stroke="black"/>
<path d="M64.5913,38.9664h -7.39843" fill="none" stroke="black"/>
<path d="M64.5913,20.6025h -7.39843" fill="none" stroke="black"/>
<text xml:space="preserve" x="45.5838" y="503.248" fill="black" font-size="16.0105" font-family="Helvetica">0</text>
<text xml:space="preserve" x="32.6222" y="429.987" fill="black" font-size="16.0105" font-family="Helvetica">0.2</text>
<text xml:space="preserve" x="32.6222" y="356.726" fill="black" font-size="16.0105" font-family="Helvetica">0.4</text>
<text xml:space="preserve" x="32.6222" y="282.901" fill="black" font-size="16.0105" font-family="Helvetica">0.6</text>
<text xml:space="preserve" x="32.6222" y="209.64" fill="black" font-size="16.0105" font-family="Helvetica">0.8</text>
<text xml:space="preserve" x="48.4016" y="136.942" fill="black" font-size="16.0105" font-family="Helvetica">1</text>
<text xml:space="preserve" x="32.6222" y="63.1174" fill="black" font-size="16.0105" font-family="Helvetica">1.2</text>
<text xml:space="preserve" x="82.2144" y="7.32612" fill="black" font-size="10.8403" font-family="Helvetica">3</text>
<text xml:space="preserve" x="65.308" y="14.6522" fill="black" font-size="16.0105" font-family="Helvetica">10</text>
<text xml:space="preserve" x="56.8548" y="14.6522" fill="black" font-size="16.0105" font-family="Times">&#0215;</text>
<g transform="rotate(-90,22.4784,21.9784)">
<text xml:space="preserve" x="22.4784" y="21.9784" fill="black" font-size="10.8403" font-family="Times">&#0947;</text>
</g>
<g transform="rotate(-90,18.5335,25.9232)">
<text xml:space="preserve" x="18.5335" y="25.9232" fill="black" font-size="7.39355" font-family="Helvetica">0</text>
</g>
<g transform="rotate(-90,22.4784,32.1222)">
<text xml:space="preserve" x="22.4784" y="32.1222" fill="black" font-size="10.8403" font-family="Times">&#0960;</text>
</g>
<g transform="rotate(-90,17.4064,45.0838)">
<text xml:space="preserve" x="17.4064" y="45.0838" fill="black" font-size="16.0105" font-family="Helvetica" font-style="oblique">N</text>
</g>
<path d="M553.256,498.064v -481.461" fill="none" stroke="black"/>
<path d="M538.459,498.064h 14.7969" fill="none" stroke="black"/>
<path d="M545.857,479.7h 7.39843" fill="none" stroke="black"/>
<path d="M545.857,461.336h 7.39843" fill="none" stroke="black"/>
<path d="M545.857,442.972h 7.39843" fill="none" stroke="black"/>
<path d="M538.459,424.608h 14.7969" fill="none" stroke="black"/>
<path d="M545.857,406.244h 7.39843" fill="none" stroke="black"/>
<path d="M545.857,387.88h 7.39843" fill="none" stroke="black"/>
<path d="M545.857,369.516h 7.39843" fill="none" stroke="black"/>
<path d="M538.459,351.152h 14.7969" fill="none" stroke="black"/>
<path d="M545.857,332.789h 7.39843" fill="none" stroke="black"/>
<path d="M545.857,314.425h 7.39843" fill="none" stroke="black"/>
<path d="M545.857,296.061h 7.39843" fill="none" stroke="black"/>
<path d="M538.459,277.697h 14.7969" fill="none" stroke="black"/>
<path d="M545.857,259.333h 7.39843" fill="none" stroke="black"/>
<path d="M545.857,240.969h 7.39843" fill="none" stroke="black"/>
<path d="M545.857,222.605h 7.39843" fill="none" stroke="black"/>
<path d="M538.459,204.241h 14.7969" fill="none" stroke="black"/>
<path d="M545.857,185.878h 7.39843" fill="none" stroke="black"/>
<path d="M545.857,167.514h 7.39843" fill="none" stroke="black"/>
<path d="M545.857,149.15h 7.39843" fill="none" stroke="black"/>
<path d="M538.459,130.786h 14.7969" fill="none" stroke="black"/>
<path d="M545.857,112.422h 7.39843" fill="none" stroke="black"/>
<path d="M545.857,94.0581h 7.39843" fill="none" stroke="black"/>
<path d="M545.857,75.6942h 7.39843" fill="none" stroke="black"/>
<path d="M538.459,57.3303h 14.7969" fill="none" stroke="black"/>
<path d="M538.459,57.3303h 14.7969" fill="none" stroke="black"/>
<path d="M545.857,38.9664h 7.39843" fill="none" stroke="black"/>
<path d="M545.857,20.6025h 7.39843" fill="none" stroke="black"/>
<path d="M96.0998,498.063h 0.35498" fill="none" stroke="black" stroke-width="2"/>
<path d="M105.472,498.063h 0.35498" fill="none" stroke="black" stroke-width="2"/>
<g fill="black">
<circle cx="100.963" cy="498.063" r="4.50838"/>
</g>
<path d="M105.827,498.047h 0.35498" fill="none" stroke="black" stroke-width="2"/>
<path d="M115.198,498.047h 0.35498" fill="none" stroke="black" stroke-width="2"/>
<g fill="black">
<circle cx="110.69" cy="498.047" r="4.50838"/>
</g>
<path d="M115.553,497.855h 0.35498" fill="none" stroke="black" stroke-width="2"/>
<path d="M124.925,497.855h 0.35498" fill="none" stroke="black" stroke-width="2"/>
<g fill="black">
<circle cx="120.417" cy="497.855" r="4.50838"/>
</g>
<path d="M125.28,497.547h 0.35498" fill="none" stroke="black" stroke-width="2"/>
<path d="M134.652,497.547h 0.35498" fill="none" stroke="black" stroke-width="2"/>
<g fill="black">
<circle cx="130.143" cy="497.547" r="4.50838"/>
</g>
<path d="M135.007,497.337h 0.35498" fill="none" stroke="black" stroke-width="2"/>
<path d="M144.378,497.337h 0.35498" fill="none" stroke="black" stroke-width="2"/>
<g fill="black">
<circle cx="139.87" cy="497.337" r="4.50838"/>
</g>
<path d="M144.733,497.112h 0.35498" fill="none" stroke="black" stroke-width="2"/>
<path d="M154.105,497.112h 0.35498" fill="none" stroke="black" stroke-width="2"/>
<g fill="black">
<circle cx="149.597" cy="497.112" r="4.50838"/>
</g>
<path d="M154.46,496.884h 0.35498" fill="none" stroke="black" stroke-width="2"/>
<path d="M163.832,496.884h 0.35498" fill="none" stroke="black" stroke-width="2"/>
<g fill="black">
<circle cx="159.324" cy="496.884" r="4.50838"/>
</g>
<path d="M164.187,496.743h 0.35498" fill="none" stroke="black" stroke-width="2"/>
<path d="M173.559,496.743h 0.35498" fill="none" stroke="black" stroke-width="2"/>
<g fill="black">
<circle cx="169.05" cy="496.743" r="4.50838"/>
</g>
<path d="M173.914,496.519h 0.35498" fill="none" stroke="black" stroke-width="2"/>
<path d="M183.285,496.519h 0.35498" fill="none" stroke="black" stroke-width="2"/>
<g fill="black">
<circle cx="178.777" cy="496.519" r="4.50838"/>
</g>
<path d="M183.64,496.391h 0.35498" fill="none" stroke="black" stroke-width="2"/>
<path d="M193.012,496.391h 0.35498" fill="none" stroke="black" stroke-width="2"/>
<g fill="black">
<circle cx="188.504" cy="496.391" r="4.50838"/>
</g>
<path d="M193.367,496.269h 0.35498" fill="none" stroke="black" stroke-width="2"/>
<path d="M202.739,496.269h 0.35498" fill="none" stroke="black" stroke-width="2"/>
<g fill="black">
<circle cx="198.23" cy="496.269" r="4.50838"/>
</g>
<path d="M203.094,496.193h 0.35498" fill="none" stroke="black" stroke-width="2"/>
<path d="M212.466,496.193h 0.35498" fill="none" stroke="black" stroke-width="2"/>
<g fill="black">
<circle cx="207.957" cy="496.193" r="4.50838"/>
</g>
<path d="M212.821,496.124h 0.35498" fill="none" stroke="black" stroke-width="2"/>
<path d="M222.192,496.124h 0.35498" fill="none" stroke="black" stroke-width="2"/>
<g fill="black">
<circle cx="217.684" cy="496.124" r="4.50838"/>
</g>
<path d="M222.547,496.067h 0.35498" fill="none" stroke="black" stroke-width="2"/>
<path d="M231.919,496.067h 0.35498" fill="none" stroke="black" stroke-width="2"/>
<g fill="black">
<circle cx="227.411" cy="496.067" r="4.50838"/>
</g>
<path d="M232.274,495.948h 0.35498" fill="none" stroke="black" stroke-width="2"/>
<path d="M241.646,495.948h 0.35498" fill="none" stroke="black" stroke-width="2"/>
<g fill="black">
<circle cx="237.137" cy="495.948" r="4.50838"/>
</g>
<path d="M242.001,495.968h 0.35498" fill="none" stroke="black" stroke-width="2"/>
<path d="M251.372,495.968h 0.35498" fill="none" stroke="black" stroke-width="2"/>
<g fill="black">
<circle cx="246.864" cy="495.968" r="4.50838"/>
</g>
<path d="M251.727,496.03h 0.35498" fill="none" stroke="black" stroke-width="2"/>
<path d="M261.099,496.03h 0.35498" fill="none" stroke="black" stroke-width="2"/>
<g fill="black">
<circle cx="256.591" cy="496.03" r="4.50838"/>
</g>
<path d="M261.454,496.072h 0.35498" fill="none" stroke="black" stroke-width="2"/>
<path d="M270.826,496.072h 0.35498" fill="none" stroke="black" stroke-width="2"/>
<g fill="black">
<circle cx="266.318" cy="496.072" r="4.50838"/>
</g>
<path d="M271.181,496.114h 0.35498" fill="none" stroke="black" stroke-width="2"/>
<path d="M280.553,496.114h 0.35498" fill="none" stroke="black" stroke-width="2"/>
<g fill="black">
<circle cx="276.044" cy="496.114" r="4.50838"/>
</g>
<path d="M280.908,496.133h 0.35498" fill="none" stroke="black" stroke-width="2"/>
<path d="M290.279,496.133h 0.35498" fill="none" stroke="black" stroke-width="2"/>
<g fill="black">
<circle cx="285.771" cy="496.133" r="4.50838"/>
</g>
<path d="M290.634,496.08h 0.35498" fill="none" stroke="black" stroke-width="2"/>
<path d="M300.006,496.08h 0.35498" fill="none" stroke="black" stroke-width="2"/>
<g fill="black">
<circle cx="295.498" cy="496.08" r="4.50838"/>
</g>
<path d="M300.361,496.228h 0.35498" fill="none" stroke="black" stroke-width="2"/>
<path d="M309.733,496.228h 0.35498" fill="none" stroke="black" stroke-width="2"/>
<g fill="black">
<circle cx="305.224" cy="496.228" r="4.50838"/>
</g>
<path d="M310.088,496.311h 0.35498" fill="none" stroke="black" stroke-width="2"/>
<path d="M319.46,496.311h 0.35498" fill="none" stroke="black" stroke-width="2"/>
<g fill="black">
<circle cx="314.951" cy="496.311" r="4.50838"/>
</g>
<path d="M319.814,496.367h 0.35498" fill="none" stroke="black" stroke-width="2"/>
<path d="M329.186,496.367h 0.35498" fill="none" stroke="black" stroke-width="2"/>
<g fill="black">
<circle cx="324.678" cy="496.367" r="4.50838"/>
</g>
<path d="M329.541,496.465h 0.35498" fill="none" stroke="black" stroke-width="2"/>
<path d="M338.913,496.465h 0.35498" fill="none" stroke="black" stroke-width="2"/>
<g fill="black">
<circle cx="334.405" cy="496.465" r="4.50838"/>
</g>
<path d="M339.268,496.52h 0.35498" fill="none" stroke="black" stroke-width="2"/>
<path d="M348.64,496.52h 0.35498" fill="none" stroke="black" stroke-width="2"/>
<g fill="black">
<circle cx="344.131" cy="496.52" r="4.50838"/>
</g>
<path d="M348.995,496.559h 0.35498" fill="none" stroke="black" stroke-width="2"/>
<path d="M358.366,496.559h 0.35498" fill="none" stroke="black" stroke-width="2"/>
<g fill="black">
<circle cx="353.858" cy="496.559" r="4.50838"/>
</g>
<path d="M358.721,496.644h 0.35498" fill="none" stroke="black" stroke-width="2"/>
<path d="M368.093,496.644h 0.35498" fill="none" stroke="black" stroke-width="2"/>
<g fill="black">
<circle cx="363.585" cy="496.644" r="4.50838"/>
</g>
<path d="M368.448,496.721h 0.35498" fill="none" stroke="black" stroke-width="2"/>
<path d="M377.82,496.721h 0.35498" fill="none" stroke="black" stroke-width="2"/>
<g fill="black">
<circle cx="373.311" cy="496.721" r="4.50838"/>
</g>
<path d="M378.175,496.794h 0.35498" fill="none" stroke="black" stroke-width="2"/>
<path d="M387.547,496.794h 0.35498" fill="none" stroke="black" stroke-width="2"/>
<g fill="black">
<circle cx="383.038" cy="496.794" r="4.50838"/>
</g>
<path d="M387.902,496.867h 0.35498" fill="none" stroke="black" stroke-width="2"/>
<path d="M397.273,496.867h 0.35498" fill="none" stroke="black" stroke-width="2"/>
<g fill="black">
<circle cx="392.765" cy="496.867" r="4.50838"/>
</g>
<path d="M397.628,496.921h 0.35498" fill="none" stroke="black" stroke-width="2"/>
<path d="M407,496.921h 0.35498" fill="none" stroke="black" stroke-width="2"/>
<g fill="black">
<circle cx="402.492" cy="496.921" r="4.50838"/>
</g>
<path d="M407.355,496.945h 0.35498" fill="none" stroke="black" stroke-width="2"/>
<path d="M416.727,496.945h 0.35498" fill="none" stroke="black" stroke-width="2"/>
<g fill="black">
<circle cx="412.218" cy="496.945" r="4.50838"/>
</g>
<path d="M417.082,497.023h 0.35498" fill="none" stroke="black" stroke-width="2"/>
<path d="M426.453,497.023h 0.35498" fill="none" stroke="black" stroke-width="2"/>
<g fill="black">
<circle cx="421.945" cy="497.023" r="4.50838"/>
</g>
<path d="M426.808,497.065h 0.35498" fill="none" stroke="black" stroke-width="2"/>
<path d="M436.18,497.065h 0.35498" fill="none" stroke="black" stroke-width="2"/>
<g fill="black">
<circle cx="431.672" cy="497.065" r="4.50838"/>
</g>
<path d="M436.535,497.12h 0.35498" fill="none" stroke="black" stroke-width="2"/>
<path d="M445.907,497.12h 0.35498" fill="none" stroke="black" stroke-width="2"/>
<g fill="black">
<circle cx="441.399" cy="497.12" r="4.50838"/>
</g>
<path d="M446.262,497.184h 0.35498" fill="none" stroke="black" stroke-width="2"/>
<path d="M455.634,497.184h 0.35498" fill="none" stroke="black" stroke-width="2"/>
<g fill="black">
<circle cx="451.125" cy="497.184" r="4.50838"/>
</g>
<path d="M455.989,497.258h 0.35498" fill="none" stroke="black" stroke-width="2"/>
<path d="M465.36,497.258h 0.35498" fill="none" stroke="black" stroke-width="2"/>
<g fill="black">
<circle cx="460.852" cy="497.258" r="4.50838"/>
</g>
<path d="M465.715,497.275h 0.35498" fill="none" stroke="black" stroke-width="2"/>
<path d="M475.087,497.275h 0.35498" fill="none" stroke="black" stroke-width="2"/>
<g fill="black">
<circle cx="470.579" cy="497.275" r="4.50838"/>
</g>
<path d="M475.442,497.287h 0.35498" fill="none" stroke="black" stroke-width="2"/>
<path d="M484.814,497.287h 0.35498" fill="none" stroke="black" stroke-width="2"/>
<g fill="black">
<circle cx="480.305" cy="497.287" r="4.50838"/>
</g>
<path d="M485.169,497.349h 0.35498" fill="none" stroke="black" stroke-width="2"/>
<path d="M494.541,497.349h 0.35498" fill="none" stroke="black" stroke-width="2"/>
<g fill="black">
<circle cx="490.032" cy="497.349" r="4.50838"/>
</g>
<path d="M494.896,497.39h 0.35498" fill="none" stroke="black" stroke-width="2"/>
<path d="M504.267,497.39h 0.35498" fill="none" stroke="black" stroke-width="2"/>
<g fill="black">
<circle cx="499.759" cy="497.39" r="4.50838"/>
</g>
<path d="M504.622,497.423h 0.35498" fill="none" stroke="black" stroke-width="2"/>
<path d="M513.994,497.423h 0.35498" fill="none" stroke="black" stroke-width="2"/>
<g fill="black">
<circle cx="509.486" cy="497.423" r="4.50838"/>
</g>
<path d="M514.349,497.463h 0.35498" fill="none" stroke="black" stroke-width="2"/>
<path d="M523.721,497.463h 0.35498" fill="none" stroke="black" stroke-width="2"/>
<g fill="black">
<circle cx="519.212" cy="497.463" r="4.50838"/>
</g>
<path d="M524.076,497.5h 0.35498" fill="none" stroke="black" stroke-width="2"/>
<path d="M533.447,497.5h 0.35498" fill="none" stroke="black" stroke-width="2"/>
<g fill="black">
<circle cx="528.939" cy="497.5" r="4.50838"/>
</g>
<path d="M533.802,497.53h 0.35498" fill="none" stroke="black" stroke-width="2"/>
<path d="M543.174,497.53h 0.35498" fill="none" stroke="black" stroke-width="2"/>
<g fill="black">
<circle cx="538.666" cy="497.53" r="4.50838"/>
</g>
<text xml:space="preserve" x="360.607" y="50.7193" fill="black" font-size="16.0105" font-family="Helvetica"> with EMC</text>
<text xml:space="preserve" x="352.717" y="50.7193" fill="black" font-size="16.0105" font-family="Times">&#0947;</text>
<text xml:space="preserve" x="344.828" y="50.7193" fill="black" font-size="16.0105" font-family="Times">&#0947;</text>
<text xml:space="preserve" x="336.938" y="50.7193" fill="black" font-size="16.0105" font-family="Times">&#0947;</text>
<text xml:space="preserve" x="331.866" y="50.7193" fill="black" font-size="16.0105" font-family="Helvetica"> </text>
<text xml:space="preserve" x="316.65" y="50.7193" fill="black" font-size="16.0105" font-family="Times">&#8594;</text>
<text xml:space="preserve" x="311.578" y="50.7193" fill="black" font-size="16.0105" font-family="Helvetica"> </text>
<text xml:space="preserve" x="303.689" y="50.7193" fill="black" font-size="16.0105" font-family="Times">&#0947;</text>
<text xml:space="preserve" x="298.053" y="45.0838" fill="black" font-size="10.8403" font-family="Helvetica">0</text>
<text xml:space="preserve" x="289.6" y="50.7193" fill="black" font-size="16.0105" font-family="Times">&#0960;</text>
<text xml:space="preserve" x="284.528" y="50.7193" fill="black" font-size="16.0105" font-family="Helvetica"> </text>
<text xml:space="preserve" x="269.312" y="50.7193" fill="black" font-size="16.0105" font-family="Times">&#8594;</text>
<text xml:space="preserve" x="264.24" y="50.7193" fill="black" font-size="16.0105" font-family="Helvetica"> </text>
<text xml:space="preserve" x="252.969" y="50.7193" fill="black" font-size="16.0105" font-family="Times">&#0969;</text>
<text xml:space="preserve" x="128.989" y="50.7193" fill="black" font-size="16.0105" font-family="Helvetica"> = 13 TeV (EG1), </text>
<text xml:space="preserve" x="120.536" y="50.7193" fill="black" font-size="16.0105" font-family="Helvetica" font-style="oblique">s</text>
<path d="M114.9,41.7025l 1.69064, 9.58031" fill="none" stroke="black" stroke-width="2"/>
<path d="M116.591,51.2829l 2.25419, -14.0887" fill="none" stroke="black"/>
<path d="M118.845,37.1942h 10.1439" fill="none" stroke="black"/>
<text xml:space="preserve" x="89.5406" y="50.7193" fill="black" font-size="16.0105" font-family="Helvetica">pp </text>
<text xml:space="preserve" x="89.5406" y="85.6593" fill="black" font-size="16.0105" font-family="Helvetica">ALICE work in progress</text>
<text xml:space="preserve" x="214.085" y="120.599" fill="black" font-size="16.0105" font-family="Helvetica">) &lt; 32.0</text>
<text xml:space="preserve" x="205.068" y="120.599" fill="black" font-size="16.0105" font-family="Helvetica" font-style="oblique">c</text>
<text xml:space="preserve" x="154.912" y="120.599" fill="black" font-size="16.0105" font-family="Helvetica"> /(GeV/</text>
<text xml:space="preserve" x="148.15" y="128.489" fill="black" font-size="10.8403" font-family="Helvetica">T</text>
<text xml:space="preserve" x="138.569" y="120.599" fill="black" font-size="16.0105" font-family="Helvetica" font-style="oblique">p</text>
<text xml:space="preserve" x="133.497" y="120.599" fill="black" font-size="16.0105" font-family="Helvetica"> </text>
<text xml:space="preserve" x="125.044" y="120.599" fill="black" font-size="16.0105" font-family="Times">&#8804;</text>
<text xml:space="preserve" x="89.5406" y="120.599" fill="black" font-size="16.0105" font-family="Helvetica">28.0 </text>
<text xml:space="preserve" x="134.624" y="158.357" fill="black" font-size="16.0105" font-family="Helvetica">background</text>
<path d="M92.9803,152.186h 34.7244" fill="none" stroke="#993333" stroke-width="2"/>
<g fill="#993333">
<rect x="105.834" y="147.678" width="9.01677" height="9.01677"/>
</g>
<text xml:space="preserve" x="134.624" y="185.971" fill="black" font-size="16.0105" font-family="Helvetica">same event</text>
<path d="M92.9803,179.856h 34.7244" fill="none" stroke="black" stroke-width="2"/>
<g fill="black">
<circle cx="110.343" cy="179.856" r="4.50838"/>
</g></svg>
