<?xml version="1.0" standalone="no"?>
<svg width="567.429" height="553.904" viewBox="0 0 567.429 553.904" xmlns="http://www.w3.org/2000/svg" shape-rendering="crispEdges">
<title>
MC/EG1/OmegaTGPSPlusWOPS/SameEventAndBackgroundBeforeScaling_03.svg
</title>
<desc>
Creator: ROOT Version 6.20/08
CreationDate: Wed Mar 10 16:17:22 2021</desc>
<defs>
</defs>
<rect x="0.5" y="0" width="566.929" height="553.404" fill="white"/>
<rect x="57.1929" y="16.6021" width="496.063" height="481.461" fill="white"/>
<rect x="57.1929" y="16.6021" width="496.063" height="481.461" fill="none" stroke="black"/>
<rect x="57.1929" y="16.6021" width="496.063" height="481.461" fill="white"/>
<rect x="57.1929" y="16.6021" width="496.063" height="481.461" fill="none" stroke="black"/>
<g fill="#993333">
<rect x="94.4324" y="493.178" width="9.01677" height="9.01677"/>
</g>
<g fill="#993333">
<rect x="99.3439" y="490.162" width="9.01677" height="9.01677"/>
</g>
<g fill="#993333">
<rect x="104.255" y="481.743" width="9.01677" height="9.01677"/>
</g>
<g fill="#993333">
<rect x="109.167" y="300.331" width="9.01677" height="9.01677"/>
</g>
<g fill="#993333">
<rect x="114.078" y="226.077" width="9.01677" height="9.01677"/>
</g>
<g fill="#993333">
<rect x="118.99" y="403.783" width="9.01677" height="9.01677"/>
</g>
<g fill="#993333">
<rect x="123.901" y="432.228" width="9.01677" height="9.01677"/>
</g>
<g fill="#993333">
<rect x="128.813" y="440.129" width="9.01677" height="9.01677"/>
</g>
<g fill="#993333">
<rect x="133.725" y="440.453" width="9.01677" height="9.01677"/>
</g>
<g fill="#993333">
<rect x="138.636" y="439.808" width="9.01677" height="9.01677"/>
</g>
<g fill="#993333">
<rect x="143.548" y="440.279" width="9.01677" height="9.01677"/>
</g>
<g fill="#993333">
<rect x="148.459" y="439.88" width="9.01677" height="9.01677"/>
</g>
<g fill="#993333">
<rect x="153.371" y="440.336" width="9.01677" height="9.01677"/>
</g>
<g fill="#993333">
<rect x="158.282" y="440.285" width="9.01677" height="9.01677"/>
</g>
<g fill="#993333">
<rect x="163.194" y="440" width="9.01677" height="9.01677"/>
</g>
<g fill="#993333">
<rect x="168.105" y="440.739" width="9.01677" height="9.01677"/>
</g>
<g fill="#993333">
<rect x="173.017" y="440.627" width="9.01677" height="9.01677"/>
</g>
<g fill="#993333">
<rect x="177.928" y="441.167" width="9.01677" height="9.01677"/>
</g>
<g fill="#993333">
<rect x="182.84" y="441.683" width="9.01677" height="9.01677"/>
</g>
<g fill="#993333">
<rect x="187.751" y="442.218" width="9.01677" height="9.01677"/>
</g>
<g fill="#993333">
<rect x="192.663" y="442.745" width="9.01677" height="9.01677"/>
</g>
<g fill="#993333">
<rect x="197.574" y="443.621" width="9.01677" height="9.01677"/>
</g>
<g fill="#993333">
<rect x="202.486" y="444.255" width="9.01677" height="9.01677"/>
</g>
<g fill="#993333">
<rect x="207.397" y="444.721" width="9.01677" height="9.01677"/>
</g>
<g fill="#993333">
<rect x="212.309" y="445.792" width="9.01677" height="9.01677"/>
</g>
<g fill="#993333">
<rect x="217.22" y="446.625" width="9.01677" height="9.01677"/>
</g>
<g fill="#993333">
<rect x="222.132" y="447.699" width="9.01677" height="9.01677"/>
</g>
<g fill="#993333">
<rect x="227.043" y="448.348" width="9.01677" height="9.01677"/>
</g>
<g fill="#993333">
<rect x="231.955" y="448.985" width="9.01677" height="9.01677"/>
</g>
<g fill="#993333">
<rect x="236.866" y="449.891" width="9.01677" height="9.01677"/>
</g>
<g fill="#993333">
<rect x="241.778" y="450.677" width="9.01677" height="9.01677"/>
</g>
<g fill="#993333">
<rect x="246.689" y="451.753" width="9.01677" height="9.01677"/>
</g>
<g fill="#993333">
<rect x="251.601" y="452.806" width="9.01677" height="9.01677"/>
</g>
<g fill="#993333">
<rect x="256.512" y="453.757" width="9.01677" height="9.01677"/>
</g>
<g fill="#993333">
<rect x="261.424" y="454.776" width="9.01677" height="9.01677"/>
</g>
<g fill="#993333">
<rect x="266.335" y="455.605" width="9.01677" height="9.01677"/>
</g>
<g fill="#993333">
<rect x="271.247" y="456.781" width="9.01677" height="9.01677"/>
</g>
<g fill="#993333">
<rect x="276.158" y="457.417" width="9.01677" height="9.01677"/>
</g>
<g fill="#993333">
<rect x="281.07" y="458.509" width="9.01677" height="9.01677"/>
</g>
<g fill="#993333">
<rect x="285.981" y="459.469" width="9.01677" height="9.01677"/>
</g>
<g fill="#993333">
<rect x="290.893" y="460.433" width="9.01677" height="9.01677"/>
</g>
<g fill="#993333">
<rect x="295.805" y="461.251" width="9.01677" height="9.01677"/>
</g>
<g fill="#993333">
<rect x="300.716" y="462.156" width="9.01677" height="9.01677"/>
</g>
<g fill="#993333">
<rect x="305.628" y="463.158" width="9.01677" height="9.01677"/>
</g>
<g fill="#993333">
<rect x="310.539" y="464.069" width="9.01677" height="9.01677"/>
</g>
<g fill="#993333">
<rect x="315.451" y="464.92" width="9.01677" height="9.01677"/>
</g>
<g fill="#993333">
<rect x="320.362" y="465.869" width="9.01677" height="9.01677"/>
</g>
<g fill="#993333">
<rect x="325.274" y="466.701" width="9.01677" height="9.01677"/>
</g>
<g fill="#993333">
<rect x="330.185" y="467.27" width="9.01677" height="9.01677"/>
</g>
<g fill="#993333">
<rect x="335.097" y="468.309" width="9.01677" height="9.01677"/>
</g>
<g fill="#993333">
<rect x="340.008" y="468.853" width="9.01677" height="9.01677"/>
</g>
<g fill="#993333">
<rect x="344.92" y="469.662" width="9.01677" height="9.01677"/>
</g>
<g fill="#993333">
<rect x="349.831" y="470.462" width="9.01677" height="9.01677"/>
</g>
<g fill="#993333">
<rect x="354.743" y="471.325" width="9.01677" height="9.01677"/>
</g>
<g fill="#993333">
<rect x="359.654" y="471.868" width="9.01677" height="9.01677"/>
</g>
<g fill="#993333">
<rect x="364.566" y="472.6" width="9.01677" height="9.01677"/>
</g>
<g fill="#993333">
<rect x="369.477" y="473.314" width="9.01677" height="9.01677"/>
</g>
<g fill="#993333">
<rect x="374.389" y="473.971" width="9.01677" height="9.01677"/>
</g>
<g fill="#993333">
<rect x="379.3" y="474.605" width="9.01677" height="9.01677"/>
</g>
<g fill="#993333">
<rect x="384.212" y="475.273" width="9.01677" height="9.01677"/>
</g>
<g fill="#993333">
<rect x="389.123" y="475.815" width="9.01677" height="9.01677"/>
</g>
<g fill="#993333">
<rect x="394.035" y="476.285" width="9.01677" height="9.01677"/>
</g>
<g fill="#993333">
<rect x="398.946" y="477.107" width="9.01677" height="9.01677"/>
</g>
<g fill="#993333">
<rect x="403.858" y="477.587" width="9.01677" height="9.01677"/>
</g>
<g fill="#993333">
<rect x="408.769" y="477.96" width="9.01677" height="9.01677"/>
</g>
<g fill="#993333">
<rect x="413.681" y="478.561" width="9.01677" height="9.01677"/>
</g>
<g fill="#993333">
<rect x="418.592" y="479.08" width="9.01677" height="9.01677"/>
</g>
<g fill="#993333">
<rect x="423.504" y="479.666" width="9.01677" height="9.01677"/>
</g>
<g fill="#993333">
<rect x="428.415" y="479.955" width="9.01677" height="9.01677"/>
</g>
<g fill="#993333">
<rect x="433.327" y="480.452" width="9.01677" height="9.01677"/>
</g>
<g fill="#993333">
<rect x="438.238" y="480.882" width="9.01677" height="9.01677"/>
</g>
<g fill="#993333">
<rect x="443.15" y="481.354" width="9.01677" height="9.01677"/>
</g>
<g fill="#993333">
<rect x="448.061" y="481.745" width="9.01677" height="9.01677"/>
</g>
<g fill="#993333">
<rect x="452.973" y="482.173" width="9.01677" height="9.01677"/>
</g>
<g fill="#993333">
<rect x="457.884" y="482.436" width="9.01677" height="9.01677"/>
</g>
<g fill="#993333">
<rect x="462.796" y="482.918" width="9.01677" height="9.01677"/>
</g>
<g fill="#993333">
<rect x="467.708" y="483.155" width="9.01677" height="9.01677"/>
</g>
<g fill="#993333">
<rect x="472.619" y="483.551" width="9.01677" height="9.01677"/>
</g>
<g fill="#993333">
<rect x="477.531" y="483.86" width="9.01677" height="9.01677"/>
</g>
<g fill="#993333">
<rect x="482.442" y="484.166" width="9.01677" height="9.01677"/>
</g>
<g fill="#993333">
<rect x="487.354" y="484.513" width="9.01677" height="9.01677"/>
</g>
<g fill="#993333">
<rect x="492.265" y="484.656" width="9.01677" height="9.01677"/>
</g>
<g fill="#993333">
<rect x="497.177" y="484.95" width="9.01677" height="9.01677"/>
</g>
<g fill="#993333">
<rect x="502.088" y="485.373" width="9.01677" height="9.01677"/>
</g>
<g fill="#993333">
<rect x="507" y="485.532" width="9.01677" height="9.01677"/>
</g>
<g fill="#993333">
<rect x="511.911" y="485.791" width="9.01677" height="9.01677"/>
</g>
<g fill="#993333">
<rect x="516.823" y="486.085" width="9.01677" height="9.01677"/>
</g>
<g fill="#993333">
<rect x="521.734" y="486.222" width="9.01677" height="9.01677"/>
</g>
<g fill="#993333">
<rect x="526.646" y="486.49" width="9.01677" height="9.01677"/>
</g>
<g fill="#993333">
<rect x="531.557" y="486.67" width="9.01677" height="9.01677"/>
</g>
<g fill="#993333">
<rect x="536.469" y="486.934" width="9.01677" height="9.01677"/>
</g>
<g fill="#993333">
<rect x="541.38" y="487.042" width="9.01677" height="9.01677"/>
</g>
<path d="M57.1929,498.064h 496.063" fill="none" stroke="black"/>
<path d="M57.1929,483.537v 14.5269" fill="none" stroke="black"/>
<path d="M72.5414,490.8v 7.26343" fill="none" stroke="black"/>
<path d="M87.8899,490.8v 7.26343" fill="none" stroke="black"/>
<path d="M103.238,490.8v 7.26343" fill="none" stroke="black"/>
<path d="M118.587,483.537v 14.5269" fill="none" stroke="black"/>
<path d="M133.935,490.8v 7.26343" fill="none" stroke="black"/>
<path d="M149.284,490.8v 7.26343" fill="none" stroke="black"/>
<path d="M164.632,490.8v 7.26343" fill="none" stroke="black"/>
<path d="M179.981,483.537v 14.5269" fill="none" stroke="black"/>
<path d="M195.329,490.8v 7.26343" fill="none" stroke="black"/>
<path d="M210.678,490.8v 7.26343" fill="none" stroke="black"/>
<path d="M226.026,490.8v 7.26343" fill="none" stroke="black"/>
<path d="M241.375,483.537v 14.5269" fill="none" stroke="black"/>
<path d="M256.723,490.8v 7.26343" fill="none" stroke="black"/>
<path d="M272.072,490.8v 7.26343" fill="none" stroke="black"/>
<path d="M287.42,490.8v 7.26343" fill="none" stroke="black"/>
<path d="M302.769,483.537v 14.5269" fill="none" stroke="black"/>
<path d="M318.117,490.8v 7.26343" fill="none" stroke="black"/>
<path d="M333.466,490.8v 7.26343" fill="none" stroke="black"/>
<path d="M348.814,490.8v 7.26343" fill="none" stroke="black"/>
<path d="M364.163,483.537v 14.5269" fill="none" stroke="black"/>
<path d="M379.511,490.8v 7.26343" fill="none" stroke="black"/>
<path d="M394.86,490.8v 7.26343" fill="none" stroke="black"/>
<path d="M410.208,490.8v 7.26343" fill="none" stroke="black"/>
<path d="M425.557,483.537v 14.5269" fill="none" stroke="black"/>
<path d="M440.905,490.8v 7.26343" fill="none" stroke="black"/>
<path d="M456.253,490.8v 7.26343" fill="none" stroke="black"/>
<path d="M471.602,490.8v 7.26343" fill="none" stroke="black"/>
<path d="M486.95,483.537v 14.5269" fill="none" stroke="black"/>
<path d="M502.299,490.8v 7.26343" fill="none" stroke="black"/>
<path d="M517.647,490.8v 7.26343" fill="none" stroke="black"/>
<path d="M532.996,490.8v 7.26343" fill="none" stroke="black"/>
<path d="M548.344,483.537v 14.5269" fill="none" stroke="black"/>
<path d="M548.344,483.537v 14.5269" fill="none" stroke="black"/>
<text xml:space="preserve" x="52.3464" y="513.956" fill="black" font-size="16.0105" font-family="Helvetica">0</text>
<text xml:space="preserve" x="107.574" y="513.956" fill="black" font-size="16.0105" font-family="Helvetica">0.2</text>
<text xml:space="preserve" x="169.001" y="513.956" fill="black" font-size="16.0105" font-family="Helvetica">0.4</text>
<text xml:space="preserve" x="230.428" y="513.956" fill="black" font-size="16.0105" font-family="Helvetica">0.6</text>
<text xml:space="preserve" x="291.854" y="513.956" fill="black" font-size="16.0105" font-family="Helvetica">0.8</text>
<text xml:space="preserve" x="361.171" y="513.956" fill="black" font-size="16.0105" font-family="Helvetica">1</text>
<text xml:space="preserve" x="414.708" y="513.956" fill="black" font-size="16.0105" font-family="Helvetica">1.2</text>
<text xml:space="preserve" x="476.134" y="513.956" fill="black" font-size="16.0105" font-family="Helvetica">1.4</text>
<text xml:space="preserve" x="537.561" y="513.956" fill="black" font-size="16.0105" font-family="Helvetica">1.6</text>
<text xml:space="preserve" x="548.268" y="537.625" fill="black" font-size="16.0105" font-family="Helvetica">)</text>
<text xml:space="preserve" x="542.633" y="532.553" fill="black" font-size="10.8403" font-family="Helvetica">2</text>
<text xml:space="preserve" x="533.616" y="537.625" fill="black" font-size="16.0105" font-family="Helvetica" font-style="oblique">c</text>
<text xml:space="preserve" x="487.405" y="537.625" fill="black" font-size="16.0105" font-family="Helvetica"> (GeV/</text>
<text xml:space="preserve" x="473.317" y="542.697" fill="black" font-size="10.8403" font-family="Helvetica">inv</text>
<text xml:space="preserve" x="459.792" y="537.625" fill="black" font-size="16.0105" font-family="Helvetica" font-style="oblique">m</text>
<path d="M57.1929,16.6021h 496.063" fill="none" stroke="black"/>
<path d="M57.1929,31.129v -14.5269" fill="none" stroke="black"/>
<path d="M72.5414,23.8655v -7.26343" fill="none" stroke="black"/>
<path d="M87.8899,23.8655v -7.26343" fill="none" stroke="black"/>
<path d="M103.238,23.8655v -7.26343" fill="none" stroke="black"/>
<path d="M118.587,31.129v -14.5269" fill="none" stroke="black"/>
<path d="M133.935,23.8655v -7.26343" fill="none" stroke="black"/>
<path d="M149.284,23.8655v -7.26343" fill="none" stroke="black"/>
<path d="M164.632,23.8655v -7.26343" fill="none" stroke="black"/>
<path d="M179.981,31.129v -14.5269" fill="none" stroke="black"/>
<path d="M195.329,23.8655v -7.26343" fill="none" stroke="black"/>
<path d="M210.678,23.8655v -7.26343" fill="none" stroke="black"/>
<path d="M226.026,23.8655v -7.26343" fill="none" stroke="black"/>
<path d="M241.375,31.129v -14.5269" fill="none" stroke="black"/>
<path d="M256.723,23.8655v -7.26343" fill="none" stroke="black"/>
<path d="M272.072,23.8655v -7.26343" fill="none" stroke="black"/>
<path d="M287.42,23.8655v -7.26343" fill="none" stroke="black"/>
<path d="M302.769,31.129v -14.5269" fill="none" stroke="black"/>
<path d="M318.117,23.8655v -7.26343" fill="none" stroke="black"/>
<path d="M333.466,23.8655v -7.26343" fill="none" stroke="black"/>
<path d="M348.814,23.8655v -7.26343" fill="none" stroke="black"/>
<path d="M364.163,31.129v -14.5269" fill="none" stroke="black"/>
<path d="M379.511,23.8655v -7.26343" fill="none" stroke="black"/>
<path d="M394.86,23.8655v -7.26343" fill="none" stroke="black"/>
<path d="M410.208,23.8655v -7.26343" fill="none" stroke="black"/>
<path d="M425.557,31.129v -14.5269" fill="none" stroke="black"/>
<path d="M440.905,23.8655v -7.26343" fill="none" stroke="black"/>
<path d="M456.253,23.8655v -7.26343" fill="none" stroke="black"/>
<path d="M471.602,23.8655v -7.26343" fill="none" stroke="black"/>
<path d="M486.95,31.129v -14.5269" fill="none" stroke="black"/>
<path d="M502.299,23.8655v -7.26343" fill="none" stroke="black"/>
<path d="M517.647,23.8655v -7.26343" fill="none" stroke="black"/>
<path d="M532.996,23.8655v -7.26343" fill="none" stroke="black"/>
<path d="M548.344,31.129v -14.5269" fill="none" stroke="black"/>
<path d="M548.344,31.129v -14.5269" fill="none" stroke="black"/>
<path d="M57.1929,498.064v -481.461" fill="none" stroke="black"/>
<path d="M71.9898,498.064h -14.7969" fill="none" stroke="black"/>
<path d="M64.5913,485.185h -7.39843" fill="none" stroke="black"/>
<path d="M64.5913,472.306h -7.39843" fill="none" stroke="black"/>
<path d="M64.5913,459.428h -7.39843" fill="none" stroke="black"/>
<path d="M64.5913,446.549h -7.39843" fill="none" stroke="black"/>
<path d="M71.9898,433.671h -14.7969" fill="none" stroke="black"/>
<path d="M64.5913,420.792h -7.39843" fill="none" stroke="black"/>
<path d="M64.5913,407.913h -7.39843" fill="none" stroke="black"/>
<path d="M64.5913,395.035h -7.39843" fill="none" stroke="black"/>
<path d="M64.5913,382.156h -7.39843" fill="none" stroke="black"/>
<path d="M71.9898,369.278h -14.7969" fill="none" stroke="black"/>
<path d="M64.5913,356.399h -7.39843" fill="none" stroke="black"/>
<path d="M64.5913,343.52h -7.39843" fill="none" stroke="black"/>
<path d="M64.5913,330.642h -7.39843" fill="none" stroke="black"/>
<path d="M64.5913,317.763h -7.39843" fill="none" stroke="black"/>
<path d="M71.9898,304.885h -14.7969" fill="none" stroke="black"/>
<path d="M64.5913,292.006h -7.39843" fill="none" stroke="black"/>
<path d="M64.5913,279.127h -7.39843" fill="none" stroke="black"/>
<path d="M64.5913,266.249h -7.39843" fill="none" stroke="black"/>
<path d="M64.5913,253.37h -7.39843" fill="none" stroke="black"/>
<path d="M71.9898,240.492h -14.7969" fill="none" stroke="black"/>
<path d="M64.5913,227.613h -7.39843" fill="none" stroke="black"/>
<path d="M64.5913,214.734h -7.39843" fill="none" stroke="black"/>
<path d="M64.5913,201.856h -7.39843" fill="none" stroke="black"/>
<path d="M64.5913,188.977h -7.39843" fill="none" stroke="black"/>
<path d="M71.9898,176.099h -14.7969" fill="none" stroke="black"/>
<path d="M64.5913,163.22h -7.39843" fill="none" stroke="black"/>
<path d="M64.5913,150.341h -7.39843" fill="none" stroke="black"/>
<path d="M64.5913,137.463h -7.39843" fill="none" stroke="black"/>
<path d="M64.5913,124.584h -7.39843" fill="none" stroke="black"/>
<path d="M71.9898,111.706h -14.7969" fill="none" stroke="black"/>
<path d="M64.5913,98.8269h -7.39843" fill="none" stroke="black"/>
<path d="M64.5913,85.9483h -7.39843" fill="none" stroke="black"/>
<path d="M64.5913,73.0697h -7.39843" fill="none" stroke="black"/>
<path d="M64.5913,60.1911h -7.39843" fill="none" stroke="black"/>
<path d="M71.9898,47.3125h -14.7969" fill="none" stroke="black"/>
<path d="M71.9898,47.3125h -14.7969" fill="none" stroke="black"/>
<path d="M64.5913,34.4339h -7.39843" fill="none" stroke="black"/>
<path d="M64.5913,21.5553h -7.39843" fill="none" stroke="black"/>
<text xml:space="preserve" x="45.5838" y="503.248" fill="black" font-size="16.0105" font-family="Helvetica">0</text>
<text xml:space="preserve" x="32.6222" y="439.004" fill="black" font-size="16.0105" font-family="Helvetica">0.5</text>
<text xml:space="preserve" x="48.4016" y="375.323" fill="black" font-size="16.0105" font-family="Helvetica">1</text>
<text xml:space="preserve" x="32.6222" y="310.515" fill="black" font-size="16.0105" font-family="Helvetica">1.5</text>
<text xml:space="preserve" x="45.5838" y="246.27" fill="black" font-size="16.0105" font-family="Helvetica">2</text>
<text xml:space="preserve" x="32.6222" y="181.462" fill="black" font-size="16.0105" font-family="Helvetica">2.5</text>
<text xml:space="preserve" x="45.5838" y="117.218" fill="black" font-size="16.0105" font-family="Helvetica">3</text>
<text xml:space="preserve" x="32.6222" y="52.41" fill="black" font-size="16.0105" font-family="Helvetica">3.5</text>
<text xml:space="preserve" x="82.2144" y="7.32612" fill="black" font-size="10.8403" font-family="Helvetica">3</text>
<text xml:space="preserve" x="65.308" y="14.6522" fill="black" font-size="16.0105" font-family="Helvetica">10</text>
<text xml:space="preserve" x="56.8548" y="14.6522" fill="black" font-size="16.0105" font-family="Times">&#0215;</text>
<g transform="rotate(-90,22.4784,21.9784)">
<text xml:space="preserve" x="22.4784" y="21.9784" fill="black" font-size="10.8403" font-family="Times">&#0947;</text>
</g>
<g transform="rotate(-90,18.5335,25.9232)">
<text xml:space="preserve" x="18.5335" y="25.9232" fill="black" font-size="7.39355" font-family="Helvetica">0</text>
</g>
<g transform="rotate(-90,22.4784,32.1222)">
<text xml:space="preserve" x="22.4784" y="32.1222" fill="black" font-size="10.8403" font-family="Times">&#0960;</text>
</g>
<g transform="rotate(-90,17.4064,45.0838)">
<text xml:space="preserve" x="17.4064" y="45.0838" fill="black" font-size="16.0105" font-family="Helvetica" font-style="oblique">N</text>
</g>
<path d="M553.256,498.064v -481.461" fill="none" stroke="black"/>
<path d="M538.459,498.064h 14.7969" fill="none" stroke="black"/>
<path d="M545.857,485.185h 7.39843" fill="none" stroke="black"/>
<path d="M545.857,472.306h 7.39843" fill="none" stroke="black"/>
<path d="M545.857,459.428h 7.39843" fill="none" stroke="black"/>
<path d="M545.857,446.549h 7.39843" fill="none" stroke="black"/>
<path d="M538.459,433.671h 14.7969" fill="none" stroke="black"/>
<path d="M545.857,420.792h 7.39843" fill="none" stroke="black"/>
<path d="M545.857,407.913h 7.39843" fill="none" stroke="black"/>
<path d="M545.857,395.035h 7.39843" fill="none" stroke="black"/>
<path d="M545.857,382.156h 7.39843" fill="none" stroke="black"/>
<path d="M538.459,369.278h 14.7969" fill="none" stroke="black"/>
<path d="M545.857,356.399h 7.39843" fill="none" stroke="black"/>
<path d="M545.857,343.52h 7.39843" fill="none" stroke="black"/>
<path d="M545.857,330.642h 7.39843" fill="none" stroke="black"/>
<path d="M545.857,317.763h 7.39843" fill="none" stroke="black"/>
<path d="M538.459,304.885h 14.7969" fill="none" stroke="black"/>
<path d="M545.857,292.006h 7.39843" fill="none" stroke="black"/>
<path d="M545.857,279.127h 7.39843" fill="none" stroke="black"/>
<path d="M545.857,266.249h 7.39843" fill="none" stroke="black"/>
<path d="M545.857,253.37h 7.39843" fill="none" stroke="black"/>
<path d="M538.459,240.492h 14.7969" fill="none" stroke="black"/>
<path d="M545.857,227.613h 7.39843" fill="none" stroke="black"/>
<path d="M545.857,214.734h 7.39843" fill="none" stroke="black"/>
<path d="M545.857,201.856h 7.39843" fill="none" stroke="black"/>
<path d="M545.857,188.977h 7.39843" fill="none" stroke="black"/>
<path d="M538.459,176.099h 14.7969" fill="none" stroke="black"/>
<path d="M545.857,163.22h 7.39843" fill="none" stroke="black"/>
<path d="M545.857,150.341h 7.39843" fill="none" stroke="black"/>
<path d="M545.857,137.463h 7.39843" fill="none" stroke="black"/>
<path d="M545.857,124.584h 7.39843" fill="none" stroke="black"/>
<path d="M538.459,111.706h 14.7969" fill="none" stroke="black"/>
<path d="M545.857,98.8269h 7.39843" fill="none" stroke="black"/>
<path d="M545.857,85.9483h 7.39843" fill="none" stroke="black"/>
<path d="M545.857,73.0697h 7.39843" fill="none" stroke="black"/>
<path d="M545.857,60.1911h 7.39843" fill="none" stroke="black"/>
<path d="M538.459,47.3125h 14.7969" fill="none" stroke="black"/>
<path d="M538.459,47.3125h 14.7969" fill="none" stroke="black"/>
<path d="M545.857,34.4339h 7.39843" fill="none" stroke="black"/>
<path d="M545.857,21.5553h 7.39843" fill="none" stroke="black"/>
<g fill="black">
<circle cx="103.852" cy="498.063" r="4.50838"/>
</g>
<g fill="black">
<circle cx="108.764" cy="498.036" r="4.50838"/>
</g>
<g fill="black">
<circle cx="113.675" cy="497.907" r="4.50838"/>
</g>
<g fill="black">
<circle cx="118.587" cy="497.647" r="4.50838"/>
</g>
<g fill="black">
<circle cx="123.498" cy="497.385" r="4.50838"/>
</g>
<g fill="black">
<circle cx="128.41" cy="497.203" r="4.50838"/>
</g>
<g fill="black">
<circle cx="133.321" cy="497.035" r="4.50838"/>
</g>
<g fill="black">
<circle cx="138.233" cy="496.907" r="4.50838"/>
</g>
<g fill="black">
<circle cx="143.144" cy="496.796" r="4.50838"/>
</g>
<g fill="black">
<circle cx="148.056" cy="496.707" r="4.50838"/>
</g>
<g fill="black">
<circle cx="152.967" cy="496.59" r="4.50838"/>
</g>
<g fill="black">
<circle cx="157.879" cy="496.509" r="4.50838"/>
</g>
<g fill="black">
<circle cx="162.79" cy="496.403" r="4.50838"/>
</g>
<g fill="black">
<circle cx="167.702" cy="496.357" r="4.50838"/>
</g>
<g fill="black">
<circle cx="172.614" cy="496.301" r="4.50838"/>
</g>
<g fill="black">
<circle cx="177.525" cy="496.28" r="4.50838"/>
</g>
<g fill="black">
<circle cx="182.437" cy="496.262" r="4.50838"/>
</g>
<g fill="black">
<circle cx="187.348" cy="496.261" r="4.50838"/>
</g>
<g fill="black">
<circle cx="192.26" cy="496.242" r="4.50838"/>
</g>
<g fill="black">
<circle cx="197.171" cy="496.227" r="4.50838"/>
</g>
<g fill="black">
<circle cx="202.083" cy="496.211" r="4.50838"/>
</g>
<g fill="black">
<circle cx="206.994" cy="496.228" r="4.50838"/>
</g>
<g fill="black">
<circle cx="211.906" cy="496.211" r="4.50838"/>
</g>
<g fill="black">
<circle cx="216.817" cy="496.208" r="4.50838"/>
</g>
<g fill="black">
<circle cx="221.729" cy="496.201" r="4.50838"/>
</g>
<g fill="black">
<circle cx="226.64" cy="496.215" r="4.50838"/>
</g>
<g fill="black">
<circle cx="231.552" cy="496.18" r="4.50838"/>
</g>
<g fill="black">
<circle cx="236.463" cy="496.155" r="4.50838"/>
</g>
<g fill="black">
<circle cx="241.375" cy="496.178" r="4.50838"/>
</g>
<g fill="black">
<circle cx="246.286" cy="496.193" r="4.50838"/>
</g>
<g fill="black">
<circle cx="251.198" cy="496.197" r="4.50838"/>
</g>
<g fill="black">
<circle cx="256.109" cy="496.243" r="4.50838"/>
</g>
<g fill="black">
<circle cx="261.021" cy="496.282" r="4.50838"/>
</g>
<g fill="black">
<circle cx="265.932" cy="496.306" r="4.50838"/>
</g>
<g fill="black">
<circle cx="270.844" cy="496.337" r="4.50838"/>
</g>
<g fill="black">
<circle cx="275.755" cy="496.37" r="4.50838"/>
</g>
<g fill="black">
<circle cx="280.667" cy="496.382" r="4.50838"/>
</g>
<g fill="black">
<circle cx="285.578" cy="496.388" r="4.50838"/>
</g>
<g fill="black">
<circle cx="290.49" cy="496.388" r="4.50838"/>
</g>
<g fill="black">
<circle cx="295.401" cy="496.407" r="4.50838"/>
</g>
<g fill="black">
<circle cx="300.313" cy="496.458" r="4.50838"/>
</g>
<g fill="black">
<circle cx="305.224" cy="496.487" r="4.50838"/>
</g>
<g fill="black">
<circle cx="310.136" cy="496.584" r="4.50838"/>
</g>
<g fill="black">
<circle cx="315.047" cy="496.632" r="4.50838"/>
</g>
<g fill="black">
<circle cx="319.959" cy="496.684" r="4.50838"/>
</g>
<g fill="black">
<circle cx="324.87" cy="496.692" r="4.50838"/>
</g>
<g fill="black">
<circle cx="329.782" cy="496.747" r="4.50838"/>
</g>
<g fill="black">
<circle cx="334.694" cy="496.793" r="4.50838"/>
</g>
<g fill="black">
<circle cx="339.605" cy="496.81" r="4.50838"/>
</g>
<g fill="black">
<circle cx="344.517" cy="496.833" r="4.50838"/>
</g>
<g fill="black">
<circle cx="349.428" cy="496.886" r="4.50838"/>
</g>
<g fill="black">
<circle cx="354.34" cy="496.918" r="4.50838"/>
</g>
<g fill="black">
<circle cx="359.251" cy="496.945" r="4.50838"/>
</g>
<g fill="black">
<circle cx="364.163" cy="496.961" r="4.50838"/>
</g>
<g fill="black">
<circle cx="369.074" cy="496.997" r="4.50838"/>
</g>
<g fill="black">
<circle cx="373.986" cy="497.05" r="4.50838"/>
</g>
<g fill="black">
<circle cx="378.897" cy="497.054" r="4.50838"/>
</g>
<g fill="black">
<circle cx="383.809" cy="497.104" r="4.50838"/>
</g>
<g fill="black">
<circle cx="388.72" cy="497.124" r="4.50838"/>
</g>
<g fill="black">
<circle cx="393.632" cy="497.133" r="4.50838"/>
</g>
<g fill="black">
<circle cx="398.543" cy="497.178" r="4.50838"/>
</g>
<g fill="black">
<circle cx="403.455" cy="497.209" r="4.50838"/>
</g>
<g fill="black">
<circle cx="408.366" cy="497.212" r="4.50838"/>
</g>
<g fill="black">
<circle cx="413.278" cy="497.253" r="4.50838"/>
</g>
<g fill="black">
<circle cx="418.189" cy="497.298" r="4.50838"/>
</g>
<g fill="black">
<circle cx="423.101" cy="497.29" r="4.50838"/>
</g>
<g fill="black">
<circle cx="428.012" cy="497.317" r="4.50838"/>
</g>
<g fill="black">
<circle cx="432.924" cy="497.344" r="4.50838"/>
</g>
<g fill="black">
<circle cx="437.835" cy="497.362" r="4.50838"/>
</g>
<g fill="black">
<circle cx="442.747" cy="497.366" r="4.50838"/>
</g>
<g fill="black">
<circle cx="447.658" cy="497.415" r="4.50838"/>
</g>
<g fill="black">
<circle cx="452.57" cy="497.408" r="4.50838"/>
</g>
<g fill="black">
<circle cx="457.481" cy="497.426" r="4.50838"/>
</g>
<g fill="black">
<circle cx="462.393" cy="497.455" r="4.50838"/>
</g>
<g fill="black">
<circle cx="467.304" cy="497.471" r="4.50838"/>
</g>
<g fill="black">
<circle cx="472.216" cy="497.488" r="4.50838"/>
</g>
<g fill="black">
<circle cx="477.127" cy="497.504" r="4.50838"/>
</g>
<g fill="black">
<circle cx="482.039" cy="497.529" r="4.50838"/>
</g>
<g fill="black">
<circle cx="486.95" cy="497.541" r="4.50838"/>
</g>
<g fill="black">
<circle cx="491.862" cy="497.544" r="4.50838"/>
</g>
<g fill="black">
<circle cx="496.773" cy="497.565" r="4.50838"/>
</g>
<g fill="black">
<circle cx="501.685" cy="497.585" r="4.50838"/>
</g>
<g fill="black">
<circle cx="506.597" cy="497.581" r="4.50838"/>
</g>
<g fill="black">
<circle cx="511.508" cy="497.597" r="4.50838"/>
</g>
<g fill="black">
<circle cx="516.42" cy="497.613" r="4.50838"/>
</g>
<g fill="black">
<circle cx="521.331" cy="497.635" r="4.50838"/>
</g>
<g fill="black">
<circle cx="526.243" cy="497.639" r="4.50838"/>
</g>
<g fill="black">
<circle cx="531.154" cy="497.645" r="4.50838"/>
</g>
<g fill="black">
<circle cx="536.066" cy="497.669" r="4.50838"/>
</g>
<g fill="black">
<circle cx="540.977" cy="497.673" r="4.50838"/>
</g>
<g fill="black">
<circle cx="545.889" cy="497.693" r="4.50838"/>
</g>
<text xml:space="preserve" x="360.607" y="50.7193" fill="black" font-size="16.0105" font-family="Helvetica"> with EMC</text>
<text xml:space="preserve" x="352.717" y="50.7193" fill="black" font-size="16.0105" font-family="Times">&#0947;</text>
<text xml:space="preserve" x="344.828" y="50.7193" fill="black" font-size="16.0105" font-family="Times">&#0947;</text>
<text xml:space="preserve" x="336.938" y="50.7193" fill="black" font-size="16.0105" font-family="Times">&#0947;</text>
<text xml:space="preserve" x="331.866" y="50.7193" fill="black" font-size="16.0105" font-family="Helvetica"> </text>
<text xml:space="preserve" x="316.65" y="50.7193" fill="black" font-size="16.0105" font-family="Times">&#8594;</text>
<text xml:space="preserve" x="311.578" y="50.7193" fill="black" font-size="16.0105" font-family="Helvetica"> </text>
<text xml:space="preserve" x="303.689" y="50.7193" fill="black" font-size="16.0105" font-family="Times">&#0947;</text>
<text xml:space="preserve" x="298.053" y="45.0838" fill="black" font-size="10.8403" font-family="Helvetica">0</text>
<text xml:space="preserve" x="289.6" y="50.7193" fill="black" font-size="16.0105" font-family="Times">&#0960;</text>
<text xml:space="preserve" x="284.528" y="50.7193" fill="black" font-size="16.0105" font-family="Helvetica"> </text>
<text xml:space="preserve" x="269.312" y="50.7193" fill="black" font-size="16.0105" font-family="Times">&#8594;</text>
<text xml:space="preserve" x="264.24" y="50.7193" fill="black" font-size="16.0105" font-family="Helvetica"> </text>
<text xml:space="preserve" x="252.969" y="50.7193" fill="black" font-size="16.0105" font-family="Times">&#0969;</text>
<text xml:space="preserve" x="128.989" y="50.7193" fill="black" font-size="16.0105" font-family="Helvetica"> = 13 TeV (EG1), </text>
<text xml:space="preserve" x="120.536" y="50.7193" fill="black" font-size="16.0105" font-family="Helvetica" font-style="oblique">s</text>
<path d="M114.9,41.7025l 1.69064, 9.58031" fill="none" stroke="black" stroke-width="2"/>
<path d="M116.591,51.2829l 2.25419, -14.0887" fill="none" stroke="black"/>
<path d="M118.845,37.1942h 10.1439" fill="none" stroke="black"/>
<text xml:space="preserve" x="89.5406" y="50.7193" fill="black" font-size="16.0105" font-family="Helvetica">pp </text>
<text xml:space="preserve" x="89.5406" y="85.6593" fill="black" font-size="16.0105" font-family="Helvetica">ALICE work in progress</text>
<text xml:space="preserve" x="214.085" y="120.599" fill="black" font-size="16.0105" font-family="Helvetica">) &lt; 24.0</text>
<text xml:space="preserve" x="205.068" y="120.599" fill="black" font-size="16.0105" font-family="Helvetica" font-style="oblique">c</text>
<text xml:space="preserve" x="154.912" y="120.599" fill="black" font-size="16.0105" font-family="Helvetica"> /(GeV/</text>
<text xml:space="preserve" x="148.15" y="128.489" fill="black" font-size="10.8403" font-family="Helvetica">T</text>
<text xml:space="preserve" x="138.569" y="120.599" fill="black" font-size="16.0105" font-family="Helvetica" font-style="oblique">p</text>
<text xml:space="preserve" x="133.497" y="120.599" fill="black" font-size="16.0105" font-family="Helvetica"> </text>
<text xml:space="preserve" x="125.044" y="120.599" fill="black" font-size="16.0105" font-family="Times">&#8804;</text>
<text xml:space="preserve" x="89.5406" y="120.599" fill="black" font-size="16.0105" font-family="Helvetica">20.0 </text>
<text xml:space="preserve" x="134.624" y="158.357" fill="black" font-size="16.0105" font-family="Helvetica">background</text>
<path d="M92.9803,152.186h 34.7244" fill="none" stroke="#993333" stroke-width="2"/>
<g fill="#993333">
<rect x="105.834" y="147.678" width="9.01677" height="9.01677"/>
</g>
<text xml:space="preserve" x="134.624" y="185.971" fill="black" font-size="16.0105" font-family="Helvetica">same event</text>
<path d="M92.9803,179.856h 34.7244" fill="none" stroke="black" stroke-width="2"/>
<g fill="black">
<circle cx="110.343" cy="179.856" r="4.50838"/>
</g></svg>
