<?xml version="1.0" standalone="no"?>
<svg width="567.429" height="553.904" viewBox="0 0 567.429 553.904" xmlns="http://www.w3.org/2000/svg" shape-rendering="crispEdges">
<title>
MC/EG1/OmegaTGPSWOPS/SameEventToBackgroundRatio_10.svg
</title>
<desc>
Creator: ROOT Version 6.20/08
CreationDate: Mon Mar 29 21:28:57 2021</desc>
<defs>
</defs>
<rect x="0.5" y="0" width="566.929" height="553.404" fill="white"/>
<rect x="68.5315" y="16.6021" width="484.724" height="481.461" fill="white"/>
<rect x="68.5315" y="16.6021" width="484.724" height="481.461" fill="none" stroke="black"/>
<rect x="68.5315" y="16.6021" width="484.724" height="481.461" fill="white"/>
<rect x="68.5315" y="16.6021" width="484.724" height="481.461" fill="none" stroke="black"/>
<g fill="black">
<circle cx="114.124" cy="497.564" r="6.76257"/>
</g>
<g fill="black">
<circle cx="118.924" cy="492.616" r="6.76257"/>
</g>
<g fill="black">
<circle cx="123.723" cy="495.338" r="6.76257"/>
</g>
<g fill="black">
<circle cx="128.522" cy="492.559" r="6.76257"/>
</g>
<g fill="black">
<circle cx="133.321" cy="476.251" r="6.76257"/>
</g>
<g fill="black">
<circle cx="138.121" cy="457.597" r="6.76257"/>
</g>
<g fill="black">
<circle cx="142.92" cy="437.88" r="6.76257"/>
</g>
<g fill="black">
<circle cx="147.719" cy="425.628" r="6.76257"/>
</g>
<g fill="black">
<circle cx="152.518" cy="415.495" r="6.76257"/>
</g>
<g fill="black">
<circle cx="157.318" cy="404.431" r="6.76257"/>
</g>
<g fill="black">
<circle cx="162.117" cy="396.125" r="6.76257"/>
</g>
<g fill="black">
<circle cx="166.916" cy="387.486" r="6.76257"/>
</g>
<g fill="black">
<circle cx="171.715" cy="379.484" r="6.76257"/>
</g>
<g fill="black">
<circle cx="176.515" cy="372.595" r="6.76257"/>
</g>
<g fill="black">
<circle cx="181.314" cy="369.877" r="6.76257"/>
</g>
<g fill="black">
<circle cx="186.113" cy="366.466" r="6.76257"/>
</g>
<g fill="black">
<circle cx="190.912" cy="363.88" r="6.76257"/>
</g>
<g fill="black">
<circle cx="195.712" cy="361.35" r="6.76257"/>
</g>
<g fill="black">
<circle cx="200.511" cy="358.329" r="6.76257"/>
</g>
<g fill="black">
<circle cx="205.31" cy="357.776" r="6.76257"/>
</g>
<g fill="black">
<circle cx="210.109" cy="352.654" r="6.76257"/>
</g>
<g fill="black">
<circle cx="214.909" cy="351.878" r="6.76257"/>
</g>
<g fill="black">
<circle cx="219.708" cy="349.361" r="6.76257"/>
</g>
<g fill="black">
<circle cx="224.507" cy="346.164" r="6.76257"/>
</g>
<g fill="black">
<circle cx="229.306" cy="342.375" r="6.76257"/>
</g>
<g fill="black">
<circle cx="234.106" cy="338.19" r="6.76257"/>
</g>
<g fill="black">
<circle cx="238.905" cy="333.634" r="6.76257"/>
</g>
<g fill="black">
<circle cx="243.704" cy="328.881" r="6.76257"/>
</g>
<g fill="black">
<circle cx="248.503" cy="325.163" r="6.76257"/>
</g>
<g fill="black">
<circle cx="253.303" cy="322.572" r="6.76257"/>
</g>
<g fill="black">
<circle cx="258.102" cy="320.074" r="6.76257"/>
</g>
<g fill="black">
<circle cx="262.901" cy="318.084" r="6.76257"/>
</g>
<g fill="black">
<circle cx="267.7" cy="318.1" r="6.76257"/>
</g>
<g fill="black">
<circle cx="272.5" cy="314.443" r="6.76257"/>
</g>
<g fill="black">
<circle cx="277.299" cy="312.566" r="6.76257"/>
</g>
<g fill="black">
<circle cx="339.689" cy="285.228" r="6.76257"/>
</g>
<g fill="black">
<circle cx="344.488" cy="283.584" r="6.76257"/>
</g>
<g fill="black">
<circle cx="349.288" cy="282.818" r="6.76257"/>
</g>
<g fill="black">
<circle cx="354.087" cy="278.766" r="6.76257"/>
</g>
<g fill="black">
<circle cx="358.886" cy="277.893" r="6.76257"/>
</g>
<g fill="black">
<circle cx="363.685" cy="274.706" r="6.76257"/>
</g>
<g fill="black">
<circle cx="368.485" cy="273.674" r="6.76257"/>
</g>
<g fill="black">
<circle cx="373.284" cy="268.685" r="6.76257"/>
</g>
<g fill="black">
<circle cx="378.083" cy="270.25" r="6.76257"/>
</g>
<g fill="black">
<circle cx="382.882" cy="268.968" r="6.76257"/>
</g>
<g fill="black">
<circle cx="387.682" cy="264.831" r="6.76257"/>
</g>
<g fill="black">
<circle cx="392.481" cy="265.253" r="6.76257"/>
</g>
<g fill="black">
<circle cx="397.28" cy="258.021" r="6.76257"/>
</g>
<g fill="black">
<circle cx="402.079" cy="261.82" r="6.76257"/>
</g>
<g fill="black">
<circle cx="406.879" cy="258.011" r="6.76257"/>
</g>
<g fill="black">
<circle cx="411.678" cy="255.986" r="6.76257"/>
</g>
<g fill="black">
<circle cx="416.477" cy="255.381" r="6.76257"/>
</g>
<g fill="black">
<circle cx="421.276" cy="256.632" r="6.76257"/>
</g>
<g fill="black">
<circle cx="426.076" cy="250.331" r="6.76257"/>
</g>
<g fill="black">
<circle cx="430.875" cy="248.693" r="6.76257"/>
</g>
<g fill="black">
<circle cx="435.674" cy="244.652" r="6.76257"/>
</g>
<g fill="black">
<circle cx="440.473" cy="242.457" r="6.76257"/>
</g>
<g fill="black">
<circle cx="445.273" cy="239.512" r="6.76257"/>
</g>
<g fill="black">
<circle cx="450.072" cy="240.488" r="6.76257"/>
</g>
<g fill="black">
<circle cx="454.871" cy="234.224" r="6.76257"/>
</g>
<g fill="black">
<circle cx="459.671" cy="235.097" r="6.76257"/>
</g>
<g fill="black">
<circle cx="464.47" cy="237.575" r="6.76257"/>
</g>
<g fill="black">
<circle cx="469.269" cy="233.313" r="6.76257"/>
</g>
<g fill="black">
<circle cx="474.068" cy="227.362" r="6.76257"/>
</g>
<g fill="black">
<circle cx="478.867" cy="221.816" r="6.76257"/>
</g>
<g fill="black">
<circle cx="483.667" cy="225.85" r="6.76257"/>
</g>
<g fill="black">
<circle cx="488.466" cy="222.822" r="6.76257"/>
</g>
<g fill="black">
<circle cx="493.265" cy="223.909" r="6.76257"/>
</g>
<g fill="black">
<circle cx="498.065" cy="221.312" r="6.76257"/>
</g>
<g fill="black">
<circle cx="502.864" cy="218.166" r="6.76257"/>
</g>
<g fill="black">
<circle cx="507.663" cy="218.312" r="6.76257"/>
</g>
<g fill="black">
<circle cx="512.462" cy="213.431" r="6.76257"/>
</g>
<g fill="black">
<circle cx="517.262" cy="205.211" r="6.76257"/>
</g>
<g fill="black">
<circle cx="522.061" cy="210.964" r="6.76257"/>
</g>
<g fill="black">
<circle cx="526.86" cy="215.869" r="6.76257"/>
</g>
<g fill="black">
<circle cx="531.659" cy="202.027" r="6.76257"/>
</g>
<g fill="black">
<circle cx="536.458" cy="210.648" r="6.76257"/>
</g>
<g fill="black">
<circle cx="541.258" cy="205.468" r="6.76257"/>
</g>
<g fill="black">
<circle cx="546.057" cy="197.15" r="6.76257"/>
</g>
<path d="M68.5315,498.064h 484.724" fill="none" stroke="black"/>
<path d="M68.5315,483.869v 14.1948" fill="none" stroke="black"/>
<path d="M83.5292,490.966v 7.09741" fill="none" stroke="black"/>
<path d="M98.5268,490.966v 7.09741" fill="none" stroke="black"/>
<path d="M113.524,490.966v 7.09741" fill="none" stroke="black"/>
<path d="M128.522,483.869v 14.1948" fill="none" stroke="black"/>
<path d="M143.52,490.966v 7.09741" fill="none" stroke="black"/>
<path d="M158.517,490.966v 7.09741" fill="none" stroke="black"/>
<path d="M173.515,490.966v 7.09741" fill="none" stroke="black"/>
<path d="M188.513,483.869v 14.1948" fill="none" stroke="black"/>
<path d="M203.51,490.966v 7.09741" fill="none" stroke="black"/>
<path d="M218.508,490.966v 7.09741" fill="none" stroke="black"/>
<path d="M233.506,490.966v 7.09741" fill="none" stroke="black"/>
<path d="M248.503,483.869v 14.1948" fill="none" stroke="black"/>
<path d="M263.501,490.966v 7.09741" fill="none" stroke="black"/>
<path d="M278.499,490.966v 7.09741" fill="none" stroke="black"/>
<path d="M293.496,490.966v 7.09741" fill="none" stroke="black"/>
<path d="M308.494,483.869v 14.1948" fill="none" stroke="black"/>
<path d="M323.492,490.966v 7.09741" fill="none" stroke="black"/>
<path d="M338.489,490.966v 7.09741" fill="none" stroke="black"/>
<path d="M353.487,490.966v 7.09741" fill="none" stroke="black"/>
<path d="M368.485,483.869v 14.1948" fill="none" stroke="black"/>
<path d="M383.482,490.966v 7.09741" fill="none" stroke="black"/>
<path d="M398.48,490.966v 7.09741" fill="none" stroke="black"/>
<path d="M413.478,490.966v 7.09741" fill="none" stroke="black"/>
<path d="M428.475,483.869v 14.1948" fill="none" stroke="black"/>
<path d="M443.473,490.966v 7.09741" fill="none" stroke="black"/>
<path d="M458.471,490.966v 7.09741" fill="none" stroke="black"/>
<path d="M473.468,490.966v 7.09741" fill="none" stroke="black"/>
<path d="M488.466,483.869v 14.1948" fill="none" stroke="black"/>
<path d="M503.464,490.966v 7.09741" fill="none" stroke="black"/>
<path d="M518.461,490.966v 7.09741" fill="none" stroke="black"/>
<path d="M533.459,490.966v 7.09741" fill="none" stroke="black"/>
<path d="M548.457,483.869v 14.1948" fill="none" stroke="black"/>
<path d="M548.457,483.869v 14.1948" fill="none" stroke="black"/>
<text xml:space="preserve" x="63.6174" y="513.956" fill="black" font-size="16.0105" font-family="Helvetica">0</text>
<text xml:space="preserve" x="117.718" y="513.956" fill="black" font-size="16.0105" font-family="Helvetica">0.2</text>
<text xml:space="preserve" x="177.454" y="513.956" fill="black" font-size="16.0105" font-family="Helvetica">0.4</text>
<text xml:space="preserve" x="237.754" y="513.956" fill="black" font-size="16.0105" font-family="Helvetica">0.6</text>
<text xml:space="preserve" x="297.49" y="513.956" fill="black" font-size="16.0105" font-family="Helvetica">0.8</text>
<text xml:space="preserve" x="365.115" y="513.956" fill="black" font-size="16.0105" font-family="Helvetica">1</text>
<text xml:space="preserve" x="417.525" y="513.956" fill="black" font-size="16.0105" font-family="Helvetica">1.2</text>
<text xml:space="preserve" x="477.261" y="513.956" fill="black" font-size="16.0105" font-family="Helvetica">1.4</text>
<text xml:space="preserve" x="537.561" y="513.956" fill="black" font-size="16.0105" font-family="Helvetica">1.6</text>
<text xml:space="preserve" x="548.268" y="537.625" fill="black" font-size="16.0105" font-family="Helvetica">)</text>
<text xml:space="preserve" x="542.633" y="532.553" fill="black" font-size="10.8403" font-family="Helvetica">2</text>
<text xml:space="preserve" x="533.616" y="537.625" fill="black" font-size="16.0105" font-family="Helvetica" font-style="oblique">c</text>
<text xml:space="preserve" x="487.405" y="537.625" fill="black" font-size="16.0105" font-family="Helvetica"> (GeV/</text>
<text xml:space="preserve" x="473.317" y="542.697" fill="black" font-size="10.8403" font-family="Helvetica">inv</text>
<text xml:space="preserve" x="459.792" y="537.625" fill="black" font-size="16.0105" font-family="Helvetica" font-style="oblique">m</text>
<path d="M68.5315,16.6021h 484.724" fill="none" stroke="black"/>
<path d="M68.5315,30.7969v -14.1948" fill="none" stroke="black"/>
<path d="M83.5292,23.6995v -7.09741" fill="none" stroke="black"/>
<path d="M98.5268,23.6995v -7.09741" fill="none" stroke="black"/>
<path d="M113.524,23.6995v -7.09741" fill="none" stroke="black"/>
<path d="M128.522,30.7969v -14.1948" fill="none" stroke="black"/>
<path d="M143.52,23.6995v -7.09741" fill="none" stroke="black"/>
<path d="M158.517,23.6995v -7.09741" fill="none" stroke="black"/>
<path d="M173.515,23.6995v -7.09741" fill="none" stroke="black"/>
<path d="M188.513,30.7969v -14.1948" fill="none" stroke="black"/>
<path d="M203.51,23.6995v -7.09741" fill="none" stroke="black"/>
<path d="M218.508,23.6995v -7.09741" fill="none" stroke="black"/>
<path d="M233.506,23.6995v -7.09741" fill="none" stroke="black"/>
<path d="M248.503,30.7969v -14.1948" fill="none" stroke="black"/>
<path d="M263.501,23.6995v -7.09741" fill="none" stroke="black"/>
<path d="M278.499,23.6995v -7.09741" fill="none" stroke="black"/>
<path d="M293.496,23.6995v -7.09741" fill="none" stroke="black"/>
<path d="M308.494,30.7969v -14.1948" fill="none" stroke="black"/>
<path d="M323.492,23.6995v -7.09741" fill="none" stroke="black"/>
<path d="M338.489,23.6995v -7.09741" fill="none" stroke="black"/>
<path d="M353.487,23.6995v -7.09741" fill="none" stroke="black"/>
<path d="M368.485,30.7969v -14.1948" fill="none" stroke="black"/>
<path d="M383.482,23.6995v -7.09741" fill="none" stroke="black"/>
<path d="M398.48,23.6995v -7.09741" fill="none" stroke="black"/>
<path d="M413.478,23.6995v -7.09741" fill="none" stroke="black"/>
<path d="M428.475,30.7969v -14.1948" fill="none" stroke="black"/>
<path d="M443.473,23.6995v -7.09741" fill="none" stroke="black"/>
<path d="M458.471,23.6995v -7.09741" fill="none" stroke="black"/>
<path d="M473.468,23.6995v -7.09741" fill="none" stroke="black"/>
<path d="M488.466,30.7969v -14.1948" fill="none" stroke="black"/>
<path d="M503.464,23.6995v -7.09741" fill="none" stroke="black"/>
<path d="M518.461,23.6995v -7.09741" fill="none" stroke="black"/>
<path d="M533.459,23.6995v -7.09741" fill="none" stroke="black"/>
<path d="M548.457,30.7969v -14.1948" fill="none" stroke="black"/>
<path d="M548.457,30.7969v -14.1948" fill="none" stroke="black"/>
<path d="M68.5315,498.064v -481.461" fill="none" stroke="black"/>
<path d="M83.3283,498.064h -14.7969" fill="none" stroke="black"/>
<path d="M75.9299,484.077h -7.39843" fill="none" stroke="black"/>
<path d="M75.9299,470.091h -7.39843" fill="none" stroke="black"/>
<path d="M75.9299,456.105h -7.39843" fill="none" stroke="black"/>
<path d="M75.9299,442.119h -7.39843" fill="none" stroke="black"/>
<path d="M83.3283,428.133h -14.7969" fill="none" stroke="black"/>
<path d="M75.9299,414.147h -7.39843" fill="none" stroke="black"/>
<path d="M75.9299,400.161h -7.39843" fill="none" stroke="black"/>
<path d="M75.9299,386.174h -7.39843" fill="none" stroke="black"/>
<path d="M75.9299,372.188h -7.39843" fill="none" stroke="black"/>
<path d="M83.3283,358.202h -14.7969" fill="none" stroke="black"/>
<path d="M75.9299,344.216h -7.39843" fill="none" stroke="black"/>
<path d="M75.9299,330.23h -7.39843" fill="none" stroke="black"/>
<path d="M75.9299,316.244h -7.39843" fill="none" stroke="black"/>
<path d="M75.9299,302.258h -7.39843" fill="none" stroke="black"/>
<path d="M83.3283,288.271h -14.7969" fill="none" stroke="black"/>
<path d="M75.9299,274.285h -7.39843" fill="none" stroke="black"/>
<path d="M75.9299,260.299h -7.39843" fill="none" stroke="black"/>
<path d="M75.9299,246.313h -7.39843" fill="none" stroke="black"/>
<path d="M75.9299,232.327h -7.39843" fill="none" stroke="black"/>
<path d="M83.3283,218.341h -14.7969" fill="none" stroke="black"/>
<path d="M75.9299,204.355h -7.39843" fill="none" stroke="black"/>
<path d="M75.9299,190.368h -7.39843" fill="none" stroke="black"/>
<path d="M75.9299,176.382h -7.39843" fill="none" stroke="black"/>
<path d="M75.9299,162.396h -7.39843" fill="none" stroke="black"/>
<path d="M83.3283,148.41h -14.7969" fill="none" stroke="black"/>
<path d="M75.9299,134.424h -7.39843" fill="none" stroke="black"/>
<path d="M75.9299,120.438h -7.39843" fill="none" stroke="black"/>
<path d="M75.9299,106.452h -7.39843" fill="none" stroke="black"/>
<path d="M75.9299,92.4655h -7.39843" fill="none" stroke="black"/>
<path d="M83.3283,78.4794h -14.7969" fill="none" stroke="black"/>
<path d="M83.3283,78.4794h -14.7969" fill="none" stroke="black"/>
<path d="M75.9299,64.4932h -7.39843" fill="none" stroke="black"/>
<path d="M75.9299,50.5071h -7.39843" fill="none" stroke="black"/>
<path d="M75.9299,36.5209h -7.39843" fill="none" stroke="black"/>
<path d="M75.9299,22.5348h -7.39843" fill="none" stroke="black"/>
<text xml:space="preserve" x="56.8548" y="503.248" fill="black" font-size="16.0105" font-family="Helvetica">0</text>
<text xml:space="preserve" x="48.4016" y="433.368" fill="black" font-size="16.0105" font-family="Helvetica">10</text>
<text xml:space="preserve" x="48.4016" y="363.488" fill="black" font-size="16.0105" font-family="Helvetica">20</text>
<text xml:space="preserve" x="48.4016" y="293.608" fill="black" font-size="16.0105" font-family="Helvetica">30</text>
<text xml:space="preserve" x="48.4016" y="223.729" fill="black" font-size="16.0105" font-family="Helvetica">40</text>
<text xml:space="preserve" x="48.4016" y="153.849" fill="black" font-size="16.0105" font-family="Helvetica">50</text>
<text xml:space="preserve" x="48.4016" y="83.9686" fill="black" font-size="16.0105" font-family="Helvetica">60</text>
<text xml:space="preserve" x="99.1209" y="7.32612" fill="black" font-size="10.8403" font-family="Helvetica">3</text>
<text xml:space="preserve" x="93.4854" y="7.32612" fill="black" font-size="10.8403" font-family="Times">&#8722;</text>
<text xml:space="preserve" x="76.579" y="14.6522" fill="black" font-size="16.0105" font-family="Helvetica">10</text>
<text xml:space="preserve" x="68.1257" y="14.6522" fill="black" font-size="16.0105" font-family="Times">&#0215;</text>
<g transform="rotate(-90,38.2577,98.0573)">
<text xml:space="preserve" x="38.2577" y="98.0573" fill="black" font-size="16.0105" font-family="Helvetica">background</text>
</g>
<g transform="rotate(-90,21.9148,98.0573)">
<text xml:space="preserve" x="21.9148" y="98.0573" fill="black" font-size="16.0105" font-family="Helvetica">same event</text>
</g>
<path d="M24.169,98.0573l 0.563548, -81.7144" fill="none" stroke="black" stroke-width="2"/>
<path d="M553.256,498.064v -481.461" fill="none" stroke="black"/>
<path d="M538.459,498.064h 14.7969" fill="none" stroke="black"/>
<path d="M545.857,484.077h 7.39843" fill="none" stroke="black"/>
<path d="M545.857,470.091h 7.39843" fill="none" stroke="black"/>
<path d="M545.857,456.105h 7.39843" fill="none" stroke="black"/>
<path d="M545.857,442.119h 7.39843" fill="none" stroke="black"/>
<path d="M538.459,428.133h 14.7969" fill="none" stroke="black"/>
<path d="M545.857,414.147h 7.39843" fill="none" stroke="black"/>
<path d="M545.857,400.161h 7.39843" fill="none" stroke="black"/>
<path d="M545.857,386.174h 7.39843" fill="none" stroke="black"/>
<path d="M545.857,372.188h 7.39843" fill="none" stroke="black"/>
<path d="M538.459,358.202h 14.7969" fill="none" stroke="black"/>
<path d="M545.857,344.216h 7.39843" fill="none" stroke="black"/>
<path d="M545.857,330.23h 7.39843" fill="none" stroke="black"/>
<path d="M545.857,316.244h 7.39843" fill="none" stroke="black"/>
<path d="M545.857,302.258h 7.39843" fill="none" stroke="black"/>
<path d="M538.459,288.271h 14.7969" fill="none" stroke="black"/>
<path d="M545.857,274.285h 7.39843" fill="none" stroke="black"/>
<path d="M545.857,260.299h 7.39843" fill="none" stroke="black"/>
<path d="M545.857,246.313h 7.39843" fill="none" stroke="black"/>
<path d="M545.857,232.327h 7.39843" fill="none" stroke="black"/>
<path d="M538.459,218.341h 14.7969" fill="none" stroke="black"/>
<path d="M545.857,204.355h 7.39843" fill="none" stroke="black"/>
<path d="M545.857,190.368h 7.39843" fill="none" stroke="black"/>
<path d="M545.857,176.382h 7.39843" fill="none" stroke="black"/>
<path d="M545.857,162.396h 7.39843" fill="none" stroke="black"/>
<path d="M538.459,148.41h 14.7969" fill="none" stroke="black"/>
<path d="M545.857,134.424h 7.39843" fill="none" stroke="black"/>
<path d="M545.857,120.438h 7.39843" fill="none" stroke="black"/>
<path d="M545.857,106.452h 7.39843" fill="none" stroke="black"/>
<path d="M545.857,92.4655h 7.39843" fill="none" stroke="black"/>
<path d="M538.459,78.4794h 14.7969" fill="none" stroke="black"/>
<path d="M538.459,78.4794h 14.7969" fill="none" stroke="black"/>
<path d="M545.857,64.4932h 7.39843" fill="none" stroke="black"/>
<path d="M545.857,50.5071h 7.39843" fill="none" stroke="black"/>
<path d="M545.857,36.5209h 7.39843" fill="none" stroke="black"/>
<path d="M545.857,22.5348h 7.39843" fill="none" stroke="black"/>
<g stroke="#333333" stroke-width="2" fill="none">
<circle cx="282.098" cy="309.627" r="5.63548"/>
</g>
<g stroke="#333333" stroke-width="2" fill="none">
<circle cx="286.897" cy="305.507" r="5.63548"/>
</g>
<g stroke="#333333" stroke-width="2" fill="none">
<circle cx="291.697" cy="301.934" r="5.63548"/>
</g>
<g stroke="#333333" stroke-width="2" fill="none">
<circle cx="296.496" cy="296.918" r="5.63548"/>
</g>
<g stroke="#333333" stroke-width="2" fill="none">
<circle cx="301.295" cy="292.656" r="5.63548"/>
</g>
<g stroke="#333333" stroke-width="2" fill="none">
<circle cx="306.094" cy="292.301" r="5.63548"/>
</g>
<g stroke="#333333" stroke-width="2" fill="none">
<circle cx="310.894" cy="289.703" r="5.63548"/>
</g>
<g stroke="#333333" stroke-width="2" fill="none">
<circle cx="315.693" cy="290.805" r="5.63548"/>
</g>
<g stroke="#333333" stroke-width="2" fill="none">
<circle cx="320.492" cy="291.744" r="5.63548"/>
</g>
<g stroke="#333333" stroke-width="2" fill="none">
<circle cx="325.291" cy="291.055" r="5.63548"/>
</g>
<g stroke="#333333" stroke-width="2" fill="none">
<circle cx="330.091" cy="288.91" r="5.63548"/>
</g>
<g stroke="#333333" stroke-width="2" fill="none">
<circle cx="334.89" cy="290.031" r="5.63548"/>
</g>
<path d="M98.7518,388.176l 0.44993, -0.190662l 0.44993, -0.190662l 0.44993, -0.190662l 0.44993, -0.190662l 0.44993, -0.190662l 0.44993, -0.190662l 0.44993, -0.190662l 0.44993, -0.190662l 0.44993, -0.190662l 0.44993, -0.190662l 0.44993, -0.190662l
 0.44993, -0.190662l 0.44993, -0.190662l 0.44993, -0.190662l 0.44993, -0.190662l 0.44993, -0.190662l 0.44993, -0.190662l 0.44993, -0.190662l 0.44993, -0.190662l 0.44993, -0.190662l 0.44993, -0.190662l 0.44993, -0.190662l 0.44993, -0.190662l 0.44993,
 -0.190662l 0.44993, -0.190662l 0.44993, -0.190662l 0.44993, -0.190662l 0.44993, -0.190662l 0.44993, -0.190662l 0.44993, -0.190662l 0.44993, -0.190662l 0.44993, -0.190662l 0.44993, -0.190662l 0.44993, -0.190662l 0.44993, -0.190662l 0.44993,
 -0.190662l 0.44993, -0.190662l 0.44993, -0.190662l 0.44993, -0.190662l 0.44993, -0.190662l 0.44993, -0.190662l 0.44993, -0.190662l 0.44993, -0.190662l 0.44993, -0.190662l 0.44993, -0.190662l 0.44993, -0.190662l 0.44993, -0.190662l 0.44993,
 -0.190662l 0.44993, -0.190662" fill="none" stroke="#33cccc" stroke-width="3"/>
<path d="M120.798,378.834l 0.44993, -0.190662l 0.44993, -0.190662l 0.44993, -0.190662l 0.44993, -0.190662l 0.44993, -0.190662l 0.44993, -0.190662l 0.44993, -0.190662l 0.44993, -0.190662l 0.44993, -0.190662l 0.44993, -0.190662l 0.44993, -0.190662l
 0.44993, -0.190662l 0.44993, -0.190662l 0.44993, -0.190662l 0.44993, -0.190662l 0.44993, -0.190662l 0.44993, -0.190662l 0.44993, -0.190662l 0.44993, -0.190662l 0.44993, -0.190662l 0.44993, -0.190662l 0.44993, -0.190662l 0.44993, -0.190662l 0.44993,
 -0.190662l 0.44993, -0.190662l 0.44993, -0.190662l 0.44993, -0.190662l 0.44993, -0.190662l 0.44993, -0.190662l 0.44993, -0.190662l 0.44993, -0.190662l 0.44993, -0.190662l 0.44993, -0.190662l 0.44993, -0.190662l 0.44993, -0.190662l 0.44993,
 -0.190662l 0.44993, -0.190662l 0.44993, -0.190662l 0.44993, -0.190662l 0.44993, -0.190662l 0.44993, -0.190662l 0.44993, -0.190662l 0.44993, -0.190662l 0.44993, -0.190662l 0.44993, -0.190662l 0.44993, -0.190662l 0.44993, -0.190662l 0.44993,
 -0.190662l 0.44993, -0.190662" fill="none" stroke="#33cccc" stroke-width="3"/>
<path d="M142.845,369.491l 0.44993, -0.190662l 0.44993, -0.190662l 0.44993, -0.190662l 0.44993, -0.190662l 0.44993, -0.190662l 0.44993, -0.190662l 0.44993, -0.190662l 0.44993, -0.190662l 0.44993, -0.190662l 0.44993, -0.190662l 0.44993, -0.190662l
 0.44993, -0.190662l 0.44993, -0.190662l 0.44993, -0.190662l 0.44993, -0.190662l 0.44993, -0.190662l 0.44993, -0.190662l 0.44993, -0.190662l 0.44993, -0.190662l 0.44993, -0.190662l 0.44993, -0.190662l 0.44993, -0.190662l 0.44993, -0.190662l 0.44993,
 -0.190662l 0.44993, -0.190662l 0.44993, -0.190662l 0.44993, -0.190662l 0.44993, -0.190662l 0.44993, -0.190662l 0.44993, -0.190662l 0.44993, -0.190662l 0.44993, -0.190662l 0.44993, -0.190662l 0.44993, -0.190662l 0.44993, -0.190662l 0.44993,
 -0.190662l 0.44993, -0.190662l 0.44993, -0.190662l 0.44993, -0.190662l 0.44993, -0.190662l 0.44993, -0.190662l 0.44993, -0.190662l 0.44993, -0.190662l 0.44993, -0.190662l 0.44993, -0.190662l 0.44993, -0.190662l 0.44993, -0.190662l 0.44993,
 -0.190662l 0.44993, -0.190662" fill="none" stroke="#33cccc" stroke-width="3"/>
<path d="M164.891,360.149l 0.44993, -0.190662l 0.44993, -0.190662l 0.44993, -0.190662l 0.44993, -0.190662l 0.44993, -0.190662l 0.44993, -0.190662l 0.44993, -0.190662l 0.44993, -0.190662l 0.44993, -0.190662l 0.44993, -0.190662l 0.44993, -0.190662l
 0.44993, -0.190662l 0.44993, -0.190662l 0.44993, -0.190662l 0.44993, -0.190662l 0.44993, -0.190662l 0.44993, -0.190662l 0.44993, -0.190662l 0.44993, -0.190662l 0.44993, -0.190662l 0.44993, -0.190662l 0.44993, -0.190662l 0.44993, -0.190662l 0.44993,
 -0.190662l 0.44993, -0.190662l 0.44993, -0.190662l 0.44993, -0.190662l 0.44993, -0.190662l 0.44993, -0.190662l 0.44993, -0.190662l 0.44993, -0.190662l 0.44993, -0.190662l 0.44993, -0.190662l 0.44993, -0.190662l 0.44993, -0.190662l 0.44993,
 -0.190662l 0.44993, -0.190662l 0.44993, -0.190662l 0.44993, -0.190662l 0.44993, -0.190662l 0.44993, -0.190662l 0.44993, -0.190662l 0.44993, -0.190662l 0.44993, -0.190662l 0.44993, -0.190662l 0.44993, -0.190662l 0.44993, -0.190662l 0.44993,
 -0.190662l 0.44993, -0.190662" fill="none" stroke="#33cccc" stroke-width="3"/>
<path d="M186.938,350.806l 0.44993, -0.190662l 0.44993, -0.190662l 0.44993, -0.190662l 0.44993, -0.190662l 0.44993, -0.190662l 0.44993, -0.190662l 0.44993, -0.190662l 0.44993, -0.190662l 0.44993, -0.190662l 0.44993, -0.190662l 0.44993, -0.190662l
 0.44993, -0.190662l 0.44993, -0.190662l 0.44993, -0.190662l 0.44993, -0.190662l 0.44993, -0.190662l 0.44993, -0.190662l 0.44993, -0.190662l 0.44993, -0.190662l 0.44993, -0.190662l 0.44993, -0.190662l 0.44993, -0.190662l 0.44993, -0.190662l 0.44993,
 -0.190662l 0.44993, -0.190662l 0.44993, -0.190662l 0.44993, -0.190662l 0.44993, -0.190662l 0.44993, -0.190662l 0.44993, -0.190662l 0.44993, -0.190662l 0.44993, -0.190662l 0.44993, -0.190662l 0.44993, -0.190662l 0.44993, -0.190662l 0.44993,
 -0.190662l 0.44993, -0.190662l 0.44993, -0.190662l 0.44993, -0.190662l 0.44993, -0.190662l 0.44993, -0.190662l 0.44993, -0.190662l 0.44993, -0.190662l 0.44993, -0.190662l 0.44993, -0.190662l 0.44993, -0.190662l 0.44993, -0.190662l 0.44993,
 -0.190662l 0.44993, -0.190662" fill="none" stroke="#33cccc" stroke-width="3"/>
<path d="M208.985,341.464l 0.44993, -0.190662l 0.44993, -0.190662l 0.44993, -0.190662l 0.44993, -0.190662l 0.44993, -0.190662l 0.44993, -0.190662l 0.44993, -0.190662l 0.44993, -0.190662l 0.44993, -0.190662l 0.44993, -0.190662l 0.44993, -0.190662l
 0.44993, -0.190662l 0.44993, -0.190662l 0.44993, -0.190662l 0.44993, -0.190662l 0.44993, -0.190662l 0.44993, -0.190662l 0.44993, -0.190662l 0.44993, -0.190662l 0.44993, -0.190662l 0.44993, -0.190662l 0.44993, -0.190662l 0.44993, -0.190662l 0.44993,
 -0.190662l 0.44993, -0.190662l 0.44993, -0.190662l 0.44993, -0.190662l 0.44993, -0.190662l 0.44993, -0.190662l 0.44993, -0.190662l 0.44993, -0.190662l 0.44993, -0.190662l 0.44993, -0.190662l 0.44993, -0.190662l 0.44993, -0.190662l 0.44993,
 -0.190662l 0.44993, -0.190662l 0.44993, -0.190662l 0.44993, -0.190662l 0.44993, -0.190662l 0.44993, -0.190662l 0.44993, -0.190662l 0.44993, -0.190662l 0.44993, -0.190662l 0.44993, -0.190662l 0.44993, -0.190662l 0.44993, -0.190662l 0.44993,
 -0.190662l 0.44993, -0.190662" fill="none" stroke="#33cccc" stroke-width="3"/>
<path d="M231.031,332.122l 0.44993, -0.190662l 0.44993, -0.190662l 0.44993, -0.190662l 0.44993, -0.190662l 0.44993, -0.190662l 0.44993, -0.190662l 0.44993, -0.190662l 0.44993, -0.190662l 0.44993, -0.190662l 0.44993, -0.190662l 0.44993, -0.190662l
 0.44993, -0.190662l 0.44993, -0.190662l 0.44993, -0.190662l 0.44993, -0.190662l 0.44993, -0.190662l 0.44993, -0.190662l 0.44993, -0.190662l 0.44993, -0.190662l 0.44993, -0.190662l 0.44993, -0.190662l 0.44993, -0.190662l 0.44993, -0.190662l 0.44993,
 -0.190662l 0.44993, -0.190662l 0.44993, -0.190662l 0.44993, -0.190662l 0.44993, -0.190662l 0.44993, -0.190662l 0.44993, -0.190662l 0.44993, -0.190662l 0.44993, -0.190662l 0.44993, -0.190662l 0.44993, -0.190662l 0.44993, -0.190662l 0.44993,
 -0.190662l 0.44993, -0.190662l 0.44993, -0.190662l 0.44993, -0.190662l 0.44993, -0.190662l 0.44993, -0.190662l 0.44993, -0.190662l 0.44993, -0.190662l 0.44993, -0.190662l 0.44993, -0.190662l 0.44993, -0.190662l 0.44993, -0.190662l 0.44993,
 -0.190662l 0.44993, -0.190662" fill="none" stroke="#33cccc" stroke-width="3"/>
<path d="M253.078,322.779l 0.44993, -0.190662l 0.44993, -0.190662l 0.44993, -0.190662l 0.44993, -0.190662l 0.44993, -0.190662l 0.44993, -0.190662l 0.44993, -0.190662l 0.44993, -0.190662l 0.44993, -0.190662l 0.44993, -0.190662l 0.44993, -0.190662l
 0.44993, -0.190662l 0.44993, -0.190662l 0.44993, -0.190662l 0.44993, -0.190662l 0.44993, -0.190662l 0.44993, -0.190662l 0.44993, -0.190662l 0.44993, -0.190662l 0.44993, -0.190662l 0.44993, -0.190662l 0.44993, -0.190662l 0.44993, -0.190662l 0.44993,
 -0.190662l 0.44993, -0.190662l 0.44993, -0.190662l 0.44993, -0.190662l 0.44993, -0.190662l 0.44993, -0.190662l 0.44993, -0.190662l 0.44993, -0.190662l 0.44993, -0.190662l 0.44993, -0.190662l 0.44993, -0.190662l 0.44993, -0.190662l 0.44993,
 -0.190662l 0.44993, -0.190662l 0.44993, -0.190662l 0.44993, -0.190662l 0.44993, -0.190662l 0.44993, -0.190662l 0.44993, -0.190662l 0.44993, -0.190662l 0.44993, -0.190662l 0.44993, -0.190662l 0.44993, -0.190662l 0.44993, -0.190662l 0.44993,
 -0.190662l 0.44993, -0.190662" fill="none" stroke="#33cccc" stroke-width="3"/>
<path d="M275.124,313.437l 0.44993, -0.190662l 0.44993, -0.190662l 0.44993, -0.190662l 0.44993, -0.190662l 0.44993, -0.190662l 0.44993, -0.190662l 0.44993, -0.190662l 0.44993, -0.190662l 0.44993, -0.190662l 0.44993, -0.190662l 0.44993, -0.190662l
 0.44993, -0.190662l 0.44993, -0.190662l 0.44993, -0.190662l 0.44993, -0.190662l 0.44993, -0.190662l 0.44993, -0.190662l 0.44993, -0.190662l 0.44993, -0.190662l 0.44993, -0.190662l 0.44993, -0.190662l 0.44993, -0.190662l 0.44993, -0.190662l 0.44993,
 -0.190662l 0.44993, -0.190662l 0.44993, -0.190662l 0.44993, -0.190662l 0.44993, -0.190662l 0.44993, -0.190662l 0.44993, -0.190662l 0.44993, -0.190662l 0.44993, -0.190662l 0.44993, -0.190662l 0.44993, -0.190662l 0.44993, -0.190662l 0.44993,
 -0.190662l 0.44993, -0.190662l 0.44993, -0.190662l 0.44993, -0.190662l 0.44993, -0.190662l 0.44993, -0.190662l 0.44993, -0.190662l 0.44993, -0.190662l 0.44993, -0.190662l 0.44993, -0.190662l 0.44993, -0.190662l 0.44993, -0.190662l 0.44993,
 -0.190662l 0.44993, -0.190662" fill="none" stroke="#33cccc" stroke-width="3"/>
<path d="M297.171,304.094l 0.44993, -0.190662l 0.44993, -0.190662l 0.44993, -0.190662l 0.44993, -0.190662l 0.44993, -0.190662l 0.44993, -0.190662l 0.44993, -0.190662l 0.44993, -0.190662l 0.44993, -0.190662l 0.44993, -0.190662l 0.44993, -0.190662l
 0.44993, -0.190662l 0.44993, -0.190662l 0.44993, -0.190662l 0.44993, -0.190662l 0.44993, -0.190662l 0.44993, -0.190662l 0.44993, -0.190662l 0.44993, -0.190662l 0.44993, -0.190662l 0.44993, -0.190662l 0.44993, -0.190662l 0.44993, -0.190662l 0.44993,
 -0.190662l 0.44993, -0.190662l 0.44993, -0.190662l 0.44993, -0.190662l 0.44993, -0.190662l 0.44993, -0.190662l 0.44993, -0.190662l 0.44993, -0.190662l 0.44993, -0.190662l 0.44993, -0.190662l 0.44993, -0.190662l 0.44993, -0.190662l 0.44993,
 -0.190662l 0.44993, -0.190662l 0.44993, -0.190662l 0.44993, -0.190662l 0.44993, -0.190662l 0.44993, -0.190662l 0.44993, -0.190662l 0.44993, -0.190662l 0.44993, -0.190662l 0.44993, -0.190662l 0.44993, -0.190662l 0.44993, -0.190662l 0.44993,
 -0.190662l 0.44993, -0.190662" fill="none" stroke="#33cccc" stroke-width="3"/>
<path d="M319.217,294.752l 0.44993, -0.190662l 0.44993, -0.190662l 0.44993, -0.190662l 0.44993, -0.190662l 0.44993, -0.190662l 0.44993, -0.190662l 0.44993, -0.190662l 0.44993, -0.190662l 0.44993, -0.190662l 0.44993, -0.190662l 0.44993, -0.190662l
 0.44993, -0.190662l 0.44993, -0.190662l 0.44993, -0.190662l 0.44993, -0.190662l 0.44993, -0.190662l 0.44993, -0.190662l 0.44993, -0.190662l 0.44993, -0.190662l 0.44993, -0.190662l 0.44993, -0.190662l 0.44993, -0.190662l 0.44993, -0.190662l 0.44993,
 -0.190662l 0.44993, -0.190662l 0.44993, -0.190662l 0.44993, -0.190662l 0.44993, -0.190662l 0.44993, -0.190662l 0.44993, -0.190662l 0.44993, -0.190662l 0.44993, -0.190662l 0.44993, -0.190662l 0.44993, -0.190662l 0.44993, -0.190662l 0.44993,
 -0.190662l 0.44993, -0.190662l 0.44993, -0.190662l 0.44993, -0.190662l 0.44993, -0.190662l 0.44993, -0.190662l 0.44993, -0.190662l 0.44993, -0.190662l 0.44993, -0.190662l 0.44993, -0.190662l 0.44993, -0.190662l 0.44993, -0.190662l 0.44993,
 -0.190662l 0.44993, -0.190662" fill="none" stroke="#33cccc" stroke-width="3"/>
<path d="M341.264,285.409l 0.44993, -0.190662l 0.44993, -0.190662l 0.44993, -0.190662l 0.44993, -0.190662l 0.44993, -0.190662l 0.44993, -0.190662l 0.44993, -0.190662l 0.44993, -0.190662l 0.44993, -0.190662l 0.44993, -0.190662l 0.44993, -0.190662l
 0.44993, -0.190662l 0.44993, -0.190662l 0.44993, -0.190662l 0.44993, -0.190662l 0.44993, -0.190662l 0.44993, -0.190662l 0.44993, -0.190662l 0.44993, -0.190662l 0.44993, -0.190662l 0.44993, -0.190662l 0.44993, -0.190662l 0.44993, -0.190662l 0.44993,
 -0.190662l 0.44993, -0.190662l 0.44993, -0.190662l 0.44993, -0.190662l 0.44993, -0.190662l 0.44993, -0.190662l 0.44993, -0.190662l 0.44993, -0.190662l 0.44993, -0.190662l 0.44993, -0.190662l 0.44993, -0.190662l 0.44993, -0.190662l 0.44993,
 -0.190662l 0.44993, -0.190662l 0.44993, -0.190662l 0.44993, -0.190662l 0.44993, -0.190662l 0.44993, -0.190662l 0.44993, -0.190662l 0.44993, -0.190662l 0.44993, -0.190662l 0.44993, -0.190662l 0.44993, -0.190662l 0.44993, -0.190662l 0.44993,
 -0.190662l 0.44993, -0.190662" fill="none" stroke="#33cccc" stroke-width="3"/>
<path d="M363.311,276.067l 0.44993, -0.190662l 0.44993, -0.190662l 0.44993, -0.190662l 0.44993, -0.190662l 0.44993, -0.190662l 0.44993, -0.190662l 0.44993, -0.190662l 0.44993, -0.190662l 0.44993, -0.190662l 0.44993, -0.190662l 0.44993, -0.190662l
 0.44993, -0.190662l 0.44993, -0.190662l 0.44993, -0.190662l 0.44993, -0.190662l 0.44993, -0.190662l 0.44993, -0.190662l 0.44993, -0.190662l 0.44993, -0.190662l 0.44993, -0.190662l 0.44993, -0.190662l 0.44993, -0.190662l 0.44993, -0.190662l 0.44993,
 -0.190662l 0.44993, -0.190662l 0.44993, -0.190662l 0.44993, -0.190662l 0.44993, -0.190662l 0.44993, -0.190662l 0.44993, -0.190662l 0.44993, -0.190662l 0.44993, -0.190662l 0.44993, -0.190662l 0.44993, -0.190662l 0.44993, -0.190662l 0.44993,
 -0.190662l 0.44993, -0.190662l 0.44993, -0.190662l 0.44993, -0.190662l 0.44993, -0.190662l 0.44993, -0.190662l 0.44993, -0.190662l 0.44993, -0.190662l 0.44993, -0.190662l 0.44993, -0.190662l 0.44993, -0.190662l 0.44993, -0.190662l 0.44993,
 -0.190662l 0.44993, -0.190662" fill="none" stroke="#33cccc" stroke-width="3"/>
<path d="M385.357,266.725l 0.44993, -0.190662l 0.44993, -0.190662l 0.44993, -0.190662l 0.44993, -0.190662l 0.44993, -0.190662l 0.44993, -0.190662l 0.44993, -0.190662l 0.44993, -0.190662l 0.44993, -0.190662l 0.44993, -0.190662l 0.44993, -0.190662l
 0.44993, -0.190662l 0.44993, -0.190662l 0.44993, -0.190662l 0.44993, -0.190662l 0.44993, -0.190662l 0.44993, -0.190662l 0.44993, -0.190662l 0.44993, -0.190662l 0.44993, -0.190662l 0.44993, -0.190662l 0.44993, -0.190662l 0.44993, -0.190662l 0.44993,
 -0.190662l 0.44993, -0.190662l 0.44993, -0.190662l 0.44993, -0.190662l 0.44993, -0.190662l 0.44993, -0.190662l 0.44993, -0.190662l 0.44993, -0.190662l 0.44993, -0.190662l 0.44993, -0.190662l 0.44993, -0.190662l 0.44993, -0.190662l 0.44993,
 -0.190662l 0.44993, -0.190662l 0.44993, -0.190662l 0.44993, -0.190662l 0.44993, -0.190662l 0.44993, -0.190662l 0.44993, -0.190662l 0.44993, -0.190662l 0.44993, -0.190662l 0.44993, -0.190662l 0.44993, -0.190662l 0.44993, -0.190662l 0.44993,
 -0.190662l 0.44993, -0.190662" fill="none" stroke="#33cccc" stroke-width="3"/>
<path d="M407.404,257.382l 0.44993, -0.190662l 0.44993, -0.190662l 0.44993, -0.190662l 0.44993, -0.190662l 0.44993, -0.190662l 0.44993, -0.190662l 0.44993, -0.190662l 0.44993, -0.190662l 0.44993, -0.190662l 0.44993, -0.190662l 0.44993, -0.190662l
 0.44993, -0.190662l 0.44993, -0.190662l 0.44993, -0.190662l 0.44993, -0.190662l 0.44993, -0.190662l 0.44993, -0.190662l 0.44993, -0.190662l 0.44993, -0.190662l 0.44993, -0.190662l 0.44993, -0.190662l 0.44993, -0.190662l 0.44993, -0.190662l 0.44993,
 -0.190662l 0.44993, -0.190662l 0.44993, -0.190662l 0.44993, -0.190662l 0.44993, -0.190662l 0.44993, -0.190662l 0.44993, -0.190662l 0.44993, -0.190662l 0.44993, -0.190662l 0.44993, -0.190662l 0.44993, -0.190662l 0.44993, -0.190662l 0.44993,
 -0.190662l 0.44993, -0.190662l 0.44993, -0.190662l 0.44993, -0.190662l 0.44993, -0.190662l 0.44993, -0.190662l 0.44993, -0.190662l 0.44993, -0.190662l 0.44993, -0.190662l 0.44993, -0.190662l 0.44993, -0.190662l 0.44993, -0.190662l 0.44993,
 -0.190662l 0.44993, -0.190662" fill="none" stroke="#33cccc" stroke-width="3"/>
<path d="M429.45,248.04l 0.44993, -0.190662l 0.44993, -0.190662l 0.44993, -0.190662l 0.44993, -0.190662l 0.44993, -0.190662l 0.44993, -0.190662l 0.44993, -0.190662l 0.44993, -0.190662l 0.44993, -0.190662l 0.44993, -0.190662l 0.44993, -0.190662l
 0.44993, -0.190662l 0.44993, -0.190662l 0.44993, -0.190662l 0.44993, -0.190662l 0.44993, -0.190662l 0.44993, -0.190662l 0.44993, -0.190662l 0.44993, -0.190662l 0.44993, -0.190662l 0.44993, -0.190662l 0.44993, -0.190662l 0.44993, -0.190662l 0.44993,
 -0.190662l 0.44993, -0.190662l 0.44993, -0.190662l 0.44993, -0.190662l 0.44993, -0.190662l 0.44993, -0.190662l 0.44993, -0.190662l 0.44993, -0.190662l 0.44993, -0.190662l 0.44993, -0.190662l 0.44993, -0.190662l 0.44993, -0.190662l 0.44993,
 -0.190662l 0.44993, -0.190662l 0.44993, -0.190662l 0.44993, -0.190662l 0.44993, -0.190662l 0.44993, -0.190662l 0.44993, -0.190662l 0.44993, -0.190662l 0.44993, -0.190662l 0.44993, -0.190662l 0.44993, -0.190662l 0.44993, -0.190662l 0.44993,
 -0.190662l 0.44993, -0.190662" fill="none" stroke="#33cccc" stroke-width="3"/>
<path d="M451.497,238.697l 0.44993, -0.190662l 0.44993, -0.190662l 0.44993, -0.190662l 0.44993, -0.190662l 0.44993, -0.190662l 0.44993, -0.190662l 0.44993, -0.190662l 0.44993, -0.190662l 0.44993, -0.190662l 0.44993, -0.190662l 0.44993, -0.190662l
 0.44993, -0.190662l 0.44993, -0.190662l 0.44993, -0.190662l 0.44993, -0.190662l 0.44993, -0.190662l 0.44993, -0.190662l 0.44993, -0.190662l 0.44993, -0.190662l 0.44993, -0.190662l 0.44993, -0.190662l 0.44993, -0.190662l 0.44993, -0.190662l 0.44993,
 -0.190662l 0.44993, -0.190662l 0.44993, -0.190662l 0.44993, -0.190662l 0.44993, -0.190662l 0.44993, -0.190662l 0.44993, -0.190662l 0.44993, -0.190662l 0.44993, -0.190662l 0.44993, -0.190662l 0.44993, -0.190662l 0.44993, -0.190662l 0.44993,
 -0.190662l 0.44993, -0.190662l 0.44993, -0.190662l 0.44993, -0.190662l 0.44993, -0.190662l 0.44993, -0.190662l 0.44993, -0.190662l 0.44993, -0.190662l 0.44993, -0.190662l 0.44993, -0.190662l 0.44993, -0.190662l 0.44993, -0.190662l 0.44993,
 -0.190662l 0.44993, -0.190662" fill="none" stroke="#33cccc" stroke-width="3"/>
<path d="M473.543,229.355l 0.44993, -0.190662l 0.44993, -0.190662l 0.44993, -0.190662l 0.44993, -0.190662l 0.44993, -0.190662l 0.44993, -0.190662l 0.44993, -0.190662l 0.44993, -0.190662l 0.44993, -0.190662l 0.44993, -0.190662l 0.44993, -0.190662l
 0.44993, -0.190662l 0.44993, -0.190662l 0.44993, -0.190662l 0.44993, -0.190662l 0.44993, -0.190662l 0.44993, -0.190662l 0.44993, -0.190662l 0.44993, -0.190662l 0.44993, -0.190662l 0.44993, -0.190662l 0.44993, -0.190662l 0.44993, -0.190662l 0.44993,
 -0.190662l 0.44993, -0.190662l 0.44993, -0.190662l 0.44993, -0.190662l 0.44993, -0.190662l 0.44993, -0.190662l 0.44993, -0.190662l 0.44993, -0.190662l 0.44993, -0.190662l 0.44993, -0.190662l 0.44993, -0.190662l 0.44993, -0.190662l 0.44993,
 -0.190662l 0.44993, -0.190662l 0.44993, -0.190662l 0.44993, -0.190662l 0.44993, -0.190662l 0.44993, -0.190662l 0.44993, -0.190662l 0.44993, -0.190662l 0.44993, -0.190662l 0.44993, -0.190662l 0.44993, -0.190662l 0.44993, -0.190662l 0.44993,
 -0.190662l 0.44993, -0.190662" fill="none" stroke="#33cccc" stroke-width="3"/>
<path d="M495.59,220.013l 0.44993, -0.190662l 0.44993, -0.190662l 0.44993, -0.190662l 0.44993, -0.190662l 0.44993, -0.190662l 0.44993, -0.190662l 0.44993, -0.190662l 0.44993, -0.190662l 0.44993, -0.190662l 0.44993, -0.190662l 0.44993, -0.190662l
 0.44993, -0.190662l 0.44993, -0.190662l 0.44993, -0.190662l 0.44993, -0.190662l 0.44993, -0.190662l 0.44993, -0.190662l 0.44993, -0.190662l 0.44993, -0.190662l 0.44993, -0.190662l 0.44993, -0.190662l 0.44993, -0.190662l 0.44993, -0.190662l 0.44993,
 -0.190662l 0.44993, -0.190662l 0.44993, -0.190662l 0.44993, -0.190662l 0.44993, -0.190662l 0.44993, -0.190662l 0.44993, -0.190662l 0.44993, -0.190662l 0.44993, -0.190662l 0.44993, -0.190662l 0.44993, -0.190662l 0.44993, -0.190662l 0.44993,
 -0.190662l 0.44993, -0.190662l 0.44993, -0.190662l 0.44993, -0.190662l 0.44993, -0.190662l 0.44993, -0.190662l 0.44993, -0.190662l 0.44993, -0.190662l 0.44993, -0.190662l 0.44993, -0.190662l 0.44993, -0.190662l 0.44993, -0.190662l 0.44993,
 -0.190662l 0.44993, -0.190662" fill="none" stroke="#33cccc" stroke-width="3"/>
<path d="M517.636,210.67l 0.44993, -0.190662l 0.44993, -0.190662l 0.44993, -0.190662l 0.44993, -0.190662l 0.44993, -0.190662l 0.44993, -0.190662l 0.44993, -0.190662l 0.44993, -0.190662l 0.44993, -0.190662l 0.44993, -0.190662l 0.44993, -0.190662l
 0.44993, -0.190662l 0.44993, -0.190662l 0.44993, -0.190662l 0.44993, -0.190662l 0.44993, -0.190662l 0.44993, -0.190662l 0.44993, -0.190662l 0.44993, -0.190662l 0.44993, -0.190662l 0.44993, -0.190662l 0.44993, -0.190662l 0.44993, -0.190662l 0.44993,
 -0.190662l 0.44993, -0.190662l 0.44993, -0.190662l 0.44993, -0.190662l 0.44993, -0.190662l 0.44993, -0.190662l 0.44993, -0.190662l 0.44993, -0.190662l 0.44993, -0.190662l 0.44993, -0.190662l 0.44993, -0.190662l 0.44993, -0.190662l 0.44993,
 -0.190662l 0.44993, -0.190662l 0.44993, -0.190662l 0.44993, -0.190662l 0.44993, -0.190662l 0.44993, -0.190662l 0.44993, -0.190662l 0.44993, -0.190662l 0.44993, -0.190662l 0.44993, -0.190662l 0.44993, -0.190662l 0.44993, -0.190662l 0.44993,
 -0.190662l 0.44993, -0.190662" fill="none" stroke="#33cccc" stroke-width="3"/>
<path d="M539.683,201.328l 0.44993, -0.190662l 0.44993, -0.190662l 0.44993, -0.190662l 0.44993, -0.190662l 0.44993, -0.190662l 0.44993, -0.190662l 0.44993, -0.190662l 0.44993, -0.190662l 0.44993, -0.190662l 0.44993, -0.190662l 0.44993, -0.190662l
 0.44993, -0.190662l 0.44993, -0.190662l 0.44993, -0.190662l 0.44993, -0.190662l 0.44993, -0.190662l 0.44993, -0.190662l 0.44993, -0.190662l 0.44993, -0.190662" fill="none" stroke="#33cccc" stroke-width="3"/>
<path d="M98.7518,389.577l 0.44993, -0.196264l 0.44993, -0.196254l 0.44993, -0.196244l 0.44993, -0.196234l 0.44993, -0.196223l 0.44993, -0.196213l 0.44993, -0.196203l 0.44993, -0.196193l 0.44993, -0.196183l 0.44993, -0.196172l 0.44993, -0.196162l
 0.44993, -0.196152l 0.44993, -0.196142l 0.44993, -0.196131l 0.44993, -0.196121l 0.44993, -0.196111l 0.44993, -0.196101l 0.44993, -0.196091l 0.44993, -0.19608l 0.44993, -0.19607l 0.44993, -0.19606l 0.44993, -0.19605l 0.44993, -0.196039l 0.44993,
 -0.196029l 0.44993, -0.196019l 0.44993, -0.196009l 0.44993, -0.195999l 0.44993, -0.195988l 0.44993, -0.195978l 0.44993, -0.195968l 0.44993, -0.195958l 0.44993, -0.195947l 0.44993, -0.195937l 0.44993, -0.195927l 0.44993, -0.195917l 0.44993,
 -0.195907l 0.44993, -0.195896l 0.44993, -0.195886l 0.44993, -0.195876l 0.44993, -0.195866l 0.44993, -0.195855l 0.44993, -0.195845l 0.44993, -0.195835l 0.44993, -0.195825l 0.44993, -0.195815l 0.44993, -0.195804l 0.44993, -0.195794l 0.44993,
 -0.195784l 0.44993, -0.195774" fill="none" stroke="#ff0066" stroke-width="3"/>
<path d="M120.798,379.972l 0.44993, -0.195763l 0.44993, -0.195753l 0.44993, -0.195743l 0.44993, -0.195733l 0.44993, -0.195723l 0.44993, -0.195712l 0.44993, -0.195702l 0.44993, -0.195692l 0.44993, -0.195682l 0.44993, -0.195671l 0.44993, -0.195661l
 0.44993, -0.195651l 0.44993, -0.195641l 0.44993, -0.195631l 0.44993, -0.19562l 0.44993, -0.19561l 0.44993, -0.1956l 0.44993, -0.19559l 0.44993, -0.195579l 0.44993, -0.195569l 0.44993, -0.195559l 0.44993, -0.195549l 0.44993, -0.195539l 0.44993,
 -0.195528l 0.44993, -0.195518l 0.44993, -0.195508l 0.44993, -0.195498l 0.44993, -0.195487l 0.44993, -0.195477l 0.44993, -0.195467l 0.44993, -0.195457l 0.44993, -0.195447l 0.44993, -0.195436l 0.44993, -0.195426l 0.44993, -0.195416l 0.44993,
 -0.195406l 0.44993, -0.195395l 0.44993, -0.195385l 0.44993, -0.195375l 0.44993, -0.195365l 0.44993, -0.195355l 0.44993, -0.195344l 0.44993, -0.195334l 0.44993, -0.195324l 0.44993, -0.195314l 0.44993, -0.195303l 0.44993, -0.195293l 0.44993,
 -0.195283l 0.44993, -0.195273" fill="none" stroke="#ff0066" stroke-width="3"/>
<path d="M142.845,370.392l 0.44993, -0.195263l 0.44993, -0.195252l 0.44993, -0.195242l 0.44993, -0.195232l 0.44993, -0.195222l 0.44993, -0.195211l 0.44993, -0.195201l 0.44993, -0.195191l 0.44993, -0.195181l 0.44993, -0.195171l 0.44993, -0.19516l
 0.44993, -0.19515l 0.44993, -0.19514l 0.44993, -0.19513l 0.44993, -0.195119l 0.44993, -0.195109l 0.44993, -0.195099l 0.44993, -0.195089l 0.44993, -0.195079l 0.44993, -0.195068l 0.44993, -0.195058l 0.44993, -0.195048l 0.44993, -0.195038l 0.44993,
 -0.195027l 0.44993, -0.195017l 0.44993, -0.195007l 0.44993, -0.194997l 0.44993, -0.194987l 0.44993, -0.194976l 0.44993, -0.194966l 0.44993, -0.194956l 0.44993, -0.194946l 0.44993, -0.194935l 0.44993, -0.194925l 0.44993, -0.194915l 0.44993,
 -0.194905l 0.44993, -0.194895l 0.44993, -0.194884l 0.44993, -0.194874l 0.44993, -0.194864l 0.44993, -0.194854l 0.44993, -0.194843l 0.44993, -0.194833l 0.44993, -0.194823l 0.44993, -0.194813l 0.44993, -0.194803l 0.44993, -0.194792l 0.44993,
 -0.194782l 0.44993, -0.194772" fill="none" stroke="#ff0066" stroke-width="3"/>
<path d="M164.891,360.836l 0.44993, -0.194762l 0.44993, -0.194751l 0.44993, -0.194741l 0.44993, -0.194731l 0.44993, -0.194721l 0.44993, -0.194711l 0.44993, -0.1947l 0.44993, -0.19469l 0.44993, -0.19468l 0.44993, -0.19467l 0.44993, -0.194659l 0.44993,
 -0.194649l 0.44993, -0.194639l 0.44993, -0.194629l 0.44993, -0.194619l 0.44993, -0.194608l 0.44993, -0.194598l 0.44993, -0.194588l 0.44993, -0.194578l 0.44993, -0.194567l 0.44993, -0.194557l 0.44993, -0.194547l 0.44993, -0.194537l 0.44993,
 -0.194527l 0.44993, -0.194516l 0.44993, -0.194506l 0.44993, -0.194496l 0.44993, -0.194486l 0.44993, -0.194475l 0.44993, -0.194465l 0.44993, -0.194455l 0.44993, -0.194445l 0.44993, -0.194435l 0.44993, -0.194424l 0.44993, -0.194414l 0.44993,
 -0.194404l 0.44993, -0.194394l 0.44993, -0.194383l 0.44993, -0.194373l 0.44993, -0.194363l 0.44993, -0.194353l 0.44993, -0.194343l 0.44993, -0.194332l 0.44993, -0.194322l 0.44993, -0.194312l 0.44993, -0.194302l 0.44993, -0.194291l 0.44993,
 -0.194281l 0.44993, -0.194271" fill="none" stroke="#ff0066" stroke-width="3"/>
<path d="M186.938,351.305l 0.44993, -0.194261l 0.44993, -0.194251l 0.44993, -0.19424l 0.44993, -0.19423l 0.44993, -0.19422l 0.44993, -0.19421l 0.44993, -0.194199l 0.44993, -0.194189l 0.44993, -0.194179l 0.44993, -0.194169l 0.44993, -0.194159l
 0.44993, -0.194148l 0.44993, -0.194138l 0.44993, -0.194128l 0.44993, -0.194118l 0.44993, -0.194107l 0.44993, -0.194097l 0.44993, -0.194087l 0.44993, -0.194077l 0.44993, -0.194067l 0.44993, -0.194056l 0.44993, -0.194046l 0.44993, -0.194036l 0.44993,
 -0.194026l 0.44993, -0.194015l 0.44993, -0.194005l 0.44993, -0.193995l 0.44993, -0.193985l 0.44993, -0.193975l 0.44993, -0.193964l 0.44993, -0.193954l 0.44993, -0.193944l 0.44993, -0.193934l 0.44993, -0.193923l 0.44993, -0.193913l 0.44993,
 -0.193903l 0.44993, -0.193893l 0.44993, -0.193883l 0.44993, -0.193872l 0.44993, -0.193862l 0.44993, -0.193852l 0.44993, -0.193842l 0.44993, -0.193831l 0.44993, -0.193821l 0.44993, -0.193811l 0.44993, -0.193801l 0.44993, -0.193791l 0.44993, -0.19378l
 0.44993, -0.19377" fill="none" stroke="#ff0066" stroke-width="3"/>
<path d="M208.985,341.798l 0.44993, -0.19376l 0.44993, -0.19375l 0.44993, -0.193739l 0.44993, -0.193729l 0.44993, -0.193719l 0.44993, -0.193709l 0.44993, -0.193699l 0.44993, -0.193688l 0.44993, -0.193678l 0.44993, -0.193668l 0.44993, -0.193658l
 0.44993, -0.193647l 0.44993, -0.193637l 0.44993, -0.193627l 0.44993, -0.193617l 0.44993, -0.193607l 0.44993, -0.193596l 0.44993, -0.193586l 0.44993, -0.193576l 0.44993, -0.193566l 0.44993, -0.193555l 0.44993, -0.193545l 0.44993, -0.193535l 0.44993,
 -0.193525l 0.44993, -0.193515l 0.44993, -0.193504l 0.44993, -0.193494l 0.44993, -0.193484l 0.44993, -0.193474l 0.44993, -0.193463l 0.44993, -0.193453l 0.44993, -0.193443l 0.44993, -0.193433l 0.44993, -0.193423l 0.44993, -0.193412l 0.44993,
 -0.193402l 0.44993, -0.193392l 0.44993, -0.193382l 0.44993, -0.193371l 0.44993, -0.193361l 0.44993, -0.193351l 0.44993, -0.193341l 0.44993, -0.193331l 0.44993, -0.19332l 0.44993, -0.19331l 0.44993, -0.1933l 0.44993, -0.19329l 0.44993, -0.193279l
 0.44993, -0.193269" fill="none" stroke="#ff0066" stroke-width="3"/>
<path d="M231.031,332.316l 0.44993, -0.193259l 0.44993, -0.193249l 0.44993, -0.193239l 0.44993, -0.193228l 0.44993, -0.193218l 0.44993, -0.193208l 0.44993, -0.193198l 0.44993, -0.193187l 0.44993, -0.193177l 0.44993, -0.193167l 0.44993, -0.193157l
 0.44993, -0.193147l 0.44993, -0.193136l 0.44993, -0.193126l 0.44993, -0.193116l 0.44993, -0.193106l 0.44993, -0.193095l 0.44993, -0.193085l 0.44993, -0.193075l 0.44993, -0.193065l 0.44993, -0.193055l 0.44993, -0.193044l 0.44993, -0.193034l 0.44993,
 -0.193024l 0.44993, -0.193014l 0.44993, -0.193003l 0.44993, -0.192993l 0.44993, -0.192983l 0.44993, -0.192973l 0.44993, -0.192963l 0.44993, -0.192952l 0.44993, -0.192942l 0.44993, -0.192932l 0.44993, -0.192922l 0.44993, -0.192911l 0.44993,
 -0.192901l 0.44993, -0.192891l 0.44993, -0.192881l 0.44993, -0.192871l 0.44993, -0.19286l 0.44993, -0.19285l 0.44993, -0.19284l 0.44993, -0.19283l 0.44993, -0.192819l 0.44993, -0.192809l 0.44993, -0.192799l 0.44993, -0.192789l 0.44993, -0.192779l
 0.44993, -0.192768" fill="none" stroke="#ff0066" stroke-width="3"/>
<path d="M253.078,322.858l 0.44993, -0.192758l 0.44993, -0.192748l 0.44993, -0.192738l 0.44993, -0.192727l 0.44993, -0.192717l 0.44993, -0.192707l 0.44993, -0.192697l 0.44993, -0.192687l 0.44993, -0.192676l 0.44993, -0.192666l 0.44993, -0.192656l
 0.44993, -0.192646l 0.44993, -0.192635l 0.44993, -0.192625l 0.44993, -0.192615l 0.44993, -0.192605l 0.44993, -0.192595l 0.44993, -0.192584l 0.44993, -0.192574l 0.44993, -0.192564l 0.44993, -0.192554l 0.44993, -0.192543l 0.44993, -0.192533l 0.44993,
 -0.192523l 0.44993, -0.192513l 0.44993, -0.192503l 0.44993, -0.192492l 0.44993, -0.192482l 0.44993, -0.192472l 0.44993, -0.192462l 0.44993, -0.192451l 0.44993, -0.192441l 0.44993, -0.192431l 0.44993, -0.192421l 0.44993, -0.192411l 0.44993, -0.1924l
 0.44993, -0.19239l 0.44993, -0.19238l 0.44993, -0.19237l 0.44993, -0.192359l 0.44993, -0.192349l 0.44993, -0.192339l 0.44993, -0.192329l 0.44993, -0.192319l 0.44993, -0.192308l 0.44993, -0.192298l 0.44993, -0.192288l 0.44993, -0.192278l 0.44993,
 -0.192267" fill="none" stroke="#ff0066" stroke-width="3"/>
<path d="M275.124,313.425l 0.44993, -0.192257l 0.44993, -0.192247l 0.44993, -0.192237l 0.44993, -0.192227l 0.44993, -0.192216l 0.44993, -0.192206l 0.44993, -0.192196l 0.44993, -0.192186l 0.44993, -0.192175l 0.44993, -0.192165l 0.44993, -0.192155l
 0.44993, -0.192145l 0.44993, -0.192135l 0.44993, -0.192124l 0.44993, -0.192114l 0.44993, -0.192104l 0.44993, -0.192094l 0.44993, -0.192083l 0.44993, -0.192073l 0.44993, -0.192063l 0.44993, -0.192053l 0.44993, -0.192043l 0.44993, -0.192032l 0.44993,
 -0.192022l 0.44993, -0.192012l 0.44993, -0.192002l 0.44993, -0.191991l 0.44993, -0.191981l 0.44993, -0.191971l 0.44993, -0.191961l 0.44993, -0.191951l 0.44993, -0.19194l 0.44993, -0.19193l 0.44993, -0.19192l 0.44993, -0.19191l 0.44993, -0.191899l
 0.44993, -0.191889l 0.44993, -0.191879l 0.44993, -0.191869l 0.44993, -0.191859l 0.44993, -0.191848l 0.44993, -0.191838l 0.44993, -0.191828l 0.44993, -0.191818l 0.44993, -0.191807l 0.44993, -0.191797l 0.44993, -0.191787l 0.44993, -0.191777l 0.44993,
 -0.191767" fill="none" stroke="#ff0066" stroke-width="3"/>
<path d="M297.171,304.016l 0.44993, -0.191756l 0.44993, -0.191746l 0.44993, -0.191736l 0.44993, -0.191726l 0.44993, -0.191715l 0.44993, -0.191705l 0.44993, -0.191695l 0.44993, -0.191685l 0.44993, -0.191675l 0.44993, -0.191664l 0.44993, -0.191654l
 0.44993, -0.191644l 0.44993, -0.191634l 0.44993, -0.191623l 0.44993, -0.191613l 0.44993, -0.191603l 0.44993, -0.191593l 0.44993, -0.191583l 0.44993, -0.191572l 0.44993, -0.191562l 0.44993, -0.191552l 0.44993, -0.191542l 0.44993, -0.191531l 0.44993,
 -0.191521l 0.44993, -0.191511l 0.44993, -0.191501l 0.44993, -0.191491l 0.44993, -0.19148l 0.44993, -0.19147l 0.44993, -0.19146l 0.44993, -0.19145l 0.44993, -0.191439l 0.44993, -0.191429l 0.44993, -0.191419l 0.44993, -0.191409l 0.44993, -0.191399l
 0.44993, -0.191388l 0.44993, -0.191378l 0.44993, -0.191368l 0.44993, -0.191358l 0.44993, -0.191347l 0.44993, -0.191337l 0.44993, -0.191327l 0.44993, -0.191317l 0.44993, -0.191307l 0.44993, -0.191296l 0.44993, -0.191286l 0.44993, -0.191276l 0.44993,
 -0.191266" fill="none" stroke="#ff0066" stroke-width="3"/>
<path d="M319.217,294.632l 0.44993, -0.191255l 0.44993, -0.191245l 0.44993, -0.191235l 0.44993, -0.191225l 0.44993, -0.191215l 0.44993, -0.191204l 0.44993, -0.191194l 0.44993, -0.191184l 0.44993, -0.191174l 0.44993, -0.191163l 0.44993, -0.191153l
 0.44993, -0.191143l 0.44993, -0.191133l 0.44993, -0.191123l 0.44993, -0.191112l 0.44993, -0.191102l 0.44993, -0.191092l 0.44993, -0.191082l 0.44993, -0.191071l 0.44993, -0.191061l 0.44993, -0.191051l 0.44993, -0.191041l 0.44993, -0.191031l 0.44993,
 -0.19102l 0.44993, -0.19101l 0.44993, -0.191l 0.44993, -0.19099l 0.44993, -0.190979l 0.44993, -0.190969l 0.44993, -0.190959l 0.44993, -0.190949l 0.44993, -0.190939l 0.44993, -0.190928l 0.44993, -0.190918l 0.44993, -0.190908l 0.44993, -0.190898l
 0.44993, -0.190887l 0.44993, -0.190877l 0.44993, -0.190867l 0.44993, -0.190857l 0.44993, -0.190847l 0.44993, -0.190836l 0.44993, -0.190826l 0.44993, -0.190816l 0.44993, -0.190806l 0.44993, -0.190795l 0.44993, -0.190785l 0.44993, -0.190775l 0.44993,
 -0.190765" fill="none" stroke="#ff0066" stroke-width="3"/>
<path d="M341.264,285.273l 0.44993, -0.190755l 0.44993, -0.190744l 0.44993, -0.190734l 0.44993, -0.190724l 0.44993, -0.190714l 0.44993, -0.190703l 0.44993, -0.190693l 0.44993, -0.190683l 0.44993, -0.190673l 0.44993, -0.190663l 0.44993, -0.190652l
 0.44993, -0.190642l 0.44993, -0.190632l 0.44993, -0.190622l 0.44993, -0.190611l 0.44993, -0.190601l 0.44993, -0.190591l 0.44993, -0.190581l 0.44993, -0.190571l 0.44993, -0.19056l 0.44993, -0.19055l 0.44993, -0.19054l 0.44993, -0.19053l 0.44993,
 -0.190519l 0.44993, -0.190509l 0.44993, -0.190499l 0.44993, -0.190489l 0.44993, -0.190479l 0.44993, -0.190468l 0.44993, -0.190458l 0.44993, -0.190448l 0.44993, -0.190438l 0.44993, -0.190427l 0.44993, -0.190417l 0.44993, -0.190407l 0.44993,
 -0.190397l 0.44993, -0.190387l 0.44993, -0.190376l 0.44993, -0.190366l 0.44993, -0.190356l 0.44993, -0.190346l 0.44993, -0.190335l 0.44993, -0.190325l 0.44993, -0.190315l 0.44993, -0.190305l 0.44993, -0.190295l 0.44993, -0.190284l 0.44993,
 -0.190274l 0.44993, -0.190264" fill="none" stroke="#ff0066" stroke-width="3"/>
<path d="M363.311,275.938l 0.44993, -0.190254l 0.44993, -0.190243l 0.44993, -0.190233l 0.44993, -0.190223l 0.44993, -0.190213l 0.44993, -0.190203l 0.44993, -0.190192l 0.44993, -0.190182l 0.44993, -0.190172l 0.44993, -0.190162l 0.44993, -0.190151l
 0.44993, -0.190141l 0.44993, -0.190131l 0.44993, -0.190121l 0.44993, -0.190111l 0.44993, -0.1901l 0.44993, -0.19009l 0.44993, -0.19008l 0.44993, -0.19007l 0.44993, -0.190059l 0.44993, -0.190049l 0.44993, -0.190039l 0.44993, -0.190029l 0.44993,
 -0.190019l 0.44993, -0.190008l 0.44993, -0.189998l 0.44993, -0.189988l 0.44993, -0.189978l 0.44993, -0.189967l 0.44993, -0.189957l 0.44993, -0.189947l 0.44993, -0.189937l 0.44993, -0.189927l 0.44993, -0.189916l 0.44993, -0.189906l 0.44993,
 -0.189896l 0.44993, -0.189886l 0.44993, -0.189875l 0.44993, -0.189865l 0.44993, -0.189855l 0.44993, -0.189845l 0.44993, -0.189835l 0.44993, -0.189824l 0.44993, -0.189814l 0.44993, -0.189804l 0.44993, -0.189794l 0.44993, -0.189783l 0.44993,
 -0.189773l 0.44993, -0.189763" fill="none" stroke="#ff0066" stroke-width="3"/>
<path d="M385.357,266.628l 0.44993, -0.189753l 0.44993, -0.189743l 0.44993, -0.189732l 0.44993, -0.189722l 0.44993, -0.189712l 0.44993, -0.189702l 0.44993, -0.189691l 0.44993, -0.189681l 0.44993, -0.189671l 0.44993, -0.189661l 0.44993, -0.189651l
 0.44993, -0.18964l 0.44993, -0.18963l 0.44993, -0.18962l 0.44993, -0.18961l 0.44993, -0.189599l 0.44993, -0.189589l 0.44993, -0.189579l 0.44993, -0.189569l 0.44993, -0.189559l 0.44993, -0.189548l 0.44993, -0.189538l 0.44993, -0.189528l 0.44993,
 -0.189518l 0.44993, -0.189507l 0.44993, -0.189497l 0.44993, -0.189487l 0.44993, -0.189477l 0.44993, -0.189467l 0.44993, -0.189456l 0.44993, -0.189446l 0.44993, -0.189436l 0.44993, -0.189426l 0.44993, -0.189415l 0.44993, -0.189405l 0.44993,
 -0.189395l 0.44993, -0.189385l 0.44993, -0.189375l 0.44993, -0.189364l 0.44993, -0.189354l 0.44993, -0.189344l 0.44993, -0.189334l 0.44993, -0.189323l 0.44993, -0.189313l 0.44993, -0.189303l 0.44993, -0.189293l 0.44993, -0.189283l 0.44993,
 -0.189272l 0.44993, -0.189262" fill="none" stroke="#ff0066" stroke-width="3"/>
<path d="M407.404,257.342l 0.44993, -0.189252l 0.44993, -0.189242l 0.44993, -0.189231l 0.44993, -0.189221l 0.44993, -0.189211l 0.44993, -0.189201l 0.44993, -0.189191l 0.44993, -0.18918l 0.44993, -0.18917l 0.44993, -0.18916l 0.44993, -0.18915l
 0.44993, -0.189139l 0.44993, -0.189129l 0.44993, -0.189119l 0.44993, -0.189109l 0.44993, -0.189099l 0.44993, -0.189088l 0.44993, -0.189078l 0.44993, -0.189068l 0.44993, -0.189058l 0.44993, -0.189047l 0.44993, -0.189037l 0.44993, -0.189027l 0.44993,
 -0.189017l 0.44993, -0.189007l 0.44993, -0.188996l 0.44993, -0.188986l 0.44993, -0.188976l 0.44993, -0.188966l 0.44993, -0.188955l 0.44993, -0.188945l 0.44993, -0.188935l 0.44993, -0.188925l 0.44993, -0.188915l 0.44993, -0.188904l 0.44993,
 -0.188894l 0.44993, -0.188884l 0.44993, -0.188874l 0.44993, -0.188863l 0.44993, -0.188853l 0.44993, -0.188843l 0.44993, -0.188833l 0.44993, -0.188823l 0.44993, -0.188812l 0.44993, -0.188802l 0.44993, -0.188792l 0.44993, -0.188782l 0.44993,
 -0.188771l 0.44993, -0.188761" fill="none" stroke="#ff0066" stroke-width="3"/>
<path d="M429.45,248.08l 0.44993, -0.188751l 0.44993, -0.188741l 0.44993, -0.188731l 0.44993, -0.18872l 0.44993, -0.18871l 0.44993, -0.1887l 0.44993, -0.18869l 0.44993, -0.188679l 0.44993, -0.188669l 0.44993, -0.188659l 0.44993, -0.188649l 0.44993,
 -0.188639l 0.44993, -0.188628l 0.44993, -0.188618l 0.44993, -0.188608l 0.44993, -0.188598l 0.44993, -0.188587l 0.44993, -0.188577l 0.44993, -0.188567l 0.44993, -0.188557l 0.44993, -0.188547l 0.44993, -0.188536l 0.44993, -0.188526l 0.44993,
 -0.188516l 0.44993, -0.188506l 0.44993, -0.188495l 0.44993, -0.188485l 0.44993, -0.188475l 0.44993, -0.188465l 0.44993, -0.188455l 0.44993, -0.188444l 0.44993, -0.188434l 0.44993, -0.188424l 0.44993, -0.188414l 0.44993, -0.188403l 0.44993,
 -0.188393l 0.44993, -0.188383l 0.44993, -0.188373l 0.44993, -0.188363l 0.44993, -0.188352l 0.44993, -0.188342l 0.44993, -0.188332l 0.44993, -0.188322l 0.44993, -0.188311l 0.44993, -0.188301l 0.44993, -0.188291l 0.44993, -0.188281l 0.44993,
 -0.188271l 0.44993, -0.18826" fill="none" stroke="#ff0066" stroke-width="3"/>
<path d="M451.497,238.844l 0.44993, -0.18825l 0.44993, -0.18824l 0.44993, -0.18823l 0.44993, -0.188219l 0.44993, -0.188209l 0.44993, -0.188199l 0.44993, -0.188189l 0.44993, -0.188179l 0.44993, -0.188168l 0.44993, -0.188158l 0.44993, -0.188148l
 0.44993, -0.188138l 0.44993, -0.188127l 0.44993, -0.188117l 0.44993, -0.188107l 0.44993, -0.188097l 0.44993, -0.188087l 0.44993, -0.188076l 0.44993, -0.188066l 0.44993, -0.188056l 0.44993, -0.188046l 0.44993, -0.188035l 0.44993, -0.188025l 0.44993,
 -0.188015l 0.44993, -0.188005l 0.44993, -0.187995l 0.44993, -0.187984l 0.44993, -0.187974l 0.44993, -0.187964l 0.44993, -0.187954l 0.44993, -0.187943l 0.44993, -0.187933l 0.44993, -0.187923l 0.44993, -0.187913l 0.44993, -0.187903l 0.44993,
 -0.187892l 0.44993, -0.187882l 0.44993, -0.187872l 0.44993, -0.187862l 0.44993, -0.187851l 0.44993, -0.187841l 0.44993, -0.187831l 0.44993, -0.187821l 0.44993, -0.187811l 0.44993, -0.1878l 0.44993, -0.18779l 0.44993, -0.18778l 0.44993, -0.18777l
 0.44993, -0.187759" fill="none" stroke="#ff0066" stroke-width="3"/>
<path d="M473.543,229.631l 0.44993, -0.187749l 0.44993, -0.187739l 0.44993, -0.187729l 0.44993, -0.187719l 0.44993, -0.187708l 0.44993, -0.187698l 0.44993, -0.187688l 0.44993, -0.187678l 0.44993, -0.187667l 0.44993, -0.187657l 0.44993, -0.187647l
 0.44993, -0.187637l 0.44993, -0.187627l 0.44993, -0.187616l 0.44993, -0.187606l 0.44993, -0.187596l 0.44993, -0.187586l 0.44993, -0.187575l 0.44993, -0.187565l 0.44993, -0.187555l 0.44993, -0.187545l 0.44993, -0.187535l 0.44993, -0.187524l 0.44993,
 -0.187514l 0.44993, -0.187504l 0.44993, -0.187494l 0.44993, -0.187483l 0.44993, -0.187473l 0.44993, -0.187463l 0.44993, -0.187453l 0.44993, -0.187443l 0.44993, -0.187432l 0.44993, -0.187422l 0.44993, -0.187412l 0.44993, -0.187402l 0.44993,
 -0.187391l 0.44993, -0.187381l 0.44993, -0.187371l 0.44993, -0.187361l 0.44993, -0.187351l 0.44993, -0.18734l 0.44993, -0.18733l 0.44993, -0.18732l 0.44993, -0.18731l 0.44993, -0.187299l 0.44993, -0.187289l 0.44993, -0.187279l 0.44993, -0.187269l
 0.44993, -0.187259" fill="none" stroke="#ff0066" stroke-width="3"/>
<path d="M495.59,220.444l 0.44993, -0.187248l 0.44993, -0.187238l 0.44993, -0.187228l 0.44993, -0.187218l 0.44993, -0.187207l 0.44993, -0.187197l 0.44993, -0.187187l 0.44993, -0.187177l 0.44993, -0.187167l 0.44993, -0.187156l 0.44993, -0.187146l
 0.44993, -0.187136l 0.44993, -0.187126l 0.44993, -0.187115l 0.44993, -0.187105l 0.44993, -0.187095l 0.44993, -0.187085l 0.44993, -0.187075l 0.44993, -0.187064l 0.44993, -0.187054l 0.44993, -0.187044l 0.44993, -0.187034l 0.44993, -0.187023l 0.44993,
 -0.187013l 0.44993, -0.187003l 0.44993, -0.186993l 0.44993, -0.186983l 0.44993, -0.186972l 0.44993, -0.186962l 0.44993, -0.186952l 0.44993, -0.186942l 0.44993, -0.186931l 0.44993, -0.186921l 0.44993, -0.186911l 0.44993, -0.186901l 0.44993,
 -0.186891l 0.44993, -0.18688l 0.44993, -0.18687l 0.44993, -0.18686l 0.44993, -0.18685l 0.44993, -0.186839l 0.44993, -0.186829l 0.44993, -0.186819l 0.44993, -0.186809l 0.44993, -0.186799l 0.44993, -0.186788l 0.44993, -0.186778l 0.44993, -0.186768l
 0.44993, -0.186758" fill="none" stroke="#ff0066" stroke-width="3"/>
<path d="M517.636,211.28l 0.44993, -0.186747l 0.44993, -0.186737l 0.44993, -0.186727l 0.44993, -0.186717l 0.44993, -0.186707l 0.44993, -0.186696l 0.44993, -0.186686l 0.44993, -0.186676l 0.44993, -0.186666l 0.44993, -0.186655l 0.44993, -0.186645l
 0.44993, -0.186635l 0.44993, -0.186625l 0.44993, -0.186615l 0.44993, -0.186604l 0.44993, -0.186594l 0.44993, -0.186584l 0.44993, -0.186574l 0.44993, -0.186563l 0.44993, -0.186553l 0.44993, -0.186543l 0.44993, -0.186533l 0.44993, -0.186523l 0.44993,
 -0.186512l 0.44993, -0.186502l 0.44993, -0.186492l 0.44993, -0.186482l 0.44993, -0.186471l 0.44993, -0.186461l 0.44993, -0.186451l 0.44993, -0.186441l 0.44993, -0.186431l 0.44993, -0.18642l 0.44993, -0.18641l 0.44993, -0.1864l 0.44993, -0.18639l
 0.44993, -0.186379l 0.44993, -0.186369l 0.44993, -0.186359l 0.44993, -0.186349l 0.44993, -0.186339l 0.44993, -0.186328l 0.44993, -0.186318l 0.44993, -0.186308l 0.44993, -0.186298l 0.44993, -0.186287l 0.44993, -0.186277l 0.44993, -0.186267l 0.44993,
 -0.186257" fill="none" stroke="#ff0066" stroke-width="3"/>
<path d="M539.683,202.142l 0.44993, -0.186247l 0.44993, -0.186236l 0.44993, -0.186226l 0.44993, -0.186216l 0.44993, -0.186206l 0.44993, -0.186195l 0.44993, -0.186185l 0.44993, -0.186175l 0.44993, -0.186165l 0.44993, -0.186155l 0.44993, -0.186144l
 0.44993, -0.186134l 0.44993, -0.186124l 0.44993, -0.186114l 0.44993, -0.186103l 0.44993, -0.186093l 0.44993, -0.186083l 0.44993, -0.186073l 0.44993, -0.186063" fill="none" stroke="#ff0066" stroke-width="3"/>
<path d="M248.503,21.4167h 239.963" fill="none" stroke="#999999" stroke-width="7"/>
<text xml:space="preserve" x="360.607" y="50.7193" fill="black" font-size="16.0105" font-family="Helvetica"> with EMC</text>
<text xml:space="preserve" x="352.717" y="50.7193" fill="black" font-size="16.0105" font-family="Times">&#0947;</text>
<text xml:space="preserve" x="344.828" y="50.7193" fill="black" font-size="16.0105" font-family="Times">&#0947;</text>
<text xml:space="preserve" x="336.938" y="50.7193" fill="black" font-size="16.0105" font-family="Times">&#0947;</text>
<text xml:space="preserve" x="331.866" y="50.7193" fill="black" font-size="16.0105" font-family="Helvetica"> </text>
<text xml:space="preserve" x="316.65" y="50.7193" fill="black" font-size="16.0105" font-family="Times">&#8594;</text>
<text xml:space="preserve" x="311.578" y="50.7193" fill="black" font-size="16.0105" font-family="Helvetica"> </text>
<text xml:space="preserve" x="303.689" y="50.7193" fill="black" font-size="16.0105" font-family="Times">&#0947;</text>
<text xml:space="preserve" x="298.053" y="45.0838" fill="black" font-size="10.8403" font-family="Helvetica">0</text>
<text xml:space="preserve" x="289.6" y="50.7193" fill="black" font-size="16.0105" font-family="Times">&#0960;</text>
<text xml:space="preserve" x="284.528" y="50.7193" fill="black" font-size="16.0105" font-family="Helvetica"> </text>
<text xml:space="preserve" x="269.312" y="50.7193" fill="black" font-size="16.0105" font-family="Times">&#8594;</text>
<text xml:space="preserve" x="264.24" y="50.7193" fill="black" font-size="16.0105" font-family="Helvetica"> </text>
<text xml:space="preserve" x="252.969" y="50.7193" fill="black" font-size="16.0105" font-family="Times">&#0969;</text>
<text xml:space="preserve" x="128.989" y="50.7193" fill="black" font-size="16.0105" font-family="Helvetica"> = 13 TeV (EG1), </text>
<text xml:space="preserve" x="120.536" y="50.7193" fill="black" font-size="16.0105" font-family="Helvetica" font-style="oblique">s</text>
<path d="M114.9,41.7025l 1.69064, 9.58031" fill="none" stroke="black" stroke-width="2"/>
<path d="M116.591,51.2829l 2.25419, -14.0887" fill="none" stroke="black"/>
<path d="M118.845,37.1942h 10.1439" fill="none" stroke="black"/>
<text xml:space="preserve" x="89.5406" y="50.7193" fill="black" font-size="16.0105" font-family="Helvetica">pp </text>
<text xml:space="preserve" x="89.5406" y="85.6593" fill="black" font-size="16.0105" font-family="Helvetica">ALICE work in progress</text>
<text xml:space="preserve" x="214.085" y="120.599" fill="black" font-size="16.0105" font-family="Helvetica">) &lt; 24.0</text>
<text xml:space="preserve" x="205.068" y="120.599" fill="black" font-size="16.0105" font-family="Helvetica" font-style="oblique">c</text>
<text xml:space="preserve" x="154.912" y="120.599" fill="black" font-size="16.0105" font-family="Helvetica"> /(GeV/</text>
<text xml:space="preserve" x="148.15" y="128.489" fill="black" font-size="10.8403" font-family="Helvetica">T</text>
<text xml:space="preserve" x="138.569" y="120.599" fill="black" font-size="16.0105" font-family="Helvetica" font-style="oblique">p</text>
<text xml:space="preserve" x="133.497" y="120.599" fill="black" font-size="16.0105" font-family="Helvetica"> </text>
<text xml:space="preserve" x="125.044" y="120.599" fill="black" font-size="16.0105" font-family="Times">&#8804;</text>
<text xml:space="preserve" x="89.5406" y="120.599" fill="black" font-size="16.0105" font-family="Helvetica">20.0 </text>
<rect x="312.311" y="69.1755" width="198.425" height="113.448" fill="white"/>
<text xml:space="preserve" x="361.734" y="85.0957" fill="black" font-size="16.0105" font-family="Helvetica">ratio</text>
<path d="M319.752,80.5203h 34.7244" fill="none" stroke="black" stroke-width="2"/>
<g fill="black">
<circle cx="337.114" cy="80.5203" r="6.76257"/>
</g>
<text xml:space="preserve" x="361.734" y="108.201" fill="black" font-size="16.0105" font-family="Helvetica">peak range</text>
<path d="M319.752,103.21h 34.7244" fill="none" stroke="#333333" stroke-width="2"/>
<g stroke="#333333" stroke-width="2" fill="none">
<circle cx="337.114" cy="103.21" r="5.63548"/>
</g>
<text xml:space="preserve" x="361.734" y="130.743" fill="black" font-size="16.0105" font-family="Helvetica">background pol1</text>
<path d="M319.752,125.899h 34.7244" fill="none" stroke="#33cccc" stroke-width="3"/>
<text xml:space="preserve" x="361.734" y="153.285" fill="black" font-size="16.0105" font-family="Helvetica">background pol2</text>
<path d="M319.752,148.589h 34.7244" fill="none" stroke="#ff0066" stroke-width="3"/>
<text xml:space="preserve" x="361.734" y="175.827" fill="black" font-size="16.0105" font-family="Helvetica">param. range</text>
<path d="M319.752,171.279h 34.7244" fill="none" stroke="#999999" stroke-width="7"/></svg>
