<?xml version="1.0" standalone="no"?>
<svg width="567.429" height="553.904" viewBox="0 0 567.429 553.904" xmlns="http://www.w3.org/2000/svg" shape-rendering="crispEdges">
<title>
MC/EG1/OmegaTGPSWOPS/SameEventAndBackgroundBeforeScaling_02.svg
</title>
<desc>
Creator: ROOT Version 6.20/08
CreationDate: Mon Mar 29 21:28:52 2021</desc>
<defs>
</defs>
<rect x="0.5" y="0" width="566.929" height="553.404" fill="white"/>
<rect x="57.1929" y="16.6021" width="496.063" height="481.461" fill="white"/>
<rect x="57.1929" y="16.6021" width="496.063" height="481.461" fill="none" stroke="black"/>
<rect x="57.1929" y="16.6021" width="496.063" height="481.461" fill="white"/>
<rect x="57.1929" y="16.6021" width="496.063" height="481.461" fill="none" stroke="black"/>
<g fill="#993333">
<rect x="94.4324" y="493.546" width="9.01677" height="9.01677"/>
</g>
<g fill="#993333">
<rect x="99.3439" y="475.68" width="9.01677" height="9.01677"/>
</g>
<g fill="#993333">
<rect x="104.255" y="436.392" width="9.01677" height="9.01677"/>
</g>
<g fill="#993333">
<rect x="109.167" y="226.077" width="9.01677" height="9.01677"/>
</g>
<g fill="#993333">
<rect x="114.078" y="309.531" width="9.01677" height="9.01677"/>
</g>
<g fill="#993333">
<rect x="118.99" y="384.529" width="9.01677" height="9.01677"/>
</g>
<g fill="#993333">
<rect x="123.901" y="389.475" width="9.01677" height="9.01677"/>
</g>
<g fill="#993333">
<rect x="128.813" y="396.785" width="9.01677" height="9.01677"/>
</g>
<g fill="#993333">
<rect x="133.725" y="404.504" width="9.01677" height="9.01677"/>
</g>
<g fill="#993333">
<rect x="138.636" y="411.792" width="9.01677" height="9.01677"/>
</g>
<g fill="#993333">
<rect x="143.548" y="418.359" width="9.01677" height="9.01677"/>
</g>
<g fill="#993333">
<rect x="148.459" y="424.413" width="9.01677" height="9.01677"/>
</g>
<g fill="#993333">
<rect x="153.371" y="429.943" width="9.01677" height="9.01677"/>
</g>
<g fill="#993333">
<rect x="158.282" y="435.094" width="9.01677" height="9.01677"/>
</g>
<g fill="#993333">
<rect x="163.194" y="439.798" width="9.01677" height="9.01677"/>
</g>
<g fill="#993333">
<rect x="168.105" y="444.108" width="9.01677" height="9.01677"/>
</g>
<g fill="#993333">
<rect x="173.017" y="448.081" width="9.01677" height="9.01677"/>
</g>
<g fill="#993333">
<rect x="177.928" y="451.67" width="9.01677" height="9.01677"/>
</g>
<g fill="#993333">
<rect x="182.84" y="454.984" width="9.01677" height="9.01677"/>
</g>
<g fill="#993333">
<rect x="187.751" y="457.966" width="9.01677" height="9.01677"/>
</g>
<g fill="#993333">
<rect x="192.663" y="460.726" width="9.01677" height="9.01677"/>
</g>
<g fill="#993333">
<rect x="197.574" y="463.171" width="9.01677" height="9.01677"/>
</g>
<g fill="#993333">
<rect x="202.486" y="465.434" width="9.01677" height="9.01677"/>
</g>
<g fill="#993333">
<rect x="207.397" y="467.493" width="9.01677" height="9.01677"/>
</g>
<g fill="#993333">
<rect x="212.309" y="469.351" width="9.01677" height="9.01677"/>
</g>
<g fill="#993333">
<rect x="217.22" y="471.061" width="9.01677" height="9.01677"/>
</g>
<g fill="#993333">
<rect x="222.132" y="472.615" width="9.01677" height="9.01677"/>
</g>
<g fill="#993333">
<rect x="227.043" y="474.031" width="9.01677" height="9.01677"/>
</g>
<g fill="#993333">
<rect x="231.955" y="475.338" width="9.01677" height="9.01677"/>
</g>
<g fill="#993333">
<rect x="236.866" y="476.514" width="9.01677" height="9.01677"/>
</g>
<g fill="#993333">
<rect x="241.778" y="477.605" width="9.01677" height="9.01677"/>
</g>
<g fill="#993333">
<rect x="246.689" y="478.605" width="9.01677" height="9.01677"/>
</g>
<g fill="#993333">
<rect x="251.601" y="479.537" width="9.01677" height="9.01677"/>
</g>
<g fill="#993333">
<rect x="256.512" y="480.366" width="9.01677" height="9.01677"/>
</g>
<g fill="#993333">
<rect x="261.424" y="481.152" width="9.01677" height="9.01677"/>
</g>
<g fill="#993333">
<rect x="266.335" y="481.883" width="9.01677" height="9.01677"/>
</g>
<g fill="#993333">
<rect x="271.247" y="482.536" width="9.01677" height="9.01677"/>
</g>
<g fill="#993333">
<rect x="276.158" y="483.161" width="9.01677" height="9.01677"/>
</g>
<g fill="#993333">
<rect x="281.07" y="483.737" width="9.01677" height="9.01677"/>
</g>
<g fill="#993333">
<rect x="285.981" y="484.265" width="9.01677" height="9.01677"/>
</g>
<g fill="#993333">
<rect x="290.893" y="484.765" width="9.01677" height="9.01677"/>
</g>
<g fill="#993333">
<rect x="295.805" y="485.224" width="9.01677" height="9.01677"/>
</g>
<g fill="#993333">
<rect x="300.716" y="485.652" width="9.01677" height="9.01677"/>
</g>
<g fill="#993333">
<rect x="305.628" y="486.051" width="9.01677" height="9.01677"/>
</g>
<g fill="#993333">
<rect x="310.539" y="486.43" width="9.01677" height="9.01677"/>
</g>
<g fill="#993333">
<rect x="315.451" y="486.77" width="9.01677" height="9.01677"/>
</g>
<g fill="#993333">
<rect x="320.362" y="487.103" width="9.01677" height="9.01677"/>
</g>
<g fill="#993333">
<rect x="325.274" y="487.413" width="9.01677" height="9.01677"/>
</g>
<g fill="#993333">
<rect x="330.185" y="487.7" width="9.01677" height="9.01677"/>
</g>
<g fill="#993333">
<rect x="335.097" y="487.978" width="9.01677" height="9.01677"/>
</g>
<g fill="#993333">
<rect x="340.008" y="488.225" width="9.01677" height="9.01677"/>
</g>
<g fill="#993333">
<rect x="344.92" y="488.463" width="9.01677" height="9.01677"/>
</g>
<g fill="#993333">
<rect x="349.831" y="488.687" width="9.01677" height="9.01677"/>
</g>
<g fill="#993333">
<rect x="354.743" y="488.892" width="9.01677" height="9.01677"/>
</g>
<g fill="#993333">
<rect x="359.654" y="489.096" width="9.01677" height="9.01677"/>
</g>
<g fill="#993333">
<rect x="364.566" y="489.272" width="9.01677" height="9.01677"/>
</g>
<g fill="#993333">
<rect x="369.477" y="489.447" width="9.01677" height="9.01677"/>
</g>
<g fill="#993333">
<rect x="374.389" y="489.605" width="9.01677" height="9.01677"/>
</g>
<g fill="#993333">
<rect x="379.3" y="489.761" width="9.01677" height="9.01677"/>
</g>
<g fill="#993333">
<rect x="384.212" y="489.902" width="9.01677" height="9.01677"/>
</g>
<g fill="#993333">
<rect x="389.123" y="490.028" width="9.01677" height="9.01677"/>
</g>
<g fill="#993333">
<rect x="394.035" y="490.15" width="9.01677" height="9.01677"/>
</g>
<g fill="#993333">
<rect x="398.946" y="490.275" width="9.01677" height="9.01677"/>
</g>
<g fill="#993333">
<rect x="403.858" y="490.389" width="9.01677" height="9.01677"/>
</g>
<g fill="#993333">
<rect x="408.769" y="490.489" width="9.01677" height="9.01677"/>
</g>
<g fill="#993333">
<rect x="413.681" y="490.585" width="9.01677" height="9.01677"/>
</g>
<g fill="#993333">
<rect x="418.592" y="490.676" width="9.01677" height="9.01677"/>
</g>
<g fill="#993333">
<rect x="423.504" y="490.76" width="9.01677" height="9.01677"/>
</g>
<g fill="#993333">
<rect x="428.415" y="490.841" width="9.01677" height="9.01677"/>
</g>
<g fill="#993333">
<rect x="433.327" y="490.924" width="9.01677" height="9.01677"/>
</g>
<g fill="#993333">
<rect x="438.238" y="490.992" width="9.01677" height="9.01677"/>
</g>
<g fill="#993333">
<rect x="443.15" y="491.062" width="9.01677" height="9.01677"/>
</g>
<g fill="#993333">
<rect x="448.061" y="491.126" width="9.01677" height="9.01677"/>
</g>
<g fill="#993333">
<rect x="452.973" y="491.191" width="9.01677" height="9.01677"/>
</g>
<g fill="#993333">
<rect x="457.884" y="491.251" width="9.01677" height="9.01677"/>
</g>
<g fill="#993333">
<rect x="462.796" y="491.305" width="9.01677" height="9.01677"/>
</g>
<g fill="#993333">
<rect x="467.708" y="491.362" width="9.01677" height="9.01677"/>
</g>
<g fill="#993333">
<rect x="472.619" y="491.417" width="9.01677" height="9.01677"/>
</g>
<g fill="#993333">
<rect x="477.531" y="491.461" width="9.01677" height="9.01677"/>
</g>
<g fill="#993333">
<rect x="482.442" y="491.511" width="9.01677" height="9.01677"/>
</g>
<g fill="#993333">
<rect x="487.354" y="491.555" width="9.01677" height="9.01677"/>
</g>
<g fill="#993333">
<rect x="492.265" y="491.6" width="9.01677" height="9.01677"/>
</g>
<g fill="#993333">
<rect x="497.177" y="491.643" width="9.01677" height="9.01677"/>
</g>
<g fill="#993333">
<rect x="502.088" y="491.678" width="9.01677" height="9.01677"/>
</g>
<g fill="#993333">
<rect x="507" y="491.713" width="9.01677" height="9.01677"/>
</g>
<g fill="#993333">
<rect x="511.911" y="491.754" width="9.01677" height="9.01677"/>
</g>
<g fill="#993333">
<rect x="516.823" y="491.787" width="9.01677" height="9.01677"/>
</g>
<g fill="#993333">
<rect x="521.734" y="491.823" width="9.01677" height="9.01677"/>
</g>
<g fill="#993333">
<rect x="526.646" y="491.855" width="9.01677" height="9.01677"/>
</g>
<g fill="#993333">
<rect x="531.557" y="491.887" width="9.01677" height="9.01677"/>
</g>
<g fill="#993333">
<rect x="536.469" y="491.915" width="9.01677" height="9.01677"/>
</g>
<g fill="#993333">
<rect x="541.38" y="491.948" width="9.01677" height="9.01677"/>
</g>
<path d="M57.1929,498.064h 496.063" fill="none" stroke="black"/>
<path d="M57.1929,483.537v 14.5269" fill="none" stroke="black"/>
<path d="M72.5414,490.8v 7.26343" fill="none" stroke="black"/>
<path d="M87.8899,490.8v 7.26343" fill="none" stroke="black"/>
<path d="M103.238,490.8v 7.26343" fill="none" stroke="black"/>
<path d="M118.587,483.537v 14.5269" fill="none" stroke="black"/>
<path d="M133.935,490.8v 7.26343" fill="none" stroke="black"/>
<path d="M149.284,490.8v 7.26343" fill="none" stroke="black"/>
<path d="M164.632,490.8v 7.26343" fill="none" stroke="black"/>
<path d="M179.981,483.537v 14.5269" fill="none" stroke="black"/>
<path d="M195.329,490.8v 7.26343" fill="none" stroke="black"/>
<path d="M210.678,490.8v 7.26343" fill="none" stroke="black"/>
<path d="M226.026,490.8v 7.26343" fill="none" stroke="black"/>
<path d="M241.375,483.537v 14.5269" fill="none" stroke="black"/>
<path d="M256.723,490.8v 7.26343" fill="none" stroke="black"/>
<path d="M272.072,490.8v 7.26343" fill="none" stroke="black"/>
<path d="M287.42,490.8v 7.26343" fill="none" stroke="black"/>
<path d="M302.769,483.537v 14.5269" fill="none" stroke="black"/>
<path d="M318.117,490.8v 7.26343" fill="none" stroke="black"/>
<path d="M333.466,490.8v 7.26343" fill="none" stroke="black"/>
<path d="M348.814,490.8v 7.26343" fill="none" stroke="black"/>
<path d="M364.163,483.537v 14.5269" fill="none" stroke="black"/>
<path d="M379.511,490.8v 7.26343" fill="none" stroke="black"/>
<path d="M394.86,490.8v 7.26343" fill="none" stroke="black"/>
<path d="M410.208,490.8v 7.26343" fill="none" stroke="black"/>
<path d="M425.557,483.537v 14.5269" fill="none" stroke="black"/>
<path d="M440.905,490.8v 7.26343" fill="none" stroke="black"/>
<path d="M456.253,490.8v 7.26343" fill="none" stroke="black"/>
<path d="M471.602,490.8v 7.26343" fill="none" stroke="black"/>
<path d="M486.95,483.537v 14.5269" fill="none" stroke="black"/>
<path d="M502.299,490.8v 7.26343" fill="none" stroke="black"/>
<path d="M517.647,490.8v 7.26343" fill="none" stroke="black"/>
<path d="M532.996,490.8v 7.26343" fill="none" stroke="black"/>
<path d="M548.344,483.537v 14.5269" fill="none" stroke="black"/>
<path d="M548.344,483.537v 14.5269" fill="none" stroke="black"/>
<text xml:space="preserve" x="52.3464" y="513.956" fill="black" font-size="16.0105" font-family="Helvetica">0</text>
<text xml:space="preserve" x="107.574" y="513.956" fill="black" font-size="16.0105" font-family="Helvetica">0.2</text>
<text xml:space="preserve" x="169.001" y="513.956" fill="black" font-size="16.0105" font-family="Helvetica">0.4</text>
<text xml:space="preserve" x="230.428" y="513.956" fill="black" font-size="16.0105" font-family="Helvetica">0.6</text>
<text xml:space="preserve" x="291.854" y="513.956" fill="black" font-size="16.0105" font-family="Helvetica">0.8</text>
<text xml:space="preserve" x="361.171" y="513.956" fill="black" font-size="16.0105" font-family="Helvetica">1</text>
<text xml:space="preserve" x="414.708" y="513.956" fill="black" font-size="16.0105" font-family="Helvetica">1.2</text>
<text xml:space="preserve" x="476.134" y="513.956" fill="black" font-size="16.0105" font-family="Helvetica">1.4</text>
<text xml:space="preserve" x="537.561" y="513.956" fill="black" font-size="16.0105" font-family="Helvetica">1.6</text>
<text xml:space="preserve" x="548.268" y="537.625" fill="black" font-size="16.0105" font-family="Helvetica">)</text>
<text xml:space="preserve" x="542.633" y="532.553" fill="black" font-size="10.8403" font-family="Helvetica">2</text>
<text xml:space="preserve" x="533.616" y="537.625" fill="black" font-size="16.0105" font-family="Helvetica" font-style="oblique">c</text>
<text xml:space="preserve" x="487.405" y="537.625" fill="black" font-size="16.0105" font-family="Helvetica"> (GeV/</text>
<text xml:space="preserve" x="473.317" y="542.697" fill="black" font-size="10.8403" font-family="Helvetica">inv</text>
<text xml:space="preserve" x="459.792" y="537.625" fill="black" font-size="16.0105" font-family="Helvetica" font-style="oblique">m</text>
<path d="M57.1929,16.6021h 496.063" fill="none" stroke="black"/>
<path d="M57.1929,31.129v -14.5269" fill="none" stroke="black"/>
<path d="M72.5414,23.8655v -7.26343" fill="none" stroke="black"/>
<path d="M87.8899,23.8655v -7.26343" fill="none" stroke="black"/>
<path d="M103.238,23.8655v -7.26343" fill="none" stroke="black"/>
<path d="M118.587,31.129v -14.5269" fill="none" stroke="black"/>
<path d="M133.935,23.8655v -7.26343" fill="none" stroke="black"/>
<path d="M149.284,23.8655v -7.26343" fill="none" stroke="black"/>
<path d="M164.632,23.8655v -7.26343" fill="none" stroke="black"/>
<path d="M179.981,31.129v -14.5269" fill="none" stroke="black"/>
<path d="M195.329,23.8655v -7.26343" fill="none" stroke="black"/>
<path d="M210.678,23.8655v -7.26343" fill="none" stroke="black"/>
<path d="M226.026,23.8655v -7.26343" fill="none" stroke="black"/>
<path d="M241.375,31.129v -14.5269" fill="none" stroke="black"/>
<path d="M256.723,23.8655v -7.26343" fill="none" stroke="black"/>
<path d="M272.072,23.8655v -7.26343" fill="none" stroke="black"/>
<path d="M287.42,23.8655v -7.26343" fill="none" stroke="black"/>
<path d="M302.769,31.129v -14.5269" fill="none" stroke="black"/>
<path d="M318.117,23.8655v -7.26343" fill="none" stroke="black"/>
<path d="M333.466,23.8655v -7.26343" fill="none" stroke="black"/>
<path d="M348.814,23.8655v -7.26343" fill="none" stroke="black"/>
<path d="M364.163,31.129v -14.5269" fill="none" stroke="black"/>
<path d="M379.511,23.8655v -7.26343" fill="none" stroke="black"/>
<path d="M394.86,23.8655v -7.26343" fill="none" stroke="black"/>
<path d="M410.208,23.8655v -7.26343" fill="none" stroke="black"/>
<path d="M425.557,31.129v -14.5269" fill="none" stroke="black"/>
<path d="M440.905,23.8655v -7.26343" fill="none" stroke="black"/>
<path d="M456.253,23.8655v -7.26343" fill="none" stroke="black"/>
<path d="M471.602,23.8655v -7.26343" fill="none" stroke="black"/>
<path d="M486.95,31.129v -14.5269" fill="none" stroke="black"/>
<path d="M502.299,23.8655v -7.26343" fill="none" stroke="black"/>
<path d="M517.647,23.8655v -7.26343" fill="none" stroke="black"/>
<path d="M532.996,23.8655v -7.26343" fill="none" stroke="black"/>
<path d="M548.344,31.129v -14.5269" fill="none" stroke="black"/>
<path d="M548.344,31.129v -14.5269" fill="none" stroke="black"/>
<path d="M57.1929,498.064v -481.461" fill="none" stroke="black"/>
<path d="M71.9898,498.064h -14.7969" fill="none" stroke="black"/>
<path d="M64.5913,488.085h -7.39843" fill="none" stroke="black"/>
<path d="M64.5913,478.106h -7.39843" fill="none" stroke="black"/>
<path d="M64.5913,468.128h -7.39843" fill="none" stroke="black"/>
<path d="M64.5913,458.149h -7.39843" fill="none" stroke="black"/>
<path d="M71.9898,448.171h -14.7969" fill="none" stroke="black"/>
<path d="M64.5913,438.192h -7.39843" fill="none" stroke="black"/>
<path d="M64.5913,428.213h -7.39843" fill="none" stroke="black"/>
<path d="M64.5913,418.235h -7.39843" fill="none" stroke="black"/>
<path d="M64.5913,408.256h -7.39843" fill="none" stroke="black"/>
<path d="M71.9898,398.278h -14.7969" fill="none" stroke="black"/>
<path d="M64.5913,388.299h -7.39843" fill="none" stroke="black"/>
<path d="M64.5913,378.32h -7.39843" fill="none" stroke="black"/>
<path d="M64.5913,368.342h -7.39843" fill="none" stroke="black"/>
<path d="M64.5913,358.363h -7.39843" fill="none" stroke="black"/>
<path d="M71.9898,348.385h -14.7969" fill="none" stroke="black"/>
<path d="M64.5913,338.406h -7.39843" fill="none" stroke="black"/>
<path d="M64.5913,328.427h -7.39843" fill="none" stroke="black"/>
<path d="M64.5913,318.449h -7.39843" fill="none" stroke="black"/>
<path d="M64.5913,308.47h -7.39843" fill="none" stroke="black"/>
<path d="M71.9898,298.492h -14.7969" fill="none" stroke="black"/>
<path d="M64.5913,288.513h -7.39843" fill="none" stroke="black"/>
<path d="M64.5913,278.534h -7.39843" fill="none" stroke="black"/>
<path d="M64.5913,268.556h -7.39843" fill="none" stroke="black"/>
<path d="M64.5913,258.577h -7.39843" fill="none" stroke="black"/>
<path d="M71.9898,248.599h -14.7969" fill="none" stroke="black"/>
<path d="M64.5913,238.62h -7.39843" fill="none" stroke="black"/>
<path d="M64.5913,228.641h -7.39843" fill="none" stroke="black"/>
<path d="M64.5913,218.663h -7.39843" fill="none" stroke="black"/>
<path d="M64.5913,208.684h -7.39843" fill="none" stroke="black"/>
<path d="M71.9898,198.706h -14.7969" fill="none" stroke="black"/>
<path d="M64.5913,188.727h -7.39843" fill="none" stroke="black"/>
<path d="M64.5913,178.749h -7.39843" fill="none" stroke="black"/>
<path d="M64.5913,168.77h -7.39843" fill="none" stroke="black"/>
<path d="M64.5913,158.791h -7.39843" fill="none" stroke="black"/>
<path d="M71.9898,148.813h -14.7969" fill="none" stroke="black"/>
<path d="M64.5913,138.834h -7.39843" fill="none" stroke="black"/>
<path d="M64.5913,128.856h -7.39843" fill="none" stroke="black"/>
<path d="M64.5913,118.877h -7.39843" fill="none" stroke="black"/>
<path d="M64.5913,108.898h -7.39843" fill="none" stroke="black"/>
<path d="M71.9898,98.9197h -14.7969" fill="none" stroke="black"/>
<path d="M64.5913,88.9411h -7.39843" fill="none" stroke="black"/>
<path d="M64.5913,78.9625h -7.39843" fill="none" stroke="black"/>
<path d="M64.5913,68.9839h -7.39843" fill="none" stroke="black"/>
<path d="M64.5913,59.0053h -7.39843" fill="none" stroke="black"/>
<path d="M71.9898,49.0268h -14.7969" fill="none" stroke="black"/>
<path d="M71.9898,49.0268h -14.7969" fill="none" stroke="black"/>
<path d="M64.5913,39.0482h -7.39843" fill="none" stroke="black"/>
<path d="M64.5913,29.0696h -7.39843" fill="none" stroke="black"/>
<path d="M64.5913,19.091h -7.39843" fill="none" stroke="black"/>
<text xml:space="preserve" x="45.5838" y="503.248" fill="black" font-size="16.0105" font-family="Helvetica">0</text>
<text xml:space="preserve" x="37.1306" y="453.656" fill="black" font-size="16.0105" font-family="Helvetica">10</text>
<text xml:space="preserve" x="37.1306" y="403.5" fill="black" font-size="16.0105" font-family="Helvetica">20</text>
<text xml:space="preserve" x="37.1306" y="353.908" fill="black" font-size="16.0105" font-family="Helvetica">30</text>
<text xml:space="preserve" x="37.1306" y="303.752" fill="black" font-size="16.0105" font-family="Helvetica">40</text>
<text xml:space="preserve" x="37.1306" y="254.16" fill="black" font-size="16.0105" font-family="Helvetica">50</text>
<text xml:space="preserve" x="37.1306" y="204.004" fill="black" font-size="16.0105" font-family="Helvetica">60</text>
<text xml:space="preserve" x="37.1306" y="154.412" fill="black" font-size="16.0105" font-family="Helvetica">70</text>
<text xml:space="preserve" x="37.1306" y="104.256" fill="black" font-size="16.0105" font-family="Helvetica">80</text>
<text xml:space="preserve" x="37.1306" y="54.1006" fill="black" font-size="16.0105" font-family="Helvetica">90</text>
<text xml:space="preserve" x="82.2144" y="7.32612" fill="black" font-size="10.8403" font-family="Helvetica">3</text>
<text xml:space="preserve" x="65.308" y="14.6522" fill="black" font-size="16.0105" font-family="Helvetica">10</text>
<text xml:space="preserve" x="56.8548" y="14.6522" fill="black" font-size="16.0105" font-family="Times">&#0215;</text>
<g transform="rotate(-90,22.4784,21.9784)">
<text xml:space="preserve" x="22.4784" y="21.9784" fill="black" font-size="10.8403" font-family="Times">&#0947;</text>
</g>
<g transform="rotate(-90,18.5335,25.9232)">
<text xml:space="preserve" x="18.5335" y="25.9232" fill="black" font-size="7.39355" font-family="Helvetica">0</text>
</g>
<g transform="rotate(-90,22.4784,32.1222)">
<text xml:space="preserve" x="22.4784" y="32.1222" fill="black" font-size="10.8403" font-family="Times">&#0960;</text>
</g>
<g transform="rotate(-90,17.4064,45.0838)">
<text xml:space="preserve" x="17.4064" y="45.0838" fill="black" font-size="16.0105" font-family="Helvetica" font-style="oblique">N</text>
</g>
<path d="M553.256,498.064v -481.461" fill="none" stroke="black"/>
<path d="M538.459,498.064h 14.7969" fill="none" stroke="black"/>
<path d="M545.857,488.085h 7.39843" fill="none" stroke="black"/>
<path d="M545.857,478.106h 7.39843" fill="none" stroke="black"/>
<path d="M545.857,468.128h 7.39843" fill="none" stroke="black"/>
<path d="M545.857,458.149h 7.39843" fill="none" stroke="black"/>
<path d="M538.459,448.171h 14.7969" fill="none" stroke="black"/>
<path d="M545.857,438.192h 7.39843" fill="none" stroke="black"/>
<path d="M545.857,428.213h 7.39843" fill="none" stroke="black"/>
<path d="M545.857,418.235h 7.39843" fill="none" stroke="black"/>
<path d="M545.857,408.256h 7.39843" fill="none" stroke="black"/>
<path d="M538.459,398.278h 14.7969" fill="none" stroke="black"/>
<path d="M545.857,388.299h 7.39843" fill="none" stroke="black"/>
<path d="M545.857,378.32h 7.39843" fill="none" stroke="black"/>
<path d="M545.857,368.342h 7.39843" fill="none" stroke="black"/>
<path d="M545.857,358.363h 7.39843" fill="none" stroke="black"/>
<path d="M538.459,348.385h 14.7969" fill="none" stroke="black"/>
<path d="M545.857,338.406h 7.39843" fill="none" stroke="black"/>
<path d="M545.857,328.427h 7.39843" fill="none" stroke="black"/>
<path d="M545.857,318.449h 7.39843" fill="none" stroke="black"/>
<path d="M545.857,308.47h 7.39843" fill="none" stroke="black"/>
<path d="M538.459,298.492h 14.7969" fill="none" stroke="black"/>
<path d="M545.857,288.513h 7.39843" fill="none" stroke="black"/>
<path d="M545.857,278.534h 7.39843" fill="none" stroke="black"/>
<path d="M545.857,268.556h 7.39843" fill="none" stroke="black"/>
<path d="M545.857,258.577h 7.39843" fill="none" stroke="black"/>
<path d="M538.459,248.599h 14.7969" fill="none" stroke="black"/>
<path d="M545.857,238.62h 7.39843" fill="none" stroke="black"/>
<path d="M545.857,228.641h 7.39843" fill="none" stroke="black"/>
<path d="M545.857,218.663h 7.39843" fill="none" stroke="black"/>
<path d="M545.857,208.684h 7.39843" fill="none" stroke="black"/>
<path d="M538.459,198.706h 14.7969" fill="none" stroke="black"/>
<path d="M545.857,188.727h 7.39843" fill="none" stroke="black"/>
<path d="M545.857,178.749h 7.39843" fill="none" stroke="black"/>
<path d="M545.857,168.77h 7.39843" fill="none" stroke="black"/>
<path d="M545.857,158.791h 7.39843" fill="none" stroke="black"/>
<path d="M538.459,148.813h 14.7969" fill="none" stroke="black"/>
<path d="M545.857,138.834h 7.39843" fill="none" stroke="black"/>
<path d="M545.857,128.856h 7.39843" fill="none" stroke="black"/>
<path d="M545.857,118.877h 7.39843" fill="none" stroke="black"/>
<path d="M545.857,108.898h 7.39843" fill="none" stroke="black"/>
<path d="M538.459,98.9197h 14.7969" fill="none" stroke="black"/>
<path d="M545.857,88.9411h 7.39843" fill="none" stroke="black"/>
<path d="M545.857,78.9625h 7.39843" fill="none" stroke="black"/>
<path d="M545.857,68.9839h 7.39843" fill="none" stroke="black"/>
<path d="M545.857,59.0053h 7.39843" fill="none" stroke="black"/>
<path d="M538.459,49.0268h 14.7969" fill="none" stroke="black"/>
<path d="M538.459,49.0268h 14.7969" fill="none" stroke="black"/>
<path d="M545.857,39.0482h 7.39843" fill="none" stroke="black"/>
<path d="M545.857,29.0696h 7.39843" fill="none" stroke="black"/>
<path d="M545.857,19.091h 7.39843" fill="none" stroke="black"/>
<g fill="black">
<circle cx="98.9408" cy="498.064" r="4.50838"/>
</g>
<g fill="black">
<circle cx="103.852" cy="497.721" r="4.50838"/>
</g>
<g fill="black">
<circle cx="108.764" cy="497.045" r="4.50838"/>
</g>
<g fill="black">
<circle cx="113.675" cy="496.582" r="4.50838"/>
</g>
<g fill="black">
<circle cx="118.587" cy="496.225" r="4.50838"/>
</g>
<g fill="black">
<circle cx="123.498" cy="496.105" r="4.50838"/>
</g>
<g fill="black">
<circle cx="128.41" cy="496.117" r="4.50838"/>
</g>
<g fill="black">
<circle cx="133.321" cy="496.163" r="4.50838"/>
</g>
<g fill="black">
<circle cx="138.233" cy="496.248" r="4.50838"/>
</g>
<g fill="black">
<circle cx="143.144" cy="496.338" r="4.50838"/>
</g>
<g fill="black">
<circle cx="148.056" cy="496.429" r="4.50838"/>
</g>
<g fill="black">
<circle cx="152.967" cy="496.512" r="4.50838"/>
</g>
<g fill="black">
<circle cx="157.879" cy="496.594" r="4.50838"/>
</g>
<g fill="black">
<circle cx="162.79" cy="496.675" r="4.50838"/>
</g>
<g fill="black">
<circle cx="167.702" cy="496.749" r="4.50838"/>
</g>
<g fill="black">
<circle cx="172.614" cy="496.824" r="4.50838"/>
</g>
<g fill="black">
<circle cx="177.525" cy="496.894" r="4.50838"/>
</g>
<g fill="black">
<circle cx="182.437" cy="496.958" r="4.50838"/>
</g>
<g fill="black">
<circle cx="187.348" cy="497.02" r="4.50838"/>
</g>
<g fill="black">
<circle cx="192.26" cy="497.081" r="4.50838"/>
</g>
<g fill="black">
<circle cx="197.171" cy="497.135" r="4.50838"/>
</g>
<g fill="black">
<circle cx="202.083" cy="497.183" r="4.50838"/>
</g>
<g fill="black">
<circle cx="206.994" cy="497.23" r="4.50838"/>
</g>
<g fill="black">
<circle cx="211.906" cy="497.276" r="4.50838"/>
</g>
<g fill="black">
<circle cx="216.817" cy="497.317" r="4.50838"/>
</g>
<g fill="black">
<circle cx="221.729" cy="497.355" r="4.50838"/>
</g>
<g fill="black">
<circle cx="226.64" cy="497.388" r="4.50838"/>
</g>
<g fill="black">
<circle cx="231.552" cy="497.426" r="4.50838"/>
</g>
<g fill="black">
<circle cx="236.463" cy="497.458" r="4.50838"/>
</g>
<g fill="black">
<circle cx="241.375" cy="497.489" r="4.50838"/>
</g>
<g fill="black">
<circle cx="246.286" cy="497.515" r="4.50838"/>
</g>
<g fill="black">
<circle cx="251.198" cy="497.544" r="4.50838"/>
</g>
<g fill="black">
<circle cx="256.109" cy="497.569" r="4.50838"/>
</g>
<g fill="black">
<circle cx="261.021" cy="497.591" r="4.50838"/>
</g>
<g fill="black">
<circle cx="265.932" cy="497.615" r="4.50838"/>
</g>
<g fill="black">
<circle cx="270.844" cy="497.636" r="4.50838"/>
</g>
<g fill="black">
<circle cx="275.755" cy="497.654" r="4.50838"/>
</g>
<g fill="black">
<circle cx="280.667" cy="497.674" r="4.50838"/>
</g>
<g fill="black">
<circle cx="285.578" cy="497.692" r="4.50838"/>
</g>
<g fill="black">
<circle cx="290.49" cy="497.71" r="4.50838"/>
</g>
<g fill="black">
<circle cx="295.401" cy="497.726" r="4.50838"/>
</g>
<g fill="black">
<circle cx="300.313" cy="497.74" r="4.50838"/>
</g>
<g fill="black">
<circle cx="305.224" cy="497.755" r="4.50838"/>
</g>
<g fill="black">
<circle cx="310.136" cy="497.769" r="4.50838"/>
</g>
<g fill="black">
<circle cx="315.047" cy="497.781" r="4.50838"/>
</g>
<g fill="black">
<circle cx="319.959" cy="497.793" r="4.50838"/>
</g>
<g fill="black">
<circle cx="324.87" cy="497.805" r="4.50838"/>
</g>
<g fill="black">
<circle cx="329.782" cy="497.815" r="4.50838"/>
</g>
<g fill="black">
<circle cx="334.694" cy="497.826" r="4.50838"/>
</g>
<g fill="black">
<circle cx="339.605" cy="497.835" r="4.50838"/>
</g>
<g fill="black">
<circle cx="344.517" cy="497.844" r="4.50838"/>
</g>
<g fill="black">
<circle cx="349.428" cy="497.851" r="4.50838"/>
</g>
<g fill="black">
<circle cx="354.34" cy="497.86" r="4.50838"/>
</g>
<g fill="black">
<circle cx="359.251" cy="497.87" r="4.50838"/>
</g>
<g fill="black">
<circle cx="364.163" cy="497.877" r="4.50838"/>
</g>
<g fill="black">
<circle cx="369.074" cy="497.882" r="4.50838"/>
</g>
<g fill="black">
<circle cx="373.986" cy="497.889" r="4.50838"/>
</g>
<g fill="black">
<circle cx="378.897" cy="497.896" r="4.50838"/>
</g>
<g fill="black">
<circle cx="383.809" cy="497.899" r="4.50838"/>
</g>
<g fill="black">
<circle cx="388.72" cy="497.906" r="4.50838"/>
</g>
<g fill="black">
<circle cx="393.632" cy="497.911" r="4.50838"/>
</g>
<g fill="black">
<circle cx="398.543" cy="497.916" r="4.50838"/>
</g>
<g fill="black">
<circle cx="403.455" cy="497.919" r="4.50838"/>
</g>
<g fill="black">
<circle cx="408.366" cy="497.924" r="4.50838"/>
</g>
<g fill="black">
<circle cx="413.278" cy="497.928" r="4.50838"/>
</g>
<g fill="black">
<circle cx="418.189" cy="497.931" r="4.50838"/>
</g>
<g fill="black">
<circle cx="423.101" cy="497.934" r="4.50838"/>
</g>
<g fill="black">
<circle cx="428.012" cy="497.938" r="4.50838"/>
</g>
<g fill="black">
<circle cx="432.924" cy="497.941" r="4.50838"/>
</g>
<g fill="black">
<circle cx="437.835" cy="497.943" r="4.50838"/>
</g>
<g fill="black">
<circle cx="442.747" cy="497.947" r="4.50838"/>
</g>
<g fill="black">
<circle cx="447.658" cy="497.949" r="4.50838"/>
</g>
<g fill="black">
<circle cx="452.57" cy="497.951" r="4.50838"/>
</g>
<g fill="black">
<circle cx="457.481" cy="497.954" r="4.50838"/>
</g>
<g fill="black">
<circle cx="462.393" cy="497.956" r="4.50838"/>
</g>
<g fill="black">
<circle cx="467.304" cy="497.958" r="4.50838"/>
</g>
<g fill="black">
<circle cx="472.216" cy="497.962" r="4.50838"/>
</g>
<g fill="black">
<circle cx="477.127" cy="497.963" r="4.50838"/>
</g>
<g fill="black">
<circle cx="482.039" cy="497.964" r="4.50838"/>
</g>
<g fill="black">
<circle cx="486.95" cy="497.968" r="4.50838"/>
</g>
<g fill="black">
<circle cx="491.862" cy="497.966" r="4.50838"/>
</g>
<g fill="black">
<circle cx="496.773" cy="497.969" r="4.50838"/>
</g>
<g fill="black">
<circle cx="501.685" cy="497.972" r="4.50838"/>
</g>
<g fill="black">
<circle cx="506.597" cy="497.972" r="4.50838"/>
</g>
<g fill="black">
<circle cx="511.508" cy="497.974" r="4.50838"/>
</g>
<g fill="black">
<circle cx="516.42" cy="497.975" r="4.50838"/>
</g>
<g fill="black">
<circle cx="521.331" cy="497.977" r="4.50838"/>
</g>
<g fill="black">
<circle cx="526.243" cy="497.978" r="4.50838"/>
</g>
<g fill="black">
<circle cx="531.154" cy="497.98" r="4.50838"/>
</g>
<g fill="black">
<circle cx="536.066" cy="497.981" r="4.50838"/>
</g>
<g fill="black">
<circle cx="540.977" cy="497.981" r="4.50838"/>
</g>
<g fill="black">
<circle cx="545.889" cy="497.982" r="4.50838"/>
</g>
<text xml:space="preserve" x="360.607" y="50.7193" fill="black" font-size="16.0105" font-family="Helvetica"> with EMC</text>
<text xml:space="preserve" x="352.717" y="50.7193" fill="black" font-size="16.0105" font-family="Times">&#0947;</text>
<text xml:space="preserve" x="344.828" y="50.7193" fill="black" font-size="16.0105" font-family="Times">&#0947;</text>
<text xml:space="preserve" x="336.938" y="50.7193" fill="black" font-size="16.0105" font-family="Times">&#0947;</text>
<text xml:space="preserve" x="331.866" y="50.7193" fill="black" font-size="16.0105" font-family="Helvetica"> </text>
<text xml:space="preserve" x="316.65" y="50.7193" fill="black" font-size="16.0105" font-family="Times">&#8594;</text>
<text xml:space="preserve" x="311.578" y="50.7193" fill="black" font-size="16.0105" font-family="Helvetica"> </text>
<text xml:space="preserve" x="303.689" y="50.7193" fill="black" font-size="16.0105" font-family="Times">&#0947;</text>
<text xml:space="preserve" x="298.053" y="45.0838" fill="black" font-size="10.8403" font-family="Helvetica">0</text>
<text xml:space="preserve" x="289.6" y="50.7193" fill="black" font-size="16.0105" font-family="Times">&#0960;</text>
<text xml:space="preserve" x="284.528" y="50.7193" fill="black" font-size="16.0105" font-family="Helvetica"> </text>
<text xml:space="preserve" x="269.312" y="50.7193" fill="black" font-size="16.0105" font-family="Times">&#8594;</text>
<text xml:space="preserve" x="264.24" y="50.7193" fill="black" font-size="16.0105" font-family="Helvetica"> </text>
<text xml:space="preserve" x="252.969" y="50.7193" fill="black" font-size="16.0105" font-family="Times">&#0969;</text>
<text xml:space="preserve" x="128.989" y="50.7193" fill="black" font-size="16.0105" font-family="Helvetica"> = 13 TeV (EG1), </text>
<text xml:space="preserve" x="120.536" y="50.7193" fill="black" font-size="16.0105" font-family="Helvetica" font-style="oblique">s</text>
<path d="M114.9,41.7025l 1.69064, 9.58031" fill="none" stroke="black" stroke-width="2"/>
<path d="M116.591,51.2829l 2.25419, -14.0887" fill="none" stroke="black"/>
<path d="M118.845,37.1942h 10.1439" fill="none" stroke="black"/>
<text xml:space="preserve" x="89.5406" y="50.7193" fill="black" font-size="16.0105" font-family="Helvetica">pp </text>
<text xml:space="preserve" x="89.5406" y="85.6593" fill="black" font-size="16.0105" font-family="Helvetica">ALICE work in progress</text>
<text xml:space="preserve" x="205.068" y="120.599" fill="black" font-size="16.0105" font-family="Helvetica">) &lt; 6.0</text>
<text xml:space="preserve" x="196.051" y="120.599" fill="black" font-size="16.0105" font-family="Helvetica" font-style="oblique">c</text>
<text xml:space="preserve" x="145.895" y="120.599" fill="black" font-size="16.0105" font-family="Helvetica"> /(GeV/</text>
<text xml:space="preserve" x="139.133" y="128.489" fill="black" font-size="10.8403" font-family="Helvetica">T</text>
<text xml:space="preserve" x="129.552" y="120.599" fill="black" font-size="16.0105" font-family="Helvetica" font-style="oblique">p</text>
<text xml:space="preserve" x="124.481" y="120.599" fill="black" font-size="16.0105" font-family="Helvetica"> </text>
<text xml:space="preserve" x="116.027" y="120.599" fill="black" font-size="16.0105" font-family="Times">&#8804;</text>
<text xml:space="preserve" x="89.5406" y="120.599" fill="black" font-size="16.0105" font-family="Helvetica">4.0 </text>
<text xml:space="preserve" x="134.624" y="158.357" fill="black" font-size="16.0105" font-family="Helvetica">background</text>
<path d="M92.9803,152.186h 34.7244" fill="none" stroke="#993333" stroke-width="2"/>
<g fill="#993333">
<rect x="105.834" y="147.678" width="9.01677" height="9.01677"/>
</g>
<text xml:space="preserve" x="134.624" y="185.971" fill="black" font-size="16.0105" font-family="Helvetica">same event</text>
<path d="M92.9803,179.856h 34.7244" fill="none" stroke="black" stroke-width="2"/>
<g fill="black">
<circle cx="110.343" cy="179.856" r="4.50838"/>
</g></svg>
