<?xml version="1.0" standalone="no"?>
<svg width="567.429" height="553.904" viewBox="0 0 567.429 553.904" xmlns="http://www.w3.org/2000/svg" shape-rendering="crispEdges">
<title>
MC/EG1/OmegaTGPSWOPS/SameEventToBackgroundRatio_04.svg
</title>
<desc>
Creator: ROOT Version 6.20/08
CreationDate: Mon Mar 29 21:28:53 2021</desc>
<defs>
</defs>
<rect x="0.5" y="0" width="566.929" height="553.404" fill="white"/>
<rect x="68.5315" y="16.6021" width="484.724" height="481.461" fill="white"/>
<rect x="68.5315" y="16.6021" width="484.724" height="481.461" fill="none" stroke="black"/>
<rect x="68.5315" y="16.6021" width="484.724" height="481.461" fill="white"/>
<rect x="68.5315" y="16.6021" width="484.724" height="481.461" fill="none" stroke="black"/>
<g fill="black">
<circle cx="109.325" cy="495.719" r="6.76257"/>
</g>
<g fill="black">
<circle cx="114.124" cy="411.014" r="6.76257"/>
</g>
<g fill="black">
<circle cx="118.924" cy="375.747" r="6.76257"/>
</g>
<g fill="black">
<circle cx="123.723" cy="468.815" r="6.76257"/>
</g>
<g fill="black">
<circle cx="128.522" cy="450.516" r="6.76257"/>
</g>
<g fill="black">
<circle cx="133.321" cy="385.745" r="6.76257"/>
</g>
<g fill="black">
<circle cx="138.121" cy="382.836" r="6.76257"/>
</g>
<g fill="black">
<circle cx="142.92" cy="378.232" r="6.76257"/>
</g>
<g fill="black">
<circle cx="147.719" cy="374.525" r="6.76257"/>
</g>
<g fill="black">
<circle cx="152.518" cy="370.146" r="6.76257"/>
</g>
<g fill="black">
<circle cx="157.318" cy="367.371" r="6.76257"/>
</g>
<g fill="black">
<circle cx="162.117" cy="363.177" r="6.76257"/>
</g>
<g fill="black">
<circle cx="166.916" cy="359.716" r="6.76257"/>
</g>
<g fill="black">
<circle cx="171.715" cy="357.967" r="6.76257"/>
</g>
<g fill="black">
<circle cx="176.515" cy="354.102" r="6.76257"/>
</g>
<g fill="black">
<circle cx="181.314" cy="351.69" r="6.76257"/>
</g>
<g fill="black">
<circle cx="186.113" cy="348.824" r="6.76257"/>
</g>
<g fill="black">
<circle cx="190.912" cy="346.752" r="6.76257"/>
</g>
<g fill="black">
<circle cx="195.712" cy="342.631" r="6.76257"/>
</g>
<g fill="black">
<circle cx="200.511" cy="339.908" r="6.76257"/>
</g>
<g fill="black">
<circle cx="205.31" cy="338.065" r="6.76257"/>
</g>
<g fill="black">
<circle cx="210.109" cy="334.717" r="6.76257"/>
</g>
<g fill="black">
<circle cx="214.909" cy="332.367" r="6.76257"/>
</g>
<g fill="black">
<circle cx="219.708" cy="328.506" r="6.76257"/>
</g>
<g fill="black">
<circle cx="224.507" cy="326.678" r="6.76257"/>
</g>
<g fill="black">
<circle cx="229.306" cy="324.327" r="6.76257"/>
</g>
<g fill="black">
<circle cx="234.106" cy="320.86" r="6.76257"/>
</g>
<g fill="black">
<circle cx="238.905" cy="317.393" r="6.76257"/>
</g>
<g fill="black">
<circle cx="243.704" cy="313.512" r="6.76257"/>
</g>
<g fill="black">
<circle cx="248.503" cy="310.32" r="6.76257"/>
</g>
<g fill="black">
<circle cx="253.303" cy="307.901" r="6.76257"/>
</g>
<g fill="black">
<circle cx="258.102" cy="304.682" r="6.76257"/>
</g>
<g fill="black">
<circle cx="262.901" cy="302.606" r="6.76257"/>
</g>
<g fill="black">
<circle cx="267.7" cy="298.695" r="6.76257"/>
</g>
<g fill="black">
<circle cx="272.5" cy="296.105" r="6.76257"/>
</g>
<g fill="black">
<circle cx="277.299" cy="293.779" r="6.76257"/>
</g>
<g fill="black">
<circle cx="339.689" cy="263.587" r="6.76257"/>
</g>
<g fill="black">
<circle cx="344.488" cy="261.844" r="6.76257"/>
</g>
<g fill="black">
<circle cx="349.288" cy="259.481" r="6.76257"/>
</g>
<g fill="black">
<circle cx="354.087" cy="258.811" r="6.76257"/>
</g>
<g fill="black">
<circle cx="358.886" cy="255.226" r="6.76257"/>
</g>
<g fill="black">
<circle cx="363.685" cy="256.795" r="6.76257"/>
</g>
<g fill="black">
<circle cx="368.485" cy="253.417" r="6.76257"/>
</g>
<g fill="black">
<circle cx="373.284" cy="251.494" r="6.76257"/>
</g>
<g fill="black">
<circle cx="378.083" cy="249.781" r="6.76257"/>
</g>
<g fill="black">
<circle cx="382.882" cy="249.146" r="6.76257"/>
</g>
<g fill="black">
<circle cx="387.682" cy="243.534" r="6.76257"/>
</g>
<g fill="black">
<circle cx="392.481" cy="244.074" r="6.76257"/>
</g>
<g fill="black">
<circle cx="397.28" cy="245.131" r="6.76257"/>
</g>
<g fill="black">
<circle cx="402.079" cy="244.123" r="6.76257"/>
</g>
<g fill="black">
<circle cx="406.879" cy="240.604" r="6.76257"/>
</g>
<g fill="black">
<circle cx="411.678" cy="238.109" r="6.76257"/>
</g>
<g fill="black">
<circle cx="416.477" cy="238.044" r="6.76257"/>
</g>
<g fill="black">
<circle cx="421.276" cy="235.377" r="6.76257"/>
</g>
<g fill="black">
<circle cx="426.076" cy="233.41" r="6.76257"/>
</g>
<g fill="black">
<circle cx="430.875" cy="236.42" r="6.76257"/>
</g>
<g fill="black">
<circle cx="435.674" cy="232.518" r="6.76257"/>
</g>
<g fill="black">
<circle cx="440.473" cy="228.018" r="6.76257"/>
</g>
<g fill="black">
<circle cx="445.273" cy="224.978" r="6.76257"/>
</g>
<g fill="black">
<circle cx="450.072" cy="228.04" r="6.76257"/>
</g>
<g fill="black">
<circle cx="454.871" cy="231.696" r="6.76257"/>
</g>
<g fill="black">
<circle cx="459.671" cy="224.912" r="6.76257"/>
</g>
<g fill="black">
<circle cx="464.47" cy="221.884" r="6.76257"/>
</g>
<g fill="black">
<circle cx="469.269" cy="223.844" r="6.76257"/>
</g>
<g fill="black">
<circle cx="474.068" cy="223.852" r="6.76257"/>
</g>
<g fill="black">
<circle cx="478.867" cy="219.663" r="6.76257"/>
</g>
<g fill="black">
<circle cx="483.667" cy="220.777" r="6.76257"/>
</g>
<g fill="black">
<circle cx="488.466" cy="217.878" r="6.76257"/>
</g>
<g fill="black">
<circle cx="493.265" cy="213.36" r="6.76257"/>
</g>
<g fill="black">
<circle cx="498.065" cy="213.64" r="6.76257"/>
</g>
<g fill="black">
<circle cx="502.864" cy="211.051" r="6.76257"/>
</g>
<g fill="black">
<circle cx="507.663" cy="211.305" r="6.76257"/>
</g>
<g fill="black">
<circle cx="512.462" cy="207.89" r="6.76257"/>
</g>
<g fill="black">
<circle cx="517.262" cy="206.843" r="6.76257"/>
</g>
<g fill="black">
<circle cx="522.061" cy="205.698" r="6.76257"/>
</g>
<g fill="black">
<circle cx="526.86" cy="204.561" r="6.76257"/>
</g>
<g fill="black">
<circle cx="531.659" cy="203.463" r="6.76257"/>
</g>
<g fill="black">
<circle cx="536.458" cy="207.313" r="6.76257"/>
</g>
<g fill="black">
<circle cx="541.258" cy="201.619" r="6.76257"/>
</g>
<g fill="black">
<circle cx="546.057" cy="197.15" r="6.76257"/>
</g>
<path d="M68.5315,498.064h 484.724" fill="none" stroke="black"/>
<path d="M68.5315,483.869v 14.1948" fill="none" stroke="black"/>
<path d="M83.5292,490.966v 7.09741" fill="none" stroke="black"/>
<path d="M98.5268,490.966v 7.09741" fill="none" stroke="black"/>
<path d="M113.524,490.966v 7.09741" fill="none" stroke="black"/>
<path d="M128.522,483.869v 14.1948" fill="none" stroke="black"/>
<path d="M143.52,490.966v 7.09741" fill="none" stroke="black"/>
<path d="M158.517,490.966v 7.09741" fill="none" stroke="black"/>
<path d="M173.515,490.966v 7.09741" fill="none" stroke="black"/>
<path d="M188.513,483.869v 14.1948" fill="none" stroke="black"/>
<path d="M203.51,490.966v 7.09741" fill="none" stroke="black"/>
<path d="M218.508,490.966v 7.09741" fill="none" stroke="black"/>
<path d="M233.506,490.966v 7.09741" fill="none" stroke="black"/>
<path d="M248.503,483.869v 14.1948" fill="none" stroke="black"/>
<path d="M263.501,490.966v 7.09741" fill="none" stroke="black"/>
<path d="M278.499,490.966v 7.09741" fill="none" stroke="black"/>
<path d="M293.496,490.966v 7.09741" fill="none" stroke="black"/>
<path d="M308.494,483.869v 14.1948" fill="none" stroke="black"/>
<path d="M323.492,490.966v 7.09741" fill="none" stroke="black"/>
<path d="M338.489,490.966v 7.09741" fill="none" stroke="black"/>
<path d="M353.487,490.966v 7.09741" fill="none" stroke="black"/>
<path d="M368.485,483.869v 14.1948" fill="none" stroke="black"/>
<path d="M383.482,490.966v 7.09741" fill="none" stroke="black"/>
<path d="M398.48,490.966v 7.09741" fill="none" stroke="black"/>
<path d="M413.478,490.966v 7.09741" fill="none" stroke="black"/>
<path d="M428.475,483.869v 14.1948" fill="none" stroke="black"/>
<path d="M443.473,490.966v 7.09741" fill="none" stroke="black"/>
<path d="M458.471,490.966v 7.09741" fill="none" stroke="black"/>
<path d="M473.468,490.966v 7.09741" fill="none" stroke="black"/>
<path d="M488.466,483.869v 14.1948" fill="none" stroke="black"/>
<path d="M503.464,490.966v 7.09741" fill="none" stroke="black"/>
<path d="M518.461,490.966v 7.09741" fill="none" stroke="black"/>
<path d="M533.459,490.966v 7.09741" fill="none" stroke="black"/>
<path d="M548.457,483.869v 14.1948" fill="none" stroke="black"/>
<path d="M548.457,483.869v 14.1948" fill="none" stroke="black"/>
<text xml:space="preserve" x="63.6174" y="513.956" fill="black" font-size="16.0105" font-family="Helvetica">0</text>
<text xml:space="preserve" x="117.718" y="513.956" fill="black" font-size="16.0105" font-family="Helvetica">0.2</text>
<text xml:space="preserve" x="177.454" y="513.956" fill="black" font-size="16.0105" font-family="Helvetica">0.4</text>
<text xml:space="preserve" x="237.754" y="513.956" fill="black" font-size="16.0105" font-family="Helvetica">0.6</text>
<text xml:space="preserve" x="297.49" y="513.956" fill="black" font-size="16.0105" font-family="Helvetica">0.8</text>
<text xml:space="preserve" x="365.115" y="513.956" fill="black" font-size="16.0105" font-family="Helvetica">1</text>
<text xml:space="preserve" x="417.525" y="513.956" fill="black" font-size="16.0105" font-family="Helvetica">1.2</text>
<text xml:space="preserve" x="477.261" y="513.956" fill="black" font-size="16.0105" font-family="Helvetica">1.4</text>
<text xml:space="preserve" x="537.561" y="513.956" fill="black" font-size="16.0105" font-family="Helvetica">1.6</text>
<text xml:space="preserve" x="548.268" y="537.625" fill="black" font-size="16.0105" font-family="Helvetica">)</text>
<text xml:space="preserve" x="542.633" y="532.553" fill="black" font-size="10.8403" font-family="Helvetica">2</text>
<text xml:space="preserve" x="533.616" y="537.625" fill="black" font-size="16.0105" font-family="Helvetica" font-style="oblique">c</text>
<text xml:space="preserve" x="487.405" y="537.625" fill="black" font-size="16.0105" font-family="Helvetica"> (GeV/</text>
<text xml:space="preserve" x="473.317" y="542.697" fill="black" font-size="10.8403" font-family="Helvetica">inv</text>
<text xml:space="preserve" x="459.792" y="537.625" fill="black" font-size="16.0105" font-family="Helvetica" font-style="oblique">m</text>
<path d="M68.5315,16.6021h 484.724" fill="none" stroke="black"/>
<path d="M68.5315,30.7969v -14.1948" fill="none" stroke="black"/>
<path d="M83.5292,23.6995v -7.09741" fill="none" stroke="black"/>
<path d="M98.5268,23.6995v -7.09741" fill="none" stroke="black"/>
<path d="M113.524,23.6995v -7.09741" fill="none" stroke="black"/>
<path d="M128.522,30.7969v -14.1948" fill="none" stroke="black"/>
<path d="M143.52,23.6995v -7.09741" fill="none" stroke="black"/>
<path d="M158.517,23.6995v -7.09741" fill="none" stroke="black"/>
<path d="M173.515,23.6995v -7.09741" fill="none" stroke="black"/>
<path d="M188.513,30.7969v -14.1948" fill="none" stroke="black"/>
<path d="M203.51,23.6995v -7.09741" fill="none" stroke="black"/>
<path d="M218.508,23.6995v -7.09741" fill="none" stroke="black"/>
<path d="M233.506,23.6995v -7.09741" fill="none" stroke="black"/>
<path d="M248.503,30.7969v -14.1948" fill="none" stroke="black"/>
<path d="M263.501,23.6995v -7.09741" fill="none" stroke="black"/>
<path d="M278.499,23.6995v -7.09741" fill="none" stroke="black"/>
<path d="M293.496,23.6995v -7.09741" fill="none" stroke="black"/>
<path d="M308.494,30.7969v -14.1948" fill="none" stroke="black"/>
<path d="M323.492,23.6995v -7.09741" fill="none" stroke="black"/>
<path d="M338.489,23.6995v -7.09741" fill="none" stroke="black"/>
<path d="M353.487,23.6995v -7.09741" fill="none" stroke="black"/>
<path d="M368.485,30.7969v -14.1948" fill="none" stroke="black"/>
<path d="M383.482,23.6995v -7.09741" fill="none" stroke="black"/>
<path d="M398.48,23.6995v -7.09741" fill="none" stroke="black"/>
<path d="M413.478,23.6995v -7.09741" fill="none" stroke="black"/>
<path d="M428.475,30.7969v -14.1948" fill="none" stroke="black"/>
<path d="M443.473,23.6995v -7.09741" fill="none" stroke="black"/>
<path d="M458.471,23.6995v -7.09741" fill="none" stroke="black"/>
<path d="M473.468,23.6995v -7.09741" fill="none" stroke="black"/>
<path d="M488.466,30.7969v -14.1948" fill="none" stroke="black"/>
<path d="M503.464,23.6995v -7.09741" fill="none" stroke="black"/>
<path d="M518.461,23.6995v -7.09741" fill="none" stroke="black"/>
<path d="M533.459,23.6995v -7.09741" fill="none" stroke="black"/>
<path d="M548.457,30.7969v -14.1948" fill="none" stroke="black"/>
<path d="M548.457,30.7969v -14.1948" fill="none" stroke="black"/>
<path d="M68.5315,498.064v -481.461" fill="none" stroke="black"/>
<path d="M83.3283,498.064h -14.7969" fill="none" stroke="black"/>
<path d="M75.9299,481.244h -7.39843" fill="none" stroke="black"/>
<path d="M75.9299,464.424h -7.39843" fill="none" stroke="black"/>
<path d="M75.9299,447.603h -7.39843" fill="none" stroke="black"/>
<path d="M75.9299,430.783h -7.39843" fill="none" stroke="black"/>
<path d="M83.3283,413.963h -14.7969" fill="none" stroke="black"/>
<path d="M75.9299,397.143h -7.39843" fill="none" stroke="black"/>
<path d="M75.9299,380.323h -7.39843" fill="none" stroke="black"/>
<path d="M75.9299,363.503h -7.39843" fill="none" stroke="black"/>
<path d="M75.9299,346.683h -7.39843" fill="none" stroke="black"/>
<path d="M83.3283,329.863h -14.7969" fill="none" stroke="black"/>
<path d="M75.9299,313.043h -7.39843" fill="none" stroke="black"/>
<path d="M75.9299,296.223h -7.39843" fill="none" stroke="black"/>
<path d="M75.9299,279.403h -7.39843" fill="none" stroke="black"/>
<path d="M75.9299,262.583h -7.39843" fill="none" stroke="black"/>
<path d="M83.3283,245.763h -14.7969" fill="none" stroke="black"/>
<path d="M75.9299,228.943h -7.39843" fill="none" stroke="black"/>
<path d="M75.9299,212.123h -7.39843" fill="none" stroke="black"/>
<path d="M75.9299,195.303h -7.39843" fill="none" stroke="black"/>
<path d="M75.9299,178.483h -7.39843" fill="none" stroke="black"/>
<path d="M83.3283,161.663h -14.7969" fill="none" stroke="black"/>
<path d="M75.9299,144.843h -7.39843" fill="none" stroke="black"/>
<path d="M75.9299,128.023h -7.39843" fill="none" stroke="black"/>
<path d="M75.9299,111.203h -7.39843" fill="none" stroke="black"/>
<path d="M75.9299,94.3827h -7.39843" fill="none" stroke="black"/>
<path d="M83.3283,77.5626h -14.7969" fill="none" stroke="black"/>
<path d="M83.3283,77.5626h -14.7969" fill="none" stroke="black"/>
<path d="M75.9299,60.7426h -7.39843" fill="none" stroke="black"/>
<path d="M75.9299,43.9225h -7.39843" fill="none" stroke="black"/>
<path d="M75.9299,27.1025h -7.39843" fill="none" stroke="black"/>
<text xml:space="preserve" x="56.8548" y="503.248" fill="black" font-size="16.0105" font-family="Helvetica">0</text>
<text xml:space="preserve" x="48.4016" y="419.28" fill="black" font-size="16.0105" font-family="Helvetica">10</text>
<text xml:space="preserve" x="48.4016" y="335.311" fill="black" font-size="16.0105" font-family="Helvetica">20</text>
<text xml:space="preserve" x="48.4016" y="251.342" fill="black" font-size="16.0105" font-family="Helvetica">30</text>
<text xml:space="preserve" x="48.4016" y="166.81" fill="black" font-size="16.0105" font-family="Helvetica">40</text>
<text xml:space="preserve" x="48.4016" y="82.8415" fill="black" font-size="16.0105" font-family="Helvetica">50</text>
<text xml:space="preserve" x="99.1209" y="7.32612" fill="black" font-size="10.8403" font-family="Helvetica">3</text>
<text xml:space="preserve" x="93.4854" y="7.32612" fill="black" font-size="10.8403" font-family="Times">&#8722;</text>
<text xml:space="preserve" x="76.579" y="14.6522" fill="black" font-size="16.0105" font-family="Helvetica">10</text>
<text xml:space="preserve" x="68.1257" y="14.6522" fill="black" font-size="16.0105" font-family="Times">&#0215;</text>
<g transform="rotate(-90,38.2577,98.0573)">
<text xml:space="preserve" x="38.2577" y="98.0573" fill="black" font-size="16.0105" font-family="Helvetica">background</text>
</g>
<g transform="rotate(-90,21.9148,98.0573)">
<text xml:space="preserve" x="21.9148" y="98.0573" fill="black" font-size="16.0105" font-family="Helvetica">same event</text>
</g>
<path d="M24.169,98.0573l 0.563548, -81.7144" fill="none" stroke="black" stroke-width="2"/>
<path d="M553.256,498.064v -481.461" fill="none" stroke="black"/>
<path d="M538.459,498.064h 14.7969" fill="none" stroke="black"/>
<path d="M545.857,481.244h 7.39843" fill="none" stroke="black"/>
<path d="M545.857,464.424h 7.39843" fill="none" stroke="black"/>
<path d="M545.857,447.603h 7.39843" fill="none" stroke="black"/>
<path d="M545.857,430.783h 7.39843" fill="none" stroke="black"/>
<path d="M538.459,413.963h 14.7969" fill="none" stroke="black"/>
<path d="M545.857,397.143h 7.39843" fill="none" stroke="black"/>
<path d="M545.857,380.323h 7.39843" fill="none" stroke="black"/>
<path d="M545.857,363.503h 7.39843" fill="none" stroke="black"/>
<path d="M545.857,346.683h 7.39843" fill="none" stroke="black"/>
<path d="M538.459,329.863h 14.7969" fill="none" stroke="black"/>
<path d="M545.857,313.043h 7.39843" fill="none" stroke="black"/>
<path d="M545.857,296.223h 7.39843" fill="none" stroke="black"/>
<path d="M545.857,279.403h 7.39843" fill="none" stroke="black"/>
<path d="M545.857,262.583h 7.39843" fill="none" stroke="black"/>
<path d="M538.459,245.763h 14.7969" fill="none" stroke="black"/>
<path d="M545.857,228.943h 7.39843" fill="none" stroke="black"/>
<path d="M545.857,212.123h 7.39843" fill="none" stroke="black"/>
<path d="M545.857,195.303h 7.39843" fill="none" stroke="black"/>
<path d="M545.857,178.483h 7.39843" fill="none" stroke="black"/>
<path d="M538.459,161.663h 14.7969" fill="none" stroke="black"/>
<path d="M545.857,144.843h 7.39843" fill="none" stroke="black"/>
<path d="M545.857,128.023h 7.39843" fill="none" stroke="black"/>
<path d="M545.857,111.203h 7.39843" fill="none" stroke="black"/>
<path d="M545.857,94.3827h 7.39843" fill="none" stroke="black"/>
<path d="M538.459,77.5626h 14.7969" fill="none" stroke="black"/>
<path d="M538.459,77.5626h 14.7969" fill="none" stroke="black"/>
<path d="M545.857,60.7426h 7.39843" fill="none" stroke="black"/>
<path d="M545.857,43.9225h 7.39843" fill="none" stroke="black"/>
<path d="M545.857,27.1025h 7.39843" fill="none" stroke="black"/>
<g stroke="#333333" stroke-width="2" fill="none">
<circle cx="282.098" cy="289.803" r="5.63548"/>
</g>
<g stroke="#333333" stroke-width="2" fill="none">
<circle cx="286.897" cy="286.282" r="5.63548"/>
</g>
<g stroke="#333333" stroke-width="2" fill="none">
<circle cx="291.697" cy="284.463" r="5.63548"/>
</g>
<g stroke="#333333" stroke-width="2" fill="none">
<circle cx="296.496" cy="281.972" r="5.63548"/>
</g>
<g stroke="#333333" stroke-width="2" fill="none">
<circle cx="301.295" cy="280.049" r="5.63548"/>
</g>
<g stroke="#333333" stroke-width="2" fill="none">
<circle cx="306.094" cy="278.844" r="5.63548"/>
</g>
<g stroke="#333333" stroke-width="2" fill="none">
<circle cx="310.894" cy="276.378" r="5.63548"/>
</g>
<g stroke="#333333" stroke-width="2" fill="none">
<circle cx="315.693" cy="274.243" r="5.63548"/>
</g>
<g stroke="#333333" stroke-width="2" fill="none">
<circle cx="320.492" cy="272.8" r="5.63548"/>
</g>
<g stroke="#333333" stroke-width="2" fill="none">
<circle cx="325.291" cy="270.775" r="5.63548"/>
</g>
<g stroke="#333333" stroke-width="2" fill="none">
<circle cx="330.091" cy="269.053" r="5.63548"/>
</g>
<g stroke="#333333" stroke-width="2" fill="none">
<circle cx="334.89" cy="263.736" r="5.63548"/>
</g>
<path d="M98.7518,369.709l 0.44993, -0.187525l 0.44993, -0.187525l 0.44993, -0.187525l 0.44993, -0.187525l 0.44993, -0.187525l 0.44993, -0.187525l 0.44993, -0.187525l 0.44993, -0.187525l 0.44993, -0.187525l 0.44993, -0.187525l 0.44993, -0.187525l
 0.44993, -0.187525l 0.44993, -0.187525l 0.44993, -0.187525l 0.44993, -0.187525l 0.44993, -0.187525l 0.44993, -0.187525l 0.44993, -0.187525l 0.44993, -0.187525l 0.44993, -0.187525l 0.44993, -0.187525l 0.44993, -0.187525l 0.44993, -0.187525l 0.44993,
 -0.187525l 0.44993, -0.187525l 0.44993, -0.187525l 0.44993, -0.187525l 0.44993, -0.187525l 0.44993, -0.187525l 0.44993, -0.187525l 0.44993, -0.187525l 0.44993, -0.187525l 0.44993, -0.187525l 0.44993, -0.187525l 0.44993, -0.187525l 0.44993,
 -0.187525l 0.44993, -0.187525l 0.44993, -0.187525l 0.44993, -0.187525l 0.44993, -0.187525l 0.44993, -0.187525l 0.44993, -0.187525l 0.44993, -0.187525l 0.44993, -0.187525l 0.44993, -0.187525l 0.44993, -0.187525l 0.44993, -0.187525l 0.44993,
 -0.187525l 0.44993, -0.187525" fill="none" stroke="#33cccc" stroke-width="3"/>
<path d="M120.798,360.52l 0.44993, -0.187525l 0.44993, -0.187525l 0.44993, -0.187525l 0.44993, -0.187525l 0.44993, -0.187525l 0.44993, -0.187525l 0.44993, -0.187525l 0.44993, -0.187525l 0.44993, -0.187525l 0.44993, -0.187525l 0.44993, -0.187525l
 0.44993, -0.187525l 0.44993, -0.187525l 0.44993, -0.187525l 0.44993, -0.187525l 0.44993, -0.187525l 0.44993, -0.187525l 0.44993, -0.187525l 0.44993, -0.187525l 0.44993, -0.187525l 0.44993, -0.187525l 0.44993, -0.187525l 0.44993, -0.187525l 0.44993,
 -0.187525l 0.44993, -0.187525l 0.44993, -0.187525l 0.44993, -0.187525l 0.44993, -0.187525l 0.44993, -0.187525l 0.44993, -0.187525l 0.44993, -0.187525l 0.44993, -0.187525l 0.44993, -0.187525l 0.44993, -0.187525l 0.44993, -0.187525l 0.44993,
 -0.187525l 0.44993, -0.187525l 0.44993, -0.187525l 0.44993, -0.187525l 0.44993, -0.187525l 0.44993, -0.187525l 0.44993, -0.187525l 0.44993, -0.187525l 0.44993, -0.187525l 0.44993, -0.187525l 0.44993, -0.187525l 0.44993, -0.187525l 0.44993,
 -0.187525l 0.44993, -0.187525" fill="none" stroke="#33cccc" stroke-width="3"/>
<path d="M142.845,351.332l 0.44993, -0.187525l 0.44993, -0.187525l 0.44993, -0.187525l 0.44993, -0.187525l 0.44993, -0.187525l 0.44993, -0.187525l 0.44993, -0.187525l 0.44993, -0.187525l 0.44993, -0.187525l 0.44993, -0.187525l 0.44993, -0.187525l
 0.44993, -0.187525l 0.44993, -0.187525l 0.44993, -0.187525l 0.44993, -0.187525l 0.44993, -0.187525l 0.44993, -0.187525l 0.44993, -0.187525l 0.44993, -0.187525l 0.44993, -0.187525l 0.44993, -0.187525l 0.44993, -0.187525l 0.44993, -0.187525l 0.44993,
 -0.187525l 0.44993, -0.187525l 0.44993, -0.187525l 0.44993, -0.187525l 0.44993, -0.187525l 0.44993, -0.187525l 0.44993, -0.187525l 0.44993, -0.187525l 0.44993, -0.187525l 0.44993, -0.187525l 0.44993, -0.187525l 0.44993, -0.187525l 0.44993,
 -0.187525l 0.44993, -0.187525l 0.44993, -0.187525l 0.44993, -0.187525l 0.44993, -0.187525l 0.44993, -0.187525l 0.44993, -0.187525l 0.44993, -0.187525l 0.44993, -0.187525l 0.44993, -0.187525l 0.44993, -0.187525l 0.44993, -0.187525l 0.44993,
 -0.187525l 0.44993, -0.187525" fill="none" stroke="#33cccc" stroke-width="3"/>
<path d="M164.891,342.143l 0.44993, -0.187525l 0.44993, -0.187525l 0.44993, -0.187525l 0.44993, -0.187525l 0.44993, -0.187525l 0.44993, -0.187525l 0.44993, -0.187525l 0.44993, -0.187525l 0.44993, -0.187525l 0.44993, -0.187525l 0.44993, -0.187525l
 0.44993, -0.187525l 0.44993, -0.187525l 0.44993, -0.187525l 0.44993, -0.187525l 0.44993, -0.187525l 0.44993, -0.187525l 0.44993, -0.187525l 0.44993, -0.187525l 0.44993, -0.187525l 0.44993, -0.187525l 0.44993, -0.187525l 0.44993, -0.187525l 0.44993,
 -0.187525l 0.44993, -0.187525l 0.44993, -0.187525l 0.44993, -0.187525l 0.44993, -0.187525l 0.44993, -0.187525l 0.44993, -0.187525l 0.44993, -0.187525l 0.44993, -0.187525l 0.44993, -0.187525l 0.44993, -0.187525l 0.44993, -0.187525l 0.44993,
 -0.187525l 0.44993, -0.187525l 0.44993, -0.187525l 0.44993, -0.187525l 0.44993, -0.187525l 0.44993, -0.187525l 0.44993, -0.187525l 0.44993, -0.187525l 0.44993, -0.187525l 0.44993, -0.187525l 0.44993, -0.187525l 0.44993, -0.187525l 0.44993,
 -0.187525l 0.44993, -0.187525" fill="none" stroke="#33cccc" stroke-width="3"/>
<path d="M186.938,332.954l 0.44993, -0.187525l 0.44993, -0.187525l 0.44993, -0.187525l 0.44993, -0.187525l 0.44993, -0.187525l 0.44993, -0.187525l 0.44993, -0.187525l 0.44993, -0.187525l 0.44993, -0.187525l 0.44993, -0.187525l 0.44993, -0.187525l
 0.44993, -0.187525l 0.44993, -0.187525l 0.44993, -0.187525l 0.44993, -0.187525l 0.44993, -0.187525l 0.44993, -0.187525l 0.44993, -0.187525l 0.44993, -0.187525l 0.44993, -0.187525l 0.44993, -0.187525l 0.44993, -0.187525l 0.44993, -0.187525l 0.44993,
 -0.187525l 0.44993, -0.187525l 0.44993, -0.187525l 0.44993, -0.187525l 0.44993, -0.187525l 0.44993, -0.187525l 0.44993, -0.187525l 0.44993, -0.187525l 0.44993, -0.187525l 0.44993, -0.187525l 0.44993, -0.187525l 0.44993, -0.187525l 0.44993,
 -0.187525l 0.44993, -0.187525l 0.44993, -0.187525l 0.44993, -0.187525l 0.44993, -0.187525l 0.44993, -0.187525l 0.44993, -0.187525l 0.44993, -0.187525l 0.44993, -0.187525l 0.44993, -0.187525l 0.44993, -0.187525l 0.44993, -0.187525l 0.44993,
 -0.187525l 0.44993, -0.187525" fill="none" stroke="#33cccc" stroke-width="3"/>
<path d="M208.985,323.766l 0.44993, -0.187525l 0.44993, -0.187525l 0.44993, -0.187525l 0.44993, -0.187525l 0.44993, -0.187525l 0.44993, -0.187525l 0.44993, -0.187525l 0.44993, -0.187525l 0.44993, -0.187525l 0.44993, -0.187525l 0.44993, -0.187525l
 0.44993, -0.187525l 0.44993, -0.187525l 0.44993, -0.187525l 0.44993, -0.187525l 0.44993, -0.187525l 0.44993, -0.187525l 0.44993, -0.187525l 0.44993, -0.187525l 0.44993, -0.187525l 0.44993, -0.187525l 0.44993, -0.187525l 0.44993, -0.187525l 0.44993,
 -0.187525l 0.44993, -0.187525l 0.44993, -0.187525l 0.44993, -0.187525l 0.44993, -0.187525l 0.44993, -0.187525l 0.44993, -0.187525l 0.44993, -0.187525l 0.44993, -0.187525l 0.44993, -0.187525l 0.44993, -0.187525l 0.44993, -0.187525l 0.44993,
 -0.187525l 0.44993, -0.187525l 0.44993, -0.187525l 0.44993, -0.187525l 0.44993, -0.187525l 0.44993, -0.187525l 0.44993, -0.187525l 0.44993, -0.187525l 0.44993, -0.187525l 0.44993, -0.187525l 0.44993, -0.187525l 0.44993, -0.187525l 0.44993,
 -0.187525l 0.44993, -0.187525" fill="none" stroke="#33cccc" stroke-width="3"/>
<path d="M231.031,314.577l 0.44993, -0.187525l 0.44993, -0.187525l 0.44993, -0.187525l 0.44993, -0.187525l 0.44993, -0.187525l 0.44993, -0.187525l 0.44993, -0.187525l 0.44993, -0.187525l 0.44993, -0.187525l 0.44993, -0.187525l 0.44993, -0.187525l
 0.44993, -0.187525l 0.44993, -0.187525l 0.44993, -0.187525l 0.44993, -0.187525l 0.44993, -0.187525l 0.44993, -0.187525l 0.44993, -0.187525l 0.44993, -0.187525l 0.44993, -0.187525l 0.44993, -0.187525l 0.44993, -0.187525l 0.44993, -0.187525l 0.44993,
 -0.187525l 0.44993, -0.187525l 0.44993, -0.187525l 0.44993, -0.187525l 0.44993, -0.187525l 0.44993, -0.187525l 0.44993, -0.187525l 0.44993, -0.187525l 0.44993, -0.187525l 0.44993, -0.187525l 0.44993, -0.187525l 0.44993, -0.187525l 0.44993,
 -0.187525l 0.44993, -0.187525l 0.44993, -0.187525l 0.44993, -0.187525l 0.44993, -0.187525l 0.44993, -0.187525l 0.44993, -0.187525l 0.44993, -0.187525l 0.44993, -0.187525l 0.44993, -0.187525l 0.44993, -0.187525l 0.44993, -0.187525l 0.44993,
 -0.187525l 0.44993, -0.187525" fill="none" stroke="#33cccc" stroke-width="3"/>
<path d="M253.078,305.388l 0.44993, -0.187525l 0.44993, -0.187525l 0.44993, -0.187525l 0.44993, -0.187525l 0.44993, -0.187525l 0.44993, -0.187525l 0.44993, -0.187525l 0.44993, -0.187525l 0.44993, -0.187525l 0.44993, -0.187525l 0.44993, -0.187525l
 0.44993, -0.187525l 0.44993, -0.187525l 0.44993, -0.187525l 0.44993, -0.187525l 0.44993, -0.187525l 0.44993, -0.187525l 0.44993, -0.187525l 0.44993, -0.187525l 0.44993, -0.187525l 0.44993, -0.187525l 0.44993, -0.187525l 0.44993, -0.187525l 0.44993,
 -0.187525l 0.44993, -0.187525l 0.44993, -0.187525l 0.44993, -0.187525l 0.44993, -0.187525l 0.44993, -0.187525l 0.44993, -0.187525l 0.44993, -0.187525l 0.44993, -0.187525l 0.44993, -0.187525l 0.44993, -0.187525l 0.44993, -0.187525l 0.44993,
 -0.187525l 0.44993, -0.187525l 0.44993, -0.187525l 0.44993, -0.187525l 0.44993, -0.187525l 0.44993, -0.187525l 0.44993, -0.187525l 0.44993, -0.187525l 0.44993, -0.187525l 0.44993, -0.187525l 0.44993, -0.187525l 0.44993, -0.187525l 0.44993,
 -0.187525l 0.44993, -0.187525" fill="none" stroke="#33cccc" stroke-width="3"/>
<path d="M275.124,296.199l 0.44993, -0.187525l 0.44993, -0.187525l 0.44993, -0.187525l 0.44993, -0.187525l 0.44993, -0.187525l 0.44993, -0.187525l 0.44993, -0.187525l 0.44993, -0.187525l 0.44993, -0.187525l 0.44993, -0.187525l 0.44993, -0.187525l
 0.44993, -0.187525l 0.44993, -0.187525l 0.44993, -0.187525l 0.44993, -0.187525l 0.44993, -0.187525l 0.44993, -0.187525l 0.44993, -0.187525l 0.44993, -0.187525l 0.44993, -0.187525l 0.44993, -0.187525l 0.44993, -0.187525l 0.44993, -0.187525l 0.44993,
 -0.187525l 0.44993, -0.187525l 0.44993, -0.187525l 0.44993, -0.187525l 0.44993, -0.187525l 0.44993, -0.187525l 0.44993, -0.187525l 0.44993, -0.187525l 0.44993, -0.187525l 0.44993, -0.187525l 0.44993, -0.187525l 0.44993, -0.187525l 0.44993,
 -0.187525l 0.44993, -0.187525l 0.44993, -0.187525l 0.44993, -0.187525l 0.44993, -0.187525l 0.44993, -0.187525l 0.44993, -0.187525l 0.44993, -0.187525l 0.44993, -0.187525l 0.44993, -0.187525l 0.44993, -0.187525l 0.44993, -0.187525l 0.44993,
 -0.187525l 0.44993, -0.187525" fill="none" stroke="#33cccc" stroke-width="3"/>
<path d="M297.171,287.011l 0.44993, -0.187525l 0.44993, -0.187525l 0.44993, -0.187525l 0.44993, -0.187525l 0.44993, -0.187525l 0.44993, -0.187525l 0.44993, -0.187525l 0.44993, -0.187525l 0.44993, -0.187525l 0.44993, -0.187525l 0.44993, -0.187525l
 0.44993, -0.187525l 0.44993, -0.187525l 0.44993, -0.187525l 0.44993, -0.187525l 0.44993, -0.187525l 0.44993, -0.187525l 0.44993, -0.187525l 0.44993, -0.187525l 0.44993, -0.187525l 0.44993, -0.187525l 0.44993, -0.187525l 0.44993, -0.187525l 0.44993,
 -0.187525l 0.44993, -0.187525l 0.44993, -0.187525l 0.44993, -0.187525l 0.44993, -0.187525l 0.44993, -0.187525l 0.44993, -0.187525l 0.44993, -0.187525l 0.44993, -0.187525l 0.44993, -0.187525l 0.44993, -0.187525l 0.44993, -0.187525l 0.44993,
 -0.187525l 0.44993, -0.187525l 0.44993, -0.187525l 0.44993, -0.187525l 0.44993, -0.187525l 0.44993, -0.187525l 0.44993, -0.187525l 0.44993, -0.187525l 0.44993, -0.187525l 0.44993, -0.187525l 0.44993, -0.187525l 0.44993, -0.187525l 0.44993,
 -0.187525l 0.44993, -0.187525" fill="none" stroke="#33cccc" stroke-width="3"/>
<path d="M319.217,277.822l 0.44993, -0.187525l 0.44993, -0.187525l 0.44993, -0.187525l 0.44993, -0.187525l 0.44993, -0.187525l 0.44993, -0.187525l 0.44993, -0.187525l 0.44993, -0.187525l 0.44993, -0.187525l 0.44993, -0.187525l 0.44993, -0.187525l
 0.44993, -0.187525l 0.44993, -0.187525l 0.44993, -0.187525l 0.44993, -0.187525l 0.44993, -0.187525l 0.44993, -0.187525l 0.44993, -0.187525l 0.44993, -0.187525l 0.44993, -0.187525l 0.44993, -0.187525l 0.44993, -0.187525l 0.44993, -0.187525l 0.44993,
 -0.187525l 0.44993, -0.187525l 0.44993, -0.187525l 0.44993, -0.187525l 0.44993, -0.187525l 0.44993, -0.187525l 0.44993, -0.187525l 0.44993, -0.187525l 0.44993, -0.187525l 0.44993, -0.187525l 0.44993, -0.187525l 0.44993, -0.187525l 0.44993,
 -0.187525l 0.44993, -0.187525l 0.44993, -0.187525l 0.44993, -0.187525l 0.44993, -0.187525l 0.44993, -0.187525l 0.44993, -0.187525l 0.44993, -0.187525l 0.44993, -0.187525l 0.44993, -0.187525l 0.44993, -0.187525l 0.44993, -0.187525l 0.44993,
 -0.187525l 0.44993, -0.187525" fill="none" stroke="#33cccc" stroke-width="3"/>
<path d="M341.264,268.633l 0.44993, -0.187525l 0.44993, -0.187525l 0.44993, -0.187525l 0.44993, -0.187525l 0.44993, -0.187525l 0.44993, -0.187525l 0.44993, -0.187525l 0.44993, -0.187525l 0.44993, -0.187525l 0.44993, -0.187525l 0.44993, -0.187525l
 0.44993, -0.187525l 0.44993, -0.187525l 0.44993, -0.187525l 0.44993, -0.187525l 0.44993, -0.187525l 0.44993, -0.187525l 0.44993, -0.187525l 0.44993, -0.187525l 0.44993, -0.187525l 0.44993, -0.187525l 0.44993, -0.187525l 0.44993, -0.187525l 0.44993,
 -0.187525l 0.44993, -0.187525l 0.44993, -0.187525l 0.44993, -0.187525l 0.44993, -0.187525l 0.44993, -0.187525l 0.44993, -0.187525l 0.44993, -0.187525l 0.44993, -0.187525l 0.44993, -0.187525l 0.44993, -0.187525l 0.44993, -0.187525l 0.44993,
 -0.187525l 0.44993, -0.187525l 0.44993, -0.187525l 0.44993, -0.187525l 0.44993, -0.187525l 0.44993, -0.187525l 0.44993, -0.187525l 0.44993, -0.187525l 0.44993, -0.187525l 0.44993, -0.187525l 0.44993, -0.187525l 0.44993, -0.187525l 0.44993,
 -0.187525l 0.44993, -0.187525" fill="none" stroke="#33cccc" stroke-width="3"/>
<path d="M363.311,259.445l 0.44993, -0.187525l 0.44993, -0.187525l 0.44993, -0.187525l 0.44993, -0.187525l 0.44993, -0.187525l 0.44993, -0.187525l 0.44993, -0.187525l 0.44993, -0.187525l 0.44993, -0.187525l 0.44993, -0.187525l 0.44993, -0.187525l
 0.44993, -0.187525l 0.44993, -0.187525l 0.44993, -0.187525l 0.44993, -0.187525l 0.44993, -0.187525l 0.44993, -0.187525l 0.44993, -0.187525l 0.44993, -0.187525l 0.44993, -0.187525l 0.44993, -0.187525l 0.44993, -0.187525l 0.44993, -0.187525l 0.44993,
 -0.187525l 0.44993, -0.187525l 0.44993, -0.187525l 0.44993, -0.187525l 0.44993, -0.187525l 0.44993, -0.187525l 0.44993, -0.187525l 0.44993, -0.187525l 0.44993, -0.187525l 0.44993, -0.187525l 0.44993, -0.187525l 0.44993, -0.187525l 0.44993,
 -0.187525l 0.44993, -0.187525l 0.44993, -0.187525l 0.44993, -0.187525l 0.44993, -0.187525l 0.44993, -0.187525l 0.44993, -0.187525l 0.44993, -0.187525l 0.44993, -0.187525l 0.44993, -0.187525l 0.44993, -0.187525l 0.44993, -0.187525l 0.44993,
 -0.187525l 0.44993, -0.187525" fill="none" stroke="#33cccc" stroke-width="3"/>
<path d="M385.357,250.256l 0.44993, -0.187525l 0.44993, -0.187525l 0.44993, -0.187525l 0.44993, -0.187525l 0.44993, -0.187525l 0.44993, -0.187525l 0.44993, -0.187525l 0.44993, -0.187525l 0.44993, -0.187525l 0.44993, -0.187525l 0.44993, -0.187525l
 0.44993, -0.187525l 0.44993, -0.187525l 0.44993, -0.187525l 0.44993, -0.187525l 0.44993, -0.187525l 0.44993, -0.187525l 0.44993, -0.187525l 0.44993, -0.187525l 0.44993, -0.187525l 0.44993, -0.187525l 0.44993, -0.187525l 0.44993, -0.187525l 0.44993,
 -0.187525l 0.44993, -0.187525l 0.44993, -0.187525l 0.44993, -0.187525l 0.44993, -0.187525l 0.44993, -0.187525l 0.44993, -0.187525l 0.44993, -0.187525l 0.44993, -0.187525l 0.44993, -0.187525l 0.44993, -0.187525l 0.44993, -0.187525l 0.44993,
 -0.187525l 0.44993, -0.187525l 0.44993, -0.187525l 0.44993, -0.187525l 0.44993, -0.187525l 0.44993, -0.187525l 0.44993, -0.187525l 0.44993, -0.187525l 0.44993, -0.187525l 0.44993, -0.187525l 0.44993, -0.187525l 0.44993, -0.187525l 0.44993,
 -0.187525l 0.44993, -0.187525" fill="none" stroke="#33cccc" stroke-width="3"/>
<path d="M407.404,241.067l 0.44993, -0.187525l 0.44993, -0.187525l 0.44993, -0.187525l 0.44993, -0.187525l 0.44993, -0.187525l 0.44993, -0.187525l 0.44993, -0.187525l 0.44993, -0.187525l 0.44993, -0.187525l 0.44993, -0.187525l 0.44993, -0.187525l
 0.44993, -0.187525l 0.44993, -0.187525l 0.44993, -0.187525l 0.44993, -0.187525l 0.44993, -0.187525l 0.44993, -0.187525l 0.44993, -0.187525l 0.44993, -0.187525l 0.44993, -0.187525l 0.44993, -0.187525l 0.44993, -0.187525l 0.44993, -0.187525l 0.44993,
 -0.187525l 0.44993, -0.187525l 0.44993, -0.187525l 0.44993, -0.187525l 0.44993, -0.187525l 0.44993, -0.187525l 0.44993, -0.187525l 0.44993, -0.187525l 0.44993, -0.187525l 0.44993, -0.187525l 0.44993, -0.187525l 0.44993, -0.187525l 0.44993,
 -0.187525l 0.44993, -0.187525l 0.44993, -0.187525l 0.44993, -0.187525l 0.44993, -0.187525l 0.44993, -0.187525l 0.44993, -0.187525l 0.44993, -0.187525l 0.44993, -0.187525l 0.44993, -0.187525l 0.44993, -0.187525l 0.44993, -0.187525l 0.44993,
 -0.187525l 0.44993, -0.187525" fill="none" stroke="#33cccc" stroke-width="3"/>
<path d="M429.45,231.878l 0.44993, -0.187525l 0.44993, -0.187525l 0.44993, -0.187525l 0.44993, -0.187525l 0.44993, -0.187525l 0.44993, -0.187525l 0.44993, -0.187525l 0.44993, -0.187525l 0.44993, -0.187525l 0.44993, -0.187525l 0.44993, -0.187525l
 0.44993, -0.187525l 0.44993, -0.187525l 0.44993, -0.187525l 0.44993, -0.187525l 0.44993, -0.187525l 0.44993, -0.187525l 0.44993, -0.187525l 0.44993, -0.187525l 0.44993, -0.187525l 0.44993, -0.187525l 0.44993, -0.187525l 0.44993, -0.187525l 0.44993,
 -0.187525l 0.44993, -0.187525l 0.44993, -0.187525l 0.44993, -0.187525l 0.44993, -0.187525l 0.44993, -0.187525l 0.44993, -0.187525l 0.44993, -0.187525l 0.44993, -0.187525l 0.44993, -0.187525l 0.44993, -0.187525l 0.44993, -0.187525l 0.44993,
 -0.187525l 0.44993, -0.187525l 0.44993, -0.187525l 0.44993, -0.187525l 0.44993, -0.187525l 0.44993, -0.187525l 0.44993, -0.187525l 0.44993, -0.187525l 0.44993, -0.187525l 0.44993, -0.187525l 0.44993, -0.187525l 0.44993, -0.187525l 0.44993,
 -0.187525l 0.44993, -0.187525" fill="none" stroke="#33cccc" stroke-width="3"/>
<path d="M451.497,222.69l 0.44993, -0.187525l 0.44993, -0.187525l 0.44993, -0.187525l 0.44993, -0.187525l 0.44993, -0.187525l 0.44993, -0.187525l 0.44993, -0.187525l 0.44993, -0.187525l 0.44993, -0.187525l 0.44993, -0.187525l 0.44993, -0.187525l
 0.44993, -0.187525l 0.44993, -0.187525l 0.44993, -0.187525l 0.44993, -0.187525l 0.44993, -0.187525l 0.44993, -0.187525l 0.44993, -0.187525l 0.44993, -0.187525l 0.44993, -0.187525l 0.44993, -0.187525l 0.44993, -0.187525l 0.44993, -0.187525l 0.44993,
 -0.187525l 0.44993, -0.187525l 0.44993, -0.187525l 0.44993, -0.187525l 0.44993, -0.187525l 0.44993, -0.187525l 0.44993, -0.187525l 0.44993, -0.187525l 0.44993, -0.187525l 0.44993, -0.187525l 0.44993, -0.187525l 0.44993, -0.187525l 0.44993,
 -0.187525l 0.44993, -0.187525l 0.44993, -0.187525l 0.44993, -0.187525l 0.44993, -0.187525l 0.44993, -0.187525l 0.44993, -0.187525l 0.44993, -0.187525l 0.44993, -0.187525l 0.44993, -0.187525l 0.44993, -0.187525l 0.44993, -0.187525l 0.44993,
 -0.187525l 0.44993, -0.187525" fill="none" stroke="#33cccc" stroke-width="3"/>
<path d="M473.543,213.501l 0.44993, -0.187525l 0.44993, -0.187525l 0.44993, -0.187525l 0.44993, -0.187525l 0.44993, -0.187525l 0.44993, -0.187525l 0.44993, -0.187525l 0.44993, -0.187525l 0.44993, -0.187525l 0.44993, -0.187525l 0.44993, -0.187525l
 0.44993, -0.187525l 0.44993, -0.187525l 0.44993, -0.187525l 0.44993, -0.187525l 0.44993, -0.187525l 0.44993, -0.187525l 0.44993, -0.187525l 0.44993, -0.187525l 0.44993, -0.187525l 0.44993, -0.187525l 0.44993, -0.187525l 0.44993, -0.187525l 0.44993,
 -0.187525l 0.44993, -0.187525l 0.44993, -0.187525l 0.44993, -0.187525l 0.44993, -0.187525l 0.44993, -0.187525l 0.44993, -0.187525l 0.44993, -0.187525l 0.44993, -0.187525l 0.44993, -0.187525l 0.44993, -0.187525l 0.44993, -0.187525l 0.44993,
 -0.187525l 0.44993, -0.187525l 0.44993, -0.187525l 0.44993, -0.187525l 0.44993, -0.187525l 0.44993, -0.187525l 0.44993, -0.187525l 0.44993, -0.187525l 0.44993, -0.187525l 0.44993, -0.187525l 0.44993, -0.187525l 0.44993, -0.187525l 0.44993,
 -0.187525l 0.44993, -0.187525" fill="none" stroke="#33cccc" stroke-width="3"/>
<path d="M495.59,204.312l 0.44993, -0.187525l 0.44993, -0.187525l 0.44993, -0.187525l 0.44993, -0.187525l 0.44993, -0.187525l 0.44993, -0.187525l 0.44993, -0.187525l 0.44993, -0.187525l 0.44993, -0.187525l 0.44993, -0.187525l 0.44993, -0.187525l
 0.44993, -0.187525l 0.44993, -0.187525l 0.44993, -0.187525l 0.44993, -0.187525l 0.44993, -0.187525l 0.44993, -0.187525l 0.44993, -0.187525l 0.44993, -0.187525l 0.44993, -0.187525l 0.44993, -0.187525l 0.44993, -0.187525l 0.44993, -0.187525l 0.44993,
 -0.187525l 0.44993, -0.187525l 0.44993, -0.187525l 0.44993, -0.187525l 0.44993, -0.187525l 0.44993, -0.187525l 0.44993, -0.187525l 0.44993, -0.187525l 0.44993, -0.187525l 0.44993, -0.187525l 0.44993, -0.187525l 0.44993, -0.187525l 0.44993,
 -0.187525l 0.44993, -0.187525l 0.44993, -0.187525l 0.44993, -0.187525l 0.44993, -0.187525l 0.44993, -0.187525l 0.44993, -0.187525l 0.44993, -0.187525l 0.44993, -0.187525l 0.44993, -0.187525l 0.44993, -0.187525l 0.44993, -0.187525l 0.44993,
 -0.187525l 0.44993, -0.187525" fill="none" stroke="#33cccc" stroke-width="3"/>
<path d="M517.636,195.124l 0.44993, -0.187525l 0.44993, -0.187525l 0.44993, -0.187525l 0.44993, -0.187525l 0.44993, -0.187525l 0.44993, -0.187525l 0.44993, -0.187525l 0.44993, -0.187525l 0.44993, -0.187525l 0.44993, -0.187525l 0.44993, -0.187525l
 0.44993, -0.187525l 0.44993, -0.187525l 0.44993, -0.187525l 0.44993, -0.187525l 0.44993, -0.187525l 0.44993, -0.187525l 0.44993, -0.187525l 0.44993, -0.187525l 0.44993, -0.187525l 0.44993, -0.187525l 0.44993, -0.187525l 0.44993, -0.187525l 0.44993,
 -0.187525l 0.44993, -0.187525l 0.44993, -0.187525l 0.44993, -0.187525l 0.44993, -0.187525l 0.44993, -0.187525l 0.44993, -0.187525l 0.44993, -0.187525l 0.44993, -0.187525l 0.44993, -0.187525l 0.44993, -0.187525l 0.44993, -0.187525l 0.44993,
 -0.187525l 0.44993, -0.187525l 0.44993, -0.187525l 0.44993, -0.187525l 0.44993, -0.187525l 0.44993, -0.187525l 0.44993, -0.187525l 0.44993, -0.187525l 0.44993, -0.187525l 0.44993, -0.187525l 0.44993, -0.187525l 0.44993, -0.187525l 0.44993,
 -0.187525l 0.44993, -0.187525" fill="none" stroke="#33cccc" stroke-width="3"/>
<path d="M539.683,185.935l 0.44993, -0.187525l 0.44993, -0.187525l 0.44993, -0.187525l 0.44993, -0.187525l 0.44993, -0.187525l 0.44993, -0.187525l 0.44993, -0.187525l 0.44993, -0.187525l 0.44993, -0.187525l 0.44993, -0.187525l 0.44993, -0.187525l
 0.44993, -0.187525l 0.44993, -0.187525l 0.44993, -0.187525l 0.44993, -0.187525l 0.44993, -0.187525l 0.44993, -0.187525l 0.44993, -0.187525l 0.44993, -0.187525" fill="none" stroke="#33cccc" stroke-width="3"/>
<path d="M98.7518,415.772l 0.44993, -0.374388l 0.44993, -0.374044l 0.44993, -0.373701l 0.44993, -0.373357l 0.44993, -0.373013l 0.44993, -0.37267l 0.44993, -0.372326l 0.44993, -0.371982l 0.44993, -0.371638l 0.44993, -0.371295l 0.44993, -0.370951l
 0.44993, -0.370607l 0.44993, -0.370264l 0.44993, -0.36992l 0.44993, -0.369576l 0.44993, -0.369232l 0.44993, -0.368889l 0.44993, -0.368545l 0.44993, -0.368201l 0.44993, -0.367857l 0.44993, -0.367514l 0.44993, -0.36717l 0.44993, -0.366826l 0.44993,
 -0.366483l 0.44993, -0.366139l 0.44993, -0.365795l 0.44993, -0.365451l 0.44993, -0.365108l 0.44993, -0.364764l 0.44993, -0.36442l 0.44993, -0.364077l 0.44993, -0.363733l 0.44993, -0.363389l 0.44993, -0.363045l 0.44993, -0.362702l 0.44993, -0.362358l
 0.44993, -0.362014l 0.44993, -0.361671l 0.44993, -0.361327l 0.44993, -0.360983l 0.44993, -0.360639l 0.44993, -0.360296l 0.44993, -0.359952l 0.44993, -0.359608l 0.44993, -0.359264l 0.44993, -0.358921l 0.44993, -0.358577l 0.44993, -0.358233l 0.44993,
 -0.35789" fill="none" stroke="#ff0066" stroke-width="3"/>
<path d="M120.798,397.831l 0.44993, -0.357546l 0.44993, -0.357202l 0.44993, -0.356858l 0.44993, -0.356515l 0.44993, -0.356171l 0.44993, -0.355827l 0.44993, -0.355484l 0.44993, -0.35514l 0.44993, -0.354796l 0.44993, -0.354452l 0.44993, -0.354109l
 0.44993, -0.353765l 0.44993, -0.353421l 0.44993, -0.353078l 0.44993, -0.352734l 0.44993, -0.35239l 0.44993, -0.352046l 0.44993, -0.351703l 0.44993, -0.351359l 0.44993, -0.351015l 0.44993, -0.350671l 0.44993, -0.350328l 0.44993, -0.349984l 0.44993,
 -0.34964l 0.44993, -0.349297l 0.44993, -0.348953l 0.44993, -0.348609l 0.44993, -0.348265l 0.44993, -0.347922l 0.44993, -0.347578l 0.44993, -0.347234l 0.44993, -0.346891l 0.44993, -0.346547l 0.44993, -0.346203l 0.44993, -0.345859l 0.44993, -0.345516l
 0.44993, -0.345172l 0.44993, -0.344828l 0.44993, -0.344485l 0.44993, -0.344141l 0.44993, -0.343797l 0.44993, -0.343453l 0.44993, -0.34311l 0.44993, -0.342766l 0.44993, -0.342422l 0.44993, -0.342079l 0.44993, -0.341735l 0.44993, -0.341391l 0.44993,
 -0.341047" fill="none" stroke="#ff0066" stroke-width="3"/>
<path d="M142.845,380.716l 0.44993, -0.340704l 0.44993, -0.34036l 0.44993, -0.340016l 0.44993, -0.339672l 0.44993, -0.339329l 0.44993, -0.338985l 0.44993, -0.338641l 0.44993, -0.338298l 0.44993, -0.337954l 0.44993, -0.33761l 0.44993, -0.337266l
 0.44993, -0.336923l 0.44993, -0.336579l 0.44993, -0.336235l 0.44993, -0.335892l 0.44993, -0.335548l 0.44993, -0.335204l 0.44993, -0.33486l 0.44993, -0.334517l 0.44993, -0.334173l 0.44993, -0.333829l 0.44993, -0.333486l 0.44993, -0.333142l 0.44993,
 -0.332798l 0.44993, -0.332454l 0.44993, -0.332111l 0.44993, -0.331767l 0.44993, -0.331423l 0.44993, -0.331079l 0.44993, -0.330736l 0.44993, -0.330392l 0.44993, -0.330048l 0.44993, -0.329705l 0.44993, -0.329361l 0.44993, -0.329017l 0.44993,
 -0.328673l 0.44993, -0.32833l 0.44993, -0.327986l 0.44993, -0.327642l 0.44993, -0.327299l 0.44993, -0.326955l 0.44993, -0.326611l 0.44993, -0.326267l 0.44993, -0.325924l 0.44993, -0.32558l 0.44993, -0.325236l 0.44993, -0.324893l 0.44993, -0.324549l
 0.44993, -0.324205" fill="none" stroke="#ff0066" stroke-width="3"/>
<path d="M164.891,364.426l 0.44993, -0.323861l 0.44993, -0.323518l 0.44993, -0.323174l 0.44993, -0.32283l 0.44993, -0.322486l 0.44993, -0.322143l 0.44993, -0.321799l 0.44993, -0.321455l 0.44993, -0.321112l 0.44993, -0.320768l 0.44993, -0.320424l
 0.44993, -0.32008l 0.44993, -0.319737l 0.44993, -0.319393l 0.44993, -0.319049l 0.44993, -0.318706l 0.44993, -0.318362l 0.44993, -0.318018l 0.44993, -0.317674l 0.44993, -0.317331l 0.44993, -0.316987l 0.44993, -0.316643l 0.44993, -0.3163l 0.44993,
 -0.315956l 0.44993, -0.315612l 0.44993, -0.315268l 0.44993, -0.314925l 0.44993, -0.314581l 0.44993, -0.314237l 0.44993, -0.313894l 0.44993, -0.31355l 0.44993, -0.313206l 0.44993, -0.312862l 0.44993, -0.312519l 0.44993, -0.312175l 0.44993, -0.311831l
 0.44993, -0.311487l 0.44993, -0.311144l 0.44993, -0.3108l 0.44993, -0.310456l 0.44993, -0.310113l 0.44993, -0.309769l 0.44993, -0.309425l 0.44993, -0.309081l 0.44993, -0.308738l 0.44993, -0.308394l 0.44993, -0.30805l 0.44993, -0.307707l 0.44993,
 -0.307363" fill="none" stroke="#ff0066" stroke-width="3"/>
<path d="M186.938,348.961l 0.44993, -0.307019l 0.44993, -0.306675l 0.44993, -0.306332l 0.44993, -0.305988l 0.44993, -0.305644l 0.44993, -0.305301l 0.44993, -0.304957l 0.44993, -0.304613l 0.44993, -0.304269l 0.44993, -0.303926l 0.44993, -0.303582l
 0.44993, -0.303238l 0.44993, -0.302895l 0.44993, -0.302551l 0.44993, -0.302207l 0.44993, -0.301863l 0.44993, -0.30152l 0.44993, -0.301176l 0.44993, -0.300832l 0.44993, -0.300488l 0.44993, -0.300145l 0.44993, -0.299801l 0.44993, -0.299457l 0.44993,
 -0.299114l 0.44993, -0.29877l 0.44993, -0.298426l 0.44993, -0.298082l 0.44993, -0.297739l 0.44993, -0.297395l 0.44993, -0.297051l 0.44993, -0.296708l 0.44993, -0.296364l 0.44993, -0.29602l 0.44993, -0.295676l 0.44993, -0.295333l 0.44993, -0.294989l
 0.44993, -0.294645l 0.44993, -0.294302l 0.44993, -0.293958l 0.44993, -0.293614l 0.44993, -0.29327l 0.44993, -0.292927l 0.44993, -0.292583l 0.44993, -0.292239l 0.44993, -0.291895l 0.44993, -0.291552l 0.44993, -0.291208l 0.44993, -0.290864l 0.44993,
 -0.290521" fill="none" stroke="#ff0066" stroke-width="3"/>
<path d="M208.985,334.321l 0.44993, -0.290177l 0.44993, -0.289833l 0.44993, -0.289489l 0.44993, -0.289146l 0.44993, -0.288802l 0.44993, -0.288458l 0.44993, -0.288115l 0.44993, -0.287771l 0.44993, -0.287427l 0.44993, -0.287083l 0.44993, -0.28674l
 0.44993, -0.286396l 0.44993, -0.286052l 0.44993, -0.285709l 0.44993, -0.285365l 0.44993, -0.285021l 0.44993, -0.284677l 0.44993, -0.284334l 0.44993, -0.28399l 0.44993, -0.283646l 0.44993, -0.283302l 0.44993, -0.282959l 0.44993, -0.282615l 0.44993,
 -0.282271l 0.44993, -0.281928l 0.44993, -0.281584l 0.44993, -0.28124l 0.44993, -0.280896l 0.44993, -0.280553l 0.44993, -0.280209l 0.44993, -0.279865l 0.44993, -0.279522l 0.44993, -0.279178l 0.44993, -0.278834l 0.44993, -0.27849l 0.44993, -0.278147l
 0.44993, -0.277803l 0.44993, -0.277459l 0.44993, -0.277116l 0.44993, -0.276772l 0.44993, -0.276428l 0.44993, -0.276084l 0.44993, -0.275741l 0.44993, -0.275397l 0.44993, -0.275053l 0.44993, -0.274709l 0.44993, -0.274366l 0.44993, -0.274022l 0.44993,
 -0.273678" fill="none" stroke="#ff0066" stroke-width="3"/>
<path d="M231.031,320.507l 0.44993, -0.273335l 0.44993, -0.272991l 0.44993, -0.272647l 0.44993, -0.272303l 0.44993, -0.27196l 0.44993, -0.271616l 0.44993, -0.271272l 0.44993, -0.270929l 0.44993, -0.270585l 0.44993, -0.270241l 0.44993, -0.269897l
 0.44993, -0.269554l 0.44993, -0.26921l 0.44993, -0.268866l 0.44993, -0.268523l 0.44993, -0.268179l 0.44993, -0.267835l 0.44993, -0.267491l 0.44993, -0.267148l 0.44993, -0.266804l 0.44993, -0.26646l 0.44993, -0.266116l 0.44993, -0.265773l 0.44993,
 -0.265429l 0.44993, -0.265085l 0.44993, -0.264742l 0.44993, -0.264398l 0.44993, -0.264054l 0.44993, -0.26371l 0.44993, -0.263367l 0.44993, -0.263023l 0.44993, -0.262679l 0.44993, -0.262336l 0.44993, -0.261992l 0.44993, -0.261648l 0.44993, -0.261304l
 0.44993, -0.260961l 0.44993, -0.260617l 0.44993, -0.260273l 0.44993, -0.25993l 0.44993, -0.259586l 0.44993, -0.259242l 0.44993, -0.258898l 0.44993, -0.258555l 0.44993, -0.258211l 0.44993, -0.257867l 0.44993, -0.257524l 0.44993, -0.25718l 0.44993,
 -0.256836" fill="none" stroke="#ff0066" stroke-width="3"/>
<path d="M253.078,307.517l 0.44993, -0.256492l 0.44993, -0.256149l 0.44993, -0.255805l 0.44993, -0.255461l 0.44993, -0.255117l 0.44993, -0.254774l 0.44993, -0.25443l 0.44993, -0.254086l 0.44993, -0.253743l 0.44993, -0.253399l 0.44993, -0.253055l
 0.44993, -0.252711l 0.44993, -0.252368l 0.44993, -0.252024l 0.44993, -0.25168l 0.44993, -0.251337l 0.44993, -0.250993l 0.44993, -0.250649l 0.44993, -0.250305l 0.44993, -0.249962l 0.44993, -0.249618l 0.44993, -0.249274l 0.44993, -0.248931l 0.44993,
 -0.248587l 0.44993, -0.248243l 0.44993, -0.247899l 0.44993, -0.247556l 0.44993, -0.247212l 0.44993, -0.246868l 0.44993, -0.246524l 0.44993, -0.246181l 0.44993, -0.245837l 0.44993, -0.245493l 0.44993, -0.24515l 0.44993, -0.244806l 0.44993, -0.244462l
 0.44993, -0.244118l 0.44993, -0.243775l 0.44993, -0.243431l 0.44993, -0.243087l 0.44993, -0.242744l 0.44993, -0.2424l 0.44993, -0.242056l 0.44993, -0.241712l 0.44993, -0.241369l 0.44993, -0.241025l 0.44993, -0.240681l 0.44993, -0.240338l 0.44993,
 -0.239994" fill="none" stroke="#ff0066" stroke-width="3"/>
<path d="M275.124,295.353l 0.44993, -0.23965l 0.44993, -0.239306l 0.44993, -0.238963l 0.44993, -0.238619l 0.44993, -0.238275l 0.44993, -0.237932l 0.44993, -0.237588l 0.44993, -0.237244l 0.44993, -0.2369l 0.44993, -0.236557l 0.44993, -0.236213l
 0.44993, -0.235869l 0.44993, -0.235525l 0.44993, -0.235182l 0.44993, -0.234838l 0.44993, -0.234494l 0.44993, -0.234151l 0.44993, -0.233807l 0.44993, -0.233463l 0.44993, -0.233119l 0.44993, -0.232776l 0.44993, -0.232432l 0.44993, -0.232088l 0.44993,
 -0.231745l 0.44993, -0.231401l 0.44993, -0.231057l 0.44993, -0.230713l 0.44993, -0.23037l 0.44993, -0.230026l 0.44993, -0.229682l 0.44993, -0.229339l 0.44993, -0.228995l 0.44993, -0.228651l 0.44993, -0.228307l 0.44993, -0.227964l 0.44993, -0.22762l
 0.44993, -0.227276l 0.44993, -0.226932l 0.44993, -0.226589l 0.44993, -0.226245l 0.44993, -0.225901l 0.44993, -0.225558l 0.44993, -0.225214l 0.44993, -0.22487l 0.44993, -0.224526l 0.44993, -0.224183l 0.44993, -0.223839l 0.44993, -0.223495l 0.44993,
 -0.223152" fill="none" stroke="#ff0066" stroke-width="3"/>
<path d="M297.171,284.015l 0.44993, -0.222808l 0.44993, -0.222464l 0.44993, -0.22212l 0.44993, -0.221777l 0.44993, -0.221433l 0.44993, -0.221089l 0.44993, -0.220746l 0.44993, -0.220402l 0.44993, -0.220058l 0.44993, -0.219714l 0.44993, -0.219371l
 0.44993, -0.219027l 0.44993, -0.218683l 0.44993, -0.218339l 0.44993, -0.217996l 0.44993, -0.217652l 0.44993, -0.217308l 0.44993, -0.216965l 0.44993, -0.216621l 0.44993, -0.216277l 0.44993, -0.215933l 0.44993, -0.21559l 0.44993, -0.215246l 0.44993,
 -0.214902l 0.44993, -0.214559l 0.44993, -0.214215l 0.44993, -0.213871l 0.44993, -0.213527l 0.44993, -0.213184l 0.44993, -0.21284l 0.44993, -0.212496l 0.44993, -0.212153l 0.44993, -0.211809l 0.44993, -0.211465l 0.44993, -0.211121l 0.44993, -0.210778l
 0.44993, -0.210434l 0.44993, -0.21009l 0.44993, -0.209746l 0.44993, -0.209403l 0.44993, -0.209059l 0.44993, -0.208715l 0.44993, -0.208372l 0.44993, -0.208028l 0.44993, -0.207684l 0.44993, -0.20734l 0.44993, -0.206997l 0.44993, -0.206653l 0.44993,
 -0.206309" fill="none" stroke="#ff0066" stroke-width="3"/>
<path d="M319.217,273.501l 0.44993, -0.205966l 0.44993, -0.205622l 0.44993, -0.205278l 0.44993, -0.204934l 0.44993, -0.204591l 0.44993, -0.204247l 0.44993, -0.203903l 0.44993, -0.20356l 0.44993, -0.203216l 0.44993, -0.202872l 0.44993, -0.202528l
 0.44993, -0.202185l 0.44993, -0.201841l 0.44993, -0.201497l 0.44993, -0.201154l 0.44993, -0.20081l 0.44993, -0.200466l 0.44993, -0.200122l 0.44993, -0.199779l 0.44993, -0.199435l 0.44993, -0.199091l 0.44993, -0.198747l 0.44993, -0.198404l 0.44993,
 -0.19806l 0.44993, -0.197716l 0.44993, -0.197373l 0.44993, -0.197029l 0.44993, -0.196685l 0.44993, -0.196341l 0.44993, -0.195998l 0.44993, -0.195654l 0.44993, -0.19531l 0.44993, -0.194967l 0.44993, -0.194623l 0.44993, -0.194279l 0.44993, -0.193935l
 0.44993, -0.193592l 0.44993, -0.193248l 0.44993, -0.192904l 0.44993, -0.192561l 0.44993, -0.192217l 0.44993, -0.191873l 0.44993, -0.191529l 0.44993, -0.191186l 0.44993, -0.190842l 0.44993, -0.190498l 0.44993, -0.190154l 0.44993, -0.189811l 0.44993,
 -0.189467" fill="none" stroke="#ff0066" stroke-width="3"/>
<path d="M341.264,263.813l 0.44993, -0.189123l 0.44993, -0.18878l 0.44993, -0.188436l 0.44993, -0.188092l 0.44993, -0.187748l 0.44993, -0.187405l 0.44993, -0.187061l 0.44993, -0.186717l 0.44993, -0.186374l 0.44993, -0.18603l 0.44993, -0.185686l
 0.44993, -0.185342l 0.44993, -0.184999l 0.44993, -0.184655l 0.44993, -0.184311l 0.44993, -0.183968l 0.44993, -0.183624l 0.44993, -0.18328l 0.44993, -0.182936l 0.44993, -0.182593l 0.44993, -0.182249l 0.44993, -0.181905l 0.44993, -0.181561l 0.44993,
 -0.181218l 0.44993, -0.180874l 0.44993, -0.18053l 0.44993, -0.180187l 0.44993, -0.179843l 0.44993, -0.179499l 0.44993, -0.179155l 0.44993, -0.178812l 0.44993, -0.178468l 0.44993, -0.178124l 0.44993, -0.177781l 0.44993, -0.177437l 0.44993, -0.177093l
 0.44993, -0.176749l 0.44993, -0.176406l 0.44993, -0.176062l 0.44993, -0.175718l 0.44993, -0.175375l 0.44993, -0.175031l 0.44993, -0.174687l 0.44993, -0.174343l 0.44993, -0.174l 0.44993, -0.173656l 0.44993, -0.173312l 0.44993, -0.172969l 0.44993,
 -0.172625" fill="none" stroke="#ff0066" stroke-width="3"/>
<path d="M363.311,254.95l 0.44993, -0.172281l 0.44993, -0.171937l 0.44993, -0.171594l 0.44993, -0.17125l 0.44993, -0.170906l 0.44993, -0.170562l 0.44993, -0.170219l 0.44993, -0.169875l 0.44993, -0.169531l 0.44993, -0.169188l 0.44993, -0.168844l
 0.44993, -0.1685l 0.44993, -0.168156l 0.44993, -0.167813l 0.44993, -0.167469l 0.44993, -0.167125l 0.44993, -0.166782l 0.44993, -0.166438l 0.44993, -0.166094l 0.44993, -0.16575l 0.44993, -0.165407l 0.44993, -0.165063l 0.44993, -0.164719l 0.44993,
 -0.164376l 0.44993, -0.164032l 0.44993, -0.163688l 0.44993, -0.163344l 0.44993, -0.163001l 0.44993, -0.162657l 0.44993, -0.162313l 0.44993, -0.161969l 0.44993, -0.161626l 0.44993, -0.161282l 0.44993, -0.160938l 0.44993, -0.160595l 0.44993,
 -0.160251l 0.44993, -0.159907l 0.44993, -0.159563l 0.44993, -0.15922l 0.44993, -0.158876l 0.44993, -0.158532l 0.44993, -0.158189l 0.44993, -0.157845l 0.44993, -0.157501l 0.44993, -0.157157l 0.44993, -0.156814l 0.44993, -0.15647l 0.44993, -0.156126l
 0.44993, -0.155783" fill="none" stroke="#ff0066" stroke-width="3"/>
<path d="M385.357,246.913l 0.44993, -0.155439l 0.44993, -0.155095l 0.44993, -0.154751l 0.44993, -0.154408l 0.44993, -0.154064l 0.44993, -0.15372l 0.44993, -0.153376l 0.44993, -0.153033l 0.44993, -0.152689l 0.44993, -0.152345l 0.44993, -0.152002l
 0.44993, -0.151658l 0.44993, -0.151314l 0.44993, -0.15097l 0.44993, -0.150627l 0.44993, -0.150283l 0.44993, -0.149939l 0.44993, -0.149596l 0.44993, -0.149252l 0.44993, -0.148908l 0.44993, -0.148564l 0.44993, -0.148221l 0.44993, -0.147877l 0.44993,
 -0.147533l 0.44993, -0.14719l 0.44993, -0.146846l 0.44993, -0.146502l 0.44993, -0.146158l 0.44993, -0.145815l 0.44993, -0.145471l 0.44993, -0.145127l 0.44993, -0.144784l 0.44993, -0.14444l 0.44993, -0.144096l 0.44993, -0.143752l 0.44993, -0.143409l
 0.44993, -0.143065l 0.44993, -0.142721l 0.44993, -0.142377l 0.44993, -0.142034l 0.44993, -0.14169l 0.44993, -0.141346l 0.44993, -0.141003l 0.44993, -0.140659l 0.44993, -0.140315l 0.44993, -0.139971l 0.44993, -0.139628l 0.44993, -0.139284l 0.44993,
 -0.13894" fill="none" stroke="#ff0066" stroke-width="3"/>
<path d="M407.404,239.701l 0.44993, -0.138597l 0.44993, -0.138253l 0.44993, -0.137909l 0.44993, -0.137565l 0.44993, -0.137222l 0.44993, -0.136878l 0.44993, -0.136534l 0.44993, -0.136191l 0.44993, -0.135847l 0.44993, -0.135503l 0.44993, -0.135159l
 0.44993, -0.134816l 0.44993, -0.134472l 0.44993, -0.134128l 0.44993, -0.133784l 0.44993, -0.133441l 0.44993, -0.133097l 0.44993, -0.132753l 0.44993, -0.13241l 0.44993, -0.132066l 0.44993, -0.131722l 0.44993, -0.131378l 0.44993, -0.131035l 0.44993,
 -0.130691l 0.44993, -0.130347l 0.44993, -0.130004l 0.44993, -0.12966l 0.44993, -0.129316l 0.44993, -0.128972l 0.44993, -0.128629l 0.44993, -0.128285l 0.44993, -0.127941l 0.44993, -0.127598l 0.44993, -0.127254l 0.44993, -0.12691l 0.44993, -0.126566l
 0.44993, -0.126223l 0.44993, -0.125879l 0.44993, -0.125535l 0.44993, -0.125191l 0.44993, -0.124848l 0.44993, -0.124504l 0.44993, -0.12416l 0.44993, -0.123817l 0.44993, -0.123473l 0.44993, -0.123129l 0.44993, -0.122785l 0.44993, -0.122442l 0.44993,
 -0.122098" fill="none" stroke="#ff0066" stroke-width="3"/>
<path d="M429.45,233.314l 0.44993, -0.121754l 0.44993, -0.121411l 0.44993, -0.121067l 0.44993, -0.120723l 0.44993, -0.120379l 0.44993, -0.120036l 0.44993, -0.119692l 0.44993, -0.119348l 0.44993, -0.119005l 0.44993, -0.118661l 0.44993, -0.118317l
 0.44993, -0.117973l 0.44993, -0.11763l 0.44993, -0.117286l 0.44993, -0.116942l 0.44993, -0.116599l 0.44993, -0.116255l 0.44993, -0.115911l 0.44993, -0.115567l 0.44993, -0.115224l 0.44993, -0.11488l 0.44993, -0.114536l 0.44993, -0.114192l 0.44993,
 -0.113849l 0.44993, -0.113505l 0.44993, -0.113161l 0.44993, -0.112818l 0.44993, -0.112474l 0.44993, -0.11213l 0.44993, -0.111786l 0.44993, -0.111443l 0.44993, -0.111099l 0.44993, -0.110755l 0.44993, -0.110412l 0.44993, -0.110068l 0.44993, -0.109724l
 0.44993, -0.10938l 0.44993, -0.109037l 0.44993, -0.108693l 0.44993, -0.108349l 0.44993, -0.108006l 0.44993, -0.107662l 0.44993, -0.107318l 0.44993, -0.106974l 0.44993, -0.106631l 0.44993, -0.106287l 0.44993, -0.105943l 0.44993, -0.105599l 0.44993,
 -0.105256" fill="none" stroke="#ff0066" stroke-width="3"/>
<path d="M451.497,227.752l 0.44993, -0.104912l 0.44993, -0.104568l 0.44993, -0.104225l 0.44993, -0.103881l 0.44993, -0.103537l 0.44993, -0.103193l 0.44993, -0.10285l 0.44993, -0.102506l 0.44993, -0.102162l 0.44993, -0.101819l 0.44993, -0.101475l
 0.44993, -0.101131l 0.44993, -0.100787l 0.44993, -0.100444l 0.44993, -0.1001l 0.44993, -0.0997562l 0.44993, -0.0994125l 0.44993, -0.0990688l 0.44993, -0.0987251l 0.44993, -0.0983814l 0.44993, -0.0980376l 0.44993, -0.0976939l 0.44993, -0.0973502l
 0.44993, -0.0970065l 0.44993, -0.0966628l 0.44993, -0.096319l 0.44993, -0.0959753l 0.44993, -0.0956316l 0.44993, -0.0952879l 0.44993, -0.0949442l 0.44993, -0.0946005l 0.44993, -0.0942567l 0.44993, -0.093913l 0.44993, -0.0935693l 0.44993, -0.0932256l
 0.44993, -0.0928819l 0.44993, -0.0925381l 0.44993, -0.0921944l 0.44993, -0.0918507l 0.44993, -0.091507l 0.44993, -0.0911633l 0.44993, -0.0908195l 0.44993, -0.0904758l 0.44993, -0.0901321l 0.44993, -0.0897884l 0.44993, -0.0894447l 0.44993,
 -0.0891009l 0.44993, -0.0887572l 0.44993, -0.0884135" fill="none" stroke="#ff0066" stroke-width="3"/>
<path d="M473.543,223.015l 0.44993, -0.0880698l 0.44993, -0.0877261l 0.44993, -0.0873823l 0.44993, -0.0870386l 0.44993, -0.0866949l 0.44993, -0.0863512l 0.44993, -0.0860075l 0.44993, -0.0856637l 0.44993, -0.08532l 0.44993, -0.0849763l 0.44993,
 -0.0846326l 0.44993, -0.0842889l 0.44993, -0.0839451l 0.44993, -0.0836014l 0.44993, -0.0832577l 0.44993, -0.082914l 0.44993, -0.0825703l 0.44993, -0.0822266l 0.44993, -0.0818828l 0.44993, -0.0815391l 0.44993, -0.0811954l 0.44993, -0.0808517l
 0.44993, -0.080508l 0.44993, -0.0801642l 0.44993, -0.0798205l 0.44993, -0.0794768l 0.44993, -0.0791331l 0.44993, -0.0787894l 0.44993, -0.0784456l 0.44993, -0.0781019l 0.44993, -0.0777582l 0.44993, -0.0774145l 0.44993, -0.0770708l 0.44993, -0.076727l
 0.44993, -0.0763833l 0.44993, -0.0760396l 0.44993, -0.0756959l 0.44993, -0.0753522l 0.44993, -0.0750084l 0.44993, -0.0746647l 0.44993, -0.074321l 0.44993, -0.0739773l 0.44993, -0.0736336l 0.44993, -0.0732898l 0.44993, -0.0729461l 0.44993,
 -0.0726024l 0.44993, -0.0722587l 0.44993, -0.071915l 0.44993, -0.0715712" fill="none" stroke="#ff0066" stroke-width="3"/>
<path d="M495.59,219.104l 0.44993, -0.0712275l 0.44993, -0.0708838l 0.44993, -0.0705401l 0.44993, -0.0701964l 0.44993, -0.0698527l 0.44993, -0.0695089l 0.44993, -0.0691652l 0.44993, -0.0688215l 0.44993, -0.0684778l 0.44993, -0.068134l 0.44993,
 -0.0677903l 0.44993, -0.0674466l 0.44993, -0.0671029l 0.44993, -0.0667592l 0.44993, -0.0664155l 0.44993, -0.0660717l 0.44993, -0.065728l 0.44993, -0.0653843l 0.44993, -0.0650406l 0.44993, -0.0646969l 0.44993, -0.0643531l 0.44993, -0.0640094l
 0.44993, -0.0636657l 0.44993, -0.063322l 0.44993, -0.0629783l 0.44993, -0.0626345l 0.44993, -0.0622908l 0.44993, -0.0619471l 0.44993, -0.0616034l 0.44993, -0.0612597l 0.44993, -0.0609159l 0.44993, -0.0605722l 0.44993, -0.0602285l 0.44993,
 -0.0598848l 0.44993, -0.0595411l 0.44993, -0.0591973l 0.44993, -0.0588536l 0.44993, -0.0585099l 0.44993, -0.0581662l 0.44993, -0.0578225l 0.44993, -0.0574787l 0.44993, -0.057135l 0.44993, -0.0567913l 0.44993, -0.0564476l 0.44993, -0.0561039l
 0.44993, -0.0557601l 0.44993, -0.0554164l 0.44993, -0.0550727l 0.44993, -0.054729" fill="none" stroke="#ff0066" stroke-width="3"/>
<path d="M517.636,216.018l 0.44993, -0.0543853l 0.44993, -0.0540415l 0.44993, -0.0536978l 0.44993, -0.0533541l 0.44993, -0.0530104l 0.44993, -0.0526667l 0.44993, -0.052323l 0.44993, -0.0519792l 0.44993, -0.0516355l 0.44993, -0.0512918l 0.44993,
 -0.0509481l 0.44993, -0.0506044l 0.44993, -0.0502606l 0.44993, -0.0499169l 0.44993, -0.0495732l 0.44993, -0.0492295l 0.44993, -0.0488858l 0.44993, -0.048542l 0.44993, -0.0481983l 0.44993, -0.0478546l 0.44993, -0.0475109l 0.44993, -0.0471672l
 0.44993, -0.0468234l 0.44993, -0.0464797l 0.44993, -0.046136l 0.44993, -0.0457923l 0.44993, -0.0454486l 0.44993, -0.0451048l 0.44993, -0.0447611l 0.44993, -0.0444174l 0.44993, -0.0440737l 0.44993, -0.04373l 0.44993, -0.0433862l 0.44993, -0.0430425l
 0.44993, -0.0426988l 0.44993, -0.0423551l 0.44993, -0.0420114l 0.44993, -0.0416676l 0.44993, -0.0413239l 0.44993, -0.0409802l 0.44993, -0.0406365l 0.44993, -0.0402928l 0.44993, -0.039949l 0.44993, -0.0396053l 0.44993, -0.0392616l 0.44993,
 -0.0389179l 0.44993, -0.0385742l 0.44993, -0.0382304l 0.44993, -0.0378867" fill="none" stroke="#ff0066" stroke-width="3"/>
<path d="M539.683,213.758l 0.44993, -0.037543l 0.44993, -0.0371993l 0.44993, -0.0368556l 0.44993, -0.0365119l 0.44993, -0.0361681l 0.44993, -0.0358244l 0.44993, -0.0354807l 0.44993, -0.035137l 0.44993, -0.0347933l 0.44993, -0.0344495l 0.44993,
 -0.0341058l 0.44993, -0.0337621l 0.44993, -0.0334184l 0.44993, -0.0330747l 0.44993, -0.0327309l 0.44993, -0.0323872l 0.44993, -0.0320435l 0.44993, -0.0316998l 0.44993, -0.0313561" fill="none" stroke="#ff0066" stroke-width="3"/>
<path d="M248.503,21.4167h 239.963" fill="none" stroke="#999999" stroke-width="7"/>
<text xml:space="preserve" x="360.607" y="50.7193" fill="black" font-size="16.0105" font-family="Helvetica"> with EMC</text>
<text xml:space="preserve" x="352.717" y="50.7193" fill="black" font-size="16.0105" font-family="Times">&#0947;</text>
<text xml:space="preserve" x="344.828" y="50.7193" fill="black" font-size="16.0105" font-family="Times">&#0947;</text>
<text xml:space="preserve" x="336.938" y="50.7193" fill="black" font-size="16.0105" font-family="Times">&#0947;</text>
<text xml:space="preserve" x="331.866" y="50.7193" fill="black" font-size="16.0105" font-family="Helvetica"> </text>
<text xml:space="preserve" x="316.65" y="50.7193" fill="black" font-size="16.0105" font-family="Times">&#8594;</text>
<text xml:space="preserve" x="311.578" y="50.7193" fill="black" font-size="16.0105" font-family="Helvetica"> </text>
<text xml:space="preserve" x="303.689" y="50.7193" fill="black" font-size="16.0105" font-family="Times">&#0947;</text>
<text xml:space="preserve" x="298.053" y="45.0838" fill="black" font-size="10.8403" font-family="Helvetica">0</text>
<text xml:space="preserve" x="289.6" y="50.7193" fill="black" font-size="16.0105" font-family="Times">&#0960;</text>
<text xml:space="preserve" x="284.528" y="50.7193" fill="black" font-size="16.0105" font-family="Helvetica"> </text>
<text xml:space="preserve" x="269.312" y="50.7193" fill="black" font-size="16.0105" font-family="Times">&#8594;</text>
<text xml:space="preserve" x="264.24" y="50.7193" fill="black" font-size="16.0105" font-family="Helvetica"> </text>
<text xml:space="preserve" x="252.969" y="50.7193" fill="black" font-size="16.0105" font-family="Times">&#0969;</text>
<text xml:space="preserve" x="128.989" y="50.7193" fill="black" font-size="16.0105" font-family="Helvetica"> = 13 TeV (EG1), </text>
<text xml:space="preserve" x="120.536" y="50.7193" fill="black" font-size="16.0105" font-family="Helvetica" font-style="oblique">s</text>
<path d="M114.9,41.7025l 1.69064, 9.58031" fill="none" stroke="black" stroke-width="2"/>
<path d="M116.591,51.2829l 2.25419, -14.0887" fill="none" stroke="black"/>
<path d="M118.845,37.1942h 10.1439" fill="none" stroke="black"/>
<text xml:space="preserve" x="89.5406" y="50.7193" fill="black" font-size="16.0105" font-family="Helvetica">pp </text>
<text xml:space="preserve" x="89.5406" y="85.6593" fill="black" font-size="16.0105" font-family="Helvetica">ALICE work in progress</text>
<text xml:space="preserve" x="205.068" y="120.599" fill="black" font-size="16.0105" font-family="Helvetica">) &lt; 10.0</text>
<text xml:space="preserve" x="196.051" y="120.599" fill="black" font-size="16.0105" font-family="Helvetica" font-style="oblique">c</text>
<text xml:space="preserve" x="145.895" y="120.599" fill="black" font-size="16.0105" font-family="Helvetica"> /(GeV/</text>
<text xml:space="preserve" x="139.133" y="128.489" fill="black" font-size="10.8403" font-family="Helvetica">T</text>
<text xml:space="preserve" x="129.552" y="120.599" fill="black" font-size="16.0105" font-family="Helvetica" font-style="oblique">p</text>
<text xml:space="preserve" x="124.481" y="120.599" fill="black" font-size="16.0105" font-family="Helvetica"> </text>
<text xml:space="preserve" x="116.027" y="120.599" fill="black" font-size="16.0105" font-family="Times">&#8804;</text>
<text xml:space="preserve" x="89.5406" y="120.599" fill="black" font-size="16.0105" font-family="Helvetica">8.0 </text>
<rect x="312.311" y="69.1755" width="198.425" height="113.448" fill="white"/>
<text xml:space="preserve" x="361.734" y="85.0957" fill="black" font-size="16.0105" font-family="Helvetica">ratio</text>
<path d="M319.752,80.5203h 34.7244" fill="none" stroke="black" stroke-width="2"/>
<g fill="black">
<circle cx="337.114" cy="80.5203" r="6.76257"/>
</g>
<text xml:space="preserve" x="361.734" y="108.201" fill="black" font-size="16.0105" font-family="Helvetica">peak range</text>
<path d="M319.752,103.21h 34.7244" fill="none" stroke="#333333" stroke-width="2"/>
<g stroke="#333333" stroke-width="2" fill="none">
<circle cx="337.114" cy="103.21" r="5.63548"/>
</g>
<text xml:space="preserve" x="361.734" y="130.743" fill="black" font-size="16.0105" font-family="Helvetica">background pol1</text>
<path d="M319.752,125.899h 34.7244" fill="none" stroke="#33cccc" stroke-width="3"/>
<text xml:space="preserve" x="361.734" y="153.285" fill="black" font-size="16.0105" font-family="Helvetica">background pol2</text>
<path d="M319.752,148.589h 34.7244" fill="none" stroke="#ff0066" stroke-width="3"/>
<text xml:space="preserve" x="361.734" y="175.827" fill="black" font-size="16.0105" font-family="Helvetica">param. range</text>
<path d="M319.752,171.279h 34.7244" fill="none" stroke="#999999" stroke-width="7"/></svg>
