<?xml version="1.0" standalone="no"?>
<svg width="567.429" height="553.904" viewBox="0 0 567.429 553.904" xmlns="http://www.w3.org/2000/svg" shape-rendering="crispEdges">
<title>
MC/EG1/OmegaTGPSPSNCell/SameEventToBackgroundRatio_04.svg
</title>
<desc>
Creator: ROOT Version 6.20/08
CreationDate: Mon Mar 29 21:31:15 2021</desc>
<defs>
</defs>
<rect x="0.5" y="0" width="566.929" height="553.404" fill="white"/>
<rect x="68.5315" y="16.6021" width="484.724" height="481.461" fill="white"/>
<rect x="68.5315" y="16.6021" width="484.724" height="481.461" fill="none" stroke="black"/>
<rect x="68.5315" y="16.6021" width="484.724" height="481.461" fill="white"/>
<rect x="68.5315" y="16.6021" width="484.724" height="481.461" fill="none" stroke="black"/>
<g fill="black">
<circle cx="109.325" cy="336.518" r="6.76257"/>
</g>
<g fill="black">
<circle cx="114.124" cy="197.15" r="6.76257"/>
</g>
<g fill="black">
<circle cx="118.924" cy="206.821" r="6.76257"/>
</g>
<g fill="black">
<circle cx="123.723" cy="237.443" r="6.76257"/>
</g>
<g fill="black">
<circle cx="128.522" cy="292.789" r="6.76257"/>
</g>
<g fill="black">
<circle cx="133.321" cy="339.392" r="6.76257"/>
</g>
<g fill="black">
<circle cx="138.121" cy="329.396" r="6.76257"/>
</g>
<g fill="black">
<circle cx="142.92" cy="330.389" r="6.76257"/>
</g>
<g fill="black">
<circle cx="147.719" cy="325.349" r="6.76257"/>
</g>
<g fill="black">
<circle cx="152.518" cy="323.475" r="6.76257"/>
</g>
<g fill="black">
<circle cx="157.318" cy="323.621" r="6.76257"/>
</g>
<g fill="black">
<circle cx="162.117" cy="323.333" r="6.76257"/>
</g>
<g fill="black">
<circle cx="166.916" cy="322.642" r="6.76257"/>
</g>
<g fill="black">
<circle cx="171.715" cy="323.285" r="6.76257"/>
</g>
<g fill="black">
<circle cx="176.515" cy="321.25" r="6.76257"/>
</g>
<g fill="black">
<circle cx="181.314" cy="322.274" r="6.76257"/>
</g>
<g fill="black">
<circle cx="186.113" cy="320.714" r="6.76257"/>
</g>
<g fill="black">
<circle cx="190.912" cy="320.995" r="6.76257"/>
</g>
<g fill="black">
<circle cx="195.712" cy="318.223" r="6.76257"/>
</g>
<g fill="black">
<circle cx="200.511" cy="317.11" r="6.76257"/>
</g>
<g fill="black">
<circle cx="205.31" cy="318.115" r="6.76257"/>
</g>
<g fill="black">
<circle cx="210.109" cy="316.015" r="6.76257"/>
</g>
<g fill="black">
<circle cx="214.909" cy="315.635" r="6.76257"/>
</g>
<g fill="black">
<circle cx="219.708" cy="313.78" r="6.76257"/>
</g>
<g fill="black">
<circle cx="224.507" cy="313.259" r="6.76257"/>
</g>
<g fill="black">
<circle cx="229.306" cy="312.899" r="6.76257"/>
</g>
<g fill="black">
<circle cx="234.106" cy="311.297" r="6.76257"/>
</g>
<g fill="black">
<circle cx="238.905" cy="308.392" r="6.76257"/>
</g>
<g fill="black">
<circle cx="243.704" cy="306.048" r="6.76257"/>
</g>
<g fill="black">
<circle cx="248.503" cy="304.773" r="6.76257"/>
</g>
<g fill="black">
<circle cx="253.303" cy="302.704" r="6.76257"/>
</g>
<g fill="black">
<circle cx="258.102" cy="301.05" r="6.76257"/>
</g>
<g fill="black">
<circle cx="262.901" cy="299.872" r="6.76257"/>
</g>
<g fill="black">
<circle cx="267.7" cy="297.782" r="6.76257"/>
</g>
<g fill="black">
<circle cx="272.5" cy="297.136" r="6.76257"/>
</g>
<g fill="black">
<circle cx="277.299" cy="296.208" r="6.76257"/>
</g>
<g fill="black">
<circle cx="339.689" cy="275.658" r="6.76257"/>
</g>
<g fill="black">
<circle cx="344.488" cy="275.127" r="6.76257"/>
</g>
<g fill="black">
<circle cx="349.288" cy="272.476" r="6.76257"/>
</g>
<g fill="black">
<circle cx="354.087" cy="272.524" r="6.76257"/>
</g>
<g fill="black">
<circle cx="358.886" cy="271.368" r="6.76257"/>
</g>
<g fill="black">
<circle cx="363.685" cy="271.257" r="6.76257"/>
</g>
<g fill="black">
<circle cx="368.485" cy="267.813" r="6.76257"/>
</g>
<g fill="black">
<circle cx="373.284" cy="266.505" r="6.76257"/>
</g>
<g fill="black">
<circle cx="378.083" cy="265.289" r="6.76257"/>
</g>
<g fill="black">
<circle cx="382.882" cy="264.141" r="6.76257"/>
</g>
<g fill="black">
<circle cx="387.682" cy="261.998" r="6.76257"/>
</g>
<g fill="black">
<circle cx="392.481" cy="261.134" r="6.76257"/>
</g>
<g fill="black">
<circle cx="397.28" cy="261.746" r="6.76257"/>
</g>
<g fill="black">
<circle cx="402.079" cy="258.907" r="6.76257"/>
</g>
<g fill="black">
<circle cx="406.879" cy="258.148" r="6.76257"/>
</g>
<g fill="black">
<circle cx="411.678" cy="254.595" r="6.76257"/>
</g>
<g fill="black">
<circle cx="416.477" cy="253.275" r="6.76257"/>
</g>
<g fill="black">
<circle cx="421.276" cy="250.938" r="6.76257"/>
</g>
<g fill="black">
<circle cx="426.076" cy="249.548" r="6.76257"/>
</g>
<g fill="black">
<circle cx="430.875" cy="249.542" r="6.76257"/>
</g>
<g fill="black">
<circle cx="435.674" cy="246.164" r="6.76257"/>
</g>
<g fill="black">
<circle cx="440.473" cy="245.993" r="6.76257"/>
</g>
<g fill="black">
<circle cx="445.273" cy="241.914" r="6.76257"/>
</g>
<g fill="black">
<circle cx="450.072" cy="241.932" r="6.76257"/>
</g>
<g fill="black">
<circle cx="454.871" cy="242.479" r="6.76257"/>
</g>
<g fill="black">
<circle cx="459.671" cy="239.165" r="6.76257"/>
</g>
<g fill="black">
<circle cx="464.47" cy="236.509" r="6.76257"/>
</g>
<g fill="black">
<circle cx="469.269" cy="238.731" r="6.76257"/>
</g>
<g fill="black">
<circle cx="474.068" cy="236.014" r="6.76257"/>
</g>
<g fill="black">
<circle cx="478.867" cy="234.623" r="6.76257"/>
</g>
<g fill="black">
<circle cx="483.667" cy="234.464" r="6.76257"/>
</g>
<g fill="black">
<circle cx="488.466" cy="231.662" r="6.76257"/>
</g>
<g fill="black">
<circle cx="493.265" cy="226.072" r="6.76257"/>
</g>
<g fill="black">
<circle cx="498.065" cy="225.696" r="6.76257"/>
</g>
<g fill="black">
<circle cx="502.864" cy="221.719" r="6.76257"/>
</g>
<g fill="black">
<circle cx="507.663" cy="223.076" r="6.76257"/>
</g>
<g fill="black">
<circle cx="512.462" cy="220.731" r="6.76257"/>
</g>
<g fill="black">
<circle cx="517.262" cy="220.873" r="6.76257"/>
</g>
<g fill="black">
<circle cx="522.061" cy="215.446" r="6.76257"/>
</g>
<g fill="black">
<circle cx="526.86" cy="213.832" r="6.76257"/>
</g>
<g fill="black">
<circle cx="531.659" cy="211.106" r="6.76257"/>
</g>
<g fill="black">
<circle cx="536.458" cy="214.128" r="6.76257"/>
</g>
<g fill="black">
<circle cx="541.258" cy="209.721" r="6.76257"/>
</g>
<g fill="black">
<circle cx="546.057" cy="204.144" r="6.76257"/>
</g>
<path d="M68.5315,498.064h 484.724" fill="none" stroke="black"/>
<path d="M68.5315,483.869v 14.1948" fill="none" stroke="black"/>
<path d="M83.5292,490.966v 7.09741" fill="none" stroke="black"/>
<path d="M98.5268,490.966v 7.09741" fill="none" stroke="black"/>
<path d="M113.524,490.966v 7.09741" fill="none" stroke="black"/>
<path d="M128.522,483.869v 14.1948" fill="none" stroke="black"/>
<path d="M143.52,490.966v 7.09741" fill="none" stroke="black"/>
<path d="M158.517,490.966v 7.09741" fill="none" stroke="black"/>
<path d="M173.515,490.966v 7.09741" fill="none" stroke="black"/>
<path d="M188.513,483.869v 14.1948" fill="none" stroke="black"/>
<path d="M203.51,490.966v 7.09741" fill="none" stroke="black"/>
<path d="M218.508,490.966v 7.09741" fill="none" stroke="black"/>
<path d="M233.506,490.966v 7.09741" fill="none" stroke="black"/>
<path d="M248.503,483.869v 14.1948" fill="none" stroke="black"/>
<path d="M263.501,490.966v 7.09741" fill="none" stroke="black"/>
<path d="M278.499,490.966v 7.09741" fill="none" stroke="black"/>
<path d="M293.496,490.966v 7.09741" fill="none" stroke="black"/>
<path d="M308.494,483.869v 14.1948" fill="none" stroke="black"/>
<path d="M323.492,490.966v 7.09741" fill="none" stroke="black"/>
<path d="M338.489,490.966v 7.09741" fill="none" stroke="black"/>
<path d="M353.487,490.966v 7.09741" fill="none" stroke="black"/>
<path d="M368.485,483.869v 14.1948" fill="none" stroke="black"/>
<path d="M383.482,490.966v 7.09741" fill="none" stroke="black"/>
<path d="M398.48,490.966v 7.09741" fill="none" stroke="black"/>
<path d="M413.478,490.966v 7.09741" fill="none" stroke="black"/>
<path d="M428.475,483.869v 14.1948" fill="none" stroke="black"/>
<path d="M443.473,490.966v 7.09741" fill="none" stroke="black"/>
<path d="M458.471,490.966v 7.09741" fill="none" stroke="black"/>
<path d="M473.468,490.966v 7.09741" fill="none" stroke="black"/>
<path d="M488.466,483.869v 14.1948" fill="none" stroke="black"/>
<path d="M503.464,490.966v 7.09741" fill="none" stroke="black"/>
<path d="M518.461,490.966v 7.09741" fill="none" stroke="black"/>
<path d="M533.459,490.966v 7.09741" fill="none" stroke="black"/>
<path d="M548.457,483.869v 14.1948" fill="none" stroke="black"/>
<path d="M548.457,483.869v 14.1948" fill="none" stroke="black"/>
<text xml:space="preserve" x="63.6174" y="513.956" fill="black" font-size="16.0105" font-family="Helvetica">0</text>
<text xml:space="preserve" x="117.718" y="513.956" fill="black" font-size="16.0105" font-family="Helvetica">0.2</text>
<text xml:space="preserve" x="177.454" y="513.956" fill="black" font-size="16.0105" font-family="Helvetica">0.4</text>
<text xml:space="preserve" x="237.754" y="513.956" fill="black" font-size="16.0105" font-family="Helvetica">0.6</text>
<text xml:space="preserve" x="297.49" y="513.956" fill="black" font-size="16.0105" font-family="Helvetica">0.8</text>
<text xml:space="preserve" x="365.115" y="513.956" fill="black" font-size="16.0105" font-family="Helvetica">1</text>
<text xml:space="preserve" x="417.525" y="513.956" fill="black" font-size="16.0105" font-family="Helvetica">1.2</text>
<text xml:space="preserve" x="477.261" y="513.956" fill="black" font-size="16.0105" font-family="Helvetica">1.4</text>
<text xml:space="preserve" x="537.561" y="513.956" fill="black" font-size="16.0105" font-family="Helvetica">1.6</text>
<text xml:space="preserve" x="548.268" y="537.625" fill="black" font-size="16.0105" font-family="Helvetica">)</text>
<text xml:space="preserve" x="542.633" y="532.553" fill="black" font-size="10.8403" font-family="Helvetica">2</text>
<text xml:space="preserve" x="533.616" y="537.625" fill="black" font-size="16.0105" font-family="Helvetica" font-style="oblique">c</text>
<text xml:space="preserve" x="487.405" y="537.625" fill="black" font-size="16.0105" font-family="Helvetica"> (GeV/</text>
<text xml:space="preserve" x="473.317" y="542.697" fill="black" font-size="10.8403" font-family="Helvetica">inv</text>
<text xml:space="preserve" x="459.792" y="537.625" fill="black" font-size="16.0105" font-family="Helvetica" font-style="oblique">m</text>
<path d="M68.5315,16.6021h 484.724" fill="none" stroke="black"/>
<path d="M68.5315,30.7969v -14.1948" fill="none" stroke="black"/>
<path d="M83.5292,23.6995v -7.09741" fill="none" stroke="black"/>
<path d="M98.5268,23.6995v -7.09741" fill="none" stroke="black"/>
<path d="M113.524,23.6995v -7.09741" fill="none" stroke="black"/>
<path d="M128.522,30.7969v -14.1948" fill="none" stroke="black"/>
<path d="M143.52,23.6995v -7.09741" fill="none" stroke="black"/>
<path d="M158.517,23.6995v -7.09741" fill="none" stroke="black"/>
<path d="M173.515,23.6995v -7.09741" fill="none" stroke="black"/>
<path d="M188.513,30.7969v -14.1948" fill="none" stroke="black"/>
<path d="M203.51,23.6995v -7.09741" fill="none" stroke="black"/>
<path d="M218.508,23.6995v -7.09741" fill="none" stroke="black"/>
<path d="M233.506,23.6995v -7.09741" fill="none" stroke="black"/>
<path d="M248.503,30.7969v -14.1948" fill="none" stroke="black"/>
<path d="M263.501,23.6995v -7.09741" fill="none" stroke="black"/>
<path d="M278.499,23.6995v -7.09741" fill="none" stroke="black"/>
<path d="M293.496,23.6995v -7.09741" fill="none" stroke="black"/>
<path d="M308.494,30.7969v -14.1948" fill="none" stroke="black"/>
<path d="M323.492,23.6995v -7.09741" fill="none" stroke="black"/>
<path d="M338.489,23.6995v -7.09741" fill="none" stroke="black"/>
<path d="M353.487,23.6995v -7.09741" fill="none" stroke="black"/>
<path d="M368.485,30.7969v -14.1948" fill="none" stroke="black"/>
<path d="M383.482,23.6995v -7.09741" fill="none" stroke="black"/>
<path d="M398.48,23.6995v -7.09741" fill="none" stroke="black"/>
<path d="M413.478,23.6995v -7.09741" fill="none" stroke="black"/>
<path d="M428.475,30.7969v -14.1948" fill="none" stroke="black"/>
<path d="M443.473,23.6995v -7.09741" fill="none" stroke="black"/>
<path d="M458.471,23.6995v -7.09741" fill="none" stroke="black"/>
<path d="M473.468,23.6995v -7.09741" fill="none" stroke="black"/>
<path d="M488.466,30.7969v -14.1948" fill="none" stroke="black"/>
<path d="M503.464,23.6995v -7.09741" fill="none" stroke="black"/>
<path d="M518.461,23.6995v -7.09741" fill="none" stroke="black"/>
<path d="M533.459,23.6995v -7.09741" fill="none" stroke="black"/>
<path d="M548.457,30.7969v -14.1948" fill="none" stroke="black"/>
<path d="M548.457,30.7969v -14.1948" fill="none" stroke="black"/>
<path d="M68.5315,498.064v -481.461" fill="none" stroke="black"/>
<path d="M83.3283,498.064h -14.7969" fill="none" stroke="black"/>
<path d="M75.9299,487.049h -7.39843" fill="none" stroke="black"/>
<path d="M75.9299,476.035h -7.39843" fill="none" stroke="black"/>
<path d="M75.9299,465.021h -7.39843" fill="none" stroke="black"/>
<path d="M75.9299,454.007h -7.39843" fill="none" stroke="black"/>
<path d="M83.3283,442.993h -14.7969" fill="none" stroke="black"/>
<path d="M75.9299,431.979h -7.39843" fill="none" stroke="black"/>
<path d="M75.9299,420.964h -7.39843" fill="none" stroke="black"/>
<path d="M75.9299,409.95h -7.39843" fill="none" stroke="black"/>
<path d="M75.9299,398.936h -7.39843" fill="none" stroke="black"/>
<path d="M83.3283,387.922h -14.7969" fill="none" stroke="black"/>
<path d="M75.9299,376.908h -7.39843" fill="none" stroke="black"/>
<path d="M75.9299,365.893h -7.39843" fill="none" stroke="black"/>
<path d="M75.9299,354.879h -7.39843" fill="none" stroke="black"/>
<path d="M75.9299,343.865h -7.39843" fill="none" stroke="black"/>
<path d="M83.3283,332.851h -14.7969" fill="none" stroke="black"/>
<path d="M75.9299,321.837h -7.39843" fill="none" stroke="black"/>
<path d="M75.9299,310.823h -7.39843" fill="none" stroke="black"/>
<path d="M75.9299,299.808h -7.39843" fill="none" stroke="black"/>
<path d="M75.9299,288.794h -7.39843" fill="none" stroke="black"/>
<path d="M83.3283,277.78h -14.7969" fill="none" stroke="black"/>
<path d="M75.9299,266.766h -7.39843" fill="none" stroke="black"/>
<path d="M75.9299,255.752h -7.39843" fill="none" stroke="black"/>
<path d="M75.9299,244.737h -7.39843" fill="none" stroke="black"/>
<path d="M75.9299,233.723h -7.39843" fill="none" stroke="black"/>
<path d="M83.3283,222.709h -14.7969" fill="none" stroke="black"/>
<path d="M75.9299,211.695h -7.39843" fill="none" stroke="black"/>
<path d="M75.9299,200.681h -7.39843" fill="none" stroke="black"/>
<path d="M75.9299,189.667h -7.39843" fill="none" stroke="black"/>
<path d="M75.9299,178.652h -7.39843" fill="none" stroke="black"/>
<path d="M83.3283,167.638h -14.7969" fill="none" stroke="black"/>
<path d="M75.9299,156.624h -7.39843" fill="none" stroke="black"/>
<path d="M75.9299,145.61h -7.39843" fill="none" stroke="black"/>
<path d="M75.9299,134.596h -7.39843" fill="none" stroke="black"/>
<path d="M75.9299,123.581h -7.39843" fill="none" stroke="black"/>
<path d="M83.3283,112.567h -14.7969" fill="none" stroke="black"/>
<path d="M75.9299,101.553h -7.39843" fill="none" stroke="black"/>
<path d="M75.9299,90.5389h -7.39843" fill="none" stroke="black"/>
<path d="M75.9299,79.5248h -7.39843" fill="none" stroke="black"/>
<path d="M75.9299,68.5106h -7.39843" fill="none" stroke="black"/>
<path d="M83.3283,57.4964h -14.7969" fill="none" stroke="black"/>
<path d="M83.3283,57.4964h -14.7969" fill="none" stroke="black"/>
<path d="M75.9299,46.4822h -7.39843" fill="none" stroke="black"/>
<path d="M75.9299,35.4681h -7.39843" fill="none" stroke="black"/>
<path d="M75.9299,24.4539h -7.39843" fill="none" stroke="black"/>
<text xml:space="preserve" x="56.8548" y="503.248" fill="black" font-size="16.0105" font-family="Helvetica">0</text>
<text xml:space="preserve" x="48.4016" y="448.584" fill="black" font-size="16.0105" font-family="Helvetica">10</text>
<text xml:space="preserve" x="48.4016" y="393.356" fill="black" font-size="16.0105" font-family="Helvetica">20</text>
<text xml:space="preserve" x="48.4016" y="338.129" fill="black" font-size="16.0105" font-family="Helvetica">30</text>
<text xml:space="preserve" x="48.4016" y="282.901" fill="black" font-size="16.0105" font-family="Helvetica">40</text>
<text xml:space="preserve" x="48.4016" y="228.237" fill="black" font-size="16.0105" font-family="Helvetica">50</text>
<text xml:space="preserve" x="48.4016" y="173.009" fill="black" font-size="16.0105" font-family="Helvetica">60</text>
<text xml:space="preserve" x="48.4016" y="117.782" fill="black" font-size="16.0105" font-family="Helvetica">70</text>
<text xml:space="preserve" x="48.4016" y="63.1174" fill="black" font-size="16.0105" font-family="Helvetica">80</text>
<text xml:space="preserve" x="99.1209" y="7.32612" fill="black" font-size="10.8403" font-family="Helvetica">3</text>
<text xml:space="preserve" x="93.4854" y="7.32612" fill="black" font-size="10.8403" font-family="Times">&#8722;</text>
<text xml:space="preserve" x="76.579" y="14.6522" fill="black" font-size="16.0105" font-family="Helvetica">10</text>
<text xml:space="preserve" x="68.1257" y="14.6522" fill="black" font-size="16.0105" font-family="Times">&#0215;</text>
<g transform="rotate(-90,38.2577,98.0573)">
<text xml:space="preserve" x="38.2577" y="98.0573" fill="black" font-size="16.0105" font-family="Helvetica">background</text>
</g>
<g transform="rotate(-90,21.9148,98.0573)">
<text xml:space="preserve" x="21.9148" y="98.0573" fill="black" font-size="16.0105" font-family="Helvetica">same event</text>
</g>
<path d="M24.169,98.0573l 0.563548, -81.7144" fill="none" stroke="black" stroke-width="2"/>
<path d="M553.256,498.064v -481.461" fill="none" stroke="black"/>
<path d="M538.459,498.064h 14.7969" fill="none" stroke="black"/>
<path d="M545.857,487.049h 7.39843" fill="none" stroke="black"/>
<path d="M545.857,476.035h 7.39843" fill="none" stroke="black"/>
<path d="M545.857,465.021h 7.39843" fill="none" stroke="black"/>
<path d="M545.857,454.007h 7.39843" fill="none" stroke="black"/>
<path d="M538.459,442.993h 14.7969" fill="none" stroke="black"/>
<path d="M545.857,431.979h 7.39843" fill="none" stroke="black"/>
<path d="M545.857,420.964h 7.39843" fill="none" stroke="black"/>
<path d="M545.857,409.95h 7.39843" fill="none" stroke="black"/>
<path d="M545.857,398.936h 7.39843" fill="none" stroke="black"/>
<path d="M538.459,387.922h 14.7969" fill="none" stroke="black"/>
<path d="M545.857,376.908h 7.39843" fill="none" stroke="black"/>
<path d="M545.857,365.893h 7.39843" fill="none" stroke="black"/>
<path d="M545.857,354.879h 7.39843" fill="none" stroke="black"/>
<path d="M545.857,343.865h 7.39843" fill="none" stroke="black"/>
<path d="M538.459,332.851h 14.7969" fill="none" stroke="black"/>
<path d="M545.857,321.837h 7.39843" fill="none" stroke="black"/>
<path d="M545.857,310.823h 7.39843" fill="none" stroke="black"/>
<path d="M545.857,299.808h 7.39843" fill="none" stroke="black"/>
<path d="M545.857,288.794h 7.39843" fill="none" stroke="black"/>
<path d="M538.459,277.78h 14.7969" fill="none" stroke="black"/>
<path d="M545.857,266.766h 7.39843" fill="none" stroke="black"/>
<path d="M545.857,255.752h 7.39843" fill="none" stroke="black"/>
<path d="M545.857,244.737h 7.39843" fill="none" stroke="black"/>
<path d="M545.857,233.723h 7.39843" fill="none" stroke="black"/>
<path d="M538.459,222.709h 14.7969" fill="none" stroke="black"/>
<path d="M545.857,211.695h 7.39843" fill="none" stroke="black"/>
<path d="M545.857,200.681h 7.39843" fill="none" stroke="black"/>
<path d="M545.857,189.667h 7.39843" fill="none" stroke="black"/>
<path d="M545.857,178.652h 7.39843" fill="none" stroke="black"/>
<path d="M538.459,167.638h 14.7969" fill="none" stroke="black"/>
<path d="M545.857,156.624h 7.39843" fill="none" stroke="black"/>
<path d="M545.857,145.61h 7.39843" fill="none" stroke="black"/>
<path d="M545.857,134.596h 7.39843" fill="none" stroke="black"/>
<path d="M545.857,123.581h 7.39843" fill="none" stroke="black"/>
<path d="M538.459,112.567h 14.7969" fill="none" stroke="black"/>
<path d="M545.857,101.553h 7.39843" fill="none" stroke="black"/>
<path d="M545.857,90.5389h 7.39843" fill="none" stroke="black"/>
<path d="M545.857,79.5248h 7.39843" fill="none" stroke="black"/>
<path d="M545.857,68.5106h 7.39843" fill="none" stroke="black"/>
<path d="M538.459,57.4964h 14.7969" fill="none" stroke="black"/>
<path d="M538.459,57.4964h 14.7969" fill="none" stroke="black"/>
<path d="M545.857,46.4822h 7.39843" fill="none" stroke="black"/>
<path d="M545.857,35.4681h 7.39843" fill="none" stroke="black"/>
<path d="M545.857,24.4539h 7.39843" fill="none" stroke="black"/>
<g stroke="#333333" stroke-width="2" fill="none">
<circle cx="282.098" cy="292.712" r="5.63548"/>
</g>
<g stroke="#333333" stroke-width="2" fill="none">
<circle cx="286.897" cy="291.663" r="5.63548"/>
</g>
<g stroke="#333333" stroke-width="2" fill="none">
<circle cx="291.697" cy="290.176" r="5.63548"/>
</g>
<g stroke="#333333" stroke-width="2" fill="none">
<circle cx="296.496" cy="288.651" r="5.63548"/>
</g>
<g stroke="#333333" stroke-width="2" fill="none">
<circle cx="301.295" cy="287.29" r="5.63548"/>
</g>
<g stroke="#333333" stroke-width="2" fill="none">
<circle cx="306.094" cy="286.939" r="5.63548"/>
</g>
<g stroke="#333333" stroke-width="2" fill="none">
<circle cx="310.894" cy="285.441" r="5.63548"/>
</g>
<g stroke="#333333" stroke-width="2" fill="none">
<circle cx="315.693" cy="283.91" r="5.63548"/>
</g>
<g stroke="#333333" stroke-width="2" fill="none">
<circle cx="320.492" cy="282.568" r="5.63548"/>
</g>
<g stroke="#333333" stroke-width="2" fill="none">
<circle cx="325.291" cy="281.66" r="5.63548"/>
</g>
<g stroke="#333333" stroke-width="2" fill="none">
<circle cx="330.091" cy="280.257" r="5.63548"/>
</g>
<g stroke="#333333" stroke-width="2" fill="none">
<circle cx="334.89" cy="276.572" r="5.63548"/>
</g>
<path d="M98.7518,350.022l 0.44993, -0.136574l 0.44993, -0.136574l 0.44993, -0.136574l 0.44993, -0.136574l 0.44993, -0.136574l 0.44993, -0.136574l 0.44993, -0.136574l 0.44993, -0.136574l 0.44993, -0.136574l 0.44993, -0.136574l 0.44993, -0.136574l
 0.44993, -0.136574l 0.44993, -0.136574l 0.44993, -0.136574l 0.44993, -0.136574l 0.44993, -0.136574l 0.44993, -0.136574l 0.44993, -0.136574l 0.44993, -0.136574l 0.44993, -0.136574l 0.44993, -0.136574l 0.44993, -0.136574l 0.44993, -0.136574l 0.44993,
 -0.136574l 0.44993, -0.136574l 0.44993, -0.136574l 0.44993, -0.136574l 0.44993, -0.136574l 0.44993, -0.136574l 0.44993, -0.136574l 0.44993, -0.136574l 0.44993, -0.136574l 0.44993, -0.136574l 0.44993, -0.136574l 0.44993, -0.136574l 0.44993,
 -0.136574l 0.44993, -0.136574l 0.44993, -0.136574l 0.44993, -0.136574l 0.44993, -0.136574l 0.44993, -0.136574l 0.44993, -0.136574l 0.44993, -0.136574l 0.44993, -0.136574l 0.44993, -0.136574l 0.44993, -0.136574l 0.44993, -0.136574l 0.44993,
 -0.136574l 0.44993, -0.136574" fill="none" stroke="#33cccc" stroke-width="3"/>
<path d="M120.798,343.33l 0.44993, -0.136574l 0.44993, -0.136574l 0.44993, -0.136574l 0.44993, -0.136574l 0.44993, -0.136574l 0.44993, -0.136574l 0.44993, -0.136574l 0.44993, -0.136574l 0.44993, -0.136574l 0.44993, -0.136574l 0.44993, -0.136574l
 0.44993, -0.136574l 0.44993, -0.136574l 0.44993, -0.136574l 0.44993, -0.136574l 0.44993, -0.136574l 0.44993, -0.136574l 0.44993, -0.136574l 0.44993, -0.136574l 0.44993, -0.136574l 0.44993, -0.136574l 0.44993, -0.136574l 0.44993, -0.136574l 0.44993,
 -0.136574l 0.44993, -0.136574l 0.44993, -0.136574l 0.44993, -0.136574l 0.44993, -0.136574l 0.44993, -0.136574l 0.44993, -0.136574l 0.44993, -0.136574l 0.44993, -0.136574l 0.44993, -0.136574l 0.44993, -0.136574l 0.44993, -0.136574l 0.44993,
 -0.136574l 0.44993, -0.136574l 0.44993, -0.136574l 0.44993, -0.136574l 0.44993, -0.136574l 0.44993, -0.136574l 0.44993, -0.136574l 0.44993, -0.136574l 0.44993, -0.136574l 0.44993, -0.136574l 0.44993, -0.136574l 0.44993, -0.136574l 0.44993,
 -0.136574l 0.44993, -0.136574" fill="none" stroke="#33cccc" stroke-width="3"/>
<path d="M142.845,336.638l 0.44993, -0.136574l 0.44993, -0.136574l 0.44993, -0.136574l 0.44993, -0.136574l 0.44993, -0.136574l 0.44993, -0.136574l 0.44993, -0.136574l 0.44993, -0.136574l 0.44993, -0.136574l 0.44993, -0.136574l 0.44993, -0.136574l
 0.44993, -0.136574l 0.44993, -0.136574l 0.44993, -0.136574l 0.44993, -0.136574l 0.44993, -0.136574l 0.44993, -0.136574l 0.44993, -0.136574l 0.44993, -0.136574l 0.44993, -0.136574l 0.44993, -0.136574l 0.44993, -0.136574l 0.44993, -0.136574l 0.44993,
 -0.136574l 0.44993, -0.136574l 0.44993, -0.136574l 0.44993, -0.136574l 0.44993, -0.136574l 0.44993, -0.136574l 0.44993, -0.136574l 0.44993, -0.136574l 0.44993, -0.136574l 0.44993, -0.136574l 0.44993, -0.136574l 0.44993, -0.136574l 0.44993,
 -0.136574l 0.44993, -0.136574l 0.44993, -0.136574l 0.44993, -0.136574l 0.44993, -0.136574l 0.44993, -0.136574l 0.44993, -0.136574l 0.44993, -0.136574l 0.44993, -0.136574l 0.44993, -0.136574l 0.44993, -0.136574l 0.44993, -0.136574l 0.44993,
 -0.136574l 0.44993, -0.136574" fill="none" stroke="#33cccc" stroke-width="3"/>
<path d="M164.891,329.946l 0.44993, -0.136574l 0.44993, -0.136574l 0.44993, -0.136574l 0.44993, -0.136574l 0.44993, -0.136574l 0.44993, -0.136574l 0.44993, -0.136574l 0.44993, -0.136574l 0.44993, -0.136574l 0.44993, -0.136574l 0.44993, -0.136574l
 0.44993, -0.136574l 0.44993, -0.136574l 0.44993, -0.136574l 0.44993, -0.136574l 0.44993, -0.136574l 0.44993, -0.136574l 0.44993, -0.136574l 0.44993, -0.136574l 0.44993, -0.136574l 0.44993, -0.136574l 0.44993, -0.136574l 0.44993, -0.136574l 0.44993,
 -0.136574l 0.44993, -0.136574l 0.44993, -0.136574l 0.44993, -0.136574l 0.44993, -0.136574l 0.44993, -0.136574l 0.44993, -0.136574l 0.44993, -0.136574l 0.44993, -0.136574l 0.44993, -0.136574l 0.44993, -0.136574l 0.44993, -0.136574l 0.44993,
 -0.136574l 0.44993, -0.136574l 0.44993, -0.136574l 0.44993, -0.136574l 0.44993, -0.136574l 0.44993, -0.136574l 0.44993, -0.136574l 0.44993, -0.136574l 0.44993, -0.136574l 0.44993, -0.136574l 0.44993, -0.136574l 0.44993, -0.136574l 0.44993,
 -0.136574l 0.44993, -0.136574" fill="none" stroke="#33cccc" stroke-width="3"/>
<path d="M186.938,323.254l 0.44993, -0.136574l 0.44993, -0.136574l 0.44993, -0.136574l 0.44993, -0.136574l 0.44993, -0.136574l 0.44993, -0.136574l 0.44993, -0.136574l 0.44993, -0.136574l 0.44993, -0.136574l 0.44993, -0.136574l 0.44993, -0.136574l
 0.44993, -0.136574l 0.44993, -0.136574l 0.44993, -0.136574l 0.44993, -0.136574l 0.44993, -0.136574l 0.44993, -0.136574l 0.44993, -0.136574l 0.44993, -0.136574l 0.44993, -0.136574l 0.44993, -0.136574l 0.44993, -0.136574l 0.44993, -0.136574l 0.44993,
 -0.136574l 0.44993, -0.136574l 0.44993, -0.136574l 0.44993, -0.136574l 0.44993, -0.136574l 0.44993, -0.136574l 0.44993, -0.136574l 0.44993, -0.136574l 0.44993, -0.136574l 0.44993, -0.136574l 0.44993, -0.136574l 0.44993, -0.136574l 0.44993,
 -0.136574l 0.44993, -0.136574l 0.44993, -0.136574l 0.44993, -0.136574l 0.44993, -0.136574l 0.44993, -0.136574l 0.44993, -0.136574l 0.44993, -0.136574l 0.44993, -0.136574l 0.44993, -0.136574l 0.44993, -0.136574l 0.44993, -0.136574l 0.44993,
 -0.136574l 0.44993, -0.136574" fill="none" stroke="#33cccc" stroke-width="3"/>
<path d="M208.985,316.562l 0.44993, -0.136574l 0.44993, -0.136574l 0.44993, -0.136574l 0.44993, -0.136574l 0.44993, -0.136574l 0.44993, -0.136574l 0.44993, -0.136574l 0.44993, -0.136574l 0.44993, -0.136574l 0.44993, -0.136574l 0.44993, -0.136574l
 0.44993, -0.136574l 0.44993, -0.136574l 0.44993, -0.136574l 0.44993, -0.136574l 0.44993, -0.136574l 0.44993, -0.136574l 0.44993, -0.136574l 0.44993, -0.136574l 0.44993, -0.136574l 0.44993, -0.136574l 0.44993, -0.136574l 0.44993, -0.136574l 0.44993,
 -0.136574l 0.44993, -0.136574l 0.44993, -0.136574l 0.44993, -0.136574l 0.44993, -0.136574l 0.44993, -0.136574l 0.44993, -0.136574l 0.44993, -0.136574l 0.44993, -0.136574l 0.44993, -0.136574l 0.44993, -0.136574l 0.44993, -0.136574l 0.44993,
 -0.136574l 0.44993, -0.136574l 0.44993, -0.136574l 0.44993, -0.136574l 0.44993, -0.136574l 0.44993, -0.136574l 0.44993, -0.136574l 0.44993, -0.136574l 0.44993, -0.136574l 0.44993, -0.136574l 0.44993, -0.136574l 0.44993, -0.136574l 0.44993,
 -0.136574l 0.44993, -0.136574" fill="none" stroke="#33cccc" stroke-width="3"/>
<path d="M231.031,309.87l 0.44993, -0.136574l 0.44993, -0.136574l 0.44993, -0.136574l 0.44993, -0.136574l 0.44993, -0.136574l 0.44993, -0.136574l 0.44993, -0.136574l 0.44993, -0.136574l 0.44993, -0.136574l 0.44993, -0.136574l 0.44993, -0.136574l
 0.44993, -0.136574l 0.44993, -0.136574l 0.44993, -0.136574l 0.44993, -0.136574l 0.44993, -0.136574l 0.44993, -0.136574l 0.44993, -0.136574l 0.44993, -0.136574l 0.44993, -0.136574l 0.44993, -0.136574l 0.44993, -0.136574l 0.44993, -0.136574l 0.44993,
 -0.136574l 0.44993, -0.136574l 0.44993, -0.136574l 0.44993, -0.136574l 0.44993, -0.136574l 0.44993, -0.136574l 0.44993, -0.136574l 0.44993, -0.136574l 0.44993, -0.136574l 0.44993, -0.136574l 0.44993, -0.136574l 0.44993, -0.136574l 0.44993,
 -0.136574l 0.44993, -0.136574l 0.44993, -0.136574l 0.44993, -0.136574l 0.44993, -0.136574l 0.44993, -0.136574l 0.44993, -0.136574l 0.44993, -0.136574l 0.44993, -0.136574l 0.44993, -0.136574l 0.44993, -0.136574l 0.44993, -0.136574l 0.44993,
 -0.136574l 0.44993, -0.136574" fill="none" stroke="#33cccc" stroke-width="3"/>
<path d="M253.078,303.177l 0.44993, -0.136574l 0.44993, -0.136574l 0.44993, -0.136574l 0.44993, -0.136574l 0.44993, -0.136574l 0.44993, -0.136574l 0.44993, -0.136574l 0.44993, -0.136574l 0.44993, -0.136574l 0.44993, -0.136574l 0.44993, -0.136574l
 0.44993, -0.136574l 0.44993, -0.136574l 0.44993, -0.136574l 0.44993, -0.136574l 0.44993, -0.136574l 0.44993, -0.136574l 0.44993, -0.136574l 0.44993, -0.136574l 0.44993, -0.136574l 0.44993, -0.136574l 0.44993, -0.136574l 0.44993, -0.136574l 0.44993,
 -0.136574l 0.44993, -0.136574l 0.44993, -0.136574l 0.44993, -0.136574l 0.44993, -0.136574l 0.44993, -0.136574l 0.44993, -0.136574l 0.44993, -0.136574l 0.44993, -0.136574l 0.44993, -0.136574l 0.44993, -0.136574l 0.44993, -0.136574l 0.44993,
 -0.136574l 0.44993, -0.136574l 0.44993, -0.136574l 0.44993, -0.136574l 0.44993, -0.136574l 0.44993, -0.136574l 0.44993, -0.136574l 0.44993, -0.136574l 0.44993, -0.136574l 0.44993, -0.136574l 0.44993, -0.136574l 0.44993, -0.136574l 0.44993,
 -0.136574l 0.44993, -0.136574" fill="none" stroke="#33cccc" stroke-width="3"/>
<path d="M275.124,296.485l 0.44993, -0.136574l 0.44993, -0.136574l 0.44993, -0.136574l 0.44993, -0.136574l 0.44993, -0.136574l 0.44993, -0.136574l 0.44993, -0.136574l 0.44993, -0.136574l 0.44993, -0.136574l 0.44993, -0.136574l 0.44993, -0.136574l
 0.44993, -0.136574l 0.44993, -0.136574l 0.44993, -0.136574l 0.44993, -0.136574l 0.44993, -0.136574l 0.44993, -0.136574l 0.44993, -0.136574l 0.44993, -0.136574l 0.44993, -0.136574l 0.44993, -0.136574l 0.44993, -0.136574l 0.44993, -0.136574l 0.44993,
 -0.136574l 0.44993, -0.136574l 0.44993, -0.136574l 0.44993, -0.136574l 0.44993, -0.136574l 0.44993, -0.136574l 0.44993, -0.136574l 0.44993, -0.136574l 0.44993, -0.136574l 0.44993, -0.136574l 0.44993, -0.136574l 0.44993, -0.136574l 0.44993,
 -0.136574l 0.44993, -0.136574l 0.44993, -0.136574l 0.44993, -0.136574l 0.44993, -0.136574l 0.44993, -0.136574l 0.44993, -0.136574l 0.44993, -0.136574l 0.44993, -0.136574l 0.44993, -0.136574l 0.44993, -0.136574l 0.44993, -0.136574l 0.44993,
 -0.136574l 0.44993, -0.136574" fill="none" stroke="#33cccc" stroke-width="3"/>
<path d="M297.171,289.793l 0.44993, -0.136574l 0.44993, -0.136574l 0.44993, -0.136574l 0.44993, -0.136574l 0.44993, -0.136574l 0.44993, -0.136574l 0.44993, -0.136574l 0.44993, -0.136574l 0.44993, -0.136574l 0.44993, -0.136574l 0.44993, -0.136574l
 0.44993, -0.136574l 0.44993, -0.136574l 0.44993, -0.136574l 0.44993, -0.136574l 0.44993, -0.136574l 0.44993, -0.136574l 0.44993, -0.136574l 0.44993, -0.136574l 0.44993, -0.136574l 0.44993, -0.136574l 0.44993, -0.136574l 0.44993, -0.136574l 0.44993,
 -0.136574l 0.44993, -0.136574l 0.44993, -0.136574l 0.44993, -0.136574l 0.44993, -0.136574l 0.44993, -0.136574l 0.44993, -0.136574l 0.44993, -0.136574l 0.44993, -0.136574l 0.44993, -0.136574l 0.44993, -0.136574l 0.44993, -0.136574l 0.44993,
 -0.136574l 0.44993, -0.136574l 0.44993, -0.136574l 0.44993, -0.136574l 0.44993, -0.136574l 0.44993, -0.136574l 0.44993, -0.136574l 0.44993, -0.136574l 0.44993, -0.136574l 0.44993, -0.136574l 0.44993, -0.136574l 0.44993, -0.136574l 0.44993,
 -0.136574l 0.44993, -0.136574" fill="none" stroke="#33cccc" stroke-width="3"/>
<path d="M319.217,283.101l 0.44993, -0.136574l 0.44993, -0.136574l 0.44993, -0.136574l 0.44993, -0.136574l 0.44993, -0.136574l 0.44993, -0.136574l 0.44993, -0.136574l 0.44993, -0.136574l 0.44993, -0.136574l 0.44993, -0.136574l 0.44993, -0.136574l
 0.44993, -0.136574l 0.44993, -0.136574l 0.44993, -0.136574l 0.44993, -0.136574l 0.44993, -0.136574l 0.44993, -0.136574l 0.44993, -0.136574l 0.44993, -0.136574l 0.44993, -0.136574l 0.44993, -0.136574l 0.44993, -0.136574l 0.44993, -0.136574l 0.44993,
 -0.136574l 0.44993, -0.136574l 0.44993, -0.136574l 0.44993, -0.136574l 0.44993, -0.136574l 0.44993, -0.136574l 0.44993, -0.136574l 0.44993, -0.136574l 0.44993, -0.136574l 0.44993, -0.136574l 0.44993, -0.136574l 0.44993, -0.136574l 0.44993,
 -0.136574l 0.44993, -0.136574l 0.44993, -0.136574l 0.44993, -0.136574l 0.44993, -0.136574l 0.44993, -0.136574l 0.44993, -0.136574l 0.44993, -0.136574l 0.44993, -0.136574l 0.44993, -0.136574l 0.44993, -0.136574l 0.44993, -0.136574l 0.44993,
 -0.136574l 0.44993, -0.136574" fill="none" stroke="#33cccc" stroke-width="3"/>
<path d="M341.264,276.409l 0.44993, -0.136574l 0.44993, -0.136574l 0.44993, -0.136574l 0.44993, -0.136574l 0.44993, -0.136574l 0.44993, -0.136574l 0.44993, -0.136574l 0.44993, -0.136574l 0.44993, -0.136574l 0.44993, -0.136574l 0.44993, -0.136574l
 0.44993, -0.136574l 0.44993, -0.136574l 0.44993, -0.136574l 0.44993, -0.136574l 0.44993, -0.136574l 0.44993, -0.136574l 0.44993, -0.136574l 0.44993, -0.136574l 0.44993, -0.136574l 0.44993, -0.136574l 0.44993, -0.136574l 0.44993, -0.136574l 0.44993,
 -0.136574l 0.44993, -0.136574l 0.44993, -0.136574l 0.44993, -0.136574l 0.44993, -0.136574l 0.44993, -0.136574l 0.44993, -0.136574l 0.44993, -0.136574l 0.44993, -0.136574l 0.44993, -0.136574l 0.44993, -0.136574l 0.44993, -0.136574l 0.44993,
 -0.136574l 0.44993, -0.136574l 0.44993, -0.136574l 0.44993, -0.136574l 0.44993, -0.136574l 0.44993, -0.136574l 0.44993, -0.136574l 0.44993, -0.136574l 0.44993, -0.136574l 0.44993, -0.136574l 0.44993, -0.136574l 0.44993, -0.136574l 0.44993,
 -0.136574l 0.44993, -0.136574" fill="none" stroke="#33cccc" stroke-width="3"/>
<path d="M363.311,269.717l 0.44993, -0.136574l 0.44993, -0.136574l 0.44993, -0.136574l 0.44993, -0.136574l 0.44993, -0.136574l 0.44993, -0.136574l 0.44993, -0.136574l 0.44993, -0.136574l 0.44993, -0.136574l 0.44993, -0.136574l 0.44993, -0.136574l
 0.44993, -0.136574l 0.44993, -0.136574l 0.44993, -0.136574l 0.44993, -0.136574l 0.44993, -0.136574l 0.44993, -0.136574l 0.44993, -0.136574l 0.44993, -0.136574l 0.44993, -0.136574l 0.44993, -0.136574l 0.44993, -0.136574l 0.44993, -0.136574l 0.44993,
 -0.136574l 0.44993, -0.136574l 0.44993, -0.136574l 0.44993, -0.136574l 0.44993, -0.136574l 0.44993, -0.136574l 0.44993, -0.136574l 0.44993, -0.136574l 0.44993, -0.136574l 0.44993, -0.136574l 0.44993, -0.136574l 0.44993, -0.136574l 0.44993,
 -0.136574l 0.44993, -0.136574l 0.44993, -0.136574l 0.44993, -0.136574l 0.44993, -0.136574l 0.44993, -0.136574l 0.44993, -0.136574l 0.44993, -0.136574l 0.44993, -0.136574l 0.44993, -0.136574l 0.44993, -0.136574l 0.44993, -0.136574l 0.44993,
 -0.136574l 0.44993, -0.136574" fill="none" stroke="#33cccc" stroke-width="3"/>
<path d="M385.357,263.025l 0.44993, -0.136574l 0.44993, -0.136574l 0.44993, -0.136574l 0.44993, -0.136574l 0.44993, -0.136574l 0.44993, -0.136574l 0.44993, -0.136574l 0.44993, -0.136574l 0.44993, -0.136574l 0.44993, -0.136574l 0.44993, -0.136574l
 0.44993, -0.136574l 0.44993, -0.136574l 0.44993, -0.136574l 0.44993, -0.136574l 0.44993, -0.136574l 0.44993, -0.136574l 0.44993, -0.136574l 0.44993, -0.136574l 0.44993, -0.136574l 0.44993, -0.136574l 0.44993, -0.136574l 0.44993, -0.136574l 0.44993,
 -0.136574l 0.44993, -0.136574l 0.44993, -0.136574l 0.44993, -0.136574l 0.44993, -0.136574l 0.44993, -0.136574l 0.44993, -0.136574l 0.44993, -0.136574l 0.44993, -0.136574l 0.44993, -0.136574l 0.44993, -0.136574l 0.44993, -0.136574l 0.44993,
 -0.136574l 0.44993, -0.136574l 0.44993, -0.136574l 0.44993, -0.136574l 0.44993, -0.136574l 0.44993, -0.136574l 0.44993, -0.136574l 0.44993, -0.136574l 0.44993, -0.136574l 0.44993, -0.136574l 0.44993, -0.136574l 0.44993, -0.136574l 0.44993,
 -0.136574l 0.44993, -0.136574" fill="none" stroke="#33cccc" stroke-width="3"/>
<path d="M407.404,256.332l 0.44993, -0.136574l 0.44993, -0.136574l 0.44993, -0.136574l 0.44993, -0.136574l 0.44993, -0.136574l 0.44993, -0.136574l 0.44993, -0.136574l 0.44993, -0.136574l 0.44993, -0.136574l 0.44993, -0.136574l 0.44993, -0.136574l
 0.44993, -0.136574l 0.44993, -0.136574l 0.44993, -0.136574l 0.44993, -0.136574l 0.44993, -0.136574l 0.44993, -0.136574l 0.44993, -0.136574l 0.44993, -0.136574l 0.44993, -0.136574l 0.44993, -0.136574l 0.44993, -0.136574l 0.44993, -0.136574l 0.44993,
 -0.136574l 0.44993, -0.136574l 0.44993, -0.136574l 0.44993, -0.136574l 0.44993, -0.136574l 0.44993, -0.136574l 0.44993, -0.136574l 0.44993, -0.136574l 0.44993, -0.136574l 0.44993, -0.136574l 0.44993, -0.136574l 0.44993, -0.136574l 0.44993,
 -0.136574l 0.44993, -0.136574l 0.44993, -0.136574l 0.44993, -0.136574l 0.44993, -0.136574l 0.44993, -0.136574l 0.44993, -0.136574l 0.44993, -0.136574l 0.44993, -0.136574l 0.44993, -0.136574l 0.44993, -0.136574l 0.44993, -0.136574l 0.44993,
 -0.136574l 0.44993, -0.136574" fill="none" stroke="#33cccc" stroke-width="3"/>
<path d="M429.45,249.64l 0.44993, -0.136574l 0.44993, -0.136574l 0.44993, -0.136574l 0.44993, -0.136574l 0.44993, -0.136574l 0.44993, -0.136574l 0.44993, -0.136574l 0.44993, -0.136574l 0.44993, -0.136574l 0.44993, -0.136574l 0.44993, -0.136574l
 0.44993, -0.136574l 0.44993, -0.136574l 0.44993, -0.136574l 0.44993, -0.136574l 0.44993, -0.136574l 0.44993, -0.136574l 0.44993, -0.136574l 0.44993, -0.136574l 0.44993, -0.136574l 0.44993, -0.136574l 0.44993, -0.136574l 0.44993, -0.136574l 0.44993,
 -0.136574l 0.44993, -0.136574l 0.44993, -0.136574l 0.44993, -0.136574l 0.44993, -0.136574l 0.44993, -0.136574l 0.44993, -0.136574l 0.44993, -0.136574l 0.44993, -0.136574l 0.44993, -0.136574l 0.44993, -0.136574l 0.44993, -0.136574l 0.44993,
 -0.136574l 0.44993, -0.136574l 0.44993, -0.136574l 0.44993, -0.136574l 0.44993, -0.136574l 0.44993, -0.136574l 0.44993, -0.136574l 0.44993, -0.136574l 0.44993, -0.136574l 0.44993, -0.136574l 0.44993, -0.136574l 0.44993, -0.136574l 0.44993,
 -0.136574l 0.44993, -0.136574" fill="none" stroke="#33cccc" stroke-width="3"/>
<path d="M451.497,242.948l 0.44993, -0.136574l 0.44993, -0.136574l 0.44993, -0.136574l 0.44993, -0.136574l 0.44993, -0.136574l 0.44993, -0.136574l 0.44993, -0.136574l 0.44993, -0.136574l 0.44993, -0.136574l 0.44993, -0.136574l 0.44993, -0.136574l
 0.44993, -0.136574l 0.44993, -0.136574l 0.44993, -0.136574l 0.44993, -0.136574l 0.44993, -0.136574l 0.44993, -0.136574l 0.44993, -0.136574l 0.44993, -0.136574l 0.44993, -0.136574l 0.44993, -0.136574l 0.44993, -0.136574l 0.44993, -0.136574l 0.44993,
 -0.136574l 0.44993, -0.136574l 0.44993, -0.136574l 0.44993, -0.136574l 0.44993, -0.136574l 0.44993, -0.136574l 0.44993, -0.136574l 0.44993, -0.136574l 0.44993, -0.136574l 0.44993, -0.136574l 0.44993, -0.136574l 0.44993, -0.136574l 0.44993,
 -0.136574l 0.44993, -0.136574l 0.44993, -0.136574l 0.44993, -0.136574l 0.44993, -0.136574l 0.44993, -0.136574l 0.44993, -0.136574l 0.44993, -0.136574l 0.44993, -0.136574l 0.44993, -0.136574l 0.44993, -0.136574l 0.44993, -0.136574l 0.44993,
 -0.136574l 0.44993, -0.136574" fill="none" stroke="#33cccc" stroke-width="3"/>
<path d="M473.543,236.256l 0.44993, -0.136574l 0.44993, -0.136574l 0.44993, -0.136574l 0.44993, -0.136574l 0.44993, -0.136574l 0.44993, -0.136574l 0.44993, -0.136574l 0.44993, -0.136574l 0.44993, -0.136574l 0.44993, -0.136574l 0.44993, -0.136574l
 0.44993, -0.136574l 0.44993, -0.136574l 0.44993, -0.136574l 0.44993, -0.136574l 0.44993, -0.136574l 0.44993, -0.136574l 0.44993, -0.136574l 0.44993, -0.136574l 0.44993, -0.136574l 0.44993, -0.136574l 0.44993, -0.136574l 0.44993, -0.136574l 0.44993,
 -0.136574l 0.44993, -0.136574l 0.44993, -0.136574l 0.44993, -0.136574l 0.44993, -0.136574l 0.44993, -0.136574l 0.44993, -0.136574l 0.44993, -0.136574l 0.44993, -0.136574l 0.44993, -0.136574l 0.44993, -0.136574l 0.44993, -0.136574l 0.44993,
 -0.136574l 0.44993, -0.136574l 0.44993, -0.136574l 0.44993, -0.136574l 0.44993, -0.136574l 0.44993, -0.136574l 0.44993, -0.136574l 0.44993, -0.136574l 0.44993, -0.136574l 0.44993, -0.136574l 0.44993, -0.136574l 0.44993, -0.136574l 0.44993,
 -0.136574l 0.44993, -0.136574" fill="none" stroke="#33cccc" stroke-width="3"/>
<path d="M495.59,229.564l 0.44993, -0.136574l 0.44993, -0.136574l 0.44993, -0.136574l 0.44993, -0.136574l 0.44993, -0.136574l 0.44993, -0.136574l 0.44993, -0.136574l 0.44993, -0.136574l 0.44993, -0.136574l 0.44993, -0.136574l 0.44993, -0.136574l
 0.44993, -0.136574l 0.44993, -0.136574l 0.44993, -0.136574l 0.44993, -0.136574l 0.44993, -0.136574l 0.44993, -0.136574l 0.44993, -0.136574l 0.44993, -0.136574l 0.44993, -0.136574l 0.44993, -0.136574l 0.44993, -0.136574l 0.44993, -0.136574l 0.44993,
 -0.136574l 0.44993, -0.136574l 0.44993, -0.136574l 0.44993, -0.136574l 0.44993, -0.136574l 0.44993, -0.136574l 0.44993, -0.136574l 0.44993, -0.136574l 0.44993, -0.136574l 0.44993, -0.136574l 0.44993, -0.136574l 0.44993, -0.136574l 0.44993,
 -0.136574l 0.44993, -0.136574l 0.44993, -0.136574l 0.44993, -0.136574l 0.44993, -0.136574l 0.44993, -0.136574l 0.44993, -0.136574l 0.44993, -0.136574l 0.44993, -0.136574l 0.44993, -0.136574l 0.44993, -0.136574l 0.44993, -0.136574l 0.44993,
 -0.136574l 0.44993, -0.136574" fill="none" stroke="#33cccc" stroke-width="3"/>
<path d="M517.636,222.872l 0.44993, -0.136574l 0.44993, -0.136574l 0.44993, -0.136574l 0.44993, -0.136574l 0.44993, -0.136574l 0.44993, -0.136574l 0.44993, -0.136574l 0.44993, -0.136574l 0.44993, -0.136574l 0.44993, -0.136574l 0.44993, -0.136574l
 0.44993, -0.136574l 0.44993, -0.136574l 0.44993, -0.136574l 0.44993, -0.136574l 0.44993, -0.136574l 0.44993, -0.136574l 0.44993, -0.136574l 0.44993, -0.136574l 0.44993, -0.136574l 0.44993, -0.136574l 0.44993, -0.136574l 0.44993, -0.136574l 0.44993,
 -0.136574l 0.44993, -0.136574l 0.44993, -0.136574l 0.44993, -0.136574l 0.44993, -0.136574l 0.44993, -0.136574l 0.44993, -0.136574l 0.44993, -0.136574l 0.44993, -0.136574l 0.44993, -0.136574l 0.44993, -0.136574l 0.44993, -0.136574l 0.44993,
 -0.136574l 0.44993, -0.136574l 0.44993, -0.136574l 0.44993, -0.136574l 0.44993, -0.136574l 0.44993, -0.136574l 0.44993, -0.136574l 0.44993, -0.136574l 0.44993, -0.136574l 0.44993, -0.136574l 0.44993, -0.136574l 0.44993, -0.136574l 0.44993,
 -0.136574l 0.44993, -0.136574" fill="none" stroke="#33cccc" stroke-width="3"/>
<path d="M539.683,216.18l 0.44993, -0.136574l 0.44993, -0.136574l 0.44993, -0.136574l 0.44993, -0.136574l 0.44993, -0.136574l 0.44993, -0.136574l 0.44993, -0.136574l 0.44993, -0.136574l 0.44993, -0.136574l 0.44993, -0.136574l 0.44993, -0.136574l
 0.44993, -0.136574l 0.44993, -0.136574l 0.44993, -0.136574l 0.44993, -0.136574l 0.44993, -0.136574l 0.44993, -0.136574l 0.44993, -0.136574l 0.44993, -0.136574" fill="none" stroke="#33cccc" stroke-width="3"/>
<path d="M98.7518,347.685l 0.44993, -0.124789l 0.44993, -0.124814l 0.44993, -0.124838l 0.44993, -0.124863l 0.44993, -0.124888l 0.44993, -0.124912l 0.44993, -0.124937l 0.44993, -0.124962l 0.44993, -0.124986l 0.44993, -0.125011l 0.44993, -0.125036l
 0.44993, -0.12506l 0.44993, -0.125085l 0.44993, -0.125109l 0.44993, -0.125134l 0.44993, -0.125159l 0.44993, -0.125183l 0.44993, -0.125208l 0.44993, -0.125233l 0.44993, -0.125257l 0.44993, -0.125282l 0.44993, -0.125307l 0.44993, -0.125331l 0.44993,
 -0.125356l 0.44993, -0.125381l 0.44993, -0.125405l 0.44993, -0.12543l 0.44993, -0.125454l 0.44993, -0.125479l 0.44993, -0.125504l 0.44993, -0.125528l 0.44993, -0.125553l 0.44993, -0.125578l 0.44993, -0.125602l 0.44993, -0.125627l 0.44993, -0.125652l
 0.44993, -0.125676l 0.44993, -0.125701l 0.44993, -0.125725l 0.44993, -0.12575l 0.44993, -0.125775l 0.44993, -0.125799l 0.44993, -0.125824l 0.44993, -0.125849l 0.44993, -0.125873l 0.44993, -0.125898l 0.44993, -0.125923l 0.44993, -0.125947l 0.44993,
 -0.125972" fill="none" stroke="#ff0066" stroke-width="3"/>
<path d="M120.798,341.541l 0.44993, -0.125996l 0.44993, -0.126021l 0.44993, -0.126046l 0.44993, -0.12607l 0.44993, -0.126095l 0.44993, -0.12612l 0.44993, -0.126144l 0.44993, -0.126169l 0.44993, -0.126194l 0.44993, -0.126218l 0.44993, -0.126243l
 0.44993, -0.126267l 0.44993, -0.126292l 0.44993, -0.126317l 0.44993, -0.126341l 0.44993, -0.126366l 0.44993, -0.126391l 0.44993, -0.126415l 0.44993, -0.12644l 0.44993, -0.126465l 0.44993, -0.126489l 0.44993, -0.126514l 0.44993, -0.126538l 0.44993,
 -0.126563l 0.44993, -0.126588l 0.44993, -0.126612l 0.44993, -0.126637l 0.44993, -0.126662l 0.44993, -0.126686l 0.44993, -0.126711l 0.44993, -0.126736l 0.44993, -0.12676l 0.44993, -0.126785l 0.44993, -0.12681l 0.44993, -0.126834l 0.44993, -0.126859l
 0.44993, -0.126883l 0.44993, -0.126908l 0.44993, -0.126933l 0.44993, -0.126957l 0.44993, -0.126982l 0.44993, -0.127007l 0.44993, -0.127031l 0.44993, -0.127056l 0.44993, -0.127081l 0.44993, -0.127105l 0.44993, -0.12713l 0.44993, -0.127154l 0.44993,
 -0.127179" fill="none" stroke="#ff0066" stroke-width="3"/>
<path d="M142.845,335.338l 0.44993, -0.127204l 0.44993, -0.127228l 0.44993, -0.127253l 0.44993, -0.127278l 0.44993, -0.127302l 0.44993, -0.127327l 0.44993, -0.127352l 0.44993, -0.127376l 0.44993, -0.127401l 0.44993, -0.127425l 0.44993, -0.12745l
 0.44993, -0.127475l 0.44993, -0.127499l 0.44993, -0.127524l 0.44993, -0.127549l 0.44993, -0.127573l 0.44993, -0.127598l 0.44993, -0.127623l 0.44993, -0.127647l 0.44993, -0.127672l 0.44993, -0.127696l 0.44993, -0.127721l 0.44993, -0.127746l 0.44993,
 -0.12777l 0.44993, -0.127795l 0.44993, -0.12782l 0.44993, -0.127844l 0.44993, -0.127869l 0.44993, -0.127894l 0.44993, -0.127918l 0.44993, -0.127943l 0.44993, -0.127967l 0.44993, -0.127992l 0.44993, -0.128017l 0.44993, -0.128041l 0.44993, -0.128066l
 0.44993, -0.128091l 0.44993, -0.128115l 0.44993, -0.12814l 0.44993, -0.128165l 0.44993, -0.128189l 0.44993, -0.128214l 0.44993, -0.128239l 0.44993, -0.128263l 0.44993, -0.128288l 0.44993, -0.128312l 0.44993, -0.128337l 0.44993, -0.128362l 0.44993,
 -0.128386" fill="none" stroke="#ff0066" stroke-width="3"/>
<path d="M164.891,329.076l 0.44993, -0.128411l 0.44993, -0.128436l 0.44993, -0.12846l 0.44993, -0.128485l 0.44993, -0.12851l 0.44993, -0.128534l 0.44993, -0.128559l 0.44993, -0.128583l 0.44993, -0.128608l 0.44993, -0.128633l 0.44993, -0.128657l
 0.44993, -0.128682l 0.44993, -0.128707l 0.44993, -0.128731l 0.44993, -0.128756l 0.44993, -0.128781l 0.44993, -0.128805l 0.44993, -0.12883l 0.44993, -0.128854l 0.44993, -0.128879l 0.44993, -0.128904l 0.44993, -0.128928l 0.44993, -0.128953l 0.44993,
 -0.128978l 0.44993, -0.129002l 0.44993, -0.129027l 0.44993, -0.129052l 0.44993, -0.129076l 0.44993, -0.129101l 0.44993, -0.129125l 0.44993, -0.12915l 0.44993, -0.129175l 0.44993, -0.129199l 0.44993, -0.129224l 0.44993, -0.129249l 0.44993, -0.129273l
 0.44993, -0.129298l 0.44993, -0.129323l 0.44993, -0.129347l 0.44993, -0.129372l 0.44993, -0.129396l 0.44993, -0.129421l 0.44993, -0.129446l 0.44993, -0.12947l 0.44993, -0.129495l 0.44993, -0.12952l 0.44993, -0.129544l 0.44993, -0.129569l 0.44993,
 -0.129594" fill="none" stroke="#ff0066" stroke-width="3"/>
<path d="M186.938,322.755l 0.44993, -0.129618l 0.44993, -0.129643l 0.44993, -0.129668l 0.44993, -0.129692l 0.44993, -0.129717l 0.44993, -0.129741l 0.44993, -0.129766l 0.44993, -0.129791l 0.44993, -0.129815l 0.44993, -0.12984l 0.44993, -0.129865l
 0.44993, -0.129889l 0.44993, -0.129914l 0.44993, -0.129939l 0.44993, -0.129963l 0.44993, -0.129988l 0.44993, -0.130012l 0.44993, -0.130037l 0.44993, -0.130062l 0.44993, -0.130086l 0.44993, -0.130111l 0.44993, -0.130136l 0.44993, -0.13016l 0.44993,
 -0.130185l 0.44993, -0.13021l 0.44993, -0.130234l 0.44993, -0.130259l 0.44993, -0.130283l 0.44993, -0.130308l 0.44993, -0.130333l 0.44993, -0.130357l 0.44993, -0.130382l 0.44993, -0.130407l 0.44993, -0.130431l 0.44993, -0.130456l 0.44993, -0.130481l
 0.44993, -0.130505l 0.44993, -0.13053l 0.44993, -0.130554l 0.44993, -0.130579l 0.44993, -0.130604l 0.44993, -0.130628l 0.44993, -0.130653l 0.44993, -0.130678l 0.44993, -0.130702l 0.44993, -0.130727l 0.44993, -0.130752l 0.44993, -0.130776l 0.44993,
 -0.130801" fill="none" stroke="#ff0066" stroke-width="3"/>
<path d="M208.985,316.375l 0.44993, -0.130825l 0.44993, -0.13085l 0.44993, -0.130875l 0.44993, -0.130899l 0.44993, -0.130924l 0.44993, -0.130949l 0.44993, -0.130973l 0.44993, -0.130998l 0.44993, -0.131023l 0.44993, -0.131047l 0.44993, -0.131072l
 0.44993, -0.131097l 0.44993, -0.131121l 0.44993, -0.131146l 0.44993, -0.13117l 0.44993, -0.131195l 0.44993, -0.13122l 0.44993, -0.131244l 0.44993, -0.131269l 0.44993, -0.131294l 0.44993, -0.131318l 0.44993, -0.131343l 0.44993, -0.131368l 0.44993,
 -0.131392l 0.44993, -0.131417l 0.44993, -0.131441l 0.44993, -0.131466l 0.44993, -0.131491l 0.44993, -0.131515l 0.44993, -0.13154l 0.44993, -0.131565l 0.44993, -0.131589l 0.44993, -0.131614l 0.44993, -0.131639l 0.44993, -0.131663l 0.44993, -0.131688l
 0.44993, -0.131712l 0.44993, -0.131737l 0.44993, -0.131762l 0.44993, -0.131786l 0.44993, -0.131811l 0.44993, -0.131836l 0.44993, -0.13186l 0.44993, -0.131885l 0.44993, -0.13191l 0.44993, -0.131934l 0.44993, -0.131959l 0.44993, -0.131983l 0.44993,
 -0.132008" fill="none" stroke="#ff0066" stroke-width="3"/>
<path d="M231.031,309.935l 0.44993, -0.132033l 0.44993, -0.132057l 0.44993, -0.132082l 0.44993, -0.132107l 0.44993, -0.132131l 0.44993, -0.132156l 0.44993, -0.132181l 0.44993, -0.132205l 0.44993, -0.13223l 0.44993, -0.132254l 0.44993, -0.132279l
 0.44993, -0.132304l 0.44993, -0.132328l 0.44993, -0.132353l 0.44993, -0.132378l 0.44993, -0.132402l 0.44993, -0.132427l 0.44993, -0.132452l 0.44993, -0.132476l 0.44993, -0.132501l 0.44993, -0.132526l 0.44993, -0.13255l 0.44993, -0.132575l 0.44993,
 -0.132599l 0.44993, -0.132624l 0.44993, -0.132649l 0.44993, -0.132673l 0.44993, -0.132698l 0.44993, -0.132723l 0.44993, -0.132747l 0.44993, -0.132772l 0.44993, -0.132797l 0.44993, -0.132821l 0.44993, -0.132846l 0.44993, -0.13287l 0.44993, -0.132895l
 0.44993, -0.13292l 0.44993, -0.132944l 0.44993, -0.132969l 0.44993, -0.132994l 0.44993, -0.133018l 0.44993, -0.133043l 0.44993, -0.133068l 0.44993, -0.133092l 0.44993, -0.133117l 0.44993, -0.133141l 0.44993, -0.133166l 0.44993, -0.133191l 0.44993,
 -0.133215" fill="none" stroke="#ff0066" stroke-width="3"/>
<path d="M253.078,303.437l 0.44993, -0.13324l 0.44993, -0.133265l 0.44993, -0.133289l 0.44993, -0.133314l 0.44993, -0.133339l 0.44993, -0.133363l 0.44993, -0.133388l 0.44993, -0.133412l 0.44993, -0.133437l 0.44993, -0.133462l 0.44993, -0.133486l
 0.44993, -0.133511l 0.44993, -0.133536l 0.44993, -0.13356l 0.44993, -0.133585l 0.44993, -0.13361l 0.44993, -0.133634l 0.44993, -0.133659l 0.44993, -0.133683l 0.44993, -0.133708l 0.44993, -0.133733l 0.44993, -0.133757l 0.44993, -0.133782l 0.44993,
 -0.133807l 0.44993, -0.133831l 0.44993, -0.133856l 0.44993, -0.133881l 0.44993, -0.133905l 0.44993, -0.13393l 0.44993, -0.133955l 0.44993, -0.133979l 0.44993, -0.134004l 0.44993, -0.134028l 0.44993, -0.134053l 0.44993, -0.134078l 0.44993, -0.134102l
 0.44993, -0.134127l 0.44993, -0.134152l 0.44993, -0.134176l 0.44993, -0.134201l 0.44993, -0.134226l 0.44993, -0.13425l 0.44993, -0.134275l 0.44993, -0.134299l 0.44993, -0.134324l 0.44993, -0.134349l 0.44993, -0.134373l 0.44993, -0.134398l 0.44993,
 -0.134423" fill="none" stroke="#ff0066" stroke-width="3"/>
<path d="M275.124,296.879l 0.44993, -0.134447l 0.44993, -0.134472l 0.44993, -0.134497l 0.44993, -0.134521l 0.44993, -0.134546l 0.44993, -0.13457l 0.44993, -0.134595l 0.44993, -0.13462l 0.44993, -0.134644l 0.44993, -0.134669l 0.44993, -0.134694l
 0.44993, -0.134718l 0.44993, -0.134743l 0.44993, -0.134768l 0.44993, -0.134792l 0.44993, -0.134817l 0.44993, -0.134841l 0.44993, -0.134866l 0.44993, -0.134891l 0.44993, -0.134915l 0.44993, -0.13494l 0.44993, -0.134965l 0.44993, -0.134989l 0.44993,
 -0.135014l 0.44993, -0.135039l 0.44993, -0.135063l 0.44993, -0.135088l 0.44993, -0.135112l 0.44993, -0.135137l 0.44993, -0.135162l 0.44993, -0.135186l 0.44993, -0.135211l 0.44993, -0.135236l 0.44993, -0.13526l 0.44993, -0.135285l 0.44993, -0.13531l
 0.44993, -0.135334l 0.44993, -0.135359l 0.44993, -0.135384l 0.44993, -0.135408l 0.44993, -0.135433l 0.44993, -0.135457l 0.44993, -0.135482l 0.44993, -0.135507l 0.44993, -0.135531l 0.44993, -0.135556l 0.44993, -0.135581l 0.44993, -0.135605l 0.44993,
 -0.13563" fill="none" stroke="#ff0066" stroke-width="3"/>
<path d="M297.171,290.262l 0.44993, -0.135655l 0.44993, -0.135679l 0.44993, -0.135704l 0.44993, -0.135728l 0.44993, -0.135753l 0.44993, -0.135778l 0.44993, -0.135802l 0.44993, -0.135827l 0.44993, -0.135852l 0.44993, -0.135876l 0.44993, -0.135901l
 0.44993, -0.135926l 0.44993, -0.13595l 0.44993, -0.135975l 0.44993, -0.135999l 0.44993, -0.136024l 0.44993, -0.136049l 0.44993, -0.136073l 0.44993, -0.136098l 0.44993, -0.136123l 0.44993, -0.136147l 0.44993, -0.136172l 0.44993, -0.136197l 0.44993,
 -0.136221l 0.44993, -0.136246l 0.44993, -0.13627l 0.44993, -0.136295l 0.44993, -0.13632l 0.44993, -0.136344l 0.44993, -0.136369l 0.44993, -0.136394l 0.44993, -0.136418l 0.44993, -0.136443l 0.44993, -0.136468l 0.44993, -0.136492l 0.44993, -0.136517l
 0.44993, -0.136542l 0.44993, -0.136566l 0.44993, -0.136591l 0.44993, -0.136615l 0.44993, -0.13664l 0.44993, -0.136665l 0.44993, -0.136689l 0.44993, -0.136714l 0.44993, -0.136739l 0.44993, -0.136763l 0.44993, -0.136788l 0.44993, -0.136813l 0.44993,
 -0.136837" fill="none" stroke="#ff0066" stroke-width="3"/>
<path d="M319.217,283.586l 0.44993, -0.136862l 0.44993, -0.136886l 0.44993, -0.136911l 0.44993, -0.136936l 0.44993, -0.13696l 0.44993, -0.136985l 0.44993, -0.13701l 0.44993, -0.137034l 0.44993, -0.137059l 0.44993, -0.137084l 0.44993, -0.137108l
 0.44993, -0.137133l 0.44993, -0.137157l 0.44993, -0.137182l 0.44993, -0.137207l 0.44993, -0.137231l 0.44993, -0.137256l 0.44993, -0.137281l 0.44993, -0.137305l 0.44993, -0.13733l 0.44993, -0.137355l 0.44993, -0.137379l 0.44993, -0.137404l 0.44993,
 -0.137428l 0.44993, -0.137453l 0.44993, -0.137478l 0.44993, -0.137502l 0.44993, -0.137527l 0.44993, -0.137552l 0.44993, -0.137576l 0.44993, -0.137601l 0.44993, -0.137626l 0.44993, -0.13765l 0.44993, -0.137675l 0.44993, -0.137699l 0.44993, -0.137724l
 0.44993, -0.137749l 0.44993, -0.137773l 0.44993, -0.137798l 0.44993, -0.137823l 0.44993, -0.137847l 0.44993, -0.137872l 0.44993, -0.137897l 0.44993, -0.137921l 0.44993, -0.137946l 0.44993, -0.13797l 0.44993, -0.137995l 0.44993, -0.13802l 0.44993,
 -0.138044" fill="none" stroke="#ff0066" stroke-width="3"/>
<path d="M341.264,276.851l 0.44993, -0.138069l 0.44993, -0.138094l 0.44993, -0.138118l 0.44993, -0.138143l 0.44993, -0.138168l 0.44993, -0.138192l 0.44993, -0.138217l 0.44993, -0.138242l 0.44993, -0.138266l 0.44993, -0.138291l 0.44993, -0.138315l
 0.44993, -0.13834l 0.44993, -0.138365l 0.44993, -0.138389l 0.44993, -0.138414l 0.44993, -0.138439l 0.44993, -0.138463l 0.44993, -0.138488l 0.44993, -0.138513l 0.44993, -0.138537l 0.44993, -0.138562l 0.44993, -0.138586l 0.44993, -0.138611l 0.44993,
 -0.138636l 0.44993, -0.13866l 0.44993, -0.138685l 0.44993, -0.13871l 0.44993, -0.138734l 0.44993, -0.138759l 0.44993, -0.138784l 0.44993, -0.138808l 0.44993, -0.138833l 0.44993, -0.138857l 0.44993, -0.138882l 0.44993, -0.138907l 0.44993, -0.138931l
 0.44993, -0.138956l 0.44993, -0.138981l 0.44993, -0.139005l 0.44993, -0.13903l 0.44993, -0.139055l 0.44993, -0.139079l 0.44993, -0.139104l 0.44993, -0.139128l 0.44993, -0.139153l 0.44993, -0.139178l 0.44993, -0.139202l 0.44993, -0.139227l 0.44993,
 -0.139252" fill="none" stroke="#ff0066" stroke-width="3"/>
<path d="M363.311,270.057l 0.44993, -0.139276l 0.44993, -0.139301l 0.44993, -0.139326l 0.44993, -0.13935l 0.44993, -0.139375l 0.44993, -0.139399l 0.44993, -0.139424l 0.44993, -0.139449l 0.44993, -0.139473l 0.44993, -0.139498l 0.44993, -0.139523l
 0.44993, -0.139547l 0.44993, -0.139572l 0.44993, -0.139597l 0.44993, -0.139621l 0.44993, -0.139646l 0.44993, -0.139671l 0.44993, -0.139695l 0.44993, -0.13972l 0.44993, -0.139744l 0.44993, -0.139769l 0.44993, -0.139794l 0.44993, -0.139818l 0.44993,
 -0.139843l 0.44993, -0.139868l 0.44993, -0.139892l 0.44993, -0.139917l 0.44993, -0.139942l 0.44993, -0.139966l 0.44993, -0.139991l 0.44993, -0.140015l 0.44993, -0.14004l 0.44993, -0.140065l 0.44993, -0.140089l 0.44993, -0.140114l 0.44993, -0.140139l
 0.44993, -0.140163l 0.44993, -0.140188l 0.44993, -0.140213l 0.44993, -0.140237l 0.44993, -0.140262l 0.44993, -0.140286l 0.44993, -0.140311l 0.44993, -0.140336l 0.44993, -0.14036l 0.44993, -0.140385l 0.44993, -0.14041l 0.44993, -0.140434l 0.44993,
 -0.140459" fill="none" stroke="#ff0066" stroke-width="3"/>
<path d="M385.357,263.203l 0.44993, -0.140484l 0.44993, -0.140508l 0.44993, -0.140533l 0.44993, -0.140557l 0.44993, -0.140582l 0.44993, -0.140607l 0.44993, -0.140631l 0.44993, -0.140656l 0.44993, -0.140681l 0.44993, -0.140705l 0.44993, -0.14073l
 0.44993, -0.140755l 0.44993, -0.140779l 0.44993, -0.140804l 0.44993, -0.140829l 0.44993, -0.140853l 0.44993, -0.140878l 0.44993, -0.140902l 0.44993, -0.140927l 0.44993, -0.140952l 0.44993, -0.140976l 0.44993, -0.141001l 0.44993, -0.141026l 0.44993,
 -0.14105l 0.44993, -0.141075l 0.44993, -0.1411l 0.44993, -0.141124l 0.44993, -0.141149l 0.44993, -0.141173l 0.44993, -0.141198l 0.44993, -0.141223l 0.44993, -0.141247l 0.44993, -0.141272l 0.44993, -0.141297l 0.44993, -0.141321l 0.44993, -0.141346l
 0.44993, -0.141371l 0.44993, -0.141395l 0.44993, -0.14142l 0.44993, -0.141444l 0.44993, -0.141469l 0.44993, -0.141494l 0.44993, -0.141518l 0.44993, -0.141543l 0.44993, -0.141568l 0.44993, -0.141592l 0.44993, -0.141617l 0.44993, -0.141642l 0.44993,
 -0.141666" fill="none" stroke="#ff0066" stroke-width="3"/>
<path d="M407.404,256.29l 0.44993, -0.141691l 0.44993, -0.141715l 0.44993, -0.14174l 0.44993, -0.141765l 0.44993, -0.141789l 0.44993, -0.141814l 0.44993, -0.141839l 0.44993, -0.141863l 0.44993, -0.141888l 0.44993, -0.141913l 0.44993, -0.141937l
 0.44993, -0.141962l 0.44993, -0.141986l 0.44993, -0.142011l 0.44993, -0.142036l 0.44993, -0.14206l 0.44993, -0.142085l 0.44993, -0.14211l 0.44993, -0.142134l 0.44993, -0.142159l 0.44993, -0.142184l 0.44993, -0.142208l 0.44993, -0.142233l 0.44993,
 -0.142257l 0.44993, -0.142282l 0.44993, -0.142307l 0.44993, -0.142331l 0.44993, -0.142356l 0.44993, -0.142381l 0.44993, -0.142405l 0.44993, -0.14243l 0.44993, -0.142455l 0.44993, -0.142479l 0.44993, -0.142504l 0.44993, -0.142529l 0.44993, -0.142553l
 0.44993, -0.142578l 0.44993, -0.142602l 0.44993, -0.142627l 0.44993, -0.142652l 0.44993, -0.142676l 0.44993, -0.142701l 0.44993, -0.142726l 0.44993, -0.14275l 0.44993, -0.142775l 0.44993, -0.1428l 0.44993, -0.142824l 0.44993, -0.142849l 0.44993,
 -0.142873" fill="none" stroke="#ff0066" stroke-width="3"/>
<path d="M429.45,249.319l 0.44993, -0.142898l 0.44993, -0.142923l 0.44993, -0.142947l 0.44993, -0.142972l 0.44993, -0.142997l 0.44993, -0.143021l 0.44993, -0.143046l 0.44993, -0.143071l 0.44993, -0.143095l 0.44993, -0.14312l 0.44993, -0.143144l
 0.44993, -0.143169l 0.44993, -0.143194l 0.44993, -0.143218l 0.44993, -0.143243l 0.44993, -0.143268l 0.44993, -0.143292l 0.44993, -0.143317l 0.44993, -0.143342l 0.44993, -0.143366l 0.44993, -0.143391l 0.44993, -0.143415l 0.44993, -0.14344l 0.44993,
 -0.143465l 0.44993, -0.143489l 0.44993, -0.143514l 0.44993, -0.143539l 0.44993, -0.143563l 0.44993, -0.143588l 0.44993, -0.143613l 0.44993, -0.143637l 0.44993, -0.143662l 0.44993, -0.143687l 0.44993, -0.143711l 0.44993, -0.143736l 0.44993, -0.14376l
 0.44993, -0.143785l 0.44993, -0.14381l 0.44993, -0.143834l 0.44993, -0.143859l 0.44993, -0.143884l 0.44993, -0.143908l 0.44993, -0.143933l 0.44993, -0.143958l 0.44993, -0.143982l 0.44993, -0.144007l 0.44993, -0.144031l 0.44993, -0.144056l 0.44993,
 -0.144081" fill="none" stroke="#ff0066" stroke-width="3"/>
<path d="M451.497,242.288l 0.44993, -0.144105l 0.44993, -0.14413l 0.44993, -0.144155l 0.44993, -0.144179l 0.44993, -0.144204l 0.44993, -0.144229l 0.44993, -0.144253l 0.44993, -0.144278l 0.44993, -0.144302l 0.44993, -0.144327l 0.44993, -0.144352l
 0.44993, -0.144376l 0.44993, -0.144401l 0.44993, -0.144426l 0.44993, -0.14445l 0.44993, -0.144475l 0.44993, -0.1445l 0.44993, -0.144524l 0.44993, -0.144549l 0.44993, -0.144573l 0.44993, -0.144598l 0.44993, -0.144623l 0.44993, -0.144647l 0.44993,
 -0.144672l 0.44993, -0.144697l 0.44993, -0.144721l 0.44993, -0.144746l 0.44993, -0.144771l 0.44993, -0.144795l 0.44993, -0.14482l 0.44993, -0.144844l 0.44993, -0.144869l 0.44993, -0.144894l 0.44993, -0.144918l 0.44993, -0.144943l 0.44993, -0.144968l
 0.44993, -0.144992l 0.44993, -0.145017l 0.44993, -0.145042l 0.44993, -0.145066l 0.44993, -0.145091l 0.44993, -0.145115l 0.44993, -0.14514l 0.44993, -0.145165l 0.44993, -0.145189l 0.44993, -0.145214l 0.44993, -0.145239l 0.44993, -0.145263l 0.44993,
 -0.145288" fill="none" stroke="#ff0066" stroke-width="3"/>
<path d="M473.543,235.197l 0.44993, -0.145313l 0.44993, -0.145337l 0.44993, -0.145362l 0.44993, -0.145387l 0.44993, -0.145411l 0.44993, -0.145436l 0.44993, -0.14546l 0.44993, -0.145485l 0.44993, -0.14551l 0.44993, -0.145534l 0.44993, -0.145559l
 0.44993, -0.145584l 0.44993, -0.145608l 0.44993, -0.145633l 0.44993, -0.145658l 0.44993, -0.145682l 0.44993, -0.145707l 0.44993, -0.145731l 0.44993, -0.145756l 0.44993, -0.145781l 0.44993, -0.145805l 0.44993, -0.14583l 0.44993, -0.145855l 0.44993,
 -0.145879l 0.44993, -0.145904l 0.44993, -0.145929l 0.44993, -0.145953l 0.44993, -0.145978l 0.44993, -0.146002l 0.44993, -0.146027l 0.44993, -0.146052l 0.44993, -0.146076l 0.44993, -0.146101l 0.44993, -0.146126l 0.44993, -0.14615l 0.44993, -0.146175l
 0.44993, -0.1462l 0.44993, -0.146224l 0.44993, -0.146249l 0.44993, -0.146273l 0.44993, -0.146298l 0.44993, -0.146323l 0.44993, -0.146347l 0.44993, -0.146372l 0.44993, -0.146397l 0.44993, -0.146421l 0.44993, -0.146446l 0.44993, -0.146471l 0.44993,
 -0.146495" fill="none" stroke="#ff0066" stroke-width="3"/>
<path d="M495.59,228.048l 0.44993, -0.14652l 0.44993, -0.146545l 0.44993, -0.146569l 0.44993, -0.146594l 0.44993, -0.146618l 0.44993, -0.146643l 0.44993, -0.146668l 0.44993, -0.146692l 0.44993, -0.146717l 0.44993, -0.146742l 0.44993, -0.146766l
 0.44993, -0.146791l 0.44993, -0.146816l 0.44993, -0.14684l 0.44993, -0.146865l 0.44993, -0.146889l 0.44993, -0.146914l 0.44993, -0.146939l 0.44993, -0.146963l 0.44993, -0.146988l 0.44993, -0.147013l 0.44993, -0.147037l 0.44993, -0.147062l 0.44993,
 -0.147087l 0.44993, -0.147111l 0.44993, -0.147136l 0.44993, -0.14716l 0.44993, -0.147185l 0.44993, -0.14721l 0.44993, -0.147234l 0.44993, -0.147259l 0.44993, -0.147284l 0.44993, -0.147308l 0.44993, -0.147333l 0.44993, -0.147358l 0.44993, -0.147382l
 0.44993, -0.147407l 0.44993, -0.147431l 0.44993, -0.147456l 0.44993, -0.147481l 0.44993, -0.147505l 0.44993, -0.14753l 0.44993, -0.147555l 0.44993, -0.147579l 0.44993, -0.147604l 0.44993, -0.147629l 0.44993, -0.147653l 0.44993, -0.147678l 0.44993,
 -0.147702" fill="none" stroke="#ff0066" stroke-width="3"/>
<path d="M517.636,220.84l 0.44993, -0.147727l 0.44993, -0.147752l 0.44993, -0.147776l 0.44993, -0.147801l 0.44993, -0.147826l 0.44993, -0.14785l 0.44993, -0.147875l 0.44993, -0.1479l 0.44993, -0.147924l 0.44993, -0.147949l 0.44993, -0.147974l
 0.44993, -0.147998l 0.44993, -0.148023l 0.44993, -0.148047l 0.44993, -0.148072l 0.44993, -0.148097l 0.44993, -0.148121l 0.44993, -0.148146l 0.44993, -0.148171l 0.44993, -0.148195l 0.44993, -0.14822l 0.44993, -0.148245l 0.44993, -0.148269l 0.44993,
 -0.148294l 0.44993, -0.148318l 0.44993, -0.148343l 0.44993, -0.148368l 0.44993, -0.148392l 0.44993, -0.148417l 0.44993, -0.148442l 0.44993, -0.148466l 0.44993, -0.148491l 0.44993, -0.148516l 0.44993, -0.14854l 0.44993, -0.148565l 0.44993, -0.148589l
 0.44993, -0.148614l 0.44993, -0.148639l 0.44993, -0.148663l 0.44993, -0.148688l 0.44993, -0.148713l 0.44993, -0.148737l 0.44993, -0.148762l 0.44993, -0.148787l 0.44993, -0.148811l 0.44993, -0.148836l 0.44993, -0.14886l 0.44993, -0.148885l 0.44993,
 -0.14891" fill="none" stroke="#ff0066" stroke-width="3"/>
<path d="M539.683,213.572l 0.44993, -0.148934l 0.44993, -0.148959l 0.44993, -0.148984l 0.44993, -0.149008l 0.44993, -0.149033l 0.44993, -0.149058l 0.44993, -0.149082l 0.44993, -0.149107l 0.44993, -0.149131l 0.44993, -0.149156l 0.44993, -0.149181l
 0.44993, -0.149205l 0.44993, -0.14923l 0.44993, -0.149255l 0.44993, -0.149279l 0.44993, -0.149304l 0.44993, -0.149329l 0.44993, -0.149353l 0.44993, -0.149378" fill="none" stroke="#ff0066" stroke-width="3"/>
<path d="M188.513,21.4167h 299.953" fill="none" stroke="#999999" stroke-width="7"/>
<text xml:space="preserve" x="360.607" y="50.7193" fill="black" font-size="16.0105" font-family="Helvetica"> with EMC</text>
<text xml:space="preserve" x="352.717" y="50.7193" fill="black" font-size="16.0105" font-family="Times">&#0947;</text>
<text xml:space="preserve" x="344.828" y="50.7193" fill="black" font-size="16.0105" font-family="Times">&#0947;</text>
<text xml:space="preserve" x="336.938" y="50.7193" fill="black" font-size="16.0105" font-family="Times">&#0947;</text>
<text xml:space="preserve" x="331.866" y="50.7193" fill="black" font-size="16.0105" font-family="Helvetica"> </text>
<text xml:space="preserve" x="316.65" y="50.7193" fill="black" font-size="16.0105" font-family="Times">&#8594;</text>
<text xml:space="preserve" x="311.578" y="50.7193" fill="black" font-size="16.0105" font-family="Helvetica"> </text>
<text xml:space="preserve" x="303.689" y="50.7193" fill="black" font-size="16.0105" font-family="Times">&#0947;</text>
<text xml:space="preserve" x="298.053" y="45.0838" fill="black" font-size="10.8403" font-family="Helvetica">0</text>
<text xml:space="preserve" x="289.6" y="50.7193" fill="black" font-size="16.0105" font-family="Times">&#0960;</text>
<text xml:space="preserve" x="284.528" y="50.7193" fill="black" font-size="16.0105" font-family="Helvetica"> </text>
<text xml:space="preserve" x="269.312" y="50.7193" fill="black" font-size="16.0105" font-family="Times">&#8594;</text>
<text xml:space="preserve" x="264.24" y="50.7193" fill="black" font-size="16.0105" font-family="Helvetica"> </text>
<text xml:space="preserve" x="252.969" y="50.7193" fill="black" font-size="16.0105" font-family="Times">&#0969;</text>
<text xml:space="preserve" x="128.989" y="50.7193" fill="black" font-size="16.0105" font-family="Helvetica"> = 13 TeV (EG1), </text>
<text xml:space="preserve" x="120.536" y="50.7193" fill="black" font-size="16.0105" font-family="Helvetica" font-style="oblique">s</text>
<path d="M114.9,41.7025l 1.69064, 9.58031" fill="none" stroke="black" stroke-width="2"/>
<path d="M116.591,51.2829l 2.25419, -14.0887" fill="none" stroke="black"/>
<path d="M118.845,37.1942h 10.1439" fill="none" stroke="black"/>
<text xml:space="preserve" x="89.5406" y="50.7193" fill="black" font-size="16.0105" font-family="Helvetica">pp </text>
<text xml:space="preserve" x="89.5406" y="85.6593" fill="black" font-size="16.0105" font-family="Helvetica">ALICE work in progress</text>
<text xml:space="preserve" x="205.068" y="120.599" fill="black" font-size="16.0105" font-family="Helvetica">) &lt; 10.0</text>
<text xml:space="preserve" x="196.051" y="120.599" fill="black" font-size="16.0105" font-family="Helvetica" font-style="oblique">c</text>
<text xml:space="preserve" x="145.895" y="120.599" fill="black" font-size="16.0105" font-family="Helvetica"> /(GeV/</text>
<text xml:space="preserve" x="139.133" y="128.489" fill="black" font-size="10.8403" font-family="Helvetica">T</text>
<text xml:space="preserve" x="129.552" y="120.599" fill="black" font-size="16.0105" font-family="Helvetica" font-style="oblique">p</text>
<text xml:space="preserve" x="124.481" y="120.599" fill="black" font-size="16.0105" font-family="Helvetica"> </text>
<text xml:space="preserve" x="116.027" y="120.599" fill="black" font-size="16.0105" font-family="Times">&#8804;</text>
<text xml:space="preserve" x="89.5406" y="120.599" fill="black" font-size="16.0105" font-family="Helvetica">8.0 </text>
<rect x="312.311" y="69.1755" width="198.425" height="113.448" fill="white"/>
<text xml:space="preserve" x="361.734" y="85.0957" fill="black" font-size="16.0105" font-family="Helvetica">ratio</text>
<path d="M319.752,80.5203h 34.7244" fill="none" stroke="black" stroke-width="2"/>
<g fill="black">
<circle cx="337.114" cy="80.5203" r="6.76257"/>
</g>
<text xml:space="preserve" x="361.734" y="108.201" fill="black" font-size="16.0105" font-family="Helvetica">peak range</text>
<path d="M319.752,103.21h 34.7244" fill="none" stroke="#333333" stroke-width="2"/>
<g stroke="#333333" stroke-width="2" fill="none">
<circle cx="337.114" cy="103.21" r="5.63548"/>
</g>
<text xml:space="preserve" x="361.734" y="130.743" fill="black" font-size="16.0105" font-family="Helvetica">background pol1</text>
<path d="M319.752,125.899h 34.7244" fill="none" stroke="#33cccc" stroke-width="3"/>
<text xml:space="preserve" x="361.734" y="153.285" fill="black" font-size="16.0105" font-family="Helvetica">background pol2</text>
<path d="M319.752,148.589h 34.7244" fill="none" stroke="#ff0066" stroke-width="3"/>
<text xml:space="preserve" x="361.734" y="175.827" fill="black" font-size="16.0105" font-family="Helvetica">param. range</text>
<path d="M319.752,171.279h 34.7244" fill="none" stroke="#999999" stroke-width="7"/></svg>
