<?xml version="1.0" standalone="no"?>
<svg width="567.429" height="553.904" viewBox="0 0 567.429 553.904" xmlns="http://www.w3.org/2000/svg" shape-rendering="crispEdges">
<title>
Data/EG1/OmegaTGPSPS/SameEventToBackgroundRatio_06.svg
</title>
<desc>
Creator: ROOT Version 6.20/08
CreationDate: Mon Mar 29 21:31:15 2021</desc>
<defs>
</defs>
<rect x="0.5" y="0" width="566.929" height="553.404" fill="white"/>
<rect x="68.5315" y="16.6021" width="484.724" height="481.461" fill="white"/>
<rect x="68.5315" y="16.6021" width="484.724" height="481.461" fill="none" stroke="black"/>
<rect x="68.5315" y="16.6021" width="484.724" height="481.461" fill="white"/>
<rect x="68.5315" y="16.6021" width="484.724" height="481.461" fill="none" stroke="black"/>
<g fill="black">
<circle cx="109.325" cy="497.867" r="6.76257"/>
</g>
<g fill="black">
<circle cx="114.124" cy="473.84" r="6.76257"/>
</g>
<g fill="black">
<circle cx="118.924" cy="419.359" r="6.76257"/>
</g>
<g fill="black">
<circle cx="123.723" cy="377.335" r="6.76257"/>
</g>
<g fill="black">
<circle cx="128.522" cy="382.715" r="6.76257"/>
</g>
<g fill="black">
<circle cx="133.321" cy="428.355" r="6.76257"/>
</g>
<g fill="black">
<circle cx="138.121" cy="391.056" r="6.76257"/>
</g>
<g fill="black">
<circle cx="142.92" cy="390.502" r="6.76257"/>
</g>
<g fill="black">
<circle cx="147.719" cy="383.992" r="6.76257"/>
</g>
<g fill="black">
<circle cx="152.518" cy="372.362" r="6.76257"/>
</g>
<g fill="black">
<circle cx="157.318" cy="371.194" r="6.76257"/>
</g>
<g fill="black">
<circle cx="162.117" cy="370.811" r="6.76257"/>
</g>
<g fill="black">
<circle cx="166.916" cy="371.621" r="6.76257"/>
</g>
<g fill="black">
<circle cx="171.715" cy="372.852" r="6.76257"/>
</g>
<g fill="black">
<circle cx="176.515" cy="373.614" r="6.76257"/>
</g>
<g fill="black">
<circle cx="181.314" cy="375.146" r="6.76257"/>
</g>
<g fill="black">
<circle cx="186.113" cy="374.443" r="6.76257"/>
</g>
<g fill="black">
<circle cx="190.912" cy="373.867" r="6.76257"/>
</g>
<g fill="black">
<circle cx="195.712" cy="373.891" r="6.76257"/>
</g>
<g fill="black">
<circle cx="200.511" cy="373.458" r="6.76257"/>
</g>
<g fill="black">
<circle cx="205.31" cy="374.056" r="6.76257"/>
</g>
<g fill="black">
<circle cx="210.109" cy="374.142" r="6.76257"/>
</g>
<g fill="black">
<circle cx="214.909" cy="372.371" r="6.76257"/>
</g>
<g fill="black">
<circle cx="219.708" cy="371.223" r="6.76257"/>
</g>
<g fill="black">
<circle cx="224.507" cy="369.137" r="6.76257"/>
</g>
<g fill="black">
<circle cx="229.306" cy="366.317" r="6.76257"/>
</g>
<g fill="black">
<circle cx="234.106" cy="363.114" r="6.76257"/>
</g>
<g fill="black">
<circle cx="238.905" cy="360.324" r="6.76257"/>
</g>
<g fill="black">
<circle cx="243.704" cy="356.904" r="6.76257"/>
</g>
<g fill="black">
<circle cx="248.503" cy="354.114" r="6.76257"/>
</g>
<g fill="black">
<circle cx="253.303" cy="352.558" r="6.76257"/>
</g>
<g fill="black">
<circle cx="258.102" cy="350.327" r="6.76257"/>
</g>
<g fill="black">
<circle cx="262.901" cy="348.09" r="6.76257"/>
</g>
<g fill="black">
<circle cx="267.7" cy="345.534" r="6.76257"/>
</g>
<g fill="black">
<circle cx="272.5" cy="343.494" r="6.76257"/>
</g>
<g fill="black">
<circle cx="277.299" cy="339.969" r="6.76257"/>
</g>
<g fill="black">
<circle cx="339.689" cy="313.754" r="6.76257"/>
</g>
<g fill="black">
<circle cx="344.488" cy="311.295" r="6.76257"/>
</g>
<g fill="black">
<circle cx="349.288" cy="309.749" r="6.76257"/>
</g>
<g fill="black">
<circle cx="354.087" cy="308.467" r="6.76257"/>
</g>
<g fill="black">
<circle cx="358.886" cy="305.63" r="6.76257"/>
</g>
<g fill="black">
<circle cx="363.685" cy="303.872" r="6.76257"/>
</g>
<g fill="black">
<circle cx="368.485" cy="302.248" r="6.76257"/>
</g>
<g fill="black">
<circle cx="373.284" cy="298.729" r="6.76257"/>
</g>
<g fill="black">
<circle cx="378.083" cy="298.019" r="6.76257"/>
</g>
<g fill="black">
<circle cx="382.882" cy="295.345" r="6.76257"/>
</g>
<g fill="black">
<circle cx="387.682" cy="292.871" r="6.76257"/>
</g>
<g fill="black">
<circle cx="392.481" cy="291.611" r="6.76257"/>
</g>
<g fill="black">
<circle cx="397.28" cy="286.749" r="6.76257"/>
</g>
<g fill="black">
<circle cx="402.079" cy="283.071" r="6.76257"/>
</g>
<g fill="black">
<circle cx="406.879" cy="280.572" r="6.76257"/>
</g>
<g fill="black">
<circle cx="411.678" cy="279.051" r="6.76257"/>
</g>
<g fill="black">
<circle cx="416.477" cy="276.262" r="6.76257"/>
</g>
<g fill="black">
<circle cx="421.276" cy="273.318" r="6.76257"/>
</g>
<g fill="black">
<circle cx="426.076" cy="269.861" r="6.76257"/>
</g>
<g fill="black">
<circle cx="430.875" cy="269.021" r="6.76257"/>
</g>
<g fill="black">
<circle cx="435.674" cy="265.501" r="6.76257"/>
</g>
<g fill="black">
<circle cx="440.473" cy="265.602" r="6.76257"/>
</g>
<g fill="black">
<circle cx="445.273" cy="262.132" r="6.76257"/>
</g>
<g fill="black">
<circle cx="450.072" cy="258.678" r="6.76257"/>
</g>
<g fill="black">
<circle cx="454.871" cy="257.407" r="6.76257"/>
</g>
<g fill="black">
<circle cx="459.671" cy="254.545" r="6.76257"/>
</g>
<g fill="black">
<circle cx="464.47" cy="252.04" r="6.76257"/>
</g>
<g fill="black">
<circle cx="469.269" cy="247.996" r="6.76257"/>
</g>
<g fill="black">
<circle cx="474.068" cy="245.54" r="6.76257"/>
</g>
<g fill="black">
<circle cx="478.867" cy="245.109" r="6.76257"/>
</g>
<g fill="black">
<circle cx="483.667" cy="241.973" r="6.76257"/>
</g>
<g fill="black">
<circle cx="488.466" cy="237.452" r="6.76257"/>
</g>
<g fill="black">
<circle cx="493.265" cy="238.172" r="6.76257"/>
</g>
<g fill="black">
<circle cx="498.065" cy="229.968" r="6.76257"/>
</g>
<g fill="black">
<circle cx="502.864" cy="229.986" r="6.76257"/>
</g>
<g fill="black">
<circle cx="507.663" cy="224.571" r="6.76257"/>
</g>
<g fill="black">
<circle cx="512.462" cy="224.816" r="6.76257"/>
</g>
<g fill="black">
<circle cx="517.262" cy="220.406" r="6.76257"/>
</g>
<g fill="black">
<circle cx="522.061" cy="218.472" r="6.76257"/>
</g>
<g fill="black">
<circle cx="526.86" cy="209.761" r="6.76257"/>
</g>
<g fill="black">
<circle cx="531.659" cy="209.947" r="6.76257"/>
</g>
<g fill="black">
<circle cx="536.458" cy="206.08" r="6.76257"/>
</g>
<g fill="black">
<circle cx="541.258" cy="200.651" r="6.76257"/>
</g>
<g fill="black">
<circle cx="546.057" cy="197.15" r="6.76257"/>
</g>
<path d="M68.5315,498.064h 484.724" fill="none" stroke="black"/>
<path d="M68.5315,483.869v 14.1948" fill="none" stroke="black"/>
<path d="M83.5292,490.966v 7.09741" fill="none" stroke="black"/>
<path d="M98.5268,490.966v 7.09741" fill="none" stroke="black"/>
<path d="M113.524,490.966v 7.09741" fill="none" stroke="black"/>
<path d="M128.522,483.869v 14.1948" fill="none" stroke="black"/>
<path d="M143.52,490.966v 7.09741" fill="none" stroke="black"/>
<path d="M158.517,490.966v 7.09741" fill="none" stroke="black"/>
<path d="M173.515,490.966v 7.09741" fill="none" stroke="black"/>
<path d="M188.513,483.869v 14.1948" fill="none" stroke="black"/>
<path d="M203.51,490.966v 7.09741" fill="none" stroke="black"/>
<path d="M218.508,490.966v 7.09741" fill="none" stroke="black"/>
<path d="M233.506,490.966v 7.09741" fill="none" stroke="black"/>
<path d="M248.503,483.869v 14.1948" fill="none" stroke="black"/>
<path d="M263.501,490.966v 7.09741" fill="none" stroke="black"/>
<path d="M278.499,490.966v 7.09741" fill="none" stroke="black"/>
<path d="M293.496,490.966v 7.09741" fill="none" stroke="black"/>
<path d="M308.494,483.869v 14.1948" fill="none" stroke="black"/>
<path d="M323.492,490.966v 7.09741" fill="none" stroke="black"/>
<path d="M338.489,490.966v 7.09741" fill="none" stroke="black"/>
<path d="M353.487,490.966v 7.09741" fill="none" stroke="black"/>
<path d="M368.485,483.869v 14.1948" fill="none" stroke="black"/>
<path d="M383.482,490.966v 7.09741" fill="none" stroke="black"/>
<path d="M398.48,490.966v 7.09741" fill="none" stroke="black"/>
<path d="M413.478,490.966v 7.09741" fill="none" stroke="black"/>
<path d="M428.475,483.869v 14.1948" fill="none" stroke="black"/>
<path d="M443.473,490.966v 7.09741" fill="none" stroke="black"/>
<path d="M458.471,490.966v 7.09741" fill="none" stroke="black"/>
<path d="M473.468,490.966v 7.09741" fill="none" stroke="black"/>
<path d="M488.466,483.869v 14.1948" fill="none" stroke="black"/>
<path d="M503.464,490.966v 7.09741" fill="none" stroke="black"/>
<path d="M518.461,490.966v 7.09741" fill="none" stroke="black"/>
<path d="M533.459,490.966v 7.09741" fill="none" stroke="black"/>
<path d="M548.457,483.869v 14.1948" fill="none" stroke="black"/>
<path d="M548.457,483.869v 14.1948" fill="none" stroke="black"/>
<text xml:space="preserve" x="63.6174" y="513.956" fill="black" font-size="16.0105" font-family="Helvetica">0</text>
<text xml:space="preserve" x="117.718" y="513.956" fill="black" font-size="16.0105" font-family="Helvetica">0.2</text>
<text xml:space="preserve" x="177.454" y="513.956" fill="black" font-size="16.0105" font-family="Helvetica">0.4</text>
<text xml:space="preserve" x="237.754" y="513.956" fill="black" font-size="16.0105" font-family="Helvetica">0.6</text>
<text xml:space="preserve" x="297.49" y="513.956" fill="black" font-size="16.0105" font-family="Helvetica">0.8</text>
<text xml:space="preserve" x="365.115" y="513.956" fill="black" font-size="16.0105" font-family="Helvetica">1</text>
<text xml:space="preserve" x="417.525" y="513.956" fill="black" font-size="16.0105" font-family="Helvetica">1.2</text>
<text xml:space="preserve" x="477.261" y="513.956" fill="black" font-size="16.0105" font-family="Helvetica">1.4</text>
<text xml:space="preserve" x="537.561" y="513.956" fill="black" font-size="16.0105" font-family="Helvetica">1.6</text>
<text xml:space="preserve" x="548.268" y="537.625" fill="black" font-size="16.0105" font-family="Helvetica">)</text>
<text xml:space="preserve" x="542.633" y="532.553" fill="black" font-size="10.8403" font-family="Helvetica">2</text>
<text xml:space="preserve" x="533.616" y="537.625" fill="black" font-size="16.0105" font-family="Helvetica" font-style="oblique">c</text>
<text xml:space="preserve" x="487.405" y="537.625" fill="black" font-size="16.0105" font-family="Helvetica"> (GeV/</text>
<text xml:space="preserve" x="473.317" y="542.697" fill="black" font-size="10.8403" font-family="Helvetica">inv</text>
<text xml:space="preserve" x="459.792" y="537.625" fill="black" font-size="16.0105" font-family="Helvetica" font-style="oblique">m</text>
<path d="M68.5315,16.6021h 484.724" fill="none" stroke="black"/>
<path d="M68.5315,30.7969v -14.1948" fill="none" stroke="black"/>
<path d="M83.5292,23.6995v -7.09741" fill="none" stroke="black"/>
<path d="M98.5268,23.6995v -7.09741" fill="none" stroke="black"/>
<path d="M113.524,23.6995v -7.09741" fill="none" stroke="black"/>
<path d="M128.522,30.7969v -14.1948" fill="none" stroke="black"/>
<path d="M143.52,23.6995v -7.09741" fill="none" stroke="black"/>
<path d="M158.517,23.6995v -7.09741" fill="none" stroke="black"/>
<path d="M173.515,23.6995v -7.09741" fill="none" stroke="black"/>
<path d="M188.513,30.7969v -14.1948" fill="none" stroke="black"/>
<path d="M203.51,23.6995v -7.09741" fill="none" stroke="black"/>
<path d="M218.508,23.6995v -7.09741" fill="none" stroke="black"/>
<path d="M233.506,23.6995v -7.09741" fill="none" stroke="black"/>
<path d="M248.503,30.7969v -14.1948" fill="none" stroke="black"/>
<path d="M263.501,23.6995v -7.09741" fill="none" stroke="black"/>
<path d="M278.499,23.6995v -7.09741" fill="none" stroke="black"/>
<path d="M293.496,23.6995v -7.09741" fill="none" stroke="black"/>
<path d="M308.494,30.7969v -14.1948" fill="none" stroke="black"/>
<path d="M323.492,23.6995v -7.09741" fill="none" stroke="black"/>
<path d="M338.489,23.6995v -7.09741" fill="none" stroke="black"/>
<path d="M353.487,23.6995v -7.09741" fill="none" stroke="black"/>
<path d="M368.485,30.7969v -14.1948" fill="none" stroke="black"/>
<path d="M383.482,23.6995v -7.09741" fill="none" stroke="black"/>
<path d="M398.48,23.6995v -7.09741" fill="none" stroke="black"/>
<path d="M413.478,23.6995v -7.09741" fill="none" stroke="black"/>
<path d="M428.475,30.7969v -14.1948" fill="none" stroke="black"/>
<path d="M443.473,23.6995v -7.09741" fill="none" stroke="black"/>
<path d="M458.471,23.6995v -7.09741" fill="none" stroke="black"/>
<path d="M473.468,23.6995v -7.09741" fill="none" stroke="black"/>
<path d="M488.466,30.7969v -14.1948" fill="none" stroke="black"/>
<path d="M503.464,23.6995v -7.09741" fill="none" stroke="black"/>
<path d="M518.461,23.6995v -7.09741" fill="none" stroke="black"/>
<path d="M533.459,23.6995v -7.09741" fill="none" stroke="black"/>
<path d="M548.457,30.7969v -14.1948" fill="none" stroke="black"/>
<path d="M548.457,30.7969v -14.1948" fill="none" stroke="black"/>
<path d="M68.5315,498.064v -481.461" fill="none" stroke="black"/>
<path d="M83.3283,498.064h -14.7969" fill="none" stroke="black"/>
<path d="M75.9299,482.9h -7.39843" fill="none" stroke="black"/>
<path d="M75.9299,467.736h -7.39843" fill="none" stroke="black"/>
<path d="M75.9299,452.572h -7.39843" fill="none" stroke="black"/>
<path d="M75.9299,437.409h -7.39843" fill="none" stroke="black"/>
<path d="M83.3283,422.245h -14.7969" fill="none" stroke="black"/>
<path d="M75.9299,407.081h -7.39843" fill="none" stroke="black"/>
<path d="M75.9299,391.917h -7.39843" fill="none" stroke="black"/>
<path d="M75.9299,376.754h -7.39843" fill="none" stroke="black"/>
<path d="M75.9299,361.59h -7.39843" fill="none" stroke="black"/>
<path d="M83.3283,346.426h -14.7969" fill="none" stroke="black"/>
<path d="M75.9299,331.263h -7.39843" fill="none" stroke="black"/>
<path d="M75.9299,316.099h -7.39843" fill="none" stroke="black"/>
<path d="M75.9299,300.935h -7.39843" fill="none" stroke="black"/>
<path d="M75.9299,285.771h -7.39843" fill="none" stroke="black"/>
<path d="M83.3283,270.608h -14.7969" fill="none" stroke="black"/>
<path d="M75.9299,255.444h -7.39843" fill="none" stroke="black"/>
<path d="M75.9299,240.28h -7.39843" fill="none" stroke="black"/>
<path d="M75.9299,225.116h -7.39843" fill="none" stroke="black"/>
<path d="M75.9299,209.953h -7.39843" fill="none" stroke="black"/>
<path d="M83.3283,194.789h -14.7969" fill="none" stroke="black"/>
<path d="M75.9299,179.625h -7.39843" fill="none" stroke="black"/>
<path d="M75.9299,164.462h -7.39843" fill="none" stroke="black"/>
<path d="M75.9299,149.298h -7.39843" fill="none" stroke="black"/>
<path d="M75.9299,134.134h -7.39843" fill="none" stroke="black"/>
<path d="M83.3283,118.97h -14.7969" fill="none" stroke="black"/>
<path d="M75.9299,103.807h -7.39843" fill="none" stroke="black"/>
<path d="M75.9299,88.6429h -7.39843" fill="none" stroke="black"/>
<path d="M75.9299,73.4791h -7.39843" fill="none" stroke="black"/>
<path d="M75.9299,58.3154h -7.39843" fill="none" stroke="black"/>
<path d="M83.3283,43.1517h -14.7969" fill="none" stroke="black"/>
<path d="M83.3283,43.1517h -14.7969" fill="none" stroke="black"/>
<path d="M75.9299,27.9879h -7.39843" fill="none" stroke="black"/>
<text xml:space="preserve" x="56.8548" y="503.248" fill="black" font-size="16.0105" font-family="Helvetica">0</text>
<text xml:space="preserve" x="34.8764" y="427.733" fill="black" font-size="16.0105" font-family="Helvetica">0.05</text>
<text xml:space="preserve" x="46.1474" y="351.654" fill="black" font-size="16.0105" font-family="Helvetica">0.1</text>
<text xml:space="preserve" x="34.8764" y="276.138" fill="black" font-size="16.0105" font-family="Helvetica">0.15</text>
<text xml:space="preserve" x="43.8932" y="200.059" fill="black" font-size="16.0105" font-family="Helvetica">0.2</text>
<text xml:space="preserve" x="34.8764" y="124.544" fill="black" font-size="16.0105" font-family="Helvetica">0.25</text>
<text xml:space="preserve" x="43.8932" y="48.4651" fill="black" font-size="16.0105" font-family="Helvetica">0.3</text>
<g transform="rotate(-90,38.2577,98.0573)">
<text xml:space="preserve" x="38.2577" y="98.0573" fill="black" font-size="16.0105" font-family="Helvetica">background</text>
</g>
<g transform="rotate(-90,21.9148,98.0573)">
<text xml:space="preserve" x="21.9148" y="98.0573" fill="black" font-size="16.0105" font-family="Helvetica">same event</text>
</g>
<path d="M24.169,98.0573l 0.563548, -81.7144" fill="none" stroke="black" stroke-width="2"/>
<path d="M553.256,498.064v -481.461" fill="none" stroke="black"/>
<path d="M538.459,498.064h 14.7969" fill="none" stroke="black"/>
<path d="M545.857,482.9h 7.39843" fill="none" stroke="black"/>
<path d="M545.857,467.736h 7.39843" fill="none" stroke="black"/>
<path d="M545.857,452.572h 7.39843" fill="none" stroke="black"/>
<path d="M545.857,437.409h 7.39843" fill="none" stroke="black"/>
<path d="M538.459,422.245h 14.7969" fill="none" stroke="black"/>
<path d="M545.857,407.081h 7.39843" fill="none" stroke="black"/>
<path d="M545.857,391.917h 7.39843" fill="none" stroke="black"/>
<path d="M545.857,376.754h 7.39843" fill="none" stroke="black"/>
<path d="M545.857,361.59h 7.39843" fill="none" stroke="black"/>
<path d="M538.459,346.426h 14.7969" fill="none" stroke="black"/>
<path d="M545.857,331.263h 7.39843" fill="none" stroke="black"/>
<path d="M545.857,316.099h 7.39843" fill="none" stroke="black"/>
<path d="M545.857,300.935h 7.39843" fill="none" stroke="black"/>
<path d="M545.857,285.771h 7.39843" fill="none" stroke="black"/>
<path d="M538.459,270.608h 14.7969" fill="none" stroke="black"/>
<path d="M545.857,255.444h 7.39843" fill="none" stroke="black"/>
<path d="M545.857,240.28h 7.39843" fill="none" stroke="black"/>
<path d="M545.857,225.116h 7.39843" fill="none" stroke="black"/>
<path d="M545.857,209.953h 7.39843" fill="none" stroke="black"/>
<path d="M538.459,194.789h 14.7969" fill="none" stroke="black"/>
<path d="M545.857,179.625h 7.39843" fill="none" stroke="black"/>
<path d="M545.857,164.462h 7.39843" fill="none" stroke="black"/>
<path d="M545.857,149.298h 7.39843" fill="none" stroke="black"/>
<path d="M545.857,134.134h 7.39843" fill="none" stroke="black"/>
<path d="M538.459,118.97h 14.7969" fill="none" stroke="black"/>
<path d="M545.857,103.807h 7.39843" fill="none" stroke="black"/>
<path d="M545.857,88.6429h 7.39843" fill="none" stroke="black"/>
<path d="M545.857,73.4791h 7.39843" fill="none" stroke="black"/>
<path d="M545.857,58.3154h 7.39843" fill="none" stroke="black"/>
<path d="M538.459,43.1517h 14.7969" fill="none" stroke="black"/>
<path d="M538.459,43.1517h 14.7969" fill="none" stroke="black"/>
<path d="M545.857,27.9879h 7.39843" fill="none" stroke="black"/>
<g stroke="#333333" stroke-width="2" fill="none">
<circle cx="282.098" cy="337.935" r="5.63548"/>
</g>
<g stroke="#333333" stroke-width="2" fill="none">
<circle cx="286.897" cy="334.933" r="5.63548"/>
</g>
<g stroke="#333333" stroke-width="2" fill="none">
<circle cx="291.697" cy="331.641" r="5.63548"/>
</g>
<g stroke="#333333" stroke-width="2" fill="none">
<circle cx="296.496" cy="328.173" r="5.63548"/>
</g>
<g stroke="#333333" stroke-width="2" fill="none">
<circle cx="301.295" cy="326.734" r="5.63548"/>
</g>
<g stroke="#333333" stroke-width="2" fill="none">
<circle cx="306.094" cy="323.182" r="5.63548"/>
</g>
<g stroke="#333333" stroke-width="2" fill="none">
<circle cx="310.894" cy="322.394" r="5.63548"/>
</g>
<g stroke="#333333" stroke-width="2" fill="none">
<circle cx="315.693" cy="322.641" r="5.63548"/>
</g>
<g stroke="#333333" stroke-width="2" fill="none">
<circle cx="320.492" cy="321.486" r="5.63548"/>
</g>
<g stroke="#333333" stroke-width="2" fill="none">
<circle cx="325.291" cy="319.077" r="5.63548"/>
</g>
<g stroke="#333333" stroke-width="2" fill="none">
<circle cx="330.091" cy="316.996" r="5.63548"/>
</g>
<g stroke="#333333" stroke-width="2" fill="none">
<circle cx="334.89" cy="315.253" r="5.63548"/>
</g>
<path d="M98.7518,425.428l 0.44993, -0.210229l 0.44993, -0.210229l 0.44993, -0.210229l 0.44993, -0.210229l 0.44993, -0.210229l 0.44993, -0.210229l 0.44993, -0.210229l 0.44993, -0.210229l 0.44993, -0.210229l 0.44993, -0.210229l 0.44993, -0.210229l
 0.44993, -0.210229l 0.44993, -0.210229l 0.44993, -0.210229l 0.44993, -0.210229l 0.44993, -0.210229l 0.44993, -0.210229l 0.44993, -0.210229l 0.44993, -0.210229l 0.44993, -0.210229l 0.44993, -0.210229l 0.44993, -0.210229l 0.44993, -0.210229l 0.44993,
 -0.210229l 0.44993, -0.210229l 0.44993, -0.210229l 0.44993, -0.210229l 0.44993, -0.210229l 0.44993, -0.210229l 0.44993, -0.210229l 0.44993, -0.210229l 0.44993, -0.210229l 0.44993, -0.210229l 0.44993, -0.210229l 0.44993, -0.210229l 0.44993,
 -0.210229l 0.44993, -0.210229l 0.44993, -0.210229l 0.44993, -0.210229l 0.44993, -0.210229l 0.44993, -0.210229l 0.44993, -0.210229l 0.44993, -0.210229l 0.44993, -0.210229l 0.44993, -0.210229l 0.44993, -0.210229l 0.44993, -0.210229l 0.44993,
 -0.210229l 0.44993, -0.210229" fill="none" stroke="#33cccc" stroke-width="3"/>
<path d="M120.798,415.127l 0.44993, -0.210229l 0.44993, -0.210229l 0.44993, -0.210229l 0.44993, -0.210229l 0.44993, -0.210229l 0.44993, -0.210229l 0.44993, -0.210229l 0.44993, -0.210229l 0.44993, -0.210229l 0.44993, -0.210229l 0.44993, -0.210229l
 0.44993, -0.210229l 0.44993, -0.210229l 0.44993, -0.210229l 0.44993, -0.210229l 0.44993, -0.210229l 0.44993, -0.210229l 0.44993, -0.210229l 0.44993, -0.210229l 0.44993, -0.210229l 0.44993, -0.210229l 0.44993, -0.210229l 0.44993, -0.210229l 0.44993,
 -0.210229l 0.44993, -0.210229l 0.44993, -0.210229l 0.44993, -0.210229l 0.44993, -0.210229l 0.44993, -0.210229l 0.44993, -0.210229l 0.44993, -0.210229l 0.44993, -0.210229l 0.44993, -0.210229l 0.44993, -0.210229l 0.44993, -0.210229l 0.44993,
 -0.210229l 0.44993, -0.210229l 0.44993, -0.210229l 0.44993, -0.210229l 0.44993, -0.210229l 0.44993, -0.210229l 0.44993, -0.210229l 0.44993, -0.210229l 0.44993, -0.210229l 0.44993, -0.210229l 0.44993, -0.210229l 0.44993, -0.210229l 0.44993,
 -0.210229l 0.44993, -0.210229" fill="none" stroke="#33cccc" stroke-width="3"/>
<path d="M142.845,404.826l 0.44993, -0.210229l 0.44993, -0.210229l 0.44993, -0.210229l 0.44993, -0.210229l 0.44993, -0.210229l 0.44993, -0.210229l 0.44993, -0.210229l 0.44993, -0.210229l 0.44993, -0.210229l 0.44993, -0.210229l 0.44993, -0.210229l
 0.44993, -0.210229l 0.44993, -0.210229l 0.44993, -0.210229l 0.44993, -0.210229l 0.44993, -0.210229l 0.44993, -0.210229l 0.44993, -0.210229l 0.44993, -0.210229l 0.44993, -0.210229l 0.44993, -0.210229l 0.44993, -0.210229l 0.44993, -0.210229l 0.44993,
 -0.210229l 0.44993, -0.210229l 0.44993, -0.210229l 0.44993, -0.210229l 0.44993, -0.210229l 0.44993, -0.210229l 0.44993, -0.210229l 0.44993, -0.210229l 0.44993, -0.210229l 0.44993, -0.210229l 0.44993, -0.210229l 0.44993, -0.210229l 0.44993,
 -0.210229l 0.44993, -0.210229l 0.44993, -0.210229l 0.44993, -0.210229l 0.44993, -0.210229l 0.44993, -0.210229l 0.44993, -0.210229l 0.44993, -0.210229l 0.44993, -0.210229l 0.44993, -0.210229l 0.44993, -0.210229l 0.44993, -0.210229l 0.44993,
 -0.210229l 0.44993, -0.210229" fill="none" stroke="#33cccc" stroke-width="3"/>
<path d="M164.891,394.525l 0.44993, -0.210229l 0.44993, -0.210229l 0.44993, -0.210229l 0.44993, -0.210229l 0.44993, -0.210229l 0.44993, -0.210229l 0.44993, -0.210229l 0.44993, -0.210229l 0.44993, -0.210229l 0.44993, -0.210229l 0.44993, -0.210229l
 0.44993, -0.210229l 0.44993, -0.210229l 0.44993, -0.210229l 0.44993, -0.210229l 0.44993, -0.210229l 0.44993, -0.210229l 0.44993, -0.210229l 0.44993, -0.210229l 0.44993, -0.210229l 0.44993, -0.210229l 0.44993, -0.210229l 0.44993, -0.210229l 0.44993,
 -0.210229l 0.44993, -0.210229l 0.44993, -0.210229l 0.44993, -0.210229l 0.44993, -0.210229l 0.44993, -0.210229l 0.44993, -0.210229l 0.44993, -0.210229l 0.44993, -0.210229l 0.44993, -0.210229l 0.44993, -0.210229l 0.44993, -0.210229l 0.44993,
 -0.210229l 0.44993, -0.210229l 0.44993, -0.210229l 0.44993, -0.210229l 0.44993, -0.210229l 0.44993, -0.210229l 0.44993, -0.210229l 0.44993, -0.210229l 0.44993, -0.210229l 0.44993, -0.210229l 0.44993, -0.210229l 0.44993, -0.210229l 0.44993,
 -0.210229l 0.44993, -0.210229" fill="none" stroke="#33cccc" stroke-width="3"/>
<path d="M186.938,384.223l 0.44993, -0.210229l 0.44993, -0.210229l 0.44993, -0.210229l 0.44993, -0.210229l 0.44993, -0.210229l 0.44993, -0.210229l 0.44993, -0.210229l 0.44993, -0.210229l 0.44993, -0.210229l 0.44993, -0.210229l 0.44993, -0.210229l
 0.44993, -0.210229l 0.44993, -0.210229l 0.44993, -0.210229l 0.44993, -0.210229l 0.44993, -0.210229l 0.44993, -0.210229l 0.44993, -0.210229l 0.44993, -0.210229l 0.44993, -0.210229l 0.44993, -0.210229l 0.44993, -0.210229l 0.44993, -0.210229l 0.44993,
 -0.210229l 0.44993, -0.210229l 0.44993, -0.210229l 0.44993, -0.210229l 0.44993, -0.210229l 0.44993, -0.210229l 0.44993, -0.210229l 0.44993, -0.210229l 0.44993, -0.210229l 0.44993, -0.210229l 0.44993, -0.210229l 0.44993, -0.210229l 0.44993,
 -0.210229l 0.44993, -0.210229l 0.44993, -0.210229l 0.44993, -0.210229l 0.44993, -0.210229l 0.44993, -0.210229l 0.44993, -0.210229l 0.44993, -0.210229l 0.44993, -0.210229l 0.44993, -0.210229l 0.44993, -0.210229l 0.44993, -0.210229l 0.44993,
 -0.210229l 0.44993, -0.210229" fill="none" stroke="#33cccc" stroke-width="3"/>
<path d="M208.985,373.922l 0.44993, -0.210229l 0.44993, -0.210229l 0.44993, -0.210229l 0.44993, -0.210229l 0.44993, -0.210229l 0.44993, -0.210229l 0.44993, -0.210229l 0.44993, -0.210229l 0.44993, -0.210229l 0.44993, -0.210229l 0.44993, -0.210229l
 0.44993, -0.210229l 0.44993, -0.210229l 0.44993, -0.210229l 0.44993, -0.210229l 0.44993, -0.210229l 0.44993, -0.210229l 0.44993, -0.210229l 0.44993, -0.210229l 0.44993, -0.210229l 0.44993, -0.210229l 0.44993, -0.210229l 0.44993, -0.210229l 0.44993,
 -0.210229l 0.44993, -0.210229l 0.44993, -0.210229l 0.44993, -0.210229l 0.44993, -0.210229l 0.44993, -0.210229l 0.44993, -0.210229l 0.44993, -0.210229l 0.44993, -0.210229l 0.44993, -0.210229l 0.44993, -0.210229l 0.44993, -0.210229l 0.44993,
 -0.210229l 0.44993, -0.210229l 0.44993, -0.210229l 0.44993, -0.210229l 0.44993, -0.210229l 0.44993, -0.210229l 0.44993, -0.210229l 0.44993, -0.210229l 0.44993, -0.210229l 0.44993, -0.210229l 0.44993, -0.210229l 0.44993, -0.210229l 0.44993,
 -0.210229l 0.44993, -0.210229" fill="none" stroke="#33cccc" stroke-width="3"/>
<path d="M231.031,363.621l 0.44993, -0.210229l 0.44993, -0.210229l 0.44993, -0.210229l 0.44993, -0.210229l 0.44993, -0.210229l 0.44993, -0.210229l 0.44993, -0.210229l 0.44993, -0.210229l 0.44993, -0.210229l 0.44993, -0.210229l 0.44993, -0.210229l
 0.44993, -0.210229l 0.44993, -0.210229l 0.44993, -0.210229l 0.44993, -0.210229l 0.44993, -0.210229l 0.44993, -0.210229l 0.44993, -0.210229l 0.44993, -0.210229l 0.44993, -0.210229l 0.44993, -0.210229l 0.44993, -0.210229l 0.44993, -0.210229l 0.44993,
 -0.210229l 0.44993, -0.210229l 0.44993, -0.210229l 0.44993, -0.210229l 0.44993, -0.210229l 0.44993, -0.210229l 0.44993, -0.210229l 0.44993, -0.210229l 0.44993, -0.210229l 0.44993, -0.210229l 0.44993, -0.210229l 0.44993, -0.210229l 0.44993,
 -0.210229l 0.44993, -0.210229l 0.44993, -0.210229l 0.44993, -0.210229l 0.44993, -0.210229l 0.44993, -0.210229l 0.44993, -0.210229l 0.44993, -0.210229l 0.44993, -0.210229l 0.44993, -0.210229l 0.44993, -0.210229l 0.44993, -0.210229l 0.44993,
 -0.210229l 0.44993, -0.210229" fill="none" stroke="#33cccc" stroke-width="3"/>
<path d="M253.078,353.32l 0.44993, -0.210229l 0.44993, -0.210229l 0.44993, -0.210229l 0.44993, -0.210229l 0.44993, -0.210229l 0.44993, -0.210229l 0.44993, -0.210229l 0.44993, -0.210229l 0.44993, -0.210229l 0.44993, -0.210229l 0.44993, -0.210229l
 0.44993, -0.210229l 0.44993, -0.210229l 0.44993, -0.210229l 0.44993, -0.210229l 0.44993, -0.210229l 0.44993, -0.210229l 0.44993, -0.210229l 0.44993, -0.210229l 0.44993, -0.210229l 0.44993, -0.210229l 0.44993, -0.210229l 0.44993, -0.210229l 0.44993,
 -0.210229l 0.44993, -0.210229l 0.44993, -0.210229l 0.44993, -0.210229l 0.44993, -0.210229l 0.44993, -0.210229l 0.44993, -0.210229l 0.44993, -0.210229l 0.44993, -0.210229l 0.44993, -0.210229l 0.44993, -0.210229l 0.44993, -0.210229l 0.44993,
 -0.210229l 0.44993, -0.210229l 0.44993, -0.210229l 0.44993, -0.210229l 0.44993, -0.210229l 0.44993, -0.210229l 0.44993, -0.210229l 0.44993, -0.210229l 0.44993, -0.210229l 0.44993, -0.210229l 0.44993, -0.210229l 0.44993, -0.210229l 0.44993,
 -0.210229l 0.44993, -0.210229" fill="none" stroke="#33cccc" stroke-width="3"/>
<path d="M275.124,343.018l 0.44993, -0.210229l 0.44993, -0.210229l 0.44993, -0.210229l 0.44993, -0.210229l 0.44993, -0.210229l 0.44993, -0.210229l 0.44993, -0.210229l 0.44993, -0.210229l 0.44993, -0.210229l 0.44993, -0.210229l 0.44993, -0.210229l
 0.44993, -0.210229l 0.44993, -0.210229l 0.44993, -0.210229l 0.44993, -0.210229l 0.44993, -0.210229l 0.44993, -0.210229l 0.44993, -0.210229l 0.44993, -0.210229l 0.44993, -0.210229l 0.44993, -0.210229l 0.44993, -0.210229l 0.44993, -0.210229l 0.44993,
 -0.210229l 0.44993, -0.210229l 0.44993, -0.210229l 0.44993, -0.210229l 0.44993, -0.210229l 0.44993, -0.210229l 0.44993, -0.210229l 0.44993, -0.210229l 0.44993, -0.210229l 0.44993, -0.210229l 0.44993, -0.210229l 0.44993, -0.210229l 0.44993,
 -0.210229l 0.44993, -0.210229l 0.44993, -0.210229l 0.44993, -0.210229l 0.44993, -0.210229l 0.44993, -0.210229l 0.44993, -0.210229l 0.44993, -0.210229l 0.44993, -0.210229l 0.44993, -0.210229l 0.44993, -0.210229l 0.44993, -0.210229l 0.44993,
 -0.210229l 0.44993, -0.210229" fill="none" stroke="#33cccc" stroke-width="3"/>
<path d="M297.171,332.717l 0.44993, -0.210229l 0.44993, -0.210229l 0.44993, -0.210229l 0.44993, -0.210229l 0.44993, -0.210229l 0.44993, -0.210229l 0.44993, -0.210229l 0.44993, -0.210229l 0.44993, -0.210229l 0.44993, -0.210229l 0.44993, -0.210229l
 0.44993, -0.210229l 0.44993, -0.210229l 0.44993, -0.210229l 0.44993, -0.210229l 0.44993, -0.210229l 0.44993, -0.210229l 0.44993, -0.210229l 0.44993, -0.210229l 0.44993, -0.210229l 0.44993, -0.210229l 0.44993, -0.210229l 0.44993, -0.210229l 0.44993,
 -0.210229l 0.44993, -0.210229l 0.44993, -0.210229l 0.44993, -0.210229l 0.44993, -0.210229l 0.44993, -0.210229l 0.44993, -0.210229l 0.44993, -0.210229l 0.44993, -0.210229l 0.44993, -0.210229l 0.44993, -0.210229l 0.44993, -0.210229l 0.44993,
 -0.210229l 0.44993, -0.210229l 0.44993, -0.210229l 0.44993, -0.210229l 0.44993, -0.210229l 0.44993, -0.210229l 0.44993, -0.210229l 0.44993, -0.210229l 0.44993, -0.210229l 0.44993, -0.210229l 0.44993, -0.210229l 0.44993, -0.210229l 0.44993,
 -0.210229l 0.44993, -0.210229" fill="none" stroke="#33cccc" stroke-width="3"/>
<path d="M319.217,322.416l 0.44993, -0.210229l 0.44993, -0.210229l 0.44993, -0.210229l 0.44993, -0.210229l 0.44993, -0.210229l 0.44993, -0.210229l 0.44993, -0.210229l 0.44993, -0.210229l 0.44993, -0.210229l 0.44993, -0.210229l 0.44993, -0.210229l
 0.44993, -0.210229l 0.44993, -0.210229l 0.44993, -0.210229l 0.44993, -0.210229l 0.44993, -0.210229l 0.44993, -0.210229l 0.44993, -0.210229l 0.44993, -0.210229l 0.44993, -0.210229l 0.44993, -0.210229l 0.44993, -0.210229l 0.44993, -0.210229l 0.44993,
 -0.210229l 0.44993, -0.210229l 0.44993, -0.210229l 0.44993, -0.210229l 0.44993, -0.210229l 0.44993, -0.210229l 0.44993, -0.210229l 0.44993, -0.210229l 0.44993, -0.210229l 0.44993, -0.210229l 0.44993, -0.210229l 0.44993, -0.210229l 0.44993,
 -0.210229l 0.44993, -0.210229l 0.44993, -0.210229l 0.44993, -0.210229l 0.44993, -0.210229l 0.44993, -0.210229l 0.44993, -0.210229l 0.44993, -0.210229l 0.44993, -0.210229l 0.44993, -0.210229l 0.44993, -0.210229l 0.44993, -0.210229l 0.44993,
 -0.210229l 0.44993, -0.210229" fill="none" stroke="#33cccc" stroke-width="3"/>
<path d="M341.264,312.115l 0.44993, -0.210229l 0.44993, -0.210229l 0.44993, -0.210229l 0.44993, -0.210229l 0.44993, -0.210229l 0.44993, -0.210229l 0.44993, -0.210229l 0.44993, -0.210229l 0.44993, -0.210229l 0.44993, -0.210229l 0.44993, -0.210229l
 0.44993, -0.210229l 0.44993, -0.210229l 0.44993, -0.210229l 0.44993, -0.210229l 0.44993, -0.210229l 0.44993, -0.210229l 0.44993, -0.210229l 0.44993, -0.210229l 0.44993, -0.210229l 0.44993, -0.210229l 0.44993, -0.210229l 0.44993, -0.210229l 0.44993,
 -0.210229l 0.44993, -0.210229l 0.44993, -0.210229l 0.44993, -0.210229l 0.44993, -0.210229l 0.44993, -0.210229l 0.44993, -0.210229l 0.44993, -0.210229l 0.44993, -0.210229l 0.44993, -0.210229l 0.44993, -0.210229l 0.44993, -0.210229l 0.44993,
 -0.210229l 0.44993, -0.210229l 0.44993, -0.210229l 0.44993, -0.210229l 0.44993, -0.210229l 0.44993, -0.210229l 0.44993, -0.210229l 0.44993, -0.210229l 0.44993, -0.210229l 0.44993, -0.210229l 0.44993, -0.210229l 0.44993, -0.210229l 0.44993,
 -0.210229l 0.44993, -0.210229" fill="none" stroke="#33cccc" stroke-width="3"/>
<path d="M363.311,301.814l 0.44993, -0.210229l 0.44993, -0.210229l 0.44993, -0.210229l 0.44993, -0.210229l 0.44993, -0.210229l 0.44993, -0.210229l 0.44993, -0.210229l 0.44993, -0.210229l 0.44993, -0.210229l 0.44993, -0.210229l 0.44993, -0.210229l
 0.44993, -0.210229l 0.44993, -0.210229l 0.44993, -0.210229l 0.44993, -0.210229l 0.44993, -0.210229l 0.44993, -0.210229l 0.44993, -0.210229l 0.44993, -0.210229l 0.44993, -0.210229l 0.44993, -0.210229l 0.44993, -0.210229l 0.44993, -0.210229l 0.44993,
 -0.210229l 0.44993, -0.210229l 0.44993, -0.210229l 0.44993, -0.210229l 0.44993, -0.210229l 0.44993, -0.210229l 0.44993, -0.210229l 0.44993, -0.210229l 0.44993, -0.210229l 0.44993, -0.210229l 0.44993, -0.210229l 0.44993, -0.210229l 0.44993,
 -0.210229l 0.44993, -0.210229l 0.44993, -0.210229l 0.44993, -0.210229l 0.44993, -0.210229l 0.44993, -0.210229l 0.44993, -0.210229l 0.44993, -0.210229l 0.44993, -0.210229l 0.44993, -0.210229l 0.44993, -0.210229l 0.44993, -0.210229l 0.44993,
 -0.210229l 0.44993, -0.210229" fill="none" stroke="#33cccc" stroke-width="3"/>
<path d="M385.357,291.512l 0.44993, -0.210229l 0.44993, -0.210229l 0.44993, -0.210229l 0.44993, -0.210229l 0.44993, -0.210229l 0.44993, -0.210229l 0.44993, -0.210229l 0.44993, -0.210229l 0.44993, -0.210229l 0.44993, -0.210229l 0.44993, -0.210229l
 0.44993, -0.210229l 0.44993, -0.210229l 0.44993, -0.210229l 0.44993, -0.210229l 0.44993, -0.210229l 0.44993, -0.210229l 0.44993, -0.210229l 0.44993, -0.210229l 0.44993, -0.210229l 0.44993, -0.210229l 0.44993, -0.210229l 0.44993, -0.210229l 0.44993,
 -0.210229l 0.44993, -0.210229l 0.44993, -0.210229l 0.44993, -0.210229l 0.44993, -0.210229l 0.44993, -0.210229l 0.44993, -0.210229l 0.44993, -0.210229l 0.44993, -0.210229l 0.44993, -0.210229l 0.44993, -0.210229l 0.44993, -0.210229l 0.44993,
 -0.210229l 0.44993, -0.210229l 0.44993, -0.210229l 0.44993, -0.210229l 0.44993, -0.210229l 0.44993, -0.210229l 0.44993, -0.210229l 0.44993, -0.210229l 0.44993, -0.210229l 0.44993, -0.210229l 0.44993, -0.210229l 0.44993, -0.210229l 0.44993,
 -0.210229l 0.44993, -0.210229" fill="none" stroke="#33cccc" stroke-width="3"/>
<path d="M407.404,281.211l 0.44993, -0.210229l 0.44993, -0.210229l 0.44993, -0.210229l 0.44993, -0.210229l 0.44993, -0.210229l 0.44993, -0.210229l 0.44993, -0.210229l 0.44993, -0.210229l 0.44993, -0.210229l 0.44993, -0.210229l 0.44993, -0.210229l
 0.44993, -0.210229l 0.44993, -0.210229l 0.44993, -0.210229l 0.44993, -0.210229l 0.44993, -0.210229l 0.44993, -0.210229l 0.44993, -0.210229l 0.44993, -0.210229l 0.44993, -0.210229l 0.44993, -0.210229l 0.44993, -0.210229l 0.44993, -0.210229l 0.44993,
 -0.210229l 0.44993, -0.210229l 0.44993, -0.210229l 0.44993, -0.210229l 0.44993, -0.210229l 0.44993, -0.210229l 0.44993, -0.210229l 0.44993, -0.210229l 0.44993, -0.210229l 0.44993, -0.210229l 0.44993, -0.210229l 0.44993, -0.210229l 0.44993,
 -0.210229l 0.44993, -0.210229l 0.44993, -0.210229l 0.44993, -0.210229l 0.44993, -0.210229l 0.44993, -0.210229l 0.44993, -0.210229l 0.44993, -0.210229l 0.44993, -0.210229l 0.44993, -0.210229l 0.44993, -0.210229l 0.44993, -0.210229l 0.44993,
 -0.210229l 0.44993, -0.210229" fill="none" stroke="#33cccc" stroke-width="3"/>
<path d="M429.45,270.91l 0.44993, -0.210229l 0.44993, -0.210229l 0.44993, -0.210229l 0.44993, -0.210229l 0.44993, -0.210229l 0.44993, -0.210229l 0.44993, -0.210229l 0.44993, -0.210229l 0.44993, -0.210229l 0.44993, -0.210229l 0.44993, -0.210229l
 0.44993, -0.210229l 0.44993, -0.210229l 0.44993, -0.210229l 0.44993, -0.210229l 0.44993, -0.210229l 0.44993, -0.210229l 0.44993, -0.210229l 0.44993, -0.210229l 0.44993, -0.210229l 0.44993, -0.210229l 0.44993, -0.210229l 0.44993, -0.210229l 0.44993,
 -0.210229l 0.44993, -0.210229l 0.44993, -0.210229l 0.44993, -0.210229l 0.44993, -0.210229l 0.44993, -0.210229l 0.44993, -0.210229l 0.44993, -0.210229l 0.44993, -0.210229l 0.44993, -0.210229l 0.44993, -0.210229l 0.44993, -0.210229l 0.44993,
 -0.210229l 0.44993, -0.210229l 0.44993, -0.210229l 0.44993, -0.210229l 0.44993, -0.210229l 0.44993, -0.210229l 0.44993, -0.210229l 0.44993, -0.210229l 0.44993, -0.210229l 0.44993, -0.210229l 0.44993, -0.210229l 0.44993, -0.210229l 0.44993,
 -0.210229l 0.44993, -0.210229" fill="none" stroke="#33cccc" stroke-width="3"/>
<path d="M451.497,260.609l 0.44993, -0.210229l 0.44993, -0.210229l 0.44993, -0.210229l 0.44993, -0.210229l 0.44993, -0.210229l 0.44993, -0.210229l 0.44993, -0.210229l 0.44993, -0.210229l 0.44993, -0.210229l 0.44993, -0.210229l 0.44993, -0.210229l
 0.44993, -0.210229l 0.44993, -0.210229l 0.44993, -0.210229l 0.44993, -0.210229l 0.44993, -0.210229l 0.44993, -0.210229l 0.44993, -0.210229l 0.44993, -0.210229l 0.44993, -0.210229l 0.44993, -0.210229l 0.44993, -0.210229l 0.44993, -0.210229l 0.44993,
 -0.210229l 0.44993, -0.210229l 0.44993, -0.210229l 0.44993, -0.210229l 0.44993, -0.210229l 0.44993, -0.210229l 0.44993, -0.210229l 0.44993, -0.210229l 0.44993, -0.210229l 0.44993, -0.210229l 0.44993, -0.210229l 0.44993, -0.210229l 0.44993,
 -0.210229l 0.44993, -0.210229l 0.44993, -0.210229l 0.44993, -0.210229l 0.44993, -0.210229l 0.44993, -0.210229l 0.44993, -0.210229l 0.44993, -0.210229l 0.44993, -0.210229l 0.44993, -0.210229l 0.44993, -0.210229l 0.44993, -0.210229l 0.44993,
 -0.210229l 0.44993, -0.210229" fill="none" stroke="#33cccc" stroke-width="3"/>
<path d="M473.543,250.308l 0.44993, -0.210229l 0.44993, -0.210229l 0.44993, -0.210229l 0.44993, -0.210229l 0.44993, -0.210229l 0.44993, -0.210229l 0.44993, -0.210229l 0.44993, -0.210229l 0.44993, -0.210229l 0.44993, -0.210229l 0.44993, -0.210229l
 0.44993, -0.210229l 0.44993, -0.210229l 0.44993, -0.210229l 0.44993, -0.210229l 0.44993, -0.210229l 0.44993, -0.210229l 0.44993, -0.210229l 0.44993, -0.210229l 0.44993, -0.210229l 0.44993, -0.210229l 0.44993, -0.210229l 0.44993, -0.210229l 0.44993,
 -0.210229l 0.44993, -0.210229l 0.44993, -0.210229l 0.44993, -0.210229l 0.44993, -0.210229l 0.44993, -0.210229l 0.44993, -0.210229l 0.44993, -0.210229l 0.44993, -0.210229l 0.44993, -0.210229l 0.44993, -0.210229l 0.44993, -0.210229l 0.44993,
 -0.210229l 0.44993, -0.210229l 0.44993, -0.210229l 0.44993, -0.210229l 0.44993, -0.210229l 0.44993, -0.210229l 0.44993, -0.210229l 0.44993, -0.210229l 0.44993, -0.210229l 0.44993, -0.210229l 0.44993, -0.210229l 0.44993, -0.210229l 0.44993,
 -0.210229l 0.44993, -0.210229" fill="none" stroke="#33cccc" stroke-width="3"/>
<path d="M495.59,240.006l 0.44993, -0.210229l 0.44993, -0.210229l 0.44993, -0.210229l 0.44993, -0.210229l 0.44993, -0.210229l 0.44993, -0.210229l 0.44993, -0.210229l 0.44993, -0.210229l 0.44993, -0.210229l 0.44993, -0.210229l 0.44993, -0.210229l
 0.44993, -0.210229l 0.44993, -0.210229l 0.44993, -0.210229l 0.44993, -0.210229l 0.44993, -0.210229l 0.44993, -0.210229l 0.44993, -0.210229l 0.44993, -0.210229l 0.44993, -0.210229l 0.44993, -0.210229l 0.44993, -0.210229l 0.44993, -0.210229l 0.44993,
 -0.210229l 0.44993, -0.210229l 0.44993, -0.210229l 0.44993, -0.210229l 0.44993, -0.210229l 0.44993, -0.210229l 0.44993, -0.210229l 0.44993, -0.210229l 0.44993, -0.210229l 0.44993, -0.210229l 0.44993, -0.210229l 0.44993, -0.210229l 0.44993,
 -0.210229l 0.44993, -0.210229l 0.44993, -0.210229l 0.44993, -0.210229l 0.44993, -0.210229l 0.44993, -0.210229l 0.44993, -0.210229l 0.44993, -0.210229l 0.44993, -0.210229l 0.44993, -0.210229l 0.44993, -0.210229l 0.44993, -0.210229l 0.44993,
 -0.210229l 0.44993, -0.210229" fill="none" stroke="#33cccc" stroke-width="3"/>
<path d="M517.636,229.705l 0.44993, -0.210229l 0.44993, -0.210229l 0.44993, -0.210229l 0.44993, -0.210229l 0.44993, -0.210229l 0.44993, -0.210229l 0.44993, -0.210229l 0.44993, -0.210229l 0.44993, -0.210229l 0.44993, -0.210229l 0.44993, -0.210229l
 0.44993, -0.210229l 0.44993, -0.210229l 0.44993, -0.210229l 0.44993, -0.210229l 0.44993, -0.210229l 0.44993, -0.210229l 0.44993, -0.210229l 0.44993, -0.210229l 0.44993, -0.210229l 0.44993, -0.210229l 0.44993, -0.210229l 0.44993, -0.210229l 0.44993,
 -0.210229l 0.44993, -0.210229l 0.44993, -0.210229l 0.44993, -0.210229l 0.44993, -0.210229l 0.44993, -0.210229l 0.44993, -0.210229l 0.44993, -0.210229l 0.44993, -0.210229l 0.44993, -0.210229l 0.44993, -0.210229l 0.44993, -0.210229l 0.44993,
 -0.210229l 0.44993, -0.210229l 0.44993, -0.210229l 0.44993, -0.210229l 0.44993, -0.210229l 0.44993, -0.210229l 0.44993, -0.210229l 0.44993, -0.210229l 0.44993, -0.210229l 0.44993, -0.210229l 0.44993, -0.210229l 0.44993, -0.210229l 0.44993,
 -0.210229l 0.44993, -0.210229" fill="none" stroke="#33cccc" stroke-width="3"/>
<path d="M539.683,219.404l 0.44993, -0.210229l 0.44993, -0.210229l 0.44993, -0.210229l 0.44993, -0.210229l 0.44993, -0.210229l 0.44993, -0.210229l 0.44993, -0.210229l 0.44993, -0.210229l 0.44993, -0.210229l 0.44993, -0.210229l 0.44993, -0.210229l
 0.44993, -0.210229l 0.44993, -0.210229l 0.44993, -0.210229l 0.44993, -0.210229l 0.44993, -0.210229l 0.44993, -0.210229l 0.44993, -0.210229l 0.44993, -0.210229" fill="none" stroke="#33cccc" stroke-width="3"/>
<path d="M98.7518,419.63l 0.44993, -0.182051l 0.44993, -0.182109l 0.44993, -0.182167l 0.44993, -0.182225l 0.44993, -0.182282l 0.44993, -0.18234l 0.44993, -0.182398l 0.44993, -0.182456l 0.44993, -0.182514l 0.44993, -0.182572l 0.44993, -0.182629l
 0.44993, -0.182687l 0.44993, -0.182745l 0.44993, -0.182803l 0.44993, -0.182861l 0.44993, -0.182919l 0.44993, -0.182976l 0.44993, -0.183034l 0.44993, -0.183092l 0.44993, -0.18315l 0.44993, -0.183208l 0.44993, -0.183265l 0.44993, -0.183323l 0.44993,
 -0.183381l 0.44993, -0.183439l 0.44993, -0.183497l 0.44993, -0.183555l 0.44993, -0.183612l 0.44993, -0.18367l 0.44993, -0.183728l 0.44993, -0.183786l 0.44993, -0.183844l 0.44993, -0.183902l 0.44993, -0.183959l 0.44993, -0.184017l 0.44993, -0.184075l
 0.44993, -0.184133l 0.44993, -0.184191l 0.44993, -0.184249l 0.44993, -0.184306l 0.44993, -0.184364l 0.44993, -0.184422l 0.44993, -0.18448l 0.44993, -0.184538l 0.44993, -0.184595l 0.44993, -0.184653l 0.44993, -0.184711l 0.44993, -0.184769l 0.44993,
 -0.184827" fill="none" stroke="#ff0066" stroke-width="3"/>
<path d="M120.798,410.641l 0.44993, -0.184885l 0.44993, -0.184942l 0.44993, -0.185l 0.44993, -0.185058l 0.44993, -0.185116l 0.44993, -0.185174l 0.44993, -0.185232l 0.44993, -0.185289l 0.44993, -0.185347l 0.44993, -0.185405l 0.44993, -0.185463l
 0.44993, -0.185521l 0.44993, -0.185578l 0.44993, -0.185636l 0.44993, -0.185694l 0.44993, -0.185752l 0.44993, -0.18581l 0.44993, -0.185868l 0.44993, -0.185925l 0.44993, -0.185983l 0.44993, -0.186041l 0.44993, -0.186099l 0.44993, -0.186157l 0.44993,
 -0.186215l 0.44993, -0.186272l 0.44993, -0.18633l 0.44993, -0.186388l 0.44993, -0.186446l 0.44993, -0.186504l 0.44993, -0.186562l 0.44993, -0.186619l 0.44993, -0.186677l 0.44993, -0.186735l 0.44993, -0.186793l 0.44993, -0.186851l 0.44993, -0.186908l
 0.44993, -0.186966l 0.44993, -0.187024l 0.44993, -0.187082l 0.44993, -0.18714l 0.44993, -0.187198l 0.44993, -0.187255l 0.44993, -0.187313l 0.44993, -0.187371l 0.44993, -0.187429l 0.44993, -0.187487l 0.44993, -0.187545l 0.44993, -0.187602l 0.44993,
 -0.18766" fill="none" stroke="#ff0066" stroke-width="3"/>
<path d="M142.845,401.514l 0.44993, -0.187718l 0.44993, -0.187776l 0.44993, -0.187834l 0.44993, -0.187892l 0.44993, -0.187949l 0.44993, -0.188007l 0.44993, -0.188065l 0.44993, -0.188123l 0.44993, -0.188181l 0.44993, -0.188238l 0.44993, -0.188296l
 0.44993, -0.188354l 0.44993, -0.188412l 0.44993, -0.18847l 0.44993, -0.188528l 0.44993, -0.188585l 0.44993, -0.188643l 0.44993, -0.188701l 0.44993, -0.188759l 0.44993, -0.188817l 0.44993, -0.188875l 0.44993, -0.188932l 0.44993, -0.18899l 0.44993,
 -0.189048l 0.44993, -0.189106l 0.44993, -0.189164l 0.44993, -0.189222l 0.44993, -0.189279l 0.44993, -0.189337l 0.44993, -0.189395l 0.44993, -0.189453l 0.44993, -0.189511l 0.44993, -0.189568l 0.44993, -0.189626l 0.44993, -0.189684l 0.44993,
 -0.189742l 0.44993, -0.1898l 0.44993, -0.189858l 0.44993, -0.189915l 0.44993, -0.189973l 0.44993, -0.190031l 0.44993, -0.190089l 0.44993, -0.190147l 0.44993, -0.190205l 0.44993, -0.190262l 0.44993, -0.19032l 0.44993, -0.190378l 0.44993, -0.190436l
 0.44993, -0.190494" fill="none" stroke="#ff0066" stroke-width="3"/>
<path d="M164.891,392.247l 0.44993, -0.190552l 0.44993, -0.190609l 0.44993, -0.190667l 0.44993, -0.190725l 0.44993, -0.190783l 0.44993, -0.190841l 0.44993, -0.190898l 0.44993, -0.190956l 0.44993, -0.191014l 0.44993, -0.191072l 0.44993, -0.19113l
 0.44993, -0.191188l 0.44993, -0.191245l 0.44993, -0.191303l 0.44993, -0.191361l 0.44993, -0.191419l 0.44993, -0.191477l 0.44993, -0.191535l 0.44993, -0.191592l 0.44993, -0.19165l 0.44993, -0.191708l 0.44993, -0.191766l 0.44993, -0.191824l 0.44993,
 -0.191882l 0.44993, -0.191939l 0.44993, -0.191997l 0.44993, -0.192055l 0.44993, -0.192113l 0.44993, -0.192171l 0.44993, -0.192228l 0.44993, -0.192286l 0.44993, -0.192344l 0.44993, -0.192402l 0.44993, -0.19246l 0.44993, -0.192518l 0.44993, -0.192575l
 0.44993, -0.192633l 0.44993, -0.192691l 0.44993, -0.192749l 0.44993, -0.192807l 0.44993, -0.192865l 0.44993, -0.192922l 0.44993, -0.19298l 0.44993, -0.193038l 0.44993, -0.193096l 0.44993, -0.193154l 0.44993, -0.193211l 0.44993, -0.193269l 0.44993,
 -0.193327" fill="none" stroke="#ff0066" stroke-width="3"/>
<path d="M186.938,382.842l 0.44993, -0.193385l 0.44993, -0.193443l 0.44993, -0.193501l 0.44993, -0.193558l 0.44993, -0.193616l 0.44993, -0.193674l 0.44993, -0.193732l 0.44993, -0.19379l 0.44993, -0.193848l 0.44993, -0.193905l 0.44993, -0.193963l
 0.44993, -0.194021l 0.44993, -0.194079l 0.44993, -0.194137l 0.44993, -0.194195l 0.44993, -0.194252l 0.44993, -0.19431l 0.44993, -0.194368l 0.44993, -0.194426l 0.44993, -0.194484l 0.44993, -0.194541l 0.44993, -0.194599l 0.44993, -0.194657l 0.44993,
 -0.194715l 0.44993, -0.194773l 0.44993, -0.194831l 0.44993, -0.194888l 0.44993, -0.194946l 0.44993, -0.195004l 0.44993, -0.195062l 0.44993, -0.19512l 0.44993, -0.195178l 0.44993, -0.195235l 0.44993, -0.195293l 0.44993, -0.195351l 0.44993, -0.195409l
 0.44993, -0.195467l 0.44993, -0.195525l 0.44993, -0.195582l 0.44993, -0.19564l 0.44993, -0.195698l 0.44993, -0.195756l 0.44993, -0.195814l 0.44993, -0.195871l 0.44993, -0.195929l 0.44993, -0.195987l 0.44993, -0.196045l 0.44993, -0.196103l 0.44993,
 -0.196161" fill="none" stroke="#ff0066" stroke-width="3"/>
<path d="M208.985,373.299l 0.44993, -0.196218l 0.44993, -0.196276l 0.44993, -0.196334l 0.44993, -0.196392l 0.44993, -0.19645l 0.44993, -0.196508l 0.44993, -0.196565l 0.44993, -0.196623l 0.44993, -0.196681l 0.44993, -0.196739l 0.44993, -0.196797l
 0.44993, -0.196855l 0.44993, -0.196912l 0.44993, -0.19697l 0.44993, -0.197028l 0.44993, -0.197086l 0.44993, -0.197144l 0.44993, -0.197201l 0.44993, -0.197259l 0.44993, -0.197317l 0.44993, -0.197375l 0.44993, -0.197433l 0.44993, -0.197491l 0.44993,
 -0.197548l 0.44993, -0.197606l 0.44993, -0.197664l 0.44993, -0.197722l 0.44993, -0.19778l 0.44993, -0.197838l 0.44993, -0.197895l 0.44993, -0.197953l 0.44993, -0.198011l 0.44993, -0.198069l 0.44993, -0.198127l 0.44993, -0.198185l 0.44993, -0.198242l
 0.44993, -0.1983l 0.44993, -0.198358l 0.44993, -0.198416l 0.44993, -0.198474l 0.44993, -0.198531l 0.44993, -0.198589l 0.44993, -0.198647l 0.44993, -0.198705l 0.44993, -0.198763l 0.44993, -0.198821l 0.44993, -0.198878l 0.44993, -0.198936l 0.44993,
 -0.198994" fill="none" stroke="#ff0066" stroke-width="3"/>
<path d="M231.031,363.616l 0.44993, -0.199052l 0.44993, -0.19911l 0.44993, -0.199168l 0.44993, -0.199225l 0.44993, -0.199283l 0.44993, -0.199341l 0.44993, -0.199399l 0.44993, -0.199457l 0.44993, -0.199514l 0.44993, -0.199572l 0.44993, -0.19963l
 0.44993, -0.199688l 0.44993, -0.199746l 0.44993, -0.199804l 0.44993, -0.199861l 0.44993, -0.199919l 0.44993, -0.199977l 0.44993, -0.200035l 0.44993, -0.200093l 0.44993, -0.200151l 0.44993, -0.200208l 0.44993, -0.200266l 0.44993, -0.200324l 0.44993,
 -0.200382l 0.44993, -0.20044l 0.44993, -0.200498l 0.44993, -0.200555l 0.44993, -0.200613l 0.44993, -0.200671l 0.44993, -0.200729l 0.44993, -0.200787l 0.44993, -0.200844l 0.44993, -0.200902l 0.44993, -0.20096l 0.44993, -0.201018l 0.44993, -0.201076l
 0.44993, -0.201134l 0.44993, -0.201191l 0.44993, -0.201249l 0.44993, -0.201307l 0.44993, -0.201365l 0.44993, -0.201423l 0.44993, -0.201481l 0.44993, -0.201538l 0.44993, -0.201596l 0.44993, -0.201654l 0.44993, -0.201712l 0.44993, -0.20177l 0.44993,
 -0.201828" fill="none" stroke="#ff0066" stroke-width="3"/>
<path d="M253.078,353.794l 0.44993, -0.201885l 0.44993, -0.201943l 0.44993, -0.202001l 0.44993, -0.202059l 0.44993, -0.202117l 0.44993, -0.202174l 0.44993, -0.202232l 0.44993, -0.20229l 0.44993, -0.202348l 0.44993, -0.202406l 0.44993, -0.202464l
 0.44993, -0.202521l 0.44993, -0.202579l 0.44993, -0.202637l 0.44993, -0.202695l 0.44993, -0.202753l 0.44993, -0.202811l 0.44993, -0.202868l 0.44993, -0.202926l 0.44993, -0.202984l 0.44993, -0.203042l 0.44993, -0.2031l 0.44993, -0.203158l 0.44993,
 -0.203215l 0.44993, -0.203273l 0.44993, -0.203331l 0.44993, -0.203389l 0.44993, -0.203447l 0.44993, -0.203504l 0.44993, -0.203562l 0.44993, -0.20362l 0.44993, -0.203678l 0.44993, -0.203736l 0.44993, -0.203794l 0.44993, -0.203851l 0.44993, -0.203909l
 0.44993, -0.203967l 0.44993, -0.204025l 0.44993, -0.204083l 0.44993, -0.204141l 0.44993, -0.204198l 0.44993, -0.204256l 0.44993, -0.204314l 0.44993, -0.204372l 0.44993, -0.20443l 0.44993, -0.204488l 0.44993, -0.204545l 0.44993, -0.204603l 0.44993,
 -0.204661" fill="none" stroke="#ff0066" stroke-width="3"/>
<path d="M275.124,343.834l 0.44993, -0.204719l 0.44993, -0.204777l 0.44993, -0.204834l 0.44993, -0.204892l 0.44993, -0.20495l 0.44993, -0.205008l 0.44993, -0.205066l 0.44993, -0.205124l 0.44993, -0.205181l 0.44993, -0.205239l 0.44993, -0.205297l
 0.44993, -0.205355l 0.44993, -0.205413l 0.44993, -0.205471l 0.44993, -0.205528l 0.44993, -0.205586l 0.44993, -0.205644l 0.44993, -0.205702l 0.44993, -0.20576l 0.44993, -0.205818l 0.44993, -0.205875l 0.44993, -0.205933l 0.44993, -0.205991l 0.44993,
 -0.206049l 0.44993, -0.206107l 0.44993, -0.206164l 0.44993, -0.206222l 0.44993, -0.20628l 0.44993, -0.206338l 0.44993, -0.206396l 0.44993, -0.206454l 0.44993, -0.206511l 0.44993, -0.206569l 0.44993, -0.206627l 0.44993, -0.206685l 0.44993, -0.206743l
 0.44993, -0.206801l 0.44993, -0.206858l 0.44993, -0.206916l 0.44993, -0.206974l 0.44993, -0.207032l 0.44993, -0.20709l 0.44993, -0.207147l 0.44993, -0.207205l 0.44993, -0.207263l 0.44993, -0.207321l 0.44993, -0.207379l 0.44993, -0.207437l 0.44993,
 -0.207494" fill="none" stroke="#ff0066" stroke-width="3"/>
<path d="M297.171,333.735l 0.44993, -0.207552l 0.44993, -0.20761l 0.44993, -0.207668l 0.44993, -0.207726l 0.44993, -0.207784l 0.44993, -0.207841l 0.44993, -0.207899l 0.44993, -0.207957l 0.44993, -0.208015l 0.44993, -0.208073l 0.44993, -0.208131l
 0.44993, -0.208188l 0.44993, -0.208246l 0.44993, -0.208304l 0.44993, -0.208362l 0.44993, -0.20842l 0.44993, -0.208477l 0.44993, -0.208535l 0.44993, -0.208593l 0.44993, -0.208651l 0.44993, -0.208709l 0.44993, -0.208767l 0.44993, -0.208824l 0.44993,
 -0.208882l 0.44993, -0.20894l 0.44993, -0.208998l 0.44993, -0.209056l 0.44993, -0.209114l 0.44993, -0.209171l 0.44993, -0.209229l 0.44993, -0.209287l 0.44993, -0.209345l 0.44993, -0.209403l 0.44993, -0.209461l 0.44993, -0.209518l 0.44993, -0.209576l
 0.44993, -0.209634l 0.44993, -0.209692l 0.44993, -0.20975l 0.44993, -0.209807l 0.44993, -0.209865l 0.44993, -0.209923l 0.44993, -0.209981l 0.44993, -0.210039l 0.44993, -0.210097l 0.44993, -0.210154l 0.44993, -0.210212l 0.44993, -0.21027l 0.44993,
 -0.210328" fill="none" stroke="#ff0066" stroke-width="3"/>
<path d="M319.217,323.497l 0.44993, -0.210386l 0.44993, -0.210444l 0.44993, -0.210501l 0.44993, -0.210559l 0.44993, -0.210617l 0.44993, -0.210675l 0.44993, -0.210733l 0.44993, -0.210791l 0.44993, -0.210848l 0.44993, -0.210906l 0.44993, -0.210964l
 0.44993, -0.211022l 0.44993, -0.21108l 0.44993, -0.211137l 0.44993, -0.211195l 0.44993, -0.211253l 0.44993, -0.211311l 0.44993, -0.211369l 0.44993, -0.211427l 0.44993, -0.211484l 0.44993, -0.211542l 0.44993, -0.2116l 0.44993, -0.211658l 0.44993,
 -0.211716l 0.44993, -0.211774l 0.44993, -0.211831l 0.44993, -0.211889l 0.44993, -0.211947l 0.44993, -0.212005l 0.44993, -0.212063l 0.44993, -0.212121l 0.44993, -0.212178l 0.44993, -0.212236l 0.44993, -0.212294l 0.44993, -0.212352l 0.44993, -0.21241l
 0.44993, -0.212467l 0.44993, -0.212525l 0.44993, -0.212583l 0.44993, -0.212641l 0.44993, -0.212699l 0.44993, -0.212757l 0.44993, -0.212814l 0.44993, -0.212872l 0.44993, -0.21293l 0.44993, -0.212988l 0.44993, -0.213046l 0.44993, -0.213104l 0.44993,
 -0.213161" fill="none" stroke="#ff0066" stroke-width="3"/>
<path d="M341.264,313.12l 0.44993, -0.213219l 0.44993, -0.213277l 0.44993, -0.213335l 0.44993, -0.213393l 0.44993, -0.213451l 0.44993, -0.213508l 0.44993, -0.213566l 0.44993, -0.213624l 0.44993, -0.213682l 0.44993, -0.21374l 0.44993, -0.213797l
 0.44993, -0.213855l 0.44993, -0.213913l 0.44993, -0.213971l 0.44993, -0.214029l 0.44993, -0.214087l 0.44993, -0.214144l 0.44993, -0.214202l 0.44993, -0.21426l 0.44993, -0.214318l 0.44993, -0.214376l 0.44993, -0.214434l 0.44993, -0.214491l 0.44993,
 -0.214549l 0.44993, -0.214607l 0.44993, -0.214665l 0.44993, -0.214723l 0.44993, -0.21478l 0.44993, -0.214838l 0.44993, -0.214896l 0.44993, -0.214954l 0.44993, -0.215012l 0.44993, -0.21507l 0.44993, -0.215127l 0.44993, -0.215185l 0.44993, -0.215243l
 0.44993, -0.215301l 0.44993, -0.215359l 0.44993, -0.215417l 0.44993, -0.215474l 0.44993, -0.215532l 0.44993, -0.21559l 0.44993, -0.215648l 0.44993, -0.215706l 0.44993, -0.215764l 0.44993, -0.215821l 0.44993, -0.215879l 0.44993, -0.215937l 0.44993,
 -0.215995" fill="none" stroke="#ff0066" stroke-width="3"/>
<path d="M363.311,302.604l 0.44993, -0.216053l 0.44993, -0.21611l 0.44993, -0.216168l 0.44993, -0.216226l 0.44993, -0.216284l 0.44993, -0.216342l 0.44993, -0.2164l 0.44993, -0.216457l 0.44993, -0.216515l 0.44993, -0.216573l 0.44993, -0.216631l
 0.44993, -0.216689l 0.44993, -0.216747l 0.44993, -0.216804l 0.44993, -0.216862l 0.44993, -0.21692l 0.44993, -0.216978l 0.44993, -0.217036l 0.44993, -0.217094l 0.44993, -0.217151l 0.44993, -0.217209l 0.44993, -0.217267l 0.44993, -0.217325l 0.44993,
 -0.217383l 0.44993, -0.21744l 0.44993, -0.217498l 0.44993, -0.217556l 0.44993, -0.217614l 0.44993, -0.217672l 0.44993, -0.21773l 0.44993, -0.217787l 0.44993, -0.217845l 0.44993, -0.217903l 0.44993, -0.217961l 0.44993, -0.218019l 0.44993, -0.218077l
 0.44993, -0.218134l 0.44993, -0.218192l 0.44993, -0.21825l 0.44993, -0.218308l 0.44993, -0.218366l 0.44993, -0.218424l 0.44993, -0.218481l 0.44993, -0.218539l 0.44993, -0.218597l 0.44993, -0.218655l 0.44993, -0.218713l 0.44993, -0.21877l 0.44993,
 -0.218828" fill="none" stroke="#ff0066" stroke-width="3"/>
<path d="M385.357,291.949l 0.44993, -0.218886l 0.44993, -0.218944l 0.44993, -0.219002l 0.44993, -0.21906l 0.44993, -0.219117l 0.44993, -0.219175l 0.44993, -0.219233l 0.44993, -0.219291l 0.44993, -0.219349l 0.44993, -0.219407l 0.44993, -0.219464l
 0.44993, -0.219522l 0.44993, -0.21958l 0.44993, -0.219638l 0.44993, -0.219696l 0.44993, -0.219754l 0.44993, -0.219811l 0.44993, -0.219869l 0.44993, -0.219927l 0.44993, -0.219985l 0.44993, -0.220043l 0.44993, -0.2201l 0.44993, -0.220158l 0.44993,
 -0.220216l 0.44993, -0.220274l 0.44993, -0.220332l 0.44993, -0.22039l 0.44993, -0.220447l 0.44993, -0.220505l 0.44993, -0.220563l 0.44993, -0.220621l 0.44993, -0.220679l 0.44993, -0.220737l 0.44993, -0.220794l 0.44993, -0.220852l 0.44993, -0.22091l
 0.44993, -0.220968l 0.44993, -0.221026l 0.44993, -0.221084l 0.44993, -0.221141l 0.44993, -0.221199l 0.44993, -0.221257l 0.44993, -0.221315l 0.44993, -0.221373l 0.44993, -0.22143l 0.44993, -0.221488l 0.44993, -0.221546l 0.44993, -0.221604l 0.44993,
 -0.221662" fill="none" stroke="#ff0066" stroke-width="3"/>
<path d="M407.404,281.156l 0.44993, -0.22172l 0.44993, -0.221777l 0.44993, -0.221835l 0.44993, -0.221893l 0.44993, -0.221951l 0.44993, -0.222009l 0.44993, -0.222067l 0.44993, -0.222124l 0.44993, -0.222182l 0.44993, -0.22224l 0.44993, -0.222298l
 0.44993, -0.222356l 0.44993, -0.222413l 0.44993, -0.222471l 0.44993, -0.222529l 0.44993, -0.222587l 0.44993, -0.222645l 0.44993, -0.222703l 0.44993, -0.22276l 0.44993, -0.222818l 0.44993, -0.222876l 0.44993, -0.222934l 0.44993, -0.222992l 0.44993,
 -0.22305l 0.44993, -0.223107l 0.44993, -0.223165l 0.44993, -0.223223l 0.44993, -0.223281l 0.44993, -0.223339l 0.44993, -0.223397l 0.44993, -0.223454l 0.44993, -0.223512l 0.44993, -0.22357l 0.44993, -0.223628l 0.44993, -0.223686l 0.44993, -0.223743l
 0.44993, -0.223801l 0.44993, -0.223859l 0.44993, -0.223917l 0.44993, -0.223975l 0.44993, -0.224033l 0.44993, -0.22409l 0.44993, -0.224148l 0.44993, -0.224206l 0.44993, -0.224264l 0.44993, -0.224322l 0.44993, -0.22438l 0.44993, -0.224437l 0.44993,
 -0.224495" fill="none" stroke="#ff0066" stroke-width="3"/>
<path d="M429.45,270.224l 0.44993, -0.224553l 0.44993, -0.224611l 0.44993, -0.224669l 0.44993, -0.224727l 0.44993, -0.224784l 0.44993, -0.224842l 0.44993, -0.2249l 0.44993, -0.224958l 0.44993, -0.225016l 0.44993, -0.225073l 0.44993, -0.225131l
 0.44993, -0.225189l 0.44993, -0.225247l 0.44993, -0.225305l 0.44993, -0.225363l 0.44993, -0.22542l 0.44993, -0.225478l 0.44993, -0.225536l 0.44993, -0.225594l 0.44993, -0.225652l 0.44993, -0.22571l 0.44993, -0.225767l 0.44993, -0.225825l 0.44993,
 -0.225883l 0.44993, -0.225941l 0.44993, -0.225999l 0.44993, -0.226057l 0.44993, -0.226114l 0.44993, -0.226172l 0.44993, -0.22623l 0.44993, -0.226288l 0.44993, -0.226346l 0.44993, -0.226403l 0.44993, -0.226461l 0.44993, -0.226519l 0.44993, -0.226577l
 0.44993, -0.226635l 0.44993, -0.226693l 0.44993, -0.22675l 0.44993, -0.226808l 0.44993, -0.226866l 0.44993, -0.226924l 0.44993, -0.226982l 0.44993, -0.22704l 0.44993, -0.227097l 0.44993, -0.227155l 0.44993, -0.227213l 0.44993, -0.227271l 0.44993,
 -0.227329" fill="none" stroke="#ff0066" stroke-width="3"/>
<path d="M451.497,259.153l 0.44993, -0.227387l 0.44993, -0.227444l 0.44993, -0.227502l 0.44993, -0.22756l 0.44993, -0.227618l 0.44993, -0.227676l 0.44993, -0.227733l 0.44993, -0.227791l 0.44993, -0.227849l 0.44993, -0.227907l 0.44993, -0.227965l
 0.44993, -0.228023l 0.44993, -0.22808l 0.44993, -0.228138l 0.44993, -0.228196l 0.44993, -0.228254l 0.44993, -0.228312l 0.44993, -0.22837l 0.44993, -0.228427l 0.44993, -0.228485l 0.44993, -0.228543l 0.44993, -0.228601l 0.44993, -0.228659l 0.44993,
 -0.228717l 0.44993, -0.228774l 0.44993, -0.228832l 0.44993, -0.22889l 0.44993, -0.228948l 0.44993, -0.229006l 0.44993, -0.229063l 0.44993, -0.229121l 0.44993, -0.229179l 0.44993, -0.229237l 0.44993, -0.229295l 0.44993, -0.229353l 0.44993, -0.22941l
 0.44993, -0.229468l 0.44993, -0.229526l 0.44993, -0.229584l 0.44993, -0.229642l 0.44993, -0.2297l 0.44993, -0.229757l 0.44993, -0.229815l 0.44993, -0.229873l 0.44993, -0.229931l 0.44993, -0.229989l 0.44993, -0.230046l 0.44993, -0.230104l 0.44993,
 -0.230162" fill="none" stroke="#ff0066" stroke-width="3"/>
<path d="M473.543,247.943l 0.44993, -0.23022l 0.44993, -0.230278l 0.44993, -0.230336l 0.44993, -0.230393l 0.44993, -0.230451l 0.44993, -0.230509l 0.44993, -0.230567l 0.44993, -0.230625l 0.44993, -0.230683l 0.44993, -0.23074l 0.44993, -0.230798l
 0.44993, -0.230856l 0.44993, -0.230914l 0.44993, -0.230972l 0.44993, -0.23103l 0.44993, -0.231087l 0.44993, -0.231145l 0.44993, -0.231203l 0.44993, -0.231261l 0.44993, -0.231319l 0.44993, -0.231376l 0.44993, -0.231434l 0.44993, -0.231492l 0.44993,
 -0.23155l 0.44993, -0.231608l 0.44993, -0.231666l 0.44993, -0.231723l 0.44993, -0.231781l 0.44993, -0.231839l 0.44993, -0.231897l 0.44993, -0.231955l 0.44993, -0.232013l 0.44993, -0.23207l 0.44993, -0.232128l 0.44993, -0.232186l 0.44993, -0.232244l
 0.44993, -0.232302l 0.44993, -0.23236l 0.44993, -0.232417l 0.44993, -0.232475l 0.44993, -0.232533l 0.44993, -0.232591l 0.44993, -0.232649l 0.44993, -0.232706l 0.44993, -0.232764l 0.44993, -0.232822l 0.44993, -0.23288l 0.44993, -0.232938l 0.44993,
 -0.232996" fill="none" stroke="#ff0066" stroke-width="3"/>
<path d="M495.59,236.594l 0.44993, -0.233053l 0.44993, -0.233111l 0.44993, -0.233169l 0.44993, -0.233227l 0.44993, -0.233285l 0.44993, -0.233343l 0.44993, -0.2334l 0.44993, -0.233458l 0.44993, -0.233516l 0.44993, -0.233574l 0.44993, -0.233632l
 0.44993, -0.23369l 0.44993, -0.233747l 0.44993, -0.233805l 0.44993, -0.233863l 0.44993, -0.233921l 0.44993, -0.233979l 0.44993, -0.234036l 0.44993, -0.234094l 0.44993, -0.234152l 0.44993, -0.23421l 0.44993, -0.234268l 0.44993, -0.234326l 0.44993,
 -0.234383l 0.44993, -0.234441l 0.44993, -0.234499l 0.44993, -0.234557l 0.44993, -0.234615l 0.44993, -0.234673l 0.44993, -0.23473l 0.44993, -0.234788l 0.44993, -0.234846l 0.44993, -0.234904l 0.44993, -0.234962l 0.44993, -0.23502l 0.44993, -0.235077l
 0.44993, -0.235135l 0.44993, -0.235193l 0.44993, -0.235251l 0.44993, -0.235309l 0.44993, -0.235366l 0.44993, -0.235424l 0.44993, -0.235482l 0.44993, -0.23554l 0.44993, -0.235598l 0.44993, -0.235656l 0.44993, -0.235713l 0.44993, -0.235771l 0.44993,
 -0.235829" fill="none" stroke="#ff0066" stroke-width="3"/>
<path d="M517.636,225.106l 0.44993, -0.235887l 0.44993, -0.235945l 0.44993, -0.236003l 0.44993, -0.23606l 0.44993, -0.236118l 0.44993, -0.236176l 0.44993, -0.236234l 0.44993, -0.236292l 0.44993, -0.23635l 0.44993, -0.236407l 0.44993, -0.236465l
 0.44993, -0.236523l 0.44993, -0.236581l 0.44993, -0.236639l 0.44993, -0.236696l 0.44993, -0.236754l 0.44993, -0.236812l 0.44993, -0.23687l 0.44993, -0.236928l 0.44993, -0.236986l 0.44993, -0.237043l 0.44993, -0.237101l 0.44993, -0.237159l 0.44993,
 -0.237217l 0.44993, -0.237275l 0.44993, -0.237333l 0.44993, -0.23739l 0.44993, -0.237448l 0.44993, -0.237506l 0.44993, -0.237564l 0.44993, -0.237622l 0.44993, -0.237679l 0.44993, -0.237737l 0.44993, -0.237795l 0.44993, -0.237853l 0.44993, -0.237911l
 0.44993, -0.237969l 0.44993, -0.238026l 0.44993, -0.238084l 0.44993, -0.238142l 0.44993, -0.2382l 0.44993, -0.238258l 0.44993, -0.238316l 0.44993, -0.238373l 0.44993, -0.238431l 0.44993, -0.238489l 0.44993, -0.238547l 0.44993, -0.238605l 0.44993,
 -0.238663" fill="none" stroke="#ff0066" stroke-width="3"/>
<path d="M539.683,213.48l 0.44993, -0.23872l 0.44993, -0.238778l 0.44993, -0.238836l 0.44993, -0.238894l 0.44993, -0.238952l 0.44993, -0.239009l 0.44993, -0.239067l 0.44993, -0.239125l 0.44993, -0.239183l 0.44993, -0.239241l 0.44993, -0.239299l
 0.44993, -0.239356l 0.44993, -0.239414l 0.44993, -0.239472l 0.44993, -0.23953l 0.44993, -0.239588l 0.44993, -0.239646l 0.44993, -0.239703l 0.44993, -0.239761" fill="none" stroke="#ff0066" stroke-width="3"/>
<path d="M200.511,21.4167h 287.955" fill="none" stroke="#999999" stroke-width="7"/>
<text xml:space="preserve" x="360.607" y="50.7193" fill="black" font-size="16.0105" font-family="Helvetica"> with EMC</text>
<text xml:space="preserve" x="352.717" y="50.7193" fill="black" font-size="16.0105" font-family="Times">&#0947;</text>
<text xml:space="preserve" x="344.828" y="50.7193" fill="black" font-size="16.0105" font-family="Times">&#0947;</text>
<text xml:space="preserve" x="336.938" y="50.7193" fill="black" font-size="16.0105" font-family="Times">&#0947;</text>
<text xml:space="preserve" x="331.866" y="50.7193" fill="black" font-size="16.0105" font-family="Helvetica"> </text>
<text xml:space="preserve" x="316.65" y="50.7193" fill="black" font-size="16.0105" font-family="Times">&#8594;</text>
<text xml:space="preserve" x="311.578" y="50.7193" fill="black" font-size="16.0105" font-family="Helvetica"> </text>
<text xml:space="preserve" x="303.689" y="50.7193" fill="black" font-size="16.0105" font-family="Times">&#0947;</text>
<text xml:space="preserve" x="298.053" y="45.0838" fill="black" font-size="10.8403" font-family="Helvetica">0</text>
<text xml:space="preserve" x="289.6" y="50.7193" fill="black" font-size="16.0105" font-family="Times">&#0960;</text>
<text xml:space="preserve" x="284.528" y="50.7193" fill="black" font-size="16.0105" font-family="Helvetica"> </text>
<text xml:space="preserve" x="269.312" y="50.7193" fill="black" font-size="16.0105" font-family="Times">&#8594;</text>
<text xml:space="preserve" x="264.24" y="50.7193" fill="black" font-size="16.0105" font-family="Helvetica"> </text>
<text xml:space="preserve" x="252.969" y="50.7193" fill="black" font-size="16.0105" font-family="Times">&#0969;</text>
<text xml:space="preserve" x="128.989" y="50.7193" fill="black" font-size="16.0105" font-family="Helvetica"> = 13 TeV (EG1), </text>
<text xml:space="preserve" x="120.536" y="50.7193" fill="black" font-size="16.0105" font-family="Helvetica" font-style="oblique">s</text>
<path d="M114.9,41.7025l 1.69064, 9.58031" fill="none" stroke="black" stroke-width="2"/>
<path d="M116.591,51.2829l 2.25419, -14.0887" fill="none" stroke="black"/>
<path d="M118.845,37.1942h 10.1439" fill="none" stroke="black"/>
<text xml:space="preserve" x="89.5406" y="50.7193" fill="black" font-size="16.0105" font-family="Helvetica">pp </text>
<text xml:space="preserve" x="89.5406" y="85.6593" fill="black" font-size="16.0105" font-family="Helvetica">ALICE work in progress</text>
<text xml:space="preserve" x="214.085" y="120.599" fill="black" font-size="16.0105" font-family="Helvetica">) &lt; 14.0</text>
<text xml:space="preserve" x="205.068" y="120.599" fill="black" font-size="16.0105" font-family="Helvetica" font-style="oblique">c</text>
<text xml:space="preserve" x="154.912" y="120.599" fill="black" font-size="16.0105" font-family="Helvetica"> /(GeV/</text>
<text xml:space="preserve" x="148.15" y="128.489" fill="black" font-size="10.8403" font-family="Helvetica">T</text>
<text xml:space="preserve" x="138.569" y="120.599" fill="black" font-size="16.0105" font-family="Helvetica" font-style="oblique">p</text>
<text xml:space="preserve" x="133.497" y="120.599" fill="black" font-size="16.0105" font-family="Helvetica"> </text>
<text xml:space="preserve" x="125.044" y="120.599" fill="black" font-size="16.0105" font-family="Times">&#8804;</text>
<text xml:space="preserve" x="89.5406" y="120.599" fill="black" font-size="16.0105" font-family="Helvetica">12.0 </text>
<rect x="312.311" y="69.1755" width="198.425" height="113.448" fill="white"/>
<text xml:space="preserve" x="361.734" y="85.0957" fill="black" font-size="16.0105" font-family="Helvetica">ratio</text>
<path d="M319.752,80.5203h 34.7244" fill="none" stroke="black" stroke-width="2"/>
<g fill="black">
<circle cx="337.114" cy="80.5203" r="6.76257"/>
</g>
<text xml:space="preserve" x="361.734" y="108.201" fill="black" font-size="16.0105" font-family="Helvetica">peak range</text>
<path d="M319.752,103.21h 34.7244" fill="none" stroke="#333333" stroke-width="2"/>
<g stroke="#333333" stroke-width="2" fill="none">
<circle cx="337.114" cy="103.21" r="5.63548"/>
</g>
<text xml:space="preserve" x="361.734" y="130.743" fill="black" font-size="16.0105" font-family="Helvetica">background pol1</text>
<path d="M319.752,125.899h 34.7244" fill="none" stroke="#33cccc" stroke-width="3"/>
<text xml:space="preserve" x="361.734" y="153.285" fill="black" font-size="16.0105" font-family="Helvetica">background pol2</text>
<path d="M319.752,148.589h 34.7244" fill="none" stroke="#ff0066" stroke-width="3"/>
<text xml:space="preserve" x="361.734" y="175.827" fill="black" font-size="16.0105" font-family="Helvetica">param. range</text>
<path d="M319.752,171.279h 34.7244" fill="none" stroke="#999999" stroke-width="7"/></svg>
