<?xml version="1.0" standalone="no"?>
<svg width="567.429" height="553.904" viewBox="0 0 567.429 553.904" xmlns="http://www.w3.org/2000/svg" shape-rendering="crispEdges">
<title>
MC/MB1/OmegaRotPS/SameEventAndBackgroundBeforeScaling_06.svg
</title>
<desc>
Creator: ROOT Version 6.20/08
CreationDate: Mon Mar 29 21:31:20 2021</desc>
<defs>
</defs>
<rect x="0.5" y="0" width="566.929" height="553.404" fill="white"/>
<rect x="57.1929" y="16.6021" width="496.063" height="481.461" fill="white"/>
<rect x="57.1929" y="16.6021" width="496.063" height="481.461" fill="none" stroke="black"/>
<rect x="57.1929" y="16.6021" width="496.063" height="481.461" fill="white"/>
<rect x="57.1929" y="16.6021" width="496.063" height="481.461" fill="none" stroke="black"/>
<g fill="#993333">
<rect x="94.4324" y="489.558" width="9.01677" height="9.01677"/>
</g>
<g fill="#993333">
<rect x="99.3439" y="451.278" width="9.01677" height="9.01677"/>
</g>
<g fill="#993333">
<rect x="104.255" y="425.889" width="9.01677" height="9.01677"/>
</g>
<g fill="#993333">
<rect x="109.167" y="432.189" width="9.01677" height="9.01677"/>
</g>
<g fill="#993333">
<rect x="114.078" y="470.5" width="9.01677" height="9.01677"/>
</g>
<g fill="#993333">
<rect x="118.99" y="464.34" width="9.01677" height="9.01677"/>
</g>
<g fill="#993333">
<rect x="123.901" y="411.727" width="9.01677" height="9.01677"/>
</g>
<g fill="#993333">
<rect x="128.813" y="394.802" width="9.01677" height="9.01677"/>
</g>
<g fill="#993333">
<rect x="133.725" y="384.521" width="9.01677" height="9.01677"/>
</g>
<g fill="#993333">
<rect x="138.636" y="363.534" width="9.01677" height="9.01677"/>
</g>
<g fill="#993333">
<rect x="143.548" y="343.069" width="9.01677" height="9.01677"/>
</g>
<g fill="#993333">
<rect x="148.459" y="322.49" width="9.01677" height="9.01677"/>
</g>
<g fill="#993333">
<rect x="153.371" y="304.262" width="9.01677" height="9.01677"/>
</g>
<g fill="#993333">
<rect x="158.282" y="288.112" width="9.01677" height="9.01677"/>
</g>
<g fill="#993333">
<rect x="163.194" y="273.507" width="9.01677" height="9.01677"/>
</g>
<g fill="#993333">
<rect x="168.105" y="261.976" width="9.01677" height="9.01677"/>
</g>
<g fill="#993333">
<rect x="173.017" y="251.783" width="9.01677" height="9.01677"/>
</g>
<g fill="#993333">
<rect x="177.928" y="244.647" width="9.01677" height="9.01677"/>
</g>
<g fill="#993333">
<rect x="182.84" y="239.142" width="9.01677" height="9.01677"/>
</g>
<g fill="#993333">
<rect x="187.751" y="235.683" width="9.01677" height="9.01677"/>
</g>
<g fill="#993333">
<rect x="192.663" y="231.827" width="9.01677" height="9.01677"/>
</g>
<g fill="#993333">
<rect x="197.574" y="229.036" width="9.01677" height="9.01677"/>
</g>
<g fill="#993333">
<rect x="202.486" y="227.472" width="9.01677" height="9.01677"/>
</g>
<g fill="#993333">
<rect x="207.397" y="226.54" width="9.01677" height="9.01677"/>
</g>
<g fill="#993333">
<rect x="212.309" y="226.077" width="9.01677" height="9.01677"/>
</g>
<g fill="#993333">
<rect x="217.22" y="226.15" width="9.01677" height="9.01677"/>
</g>
<g fill="#993333">
<rect x="222.132" y="226.534" width="9.01677" height="9.01677"/>
</g>
<g fill="#993333">
<rect x="227.043" y="226.66" width="9.01677" height="9.01677"/>
</g>
<g fill="#993333">
<rect x="231.955" y="227.303" width="9.01677" height="9.01677"/>
</g>
<g fill="#993333">
<rect x="236.866" y="231.817" width="9.01677" height="9.01677"/>
</g>
<g fill="#993333">
<rect x="241.778" y="233.799" width="9.01677" height="9.01677"/>
</g>
<g fill="#993333">
<rect x="246.689" y="236.332" width="9.01677" height="9.01677"/>
</g>
<g fill="#993333">
<rect x="251.601" y="240.675" width="9.01677" height="9.01677"/>
</g>
<g fill="#993333">
<rect x="256.512" y="245.008" width="9.01677" height="9.01677"/>
</g>
<g fill="#993333">
<rect x="261.424" y="249.26" width="9.01677" height="9.01677"/>
</g>
<g fill="#993333">
<rect x="266.335" y="254.257" width="9.01677" height="9.01677"/>
</g>
<g fill="#993333">
<rect x="271.247" y="259.637" width="9.01677" height="9.01677"/>
</g>
<g fill="#993333">
<rect x="276.158" y="264.862" width="9.01677" height="9.01677"/>
</g>
<g fill="#993333">
<rect x="281.07" y="269.908" width="9.01677" height="9.01677"/>
</g>
<g fill="#993333">
<rect x="285.981" y="275.241" width="9.01677" height="9.01677"/>
</g>
<g fill="#993333">
<rect x="290.893" y="281.738" width="9.01677" height="9.01677"/>
</g>
<g fill="#993333">
<rect x="295.805" y="285.586" width="9.01677" height="9.01677"/>
</g>
<g fill="#993333">
<rect x="300.716" y="292.933" width="9.01677" height="9.01677"/>
</g>
<g fill="#993333">
<rect x="305.628" y="299.808" width="9.01677" height="9.01677"/>
</g>
<g fill="#993333">
<rect x="310.539" y="304.572" width="9.01677" height="9.01677"/>
</g>
<g fill="#993333">
<rect x="315.451" y="312.497" width="9.01677" height="9.01677"/>
</g>
<g fill="#993333">
<rect x="320.362" y="317.815" width="9.01677" height="9.01677"/>
</g>
<g fill="#993333">
<rect x="325.274" y="322.315" width="9.01677" height="9.01677"/>
</g>
<g fill="#993333">
<rect x="330.185" y="328.995" width="9.01677" height="9.01677"/>
</g>
<g fill="#993333">
<rect x="335.097" y="334.312" width="9.01677" height="9.01677"/>
</g>
<g fill="#993333">
<rect x="340.008" y="340.694" width="9.01677" height="9.01677"/>
</g>
<g fill="#993333">
<rect x="344.92" y="345.16" width="9.01677" height="9.01677"/>
</g>
<g fill="#993333">
<rect x="349.831" y="350.691" width="9.01677" height="9.01677"/>
</g>
<g fill="#993333">
<rect x="354.743" y="354.885" width="9.01677" height="9.01677"/>
</g>
<g fill="#993333">
<rect x="359.654" y="360.057" width="9.01677" height="9.01677"/>
</g>
<g fill="#993333">
<rect x="364.566" y="365.458" width="9.01677" height="9.01677"/>
</g>
<g fill="#993333">
<rect x="369.477" y="369.538" width="9.01677" height="9.01677"/>
</g>
<g fill="#993333">
<rect x="374.389" y="374.271" width="9.01677" height="9.01677"/>
</g>
<g fill="#993333">
<rect x="379.3" y="377.275" width="9.01677" height="9.01677"/>
</g>
<g fill="#993333">
<rect x="384.212" y="382.64" width="9.01677" height="9.01677"/>
</g>
<g fill="#993333">
<rect x="389.123" y="385.485" width="9.01677" height="9.01677"/>
</g>
<g fill="#993333">
<rect x="394.035" y="389.95" width="9.01677" height="9.01677"/>
</g>
<g fill="#993333">
<rect x="398.946" y="393.446" width="9.01677" height="9.01677"/>
</g>
<g fill="#993333">
<rect x="403.858" y="396.617" width="9.01677" height="9.01677"/>
</g>
<g fill="#993333">
<rect x="408.769" y="400.303" width="9.01677" height="9.01677"/>
</g>
<g fill="#993333">
<rect x="413.681" y="403.816" width="9.01677" height="9.01677"/>
</g>
<g fill="#993333">
<rect x="418.592" y="406.535" width="9.01677" height="9.01677"/>
</g>
<g fill="#993333">
<rect x="423.504" y="410.523" width="9.01677" height="9.01677"/>
</g>
<g fill="#993333">
<rect x="428.415" y="413.307" width="9.01677" height="9.01677"/>
</g>
<g fill="#993333">
<rect x="433.327" y="416.239" width="9.01677" height="9.01677"/>
</g>
<g fill="#993333">
<rect x="438.238" y="418.741" width="9.01677" height="9.01677"/>
</g>
<g fill="#993333">
<rect x="443.15" y="421.054" width="9.01677" height="9.01677"/>
</g>
<g fill="#993333">
<rect x="448.061" y="423.534" width="9.01677" height="9.01677"/>
</g>
<g fill="#993333">
<rect x="452.973" y="426.166" width="9.01677" height="9.01677"/>
</g>
<g fill="#993333">
<rect x="457.884" y="428.413" width="9.01677" height="9.01677"/>
</g>
<g fill="#993333">
<rect x="462.796" y="430.318" width="9.01677" height="9.01677"/>
</g>
<g fill="#993333">
<rect x="467.708" y="432.866" width="9.01677" height="9.01677"/>
</g>
<g fill="#993333">
<rect x="472.619" y="435.588" width="9.01677" height="9.01677"/>
</g>
<g fill="#993333">
<rect x="477.531" y="437.311" width="9.01677" height="9.01677"/>
</g>
<g fill="#993333">
<rect x="482.442" y="438.996" width="9.01677" height="9.01677"/>
</g>
<g fill="#993333">
<rect x="487.354" y="440.978" width="9.01677" height="9.01677"/>
</g>
<g fill="#993333">
<rect x="492.265" y="442.536" width="9.01677" height="9.01677"/>
</g>
<g fill="#993333">
<rect x="497.177" y="443.865" width="9.01677" height="9.01677"/>
</g>
<g fill="#993333">
<rect x="502.088" y="445.789" width="9.01677" height="9.01677"/>
</g>
<g fill="#993333">
<rect x="507" y="447.295" width="9.01677" height="9.01677"/>
</g>
<g fill="#993333">
<rect x="511.911" y="449.003" width="9.01677" height="9.01677"/>
</g>
<g fill="#993333">
<rect x="516.823" y="450.852" width="9.01677" height="9.01677"/>
</g>
<g fill="#993333">
<rect x="521.734" y="451.918" width="9.01677" height="9.01677"/>
</g>
<g fill="#993333">
<rect x="526.646" y="453.853" width="9.01677" height="9.01677"/>
</g>
<g fill="#993333">
<rect x="531.557" y="454.547" width="9.01677" height="9.01677"/>
</g>
<g fill="#993333">
<rect x="536.469" y="455.59" width="9.01677" height="9.01677"/>
</g>
<g fill="#993333">
<rect x="541.38" y="457.047" width="9.01677" height="9.01677"/>
</g>
<path d="M57.1929,498.064h 496.063" fill="none" stroke="black"/>
<path d="M57.1929,483.537v 14.5269" fill="none" stroke="black"/>
<path d="M72.5414,490.8v 7.26343" fill="none" stroke="black"/>
<path d="M87.8899,490.8v 7.26343" fill="none" stroke="black"/>
<path d="M103.238,490.8v 7.26343" fill="none" stroke="black"/>
<path d="M118.587,483.537v 14.5269" fill="none" stroke="black"/>
<path d="M133.935,490.8v 7.26343" fill="none" stroke="black"/>
<path d="M149.284,490.8v 7.26343" fill="none" stroke="black"/>
<path d="M164.632,490.8v 7.26343" fill="none" stroke="black"/>
<path d="M179.981,483.537v 14.5269" fill="none" stroke="black"/>
<path d="M195.329,490.8v 7.26343" fill="none" stroke="black"/>
<path d="M210.678,490.8v 7.26343" fill="none" stroke="black"/>
<path d="M226.026,490.8v 7.26343" fill="none" stroke="black"/>
<path d="M241.375,483.537v 14.5269" fill="none" stroke="black"/>
<path d="M256.723,490.8v 7.26343" fill="none" stroke="black"/>
<path d="M272.072,490.8v 7.26343" fill="none" stroke="black"/>
<path d="M287.42,490.8v 7.26343" fill="none" stroke="black"/>
<path d="M302.769,483.537v 14.5269" fill="none" stroke="black"/>
<path d="M318.117,490.8v 7.26343" fill="none" stroke="black"/>
<path d="M333.466,490.8v 7.26343" fill="none" stroke="black"/>
<path d="M348.814,490.8v 7.26343" fill="none" stroke="black"/>
<path d="M364.163,483.537v 14.5269" fill="none" stroke="black"/>
<path d="M379.511,490.8v 7.26343" fill="none" stroke="black"/>
<path d="M394.86,490.8v 7.26343" fill="none" stroke="black"/>
<path d="M410.208,490.8v 7.26343" fill="none" stroke="black"/>
<path d="M425.557,483.537v 14.5269" fill="none" stroke="black"/>
<path d="M440.905,490.8v 7.26343" fill="none" stroke="black"/>
<path d="M456.253,490.8v 7.26343" fill="none" stroke="black"/>
<path d="M471.602,490.8v 7.26343" fill="none" stroke="black"/>
<path d="M486.95,483.537v 14.5269" fill="none" stroke="black"/>
<path d="M502.299,490.8v 7.26343" fill="none" stroke="black"/>
<path d="M517.647,490.8v 7.26343" fill="none" stroke="black"/>
<path d="M532.996,490.8v 7.26343" fill="none" stroke="black"/>
<path d="M548.344,483.537v 14.5269" fill="none" stroke="black"/>
<path d="M548.344,483.537v 14.5269" fill="none" stroke="black"/>
<text xml:space="preserve" x="52.3464" y="513.956" fill="black" font-size="16.0105" font-family="Helvetica">0</text>
<text xml:space="preserve" x="107.574" y="513.956" fill="black" font-size="16.0105" font-family="Helvetica">0.2</text>
<text xml:space="preserve" x="169.001" y="513.956" fill="black" font-size="16.0105" font-family="Helvetica">0.4</text>
<text xml:space="preserve" x="230.428" y="513.956" fill="black" font-size="16.0105" font-family="Helvetica">0.6</text>
<text xml:space="preserve" x="291.854" y="513.956" fill="black" font-size="16.0105" font-family="Helvetica">0.8</text>
<text xml:space="preserve" x="361.171" y="513.956" fill="black" font-size="16.0105" font-family="Helvetica">1</text>
<text xml:space="preserve" x="414.708" y="513.956" fill="black" font-size="16.0105" font-family="Helvetica">1.2</text>
<text xml:space="preserve" x="476.134" y="513.956" fill="black" font-size="16.0105" font-family="Helvetica">1.4</text>
<text xml:space="preserve" x="537.561" y="513.956" fill="black" font-size="16.0105" font-family="Helvetica">1.6</text>
<text xml:space="preserve" x="548.268" y="537.625" fill="black" font-size="16.0105" font-family="Helvetica">)</text>
<text xml:space="preserve" x="542.633" y="532.553" fill="black" font-size="10.8403" font-family="Helvetica">2</text>
<text xml:space="preserve" x="533.616" y="537.625" fill="black" font-size="16.0105" font-family="Helvetica" font-style="oblique">c</text>
<text xml:space="preserve" x="487.405" y="537.625" fill="black" font-size="16.0105" font-family="Helvetica"> (GeV/</text>
<text xml:space="preserve" x="473.317" y="542.697" fill="black" font-size="10.8403" font-family="Helvetica">inv</text>
<text xml:space="preserve" x="459.792" y="537.625" fill="black" font-size="16.0105" font-family="Helvetica" font-style="oblique">m</text>
<path d="M57.1929,16.6021h 496.063" fill="none" stroke="black"/>
<path d="M57.1929,31.129v -14.5269" fill="none" stroke="black"/>
<path d="M72.5414,23.8655v -7.26343" fill="none" stroke="black"/>
<path d="M87.8899,23.8655v -7.26343" fill="none" stroke="black"/>
<path d="M103.238,23.8655v -7.26343" fill="none" stroke="black"/>
<path d="M118.587,31.129v -14.5269" fill="none" stroke="black"/>
<path d="M133.935,23.8655v -7.26343" fill="none" stroke="black"/>
<path d="M149.284,23.8655v -7.26343" fill="none" stroke="black"/>
<path d="M164.632,23.8655v -7.26343" fill="none" stroke="black"/>
<path d="M179.981,31.129v -14.5269" fill="none" stroke="black"/>
<path d="M195.329,23.8655v -7.26343" fill="none" stroke="black"/>
<path d="M210.678,23.8655v -7.26343" fill="none" stroke="black"/>
<path d="M226.026,23.8655v -7.26343" fill="none" stroke="black"/>
<path d="M241.375,31.129v -14.5269" fill="none" stroke="black"/>
<path d="M256.723,23.8655v -7.26343" fill="none" stroke="black"/>
<path d="M272.072,23.8655v -7.26343" fill="none" stroke="black"/>
<path d="M287.42,23.8655v -7.26343" fill="none" stroke="black"/>
<path d="M302.769,31.129v -14.5269" fill="none" stroke="black"/>
<path d="M318.117,23.8655v -7.26343" fill="none" stroke="black"/>
<path d="M333.466,23.8655v -7.26343" fill="none" stroke="black"/>
<path d="M348.814,23.8655v -7.26343" fill="none" stroke="black"/>
<path d="M364.163,31.129v -14.5269" fill="none" stroke="black"/>
<path d="M379.511,23.8655v -7.26343" fill="none" stroke="black"/>
<path d="M394.86,23.8655v -7.26343" fill="none" stroke="black"/>
<path d="M410.208,23.8655v -7.26343" fill="none" stroke="black"/>
<path d="M425.557,31.129v -14.5269" fill="none" stroke="black"/>
<path d="M440.905,23.8655v -7.26343" fill="none" stroke="black"/>
<path d="M456.253,23.8655v -7.26343" fill="none" stroke="black"/>
<path d="M471.602,23.8655v -7.26343" fill="none" stroke="black"/>
<path d="M486.95,31.129v -14.5269" fill="none" stroke="black"/>
<path d="M502.299,23.8655v -7.26343" fill="none" stroke="black"/>
<path d="M517.647,23.8655v -7.26343" fill="none" stroke="black"/>
<path d="M532.996,23.8655v -7.26343" fill="none" stroke="black"/>
<path d="M548.344,31.129v -14.5269" fill="none" stroke="black"/>
<path d="M548.344,31.129v -14.5269" fill="none" stroke="black"/>
<path d="M57.1929,498.064v -481.461" fill="none" stroke="black"/>
<path d="M71.9898,498.064h -14.7969" fill="none" stroke="black"/>
<path d="M64.5913,485.551h -7.39843" fill="none" stroke="black"/>
<path d="M64.5913,473.039h -7.39843" fill="none" stroke="black"/>
<path d="M64.5913,460.526h -7.39843" fill="none" stroke="black"/>
<path d="M71.9898,448.014h -14.7969" fill="none" stroke="black"/>
<path d="M64.5913,435.501h -7.39843" fill="none" stroke="black"/>
<path d="M64.5913,422.989h -7.39843" fill="none" stroke="black"/>
<path d="M64.5913,410.477h -7.39843" fill="none" stroke="black"/>
<path d="M71.9898,397.964h -14.7969" fill="none" stroke="black"/>
<path d="M64.5913,385.452h -7.39843" fill="none" stroke="black"/>
<path d="M64.5913,372.939h -7.39843" fill="none" stroke="black"/>
<path d="M64.5913,360.427h -7.39843" fill="none" stroke="black"/>
<path d="M71.9898,347.915h -14.7969" fill="none" stroke="black"/>
<path d="M64.5913,335.402h -7.39843" fill="none" stroke="black"/>
<path d="M64.5913,322.89h -7.39843" fill="none" stroke="black"/>
<path d="M64.5913,310.377h -7.39843" fill="none" stroke="black"/>
<path d="M71.9898,297.865h -14.7969" fill="none" stroke="black"/>
<path d="M64.5913,285.352h -7.39843" fill="none" stroke="black"/>
<path d="M64.5913,272.84h -7.39843" fill="none" stroke="black"/>
<path d="M64.5913,260.328h -7.39843" fill="none" stroke="black"/>
<path d="M71.9898,247.815h -14.7969" fill="none" stroke="black"/>
<path d="M64.5913,235.303h -7.39843" fill="none" stroke="black"/>
<path d="M64.5913,222.79h -7.39843" fill="none" stroke="black"/>
<path d="M64.5913,210.278h -7.39843" fill="none" stroke="black"/>
<path d="M71.9898,197.766h -14.7969" fill="none" stroke="black"/>
<path d="M64.5913,185.253h -7.39843" fill="none" stroke="black"/>
<path d="M64.5913,172.741h -7.39843" fill="none" stroke="black"/>
<path d="M64.5913,160.228h -7.39843" fill="none" stroke="black"/>
<path d="M71.9898,147.716h -14.7969" fill="none" stroke="black"/>
<path d="M64.5913,135.203h -7.39843" fill="none" stroke="black"/>
<path d="M64.5913,122.691h -7.39843" fill="none" stroke="black"/>
<path d="M64.5913,110.179h -7.39843" fill="none" stroke="black"/>
<path d="M71.9898,97.6662h -14.7969" fill="none" stroke="black"/>
<path d="M64.5913,85.1538h -7.39843" fill="none" stroke="black"/>
<path d="M64.5913,72.6414h -7.39843" fill="none" stroke="black"/>
<path d="M64.5913,60.1289h -7.39843" fill="none" stroke="black"/>
<path d="M71.9898,47.6165h -14.7969" fill="none" stroke="black"/>
<path d="M71.9898,47.6165h -14.7969" fill="none" stroke="black"/>
<path d="M64.5913,35.1041h -7.39843" fill="none" stroke="black"/>
<path d="M64.5913,22.5917h -7.39843" fill="none" stroke="black"/>
<text xml:space="preserve" x="45.5838" y="503.248" fill="black" font-size="16.0105" font-family="Helvetica">0</text>
<text xml:space="preserve" x="37.1306" y="453.092" fill="black" font-size="16.0105" font-family="Helvetica">20</text>
<text xml:space="preserve" x="37.1306" y="403.5" fill="black" font-size="16.0105" font-family="Helvetica">40</text>
<text xml:space="preserve" x="37.1306" y="353.345" fill="black" font-size="16.0105" font-family="Helvetica">60</text>
<text xml:space="preserve" x="37.1306" y="303.189" fill="black" font-size="16.0105" font-family="Helvetica">80</text>
<text xml:space="preserve" x="28.1138" y="253.033" fill="black" font-size="16.0105" font-family="Helvetica">100</text>
<text xml:space="preserve" x="28.1138" y="202.877" fill="black" font-size="16.0105" font-family="Helvetica">120</text>
<text xml:space="preserve" x="28.1138" y="153.285" fill="black" font-size="16.0105" font-family="Helvetica">140</text>
<text xml:space="preserve" x="28.1138" y="103.129" fill="black" font-size="16.0105" font-family="Helvetica">160</text>
<text xml:space="preserve" x="28.1138" y="52.9735" fill="black" font-size="16.0105" font-family="Helvetica">180</text>
<g transform="rotate(-90,22.4784,21.9784)">
<text xml:space="preserve" x="22.4784" y="21.9784" fill="black" font-size="10.8403" font-family="Times">&#0947;</text>
</g>
<g transform="rotate(-90,18.5335,25.9232)">
<text xml:space="preserve" x="18.5335" y="25.9232" fill="black" font-size="7.39355" font-family="Helvetica">0</text>
</g>
<g transform="rotate(-90,22.4784,32.1222)">
<text xml:space="preserve" x="22.4784" y="32.1222" fill="black" font-size="10.8403" font-family="Times">&#0960;</text>
</g>
<g transform="rotate(-90,17.4064,45.0838)">
<text xml:space="preserve" x="17.4064" y="45.0838" fill="black" font-size="16.0105" font-family="Helvetica" font-style="oblique">N</text>
</g>
<path d="M553.256,498.064v -481.461" fill="none" stroke="black"/>
<path d="M538.459,498.064h 14.7969" fill="none" stroke="black"/>
<path d="M545.857,485.551h 7.39843" fill="none" stroke="black"/>
<path d="M545.857,473.039h 7.39843" fill="none" stroke="black"/>
<path d="M545.857,460.526h 7.39843" fill="none" stroke="black"/>
<path d="M538.459,448.014h 14.7969" fill="none" stroke="black"/>
<path d="M545.857,435.501h 7.39843" fill="none" stroke="black"/>
<path d="M545.857,422.989h 7.39843" fill="none" stroke="black"/>
<path d="M545.857,410.477h 7.39843" fill="none" stroke="black"/>
<path d="M538.459,397.964h 14.7969" fill="none" stroke="black"/>
<path d="M545.857,385.452h 7.39843" fill="none" stroke="black"/>
<path d="M545.857,372.939h 7.39843" fill="none" stroke="black"/>
<path d="M545.857,360.427h 7.39843" fill="none" stroke="black"/>
<path d="M538.459,347.915h 14.7969" fill="none" stroke="black"/>
<path d="M545.857,335.402h 7.39843" fill="none" stroke="black"/>
<path d="M545.857,322.89h 7.39843" fill="none" stroke="black"/>
<path d="M545.857,310.377h 7.39843" fill="none" stroke="black"/>
<path d="M538.459,297.865h 14.7969" fill="none" stroke="black"/>
<path d="M545.857,285.352h 7.39843" fill="none" stroke="black"/>
<path d="M545.857,272.84h 7.39843" fill="none" stroke="black"/>
<path d="M545.857,260.328h 7.39843" fill="none" stroke="black"/>
<path d="M538.459,247.815h 14.7969" fill="none" stroke="black"/>
<path d="M545.857,235.303h 7.39843" fill="none" stroke="black"/>
<path d="M545.857,222.79h 7.39843" fill="none" stroke="black"/>
<path d="M545.857,210.278h 7.39843" fill="none" stroke="black"/>
<path d="M538.459,197.766h 14.7969" fill="none" stroke="black"/>
<path d="M545.857,185.253h 7.39843" fill="none" stroke="black"/>
<path d="M545.857,172.741h 7.39843" fill="none" stroke="black"/>
<path d="M545.857,160.228h 7.39843" fill="none" stroke="black"/>
<path d="M538.459,147.716h 14.7969" fill="none" stroke="black"/>
<path d="M545.857,135.203h 7.39843" fill="none" stroke="black"/>
<path d="M545.857,122.691h 7.39843" fill="none" stroke="black"/>
<path d="M545.857,110.179h 7.39843" fill="none" stroke="black"/>
<path d="M538.459,97.6662h 14.7969" fill="none" stroke="black"/>
<path d="M545.857,85.1538h 7.39843" fill="none" stroke="black"/>
<path d="M545.857,72.6414h 7.39843" fill="none" stroke="black"/>
<path d="M545.857,60.1289h 7.39843" fill="none" stroke="black"/>
<path d="M538.459,47.6165h 14.7969" fill="none" stroke="black"/>
<path d="M538.459,47.6165h 14.7969" fill="none" stroke="black"/>
<path d="M545.857,35.1041h 7.39843" fill="none" stroke="black"/>
<path d="M545.857,22.5917h 7.39843" fill="none" stroke="black"/>
<g fill="black">
<circle cx="98.9408" cy="498.062" r="4.50838"/>
</g>
<g fill="black">
<circle cx="103.852" cy="492.85" r="4.50838"/>
</g>
<g fill="black">
<circle cx="108.764" cy="450.073" r="4.50838"/>
</g>
<g fill="black">
<circle cx="113.675" cy="419.101" r="4.50838"/>
</g>
<g fill="black">
<circle cx="118.587" cy="465.093" r="4.50838"/>
</g>
<g fill="black">
<circle cx="123.498" cy="474.338" r="4.50838"/>
</g>
<g fill="black">
<circle cx="128.41" cy="419.396" r="4.50838"/>
</g>
<g fill="black">
<circle cx="133.321" cy="410.127" r="4.50838"/>
</g>
<g fill="black">
<circle cx="138.233" cy="405.766" r="4.50838"/>
</g>
<g fill="black">
<circle cx="143.144" cy="388.351" r="4.50838"/>
</g>
<g fill="black">
<circle cx="148.056" cy="375.679" r="4.50838"/>
</g>
<g fill="black">
<circle cx="152.967" cy="365.085" r="4.50838"/>
</g>
<g fill="black">
<circle cx="157.879" cy="354.964" r="4.50838"/>
</g>
<g fill="black">
<circle cx="162.79" cy="346.696" r="4.50838"/>
</g>
<g fill="black">
<circle cx="167.702" cy="337.792" r="4.50838"/>
</g>
<g fill="black">
<circle cx="172.614" cy="333.528" r="4.50838"/>
</g>
<g fill="black">
<circle cx="177.525" cy="326.366" r="4.50838"/>
</g>
<g fill="black">
<circle cx="182.437" cy="324.61" r="4.50838"/>
</g>
<g fill="black">
<circle cx="187.348" cy="321.084" r="4.50838"/>
</g>
<g fill="black">
<circle cx="192.26" cy="317.973" r="4.50838"/>
</g>
<g fill="black">
<circle cx="197.171" cy="316.054" r="4.50838"/>
</g>
<g fill="black">
<circle cx="202.083" cy="314.213" r="4.50838"/>
</g>
<g fill="black">
<circle cx="206.994" cy="312.625" r="4.50838"/>
</g>
<g fill="black">
<circle cx="211.906" cy="312.965" r="4.50838"/>
</g>
<g fill="black">
<circle cx="216.817" cy="310.862" r="4.50838"/>
</g>
<g fill="black">
<circle cx="221.729" cy="309.694" r="4.50838"/>
</g>
<g fill="black">
<circle cx="226.64" cy="309.863" r="4.50838"/>
</g>
<g fill="black">
<circle cx="231.552" cy="307.587" r="4.50838"/>
</g>
<g fill="black">
<circle cx="236.463" cy="307.522" r="4.50838"/>
</g>
<g fill="black">
<circle cx="241.375" cy="309.244" r="4.50838"/>
</g>
<g fill="black">
<circle cx="246.286" cy="312.169" r="4.50838"/>
</g>
<g fill="black">
<circle cx="251.198" cy="313.546" r="4.50838"/>
</g>
<g fill="black">
<circle cx="256.109" cy="315.775" r="4.50838"/>
</g>
<g fill="black">
<circle cx="261.021" cy="318.825" r="4.50838"/>
</g>
<g fill="black">
<circle cx="265.932" cy="322.728" r="4.50838"/>
</g>
<g fill="black">
<circle cx="270.844" cy="324.798" r="4.50838"/>
</g>
<g fill="black">
<circle cx="275.755" cy="328.311" r="4.50838"/>
</g>
<g fill="black">
<circle cx="280.667" cy="330.35" r="4.50838"/>
</g>
<g fill="black">
<circle cx="285.578" cy="332.788" r="4.50838"/>
</g>
<g fill="black">
<circle cx="290.49" cy="333.699" r="4.50838"/>
</g>
<g fill="black">
<circle cx="295.401" cy="337.104" r="4.50838"/>
</g>
<g fill="black">
<circle cx="300.313" cy="342.659" r="4.50838"/>
</g>
<g fill="black">
<circle cx="305.224" cy="347.636" r="4.50838"/>
</g>
<g fill="black">
<circle cx="310.136" cy="352.8" r="4.50838"/>
</g>
<g fill="black">
<circle cx="315.047" cy="357.745" r="4.50838"/>
</g>
<g fill="black">
<circle cx="319.959" cy="362.02" r="4.50838"/>
</g>
<g fill="black">
<circle cx="324.87" cy="365.796" r="4.50838"/>
</g>
<g fill="black">
<circle cx="329.782" cy="369.513" r="4.50838"/>
</g>
<g fill="black">
<circle cx="334.694" cy="374.091" r="4.50838"/>
</g>
<g fill="black">
<circle cx="339.605" cy="376.987" r="4.50838"/>
</g>
<g fill="black">
<circle cx="344.517" cy="380.009" r="4.50838"/>
</g>
<g fill="black">
<circle cx="349.428" cy="385.68" r="4.50838"/>
</g>
<g fill="black">
<circle cx="354.34" cy="387.379" r="4.50838"/>
</g>
<g fill="black">
<circle cx="359.251" cy="390.442" r="4.50838"/>
</g>
<g fill="black">
<circle cx="364.163" cy="393.738" r="4.50838"/>
</g>
<g fill="black">
<circle cx="369.074" cy="396.619" r="4.50838"/>
</g>
<g fill="black">
<circle cx="373.986" cy="399.107" r="4.50838"/>
</g>
<g fill="black">
<circle cx="378.897" cy="401.799" r="4.50838"/>
</g>
<g fill="black">
<circle cx="383.809" cy="405.019" r="4.50838"/>
</g>
<g fill="black">
<circle cx="388.72" cy="407.165" r="4.50838"/>
</g>
<g fill="black">
<circle cx="393.632" cy="410.484" r="4.50838"/>
</g>
<g fill="black">
<circle cx="398.543" cy="413.352" r="4.50838"/>
</g>
<g fill="black">
<circle cx="403.455" cy="415.957" r="4.50838"/>
</g>
<g fill="black">
<circle cx="408.366" cy="417.712" r="4.50838"/>
</g>
<g fill="black">
<circle cx="413.278" cy="419.813" r="4.50838"/>
</g>
<g fill="black">
<circle cx="418.189" cy="421.886" r="4.50838"/>
</g>
<g fill="black">
<circle cx="423.101" cy="424.886" r="4.50838"/>
</g>
<g fill="black">
<circle cx="428.012" cy="426.662" r="4.50838"/>
</g>
<g fill="black">
<circle cx="432.924" cy="429.108" r="4.50838"/>
</g>
<g fill="black">
<circle cx="437.835" cy="431.065" r="4.50838"/>
</g>
<g fill="black">
<circle cx="442.747" cy="432.455" r="4.50838"/>
</g>
<g fill="black">
<circle cx="447.658" cy="434.116" r="4.50838"/>
</g>
<g fill="black">
<circle cx="452.57" cy="436.975" r="4.50838"/>
</g>
<g fill="black">
<circle cx="457.481" cy="437.829" r="4.50838"/>
</g>
<g fill="black">
<circle cx="462.393" cy="439.569" r="4.50838"/>
</g>
<g fill="black">
<circle cx="467.304" cy="440.602" r="4.50838"/>
</g>
<g fill="black">
<circle cx="472.216" cy="442.789" r="4.50838"/>
</g>
<g fill="black">
<circle cx="477.127" cy="444.95" r="4.50838"/>
</g>
<g fill="black">
<circle cx="482.039" cy="446.639" r="4.50838"/>
</g>
<g fill="black">
<circle cx="486.95" cy="446.85" r="4.50838"/>
</g>
<g fill="black">
<circle cx="491.862" cy="448.674" r="4.50838"/>
</g>
<g fill="black">
<circle cx="496.773" cy="450.235" r="4.50838"/>
</g>
<g fill="black">
<circle cx="501.685" cy="451.3" r="4.50838"/>
</g>
<g fill="black">
<circle cx="506.597" cy="452.503" r="4.50838"/>
</g>
<g fill="black">
<circle cx="511.508" cy="453.786" r="4.50838"/>
</g>
<g fill="black">
<circle cx="516.42" cy="454.611" r="4.50838"/>
</g>
<g fill="black">
<circle cx="521.331" cy="456.029" r="4.50838"/>
</g>
<g fill="black">
<circle cx="526.243" cy="457.185" r="4.50838"/>
</g>
<g fill="black">
<circle cx="531.154" cy="458.246" r="4.50838"/>
</g>
<g fill="black">
<circle cx="536.066" cy="459.401" r="4.50838"/>
</g>
<g fill="black">
<circle cx="540.977" cy="459.926" r="4.50838"/>
</g>
<g fill="black">
<circle cx="545.889" cy="461.156" r="4.50838"/>
</g>
<text xml:space="preserve" x="361.171" y="50.7193" fill="black" font-size="16.0105" font-family="Helvetica"> with EMC</text>
<text xml:space="preserve" x="353.281" y="50.7193" fill="black" font-size="16.0105" font-family="Times">&#0947;</text>
<text xml:space="preserve" x="345.391" y="50.7193" fill="black" font-size="16.0105" font-family="Times">&#0947;</text>
<text xml:space="preserve" x="337.502" y="50.7193" fill="black" font-size="16.0105" font-family="Times">&#0947;</text>
<text xml:space="preserve" x="332.43" y="50.7193" fill="black" font-size="16.0105" font-family="Helvetica"> </text>
<text xml:space="preserve" x="317.214" y="50.7193" fill="black" font-size="16.0105" font-family="Times">&#8594;</text>
<text xml:space="preserve" x="312.142" y="50.7193" fill="black" font-size="16.0105" font-family="Helvetica"> </text>
<text xml:space="preserve" x="304.252" y="50.7193" fill="black" font-size="16.0105" font-family="Times">&#0947;</text>
<text xml:space="preserve" x="298.617" y="45.0838" fill="black" font-size="10.8403" font-family="Helvetica">0</text>
<text xml:space="preserve" x="290.164" y="50.7193" fill="black" font-size="16.0105" font-family="Times">&#0960;</text>
<text xml:space="preserve" x="285.092" y="50.7193" fill="black" font-size="16.0105" font-family="Helvetica"> </text>
<text xml:space="preserve" x="269.876" y="50.7193" fill="black" font-size="16.0105" font-family="Times">&#8594;</text>
<text xml:space="preserve" x="264.804" y="50.7193" fill="black" font-size="16.0105" font-family="Helvetica"> </text>
<text xml:space="preserve" x="253.533" y="50.7193" fill="black" font-size="16.0105" font-family="Times">&#0969;</text>
<text xml:space="preserve" x="128.989" y="50.7193" fill="black" font-size="16.0105" font-family="Helvetica"> = 13 TeV (MB1), </text>
<text xml:space="preserve" x="120.536" y="50.7193" fill="black" font-size="16.0105" font-family="Helvetica" font-style="oblique">s</text>
<path d="M114.9,41.7025l 1.69064, 9.58031" fill="none" stroke="black" stroke-width="2"/>
<path d="M116.591,51.2829l 2.25419, -14.0887" fill="none" stroke="black"/>
<path d="M118.845,37.1942h 10.1439" fill="none" stroke="black"/>
<text xml:space="preserve" x="89.5406" y="50.7193" fill="black" font-size="16.0105" font-family="Helvetica">pp </text>
<text xml:space="preserve" x="89.5406" y="85.6593" fill="black" font-size="16.0105" font-family="Helvetica">ALICE work in progress</text>
<text xml:space="preserve" x="214.085" y="120.599" fill="black" font-size="16.0105" font-family="Helvetica">) &lt; 14.0</text>
<text xml:space="preserve" x="205.068" y="120.599" fill="black" font-size="16.0105" font-family="Helvetica" font-style="oblique">c</text>
<text xml:space="preserve" x="154.912" y="120.599" fill="black" font-size="16.0105" font-family="Helvetica"> /(GeV/</text>
<text xml:space="preserve" x="148.15" y="128.489" fill="black" font-size="10.8403" font-family="Helvetica">T</text>
<text xml:space="preserve" x="138.569" y="120.599" fill="black" font-size="16.0105" font-family="Helvetica" font-style="oblique">p</text>
<text xml:space="preserve" x="133.497" y="120.599" fill="black" font-size="16.0105" font-family="Helvetica"> </text>
<text xml:space="preserve" x="125.044" y="120.599" fill="black" font-size="16.0105" font-family="Times">&#8804;</text>
<text xml:space="preserve" x="89.5406" y="120.599" fill="black" font-size="16.0105" font-family="Helvetica">12.0 </text>
<text xml:space="preserve" x="134.624" y="158.357" fill="black" font-size="16.0105" font-family="Helvetica">background</text>
<path d="M92.9803,152.186h 34.7244" fill="none" stroke="#993333" stroke-width="2"/>
<g fill="#993333">
<rect x="105.834" y="147.678" width="9.01677" height="9.01677"/>
</g>
<text xml:space="preserve" x="134.624" y="185.971" fill="black" font-size="16.0105" font-family="Helvetica">same event</text>
<path d="M92.9803,179.856h 34.7244" fill="none" stroke="black" stroke-width="2"/>
<g fill="black">
<circle cx="110.343" cy="179.856" r="4.50838"/>
</g></svg>
